<svg width="384" height="384" xmlns="http://www.w3.org/2000/svg" shape-rendering="crispEdges"><path fill="#A1A6FF" d="M240 228h4v4h-4zM244 228h4v4h-4zM248 228h4v4h-4zM232 232h4v4h-4zM236 232h4v4h-4z"/><path fill="#605DCA" d="M240 232h4v4h-4zM244 232h4v4h-4zM248 232h4v4h-4z"/><path fill="#A1A6FF" d="M252 232h4v4h-4z"/><path fill="#7975FC" d="M224 236h4v4h-4zM228 236h4v4h-4z"/><path fill="#6765DB" d="M232 236h4v4h-4z"/><path fill="#6563D9" d="M236 236h4v4h-4zM240 236h4v4h-4zM244 236h4v4h-4zM248 236h4v4h-4z"/><path fill="#605DCA" d="M252 236h4v4h-4z"/><path fill="#A1A6FF" d="M256 236h4v4h-4z"/><path fill="#7975FC" d="M216 240h4v4h-4zM220 240h4v4h-4zM224 240h4v4h-4z"/><path fill="#6563D9" d="M228 240h4v4h-4zM232 240h4v4h-4zM236 240h4v4h-4zM240 240h4v4h-4zM244 240h4v4h-4zM248 240h4v4h-4z"/><path fill="#605DCA" d="M252 240h4v4h-4z"/><path fill="#A1A6FF" d="M256 240h4v4h-4z"/><path fill="#7975FC" d="M212 244h4v4h-4z"/><path fill="#6765DB" d="M216 244h4v4h-4zM220 244h4v4h-4z"/><path fill="#6563D9" d="M224 244h4v4h-4zM228 244h4v4h-4zM232 244h4v4h-4zM236 244h4v4h-4zM240 244h4v4h-4zM244 244h4v4h-4zM248 244h4v4h-4z"/><path fill="#605DCA" d="M252 244h4v4h-4z"/><path fill="#7975FC" d="M256 244h4v4h-4zM208 248h4v4h-4z"/><path fill="#6765DB" d="M212 248h4v4h-4zM216 248h4v4h-4zM220 248h4v4h-4z"/><path fill="#605DCA" d="M224 248h4v4h-4zM228 248h4v4h-4zM232 248h4v4h-4zM236 248h4v4h-4zM240 248h4v4h-4z"/><path fill="#6563D9" d="M244 248h4v4h-4zM248 248h4v4h-4zM252 248h4v4h-4z"/><path fill="#605DCA" d="M256 248h4v4h-4z"/><path fill="#7579FF" d="M260 248h4v4h-4z"/><path fill="#A1A6FF" d="M128 252h4v4h-4zM132 252h4v4h-4zM136 252h4v4h-4z"/><path fill="#7975FC" d="M204 252h4v4h-4z"/><path fill="#6765DB" d="M208 252h4v4h-4zM212 252h4v4h-4zM216 252h4v4h-4zM220 252h4v4h-4zM224 252h4v4h-4z"/><path fill="#7975FC" d="M244 252h4v4h-4z"/><path fill="#6563D9" d="M248 252h4v4h-4zM252 252h4v4h-4z"/><path fill="#605DCA" d="M256 252h4v4h-4z"/><path fill="#7579FF" d="M260 252h4v4h-4z"/><path fill="#A1A6FF" d="M124 256h4v4h-4z"/><path fill="#605DCA" d="M128 256h4v4h-4zM132 256h4v4h-4zM136 256h4v4h-4z"/><path fill="#A1A6FF" d="M140 256h4v4h-4zM144 256h4v4h-4z"/><path fill="#7975FC" d="M200 256h4v4h-4z"/><path fill="#6765DB" d="M204 256h4v4h-4zM208 256h4v4h-4zM212 256h4v4h-4zM216 256h4v4h-4zM220 256h4v4h-4z"/><path fill="#A1A6FF" d="M224 256h4v4h-4zM228 256h4v4h-4zM232 256h4v4h-4z"/><path fill="#7975FC" d="M244 256h4v4h-4z"/><path fill="#6563D9" d="M248 256h4v4h-4zM252 256h4v4h-4z"/><path fill="#605DCA" d="M256 256h4v4h-4z"/><path fill="#7579FF" d="M260 256h4v4h-4z"/><path fill="#A1A6FF" d="M120 260h4v4h-4z"/><path fill="#605DCA" d="M124 260h4v4h-4z"/><path fill="#6563D9" d="M128 260h4v4h-4zM132 260h4v4h-4zM136 260h4v4h-4zM140 260h4v4h-4z"/><path fill="#6765DB" d="M144 260h4v4h-4z"/><path fill="#7975FC" d="M148 260h4v4h-4zM152 260h4v4h-4zM156 260h4v4h-4zM160 260h4v4h-4zM164 260h4v4h-4zM168 260h4v4h-4zM192 260h4v4h-4zM196 260h4v4h-4z"/><path fill="#6765DB" d="M200 260h4v4h-4zM204 260h4v4h-4zM208 260h4v4h-4zM212 260h4v4h-4zM216 260h4v4h-4zM220 260h4v4h-4zM224 260h4v4h-4zM228 260h4v4h-4zM232 260h4v4h-4z"/><path fill="#A1A6FF" d="M236 260h4v4h-4z"/><path fill="#7975FC" d="M248 260h4v4h-4z"/><path fill="#6563D9" d="M252 260h4v4h-4z"/><path fill="#605DCA" d="M256 260h4v4h-4z"/><path fill="#7579FF" d="M260 260h4v4h-4z"/><path fill="#A1A6FF" d="M120 264h4v4h-4z"/><path fill="#605DCA" d="M124 264h4v4h-4z"/><path fill="#6563D9" d="M128 264h4v4h-4zM132 264h4v4h-4zM136 264h4v4h-4zM140 264h4v4h-4zM144 264h4v4h-4zM148 264h4v4h-4zM152 264h4v4h-4zM156 264h4v4h-4zM160 264h4v4h-4z"/><path fill="#6765DB" d="M164 264h4v4h-4zM168 264h4v4h-4z"/><path fill="#7975FC" d="M172 264h4v4h-4zM176 264h4v4h-4zM180 264h4v4h-4zM184 264h4v4h-4zM188 264h4v4h-4z"/><path fill="#6765DB" d="M192 264h4v4h-4zM196 264h4v4h-4zM200 264h4v4h-4zM204 264h4v4h-4zM208 264h4v4h-4zM212 264h4v4h-4zM216 264h4v4h-4zM220 264h4v4h-4z"/><path fill="#7975FC" d="M224 264h4v4h-4zM228 264h4v4h-4zM232 264h4v4h-4z"/><path fill="#6765DB" d="M236 264h4v4h-4z"/><path fill="#A1A6FF" d="M240 264h4v4h-4z"/><path fill="#7975FC" d="M248 264h4v4h-4z"/><path fill="#6563D9" d="M252 264h4v4h-4z"/><path fill="#A1A6FF" d="M256 264h4v4h-4z"/><path fill="#7579FF" d="M260 264h4v4h-4z"/><path fill="#7975FC" d="M120 268h4v4h-4z"/><path fill="#605DCA" d="M124 268h4v4h-4z"/><path fill="#6563D9" d="M128 268h4v4h-4zM132 268h4v4h-4zM136 268h4v4h-4zM140 268h4v4h-4zM144 268h4v4h-4zM148 268h4v4h-4zM152 268h4v4h-4z"/><path fill="#6765DB" d="M156 268h4v4h-4z"/><path fill="#6563D9" d="M160 268h4v4h-4z"/><path fill="#6765DB" d="M164 268h4v4h-4zM168 268h4v4h-4zM172 268h4v4h-4zM176 268h4v4h-4zM180 268h4v4h-4zM184 268h4v4h-4zM188 268h4v4h-4zM192 268h4v4h-4zM196 268h4v4h-4zM200 268h4v4h-4zM204 268h4v4h-4zM208 268h4v4h-4zM212 268h4v4h-4zM216 268h4v4h-4zM220 268h4v4h-4z"/><path fill="#7975FC" d="M224 268h4v4h-4zM228 268h4v4h-4zM232 268h4v4h-4z"/><path fill="#6765DB" d="M236 268h4v4h-4z"/><path fill="#A1A6FF" d="M240 268h4v4h-4z"/><path fill="#7975FC" d="M248 268h4v4h-4z"/><path fill="#6563D9" d="M252 268h4v4h-4z"/><path fill="#A1A6FF" d="M256 268h4v4h-4z"/><path fill="#7579FF" d="M260 268h4v4h-4zM116 272h4v4h-4z"/><path fill="#605DCA" d="M120 272h4v4h-4z"/><path fill="#6563D9" d="M124 272h4v4h-4zM128 272h4v4h-4zM132 272h4v4h-4z"/><path fill="#605DCA" d="M136 272h4v4h-4zM140 272h4v4h-4zM144 272h4v4h-4zM148 272h4v4h-4zM152 272h4v4h-4z"/><path fill="#6765DB" d="M156 272h4v4h-4zM160 272h4v4h-4zM164 272h4v4h-4zM168 272h4v4h-4zM172 272h4v4h-4zM176 272h4v4h-4zM180 272h4v4h-4zM184 272h4v4h-4zM188 272h4v4h-4zM192 272h4v4h-4zM196 272h4v4h-4zM200 272h4v4h-4zM204 272h4v4h-4zM208 272h4v4h-4zM212 272h4v4h-4zM216 272h4v4h-4zM220 272h4v4h-4zM224 272h4v4h-4z"/><path fill="#7975FC" d="M228 272h4v4h-4zM232 272h4v4h-4zM236 272h4v4h-4z"/><path fill="#6765DB" d="M240 272h4v4h-4z"/><path fill="#A1A6FF" d="M244 272h4v4h-4z"/><path fill="#7975FC" d="M248 272h4v4h-4z"/><path fill="#6563D9" d="M252 272h4v4h-4z"/><path fill="#A1A6FF" d="M256 272h4v4h-4z"/><path fill="#7579FF" d="M260 272h4v4h-4zM116 276h4v4h-4z"/><path fill="#605DCA" d="M120 276h4v4h-4z"/><path fill="#6563D9" d="M124 276h4v4h-4zM128 276h4v4h-4z"/><path fill="#7975FC" d="M132 276h4v4h-4z"/><path fill="#605DCA" d="M156 276h4v4h-4zM160 276h4v4h-4zM164 276h4v4h-4zM168 276h4v4h-4zM172 276h4v4h-4z"/><path fill="#6765DB" d="M176 276h4v4h-4zM180 276h4v4h-4zM184 276h4v4h-4zM188 276h4v4h-4zM192 276h4v4h-4zM196 276h4v4h-4zM200 276h4v4h-4zM204 276h4v4h-4zM208 276h4v4h-4zM212 276h4v4h-4z"/><path fill="#605DCA" d="M216 276h4v4h-4zM220 276h4v4h-4zM224 276h4v4h-4z"/><path fill="#6765DB" d="M228 276h4v4h-4z"/><path fill="#7975FC" d="M232 276h4v4h-4zM236 276h4v4h-4z"/><path fill="#6765DB" d="M240 276h4v4h-4z"/><path fill="#A1A6FF" d="M244 276h4v4h-4z"/><path fill="#7975FC" d="M252 276h4v4h-4z"/><path fill="#6563D9" d="M256 276h4v4h-4z"/><path fill="#7579FF" d="M260 276h4v4h-4zM116 280h4v4h-4z"/><path fill="#605DCA" d="M120 280h4v4h-4z"/><path fill="#6563D9" d="M124 280h4v4h-4zM128 280h4v4h-4z"/><path fill="#7975FC" d="M132 280h4v4h-4z"/><path fill="#A1A6FF" d="M144 280h4v4h-4zM148 280h4v4h-4zM152 280h4v4h-4z"/><path fill="#605DCA" d="M168 280h4v4h-4zM172 280h4v4h-4zM176 280h4v4h-4zM180 280h4v4h-4z"/><path fill="#6765DB" d="M184 280h4v4h-4zM188 280h4v4h-4zM192 280h4v4h-4zM196 280h4v4h-4zM200 280h4v4h-4zM204 280h4v4h-4zM208 280h4v4h-4z"/><path fill="#605DCA" d="M212 280h4v4h-4z"/><path fill="#A1A6FF" d="M228 280h4v4h-4z"/><path fill="#6765DB" d="M232 280h4v4h-4z"/><path fill="#7975FC" d="M236 280h4v4h-4z"/><path fill="#6765DB" d="M240 280h4v4h-4z"/><path fill="#A1A6FF" d="M244 280h4v4h-4z"/><path fill="#7975FC" d="M252 280h4v4h-4z"/><path fill="#6563D9" d="M256 280h4v4h-4z"/><path fill="#7579FF" d="M260 280h4v4h-4zM116 284h4v4h-4z"/><path fill="#605DCA" d="M120 284h4v4h-4z"/><path fill="#6563D9" d="M124 284h4v4h-4z"/><path fill="#7975FC" d="M128 284h4v4h-4z"/><path fill="#A1A6FF" d="M140 284h4v4h-4z"/><path fill="#6765DB" d="M144 284h4v4h-4zM148 284h4v4h-4zM152 284h4v4h-4z"/><path fill="#A1A6FF" d="M156 284h4v4h-4zM160 284h4v4h-4zM164 284h4v4h-4zM168 284h4v4h-4zM172 284h4v4h-4zM176 284h4v4h-4z"/><path fill="#6765DB" d="M180 284h4v4h-4zM184 284h4v4h-4zM188 284h4v4h-4zM192 284h4v4h-4zM196 284h4v4h-4zM200 284h4v4h-4z"/><path fill="#605DCA" d="M204 284h4v4h-4zM208 284h4v4h-4z"/><path fill="#A1A6FF" d="M228 284h4v4h-4z"/><path fill="#6765DB" d="M232 284h4v4h-4z"/><path fill="#7975FC" d="M236 284h4v4h-4z"/><path fill="#6765DB" d="M240 284h4v4h-4z"/><path fill="#A1A6FF" d="M244 284h4v4h-4zM256 284h4v4h-4z"/><path fill="#7579FF" d="M116 288h4v4h-4z"/><path fill="#A1A6FF" d="M120 288h4v4h-4z"/><path fill="#6563D9" d="M124 288h4v4h-4z"/><path fill="#7975FC" d="M128 288h4v4h-4z"/><path fill="#A1A6FF" d="M136 288h4v4h-4z"/><path fill="#6765DB" d="M140 288h4v4h-4z"/><path fill="#7975FC" d="M144 288h4v4h-4zM148 288h4v4h-4zM152 288h4v4h-4z"/><path fill="#6765DB" d="M156 288h4v4h-4zM160 288h4v4h-4zM164 288h4v4h-4zM168 288h4v4h-4zM172 288h4v4h-4zM176 288h4v4h-4zM180 288h4v4h-4zM184 288h4v4h-4zM188 288h4v4h-4zM192 288h4v4h-4zM196 288h4v4h-4zM200 288h4v4h-4zM204 288h4v4h-4z"/><path fill="#A1A6FF" d="M232 288h4v4h-4z"/><path fill="#7975FC" d="M236 288h4v4h-4z"/><path fill="#6765DB" d="M240 288h4v4h-4z"/><path fill="#A1A6FF" d="M244 288h4v4h-4z"/><path fill="#7975FC" d="M256 288h4v4h-4z"/><path fill="#7579FF" d="M116 292h4v4h-4z"/><path fill="#A1A6FF" d="M120 292h4v4h-4z"/><path fill="#6563D9" d="M124 292h4v4h-4z"/><path fill="#7975FC" d="M128 292h4v4h-4z"/><path fill="#A1A6FF" d="M136 292h4v4h-4z"/><path fill="#6765DB" d="M140 292h4v4h-4z"/><path fill="#7975FC" d="M144 292h4v4h-4zM148 292h4v4h-4zM152 292h4v4h-4zM156 292h4v4h-4zM160 292h4v4h-4zM164 292h4v4h-4zM168 292h4v4h-4zM172 292h4v4h-4zM176 292h4v4h-4zM180 292h4v4h-4zM184 292h4v4h-4z"/><path fill="#6765DB" d="M188 292h4v4h-4zM192 292h4v4h-4z"/><path fill="#A1A6FF" d="M196 292h4v4h-4zM200 292h4v4h-4zM232 292h4v4h-4z"/><path fill="#7975FC" d="M236 292h4v4h-4z"/><path fill="#E9E9FF" d="M240 292h4v4h-4z"/><path fill="#A1A6FF" d="M244 292h4v4h-4z"/><path fill="#7579FF" d="M116 296h4v4h-4z"/><path fill="#A1A6FF" d="M120 296h4v4h-4z"/><path fill="#6563D9" d="M124 296h4v4h-4z"/><path fill="#7975FC" d="M128 296h4v4h-4z"/><path fill="#A1A6FF" d="M132 296h4v4h-4z"/><path fill="#6765DB" d="M136 296h4v4h-4z"/><path fill="#7975FC" d="M140 296h4v4h-4zM144 296h4v4h-4zM148 296h4v4h-4z"/><path fill="#6765DB" d="M152 296h4v4h-4zM156 296h4v4h-4zM160 296h4v4h-4zM164 296h4v4h-4zM168 296h4v4h-4zM172 296h4v4h-4zM176 296h4v4h-4zM180 296h4v4h-4zM184 296h4v4h-4z"/><path fill="#A1A6FF" d="M188 296h4v4h-4zM192 296h4v4h-4zM232 296h4v4h-4z"/><path fill="#7975FC" d="M236 296h4v4h-4z"/><path fill="#E9E9FF" d="M240 296h4v4h-4z"/><path fill="#A1A6FF" d="M244 296h4v4h-4z"/><path fill="#7579FF" d="M116 300h4v4h-4z"/><path fill="#6563D9" d="M120 300h4v4h-4z"/><path fill="#7975FC" d="M124 300h4v4h-4z"/><path fill="#A1A6FF" d="M132 300h4v4h-4z"/><path fill="#6765DB" d="M136 300h4v4h-4z"/><path fill="#7975FC" d="M140 300h4v4h-4zM144 300h4v4h-4z"/><path fill="#6765DB" d="M148 300h4v4h-4z"/><path fill="#A1A6FF" d="M152 300h4v4h-4zM156 300h4v4h-4zM160 300h4v4h-4zM164 300h4v4h-4zM168 300h4v4h-4zM172 300h4v4h-4zM176 300h4v4h-4zM180 300h4v4h-4zM184 300h4v4h-4zM232 300h4v4h-4z"/><path fill="#7975FC" d="M236 300h4v4h-4z"/><path fill="#E9E9FF" d="M240 300h4v4h-4z"/><path fill="#A1A6FF" d="M244 300h4v4h-4z"/><path fill="#7579FF" d="M116 304h4v4h-4z"/><path fill="#6563D9" d="M120 304h4v4h-4z"/><path fill="#7975FC" d="M124 304h4v4h-4z"/><path fill="#A1A6FF" d="M132 304h4v4h-4z"/><path fill="#6765DB" d="M136 304h4v4h-4z"/><path fill="#7975FC" d="M140 304h4v4h-4z"/><path fill="#6765DB" d="M144 304h4v4h-4z"/><path fill="#A1A6FF" d="M148 304h4v4h-4zM172 304h4v4h-4zM236 304h4v4h-4z"/><path fill="#7975FC" d="M240 304h4v4h-4z"/><path fill="#A1A6FF" d="M244 304h4v4h-4zM120 308h4v4h-4zM132 308h4v4h-4z"/><path fill="#6765DB" d="M136 308h4v4h-4z"/><path fill="#7975FC" d="M140 308h4v4h-4z"/><path fill="#6765DB" d="M144 308h4v4h-4z"/><path fill="#A1A6FF" d="M148 308h4v4h-4zM236 308h4v4h-4z"/><path fill="#7975FC" d="M240 308h4v4h-4z"/><path fill="#A1A6FF" d="M244 308h4v4h-4z"/><path fill="#7975FC" d="M120 312h4v4h-4z"/><path fill="#A1A6FF" d="M132 312h4v4h-4z"/><path fill="#6765DB" d="M136 312h4v4h-4z"/><path fill="#7975FC" d="M140 312h4v4h-4z"/><path fill="#A1A6FF" d="M144 312h4v4h-4z"/><path fill="#FFF" d="M240 312h4v4h-4z"/><path fill="#A1A6FF" d="M132 316h4v4h-4z"/><path fill="#E9E9FF" d="M136 316h4v4h-4z"/><path fill="#7975FC" d="M140 316h4v4h-4z"/><path fill="#A1A6FF" d="M144 316h4v4h-4zM240 316h4v4h-4zM132 320h4v4h-4z"/><path fill="#E9E9FF" d="M136 320h4v4h-4z"/><path fill="#7975FC" d="M140 320h4v4h-4z"/><path fill="#A1A6FF" d="M144 320h4v4h-4zM132 324h4v4h-4z"/><path fill="#E9E9FF" d="M136 324h4v4h-4z"/><path fill="#7975FC" d="M140 324h4v4h-4z"/><path fill="#A1A6FF" d="M144 324h4v4h-4zM132 328h4v4h-4z"/><path fill="#7975FC" d="M136 328h4v4h-4z"/><path fill="#A1A6FF" d="M140 328h4v4h-4zM132 332h4v4h-4z"/><path fill="#7975FC" d="M136 332h4v4h-4z"/><path fill="#A1A6FF" d="M140 332h4v4h-4z"/><path fill="#FFF" d="M136 336h4v4h-4z"/><path fill="#A1A6FF" d="M136 340h4v4h-4z"/></svg>