<svg width="384" height="384" xmlns="http://www.w3.org/2000/svg" shape-rendering="crispEdges"><path fill="#C0EE41" d="M240 104h4v4h-4zM244 104h4v4h-4zM248 104h4v4h-4z"/><path fill="#CEFF45" d="M236 108h4v4h-4zM240 108h4v4h-4zM244 108h4v4h-4zM248 108h4v4h-4z"/><path fill="#C0EE41" d="M212 112h4v4h-4zM216 112h4v4h-4zM220 112h4v4h-4zM224 112h4v4h-4zM228 112h4v4h-4zM232 112h4v4h-4zM236 112h4v4h-4zM240 112h4v4h-4zM248 112h4v4h-4z"/><path fill="#CEFF45" d="M212 116h4v4h-4zM216 116h4v4h-4zM220 116h4v4h-4zM224 116h4v4h-4zM228 116h4v4h-4zM232 116h4v4h-4zM236 116h4v4h-4zM240 116h4v4h-4zM248 116h4v4h-4z"/><path fill="#C0EE41" d="M216 120h4v4h-4zM224 120h4v4h-4zM236 120h4v4h-4zM240 120h4v4h-4zM244 120h4v4h-4zM248 120h4v4h-4z"/><path fill="#CEFF45" d="M216 124h4v4h-4zM224 124h4v4h-4zM240 124h4v4h-4zM244 124h4v4h-4zM248 124h4v4h-4z"/></svg>