<svg width="384" height="384" xmlns="http://www.w3.org/2000/svg" shape-rendering="crispEdges"><path fill="#FF004E" d="M228 96h4v4h-4zM224 100h4v4h-4zM228 100h4v4h-4zM236 100h4v4h-4zM220 104h4v4h-4zM224 104h4v4h-4zM228 104h4v4h-4zM232 104h4v4h-4zM236 104h4v4h-4zM216 108h4v4h-4zM220 108h4v4h-4zM224 108h4v4h-4zM228 108h4v4h-4zM232 108h4v4h-4zM236 108h4v4h-4zM240 108h4v4h-4zM216 112h4v4h-4zM220 112h4v4h-4zM224 112h4v4h-4zM228 112h4v4h-4z"/><path fill="#F9B8F9" d="M232 112h4v4h-4z"/><path fill="#FF004E" d="M236 112h4v4h-4zM240 112h4v4h-4zM244 112h4v4h-4zM216 116h4v4h-4zM220 116h4v4h-4z"/><path fill="#F9B8F9" d="M224 116h4v4h-4zM228 116h4v4h-4zM232 116h4v4h-4zM236 116h4v4h-4z"/><path fill="#FF004E" d="M240 116h4v4h-4zM244 116h4v4h-4zM216 120h4v4h-4zM220 120h4v4h-4z"/><path fill="#F9B8F9" d="M224 120h4v4h-4zM228 120h4v4h-4zM232 120h4v4h-4zM236 120h4v4h-4z"/><path fill="#FF004E" d="M240 120h4v4h-4zM244 120h4v4h-4zM216 124h4v4h-4zM220 124h4v4h-4zM224 124h4v4h-4z"/><path fill="#F9B8F9" d="M228 124h4v4h-4zM232 124h4v4h-4z"/><path fill="#FF004E" d="M236 124h4v4h-4zM240 124h4v4h-4zM244 124h4v4h-4zM220 128h4v4h-4zM224 128h4v4h-4zM228 128h4v4h-4zM232 128h4v4h-4zM236 128h4v4h-4zM240 128h4v4h-4zM224 132h4v4h-4zM228 132h4v4h-4zM232 132h4v4h-4zM236 132h4v4h-4z"/></svg>