<svg width="384" height="384" xmlns="http://www.w3.org/2000/svg" shape-rendering="crispEdges"><path fill="#A9618F" d="M228 92h4v4h-4zM224 96h4v4h-4z"/><path fill="#D7038D" d="M228 96h4v4h-4z"/><path fill="#A9618F" d="M232 96h4v4h-4zM220 100h4v4h-4z"/><path fill="#D7038D" d="M224 100h4v4h-4zM228 100h4v4h-4z"/><path fill="#FFB9E7" d="M232 100h4v4h-4z"/><path fill="#A9618F" d="M236 100h4v4h-4zM216 104h4v4h-4z"/><path fill="#D7038D" d="M220 104h4v4h-4zM224 104h4v4h-4zM228 104h4v4h-4zM232 104h4v4h-4zM236 104h4v4h-4z"/><path fill="#A9618F" d="M240 104h4v4h-4zM212 108h4v4h-4z"/><path fill="#FF34B8" d="M216 108h4v4h-4zM220 108h4v4h-4zM224 108h4v4h-4zM228 108h4v4h-4z"/><path fill="#D7038D" d="M232 108h4v4h-4zM236 108h4v4h-4zM240 108h4v4h-4z"/><path fill="#A9618F" d="M244 108h4v4h-4zM216 112h4v4h-4z"/><path fill="#FF34B8" d="M220 112h4v4h-4zM224 112h4v4h-4zM228 112h4v4h-4z"/><path fill="#D7038D" d="M232 112h4v4h-4zM236 112h4v4h-4z"/><path fill="#A9618F" d="M240 112h4v4h-4zM220 116h4v4h-4z"/><path fill="#FF34B8" d="M224 116h4v4h-4zM228 116h4v4h-4z"/><path fill="#D7038D" d="M232 116h4v4h-4z"/><path fill="#A9618F" d="M236 116h4v4h-4zM224 120h4v4h-4z"/><path fill="#FF34B8" d="M228 120h4v4h-4z"/><path fill="#A9618F" d="M232 120h4v4h-4zM228 124h4v4h-4z"/></svg>