<svg width="384" height="384" xmlns="http://www.w3.org/2000/svg" shape-rendering="crispEdges"><path fill="#3FBA18" d="M192 80h4v4h-4zM196 80h4v4h-4zM200 80h4v4h-4zM204 80h4v4h-4zM208 80h4v4h-4zM212 80h4v4h-4zM216 80h4v4h-4zM220 80h4v4h-4z"/><path fill="#3ABE10" d="M184 84h4v4h-4zM188 84h4v4h-4z"/><path fill="#63E739" d="M192 84h4v4h-4zM196 84h4v4h-4zM200 84h4v4h-4z"/><path fill="#AFF965" d="M204 84h4v4h-4zM208 84h4v4h-4zM212 84h4v4h-4zM216 84h4v4h-4z"/><path fill="#63E739" d="M220 84h4v4h-4z"/><path fill="#3ABE10" d="M224 84h4v4h-4z"/><path fill="#3FBA18" d="M180 88h4v4h-4z"/><path fill="#5DD836" d="M184 88h4v4h-4zM188 88h4v4h-4zM192 88h4v4h-4zM196 88h4v4h-4z"/><path fill="#3FBA18" d="M200 88h4v4h-4z"/><path fill="#5DD836" d="M204 88h4v4h-4z"/><path fill="#A4F65F" d="M208 88h4v4h-4zM212 88h4v4h-4z"/><path fill="#5DD836" d="M216 88h4v4h-4zM220 88h4v4h-4z"/><path fill="#A4F65F" d="M224 88h4v4h-4z"/><path fill="#3FBA18" d="M228 88h4v4h-4z"/><path fill="#3ABE10" d="M180 92h4v4h-4z"/><path fill="#63E739" d="M184 92h4v4h-4zM188 92h4v4h-4z"/><path fill="#3ABE10" d="M192 92h4v4h-4zM196 92h4v4h-4z"/><path fill="#46B524" d="M204 92h4v4h-4z"/><path fill="#43B221" d="M208 92h4v4h-4zM212 92h4v4h-4z"/><path fill="#AFF965" d="M216 92h4v4h-4zM220 92h4v4h-4z"/><path fill="#63E739" d="M224 92h4v4h-4zM228 92h4v4h-4z"/><path fill="#3ABE10" d="M232 92h4v4h-4z"/><path fill="#3FBA18" d="M180 96h4v4h-4z"/><path fill="#5DD836" d="M184 96h4v4h-4z"/><path fill="#4AB12A" d="M188 96h4v4h-4zM208 96h4v4h-4z"/><path fill="#3FA61F" d="M212 96h4v4h-4zM216 96h4v4h-4z"/><path fill="#5DD836" d="M220 96h4v4h-4zM224 96h4v4h-4zM228 96h4v4h-4zM232 96h4v4h-4z"/><path fill="#3FBA18" d="M236 96h4v4h-4z"/><path fill="#3ABE10" d="M176 100h4v4h-4z"/><path fill="#43B221" d="M180 100h4v4h-4zM184 100h4v4h-4z"/><path fill="#46B524" d="M188 100h4v4h-4zM208 100h4v4h-4z"/><path fill="#43B221" d="M212 100h4v4h-4zM216 100h4v4h-4zM220 100h4v4h-4z"/><path fill="#63E739" d="M224 100h4v4h-4zM228 100h4v4h-4zM232 100h4v4h-4z"/><path fill="#3ABE10" d="M236 100h4v4h-4z"/><path fill="#4AB12A" d="M180 104h4v4h-4z"/><path fill="#3FA61F" d="M184 104h4v4h-4zM188 104h4v4h-4z"/><path fill="#4AB12A" d="M192 104h4v4h-4zM208 104h4v4h-4z"/><path fill="#3FA61F" d="M212 104h4v4h-4zM216 104h4v4h-4zM220 104h4v4h-4z"/><path fill="#5DD836" d="M224 104h4v4h-4zM228 104h4v4h-4zM232 104h4v4h-4z"/><path fill="#3FBA18" d="M236 104h4v4h-4z"/><path fill="#46B524" d="M180 108h4v4h-4z"/><path fill="#43B221" d="M184 108h4v4h-4zM188 108h4v4h-4z"/><path fill="#46B524" d="M192 108h4v4h-4zM212 108h4v4h-4z"/><path fill="#43B221" d="M216 108h4v4h-4zM220 108h4v4h-4zM224 108h4v4h-4z"/><path fill="#63E739" d="M228 108h4v4h-4zM232 108h4v4h-4zM236 108h4v4h-4z"/><path fill="#3ABE10" d="M240 108h4v4h-4z"/><path fill="#4AB12A" d="M180 112h4v4h-4z"/><path fill="#3FA61F" d="M184 112h4v4h-4zM188 112h4v4h-4z"/><path fill="#4AB12A" d="M192 112h4v4h-4zM212 112h4v4h-4z"/><path fill="#3FA61F" d="M216 112h4v4h-4zM220 112h4v4h-4zM224 112h4v4h-4z"/><path fill="#5DD836" d="M228 112h4v4h-4zM232 112h4v4h-4zM236 112h4v4h-4z"/><path fill="#3FBA18" d="M240 112h4v4h-4z"/><path fill="#3ABE10" d="M180 116h4v4h-4z"/><path fill="#43B221" d="M184 116h4v4h-4zM188 116h4v4h-4zM192 116h4v4h-4z"/><path fill="#46B524" d="M196 116h4v4h-4zM216 116h4v4h-4z"/><path fill="#43B221" d="M220 116h4v4h-4zM224 116h4v4h-4z"/><path fill="#63E739" d="M228 116h4v4h-4zM232 116h4v4h-4zM236 116h4v4h-4z"/><path fill="#3ABE10" d="M240 116h4v4h-4z"/><path fill="#3FBA18" d="M180 120h4v4h-4z"/><path fill="#5DD836" d="M184 120h4v4h-4zM188 120h4v4h-4zM192 120h4v4h-4z"/><path fill="#4AB12A" d="M196 120h4v4h-4zM216 120h4v4h-4z"/><path fill="#3FA61F" d="M220 120h4v4h-4zM224 120h4v4h-4zM228 120h4v4h-4z"/><path fill="#5DD836" d="M232 120h4v4h-4zM236 120h4v4h-4zM240 120h4v4h-4z"/><path fill="#3FBA18" d="M244 120h4v4h-4z"/><path fill="#3ABE10" d="M152 124h4v4h-4zM156 124h4v4h-4zM160 124h4v4h-4zM164 124h4v4h-4zM168 124h4v4h-4zM172 124h4v4h-4zM176 124h4v4h-4z"/><path fill="#63E739" d="M180 124h4v4h-4zM184 124h4v4h-4zM188 124h4v4h-4zM192 124h4v4h-4z"/><path fill="#3ABE10" d="M196 124h4v4h-4z"/><path fill="#46B524" d="M216 124h4v4h-4z"/><path fill="#43B221" d="M220 124h4v4h-4zM224 124h4v4h-4zM228 124h4v4h-4z"/><path fill="#63E739" d="M232 124h4v4h-4zM236 124h4v4h-4zM240 124h4v4h-4z"/><path fill="#3ABE10" d="M244 124h4v4h-4z"/><path fill="#3FBA18" d="M140 128h4v4h-4zM144 128h4v4h-4zM148 128h4v4h-4z"/><path fill="#5DD836" d="M152 128h4v4h-4zM156 128h4v4h-4zM160 128h4v4h-4zM164 128h4v4h-4zM168 128h4v4h-4zM172 128h4v4h-4zM176 128h4v4h-4zM180 128h4v4h-4zM184 128h4v4h-4zM188 128h4v4h-4zM192 128h4v4h-4zM196 128h4v4h-4z"/><path fill="#3FBA18" d="M200 128h4v4h-4z"/><path fill="#4AB12A" d="M220 128h4v4h-4z"/><path fill="#3FA61F" d="M224 128h4v4h-4zM228 128h4v4h-4z"/><path fill="#5DD836" d="M232 128h4v4h-4zM236 128h4v4h-4z"/><path fill="#3FBA18" d="M240 128h4v4h-4z"/><path fill="#3ABE10" d="M48 132h4v4h-4zM52 132h4v4h-4zM128 132h4v4h-4zM132 132h4v4h-4zM136 132h4v4h-4z"/><path fill="#63E739" d="M140 132h4v4h-4zM144 132h4v4h-4zM148 132h4v4h-4zM152 132h4v4h-4zM156 132h4v4h-4zM160 132h4v4h-4zM164 132h4v4h-4zM168 132h4v4h-4zM172 132h4v4h-4zM176 132h4v4h-4zM180 132h4v4h-4zM184 132h4v4h-4zM188 132h4v4h-4zM192 132h4v4h-4zM196 132h4v4h-4z"/><path fill="#3ABE10" d="M200 132h4v4h-4z"/><path fill="#46B524" d="M220 132h4v4h-4z"/><path fill="#43B221" d="M224 132h4v4h-4zM228 132h4v4h-4z"/><path fill="#63E739" d="M232 132h4v4h-4zM236 132h4v4h-4z"/><path fill="#3ABE10" d="M240 132h4v4h-4z"/><path fill="#3FBA18" d="M36 136h4v4h-4zM40 136h4v4h-4zM44 136h4v4h-4z"/><path fill="#5DD836" d="M48 136h4v4h-4zM52 136h4v4h-4z"/><path fill="#3FBA18" d="M56 136h4v4h-4zM60 136h4v4h-4zM116 136h4v4h-4zM120 136h4v4h-4zM124 136h4v4h-4z"/><path fill="#5DD836" d="M128 136h4v4h-4zM132 136h4v4h-4zM136 136h4v4h-4zM140 136h4v4h-4zM144 136h4v4h-4zM148 136h4v4h-4zM152 136h4v4h-4zM156 136h4v4h-4zM160 136h4v4h-4zM164 136h4v4h-4zM168 136h4v4h-4zM172 136h4v4h-4zM176 136h4v4h-4zM180 136h4v4h-4zM184 136h4v4h-4zM188 136h4v4h-4z"/><path fill="#A4F65F" d="M192 136h4v4h-4z"/><path fill="#5DD836" d="M196 136h4v4h-4z"/><path fill="#3FBA18" d="M200 136h4v4h-4z"/><path fill="#4AB12A" d="M220 136h4v4h-4z"/><path fill="#3FA61F" d="M224 136h4v4h-4z"/><path fill="#5DD836" d="M228 136h4v4h-4zM232 136h4v4h-4zM236 136h4v4h-4z"/><path fill="#3FBA18" d="M240 136h4v4h-4z"/><path fill="#3ABE10" d="M32 140h4v4h-4z"/><path fill="#63E739" d="M36 140h4v4h-4zM40 140h4v4h-4zM44 140h4v4h-4zM48 140h4v4h-4zM52 140h4v4h-4zM56 140h4v4h-4zM60 140h4v4h-4z"/><path fill="#3ABE10" d="M64 140h4v4h-4zM108 140h4v4h-4zM112 140h4v4h-4z"/><path fill="#63E739" d="M116 140h4v4h-4zM120 140h4v4h-4zM124 140h4v4h-4zM128 140h4v4h-4z"/><path fill="#85FF5F" d="M132 140h4v4h-4zM136 140h4v4h-4z"/><path fill="#63E739" d="M140 140h4v4h-4zM144 140h4v4h-4z"/><path fill="#43B221" d="M148 140h4v4h-4zM152 140h4v4h-4zM156 140h4v4h-4zM160 140h4v4h-4zM164 140h4v4h-4zM168 140h4v4h-4zM172 140h4v4h-4zM176 140h4v4h-4zM180 140h4v4h-4zM184 140h4v4h-4z"/><path fill="#63E739" d="M188 140h4v4h-4zM192 140h4v4h-4z"/><path fill="#AFF965" d="M196 140h4v4h-4z"/><path fill="#63E739" d="M200 140h4v4h-4z"/><path fill="#3ABE10" d="M204 140h4v4h-4zM224 140h4v4h-4z"/><path fill="#63E739" d="M228 140h4v4h-4zM232 140h4v4h-4zM236 140h4v4h-4z"/><path fill="#3ABE10" d="M240 140h4v4h-4z"/><path fill="#3FBA18" d="M28 144h4v4h-4z"/><path fill="#5DD836" d="M32 144h4v4h-4zM36 144h4v4h-4zM40 144h4v4h-4z"/><path fill="#3FBA18" d="M44 144h4v4h-4zM48 144h4v4h-4zM52 144h4v4h-4z"/><path fill="#3FA61F" d="M56 144h4v4h-4zM60 144h4v4h-4z"/><path fill="#4AB12A" d="M64 144h4v4h-4z"/><path fill="#3FBA18" d="M100 144h4v4h-4zM104 144h4v4h-4z"/><path fill="#A4F65F" d="M108 144h4v4h-4zM112 144h4v4h-4z"/><path fill="#5DD836" d="M116 144h4v4h-4zM120 144h4v4h-4zM124 144h4v4h-4zM128 144h4v4h-4z"/><path fill="#85FF5F" d="M132 144h4v4h-4z"/><path fill="#8FF66F" d="M136 144h4v4h-4z"/><path fill="#3FA61F" d="M140 144h4v4h-4zM144 144h4v4h-4zM148 144h4v4h-4zM152 144h4v4h-4zM156 144h4v4h-4zM160 144h4v4h-4zM164 144h4v4h-4zM168 144h4v4h-4zM172 144h4v4h-4zM176 144h4v4h-4zM180 144h4v4h-4zM184 144h4v4h-4zM188 144h4v4h-4z"/><path fill="#5DD836" d="M192 144h4v4h-4z"/><path fill="#A4F65F" d="M196 144h4v4h-4z"/><path fill="#5DD836" d="M200 144h4v4h-4z"/><path fill="#3FBA18" d="M204 144h4v4h-4zM224 144h4v4h-4z"/><path fill="#5DD836" d="M228 144h4v4h-4zM232 144h4v4h-4z"/><path fill="#3FBA18" d="M236 144h4v4h-4z"/><path fill="#3ABE10" d="M24 148h4v4h-4z"/><path fill="#AFF965" d="M28 148h4v4h-4zM32 148h4v4h-4zM36 148h4v4h-4z"/><path fill="#3ABE10" d="M40 148h4v4h-4z"/><path fill="#46B524" d="M56 148h4v4h-4z"/><path fill="#43B221" d="M60 148h4v4h-4zM64 148h4v4h-4z"/><path fill="#46B524" d="M68 148h4v4h-4z"/><path fill="#3ABE10" d="M96 148h4v4h-4z"/><path fill="#63E739" d="M100 148h4v4h-4z"/><path fill="#AFF965" d="M104 148h4v4h-4z"/><path fill="#63E739" d="M108 148h4v4h-4zM112 148h4v4h-4zM116 148h4v4h-4zM120 148h4v4h-4z"/><path fill="#43B221" d="M124 148h4v4h-4zM128 148h4v4h-4zM132 148h4v4h-4zM136 148h4v4h-4zM140 148h4v4h-4zM144 148h4v4h-4zM148 148h4v4h-4zM152 148h4v4h-4zM156 148h4v4h-4zM160 148h4v4h-4zM164 148h4v4h-4zM168 148h4v4h-4zM172 148h4v4h-4zM176 148h4v4h-4zM180 148h4v4h-4zM184 148h4v4h-4zM188 148h4v4h-4z"/><path fill="#63E739" d="M192 148h4v4h-4z"/><path fill="#AFF965" d="M196 148h4v4h-4z"/><path fill="#63E739" d="M200 148h4v4h-4zM204 148h4v4h-4z"/><path fill="#3ABE10" d="M208 148h4v4h-4zM224 148h4v4h-4z"/><path fill="#63E739" d="M228 148h4v4h-4zM232 148h4v4h-4z"/><path fill="#3ABE10" d="M236 148h4v4h-4z"/><path fill="#3FBA18" d="M20 152h4v4h-4z"/><path fill="#A4F65F" d="M24 152h4v4h-4zM28 152h4v4h-4z"/><path fill="#5DD836" d="M32 152h4v4h-4z"/><path fill="#3FBA18" d="M36 152h4v4h-4z"/><path fill="#4AB12A" d="M56 152h4v4h-4z"/><path fill="#3FA61F" d="M60 152h4v4h-4zM64 152h4v4h-4z"/><path fill="#4AB12A" d="M68 152h4v4h-4z"/><path fill="#3FBA18" d="M88 152h4v4h-4zM92 152h4v4h-4z"/><path fill="#5DD836" d="M96 152h4v4h-4zM100 152h4v4h-4zM104 152h4v4h-4zM108 152h4v4h-4zM112 152h4v4h-4z"/><path fill="#3FA61F" d="M116 152h4v4h-4zM120 152h4v4h-4zM124 152h4v4h-4zM128 152h4v4h-4zM132 152h4v4h-4zM136 152h4v4h-4zM140 152h4v4h-4zM144 152h4v4h-4zM148 152h4v4h-4zM152 152h4v4h-4zM156 152h4v4h-4zM160 152h4v4h-4zM164 152h4v4h-4zM168 152h4v4h-4zM172 152h4v4h-4zM176 152h4v4h-4zM180 152h4v4h-4zM184 152h4v4h-4zM188 152h4v4h-4z"/><path fill="#5DD836" d="M192 152h4v4h-4z"/><path fill="#A4F65F" d="M196 152h4v4h-4z"/><path fill="#5DD836" d="M200 152h4v4h-4zM204 152h4v4h-4z"/><path fill="#3FBA18" d="M208 152h4v4h-4zM228 152h4v4h-4z"/><path fill="#5DD836" d="M232 152h4v4h-4z"/><path fill="#3FBA18" d="M236 152h4v4h-4z"/><path fill="#3ABE10" d="M20 156h4v4h-4z"/><path fill="#63E739" d="M24 156h4v4h-4zM28 156h4v4h-4z"/><path fill="#43B221" d="M32 156h4v4h-4zM36 156h4v4h-4z"/><path fill="#46B524" d="M40 156h4v4h-4zM56 156h4v4h-4z"/><path fill="#43B221" d="M60 156h4v4h-4zM64 156h4v4h-4z"/><path fill="#46B524" d="M68 156h4v4h-4z"/><path fill="#3ABE10" d="M84 156h4v4h-4z"/><path fill="#63E739" d="M88 156h4v4h-4z"/><path fill="#AFF965" d="M92 156h4v4h-4z"/><path fill="#63E739" d="M96 156h4v4h-4zM100 156h4v4h-4z"/><path fill="#43B221" d="M104 156h4v4h-4zM108 156h4v4h-4zM112 156h4v4h-4zM116 156h4v4h-4zM120 156h4v4h-4zM124 156h4v4h-4zM128 156h4v4h-4zM132 156h4v4h-4zM136 156h4v4h-4zM140 156h4v4h-4zM144 156h4v4h-4zM148 156h4v4h-4zM152 156h4v4h-4zM156 156h4v4h-4zM160 156h4v4h-4zM164 156h4v4h-4zM168 156h4v4h-4zM172 156h4v4h-4zM176 156h4v4h-4zM180 156h4v4h-4zM184 156h4v4h-4zM188 156h4v4h-4z"/><path fill="#63E739" d="M192 156h4v4h-4z"/><path fill="#AFF965" d="M196 156h4v4h-4z"/><path fill="#63E739" d="M200 156h4v4h-4zM204 156h4v4h-4z"/><path fill="#3ABE10" d="M208 156h4v4h-4z"/><path fill="#46B524" d="M224 156h4v4h-4z"/><path fill="#63E739" d="M228 156h4v4h-4zM232 156h4v4h-4z"/><path fill="#3ABE10" d="M236 156h4v4h-4z"/><path fill="#3FBA18" d="M20 160h4v4h-4z"/><path fill="#A4F65F" d="M24 160h4v4h-4zM28 160h4v4h-4z"/><path fill="#3FA61F" d="M32 160h4v4h-4zM36 160h4v4h-4z"/><path fill="#4AB12A" d="M40 160h4v4h-4zM60 160h4v4h-4z"/><path fill="#3FA61F" d="M64 160h4v4h-4zM68 160h4v4h-4z"/><path fill="#3FBA18" d="M72 160h4v4h-4zM76 160h4v4h-4zM80 160h4v4h-4z"/><path fill="#5DD836" d="M84 160h4v4h-4z"/><path fill="#A4F65F" d="M88 160h4v4h-4z"/><path fill="#5DD836" d="M92 160h4v4h-4zM96 160h4v4h-4z"/><path fill="#3FA61F" d="M100 160h4v4h-4zM104 160h4v4h-4zM108 160h4v4h-4zM112 160h4v4h-4zM116 160h4v4h-4zM120 160h4v4h-4zM124 160h4v4h-4zM128 160h4v4h-4zM132 160h4v4h-4zM136 160h4v4h-4zM140 160h4v4h-4zM144 160h4v4h-4zM148 160h4v4h-4zM152 160h4v4h-4zM156 160h4v4h-4zM160 160h4v4h-4zM164 160h4v4h-4zM168 160h4v4h-4zM172 160h4v4h-4zM176 160h4v4h-4zM180 160h4v4h-4zM184 160h4v4h-4z"/><path fill="#5DD836" d="M188 160h4v4h-4z"/><path fill="#A4F65F" d="M192 160h4v4h-4zM196 160h4v4h-4z"/><path fill="#5DD836" d="M200 160h4v4h-4zM204 160h4v4h-4zM208 160h4v4h-4z"/><path fill="#3FBA18" d="M212 160h4v4h-4z"/><path fill="#4AB12A" d="M216 160h4v4h-4zM220 160h4v4h-4z"/><path fill="#3FA61F" d="M224 160h4v4h-4z"/><path fill="#5DD836" d="M228 160h4v4h-4zM232 160h4v4h-4z"/><path fill="#3FBA18" d="M236 160h4v4h-4z"/><path fill="#3ABE10" d="M20 164h4v4h-4z"/><path fill="#AFF965" d="M24 164h4v4h-4zM28 164h4v4h-4z"/><path fill="#43B221" d="M32 164h4v4h-4zM36 164h4v4h-4z"/><path fill="#46B524" d="M40 164h4v4h-4zM60 164h4v4h-4z"/><path fill="#43B221" d="M64 164h4v4h-4zM68 164h4v4h-4z"/><path fill="#63E739" d="M72 164h4v4h-4zM76 164h4v4h-4zM80 164h4v4h-4z"/><path fill="#AFF965" d="M84 164h4v4h-4z"/><path fill="#63E739" d="M88 164h4v4h-4zM92 164h4v4h-4z"/><path fill="#43B221" d="M96 164h4v4h-4zM100 164h4v4h-4zM104 164h4v4h-4zM108 164h4v4h-4zM112 164h4v4h-4zM116 164h4v4h-4zM120 164h4v4h-4zM124 164h4v4h-4zM128 164h4v4h-4zM132 164h4v4h-4zM136 164h4v4h-4zM140 164h4v4h-4zM144 164h4v4h-4zM148 164h4v4h-4zM152 164h4v4h-4zM156 164h4v4h-4zM160 164h4v4h-4zM164 164h4v4h-4zM168 164h4v4h-4zM172 164h4v4h-4zM176 164h4v4h-4zM180 164h4v4h-4z"/><path fill="#63E739" d="M184 164h4v4h-4z"/><path fill="#AFF965" d="M188 164h4v4h-4zM192 164h4v4h-4z"/><path fill="#63E739" d="M196 164h4v4h-4zM200 164h4v4h-4zM204 164h4v4h-4zM208 164h4v4h-4zM212 164h4v4h-4z"/><path fill="#43B221" d="M216 164h4v4h-4zM220 164h4v4h-4zM224 164h4v4h-4zM228 164h4v4h-4z"/><path fill="#3ABE10" d="M232 164h4v4h-4z"/><path fill="#3FBA18" d="M16 168h4v4h-4z"/><path fill="#5DD836" d="M20 168h4v4h-4zM24 168h4v4h-4zM28 168h4v4h-4z"/><path fill="#3FA61F" d="M32 168h4v4h-4zM36 168h4v4h-4zM40 168h4v4h-4z"/><path fill="#4AB12A" d="M44 168h4v4h-4z"/><path fill="#3FBA18" d="M64 168h4v4h-4z"/><path fill="#5DD836" d="M68 168h4v4h-4zM72 168h4v4h-4zM76 168h4v4h-4z"/><path fill="#A4F65F" d="M80 168h4v4h-4z"/><path fill="#5DD836" d="M84 168h4v4h-4zM88 168h4v4h-4z"/><path fill="#3FA61F" d="M92 168h4v4h-4zM96 168h4v4h-4zM100 168h4v4h-4zM104 168h4v4h-4zM108 168h4v4h-4zM112 168h4v4h-4zM116 168h4v4h-4zM120 168h4v4h-4zM124 168h4v4h-4zM128 168h4v4h-4zM132 168h4v4h-4zM136 168h4v4h-4zM140 168h4v4h-4zM144 168h4v4h-4zM148 168h4v4h-4zM152 168h4v4h-4z"/><path fill="#278313" d="M156 168h4v4h-4zM160 168h4v4h-4zM164 168h4v4h-4zM168 168h4v4h-4zM172 168h4v4h-4zM176 168h4v4h-4z"/><path fill="#5DD836" d="M180 168h4v4h-4z"/><path fill="#A4F65F" d="M184 168h4v4h-4zM188 168h4v4h-4z"/><path fill="#5DD836" d="M192 168h4v4h-4zM196 168h4v4h-4z"/><path fill="#A4F65F" d="M200 168h4v4h-4zM204 168h4v4h-4z"/><path fill="#5DD836" d="M208 168h4v4h-4zM212 168h4v4h-4z"/><path fill="#3FA61F" d="M216 168h4v4h-4zM220 168h4v4h-4zM224 168h4v4h-4z"/><path fill="#4AB12A" d="M228 168h4v4h-4z"/><path fill="#3ABE10" d="M16 172h4v4h-4z"/><path fill="#63E739" d="M20 172h4v4h-4zM24 172h4v4h-4zM28 172h4v4h-4z"/><path fill="#43B221" d="M32 172h4v4h-4zM36 172h4v4h-4zM40 172h4v4h-4z"/><path fill="#46B524" d="M44 172h4v4h-4z"/><path fill="#3ABE10" d="M64 172h4v4h-4z"/><path fill="#63E739" d="M68 172h4v4h-4zM72 172h4v4h-4z"/><path fill="#AFF965" d="M76 172h4v4h-4zM80 172h4v4h-4z"/><path fill="#63E739" d="M84 172h4v4h-4z"/><path fill="#43B221" d="M88 172h4v4h-4zM92 172h4v4h-4zM96 172h4v4h-4zM100 172h4v4h-4zM104 172h4v4h-4zM108 172h4v4h-4zM112 172h4v4h-4zM116 172h4v4h-4zM120 172h4v4h-4zM124 172h4v4h-4zM128 172h4v4h-4zM132 172h4v4h-4zM136 172h4v4h-4z"/><path fill="#299414" d="M140 172h4v4h-4zM144 172h4v4h-4zM148 172h4v4h-4zM152 172h4v4h-4zM156 172h4v4h-4zM160 172h4v4h-4zM164 172h4v4h-4zM168 172h4v4h-4zM172 172h4v4h-4z"/><path fill="#63E739" d="M176 172h4v4h-4z"/><path fill="#AFF965" d="M180 172h4v4h-4zM184 172h4v4h-4z"/><path fill="#63E739" d="M188 172h4v4h-4zM192 172h4v4h-4z"/><path fill="#AFF965" d="M196 172h4v4h-4zM200 172h4v4h-4zM204 172h4v4h-4zM208 172h4v4h-4z"/><path fill="#63E739" d="M212 172h4v4h-4zM216 172h4v4h-4z"/><path fill="#43B221" d="M220 172h4v4h-4zM224 172h4v4h-4z"/><path fill="#46B524" d="M228 172h4v4h-4z"/><path fill="#3FBA18" d="M20 176h4v4h-4z"/><path fill="#5DD836" d="M24 176h4v4h-4zM28 176h4v4h-4zM32 176h4v4h-4z"/><path fill="#3FA61F" d="M36 176h4v4h-4zM40 176h4v4h-4z"/><path fill="#4AB12A" d="M44 176h4v4h-4z"/><path fill="#3FBA18" d="M64 176h4v4h-4z"/><path fill="#5DD836" d="M68 176h4v4h-4zM72 176h4v4h-4z"/><path fill="#A4F65F" d="M76 176h4v4h-4z"/><path fill="#5DD836" d="M80 176h4v4h-4z"/><path fill="#3FA61F" d="M84 176h4v4h-4zM88 176h4v4h-4zM92 176h4v4h-4zM96 176h4v4h-4zM100 176h4v4h-4zM104 176h4v4h-4zM108 176h4v4h-4zM112 176h4v4h-4zM116 176h4v4h-4zM120 176h4v4h-4zM124 176h4v4h-4zM128 176h4v4h-4z"/><path fill="#278313" d="M132 176h4v4h-4zM136 176h4v4h-4zM140 176h4v4h-4zM144 176h4v4h-4zM148 176h4v4h-4zM152 176h4v4h-4zM156 176h4v4h-4zM160 176h4v4h-4zM164 176h4v4h-4z"/><path fill="#5DD836" d="M168 176h4v4h-4zM172 176h4v4h-4zM176 176h4v4h-4zM180 176h4v4h-4zM184 176h4v4h-4zM188 176h4v4h-4z"/><path fill="#A4F65F" d="M192 176h4v4h-4zM196 176h4v4h-4zM200 176h4v4h-4zM204 176h4v4h-4zM208 176h4v4h-4zM212 176h4v4h-4z"/><path fill="#5DD836" d="M216 176h4v4h-4z"/><path fill="#3FA61F" d="M220 176h4v4h-4zM224 176h4v4h-4z"/><path fill="#4AB12A" d="M228 176h4v4h-4z"/><path fill="#3ABE10" d="M20 180h4v4h-4z"/><path fill="#63E739" d="M24 180h4v4h-4zM28 180h4v4h-4zM32 180h4v4h-4z"/><path fill="#43B221" d="M36 180h4v4h-4zM40 180h4v4h-4zM44 180h4v4h-4z"/><path fill="#46B524" d="M48 180h4v4h-4z"/><path fill="#3ABE10" d="M68 180h4v4h-4z"/><path fill="#63E739" d="M72 180h4v4h-4z"/><path fill="#AFF965" d="M76 180h4v4h-4z"/><path fill="#63E739" d="M80 180h4v4h-4z"/><path fill="#43B221" d="M84 180h4v4h-4zM88 180h4v4h-4zM92 180h4v4h-4zM96 180h4v4h-4zM100 180h4v4h-4zM104 180h4v4h-4zM108 180h4v4h-4zM112 180h4v4h-4z"/><path fill="#299414" d="M116 180h4v4h-4z"/><path fill="#43B221" d="M120 180h4v4h-4z"/><path fill="#299414" d="M124 180h4v4h-4zM128 180h4v4h-4zM132 180h4v4h-4zM136 180h4v4h-4zM140 180h4v4h-4zM144 180h4v4h-4zM148 180h4v4h-4zM152 180h4v4h-4z"/><path fill="#63E739" d="M156 180h4v4h-4zM160 180h4v4h-4zM164 180h4v4h-4z"/><path fill="#AFF965" d="M168 180h4v4h-4zM172 180h4v4h-4z"/><path fill="#63E739" d="M176 180h4v4h-4zM180 180h4v4h-4zM184 180h4v4h-4z"/><path fill="#AFF965" d="M188 180h4v4h-4zM192 180h4v4h-4zM196 180h4v4h-4zM200 180h4v4h-4zM204 180h4v4h-4zM208 180h4v4h-4zM212 180h4v4h-4z"/><path fill="#63E739" d="M216 180h4v4h-4z"/><path fill="#43B221" d="M220 180h4v4h-4z"/><path fill="#46B524" d="M224 180h4v4h-4z"/><path fill="#3FBA18" d="M20 184h4v4h-4z"/><path fill="#5DD836" d="M24 184h4v4h-4zM28 184h4v4h-4zM32 184h4v4h-4z"/><path fill="#3FA61F" d="M36 184h4v4h-4zM40 184h4v4h-4zM44 184h4v4h-4z"/><path fill="#4AB12A" d="M48 184h4v4h-4z"/><path fill="#3FBA18" d="M68 184h4v4h-4z"/><path fill="#5DD836" d="M72 184h4v4h-4z"/><path fill="#A4F65F" d="M76 184h4v4h-4z"/><path fill="#5DD836" d="M80 184h4v4h-4z"/><path fill="#3FA61F" d="M84 184h4v4h-4zM88 184h4v4h-4zM92 184h4v4h-4zM96 184h4v4h-4zM100 184h4v4h-4zM104 184h4v4h-4zM108 184h4v4h-4z"/><path fill="#278313" d="M112 184h4v4h-4z"/><path fill="#3FA61F" d="M116 184h4v4h-4z"/><path fill="#278313" d="M120 184h4v4h-4zM124 184h4v4h-4zM128 184h4v4h-4zM132 184h4v4h-4zM136 184h4v4h-4zM140 184h4v4h-4zM144 184h4v4h-4z"/><path fill="#5DD836" d="M148 184h4v4h-4zM152 184h4v4h-4zM156 184h4v4h-4z"/><path fill="#A4F65F" d="M160 184h4v4h-4zM164 184h4v4h-4zM168 184h4v4h-4z"/><path fill="#5DD836" d="M172 184h4v4h-4zM176 184h4v4h-4zM180 184h4v4h-4zM184 184h4v4h-4z"/><path fill="#A4F65F" d="M188 184h4v4h-4zM192 184h4v4h-4zM196 184h4v4h-4zM200 184h4v4h-4zM204 184h4v4h-4zM208 184h4v4h-4zM212 184h4v4h-4z"/><path fill="#5DD836" d="M216 184h4v4h-4z"/><path fill="#3FBA18" d="M220 184h4v4h-4z"/><path fill="#3ABE10" d="M24 188h4v4h-4z"/><path fill="#63E739" d="M28 188h4v4h-4zM32 188h4v4h-4zM36 188h4v4h-4z"/><path fill="#43B221" d="M40 188h4v4h-4zM44 188h4v4h-4zM48 188h4v4h-4z"/><path fill="#46B524" d="M52 188h4v4h-4z"/><path fill="#3ABE10" d="M68 188h4v4h-4z"/><path fill="#63E739" d="M72 188h4v4h-4zM76 188h4v4h-4zM80 188h4v4h-4z"/><path fill="#43B221" d="M84 188h4v4h-4zM88 188h4v4h-4zM92 188h4v4h-4zM96 188h4v4h-4zM100 188h4v4h-4zM104 188h4v4h-4z"/><path fill="#299414" d="M108 188h4v4h-4z"/><path fill="#43B221" d="M112 188h4v4h-4z"/><path fill="#299414" d="M116 188h4v4h-4zM120 188h4v4h-4zM124 188h4v4h-4zM128 188h4v4h-4zM132 188h4v4h-4z"/><path fill="#63E739" d="M136 188h4v4h-4zM140 188h4v4h-4zM144 188h4v4h-4z"/><path fill="#AFF965" d="M148 188h4v4h-4zM152 188h4v4h-4zM156 188h4v4h-4z"/><path fill="#63E739" d="M160 188h4v4h-4zM164 188h4v4h-4zM168 188h4v4h-4zM172 188h4v4h-4zM176 188h4v4h-4zM180 188h4v4h-4zM184 188h4v4h-4zM188 188h4v4h-4z"/><path fill="#AFF965" d="M192 188h4v4h-4zM196 188h4v4h-4zM200 188h4v4h-4zM204 188h4v4h-4zM208 188h4v4h-4zM212 188h4v4h-4z"/><path fill="#63E739" d="M216 188h4v4h-4z"/><path fill="#3ABE10" d="M220 188h4v4h-4z"/><path fill="#3FBA18" d="M24 192h4v4h-4z"/><path fill="#5DD836" d="M28 192h4v4h-4zM32 192h4v4h-4zM36 192h4v4h-4z"/><path fill="#3FA61F" d="M40 192h4v4h-4zM44 192h4v4h-4zM48 192h4v4h-4z"/><path fill="#4AB12A" d="M52 192h4v4h-4z"/><path fill="#3FBA18" d="M72 192h4v4h-4z"/><path fill="#5DD836" d="M76 192h4v4h-4zM80 192h4v4h-4zM84 192h4v4h-4z"/><path fill="#3FA61F" d="M88 192h4v4h-4zM92 192h4v4h-4zM96 192h4v4h-4zM100 192h4v4h-4zM104 192h4v4h-4z"/><path fill="#278313" d="M108 192h4v4h-4z"/><path fill="#3FA61F" d="M112 192h4v4h-4z"/><path fill="#278313" d="M116 192h4v4h-4zM120 192h4v4h-4z"/><path fill="#5DD836" d="M124 192h4v4h-4zM128 192h4v4h-4zM132 192h4v4h-4zM136 192h4v4h-4zM140 192h4v4h-4zM144 192h4v4h-4zM148 192h4v4h-4zM152 192h4v4h-4zM156 192h4v4h-4zM160 192h4v4h-4zM164 192h4v4h-4zM168 192h4v4h-4z"/><path fill="#A4F65F" d="M172 192h4v4h-4zM176 192h4v4h-4zM180 192h4v4h-4z"/><path fill="#5DD836" d="M184 192h4v4h-4zM188 192h4v4h-4z"/><path fill="#A4F65F" d="M192 192h4v4h-4zM196 192h4v4h-4zM200 192h4v4h-4zM204 192h4v4h-4zM208 192h4v4h-4zM212 192h4v4h-4z"/><path fill="#3FBA18" d="M216 192h4v4h-4z"/><path fill="#3ABE10" d="M24 196h4v4h-4z"/><path fill="#63E739" d="M28 196h4v4h-4zM32 196h4v4h-4zM36 196h4v4h-4zM40 196h4v4h-4z"/><path fill="#43B221" d="M44 196h4v4h-4zM48 196h4v4h-4z"/><path fill="#46B524" d="M52 196h4v4h-4z"/><path fill="#3ABE10" d="M72 196h4v4h-4z"/><path fill="#63E739" d="M76 196h4v4h-4zM80 196h4v4h-4zM84 196h4v4h-4zM88 196h4v4h-4zM92 196h4v4h-4zM96 196h4v4h-4zM100 196h4v4h-4zM104 196h4v4h-4zM108 196h4v4h-4zM112 196h4v4h-4zM116 196h4v4h-4zM120 196h4v4h-4zM124 196h4v4h-4zM128 196h4v4h-4zM132 196h4v4h-4zM136 196h4v4h-4zM140 196h4v4h-4zM144 196h4v4h-4zM148 196h4v4h-4zM152 196h4v4h-4zM156 196h4v4h-4zM160 196h4v4h-4zM164 196h4v4h-4z"/><path fill="#AFF965" d="M168 196h4v4h-4zM172 196h4v4h-4zM176 196h4v4h-4zM180 196h4v4h-4z"/><path fill="#63E739" d="M184 196h4v4h-4zM188 196h4v4h-4zM192 196h4v4h-4z"/><path fill="#AFF965" d="M196 196h4v4h-4z"/><path fill="#76ED3A" d="M200 196h4v4h-4zM204 196h4v4h-4zM208 196h4v4h-4z"/><path fill="#AFF965" d="M212 196h4v4h-4z"/><path fill="#3ABE10" d="M216 196h4v4h-4z"/><path fill="#3FBA18" d="M28 200h4v4h-4z"/><path fill="#5DD836" d="M32 200h4v4h-4zM36 200h4v4h-4zM40 200h4v4h-4zM44 200h4v4h-4z"/><path fill="#3FA61F" d="M48 200h4v4h-4zM52 200h4v4h-4z"/><path fill="#4AB12A" d="M56 200h4v4h-4z"/><path fill="#3FBA18" d="M72 200h4v4h-4z"/><path fill="#5DD836" d="M76 200h4v4h-4zM80 200h4v4h-4zM84 200h4v4h-4zM88 200h4v4h-4zM92 200h4v4h-4zM96 200h4v4h-4zM100 200h4v4h-4zM104 200h4v4h-4zM108 200h4v4h-4zM112 200h4v4h-4zM116 200h4v4h-4zM120 200h4v4h-4zM124 200h4v4h-4zM128 200h4v4h-4zM132 200h4v4h-4zM136 200h4v4h-4zM140 200h4v4h-4zM144 200h4v4h-4zM148 200h4v4h-4zM152 200h4v4h-4zM156 200h4v4h-4zM160 200h4v4h-4zM164 200h4v4h-4zM168 200h4v4h-4z"/><path fill="#A4F65F" d="M172 200h4v4h-4zM176 200h4v4h-4zM180 200h4v4h-4zM184 200h4v4h-4z"/><path fill="#5DD836" d="M188 200h4v4h-4zM192 200h4v4h-4z"/><path fill="#6FEA37" d="M196 200h4v4h-4zM200 200h4v4h-4zM204 200h4v4h-4zM208 200h4v4h-4z"/><path fill="#5BAD16" d="M212 200h4v4h-4z"/><path fill="#3ABE10" d="M32 204h4v4h-4z"/><path fill="#63E739" d="M36 204h4v4h-4zM40 204h4v4h-4zM44 204h4v4h-4zM48 204h4v4h-4zM52 204h4v4h-4z"/><path fill="#3ABE10" d="M56 204h4v4h-4zM76 204h4v4h-4z"/><path fill="#63E739" d="M80 204h4v4h-4zM84 204h4v4h-4zM88 204h4v4h-4zM92 204h4v4h-4zM96 204h4v4h-4zM100 204h4v4h-4zM104 204h4v4h-4zM108 204h4v4h-4zM112 204h4v4h-4zM116 204h4v4h-4zM120 204h4v4h-4zM124 204h4v4h-4zM128 204h4v4h-4zM132 204h4v4h-4zM136 204h4v4h-4zM140 204h4v4h-4zM144 204h4v4h-4zM148 204h4v4h-4zM152 204h4v4h-4zM156 204h4v4h-4zM160 204h4v4h-4zM164 204h4v4h-4zM168 204h4v4h-4zM172 204h4v4h-4z"/><path fill="#AFF965" d="M176 204h4v4h-4zM180 204h4v4h-4zM184 204h4v4h-4z"/><path fill="#63E739" d="M188 204h4v4h-4zM192 204h4v4h-4z"/><path fill="#AFF965" d="M196 204h4v4h-4z"/><path fill="#76ED3A" d="M200 204h4v4h-4zM204 204h4v4h-4zM208 204h4v4h-4z"/><path fill="#44BB08" d="M212 204h4v4h-4z"/><path fill="#E1E1E1" d="M216 204h4v4h-4z"/><path fill="#3FBA18" d="M36 208h4v4h-4z"/><path fill="#5DD836" d="M40 208h4v4h-4zM44 208h4v4h-4zM48 208h4v4h-4zM52 208h4v4h-4z"/><path fill="#3FBA18" d="M56 208h4v4h-4zM76 208h4v4h-4z"/><path fill="#5DD836" d="M80 208h4v4h-4zM84 208h4v4h-4zM88 208h4v4h-4zM92 208h4v4h-4zM96 208h4v4h-4zM100 208h4v4h-4z"/><path fill="#A4F65F" d="M104 208h4v4h-4zM108 208h4v4h-4z"/><path fill="#5DD836" d="M112 208h4v4h-4zM116 208h4v4h-4zM120 208h4v4h-4zM124 208h4v4h-4zM128 208h4v4h-4zM132 208h4v4h-4zM136 208h4v4h-4zM140 208h4v4h-4zM144 208h4v4h-4zM148 208h4v4h-4zM152 208h4v4h-4zM156 208h4v4h-4zM160 208h4v4h-4zM164 208h4v4h-4zM168 208h4v4h-4zM172 208h4v4h-4z"/><path fill="#A4F65F" d="M176 208h4v4h-4zM180 208h4v4h-4zM184 208h4v4h-4z"/><path fill="#5DD836" d="M188 208h4v4h-4zM192 208h4v4h-4z"/><path fill="#A4F65F" d="M196 208h4v4h-4z"/><path fill="#6FEA37" d="M200 208h4v4h-4zM204 208h4v4h-4zM208 208h4v4h-4z"/><path fill="#41BC09" d="M212 208h4v4h-4z"/><path fill="#E1E1E1" d="M216 208h4v4h-4z"/><path fill="#3ABE10" d="M40 212h4v4h-4zM44 212h4v4h-4z"/><path fill="#63E739" d="M48 212h4v4h-4zM52 212h4v4h-4zM56 212h4v4h-4z"/><path fill="#3ABE10" d="M60 212h4v4h-4z"/><path fill="#46B524" d="M68 212h4v4h-4zM72 212h4v4h-4z"/><path fill="#63E739" d="M76 212h4v4h-4zM80 212h4v4h-4zM84 212h4v4h-4z"/><path fill="#AFF965" d="M88 212h4v4h-4z"/><path fill="#63E739" d="M92 212h4v4h-4zM96 212h4v4h-4z"/><path fill="#AFF965" d="M100 212h4v4h-4zM104 212h4v4h-4zM108 212h4v4h-4zM112 212h4v4h-4z"/><path fill="#63E739" d="M116 212h4v4h-4zM120 212h4v4h-4zM124 212h4v4h-4zM128 212h4v4h-4zM132 212h4v4h-4zM136 212h4v4h-4zM140 212h4v4h-4zM144 212h4v4h-4zM148 212h4v4h-4zM152 212h4v4h-4zM156 212h4v4h-4zM160 212h4v4h-4zM164 212h4v4h-4zM168 212h4v4h-4zM172 212h4v4h-4z"/><path fill="#AFF965" d="M176 212h4v4h-4zM180 212h4v4h-4zM184 212h4v4h-4z"/><path fill="#63E739" d="M188 212h4v4h-4zM192 212h4v4h-4z"/><path fill="#AFF965" d="M196 212h4v4h-4z"/><path fill="#76ED3A" d="M200 212h4v4h-4zM204 212h4v4h-4z"/><path fill="#44BB08" d="M208 212h4v4h-4z"/><path fill="#E1E1E1" d="M212 212h4v4h-4zM216 212h4v4h-4z"/><path fill="#3FBA18" d="M48 216h4v4h-4z"/><path fill="#5DD836" d="M52 216h4v4h-4zM56 216h4v4h-4zM60 216h4v4h-4z"/><path fill="#4AB12A" d="M64 216h4v4h-4z"/><path fill="#3FA61F" d="M68 216h4v4h-4zM72 216h4v4h-4zM76 216h4v4h-4z"/><path fill="#5DD836" d="M80 216h4v4h-4zM84 216h4v4h-4z"/><path fill="#A4F65F" d="M88 216h4v4h-4zM92 216h4v4h-4z"/><path fill="#5DD836" d="M96 216h4v4h-4z"/><path fill="#A4F65F" d="M100 216h4v4h-4zM104 216h4v4h-4zM108 216h4v4h-4zM112 216h4v4h-4z"/><path fill="#5DD836" d="M116 216h4v4h-4zM120 216h4v4h-4zM124 216h4v4h-4zM128 216h4v4h-4zM132 216h4v4h-4zM136 216h4v4h-4zM140 216h4v4h-4zM144 216h4v4h-4zM148 216h4v4h-4zM152 216h4v4h-4zM156 216h4v4h-4zM160 216h4v4h-4zM164 216h4v4h-4zM168 216h4v4h-4zM172 216h4v4h-4z"/><path fill="#A4F65F" d="M176 216h4v4h-4zM180 216h4v4h-4zM184 216h4v4h-4z"/><path fill="#5DD836" d="M188 216h4v4h-4zM192 216h4v4h-4z"/><path fill="#A4F65F" d="M196 216h4v4h-4z"/><path fill="#6FEA37" d="M200 216h4v4h-4zM204 216h4v4h-4z"/><path fill="#41BC09" d="M208 216h4v4h-4z"/><path fill="#E1E1E1" d="M212 216h4v4h-4zM216 216h4v4h-4z"/><path fill="#3ABE10" d="M52 220h4v4h-4z"/><path fill="#63E739" d="M56 220h4v4h-4zM60 220h4v4h-4z"/><path fill="#43B221" d="M64 220h4v4h-4zM68 220h4v4h-4zM72 220h4v4h-4zM76 220h4v4h-4z"/><path fill="#63E739" d="M80 220h4v4h-4zM84 220h4v4h-4z"/><path fill="#AFF965" d="M88 220h4v4h-4zM92 220h4v4h-4z"/><path fill="#63E739" d="M96 220h4v4h-4z"/><path fill="#AFF965" d="M100 220h4v4h-4zM104 220h4v4h-4zM108 220h4v4h-4zM112 220h4v4h-4zM116 220h4v4h-4z"/><path fill="#63E739" d="M120 220h4v4h-4zM124 220h4v4h-4zM128 220h4v4h-4zM132 220h4v4h-4zM136 220h4v4h-4zM140 220h4v4h-4zM144 220h4v4h-4zM148 220h4v4h-4zM152 220h4v4h-4zM156 220h4v4h-4zM160 220h4v4h-4zM164 220h4v4h-4zM168 220h4v4h-4zM172 220h4v4h-4zM176 220h4v4h-4z"/><path fill="#AFF965" d="M180 220h4v4h-4zM184 220h4v4h-4z"/><path fill="#63E739" d="M188 220h4v4h-4zM192 220h4v4h-4z"/><path fill="#AFF965" d="M196 220h4v4h-4z"/><path fill="#76ED3A" d="M200 220h4v4h-4zM204 220h4v4h-4z"/><path fill="#44BB08" d="M208 220h4v4h-4z"/><path fill="#E1E1E1" d="M212 220h4v4h-4z"/><path fill="#3FBA18" d="M56 224h4v4h-4zM60 224h4v4h-4zM64 224h4v4h-4z"/><path fill="#3FA61F" d="M68 224h4v4h-4zM72 224h4v4h-4zM76 224h4v4h-4zM80 224h4v4h-4z"/><path fill="#5DD836" d="M84 224h4v4h-4zM88 224h4v4h-4z"/><path fill="#A4F65F" d="M92 224h4v4h-4z"/><path fill="#5DD836" d="M96 224h4v4h-4zM100 224h4v4h-4z"/><path fill="#A4F65F" d="M104 224h4v4h-4zM108 224h4v4h-4zM112 224h4v4h-4zM116 224h4v4h-4z"/><path fill="#5DD836" d="M120 224h4v4h-4zM124 224h4v4h-4zM128 224h4v4h-4zM132 224h4v4h-4zM136 224h4v4h-4zM140 224h4v4h-4zM144 224h4v4h-4zM148 224h4v4h-4zM152 224h4v4h-4zM156 224h4v4h-4zM160 224h4v4h-4zM164 224h4v4h-4zM168 224h4v4h-4zM172 224h4v4h-4zM176 224h4v4h-4z"/><path fill="#A4F65F" d="M180 224h4v4h-4zM184 224h4v4h-4zM188 224h4v4h-4z"/><path fill="#5DD836" d="M192 224h4v4h-4z"/><path fill="#A4F65F" d="M196 224h4v4h-4z"/><path fill="#6FEA37" d="M200 224h4v4h-4z"/><path fill="#41BC09" d="M204 224h4v4h-4zM208 224h4v4h-4z"/><path fill="#E1E1E1" d="M212 224h4v4h-4z"/><path fill="#46B524" d="M68 228h4v4h-4z"/><path fill="#43B221" d="M72 228h4v4h-4zM76 228h4v4h-4zM80 228h4v4h-4z"/><path fill="#63E739" d="M84 228h4v4h-4zM88 228h4v4h-4z"/><path fill="#AFF965" d="M92 228h4v4h-4z"/><path fill="#63E739" d="M96 228h4v4h-4zM100 228h4v4h-4z"/><path fill="#76ED3A" d="M104 228h4v4h-4zM108 228h4v4h-4z"/><path fill="#AFF965" d="M112 228h4v4h-4zM116 228h4v4h-4zM120 228h4v4h-4z"/><path fill="#63E739" d="M124 228h4v4h-4zM128 228h4v4h-4zM132 228h4v4h-4zM136 228h4v4h-4zM140 228h4v4h-4zM144 228h4v4h-4zM148 228h4v4h-4zM152 228h4v4h-4zM156 228h4v4h-4zM160 228h4v4h-4zM164 228h4v4h-4zM168 228h4v4h-4zM172 228h4v4h-4zM176 228h4v4h-4z"/><path fill="#AFF965" d="M180 228h4v4h-4zM184 228h4v4h-4zM188 228h4v4h-4z"/><path fill="#63E739" d="M192 228h4v4h-4z"/><path fill="#76ED3A" d="M196 228h4v4h-4z"/><path fill="#44BB08" d="M200 228h4v4h-4z"/><path fill="#E1E1E1" d="M204 228h4v4h-4zM208 228h4v4h-4zM212 228h4v4h-4z"/><path fill="#4AB12A" d="M72 232h4v4h-4zM76 232h4v4h-4zM80 232h4v4h-4z"/><path fill="#3FBA18" d="M84 232h4v4h-4z"/><path fill="#5DD836" d="M88 232h4v4h-4zM92 232h4v4h-4zM96 232h4v4h-4zM100 232h4v4h-4z"/><path fill="#3FA61F" d="M104 232h4v4h-4z"/><path fill="#6FEA37" d="M108 232h4v4h-4zM112 232h4v4h-4z"/><path fill="#A4F65F" d="M116 232h4v4h-4zM120 232h4v4h-4zM124 232h4v4h-4z"/><path fill="#5DD836" d="M128 232h4v4h-4zM132 232h4v4h-4zM136 232h4v4h-4zM140 232h4v4h-4zM144 232h4v4h-4zM148 232h4v4h-4zM152 232h4v4h-4zM156 232h4v4h-4zM160 232h4v4h-4zM164 232h4v4h-4zM168 232h4v4h-4zM172 232h4v4h-4zM176 232h4v4h-4z"/><path fill="#A4F65F" d="M180 232h4v4h-4zM184 232h4v4h-4zM188 232h4v4h-4z"/><path fill="#3FA61F" d="M192 232h4v4h-4z"/><path fill="#6FEA37" d="M196 232h4v4h-4z"/><path fill="#41BC09" d="M200 232h4v4h-4z"/><path fill="#E1E1E1" d="M204 232h4v4h-4zM208 232h4v4h-4zM212 232h4v4h-4z"/><path fill="#3ABE10" d="M88 236h4v4h-4z"/><path fill="#63E739" d="M92 236h4v4h-4zM96 236h4v4h-4zM100 236h4v4h-4z"/><path fill="#43B221" d="M104 236h4v4h-4zM108 236h4v4h-4z"/><path fill="#76ED3A" d="M112 236h4v4h-4z"/><path fill="#AFF965" d="M116 236h4v4h-4zM120 236h4v4h-4zM124 236h4v4h-4zM128 236h4v4h-4z"/><path fill="#63E739" d="M132 236h4v4h-4zM136 236h4v4h-4zM140 236h4v4h-4zM144 236h4v4h-4zM148 236h4v4h-4zM152 236h4v4h-4zM156 236h4v4h-4zM160 236h4v4h-4zM164 236h4v4h-4zM168 236h4v4h-4zM172 236h4v4h-4zM176 236h4v4h-4z"/><path fill="#AFF965" d="M180 236h4v4h-4zM184 236h4v4h-4z"/><path fill="#76ED3A" d="M188 236h4v4h-4z"/><path fill="#43B221" d="M192 236h4v4h-4z"/><path fill="#76ED3A" d="M196 236h4v4h-4z"/><path fill="#44BB08" d="M200 236h4v4h-4z"/><path fill="#E1E1E1" d="M204 236h4v4h-4zM208 236h4v4h-4z"/><path fill="#3FBA18" d="M92 240h4v4h-4zM96 240h4v4h-4zM100 240h4v4h-4z"/><path fill="#4AB12A" d="M104 240h4v4h-4z"/><path fill="#3FA61F" d="M108 240h4v4h-4zM112 240h4v4h-4z"/><path fill="#6FEA37" d="M116 240h4v4h-4z"/><path fill="#A4F65F" d="M120 240h4v4h-4zM124 240h4v4h-4zM128 240h4v4h-4zM132 240h4v4h-4z"/><path fill="#5DD836" d="M136 240h4v4h-4zM140 240h4v4h-4zM144 240h4v4h-4zM148 240h4v4h-4zM152 240h4v4h-4zM156 240h4v4h-4zM160 240h4v4h-4zM164 240h4v4h-4zM168 240h4v4h-4zM172 240h4v4h-4zM176 240h4v4h-4z"/><path fill="#A4F65F" d="M180 240h4v4h-4zM184 240h4v4h-4z"/><path fill="#6FEA37" d="M188 240h4v4h-4z"/><path fill="#3FA61F" d="M192 240h4v4h-4z"/><path fill="#6FEA37" d="M196 240h4v4h-4z"/><path fill="#41BC09" d="M200 240h4v4h-4z"/><path fill="#E1E1E1" d="M204 240h4v4h-4zM208 240h4v4h-4z"/><path fill="#46B524" d="M108 244h4v4h-4z"/><path fill="#43B221" d="M112 244h4v4h-4zM116 244h4v4h-4z"/><path fill="#76ED3A" d="M120 244h4v4h-4z"/><path fill="#AFF965" d="M124 244h4v4h-4zM128 244h4v4h-4zM132 244h4v4h-4zM136 244h4v4h-4z"/><path fill="#63E739" d="M140 244h4v4h-4zM144 244h4v4h-4zM148 244h4v4h-4zM152 244h4v4h-4zM156 244h4v4h-4zM160 244h4v4h-4zM164 244h4v4h-4zM168 244h4v4h-4zM172 244h4v4h-4zM176 244h4v4h-4z"/><path fill="#76ED3A" d="M180 244h4v4h-4zM184 244h4v4h-4z"/><path fill="#43B221" d="M188 244h4v4h-4zM192 244h4v4h-4z"/><path fill="#44BB08" d="M196 244h4v4h-4z"/><path fill="#E1E1E1" d="M200 244h4v4h-4zM204 244h4v4h-4zM208 244h4v4h-4z"/><path fill="#4AB12A" d="M112 248h4v4h-4z"/><path fill="#3FA61F" d="M116 248h4v4h-4zM120 248h4v4h-4z"/><path fill="#6FEA37" d="M124 248h4v4h-4z"/><path fill="#A4F65F" d="M128 248h4v4h-4zM132 248h4v4h-4zM136 248h4v4h-4zM140 248h4v4h-4zM144 248h4v4h-4zM148 248h4v4h-4z"/><path fill="#5DD836" d="M152 248h4v4h-4zM156 248h4v4h-4zM160 248h4v4h-4zM164 248h4v4h-4z"/><path fill="#3FA61F" d="M168 248h4v4h-4zM172 248h4v4h-4zM176 248h4v4h-4zM180 248h4v4h-4z"/><path fill="#6FEA37" d="M184 248h4v4h-4z"/><path fill="#3FA61F" d="M188 248h4v4h-4zM192 248h4v4h-4z"/><path fill="#4AB12A" d="M196 248h4v4h-4z"/><path fill="#E1E1E1" d="M200 248h4v4h-4zM204 248h4v4h-4z"/><path fill="#46B524" d="M116 252h4v4h-4z"/><path fill="#43B221" d="M120 252h4v4h-4zM124 252h4v4h-4z"/><path fill="#76ED3A" d="M128 252h4v4h-4zM132 252h4v4h-4z"/><path fill="#AFF965" d="M136 252h4v4h-4zM140 252h4v4h-4zM144 252h4v4h-4zM148 252h4v4h-4zM152 252h4v4h-4zM156 252h4v4h-4z"/><path fill="#76ED3A" d="M160 252h4v4h-4z"/><path fill="#43B221" d="M164 252h4v4h-4zM168 252h4v4h-4zM172 252h4v4h-4zM176 252h4v4h-4zM180 252h4v4h-4zM184 252h4v4h-4zM188 252h4v4h-4zM192 252h4v4h-4z"/><path fill="#46B524" d="M196 252h4v4h-4z"/><path fill="#4AB12A" d="M120 256h4v4h-4zM124 256h4v4h-4zM128 256h4v4h-4z"/><path fill="#6FEA37" d="M132 256h4v4h-4zM136 256h4v4h-4zM140 256h4v4h-4zM144 256h4v4h-4zM148 256h4v4h-4zM152 256h4v4h-4zM156 256h4v4h-4zM160 256h4v4h-4zM164 256h4v4h-4z"/><path fill="#3FA61F" d="M168 256h4v4h-4zM172 256h4v4h-4zM176 256h4v4h-4zM180 256h4v4h-4zM184 256h4v4h-4z"/><path fill="#5DD836" d="M188 256h4v4h-4zM192 256h4v4h-4z"/><path fill="#3FBA18" d="M196 256h4v4h-4z"/><path fill="#46B524" d="M132 260h4v4h-4z"/><path fill="#76ED3A" d="M136 260h4v4h-4zM140 260h4v4h-4zM144 260h4v4h-4zM148 260h4v4h-4zM152 260h4v4h-4zM156 260h4v4h-4zM160 260h4v4h-4zM164 260h4v4h-4z"/><path fill="#43B221" d="M168 260h4v4h-4zM172 260h4v4h-4z"/><path fill="#63E739" d="M176 260h4v4h-4zM180 260h4v4h-4zM184 260h4v4h-4zM188 260h4v4h-4zM192 260h4v4h-4zM196 260h4v4h-4z"/><path fill="#3ABE10" d="M200 260h4v4h-4z"/><path fill="#4AB12A" d="M136 264h4v4h-4zM140 264h4v4h-4z"/><path fill="#3FA61F" d="M144 264h4v4h-4z"/><path fill="#6FEA37" d="M148 264h4v4h-4zM152 264h4v4h-4zM156 264h4v4h-4zM160 264h4v4h-4z"/><path fill="#5DD836" d="M164 264h4v4h-4zM168 264h4v4h-4zM172 264h4v4h-4zM176 264h4v4h-4zM180 264h4v4h-4zM184 264h4v4h-4zM188 264h4v4h-4zM192 264h4v4h-4zM196 264h4v4h-4zM200 264h4v4h-4z"/><path fill="#4AB12A" d="M204 264h4v4h-4zM208 264h4v4h-4z"/><path fill="#46B524" d="M144 268h4v4h-4z"/><path fill="#43B221" d="M148 268h4v4h-4z"/><path fill="#63E739" d="M152 268h4v4h-4zM156 268h4v4h-4zM160 268h4v4h-4zM164 268h4v4h-4zM168 268h4v4h-4zM172 268h4v4h-4zM176 268h4v4h-4zM180 268h4v4h-4zM184 268h4v4h-4zM188 268h4v4h-4z"/><path fill="#43B221" d="M192 268h4v4h-4zM196 268h4v4h-4zM200 268h4v4h-4zM204 268h4v4h-4zM208 268h4v4h-4z"/><path fill="#46B524" d="M212 268h4v4h-4zM216 268h4v4h-4z"/><path fill="#3FBA18" d="M144 272h4v4h-4z"/><path fill="#5DD836" d="M148 272h4v4h-4zM152 272h4v4h-4zM156 272h4v4h-4zM160 272h4v4h-4zM164 272h4v4h-4zM168 272h4v4h-4zM172 272h4v4h-4zM176 272h4v4h-4zM180 272h4v4h-4z"/><path fill="#3FA61F" d="M184 272h4v4h-4zM188 272h4v4h-4zM192 272h4v4h-4zM196 272h4v4h-4zM200 272h4v4h-4zM204 272h4v4h-4zM208 272h4v4h-4zM212 272h4v4h-4zM216 272h4v4h-4z"/><path fill="#4AB12A" d="M220 272h4v4h-4z"/><path fill="#3FBA18" d="M224 272h4v4h-4zM228 272h4v4h-4zM232 272h4v4h-4zM236 272h4v4h-4z"/><path fill="#3ABE10" d="M148 276h4v4h-4z"/><path fill="#63E739" d="M152 276h4v4h-4zM156 276h4v4h-4zM160 276h4v4h-4zM164 276h4v4h-4zM168 276h4v4h-4z"/><path fill="#43B221" d="M172 276h4v4h-4zM176 276h4v4h-4zM180 276h4v4h-4zM184 276h4v4h-4zM188 276h4v4h-4zM192 276h4v4h-4zM196 276h4v4h-4zM200 276h4v4h-4zM204 276h4v4h-4zM208 276h4v4h-4z"/><path fill="#63E739" d="M212 276h4v4h-4zM216 276h4v4h-4zM220 276h4v4h-4zM224 276h4v4h-4zM228 276h4v4h-4zM232 276h4v4h-4z"/><path fill="#3ABE10" d="M236 276h4v4h-4z"/><path fill="#3FBA18" d="M148 280h4v4h-4z"/><path fill="#5DD836" d="M152 280h4v4h-4zM156 280h4v4h-4z"/><path fill="#3FA61F" d="M160 280h4v4h-4zM164 280h4v4h-4zM168 280h4v4h-4zM172 280h4v4h-4zM176 280h4v4h-4zM180 280h4v4h-4zM184 280h4v4h-4zM188 280h4v4h-4zM192 280h4v4h-4zM196 280h4v4h-4z"/><path fill="#5DD836" d="M200 280h4v4h-4zM204 280h4v4h-4zM208 280h4v4h-4zM212 280h4v4h-4zM216 280h4v4h-4zM220 280h4v4h-4zM224 280h4v4h-4z"/><path fill="#3FBA18" d="M228 280h4v4h-4zM232 280h4v4h-4z"/><path fill="#46B524" d="M148 284h4v4h-4z"/><path fill="#43B221" d="M152 284h4v4h-4zM156 284h4v4h-4zM160 284h4v4h-4zM164 284h4v4h-4zM168 284h4v4h-4zM172 284h4v4h-4zM176 284h4v4h-4zM180 284h4v4h-4zM184 284h4v4h-4z"/><path fill="#63E739" d="M188 284h4v4h-4zM192 284h4v4h-4zM196 284h4v4h-4zM200 284h4v4h-4zM204 284h4v4h-4zM208 284h4v4h-4zM212 284h4v4h-4zM216 284h4v4h-4z"/><path fill="#3ABE10" d="M220 284h4v4h-4zM224 284h4v4h-4z"/><path fill="#4AB12A" d="M144 288h4v4h-4z"/><path fill="#3FA61F" d="M148 288h4v4h-4zM152 288h4v4h-4zM156 288h4v4h-4zM160 288h4v4h-4zM164 288h4v4h-4zM168 288h4v4h-4zM172 288h4v4h-4zM176 288h4v4h-4z"/><path fill="#5DD836" d="M180 288h4v4h-4zM184 288h4v4h-4zM188 288h4v4h-4zM192 288h4v4h-4zM196 288h4v4h-4zM200 288h4v4h-4zM204 288h4v4h-4z"/><path fill="#3FBA18" d="M208 288h4v4h-4zM212 288h4v4h-4zM216 288h4v4h-4z"/><path fill="#46B524" d="M144 292h4v4h-4z"/><path fill="#43B221" d="M148 292h4v4h-4zM152 292h4v4h-4zM156 292h4v4h-4zM160 292h4v4h-4zM164 292h4v4h-4z"/><path fill="#63E739" d="M168 292h4v4h-4zM172 292h4v4h-4zM176 292h4v4h-4zM180 292h4v4h-4zM184 292h4v4h-4zM188 292h4v4h-4zM192 292h4v4h-4z"/><path fill="#3ABE10" d="M196 292h4v4h-4zM200 292h4v4h-4zM204 292h4v4h-4z"/><path fill="#4AB12A" d="M140 296h4v4h-4z"/><path fill="#3FA61F" d="M144 296h4v4h-4zM148 296h4v4h-4zM152 296h4v4h-4z"/><path fill="#5DD836" d="M156 296h4v4h-4zM160 296h4v4h-4zM164 296h4v4h-4zM168 296h4v4h-4zM172 296h4v4h-4zM176 296h4v4h-4zM180 296h4v4h-4z"/><path fill="#3FBA18" d="M184 296h4v4h-4zM188 296h4v4h-4zM192 296h4v4h-4z"/><path fill="#46B524" d="M140 300h4v4h-4z"/><path fill="#63E739" d="M144 300h4v4h-4zM148 300h4v4h-4zM152 300h4v4h-4zM156 300h4v4h-4zM160 300h4v4h-4zM164 300h4v4h-4zM168 300h4v4h-4zM172 300h4v4h-4z"/><path fill="#3ABE10" d="M176 300h4v4h-4zM180 300h4v4h-4z"/><path fill="#3FBA18" d="M136 304h4v4h-4z"/><path fill="#5DD836" d="M140 304h4v4h-4zM144 304h4v4h-4zM148 304h4v4h-4zM152 304h4v4h-4zM156 304h4v4h-4zM160 304h4v4h-4z"/><path fill="#3FBA18" d="M164 304h4v4h-4zM168 304h4v4h-4zM172 304h4v4h-4z"/><path fill="#3ABE10" d="M128 308h4v4h-4zM132 308h4v4h-4z"/><path fill="#63E739" d="M136 308h4v4h-4zM140 308h4v4h-4zM144 308h4v4h-4zM148 308h4v4h-4z"/><path fill="#3ABE10" d="M152 308h4v4h-4zM156 308h4v4h-4zM160 308h4v4h-4z"/><path fill="#3FBA18" d="M128 312h4v4h-4z"/><path fill="#5DD836" d="M132 312h4v4h-4zM136 312h4v4h-4z"/><path fill="#3FBA18" d="M140 312h4v4h-4zM144 312h4v4h-4zM148 312h4v4h-4z"/><path fill="#3ABE10" d="M132 316h4v4h-4zM136 316h4v4h-4z"/></svg>