<svg width="384" height="384" xmlns="http://www.w3.org/2000/svg" shape-rendering="crispEdges"><path fill="#FFA565" d="M124 56h4v4h-4z"/><path fill="#FFB0AB" d="M128 56h4v4h-4zM132 56h4v4h-4zM136 56h4v4h-4zM140 56h4v4h-4zM144 56h4v4h-4z"/><path fill="#FFA565" d="M148 56h4v4h-4zM120 60h4v4h-4z"/><path fill="#FF676C" d="M124 60h4v4h-4z"/><path fill="#FF2B73" d="M128 60h4v4h-4zM132 60h4v4h-4z"/><path fill="#FF507E" d="M136 60h4v4h-4z"/><path fill="#FFB0AB" d="M140 60h4v4h-4zM144 60h4v4h-4zM148 60h4v4h-4zM152 60h4v4h-4zM156 60h4v4h-4zM160 60h4v4h-4z"/><path fill="#FFA565" d="M120 64h4v4h-4z"/><path fill="#FF7A8F" d="M124 64h4v4h-4z"/><path fill="#FF2B73" d="M128 64h4v4h-4zM132 64h4v4h-4zM136 64h4v4h-4zM140 64h4v4h-4zM144 64h4v4h-4z"/><path fill="#FFB0AB" d="M148 64h4v4h-4zM152 64h4v4h-4zM156 64h4v4h-4zM160 64h4v4h-4zM164 64h4v4h-4zM168 64h4v4h-4z"/><path fill="#FFA565" d="M116 68h4v4h-4zM120 68h4v4h-4z"/><path fill="#FF7A8F" d="M124 68h4v4h-4z"/><path fill="#FF2B73" d="M128 68h4v4h-4zM132 68h4v4h-4zM136 68h4v4h-4zM140 68h4v4h-4zM144 68h4v4h-4zM148 68h4v4h-4zM152 68h4v4h-4z"/><path fill="#FFB0AB" d="M156 68h4v4h-4zM160 68h4v4h-4zM164 68h4v4h-4zM168 68h4v4h-4zM172 68h4v4h-4zM176 68h4v4h-4z"/><path fill="#FFA565" d="M116 72h4v4h-4zM120 72h4v4h-4z"/><path fill="#FF7A8F" d="M124 72h4v4h-4z"/><path fill="#FF2B73" d="M128 72h4v4h-4zM132 72h4v4h-4zM136 72h4v4h-4zM140 72h4v4h-4zM144 72h4v4h-4zM148 72h4v4h-4zM152 72h4v4h-4zM156 72h4v4h-4zM160 72h4v4h-4z"/><path fill="#FFB0AB" d="M164 72h4v4h-4zM168 72h4v4h-4zM172 72h4v4h-4zM176 72h4v4h-4zM180 72h4v4h-4zM184 72h4v4h-4zM188 72h4v4h-4z"/><path fill="#FFA565" d="M112 76h4v4h-4zM116 76h4v4h-4zM120 76h4v4h-4z"/><path fill="#FF7A8F" d="M124 76h4v4h-4zM128 76h4v4h-4z"/><path fill="#FF2B73" d="M132 76h4v4h-4zM136 76h4v4h-4zM140 76h4v4h-4zM144 76h4v4h-4zM148 76h4v4h-4zM152 76h4v4h-4zM156 76h4v4h-4zM160 76h4v4h-4zM164 76h4v4h-4zM168 76h4v4h-4z"/><path fill="#FFB0AB" d="M172 76h4v4h-4zM176 76h4v4h-4zM180 76h4v4h-4zM184 76h4v4h-4zM188 76h4v4h-4zM192 76h4v4h-4zM196 76h4v4h-4zM200 76h4v4h-4z"/><path fill="#FFA565" d="M112 80h4v4h-4zM116 80h4v4h-4zM120 80h4v4h-4z"/><path fill="#FF7A8F" d="M124 80h4v4h-4zM128 80h4v4h-4z"/><path fill="#FF2B73" d="M132 80h4v4h-4zM136 80h4v4h-4zM140 80h4v4h-4zM144 80h4v4h-4zM148 80h4v4h-4zM152 80h4v4h-4zM156 80h4v4h-4zM160 80h4v4h-4zM164 80h4v4h-4zM168 80h4v4h-4zM172 80h4v4h-4zM176 80h4v4h-4z"/><path fill="#FFB0AB" d="M180 80h4v4h-4zM184 80h4v4h-4zM188 80h4v4h-4zM192 80h4v4h-4zM196 80h4v4h-4zM200 80h4v4h-4zM204 80h4v4h-4z"/><path fill="#FF676C" d="M208 80h4v4h-4z"/><path fill="#FFA565" d="M108 84h4v4h-4zM112 84h4v4h-4zM116 84h4v4h-4zM120 84h4v4h-4z"/><path fill="#FF7A8F" d="M124 84h4v4h-4zM128 84h4v4h-4z"/><path fill="#FF2B73" d="M132 84h4v4h-4zM136 84h4v4h-4zM140 84h4v4h-4zM144 84h4v4h-4zM148 84h4v4h-4zM152 84h4v4h-4zM156 84h4v4h-4zM160 84h4v4h-4zM164 84h4v4h-4zM168 84h4v4h-4zM172 84h4v4h-4zM176 84h4v4h-4zM180 84h4v4h-4z"/><path fill="#FF77A9" d="M184 84h4v4h-4z"/><path fill="#FF676C" d="M188 84h4v4h-4zM192 84h4v4h-4zM196 84h4v4h-4zM200 84h4v4h-4zM204 84h4v4h-4zM208 84h4v4h-4z"/><path fill="#FFA565" d="M108 88h4v4h-4zM112 88h4v4h-4zM116 88h4v4h-4zM120 88h4v4h-4z"/><path fill="#FF7A8F" d="M124 88h4v4h-4zM128 88h4v4h-4z"/><path fill="#FF2B73" d="M132 88h4v4h-4zM136 88h4v4h-4zM140 88h4v4h-4zM144 88h4v4h-4zM148 88h4v4h-4zM152 88h4v4h-4zM156 88h4v4h-4zM160 88h4v4h-4zM164 88h4v4h-4zM168 88h4v4h-4zM172 88h4v4h-4zM176 88h4v4h-4zM180 88h4v4h-4zM184 88h4v4h-4z"/><path fill="#FF676C" d="M188 88h4v4h-4zM192 88h4v4h-4zM196 88h4v4h-4zM200 88h4v4h-4zM204 88h4v4h-4zM208 88h4v4h-4z"/><path fill="#FFA565" d="M104 92h4v4h-4zM108 92h4v4h-4zM112 92h4v4h-4zM116 92h4v4h-4zM120 92h4v4h-4z"/><path fill="#FF7A8F" d="M124 92h4v4h-4zM128 92h4v4h-4zM132 92h4v4h-4z"/><path fill="#FF2B73" d="M136 92h4v4h-4zM140 92h4v4h-4zM144 92h4v4h-4zM148 92h4v4h-4zM152 92h4v4h-4zM156 92h4v4h-4zM160 92h4v4h-4zM164 92h4v4h-4zM168 92h4v4h-4zM172 92h4v4h-4zM176 92h4v4h-4zM180 92h4v4h-4zM184 92h4v4h-4z"/><path fill="#FF676C" d="M188 92h4v4h-4zM192 92h4v4h-4zM196 92h4v4h-4zM200 92h4v4h-4zM204 92h4v4h-4zM208 92h4v4h-4z"/><path fill="#FFA565" d="M104 96h4v4h-4zM108 96h4v4h-4zM112 96h4v4h-4zM116 96h4v4h-4zM120 96h4v4h-4z"/><path fill="#FF7A8F" d="M124 96h4v4h-4zM128 96h4v4h-4zM132 96h4v4h-4z"/><path fill="#FF2B73" d="M136 96h4v4h-4zM140 96h4v4h-4zM144 96h4v4h-4zM148 96h4v4h-4zM152 96h4v4h-4zM156 96h4v4h-4zM160 96h4v4h-4zM164 96h4v4h-4zM168 96h4v4h-4zM172 96h4v4h-4zM176 96h4v4h-4zM180 96h4v4h-4zM184 96h4v4h-4z"/><path fill="#FF676C" d="M188 96h4v4h-4zM192 96h4v4h-4zM196 96h4v4h-4zM200 96h4v4h-4zM204 96h4v4h-4zM208 96h4v4h-4z"/><path fill="#FFA565" d="M100 100h4v4h-4zM104 100h4v4h-4zM108 100h4v4h-4zM112 100h4v4h-4zM116 100h4v4h-4zM120 100h4v4h-4z"/><path fill="#FF7A8F" d="M124 100h4v4h-4zM128 100h4v4h-4zM132 100h4v4h-4z"/><path fill="#FF2B73" d="M136 100h4v4h-4zM140 100h4v4h-4zM144 100h4v4h-4zM148 100h4v4h-4zM152 100h4v4h-4zM156 100h4v4h-4zM160 100h4v4h-4zM164 100h4v4h-4zM168 100h4v4h-4zM172 100h4v4h-4zM176 100h4v4h-4zM180 100h4v4h-4zM184 100h4v4h-4z"/><path fill="#FF676C" d="M188 100h4v4h-4zM192 100h4v4h-4zM196 100h4v4h-4zM200 100h4v4h-4zM204 100h4v4h-4zM208 100h4v4h-4z"/><path fill="#FFA565" d="M100 104h4v4h-4zM104 104h4v4h-4zM108 104h4v4h-4zM112 104h4v4h-4zM116 104h4v4h-4zM120 104h4v4h-4z"/><path fill="#FF7A8F" d="M124 104h4v4h-4zM128 104h4v4h-4zM132 104h4v4h-4zM136 104h4v4h-4z"/><path fill="#FF2B73" d="M140 104h4v4h-4zM144 104h4v4h-4zM148 104h4v4h-4zM152 104h4v4h-4zM156 104h4v4h-4zM160 104h4v4h-4zM164 104h4v4h-4zM168 104h4v4h-4zM172 104h4v4h-4zM176 104h4v4h-4zM180 104h4v4h-4zM184 104h4v4h-4z"/><path fill="#FF676C" d="M188 104h4v4h-4zM192 104h4v4h-4zM196 104h4v4h-4zM200 104h4v4h-4zM204 104h4v4h-4zM208 104h4v4h-4z"/><path fill="#FFA565" d="M96 108h4v4h-4zM100 108h4v4h-4zM104 108h4v4h-4zM108 108h4v4h-4zM112 108h4v4h-4zM116 108h4v4h-4zM120 108h4v4h-4z"/><path fill="#FF7A8F" d="M124 108h4v4h-4zM128 108h4v4h-4zM132 108h4v4h-4zM136 108h4v4h-4z"/><path fill="#FF2B73" d="M140 108h4v4h-4zM144 108h4v4h-4zM148 108h4v4h-4zM152 108h4v4h-4zM156 108h4v4h-4zM160 108h4v4h-4zM164 108h4v4h-4zM168 108h4v4h-4zM172 108h4v4h-4zM176 108h4v4h-4zM180 108h4v4h-4zM184 108h4v4h-4z"/><path fill="#FF676C" d="M188 108h4v4h-4zM192 108h4v4h-4zM196 108h4v4h-4zM200 108h4v4h-4zM204 108h4v4h-4zM208 108h4v4h-4z"/><path fill="#FFA565" d="M60 112h4v4h-4zM64 112h4v4h-4zM68 112h4v4h-4z"/><path fill="#FFB0AB" d="M72 112h4v4h-4zM76 112h4v4h-4zM80 112h4v4h-4zM84 112h4v4h-4zM88 112h4v4h-4zM92 112h4v4h-4zM96 112h4v4h-4zM100 112h4v4h-4zM104 112h4v4h-4z"/><path fill="#FFA565" d="M108 112h4v4h-4zM112 112h4v4h-4zM116 112h4v4h-4zM120 112h4v4h-4z"/><path fill="#FF7A8F" d="M124 112h4v4h-4zM128 112h4v4h-4zM132 112h4v4h-4zM136 112h4v4h-4z"/><path fill="#FF2B73" d="M140 112h4v4h-4zM144 112h4v4h-4zM148 112h4v4h-4zM152 112h4v4h-4zM156 112h4v4h-4zM160 112h4v4h-4zM164 112h4v4h-4zM168 112h4v4h-4zM172 112h4v4h-4zM176 112h4v4h-4zM180 112h4v4h-4zM184 112h4v4h-4z"/><path fill="#FF676C" d="M188 112h4v4h-4zM192 112h4v4h-4zM196 112h4v4h-4zM200 112h4v4h-4zM204 112h4v4h-4zM208 112h4v4h-4z"/><path fill="#FFA565" d="M60 116h4v4h-4zM64 116h4v4h-4zM68 116h4v4h-4zM72 116h4v4h-4zM76 116h4v4h-4z"/><path fill="#FFB0AB" d="M80 116h4v4h-4zM84 116h4v4h-4zM88 116h4v4h-4zM92 116h4v4h-4zM96 116h4v4h-4zM100 116h4v4h-4zM104 116h4v4h-4zM108 116h4v4h-4zM112 116h4v4h-4zM116 116h4v4h-4zM120 116h4v4h-4zM124 116h4v4h-4z"/><path fill="#FF7A8F" d="M128 116h4v4h-4zM132 116h4v4h-4zM136 116h4v4h-4z"/><path fill="#FF2B73" d="M140 116h4v4h-4zM144 116h4v4h-4zM148 116h4v4h-4zM152 116h4v4h-4zM156 116h4v4h-4zM160 116h4v4h-4zM164 116h4v4h-4zM168 116h4v4h-4zM172 116h4v4h-4zM176 116h4v4h-4zM180 116h4v4h-4zM184 116h4v4h-4z"/><path fill="#FF676C" d="M188 116h4v4h-4zM192 116h4v4h-4zM196 116h4v4h-4zM200 116h4v4h-4zM204 116h4v4h-4zM208 116h4v4h-4z"/><path fill="#FFA565" d="M60 120h4v4h-4zM64 120h4v4h-4zM68 120h4v4h-4zM72 120h4v4h-4zM76 120h4v4h-4zM80 120h4v4h-4z"/><path fill="#FFB0AB" d="M84 120h4v4h-4zM88 120h4v4h-4zM92 120h4v4h-4zM96 120h4v4h-4zM100 120h4v4h-4zM104 120h4v4h-4zM108 120h4v4h-4zM112 120h4v4h-4zM116 120h4v4h-4zM120 120h4v4h-4zM124 120h4v4h-4zM128 120h4v4h-4zM132 120h4v4h-4z"/><path fill="#FF7A8F" d="M136 120h4v4h-4zM140 120h4v4h-4z"/><path fill="#FF2B73" d="M144 120h4v4h-4zM148 120h4v4h-4zM152 120h4v4h-4zM156 120h4v4h-4zM160 120h4v4h-4zM164 120h4v4h-4zM168 120h4v4h-4zM172 120h4v4h-4zM176 120h4v4h-4zM180 120h4v4h-4zM184 120h4v4h-4z"/><path fill="#FF676C" d="M188 120h4v4h-4zM192 120h4v4h-4zM196 120h4v4h-4zM200 120h4v4h-4zM204 120h4v4h-4zM208 120h4v4h-4z"/><path fill="#FFA565" d="M60 124h4v4h-4zM64 124h4v4h-4zM68 124h4v4h-4zM72 124h4v4h-4zM76 124h4v4h-4zM80 124h4v4h-4zM84 124h4v4h-4zM88 124h4v4h-4z"/><path fill="#FFB0AB" d="M92 124h4v4h-4zM96 124h4v4h-4zM100 124h4v4h-4zM104 124h4v4h-4zM108 124h4v4h-4zM112 124h4v4h-4zM116 124h4v4h-4zM120 124h4v4h-4zM124 124h4v4h-4zM128 124h4v4h-4zM132 124h4v4h-4zM136 124h4v4h-4z"/><path fill="#FF7A8F" d="M140 124h4v4h-4z"/><path fill="#FF2B73" d="M144 124h4v4h-4zM148 124h4v4h-4zM152 124h4v4h-4zM156 124h4v4h-4zM160 124h4v4h-4zM164 124h4v4h-4zM168 124h4v4h-4zM172 124h4v4h-4zM176 124h4v4h-4zM180 124h4v4h-4zM184 124h4v4h-4z"/><path fill="#FF676C" d="M188 124h4v4h-4zM192 124h4v4h-4zM196 124h4v4h-4zM200 124h4v4h-4zM204 124h4v4h-4zM208 124h4v4h-4z"/><path fill="#FFA565" d="M60 128h4v4h-4zM64 128h4v4h-4zM68 128h4v4h-4zM72 128h4v4h-4zM76 128h4v4h-4zM80 128h4v4h-4zM84 128h4v4h-4zM88 128h4v4h-4zM92 128h4v4h-4z"/><path fill="#FF7A8F" d="M96 128h4v4h-4z"/><path fill="#FFB0AB" d="M100 128h4v4h-4zM104 128h4v4h-4zM108 128h4v4h-4zM112 128h4v4h-4zM116 128h4v4h-4zM120 128h4v4h-4zM124 128h4v4h-4zM128 128h4v4h-4zM132 128h4v4h-4z"/><path fill="#FF7A8F" d="M136 128h4v4h-4z"/><path fill="#FF676C" d="M140 128h4v4h-4zM144 128h4v4h-4z"/><path fill="#FF2B73" d="M148 128h4v4h-4zM152 128h4v4h-4zM156 128h4v4h-4zM160 128h4v4h-4zM164 128h4v4h-4zM168 128h4v4h-4zM172 128h4v4h-4zM176 128h4v4h-4zM180 128h4v4h-4zM184 128h4v4h-4z"/><path fill="#FF676C" d="M188 128h4v4h-4zM192 128h4v4h-4zM196 128h4v4h-4zM200 128h4v4h-4zM204 128h4v4h-4zM208 128h4v4h-4z"/><path fill="#FFA565" d="M60 132h4v4h-4zM64 132h4v4h-4zM68 132h4v4h-4zM72 132h4v4h-4zM76 132h4v4h-4zM80 132h4v4h-4zM84 132h4v4h-4zM88 132h4v4h-4z"/><path fill="#FF7A8F" d="M92 132h4v4h-4zM96 132h4v4h-4zM100 132h4v4h-4zM104 132h4v4h-4zM108 132h4v4h-4zM112 132h4v4h-4zM116 132h4v4h-4zM120 132h4v4h-4zM124 132h4v4h-4zM128 132h4v4h-4zM132 132h4v4h-4zM136 132h4v4h-4z"/><path fill="#FF676C" d="M140 132h4v4h-4zM144 132h4v4h-4z"/><path fill="#FF2B73" d="M148 132h4v4h-4zM152 132h4v4h-4zM156 132h4v4h-4zM160 132h4v4h-4zM164 132h4v4h-4zM168 132h4v4h-4zM172 132h4v4h-4zM176 132h4v4h-4zM180 132h4v4h-4zM184 132h4v4h-4z"/><path fill="#FF676C" d="M188 132h4v4h-4zM192 132h4v4h-4zM196 132h4v4h-4zM200 132h4v4h-4zM204 132h4v4h-4zM208 132h4v4h-4z"/><path fill="#FFA565" d="M60 136h4v4h-4zM64 136h4v4h-4zM68 136h4v4h-4zM72 136h4v4h-4zM76 136h4v4h-4zM80 136h4v4h-4zM84 136h4v4h-4zM88 136h4v4h-4z"/><path fill="#FF7A8F" d="M92 136h4v4h-4zM96 136h4v4h-4zM100 136h4v4h-4zM104 136h4v4h-4zM108 136h4v4h-4zM112 136h4v4h-4zM116 136h4v4h-4zM120 136h4v4h-4zM124 136h4v4h-4zM128 136h4v4h-4zM132 136h4v4h-4zM136 136h4v4h-4z"/><path fill="#FF676C" d="M140 136h4v4h-4zM144 136h4v4h-4zM148 136h4v4h-4z"/><path fill="#FF2B73" d="M152 136h4v4h-4zM156 136h4v4h-4zM160 136h4v4h-4zM164 136h4v4h-4zM168 136h4v4h-4zM172 136h4v4h-4zM176 136h4v4h-4zM180 136h4v4h-4zM184 136h4v4h-4z"/><path fill="#FF676C" d="M188 136h4v4h-4zM192 136h4v4h-4zM196 136h4v4h-4zM200 136h4v4h-4zM204 136h4v4h-4zM208 136h4v4h-4z"/><path fill="#FFA565" d="M60 140h4v4h-4zM64 140h4v4h-4zM68 140h4v4h-4zM72 140h4v4h-4zM76 140h4v4h-4zM80 140h4v4h-4zM84 140h4v4h-4z"/><path fill="#FF7A8F" d="M88 140h4v4h-4zM92 140h4v4h-4zM96 140h4v4h-4zM100 140h4v4h-4zM104 140h4v4h-4zM108 140h4v4h-4zM112 140h4v4h-4zM116 140h4v4h-4zM120 140h4v4h-4zM124 140h4v4h-4zM128 140h4v4h-4zM132 140h4v4h-4zM136 140h4v4h-4z"/><path fill="#FF676C" d="M140 140h4v4h-4zM144 140h4v4h-4zM148 140h4v4h-4z"/><path fill="#FF2B73" d="M152 140h4v4h-4zM156 140h4v4h-4z"/><path fill="#FFB0AB" d="M160 140h4v4h-4zM164 140h4v4h-4zM168 140h4v4h-4z"/><path fill="#FF2B73" d="M172 140h4v4h-4zM176 140h4v4h-4zM180 140h4v4h-4zM184 140h4v4h-4z"/><path fill="#FF676C" d="M188 140h4v4h-4zM192 140h4v4h-4zM196 140h4v4h-4zM200 140h4v4h-4zM204 140h4v4h-4zM208 140h4v4h-4z"/><path fill="#FFB0AB" d="M212 140h4v4h-4zM216 140h4v4h-4z"/><path fill="#FFA565" d="M60 144h4v4h-4zM64 144h4v4h-4zM68 144h4v4h-4zM72 144h4v4h-4zM76 144h4v4h-4zM80 144h4v4h-4z"/><path fill="#FF7A8F" d="M84 144h4v4h-4zM88 144h4v4h-4zM92 144h4v4h-4zM96 144h4v4h-4zM100 144h4v4h-4zM104 144h4v4h-4zM108 144h4v4h-4zM112 144h4v4h-4zM116 144h4v4h-4zM120 144h4v4h-4zM124 144h4v4h-4zM128 144h4v4h-4zM132 144h4v4h-4zM136 144h4v4h-4z"/><path fill="#FF676C" d="M140 144h4v4h-4zM144 144h4v4h-4zM148 144h4v4h-4z"/><path fill="#FF2B73" d="M152 144h4v4h-4zM156 144h4v4h-4z"/><path fill="#FFB0AB" d="M160 144h4v4h-4zM164 144h4v4h-4zM168 144h4v4h-4zM172 144h4v4h-4zM176 144h4v4h-4zM180 144h4v4h-4z"/><path fill="#FF2B73" d="M184 144h4v4h-4z"/><path fill="#FF676C" d="M188 144h4v4h-4zM192 144h4v4h-4zM196 144h4v4h-4zM200 144h4v4h-4zM204 144h4v4h-4zM208 144h4v4h-4z"/><path fill="#FFB0AB" d="M212 144h4v4h-4zM216 144h4v4h-4zM220 144h4v4h-4z"/><path fill="#FFA565" d="M60 148h4v4h-4zM64 148h4v4h-4zM68 148h4v4h-4zM72 148h4v4h-4zM76 148h4v4h-4zM80 148h4v4h-4z"/><path fill="#FF7A8F" d="M84 148h4v4h-4zM88 148h4v4h-4zM92 148h4v4h-4zM96 148h4v4h-4zM100 148h4v4h-4zM104 148h4v4h-4zM108 148h4v4h-4zM112 148h4v4h-4zM116 148h4v4h-4zM120 148h4v4h-4zM124 148h4v4h-4zM128 148h4v4h-4zM132 148h4v4h-4zM136 148h4v4h-4z"/><path fill="#FF676C" d="M140 148h4v4h-4zM144 148h4v4h-4zM148 148h4v4h-4z"/><path fill="#FF2B73" d="M152 148h4v4h-4z"/><path fill="#FFA565" d="M156 148h4v4h-4zM160 148h4v4h-4z"/><path fill="#FFB0AB" d="M164 148h4v4h-4zM168 148h4v4h-4zM172 148h4v4h-4zM176 148h4v4h-4zM180 148h4v4h-4zM184 148h4v4h-4zM188 148h4v4h-4z"/><path fill="#FF676C" d="M192 148h4v4h-4zM196 148h4v4h-4zM200 148h4v4h-4zM204 148h4v4h-4zM208 148h4v4h-4z"/><path fill="#FFB0AB" d="M212 148h4v4h-4zM216 148h4v4h-4zM220 148h4v4h-4zM224 148h4v4h-4zM228 148h4v4h-4z"/><path fill="#FFA565" d="M60 152h4v4h-4zM64 152h4v4h-4zM68 152h4v4h-4zM72 152h4v4h-4z"/><path fill="#FF4658" d="M76 152h4v4h-4z"/><path fill="#FF7A8F" d="M80 152h4v4h-4zM84 152h4v4h-4zM88 152h4v4h-4zM92 152h4v4h-4zM96 152h4v4h-4zM100 152h4v4h-4zM104 152h4v4h-4zM108 152h4v4h-4zM112 152h4v4h-4zM116 152h4v4h-4zM120 152h4v4h-4zM124 152h4v4h-4zM128 152h4v4h-4zM132 152h4v4h-4zM136 152h4v4h-4z"/><path fill="#FF676C" d="M140 152h4v4h-4zM144 152h4v4h-4zM148 152h4v4h-4z"/><path fill="#FF4675" d="M152 152h4v4h-4z"/><path fill="#FFA565" d="M156 152h4v4h-4zM160 152h4v4h-4zM164 152h4v4h-4z"/><path fill="#FFB0AB" d="M168 152h4v4h-4zM172 152h4v4h-4zM176 152h4v4h-4zM180 152h4v4h-4zM184 152h4v4h-4zM188 152h4v4h-4zM192 152h4v4h-4z"/><path fill="#FF676C" d="M196 152h4v4h-4zM200 152h4v4h-4zM204 152h4v4h-4z"/><path fill="#FFB0AB" d="M208 152h4v4h-4zM212 152h4v4h-4zM216 152h4v4h-4zM220 152h4v4h-4zM224 152h4v4h-4zM228 152h4v4h-4zM232 152h4v4h-4z"/><path fill="#FFA565" d="M60 156h4v4h-4zM64 156h4v4h-4zM68 156h4v4h-4z"/><path fill="#FF2B73" d="M72 156h4v4h-4zM76 156h4v4h-4z"/><path fill="#FF7A8F" d="M80 156h4v4h-4zM84 156h4v4h-4zM88 156h4v4h-4zM92 156h4v4h-4zM96 156h4v4h-4zM100 156h4v4h-4zM104 156h4v4h-4zM108 156h4v4h-4zM112 156h4v4h-4zM116 156h4v4h-4zM120 156h4v4h-4zM124 156h4v4h-4zM128 156h4v4h-4zM132 156h4v4h-4zM136 156h4v4h-4z"/><path fill="#FF676C" d="M140 156h4v4h-4zM144 156h4v4h-4zM148 156h4v4h-4zM152 156h4v4h-4z"/><path fill="#FFA565" d="M156 156h4v4h-4zM160 156h4v4h-4zM164 156h4v4h-4zM168 156h4v4h-4z"/><path fill="#FFB0AB" d="M172 156h4v4h-4zM176 156h4v4h-4zM180 156h4v4h-4z"/><path fill="#FF50B3" d="M184 156h4v4h-4zM188 156h4v4h-4zM192 156h4v4h-4z"/><path fill="#FF676C" d="M196 156h4v4h-4zM200 156h4v4h-4zM204 156h4v4h-4z"/><path fill="#FFB0AB" d="M208 156h4v4h-4zM212 156h4v4h-4zM216 156h4v4h-4zM220 156h4v4h-4zM224 156h4v4h-4zM228 156h4v4h-4zM232 156h4v4h-4zM236 156h4v4h-4zM240 156h4v4h-4z"/><path fill="#FFA565" d="M60 160h4v4h-4z"/><path fill="#FF2B73" d="M64 160h4v4h-4zM68 160h4v4h-4zM72 160h4v4h-4zM76 160h4v4h-4zM80 160h4v4h-4z"/><path fill="#FF7A8F" d="M84 160h4v4h-4zM88 160h4v4h-4zM92 160h4v4h-4zM96 160h4v4h-4zM100 160h4v4h-4zM104 160h4v4h-4zM108 160h4v4h-4zM112 160h4v4h-4zM116 160h4v4h-4zM120 160h4v4h-4zM124 160h4v4h-4zM128 160h4v4h-4zM132 160h4v4h-4zM136 160h4v4h-4z"/><path fill="#FF676C" d="M140 160h4v4h-4zM144 160h4v4h-4zM148 160h4v4h-4z"/><path fill="#FFA565" d="M152 160h4v4h-4zM156 160h4v4h-4zM160 160h4v4h-4zM164 160h4v4h-4zM168 160h4v4h-4z"/><path fill="#FF2B73" d="M172 160h4v4h-4z"/><path fill="#FF50B3" d="M176 160h4v4h-4zM180 160h4v4h-4zM184 160h4v4h-4zM188 160h4v4h-4zM192 160h4v4h-4z"/><path fill="#FF676C" d="M196 160h4v4h-4zM200 160h4v4h-4z"/><path fill="#FFB0AB" d="M204 160h4v4h-4zM208 160h4v4h-4zM212 160h4v4h-4zM216 160h4v4h-4zM220 160h4v4h-4zM224 160h4v4h-4zM228 160h4v4h-4zM232 160h4v4h-4zM236 160h4v4h-4zM240 160h4v4h-4z"/><path fill="#FF2B73" d="M60 164h4v4h-4zM64 164h4v4h-4zM68 164h4v4h-4zM72 164h4v4h-4zM76 164h4v4h-4zM80 164h4v4h-4z"/><path fill="#FF7A8F" d="M84 164h4v4h-4zM88 164h4v4h-4zM92 164h4v4h-4zM96 164h4v4h-4zM100 164h4v4h-4zM104 164h4v4h-4zM108 164h4v4h-4zM112 164h4v4h-4zM116 164h4v4h-4zM120 164h4v4h-4zM124 164h4v4h-4zM128 164h4v4h-4zM132 164h4v4h-4zM136 164h4v4h-4z"/><path fill="#FF676C" d="M140 164h4v4h-4zM144 164h4v4h-4zM148 164h4v4h-4z"/><path fill="#FFA565" d="M152 164h4v4h-4zM156 164h4v4h-4zM160 164h4v4h-4z"/><path fill="#FF2B73" d="M164 164h4v4h-4zM168 164h4v4h-4zM172 164h4v4h-4z"/><path fill="#FF50B3" d="M176 164h4v4h-4zM180 164h4v4h-4zM184 164h4v4h-4zM188 164h4v4h-4zM192 164h4v4h-4z"/><path fill="#FF6294" d="M196 164h4v4h-4z"/><path fill="#FF676C" d="M200 164h4v4h-4z"/><path fill="#FFB0AB" d="M204 164h4v4h-4zM208 164h4v4h-4zM212 164h4v4h-4zM216 164h4v4h-4zM220 164h4v4h-4zM224 164h4v4h-4zM228 164h4v4h-4zM232 164h4v4h-4zM236 164h4v4h-4z"/><path fill="#FF6294" d="M240 164h4v4h-4z"/><path fill="#FF2B73" d="M60 168h4v4h-4zM64 168h4v4h-4zM68 168h4v4h-4zM72 168h4v4h-4zM76 168h4v4h-4zM80 168h4v4h-4zM84 168h4v4h-4z"/><path fill="#FF7A8F" d="M88 168h4v4h-4zM92 168h4v4h-4zM96 168h4v4h-4zM100 168h4v4h-4zM104 168h4v4h-4zM108 168h4v4h-4zM112 168h4v4h-4zM116 168h4v4h-4zM120 168h4v4h-4zM124 168h4v4h-4zM128 168h4v4h-4zM132 168h4v4h-4zM136 168h4v4h-4z"/><path fill="#FF676C" d="M140 168h4v4h-4zM144 168h4v4h-4zM148 168h4v4h-4z"/><path fill="#FFA565" d="M152 168h4v4h-4z"/><path fill="#FF676C" d="M156 168h4v4h-4z"/><path fill="#FF2B73" d="M160 168h4v4h-4zM164 168h4v4h-4zM168 168h4v4h-4zM172 168h4v4h-4z"/><path fill="#FF50B3" d="M176 168h4v4h-4zM180 168h4v4h-4zM184 168h4v4h-4zM188 168h4v4h-4zM192 168h4v4h-4z"/><path fill="#FF676C" d="M196 168h4v4h-4z"/><path fill="#FFB0AB" d="M200 168h4v4h-4zM204 168h4v4h-4zM208 168h4v4h-4zM212 168h4v4h-4zM216 168h4v4h-4zM220 168h4v4h-4zM224 168h4v4h-4zM228 168h4v4h-4zM232 168h4v4h-4zM236 168h4v4h-4z"/><path fill="#FF6294" d="M240 168h4v4h-4z"/><path fill="#FF2B73" d="M60 172h4v4h-4zM64 172h4v4h-4zM68 172h4v4h-4zM72 172h4v4h-4zM76 172h4v4h-4zM80 172h4v4h-4zM84 172h4v4h-4zM88 172h4v4h-4z"/><path fill="#FF7A8F" d="M92 172h4v4h-4zM96 172h4v4h-4zM100 172h4v4h-4zM104 172h4v4h-4zM108 172h4v4h-4zM112 172h4v4h-4zM116 172h4v4h-4zM120 172h4v4h-4zM124 172h4v4h-4zM128 172h4v4h-4zM132 172h4v4h-4z"/><path fill="#FFB0AB" d="M136 172h4v4h-4zM140 172h4v4h-4z"/><path fill="#FF676C" d="M144 172h4v4h-4zM148 172h4v4h-4z"/><path fill="#FF2B73" d="M152 172h4v4h-4zM156 172h4v4h-4zM160 172h4v4h-4zM164 172h4v4h-4zM168 172h4v4h-4zM172 172h4v4h-4zM176 172h4v4h-4z"/><path fill="#FF50B3" d="M180 172h4v4h-4zM184 172h4v4h-4zM188 172h4v4h-4zM192 172h4v4h-4z"/><path fill="#FF6294" d="M196 172h4v4h-4z"/><path fill="#FFB0AB" d="M200 172h4v4h-4zM204 172h4v4h-4zM208 172h4v4h-4zM212 172h4v4h-4zM216 172h4v4h-4zM220 172h4v4h-4zM224 172h4v4h-4zM228 172h4v4h-4zM232 172h4v4h-4z"/><path fill="#FF6294" d="M236 172h4v4h-4zM240 172h4v4h-4z"/><path fill="#FF2B73" d="M64 176h4v4h-4zM68 176h4v4h-4zM72 176h4v4h-4zM76 176h4v4h-4zM80 176h4v4h-4zM84 176h4v4h-4zM88 176h4v4h-4z"/><path fill="#FF7A8F" d="M92 176h4v4h-4zM96 176h4v4h-4zM100 176h4v4h-4zM104 176h4v4h-4zM108 176h4v4h-4zM112 176h4v4h-4zM116 176h4v4h-4zM120 176h4v4h-4zM124 176h4v4h-4zM128 176h4v4h-4zM132 176h4v4h-4z"/><path fill="#FFB0AB" d="M136 176h4v4h-4zM140 176h4v4h-4zM144 176h4v4h-4zM148 176h4v4h-4zM152 176h4v4h-4z"/><path fill="#FF2B73" d="M156 176h4v4h-4zM160 176h4v4h-4zM164 176h4v4h-4zM168 176h4v4h-4zM172 176h4v4h-4zM176 176h4v4h-4z"/><path fill="#FF50B3" d="M180 176h4v4h-4zM184 176h4v4h-4zM188 176h4v4h-4zM192 176h4v4h-4z"/><path fill="#FF6294" d="M196 176h4v4h-4z"/><path fill="#FFB0AB" d="M200 176h4v4h-4zM204 176h4v4h-4zM208 176h4v4h-4zM212 176h4v4h-4zM216 176h4v4h-4zM220 176h4v4h-4zM224 176h4v4h-4zM228 176h4v4h-4z"/><path fill="#FF6294" d="M232 176h4v4h-4zM236 176h4v4h-4z"/><path fill="#FF2B73" d="M64 180h4v4h-4zM68 180h4v4h-4zM72 180h4v4h-4zM76 180h4v4h-4zM80 180h4v4h-4zM84 180h4v4h-4zM88 180h4v4h-4zM92 180h4v4h-4z"/><path fill="#FF7A8F" d="M96 180h4v4h-4zM100 180h4v4h-4zM104 180h4v4h-4zM108 180h4v4h-4zM112 180h4v4h-4zM116 180h4v4h-4zM120 180h4v4h-4zM124 180h4v4h-4zM128 180h4v4h-4z"/><path fill="#FFA565" d="M132 180h4v4h-4z"/><path fill="#FFB0AB" d="M136 180h4v4h-4zM140 180h4v4h-4zM144 180h4v4h-4zM148 180h4v4h-4zM152 180h4v4h-4zM156 180h4v4h-4zM160 180h4v4h-4zM164 180h4v4h-4z"/><path fill="#FF2B73" d="M168 180h4v4h-4zM172 180h4v4h-4zM176 180h4v4h-4z"/><path fill="#FF50B3" d="M180 180h4v4h-4zM184 180h4v4h-4zM188 180h4v4h-4zM192 180h4v4h-4z"/><path fill="#FF8BA4" d="M196 180h4v4h-4z"/><path fill="#FFB0AB" d="M200 180h4v4h-4zM204 180h4v4h-4zM208 180h4v4h-4zM212 180h4v4h-4zM216 180h4v4h-4zM220 180h4v4h-4zM224 180h4v4h-4z"/><path fill="#FF6294" d="M228 180h4v4h-4zM232 180h4v4h-4zM236 180h4v4h-4z"/><path fill="#FF2B73" d="M68 184h4v4h-4zM72 184h4v4h-4zM76 184h4v4h-4zM80 184h4v4h-4zM84 184h4v4h-4zM88 184h4v4h-4zM92 184h4v4h-4z"/><path fill="#FF7A8F" d="M96 184h4v4h-4zM100 184h4v4h-4zM104 184h4v4h-4zM108 184h4v4h-4zM112 184h4v4h-4zM116 184h4v4h-4zM120 184h4v4h-4zM124 184h4v4h-4z"/><path fill="#FF816D" d="M128 184h4v4h-4z"/><path fill="#FFA565" d="M132 184h4v4h-4z"/><path fill="#FFB0AB" d="M136 184h4v4h-4zM140 184h4v4h-4zM144 184h4v4h-4zM148 184h4v4h-4zM152 184h4v4h-4zM156 184h4v4h-4zM160 184h4v4h-4zM164 184h4v4h-4zM168 184h4v4h-4z"/><path fill="#FF2B73" d="M172 184h4v4h-4zM176 184h4v4h-4zM180 184h4v4h-4z"/><path fill="#FF50B3" d="M184 184h4v4h-4zM188 184h4v4h-4zM192 184h4v4h-4z"/><path fill="#FFB0AB" d="M196 184h4v4h-4zM200 184h4v4h-4zM204 184h4v4h-4zM208 184h4v4h-4zM212 184h4v4h-4zM216 184h4v4h-4zM220 184h4v4h-4z"/><path fill="#FF6294" d="M224 184h4v4h-4zM228 184h4v4h-4zM232 184h4v4h-4zM236 184h4v4h-4z"/><path fill="#FF2B73" d="M68 188h4v4h-4zM72 188h4v4h-4zM76 188h4v4h-4zM80 188h4v4h-4zM84 188h4v4h-4zM88 188h4v4h-4zM92 188h4v4h-4zM96 188h4v4h-4z"/><path fill="#FF7A8F" d="M100 188h4v4h-4zM104 188h4v4h-4zM108 188h4v4h-4zM112 188h4v4h-4zM116 188h4v4h-4zM120 188h4v4h-4zM124 188h4v4h-4z"/><path fill="#FFA565" d="M128 188h4v4h-4zM132 188h4v4h-4z"/><path fill="#FFB0AB" d="M136 188h4v4h-4zM140 188h4v4h-4zM144 188h4v4h-4zM148 188h4v4h-4zM152 188h4v4h-4zM156 188h4v4h-4zM160 188h4v4h-4zM164 188h4v4h-4z"/><path fill="#FF6294" d="M168 188h4v4h-4z"/><path fill="#FF50B3" d="M172 188h4v4h-4z"/><path fill="#FF2B73" d="M176 188h4v4h-4zM180 188h4v4h-4z"/><path fill="#FF50B3" d="M184 188h4v4h-4zM188 188h4v4h-4zM192 188h4v4h-4z"/><path fill="#FF6294" d="M196 188h4v4h-4z"/><path fill="#FFB0AB" d="M200 188h4v4h-4zM204 188h4v4h-4zM208 188h4v4h-4zM212 188h4v4h-4zM216 188h4v4h-4z"/><path fill="#FF6294" d="M220 188h4v4h-4zM224 188h4v4h-4zM228 188h4v4h-4zM232 188h4v4h-4zM236 188h4v4h-4z"/><path fill="#FF2B73" d="M72 192h4v4h-4zM76 192h4v4h-4zM80 192h4v4h-4zM84 192h4v4h-4zM88 192h4v4h-4zM92 192h4v4h-4zM96 192h4v4h-4z"/><path fill="#FF7A8F" d="M100 192h4v4h-4zM104 192h4v4h-4zM108 192h4v4h-4zM112 192h4v4h-4zM116 192h4v4h-4zM120 192h4v4h-4zM124 192h4v4h-4z"/><path fill="#FFA565" d="M128 192h4v4h-4zM132 192h4v4h-4z"/><path fill="#FFB0AB" d="M136 192h4v4h-4zM140 192h4v4h-4zM144 192h4v4h-4zM148 192h4v4h-4zM152 192h4v4h-4zM156 192h4v4h-4z"/><path fill="#FF50B3" d="M160 192h4v4h-4zM164 192h4v4h-4zM168 192h4v4h-4zM172 192h4v4h-4z"/><path fill="#FF2B73" d="M176 192h4v4h-4zM180 192h4v4h-4z"/><path fill="#FF50B3" d="M184 192h4v4h-4zM188 192h4v4h-4zM192 192h4v4h-4z"/><path fill="#FF8AA2" d="M196 192h4v4h-4z"/><path fill="#FFB0AB" d="M200 192h4v4h-4zM204 192h4v4h-4zM208 192h4v4h-4z"/><path fill="#FF2B73" d="M212 192h4v4h-4zM216 192h4v4h-4z"/><path fill="#FF6294" d="M220 192h4v4h-4zM224 192h4v4h-4zM228 192h4v4h-4zM232 192h4v4h-4zM236 192h4v4h-4z"/><path fill="#FF2B73" d="M76 196h4v4h-4zM80 196h4v4h-4zM84 196h4v4h-4zM88 196h4v4h-4zM92 196h4v4h-4zM96 196h4v4h-4zM100 196h4v4h-4z"/><path fill="#FF7A8F" d="M104 196h4v4h-4zM108 196h4v4h-4zM112 196h4v4h-4zM116 196h4v4h-4zM120 196h4v4h-4zM124 196h4v4h-4z"/><path fill="#FF6C54" d="M128 196h4v4h-4z"/><path fill="#FF2B73" d="M132 196h4v4h-4zM136 196h4v4h-4z"/><path fill="#FFB0AB" d="M140 196h4v4h-4zM144 196h4v4h-4zM148 196h4v4h-4z"/><path fill="#FF50B3" d="M152 196h4v4h-4zM156 196h4v4h-4zM160 196h4v4h-4zM164 196h4v4h-4zM168 196h4v4h-4zM172 196h4v4h-4z"/><path fill="#FF2B73" d="M176 196h4v4h-4zM180 196h4v4h-4z"/><path fill="#FF50B3" d="M184 196h4v4h-4zM188 196h4v4h-4zM192 196h4v4h-4zM196 196h4v4h-4z"/><path fill="#FF2B73" d="M200 196h4v4h-4zM204 196h4v4h-4zM208 196h4v4h-4zM212 196h4v4h-4zM216 196h4v4h-4z"/><path fill="#FF6294" d="M220 196h4v4h-4zM224 196h4v4h-4zM228 196h4v4h-4zM232 196h4v4h-4zM236 196h4v4h-4z"/><path fill="#FF2B73" d="M76 200h4v4h-4zM80 200h4v4h-4zM84 200h4v4h-4zM88 200h4v4h-4zM92 200h4v4h-4zM96 200h4v4h-4zM100 200h4v4h-4z"/><path fill="#FF7A8F" d="M104 200h4v4h-4zM108 200h4v4h-4zM112 200h4v4h-4zM116 200h4v4h-4zM120 200h4v4h-4zM124 200h4v4h-4z"/><path fill="#FF2B73" d="M128 200h4v4h-4zM132 200h4v4h-4zM136 200h4v4h-4zM140 200h4v4h-4zM144 200h4v4h-4z"/><path fill="#FF50B3" d="M148 200h4v4h-4zM152 200h4v4h-4zM156 200h4v4h-4zM160 200h4v4h-4zM164 200h4v4h-4zM168 200h4v4h-4zM172 200h4v4h-4z"/><path fill="#FF2B73" d="M176 200h4v4h-4zM180 200h4v4h-4zM184 200h4v4h-4z"/><path fill="#FF50B3" d="M188 200h4v4h-4zM192 200h4v4h-4zM196 200h4v4h-4z"/><path fill="#FF2B73" d="M200 200h4v4h-4zM204 200h4v4h-4zM208 200h4v4h-4zM212 200h4v4h-4zM216 200h4v4h-4z"/><path fill="#FF6294" d="M220 200h4v4h-4zM224 200h4v4h-4zM228 200h4v4h-4zM232 200h4v4h-4zM236 200h4v4h-4z"/><path fill="#FF2B73" d="M80 204h4v4h-4zM84 204h4v4h-4zM88 204h4v4h-4zM92 204h4v4h-4zM96 204h4v4h-4zM100 204h4v4h-4z"/><path fill="#FF567F" d="M104 204h4v4h-4z"/><path fill="#FF7A8F" d="M108 204h4v4h-4zM112 204h4v4h-4zM116 204h4v4h-4zM120 204h4v4h-4zM124 204h4v4h-4zM128 204h4v4h-4z"/><path fill="#FF2B73" d="M132 204h4v4h-4zM136 204h4v4h-4zM140 204h4v4h-4zM144 204h4v4h-4z"/><path fill="#FF50B3" d="M148 204h4v4h-4zM152 204h4v4h-4zM156 204h4v4h-4zM160 204h4v4h-4zM164 204h4v4h-4zM168 204h4v4h-4zM172 204h4v4h-4z"/><path fill="#FF2B73" d="M176 204h4v4h-4zM180 204h4v4h-4zM184 204h4v4h-4z"/><path fill="#FF50B3" d="M188 204h4v4h-4zM192 204h4v4h-4zM196 204h4v4h-4z"/><path fill="#FF2B73" d="M200 204h4v4h-4zM204 204h4v4h-4zM208 204h4v4h-4zM212 204h4v4h-4zM216 204h4v4h-4z"/><path fill="#FF6294" d="M220 204h4v4h-4zM224 204h4v4h-4zM228 204h4v4h-4zM232 204h4v4h-4z"/><path fill="#FF2B73" d="M80 208h4v4h-4zM84 208h4v4h-4zM88 208h4v4h-4zM92 208h4v4h-4zM96 208h4v4h-4zM100 208h4v4h-4zM104 208h4v4h-4z"/><path fill="#FF7A8F" d="M108 208h4v4h-4zM112 208h4v4h-4zM116 208h4v4h-4zM120 208h4v4h-4zM124 208h4v4h-4zM128 208h4v4h-4zM132 208h4v4h-4z"/><path fill="#FF2B73" d="M136 208h4v4h-4zM140 208h4v4h-4zM144 208h4v4h-4z"/><path fill="#FF50B3" d="M148 208h4v4h-4zM152 208h4v4h-4zM156 208h4v4h-4zM160 208h4v4h-4zM164 208h4v4h-4zM168 208h4v4h-4zM172 208h4v4h-4z"/><path fill="#FF2B73" d="M176 208h4v4h-4zM180 208h4v4h-4zM184 208h4v4h-4z"/><path fill="#FF50B3" d="M188 208h4v4h-4zM192 208h4v4h-4zM196 208h4v4h-4z"/><path fill="#FF2B73" d="M200 208h4v4h-4zM204 208h4v4h-4zM208 208h4v4h-4zM212 208h4v4h-4zM216 208h4v4h-4z"/><path fill="#FF6294" d="M220 208h4v4h-4zM224 208h4v4h-4zM228 208h4v4h-4zM232 208h4v4h-4z"/><path fill="#FF2B73" d="M84 212h4v4h-4zM88 212h4v4h-4zM92 212h4v4h-4zM96 212h4v4h-4zM100 212h4v4h-4zM104 212h4v4h-4z"/><path fill="#FF7A8F" d="M108 212h4v4h-4zM112 212h4v4h-4zM116 212h4v4h-4zM120 212h4v4h-4zM124 212h4v4h-4zM128 212h4v4h-4zM132 212h4v4h-4z"/><path fill="#FF2B73" d="M136 212h4v4h-4zM140 212h4v4h-4zM144 212h4v4h-4zM148 212h4v4h-4z"/><path fill="#FF50B3" d="M152 212h4v4h-4zM156 212h4v4h-4zM160 212h4v4h-4zM164 212h4v4h-4zM168 212h4v4h-4zM172 212h4v4h-4z"/><path fill="#FF2B73" d="M176 212h4v4h-4zM180 212h4v4h-4zM184 212h4v4h-4z"/><path fill="#FF50B3" d="M188 212h4v4h-4zM192 212h4v4h-4zM196 212h4v4h-4z"/><path fill="#FF2B73" d="M200 212h4v4h-4zM204 212h4v4h-4zM208 212h4v4h-4zM212 212h4v4h-4zM216 212h4v4h-4z"/><path fill="#FF6294" d="M220 212h4v4h-4zM224 212h4v4h-4zM228 212h4v4h-4zM232 212h4v4h-4z"/><path fill="#FF50B3" d="M236 212h4v4h-4z"/><path fill="#FF2B73" d="M88 216h4v4h-4zM92 216h4v4h-4zM96 216h4v4h-4zM100 216h4v4h-4zM104 216h4v4h-4zM108 216h4v4h-4z"/><path fill="#FF7A8F" d="M112 216h4v4h-4zM116 216h4v4h-4zM120 216h4v4h-4zM124 216h4v4h-4zM128 216h4v4h-4zM132 216h4v4h-4z"/><path fill="#FF2B73" d="M136 216h4v4h-4zM140 216h4v4h-4zM144 216h4v4h-4zM148 216h4v4h-4z"/><path fill="#FF50B3" d="M152 216h4v4h-4zM156 216h4v4h-4zM160 216h4v4h-4zM164 216h4v4h-4zM168 216h4v4h-4zM172 216h4v4h-4zM176 216h4v4h-4z"/><path fill="#FF2B73" d="M180 216h4v4h-4zM184 216h4v4h-4zM188 216h4v4h-4z"/><path fill="#FF50B3" d="M192 216h4v4h-4zM196 216h4v4h-4zM200 216h4v4h-4z"/><path fill="#FF2B73" d="M204 216h4v4h-4zM208 216h4v4h-4z"/><path fill="#FF7A8F" d="M212 216h4v4h-4z"/><path fill="#FF676C" d="M216 216h4v4h-4zM220 216h4v4h-4z"/><path fill="#FFB0AB" d="M224 216h4v4h-4zM228 216h4v4h-4zM232 216h4v4h-4zM236 216h4v4h-4zM240 216h4v4h-4zM244 216h4v4h-4z"/><path fill="#FF2B73" d="M88 220h4v4h-4zM92 220h4v4h-4zM96 220h4v4h-4zM100 220h4v4h-4zM104 220h4v4h-4zM108 220h4v4h-4z"/><path fill="#FF7A8F" d="M112 220h4v4h-4zM116 220h4v4h-4zM120 220h4v4h-4zM124 220h4v4h-4zM128 220h4v4h-4zM132 220h4v4h-4z"/><path fill="#FF676C" d="M136 220h4v4h-4z"/><path fill="#FF2B73" d="M140 220h4v4h-4zM144 220h4v4h-4zM148 220h4v4h-4z"/><path fill="#FF50B3" d="M152 220h4v4h-4zM156 220h4v4h-4zM160 220h4v4h-4zM164 220h4v4h-4zM168 220h4v4h-4zM172 220h4v4h-4zM176 220h4v4h-4z"/><path fill="#FF2B73" d="M180 220h4v4h-4zM184 220h4v4h-4zM188 220h4v4h-4z"/><path fill="#FF50B3" d="M192 220h4v4h-4zM196 220h4v4h-4z"/><path fill="#FF676C" d="M200 220h4v4h-4zM204 220h4v4h-4zM208 220h4v4h-4zM212 220h4v4h-4z"/><path fill="#FFB0AB" d="M216 220h4v4h-4zM220 220h4v4h-4zM224 220h4v4h-4zM228 220h4v4h-4zM232 220h4v4h-4zM236 220h4v4h-4zM240 220h4v4h-4z"/><path fill="#FF6294" d="M244 220h4v4h-4z"/><path fill="#FF2B73" d="M92 224h4v4h-4zM96 224h4v4h-4zM100 224h4v4h-4zM104 224h4v4h-4zM108 224h4v4h-4zM112 224h4v4h-4z"/><path fill="#FF7A8F" d="M116 224h4v4h-4zM120 224h4v4h-4zM124 224h4v4h-4zM128 224h4v4h-4zM132 224h4v4h-4z"/><path fill="#FF676C" d="M136 224h4v4h-4z"/><path fill="#FF2B73" d="M140 224h4v4h-4zM144 224h4v4h-4zM148 224h4v4h-4zM152 224h4v4h-4z"/><path fill="#FF50B3" d="M156 224h4v4h-4zM160 224h4v4h-4zM164 224h4v4h-4zM168 224h4v4h-4zM172 224h4v4h-4zM176 224h4v4h-4z"/><path fill="#FF2B73" d="M180 224h4v4h-4zM184 224h4v4h-4zM188 224h4v4h-4z"/><path fill="#FF50B3" d="M192 224h4v4h-4z"/><path fill="#FF2B73" d="M196 224h4v4h-4zM200 224h4v4h-4zM204 224h4v4h-4zM208 224h4v4h-4zM212 224h4v4h-4z"/><path fill="#FFB0AB" d="M216 224h4v4h-4zM220 224h4v4h-4zM224 224h4v4h-4zM228 224h4v4h-4zM232 224h4v4h-4z"/><path fill="#FF676C" d="M236 224h4v4h-4zM240 224h4v4h-4zM244 224h4v4h-4z"/><path fill="#FF50B3" d="M248 224h4v4h-4z"/><path fill="#FF2B73" d="M92 228h4v4h-4zM96 228h4v4h-4zM100 228h4v4h-4zM104 228h4v4h-4zM108 228h4v4h-4zM112 228h4v4h-4z"/><path fill="#FF7A8F" d="M116 228h4v4h-4zM120 228h4v4h-4zM124 228h4v4h-4zM128 228h4v4h-4zM132 228h4v4h-4z"/><path fill="#FF676C" d="M136 228h4v4h-4z"/><path fill="#FF2B73" d="M140 228h4v4h-4zM144 228h4v4h-4zM148 228h4v4h-4zM152 228h4v4h-4z"/><path fill="#FF50B3" d="M156 228h4v4h-4zM160 228h4v4h-4zM164 228h4v4h-4zM168 228h4v4h-4zM172 228h4v4h-4zM176 228h4v4h-4z"/><path fill="#FF2B73" d="M180 228h4v4h-4zM184 228h4v4h-4zM188 228h4v4h-4z"/><path fill="#FF50B3" d="M192 228h4v4h-4z"/><path fill="#FF2B73" d="M196 228h4v4h-4z"/><path fill="#FF3D93" d="M200 228h4v4h-4z"/><path fill="#FF439E" d="M204 228h4v4h-4z"/><path fill="#FF42A0" d="M208 228h4v4h-4z"/><path fill="#FF2B73" d="M212 228h4v4h-4z"/><path fill="#FF3E91" d="M216 228h4v4h-4z"/><path fill="#FF309A" d="M220 228h4v4h-4z"/><path fill="#FFB0AB" d="M224 228h4v4h-4zM228 228h4v4h-4z"/><path fill="#FF7A8F" d="M232 228h4v4h-4z"/><path fill="#FF676C" d="M236 228h4v4h-4zM240 228h4v4h-4zM244 228h4v4h-4z"/><path fill="#FF6294" d="M248 228h4v4h-4z"/><path fill="#FF2B73" d="M96 232h4v4h-4zM100 232h4v4h-4zM104 232h4v4h-4zM108 232h4v4h-4zM112 232h4v4h-4zM116 232h4v4h-4z"/><path fill="#FF7A8F" d="M120 232h4v4h-4zM124 232h4v4h-4zM128 232h4v4h-4zM132 232h4v4h-4z"/><path fill="#FF676C" d="M136 232h4v4h-4zM140 232h4v4h-4z"/><path fill="#FF2B73" d="M144 232h4v4h-4zM148 232h4v4h-4zM152 232h4v4h-4z"/><path fill="#FF50B3" d="M156 232h4v4h-4zM160 232h4v4h-4zM164 232h4v4h-4zM168 232h4v4h-4zM172 232h4v4h-4zM176 232h4v4h-4z"/><path fill="#FF2B73" d="M180 232h4v4h-4zM184 232h4v4h-4zM188 232h4v4h-4zM192 232h4v4h-4z"/><path fill="#FF7A8F" d="M196 232h4v4h-4zM200 232h4v4h-4zM204 232h4v4h-4zM208 232h4v4h-4zM212 232h4v4h-4zM216 232h4v4h-4zM220 232h4v4h-4zM224 232h4v4h-4zM228 232h4v4h-4zM232 232h4v4h-4z"/><path fill="#FF676C" d="M236 232h4v4h-4zM240 232h4v4h-4zM244 232h4v4h-4z"/><path fill="#FF2B73" d="M96 236h4v4h-4zM100 236h4v4h-4zM104 236h4v4h-4zM108 236h4v4h-4zM112 236h4v4h-4zM116 236h4v4h-4z"/><path fill="#FF7A8F" d="M120 236h4v4h-4zM124 236h4v4h-4zM128 236h4v4h-4zM132 236h4v4h-4z"/><path fill="#FF676C" d="M136 236h4v4h-4zM140 236h4v4h-4z"/><path fill="#FF2B73" d="M144 236h4v4h-4zM148 236h4v4h-4zM152 236h4v4h-4z"/><path fill="#FF50B3" d="M156 236h4v4h-4zM160 236h4v4h-4zM164 236h4v4h-4zM168 236h4v4h-4zM172 236h4v4h-4z"/><path fill="#FF91B6" d="M176 236h4v4h-4z"/><path fill="#FFB0AB" d="M180 236h4v4h-4zM184 236h4v4h-4zM188 236h4v4h-4zM192 236h4v4h-4zM196 236h4v4h-4z"/><path fill="#FF7A8F" d="M200 236h4v4h-4zM204 236h4v4h-4zM208 236h4v4h-4zM212 236h4v4h-4zM216 236h4v4h-4zM220 236h4v4h-4zM224 236h4v4h-4zM228 236h4v4h-4zM232 236h4v4h-4z"/><path fill="#FF676C" d="M236 236h4v4h-4zM240 236h4v4h-4zM244 236h4v4h-4z"/><path fill="#FF2B73" d="M100 240h4v4h-4zM104 240h4v4h-4zM108 240h4v4h-4z"/><path fill="#FF4E66" d="M112 240h4v4h-4z"/><path fill="#FFA565" d="M116 240h4v4h-4z"/><path fill="#FF676C" d="M120 240h4v4h-4z"/><path fill="#FF7A8F" d="M124 240h4v4h-4zM128 240h4v4h-4zM132 240h4v4h-4z"/><path fill="#FF676C" d="M136 240h4v4h-4zM140 240h4v4h-4zM144 240h4v4h-4z"/><path fill="#FF2B73" d="M148 240h4v4h-4zM152 240h4v4h-4zM156 240h4v4h-4z"/><path fill="#FF50B3" d="M160 240h4v4h-4zM164 240h4v4h-4zM168 240h4v4h-4z"/><path fill="#FF8BB3" d="M172 240h4v4h-4z"/><path fill="#FFB0AB" d="M176 240h4v4h-4zM180 240h4v4h-4zM184 240h4v4h-4zM188 240h4v4h-4zM192 240h4v4h-4zM196 240h4v4h-4zM200 240h4v4h-4z"/><path fill="#FF7A8F" d="M204 240h4v4h-4zM208 240h4v4h-4zM212 240h4v4h-4zM216 240h4v4h-4zM220 240h4v4h-4zM224 240h4v4h-4zM228 240h4v4h-4zM232 240h4v4h-4z"/><path fill="#FFB0AB" d="M236 240h4v4h-4z"/><path fill="#FF7A8F" d="M240 240h4v4h-4z"/><path fill="#FFA565" d="M100 244h4v4h-4zM104 244h4v4h-4zM108 244h4v4h-4zM112 244h4v4h-4z"/><path fill="#FF676C" d="M116 244h4v4h-4zM120 244h4v4h-4z"/><path fill="#FF7A8F" d="M124 244h4v4h-4zM128 244h4v4h-4zM132 244h4v4h-4z"/><path fill="#FF676C" d="M136 244h4v4h-4zM140 244h4v4h-4zM144 244h4v4h-4z"/><path fill="#FF7A8F" d="M148 244h4v4h-4z"/><path fill="#FF2B73" d="M152 244h4v4h-4zM156 244h4v4h-4z"/><path fill="#FF50B3" d="M160 244h4v4h-4z"/><path fill="#FFB0AB" d="M164 244h4v4h-4zM168 244h4v4h-4zM172 244h4v4h-4zM176 244h4v4h-4zM180 244h4v4h-4zM184 244h4v4h-4zM188 244h4v4h-4zM192 244h4v4h-4zM196 244h4v4h-4zM200 244h4v4h-4zM204 244h4v4h-4zM208 244h4v4h-4z"/><path fill="#FF7A8F" d="M212 244h4v4h-4zM216 244h4v4h-4zM220 244h4v4h-4zM224 244h4v4h-4zM228 244h4v4h-4z"/><path fill="#FF5080" d="M232 244h4v4h-4z"/><path fill="#F44A99" d="M236 244h4v4h-4z"/><path fill="#FFA565" d="M96 248h4v4h-4zM100 248h4v4h-4zM104 248h4v4h-4zM108 248h4v4h-4zM112 248h4v4h-4z"/><path fill="#FF676C" d="M116 248h4v4h-4zM120 248h4v4h-4z"/><path fill="#FF7A8F" d="M124 248h4v4h-4zM128 248h4v4h-4zM132 248h4v4h-4z"/><path fill="#FF676C" d="M136 248h4v4h-4z"/><path fill="#FF7A8F" d="M140 248h4v4h-4zM144 248h4v4h-4zM148 248h4v4h-4zM152 248h4v4h-4zM156 248h4v4h-4z"/><path fill="#FFB0AB" d="M160 248h4v4h-4zM164 248h4v4h-4zM168 248h4v4h-4zM172 248h4v4h-4zM176 248h4v4h-4zM180 248h4v4h-4zM184 248h4v4h-4zM188 248h4v4h-4zM192 248h4v4h-4zM196 248h4v4h-4zM200 248h4v4h-4zM204 248h4v4h-4zM208 248h4v4h-4zM212 248h4v4h-4z"/><path fill="#FF7A8F" d="M216 248h4v4h-4z"/><path fill="#FF3479" d="M220 248h4v4h-4z"/><path fill="#FF3477" d="M224 248h4v4h-4z"/><path fill="#FF3575" d="M228 248h4v4h-4z"/><path fill="#F44A98" d="M232 248h4v4h-4z"/><path fill="#FFA565" d="M96 252h4v4h-4zM100 252h4v4h-4zM104 252h4v4h-4zM108 252h4v4h-4z"/><path fill="#FF676C" d="M112 252h4v4h-4zM116 252h4v4h-4zM120 252h4v4h-4z"/><path fill="#FF7A8F" d="M124 252h4v4h-4zM128 252h4v4h-4zM132 252h4v4h-4zM136 252h4v4h-4zM140 252h4v4h-4zM144 252h4v4h-4zM148 252h4v4h-4zM152 252h4v4h-4zM156 252h4v4h-4zM160 252h4v4h-4z"/><path fill="#FFB0AB" d="M164 252h4v4h-4zM168 252h4v4h-4zM172 252h4v4h-4zM176 252h4v4h-4zM180 252h4v4h-4zM184 252h4v4h-4zM188 252h4v4h-4zM192 252h4v4h-4zM196 252h4v4h-4zM200 252h4v4h-4z"/><path fill="#FF7A8F" d="M204 252h4v4h-4zM208 252h4v4h-4zM212 252h4v4h-4z"/><path fill="#FF3275" d="M216 252h4v4h-4z"/><path fill="#FF3479" d="M220 252h4v4h-4z"/><path fill="#FF3477" d="M224 252h4v4h-4z"/><path fill="#F94F9D" d="M228 252h4v4h-4z"/><path fill="#FFA565" d="M92 256h4v4h-4zM96 256h4v4h-4zM100 256h4v4h-4zM104 256h4v4h-4z"/><path fill="#FF676C" d="M108 256h4v4h-4zM112 256h4v4h-4zM116 256h4v4h-4zM120 256h4v4h-4zM124 256h4v4h-4z"/><path fill="#FF7A8F" d="M128 256h4v4h-4z"/><path fill="#FF6294" d="M132 256h4v4h-4zM136 256h4v4h-4z"/><path fill="#FF7A8F" d="M140 256h4v4h-4zM144 256h4v4h-4zM148 256h4v4h-4zM152 256h4v4h-4zM156 256h4v4h-4zM160 256h4v4h-4zM164 256h4v4h-4z"/><path fill="#FFB0AB" d="M168 256h4v4h-4zM172 256h4v4h-4zM176 256h4v4h-4zM180 256h4v4h-4zM184 256h4v4h-4z"/><path fill="#FF7A8F" d="M188 256h4v4h-4zM192 256h4v4h-4zM196 256h4v4h-4zM200 256h4v4h-4z"/><path fill="#FF6E71" d="M204 256h4v4h-4z"/><path fill="#FF7671" d="M208 256h4v4h-4z"/><path fill="#FF3276" d="M212 256h4v4h-4z"/><path fill="#FF3275" d="M216 256h4v4h-4zM220 256h4v4h-4z"/><path fill="#F44A96" d="M224 256h4v4h-4z"/><path fill="#FFA565" d="M88 260h4v4h-4zM92 260h4v4h-4zM96 260h4v4h-4zM100 260h4v4h-4zM104 260h4v4h-4z"/><path fill="#FF676C" d="M108 260h4v4h-4zM112 260h4v4h-4zM116 260h4v4h-4zM120 260h4v4h-4z"/><path fill="#FF7A8F" d="M124 260h4v4h-4z"/><path fill="#FF6294" d="M128 260h4v4h-4zM132 260h4v4h-4z"/><path fill="#FF7A8F" d="M136 260h4v4h-4zM140 260h4v4h-4zM144 260h4v4h-4zM148 260h4v4h-4zM152 260h4v4h-4zM156 260h4v4h-4zM160 260h4v4h-4zM164 260h4v4h-4zM168 260h4v4h-4z"/><path fill="#FFB0AB" d="M172 260h4v4h-4z"/><path fill="#FF7A8F" d="M176 260h4v4h-4zM180 260h4v4h-4zM184 260h4v4h-4zM188 260h4v4h-4zM192 260h4v4h-4zM196 260h4v4h-4z"/><path fill="#FF6C6F" d="M200 260h4v4h-4z"/><path fill="#FF6E71" d="M204 260h4v4h-4z"/><path fill="#FF7A8F" d="M208 260h4v4h-4z"/><path fill="#FF3879" d="M212 260h4v4h-4z"/><path fill="#FF4097" d="M216 260h4v4h-4z"/><path fill="#FF7A8F" d="M220 260h4v4h-4z"/><path fill="#FFA565" d="M84 264h4v4h-4zM88 264h4v4h-4zM92 264h4v4h-4zM96 264h4v4h-4z"/><path fill="#FF7A8F" d="M100 264h4v4h-4zM104 264h4v4h-4z"/><path fill="#FF676C" d="M108 264h4v4h-4zM112 264h4v4h-4zM116 264h4v4h-4zM120 264h4v4h-4zM124 264h4v4h-4z"/><path fill="#FF6294" d="M128 264h4v4h-4zM132 264h4v4h-4zM136 264h4v4h-4z"/><path fill="#FF7A8F" d="M140 264h4v4h-4zM144 264h4v4h-4zM148 264h4v4h-4zM152 264h4v4h-4zM156 264h4v4h-4zM160 264h4v4h-4zM164 264h4v4h-4zM168 264h4v4h-4z"/><path fill="#FFB0AB" d="M172 264h4v4h-4z"/><path fill="#FF7A8F" d="M176 264h4v4h-4z"/><path fill="#FFB0AB" d="M180 264h4v4h-4z"/><path fill="#FF7A8F" d="M184 264h4v4h-4zM188 264h4v4h-4z"/><path fill="#FF6C6E" d="M192 264h4v4h-4z"/><path fill="#FF6F72" d="M196 264h4v4h-4z"/><path fill="#FF7A8F" d="M200 264h4v4h-4zM204 264h4v4h-4z"/><path fill="#FF4097" d="M208 264h4v4h-4z"/><path fill="#FF2B73" d="M212 264h4v4h-4zM216 264h4v4h-4z"/><path fill="#FF299B" d="M88 268h4v4h-4z"/><path fill="#FF4397" d="M92 268h4v4h-4zM96 268h4v4h-4z"/><path fill="#FF7A8F" d="M100 268h4v4h-4zM104 268h4v4h-4z"/><path fill="#FF676C" d="M108 268h4v4h-4zM112 268h4v4h-4zM116 268h4v4h-4zM120 268h4v4h-4z"/><path fill="#FF8D66" d="M124 268h4v4h-4z"/><path fill="#FF6294" d="M128 268h4v4h-4zM132 268h4v4h-4z"/><path fill="#FF7A8F" d="M136 268h4v4h-4zM140 268h4v4h-4zM144 268h4v4h-4zM148 268h4v4h-4zM152 268h4v4h-4zM156 268h4v4h-4zM160 268h4v4h-4zM164 268h4v4h-4zM168 268h4v4h-4zM172 268h4v4h-4z"/><path fill="#FFB0AB" d="M176 268h4v4h-4z"/><path fill="#FF7A8F" d="M180 268h4v4h-4zM184 268h4v4h-4zM188 268h4v4h-4zM192 268h4v4h-4z"/><path fill="#FF676C" d="M196 268h4v4h-4zM200 268h4v4h-4z"/><path fill="#FF2B73" d="M204 268h4v4h-4zM208 268h4v4h-4z"/><path fill="#FF3389" d="M212 268h4v4h-4z"/><path fill="#FF2694" d="M100 272h4v4h-4z"/><path fill="#FF4097" d="M104 272h4v4h-4z"/><path fill="#FF7A8F" d="M108 272h4v4h-4z"/><path fill="#FF676C" d="M112 272h4v4h-4z"/><path fill="#FFA565" d="M116 272h4v4h-4zM120 272h4v4h-4z"/><path fill="#FFB0AB" d="M124 272h4v4h-4z"/><path fill="#FF8DB2" d="M128 272h4v4h-4z"/><path fill="#FF7A8F" d="M132 272h4v4h-4z"/><path fill="#FF4097" d="M136 272h4v4h-4z"/><path fill="#FF7A8F" d="M140 272h4v4h-4zM144 272h4v4h-4zM148 272h4v4h-4zM152 272h4v4h-4zM156 272h4v4h-4zM160 272h4v4h-4zM164 272h4v4h-4zM168 272h4v4h-4zM172 272h4v4h-4zM176 272h4v4h-4zM180 272h4v4h-4z"/><path fill="#FF676C" d="M184 272h4v4h-4zM188 272h4v4h-4zM192 272h4v4h-4zM196 272h4v4h-4z"/><path fill="#FF2B73" d="M200 272h4v4h-4zM204 272h4v4h-4zM208 272h4v4h-4z"/><path fill="#FFA565" d="M112 276h4v4h-4zM116 276h4v4h-4zM120 276h4v4h-4z"/><path fill="#FF7A8F" d="M124 276h4v4h-4z"/><path fill="#FF87AC" d="M128 276h4v4h-4z"/><path fill="#FF8FB4" d="M132 276h4v4h-4z"/><path fill="#FF7A8F" d="M136 276h4v4h-4zM140 276h4v4h-4zM144 276h4v4h-4zM148 276h4v4h-4zM152 276h4v4h-4z"/><path fill="#F84994" d="M156 276h4v4h-4z"/><path fill="#FF4097" d="M160 276h4v4h-4zM164 276h4v4h-4zM168 276h4v4h-4z"/><path fill="#FF4198" d="M172 276h4v4h-4z"/><path fill="#FF4393" d="M176 276h4v4h-4z"/><path fill="#FF676C" d="M180 276h4v4h-4zM184 276h4v4h-4zM188 276h4v4h-4zM192 276h4v4h-4zM196 276h4v4h-4z"/><path fill="#FF2B73" d="M200 276h4v4h-4zM204 276h4v4h-4z"/><path fill="#FFA565" d="M120 280h4v4h-4z"/><path fill="#FF7A8F" d="M124 280h4v4h-4z"/><path fill="#FF6294" d="M128 280h4v4h-4z"/><path fill="#F1338D" d="M140 280h4v4h-4z"/><path fill="#F6469B" d="M144 280h4v4h-4z"/><path fill="#FF4097" d="M148 280h4v4h-4zM152 280h4v4h-4zM156 280h4v4h-4z"/><path fill="#FF4096" d="M160 280h4v4h-4z"/><path fill="#FF4097" d="M164 280h4v4h-4zM168 280h4v4h-4zM172 280h4v4h-4z"/><path fill="#FF3E99" d="M176 280h4v4h-4z"/><path fill="#FF676C" d="M180 280h4v4h-4zM184 280h4v4h-4zM188 280h4v4h-4zM192 280h4v4h-4z"/><path fill="#FF2B73" d="M196 280h4v4h-4z"/><path fill="#FF2D8E" d="M152 284h4v4h-4z"/><path fill="#FF469A" d="M156 284h4v4h-4z"/><path fill="#FF4097" d="M160 284h4v4h-4zM164 284h4v4h-4zM168 284h4v4h-4z"/><path fill="#FF4098" d="M172 284h4v4h-4z"/><path fill="#FF3F95" d="M176 284h4v4h-4z"/><path fill="#FF7A8F" d="M180 284h4v4h-4z"/><path fill="#FF676C" d="M184 284h4v4h-4zM188 284h4v4h-4z"/><path fill="#FF2B73" d="M192 284h4v4h-4zM196 284h4v4h-4z"/><path fill="#FF3492" d="M164 288h4v4h-4z"/><path fill="#FF4599" d="M168 288h4v4h-4z"/><path fill="#FF4097" d="M172 288h4v4h-4z"/><path fill="#FF4096" d="M176 288h4v4h-4z"/><path fill="#FF7A8F" d="M180 288h4v4h-4z"/><path fill="#FF676C" d="M184 288h4v4h-4zM188 288h4v4h-4z"/><path fill="#FF2E98" d="M176 292h4v4h-4z"/><path fill="#FF3FA5" d="M180 292h4v4h-4z"/><path fill="#FF676C" d="M184 292h4v4h-4z"/></svg>