<svg width="384" height="384" xmlns="http://www.w3.org/2000/svg" shape-rendering="crispEdges"><path fill="#338C96" d="M180 80h4v4h-4zM184 80h4v4h-4zM188 80h4v4h-4zM192 80h4v4h-4zM196 80h4v4h-4zM144 84h4v4h-4zM148 84h4v4h-4zM152 84h4v4h-4zM156 84h4v4h-4zM160 84h4v4h-4zM164 84h4v4h-4zM168 84h4v4h-4zM172 84h4v4h-4zM176 84h4v4h-4z"/><path fill="#66AFD1" d="M180 84h4v4h-4zM184 84h4v4h-4zM188 84h4v4h-4zM192 84h4v4h-4zM196 84h4v4h-4z"/><path fill="#338C96" d="M200 84h4v4h-4zM108 88h4v4h-4zM112 88h4v4h-4zM116 88h4v4h-4zM120 88h4v4h-4zM124 88h4v4h-4zM128 88h4v4h-4zM132 88h4v4h-4zM136 88h4v4h-4zM140 88h4v4h-4z"/><path fill="#66AFD1" d="M144 88h4v4h-4zM148 88h4v4h-4zM152 88h4v4h-4z"/><path fill="#ABF0F1" d="M156 88h4v4h-4zM160 88h4v4h-4zM164 88h4v4h-4z"/><path fill="#66AFD1" d="M168 88h4v4h-4zM172 88h4v4h-4zM176 88h4v4h-4zM180 88h4v4h-4zM184 88h4v4h-4zM188 88h4v4h-4zM192 88h4v4h-4zM196 88h4v4h-4zM200 88h4v4h-4z"/><path fill="#338C96" d="M204 88h4v4h-4zM220 88h4v4h-4zM224 88h4v4h-4zM228 88h4v4h-4zM232 88h4v4h-4zM236 88h4v4h-4zM72 92h4v4h-4zM76 92h4v4h-4zM80 92h4v4h-4zM84 92h4v4h-4zM88 92h4v4h-4zM92 92h4v4h-4zM96 92h4v4h-4zM100 92h4v4h-4zM104 92h4v4h-4z"/><path fill="#66AFD1" d="M108 92h4v4h-4zM112 92h4v4h-4zM116 92h4v4h-4zM120 92h4v4h-4zM124 92h4v4h-4zM128 92h4v4h-4zM132 92h4v4h-4zM136 92h4v4h-4zM140 92h4v4h-4zM144 92h4v4h-4zM148 92h4v4h-4zM152 92h4v4h-4zM156 92h4v4h-4zM160 92h4v4h-4z"/><path fill="#ABF0F1" d="M164 92h4v4h-4zM168 92h4v4h-4z"/><path fill="#66AFD1" d="M172 92h4v4h-4zM176 92h4v4h-4zM180 92h4v4h-4zM184 92h4v4h-4zM188 92h4v4h-4zM192 92h4v4h-4zM196 92h4v4h-4zM200 92h4v4h-4zM204 92h4v4h-4z"/><path fill="#338C96" d="M208 92h4v4h-4zM212 92h4v4h-4zM216 92h4v4h-4z"/><path fill="#66AFD1" d="M220 92h4v4h-4zM224 92h4v4h-4zM228 92h4v4h-4zM232 92h4v4h-4zM236 92h4v4h-4z"/><path fill="#338C96" d="M240 92h4v4h-4zM68 96h4v4h-4z"/><path fill="#66AFD1" d="M72 96h4v4h-4zM76 96h4v4h-4zM80 96h4v4h-4zM84 96h4v4h-4zM88 96h4v4h-4zM92 96h4v4h-4zM96 96h4v4h-4z"/><path fill="#ABF0F1" d="M100 96h4v4h-4zM104 96h4v4h-4z"/><path fill="#66AFD1" d="M108 96h4v4h-4zM112 96h4v4h-4zM116 96h4v4h-4zM120 96h4v4h-4zM124 96h4v4h-4zM128 96h4v4h-4zM132 96h4v4h-4zM136 96h4v4h-4zM140 96h4v4h-4zM144 96h4v4h-4zM148 96h4v4h-4zM152 96h4v4h-4zM156 96h4v4h-4zM160 96h4v4h-4zM164 96h4v4h-4z"/><path fill="#ABF0F1" d="M168 96h4v4h-4zM172 96h4v4h-4z"/><path fill="#66AFD1" d="M176 96h4v4h-4zM180 96h4v4h-4zM184 96h4v4h-4zM188 96h4v4h-4zM192 96h4v4h-4zM196 96h4v4h-4zM200 96h4v4h-4zM204 96h4v4h-4zM208 96h4v4h-4zM212 96h4v4h-4zM216 96h4v4h-4zM220 96h4v4h-4zM224 96h4v4h-4zM228 96h4v4h-4zM232 96h4v4h-4zM236 96h4v4h-4zM240 96h4v4h-4z"/><path fill="#338C96" d="M244 96h4v4h-4zM68 100h4v4h-4z"/><path fill="#66AFD1" d="M72 100h4v4h-4zM76 100h4v4h-4zM80 100h4v4h-4zM84 100h4v4h-4zM88 100h4v4h-4zM92 100h4v4h-4zM96 100h4v4h-4zM100 100h4v4h-4z"/><path fill="#ABF0F1" d="M104 100h4v4h-4zM108 100h4v4h-4z"/><path fill="#66AFD1" d="M112 100h4v4h-4zM116 100h4v4h-4zM120 100h4v4h-4zM124 100h4v4h-4zM128 100h4v4h-4zM132 100h4v4h-4zM136 100h4v4h-4zM140 100h4v4h-4zM144 100h4v4h-4zM148 100h4v4h-4zM152 100h4v4h-4zM156 100h4v4h-4zM160 100h4v4h-4zM164 100h4v4h-4zM168 100h4v4h-4zM172 100h4v4h-4zM176 100h4v4h-4zM180 100h4v4h-4zM184 100h4v4h-4zM188 100h4v4h-4zM192 100h4v4h-4zM196 100h4v4h-4zM200 100h4v4h-4z"/><path fill="#ABF0F1" d="M204 100h4v4h-4zM208 100h4v4h-4z"/><path fill="#66AFD1" d="M212 100h4v4h-4zM216 100h4v4h-4zM220 100h4v4h-4zM224 100h4v4h-4zM228 100h4v4h-4zM232 100h4v4h-4zM236 100h4v4h-4zM240 100h4v4h-4zM244 100h4v4h-4z"/><path fill="#338C96" d="M248 100h4v4h-4zM68 104h4v4h-4z"/><path fill="#66AFD1" d="M72 104h4v4h-4zM76 104h4v4h-4zM80 104h4v4h-4zM84 104h4v4h-4zM88 104h4v4h-4zM92 104h4v4h-4zM96 104h4v4h-4zM100 104h4v4h-4zM104 104h4v4h-4z"/><path fill="#ABF0F1" d="M108 104h4v4h-4z"/><path fill="#66AFD1" d="M112 104h4v4h-4zM116 104h4v4h-4zM120 104h4v4h-4zM124 104h4v4h-4zM128 104h4v4h-4zM132 104h4v4h-4zM136 104h4v4h-4z"/><path fill="#ABF0F1" d="M140 104h4v4h-4zM144 104h4v4h-4z"/><path fill="#66AFD1" d="M148 104h4v4h-4zM152 104h4v4h-4zM156 104h4v4h-4zM160 104h4v4h-4zM164 104h4v4h-4zM168 104h4v4h-4zM172 104h4v4h-4zM176 104h4v4h-4zM180 104h4v4h-4zM184 104h4v4h-4zM188 104h4v4h-4zM192 104h4v4h-4zM196 104h4v4h-4zM200 104h4v4h-4zM204 104h4v4h-4z"/><path fill="#ABF0F1" d="M208 104h4v4h-4zM212 104h4v4h-4z"/><path fill="#66AFD1" d="M216 104h4v4h-4zM220 104h4v4h-4zM224 104h4v4h-4zM228 104h4v4h-4zM232 104h4v4h-4zM236 104h4v4h-4zM240 104h4v4h-4zM244 104h4v4h-4zM248 104h4v4h-4z"/><path fill="#338C96" d="M252 104h4v4h-4zM68 108h4v4h-4z"/><path fill="#66AFD1" d="M72 108h4v4h-4zM76 108h4v4h-4zM80 108h4v4h-4zM84 108h4v4h-4z"/><path fill="#476B7B" d="M88 108h4v4h-4z"/><path fill="#66AFD1" d="M92 108h4v4h-4zM96 108h4v4h-4zM100 108h4v4h-4zM104 108h4v4h-4zM108 108h4v4h-4zM112 108h4v4h-4zM116 108h4v4h-4zM120 108h4v4h-4zM124 108h4v4h-4zM128 108h4v4h-4zM132 108h4v4h-4zM136 108h4v4h-4zM140 108h4v4h-4z"/><path fill="#ABF0F1" d="M144 108h4v4h-4zM148 108h4v4h-4z"/><path fill="#66AFD1" d="M152 108h4v4h-4zM156 108h4v4h-4zM160 108h4v4h-4zM164 108h4v4h-4zM168 108h4v4h-4zM172 108h4v4h-4zM176 108h4v4h-4zM180 108h4v4h-4zM184 108h4v4h-4zM188 108h4v4h-4zM192 108h4v4h-4zM196 108h4v4h-4zM200 108h4v4h-4zM204 108h4v4h-4zM208 108h4v4h-4z"/><path fill="#ABF0F1" d="M212 108h4v4h-4zM216 108h4v4h-4z"/><path fill="#66AFD1" d="M220 108h4v4h-4zM224 108h4v4h-4zM228 108h4v4h-4zM232 108h4v4h-4zM236 108h4v4h-4zM240 108h4v4h-4zM244 108h4v4h-4zM248 108h4v4h-4zM252 108h4v4h-4z"/><path fill="#338C96" d="M256 108h4v4h-4zM260 108h4v4h-4zM68 112h4v4h-4z"/><path fill="#66AFD1" d="M72 112h4v4h-4zM76 112h4v4h-4zM80 112h4v4h-4zM84 112h4v4h-4z"/><path fill="#476B7B" d="M88 112h4v4h-4zM92 112h4v4h-4z"/><path fill="#66AFD1" d="M96 112h4v4h-4zM100 112h4v4h-4zM104 112h4v4h-4zM108 112h4v4h-4zM112 112h4v4h-4zM116 112h4v4h-4zM120 112h4v4h-4zM124 112h4v4h-4zM128 112h4v4h-4zM132 112h4v4h-4zM136 112h4v4h-4zM140 112h4v4h-4zM144 112h4v4h-4z"/><path fill="#ABF0F1" d="M148 112h4v4h-4zM152 112h4v4h-4z"/><path fill="#66AFD1" d="M156 112h4v4h-4zM160 112h4v4h-4zM164 112h4v4h-4zM168 112h4v4h-4zM172 112h4v4h-4zM176 112h4v4h-4zM180 112h4v4h-4zM184 112h4v4h-4zM188 112h4v4h-4zM192 112h4v4h-4zM196 112h4v4h-4zM200 112h4v4h-4zM204 112h4v4h-4zM208 112h4v4h-4zM212 112h4v4h-4z"/><path fill="#ABF0F1" d="M216 112h4v4h-4zM220 112h4v4h-4z"/><path fill="#66AFD1" d="M224 112h4v4h-4zM228 112h4v4h-4zM232 112h4v4h-4zM236 112h4v4h-4zM240 112h4v4h-4zM244 112h4v4h-4zM248 112h4v4h-4zM252 112h4v4h-4z"/><path fill="#4C99BD" d="M256 112h4v4h-4zM260 112h4v4h-4z"/><path fill="#338C96" d="M264 112h4v4h-4zM68 116h4v4h-4z"/><path fill="#66AFD1" d="M72 116h4v4h-4zM76 116h4v4h-4zM80 116h4v4h-4zM84 116h4v4h-4z"/><path fill="#476B7B" d="M88 116h4v4h-4zM92 116h4v4h-4zM96 116h4v4h-4z"/><path fill="#66AFD1" d="M100 116h4v4h-4zM104 116h4v4h-4zM108 116h4v4h-4zM112 116h4v4h-4zM116 116h4v4h-4zM120 116h4v4h-4zM124 116h4v4h-4zM128 116h4v4h-4zM132 116h4v4h-4zM136 116h4v4h-4zM140 116h4v4h-4zM144 116h4v4h-4zM148 116h4v4h-4z"/><path fill="#ABF0F1" d="M152 116h4v4h-4zM156 116h4v4h-4z"/><path fill="#66AFD1" d="M160 116h4v4h-4zM164 116h4v4h-4zM168 116h4v4h-4zM172 116h4v4h-4zM176 116h4v4h-4zM180 116h4v4h-4zM184 116h4v4h-4zM188 116h4v4h-4zM192 116h4v4h-4zM196 116h4v4h-4zM200 116h4v4h-4zM204 116h4v4h-4zM208 116h4v4h-4zM212 116h4v4h-4zM216 116h4v4h-4z"/><path fill="#ABF0F1" d="M220 116h4v4h-4zM224 116h4v4h-4z"/><path fill="#66AFD1" d="M228 116h4v4h-4zM232 116h4v4h-4zM236 116h4v4h-4z"/><path fill="#4C99BD" d="M240 116h4v4h-4zM244 116h4v4h-4zM248 116h4v4h-4zM252 116h4v4h-4z"/><path fill="#66AFD1" d="M256 116h4v4h-4zM260 116h4v4h-4zM264 116h4v4h-4z"/><path fill="#338C96" d="M268 116h4v4h-4zM68 120h4v4h-4z"/><path fill="#476B7B" d="M72 120h4v4h-4z"/><path fill="#66AFD1" d="M76 120h4v4h-4zM80 120h4v4h-4zM84 120h4v4h-4z"/><path fill="#476B7B" d="M88 120h4v4h-4zM92 120h4v4h-4zM96 120h4v4h-4zM100 120h4v4h-4z"/><path fill="#66AFD1" d="M104 120h4v4h-4zM108 120h4v4h-4zM112 120h4v4h-4zM116 120h4v4h-4zM120 120h4v4h-4zM124 120h4v4h-4zM128 120h4v4h-4zM132 120h4v4h-4zM136 120h4v4h-4zM140 120h4v4h-4zM144 120h4v4h-4zM148 120h4v4h-4zM152 120h4v4h-4z"/><path fill="#ABF0F1" d="M156 120h4v4h-4zM160 120h4v4h-4z"/><path fill="#66AFD1" d="M164 120h4v4h-4zM168 120h4v4h-4zM172 120h4v4h-4zM176 120h4v4h-4zM180 120h4v4h-4zM184 120h4v4h-4zM188 120h4v4h-4zM192 120h4v4h-4zM196 120h4v4h-4zM200 120h4v4h-4zM204 120h4v4h-4zM208 120h4v4h-4zM212 120h4v4h-4zM216 120h4v4h-4zM220 120h4v4h-4z"/><path fill="#ABF0F1" d="M224 120h4v4h-4zM228 120h4v4h-4z"/><path fill="#4C99BD" d="M232 120h4v4h-4zM236 120h4v4h-4z"/><path fill="#66AFD1" d="M240 120h4v4h-4zM244 120h4v4h-4zM248 120h4v4h-4zM252 120h4v4h-4zM256 120h4v4h-4zM260 120h4v4h-4zM264 120h4v4h-4zM268 120h4v4h-4z"/><path fill="#338C96" d="M272 120h4v4h-4zM68 124h4v4h-4z"/><path fill="#476B7B" d="M72 124h4v4h-4zM76 124h4v4h-4z"/><path fill="#66AFD1" d="M80 124h4v4h-4zM84 124h4v4h-4z"/><path fill="#476B7B" d="M88 124h4v4h-4zM92 124h4v4h-4zM96 124h4v4h-4zM100 124h4v4h-4zM104 124h4v4h-4z"/><path fill="#66AFD1" d="M108 124h4v4h-4zM112 124h4v4h-4zM116 124h4v4h-4zM120 124h4v4h-4zM124 124h4v4h-4zM128 124h4v4h-4zM132 124h4v4h-4zM136 124h4v4h-4zM140 124h4v4h-4zM144 124h4v4h-4zM148 124h4v4h-4zM152 124h4v4h-4zM156 124h4v4h-4z"/><path fill="#ABF0F1" d="M160 124h4v4h-4zM164 124h4v4h-4z"/><path fill="#66AFD1" d="M168 124h4v4h-4zM172 124h4v4h-4zM176 124h4v4h-4zM180 124h4v4h-4zM184 124h4v4h-4zM188 124h4v4h-4zM192 124h4v4h-4zM196 124h4v4h-4zM200 124h4v4h-4zM204 124h4v4h-4zM208 124h4v4h-4zM212 124h4v4h-4zM216 124h4v4h-4zM220 124h4v4h-4zM224 124h4v4h-4zM228 124h4v4h-4zM232 124h4v4h-4zM236 124h4v4h-4zM240 124h4v4h-4zM244 124h4v4h-4zM248 124h4v4h-4zM252 124h4v4h-4zM256 124h4v4h-4zM260 124h4v4h-4zM264 124h4v4h-4zM268 124h4v4h-4zM272 124h4v4h-4z"/><path fill="#338C96" d="M276 124h4v4h-4zM68 128h4v4h-4z"/><path fill="#476B7B" d="M72 128h4v4h-4zM76 128h4v4h-4zM80 128h4v4h-4z"/><path fill="#66AFD1" d="M84 128h4v4h-4z"/><path fill="#476B7B" d="M88 128h4v4h-4zM92 128h4v4h-4z"/><path fill="#EAA5CB" d="M96 128h4v4h-4z"/><path fill="#476B7B" d="M100 128h4v4h-4zM104 128h4v4h-4zM108 128h4v4h-4zM112 128h4v4h-4z"/><path fill="#4C99BD" d="M116 128h4v4h-4zM120 128h4v4h-4zM124 128h4v4h-4zM128 128h4v4h-4zM132 128h4v4h-4zM136 128h4v4h-4zM140 128h4v4h-4zM144 128h4v4h-4zM148 128h4v4h-4zM152 128h4v4h-4zM156 128h4v4h-4zM160 128h4v4h-4z"/><path fill="#ABF0F1" d="M164 128h4v4h-4zM168 128h4v4h-4z"/><path fill="#66AFD1" d="M172 128h4v4h-4zM176 128h4v4h-4zM180 128h4v4h-4zM184 128h4v4h-4zM188 128h4v4h-4zM192 128h4v4h-4zM196 128h4v4h-4zM200 128h4v4h-4zM204 128h4v4h-4zM208 128h4v4h-4zM212 128h4v4h-4zM216 128h4v4h-4zM220 128h4v4h-4zM224 128h4v4h-4zM228 128h4v4h-4z"/><path fill="#ABF0F1" d="M232 128h4v4h-4zM236 128h4v4h-4z"/><path fill="#66AFD1" d="M240 128h4v4h-4zM244 128h4v4h-4zM248 128h4v4h-4zM252 128h4v4h-4zM256 128h4v4h-4zM260 128h4v4h-4zM264 128h4v4h-4zM268 128h4v4h-4zM272 128h4v4h-4zM276 128h4v4h-4z"/><path fill="#338C96" d="M280 128h4v4h-4zM68 132h4v4h-4z"/><path fill="#476B7B" d="M72 132h4v4h-4zM76 132h4v4h-4zM80 132h4v4h-4zM84 132h4v4h-4zM88 132h4v4h-4zM92 132h4v4h-4z"/><path fill="#EAA5CB" d="M96 132h4v4h-4zM100 132h4v4h-4z"/><path fill="#476B7B" d="M104 132h4v4h-4zM108 132h4v4h-4zM112 132h4v4h-4zM116 132h4v4h-4z"/><path fill="#66AFD1" d="M120 132h4v4h-4zM124 132h4v4h-4zM128 132h4v4h-4zM132 132h4v4h-4zM136 132h4v4h-4zM140 132h4v4h-4zM144 132h4v4h-4zM148 132h4v4h-4zM152 132h4v4h-4zM156 132h4v4h-4zM160 132h4v4h-4zM164 132h4v4h-4zM168 132h4v4h-4zM172 132h4v4h-4zM176 132h4v4h-4zM180 132h4v4h-4zM184 132h4v4h-4zM188 132h4v4h-4zM192 132h4v4h-4zM196 132h4v4h-4zM200 132h4v4h-4zM204 132h4v4h-4zM208 132h4v4h-4zM212 132h4v4h-4zM216 132h4v4h-4zM220 132h4v4h-4zM224 132h4v4h-4zM228 132h4v4h-4zM232 132h4v4h-4z"/><path fill="#ABF0F1" d="M236 132h4v4h-4zM240 132h4v4h-4z"/><path fill="#66AFD1" d="M244 132h4v4h-4zM248 132h4v4h-4zM252 132h4v4h-4zM256 132h4v4h-4zM260 132h4v4h-4z"/><path fill="#5D7F8F" d="M264 132h4v4h-4zM268 132h4v4h-4zM272 132h4v4h-4zM276 132h4v4h-4z"/><path fill="#66AFD1" d="M280 132h4v4h-4z"/><path fill="#338C96" d="M284 132h4v4h-4zM68 136h4v4h-4z"/><path fill="#476B7B" d="M72 136h4v4h-4zM76 136h4v4h-4zM80 136h4v4h-4zM84 136h4v4h-4zM88 136h4v4h-4zM92 136h4v4h-4zM96 136h4v4h-4z"/><path fill="#EAA5CB" d="M100 136h4v4h-4z"/><path fill="#476B7B" d="M104 136h4v4h-4zM108 136h4v4h-4zM112 136h4v4h-4zM116 136h4v4h-4zM120 136h4v4h-4z"/><path fill="#66AFD1" d="M124 136h4v4h-4zM128 136h4v4h-4zM132 136h4v4h-4zM136 136h4v4h-4zM140 136h4v4h-4zM144 136h4v4h-4zM148 136h4v4h-4zM152 136h4v4h-4zM156 136h4v4h-4zM160 136h4v4h-4zM164 136h4v4h-4zM168 136h4v4h-4z"/><path fill="#ABF0F1" d="M172 136h4v4h-4zM176 136h4v4h-4z"/><path fill="#66AFD1" d="M180 136h4v4h-4zM184 136h4v4h-4zM188 136h4v4h-4zM192 136h4v4h-4zM196 136h4v4h-4zM200 136h4v4h-4zM204 136h4v4h-4zM208 136h4v4h-4zM212 136h4v4h-4zM216 136h4v4h-4zM220 136h4v4h-4zM224 136h4v4h-4z"/><path fill="#5D7F8F" d="M228 136h4v4h-4zM232 136h4v4h-4z"/><path fill="#476B7B" d="M236 136h4v4h-4zM240 136h4v4h-4zM244 136h4v4h-4zM248 136h4v4h-4z"/><path fill="#5D7F8F" d="M252 136h4v4h-4zM256 136h4v4h-4zM260 136h4v4h-4zM264 136h4v4h-4zM268 136h4v4h-4zM272 136h4v4h-4zM276 136h4v4h-4zM280 136h4v4h-4z"/><path fill="#338C96" d="M284 136h4v4h-4zM68 140h4v4h-4z"/><path fill="#476B7B" d="M72 140h4v4h-4zM76 140h4v4h-4zM80 140h4v4h-4zM84 140h4v4h-4zM88 140h4v4h-4zM92 140h4v4h-4zM96 140h4v4h-4zM100 140h4v4h-4zM104 140h4v4h-4z"/><path fill="#EAA5CB" d="M108 140h4v4h-4z"/><path fill="#476B7B" d="M112 140h4v4h-4zM116 140h4v4h-4zM120 140h4v4h-4zM124 140h4v4h-4z"/><path fill="#66AFD1" d="M128 140h4v4h-4zM132 140h4v4h-4zM136 140h4v4h-4zM140 140h4v4h-4zM144 140h4v4h-4zM148 140h4v4h-4zM152 140h4v4h-4zM156 140h4v4h-4zM160 140h4v4h-4zM164 140h4v4h-4zM168 140h4v4h-4zM172 140h4v4h-4z"/><path fill="#ABF0F1" d="M176 140h4v4h-4zM180 140h4v4h-4z"/><path fill="#66AFD1" d="M184 140h4v4h-4zM188 140h4v4h-4zM192 140h4v4h-4z"/><path fill="#5D7F8F" d="M196 140h4v4h-4zM200 140h4v4h-4zM204 140h4v4h-4zM208 140h4v4h-4zM212 140h4v4h-4zM216 140h4v4h-4zM220 140h4v4h-4zM224 140h4v4h-4zM228 140h4v4h-4zM232 140h4v4h-4z"/><path fill="#476B7B" d="M236 140h4v4h-4zM240 140h4v4h-4zM244 140h4v4h-4zM248 140h4v4h-4z"/><path fill="#5D7F8F" d="M252 140h4v4h-4zM256 140h4v4h-4zM260 140h4v4h-4zM264 140h4v4h-4zM268 140h4v4h-4zM272 140h4v4h-4zM276 140h4v4h-4zM280 140h4v4h-4z"/><path fill="#338C96" d="M284 140h4v4h-4zM68 144h4v4h-4z"/><path fill="#476B7B" d="M72 144h4v4h-4zM76 144h4v4h-4zM80 144h4v4h-4zM84 144h4v4h-4zM88 144h4v4h-4zM92 144h4v4h-4zM96 144h4v4h-4zM100 144h4v4h-4zM104 144h4v4h-4z"/><path fill="#EAA5CB" d="M108 144h4v4h-4z"/><path fill="#476B7B" d="M112 144h4v4h-4zM116 144h4v4h-4zM120 144h4v4h-4zM124 144h4v4h-4zM128 144h4v4h-4z"/><path fill="#66AFD1" d="M132 144h4v4h-4zM136 144h4v4h-4zM140 144h4v4h-4zM144 144h4v4h-4zM148 144h4v4h-4zM152 144h4v4h-4zM156 144h4v4h-4z"/><path fill="#5D7F8F" d="M160 144h4v4h-4zM164 144h4v4h-4z"/><path fill="#476B7B" d="M168 144h4v4h-4zM172 144h4v4h-4zM176 144h4v4h-4zM180 144h4v4h-4z"/><path fill="#5D7F8F" d="M184 144h4v4h-4zM188 144h4v4h-4zM192 144h4v4h-4zM196 144h4v4h-4zM200 144h4v4h-4zM204 144h4v4h-4zM208 144h4v4h-4zM212 144h4v4h-4zM216 144h4v4h-4zM220 144h4v4h-4zM224 144h4v4h-4zM228 144h4v4h-4zM232 144h4v4h-4z"/><path fill="#476B7B" d="M236 144h4v4h-4zM240 144h4v4h-4zM244 144h4v4h-4zM248 144h4v4h-4z"/><path fill="#5D7F8F" d="M252 144h4v4h-4zM256 144h4v4h-4zM260 144h4v4h-4zM264 144h4v4h-4zM268 144h4v4h-4zM272 144h4v4h-4zM276 144h4v4h-4zM280 144h4v4h-4z"/><path fill="#338C96" d="M284 144h4v4h-4zM68 148h4v4h-4z"/><path fill="#476B7B" d="M72 148h4v4h-4zM76 148h4v4h-4zM80 148h4v4h-4zM84 148h4v4h-4zM88 148h4v4h-4zM92 148h4v4h-4zM96 148h4v4h-4zM100 148h4v4h-4zM104 148h4v4h-4zM108 148h4v4h-4zM112 148h4v4h-4zM116 148h4v4h-4zM120 148h4v4h-4zM124 148h4v4h-4zM128 148h4v4h-4zM132 148h4v4h-4z"/><path fill="#66AFD1" d="M136 148h4v4h-4z"/><path fill="#5D7F8F" d="M140 148h4v4h-4zM144 148h4v4h-4zM148 148h4v4h-4zM152 148h4v4h-4zM156 148h4v4h-4zM160 148h4v4h-4zM164 148h4v4h-4zM168 148h4v4h-4z"/><path fill="#476B7B" d="M172 148h4v4h-4zM176 148h4v4h-4zM180 148h4v4h-4zM184 148h4v4h-4z"/><path fill="#5D7F8F" d="M188 148h4v4h-4zM192 148h4v4h-4zM196 148h4v4h-4zM200 148h4v4h-4zM204 148h4v4h-4zM208 148h4v4h-4zM212 148h4v4h-4zM216 148h4v4h-4zM220 148h4v4h-4zM224 148h4v4h-4zM228 148h4v4h-4zM232 148h4v4h-4z"/><path fill="#476B7B" d="M236 148h4v4h-4zM240 148h4v4h-4zM244 148h4v4h-4zM248 148h4v4h-4z"/><path fill="#5D7F8F" d="M252 148h4v4h-4zM256 148h4v4h-4zM260 148h4v4h-4zM264 148h4v4h-4zM268 148h4v4h-4zM272 148h4v4h-4zM276 148h4v4h-4zM280 148h4v4h-4z"/><path fill="#338C96" d="M284 148h4v4h-4zM68 152h4v4h-4z"/><path fill="#476B7B" d="M72 152h4v4h-4zM76 152h4v4h-4zM80 152h4v4h-4zM84 152h4v4h-4zM88 152h4v4h-4zM92 152h4v4h-4zM96 152h4v4h-4zM100 152h4v4h-4zM104 152h4v4h-4zM108 152h4v4h-4zM112 152h4v4h-4zM116 152h4v4h-4zM120 152h4v4h-4zM124 152h4v4h-4zM128 152h4v4h-4zM132 152h4v4h-4z"/><path fill="#5D7F8F" d="M136 152h4v4h-4zM140 152h4v4h-4zM144 152h4v4h-4zM148 152h4v4h-4zM152 152h4v4h-4zM156 152h4v4h-4zM160 152h4v4h-4zM164 152h4v4h-4zM168 152h4v4h-4z"/><path fill="#476B7B" d="M172 152h4v4h-4zM176 152h4v4h-4zM180 152h4v4h-4zM184 152h4v4h-4z"/><path fill="#5D7F8F" d="M188 152h4v4h-4zM192 152h4v4h-4zM196 152h4v4h-4zM200 152h4v4h-4zM204 152h4v4h-4z"/><path fill="#769FB2" d="M208 152h4v4h-4zM212 152h4v4h-4zM216 152h4v4h-4zM220 152h4v4h-4z"/><path fill="#5D7F8F" d="M224 152h4v4h-4zM228 152h4v4h-4zM232 152h4v4h-4z"/><path fill="#476B7B" d="M236 152h4v4h-4zM240 152h4v4h-4zM244 152h4v4h-4zM248 152h4v4h-4z"/><path fill="#5D7F8F" d="M252 152h4v4h-4zM256 152h4v4h-4zM260 152h4v4h-4zM264 152h4v4h-4zM268 152h4v4h-4zM272 152h4v4h-4zM276 152h4v4h-4zM280 152h4v4h-4z"/><path fill="#338C96" d="M284 152h4v4h-4zM68 156h4v4h-4z"/><path fill="#476B7B" d="M72 156h4v4h-4zM76 156h4v4h-4zM80 156h4v4h-4zM84 156h4v4h-4zM88 156h4v4h-4zM92 156h4v4h-4zM96 156h4v4h-4zM100 156h4v4h-4zM104 156h4v4h-4zM108 156h4v4h-4zM112 156h4v4h-4zM116 156h4v4h-4zM120 156h4v4h-4zM124 156h4v4h-4zM128 156h4v4h-4zM132 156h4v4h-4z"/><path fill="#5D7F8F" d="M136 156h4v4h-4zM140 156h4v4h-4zM144 156h4v4h-4zM148 156h4v4h-4zM152 156h4v4h-4zM156 156h4v4h-4zM160 156h4v4h-4zM164 156h4v4h-4zM168 156h4v4h-4z"/><path fill="#476B7B" d="M172 156h4v4h-4zM176 156h4v4h-4zM180 156h4v4h-4zM184 156h4v4h-4z"/><path fill="#5D7F8F" d="M188 156h4v4h-4zM192 156h4v4h-4zM196 156h4v4h-4zM200 156h4v4h-4z"/><path fill="#769FB2" d="M204 156h4v4h-4zM208 156h4v4h-4zM212 156h4v4h-4zM216 156h4v4h-4zM220 156h4v4h-4zM224 156h4v4h-4z"/><path fill="#5D7F8F" d="M228 156h4v4h-4zM232 156h4v4h-4z"/><path fill="#476B7B" d="M236 156h4v4h-4zM240 156h4v4h-4zM244 156h4v4h-4zM248 156h4v4h-4z"/><path fill="#5D7F8F" d="M252 156h4v4h-4zM256 156h4v4h-4zM260 156h4v4h-4zM264 156h4v4h-4zM268 156h4v4h-4zM272 156h4v4h-4zM276 156h4v4h-4zM280 156h4v4h-4z"/><path fill="#338C96" d="M284 156h4v4h-4zM68 160h4v4h-4z"/><path fill="#476B7B" d="M72 160h4v4h-4zM76 160h4v4h-4zM80 160h4v4h-4zM84 160h4v4h-4zM88 160h4v4h-4zM92 160h4v4h-4zM96 160h4v4h-4zM100 160h4v4h-4zM104 160h4v4h-4zM108 160h4v4h-4zM112 160h4v4h-4zM116 160h4v4h-4zM120 160h4v4h-4zM124 160h4v4h-4zM128 160h4v4h-4zM132 160h4v4h-4z"/><path fill="#5D7F8F" d="M136 160h4v4h-4zM140 160h4v4h-4zM144 160h4v4h-4zM148 160h4v4h-4zM152 160h4v4h-4zM156 160h4v4h-4zM160 160h4v4h-4zM164 160h4v4h-4zM168 160h4v4h-4z"/><path fill="#476B7B" d="M172 160h4v4h-4zM176 160h4v4h-4zM180 160h4v4h-4zM184 160h4v4h-4z"/><path fill="#5D7F8F" d="M188 160h4v4h-4zM192 160h4v4h-4zM196 160h4v4h-4z"/><path fill="#769FB2" d="M200 160h4v4h-4zM204 160h4v4h-4zM208 160h4v4h-4zM212 160h4v4h-4z"/><path fill="#ABF0F1" d="M216 160h4v4h-4zM220 160h4v4h-4z"/><path fill="#769FB2" d="M224 160h4v4h-4zM228 160h4v4h-4z"/><path fill="#5D7F8F" d="M232 160h4v4h-4z"/><path fill="#476B7B" d="M236 160h4v4h-4zM240 160h4v4h-4zM244 160h4v4h-4zM248 160h4v4h-4zM252 160h4v4h-4z"/><path fill="#5D7F8F" d="M256 160h4v4h-4zM260 160h4v4h-4zM264 160h4v4h-4zM268 160h4v4h-4zM272 160h4v4h-4zM276 160h4v4h-4zM280 160h4v4h-4z"/><path fill="#338C96" d="M284 160h4v4h-4zM68 164h4v4h-4z"/><path fill="#476B7B" d="M72 164h4v4h-4zM76 164h4v4h-4zM80 164h4v4h-4zM84 164h4v4h-4zM88 164h4v4h-4zM92 164h4v4h-4zM96 164h4v4h-4zM100 164h4v4h-4zM104 164h4v4h-4zM108 164h4v4h-4zM112 164h4v4h-4zM116 164h4v4h-4zM120 164h4v4h-4zM124 164h4v4h-4zM128 164h4v4h-4zM132 164h4v4h-4z"/><path fill="#5D7F8F" d="M136 164h4v4h-4zM140 164h4v4h-4zM144 164h4v4h-4zM148 164h4v4h-4zM152 164h4v4h-4zM156 164h4v4h-4zM160 164h4v4h-4zM164 164h4v4h-4z"/><path fill="#476B7B" d="M168 164h4v4h-4zM172 164h4v4h-4zM176 164h4v4h-4zM180 164h4v4h-4zM184 164h4v4h-4z"/><path fill="#5D7F8F" d="M188 164h4v4h-4zM192 164h4v4h-4zM196 164h4v4h-4z"/><path fill="#769FB2" d="M200 164h4v4h-4zM204 164h4v4h-4zM208 164h4v4h-4z"/><path fill="#ABF0F1" d="M212 164h4v4h-4zM216 164h4v4h-4zM220 164h4v4h-4zM224 164h4v4h-4z"/><path fill="#769FB2" d="M228 164h4v4h-4z"/><path fill="#5D7F8F" d="M232 164h4v4h-4z"/><path fill="#476B7B" d="M236 164h4v4h-4zM240 164h4v4h-4zM244 164h4v4h-4zM248 164h4v4h-4z"/><path fill="#5D7F8F" d="M252 164h4v4h-4zM256 164h4v4h-4zM260 164h4v4h-4zM264 164h4v4h-4zM268 164h4v4h-4z"/><path fill="#476B7B" d="M272 164h4v4h-4zM276 164h4v4h-4zM280 164h4v4h-4z"/><path fill="#338C96" d="M284 164h4v4h-4zM68 168h4v4h-4z"/><path fill="#476B7B" d="M72 168h4v4h-4zM76 168h4v4h-4zM80 168h4v4h-4zM84 168h4v4h-4zM88 168h4v4h-4zM92 168h4v4h-4zM96 168h4v4h-4zM100 168h4v4h-4zM104 168h4v4h-4zM108 168h4v4h-4zM112 168h4v4h-4zM116 168h4v4h-4zM120 168h4v4h-4zM124 168h4v4h-4zM128 168h4v4h-4zM132 168h4v4h-4z"/><path fill="#5D7F8F" d="M136 168h4v4h-4zM140 168h4v4h-4zM144 168h4v4h-4zM148 168h4v4h-4zM152 168h4v4h-4zM156 168h4v4h-4zM160 168h4v4h-4zM164 168h4v4h-4zM168 168h4v4h-4z"/><path fill="#476B7B" d="M172 168h4v4h-4zM176 168h4v4h-4zM180 168h4v4h-4zM184 168h4v4h-4z"/><path fill="#5D7F8F" d="M188 168h4v4h-4zM192 168h4v4h-4zM196 168h4v4h-4z"/><path fill="#769FB2" d="M200 168h4v4h-4zM204 168h4v4h-4z"/><path fill="#ABF0F1" d="M208 168h4v4h-4zM212 168h4v4h-4zM216 168h4v4h-4zM220 168h4v4h-4zM224 168h4v4h-4zM228 168h4v4h-4z"/><path fill="#5D7F8F" d="M232 168h4v4h-4z"/><path fill="#476B7B" d="M236 168h4v4h-4zM240 168h4v4h-4zM244 168h4v4h-4zM248 168h4v4h-4zM252 168h4v4h-4zM256 168h4v4h-4zM260 168h4v4h-4zM264 168h4v4h-4zM268 168h4v4h-4zM272 168h4v4h-4z"/><path fill="#769FB2" d="M276 168h4v4h-4zM280 168h4v4h-4z"/><path fill="#338C96" d="M284 168h4v4h-4zM68 172h4v4h-4z"/><path fill="#476B7B" d="M72 172h4v4h-4zM76 172h4v4h-4zM80 172h4v4h-4zM84 172h4v4h-4zM88 172h4v4h-4zM92 172h4v4h-4zM96 172h4v4h-4zM100 172h4v4h-4zM104 172h4v4h-4zM108 172h4v4h-4zM112 172h4v4h-4zM116 172h4v4h-4zM120 172h4v4h-4zM124 172h4v4h-4zM128 172h4v4h-4zM132 172h4v4h-4z"/><path fill="#5D7F8F" d="M136 172h4v4h-4zM140 172h4v4h-4zM144 172h4v4h-4zM148 172h4v4h-4zM152 172h4v4h-4zM156 172h4v4h-4zM160 172h4v4h-4z"/><path fill="#476B7B" d="M164 172h4v4h-4zM168 172h4v4h-4zM172 172h4v4h-4zM176 172h4v4h-4zM180 172h4v4h-4zM184 172h4v4h-4z"/><path fill="#5D7F8F" d="M188 172h4v4h-4zM192 172h4v4h-4zM196 172h4v4h-4z"/><path fill="#769FB2" d="M200 172h4v4h-4zM204 172h4v4h-4z"/><path fill="#ABF0F1" d="M208 172h4v4h-4zM212 172h4v4h-4zM216 172h4v4h-4zM220 172h4v4h-4zM224 172h4v4h-4zM228 172h4v4h-4z"/><path fill="#5D7F8F" d="M232 172h4v4h-4z"/><path fill="#476B7B" d="M236 172h4v4h-4zM240 172h4v4h-4zM244 172h4v4h-4zM248 172h4v4h-4z"/><path fill="#769FB2" d="M252 172h4v4h-4zM256 172h4v4h-4zM260 172h4v4h-4zM264 172h4v4h-4zM268 172h4v4h-4zM272 172h4v4h-4z"/><path fill="#5D7F8F" d="M276 172h4v4h-4zM280 172h4v4h-4z"/><path fill="#338C96" d="M284 172h4v4h-4zM68 176h4v4h-4z"/><path fill="#476B7B" d="M72 176h4v4h-4zM76 176h4v4h-4zM80 176h4v4h-4zM84 176h4v4h-4zM88 176h4v4h-4zM92 176h4v4h-4zM96 176h4v4h-4zM100 176h4v4h-4zM104 176h4v4h-4zM108 176h4v4h-4zM112 176h4v4h-4z"/><path fill="#ABF0F1" d="M116 176h4v4h-4z"/><path fill="#476B7B" d="M120 176h4v4h-4zM124 176h4v4h-4zM128 176h4v4h-4zM132 176h4v4h-4zM136 176h4v4h-4zM140 176h4v4h-4zM144 176h4v4h-4zM148 176h4v4h-4zM152 176h4v4h-4zM156 176h4v4h-4zM160 176h4v4h-4zM164 176h4v4h-4z"/><path fill="#769FB2" d="M168 176h4v4h-4z"/><path fill="#476B7B" d="M172 176h4v4h-4zM176 176h4v4h-4zM180 176h4v4h-4zM184 176h4v4h-4z"/><path fill="#5D7F8F" d="M188 176h4v4h-4zM192 176h4v4h-4zM196 176h4v4h-4zM200 176h4v4h-4z"/><path fill="#769FB2" d="M204 176h4v4h-4zM208 176h4v4h-4z"/><path fill="#ABF0F1" d="M212 176h4v4h-4zM216 176h4v4h-4zM220 176h4v4h-4zM224 176h4v4h-4z"/><path fill="#769FB2" d="M228 176h4v4h-4z"/><path fill="#5D7F8F" d="M232 176h4v4h-4z"/><path fill="#476B7B" d="M236 176h4v4h-4zM240 176h4v4h-4zM244 176h4v4h-4zM248 176h4v4h-4z"/><path fill="#5D7F8F" d="M252 176h4v4h-4zM256 176h4v4h-4zM260 176h4v4h-4zM264 176h4v4h-4zM268 176h4v4h-4zM272 176h4v4h-4zM276 176h4v4h-4zM280 176h4v4h-4z"/><path fill="#338C96" d="M284 176h4v4h-4zM68 180h4v4h-4z"/><path fill="#476B7B" d="M72 180h4v4h-4zM76 180h4v4h-4zM80 180h4v4h-4zM84 180h4v4h-4zM88 180h4v4h-4zM92 180h4v4h-4zM96 180h4v4h-4zM100 180h4v4h-4zM104 180h4v4h-4zM108 180h4v4h-4z"/><path fill="#ABF0F1" d="M112 180h4v4h-4zM116 180h4v4h-4z"/><path fill="#476B7B" d="M120 180h4v4h-4zM124 180h4v4h-4zM128 180h4v4h-4zM132 180h4v4h-4z"/><path fill="#769FB2" d="M136 180h4v4h-4zM140 180h4v4h-4zM144 180h4v4h-4zM148 180h4v4h-4zM152 180h4v4h-4zM156 180h4v4h-4zM160 180h4v4h-4zM164 180h4v4h-4z"/><path fill="#5D7F8F" d="M168 180h4v4h-4z"/><path fill="#476B7B" d="M172 180h4v4h-4zM176 180h4v4h-4zM180 180h4v4h-4zM184 180h4v4h-4z"/><path fill="#5D7F8F" d="M188 180h4v4h-4zM192 180h4v4h-4zM196 180h4v4h-4zM200 180h4v4h-4zM204 180h4v4h-4z"/><path fill="#769FB2" d="M208 180h4v4h-4zM212 180h4v4h-4z"/><path fill="#ABF0F1" d="M216 180h4v4h-4zM220 180h4v4h-4z"/><path fill="#769FB2" d="M224 180h4v4h-4z"/><path fill="#5D7F8F" d="M228 180h4v4h-4zM232 180h4v4h-4z"/><path fill="#476B7B" d="M236 180h4v4h-4zM240 180h4v4h-4zM244 180h4v4h-4zM248 180h4v4h-4z"/><path fill="#5D7F8F" d="M252 180h4v4h-4zM256 180h4v4h-4zM260 180h4v4h-4zM264 180h4v4h-4zM268 180h4v4h-4zM272 180h4v4h-4zM276 180h4v4h-4zM280 180h4v4h-4z"/><path fill="#338C96" d="M284 180h4v4h-4zM68 184h4v4h-4z"/><path fill="#476B7B" d="M72 184h4v4h-4zM76 184h4v4h-4zM80 184h4v4h-4zM84 184h4v4h-4zM88 184h4v4h-4zM92 184h4v4h-4zM96 184h4v4h-4zM100 184h4v4h-4zM104 184h4v4h-4z"/><path fill="#ABF0F1" d="M108 184h4v4h-4zM112 184h4v4h-4zM116 184h4v4h-4z"/><path fill="#476B7B" d="M120 184h4v4h-4zM124 184h4v4h-4zM128 184h4v4h-4zM132 184h4v4h-4z"/><path fill="#5D7F8F" d="M136 184h4v4h-4zM140 184h4v4h-4zM144 184h4v4h-4zM148 184h4v4h-4zM152 184h4v4h-4zM156 184h4v4h-4zM160 184h4v4h-4zM164 184h4v4h-4zM168 184h4v4h-4z"/><path fill="#476B7B" d="M172 184h4v4h-4zM176 184h4v4h-4zM180 184h4v4h-4zM184 184h4v4h-4z"/><path fill="#5D7F8F" d="M188 184h4v4h-4zM192 184h4v4h-4zM196 184h4v4h-4zM200 184h4v4h-4zM204 184h4v4h-4zM208 184h4v4h-4zM212 184h4v4h-4zM216 184h4v4h-4zM220 184h4v4h-4zM224 184h4v4h-4zM228 184h4v4h-4zM232 184h4v4h-4z"/><path fill="#476B7B" d="M236 184h4v4h-4zM240 184h4v4h-4zM244 184h4v4h-4zM248 184h4v4h-4z"/><path fill="#5D7F8F" d="M252 184h4v4h-4zM256 184h4v4h-4zM260 184h4v4h-4zM264 184h4v4h-4zM268 184h4v4h-4zM272 184h4v4h-4zM276 184h4v4h-4zM280 184h4v4h-4z"/><path fill="#338C96" d="M284 184h4v4h-4zM68 188h4v4h-4z"/><path fill="#476B7B" d="M72 188h4v4h-4zM76 188h4v4h-4zM80 188h4v4h-4zM84 188h4v4h-4zM88 188h4v4h-4zM92 188h4v4h-4zM96 188h4v4h-4zM100 188h4v4h-4z"/><path fill="#769FB2" d="M104 188h4v4h-4z"/><path fill="#ABF0F1" d="M108 188h4v4h-4zM112 188h4v4h-4zM116 188h4v4h-4z"/><path fill="#476B7B" d="M120 188h4v4h-4zM124 188h4v4h-4zM128 188h4v4h-4zM132 188h4v4h-4z"/><path fill="#5D7F8F" d="M136 188h4v4h-4zM140 188h4v4h-4zM144 188h4v4h-4zM148 188h4v4h-4zM152 188h4v4h-4zM156 188h4v4h-4zM160 188h4v4h-4zM164 188h4v4h-4zM168 188h4v4h-4z"/><path fill="#476B7B" d="M172 188h4v4h-4zM176 188h4v4h-4zM180 188h4v4h-4zM184 188h4v4h-4z"/><path fill="#5D7F8F" d="M188 188h4v4h-4zM192 188h4v4h-4zM196 188h4v4h-4zM200 188h4v4h-4zM204 188h4v4h-4zM208 188h4v4h-4zM212 188h4v4h-4zM216 188h4v4h-4zM220 188h4v4h-4zM224 188h4v4h-4zM228 188h4v4h-4zM232 188h4v4h-4z"/><path fill="#476B7B" d="M236 188h4v4h-4zM240 188h4v4h-4zM244 188h4v4h-4zM248 188h4v4h-4z"/><path fill="#5D7F8F" d="M252 188h4v4h-4zM256 188h4v4h-4zM260 188h4v4h-4zM264 188h4v4h-4zM268 188h4v4h-4zM272 188h4v4h-4zM276 188h4v4h-4zM280 188h4v4h-4z"/><path fill="#338C96" d="M284 188h4v4h-4zM68 192h4v4h-4z"/><path fill="#476B7B" d="M72 192h4v4h-4zM76 192h4v4h-4zM80 192h4v4h-4zM84 192h4v4h-4zM88 192h4v4h-4zM92 192h4v4h-4zM96 192h4v4h-4zM100 192h4v4h-4z"/><path fill="#769FB2" d="M104 192h4v4h-4z"/><path fill="#ABF0F1" d="M108 192h4v4h-4zM112 192h4v4h-4zM116 192h4v4h-4z"/><path fill="#476B7B" d="M120 192h4v4h-4zM124 192h4v4h-4zM128 192h4v4h-4zM132 192h4v4h-4z"/><path fill="#5D7F8F" d="M136 192h4v4h-4zM140 192h4v4h-4zM144 192h4v4h-4zM148 192h4v4h-4zM152 192h4v4h-4zM156 192h4v4h-4zM160 192h4v4h-4zM164 192h4v4h-4zM168 192h4v4h-4z"/><path fill="#476B7B" d="M172 192h4v4h-4zM176 192h4v4h-4zM180 192h4v4h-4zM184 192h4v4h-4z"/><path fill="#5D7F8F" d="M188 192h4v4h-4zM192 192h4v4h-4zM196 192h4v4h-4zM200 192h4v4h-4zM204 192h4v4h-4zM208 192h4v4h-4zM212 192h4v4h-4zM216 192h4v4h-4zM220 192h4v4h-4zM224 192h4v4h-4zM228 192h4v4h-4z"/><path fill="#476B7B" d="M232 192h4v4h-4zM236 192h4v4h-4zM240 192h4v4h-4zM244 192h4v4h-4zM248 192h4v4h-4z"/><path fill="#5D7F8F" d="M252 192h4v4h-4zM256 192h4v4h-4zM260 192h4v4h-4zM264 192h4v4h-4zM268 192h4v4h-4zM272 192h4v4h-4zM276 192h4v4h-4zM280 192h4v4h-4z"/><path fill="#338C96" d="M284 192h4v4h-4zM68 196h4v4h-4z"/><path fill="#476B7B" d="M72 196h4v4h-4zM76 196h4v4h-4zM80 196h4v4h-4zM84 196h4v4h-4zM88 196h4v4h-4zM92 196h4v4h-4zM96 196h4v4h-4zM100 196h4v4h-4z"/><path fill="#769FB2" d="M104 196h4v4h-4z"/><path fill="#ABF0F1" d="M108 196h4v4h-4zM112 196h4v4h-4zM116 196h4v4h-4z"/><path fill="#476B7B" d="M120 196h4v4h-4zM124 196h4v4h-4zM128 196h4v4h-4zM132 196h4v4h-4z"/><path fill="#5D7F8F" d="M136 196h4v4h-4zM140 196h4v4h-4zM144 196h4v4h-4zM148 196h4v4h-4zM152 196h4v4h-4zM156 196h4v4h-4zM160 196h4v4h-4zM164 196h4v4h-4zM168 196h4v4h-4z"/><path fill="#476B7B" d="M172 196h4v4h-4zM176 196h4v4h-4zM180 196h4v4h-4zM184 196h4v4h-4zM188 196h4v4h-4z"/><path fill="#5D7F8F" d="M192 196h4v4h-4zM196 196h4v4h-4zM200 196h4v4h-4zM204 196h4v4h-4zM208 196h4v4h-4zM212 196h4v4h-4zM216 196h4v4h-4zM220 196h4v4h-4z"/><path fill="#476B7B" d="M224 196h4v4h-4zM228 196h4v4h-4zM232 196h4v4h-4zM236 196h4v4h-4zM240 196h4v4h-4zM244 196h4v4h-4zM248 196h4v4h-4z"/><path fill="#5D7F8F" d="M252 196h4v4h-4zM256 196h4v4h-4zM260 196h4v4h-4zM264 196h4v4h-4zM268 196h4v4h-4zM272 196h4v4h-4zM276 196h4v4h-4zM280 196h4v4h-4z"/><path fill="#338C96" d="M284 196h4v4h-4zM68 200h4v4h-4z"/><path fill="#476B7B" d="M72 200h4v4h-4zM76 200h4v4h-4zM80 200h4v4h-4zM84 200h4v4h-4zM88 200h4v4h-4zM92 200h4v4h-4zM96 200h4v4h-4zM100 200h4v4h-4z"/><path fill="#769FB2" d="M104 200h4v4h-4z"/><path fill="#ABF0F1" d="M108 200h4v4h-4zM112 200h4v4h-4zM116 200h4v4h-4z"/><path fill="#476B7B" d="M120 200h4v4h-4zM124 200h4v4h-4zM128 200h4v4h-4zM132 200h4v4h-4z"/><path fill="#5D7F8F" d="M136 200h4v4h-4zM140 200h4v4h-4zM144 200h4v4h-4zM148 200h4v4h-4zM152 200h4v4h-4zM156 200h4v4h-4zM160 200h4v4h-4zM164 200h4v4h-4zM168 200h4v4h-4z"/><path fill="#476B7B" d="M172 200h4v4h-4zM176 200h4v4h-4zM180 200h4v4h-4zM184 200h4v4h-4zM188 200h4v4h-4zM192 200h4v4h-4zM196 200h4v4h-4zM200 200h4v4h-4zM204 200h4v4h-4zM208 200h4v4h-4zM212 200h4v4h-4zM216 200h4v4h-4zM220 200h4v4h-4z"/><path fill="#769FB2" d="M224 200h4v4h-4zM228 200h4v4h-4z"/><path fill="#5D7F8F" d="M232 200h4v4h-4z"/><path fill="#476B7B" d="M236 200h4v4h-4zM240 200h4v4h-4zM244 200h4v4h-4zM248 200h4v4h-4z"/><path fill="#5D7F8F" d="M252 200h4v4h-4zM256 200h4v4h-4zM260 200h4v4h-4zM264 200h4v4h-4zM268 200h4v4h-4zM272 200h4v4h-4zM276 200h4v4h-4zM280 200h4v4h-4z"/><path fill="#338C96" d="M284 200h4v4h-4zM68 204h4v4h-4z"/><path fill="#476B7B" d="M72 204h4v4h-4z"/><path fill="#ABF0F1" d="M76 204h4v4h-4z"/><path fill="#476B7B" d="M80 204h4v4h-4zM84 204h4v4h-4zM88 204h4v4h-4zM92 204h4v4h-4zM96 204h4v4h-4zM100 204h4v4h-4z"/><path fill="#769FB2" d="M104 204h4v4h-4z"/><path fill="#ABF0F1" d="M108 204h4v4h-4zM112 204h4v4h-4zM116 204h4v4h-4z"/><path fill="#476B7B" d="M120 204h4v4h-4zM124 204h4v4h-4zM128 204h4v4h-4zM132 204h4v4h-4z"/><path fill="#5D7F8F" d="M136 204h4v4h-4zM140 204h4v4h-4zM144 204h4v4h-4zM148 204h4v4h-4zM152 204h4v4h-4zM156 204h4v4h-4zM160 204h4v4h-4zM164 204h4v4h-4zM168 204h4v4h-4z"/><path fill="#476B7B" d="M172 204h4v4h-4zM176 204h4v4h-4zM180 204h4v4h-4zM184 204h4v4h-4z"/><path fill="#769FB2" d="M188 204h4v4h-4zM192 204h4v4h-4zM196 204h4v4h-4zM200 204h4v4h-4zM204 204h4v4h-4zM208 204h4v4h-4zM212 204h4v4h-4zM216 204h4v4h-4zM220 204h4v4h-4z"/><path fill="#5D7F8F" d="M224 204h4v4h-4zM228 204h4v4h-4zM232 204h4v4h-4z"/><path fill="#476B7B" d="M236 204h4v4h-4zM240 204h4v4h-4zM244 204h4v4h-4zM248 204h4v4h-4z"/><path fill="#5D7F8F" d="M252 204h4v4h-4zM256 204h4v4h-4zM260 204h4v4h-4zM264 204h4v4h-4zM268 204h4v4h-4zM272 204h4v4h-4zM276 204h4v4h-4zM280 204h4v4h-4z"/><path fill="#338C96" d="M284 204h4v4h-4zM68 208h4v4h-4z"/><path fill="#476B7B" d="M72 208h4v4h-4zM76 208h4v4h-4zM80 208h4v4h-4zM84 208h4v4h-4zM88 208h4v4h-4zM92 208h4v4h-4zM96 208h4v4h-4zM100 208h4v4h-4z"/><path fill="#769FB2" d="M104 208h4v4h-4z"/><path fill="#ABF0F1" d="M108 208h4v4h-4zM112 208h4v4h-4zM116 208h4v4h-4z"/><path fill="#476B7B" d="M120 208h4v4h-4zM124 208h4v4h-4zM128 208h4v4h-4zM132 208h4v4h-4z"/><path fill="#5D7F8F" d="M136 208h4v4h-4zM140 208h4v4h-4zM144 208h4v4h-4zM148 208h4v4h-4zM152 208h4v4h-4zM156 208h4v4h-4zM160 208h4v4h-4zM164 208h4v4h-4zM168 208h4v4h-4z"/><path fill="#476B7B" d="M172 208h4v4h-4zM176 208h4v4h-4zM180 208h4v4h-4zM184 208h4v4h-4z"/><path fill="#5D7F8F" d="M188 208h4v4h-4zM192 208h4v4h-4zM196 208h4v4h-4zM200 208h4v4h-4zM204 208h4v4h-4zM208 208h4v4h-4zM212 208h4v4h-4zM216 208h4v4h-4zM220 208h4v4h-4zM224 208h4v4h-4zM228 208h4v4h-4zM232 208h4v4h-4z"/><path fill="#476B7B" d="M236 208h4v4h-4zM240 208h4v4h-4zM244 208h4v4h-4zM248 208h4v4h-4z"/><path fill="#5D7F8F" d="M252 208h4v4h-4z"/><path fill="#476B7B" d="M256 208h4v4h-4z"/><path fill="#5D7F8F" d="M260 208h4v4h-4zM264 208h4v4h-4zM268 208h4v4h-4zM272 208h4v4h-4zM276 208h4v4h-4z"/><path fill="#476B7B" d="M280 208h4v4h-4z"/><path fill="#338C96" d="M284 208h4v4h-4zM68 212h4v4h-4z"/><path fill="#476B7B" d="M72 212h4v4h-4zM76 212h4v4h-4zM80 212h4v4h-4zM84 212h4v4h-4zM88 212h4v4h-4zM92 212h4v4h-4zM96 212h4v4h-4zM100 212h4v4h-4z"/><path fill="#769FB2" d="M104 212h4v4h-4z"/><path fill="#ABF0F1" d="M108 212h4v4h-4zM112 212h4v4h-4zM116 212h4v4h-4z"/><path fill="#476B7B" d="M120 212h4v4h-4zM124 212h4v4h-4zM128 212h4v4h-4zM132 212h4v4h-4z"/><path fill="#5D7F8F" d="M136 212h4v4h-4zM140 212h4v4h-4zM144 212h4v4h-4zM148 212h4v4h-4zM152 212h4v4h-4zM156 212h4v4h-4zM160 212h4v4h-4zM164 212h4v4h-4zM168 212h4v4h-4z"/><path fill="#476B7B" d="M172 212h4v4h-4zM176 212h4v4h-4zM180 212h4v4h-4zM184 212h4v4h-4z"/><path fill="#5D7F8F" d="M188 212h4v4h-4zM192 212h4v4h-4zM196 212h4v4h-4zM200 212h4v4h-4zM204 212h4v4h-4zM208 212h4v4h-4zM212 212h4v4h-4zM216 212h4v4h-4zM220 212h4v4h-4zM224 212h4v4h-4zM228 212h4v4h-4zM232 212h4v4h-4z"/><path fill="#476B7B" d="M236 212h4v4h-4zM240 212h4v4h-4zM244 212h4v4h-4zM248 212h4v4h-4z"/><path fill="#5D7F8F" d="M252 212h4v4h-4zM256 212h4v4h-4zM260 212h4v4h-4zM264 212h4v4h-4zM268 212h4v4h-4zM272 212h4v4h-4z"/><path fill="#476B7B" d="M276 212h4v4h-4zM280 212h4v4h-4z"/><path fill="#338C96" d="M284 212h4v4h-4zM72 216h4v4h-4z"/><path fill="#476B7B" d="M76 216h4v4h-4zM80 216h4v4h-4zM84 216h4v4h-4zM88 216h4v4h-4zM92 216h4v4h-4zM96 216h4v4h-4zM100 216h4v4h-4z"/><path fill="#769FB2" d="M104 216h4v4h-4z"/><path fill="#ABF0F1" d="M108 216h4v4h-4zM112 216h4v4h-4zM116 216h4v4h-4z"/><path fill="#476B7B" d="M120 216h4v4h-4zM124 216h4v4h-4zM128 216h4v4h-4zM132 216h4v4h-4z"/><path fill="#5D7F8F" d="M136 216h4v4h-4zM140 216h4v4h-4zM144 216h4v4h-4zM148 216h4v4h-4zM152 216h4v4h-4zM156 216h4v4h-4zM160 216h4v4h-4zM164 216h4v4h-4zM168 216h4v4h-4z"/><path fill="#476B7B" d="M172 216h4v4h-4zM176 216h4v4h-4zM180 216h4v4h-4zM184 216h4v4h-4z"/><path fill="#5D7F8F" d="M188 216h4v4h-4zM192 216h4v4h-4zM196 216h4v4h-4zM200 216h4v4h-4zM204 216h4v4h-4zM208 216h4v4h-4zM212 216h4v4h-4zM216 216h4v4h-4zM220 216h4v4h-4zM224 216h4v4h-4zM228 216h4v4h-4zM232 216h4v4h-4z"/><path fill="#476B7B" d="M236 216h4v4h-4zM240 216h4v4h-4zM244 216h4v4h-4zM248 216h4v4h-4zM252 216h4v4h-4zM256 216h4v4h-4zM260 216h4v4h-4zM264 216h4v4h-4zM268 216h4v4h-4zM272 216h4v4h-4zM276 216h4v4h-4z"/><path fill="#769FB2" d="M280 216h4v4h-4z"/><path fill="#338C96" d="M284 216h4v4h-4zM76 220h4v4h-4z"/><path fill="#476B7B" d="M80 220h4v4h-4zM84 220h4v4h-4zM88 220h4v4h-4zM92 220h4v4h-4zM96 220h4v4h-4zM100 220h4v4h-4z"/><path fill="#769FB2" d="M104 220h4v4h-4z"/><path fill="#ABF0F1" d="M108 220h4v4h-4zM112 220h4v4h-4zM116 220h4v4h-4z"/><path fill="#476B7B" d="M120 220h4v4h-4zM124 220h4v4h-4zM128 220h4v4h-4zM132 220h4v4h-4z"/><path fill="#5D7F8F" d="M136 220h4v4h-4zM140 220h4v4h-4zM144 220h4v4h-4zM148 220h4v4h-4zM152 220h4v4h-4zM156 220h4v4h-4zM160 220h4v4h-4zM164 220h4v4h-4z"/><path fill="#476B7B" d="M168 220h4v4h-4zM172 220h4v4h-4zM176 220h4v4h-4zM180 220h4v4h-4zM184 220h4v4h-4z"/><path fill="#5D7F8F" d="M188 220h4v4h-4zM192 220h4v4h-4zM196 220h4v4h-4zM200 220h4v4h-4zM204 220h4v4h-4zM208 220h4v4h-4zM212 220h4v4h-4zM216 220h4v4h-4zM220 220h4v4h-4zM224 220h4v4h-4zM228 220h4v4h-4zM232 220h4v4h-4z"/><path fill="#476B7B" d="M236 220h4v4h-4zM240 220h4v4h-4zM244 220h4v4h-4zM248 220h4v4h-4z"/><path fill="#769FB2" d="M252 220h4v4h-4zM256 220h4v4h-4zM260 220h4v4h-4zM264 220h4v4h-4zM268 220h4v4h-4zM272 220h4v4h-4zM276 220h4v4h-4z"/><path fill="#5D7F8F" d="M280 220h4v4h-4z"/><path fill="#338C96" d="M284 220h4v4h-4zM80 224h4v4h-4z"/><path fill="#476B7B" d="M84 224h4v4h-4zM88 224h4v4h-4zM92 224h4v4h-4zM96 224h4v4h-4zM100 224h4v4h-4z"/><path fill="#769FB2" d="M104 224h4v4h-4z"/><path fill="#ABF0F1" d="M108 224h4v4h-4zM112 224h4v4h-4zM116 224h4v4h-4z"/><path fill="#476B7B" d="M120 224h4v4h-4zM124 224h4v4h-4zM128 224h4v4h-4zM132 224h4v4h-4z"/><path fill="#5D7F8F" d="M136 224h4v4h-4zM140 224h4v4h-4zM144 224h4v4h-4zM148 224h4v4h-4zM152 224h4v4h-4zM156 224h4v4h-4zM160 224h4v4h-4zM164 224h4v4h-4zM168 224h4v4h-4z"/><path fill="#476B7B" d="M172 224h4v4h-4zM176 224h4v4h-4zM180 224h4v4h-4zM184 224h4v4h-4z"/><path fill="#5D7F8F" d="M188 224h4v4h-4zM192 224h4v4h-4zM196 224h4v4h-4zM200 224h4v4h-4zM204 224h4v4h-4zM208 224h4v4h-4zM212 224h4v4h-4zM216 224h4v4h-4zM220 224h4v4h-4zM224 224h4v4h-4zM228 224h4v4h-4zM232 224h4v4h-4z"/><path fill="#476B7B" d="M236 224h4v4h-4zM240 224h4v4h-4zM244 224h4v4h-4zM248 224h4v4h-4z"/><path fill="#5D7F8F" d="M252 224h4v4h-4zM256 224h4v4h-4zM260 224h4v4h-4zM264 224h4v4h-4zM268 224h4v4h-4zM272 224h4v4h-4zM276 224h4v4h-4zM280 224h4v4h-4z"/><path fill="#338C96" d="M284 224h4v4h-4zM84 228h4v4h-4z"/><path fill="#476B7B" d="M88 228h4v4h-4zM92 228h4v4h-4zM96 228h4v4h-4zM100 228h4v4h-4z"/><path fill="#769FB2" d="M104 228h4v4h-4z"/><path fill="#ABF0F1" d="M108 228h4v4h-4zM112 228h4v4h-4z"/><path fill="#476B7B" d="M116 228h4v4h-4zM120 228h4v4h-4zM124 228h4v4h-4zM128 228h4v4h-4zM132 228h4v4h-4z"/><path fill="#5D7F8F" d="M136 228h4v4h-4zM140 228h4v4h-4zM144 228h4v4h-4zM148 228h4v4h-4zM152 228h4v4h-4zM156 228h4v4h-4zM160 228h4v4h-4z"/><path fill="#476B7B" d="M164 228h4v4h-4zM168 228h4v4h-4zM172 228h4v4h-4zM176 228h4v4h-4zM180 228h4v4h-4zM184 228h4v4h-4z"/><path fill="#5D7F8F" d="M188 228h4v4h-4zM192 228h4v4h-4zM196 228h4v4h-4zM200 228h4v4h-4zM204 228h4v4h-4zM208 228h4v4h-4zM212 228h4v4h-4zM216 228h4v4h-4zM220 228h4v4h-4zM224 228h4v4h-4zM228 228h4v4h-4zM232 228h4v4h-4z"/><path fill="#476B7B" d="M236 228h4v4h-4zM240 228h4v4h-4zM244 228h4v4h-4zM248 228h4v4h-4z"/><path fill="#5D7F8F" d="M252 228h4v4h-4zM256 228h4v4h-4zM260 228h4v4h-4zM264 228h4v4h-4zM268 228h4v4h-4zM272 228h4v4h-4zM276 228h4v4h-4zM280 228h4v4h-4z"/><path fill="#338C96" d="M284 228h4v4h-4zM84 232h4v4h-4z"/><path fill="#476B7B" d="M88 232h4v4h-4zM92 232h4v4h-4zM96 232h4v4h-4zM100 232h4v4h-4z"/><path fill="#769FB2" d="M104 232h4v4h-4z"/><path fill="#ABF0F1" d="M108 232h4v4h-4z"/><path fill="#476B7B" d="M112 232h4v4h-4zM116 232h4v4h-4zM120 232h4v4h-4zM124 232h4v4h-4zM128 232h4v4h-4zM132 232h4v4h-4zM136 232h4v4h-4zM140 232h4v4h-4zM144 232h4v4h-4zM148 232h4v4h-4zM152 232h4v4h-4zM156 232h4v4h-4zM160 232h4v4h-4z"/><path fill="#769FB2" d="M164 232h4v4h-4zM168 232h4v4h-4z"/><path fill="#476B7B" d="M172 232h4v4h-4zM176 232h4v4h-4zM180 232h4v4h-4zM184 232h4v4h-4z"/><path fill="#5D7F8F" d="M188 232h4v4h-4zM192 232h4v4h-4zM196 232h4v4h-4zM200 232h4v4h-4zM204 232h4v4h-4zM208 232h4v4h-4zM212 232h4v4h-4zM216 232h4v4h-4zM220 232h4v4h-4zM224 232h4v4h-4zM228 232h4v4h-4zM232 232h4v4h-4z"/><path fill="#476B7B" d="M236 232h4v4h-4zM240 232h4v4h-4zM244 232h4v4h-4zM248 232h4v4h-4z"/><path fill="#5D7F8F" d="M252 232h4v4h-4zM256 232h4v4h-4zM260 232h4v4h-4zM264 232h4v4h-4zM268 232h4v4h-4zM272 232h4v4h-4zM276 232h4v4h-4zM280 232h4v4h-4z"/><path fill="#338C96" d="M284 232h4v4h-4zM84 236h4v4h-4z"/><path fill="#476B7B" d="M88 236h4v4h-4zM92 236h4v4h-4zM96 236h4v4h-4zM100 236h4v4h-4z"/><path fill="#5D7F8F" d="M104 236h4v4h-4z"/><path fill="#476B7B" d="M108 236h4v4h-4zM112 236h4v4h-4zM116 236h4v4h-4zM120 236h4v4h-4zM124 236h4v4h-4zM128 236h4v4h-4zM132 236h4v4h-4z"/><path fill="#769FB2" d="M136 236h4v4h-4zM140 236h4v4h-4zM144 236h4v4h-4zM148 236h4v4h-4zM152 236h4v4h-4zM156 236h4v4h-4zM160 236h4v4h-4z"/><path fill="#5D7F8F" d="M164 236h4v4h-4zM168 236h4v4h-4z"/><path fill="#476B7B" d="M172 236h4v4h-4zM176 236h4v4h-4zM180 236h4v4h-4zM184 236h4v4h-4z"/><path fill="#5D7F8F" d="M188 236h4v4h-4zM192 236h4v4h-4zM196 236h4v4h-4zM200 236h4v4h-4zM204 236h4v4h-4zM208 236h4v4h-4zM212 236h4v4h-4zM216 236h4v4h-4zM220 236h4v4h-4zM224 236h4v4h-4zM228 236h4v4h-4zM232 236h4v4h-4z"/><path fill="#476B7B" d="M236 236h4v4h-4zM240 236h4v4h-4zM244 236h4v4h-4zM248 236h4v4h-4z"/><path fill="#5D7F8F" d="M252 236h4v4h-4zM256 236h4v4h-4zM260 236h4v4h-4zM264 236h4v4h-4zM268 236h4v4h-4zM272 236h4v4h-4zM276 236h4v4h-4zM280 236h4v4h-4z"/><path fill="#338C96" d="M284 236h4v4h-4zM84 240h4v4h-4z"/><path fill="#476B7B" d="M88 240h4v4h-4zM92 240h4v4h-4zM96 240h4v4h-4zM100 240h4v4h-4zM104 240h4v4h-4zM108 240h4v4h-4zM112 240h4v4h-4zM116 240h4v4h-4zM120 240h4v4h-4zM124 240h4v4h-4zM128 240h4v4h-4zM132 240h4v4h-4z"/><path fill="#5D7F8F" d="M136 240h4v4h-4zM140 240h4v4h-4zM144 240h4v4h-4zM148 240h4v4h-4zM152 240h4v4h-4zM156 240h4v4h-4zM160 240h4v4h-4zM164 240h4v4h-4zM168 240h4v4h-4z"/><path fill="#476B7B" d="M172 240h4v4h-4zM176 240h4v4h-4zM180 240h4v4h-4zM184 240h4v4h-4z"/><path fill="#5D7F8F" d="M188 240h4v4h-4zM192 240h4v4h-4zM196 240h4v4h-4zM200 240h4v4h-4zM204 240h4v4h-4zM208 240h4v4h-4zM212 240h4v4h-4zM216 240h4v4h-4zM220 240h4v4h-4zM224 240h4v4h-4zM228 240h4v4h-4zM232 240h4v4h-4z"/><path fill="#476B7B" d="M236 240h4v4h-4zM240 240h4v4h-4zM244 240h4v4h-4zM248 240h4v4h-4z"/><path fill="#5D7F8F" d="M252 240h4v4h-4zM256 240h4v4h-4zM260 240h4v4h-4zM264 240h4v4h-4zM268 240h4v4h-4zM272 240h4v4h-4zM276 240h4v4h-4zM280 240h4v4h-4z"/><path fill="#338C96" d="M284 240h4v4h-4zM84 244h4v4h-4z"/><path fill="#476B7B" d="M88 244h4v4h-4zM92 244h4v4h-4zM96 244h4v4h-4zM100 244h4v4h-4zM104 244h4v4h-4zM108 244h4v4h-4zM112 244h4v4h-4zM116 244h4v4h-4zM120 244h4v4h-4zM124 244h4v4h-4zM128 244h4v4h-4zM132 244h4v4h-4z"/><path fill="#5D7F8F" d="M136 244h4v4h-4zM140 244h4v4h-4zM144 244h4v4h-4zM148 244h4v4h-4zM152 244h4v4h-4zM156 244h4v4h-4zM160 244h4v4h-4zM164 244h4v4h-4zM168 244h4v4h-4z"/><path fill="#476B7B" d="M172 244h4v4h-4zM176 244h4v4h-4zM180 244h4v4h-4zM184 244h4v4h-4z"/><path fill="#5D7F8F" d="M188 244h4v4h-4zM192 244h4v4h-4zM196 244h4v4h-4zM200 244h4v4h-4zM204 244h4v4h-4zM208 244h4v4h-4zM212 244h4v4h-4zM216 244h4v4h-4zM220 244h4v4h-4zM224 244h4v4h-4zM228 244h4v4h-4zM232 244h4v4h-4z"/><path fill="#476B7B" d="M236 244h4v4h-4zM240 244h4v4h-4zM244 244h4v4h-4z"/><path fill="#5D7F8F" d="M248 244h4v4h-4zM252 244h4v4h-4zM256 244h4v4h-4zM260 244h4v4h-4zM264 244h4v4h-4zM268 244h4v4h-4zM272 244h4v4h-4zM276 244h4v4h-4zM280 244h4v4h-4z"/><path fill="#338C96" d="M284 244h4v4h-4zM84 248h4v4h-4z"/><path fill="#476B7B" d="M88 248h4v4h-4zM92 248h4v4h-4zM96 248h4v4h-4zM100 248h4v4h-4zM104 248h4v4h-4zM108 248h4v4h-4zM112 248h4v4h-4zM116 248h4v4h-4zM120 248h4v4h-4zM124 248h4v4h-4zM128 248h4v4h-4zM132 248h4v4h-4z"/><path fill="#5D7F8F" d="M136 248h4v4h-4zM140 248h4v4h-4zM144 248h4v4h-4zM148 248h4v4h-4zM152 248h4v4h-4zM156 248h4v4h-4zM160 248h4v4h-4zM164 248h4v4h-4zM168 248h4v4h-4z"/><path fill="#476B7B" d="M172 248h4v4h-4zM176 248h4v4h-4zM180 248h4v4h-4zM184 248h4v4h-4z"/><path fill="#5D7F8F" d="M188 248h4v4h-4zM192 248h4v4h-4zM196 248h4v4h-4zM200 248h4v4h-4zM204 248h4v4h-4zM208 248h4v4h-4zM212 248h4v4h-4zM216 248h4v4h-4zM220 248h4v4h-4zM224 248h4v4h-4zM228 248h4v4h-4zM232 248h4v4h-4z"/><path fill="#476B7B" d="M236 248h4v4h-4zM240 248h4v4h-4zM244 248h4v4h-4z"/><path fill="#5D7F8F" d="M248 248h4v4h-4zM252 248h4v4h-4zM256 248h4v4h-4zM260 248h4v4h-4zM264 248h4v4h-4zM268 248h4v4h-4zM272 248h4v4h-4zM276 248h4v4h-4zM280 248h4v4h-4z"/><path fill="#338C96" d="M284 248h4v4h-4zM84 252h4v4h-4z"/><path fill="#476B7B" d="M88 252h4v4h-4zM92 252h4v4h-4zM96 252h4v4h-4zM100 252h4v4h-4zM104 252h4v4h-4zM108 252h4v4h-4zM112 252h4v4h-4zM116 252h4v4h-4zM120 252h4v4h-4zM124 252h4v4h-4zM128 252h4v4h-4zM132 252h4v4h-4z"/><path fill="#5D7F8F" d="M136 252h4v4h-4zM140 252h4v4h-4zM144 252h4v4h-4zM148 252h4v4h-4zM152 252h4v4h-4zM156 252h4v4h-4zM160 252h4v4h-4zM164 252h4v4h-4zM168 252h4v4h-4z"/><path fill="#476B7B" d="M172 252h4v4h-4zM176 252h4v4h-4zM180 252h4v4h-4zM184 252h4v4h-4z"/><path fill="#5D7F8F" d="M188 252h4v4h-4zM192 252h4v4h-4zM196 252h4v4h-4zM200 252h4v4h-4zM204 252h4v4h-4zM208 252h4v4h-4zM212 252h4v4h-4zM216 252h4v4h-4zM220 252h4v4h-4zM224 252h4v4h-4zM228 252h4v4h-4zM232 252h4v4h-4z"/><path fill="#476B7B" d="M236 252h4v4h-4zM240 252h4v4h-4zM244 252h4v4h-4z"/><path fill="#5D7F8F" d="M248 252h4v4h-4zM252 252h4v4h-4zM256 252h4v4h-4zM260 252h4v4h-4zM264 252h4v4h-4zM268 252h4v4h-4zM272 252h4v4h-4zM276 252h4v4h-4zM280 252h4v4h-4z"/><path fill="#338C96" d="M284 252h4v4h-4zM84 256h4v4h-4z"/><path fill="#476B7B" d="M88 256h4v4h-4zM92 256h4v4h-4zM96 256h4v4h-4zM100 256h4v4h-4zM104 256h4v4h-4zM108 256h4v4h-4zM112 256h4v4h-4zM116 256h4v4h-4zM120 256h4v4h-4zM124 256h4v4h-4zM128 256h4v4h-4zM132 256h4v4h-4z"/><path fill="#5D7F8F" d="M136 256h4v4h-4zM140 256h4v4h-4zM144 256h4v4h-4zM148 256h4v4h-4zM152 256h4v4h-4zM156 256h4v4h-4zM160 256h4v4h-4zM164 256h4v4h-4zM168 256h4v4h-4z"/><path fill="#476B7B" d="M172 256h4v4h-4zM176 256h4v4h-4zM180 256h4v4h-4zM184 256h4v4h-4z"/><path fill="#5D7F8F" d="M188 256h4v4h-4zM192 256h4v4h-4zM196 256h4v4h-4zM200 256h4v4h-4zM204 256h4v4h-4zM208 256h4v4h-4zM212 256h4v4h-4zM216 256h4v4h-4zM220 256h4v4h-4zM224 256h4v4h-4zM228 256h4v4h-4zM232 256h4v4h-4z"/><path fill="#476B7B" d="M236 256h4v4h-4zM240 256h4v4h-4zM244 256h4v4h-4z"/><path fill="#5D7F8F" d="M248 256h4v4h-4zM252 256h4v4h-4zM256 256h4v4h-4zM260 256h4v4h-4zM264 256h4v4h-4zM268 256h4v4h-4zM272 256h4v4h-4zM276 256h4v4h-4zM280 256h4v4h-4z"/><path fill="#338C96" d="M284 256h4v4h-4zM84 260h4v4h-4z"/><path fill="#476B7B" d="M88 260h4v4h-4zM92 260h4v4h-4zM96 260h4v4h-4zM100 260h4v4h-4zM104 260h4v4h-4zM108 260h4v4h-4zM112 260h4v4h-4zM116 260h4v4h-4zM120 260h4v4h-4zM124 260h4v4h-4zM128 260h4v4h-4zM132 260h4v4h-4z"/><path fill="#5D7F8F" d="M136 260h4v4h-4zM140 260h4v4h-4zM144 260h4v4h-4zM148 260h4v4h-4zM152 260h4v4h-4zM156 260h4v4h-4zM160 260h4v4h-4zM164 260h4v4h-4zM168 260h4v4h-4z"/><path fill="#476B7B" d="M172 260h4v4h-4zM176 260h4v4h-4zM180 260h4v4h-4zM184 260h4v4h-4z"/><path fill="#5D7F8F" d="M188 260h4v4h-4zM192 260h4v4h-4zM196 260h4v4h-4zM200 260h4v4h-4zM204 260h4v4h-4zM208 260h4v4h-4zM212 260h4v4h-4zM216 260h4v4h-4zM220 260h4v4h-4zM224 260h4v4h-4zM228 260h4v4h-4zM232 260h4v4h-4z"/><path fill="#476B7B" d="M236 260h4v4h-4zM240 260h4v4h-4zM244 260h4v4h-4z"/><path fill="#5D7F8F" d="M248 260h4v4h-4zM252 260h4v4h-4zM256 260h4v4h-4zM260 260h4v4h-4zM264 260h4v4h-4zM268 260h4v4h-4zM272 260h4v4h-4zM276 260h4v4h-4zM280 260h4v4h-4z"/><path fill="#338C96" d="M284 260h4v4h-4zM84 264h4v4h-4z"/><path fill="#476B7B" d="M88 264h4v4h-4zM92 264h4v4h-4zM96 264h4v4h-4zM100 264h4v4h-4zM104 264h4v4h-4zM108 264h4v4h-4zM112 264h4v4h-4zM116 264h4v4h-4zM120 264h4v4h-4zM124 264h4v4h-4zM128 264h4v4h-4zM132 264h4v4h-4z"/><path fill="#5D7F8F" d="M136 264h4v4h-4zM140 264h4v4h-4zM144 264h4v4h-4zM148 264h4v4h-4zM152 264h4v4h-4zM156 264h4v4h-4zM160 264h4v4h-4zM164 264h4v4h-4zM168 264h4v4h-4z"/><path fill="#476B7B" d="M172 264h4v4h-4zM176 264h4v4h-4zM180 264h4v4h-4zM184 264h4v4h-4z"/><path fill="#5D7F8F" d="M188 264h4v4h-4zM192 264h4v4h-4zM196 264h4v4h-4zM200 264h4v4h-4zM204 264h4v4h-4zM208 264h4v4h-4zM212 264h4v4h-4zM216 264h4v4h-4zM220 264h4v4h-4zM224 264h4v4h-4zM228 264h4v4h-4zM232 264h4v4h-4z"/><path fill="#476B7B" d="M236 264h4v4h-4zM240 264h4v4h-4zM244 264h4v4h-4z"/><path fill="#5D7F8F" d="M248 264h4v4h-4zM252 264h4v4h-4zM256 264h4v4h-4zM260 264h4v4h-4zM264 264h4v4h-4zM268 264h4v4h-4zM272 264h4v4h-4zM276 264h4v4h-4zM280 264h4v4h-4z"/><path fill="#338C96" d="M284 264h4v4h-4zM88 268h4v4h-4z"/><path fill="#476B7B" d="M92 268h4v4h-4zM96 268h4v4h-4zM100 268h4v4h-4zM104 268h4v4h-4zM108 268h4v4h-4zM112 268h4v4h-4zM116 268h4v4h-4zM120 268h4v4h-4zM124 268h4v4h-4zM128 268h4v4h-4zM132 268h4v4h-4z"/><path fill="#5D7F8F" d="M136 268h4v4h-4zM140 268h4v4h-4zM144 268h4v4h-4zM148 268h4v4h-4zM152 268h4v4h-4zM156 268h4v4h-4zM160 268h4v4h-4zM164 268h4v4h-4zM168 268h4v4h-4z"/><path fill="#476B7B" d="M172 268h4v4h-4zM176 268h4v4h-4zM180 268h4v4h-4zM184 268h4v4h-4z"/><path fill="#5D7F8F" d="M188 268h4v4h-4zM192 268h4v4h-4zM196 268h4v4h-4zM200 268h4v4h-4zM204 268h4v4h-4zM208 268h4v4h-4zM212 268h4v4h-4zM216 268h4v4h-4zM220 268h4v4h-4zM224 268h4v4h-4zM228 268h4v4h-4zM232 268h4v4h-4zM236 268h4v4h-4z"/><path fill="#476B7B" d="M240 268h4v4h-4z"/><path fill="#5D7F8F" d="M244 268h4v4h-4zM248 268h4v4h-4zM252 268h4v4h-4zM256 268h4v4h-4zM260 268h4v4h-4zM264 268h4v4h-4zM268 268h4v4h-4zM272 268h4v4h-4zM276 268h4v4h-4zM280 268h4v4h-4z"/><path fill="#338C96" d="M284 268h4v4h-4zM92 272h4v4h-4z"/><path fill="#476B7B" d="M96 272h4v4h-4zM100 272h4v4h-4zM104 272h4v4h-4zM108 272h4v4h-4zM112 272h4v4h-4zM116 272h4v4h-4zM120 272h4v4h-4zM124 272h4v4h-4zM128 272h4v4h-4zM132 272h4v4h-4z"/><path fill="#5D7F8F" d="M136 272h4v4h-4zM140 272h4v4h-4zM144 272h4v4h-4zM148 272h4v4h-4zM152 272h4v4h-4zM156 272h4v4h-4zM160 272h4v4h-4zM164 272h4v4h-4zM168 272h4v4h-4zM172 272h4v4h-4z"/><path fill="#476B7B" d="M176 272h4v4h-4zM180 272h4v4h-4zM184 272h4v4h-4z"/><path fill="#5D7F8F" d="M188 272h4v4h-4zM192 272h4v4h-4zM196 272h4v4h-4zM200 272h4v4h-4zM204 272h4v4h-4zM208 272h4v4h-4zM212 272h4v4h-4zM216 272h4v4h-4zM220 272h4v4h-4zM224 272h4v4h-4zM228 272h4v4h-4zM232 272h4v4h-4zM236 272h4v4h-4z"/><path fill="#476B7B" d="M240 272h4v4h-4z"/><path fill="#5D7F8F" d="M244 272h4v4h-4zM248 272h4v4h-4zM252 272h4v4h-4zM256 272h4v4h-4zM260 272h4v4h-4zM264 272h4v4h-4zM268 272h4v4h-4zM272 272h4v4h-4zM276 272h4v4h-4zM280 272h4v4h-4z"/><path fill="#338C96" d="M284 272h4v4h-4zM96 276h4v4h-4z"/><path fill="#476B7B" d="M100 276h4v4h-4zM104 276h4v4h-4zM108 276h4v4h-4zM112 276h4v4h-4zM116 276h4v4h-4zM120 276h4v4h-4zM124 276h4v4h-4zM128 276h4v4h-4zM132 276h4v4h-4z"/><path fill="#5D7F8F" d="M136 276h4v4h-4zM140 276h4v4h-4zM144 276h4v4h-4zM148 276h4v4h-4zM152 276h4v4h-4zM156 276h4v4h-4zM160 276h4v4h-4zM164 276h4v4h-4zM168 276h4v4h-4zM172 276h4v4h-4z"/><path fill="#476B7B" d="M176 276h4v4h-4zM180 276h4v4h-4zM184 276h4v4h-4z"/><path fill="#5D7F8F" d="M188 276h4v4h-4zM192 276h4v4h-4zM196 276h4v4h-4zM200 276h4v4h-4zM204 276h4v4h-4zM208 276h4v4h-4zM212 276h4v4h-4zM216 276h4v4h-4zM220 276h4v4h-4zM224 276h4v4h-4zM228 276h4v4h-4zM232 276h4v4h-4zM236 276h4v4h-4z"/><path fill="#476B7B" d="M240 276h4v4h-4z"/><path fill="#5D7F8F" d="M244 276h4v4h-4zM248 276h4v4h-4zM252 276h4v4h-4zM256 276h4v4h-4zM260 276h4v4h-4zM264 276h4v4h-4zM268 276h4v4h-4zM272 276h4v4h-4zM276 276h4v4h-4zM280 276h4v4h-4z"/><path fill="#338C96" d="M284 276h4v4h-4zM100 280h4v4h-4z"/><path fill="#476B7B" d="M104 280h4v4h-4zM108 280h4v4h-4zM112 280h4v4h-4zM116 280h4v4h-4zM120 280h4v4h-4zM124 280h4v4h-4zM128 280h4v4h-4zM132 280h4v4h-4z"/><path fill="#5D7F8F" d="M136 280h4v4h-4zM140 280h4v4h-4zM144 280h4v4h-4zM148 280h4v4h-4zM152 280h4v4h-4zM156 280h4v4h-4zM160 280h4v4h-4zM164 280h4v4h-4zM168 280h4v4h-4zM172 280h4v4h-4z"/><path fill="#476B7B" d="M176 280h4v4h-4zM180 280h4v4h-4zM184 280h4v4h-4z"/><path fill="#5D7F8F" d="M188 280h4v4h-4zM192 280h4v4h-4zM196 280h4v4h-4zM200 280h4v4h-4zM204 280h4v4h-4zM208 280h4v4h-4zM212 280h4v4h-4zM216 280h4v4h-4zM220 280h4v4h-4zM224 280h4v4h-4zM228 280h4v4h-4zM232 280h4v4h-4zM236 280h4v4h-4z"/><path fill="#476B7B" d="M240 280h4v4h-4z"/><path fill="#5D7F8F" d="M244 280h4v4h-4zM248 280h4v4h-4zM252 280h4v4h-4zM256 280h4v4h-4zM260 280h4v4h-4zM264 280h4v4h-4zM268 280h4v4h-4zM272 280h4v4h-4zM276 280h4v4h-4zM280 280h4v4h-4z"/><path fill="#338C96" d="M284 280h4v4h-4zM104 284h4v4h-4z"/><path fill="#476B7B" d="M108 284h4v4h-4zM112 284h4v4h-4zM116 284h4v4h-4zM120 284h4v4h-4zM124 284h4v4h-4zM128 284h4v4h-4zM132 284h4v4h-4z"/><path fill="#5D7F8F" d="M136 284h4v4h-4zM140 284h4v4h-4zM144 284h4v4h-4zM148 284h4v4h-4zM152 284h4v4h-4zM156 284h4v4h-4zM160 284h4v4h-4zM164 284h4v4h-4zM168 284h4v4h-4zM172 284h4v4h-4z"/><path fill="#476B7B" d="M176 284h4v4h-4zM180 284h4v4h-4zM184 284h4v4h-4z"/><path fill="#5D7F8F" d="M188 284h4v4h-4zM192 284h4v4h-4zM196 284h4v4h-4zM200 284h4v4h-4zM204 284h4v4h-4zM208 284h4v4h-4zM212 284h4v4h-4zM216 284h4v4h-4zM220 284h4v4h-4zM224 284h4v4h-4zM228 284h4v4h-4zM232 284h4v4h-4zM236 284h4v4h-4z"/><path fill="#476B7B" d="M240 284h4v4h-4z"/><path fill="#5D7F8F" d="M244 284h4v4h-4zM248 284h4v4h-4zM252 284h4v4h-4zM256 284h4v4h-4zM260 284h4v4h-4zM264 284h4v4h-4zM268 284h4v4h-4zM272 284h4v4h-4zM276 284h4v4h-4z"/><path fill="#338C96" d="M280 284h4v4h-4zM108 288h4v4h-4z"/><path fill="#476B7B" d="M112 288h4v4h-4zM116 288h4v4h-4zM120 288h4v4h-4zM124 288h4v4h-4zM128 288h4v4h-4zM132 288h4v4h-4z"/><path fill="#5D7F8F" d="M136 288h4v4h-4zM140 288h4v4h-4zM144 288h4v4h-4zM148 288h4v4h-4zM152 288h4v4h-4zM156 288h4v4h-4zM160 288h4v4h-4zM164 288h4v4h-4zM168 288h4v4h-4zM172 288h4v4h-4z"/><path fill="#476B7B" d="M176 288h4v4h-4z"/><path fill="#ABF0F1" d="M180 288h4v4h-4z"/><path fill="#476B7B" d="M184 288h4v4h-4z"/><path fill="#5D7F8F" d="M188 288h4v4h-4zM192 288h4v4h-4zM196 288h4v4h-4zM200 288h4v4h-4zM204 288h4v4h-4zM208 288h4v4h-4zM212 288h4v4h-4zM216 288h4v4h-4zM220 288h4v4h-4zM224 288h4v4h-4zM228 288h4v4h-4zM232 288h4v4h-4zM236 288h4v4h-4z"/><path fill="#476B7B" d="M240 288h4v4h-4z"/><path fill="#5D7F8F" d="M244 288h4v4h-4zM248 288h4v4h-4zM252 288h4v4h-4zM256 288h4v4h-4zM260 288h4v4h-4zM264 288h4v4h-4zM268 288h4v4h-4zM272 288h4v4h-4z"/><path fill="#338C96" d="M276 288h4v4h-4z"/><path fill="#ABF0F1" d="M104 292h4v4h-4zM108 292h4v4h-4zM112 292h4v4h-4z"/><path fill="#476B7B" d="M116 292h4v4h-4zM120 292h4v4h-4zM124 292h4v4h-4zM128 292h4v4h-4zM132 292h4v4h-4z"/><path fill="#5D7F8F" d="M136 292h4v4h-4zM140 292h4v4h-4zM144 292h4v4h-4zM148 292h4v4h-4zM152 292h4v4h-4zM156 292h4v4h-4zM160 292h4v4h-4zM164 292h4v4h-4zM168 292h4v4h-4zM172 292h4v4h-4z"/><path fill="#476B7B" d="M176 292h4v4h-4z"/><path fill="#ABF0F1" d="M180 292h4v4h-4z"/><path fill="#476B7B" d="M184 292h4v4h-4z"/><path fill="#5D7F8F" d="M188 292h4v4h-4zM192 292h4v4h-4zM196 292h4v4h-4zM200 292h4v4h-4zM204 292h4v4h-4zM208 292h4v4h-4zM212 292h4v4h-4zM216 292h4v4h-4zM220 292h4v4h-4zM224 292h4v4h-4zM228 292h4v4h-4zM232 292h4v4h-4zM236 292h4v4h-4z"/><path fill="#476B7B" d="M240 292h4v4h-4z"/><path fill="#5D7F8F" d="M244 292h4v4h-4z"/><path fill="#338C96" d="M248 292h4v4h-4z"/><path fill="#ABF0F1" d="M252 292h4v4h-4zM256 292h4v4h-4zM260 292h4v4h-4zM264 292h4v4h-4z"/><path fill="#338C96" d="M268 292h4v4h-4zM272 292h4v4h-4z"/><path fill="#ABF0F1" d="M100 296h4v4h-4zM104 296h4v4h-4zM108 296h4v4h-4zM112 296h4v4h-4zM116 296h4v4h-4z"/><path fill="#476B7B" d="M120 296h4v4h-4zM124 296h4v4h-4zM128 296h4v4h-4zM132 296h4v4h-4z"/><path fill="#5D7F8F" d="M136 296h4v4h-4zM140 296h4v4h-4zM144 296h4v4h-4zM148 296h4v4h-4zM152 296h4v4h-4zM156 296h4v4h-4zM160 296h4v4h-4zM164 296h4v4h-4zM168 296h4v4h-4zM172 296h4v4h-4z"/><path fill="#476B7B" d="M176 296h4v4h-4z"/><path fill="#ABF0F1" d="M180 296h4v4h-4z"/><path fill="#476B7B" d="M184 296h4v4h-4z"/><path fill="#5D7F8F" d="M188 296h4v4h-4zM192 296h4v4h-4zM196 296h4v4h-4zM200 296h4v4h-4zM204 296h4v4h-4zM208 296h4v4h-4zM212 296h4v4h-4zM216 296h4v4h-4z"/><path fill="#338C96" d="M220 296h4v4h-4zM224 296h4v4h-4zM228 296h4v4h-4zM232 296h4v4h-4zM236 296h4v4h-4zM240 296h4v4h-4zM244 296h4v4h-4z"/><path fill="#ABF0F1" d="M248 296h4v4h-4z"/><path fill="#338C96" d="M252 296h4v4h-4z"/><path fill="#ABF0F1" d="M256 296h4v4h-4zM260 296h4v4h-4zM264 296h4v4h-4z"/><path fill="#338C96" d="M268 296h4v4h-4z"/><path fill="#ABF0F1" d="M100 300h4v4h-4zM104 300h4v4h-4zM108 300h4v4h-4zM112 300h4v4h-4zM116 300h4v4h-4zM120 300h4v4h-4z"/><path fill="#476B7B" d="M124 300h4v4h-4zM128 300h4v4h-4zM132 300h4v4h-4z"/><path fill="#5D7F8F" d="M136 300h4v4h-4z"/><path fill="#476B7B" d="M140 300h4v4h-4z"/><path fill="#5D7F8F" d="M144 300h4v4h-4zM148 300h4v4h-4zM152 300h4v4h-4zM156 300h4v4h-4zM160 300h4v4h-4zM164 300h4v4h-4zM168 300h4v4h-4zM172 300h4v4h-4z"/><path fill="#476B7B" d="M176 300h4v4h-4z"/><path fill="#ABF0F1" d="M180 300h4v4h-4z"/><path fill="#476B7B" d="M184 300h4v4h-4z"/><path fill="#5D7F8F" d="M188 300h4v4h-4z"/><path fill="#338C96" d="M192 300h4v4h-4zM196 300h4v4h-4zM200 300h4v4h-4zM204 300h4v4h-4zM208 300h4v4h-4zM212 300h4v4h-4zM216 300h4v4h-4zM240 300h4v4h-4z"/><path fill="#ABF0F1" d="M244 300h4v4h-4zM248 300h4v4h-4zM252 300h4v4h-4zM256 300h4v4h-4zM260 300h4v4h-4z"/><path fill="#338C96" d="M264 300h4v4h-4z"/><path fill="#ABF0F1" d="M96 304h4v4h-4zM100 304h4v4h-4zM104 304h4v4h-4zM108 304h4v4h-4zM112 304h4v4h-4zM116 304h4v4h-4zM120 304h4v4h-4zM124 304h4v4h-4zM128 304h4v4h-4z"/><path fill="#476B7B" d="M132 304h4v4h-4z"/><path fill="#ABF0F1" d="M136 304h4v4h-4z"/><path fill="#476B7B" d="M140 304h4v4h-4z"/><path fill="#ABF0F1" d="M144 304h4v4h-4zM148 304h4v4h-4zM152 304h4v4h-4z"/><path fill="#338C96" d="M156 304h4v4h-4zM160 304h4v4h-4zM164 304h4v4h-4zM168 304h4v4h-4zM172 304h4v4h-4zM176 304h4v4h-4zM180 304h4v4h-4zM184 304h4v4h-4zM188 304h4v4h-4zM240 304h4v4h-4z"/><path fill="#ABF0F1" d="M244 304h4v4h-4zM248 304h4v4h-4zM252 304h4v4h-4zM256 304h4v4h-4z"/><path fill="#338C96" d="M260 304h4v4h-4z"/><path fill="#ABF0F1" d="M100 308h4v4h-4zM104 308h4v4h-4zM108 308h4v4h-4zM112 308h4v4h-4zM116 308h4v4h-4zM120 308h4v4h-4zM124 308h4v4h-4zM128 308h4v4h-4zM132 308h4v4h-4zM136 308h4v4h-4z"/><path fill="#476B7B" d="M140 308h4v4h-4zM144 308h4v4h-4zM148 308h4v4h-4z"/><path fill="#ABF0F1" d="M152 308h4v4h-4z"/><path fill="#338C96" d="M156 308h4v4h-4zM240 308h4v4h-4z"/><path fill="#ABF0F1" d="M244 308h4v4h-4zM248 308h4v4h-4zM252 308h4v4h-4z"/><path fill="#338C96" d="M256 308h4v4h-4z"/><path fill="#ABF0F1" d="M104 312h4v4h-4zM108 312h4v4h-4zM112 312h4v4h-4zM116 312h4v4h-4zM120 312h4v4h-4zM124 312h4v4h-4zM128 312h4v4h-4zM132 312h4v4h-4zM136 312h4v4h-4z"/><path fill="#476B7B" d="M140 312h4v4h-4zM144 312h4v4h-4zM148 312h4v4h-4zM152 312h4v4h-4zM156 312h4v4h-4z"/><path fill="#338C96" d="M160 312h4v4h-4zM236 312h4v4h-4z"/><path fill="#ABF0F1" d="M240 312h4v4h-4zM244 312h4v4h-4zM248 312h4v4h-4z"/><path fill="#338C96" d="M252 312h4v4h-4z"/><path fill="#ABF0F1" d="M104 316h4v4h-4zM108 316h4v4h-4zM112 316h4v4h-4zM116 316h4v4h-4zM120 316h4v4h-4zM124 316h4v4h-4zM128 316h4v4h-4zM132 316h4v4h-4zM136 316h4v4h-4zM140 316h4v4h-4z"/><path fill="#476B7B" d="M144 316h4v4h-4zM148 316h4v4h-4zM152 316h4v4h-4zM156 316h4v4h-4zM160 316h4v4h-4z"/><path fill="#338C96" d="M164 316h4v4h-4zM240 316h4v4h-4zM244 316h4v4h-4zM248 316h4v4h-4z"/><path fill="#ABF0F1" d="M104 320h4v4h-4zM108 320h4v4h-4zM112 320h4v4h-4zM116 320h4v4h-4zM120 320h4v4h-4zM124 320h4v4h-4zM128 320h4v4h-4zM132 320h4v4h-4zM136 320h4v4h-4zM140 320h4v4h-4zM144 320h4v4h-4z"/><path fill="#476B7B" d="M148 320h4v4h-4zM152 320h4v4h-4zM156 320h4v4h-4zM160 320h4v4h-4z"/><path fill="#338C96" d="M164 320h4v4h-4zM168 320h4v4h-4zM176 320h4v4h-4z"/><path fill="#ABF0F1" d="M104 324h4v4h-4zM108 324h4v4h-4zM112 324h4v4h-4zM116 324h4v4h-4zM120 324h4v4h-4zM124 324h4v4h-4zM128 324h4v4h-4zM132 324h4v4h-4zM136 324h4v4h-4zM140 324h4v4h-4zM144 324h4v4h-4zM148 324h4v4h-4z"/><path fill="#476B7B" d="M152 324h4v4h-4zM156 324h4v4h-4zM160 324h4v4h-4z"/><path fill="#ABF0F1" d="M164 324h4v4h-4zM168 324h4v4h-4z"/><path fill="#338C96" d="M172 324h4v4h-4z"/><path fill="#ABF0F1" d="M104 328h4v4h-4zM108 328h4v4h-4zM112 328h4v4h-4zM116 328h4v4h-4zM120 328h4v4h-4zM124 328h4v4h-4zM128 328h4v4h-4zM132 328h4v4h-4zM136 328h4v4h-4zM140 328h4v4h-4zM144 328h4v4h-4zM148 328h4v4h-4zM152 328h4v4h-4z"/><path fill="#476B7B" d="M156 328h4v4h-4zM160 328h4v4h-4zM164 328h4v4h-4z"/><path fill="#ABF0F1" d="M168 328h4v4h-4zM104 332h4v4h-4zM108 332h4v4h-4zM112 332h4v4h-4zM116 332h4v4h-4zM120 332h4v4h-4zM128 332h4v4h-4zM132 332h4v4h-4zM148 332h4v4h-4zM152 332h4v4h-4zM156 332h4v4h-4zM160 332h4v4h-4z"/><path fill="#476B7B" d="M164 332h4v4h-4zM168 332h4v4h-4z"/><path fill="#ABF0F1" d="M92 336h4v4h-4zM104 336h4v4h-4zM108 336h4v4h-4zM112 336h4v4h-4zM116 336h4v4h-4zM152 336h4v4h-4zM156 336h4v4h-4zM160 336h4v4h-4zM164 336h4v4h-4zM168 336h4v4h-4zM88 340h4v4h-4zM92 340h4v4h-4zM104 340h4v4h-4zM108 340h4v4h-4zM112 340h4v4h-4zM156 340h4v4h-4zM160 340h4v4h-4zM164 340h4v4h-4zM168 340h4v4h-4zM88 344h4v4h-4zM92 344h4v4h-4zM104 344h4v4h-4zM108 344h4v4h-4zM104 348h4v4h-4z"/></svg>