<svg width="384" height="384" xmlns="http://www.w3.org/2000/svg" shape-rendering="crispEdges"><path fill="#88633B" d="M116 108h4v4h-4zM120 108h4v4h-4zM124 108h4v4h-4zM128 108h4v4h-4zM132 108h4v4h-4zM136 108h4v4h-4zM140 108h4v4h-4zM144 108h4v4h-4zM148 108h4v4h-4zM112 112h4v4h-4z"/><path fill="#C7945F" d="M116 112h4v4h-4zM120 112h4v4h-4zM124 112h4v4h-4zM128 112h4v4h-4zM132 112h4v4h-4z"/><path fill="#A8845E" d="M136 112h4v4h-4zM140 112h4v4h-4zM144 112h4v4h-4zM148 112h4v4h-4z"/><path fill="#88633B" d="M152 112h4v4h-4zM156 112h4v4h-4zM160 112h4v4h-4zM164 112h4v4h-4zM168 112h4v4h-4zM104 116h4v4h-4zM108 116h4v4h-4z"/><path fill="#C7945F" d="M112 116h4v4h-4zM116 116h4v4h-4z"/><path fill="#A8845E" d="M120 116h4v4h-4zM124 116h4v4h-4zM128 116h4v4h-4zM132 116h4v4h-4z"/><path fill="#C7945F" d="M136 116h4v4h-4zM140 116h4v4h-4zM144 116h4v4h-4zM148 116h4v4h-4zM152 116h4v4h-4zM156 116h4v4h-4zM160 116h4v4h-4zM164 116h4v4h-4zM168 116h4v4h-4z"/><path fill="#88633B" d="M172 116h4v4h-4zM176 116h4v4h-4zM180 116h4v4h-4zM184 116h4v4h-4zM96 120h4v4h-4zM100 120h4v4h-4z"/><path fill="#A8845E" d="M104 120h4v4h-4zM108 120h4v4h-4zM112 120h4v4h-4zM116 120h4v4h-4z"/><path fill="#C7945F" d="M120 120h4v4h-4z"/><path fill="#E6AB6C" d="M124 120h4v4h-4zM128 120h4v4h-4z"/><path fill="#C7945F" d="M132 120h4v4h-4zM136 120h4v4h-4zM140 120h4v4h-4z"/><path fill="#E6AB6C" d="M144 120h4v4h-4zM148 120h4v4h-4zM152 120h4v4h-4zM156 120h4v4h-4zM160 120h4v4h-4zM164 120h4v4h-4z"/><path fill="#C7945F" d="M168 120h4v4h-4zM172 120h4v4h-4zM176 120h4v4h-4zM180 120h4v4h-4zM184 120h4v4h-4z"/><path fill="#88633B" d="M188 120h4v4h-4zM192 120h4v4h-4zM92 124h4v4h-4z"/><path fill="#A8845E" d="M96 124h4v4h-4zM100 124h4v4h-4z"/><path fill="#C7945F" d="M104 124h4v4h-4zM108 124h4v4h-4zM112 124h4v4h-4zM116 124h4v4h-4z"/><path fill="#E6AB6C" d="M120 124h4v4h-4zM124 124h4v4h-4zM128 124h4v4h-4zM132 124h4v4h-4zM136 124h4v4h-4zM140 124h4v4h-4zM144 124h4v4h-4zM148 124h4v4h-4zM152 124h4v4h-4zM156 124h4v4h-4zM160 124h4v4h-4z"/><path fill="#F7C086" d="M164 124h4v4h-4zM168 124h4v4h-4z"/><path fill="#E6AB6C" d="M172 124h4v4h-4z"/><path fill="#C7945F" d="M176 124h4v4h-4zM180 124h4v4h-4zM184 124h4v4h-4zM188 124h4v4h-4zM192 124h4v4h-4z"/><path fill="#88633B" d="M196 124h4v4h-4zM88 128h4v4h-4z"/><path fill="#A8845E" d="M92 128h4v4h-4z"/><path fill="#C7945F" d="M96 128h4v4h-4zM100 128h4v4h-4zM104 128h4v4h-4zM108 128h4v4h-4zM112 128h4v4h-4zM116 128h4v4h-4zM120 128h4v4h-4z"/><path fill="#E6AB6C" d="M124 128h4v4h-4zM128 128h4v4h-4zM132 128h4v4h-4zM136 128h4v4h-4zM140 128h4v4h-4zM144 128h4v4h-4z"/><path fill="#C7945F" d="M148 128h4v4h-4zM152 128h4v4h-4z"/><path fill="#E6AB6C" d="M156 128h4v4h-4zM160 128h4v4h-4zM164 128h4v4h-4zM168 128h4v4h-4zM172 128h4v4h-4z"/><path fill="#A8845E" d="M176 128h4v4h-4zM180 128h4v4h-4zM184 128h4v4h-4zM188 128h4v4h-4zM192 128h4v4h-4zM196 128h4v4h-4z"/><path fill="#88633B" d="M200 128h4v4h-4zM204 128h4v4h-4zM88 132h4v4h-4z"/><path fill="#C7945F" d="M92 132h4v4h-4zM96 132h4v4h-4zM100 132h4v4h-4zM104 132h4v4h-4zM108 132h4v4h-4zM112 132h4v4h-4zM116 132h4v4h-4zM120 132h4v4h-4z"/><path fill="#E6AB6C" d="M124 132h4v4h-4zM128 132h4v4h-4zM132 132h4v4h-4zM136 132h4v4h-4zM140 132h4v4h-4z"/><path fill="#C7945F" d="M144 132h4v4h-4zM148 132h4v4h-4zM152 132h4v4h-4z"/><path fill="#E6AB6C" d="M156 132h4v4h-4z"/><path fill="#F7C086" d="M160 132h4v4h-4zM164 132h4v4h-4zM168 132h4v4h-4zM172 132h4v4h-4zM176 132h4v4h-4z"/><path fill="#E6AB6C" d="M180 132h4v4h-4zM184 132h4v4h-4z"/><path fill="#C7945F" d="M188 132h4v4h-4zM192 132h4v4h-4zM196 132h4v4h-4zM200 132h4v4h-4zM204 132h4v4h-4z"/><path fill="#88633B" d="M208 132h4v4h-4zM84 136h4v4h-4z"/><path fill="#C7945F" d="M88 136h4v4h-4zM92 136h4v4h-4zM96 136h4v4h-4zM100 136h4v4h-4zM104 136h4v4h-4zM108 136h4v4h-4zM112 136h4v4h-4zM116 136h4v4h-4zM120 136h4v4h-4zM124 136h4v4h-4z"/><path fill="#E6AB6C" d="M128 136h4v4h-4z"/><path fill="#A8845E" d="M132 136h4v4h-4zM136 136h4v4h-4zM140 136h4v4h-4zM144 136h4v4h-4z"/><path fill="#E6AB6C" d="M148 136h4v4h-4zM152 136h4v4h-4zM156 136h4v4h-4zM160 136h4v4h-4z"/><path fill="#F7C086" d="M164 136h4v4h-4zM168 136h4v4h-4zM172 136h4v4h-4zM176 136h4v4h-4zM180 136h4v4h-4z"/><path fill="#E6AB6C" d="M184 136h4v4h-4zM188 136h4v4h-4zM192 136h4v4h-4z"/><path fill="#C7945F" d="M196 136h4v4h-4zM200 136h4v4h-4zM204 136h4v4h-4zM208 136h4v4h-4z"/><path fill="#88633B" d="M212 136h4v4h-4zM84 140h4v4h-4z"/><path fill="#C7945F" d="M88 140h4v4h-4zM92 140h4v4h-4zM96 140h4v4h-4zM100 140h4v4h-4zM104 140h4v4h-4zM108 140h4v4h-4zM112 140h4v4h-4zM116 140h4v4h-4z"/><path fill="#A8845E" d="M120 140h4v4h-4zM124 140h4v4h-4zM128 140h4v4h-4zM132 140h4v4h-4zM136 140h4v4h-4z"/><path fill="#E6AB6C" d="M140 140h4v4h-4zM144 140h4v4h-4zM148 140h4v4h-4z"/><path fill="#583E2F" d="M152 140h4v4h-4z"/><path fill="#EBB205" d="M156 140h4v4h-4z"/><path fill="#583E2F" d="M160 140h4v4h-4z"/><path fill="#E6AB6C" d="M164 140h4v4h-4z"/><path fill="#F7C086" d="M168 140h4v4h-4zM172 140h4v4h-4zM176 140h4v4h-4zM180 140h4v4h-4zM184 140h4v4h-4z"/><path fill="#E6AB6C" d="M188 140h4v4h-4zM192 140h4v4h-4zM196 140h4v4h-4zM200 140h4v4h-4z"/><path fill="#C7945F" d="M204 140h4v4h-4zM208 140h4v4h-4zM212 140h4v4h-4z"/><path fill="#88633B" d="M216 140h4v4h-4zM80 144h4v4h-4z"/><path fill="#C7945F" d="M84 144h4v4h-4zM88 144h4v4h-4zM92 144h4v4h-4zM96 144h4v4h-4zM100 144h4v4h-4zM104 144h4v4h-4zM108 144h4v4h-4zM112 144h4v4h-4z"/><path fill="#A8845E" d="M116 144h4v4h-4zM120 144h4v4h-4zM124 144h4v4h-4z"/><path fill="#C7945F" d="M128 144h4v4h-4z"/><path fill="#E6AB6C" d="M132 144h4v4h-4zM136 144h4v4h-4zM140 144h4v4h-4zM144 144h4v4h-4z"/><path fill="#583E2F" d="M148 144h4v4h-4z"/><path fill="#EBB205" d="M152 144h4v4h-4zM156 144h4v4h-4z"/><path fill="#583E2F" d="M160 144h4v4h-4z"/><path fill="#E6AB6C" d="M164 144h4v4h-4zM168 144h4v4h-4z"/><path fill="#F7C086" d="M172 144h4v4h-4zM176 144h4v4h-4zM180 144h4v4h-4z"/><path fill="#E6AB6C" d="M184 144h4v4h-4zM188 144h4v4h-4z"/><path fill="#A8845E" d="M192 144h4v4h-4zM196 144h4v4h-4zM200 144h4v4h-4zM204 144h4v4h-4zM208 144h4v4h-4zM212 144h4v4h-4z"/><path fill="#88633B" d="M216 144h4v4h-4zM220 144h4v4h-4zM80 148h4v4h-4z"/><path fill="#C7945F" d="M84 148h4v4h-4zM88 148h4v4h-4zM92 148h4v4h-4zM96 148h4v4h-4zM100 148h4v4h-4zM104 148h4v4h-4z"/><path fill="#A8845E" d="M108 148h4v4h-4zM112 148h4v4h-4zM116 148h4v4h-4z"/><path fill="#C7945F" d="M120 148h4v4h-4zM124 148h4v4h-4zM128 148h4v4h-4zM132 148h4v4h-4z"/><path fill="#E6AB6C" d="M136 148h4v4h-4zM140 148h4v4h-4zM144 148h4v4h-4zM148 148h4v4h-4zM152 148h4v4h-4zM156 148h4v4h-4z"/><path fill="#C7945F" d="M160 148h4v4h-4zM164 148h4v4h-4zM168 148h4v4h-4zM172 148h4v4h-4zM176 148h4v4h-4zM180 148h4v4h-4z"/><path fill="#F7C086" d="M184 148h4v4h-4zM188 148h4v4h-4zM192 148h4v4h-4zM196 148h4v4h-4z"/><path fill="#E6AB6C" d="M200 148h4v4h-4zM204 148h4v4h-4zM208 148h4v4h-4z"/><path fill="#C7945F" d="M212 148h4v4h-4zM216 148h4v4h-4zM220 148h4v4h-4z"/><path fill="#88633B" d="M224 148h4v4h-4zM76 152h4v4h-4z"/><path fill="#C7945F" d="M80 152h4v4h-4zM84 152h4v4h-4zM88 152h4v4h-4zM92 152h4v4h-4zM96 152h4v4h-4z"/><path fill="#A8845E" d="M100 152h4v4h-4zM104 152h4v4h-4zM108 152h4v4h-4z"/><path fill="#C7945F" d="M112 152h4v4h-4zM116 152h4v4h-4zM120 152h4v4h-4zM124 152h4v4h-4zM128 152h4v4h-4zM132 152h4v4h-4zM136 152h4v4h-4z"/><path fill="#E6AB6C" d="M140 152h4v4h-4zM144 152h4v4h-4zM148 152h4v4h-4z"/><path fill="#A8845E" d="M152 152h4v4h-4zM156 152h4v4h-4z"/><path fill="#C7945F" d="M160 152h4v4h-4zM164 152h4v4h-4zM168 152h4v4h-4z"/><path fill="#E6AB6C" d="M172 152h4v4h-4zM176 152h4v4h-4z"/><path fill="#F7C086" d="M180 152h4v4h-4zM184 152h4v4h-4zM188 152h4v4h-4zM192 152h4v4h-4zM196 152h4v4h-4zM200 152h4v4h-4z"/><path fill="#E6AB6C" d="M204 152h4v4h-4zM208 152h4v4h-4zM212 152h4v4h-4z"/><path fill="#C7945F" d="M216 152h4v4h-4zM220 152h4v4h-4zM224 152h4v4h-4z"/><path fill="#88633B" d="M228 152h4v4h-4zM76 156h4v4h-4z"/><path fill="#C7945F" d="M80 156h4v4h-4zM84 156h4v4h-4zM88 156h4v4h-4zM92 156h4v4h-4z"/><path fill="#A8845E" d="M96 156h4v4h-4zM100 156h4v4h-4z"/><path fill="#C7945F" d="M104 156h4v4h-4zM108 156h4v4h-4zM112 156h4v4h-4zM116 156h4v4h-4zM120 156h4v4h-4zM124 156h4v4h-4zM128 156h4v4h-4zM132 156h4v4h-4zM136 156h4v4h-4zM140 156h4v4h-4z"/><path fill="#A8845E" d="M144 156h4v4h-4zM148 156h4v4h-4z"/><path fill="#E6AB6C" d="M152 156h4v4h-4zM156 156h4v4h-4zM160 156h4v4h-4zM164 156h4v4h-4zM168 156h4v4h-4zM172 156h4v4h-4zM176 156h4v4h-4zM180 156h4v4h-4z"/><path fill="#F7C086" d="M184 156h4v4h-4zM188 156h4v4h-4zM192 156h4v4h-4zM196 156h4v4h-4zM200 156h4v4h-4zM204 156h4v4h-4z"/><path fill="#E6AB6C" d="M208 156h4v4h-4zM212 156h4v4h-4zM216 156h4v4h-4z"/><path fill="#C7945F" d="M220 156h4v4h-4zM224 156h4v4h-4zM228 156h4v4h-4z"/><path fill="#88633B" d="M232 156h4v4h-4zM76 160h4v4h-4z"/><path fill="#C7945F" d="M80 160h4v4h-4zM84 160h4v4h-4z"/><path fill="#A8845E" d="M88 160h4v4h-4zM92 160h4v4h-4z"/><path fill="#C7945F" d="M96 160h4v4h-4zM100 160h4v4h-4zM104 160h4v4h-4zM108 160h4v4h-4zM112 160h4v4h-4zM116 160h4v4h-4zM120 160h4v4h-4zM124 160h4v4h-4zM128 160h4v4h-4z"/><path fill="#A8845E" d="M132 160h4v4h-4zM136 160h4v4h-4zM140 160h4v4h-4z"/><path fill="#E6AB6C" d="M144 160h4v4h-4zM148 160h4v4h-4zM152 160h4v4h-4zM156 160h4v4h-4zM160 160h4v4h-4zM164 160h4v4h-4zM168 160h4v4h-4zM172 160h4v4h-4zM176 160h4v4h-4zM180 160h4v4h-4zM184 160h4v4h-4zM188 160h4v4h-4z"/><path fill="#F7C086" d="M192 160h4v4h-4zM196 160h4v4h-4zM200 160h4v4h-4zM204 160h4v4h-4z"/><path fill="#E6AB6C" d="M208 160h4v4h-4zM212 160h4v4h-4zM216 160h4v4h-4zM220 160h4v4h-4z"/><path fill="#C7945F" d="M224 160h4v4h-4zM228 160h4v4h-4z"/><path fill="#88633B" d="M232 160h4v4h-4zM72 164h4v4h-4z"/><path fill="#C7945F" d="M76 164h4v4h-4zM80 164h4v4h-4z"/><path fill="#A8845E" d="M84 164h4v4h-4z"/><path fill="#C7945F" d="M88 164h4v4h-4zM92 164h4v4h-4zM96 164h4v4h-4zM100 164h4v4h-4zM104 164h4v4h-4zM108 164h4v4h-4zM112 164h4v4h-4zM116 164h4v4h-4zM120 164h4v4h-4z"/><path fill="#A8845E" d="M124 164h4v4h-4zM128 164h4v4h-4zM132 164h4v4h-4z"/><path fill="#C7945F" d="M136 164h4v4h-4zM140 164h4v4h-4z"/><path fill="#E6AB6C" d="M144 164h4v4h-4zM148 164h4v4h-4zM152 164h4v4h-4zM156 164h4v4h-4zM160 164h4v4h-4zM164 164h4v4h-4zM168 164h4v4h-4zM172 164h4v4h-4zM176 164h4v4h-4zM180 164h4v4h-4zM184 164h4v4h-4z"/><path fill="#C7945F" d="M188 164h4v4h-4zM192 164h4v4h-4zM196 164h4v4h-4zM200 164h4v4h-4z"/><path fill="#E6AB6C" d="M204 164h4v4h-4zM208 164h4v4h-4z"/><path fill="#A8845E" d="M212 164h4v4h-4zM216 164h4v4h-4zM220 164h4v4h-4zM224 164h4v4h-4zM228 164h4v4h-4z"/><path fill="#88633B" d="M232 164h4v4h-4zM236 164h4v4h-4zM72 168h4v4h-4z"/><path fill="#C7945F" d="M76 168h4v4h-4z"/><path fill="#A8845E" d="M80 168h4v4h-4z"/><path fill="#E6AB6C" d="M84 168h4v4h-4zM88 168h4v4h-4z"/><path fill="#C7945F" d="M92 168h4v4h-4zM96 168h4v4h-4zM100 168h4v4h-4zM104 168h4v4h-4zM108 168h4v4h-4zM112 168h4v4h-4z"/><path fill="#A8845E" d="M116 168h4v4h-4zM120 168h4v4h-4zM124 168h4v4h-4z"/><path fill="#C7945F" d="M128 168h4v4h-4zM132 168h4v4h-4zM136 168h4v4h-4zM140 168h4v4h-4z"/><path fill="#E6AB6C" d="M144 168h4v4h-4zM148 168h4v4h-4zM152 168h4v4h-4zM156 168h4v4h-4zM160 168h4v4h-4zM164 168h4v4h-4zM168 168h4v4h-4zM172 168h4v4h-4z"/><path fill="#C7945F" d="M176 168h4v4h-4zM180 168h4v4h-4zM184 168h4v4h-4zM188 168h4v4h-4zM192 168h4v4h-4zM196 168h4v4h-4zM200 168h4v4h-4z"/><path fill="#E6AB6C" d="M204 168h4v4h-4z"/><path fill="#F7C086" d="M208 168h4v4h-4z"/><path fill="#E6AB6C" d="M212 168h4v4h-4zM216 168h4v4h-4zM220 168h4v4h-4zM224 168h4v4h-4zM228 168h4v4h-4z"/><path fill="#C7945F" d="M232 168h4v4h-4zM236 168h4v4h-4z"/><path fill="#88633B" d="M240 168h4v4h-4zM72 172h4v4h-4z"/><path fill="#A8845E" d="M76 172h4v4h-4z"/><path fill="#E6AB6C" d="M80 172h4v4h-4zM84 172h4v4h-4zM88 172h4v4h-4z"/><path fill="#C7945F" d="M92 172h4v4h-4zM96 172h4v4h-4zM100 172h4v4h-4zM104 172h4v4h-4z"/><path fill="#A8845E" d="M108 172h4v4h-4zM112 172h4v4h-4zM116 172h4v4h-4z"/><path fill="#C7945F" d="M120 172h4v4h-4zM124 172h4v4h-4zM128 172h4v4h-4zM132 172h4v4h-4zM136 172h4v4h-4zM140 172h4v4h-4zM144 172h4v4h-4z"/><path fill="#E6AB6C" d="M148 172h4v4h-4zM152 172h4v4h-4zM156 172h4v4h-4z"/><path fill="#A8845E" d="M160 172h4v4h-4zM164 172h4v4h-4zM168 172h4v4h-4zM172 172h4v4h-4z"/><path fill="#C7945F" d="M176 172h4v4h-4zM180 172h4v4h-4z"/><path fill="#E6AB6C" d="M184 172h4v4h-4zM188 172h4v4h-4zM192 172h4v4h-4z"/><path fill="#F7C086" d="M196 172h4v4h-4zM200 172h4v4h-4zM204 172h4v4h-4zM208 172h4v4h-4zM212 172h4v4h-4z"/><path fill="#E6AB6C" d="M216 172h4v4h-4zM220 172h4v4h-4zM224 172h4v4h-4zM228 172h4v4h-4zM232 172h4v4h-4z"/><path fill="#C7945F" d="M236 172h4v4h-4zM240 172h4v4h-4z"/><path fill="#88633B" d="M244 172h4v4h-4z"/><path fill="#583E2F" d="M68 176h4v4h-4z"/><path fill="#EBB205" d="M72 176h4v4h-4z"/><path fill="#583E2F" d="M76 176h4v4h-4z"/><path fill="#E6AB6C" d="M80 176h4v4h-4zM84 176h4v4h-4zM88 176h4v4h-4z"/><path fill="#C7945F" d="M92 176h4v4h-4zM96 176h4v4h-4z"/><path fill="#A8845E" d="M100 176h4v4h-4zM104 176h4v4h-4zM108 176h4v4h-4z"/><path fill="#C7945F" d="M112 176h4v4h-4zM116 176h4v4h-4zM120 176h4v4h-4z"/><path fill="#E6AB6C" d="M124 176h4v4h-4zM128 176h4v4h-4zM132 176h4v4h-4zM136 176h4v4h-4z"/><path fill="#C7945F" d="M140 176h4v4h-4zM144 176h4v4h-4z"/><path fill="#A8845E" d="M148 176h4v4h-4zM152 176h4v4h-4zM156 176h4v4h-4zM160 176h4v4h-4zM164 176h4v4h-4zM168 176h4v4h-4z"/><path fill="#E6AB6C" d="M172 176h4v4h-4zM176 176h4v4h-4zM180 176h4v4h-4zM184 176h4v4h-4zM188 176h4v4h-4zM192 176h4v4h-4zM196 176h4v4h-4z"/><path fill="#F7C086" d="M200 176h4v4h-4zM204 176h4v4h-4zM208 176h4v4h-4zM212 176h4v4h-4z"/><path fill="#E6AB6C" d="M216 176h4v4h-4zM220 176h4v4h-4zM224 176h4v4h-4zM228 176h4v4h-4zM232 176h4v4h-4z"/><path fill="#C7945F" d="M236 176h4v4h-4zM240 176h4v4h-4zM244 176h4v4h-4z"/><path fill="#88633B" d="M248 176h4v4h-4z"/><path fill="#583E2F" d="M64 180h4v4h-4z"/><path fill="#EBB205" d="M68 180h4v4h-4zM72 180h4v4h-4z"/><path fill="#583E2F" d="M76 180h4v4h-4z"/><path fill="#E6AB6C" d="M80 180h4v4h-4zM84 180h4v4h-4zM88 180h4v4h-4z"/><path fill="#C7945F" d="M92 180h4v4h-4z"/><path fill="#A8845E" d="M96 180h4v4h-4zM100 180h4v4h-4z"/><path fill="#C7945F" d="M104 180h4v4h-4zM108 180h4v4h-4zM112 180h4v4h-4z"/><path fill="#E6AB6C" d="M116 180h4v4h-4zM120 180h4v4h-4z"/><path fill="#865D34" d="M124 180h4v4h-4zM128 180h4v4h-4zM132 180h4v4h-4zM136 180h4v4h-4z"/><path fill="#E6AB6C" d="M140 180h4v4h-4zM144 180h4v4h-4zM148 180h4v4h-4z"/><path fill="#A8845E" d="M152 180h4v4h-4zM156 180h4v4h-4z"/><path fill="#E6AB6C" d="M160 180h4v4h-4zM164 180h4v4h-4zM168 180h4v4h-4zM172 180h4v4h-4zM176 180h4v4h-4zM180 180h4v4h-4zM184 180h4v4h-4zM188 180h4v4h-4zM192 180h4v4h-4zM196 180h4v4h-4z"/><path fill="#F7C086" d="M200 180h4v4h-4zM204 180h4v4h-4zM208 180h4v4h-4zM212 180h4v4h-4zM216 180h4v4h-4z"/><path fill="#E6AB6C" d="M220 180h4v4h-4zM224 180h4v4h-4zM228 180h4v4h-4zM232 180h4v4h-4z"/><path fill="#C7945F" d="M236 180h4v4h-4zM240 180h4v4h-4zM244 180h4v4h-4z"/><path fill="#88633B" d="M248 180h4v4h-4z"/><path fill="#583E2F" d="M64 184h4v4h-4z"/><path fill="#EBB205" d="M68 184h4v4h-4zM72 184h4v4h-4z"/><path fill="#583E2F" d="M76 184h4v4h-4z"/><path fill="#E6AB6C" d="M80 184h4v4h-4zM84 184h4v4h-4z"/><path fill="#C7945F" d="M88 184h4v4h-4z"/><path fill="#A8845E" d="M92 184h4v4h-4zM96 184h4v4h-4z"/><path fill="#C7945F" d="M100 184h4v4h-4zM104 184h4v4h-4zM108 184h4v4h-4zM112 184h4v4h-4z"/><path fill="#865D34" d="M116 184h4v4h-4zM120 184h4v4h-4zM124 184h4v4h-4zM128 184h4v4h-4zM132 184h4v4h-4zM136 184h4v4h-4z"/><path fill="#F6A247" d="M140 184h4v4h-4z"/><path fill="#A8845E" d="M144 184h4v4h-4z"/><path fill="#C7945F" d="M148 184h4v4h-4zM152 184h4v4h-4z"/><path fill="#E6AB6C" d="M156 184h4v4h-4zM160 184h4v4h-4zM164 184h4v4h-4zM168 184h4v4h-4zM172 184h4v4h-4zM176 184h4v4h-4zM180 184h4v4h-4zM184 184h4v4h-4zM188 184h4v4h-4zM192 184h4v4h-4zM196 184h4v4h-4zM200 184h4v4h-4z"/><path fill="#F7C086" d="M204 184h4v4h-4zM208 184h4v4h-4z"/><path fill="#C7945F" d="M212 184h4v4h-4zM216 184h4v4h-4z"/><path fill="#E6AB6C" d="M220 184h4v4h-4zM224 184h4v4h-4z"/><path fill="#A8845E" d="M228 184h4v4h-4zM232 184h4v4h-4zM236 184h4v4h-4zM240 184h4v4h-4z"/><path fill="#C7945F" d="M244 184h4v4h-4z"/><path fill="#88633B" d="M248 184h4v4h-4zM68 188h4v4h-4z"/><path fill="#C7945F" d="M72 188h4v4h-4z"/><path fill="#E6AB6C" d="M76 188h4v4h-4zM80 188h4v4h-4z"/><path fill="#C7945F" d="M84 188h4v4h-4z"/><path fill="#A8845E" d="M88 188h4v4h-4z"/><path fill="#C7945F" d="M92 188h4v4h-4zM96 188h4v4h-4zM100 188h4v4h-4zM104 188h4v4h-4zM108 188h4v4h-4zM112 188h4v4h-4z"/><path fill="#865D34" d="M116 188h4v4h-4zM120 188h4v4h-4zM124 188h4v4h-4zM128 188h4v4h-4z"/><path fill="#F6A247" d="M132 188h4v4h-4z"/><path fill="#FFD367" d="M136 188h4v4h-4z"/><path fill="#C7945F" d="M140 188h4v4h-4zM144 188h4v4h-4zM148 188h4v4h-4zM152 188h4v4h-4zM156 188h4v4h-4z"/><path fill="#E6AB6C" d="M160 188h4v4h-4zM164 188h4v4h-4zM168 188h4v4h-4zM172 188h4v4h-4zM176 188h4v4h-4zM180 188h4v4h-4zM184 188h4v4h-4z"/><path fill="#C7945F" d="M188 188h4v4h-4zM192 188h4v4h-4zM196 188h4v4h-4zM200 188h4v4h-4zM204 188h4v4h-4zM208 188h4v4h-4z"/><path fill="#F7C086" d="M212 188h4v4h-4zM216 188h4v4h-4zM220 188h4v4h-4z"/><path fill="#E6AB6C" d="M224 188h4v4h-4zM228 188h4v4h-4zM232 188h4v4h-4zM236 188h4v4h-4z"/><path fill="#C7945F" d="M240 188h4v4h-4z"/><path fill="#A8845E" d="M244 188h4v4h-4zM248 188h4v4h-4z"/><path fill="#88633B" d="M252 188h4v4h-4zM68 192h4v4h-4z"/><path fill="#C7945F" d="M72 192h4v4h-4zM76 192h4v4h-4zM80 192h4v4h-4zM84 192h4v4h-4zM88 192h4v4h-4zM92 192h4v4h-4zM96 192h4v4h-4zM100 192h4v4h-4zM104 192h4v4h-4zM108 192h4v4h-4zM112 192h4v4h-4z"/><path fill="#865D34" d="M116 192h4v4h-4zM120 192h4v4h-4z"/><path fill="#F6A247" d="M124 192h4v4h-4z"/><path fill="#FFC435" d="M128 192h4v4h-4z"/><path fill="#C7945F" d="M132 192h4v4h-4zM136 192h4v4h-4zM140 192h4v4h-4zM144 192h4v4h-4zM148 192h4v4h-4zM152 192h4v4h-4zM156 192h4v4h-4z"/><path fill="#E6AB6C" d="M160 192h4v4h-4zM164 192h4v4h-4zM168 192h4v4h-4zM172 192h4v4h-4z"/><path fill="#A8845E" d="M176 192h4v4h-4zM180 192h4v4h-4z"/><path fill="#C7945F" d="M184 192h4v4h-4zM188 192h4v4h-4z"/><path fill="#E6AB6C" d="M192 192h4v4h-4zM196 192h4v4h-4zM200 192h4v4h-4zM204 192h4v4h-4z"/><path fill="#F7C086" d="M208 192h4v4h-4zM212 192h4v4h-4zM216 192h4v4h-4zM220 192h4v4h-4z"/><path fill="#E6AB6C" d="M224 192h4v4h-4zM228 192h4v4h-4zM232 192h4v4h-4zM236 192h4v4h-4zM240 192h4v4h-4z"/><path fill="#C7945F" d="M244 192h4v4h-4zM248 192h4v4h-4z"/><path fill="#88633B" d="M252 192h4v4h-4zM68 196h4v4h-4z"/><path fill="#A8845E" d="M72 196h4v4h-4z"/><path fill="#C7945F" d="M76 196h4v4h-4zM80 196h4v4h-4z"/><path fill="#E6AB6C" d="M84 196h4v4h-4z"/><path fill="#C7945F" d="M88 196h4v4h-4zM92 196h4v4h-4zM96 196h4v4h-4zM100 196h4v4h-4zM104 196h4v4h-4z"/><path fill="#A8845E" d="M108 196h4v4h-4zM112 196h4v4h-4z"/><path fill="#F6A247" d="M116 196h4v4h-4zM120 196h4v4h-4z"/><path fill="#C7945F" d="M124 196h4v4h-4z"/><path fill="#F6A247" d="M128 196h4v4h-4z"/><path fill="#C7945F" d="M132 196h4v4h-4zM136 196h4v4h-4zM140 196h4v4h-4zM144 196h4v4h-4zM148 196h4v4h-4zM152 196h4v4h-4zM156 196h4v4h-4zM160 196h4v4h-4z"/><path fill="#A8845E" d="M164 196h4v4h-4zM168 196h4v4h-4zM172 196h4v4h-4zM176 196h4v4h-4z"/><path fill="#E6AB6C" d="M180 196h4v4h-4zM184 196h4v4h-4zM188 196h4v4h-4zM192 196h4v4h-4zM196 196h4v4h-4zM200 196h4v4h-4zM204 196h4v4h-4z"/><path fill="#F7C086" d="M208 196h4v4h-4zM212 196h4v4h-4zM216 196h4v4h-4zM220 196h4v4h-4zM224 196h4v4h-4z"/><path fill="#E6AB6C" d="M228 196h4v4h-4zM232 196h4v4h-4zM236 196h4v4h-4zM240 196h4v4h-4z"/><path fill="#C7945F" d="M244 196h4v4h-4zM248 196h4v4h-4zM252 196h4v4h-4z"/><path fill="#88633B" d="M256 196h4v4h-4zM68 200h4v4h-4z"/><path fill="#A8845E" d="M72 200h4v4h-4zM76 200h4v4h-4z"/><path fill="#E6AB6C" d="M80 200h4v4h-4zM84 200h4v4h-4z"/><path fill="#C7945F" d="M88 200h4v4h-4zM92 200h4v4h-4zM96 200h4v4h-4zM100 200h4v4h-4z"/><path fill="#A8845E" d="M104 200h4v4h-4zM108 200h4v4h-4zM112 200h4v4h-4z"/><path fill="#F6A247" d="M116 200h4v4h-4z"/><path fill="#FFD367" d="M120 200h4v4h-4z"/><path fill="#C7945F" d="M124 200h4v4h-4zM128 200h4v4h-4zM132 200h4v4h-4zM136 200h4v4h-4zM140 200h4v4h-4zM144 200h4v4h-4zM148 200h4v4h-4z"/><path fill="#A8845E" d="M152 200h4v4h-4zM156 200h4v4h-4zM160 200h4v4h-4zM164 200h4v4h-4z"/><path fill="#E6AB6C" d="M168 200h4v4h-4zM172 200h4v4h-4zM176 200h4v4h-4zM180 200h4v4h-4zM184 200h4v4h-4zM188 200h4v4h-4zM192 200h4v4h-4zM196 200h4v4h-4zM200 200h4v4h-4zM204 200h4v4h-4zM208 200h4v4h-4z"/><path fill="#F7C086" d="M212 200h4v4h-4zM216 200h4v4h-4zM220 200h4v4h-4zM224 200h4v4h-4z"/><path fill="#E6AB6C" d="M228 200h4v4h-4zM232 200h4v4h-4z"/><path fill="#A8845E" d="M236 200h4v4h-4zM240 200h4v4h-4zM244 200h4v4h-4zM248 200h4v4h-4zM252 200h4v4h-4z"/><path fill="#88633B" d="M256 200h4v4h-4zM72 204h4v4h-4z"/><path fill="#C7945F" d="M76 204h4v4h-4z"/><path fill="#E6AB6C" d="M80 204h4v4h-4zM84 204h4v4h-4zM88 204h4v4h-4z"/><path fill="#C7945F" d="M92 204h4v4h-4z"/><path fill="#A8845E" d="M96 204h4v4h-4zM100 204h4v4h-4zM104 204h4v4h-4zM108 204h4v4h-4z"/><path fill="#C7945F" d="M112 204h4v4h-4zM116 204h4v4h-4z"/><path fill="#FFD367" d="M120 204h4v4h-4z"/><path fill="#C7945F" d="M124 204h4v4h-4zM128 204h4v4h-4zM132 204h4v4h-4zM136 204h4v4h-4z"/><path fill="#A8845E" d="M140 204h4v4h-4zM144 204h4v4h-4zM148 204h4v4h-4zM152 204h4v4h-4z"/><path fill="#C7945F" d="M156 204h4v4h-4zM160 204h4v4h-4zM164 204h4v4h-4z"/><path fill="#E6AB6C" d="M168 204h4v4h-4zM172 204h4v4h-4zM176 204h4v4h-4zM180 204h4v4h-4zM184 204h4v4h-4zM188 204h4v4h-4zM192 204h4v4h-4zM196 204h4v4h-4zM200 204h4v4h-4zM204 204h4v4h-4zM208 204h4v4h-4z"/><path fill="#F7C086" d="M212 204h4v4h-4z"/><path fill="#C7945F" d="M216 204h4v4h-4zM220 204h4v4h-4zM224 204h4v4h-4z"/><path fill="#E6AB6C" d="M228 204h4v4h-4zM232 204h4v4h-4z"/><path fill="#A8845E" d="M236 204h4v4h-4zM240 204h4v4h-4zM244 204h4v4h-4zM248 204h4v4h-4zM252 204h4v4h-4z"/><path fill="#88633B" d="M256 204h4v4h-4zM72 208h4v4h-4z"/><path fill="#C7945F" d="M76 208h4v4h-4z"/><path fill="#E6AB6C" d="M80 208h4v4h-4zM84 208h4v4h-4zM88 208h4v4h-4z"/><path fill="#A8845E" d="M92 208h4v4h-4zM96 208h4v4h-4zM100 208h4v4h-4z"/><path fill="#C7945F" d="M104 208h4v4h-4zM108 208h4v4h-4zM112 208h4v4h-4zM116 208h4v4h-4z"/><path fill="#F6A247" d="M120 208h4v4h-4z"/><path fill="#C7945F" d="M124 208h4v4h-4zM128 208h4v4h-4zM132 208h4v4h-4z"/><path fill="#A8845E" d="M136 208h4v4h-4zM140 208h4v4h-4zM144 208h4v4h-4z"/><path fill="#C7945F" d="M148 208h4v4h-4zM152 208h4v4h-4zM156 208h4v4h-4zM160 208h4v4h-4zM164 208h4v4h-4z"/><path fill="#E6AB6C" d="M168 208h4v4h-4zM172 208h4v4h-4zM176 208h4v4h-4zM180 208h4v4h-4zM184 208h4v4h-4zM188 208h4v4h-4zM192 208h4v4h-4z"/><path fill="#C7945F" d="M196 208h4v4h-4zM200 208h4v4h-4zM204 208h4v4h-4zM208 208h4v4h-4zM212 208h4v4h-4zM216 208h4v4h-4zM220 208h4v4h-4zM224 208h4v4h-4z"/><path fill="#E6AB6C" d="M228 208h4v4h-4zM232 208h4v4h-4zM236 208h4v4h-4zM240 208h4v4h-4z"/><path fill="#C7945F" d="M244 208h4v4h-4zM248 208h4v4h-4zM252 208h4v4h-4zM256 208h4v4h-4z"/><path fill="#88633B" d="M260 208h4v4h-4zM72 212h4v4h-4z"/><path fill="#C7945F" d="M76 212h4v4h-4z"/><path fill="#E6AB6C" d="M80 212h4v4h-4zM84 212h4v4h-4z"/><path fill="#C7945F" d="M88 212h4v4h-4zM92 212h4v4h-4z"/><path fill="#A8845E" d="M96 212h4v4h-4z"/><path fill="#C7945F" d="M100 212h4v4h-4zM104 212h4v4h-4zM108 212h4v4h-4zM112 212h4v4h-4zM116 212h4v4h-4zM120 212h4v4h-4zM124 212h4v4h-4z"/><path fill="#A8845E" d="M128 212h4v4h-4zM132 212h4v4h-4zM136 212h4v4h-4z"/><path fill="#C7945F" d="M140 212h4v4h-4zM144 212h4v4h-4zM148 212h4v4h-4zM152 212h4v4h-4zM156 212h4v4h-4zM160 212h4v4h-4zM164 212h4v4h-4zM168 212h4v4h-4z"/><path fill="#E6AB6C" d="M172 212h4v4h-4zM176 212h4v4h-4zM180 212h4v4h-4z"/><path fill="#A8845E" d="M184 212h4v4h-4zM188 212h4v4h-4z"/><path fill="#C7945F" d="M192 212h4v4h-4zM196 212h4v4h-4zM200 212h4v4h-4zM204 212h4v4h-4zM208 212h4v4h-4zM212 212h4v4h-4zM216 212h4v4h-4z"/><path fill="#F7C086" d="M220 212h4v4h-4zM224 212h4v4h-4z"/><path fill="#E6AB6C" d="M228 212h4v4h-4zM232 212h4v4h-4zM236 212h4v4h-4zM240 212h4v4h-4z"/><path fill="#C7945F" d="M244 212h4v4h-4zM248 212h4v4h-4zM252 212h4v4h-4zM256 212h4v4h-4z"/><path fill="#88633B" d="M260 212h4v4h-4zM72 216h4v4h-4z"/><path fill="#C7945F" d="M76 216h4v4h-4z"/><path fill="#E6AB6C" d="M80 216h4v4h-4z"/><path fill="#C7945F" d="M84 216h4v4h-4zM88 216h4v4h-4z"/><path fill="#A8845E" d="M92 216h4v4h-4z"/><path fill="#C7945F" d="M96 216h4v4h-4zM100 216h4v4h-4zM104 216h4v4h-4zM108 216h4v4h-4zM112 216h4v4h-4zM116 216h4v4h-4z"/><path fill="#A8845E" d="M120 216h4v4h-4zM124 216h4v4h-4zM128 216h4v4h-4zM132 216h4v4h-4z"/><path fill="#C7945F" d="M136 216h4v4h-4zM140 216h4v4h-4zM144 216h4v4h-4zM148 216h4v4h-4zM152 216h4v4h-4zM156 216h4v4h-4zM160 216h4v4h-4zM164 216h4v4h-4zM168 216h4v4h-4z"/><path fill="#E6AB6C" d="M172 216h4v4h-4z"/><path fill="#A8845E" d="M176 216h4v4h-4zM180 216h4v4h-4z"/><path fill="#E6AB6C" d="M184 216h4v4h-4zM188 216h4v4h-4z"/><path fill="#C7945F" d="M192 216h4v4h-4zM196 216h4v4h-4zM200 216h4v4h-4z"/><path fill="#E6AB6C" d="M204 216h4v4h-4zM208 216h4v4h-4z"/><path fill="#F7C086" d="M212 216h4v4h-4zM216 216h4v4h-4zM220 216h4v4h-4zM224 216h4v4h-4z"/><path fill="#E6AB6C" d="M228 216h4v4h-4zM232 216h4v4h-4zM236 216h4v4h-4zM240 216h4v4h-4z"/><path fill="#C7945F" d="M244 216h4v4h-4zM248 216h4v4h-4zM252 216h4v4h-4zM256 216h4v4h-4z"/><path fill="#88633B" d="M260 216h4v4h-4zM72 220h4v4h-4z"/><path fill="#C7945F" d="M76 220h4v4h-4zM80 220h4v4h-4zM84 220h4v4h-4zM88 220h4v4h-4z"/><path fill="#E6AB6C" d="M92 220h4v4h-4z"/><path fill="#C7945F" d="M96 220h4v4h-4zM100 220h4v4h-4zM104 220h4v4h-4zM108 220h4v4h-4zM112 220h4v4h-4z"/><path fill="#A8845E" d="M116 220h4v4h-4zM120 220h4v4h-4zM124 220h4v4h-4z"/><path fill="#C7945F" d="M128 220h4v4h-4zM132 220h4v4h-4zM136 220h4v4h-4zM140 220h4v4h-4zM144 220h4v4h-4zM148 220h4v4h-4zM152 220h4v4h-4zM156 220h4v4h-4zM160 220h4v4h-4zM164 220h4v4h-4z"/><path fill="#A8845E" d="M168 220h4v4h-4zM172 220h4v4h-4zM176 220h4v4h-4zM180 220h4v4h-4z"/><path fill="#E6AB6C" d="M184 220h4v4h-4zM188 220h4v4h-4zM192 220h4v4h-4zM196 220h4v4h-4zM200 220h4v4h-4zM204 220h4v4h-4zM208 220h4v4h-4z"/><path fill="#F7C086" d="M212 220h4v4h-4zM216 220h4v4h-4zM220 220h4v4h-4zM224 220h4v4h-4z"/><path fill="#E6AB6C" d="M228 220h4v4h-4zM232 220h4v4h-4zM236 220h4v4h-4zM240 220h4v4h-4z"/><path fill="#C7945F" d="M244 220h4v4h-4zM248 220h4v4h-4zM252 220h4v4h-4zM256 220h4v4h-4z"/><path fill="#88633B" d="M260 220h4v4h-4zM72 224h4v4h-4z"/><path fill="#C7945F" d="M76 224h4v4h-4z"/><path fill="#A8845E" d="M80 224h4v4h-4z"/><path fill="#C7945F" d="M84 224h4v4h-4z"/><path fill="#E6AB6C" d="M88 224h4v4h-4zM92 224h4v4h-4z"/><path fill="#C7945F" d="M96 224h4v4h-4zM100 224h4v4h-4zM104 224h4v4h-4z"/><path fill="#A8845E" d="M108 224h4v4h-4zM112 224h4v4h-4zM116 224h4v4h-4z"/><path fill="#C7945F" d="M120 224h4v4h-4zM124 224h4v4h-4zM128 224h4v4h-4zM132 224h4v4h-4zM136 224h4v4h-4zM140 224h4v4h-4zM144 224h4v4h-4zM148 224h4v4h-4zM152 224h4v4h-4zM156 224h4v4h-4z"/><path fill="#A8845E" d="M160 224h4v4h-4zM164 224h4v4h-4zM168 224h4v4h-4zM172 224h4v4h-4zM176 224h4v4h-4z"/><path fill="#E6AB6C" d="M180 224h4v4h-4zM184 224h4v4h-4zM188 224h4v4h-4zM192 224h4v4h-4zM196 224h4v4h-4zM200 224h4v4h-4zM204 224h4v4h-4zM208 224h4v4h-4z"/><path fill="#F7C086" d="M212 224h4v4h-4zM216 224h4v4h-4zM220 224h4v4h-4zM224 224h4v4h-4zM228 224h4v4h-4z"/><path fill="#E6AB6C" d="M232 224h4v4h-4zM236 224h4v4h-4zM240 224h4v4h-4z"/><path fill="#A8845E" d="M244 224h4v4h-4zM248 224h4v4h-4zM252 224h4v4h-4zM256 224h4v4h-4z"/><path fill="#88633B" d="M260 224h4v4h-4zM76 228h4v4h-4z"/><path fill="#A8845E" d="M80 228h4v4h-4z"/><path fill="#C7945F" d="M84 228h4v4h-4z"/><path fill="#E6AB6C" d="M88 228h4v4h-4zM92 228h4v4h-4zM96 228h4v4h-4z"/><path fill="#C7945F" d="M100 228h4v4h-4z"/><path fill="#A8845E" d="M104 228h4v4h-4zM108 228h4v4h-4zM112 228h4v4h-4z"/><path fill="#C7945F" d="M116 228h4v4h-4zM120 228h4v4h-4zM124 228h4v4h-4zM128 228h4v4h-4zM132 228h4v4h-4zM136 228h4v4h-4zM140 228h4v4h-4zM144 228h4v4h-4zM148 228h4v4h-4z"/><path fill="#A8845E" d="M152 228h4v4h-4zM156 228h4v4h-4zM160 228h4v4h-4z"/><path fill="#C7945F" d="M164 228h4v4h-4zM168 228h4v4h-4zM172 228h4v4h-4z"/><path fill="#E6AB6C" d="M176 228h4v4h-4zM180 228h4v4h-4zM184 228h4v4h-4zM188 228h4v4h-4zM192 228h4v4h-4zM196 228h4v4h-4zM200 228h4v4h-4zM204 228h4v4h-4zM208 228h4v4h-4zM212 228h4v4h-4z"/><path fill="#F7C086" d="M216 228h4v4h-4zM220 228h4v4h-4z"/><path fill="#C7945F" d="M224 228h4v4h-4zM228 228h4v4h-4z"/><path fill="#E6AB6C" d="M232 228h4v4h-4zM236 228h4v4h-4z"/><path fill="#A8845E" d="M240 228h4v4h-4zM244 228h4v4h-4zM248 228h4v4h-4zM252 228h4v4h-4zM256 228h4v4h-4z"/><path fill="#88633B" d="M260 228h4v4h-4zM76 232h4v4h-4z"/><path fill="#C7945F" d="M80 232h4v4h-4zM84 232h4v4h-4z"/><path fill="#E6AB6C" d="M88 232h4v4h-4zM92 232h4v4h-4zM96 232h4v4h-4z"/><path fill="#A8845E" d="M100 232h4v4h-4zM104 232h4v4h-4z"/><path fill="#C7945F" d="M108 232h4v4h-4zM112 232h4v4h-4zM116 232h4v4h-4zM120 232h4v4h-4zM124 232h4v4h-4zM128 232h4v4h-4zM132 232h4v4h-4zM136 232h4v4h-4zM140 232h4v4h-4z"/><path fill="#A8845E" d="M144 232h4v4h-4zM148 232h4v4h-4zM152 232h4v4h-4z"/><path fill="#C7945F" d="M156 232h4v4h-4zM160 232h4v4h-4zM164 232h4v4h-4zM168 232h4v4h-4zM172 232h4v4h-4zM176 232h4v4h-4z"/><path fill="#E6AB6C" d="M180 232h4v4h-4zM184 232h4v4h-4zM188 232h4v4h-4zM192 232h4v4h-4zM196 232h4v4h-4zM200 232h4v4h-4zM204 232h4v4h-4z"/><path fill="#C7945F" d="M208 232h4v4h-4zM212 232h4v4h-4zM216 232h4v4h-4zM220 232h4v4h-4zM224 232h4v4h-4zM228 232h4v4h-4zM232 232h4v4h-4z"/><path fill="#A8845E" d="M236 232h4v4h-4zM240 232h4v4h-4zM244 232h4v4h-4zM248 232h4v4h-4zM252 232h4v4h-4zM256 232h4v4h-4z"/><path fill="#88633B" d="M260 232h4v4h-4zM76 236h4v4h-4z"/><path fill="#C7945F" d="M80 236h4v4h-4zM84 236h4v4h-4zM88 236h4v4h-4z"/><path fill="#E6AB6C" d="M92 236h4v4h-4z"/><path fill="#C7945F" d="M96 236h4v4h-4zM100 236h4v4h-4zM104 236h4v4h-4zM108 236h4v4h-4zM112 236h4v4h-4zM116 236h4v4h-4zM120 236h4v4h-4zM124 236h4v4h-4zM128 236h4v4h-4z"/><path fill="#A8845E" d="M132 236h4v4h-4zM136 236h4v4h-4zM140 236h4v4h-4zM144 236h4v4h-4z"/><path fill="#C7945F" d="M148 236h4v4h-4zM152 236h4v4h-4zM156 236h4v4h-4zM160 236h4v4h-4zM164 236h4v4h-4zM168 236h4v4h-4zM172 236h4v4h-4zM176 236h4v4h-4z"/><path fill="#E6AB6C" d="M180 236h4v4h-4zM184 236h4v4h-4zM188 236h4v4h-4zM192 236h4v4h-4zM196 236h4v4h-4z"/><path fill="#C7945F" d="M200 236h4v4h-4zM204 236h4v4h-4zM208 236h4v4h-4zM212 236h4v4h-4zM216 236h4v4h-4zM220 236h4v4h-4zM224 236h4v4h-4zM228 236h4v4h-4zM232 236h4v4h-4z"/><path fill="#A8845E" d="M236 236h4v4h-4zM240 236h4v4h-4zM244 236h4v4h-4zM248 236h4v4h-4zM252 236h4v4h-4zM256 236h4v4h-4z"/><path fill="#88633B" d="M260 236h4v4h-4zM80 240h4v4h-4z"/><path fill="#C7945F" d="M84 240h4v4h-4zM88 240h4v4h-4zM92 240h4v4h-4zM96 240h4v4h-4z"/><path fill="#E6AB6C" d="M100 240h4v4h-4zM104 240h4v4h-4z"/><path fill="#C7945F" d="M108 240h4v4h-4zM112 240h4v4h-4zM116 240h4v4h-4zM120 240h4v4h-4zM124 240h4v4h-4z"/><path fill="#A8845E" d="M128 240h4v4h-4zM132 240h4v4h-4zM136 240h4v4h-4z"/><path fill="#C7945F" d="M140 240h4v4h-4zM144 240h4v4h-4zM148 240h4v4h-4zM152 240h4v4h-4zM156 240h4v4h-4zM160 240h4v4h-4zM164 240h4v4h-4zM168 240h4v4h-4zM172 240h4v4h-4zM176 240h4v4h-4zM180 240h4v4h-4z"/><path fill="#E6AB6C" d="M184 240h4v4h-4z"/><path fill="#A8845E" d="M188 240h4v4h-4zM192 240h4v4h-4z"/><path fill="#C7945F" d="M196 240h4v4h-4zM200 240h4v4h-4zM204 240h4v4h-4zM208 240h4v4h-4zM212 240h4v4h-4zM216 240h4v4h-4zM220 240h4v4h-4zM224 240h4v4h-4zM228 240h4v4h-4zM232 240h4v4h-4z"/><path fill="#A8845E" d="M236 240h4v4h-4zM240 240h4v4h-4zM244 240h4v4h-4zM248 240h4v4h-4zM252 240h4v4h-4zM256 240h4v4h-4z"/><path fill="#88633B" d="M260 240h4v4h-4zM84 244h4v4h-4z"/><path fill="#A8845E" d="M88 244h4v4h-4z"/><path fill="#C7945F" d="M92 244h4v4h-4z"/><path fill="#E6AB6C" d="M96 244h4v4h-4zM100 244h4v4h-4zM104 244h4v4h-4zM108 244h4v4h-4z"/><path fill="#C7945F" d="M112 244h4v4h-4zM116 244h4v4h-4z"/><path fill="#A8845E" d="M120 244h4v4h-4zM124 244h4v4h-4zM128 244h4v4h-4zM132 244h4v4h-4z"/><path fill="#C7945F" d="M136 244h4v4h-4zM140 244h4v4h-4zM144 244h4v4h-4zM148 244h4v4h-4zM152 244h4v4h-4zM156 244h4v4h-4zM160 244h4v4h-4zM164 244h4v4h-4zM168 244h4v4h-4zM172 244h4v4h-4z"/><path fill="#A8845E" d="M176 244h4v4h-4zM180 244h4v4h-4zM184 244h4v4h-4zM188 244h4v4h-4zM192 244h4v4h-4zM196 244h4v4h-4zM200 244h4v4h-4z"/><path fill="#C7945F" d="M204 244h4v4h-4z"/><path fill="#A8845E" d="M208 244h4v4h-4z"/><path fill="#C7945F" d="M212 244h4v4h-4zM216 244h4v4h-4zM220 244h4v4h-4zM224 244h4v4h-4zM228 244h4v4h-4zM232 244h4v4h-4z"/><path fill="#A8845E" d="M236 244h4v4h-4zM240 244h4v4h-4zM244 244h4v4h-4zM248 244h4v4h-4zM252 244h4v4h-4zM256 244h4v4h-4zM260 244h4v4h-4z"/><path fill="#88633B" d="M264 244h4v4h-4zM84 248h4v4h-4z"/><path fill="#A8845E" d="M88 248h4v4h-4z"/><path fill="#C7945F" d="M92 248h4v4h-4zM96 248h4v4h-4z"/><path fill="#E6AB6C" d="M100 248h4v4h-4zM104 248h4v4h-4zM108 248h4v4h-4zM112 248h4v4h-4z"/><path fill="#A8845E" d="M116 248h4v4h-4zM120 248h4v4h-4zM124 248h4v4h-4z"/><path fill="#C7945F" d="M128 248h4v4h-4zM132 248h4v4h-4zM136 248h4v4h-4zM140 248h4v4h-4zM144 248h4v4h-4zM148 248h4v4h-4zM152 248h4v4h-4zM156 248h4v4h-4zM160 248h4v4h-4zM164 248h4v4h-4z"/><path fill="#A8845E" d="M168 248h4v4h-4zM172 248h4v4h-4zM176 248h4v4h-4zM180 248h4v4h-4zM184 248h4v4h-4zM188 248h4v4h-4zM192 248h4v4h-4zM196 248h4v4h-4zM200 248h4v4h-4zM204 248h4v4h-4zM208 248h4v4h-4z"/><path fill="#C7945F" d="M212 248h4v4h-4zM216 248h4v4h-4zM220 248h4v4h-4zM224 248h4v4h-4z"/><path fill="#E6AB6C" d="M228 248h4v4h-4zM232 248h4v4h-4zM236 248h4v4h-4zM240 248h4v4h-4z"/><path fill="#C7945F" d="M244 248h4v4h-4zM248 248h4v4h-4zM252 248h4v4h-4zM256 248h4v4h-4zM260 248h4v4h-4z"/><path fill="#88633B" d="M264 248h4v4h-4z"/><path fill="#583E2F" d="M72 252h4v4h-4z"/><path fill="#E7AF05" d="M76 252h4v4h-4z"/><path fill="#583E2F" d="M80 252h4v4h-4z"/><path fill="#88633B" d="M88 252h4v4h-4z"/><path fill="#C7945F" d="M92 252h4v4h-4zM96 252h4v4h-4zM100 252h4v4h-4z"/><path fill="#E6AB6C" d="M104 252h4v4h-4z"/><path fill="#C7945F" d="M108 252h4v4h-4zM112 252h4v4h-4z"/><path fill="#A8845E" d="M116 252h4v4h-4z"/><path fill="#C7945F" d="M120 252h4v4h-4zM124 252h4v4h-4zM128 252h4v4h-4zM132 252h4v4h-4zM136 252h4v4h-4zM140 252h4v4h-4zM144 252h4v4h-4zM148 252h4v4h-4zM152 252h4v4h-4z"/><path fill="#A8845E" d="M156 252h4v4h-4zM160 252h4v4h-4zM164 252h4v4h-4zM168 252h4v4h-4zM172 252h4v4h-4zM176 252h4v4h-4zM180 252h4v4h-4zM184 252h4v4h-4zM188 252h4v4h-4zM192 252h4v4h-4z"/><path fill="#E6AB6C" d="M196 252h4v4h-4zM200 252h4v4h-4zM204 252h4v4h-4z"/><path fill="#C7945F" d="M208 252h4v4h-4zM212 252h4v4h-4zM216 252h4v4h-4zM220 252h4v4h-4zM224 252h4v4h-4zM228 252h4v4h-4zM232 252h4v4h-4z"/><path fill="#E6AB6C" d="M236 252h4v4h-4z"/><path fill="#C7945F" d="M240 252h4v4h-4zM244 252h4v4h-4zM248 252h4v4h-4zM252 252h4v4h-4zM256 252h4v4h-4zM260 252h4v4h-4z"/><path fill="#88633B" d="M264 252h4v4h-4z"/><path fill="#583E2F" d="M68 256h4v4h-4z"/><path fill="#E7AF05" d="M72 256h4v4h-4zM76 256h4v4h-4zM80 256h4v4h-4z"/><path fill="#583E2F" d="M84 256h4v4h-4z"/><path fill="#88633B" d="M92 256h4v4h-4z"/><path fill="#C7945F" d="M96 256h4v4h-4zM100 256h4v4h-4zM104 256h4v4h-4zM108 256h4v4h-4zM112 256h4v4h-4zM116 256h4v4h-4z"/><path fill="#E6AB6C" d="M120 256h4v4h-4z"/><path fill="#C7945F" d="M124 256h4v4h-4zM128 256h4v4h-4zM132 256h4v4h-4zM136 256h4v4h-4zM140 256h4v4h-4zM144 256h4v4h-4z"/><path fill="#A8845E" d="M148 256h4v4h-4zM152 256h4v4h-4zM156 256h4v4h-4zM160 256h4v4h-4zM164 256h4v4h-4zM168 256h4v4h-4zM172 256h4v4h-4zM176 256h4v4h-4zM180 256h4v4h-4zM184 256h4v4h-4z"/><path fill="#C7945F" d="M188 256h4v4h-4z"/><path fill="#E6AB6C" d="M192 256h4v4h-4zM196 256h4v4h-4zM200 256h4v4h-4z"/><path fill="#C7945F" d="M204 256h4v4h-4z"/><path fill="#88633B" d="M208 256h4v4h-4z"/><path fill="#C7945F" d="M212 256h4v4h-4zM216 256h4v4h-4zM220 256h4v4h-4zM224 256h4v4h-4zM228 256h4v4h-4zM232 256h4v4h-4zM236 256h4v4h-4zM240 256h4v4h-4zM244 256h4v4h-4zM248 256h4v4h-4zM252 256h4v4h-4zM256 256h4v4h-4zM260 256h4v4h-4z"/><path fill="#88633B" d="M264 256h4v4h-4zM96 260h4v4h-4z"/><path fill="#A8845E" d="M100 260h4v4h-4z"/><path fill="#C7945F" d="M104 260h4v4h-4zM108 260h4v4h-4zM112 260h4v4h-4z"/><path fill="#E6AB6C" d="M116 260h4v4h-4zM120 260h4v4h-4zM124 260h4v4h-4zM128 260h4v4h-4z"/><path fill="#C7945F" d="M132 260h4v4h-4zM136 260h4v4h-4z"/><path fill="#A8845E" d="M140 260h4v4h-4zM144 260h4v4h-4zM148 260h4v4h-4zM152 260h4v4h-4zM156 260h4v4h-4zM160 260h4v4h-4zM164 260h4v4h-4zM168 260h4v4h-4z"/><path fill="#C7945F" d="M172 260h4v4h-4zM176 260h4v4h-4zM180 260h4v4h-4zM184 260h4v4h-4zM188 260h4v4h-4z"/><path fill="#E6AB6C" d="M192 260h4v4h-4zM196 260h4v4h-4zM200 260h4v4h-4z"/><path fill="#88633B" d="M204 260h4v4h-4zM212 260h4v4h-4z"/><path fill="#C7945F" d="M216 260h4v4h-4zM220 260h4v4h-4zM224 260h4v4h-4zM228 260h4v4h-4zM232 260h4v4h-4zM236 260h4v4h-4zM240 260h4v4h-4zM244 260h4v4h-4zM248 260h4v4h-4zM252 260h4v4h-4zM256 260h4v4h-4zM260 260h4v4h-4z"/><path fill="#88633B" d="M264 260h4v4h-4zM96 264h4v4h-4z"/><path fill="#A8845E" d="M100 264h4v4h-4z"/><path fill="#C7945F" d="M104 264h4v4h-4zM108 264h4v4h-4zM112 264h4v4h-4zM116 264h4v4h-4z"/><path fill="#E6AB6C" d="M120 264h4v4h-4zM124 264h4v4h-4zM128 264h4v4h-4zM132 264h4v4h-4z"/><path fill="#A8845E" d="M136 264h4v4h-4zM140 264h4v4h-4zM144 264h4v4h-4zM148 264h4v4h-4zM152 264h4v4h-4zM156 264h4v4h-4zM160 264h4v4h-4z"/><path fill="#C7945F" d="M164 264h4v4h-4zM168 264h4v4h-4zM172 264h4v4h-4zM176 264h4v4h-4zM180 264h4v4h-4z"/><path fill="#88633B" d="M184 264h4v4h-4zM188 264h4v4h-4zM192 264h4v4h-4zM196 264h4v4h-4zM200 264h4v4h-4zM216 264h4v4h-4zM220 264h4v4h-4z"/><path fill="#A8845E" d="M224 264h4v4h-4zM228 264h4v4h-4zM232 264h4v4h-4zM236 264h4v4h-4zM240 264h4v4h-4zM244 264h4v4h-4zM248 264h4v4h-4zM252 264h4v4h-4zM256 264h4v4h-4zM260 264h4v4h-4z"/><path fill="#88633B" d="M264 264h4v4h-4zM100 268h4v4h-4z"/><path fill="#A8845E" d="M104 268h4v4h-4z"/><path fill="#C7945F" d="M108 268h4v4h-4zM112 268h4v4h-4zM116 268h4v4h-4z"/><path fill="#E6AB6C" d="M120 268h4v4h-4zM124 268h4v4h-4zM128 268h4v4h-4z"/><path fill="#A8845E" d="M132 268h4v4h-4zM136 268h4v4h-4zM140 268h4v4h-4zM144 268h4v4h-4zM148 268h4v4h-4zM152 268h4v4h-4z"/><path fill="#C7945F" d="M156 268h4v4h-4zM160 268h4v4h-4zM164 268h4v4h-4zM168 268h4v4h-4zM172 268h4v4h-4zM176 268h4v4h-4zM180 268h4v4h-4zM184 268h4v4h-4z"/><path fill="#88633B" d="M188 268h4v4h-4zM224 268h4v4h-4zM228 268h4v4h-4zM232 268h4v4h-4z"/><path fill="#A8845E" d="M236 268h4v4h-4zM240 268h4v4h-4zM244 268h4v4h-4zM248 268h4v4h-4zM252 268h4v4h-4zM256 268h4v4h-4z"/><path fill="#88633B" d="M260 268h4v4h-4zM104 272h4v4h-4z"/><path fill="#C7945F" d="M108 272h4v4h-4zM112 272h4v4h-4zM116 272h4v4h-4zM120 272h4v4h-4zM124 272h4v4h-4zM128 272h4v4h-4zM132 272h4v4h-4zM136 272h4v4h-4z"/><path fill="#A8845E" d="M140 272h4v4h-4zM144 272h4v4h-4z"/><path fill="#E6AB6C" d="M148 272h4v4h-4zM152 272h4v4h-4z"/><path fill="#C7945F" d="M156 272h4v4h-4zM160 272h4v4h-4zM164 272h4v4h-4zM168 272h4v4h-4zM172 272h4v4h-4zM176 272h4v4h-4zM180 272h4v4h-4zM184 272h4v4h-4z"/><path fill="#88633B" d="M188 272h4v4h-4zM236 272h4v4h-4z"/><path fill="#A8845E" d="M240 272h4v4h-4zM244 272h4v4h-4zM248 272h4v4h-4zM252 272h4v4h-4z"/><path fill="#88633B" d="M256 272h4v4h-4zM108 276h4v4h-4z"/><path fill="#C7945F" d="M112 276h4v4h-4zM116 276h4v4h-4z"/><path fill="#A8845E" d="M120 276h4v4h-4z"/><path fill="#C7945F" d="M124 276h4v4h-4zM128 276h4v4h-4zM132 276h4v4h-4zM136 276h4v4h-4z"/><path fill="#E6AB6C" d="M140 276h4v4h-4zM144 276h4v4h-4zM148 276h4v4h-4zM152 276h4v4h-4zM156 276h4v4h-4zM160 276h4v4h-4zM164 276h4v4h-4z"/><path fill="#C7945F" d="M168 276h4v4h-4zM172 276h4v4h-4z"/><path fill="#A8845E" d="M176 276h4v4h-4zM180 276h4v4h-4zM184 276h4v4h-4z"/><path fill="#88633B" d="M188 276h4v4h-4zM240 276h4v4h-4zM244 276h4v4h-4zM248 276h4v4h-4zM252 276h4v4h-4zM112 280h4v4h-4zM116 280h4v4h-4zM120 280h4v4h-4z"/><path fill="#A8845E" d="M124 280h4v4h-4z"/><path fill="#C7945F" d="M128 280h4v4h-4zM132 280h4v4h-4z"/><path fill="#E6AB6C" d="M136 280h4v4h-4zM140 280h4v4h-4zM144 280h4v4h-4zM148 280h4v4h-4zM152 280h4v4h-4zM156 280h4v4h-4zM160 280h4v4h-4zM164 280h4v4h-4z"/><path fill="#A8845E" d="M168 280h4v4h-4zM172 280h4v4h-4zM176 280h4v4h-4zM180 280h4v4h-4zM184 280h4v4h-4z"/><path fill="#88633B" d="M188 280h4v4h-4zM124 284h4v4h-4z"/><path fill="#A8845E" d="M128 284h4v4h-4z"/><path fill="#C7945F" d="M132 284h4v4h-4zM136 284h4v4h-4zM140 284h4v4h-4z"/><path fill="#E6AB6C" d="M144 284h4v4h-4zM148 284h4v4h-4zM152 284h4v4h-4zM156 284h4v4h-4z"/><path fill="#A8845E" d="M160 284h4v4h-4zM164 284h4v4h-4zM168 284h4v4h-4zM172 284h4v4h-4zM176 284h4v4h-4zM180 284h4v4h-4z"/><path fill="#88633B" d="M184 284h4v4h-4zM128 288h4v4h-4z"/><path fill="#C7945F" d="M132 288h4v4h-4zM136 288h4v4h-4zM140 288h4v4h-4zM144 288h4v4h-4zM148 288h4v4h-4z"/><path fill="#A8845E" d="M152 288h4v4h-4zM156 288h4v4h-4zM160 288h4v4h-4zM164 288h4v4h-4zM168 288h4v4h-4zM172 288h4v4h-4zM176 288h4v4h-4z"/><path fill="#88633B" d="M180 288h4v4h-4zM132 292h4v4h-4z"/><path fill="#C7945F" d="M136 292h4v4h-4zM140 292h4v4h-4z"/><path fill="#A8845E" d="M144 292h4v4h-4zM148 292h4v4h-4zM152 292h4v4h-4zM156 292h4v4h-4zM160 292h4v4h-4zM164 292h4v4h-4zM168 292h4v4h-4zM172 292h4v4h-4z"/><path fill="#88633B" d="M176 292h4v4h-4zM136 296h4v4h-4z"/><path fill="#A8845E" d="M140 296h4v4h-4zM144 296h4v4h-4zM148 296h4v4h-4zM152 296h4v4h-4zM156 296h4v4h-4zM160 296h4v4h-4zM164 296h4v4h-4zM168 296h4v4h-4z"/><path fill="#88633B" d="M172 296h4v4h-4zM140 300h4v4h-4zM144 300h4v4h-4z"/><path fill="#A8845E" d="M148 300h4v4h-4zM152 300h4v4h-4zM156 300h4v4h-4zM160 300h4v4h-4zM164 300h4v4h-4z"/><path fill="#88633B" d="M168 300h4v4h-4zM148 304h4v4h-4zM152 304h4v4h-4zM156 304h4v4h-4zM160 304h4v4h-4zM164 304h4v4h-4z"/></svg>