<svg width="384" height="384" xmlns="http://www.w3.org/2000/svg" shape-rendering="crispEdges"><path fill="#0B675E" d="M156 40h4v4h-4zM160 40h4v4h-4zM152 44h4v4h-4z"/><path fill="#439871" d="M156 44h4v4h-4z"/><path fill="#0B675E" d="M160 44h4v4h-4zM148 48h4v4h-4z"/><path fill="#5EB978" d="M152 48h4v4h-4z"/><path fill="#0B675E" d="M156 48h4v4h-4zM148 52h4v4h-4z"/><path fill="#5EB978" d="M152 52h4v4h-4z"/><path fill="#0B675E" d="M156 52h4v4h-4zM232 52h4v4h-4zM236 52h4v4h-4zM240 52h4v4h-4zM244 52h4v4h-4zM148 56h4v4h-4z"/><path fill="#5EB978" d="M152 56h4v4h-4zM156 56h4v4h-4z"/><path fill="#0B675E" d="M160 56h4v4h-4zM228 56h4v4h-4z"/><path fill="#5EB978" d="M232 56h4v4h-4zM236 56h4v4h-4z"/><path fill="#0B675E" d="M240 56h4v4h-4zM148 60h4v4h-4z"/><path fill="#5EB978" d="M152 60h4v4h-4zM156 60h4v4h-4zM160 60h4v4h-4z"/><path fill="#0B675E" d="M164 60h4v4h-4zM168 60h4v4h-4zM224 60h4v4h-4z"/><path fill="#5EB978" d="M228 60h4v4h-4zM232 60h4v4h-4z"/><path fill="#0B675E" d="M236 60h4v4h-4zM120 64h4v4h-4zM148 64h4v4h-4z"/><path fill="#5EB978" d="M152 64h4v4h-4zM156 64h4v4h-4zM160 64h4v4h-4zM164 64h4v4h-4zM168 64h4v4h-4z"/><path fill="#0B675E" d="M172 64h4v4h-4zM176 64h4v4h-4zM220 64h4v4h-4z"/><path fill="#5EB978" d="M224 64h4v4h-4z"/><path fill="#439871" d="M228 64h4v4h-4z"/><path fill="#5EB978" d="M232 64h4v4h-4z"/><path fill="#0B675E" d="M236 64h4v4h-4zM120 68h4v4h-4zM124 68h4v4h-4zM148 68h4v4h-4z"/><path fill="#5EB978" d="M152 68h4v4h-4z"/><path fill="#439871" d="M156 68h4v4h-4z"/><path fill="#5EB978" d="M160 68h4v4h-4zM164 68h4v4h-4zM168 68h4v4h-4zM172 68h4v4h-4zM176 68h4v4h-4z"/><path fill="#0B675E" d="M180 68h4v4h-4zM216 68h4v4h-4z"/><path fill="#5EB978" d="M220 68h4v4h-4z"/><path fill="#439871" d="M224 68h4v4h-4z"/><path fill="#5EB978" d="M228 68h4v4h-4zM232 68h4v4h-4zM236 68h4v4h-4z"/><path fill="#0B675E" d="M240 68h4v4h-4zM120 72h4v4h-4z"/><path fill="#5EB978" d="M124 72h4v4h-4z"/><path fill="#0B675E" d="M128 72h4v4h-4zM148 72h4v4h-4z"/><path fill="#5EB978" d="M152 72h4v4h-4zM156 72h4v4h-4z"/><path fill="#439871" d="M160 72h4v4h-4zM164 72h4v4h-4z"/><path fill="#0B675E" d="M168 72h4v4h-4z"/><path fill="#5EB978" d="M172 72h4v4h-4zM176 72h4v4h-4zM180 72h4v4h-4z"/><path fill="#0B675E" d="M184 72h4v4h-4zM216 72h4v4h-4z"/><path fill="#5EB978" d="M220 72h4v4h-4z"/><path fill="#439871" d="M224 72h4v4h-4z"/><path fill="#5EB978" d="M228 72h4v4h-4zM232 72h4v4h-4zM236 72h4v4h-4z"/><path fill="#0B675E" d="M240 72h4v4h-4zM108 76h4v4h-4zM112 76h4v4h-4zM116 76h4v4h-4zM120 76h4v4h-4z"/><path fill="#5EB978" d="M124 76h4v4h-4zM128 76h4v4h-4z"/><path fill="#0B675E" d="M132 76h4v4h-4zM136 76h4v4h-4zM140 76h4v4h-4zM144 76h4v4h-4zM148 76h4v4h-4zM152 76h4v4h-4z"/><path fill="#5EB978" d="M156 76h4v4h-4zM160 76h4v4h-4zM164 76h4v4h-4z"/><path fill="#439871" d="M168 76h4v4h-4z"/><path fill="#0B675E" d="M172 76h4v4h-4z"/><path fill="#5EB978" d="M176 76h4v4h-4zM180 76h4v4h-4z"/><path fill="#0B675E" d="M184 76h4v4h-4zM212 76h4v4h-4z"/><path fill="#5EB978" d="M216 76h4v4h-4zM220 76h4v4h-4z"/><path fill="#0B675E" d="M224 76h4v4h-4z"/><path fill="#5EB978" d="M228 76h4v4h-4zM232 76h4v4h-4zM236 76h4v4h-4z"/><path fill="#0B675E" d="M240 76h4v4h-4zM68 80h4v4h-4zM72 80h4v4h-4zM76 80h4v4h-4zM80 80h4v4h-4zM96 80h4v4h-4zM100 80h4v4h-4zM104 80h4v4h-4z"/><path fill="#439871" d="M108 80h4v4h-4zM112 80h4v4h-4zM116 80h4v4h-4z"/><path fill="#0B675E" d="M120 80h4v4h-4z"/><path fill="#5EB978" d="M124 80h4v4h-4zM128 80h4v4h-4zM132 80h4v4h-4z"/><path fill="#439871" d="M136 80h4v4h-4zM140 80h4v4h-4zM144 80h4v4h-4z"/><path fill="#D4568E" d="M148 80h4v4h-4zM152 80h4v4h-4z"/><path fill="#0B675E" d="M156 80h4v4h-4zM160 80h4v4h-4z"/><path fill="#439871" d="M164 80h4v4h-4zM168 80h4v4h-4zM172 80h4v4h-4z"/><path fill="#0B675E" d="M176 80h4v4h-4z"/><path fill="#439871" d="M180 80h4v4h-4z"/><path fill="#0B675E" d="M184 80h4v4h-4zM196 80h4v4h-4zM200 80h4v4h-4zM212 80h4v4h-4z"/><path fill="#439871" d="M216 80h4v4h-4z"/><path fill="#5EB978" d="M220 80h4v4h-4z"/><path fill="#0B675E" d="M224 80h4v4h-4z"/><path fill="#5EB978" d="M228 80h4v4h-4zM232 80h4v4h-4zM236 80h4v4h-4z"/><path fill="#0B675E" d="M240 80h4v4h-4zM72 84h4v4h-4z"/><path fill="#5EB978" d="M76 84h4v4h-4zM80 84h4v4h-4z"/><path fill="#0B675E" d="M84 84h4v4h-4zM88 84h4v4h-4zM92 84h4v4h-4z"/><path fill="#439871" d="M96 84h4v4h-4z"/><path fill="#D1588D" d="M100 84h4v4h-4z"/><path fill="#D4568E" d="M104 84h4v4h-4zM108 84h4v4h-4z"/><path fill="#5EB978" d="M112 84h4v4h-4z"/><path fill="#439871" d="M116 84h4v4h-4z"/><path fill="#0B675E" d="M120 84h4v4h-4z"/><path fill="#5EB978" d="M124 84h4v4h-4zM128 84h4v4h-4zM132 84h4v4h-4z"/><path fill="#439871" d="M136 84h4v4h-4z"/><path fill="#5EB978" d="M140 84h4v4h-4zM144 84h4v4h-4zM148 84h4v4h-4zM152 84h4v4h-4zM156 84h4v4h-4z"/><path fill="#439871" d="M160 84h4v4h-4z"/><path fill="#0B675E" d="M164 84h4v4h-4zM168 84h4v4h-4zM172 84h4v4h-4zM176 84h4v4h-4z"/><path fill="#439871" d="M180 84h4v4h-4z"/><path fill="#0B675E" d="M184 84h4v4h-4zM192 84h4v4h-4z"/><path fill="#5EB978" d="M196 84h4v4h-4zM200 84h4v4h-4z"/><path fill="#0B675E" d="M204 84h4v4h-4zM216 84h4v4h-4z"/><path fill="#5EB978" d="M220 84h4v4h-4z"/><path fill="#0B675E" d="M224 84h4v4h-4z"/><path fill="#5EB978" d="M228 84h4v4h-4zM232 84h4v4h-4z"/><path fill="#439871" d="M236 84h4v4h-4z"/><path fill="#0B675E" d="M240 84h4v4h-4zM76 88h4v4h-4z"/><path fill="#5EB978" d="M80 88h4v4h-4z"/><path fill="#0B675E" d="M84 88h4v4h-4z"/><path fill="#439871" d="M88 88h4v4h-4z"/><path fill="#5EB978" d="M92 88h4v4h-4zM96 88h4v4h-4z"/><path fill="#D4568E" d="M100 88h4v4h-4zM104 88h4v4h-4z"/><path fill="#5EB978" d="M108 88h4v4h-4zM112 88h4v4h-4zM116 88h4v4h-4z"/><path fill="#439871" d="M120 88h4v4h-4z"/><path fill="#5EB978" d="M124 88h4v4h-4zM128 88h4v4h-4z"/><path fill="#439871" d="M132 88h4v4h-4z"/><path fill="#5EB978" d="M136 88h4v4h-4zM140 88h4v4h-4zM144 88h4v4h-4zM148 88h4v4h-4zM152 88h4v4h-4zM156 88h4v4h-4zM160 88h4v4h-4zM164 88h4v4h-4z"/><path fill="#439871" d="M168 88h4v4h-4zM172 88h4v4h-4zM176 88h4v4h-4z"/><path fill="#0B675E" d="M180 88h4v4h-4zM184 88h4v4h-4zM188 88h4v4h-4zM192 88h4v4h-4zM196 88h4v4h-4z"/><path fill="#5EB978" d="M200 88h4v4h-4zM204 88h4v4h-4z"/><path fill="#0B675E" d="M208 88h4v4h-4zM212 88h4v4h-4zM216 88h4v4h-4z"/><path fill="#439871" d="M220 88h4v4h-4z"/><path fill="#0B675E" d="M224 88h4v4h-4z"/><path fill="#439871" d="M228 88h4v4h-4zM232 88h4v4h-4z"/><path fill="#0B675E" d="M236 88h4v4h-4zM76 92h4v4h-4zM80 92h4v4h-4z"/><path fill="#439871" d="M84 92h4v4h-4z"/><path fill="#5EB978" d="M88 92h4v4h-4zM92 92h4v4h-4zM96 92h4v4h-4zM100 92h4v4h-4zM104 92h4v4h-4zM108 92h4v4h-4z"/><path fill="#439871" d="M112 92h4v4h-4z"/><path fill="#5EB978" d="M116 92h4v4h-4zM120 92h4v4h-4zM124 92h4v4h-4zM128 92h4v4h-4zM132 92h4v4h-4zM136 92h4v4h-4zM140 92h4v4h-4zM144 92h4v4h-4zM148 92h4v4h-4zM152 92h4v4h-4z"/><path fill="#D1588D" d="M156 92h4v4h-4z"/><path fill="#D4568E" d="M160 92h4v4h-4zM164 92h4v4h-4z"/><path fill="#5EB978" d="M168 92h4v4h-4zM172 92h4v4h-4z"/><path fill="#439871" d="M176 92h4v4h-4zM180 92h4v4h-4z"/><path fill="#D1588D" d="M184 92h4v4h-4zM188 92h4v4h-4z"/><path fill="#5EB978" d="M192 92h4v4h-4z"/><path fill="#439871" d="M196 92h4v4h-4z"/><path fill="#0B675E" d="M200 92h4v4h-4z"/><path fill="#5EB978" d="M204 92h4v4h-4z"/><path fill="#0B675E" d="M208 92h4v4h-4z"/><path fill="#5EB978" d="M212 92h4v4h-4zM216 92h4v4h-4z"/><path fill="#0B675E" d="M220 92h4v4h-4zM224 92h4v4h-4zM228 92h4v4h-4zM232 92h4v4h-4zM72 96h4v4h-4zM76 96h4v4h-4z"/><path fill="#439871" d="M80 96h4v4h-4z"/><path fill="#5EB978" d="M84 96h4v4h-4z"/><path fill="#5CB777" d="M88 96h4v4h-4z"/><path fill="#5EB978" d="M92 96h4v4h-4zM96 96h4v4h-4zM100 96h4v4h-4zM104 96h4v4h-4z"/><path fill="#479A74" d="M108 96h4v4h-4zM112 96h4v4h-4zM116 96h4v4h-4zM120 96h4v4h-4zM124 96h4v4h-4zM128 96h4v4h-4zM132 96h4v4h-4z"/><path fill="#499C76" d="M136 96h4v4h-4z"/><path fill="#5EB978" d="M140 96h4v4h-4zM144 96h4v4h-4zM148 96h4v4h-4z"/><path fill="#5CB777" d="M152 96h4v4h-4z"/><path fill="#D4568E" d="M156 96h4v4h-4zM160 96h4v4h-4z"/><path fill="#5EB978" d="M164 96h4v4h-4zM168 96h4v4h-4zM172 96h4v4h-4zM176 96h4v4h-4z"/><path fill="#439871" d="M180 96h4v4h-4zM184 96h4v4h-4z"/><path fill="#5EB978" d="M188 96h4v4h-4zM192 96h4v4h-4z"/><path fill="#439871" d="M196 96h4v4h-4z"/><path fill="#0B675E" d="M200 96h4v4h-4z"/><path fill="#5EB978" d="M204 96h4v4h-4z"/><path fill="#0B675E" d="M208 96h4v4h-4z"/><path fill="#5EB978" d="M212 96h4v4h-4zM216 96h4v4h-4zM220 96h4v4h-4zM224 96h4v4h-4z"/><path fill="#0B675E" d="M228 96h4v4h-4zM72 100h4v4h-4z"/><path fill="#439871" d="M76 100h4v4h-4z"/><path fill="#5EB978" d="M80 100h4v4h-4zM84 100h4v4h-4z"/><path fill="#5CB777" d="M88 100h4v4h-4zM92 100h4v4h-4z"/><path fill="#5EB978" d="M96 100h4v4h-4zM100 100h4v4h-4z"/><path fill="#479A74" d="M104 100h4v4h-4z"/><path fill="#61BB7B" d="M108 100h4v4h-4zM112 100h4v4h-4zM116 100h4v4h-4zM120 100h4v4h-4zM124 100h4v4h-4zM128 100h4v4h-4zM132 100h4v4h-4z"/><path fill="#479A74" d="M136 100h4v4h-4z"/><path fill="#449972" d="M140 100h4v4h-4z"/><path fill="#5EB978" d="M144 100h4v4h-4z"/><path fill="#5CB777" d="M148 100h4v4h-4z"/><path fill="#5EB978" d="M152 100h4v4h-4z"/><path fill="#5CB777" d="M156 100h4v4h-4z"/><path fill="#5EB978" d="M160 100h4v4h-4zM164 100h4v4h-4z"/><path fill="#439871" d="M168 100h4v4h-4z"/><path fill="#5EB978" d="M172 100h4v4h-4zM176 100h4v4h-4zM180 100h4v4h-4z"/><path fill="#439871" d="M184 100h4v4h-4zM188 100h4v4h-4z"/><path fill="#5EB978" d="M192 100h4v4h-4z"/><path fill="#439871" d="M196 100h4v4h-4z"/><path fill="#0B675E" d="M200 100h4v4h-4z"/><path fill="#5EB978" d="M204 100h4v4h-4z"/><path fill="#0B675E" d="M208 100h4v4h-4z"/><path fill="#439871" d="M212 100h4v4h-4z"/><path fill="#5EB978" d="M216 100h4v4h-4zM220 100h4v4h-4zM224 100h4v4h-4zM228 100h4v4h-4z"/><path fill="#0B675E" d="M232 100h4v4h-4zM236 100h4v4h-4zM240 100h4v4h-4zM244 100h4v4h-4zM248 100h4v4h-4zM252 100h4v4h-4zM256 100h4v4h-4zM72 104h4v4h-4z"/><path fill="#5EB978" d="M76 104h4v4h-4zM80 104h4v4h-4zM84 104h4v4h-4z"/><path fill="#5CB777" d="M88 104h4v4h-4z"/><path fill="#5EB978" d="M92 104h4v4h-4z"/><path fill="#489B75" d="M96 104h4v4h-4zM100 104h4v4h-4z"/><path fill="#5DB877" d="M104 104h4v4h-4z"/><path fill="#BEF744" d="M108 104h4v4h-4z"/><path fill="#BFF648" d="M112 104h4v4h-4zM116 104h4v4h-4zM120 104h4v4h-4zM124 104h4v4h-4zM128 104h4v4h-4z"/><path fill="#61BB7B" d="M132 104h4v4h-4zM136 104h4v4h-4z"/><path fill="#479A74" d="M140 104h4v4h-4z"/><path fill="#499C76" d="M144 104h4v4h-4z"/><path fill="#5EB978" d="M148 104h4v4h-4zM152 104h4v4h-4z"/><path fill="#5CB777" d="M156 104h4v4h-4z"/><path fill="#5EB978" d="M160 104h4v4h-4zM164 104h4v4h-4z"/><path fill="#439871" d="M168 104h4v4h-4zM172 104h4v4h-4z"/><path fill="#5EB978" d="M176 104h4v4h-4zM180 104h4v4h-4z"/><path fill="#439871" d="M184 104h4v4h-4zM188 104h4v4h-4z"/><path fill="#5EB978" d="M192 104h4v4h-4zM196 104h4v4h-4z"/><path fill="#439871" d="M200 104h4v4h-4z"/><path fill="#0B675E" d="M204 104h4v4h-4z"/><path fill="#5EB978" d="M208 104h4v4h-4z"/><path fill="#0B675E" d="M212 104h4v4h-4z"/><path fill="#5EB978" d="M216 104h4v4h-4zM220 104h4v4h-4zM224 104h4v4h-4z"/><path fill="#0B675E" d="M228 104h4v4h-4z"/><path fill="#5EB978" d="M232 104h4v4h-4zM236 104h4v4h-4zM240 104h4v4h-4zM244 104h4v4h-4zM248 104h4v4h-4zM252 104h4v4h-4zM256 104h4v4h-4z"/><path fill="#0B675E" d="M260 104h4v4h-4zM68 108h4v4h-4z"/><path fill="#439871" d="M72 108h4v4h-4z"/><path fill="#5EB978" d="M76 108h4v4h-4zM80 108h4v4h-4z"/><path fill="#5DB877" d="M84 108h4v4h-4z"/><path fill="#5CB777" d="M88 108h4v4h-4z"/><path fill="#5EB978" d="M92 108h4v4h-4zM96 108h4v4h-4z"/><path fill="#439871" d="M100 108h4v4h-4z"/><path fill="#449972" d="M104 108h4v4h-4z"/><path fill="#479B71" d="M108 108h4v4h-4z"/><path fill="#BEF744" d="M112 108h4v4h-4z"/><path fill="#BFF648" d="M116 108h4v4h-4zM120 108h4v4h-4zM124 108h4v4h-4zM128 108h4v4h-4z"/><path fill="#BEF744" d="M132 108h4v4h-4zM136 108h4v4h-4z"/><path fill="#0D685F" d="M140 108h4v4h-4z"/><path fill="#0D695F" d="M144 108h4v4h-4z"/><path fill="#459A73" d="M148 108h4v4h-4z"/><path fill="#5EB978" d="M152 108h4v4h-4z"/><path fill="#5CB777" d="M156 108h4v4h-4z"/><path fill="#5EB978" d="M160 108h4v4h-4zM164 108h4v4h-4z"/><path fill="#439871" d="M168 108h4v4h-4zM172 108h4v4h-4z"/><path fill="#0B675E" d="M176 108h4v4h-4z"/><path fill="#0D685F" d="M180 108h4v4h-4z"/><path fill="#0B675E" d="M184 108h4v4h-4zM188 108h4v4h-4z"/><path fill="#439871" d="M192 108h4v4h-4zM196 108h4v4h-4zM200 108h4v4h-4z"/><path fill="#0B675E" d="M204 108h4v4h-4z"/><path fill="#5EB978" d="M208 108h4v4h-4z"/><path fill="#0B675E" d="M212 108h4v4h-4z"/><path fill="#439871" d="M216 108h4v4h-4zM220 108h4v4h-4z"/><path fill="#0B675E" d="M224 108h4v4h-4z"/><path fill="#5EB978" d="M228 108h4v4h-4zM232 108h4v4h-4z"/><path fill="#439871" d="M236 108h4v4h-4z"/><path fill="#0B675E" d="M240 108h4v4h-4zM244 108h4v4h-4zM248 108h4v4h-4zM252 108h4v4h-4z"/><path fill="#439871" d="M256 108h4v4h-4z"/><path fill="#5EB978" d="M260 108h4v4h-4z"/><path fill="#0B675E" d="M264 108h4v4h-4z"/><path fill="#883A89" d="M68 112h4v4h-4z"/><path fill="#439871" d="M72 112h4v4h-4z"/><path fill="#5EB978" d="M76 112h4v4h-4zM80 112h4v4h-4z"/><path fill="#439871" d="M84 112h4v4h-4z"/><path fill="#5CB777" d="M88 112h4v4h-4z"/><path fill="#5EB978" d="M92 112h4v4h-4zM96 112h4v4h-4zM100 112h4v4h-4z"/><path fill="#449972" d="M104 112h4v4h-4z"/><path fill="#459A73" d="M108 112h4v4h-4zM112 112h4v4h-4z"/><path fill="#60BB76" d="M116 112h4v4h-4zM120 112h4v4h-4zM124 112h4v4h-4zM128 112h4v4h-4zM132 112h4v4h-4z"/><path fill="#0D685F" d="M136 112h4v4h-4z"/><path fill="#489B75" d="M140 112h4v4h-4z"/><path fill="#499C76" d="M144 112h4v4h-4z"/><path fill="#5EB978" d="M148 112h4v4h-4zM152 112h4v4h-4z"/><path fill="#5CB777" d="M156 112h4v4h-4z"/><path fill="#5EB978" d="M160 112h4v4h-4z"/><path fill="#439871" d="M164 112h4v4h-4zM168 112h4v4h-4z"/><path fill="#0B675E" d="M172 112h4v4h-4z"/><path fill="#5EB978" d="M176 112h4v4h-4zM180 112h4v4h-4zM184 112h4v4h-4zM188 112h4v4h-4z"/><path fill="#0B675E" d="M192 112h4v4h-4z"/><path fill="#439871" d="M196 112h4v4h-4z"/><path fill="#0B675E" d="M200 112h4v4h-4zM204 112h4v4h-4z"/><path fill="#439871" d="M208 112h4v4h-4z"/><path fill="#0B675E" d="M212 112h4v4h-4z"/><path fill="#439871" d="M216 112h4v4h-4z"/><path fill="#0B675E" d="M220 112h4v4h-4z"/><path fill="#5EB978" d="M224 112h4v4h-4zM228 112h4v4h-4z"/><path fill="#439871" d="M232 112h4v4h-4z"/><path fill="#0B675E" d="M236 112h4v4h-4z"/><path fill="#439871" d="M240 112h4v4h-4z"/><path fill="#0B675E" d="M244 112h4v4h-4zM256 112h4v4h-4z"/><path fill="#439871" d="M260 112h4v4h-4z"/><path fill="#5EB978" d="M264 112h4v4h-4z"/><path fill="#0B675E" d="M268 112h4v4h-4z"/><path fill="#883A89" d="M64 116h4v4h-4z"/><path fill="#F379C1" d="M68 116h4v4h-4z"/><path fill="#883A89" d="M72 116h4v4h-4z"/><path fill="#5EB978" d="M76 116h4v4h-4zM80 116h4v4h-4zM84 116h4v4h-4z"/><path fill="#439871" d="M88 116h4v4h-4zM92 116h4v4h-4zM96 116h4v4h-4z"/><path fill="#5EB978" d="M100 116h4v4h-4zM104 116h4v4h-4z"/><path fill="#449972" d="M108 116h4v4h-4zM112 116h4v4h-4zM116 116h4v4h-4z"/><path fill="#439871" d="M120 116h4v4h-4z"/><path fill="#0D685F" d="M124 116h4v4h-4zM128 116h4v4h-4zM132 116h4v4h-4z"/><path fill="#489B75" d="M136 116h4v4h-4z"/><path fill="#499C76" d="M140 116h4v4h-4z"/><path fill="#5EB978" d="M144 116h4v4h-4z"/><path fill="#5DB877" d="M148 116h4v4h-4zM152 116h4v4h-4z"/><path fill="#5EB978" d="M156 116h4v4h-4zM160 116h4v4h-4z"/><path fill="#439871" d="M164 116h4v4h-4zM168 116h4v4h-4z"/><path fill="#5EB978" d="M172 116h4v4h-4zM176 116h4v4h-4zM180 116h4v4h-4zM184 116h4v4h-4zM188 116h4v4h-4zM192 116h4v4h-4z"/><path fill="#0B675E" d="M196 116h4v4h-4zM200 116h4v4h-4zM204 116h4v4h-4z"/><path fill="#439871" d="M208 116h4v4h-4z"/><path fill="#0B675E" d="M212 116h4v4h-4z"/><path fill="#439871" d="M216 116h4v4h-4z"/><path fill="#0B675E" d="M220 116h4v4h-4z"/><path fill="#5EB978" d="M224 116h4v4h-4z"/><path fill="#439871" d="M228 116h4v4h-4z"/><path fill="#0B675E" d="M232 116h4v4h-4z"/><path fill="#439871" d="M236 116h4v4h-4zM240 116h4v4h-4zM244 116h4v4h-4z"/><path fill="#0B675E" d="M248 116h4v4h-4zM260 116h4v4h-4z"/><path fill="#5EB978" d="M264 116h4v4h-4z"/><path fill="#0B675E" d="M268 116h4v4h-4z"/><path fill="#883A89" d="M64 120h4v4h-4z"/><path fill="#D7548F" d="M68 120h4v4h-4z"/><path fill="#883A89" d="M72 120h4v4h-4z"/><path fill="#439871" d="M76 120h4v4h-4z"/><path fill="#5EB978" d="M80 120h4v4h-4zM84 120h4v4h-4zM88 120h4v4h-4zM92 120h4v4h-4zM96 120h4v4h-4zM100 120h4v4h-4zM104 120h4v4h-4zM108 120h4v4h-4z"/><path fill="#449972" d="M112 120h4v4h-4zM116 120h4v4h-4zM120 120h4v4h-4zM124 120h4v4h-4z"/><path fill="#479A74" d="M128 120h4v4h-4z"/><path fill="#499C76" d="M132 120h4v4h-4zM136 120h4v4h-4z"/><path fill="#5EB978" d="M140 120h4v4h-4zM144 120h4v4h-4zM148 120h4v4h-4zM152 120h4v4h-4zM156 120h4v4h-4z"/><path fill="#439871" d="M160 120h4v4h-4zM164 120h4v4h-4z"/><path fill="#5EB978" d="M168 120h4v4h-4zM172 120h4v4h-4z"/><path fill="#439871" d="M176 120h4v4h-4z"/><path fill="#883A89" d="M180 120h4v4h-4zM184 120h4v4h-4z"/><path fill="#439871" d="M188 120h4v4h-4z"/><path fill="#5EB978" d="M192 120h4v4h-4zM196 120h4v4h-4z"/><path fill="#0B675E" d="M200 120h4v4h-4z"/><path fill="#439871" d="M204 120h4v4h-4z"/><path fill="#0B675E" d="M208 120h4v4h-4zM212 120h4v4h-4zM216 120h4v4h-4z"/><path fill="#5EB978" d="M220 120h4v4h-4zM224 120h4v4h-4z"/><path fill="#0B675E" d="M228 120h4v4h-4z"/><path fill="#439871" d="M232 120h4v4h-4zM236 120h4v4h-4zM240 120h4v4h-4zM244 120h4v4h-4z"/><path fill="#0B675E" d="M248 120h4v4h-4zM260 120h4v4h-4z"/><path fill="#5EB978" d="M264 120h4v4h-4z"/><path fill="#0B675E" d="M268 120h4v4h-4z"/><path fill="#883A89" d="M64 124h4v4h-4z"/><path fill="#D7548F" d="M68 124h4v4h-4z"/><path fill="#F379C1" d="M72 124h4v4h-4z"/><path fill="#883A89" d="M76 124h4v4h-4zM80 124h4v4h-4z"/><path fill="#439871" d="M84 124h4v4h-4zM88 124h4v4h-4z"/><path fill="#5EB978" d="M92 124h4v4h-4zM96 124h4v4h-4zM100 124h4v4h-4zM104 124h4v4h-4zM108 124h4v4h-4zM112 124h4v4h-4zM116 124h4v4h-4zM120 124h4v4h-4zM124 124h4v4h-4zM128 124h4v4h-4zM132 124h4v4h-4zM136 124h4v4h-4zM140 124h4v4h-4zM144 124h4v4h-4zM148 124h4v4h-4zM152 124h4v4h-4zM156 124h4v4h-4zM160 124h4v4h-4zM164 124h4v4h-4zM168 124h4v4h-4z"/><path fill="#439871" d="M172 124h4v4h-4z"/><path fill="#883A89" d="M176 124h4v4h-4z"/><path fill="#F379C1" d="M180 124h4v4h-4zM184 124h4v4h-4z"/><path fill="#883A89" d="M188 124h4v4h-4z"/><path fill="#439871" d="M192 124h4v4h-4z"/><path fill="#5EB978" d="M196 124h4v4h-4z"/><path fill="#0B675E" d="M200 124h4v4h-4zM204 124h4v4h-4zM208 124h4v4h-4zM212 124h4v4h-4zM216 124h4v4h-4z"/><path fill="#5EB978" d="M220 124h4v4h-4z"/><path fill="#439871" d="M224 124h4v4h-4z"/><path fill="#0B675E" d="M228 124h4v4h-4z"/><path fill="#439871" d="M232 124h4v4h-4zM236 124h4v4h-4z"/><path fill="#5EB978" d="M240 124h4v4h-4zM244 124h4v4h-4zM248 124h4v4h-4z"/><path fill="#0B675E" d="M252 124h4v4h-4zM260 124h4v4h-4z"/><path fill="#439871" d="M264 124h4v4h-4z"/><path fill="#0B675E" d="M268 124h4v4h-4zM56 128h4v4h-4zM60 128h4v4h-4z"/><path fill="#883A89" d="M64 128h4v4h-4zM68 128h4v4h-4z"/><path fill="#D7548F" d="M72 128h4v4h-4zM76 128h4v4h-4z"/><path fill="#F379C1" d="M80 128h4v4h-4z"/><path fill="#883A89" d="M84 128h4v4h-4zM88 128h4v4h-4zM92 128h4v4h-4zM96 128h4v4h-4zM100 128h4v4h-4zM104 128h4v4h-4zM108 128h4v4h-4zM112 128h4v4h-4zM116 128h4v4h-4zM120 128h4v4h-4z"/><path fill="#439871" d="M124 128h4v4h-4z"/><path fill="#5EB978" d="M128 128h4v4h-4zM132 128h4v4h-4zM136 128h4v4h-4zM140 128h4v4h-4zM144 128h4v4h-4zM148 128h4v4h-4zM152 128h4v4h-4zM156 128h4v4h-4zM160 128h4v4h-4zM164 128h4v4h-4z"/><path fill="#439871" d="M168 128h4v4h-4z"/><path fill="#883A89" d="M172 128h4v4h-4z"/><path fill="#F379C1" d="M176 128h4v4h-4zM180 128h4v4h-4zM184 128h4v4h-4zM188 128h4v4h-4z"/><path fill="#883A89" d="M192 128h4v4h-4z"/><path fill="#5EB978" d="M196 128h4v4h-4z"/><path fill="#439871" d="M200 128h4v4h-4z"/><path fill="#0B675E" d="M204 128h4v4h-4zM208 128h4v4h-4zM212 128h4v4h-4z"/><path fill="#439871" d="M216 128h4v4h-4zM220 128h4v4h-4zM224 128h4v4h-4z"/><path fill="#0B675E" d="M228 128h4v4h-4z"/><path fill="#439871" d="M232 128h4v4h-4z"/><path fill="#5EB978" d="M236 128h4v4h-4zM240 128h4v4h-4zM244 128h4v4h-4zM248 128h4v4h-4zM252 128h4v4h-4z"/><path fill="#0B675E" d="M256 128h4v4h-4z"/><path fill="#439871" d="M260 128h4v4h-4zM264 128h4v4h-4z"/><path fill="#0B675E" d="M268 128h4v4h-4zM52 132h4v4h-4z"/><path fill="#5EB978" d="M56 132h4v4h-4zM60 132h4v4h-4zM64 132h4v4h-4z"/><path fill="#883A89" d="M68 132h4v4h-4zM72 132h4v4h-4z"/><path fill="#D7548F" d="M76 132h4v4h-4zM80 132h4v4h-4z"/><path fill="#F379C1" d="M84 132h4v4h-4zM88 132h4v4h-4z"/><path fill="#D7548F" d="M92 132h4v4h-4z"/><path fill="#F379C1" d="M96 132h4v4h-4zM100 132h4v4h-4z"/><path fill="#D7548F" d="M104 132h4v4h-4z"/><path fill="#F379C1" d="M108 132h4v4h-4zM112 132h4v4h-4z"/><path fill="#D7548F" d="M116 132h4v4h-4z"/><path fill="#F379C1" d="M120 132h4v4h-4z"/><path fill="#883A89" d="M124 132h4v4h-4zM128 132h4v4h-4zM132 132h4v4h-4z"/><path fill="#439871" d="M136 132h4v4h-4zM140 132h4v4h-4z"/><path fill="#5EB978" d="M144 132h4v4h-4zM148 132h4v4h-4zM152 132h4v4h-4z"/><path fill="#439871" d="M156 132h4v4h-4zM160 132h4v4h-4zM164 132h4v4h-4z"/><path fill="#883A89" d="M168 132h4v4h-4z"/><path fill="#F379C1" d="M172 132h4v4h-4zM176 132h4v4h-4zM180 132h4v4h-4z"/><path fill="#D7548F" d="M184 132h4v4h-4z"/><path fill="#F379C1" d="M188 132h4v4h-4z"/><path fill="#883A89" d="M192 132h4v4h-4z"/><path fill="#5EB978" d="M196 132h4v4h-4zM200 132h4v4h-4z"/><path fill="#0B675E" d="M204 132h4v4h-4zM208 132h4v4h-4zM212 132h4v4h-4z"/><path fill="#439871" d="M216 132h4v4h-4zM220 132h4v4h-4z"/><path fill="#0B675E" d="M224 132h4v4h-4zM228 132h4v4h-4z"/><path fill="#439871" d="M232 132h4v4h-4z"/><path fill="#5EB978" d="M236 132h4v4h-4zM240 132h4v4h-4zM244 132h4v4h-4zM248 132h4v4h-4zM252 132h4v4h-4z"/><path fill="#0B675E" d="M256 132h4v4h-4z"/><path fill="#439871" d="M260 132h4v4h-4z"/><path fill="#0B675E" d="M264 132h4v4h-4zM48 136h4v4h-4z"/><path fill="#5EB978" d="M52 136h4v4h-4z"/><path fill="#439871" d="M56 136h4v4h-4z"/><path fill="#0B675E" d="M60 136h4v4h-4zM64 136h4v4h-4z"/><path fill="#883A89" d="M68 136h4v4h-4z"/><path fill="#52294B" d="M72 136h4v4h-4z"/><path fill="#883A89" d="M76 136h4v4h-4zM80 136h4v4h-4z"/><path fill="#D7548F" d="M84 136h4v4h-4zM88 136h4v4h-4zM92 136h4v4h-4zM96 136h4v4h-4zM100 136h4v4h-4zM104 136h4v4h-4zM108 136h4v4h-4zM112 136h4v4h-4zM116 136h4v4h-4z"/><path fill="#F379C1" d="M120 136h4v4h-4zM124 136h4v4h-4zM128 136h4v4h-4z"/><path fill="#D7548F" d="M132 136h4v4h-4z"/><path fill="#883A89" d="M136 136h4v4h-4zM140 136h4v4h-4zM144 136h4v4h-4zM148 136h4v4h-4zM152 136h4v4h-4zM156 136h4v4h-4zM160 136h4v4h-4zM164 136h4v4h-4z"/><path fill="#F379C1" d="M168 136h4v4h-4zM172 136h4v4h-4zM176 136h4v4h-4z"/><path fill="#D7548F" d="M180 136h4v4h-4z"/><path fill="#883A89" d="M184 136h4v4h-4z"/><path fill="#F379C1" d="M188 136h4v4h-4z"/><path fill="#883A89" d="M192 136h4v4h-4z"/><path fill="#5EB978" d="M196 136h4v4h-4zM200 136h4v4h-4z"/><path fill="#0B675E" d="M204 136h4v4h-4z"/><path fill="#439871" d="M208 136h4v4h-4z"/><path fill="#0B675E" d="M212 136h4v4h-4zM216 136h4v4h-4z"/><path fill="#439871" d="M220 136h4v4h-4z"/><path fill="#0B675E" d="M224 136h4v4h-4zM228 136h4v4h-4zM232 136h4v4h-4z"/><path fill="#439871" d="M236 136h4v4h-4z"/><path fill="#5EB978" d="M240 136h4v4h-4zM244 136h4v4h-4zM248 136h4v4h-4zM252 136h4v4h-4zM256 136h4v4h-4z"/><path fill="#0B675E" d="M260 136h4v4h-4zM44 140h4v4h-4z"/><path fill="#5EB978" d="M48 140h4v4h-4z"/><path fill="#439871" d="M52 140h4v4h-4z"/><path fill="#0B675E" d="M56 140h4v4h-4z"/><path fill="#883A89" d="M64 140h4v4h-4z"/><path fill="#D7548F" d="M68 140h4v4h-4z"/><path fill="#52294B" d="M72 140h4v4h-4zM76 140h4v4h-4z"/><path fill="#8F5765" d="M80 140h4v4h-4z"/><path fill="#883A89" d="M84 140h4v4h-4zM88 140h4v4h-4zM92 140h4v4h-4zM96 140h4v4h-4zM100 140h4v4h-4zM104 140h4v4h-4zM108 140h4v4h-4zM112 140h4v4h-4zM116 140h4v4h-4z"/><path fill="#D7548F" d="M120 140h4v4h-4z"/><path fill="#F379C1" d="M124 140h4v4h-4zM128 140h4v4h-4z"/><path fill="#D7548F" d="M132 140h4v4h-4z"/><path fill="#F379C1" d="M136 140h4v4h-4zM140 140h4v4h-4zM144 140h4v4h-4zM148 140h4v4h-4z"/><path fill="#D7548F" d="M152 140h4v4h-4z"/><path fill="#F379C1" d="M156 140h4v4h-4zM160 140h4v4h-4zM164 140h4v4h-4zM168 140h4v4h-4z"/><path fill="#D7548F" d="M172 140h4v4h-4zM176 140h4v4h-4z"/><path fill="#883A89" d="M180 140h4v4h-4zM184 140h4v4h-4z"/><path fill="#D7548F" d="M188 140h4v4h-4z"/><path fill="#883A89" d="M192 140h4v4h-4z"/><path fill="#5EB978" d="M196 140h4v4h-4zM200 140h4v4h-4z"/><path fill="#0B675E" d="M204 140h4v4h-4z"/><path fill="#439871" d="M208 140h4v4h-4zM212 140h4v4h-4zM216 140h4v4h-4z"/><path fill="#0B675E" d="M220 140h4v4h-4zM224 140h4v4h-4zM228 140h4v4h-4zM232 140h4v4h-4z"/><path fill="#439871" d="M236 140h4v4h-4z"/><path fill="#5EB978" d="M240 140h4v4h-4zM244 140h4v4h-4zM248 140h4v4h-4zM252 140h4v4h-4zM256 140h4v4h-4z"/><path fill="#0B675E" d="M260 140h4v4h-4zM44 144h4v4h-4z"/><path fill="#5EB978" d="M48 144h4v4h-4z"/><path fill="#0B675E" d="M52 144h4v4h-4z"/><path fill="#883A89" d="M64 144h4v4h-4z"/><path fill="#D7548F" d="M68 144h4v4h-4z"/><path fill="#883A89" d="M72 144h4v4h-4z"/><path fill="#52294B" d="M76 144h4v4h-4z"/><path fill="#8F5765" d="M80 144h4v4h-4zM84 144h4v4h-4z"/><path fill="#CF968C" d="M88 144h4v4h-4zM92 144h4v4h-4zM96 144h4v4h-4zM100 144h4v4h-4zM104 144h4v4h-4zM108 144h4v4h-4zM112 144h4v4h-4z"/><path fill="#8F5765" d="M116 144h4v4h-4z"/><path fill="#883A89" d="M120 144h4v4h-4zM124 144h4v4h-4zM128 144h4v4h-4z"/><path fill="#D7548F" d="M132 144h4v4h-4zM136 144h4v4h-4zM140 144h4v4h-4zM144 144h4v4h-4zM148 144h4v4h-4zM152 144h4v4h-4zM156 144h4v4h-4zM160 144h4v4h-4zM164 144h4v4h-4zM168 144h4v4h-4z"/><path fill="#883A89" d="M172 144h4v4h-4zM176 144h4v4h-4z"/><path fill="#52294B" d="M180 144h4v4h-4z"/><path fill="#883A89" d="M184 144h4v4h-4z"/><path fill="#D7548F" d="M188 144h4v4h-4z"/><path fill="#883A89" d="M192 144h4v4h-4z"/><path fill="#5EB978" d="M196 144h4v4h-4z"/><path fill="#439871" d="M200 144h4v4h-4z"/><path fill="#0B675E" d="M204 144h4v4h-4z"/><path fill="#439871" d="M208 144h4v4h-4zM212 144h4v4h-4z"/><path fill="#5EB978" d="M216 144h4v4h-4zM220 144h4v4h-4z"/><path fill="#439871" d="M224 144h4v4h-4z"/><path fill="#0B675E" d="M228 144h4v4h-4z"/><path fill="#439871" d="M232 144h4v4h-4z"/><path fill="#5EB978" d="M236 144h4v4h-4zM240 144h4v4h-4zM244 144h4v4h-4zM248 144h4v4h-4zM252 144h4v4h-4zM256 144h4v4h-4z"/><path fill="#0B675E" d="M260 144h4v4h-4zM44 148h4v4h-4z"/><path fill="#5EB978" d="M48 148h4v4h-4z"/><path fill="#0B675E" d="M52 148h4v4h-4z"/><path fill="#883A89" d="M64 148h4v4h-4z"/><path fill="#D7548F" d="M68 148h4v4h-4z"/><path fill="#883A89" d="M72 148h4v4h-4z"/><path fill="#52294B" d="M76 148h4v4h-4zM80 148h4v4h-4z"/><path fill="#8F5765" d="M84 148h4v4h-4z"/><path fill="#915966" d="M88 148h4v4h-4z"/><path fill="#CF968C" d="M92 148h4v4h-4z"/><path fill="#CD948B" d="M96 148h4v4h-4z"/><path fill="#CF968C" d="M100 148h4v4h-4zM104 148h4v4h-4zM108 148h4v4h-4zM112 148h4v4h-4zM116 148h4v4h-4zM120 148h4v4h-4z"/><path fill="#8F5765" d="M124 148h4v4h-4zM128 148h4v4h-4z"/><path fill="#883A89" d="M132 148h4v4h-4zM136 148h4v4h-4zM140 148h4v4h-4zM144 148h4v4h-4zM148 148h4v4h-4zM152 148h4v4h-4zM156 148h4v4h-4zM160 148h4v4h-4zM164 148h4v4h-4zM168 148h4v4h-4z"/><path fill="#52294B" d="M172 148h4v4h-4zM176 148h4v4h-4z"/><path fill="#883A89" d="M180 148h4v4h-4z"/><path fill="#D7548F" d="M184 148h4v4h-4zM188 148h4v4h-4z"/><path fill="#883A89" d="M192 148h4v4h-4z"/><path fill="#5EB978" d="M196 148h4v4h-4z"/><path fill="#0B675E" d="M200 148h4v4h-4z"/><path fill="#439871" d="M204 148h4v4h-4zM208 148h4v4h-4z"/><path fill="#5EB978" d="M212 148h4v4h-4zM216 148h4v4h-4zM220 148h4v4h-4zM224 148h4v4h-4z"/><path fill="#439871" d="M228 148h4v4h-4z"/><path fill="#5EB978" d="M232 148h4v4h-4zM236 148h4v4h-4zM240 148h4v4h-4zM244 148h4v4h-4zM248 148h4v4h-4z"/><path fill="#439871" d="M252 148h4v4h-4z"/><path fill="#0B675E" d="M256 148h4v4h-4zM260 148h4v4h-4zM44 152h4v4h-4z"/><path fill="#439871" d="M48 152h4v4h-4z"/><path fill="#0B675E" d="M52 152h4v4h-4zM60 152h4v4h-4zM64 152h4v4h-4z"/><path fill="#883A89" d="M68 152h4v4h-4z"/><path fill="#F379C1" d="M72 152h4v4h-4z"/><path fill="#883A89" d="M76 152h4v4h-4z"/><path fill="#8F5765" d="M80 152h4v4h-4z"/><path fill="#CF968C" d="M84 152h4v4h-4z"/><path fill="#8F5765" d="M88 152h4v4h-4z"/><path fill="#CD948B" d="M92 152h4v4h-4z"/><path fill="#915966" d="M96 152h4v4h-4z"/><path fill="#8F5765" d="M100 152h4v4h-4zM104 152h4v4h-4z"/><path fill="#CF968C" d="M108 152h4v4h-4zM112 152h4v4h-4z"/><path fill="#8F5765" d="M116 152h4v4h-4z"/><path fill="#CF968C" d="M120 152h4v4h-4zM124 152h4v4h-4zM128 152h4v4h-4zM132 152h4v4h-4zM136 152h4v4h-4z"/><path fill="#CD948B" d="M140 152h4v4h-4z"/><path fill="#CF968C" d="M144 152h4v4h-4zM148 152h4v4h-4z"/><path fill="#8F5765" d="M152 152h4v4h-4zM156 152h4v4h-4zM160 152h4v4h-4z"/><path fill="#52294B" d="M164 152h4v4h-4zM168 152h4v4h-4zM172 152h4v4h-4z"/><path fill="#883A89" d="M176 152h4v4h-4z"/><path fill="#D7548F" d="M180 152h4v4h-4zM184 152h4v4h-4z"/><path fill="#883A89" d="M188 152h4v4h-4z"/><path fill="#439871" d="M192 152h4v4h-4z"/><path fill="#5EB978" d="M196 152h4v4h-4z"/><path fill="#0B675E" d="M200 152h4v4h-4z"/><path fill="#439871" d="M204 152h4v4h-4zM208 152h4v4h-4z"/><path fill="#5EB978" d="M212 152h4v4h-4zM216 152h4v4h-4zM220 152h4v4h-4zM224 152h4v4h-4zM228 152h4v4h-4z"/><path fill="#439871" d="M232 152h4v4h-4z"/><path fill="#5EB978" d="M236 152h4v4h-4zM240 152h4v4h-4zM244 152h4v4h-4z"/><path fill="#439871" d="M248 152h4v4h-4z"/><path fill="#5EB978" d="M252 152h4v4h-4zM256 152h4v4h-4z"/><path fill="#0B675E" d="M260 152h4v4h-4zM44 156h4v4h-4z"/><path fill="#439871" d="M48 156h4v4h-4zM52 156h4v4h-4z"/><path fill="#0B675E" d="M56 156h4v4h-4zM60 156h4v4h-4z"/><path fill="#439871" d="M64 156h4v4h-4z"/><path fill="#883A89" d="M68 156h4v4h-4z"/><path fill="#D7548F" d="M72 156h4v4h-4z"/><path fill="#F379C1" d="M76 156h4v4h-4z"/><path fill="#883A89" d="M80 156h4v4h-4z"/><path fill="#8F5765" d="M84 156h4v4h-4z"/><path fill="#CF968C" d="M88 156h4v4h-4z"/><path fill="#915966" d="M92 156h4v4h-4z"/><path fill="#CF968C" d="M96 156h4v4h-4zM100 156h4v4h-4zM104 156h4v4h-4z"/><path fill="#8F5765" d="M108 156h4v4h-4zM112 156h4v4h-4zM116 156h4v4h-4zM120 156h4v4h-4zM124 156h4v4h-4zM128 156h4v4h-4z"/><path fill="#915966" d="M132 156h4v4h-4z"/><path fill="#CD948B" d="M136 156h4v4h-4zM140 156h4v4h-4z"/><path fill="#8F5765" d="M144 156h4v4h-4zM148 156h4v4h-4zM152 156h4v4h-4z"/><path fill="#52294B" d="M156 156h4v4h-4zM160 156h4v4h-4z"/><path fill="#8F5765" d="M164 156h4v4h-4z"/><path fill="#52294B" d="M168 156h4v4h-4z"/><path fill="#883A89" d="M172 156h4v4h-4z"/><path fill="#D7548F" d="M176 156h4v4h-4z"/><path fill="#F379C1" d="M180 156h4v4h-4z"/><path fill="#D7548F" d="M184 156h4v4h-4z"/><path fill="#883A89" d="M188 156h4v4h-4z"/><path fill="#5EB978" d="M192 156h4v4h-4z"/><path fill="#439871" d="M196 156h4v4h-4z"/><path fill="#0B675E" d="M200 156h4v4h-4z"/><path fill="#439871" d="M204 156h4v4h-4zM208 156h4v4h-4z"/><path fill="#5EB978" d="M212 156h4v4h-4zM216 156h4v4h-4zM220 156h4v4h-4zM224 156h4v4h-4zM228 156h4v4h-4z"/><path fill="#439871" d="M232 156h4v4h-4z"/><path fill="#5EB978" d="M236 156h4v4h-4zM240 156h4v4h-4z"/><path fill="#439871" d="M244 156h4v4h-4z"/><path fill="#5EB978" d="M248 156h4v4h-4zM252 156h4v4h-4zM256 156h4v4h-4zM260 156h4v4h-4z"/><path fill="#0B675E" d="M264 156h4v4h-4zM40 160h4v4h-4zM48 160h4v4h-4z"/><path fill="#439871" d="M52 160h4v4h-4z"/><path fill="#0B675E" d="M56 160h4v4h-4z"/><path fill="#5EB978" d="M60 160h4v4h-4z"/><path fill="#439871" d="M64 160h4v4h-4z"/><path fill="#0B675E" d="M68 160h4v4h-4z"/><path fill="#883A89" d="M72 160h4v4h-4z"/><path fill="#D7548F" d="M76 160h4v4h-4z"/><path fill="#F379C1" d="M80 160h4v4h-4z"/><path fill="#883A89" d="M84 160h4v4h-4zM88 160h4v4h-4z"/><path fill="#8F5765" d="M92 160h4v4h-4z"/><path fill="#CF968C" d="M96 160h4v4h-4zM100 160h4v4h-4zM104 160h4v4h-4zM108 160h4v4h-4z"/><path fill="#8F5765" d="M112 160h4v4h-4z"/><path fill="#CF968C" d="M116 160h4v4h-4zM120 160h4v4h-4zM124 160h4v4h-4zM128 160h4v4h-4z"/><path fill="#915966" d="M132 160h4v4h-4z"/><path fill="#CF968C" d="M136 160h4v4h-4z"/><path fill="#915966" d="M140 160h4v4h-4z"/><path fill="#CF968C" d="M144 160h4v4h-4zM148 160h4v4h-4zM152 160h4v4h-4z"/><path fill="#8F5765" d="M156 160h4v4h-4zM160 160h4v4h-4z"/><path fill="#883A89" d="M164 160h4v4h-4zM168 160h4v4h-4z"/><path fill="#D7548F" d="M172 160h4v4h-4z"/><path fill="#F379C1" d="M176 160h4v4h-4z"/><path fill="#D7548F" d="M180 160h4v4h-4z"/><path fill="#883A89" d="M184 160h4v4h-4z"/><path fill="#5EB978" d="M188 160h4v4h-4zM192 160h4v4h-4z"/><path fill="#0B675E" d="M196 160h4v4h-4z"/><path fill="#439871" d="M200 160h4v4h-4zM204 160h4v4h-4zM208 160h4v4h-4z"/><path fill="#5EB978" d="M212 160h4v4h-4zM216 160h4v4h-4zM220 160h4v4h-4zM224 160h4v4h-4zM228 160h4v4h-4z"/><path fill="#439871" d="M232 160h4v4h-4z"/><path fill="#5EB978" d="M236 160h4v4h-4zM240 160h4v4h-4z"/><path fill="#0B675E" d="M244 160h4v4h-4zM248 160h4v4h-4zM252 160h4v4h-4z"/><path fill="#5EB978" d="M256 160h4v4h-4zM260 160h4v4h-4zM264 160h4v4h-4z"/><path fill="#0B675E" d="M268 160h4v4h-4zM40 164h4v4h-4zM44 164h4v4h-4zM48 164h4v4h-4zM52 164h4v4h-4z"/><path fill="#5EB978" d="M56 164h4v4h-4z"/><path fill="#439871" d="M60 164h4v4h-4z"/><path fill="#0B675E" d="M64 164h4v4h-4zM68 164h4v4h-4z"/><path fill="#439871" d="M72 164h4v4h-4z"/><path fill="#883A89" d="M76 164h4v4h-4z"/><path fill="#D7548F" d="M80 164h4v4h-4z"/><path fill="#F379C1" d="M84 164h4v4h-4z"/><path fill="#D7548F" d="M88 164h4v4h-4z"/><path fill="#883A89" d="M92 164h4v4h-4zM96 164h4v4h-4zM100 164h4v4h-4z"/><path fill="#8F5765" d="M104 164h4v4h-4z"/><path fill="#CF968C" d="M108 164h4v4h-4zM112 164h4v4h-4zM116 164h4v4h-4zM120 164h4v4h-4zM124 164h4v4h-4zM128 164h4v4h-4zM132 164h4v4h-4z"/><path fill="#915966" d="M136 164h4v4h-4z"/><path fill="#CD948B" d="M140 164h4v4h-4z"/><path fill="#883A89" d="M144 164h4v4h-4zM148 164h4v4h-4zM152 164h4v4h-4zM156 164h4v4h-4zM160 164h4v4h-4z"/><path fill="#D7548F" d="M164 164h4v4h-4z"/><path fill="#F379C1" d="M168 164h4v4h-4zM172 164h4v4h-4z"/><path fill="#D7548F" d="M176 164h4v4h-4z"/><path fill="#883A89" d="M180 164h4v4h-4z"/><path fill="#5EB978" d="M184 164h4v4h-4zM188 164h4v4h-4z"/><path fill="#439871" d="M192 164h4v4h-4z"/><path fill="#0B675E" d="M196 164h4v4h-4z"/><path fill="#439871" d="M200 164h4v4h-4zM204 164h4v4h-4zM208 164h4v4h-4zM212 164h4v4h-4z"/><path fill="#5EB978" d="M216 164h4v4h-4zM220 164h4v4h-4zM224 164h4v4h-4z"/><path fill="#439871" d="M228 164h4v4h-4zM232 164h4v4h-4z"/><path fill="#5EB978" d="M236 164h4v4h-4zM240 164h4v4h-4z"/><path fill="#439871" d="M244 164h4v4h-4zM248 164h4v4h-4zM252 164h4v4h-4z"/><path fill="#0B675E" d="M256 164h4v4h-4zM260 164h4v4h-4zM264 164h4v4h-4zM268 164h4v4h-4zM44 168h4v4h-4z"/><path fill="#5EB978" d="M48 168h4v4h-4zM52 168h4v4h-4z"/><path fill="#439871" d="M56 168h4v4h-4z"/><path fill="#0B675E" d="M60 168h4v4h-4z"/><path fill="#439871" d="M64 168h4v4h-4zM68 168h4v4h-4z"/><path fill="#0B675E" d="M72 168h4v4h-4z"/><path fill="#439871" d="M76 168h4v4h-4z"/><path fill="#883A89" d="M80 168h4v4h-4z"/><path fill="#D7548F" d="M84 168h4v4h-4z"/><path fill="#F379C1" d="M88 168h4v4h-4z"/><path fill="#D7548F" d="M92 168h4v4h-4z"/><path fill="#F379C1" d="M96 168h4v4h-4z"/><path fill="#D7548F" d="M100 168h4v4h-4z"/><path fill="#883A89" d="M104 168h4v4h-4zM108 168h4v4h-4zM112 168h4v4h-4zM116 168h4v4h-4zM120 168h4v4h-4zM124 168h4v4h-4zM128 168h4v4h-4zM132 168h4v4h-4zM136 168h4v4h-4zM140 168h4v4h-4z"/><path fill="#D7548F" d="M144 168h4v4h-4z"/><path fill="#F379C1" d="M148 168h4v4h-4zM152 168h4v4h-4z"/><path fill="#D7548F" d="M156 168h4v4h-4z"/><path fill="#F379C1" d="M160 168h4v4h-4zM164 168h4v4h-4z"/><path fill="#D7548F" d="M168 168h4v4h-4zM172 168h4v4h-4z"/><path fill="#883A89" d="M176 168h4v4h-4z"/><path fill="#439871" d="M180 168h4v4h-4z"/><path fill="#5EB978" d="M184 168h4v4h-4z"/><path fill="#439871" d="M188 168h4v4h-4z"/><path fill="#0B675E" d="M192 168h4v4h-4z"/><path fill="#439871" d="M196 168h4v4h-4zM200 168h4v4h-4zM204 168h4v4h-4zM208 168h4v4h-4zM212 168h4v4h-4zM216 168h4v4h-4zM220 168h4v4h-4zM224 168h4v4h-4zM228 168h4v4h-4zM232 168h4v4h-4zM236 168h4v4h-4z"/><path fill="#5EB978" d="M240 168h4v4h-4zM244 168h4v4h-4z"/><path fill="#439871" d="M248 168h4v4h-4zM252 168h4v4h-4z"/><path fill="#0B675E" d="M256 168h4v4h-4zM48 172h4v4h-4z"/><path fill="#439871" d="M52 172h4v4h-4z"/><path fill="#5EB978" d="M56 172h4v4h-4zM60 172h4v4h-4zM64 172h4v4h-4zM68 172h4v4h-4z"/><path fill="#439871" d="M72 172h4v4h-4z"/><path fill="#0B675E" d="M76 172h4v4h-4z"/><path fill="#439871" d="M80 172h4v4h-4z"/><path fill="#883A89" d="M84 172h4v4h-4zM88 172h4v4h-4z"/><path fill="#D7548F" d="M92 172h4v4h-4zM96 172h4v4h-4z"/><path fill="#F379C1" d="M100 172h4v4h-4zM104 172h4v4h-4z"/><path fill="#D7548F" d="M108 172h4v4h-4z"/><path fill="#F379C1" d="M112 172h4v4h-4zM116 172h4v4h-4zM120 172h4v4h-4z"/><path fill="#D7548F" d="M124 172h4v4h-4z"/><path fill="#F379C1" d="M128 172h4v4h-4zM132 172h4v4h-4z"/><path fill="#D7548F" d="M136 172h4v4h-4z"/><path fill="#F379C1" d="M140 172h4v4h-4zM144 172h4v4h-4z"/><path fill="#D7548F" d="M148 172h4v4h-4zM152 172h4v4h-4zM156 172h4v4h-4zM160 172h4v4h-4zM164 172h4v4h-4z"/><path fill="#883A89" d="M168 172h4v4h-4zM172 172h4v4h-4z"/><path fill="#439871" d="M176 172h4v4h-4z"/><path fill="#5EB978" d="M180 172h4v4h-4z"/><path fill="#439871" d="M184 172h4v4h-4z"/><path fill="#0B675E" d="M188 172h4v4h-4zM192 172h4v4h-4zM196 172h4v4h-4z"/><path fill="#439871" d="M200 172h4v4h-4zM204 172h4v4h-4zM208 172h4v4h-4zM212 172h4v4h-4zM216 172h4v4h-4zM220 172h4v4h-4zM224 172h4v4h-4zM228 172h4v4h-4zM232 172h4v4h-4zM236 172h4v4h-4zM240 172h4v4h-4zM244 172h4v4h-4zM248 172h4v4h-4z"/><path fill="#0B675E" d="M252 172h4v4h-4zM52 176h4v4h-4z"/><path fill="#439871" d="M56 176h4v4h-4zM60 176h4v4h-4z"/><path fill="#5EB978" d="M64 176h4v4h-4zM68 176h4v4h-4z"/><path fill="#439871" d="M72 176h4v4h-4zM76 176h4v4h-4z"/><path fill="#0B675E" d="M80 176h4v4h-4z"/><path fill="#439871" d="M84 176h4v4h-4zM88 176h4v4h-4z"/><path fill="#883A89" d="M92 176h4v4h-4zM96 176h4v4h-4z"/><path fill="#D7548F" d="M100 176h4v4h-4zM104 176h4v4h-4zM108 176h4v4h-4zM112 176h4v4h-4zM116 176h4v4h-4zM120 176h4v4h-4zM124 176h4v4h-4zM128 176h4v4h-4zM132 176h4v4h-4zM136 176h4v4h-4zM140 176h4v4h-4zM144 176h4v4h-4z"/><path fill="#883A89" d="M148 176h4v4h-4zM152 176h4v4h-4zM156 176h4v4h-4zM160 176h4v4h-4zM164 176h4v4h-4z"/><path fill="#439871" d="M168 176h4v4h-4zM172 176h4v4h-4zM176 176h4v4h-4zM180 176h4v4h-4z"/><path fill="#0B675E" d="M184 176h4v4h-4zM188 176h4v4h-4zM192 176h4v4h-4zM196 176h4v4h-4zM200 176h4v4h-4zM204 176h4v4h-4z"/><path fill="#439871" d="M208 176h4v4h-4zM212 176h4v4h-4zM216 176h4v4h-4zM220 176h4v4h-4zM224 176h4v4h-4zM228 176h4v4h-4zM232 176h4v4h-4zM236 176h4v4h-4zM240 176h4v4h-4zM244 176h4v4h-4z"/><path fill="#0B675E" d="M248 176h4v4h-4zM52 180h4v4h-4zM56 180h4v4h-4zM60 180h4v4h-4zM64 180h4v4h-4zM68 180h4v4h-4zM72 180h4v4h-4zM76 180h4v4h-4zM80 180h4v4h-4zM84 180h4v4h-4z"/><path fill="#439871" d="M88 180h4v4h-4zM92 180h4v4h-4zM96 180h4v4h-4z"/><path fill="#883A89" d="M100 180h4v4h-4zM104 180h4v4h-4zM108 180h4v4h-4zM112 180h4v4h-4zM116 180h4v4h-4zM120 180h4v4h-4zM124 180h4v4h-4zM128 180h4v4h-4zM132 180h4v4h-4zM136 180h4v4h-4zM140 180h4v4h-4zM144 180h4v4h-4z"/><path fill="#439871" d="M148 180h4v4h-4zM152 180h4v4h-4zM156 180h4v4h-4zM160 180h4v4h-4zM164 180h4v4h-4zM168 180h4v4h-4zM172 180h4v4h-4zM176 180h4v4h-4z"/><path fill="#0B675E" d="M180 180h4v4h-4zM184 180h4v4h-4zM188 180h4v4h-4zM192 180h4v4h-4zM196 180h4v4h-4zM200 180h4v4h-4zM204 180h4v4h-4zM208 180h4v4h-4zM212 180h4v4h-4z"/><path fill="#439871" d="M216 180h4v4h-4zM220 180h4v4h-4zM224 180h4v4h-4zM228 180h4v4h-4zM232 180h4v4h-4zM236 180h4v4h-4z"/><path fill="#0B675E" d="M240 180h4v4h-4zM244 180h4v4h-4zM248 180h4v4h-4zM48 184h4v4h-4z"/><path fill="#5EB978" d="M52 184h4v4h-4zM56 184h4v4h-4zM60 184h4v4h-4zM64 184h4v4h-4z"/><path fill="#439871" d="M68 184h4v4h-4z"/><path fill="#5EB978" d="M72 184h4v4h-4zM76 184h4v4h-4z"/><path fill="#0B675E" d="M80 184h4v4h-4zM84 184h4v4h-4zM88 184h4v4h-4zM92 184h4v4h-4z"/><path fill="#439871" d="M96 184h4v4h-4zM100 184h4v4h-4zM104 184h4v4h-4zM108 184h4v4h-4zM112 184h4v4h-4zM116 184h4v4h-4zM120 184h4v4h-4zM124 184h4v4h-4zM128 184h4v4h-4zM132 184h4v4h-4zM136 184h4v4h-4zM140 184h4v4h-4zM144 184h4v4h-4zM148 184h4v4h-4zM152 184h4v4h-4zM156 184h4v4h-4zM160 184h4v4h-4zM164 184h4v4h-4zM168 184h4v4h-4z"/><path fill="#0B675E" d="M172 184h4v4h-4zM176 184h4v4h-4zM180 184h4v4h-4zM184 184h4v4h-4zM188 184h4v4h-4zM192 184h4v4h-4zM196 184h4v4h-4zM200 184h4v4h-4zM204 184h4v4h-4zM208 184h4v4h-4zM212 184h4v4h-4zM216 184h4v4h-4zM220 184h4v4h-4zM224 184h4v4h-4zM228 184h4v4h-4zM232 184h4v4h-4zM236 184h4v4h-4zM240 184h4v4h-4z"/><path fill="#883A89" d="M244 184h4v4h-4z"/><path fill="#439871" d="M248 184h4v4h-4z"/><path fill="#0B675E" d="M252 184h4v4h-4zM44 188h4v4h-4z"/><path fill="#5EB978" d="M48 188h4v4h-4zM52 188h4v4h-4zM56 188h4v4h-4z"/><path fill="#0B675E" d="M60 188h4v4h-4zM64 188h4v4h-4zM68 188h4v4h-4z"/><path fill="#5EB978" d="M72 188h4v4h-4z"/><path fill="#0B675E" d="M76 188h4v4h-4zM80 188h4v4h-4zM84 188h4v4h-4zM88 188h4v4h-4zM92 188h4v4h-4zM96 188h4v4h-4zM100 188h4v4h-4zM104 188h4v4h-4z"/><path fill="#439871" d="M108 188h4v4h-4zM112 188h4v4h-4zM116 188h4v4h-4zM120 188h4v4h-4zM124 188h4v4h-4zM128 188h4v4h-4zM132 188h4v4h-4zM136 188h4v4h-4zM140 188h4v4h-4zM144 188h4v4h-4zM148 188h4v4h-4z"/><path fill="#0B675E" d="M152 188h4v4h-4zM156 188h4v4h-4zM160 188h4v4h-4zM164 188h4v4h-4zM168 188h4v4h-4zM172 188h4v4h-4zM176 188h4v4h-4zM180 188h4v4h-4zM184 188h4v4h-4zM188 188h4v4h-4zM192 188h4v4h-4zM196 188h4v4h-4z"/><path fill="#5EB978" d="M200 188h4v4h-4z"/><path fill="#0B675E" d="M204 188h4v4h-4zM208 188h4v4h-4zM212 188h4v4h-4zM216 188h4v4h-4zM220 188h4v4h-4zM224 188h4v4h-4z"/><path fill="#439871" d="M228 188h4v4h-4zM232 188h4v4h-4zM236 188h4v4h-4z"/><path fill="#0B675E" d="M240 188h4v4h-4zM244 188h4v4h-4z"/><path fill="#439871" d="M248 188h4v4h-4z"/><path fill="#5EB978" d="M252 188h4v4h-4z"/><path fill="#0B675E" d="M256 188h4v4h-4zM272 188h4v4h-4zM44 192h4v4h-4zM48 192h4v4h-4zM52 192h4v4h-4zM56 192h4v4h-4z"/><path fill="#439871" d="M60 192h4v4h-4z"/><path fill="#0B675E" d="M64 192h4v4h-4z"/><path fill="#5EB978" d="M68 192h4v4h-4z"/><path fill="#0B675E" d="M72 192h4v4h-4z"/><path fill="#439871" d="M76 192h4v4h-4zM80 192h4v4h-4zM84 192h4v4h-4zM88 192h4v4h-4zM92 192h4v4h-4z"/><path fill="#0B675E" d="M96 192h4v4h-4zM100 192h4v4h-4zM104 192h4v4h-4zM108 192h4v4h-4zM112 192h4v4h-4zM116 192h4v4h-4zM120 192h4v4h-4zM124 192h4v4h-4zM128 192h4v4h-4zM132 192h4v4h-4zM136 192h4v4h-4zM140 192h4v4h-4zM144 192h4v4h-4zM148 192h4v4h-4z"/><path fill="#439871" d="M152 192h4v4h-4zM156 192h4v4h-4zM160 192h4v4h-4z"/><path fill="#0B675E" d="M164 192h4v4h-4zM168 192h4v4h-4zM172 192h4v4h-4z"/><path fill="#5EB978" d="M176 192h4v4h-4zM180 192h4v4h-4z"/><path fill="#439871" d="M184 192h4v4h-4z"/><path fill="#0B675E" d="M188 192h4v4h-4zM192 192h4v4h-4z"/><path fill="#439871" d="M196 192h4v4h-4z"/><path fill="#5EB978" d="M200 192h4v4h-4z"/><path fill="#0B675E" d="M204 192h4v4h-4zM208 192h4v4h-4zM212 192h4v4h-4zM216 192h4v4h-4zM220 192h4v4h-4z"/><path fill="#439871" d="M224 192h4v4h-4zM228 192h4v4h-4z"/><path fill="#5EB978" d="M232 192h4v4h-4zM236 192h4v4h-4zM240 192h4v4h-4z"/><path fill="#0B675E" d="M244 192h4v4h-4zM248 192h4v4h-4z"/><path fill="#439871" d="M252 192h4v4h-4z"/><path fill="#5EB978" d="M256 192h4v4h-4z"/><path fill="#0B675E" d="M260 192h4v4h-4zM264 192h4v4h-4zM268 192h4v4h-4zM272 192h4v4h-4zM56 196h4v4h-4z"/><path fill="#439871" d="M60 196h4v4h-4z"/><path fill="#0B675E" d="M64 196h4v4h-4z"/><path fill="#5EB978" d="M68 196h4v4h-4zM72 196h4v4h-4z"/><path fill="#0B675E" d="M76 196h4v4h-4z"/><path fill="#5EB978" d="M80 196h4v4h-4zM84 196h4v4h-4zM88 196h4v4h-4z"/><path fill="#439871" d="M92 196h4v4h-4z"/><path fill="#449972" d="M96 196h4v4h-4zM100 196h4v4h-4z"/><path fill="#439871" d="M104 196h4v4h-4zM108 196h4v4h-4zM112 196h4v4h-4zM116 196h4v4h-4z"/><path fill="#0B675E" d="M120 196h4v4h-4zM124 196h4v4h-4z"/><path fill="#439871" d="M128 196h4v4h-4zM132 196h4v4h-4zM136 196h4v4h-4zM140 196h4v4h-4zM144 196h4v4h-4zM148 196h4v4h-4zM152 196h4v4h-4z"/><path fill="#5EB978" d="M156 196h4v4h-4zM160 196h4v4h-4z"/><path fill="#439871" d="M164 196h4v4h-4z"/><path fill="#0B675E" d="M168 196h4v4h-4z"/><path fill="#5EB978" d="M172 196h4v4h-4z"/><path fill="#439871" d="M176 196h4v4h-4z"/><path fill="#0B675E" d="M180 196h4v4h-4z"/><path fill="#439871" d="M184 196h4v4h-4zM188 196h4v4h-4z"/><path fill="#0B675E" d="M192 196h4v4h-4zM196 196h4v4h-4z"/><path fill="#439871" d="M200 196h4v4h-4z"/><path fill="#5EB978" d="M204 196h4v4h-4zM208 196h4v4h-4z"/><path fill="#0B675E" d="M212 196h4v4h-4zM216 196h4v4h-4z"/><path fill="#439871" d="M220 196h4v4h-4zM224 196h4v4h-4z"/><path fill="#5EB978" d="M228 196h4v4h-4zM232 196h4v4h-4zM236 196h4v4h-4zM240 196h4v4h-4z"/><path fill="#0B675E" d="M244 196h4v4h-4z"/><path fill="#439871" d="M248 196h4v4h-4z"/><path fill="#0B675E" d="M252 196h4v4h-4z"/><path fill="#439871" d="M256 196h4v4h-4z"/><path fill="#5EB978" d="M260 196h4v4h-4zM264 196h4v4h-4z"/><path fill="#0B675E" d="M268 196h4v4h-4zM60 200h4v4h-4zM64 200h4v4h-4z"/><path fill="#5EB978" d="M68 200h4v4h-4zM72 200h4v4h-4zM76 200h4v4h-4z"/><path fill="#439871" d="M80 200h4v4h-4z"/><path fill="#5EB978" d="M84 200h4v4h-4z"/><path fill="#439871" d="M88 200h4v4h-4z"/><path fill="#449972" d="M92 200h4v4h-4zM96 200h4v4h-4zM100 200h4v4h-4zM104 200h4v4h-4z"/><path fill="#439871" d="M108 200h4v4h-4zM112 200h4v4h-4z"/><path fill="#0B675E" d="M116 200h4v4h-4zM120 200h4v4h-4zM124 200h4v4h-4zM128 200h4v4h-4z"/><path fill="#439871" d="M132 200h4v4h-4zM136 200h4v4h-4zM140 200h4v4h-4zM144 200h4v4h-4zM148 200h4v4h-4z"/><path fill="#5EB978" d="M152 200h4v4h-4zM156 200h4v4h-4zM160 200h4v4h-4zM164 200h4v4h-4z"/><path fill="#0B675E" d="M168 200h4v4h-4z"/><path fill="#5EB978" d="M172 200h4v4h-4z"/><path fill="#439871" d="M176 200h4v4h-4z"/><path fill="#0B675E" d="M180 200h4v4h-4zM184 200h4v4h-4zM188 200h4v4h-4zM192 200h4v4h-4zM196 200h4v4h-4zM200 200h4v4h-4zM204 200h4v4h-4z"/><path fill="#439871" d="M208 200h4v4h-4z"/><path fill="#5EB978" d="M212 200h4v4h-4z"/><path fill="#0B675E" d="M216 200h4v4h-4zM220 200h4v4h-4z"/><path fill="#439871" d="M224 200h4v4h-4z"/><path fill="#5EB978" d="M228 200h4v4h-4zM232 200h4v4h-4zM236 200h4v4h-4zM240 200h4v4h-4z"/><path fill="#0B675E" d="M244 200h4v4h-4zM248 200h4v4h-4z"/><path fill="#5EB978" d="M252 200h4v4h-4zM256 200h4v4h-4z"/><path fill="#439871" d="M260 200h4v4h-4z"/><path fill="#0B675E" d="M264 200h4v4h-4zM64 204h4v4h-4zM68 204h4v4h-4z"/><path fill="#439871" d="M72 204h4v4h-4zM76 204h4v4h-4z"/><path fill="#5EB978" d="M80 204h4v4h-4zM84 204h4v4h-4z"/><path fill="#439871" d="M88 204h4v4h-4z"/><path fill="#449972" d="M92 204h4v4h-4zM96 204h4v4h-4zM100 204h4v4h-4zM104 204h4v4h-4zM108 204h4v4h-4z"/><path fill="#419770" d="M112 204h4v4h-4z"/><path fill="#5EB978" d="M116 204h4v4h-4zM120 204h4v4h-4zM124 204h4v4h-4z"/><path fill="#0B675E" d="M128 204h4v4h-4z"/><path fill="#439871" d="M132 204h4v4h-4zM136 204h4v4h-4zM140 204h4v4h-4zM144 204h4v4h-4zM148 204h4v4h-4z"/><path fill="#5EB978" d="M152 204h4v4h-4zM156 204h4v4h-4zM160 204h4v4h-4zM164 204h4v4h-4z"/><path fill="#0B675E" d="M168 204h4v4h-4z"/><path fill="#5EB978" d="M172 204h4v4h-4z"/><path fill="#0B675E" d="M176 204h4v4h-4z"/><path fill="#439871" d="M180 204h4v4h-4z"/><path fill="#5EB978" d="M184 204h4v4h-4zM188 204h4v4h-4zM192 204h4v4h-4zM196 204h4v4h-4zM200 204h4v4h-4z"/><path fill="#439871" d="M204 204h4v4h-4z"/><path fill="#0B675E" d="M208 204h4v4h-4zM212 204h4v4h-4z"/><path fill="#5EB978" d="M216 204h4v4h-4zM220 204h4v4h-4z"/><path fill="#0B675E" d="M224 204h4v4h-4z"/><path fill="#439871" d="M228 204h4v4h-4z"/><path fill="#5EB978" d="M232 204h4v4h-4zM236 204h4v4h-4zM240 204h4v4h-4z"/><path fill="#0B675E" d="M244 204h4v4h-4z"/><path fill="#5EB978" d="M248 204h4v4h-4z"/><path fill="#0B675E" d="M252 204h4v4h-4z"/><path fill="#439871" d="M256 204h4v4h-4z"/><path fill="#0B675E" d="M260 204h4v4h-4zM64 208h4v4h-4z"/><path fill="#439871" d="M68 208h4v4h-4z"/><path fill="#5EB978" d="M72 208h4v4h-4zM76 208h4v4h-4z"/><path fill="#0B675E" d="M80 208h4v4h-4zM84 208h4v4h-4zM88 208h4v4h-4zM92 208h4v4h-4z"/><path fill="#449972" d="M96 208h4v4h-4zM100 208h4v4h-4zM104 208h4v4h-4zM108 208h4v4h-4z"/><path fill="#0B675E" d="M112 208h4v4h-4z"/><path fill="#5EB978" d="M116 208h4v4h-4zM120 208h4v4h-4zM124 208h4v4h-4z"/><path fill="#0B675E" d="M128 208h4v4h-4zM132 208h4v4h-4z"/><path fill="#439871" d="M136 208h4v4h-4zM140 208h4v4h-4zM144 208h4v4h-4zM148 208h4v4h-4zM152 208h4v4h-4z"/><path fill="#5EB978" d="M156 208h4v4h-4zM160 208h4v4h-4z"/><path fill="#0B675E" d="M164 208h4v4h-4z"/><path fill="#5EB978" d="M168 208h4v4h-4z"/><path fill="#439871" d="M172 208h4v4h-4z"/><path fill="#0B675E" d="M176 208h4v4h-4z"/><path fill="#439871" d="M180 208h4v4h-4z"/><path fill="#5EB978" d="M184 208h4v4h-4zM188 208h4v4h-4zM192 208h4v4h-4zM196 208h4v4h-4zM200 208h4v4h-4zM204 208h4v4h-4z"/><path fill="#439871" d="M208 208h4v4h-4zM212 208h4v4h-4z"/><path fill="#0B675E" d="M216 208h4v4h-4zM220 208h4v4h-4z"/><path fill="#5EB978" d="M224 208h4v4h-4z"/><path fill="#0B675E" d="M228 208h4v4h-4z"/><path fill="#439871" d="M232 208h4v4h-4z"/><path fill="#5EB978" d="M236 208h4v4h-4zM240 208h4v4h-4z"/><path fill="#0B675E" d="M244 208h4v4h-4z"/><path fill="#5EB978" d="M248 208h4v4h-4zM252 208h4v4h-4z"/><path fill="#0B675E" d="M256 208h4v4h-4zM64 212h4v4h-4z"/><path fill="#439871" d="M68 212h4v4h-4zM72 212h4v4h-4z"/><path fill="#5EB978" d="M76 212h4v4h-4z"/><path fill="#0B675E" d="M80 212h4v4h-4zM84 212h4v4h-4zM88 212h4v4h-4zM92 212h4v4h-4zM96 212h4v4h-4zM100 212h4v4h-4z"/><path fill="#419770" d="M104 212h4v4h-4z"/><path fill="#5EB978" d="M108 212h4v4h-4z"/><path fill="#439871" d="M112 212h4v4h-4z"/><path fill="#0B675E" d="M116 212h4v4h-4z"/><path fill="#5EB978" d="M120 212h4v4h-4zM124 212h4v4h-4z"/><path fill="#0B675E" d="M128 212h4v4h-4z"/><path fill="#439871" d="M132 212h4v4h-4z"/><path fill="#0B675E" d="M136 212h4v4h-4zM140 212h4v4h-4zM144 212h4v4h-4zM148 212h4v4h-4zM152 212h4v4h-4zM156 212h4v4h-4zM160 212h4v4h-4z"/><path fill="#5EB978" d="M164 212h4v4h-4z"/><path fill="#439871" d="M168 212h4v4h-4z"/><path fill="#0B675E" d="M172 212h4v4h-4z"/><path fill="#439871" d="M176 212h4v4h-4zM180 212h4v4h-4z"/><path fill="#0B675E" d="M184 212h4v4h-4zM188 212h4v4h-4zM192 212h4v4h-4z"/><path fill="#439871" d="M196 212h4v4h-4z"/><path fill="#5EB978" d="M200 212h4v4h-4zM204 212h4v4h-4zM208 212h4v4h-4z"/><path fill="#439871" d="M212 212h4v4h-4zM216 212h4v4h-4zM220 212h4v4h-4z"/><path fill="#0B675E" d="M224 212h4v4h-4z"/><path fill="#5EB978" d="M228 212h4v4h-4z"/><path fill="#0B675E" d="M232 212h4v4h-4z"/><path fill="#5EB978" d="M236 212h4v4h-4z"/><path fill="#439871" d="M240 212h4v4h-4z"/><path fill="#0B675E" d="M244 212h4v4h-4zM248 212h4v4h-4zM252 212h4v4h-4zM64 216h4v4h-4z"/><path fill="#439871" d="M68 216h4v4h-4zM72 216h4v4h-4z"/><path fill="#0B675E" d="M76 216h4v4h-4zM80 216h4v4h-4zM84 216h4v4h-4zM88 216h4v4h-4zM92 216h4v4h-4zM96 216h4v4h-4zM100 216h4v4h-4zM104 216h4v4h-4z"/><path fill="#419770" d="M108 216h4v4h-4z"/><path fill="#5EB978" d="M112 216h4v4h-4zM116 216h4v4h-4z"/><path fill="#439871" d="M120 216h4v4h-4z"/><path fill="#5EB978" d="M124 216h4v4h-4z"/><path fill="#439871" d="M128 216h4v4h-4z"/><path fill="#5EB978" d="M132 216h4v4h-4z"/><path fill="#439871" d="M136 216h4v4h-4z"/><path fill="#0B675E" d="M140 216h4v4h-4z"/><path fill="#439871" d="M144 216h4v4h-4zM148 216h4v4h-4z"/><path fill="#5EB978" d="M152 216h4v4h-4zM156 216h4v4h-4zM160 216h4v4h-4z"/><path fill="#439871" d="M164 216h4v4h-4z"/><path fill="#0B675E" d="M168 216h4v4h-4z"/><path fill="#439871" d="M172 216h4v4h-4zM176 216h4v4h-4z"/><path fill="#0B675E" d="M180 216h4v4h-4z"/><path fill="#5EB978" d="M184 216h4v4h-4zM188 216h4v4h-4zM192 216h4v4h-4zM196 216h4v4h-4zM200 216h4v4h-4z"/><path fill="#439871" d="M204 216h4v4h-4z"/><path fill="#5EB978" d="M208 216h4v4h-4zM212 216h4v4h-4z"/><path fill="#439871" d="M216 216h4v4h-4zM220 216h4v4h-4z"/><path fill="#0B675E" d="M224 216h4v4h-4z"/><path fill="#5EB978" d="M228 216h4v4h-4z"/><path fill="#0B675E" d="M232 216h4v4h-4z"/><path fill="#439871" d="M236 216h4v4h-4z"/><path fill="#0B675E" d="M240 216h4v4h-4zM244 216h4v4h-4zM248 216h4v4h-4zM64 220h4v4h-4zM68 220h4v4h-4z"/><path fill="#5EB978" d="M72 220h4v4h-4zM76 220h4v4h-4zM80 220h4v4h-4z"/><path fill="#439871" d="M84 220h4v4h-4zM88 220h4v4h-4z"/><path fill="#0B675E" d="M92 220h4v4h-4zM96 220h4v4h-4zM100 220h4v4h-4zM104 220h4v4h-4z"/><path fill="#419770" d="M108 220h4v4h-4z"/><path fill="#5EB978" d="M112 220h4v4h-4z"/><path fill="#449972" d="M116 220h4v4h-4z"/><path fill="#5EB978" d="M120 220h4v4h-4zM124 220h4v4h-4zM128 220h4v4h-4zM132 220h4v4h-4zM136 220h4v4h-4z"/><path fill="#0B675E" d="M140 220h4v4h-4zM144 220h4v4h-4zM148 220h4v4h-4zM152 220h4v4h-4zM156 220h4v4h-4zM160 220h4v4h-4zM164 220h4v4h-4z"/><path fill="#439871" d="M168 220h4v4h-4zM172 220h4v4h-4z"/><path fill="#5EB978" d="M176 220h4v4h-4z"/><path fill="#439871" d="M180 220h4v4h-4z"/><path fill="#0B675E" d="M184 220h4v4h-4z"/><path fill="#5EB978" d="M188 220h4v4h-4zM192 220h4v4h-4zM196 220h4v4h-4z"/><path fill="#0B675E" d="M200 220h4v4h-4z"/><path fill="#5EB978" d="M204 220h4v4h-4zM208 220h4v4h-4zM212 220h4v4h-4z"/><path fill="#439871" d="M216 220h4v4h-4zM220 220h4v4h-4z"/><path fill="#0B675E" d="M224 220h4v4h-4z"/><path fill="#5EB978" d="M228 220h4v4h-4z"/><path fill="#0B675E" d="M232 220h4v4h-4zM236 220h4v4h-4zM240 220h4v4h-4z"/><path fill="#5EB978" d="M244 220h4v4h-4z"/><path fill="#0B675E" d="M248 220h4v4h-4zM68 224h4v4h-4z"/><path fill="#5EB978" d="M72 224h4v4h-4zM76 224h4v4h-4zM80 224h4v4h-4zM84 224h4v4h-4z"/><path fill="#439871" d="M88 224h4v4h-4zM92 224h4v4h-4z"/><path fill="#0B675E" d="M96 224h4v4h-4zM100 224h4v4h-4z"/><path fill="#5EB978" d="M104 224h4v4h-4z"/><path fill="#0B675E" d="M108 224h4v4h-4z"/><path fill="#439871" d="M112 224h4v4h-4z"/><path fill="#449972" d="M116 224h4v4h-4z"/><path fill="#5EB978" d="M120 224h4v4h-4zM124 224h4v4h-4zM128 224h4v4h-4zM132 224h4v4h-4zM136 224h4v4h-4z"/><path fill="#439871" d="M140 224h4v4h-4z"/><path fill="#0B675E" d="M144 224h4v4h-4z"/><path fill="#439871" d="M148 224h4v4h-4zM152 224h4v4h-4zM156 224h4v4h-4zM160 224h4v4h-4zM164 224h4v4h-4zM168 224h4v4h-4z"/><path fill="#5EB978" d="M172 224h4v4h-4zM176 224h4v4h-4zM180 224h4v4h-4z"/><path fill="#439871" d="M184 224h4v4h-4z"/><path fill="#0B675E" d="M188 224h4v4h-4z"/><path fill="#5EB978" d="M192 224h4v4h-4z"/><path fill="#0B675E" d="M196 224h4v4h-4z"/><path fill="#439871" d="M200 224h4v4h-4z"/><path fill="#5EB978" d="M204 224h4v4h-4zM208 224h4v4h-4z"/><path fill="#439871" d="M212 224h4v4h-4zM216 224h4v4h-4zM220 224h4v4h-4z"/><path fill="#0B675E" d="M224 224h4v4h-4z"/><path fill="#5EB978" d="M228 224h4v4h-4z"/><path fill="#0B675E" d="M232 224h4v4h-4zM236 224h4v4h-4z"/><path fill="#5EB978" d="M240 224h4v4h-4zM244 224h4v4h-4z"/><path fill="#0B675E" d="M248 224h4v4h-4zM64 228h4v4h-4zM68 228h4v4h-4z"/><path fill="#5EB978" d="M72 228h4v4h-4zM76 228h4v4h-4zM80 228h4v4h-4zM84 228h4v4h-4z"/><path fill="#439871" d="M88 228h4v4h-4z"/><path fill="#0B675E" d="M92 228h4v4h-4zM96 228h4v4h-4z"/><path fill="#5EB978" d="M100 228h4v4h-4z"/><path fill="#439871" d="M104 228h4v4h-4z"/><path fill="#0B675E" d="M108 228h4v4h-4zM112 228h4v4h-4z"/><path fill="#439871" d="M116 228h4v4h-4z"/><path fill="#5EB978" d="M120 228h4v4h-4zM124 228h4v4h-4zM128 228h4v4h-4zM132 228h4v4h-4zM136 228h4v4h-4zM140 228h4v4h-4z"/><path fill="#0B675E" d="M144 228h4v4h-4z"/><path fill="#439871" d="M148 228h4v4h-4zM152 228h4v4h-4zM156 228h4v4h-4zM160 228h4v4h-4zM164 228h4v4h-4zM168 228h4v4h-4zM172 228h4v4h-4zM176 228h4v4h-4zM180 228h4v4h-4zM184 228h4v4h-4zM188 228h4v4h-4z"/><path fill="#0B675E" d="M192 228h4v4h-4z"/><path fill="#439871" d="M196 228h4v4h-4zM200 228h4v4h-4zM204 228h4v4h-4zM208 228h4v4h-4zM212 228h4v4h-4zM216 228h4v4h-4zM220 228h4v4h-4z"/><path fill="#0B675E" d="M224 228h4v4h-4z"/><path fill="#5EB978" d="M228 228h4v4h-4z"/><path fill="#0B675E" d="M232 228h4v4h-4z"/><path fill="#5EB978" d="M236 228h4v4h-4zM240 228h4v4h-4zM244 228h4v4h-4z"/><path fill="#0B675E" d="M248 228h4v4h-4zM60 232h4v4h-4z"/><path fill="#5EB978" d="M64 232h4v4h-4z"/><path fill="#0B675E" d="M68 232h4v4h-4z"/><path fill="#5EB978" d="M72 232h4v4h-4zM76 232h4v4h-4zM80 232h4v4h-4z"/><path fill="#439871" d="M84 232h4v4h-4z"/><path fill="#0B675E" d="M88 232h4v4h-4z"/><path fill="#5EB978" d="M92 232h4v4h-4zM96 232h4v4h-4z"/><path fill="#0B675E" d="M100 232h4v4h-4zM104 232h4v4h-4zM108 232h4v4h-4z"/><path fill="#5EB978" d="M112 232h4v4h-4z"/><path fill="#439871" d="M116 232h4v4h-4zM120 232h4v4h-4z"/><path fill="#5EB978" d="M124 232h4v4h-4zM128 232h4v4h-4zM132 232h4v4h-4zM136 232h4v4h-4zM140 232h4v4h-4z"/><path fill="#439871" d="M144 232h4v4h-4z"/><path fill="#0B675E" d="M148 232h4v4h-4zM152 232h4v4h-4zM156 232h4v4h-4z"/><path fill="#439871" d="M160 232h4v4h-4zM164 232h4v4h-4zM168 232h4v4h-4zM172 232h4v4h-4zM176 232h4v4h-4zM180 232h4v4h-4zM184 232h4v4h-4zM188 232h4v4h-4zM192 232h4v4h-4zM196 232h4v4h-4zM200 232h4v4h-4zM204 232h4v4h-4zM208 232h4v4h-4zM212 232h4v4h-4z"/><path fill="#0B675E" d="M216 232h4v4h-4zM220 232h4v4h-4zM224 232h4v4h-4z"/><path fill="#5EB978" d="M228 232h4v4h-4z"/><path fill="#0B675E" d="M232 232h4v4h-4z"/><path fill="#439871" d="M236 232h4v4h-4zM240 232h4v4h-4z"/><path fill="#0B675E" d="M244 232h4v4h-4zM56 236h4v4h-4z"/><path fill="#5EB978" d="M60 236h4v4h-4zM64 236h4v4h-4z"/><path fill="#0B675E" d="M68 236h4v4h-4z"/><path fill="#5EB978" d="M72 236h4v4h-4zM76 236h4v4h-4z"/><path fill="#439871" d="M80 236h4v4h-4z"/><path fill="#0B675E" d="M84 236h4v4h-4z"/><path fill="#5EB978" d="M88 236h4v4h-4z"/><path fill="#0B675E" d="M92 236h4v4h-4zM96 236h4v4h-4z"/><path fill="#439871" d="M100 236h4v4h-4zM104 236h4v4h-4z"/><path fill="#5EB978" d="M108 236h4v4h-4zM112 236h4v4h-4zM116 236h4v4h-4z"/><path fill="#439871" d="M120 236h4v4h-4zM124 236h4v4h-4z"/><path fill="#5EB978" d="M128 236h4v4h-4zM132 236h4v4h-4zM136 236h4v4h-4z"/><path fill="#439871" d="M140 236h4v4h-4z"/><path fill="#5EB978" d="M144 236h4v4h-4z"/><path fill="#0B675E" d="M148 236h4v4h-4z"/><path fill="#5EB978" d="M152 236h4v4h-4zM156 236h4v4h-4z"/><path fill="#0B675E" d="M160 236h4v4h-4zM164 236h4v4h-4zM168 236h4v4h-4zM172 236h4v4h-4zM176 236h4v4h-4zM180 236h4v4h-4zM184 236h4v4h-4zM188 236h4v4h-4zM192 236h4v4h-4zM196 236h4v4h-4zM200 236h4v4h-4zM204 236h4v4h-4zM208 236h4v4h-4zM212 236h4v4h-4z"/><path fill="#449972" d="M216 236h4v4h-4z"/><path fill="#0B675E" d="M220 236h4v4h-4zM224 236h4v4h-4z"/><path fill="#5EB978" d="M228 236h4v4h-4z"/><path fill="#0B675E" d="M232 236h4v4h-4z"/><path fill="#5EB978" d="M236 236h4v4h-4zM240 236h4v4h-4z"/><path fill="#439871" d="M244 236h4v4h-4z"/><path fill="#0B675E" d="M248 236h4v4h-4zM60 240h4v4h-4zM64 240h4v4h-4zM68 240h4v4h-4z"/><path fill="#439871" d="M72 240h4v4h-4z"/><path fill="#5EB978" d="M76 240h4v4h-4z"/><path fill="#0B675E" d="M80 240h4v4h-4z"/><path fill="#5EB978" d="M84 240h4v4h-4z"/><path fill="#0B675E" d="M88 240h4v4h-4z"/><path fill="#439871" d="M92 240h4v4h-4zM96 240h4v4h-4zM100 240h4v4h-4z"/><path fill="#5EB978" d="M104 240h4v4h-4zM108 240h4v4h-4zM112 240h4v4h-4z"/><path fill="#439871" d="M116 240h4v4h-4z"/><path fill="#0B675E" d="M120 240h4v4h-4z"/><path fill="#439871" d="M124 240h4v4h-4zM128 240h4v4h-4zM132 240h4v4h-4zM136 240h4v4h-4z"/><path fill="#5EB978" d="M140 240h4v4h-4zM144 240h4v4h-4z"/><path fill="#0B675E" d="M148 240h4v4h-4z"/><path fill="#439871" d="M152 240h4v4h-4zM156 240h4v4h-4z"/><path fill="#5EB978" d="M160 240h4v4h-4zM164 240h4v4h-4z"/><path fill="#0B675E" d="M168 240h4v4h-4zM172 240h4v4h-4zM176 240h4v4h-4zM180 240h4v4h-4zM184 240h4v4h-4zM188 240h4v4h-4zM192 240h4v4h-4z"/><path fill="#439871" d="M196 240h4v4h-4z"/><path fill="#0B675E" d="M200 240h4v4h-4z"/><path fill="#439871" d="M204 240h4v4h-4z"/><path fill="#439871" opacity=".98" d="M208 240h4v4h-4z"/><path fill="#0B675E" d="M212 240h4v4h-4zM216 240h4v4h-4zM220 240h4v4h-4zM224 240h4v4h-4z"/><path fill="#439871" d="M228 240h4v4h-4z"/><path fill="#0B675E" d="M232 240h4v4h-4z"/><path fill="#5EB978" d="M236 240h4v4h-4z"/><path fill="#439871" d="M240 240h4v4h-4zM244 240h4v4h-4z"/><path fill="#0B675E" d="M248 240h4v4h-4zM72 244h4v4h-4z"/><path fill="#439871" d="M76 244h4v4h-4z"/><path fill="#0B675E" d="M80 244h4v4h-4z"/><path fill="#5EB978" d="M84 244h4v4h-4z"/><path fill="#0B675E" d="M88 244h4v4h-4z"/><path fill="#439871" d="M92 244h4v4h-4zM96 244h4v4h-4z"/><path fill="#5EB978" d="M100 244h4v4h-4zM104 244h4v4h-4z"/><path fill="#439871" d="M108 244h4v4h-4z"/><path fill="#5EB978" d="M112 244h4v4h-4zM116 244h4v4h-4zM120 244h4v4h-4zM124 244h4v4h-4z"/><path fill="#439871" d="M128 244h4v4h-4z"/><path fill="#5EB978" d="M132 244h4v4h-4zM136 244h4v4h-4zM140 244h4v4h-4zM144 244h4v4h-4zM148 244h4v4h-4z"/><path fill="#0B675E" d="M152 244h4v4h-4zM156 244h4v4h-4z"/><path fill="#439871" d="M160 244h4v4h-4z"/><path fill="#5EB978" d="M164 244h4v4h-4zM168 244h4v4h-4z"/><path fill="#0B675E" d="M172 244h4v4h-4zM176 244h4v4h-4zM180 244h4v4h-4zM184 244h4v4h-4zM188 244h4v4h-4z"/><path fill="#439871" d="M192 244h4v4h-4zM196 244h4v4h-4z"/><path fill="#5EB978" d="M200 244h4v4h-4z"/><path fill="#0B675E" d="M204 244h4v4h-4z"/><path fill="#439871" d="M208 244h4v4h-4z"/><path fill="#0B675E" d="M212 244h4v4h-4zM216 244h4v4h-4zM220 244h4v4h-4z"/><path fill="#439871" d="M224 244h4v4h-4z"/><path fill="#0B675E" d="M228 244h4v4h-4zM232 244h4v4h-4zM236 244h4v4h-4z"/><path fill="#439871" d="M240 244h4v4h-4zM244 244h4v4h-4z"/><path fill="#0B675E" d="M248 244h4v4h-4zM76 248h4v4h-4zM80 248h4v4h-4z"/><path fill="#5EB978" d="M84 248h4v4h-4z"/><path fill="#0B675E" d="M88 248h4v4h-4z"/><path fill="#439871" d="M92 248h4v4h-4zM96 248h4v4h-4z"/><path fill="#5EB978" d="M100 248h4v4h-4zM104 248h4v4h-4zM108 248h4v4h-4z"/><path fill="#0B675E" d="M112 248h4v4h-4z"/><path fill="#5EB978" d="M116 248h4v4h-4zM120 248h4v4h-4zM124 248h4v4h-4z"/><path fill="#0B675E" d="M128 248h4v4h-4zM132 248h4v4h-4z"/><path fill="#5EB978" d="M136 248h4v4h-4zM140 248h4v4h-4zM144 248h4v4h-4zM148 248h4v4h-4z"/><path fill="#439871" d="M152 248h4v4h-4z"/><path fill="#0B675E" d="M156 248h4v4h-4zM160 248h4v4h-4z"/><path fill="#5EB978" d="M164 248h4v4h-4zM168 248h4v4h-4z"/><path fill="#0B675E" d="M172 248h4v4h-4zM176 248h4v4h-4zM180 248h4v4h-4zM184 248h4v4h-4z"/><path fill="#5EB978" d="M188 248h4v4h-4zM192 248h4v4h-4z"/><path fill="#0B675E" d="M196 248h4v4h-4z"/><path fill="#439871" d="M200 248h4v4h-4z"/><path fill="#5EB978" d="M204 248h4v4h-4z"/><path fill="#0B675E" d="M208 248h4v4h-4zM212 248h4v4h-4zM216 248h4v4h-4zM220 248h4v4h-4z"/><path fill="#439871" d="M224 248h4v4h-4z"/><path fill="#0B675E" d="M228 248h4v4h-4zM232 248h4v4h-4zM236 248h4v4h-4z"/><path fill="#439871" d="M240 248h4v4h-4zM244 248h4v4h-4z"/><path fill="#0B675E" d="M248 248h4v4h-4zM80 252h4v4h-4z"/><path fill="#5EB978" d="M84 252h4v4h-4z"/><path fill="#0B675E" d="M88 252h4v4h-4z"/><path fill="#439871" d="M92 252h4v4h-4zM96 252h4v4h-4zM100 252h4v4h-4z"/><path fill="#5EB978" d="M104 252h4v4h-4zM108 252h4v4h-4z"/><path fill="#439871" d="M112 252h4v4h-4z"/><path fill="#0B675E" d="M116 252h4v4h-4z"/><path fill="#5EB978" d="M120 252h4v4h-4z"/><path fill="#0B675E" d="M124 252h4v4h-4z"/><path fill="#439871" d="M128 252h4v4h-4z"/><path fill="#0B675E" d="M132 252h4v4h-4zM136 252h4v4h-4z"/><path fill="#449972" d="M140 252h4v4h-4z"/><path fill="#5EB978" d="M144 252h4v4h-4zM148 252h4v4h-4z"/><path fill="#439871" d="M152 252h4v4h-4zM156 252h4v4h-4z"/><path fill="#0B675E" d="M160 252h4v4h-4z"/><path fill="#5EB978" d="M164 252h4v4h-4zM168 252h4v4h-4z"/><path fill="#0B675E" d="M172 252h4v4h-4z"/><path fill="#439871" d="M176 252h4v4h-4z"/><path fill="#5EB978" d="M180 252h4v4h-4zM184 252h4v4h-4zM188 252h4v4h-4zM192 252h4v4h-4z"/><path fill="#449972" d="M196 252h4v4h-4z"/><path fill="#0B675E" d="M200 252h4v4h-4z"/><path fill="#439871" d="M204 252h4v4h-4zM208 252h4v4h-4zM212 252h4v4h-4zM216 252h4v4h-4zM220 252h4v4h-4z"/><path fill="#0B675E" d="M224 252h4v4h-4zM228 252h4v4h-4zM232 252h4v4h-4z"/><path fill="#439871" d="M236 252h4v4h-4zM240 252h4v4h-4z"/><path fill="#0B675E" d="M244 252h4v4h-4zM80 256h4v4h-4z"/><path fill="#5EB978" d="M84 256h4v4h-4z"/><path fill="#0B675E" d="M88 256h4v4h-4z"/><path fill="#439871" d="M92 256h4v4h-4zM96 256h4v4h-4zM100 256h4v4h-4zM104 256h4v4h-4zM108 256h4v4h-4zM112 256h4v4h-4zM116 256h4v4h-4z"/><path fill="#0B675E" d="M120 256h4v4h-4z"/><path fill="#439871" d="M124 256h4v4h-4zM128 256h4v4h-4zM132 256h4v4h-4zM136 256h4v4h-4z"/><path fill="#0B675E" d="M140 256h4v4h-4zM144 256h4v4h-4z"/><path fill="#439871" d="M148 256h4v4h-4zM152 256h4v4h-4zM156 256h4v4h-4z"/><path fill="#0B675E" d="M160 256h4v4h-4z"/><path fill="#5EB978" d="M164 256h4v4h-4z"/><path fill="#0B675E" d="M168 256h4v4h-4z"/><path fill="#5EB978" d="M172 256h4v4h-4zM176 256h4v4h-4zM180 256h4v4h-4zM184 256h4v4h-4zM188 256h4v4h-4zM192 256h4v4h-4z"/><path fill="#439871" d="M196 256h4v4h-4z"/><path fill="#0B675E" d="M200 256h4v4h-4zM204 256h4v4h-4zM208 256h4v4h-4zM212 256h4v4h-4zM216 256h4v4h-4zM220 256h4v4h-4zM224 256h4v4h-4zM228 256h4v4h-4zM232 256h4v4h-4zM236 256h4v4h-4zM240 256h4v4h-4zM80 260h4v4h-4z"/><path fill="#5EB978" d="M84 260h4v4h-4z"/><path fill="#0B675E" d="M88 260h4v4h-4zM92 260h4v4h-4zM96 260h4v4h-4z"/><path fill="#439871" d="M100 260h4v4h-4zM104 260h4v4h-4zM108 260h4v4h-4zM112 260h4v4h-4zM116 260h4v4h-4zM120 260h4v4h-4zM124 260h4v4h-4zM128 260h4v4h-4zM132 260h4v4h-4zM136 260h4v4h-4zM140 260h4v4h-4zM144 260h4v4h-4z"/><path fill="#0B675E" d="M148 260h4v4h-4zM152 260h4v4h-4zM156 260h4v4h-4zM160 260h4v4h-4zM164 260h4v4h-4z"/><path fill="#439871" d="M168 260h4v4h-4z"/><path fill="#5EB978" d="M172 260h4v4h-4zM176 260h4v4h-4zM180 260h4v4h-4zM184 260h4v4h-4zM188 260h4v4h-4z"/><path fill="#439871" d="M192 260h4v4h-4zM196 260h4v4h-4z"/><path fill="#0B675E" d="M200 260h4v4h-4zM204 260h4v4h-4zM208 260h4v4h-4zM212 260h4v4h-4zM216 260h4v4h-4zM220 260h4v4h-4zM224 260h4v4h-4zM228 260h4v4h-4zM232 260h4v4h-4zM236 260h4v4h-4zM80 264h4v4h-4z"/><path fill="#5EB978" d="M84 264h4v4h-4z"/><path fill="#0B675E" d="M88 264h4v4h-4zM100 264h4v4h-4zM104 264h4v4h-4zM108 264h4v4h-4zM112 264h4v4h-4zM116 264h4v4h-4zM120 264h4v4h-4zM124 264h4v4h-4zM128 264h4v4h-4zM132 264h4v4h-4zM136 264h4v4h-4zM140 264h4v4h-4zM144 264h4v4h-4zM148 264h4v4h-4zM152 264h4v4h-4z"/><path fill="#5EB978" d="M156 264h4v4h-4zM160 264h4v4h-4z"/><path fill="#0B675E" d="M164 264h4v4h-4z"/><path fill="#5EB978" d="M168 264h4v4h-4z"/><path fill="#439871" d="M172 264h4v4h-4z"/><path fill="#5EB978" d="M176 264h4v4h-4zM180 264h4v4h-4zM184 264h4v4h-4z"/><path fill="#439871" d="M188 264h4v4h-4zM192 264h4v4h-4z"/><path fill="#0B675E" d="M196 264h4v4h-4zM200 264h4v4h-4zM204 264h4v4h-4zM208 264h4v4h-4zM212 264h4v4h-4zM216 264h4v4h-4zM220 264h4v4h-4zM224 264h4v4h-4zM228 264h4v4h-4zM232 264h4v4h-4zM80 268h4v4h-4z"/><path fill="#439871" d="M84 268h4v4h-4z"/><path fill="#0B675E" d="M88 268h4v4h-4z"/><path fill="#439871" d="M108 268h4v4h-4z"/><path fill="#0B675E" d="M112 268h4v4h-4z"/><path fill="#439871" d="M116 268h4v4h-4z"/><path fill="#0B675E" d="M120 268h4v4h-4zM124 268h4v4h-4zM128 268h4v4h-4zM132 268h4v4h-4zM136 268h4v4h-4zM140 268h4v4h-4zM144 268h4v4h-4z"/><path fill="#5EB978" d="M148 268h4v4h-4zM152 268h4v4h-4z"/><path fill="#439871" d="M156 268h4v4h-4zM160 268h4v4h-4z"/><path fill="#0B675E" d="M164 268h4v4h-4z"/><path fill="#5EB978" d="M168 268h4v4h-4zM172 268h4v4h-4z"/><path fill="#439871" d="M176 268h4v4h-4zM180 268h4v4h-4zM184 268h4v4h-4zM188 268h4v4h-4z"/><path fill="#0B675E" d="M192 268h4v4h-4zM196 268h4v4h-4zM200 268h4v4h-4zM204 268h4v4h-4zM208 268h4v4h-4zM212 268h4v4h-4zM216 268h4v4h-4zM220 268h4v4h-4zM224 268h4v4h-4zM84 272h4v4h-4z"/><path fill="#439871" d="M88 272h4v4h-4z"/><path fill="#0B675E" d="M92 272h4v4h-4zM100 272h4v4h-4z"/><path fill="#439871" d="M104 272h4v4h-4z"/><path fill="#0B675E" d="M108 272h4v4h-4z"/><path fill="#5EB978" d="M112 272h4v4h-4z"/><path fill="#439871" d="M116 272h4v4h-4z"/><path fill="#0B675E" d="M124 272h4v4h-4zM128 272h4v4h-4zM132 272h4v4h-4zM136 272h4v4h-4zM140 272h4v4h-4z"/><path fill="#5EB978" d="M144 272h4v4h-4zM148 272h4v4h-4z"/><path fill="#439871" d="M152 272h4v4h-4z"/><path fill="#0B675E" d="M156 272h4v4h-4zM160 272h4v4h-4z"/><path fill="#5EB978" d="M164 272h4v4h-4zM168 272h4v4h-4zM172 272h4v4h-4zM176 272h4v4h-4zM180 272h4v4h-4z"/><path fill="#439871" d="M184 272h4v4h-4z"/><path fill="#0B675E" d="M188 272h4v4h-4zM192 272h4v4h-4zM196 272h4v4h-4zM200 272h4v4h-4zM204 272h4v4h-4zM208 272h4v4h-4zM212 272h4v4h-4zM216 272h4v4h-4zM84 276h4v4h-4z"/><path fill="#439871" d="M88 276h4v4h-4z"/><path fill="#0B675E" d="M92 276h4v4h-4zM96 276h4v4h-4zM100 276h4v4h-4zM104 276h4v4h-4z"/><path fill="#5EB978" d="M108 276h4v4h-4z"/><path fill="#439871" d="M112 276h4v4h-4z"/><path fill="#0B675E" d="M116 276h4v4h-4zM128 276h4v4h-4zM132 276h4v4h-4zM136 276h4v4h-4zM140 276h4v4h-4z"/><path fill="#5EB978" d="M144 276h4v4h-4zM148 276h4v4h-4z"/><path fill="#0B675E" d="M152 276h4v4h-4zM156 276h4v4h-4z"/><path fill="#439871" d="M160 276h4v4h-4z"/><path fill="#5EB978" d="M164 276h4v4h-4zM168 276h4v4h-4zM172 276h4v4h-4zM176 276h4v4h-4z"/><path fill="#0B675E" d="M180 276h4v4h-4zM184 276h4v4h-4zM188 276h4v4h-4zM192 276h4v4h-4zM196 276h4v4h-4zM200 276h4v4h-4zM204 276h4v4h-4zM88 280h4v4h-4z"/><path fill="#439871" d="M92 280h4v4h-4zM96 280h4v4h-4zM100 280h4v4h-4zM104 280h4v4h-4zM108 280h4v4h-4z"/><path fill="#0B675E" d="M112 280h4v4h-4z"/><path fill="#439871" d="M136 280h4v4h-4z"/><path fill="#0B675E" d="M140 280h4v4h-4z"/><path fill="#5EB978" d="M144 280h4v4h-4zM148 280h4v4h-4z"/><path fill="#0B675E" d="M152 280h4v4h-4z"/><path fill="#439871" d="M156 280h4v4h-4zM160 280h4v4h-4z"/><path fill="#5EB978" d="M164 280h4v4h-4zM168 280h4v4h-4z"/><path fill="#449972" d="M172 280h4v4h-4z"/><path fill="#0B675E" d="M176 280h4v4h-4zM180 280h4v4h-4zM184 280h4v4h-4zM188 280h4v4h-4zM192 280h4v4h-4zM196 280h4v4h-4zM92 284h4v4h-4zM96 284h4v4h-4zM100 284h4v4h-4zM104 284h4v4h-4zM108 284h4v4h-4z"/><path fill="#5EB978" d="M148 284h4v4h-4z"/><path fill="#0B675E" d="M152 284h4v4h-4z"/><path fill="#439871" d="M156 284h4v4h-4zM160 284h4v4h-4zM164 284h4v4h-4z"/><path fill="#0B675E" d="M168 284h4v4h-4zM172 284h4v4h-4z"/><path fill="#FF652C" opacity=".004" d="M176 284h4v4h-4zM180 284h4v4h-4zM184 284h4v4h-4zM188 284h4v4h-4zM192 284h4v4h-4zM196 284h4v4h-4zM200 284h4v4h-4zM148 288h4v4h-4zM152 288h4v4h-4z"/><path fill="#0B675E" d="M156 288h4v4h-4zM160 288h4v4h-4zM164 288h4v4h-4z"/><path fill="#FF652C" opacity=".004" d="M168 288h4v4h-4zM172 288h4v4h-4zM176 288h4v4h-4zM180 288h4v4h-4zM184 288h4v4h-4zM188 288h4v4h-4zM192 288h4v4h-4zM196 288h4v4h-4zM200 288h4v4h-4zM204 288h4v4h-4zM156 292h4v4h-4zM160 292h4v4h-4zM164 292h4v4h-4zM168 292h4v4h-4zM172 292h4v4h-4zM176 292h4v4h-4zM180 292h4v4h-4zM184 292h4v4h-4zM188 292h4v4h-4zM192 292h4v4h-4zM196 292h4v4h-4zM200 292h4v4h-4zM204 292h4v4h-4zM208 292h4v4h-4z"/></svg>