<svg width="384" height="384" xmlns="http://www.w3.org/2000/svg" shape-rendering="crispEdges"><path fill="#997171" d="M56 0h4v4h-4zM60 0h4v4h-4zM64 0h4v4h-4zM68 0h4v4h-4zM72 0h4v4h-4zM76 0h4v4h-4zM80 0h4v4h-4zM84 0h4v4h-4zM88 0h4v4h-4zM52 4h4v4h-4zM56 4h4v4h-4zM60 4h4v4h-4zM64 4h4v4h-4zM68 4h4v4h-4zM72 4h4v4h-4zM76 4h4v4h-4zM80 4h4v4h-4zM84 4h4v4h-4zM88 4h4v4h-4zM48 8h4v4h-4zM52 8h4v4h-4zM56 8h4v4h-4zM60 8h4v4h-4zM64 8h4v4h-4zM68 8h4v4h-4zM72 8h4v4h-4zM76 8h4v4h-4zM80 8h4v4h-4zM84 8h4v4h-4zM88 8h4v4h-4zM48 12h4v4h-4zM52 12h4v4h-4zM56 12h4v4h-4zM60 12h4v4h-4zM64 12h4v4h-4zM68 12h4v4h-4zM72 12h4v4h-4zM76 12h4v4h-4zM80 12h4v4h-4zM84 12h4v4h-4zM88 12h4v4h-4zM48 16h4v4h-4zM52 16h4v4h-4zM56 16h4v4h-4zM60 16h4v4h-4zM64 16h4v4h-4zM68 16h4v4h-4zM72 16h4v4h-4zM76 16h4v4h-4zM80 16h4v4h-4zM84 16h4v4h-4zM88 16h4v4h-4zM92 16h4v4h-4zM48 20h4v4h-4zM52 20h4v4h-4zM56 20h4v4h-4zM60 20h4v4h-4zM64 20h4v4h-4zM68 20h4v4h-4zM72 20h4v4h-4zM76 20h4v4h-4zM80 20h4v4h-4zM84 20h4v4h-4zM88 20h4v4h-4zM92 20h4v4h-4zM48 24h4v4h-4zM52 24h4v4h-4zM56 24h4v4h-4zM60 24h4v4h-4zM64 24h4v4h-4zM68 24h4v4h-4zM72 24h4v4h-4zM76 24h4v4h-4zM80 24h4v4h-4zM84 24h4v4h-4zM88 24h4v4h-4zM92 24h4v4h-4zM96 24h4v4h-4zM52 28h4v4h-4zM56 28h4v4h-4zM60 28h4v4h-4zM64 28h4v4h-4zM68 28h4v4h-4zM72 28h4v4h-4zM76 28h4v4h-4zM80 28h4v4h-4zM84 28h4v4h-4zM88 28h4v4h-4zM92 28h4v4h-4zM96 28h4v4h-4zM52 32h4v4h-4zM56 32h4v4h-4zM60 32h4v4h-4zM64 32h4v4h-4zM68 32h4v4h-4zM72 32h4v4h-4zM76 32h4v4h-4zM80 32h4v4h-4zM84 32h4v4h-4zM88 32h4v4h-4zM92 32h4v4h-4zM96 32h4v4h-4zM56 36h4v4h-4zM60 36h4v4h-4zM64 36h4v4h-4zM68 36h4v4h-4zM72 36h4v4h-4zM76 36h4v4h-4zM80 36h4v4h-4zM84 36h4v4h-4zM88 36h4v4h-4zM92 36h4v4h-4zM96 36h4v4h-4zM60 40h4v4h-4zM64 40h4v4h-4zM68 40h4v4h-4zM72 40h4v4h-4zM76 40h4v4h-4zM80 40h4v4h-4zM84 40h4v4h-4zM88 40h4v4h-4zM92 40h4v4h-4zM96 40h4v4h-4zM60 44h4v4h-4zM64 44h4v4h-4zM68 44h4v4h-4zM72 44h4v4h-4zM76 44h4v4h-4zM80 44h4v4h-4zM84 44h4v4h-4zM88 44h4v4h-4zM92 44h4v4h-4zM60 48h4v4h-4zM64 48h4v4h-4zM68 48h4v4h-4zM72 48h4v4h-4zM76 48h4v4h-4zM80 48h4v4h-4zM84 48h4v4h-4zM88 48h4v4h-4zM60 52h4v4h-4zM64 52h4v4h-4zM68 52h4v4h-4zM72 52h4v4h-4zM76 52h4v4h-4zM80 52h4v4h-4zM84 52h4v4h-4zM88 52h4v4h-4zM60 56h4v4h-4zM64 56h4v4h-4zM68 56h4v4h-4zM72 56h4v4h-4zM76 56h4v4h-4zM80 56h4v4h-4zM84 56h4v4h-4zM64 60h4v4h-4zM68 60h4v4h-4zM72 60h4v4h-4zM76 60h4v4h-4zM80 60h4v4h-4zM64 64h4v4h-4zM68 64h4v4h-4zM72 64h4v4h-4zM76 64h4v4h-4zM80 64h4v4h-4zM64 68h4v4h-4zM68 68h4v4h-4zM72 68h4v4h-4zM76 68h4v4h-4zM60 72h4v4h-4zM64 72h4v4h-4zM68 72h4v4h-4zM72 72h4v4h-4zM76 72h4v4h-4zM56 76h4v4h-4zM60 76h4v4h-4zM64 76h4v4h-4zM68 76h4v4h-4zM72 76h4v4h-4z"/><path fill="#CC6C2E" d="M76 76h4v4h-4z"/><path fill="#997171" d="M56 80h4v4h-4zM60 80h4v4h-4zM64 80h4v4h-4zM68 80h4v4h-4zM72 80h4v4h-4zM76 80h4v4h-4zM56 84h4v4h-4zM60 84h4v4h-4zM64 84h4v4h-4zM68 84h4v4h-4zM72 84h4v4h-4zM76 84h4v4h-4zM56 88h4v4h-4zM60 88h4v4h-4zM64 88h4v4h-4zM68 88h4v4h-4zM72 88h4v4h-4zM76 88h4v4h-4z"/><path fill="#002B39" d="M80 88h4v4h-4z"/><path fill="#997171" d="M56 92h4v4h-4zM60 92h4v4h-4zM64 92h4v4h-4zM68 92h4v4h-4zM72 92h4v4h-4zM76 92h4v4h-4z"/><path fill="#295665" d="M80 92h4v4h-4z"/><path fill="#002B39" d="M84 92h4v4h-4z"/><path fill="#997171" d="M60 96h4v4h-4zM64 96h4v4h-4zM68 96h4v4h-4zM72 96h4v4h-4zM76 96h4v4h-4zM80 96h4v4h-4z"/><path fill="#5A8C9D" d="M84 96h4v4h-4z"/><path fill="#002B39" d="M88 96h4v4h-4zM92 96h4v4h-4z"/><path fill="#FFECB9" d="M60 100h4v4h-4z"/><path fill="#997171" d="M64 100h4v4h-4zM68 100h4v4h-4zM72 100h4v4h-4zM76 100h4v4h-4zM80 100h4v4h-4z"/><path fill="#FFF15F" d="M84 100h4v4h-4z"/><path fill="#5A8C9D" d="M88 100h4v4h-4zM92 100h4v4h-4z"/><path fill="#002B39" d="M96 100h4v4h-4z"/><path fill="#FFECB9" d="M60 104h4v4h-4zM64 104h4v4h-4z"/><path fill="#997171" d="M68 104h4v4h-4zM72 104h4v4h-4zM76 104h4v4h-4zM80 104h4v4h-4z"/><path fill="#FFECB9" d="M84 104h4v4h-4z"/><path fill="#5A8C9D" d="M88 104h4v4h-4zM92 104h4v4h-4z"/><path fill="#06394B" d="M96 104h4v4h-4z"/><path fill="#002B39" d="M100 104h4v4h-4zM104 104h4v4h-4zM60 108h4v4h-4z"/><path fill="#FFECB9" d="M64 108h4v4h-4z"/><path fill="#997171" d="M68 108h4v4h-4zM72 108h4v4h-4zM76 108h4v4h-4z"/><path fill="#FFECB9" d="M80 108h4v4h-4z"/><path fill="#295665" d="M84 108h4v4h-4z"/><path fill="#5A8C9D" d="M88 108h4v4h-4zM92 108h4v4h-4z"/><path fill="#06394B" d="M96 108h4v4h-4z"/><path fill="#0C252E" d="M100 108h4v4h-4zM104 108h4v4h-4z"/><path fill="#002B39" d="M108 108h4v4h-4zM112 108h4v4h-4zM116 108h4v4h-4zM120 108h4v4h-4zM60 112h4v4h-4z"/><path fill="#295665" d="M64 112h4v4h-4z"/><path fill="#FFF15F" d="M68 112h4v4h-4z"/><path fill="#FFECB9" d="M72 112h4v4h-4zM76 112h4v4h-4z"/><path fill="#295665" d="M80 112h4v4h-4z"/><path fill="#5A8C9D" d="M84 112h4v4h-4zM88 112h4v4h-4zM92 112h4v4h-4z"/><path fill="#06394B" d="M96 112h4v4h-4z"/><path fill="#0C252E" d="M100 112h4v4h-4zM104 112h4v4h-4zM108 112h4v4h-4z"/><path fill="#417283" d="M112 112h4v4h-4zM116 112h4v4h-4z"/><path fill="#295665" d="M120 112h4v4h-4z"/><path fill="#002B39" d="M124 112h4v4h-4zM128 112h4v4h-4zM132 112h4v4h-4zM60 116h4v4h-4z"/><path fill="#295665" d="M64 116h4v4h-4z"/><path fill="#5A8C9D" d="M68 116h4v4h-4zM72 116h4v4h-4zM76 116h4v4h-4z"/><path fill="#06394B" d="M80 116h4v4h-4z"/><path fill="#5A8C9D" d="M84 116h4v4h-4zM88 116h4v4h-4z"/><path fill="#06394B" d="M92 116h4v4h-4zM96 116h4v4h-4zM100 116h4v4h-4z"/><path fill="#0C252E" d="M104 116h4v4h-4zM108 116h4v4h-4z"/><path fill="#417283" d="M112 116h4v4h-4zM116 116h4v4h-4z"/><path fill="#295665" d="M120 116h4v4h-4zM124 116h4v4h-4zM128 116h4v4h-4zM132 116h4v4h-4z"/><path fill="#002B39" d="M136 116h4v4h-4zM60 120h4v4h-4z"/><path fill="#06394B" d="M64 120h4v4h-4z"/><path fill="#295665" d="M68 120h4v4h-4zM72 120h4v4h-4z"/><path fill="#06394B" d="M76 120h4v4h-4zM80 120h4v4h-4zM84 120h4v4h-4z"/><path fill="#0C252E" d="M88 120h4v4h-4zM92 120h4v4h-4z"/><path fill="#06394B" d="M96 120h4v4h-4zM100 120h4v4h-4zM104 120h4v4h-4zM108 120h4v4h-4z"/><path fill="#417283" d="M112 120h4v4h-4zM116 120h4v4h-4zM120 120h4v4h-4zM124 120h4v4h-4z"/><path fill="#295665" d="M128 120h4v4h-4zM132 120h4v4h-4zM136 120h4v4h-4z"/><path fill="#002B39" d="M140 120h4v4h-4zM60 124h4v4h-4z"/><path fill="#06394B" d="M64 124h4v4h-4zM68 124h4v4h-4zM72 124h4v4h-4zM76 124h4v4h-4zM80 124h4v4h-4z"/><path fill="#0C252E" d="M84 124h4v4h-4zM88 124h4v4h-4zM92 124h4v4h-4zM96 124h4v4h-4z"/><path fill="#06394B" d="M100 124h4v4h-4zM104 124h4v4h-4zM108 124h4v4h-4z"/><path fill="#417283" d="M112 124h4v4h-4zM116 124h4v4h-4zM120 124h4v4h-4zM124 124h4v4h-4zM128 124h4v4h-4zM132 124h4v4h-4zM136 124h4v4h-4z"/><path fill="#295665" d="M140 124h4v4h-4z"/><path fill="#002B39" d="M144 124h4v4h-4zM64 128h4v4h-4z"/><path fill="#0C252E" d="M68 128h4v4h-4zM72 128h4v4h-4zM76 128h4v4h-4zM80 128h4v4h-4zM84 128h4v4h-4zM88 128h4v4h-4zM92 128h4v4h-4zM96 128h4v4h-4z"/><path fill="#06394B" d="M100 128h4v4h-4zM104 128h4v4h-4z"/><path fill="#417283" d="M108 128h4v4h-4zM112 128h4v4h-4z"/><path fill="#5A8C9D" d="M116 128h4v4h-4zM120 128h4v4h-4zM124 128h4v4h-4zM128 128h4v4h-4z"/><path fill="#417283" d="M132 128h4v4h-4zM136 128h4v4h-4zM140 128h4v4h-4z"/><path fill="#295665" d="M144 128h4v4h-4z"/><path fill="#002B39" d="M148 128h4v4h-4zM64 132h4v4h-4z"/><path fill="#0C252E" d="M68 132h4v4h-4zM72 132h4v4h-4zM76 132h4v4h-4zM80 132h4v4h-4zM84 132h4v4h-4zM88 132h4v4h-4zM92 132h4v4h-4z"/><path fill="#06394B" d="M96 132h4v4h-4zM100 132h4v4h-4z"/><path fill="#417283" d="M104 132h4v4h-4zM108 132h4v4h-4zM112 132h4v4h-4zM116 132h4v4h-4z"/><path fill="#5A8C9D" d="M120 132h4v4h-4zM124 132h4v4h-4zM128 132h4v4h-4zM132 132h4v4h-4zM136 132h4v4h-4z"/><path fill="#417283" d="M140 132h4v4h-4zM144 132h4v4h-4z"/><path fill="#06394B" d="M148 132h4v4h-4z"/><path fill="#002B39" d="M152 132h4v4h-4zM156 132h4v4h-4zM160 132h4v4h-4zM164 132h4v4h-4zM168 132h4v4h-4zM172 132h4v4h-4zM176 132h4v4h-4zM180 132h4v4h-4zM68 136h4v4h-4z"/><path fill="#0C252E" d="M72 136h4v4h-4zM76 136h4v4h-4zM80 136h4v4h-4zM84 136h4v4h-4zM88 136h4v4h-4z"/><path fill="#06394B" d="M92 136h4v4h-4zM96 136h4v4h-4z"/><path fill="#417283" d="M100 136h4v4h-4zM104 136h4v4h-4zM108 136h4v4h-4zM112 136h4v4h-4zM116 136h4v4h-4zM120 136h4v4h-4z"/><path fill="#5A8C9D" d="M124 136h4v4h-4zM128 136h4v4h-4zM132 136h4v4h-4zM136 136h4v4h-4zM140 136h4v4h-4z"/><path fill="#417283" d="M144 136h4v4h-4z"/><path fill="#06394B" d="M148 136h4v4h-4z"/><path fill="#0C252E" d="M152 136h4v4h-4z"/><path fill="#FFF15F" d="M156 136h4v4h-4z"/><path fill="#0C252E" d="M160 136h4v4h-4zM164 136h4v4h-4z"/><path fill="#06394B" d="M168 136h4v4h-4z"/><path fill="#295665" d="M172 136h4v4h-4zM176 136h4v4h-4zM180 136h4v4h-4z"/><path fill="#002B39" d="M184 136h4v4h-4zM188 136h4v4h-4zM192 136h4v4h-4zM196 136h4v4h-4zM68 140h4v4h-4z"/><path fill="#0C252E" d="M72 140h4v4h-4zM76 140h4v4h-4zM80 140h4v4h-4zM84 140h4v4h-4z"/><path fill="#06394B" d="M88 140h4v4h-4zM92 140h4v4h-4z"/><path fill="#417283" d="M96 140h4v4h-4zM100 140h4v4h-4z"/><path fill="#295665" d="M104 140h4v4h-4zM108 140h4v4h-4zM112 140h4v4h-4z"/><path fill="#417283" d="M116 140h4v4h-4zM120 140h4v4h-4zM124 140h4v4h-4z"/><path fill="#5A8C9D" d="M128 140h4v4h-4zM132 140h4v4h-4zM136 140h4v4h-4zM140 140h4v4h-4z"/><path fill="#417283" d="M144 140h4v4h-4z"/><path fill="#06394B" d="M148 140h4v4h-4z"/><path fill="#0C252E" d="M152 140h4v4h-4zM156 140h4v4h-4zM160 140h4v4h-4zM164 140h4v4h-4z"/><path fill="#06394B" d="M168 140h4v4h-4z"/><path fill="#295665" d="M172 140h4v4h-4zM176 140h4v4h-4zM180 140h4v4h-4zM184 140h4v4h-4zM188 140h4v4h-4zM192 140h4v4h-4zM196 140h4v4h-4z"/><path fill="#002B39" d="M200 140h4v4h-4zM204 140h4v4h-4zM68 144h4v4h-4z"/><path fill="#06394B" d="M72 144h4v4h-4zM76 144h4v4h-4zM80 144h4v4h-4zM84 144h4v4h-4zM88 144h4v4h-4z"/><path fill="#417283" d="M92 144h4v4h-4zM96 144h4v4h-4z"/><path fill="#295665" d="M100 144h4v4h-4zM104 144h4v4h-4zM108 144h4v4h-4zM112 144h4v4h-4zM116 144h4v4h-4zM120 144h4v4h-4z"/><path fill="#417283" d="M124 144h4v4h-4zM128 144h4v4h-4z"/><path fill="#5A8C9D" d="M132 144h4v4h-4zM136 144h4v4h-4zM140 144h4v4h-4z"/><path fill="#417283" d="M144 144h4v4h-4z"/><path fill="#06394B" d="M148 144h4v4h-4zM152 144h4v4h-4z"/><path fill="#0C252E" d="M156 144h4v4h-4zM160 144h4v4h-4z"/><path fill="#06394B" d="M164 144h4v4h-4zM168 144h4v4h-4z"/><path fill="#417283" d="M172 144h4v4h-4zM176 144h4v4h-4zM180 144h4v4h-4zM184 144h4v4h-4zM188 144h4v4h-4z"/><path fill="#295665" d="M192 144h4v4h-4zM196 144h4v4h-4zM200 144h4v4h-4z"/><path fill="#06394B" d="M204 144h4v4h-4z"/><path fill="#002B39" d="M208 144h4v4h-4zM212 144h4v4h-4zM68 148h4v4h-4z"/><path fill="#06394B" d="M72 148h4v4h-4zM76 148h4v4h-4zM80 148h4v4h-4zM84 148h4v4h-4z"/><path fill="#0C252E" d="M88 148h4v4h-4z"/><path fill="#417283" d="M92 148h4v4h-4z"/><path fill="#06394B" d="M96 148h4v4h-4zM100 148h4v4h-4z"/><path fill="#295665" d="M104 148h4v4h-4zM108 148h4v4h-4zM112 148h4v4h-4zM116 148h4v4h-4zM120 148h4v4h-4zM124 148h4v4h-4z"/><path fill="#417283" d="M128 148h4v4h-4zM132 148h4v4h-4z"/><path fill="#5A8C9D" d="M136 148h4v4h-4zM140 148h4v4h-4z"/><path fill="#417283" d="M144 148h4v4h-4z"/><path fill="#06394B" d="M148 148h4v4h-4zM152 148h4v4h-4zM156 148h4v4h-4zM160 148h4v4h-4zM164 148h4v4h-4zM168 148h4v4h-4z"/><path fill="#417283" d="M172 148h4v4h-4zM176 148h4v4h-4zM180 148h4v4h-4zM184 148h4v4h-4zM188 148h4v4h-4zM192 148h4v4h-4zM196 148h4v4h-4zM200 148h4v4h-4z"/><path fill="#295665" d="M204 148h4v4h-4z"/><path fill="#06394B" d="M208 148h4v4h-4zM212 148h4v4h-4z"/><path fill="#002B39" d="M216 148h4v4h-4zM68 152h4v4h-4z"/><path fill="#417283" d="M72 152h4v4h-4zM76 152h4v4h-4zM80 152h4v4h-4zM84 152h4v4h-4z"/><path fill="#0C252E" d="M88 152h4v4h-4z"/><path fill="#295665" d="M92 152h4v4h-4z"/><path fill="#0C252E" d="M96 152h4v4h-4z"/><path fill="#06394B" d="M100 152h4v4h-4z"/><path fill="#295665" d="M104 152h4v4h-4zM108 152h4v4h-4zM112 152h4v4h-4zM116 152h4v4h-4zM120 152h4v4h-4zM124 152h4v4h-4z"/><path fill="#417283" d="M128 152h4v4h-4zM132 152h4v4h-4zM136 152h4v4h-4zM140 152h4v4h-4z"/><path fill="#06394B" d="M144 152h4v4h-4zM148 152h4v4h-4zM152 152h4v4h-4zM156 152h4v4h-4zM160 152h4v4h-4zM164 152h4v4h-4zM168 152h4v4h-4z"/><path fill="#417283" d="M172 152h4v4h-4zM176 152h4v4h-4zM180 152h4v4h-4zM184 152h4v4h-4zM188 152h4v4h-4zM192 152h4v4h-4zM196 152h4v4h-4zM200 152h4v4h-4zM204 152h4v4h-4z"/><path fill="#06394B" d="M208 152h4v4h-4zM212 152h4v4h-4zM216 152h4v4h-4z"/><path fill="#002B39" d="M220 152h4v4h-4zM68 156h4v4h-4z"/><path fill="#417283" d="M72 156h4v4h-4zM76 156h4v4h-4zM80 156h4v4h-4z"/><path fill="#295665" d="M84 156h4v4h-4z"/><path fill="#0C252E" d="M88 156h4v4h-4z"/><path fill="#295665" d="M92 156h4v4h-4zM96 156h4v4h-4zM100 156h4v4h-4zM104 156h4v4h-4zM108 156h4v4h-4zM112 156h4v4h-4zM116 156h4v4h-4zM120 156h4v4h-4zM124 156h4v4h-4zM128 156h4v4h-4z"/><path fill="#417283" d="M132 156h4v4h-4zM136 156h4v4h-4zM140 156h4v4h-4z"/><path fill="#06394B" d="M144 156h4v4h-4zM148 156h4v4h-4z"/><path fill="#0C252E" d="M152 156h4v4h-4z"/><path fill="#FFF15F" d="M156 156h4v4h-4z"/><path fill="#06394B" d="M160 156h4v4h-4zM164 156h4v4h-4zM168 156h4v4h-4z"/><path fill="#417283" d="M172 156h4v4h-4zM176 156h4v4h-4zM180 156h4v4h-4zM184 156h4v4h-4zM188 156h4v4h-4zM192 156h4v4h-4zM196 156h4v4h-4zM200 156h4v4h-4zM204 156h4v4h-4zM208 156h4v4h-4z"/><path fill="#06394B" d="M212 156h4v4h-4zM216 156h4v4h-4z"/><path fill="#0C252E" d="M220 156h4v4h-4z"/><path fill="#002B39" d="M224 156h4v4h-4zM68 160h4v4h-4z"/><path fill="#295665" d="M72 160h4v4h-4zM76 160h4v4h-4zM80 160h4v4h-4zM84 160h4v4h-4zM88 160h4v4h-4z"/><path fill="#0C252E" d="M92 160h4v4h-4z"/><path fill="#295665" d="M96 160h4v4h-4zM100 160h4v4h-4zM104 160h4v4h-4zM108 160h4v4h-4zM112 160h4v4h-4zM116 160h4v4h-4zM120 160h4v4h-4zM124 160h4v4h-4zM128 160h4v4h-4zM132 160h4v4h-4zM136 160h4v4h-4z"/><path fill="#06394B" d="M140 160h4v4h-4zM144 160h4v4h-4z"/><path fill="#0C252E" d="M148 160h4v4h-4zM152 160h4v4h-4z"/><path fill="#FFF15F" d="M156 160h4v4h-4z"/><path fill="#0C252E" d="M160 160h4v4h-4z"/><path fill="#06394B" d="M164 160h4v4h-4zM168 160h4v4h-4z"/><path fill="#417283" d="M172 160h4v4h-4zM176 160h4v4h-4zM180 160h4v4h-4zM184 160h4v4h-4zM188 160h4v4h-4zM192 160h4v4h-4zM196 160h4v4h-4zM200 160h4v4h-4zM204 160h4v4h-4zM208 160h4v4h-4z"/><path fill="#06394B" d="M212 160h4v4h-4zM216 160h4v4h-4z"/><path fill="#0C252E" d="M220 160h4v4h-4zM224 160h4v4h-4z"/><path fill="#002B39" d="M228 160h4v4h-4zM68 164h4v4h-4z"/><path fill="#295665" d="M72 164h4v4h-4zM76 164h4v4h-4zM80 164h4v4h-4zM84 164h4v4h-4zM88 164h4v4h-4z"/><path fill="#0C252E" d="M92 164h4v4h-4z"/><path fill="#295665" d="M96 164h4v4h-4z"/><path fill="#06394B" d="M100 164h4v4h-4zM104 164h4v4h-4z"/><path fill="#295665" d="M108 164h4v4h-4zM112 164h4v4h-4zM116 164h4v4h-4zM120 164h4v4h-4zM124 164h4v4h-4zM128 164h4v4h-4zM132 164h4v4h-4z"/><path fill="#06394B" d="M136 164h4v4h-4zM140 164h4v4h-4z"/><path fill="#0C252E" d="M144 164h4v4h-4zM148 164h4v4h-4zM152 164h4v4h-4zM156 164h4v4h-4zM160 164h4v4h-4z"/><path fill="#06394B" d="M164 164h4v4h-4zM168 164h4v4h-4z"/><path fill="#417283" d="M172 164h4v4h-4zM176 164h4v4h-4zM180 164h4v4h-4zM184 164h4v4h-4zM188 164h4v4h-4zM192 164h4v4h-4zM196 164h4v4h-4zM200 164h4v4h-4zM204 164h4v4h-4zM208 164h4v4h-4z"/><path fill="#06394B" d="M212 164h4v4h-4zM216 164h4v4h-4z"/><path fill="#0C252E" d="M220 164h4v4h-4zM224 164h4v4h-4z"/><path fill="#002B39" d="M228 164h4v4h-4zM68 168h4v4h-4z"/><path fill="#295665" d="M72 168h4v4h-4zM76 168h4v4h-4zM80 168h4v4h-4zM84 168h4v4h-4zM88 168h4v4h-4z"/><path fill="#0C252E" d="M92 168h4v4h-4z"/><path fill="#295665" d="M96 168h4v4h-4z"/><path fill="#06394B" d="M100 168h4v4h-4zM104 168h4v4h-4z"/><path fill="#295665" d="M108 168h4v4h-4zM112 168h4v4h-4zM116 168h4v4h-4zM120 168h4v4h-4zM124 168h4v4h-4zM128 168h4v4h-4z"/><path fill="#06394B" d="M132 168h4v4h-4zM136 168h4v4h-4zM140 168h4v4h-4z"/><path fill="#0C252E" d="M144 168h4v4h-4zM148 168h4v4h-4zM152 168h4v4h-4zM156 168h4v4h-4zM160 168h4v4h-4z"/><path fill="#06394B" d="M164 168h4v4h-4z"/><path fill="#417283" d="M168 168h4v4h-4zM172 168h4v4h-4z"/><path fill="#5A8C9D" d="M176 168h4v4h-4zM180 168h4v4h-4zM184 168h4v4h-4zM188 168h4v4h-4zM192 168h4v4h-4z"/><path fill="#417283" d="M196 168h4v4h-4zM200 168h4v4h-4zM204 168h4v4h-4zM208 168h4v4h-4zM212 168h4v4h-4z"/><path fill="#06394B" d="M216 168h4v4h-4z"/><path fill="#0C252E" d="M220 168h4v4h-4zM224 168h4v4h-4zM228 168h4v4h-4z"/><path fill="#002B39" d="M232 168h4v4h-4zM68 172h4v4h-4z"/><path fill="#295665" d="M72 172h4v4h-4zM76 172h4v4h-4zM80 172h4v4h-4zM84 172h4v4h-4zM88 172h4v4h-4zM92 172h4v4h-4z"/><path fill="#0C252E" d="M96 172h4v4h-4z"/><path fill="#295665" d="M100 172h4v4h-4zM104 172h4v4h-4zM108 172h4v4h-4zM112 172h4v4h-4zM116 172h4v4h-4zM120 172h4v4h-4zM124 172h4v4h-4z"/><path fill="#06394B" d="M128 172h4v4h-4zM132 172h4v4h-4zM136 172h4v4h-4z"/><path fill="#0C252E" d="M140 172h4v4h-4zM144 172h4v4h-4zM148 172h4v4h-4zM152 172h4v4h-4zM156 172h4v4h-4z"/><path fill="#06394B" d="M160 172h4v4h-4z"/><path fill="#417283" d="M164 172h4v4h-4zM168 172h4v4h-4zM172 172h4v4h-4zM176 172h4v4h-4z"/><path fill="#5A8C9D" d="M180 172h4v4h-4zM184 172h4v4h-4zM188 172h4v4h-4zM192 172h4v4h-4zM196 172h4v4h-4zM200 172h4v4h-4z"/><path fill="#417283" d="M204 172h4v4h-4zM208 172h4v4h-4zM212 172h4v4h-4z"/><path fill="#06394B" d="M216 172h4v4h-4z"/><path fill="#0C252E" d="M220 172h4v4h-4zM224 172h4v4h-4zM228 172h4v4h-4zM232 172h4v4h-4z"/><path fill="#002B39" d="M236 172h4v4h-4zM72 176h4v4h-4z"/><path fill="#295665" d="M76 176h4v4h-4zM80 176h4v4h-4zM84 176h4v4h-4zM88 176h4v4h-4zM92 176h4v4h-4zM96 176h4v4h-4z"/><path fill="#0C252E" d="M100 176h4v4h-4z"/><path fill="#295665" d="M104 176h4v4h-4z"/><path fill="#06394B" d="M108 176h4v4h-4zM112 176h4v4h-4z"/><path fill="#295665" d="M116 176h4v4h-4zM120 176h4v4h-4z"/><path fill="#06394B" d="M124 176h4v4h-4zM128 176h4v4h-4zM132 176h4v4h-4z"/><path fill="#0C252E" d="M136 176h4v4h-4zM140 176h4v4h-4z"/><path fill="#FFF15F" d="M144 176h4v4h-4z"/><path fill="#0C252E" d="M148 176h4v4h-4zM152 176h4v4h-4z"/><path fill="#06394B" d="M156 176h4v4h-4zM160 176h4v4h-4z"/><path fill="#417283" d="M164 176h4v4h-4zM168 176h4v4h-4zM172 176h4v4h-4zM176 176h4v4h-4zM180 176h4v4h-4zM184 176h4v4h-4z"/><path fill="#5A8C9D" d="M188 176h4v4h-4zM192 176h4v4h-4zM196 176h4v4h-4zM200 176h4v4h-4zM204 176h4v4h-4z"/><path fill="#417283" d="M208 176h4v4h-4zM212 176h4v4h-4z"/><path fill="#06394B" d="M216 176h4v4h-4zM220 176h4v4h-4z"/><path fill="#0C252E" d="M224 176h4v4h-4zM228 176h4v4h-4zM232 176h4v4h-4z"/><path fill="#002B39" d="M236 176h4v4h-4zM72 180h4v4h-4z"/><path fill="#295665" d="M76 180h4v4h-4zM80 180h4v4h-4zM84 180h4v4h-4zM88 180h4v4h-4zM92 180h4v4h-4zM96 180h4v4h-4zM100 180h4v4h-4z"/><path fill="#0C252E" d="M104 180h4v4h-4z"/><path fill="#295665" d="M108 180h4v4h-4zM112 180h4v4h-4zM116 180h4v4h-4z"/><path fill="#06394B" d="M120 180h4v4h-4zM124 180h4v4h-4zM128 180h4v4h-4z"/><path fill="#0C252E" d="M132 180h4v4h-4zM136 180h4v4h-4z"/><path fill="#FFF15F" d="M140 180h4v4h-4z"/><path fill="#0C252E" d="M144 180h4v4h-4zM148 180h4v4h-4z"/><path fill="#06394B" d="M152 180h4v4h-4zM156 180h4v4h-4z"/><path fill="#417283" d="M160 180h4v4h-4zM164 180h4v4h-4z"/><path fill="#295665" d="M168 180h4v4h-4z"/><path fill="#417283" d="M172 180h4v4h-4zM176 180h4v4h-4zM180 180h4v4h-4zM184 180h4v4h-4zM188 180h4v4h-4z"/><path fill="#5A8C9D" d="M192 180h4v4h-4zM196 180h4v4h-4zM200 180h4v4h-4zM204 180h4v4h-4zM208 180h4v4h-4z"/><path fill="#417283" d="M212 180h4v4h-4z"/><path fill="#06394B" d="M216 180h4v4h-4z"/><path fill="#0C252E" d="M220 180h4v4h-4zM224 180h4v4h-4zM228 180h4v4h-4zM232 180h4v4h-4zM236 180h4v4h-4z"/><path fill="#002B39" d="M240 180h4v4h-4zM76 184h4v4h-4z"/><path fill="#295665" d="M80 184h4v4h-4zM84 184h4v4h-4zM88 184h4v4h-4zM92 184h4v4h-4zM96 184h4v4h-4zM100 184h4v4h-4zM104 184h4v4h-4z"/><path fill="#06394B" d="M108 184h4v4h-4zM112 184h4v4h-4zM116 184h4v4h-4zM120 184h4v4h-4z"/><path fill="#0C252E" d="M124 184h4v4h-4zM128 184h4v4h-4zM132 184h4v4h-4z"/><path fill="#FFF15F" d="M136 184h4v4h-4z"/><path fill="#0C252E" d="M140 184h4v4h-4zM144 184h4v4h-4z"/><path fill="#06394B" d="M148 184h4v4h-4zM152 184h4v4h-4z"/><path fill="#417283" d="M156 184h4v4h-4zM160 184h4v4h-4z"/><path fill="#295665" d="M164 184h4v4h-4zM168 184h4v4h-4zM172 184h4v4h-4zM176 184h4v4h-4zM180 184h4v4h-4z"/><path fill="#417283" d="M184 184h4v4h-4zM188 184h4v4h-4zM192 184h4v4h-4z"/><path fill="#5A8C9D" d="M196 184h4v4h-4zM200 184h4v4h-4zM204 184h4v4h-4zM208 184h4v4h-4z"/><path fill="#417283" d="M212 184h4v4h-4z"/><path fill="#06394B" d="M216 184h4v4h-4z"/><path fill="#0C252E" d="M220 184h4v4h-4zM224 184h4v4h-4zM228 184h4v4h-4zM232 184h4v4h-4zM236 184h4v4h-4z"/><path fill="#002B39" d="M240 184h4v4h-4zM76 188h4v4h-4z"/><path fill="#0C252E" d="M80 188h4v4h-4z"/><path fill="#06394B" d="M84 188h4v4h-4zM88 188h4v4h-4zM92 188h4v4h-4zM96 188h4v4h-4zM100 188h4v4h-4zM104 188h4v4h-4zM108 188h4v4h-4zM112 188h4v4h-4z"/><path fill="#0C252E" d="M116 188h4v4h-4zM120 188h4v4h-4zM124 188h4v4h-4zM128 188h4v4h-4zM132 188h4v4h-4zM136 188h4v4h-4zM140 188h4v4h-4z"/><path fill="#06394B" d="M144 188h4v4h-4zM148 188h4v4h-4z"/><path fill="#417283" d="M152 188h4v4h-4zM156 188h4v4h-4z"/><path fill="#295665" d="M160 188h4v4h-4zM164 188h4v4h-4zM168 188h4v4h-4zM172 188h4v4h-4zM176 188h4v4h-4zM180 188h4v4h-4zM184 188h4v4h-4z"/><path fill="#417283" d="M188 188h4v4h-4zM192 188h4v4h-4zM196 188h4v4h-4z"/><path fill="#5A8C9D" d="M200 188h4v4h-4zM204 188h4v4h-4z"/><path fill="#417283" d="M208 188h4v4h-4z"/><path fill="#06394B" d="M212 188h4v4h-4zM216 188h4v4h-4z"/><path fill="#0C252E" d="M220 188h4v4h-4zM224 188h4v4h-4zM228 188h4v4h-4zM232 188h4v4h-4zM236 188h4v4h-4z"/><path fill="#002B39" d="M240 188h4v4h-4zM80 192h4v4h-4z"/><path fill="#0C252E" d="M84 192h4v4h-4zM88 192h4v4h-4zM92 192h4v4h-4zM96 192h4v4h-4zM100 192h4v4h-4zM104 192h4v4h-4zM108 192h4v4h-4zM112 192h4v4h-4zM116 192h4v4h-4zM120 192h4v4h-4zM124 192h4v4h-4zM128 192h4v4h-4zM132 192h4v4h-4zM136 192h4v4h-4z"/><path fill="#06394B" d="M140 192h4v4h-4zM144 192h4v4h-4z"/><path fill="#417283" d="M148 192h4v4h-4zM152 192h4v4h-4z"/><path fill="#295665" d="M156 192h4v4h-4zM160 192h4v4h-4zM164 192h4v4h-4zM168 192h4v4h-4zM172 192h4v4h-4zM176 192h4v4h-4zM180 192h4v4h-4zM184 192h4v4h-4zM188 192h4v4h-4z"/><path fill="#417283" d="M192 192h4v4h-4zM196 192h4v4h-4zM200 192h4v4h-4z"/><path fill="#5A8C9D" d="M204 192h4v4h-4z"/><path fill="#417283" d="M208 192h4v4h-4z"/><path fill="#06394B" d="M212 192h4v4h-4zM216 192h4v4h-4z"/><path fill="#0C252E" d="M220 192h4v4h-4zM224 192h4v4h-4zM228 192h4v4h-4zM232 192h4v4h-4zM236 192h4v4h-4zM240 192h4v4h-4z"/><path fill="#002B39" d="M244 192h4v4h-4zM76 196h4v4h-4z"/><path fill="#417283" d="M80 196h4v4h-4z"/><path fill="#0C252E" d="M84 196h4v4h-4z"/><path fill="#FFF15F" d="M88 196h4v4h-4z"/><path fill="#0C252E" d="M92 196h4v4h-4zM96 196h4v4h-4zM100 196h4v4h-4zM104 196h4v4h-4zM108 196h4v4h-4zM112 196h4v4h-4zM116 196h4v4h-4zM120 196h4v4h-4zM124 196h4v4h-4zM128 196h4v4h-4zM132 196h4v4h-4z"/><path fill="#06394B" d="M136 196h4v4h-4zM140 196h4v4h-4z"/><path fill="#417283" d="M144 196h4v4h-4zM148 196h4v4h-4z"/><path fill="#295665" d="M152 196h4v4h-4zM156 196h4v4h-4zM160 196h4v4h-4zM164 196h4v4h-4zM168 196h4v4h-4zM172 196h4v4h-4zM176 196h4v4h-4zM180 196h4v4h-4zM184 196h4v4h-4zM188 196h4v4h-4zM192 196h4v4h-4z"/><path fill="#417283" d="M196 196h4v4h-4zM200 196h4v4h-4zM204 196h4v4h-4zM208 196h4v4h-4z"/><path fill="#06394B" d="M212 196h4v4h-4zM216 196h4v4h-4z"/><path fill="#0C252E" d="M220 196h4v4h-4zM224 196h4v4h-4zM228 196h4v4h-4zM232 196h4v4h-4zM236 196h4v4h-4zM240 196h4v4h-4z"/><path fill="#002B39" d="M244 196h4v4h-4zM76 200h4v4h-4z"/><path fill="#417283" d="M80 200h4v4h-4zM84 200h4v4h-4z"/><path fill="#0C252E" d="M88 200h4v4h-4zM92 200h4v4h-4zM96 200h4v4h-4zM100 200h4v4h-4zM104 200h4v4h-4z"/><path fill="#FFF15F" d="M108 200h4v4h-4zM112 200h4v4h-4z"/><path fill="#0C252E" d="M116 200h4v4h-4zM120 200h4v4h-4zM124 200h4v4h-4z"/><path fill="#06394B" d="M128 200h4v4h-4zM132 200h4v4h-4zM136 200h4v4h-4z"/><path fill="#417283" d="M140 200h4v4h-4zM144 200h4v4h-4z"/><path fill="#295665" d="M148 200h4v4h-4zM152 200h4v4h-4zM156 200h4v4h-4zM160 200h4v4h-4zM164 200h4v4h-4zM168 200h4v4h-4zM172 200h4v4h-4zM176 200h4v4h-4zM180 200h4v4h-4zM184 200h4v4h-4zM188 200h4v4h-4zM192 200h4v4h-4z"/><path fill="#417283" d="M196 200h4v4h-4zM200 200h4v4h-4zM204 200h4v4h-4z"/><path fill="#06394B" d="M208 200h4v4h-4zM212 200h4v4h-4z"/><path fill="#0C252E" d="M216 200h4v4h-4zM220 200h4v4h-4zM224 200h4v4h-4zM228 200h4v4h-4zM232 200h4v4h-4zM236 200h4v4h-4zM240 200h4v4h-4z"/><path fill="#002B39" d="M244 200h4v4h-4zM76 204h4v4h-4z"/><path fill="#417283" d="M80 204h4v4h-4zM84 204h4v4h-4z"/><path fill="#0C252E" d="M88 204h4v4h-4zM92 204h4v4h-4zM96 204h4v4h-4zM100 204h4v4h-4zM104 204h4v4h-4zM108 204h4v4h-4zM112 204h4v4h-4zM116 204h4v4h-4z"/><path fill="#06394B" d="M120 204h4v4h-4zM124 204h4v4h-4zM128 204h4v4h-4z"/><path fill="#417283" d="M132 204h4v4h-4zM136 204h4v4h-4zM140 204h4v4h-4z"/><path fill="#295665" d="M144 204h4v4h-4zM148 204h4v4h-4zM152 204h4v4h-4zM156 204h4v4h-4zM160 204h4v4h-4zM164 204h4v4h-4zM168 204h4v4h-4zM172 204h4v4h-4zM176 204h4v4h-4zM180 204h4v4h-4zM184 204h4v4h-4zM188 204h4v4h-4zM192 204h4v4h-4zM196 204h4v4h-4z"/><path fill="#417283" d="M200 204h4v4h-4zM204 204h4v4h-4z"/><path fill="#06394B" d="M208 204h4v4h-4zM212 204h4v4h-4z"/><path fill="#0C252E" d="M216 204h4v4h-4zM220 204h4v4h-4zM224 204h4v4h-4zM228 204h4v4h-4zM232 204h4v4h-4zM236 204h4v4h-4zM240 204h4v4h-4z"/><path fill="#002B39" d="M244 204h4v4h-4zM76 208h4v4h-4z"/><path fill="#417283" d="M80 208h4v4h-4zM84 208h4v4h-4zM88 208h4v4h-4zM92 208h4v4h-4z"/><path fill="#06394B" d="M96 208h4v4h-4zM100 208h4v4h-4zM104 208h4v4h-4zM108 208h4v4h-4zM112 208h4v4h-4zM116 208h4v4h-4zM120 208h4v4h-4zM124 208h4v4h-4z"/><path fill="#417283" d="M128 208h4v4h-4zM132 208h4v4h-4z"/><path fill="#295665" d="M136 208h4v4h-4zM140 208h4v4h-4zM144 208h4v4h-4zM148 208h4v4h-4zM152 208h4v4h-4zM156 208h4v4h-4zM160 208h4v4h-4zM164 208h4v4h-4zM168 208h4v4h-4zM172 208h4v4h-4zM176 208h4v4h-4zM180 208h4v4h-4zM184 208h4v4h-4zM188 208h4v4h-4zM192 208h4v4h-4zM196 208h4v4h-4zM200 208h4v4h-4z"/><path fill="#06394B" d="M204 208h4v4h-4zM208 208h4v4h-4z"/><path fill="#0C252E" d="M212 208h4v4h-4zM216 208h4v4h-4zM220 208h4v4h-4zM224 208h4v4h-4zM228 208h4v4h-4zM232 208h4v4h-4zM236 208h4v4h-4zM240 208h4v4h-4z"/><path fill="#002B39" d="M244 208h4v4h-4zM76 212h4v4h-4z"/><path fill="#295665" d="M80 212h4v4h-4zM84 212h4v4h-4z"/><path fill="#417283" d="M88 212h4v4h-4zM92 212h4v4h-4zM96 212h4v4h-4zM100 212h4v4h-4zM104 212h4v4h-4zM108 212h4v4h-4zM112 212h4v4h-4z"/><path fill="#0C252E" d="M116 212h4v4h-4z"/><path fill="#417283" d="M120 212h4v4h-4zM124 212h4v4h-4z"/><path fill="#295665" d="M128 212h4v4h-4zM132 212h4v4h-4zM136 212h4v4h-4zM140 212h4v4h-4zM144 212h4v4h-4zM148 212h4v4h-4zM152 212h4v4h-4zM156 212h4v4h-4zM160 212h4v4h-4zM164 212h4v4h-4zM168 212h4v4h-4zM172 212h4v4h-4zM176 212h4v4h-4zM180 212h4v4h-4zM184 212h4v4h-4zM188 212h4v4h-4zM192 212h4v4h-4zM196 212h4v4h-4z"/><path fill="#06394B" d="M200 212h4v4h-4zM204 212h4v4h-4zM208 212h4v4h-4z"/><path fill="#0C252E" d="M212 212h4v4h-4zM216 212h4v4h-4zM220 212h4v4h-4zM224 212h4v4h-4zM228 212h4v4h-4zM232 212h4v4h-4zM236 212h4v4h-4zM240 212h4v4h-4z"/><path fill="#002B39" d="M244 212h4v4h-4zM80 216h4v4h-4z"/><path fill="#295665" d="M84 216h4v4h-4zM88 216h4v4h-4zM92 216h4v4h-4zM96 216h4v4h-4zM100 216h4v4h-4zM104 216h4v4h-4zM108 216h4v4h-4zM112 216h4v4h-4z"/><path fill="#0C252E" d="M116 216h4v4h-4z"/><path fill="#295665" d="M120 216h4v4h-4zM124 216h4v4h-4z"/><path fill="#06394B" d="M128 216h4v4h-4zM132 216h4v4h-4z"/><path fill="#295665" d="M136 216h4v4h-4zM140 216h4v4h-4zM144 216h4v4h-4zM148 216h4v4h-4zM152 216h4v4h-4zM156 216h4v4h-4zM160 216h4v4h-4zM164 216h4v4h-4zM168 216h4v4h-4zM172 216h4v4h-4zM176 216h4v4h-4zM180 216h4v4h-4zM184 216h4v4h-4zM188 216h4v4h-4zM192 216h4v4h-4z"/><path fill="#06394B" d="M196 216h4v4h-4zM200 216h4v4h-4zM204 216h4v4h-4z"/><path fill="#0C252E" d="M208 216h4v4h-4zM212 216h4v4h-4zM216 216h4v4h-4zM220 216h4v4h-4zM224 216h4v4h-4zM228 216h4v4h-4zM232 216h4v4h-4zM236 216h4v4h-4zM240 216h4v4h-4z"/><path fill="#002B39" d="M244 216h4v4h-4zM84 220h4v4h-4z"/><path fill="#295665" d="M88 220h4v4h-4zM92 220h4v4h-4zM96 220h4v4h-4zM100 220h4v4h-4zM104 220h4v4h-4zM108 220h4v4h-4zM112 220h4v4h-4zM116 220h4v4h-4z"/><path fill="#0C252E" d="M120 220h4v4h-4z"/><path fill="#295665" d="M124 220h4v4h-4z"/><path fill="#06394B" d="M128 220h4v4h-4zM132 220h4v4h-4z"/><path fill="#295665" d="M136 220h4v4h-4zM140 220h4v4h-4zM144 220h4v4h-4zM148 220h4v4h-4zM152 220h4v4h-4zM156 220h4v4h-4zM160 220h4v4h-4zM164 220h4v4h-4zM168 220h4v4h-4zM172 220h4v4h-4zM176 220h4v4h-4zM180 220h4v4h-4zM184 220h4v4h-4zM188 220h4v4h-4z"/><path fill="#06394B" d="M192 220h4v4h-4zM196 220h4v4h-4zM200 220h4v4h-4z"/><path fill="#0C252E" d="M204 220h4v4h-4zM208 220h4v4h-4zM212 220h4v4h-4zM216 220h4v4h-4zM220 220h4v4h-4zM224 220h4v4h-4zM228 220h4v4h-4zM232 220h4v4h-4zM236 220h4v4h-4zM240 220h4v4h-4z"/><path fill="#002B39" d="M244 220h4v4h-4zM88 224h4v4h-4z"/><path fill="#295665" d="M92 224h4v4h-4zM96 224h4v4h-4zM100 224h4v4h-4zM104 224h4v4h-4zM108 224h4v4h-4zM112 224h4v4h-4zM116 224h4v4h-4z"/><path fill="#0C252E" d="M120 224h4v4h-4z"/><path fill="#295665" d="M124 224h4v4h-4zM128 224h4v4h-4zM132 224h4v4h-4zM136 224h4v4h-4zM140 224h4v4h-4zM144 224h4v4h-4zM148 224h4v4h-4zM152 224h4v4h-4zM156 224h4v4h-4zM160 224h4v4h-4zM164 224h4v4h-4zM168 224h4v4h-4zM172 224h4v4h-4zM176 224h4v4h-4zM180 224h4v4h-4zM184 224h4v4h-4z"/><path fill="#06394B" d="M188 224h4v4h-4zM192 224h4v4h-4z"/><path fill="#0C252E" d="M196 224h4v4h-4zM200 224h4v4h-4zM204 224h4v4h-4zM208 224h4v4h-4zM212 224h4v4h-4zM216 224h4v4h-4zM220 224h4v4h-4zM224 224h4v4h-4zM228 224h4v4h-4zM232 224h4v4h-4zM236 224h4v4h-4zM240 224h4v4h-4z"/><path fill="#002B39" d="M244 224h4v4h-4zM92 228h4v4h-4z"/><path fill="#295665" d="M96 228h4v4h-4zM100 228h4v4h-4zM104 228h4v4h-4zM108 228h4v4h-4zM112 228h4v4h-4zM116 228h4v4h-4z"/><path fill="#0C252E" d="M120 228h4v4h-4z"/><path fill="#295665" d="M124 228h4v4h-4zM128 228h4v4h-4zM132 228h4v4h-4zM136 228h4v4h-4zM140 228h4v4h-4zM144 228h4v4h-4zM148 228h4v4h-4zM152 228h4v4h-4zM156 228h4v4h-4zM160 228h4v4h-4zM164 228h4v4h-4zM168 228h4v4h-4zM172 228h4v4h-4zM176 228h4v4h-4zM180 228h4v4h-4z"/><path fill="#06394B" d="M184 228h4v4h-4zM188 228h4v4h-4z"/><path fill="#0C252E" d="M192 228h4v4h-4zM196 228h4v4h-4zM200 228h4v4h-4zM204 228h4v4h-4zM208 228h4v4h-4zM212 228h4v4h-4zM216 228h4v4h-4zM220 228h4v4h-4zM224 228h4v4h-4zM228 228h4v4h-4zM232 228h4v4h-4zM236 228h4v4h-4zM240 228h4v4h-4z"/><path fill="#002B39" d="M244 228h4v4h-4zM96 232h4v4h-4z"/><path fill="#295665" d="M100 232h4v4h-4zM104 232h4v4h-4zM108 232h4v4h-4zM112 232h4v4h-4zM116 232h4v4h-4zM120 232h4v4h-4z"/><path fill="#0C252E" d="M124 232h4v4h-4z"/><path fill="#295665" d="M128 232h4v4h-4z"/><path fill="#06394B" d="M132 232h4v4h-4zM136 232h4v4h-4z"/><path fill="#295665" d="M140 232h4v4h-4zM144 232h4v4h-4zM148 232h4v4h-4zM152 232h4v4h-4zM156 232h4v4h-4zM160 232h4v4h-4zM164 232h4v4h-4zM168 232h4v4h-4zM172 232h4v4h-4zM176 232h4v4h-4z"/><path fill="#06394B" d="M180 232h4v4h-4zM184 232h4v4h-4z"/><path fill="#0C252E" d="M188 232h4v4h-4zM192 232h4v4h-4zM196 232h4v4h-4zM200 232h4v4h-4zM204 232h4v4h-4zM208 232h4v4h-4zM212 232h4v4h-4zM216 232h4v4h-4zM220 232h4v4h-4zM224 232h4v4h-4zM228 232h4v4h-4zM232 232h4v4h-4zM236 232h4v4h-4zM240 232h4v4h-4z"/><path fill="#002B39" d="M244 232h4v4h-4zM100 236h4v4h-4z"/><path fill="#295665" d="M104 236h4v4h-4zM108 236h4v4h-4zM112 236h4v4h-4zM116 236h4v4h-4zM120 236h4v4h-4z"/><path fill="#0C252E" d="M124 236h4v4h-4z"/><path fill="#295665" d="M128 236h4v4h-4z"/><path fill="#06394B" d="M132 236h4v4h-4zM136 236h4v4h-4z"/><path fill="#295665" d="M140 236h4v4h-4zM144 236h4v4h-4zM148 236h4v4h-4zM152 236h4v4h-4zM156 236h4v4h-4zM160 236h4v4h-4zM164 236h4v4h-4zM168 236h4v4h-4zM172 236h4v4h-4z"/><path fill="#06394B" d="M176 236h4v4h-4z"/><path fill="#0C252E" d="M180 236h4v4h-4zM184 236h4v4h-4zM188 236h4v4h-4zM192 236h4v4h-4zM196 236h4v4h-4zM200 236h4v4h-4zM204 236h4v4h-4zM208 236h4v4h-4zM212 236h4v4h-4zM216 236h4v4h-4zM220 236h4v4h-4zM224 236h4v4h-4zM228 236h4v4h-4zM232 236h4v4h-4zM236 236h4v4h-4z"/><path fill="#002B39" d="M240 236h4v4h-4zM104 240h4v4h-4z"/><path fill="#295665" d="M108 240h4v4h-4zM112 240h4v4h-4zM116 240h4v4h-4zM120 240h4v4h-4zM124 240h4v4h-4z"/><path fill="#0C252E" d="M128 240h4v4h-4z"/><path fill="#295665" d="M132 240h4v4h-4zM136 240h4v4h-4zM140 240h4v4h-4zM144 240h4v4h-4zM148 240h4v4h-4zM152 240h4v4h-4zM156 240h4v4h-4zM160 240h4v4h-4zM164 240h4v4h-4z"/><path fill="#0C252E" d="M168 240h4v4h-4zM172 240h4v4h-4zM176 240h4v4h-4zM180 240h4v4h-4zM184 240h4v4h-4zM188 240h4v4h-4zM192 240h4v4h-4zM196 240h4v4h-4zM200 240h4v4h-4zM204 240h4v4h-4zM208 240h4v4h-4zM212 240h4v4h-4zM216 240h4v4h-4zM220 240h4v4h-4zM224 240h4v4h-4zM228 240h4v4h-4zM232 240h4v4h-4zM236 240h4v4h-4z"/><path fill="#002B39" d="M240 240h4v4h-4zM108 244h4v4h-4z"/><path fill="#0C252E" d="M112 244h4v4h-4z"/><path fill="#295665" d="M116 244h4v4h-4zM120 244h4v4h-4zM124 244h4v4h-4zM128 244h4v4h-4z"/><path fill="#0C252E" d="M132 244h4v4h-4z"/><path fill="#295665" d="M136 244h4v4h-4z"/><path fill="#0C252E" d="M140 244h4v4h-4zM144 244h4v4h-4z"/><path fill="#295665" d="M148 244h4v4h-4zM152 244h4v4h-4z"/><path fill="#0C252E" d="M156 244h4v4h-4zM160 244h4v4h-4zM164 244h4v4h-4zM168 244h4v4h-4zM172 244h4v4h-4zM176 244h4v4h-4zM180 244h4v4h-4zM184 244h4v4h-4zM188 244h4v4h-4zM192 244h4v4h-4zM196 244h4v4h-4zM200 244h4v4h-4zM204 244h4v4h-4zM208 244h4v4h-4zM212 244h4v4h-4zM216 244h4v4h-4zM220 244h4v4h-4z"/><path fill="#06394B" d="M224 244h4v4h-4z"/><path fill="#0C252E" d="M228 244h4v4h-4zM232 244h4v4h-4z"/><path fill="#002B39" d="M236 244h4v4h-4zM112 248h4v4h-4z"/><path fill="#0C252E" d="M116 248h4v4h-4zM120 248h4v4h-4zM124 248h4v4h-4zM128 248h4v4h-4zM132 248h4v4h-4zM136 248h4v4h-4zM140 248h4v4h-4zM144 248h4v4h-4zM148 248h4v4h-4zM152 248h4v4h-4zM156 248h4v4h-4zM160 248h4v4h-4zM164 248h4v4h-4zM168 248h4v4h-4zM172 248h4v4h-4zM176 248h4v4h-4zM180 248h4v4h-4zM184 248h4v4h-4zM188 248h4v4h-4zM192 248h4v4h-4zM196 248h4v4h-4zM200 248h4v4h-4zM204 248h4v4h-4zM208 248h4v4h-4z"/><path fill="#06394B" d="M212 248h4v4h-4zM216 248h4v4h-4zM220 248h4v4h-4zM224 248h4v4h-4z"/><path fill="#0C252E" d="M228 248h4v4h-4z"/><path fill="#002B39" d="M232 248h4v4h-4zM116 252h4v4h-4z"/><path fill="#0C252E" d="M120 252h4v4h-4zM124 252h4v4h-4zM128 252h4v4h-4zM132 252h4v4h-4zM136 252h4v4h-4zM140 252h4v4h-4zM144 252h4v4h-4zM148 252h4v4h-4zM152 252h4v4h-4zM156 252h4v4h-4zM160 252h4v4h-4zM164 252h4v4h-4zM168 252h4v4h-4zM172 252h4v4h-4zM176 252h4v4h-4zM180 252h4v4h-4zM184 252h4v4h-4z"/><path fill="#295665" d="M188 252h4v4h-4zM192 252h4v4h-4z"/><path fill="#06394B" d="M196 252h4v4h-4z"/><path fill="#0C252E" d="M200 252h4v4h-4zM204 252h4v4h-4z"/><path fill="#06394B" d="M208 252h4v4h-4zM212 252h4v4h-4zM216 252h4v4h-4zM220 252h4v4h-4zM224 252h4v4h-4zM228 252h4v4h-4z"/><path fill="#002B39" d="M232 252h4v4h-4zM116 256h4v4h-4z"/><path fill="#0C252E" d="M120 256h4v4h-4zM124 256h4v4h-4zM128 256h4v4h-4zM132 256h4v4h-4zM136 256h4v4h-4zM140 256h4v4h-4zM144 256h4v4h-4zM148 256h4v4h-4zM152 256h4v4h-4zM156 256h4v4h-4zM160 256h4v4h-4zM164 256h4v4h-4z"/><path fill="#06394B" d="M168 256h4v4h-4zM172 256h4v4h-4z"/><path fill="#0C252E" d="M176 256h4v4h-4z"/><path fill="#295665" d="M180 256h4v4h-4zM184 256h4v4h-4zM188 256h4v4h-4zM192 256h4v4h-4zM196 256h4v4h-4z"/><path fill="#06394B" d="M200 256h4v4h-4zM204 256h4v4h-4zM208 256h4v4h-4zM212 256h4v4h-4zM216 256h4v4h-4zM220 256h4v4h-4zM224 256h4v4h-4z"/><path fill="#002B39" d="M228 256h4v4h-4zM116 260h4v4h-4z"/><path fill="#06394B" d="M120 260h4v4h-4z"/><path fill="#0C252E" d="M124 260h4v4h-4zM128 260h4v4h-4z"/><path fill="#06394B" d="M132 260h4v4h-4zM136 260h4v4h-4zM140 260h4v4h-4zM144 260h4v4h-4zM148 260h4v4h-4zM152 260h4v4h-4zM156 260h4v4h-4zM160 260h4v4h-4zM164 260h4v4h-4z"/><path fill="#295665" d="M168 260h4v4h-4zM172 260h4v4h-4zM176 260h4v4h-4zM180 260h4v4h-4zM184 260h4v4h-4zM188 260h4v4h-4zM192 260h4v4h-4zM196 260h4v4h-4zM200 260h4v4h-4z"/><path fill="#06394B" d="M204 260h4v4h-4zM208 260h4v4h-4zM212 260h4v4h-4zM216 260h4v4h-4zM220 260h4v4h-4z"/><path fill="#002B39" d="M224 260h4v4h-4zM116 264h4v4h-4z"/><path fill="#295665" d="M120 264h4v4h-4z"/><path fill="#06394B" d="M124 264h4v4h-4zM128 264h4v4h-4zM132 264h4v4h-4zM136 264h4v4h-4zM140 264h4v4h-4zM144 264h4v4h-4zM148 264h4v4h-4zM152 264h4v4h-4zM156 264h4v4h-4zM160 264h4v4h-4z"/><path fill="#295665" d="M164 264h4v4h-4zM168 264h4v4h-4zM172 264h4v4h-4zM176 264h4v4h-4zM180 264h4v4h-4zM184 264h4v4h-4zM188 264h4v4h-4zM192 264h4v4h-4zM196 264h4v4h-4zM200 264h4v4h-4zM204 264h4v4h-4z"/><path fill="#06394B" d="M208 264h4v4h-4zM212 264h4v4h-4zM216 264h4v4h-4z"/><path fill="#002B39" d="M220 264h4v4h-4zM112 268h4v4h-4z"/><path fill="#295665" d="M116 268h4v4h-4zM120 268h4v4h-4zM124 268h4v4h-4zM128 268h4v4h-4zM132 268h4v4h-4z"/><path fill="#06394B" d="M136 268h4v4h-4zM140 268h4v4h-4zM144 268h4v4h-4zM148 268h4v4h-4zM152 268h4v4h-4z"/><path fill="#295665" d="M156 268h4v4h-4zM160 268h4v4h-4zM164 268h4v4h-4zM168 268h4v4h-4zM172 268h4v4h-4zM176 268h4v4h-4zM180 268h4v4h-4zM184 268h4v4h-4zM188 268h4v4h-4zM192 268h4v4h-4zM196 268h4v4h-4zM200 268h4v4h-4zM204 268h4v4h-4z"/><path fill="#06394B" d="M208 268h4v4h-4zM212 268h4v4h-4z"/><path fill="#002B39" d="M216 268h4v4h-4zM112 272h4v4h-4z"/><path fill="#295665" d="M116 272h4v4h-4zM120 272h4v4h-4zM124 272h4v4h-4zM128 272h4v4h-4zM132 272h4v4h-4zM136 272h4v4h-4zM140 272h4v4h-4zM144 272h4v4h-4zM148 272h4v4h-4zM152 272h4v4h-4zM156 272h4v4h-4zM160 272h4v4h-4zM164 272h4v4h-4zM168 272h4v4h-4zM172 272h4v4h-4zM176 272h4v4h-4zM180 272h4v4h-4zM184 272h4v4h-4zM188 272h4v4h-4zM192 272h4v4h-4zM196 272h4v4h-4zM200 272h4v4h-4z"/><path fill="#06394B" d="M204 272h4v4h-4zM208 272h4v4h-4z"/><path fill="#002B39" d="M212 272h4v4h-4zM112 276h4v4h-4z"/><path fill="#295665" d="M116 276h4v4h-4zM120 276h4v4h-4zM124 276h4v4h-4zM128 276h4v4h-4zM132 276h4v4h-4zM136 276h4v4h-4zM140 276h4v4h-4zM144 276h4v4h-4zM148 276h4v4h-4zM152 276h4v4h-4zM156 276h4v4h-4zM160 276h4v4h-4zM164 276h4v4h-4zM168 276h4v4h-4zM172 276h4v4h-4zM176 276h4v4h-4zM180 276h4v4h-4zM184 276h4v4h-4zM188 276h4v4h-4zM192 276h4v4h-4zM196 276h4v4h-4zM200 276h4v4h-4z"/><path fill="#06394B" d="M204 276h4v4h-4z"/><path fill="#002B39" d="M208 276h4v4h-4zM116 280h4v4h-4z"/><path fill="#295665" d="M120 280h4v4h-4zM124 280h4v4h-4zM128 280h4v4h-4zM132 280h4v4h-4zM136 280h4v4h-4zM140 280h4v4h-4zM144 280h4v4h-4zM148 280h4v4h-4zM152 280h4v4h-4zM156 280h4v4h-4zM160 280h4v4h-4zM164 280h4v4h-4zM168 280h4v4h-4zM172 280h4v4h-4zM176 280h4v4h-4zM180 280h4v4h-4zM184 280h4v4h-4zM188 280h4v4h-4zM192 280h4v4h-4zM196 280h4v4h-4zM200 280h4v4h-4z"/><path fill="#002B39" d="M204 280h4v4h-4zM116 284h4v4h-4z"/><path fill="#295665" d="M120 284h4v4h-4zM124 284h4v4h-4zM128 284h4v4h-4zM132 284h4v4h-4zM136 284h4v4h-4zM140 284h4v4h-4zM144 284h4v4h-4zM148 284h4v4h-4zM152 284h4v4h-4zM156 284h4v4h-4zM160 284h4v4h-4zM164 284h4v4h-4zM168 284h4v4h-4zM172 284h4v4h-4zM176 284h4v4h-4zM180 284h4v4h-4zM184 284h4v4h-4zM188 284h4v4h-4zM192 284h4v4h-4z"/><path fill="#002B39" d="M196 284h4v4h-4zM200 284h4v4h-4zM120 288h4v4h-4z"/><path fill="#295665" d="M124 288h4v4h-4zM128 288h4v4h-4zM132 288h4v4h-4zM136 288h4v4h-4zM140 288h4v4h-4zM144 288h4v4h-4zM148 288h4v4h-4zM152 288h4v4h-4zM156 288h4v4h-4zM160 288h4v4h-4zM164 288h4v4h-4zM168 288h4v4h-4zM172 288h4v4h-4zM176 288h4v4h-4zM180 288h4v4h-4zM184 288h4v4h-4z"/><path fill="#002B39" d="M188 288h4v4h-4zM192 288h4v4h-4zM124 292h4v4h-4z"/><path fill="#295665" d="M128 292h4v4h-4zM132 292h4v4h-4zM136 292h4v4h-4zM140 292h4v4h-4zM144 292h4v4h-4zM148 292h4v4h-4zM152 292h4v4h-4zM156 292h4v4h-4zM160 292h4v4h-4zM164 292h4v4h-4zM168 292h4v4h-4zM172 292h4v4h-4zM176 292h4v4h-4z"/><path fill="#002B39" d="M180 292h4v4h-4zM184 292h4v4h-4zM128 296h4v4h-4zM132 296h4v4h-4z"/><path fill="#295665" d="M136 296h4v4h-4zM140 296h4v4h-4zM144 296h4v4h-4zM148 296h4v4h-4zM152 296h4v4h-4zM156 296h4v4h-4zM160 296h4v4h-4z"/><path fill="#002B39" d="M164 296h4v4h-4zM168 296h4v4h-4zM172 296h4v4h-4zM176 296h4v4h-4zM136 300h4v4h-4zM140 300h4v4h-4zM144 300h4v4h-4zM148 300h4v4h-4zM152 300h4v4h-4zM156 300h4v4h-4zM160 300h4v4h-4z"/></svg>