<svg width="384" height="384" xmlns="http://www.w3.org/2000/svg" shape-rendering="crispEdges"><path fill="#B03B45" d="M104 28h4v4h-4zM108 28h4v4h-4zM100 32h4v4h-4z"/><path fill="#E95B7A" d="M104 32h4v4h-4zM108 32h4v4h-4z"/><path fill="#B03B45" d="M112 32h4v4h-4zM96 36h4v4h-4z"/><path fill="#E95B7A" d="M100 36h4v4h-4zM104 36h4v4h-4zM108 36h4v4h-4zM112 36h4v4h-4z"/><path fill="#B03B45" d="M116 36h4v4h-4zM92 40h4v4h-4z"/><path fill="#E95B7A" d="M96 40h4v4h-4zM100 40h4v4h-4zM104 40h4v4h-4zM108 40h4v4h-4zM112 40h4v4h-4z"/><path fill="#B03B45" d="M116 40h4v4h-4zM80 44h4v4h-4zM84 44h4v4h-4zM88 44h4v4h-4z"/><path fill="#D14271" d="M92 44h4v4h-4z"/><path fill="#E95B7A" d="M96 44h4v4h-4zM100 44h4v4h-4zM104 44h4v4h-4zM108 44h4v4h-4z"/><path fill="#B03B45" d="M112 44h4v4h-4zM76 48h4v4h-4z"/><path fill="#E95B7A" d="M80 48h4v4h-4z"/><path fill="#D14271" d="M84 48h4v4h-4z"/><path fill="#B03B45" d="M88 48h4v4h-4z"/><path fill="#E95B7A" d="M92 48h4v4h-4zM96 48h4v4h-4z"/><path fill="#FF6284" d="M100 48h4v4h-4zM104 48h4v4h-4z"/><path fill="#E95B7A" d="M108 48h4v4h-4z"/><path fill="#B03B45" d="M112 48h4v4h-4zM116 48h4v4h-4z"/><path fill="#8A2133" d="M168 48h4v4h-4zM172 48h4v4h-4z"/><path fill="#B03B45" d="M72 52h4v4h-4z"/><path fill="#E95B7A" d="M76 52h4v4h-4z"/><path fill="#D14271" d="M80 52h4v4h-4zM84 52h4v4h-4zM88 52h4v4h-4z"/><path fill="#E95B7A" d="M92 52h4v4h-4zM96 52h4v4h-4z"/><path fill="#FF6284" d="M100 52h4v4h-4zM104 52h4v4h-4z"/><path fill="#D14271" d="M108 52h4v4h-4z"/><path fill="#B03B45" d="M112 52h4v4h-4zM116 52h4v4h-4zM120 52h4v4h-4z"/><path fill="#8A2133" d="M164 52h4v4h-4z"/><path fill="#C33864" d="M168 52h4v4h-4z"/><path fill="#AB245F" d="M172 52h4v4h-4z"/><path fill="#8A2133" d="M176 52h4v4h-4z"/><path fill="#B03B45" d="M72 56h4v4h-4z"/><path fill="#E95B7A" d="M76 56h4v4h-4z"/><path fill="#D14271" d="M80 56h4v4h-4zM84 56h4v4h-4zM88 56h4v4h-4z"/><path fill="#E95B7A" d="M92 56h4v4h-4zM96 56h4v4h-4z"/><path fill="#FF6284" d="M100 56h4v4h-4z"/><path fill="#E95B7A" d="M104 56h4v4h-4z"/><path fill="#D14271" d="M108 56h4v4h-4z"/><path fill="#B03B45" d="M112 56h4v4h-4zM116 56h4v4h-4z"/><path fill="#8A2133" d="M160 56h4v4h-4z"/><path fill="#C33864" d="M164 56h4v4h-4zM168 56h4v4h-4zM172 56h4v4h-4z"/><path fill="#AB245F" d="M176 56h4v4h-4z"/><path fill="#8A2133" d="M180 56h4v4h-4z"/><path fill="#B03B45" d="M76 60h4v4h-4z"/><path fill="#D14271" d="M80 60h4v4h-4zM84 60h4v4h-4zM88 60h4v4h-4z"/><path fill="#E95B7A" d="M92 60h4v4h-4zM96 60h4v4h-4zM100 60h4v4h-4zM104 60h4v4h-4z"/><path fill="#D14271" d="M108 60h4v4h-4z"/><path fill="#B03B45" d="M112 60h4v4h-4zM120 60h4v4h-4zM124 60h4v4h-4z"/><path fill="#8A2133" d="M160 60h4v4h-4z"/><path fill="#C33864" d="M164 60h4v4h-4zM168 60h4v4h-4zM172 60h4v4h-4zM176 60h4v4h-4z"/><path fill="#8A2133" d="M180 60h4v4h-4z"/><path fill="#B03B45" d="M80 64h4v4h-4z"/><path fill="#D14271" d="M84 64h4v4h-4zM88 64h4v4h-4z"/><path fill="#E95B7A" d="M92 64h4v4h-4zM96 64h4v4h-4zM100 64h4v4h-4zM104 64h4v4h-4z"/><path fill="#D14271" d="M108 64h4v4h-4z"/><path fill="#B03B45" d="M112 64h4v4h-4zM116 64h4v4h-4z"/><path fill="#E95B7A" d="M120 64h4v4h-4zM124 64h4v4h-4z"/><path fill="#B03B45" d="M128 64h4v4h-4z"/><path fill="#8A2133" d="M156 64h4v4h-4z"/><path fill="#AB245F" d="M160 64h4v4h-4z"/><path fill="#C33864" d="M164 64h4v4h-4zM168 64h4v4h-4zM172 64h4v4h-4zM176 64h4v4h-4z"/><path fill="#8A2133" d="M180 64h4v4h-4zM184 64h4v4h-4z"/><path fill="#B03B45" d="M72 68h4v4h-4zM76 68h4v4h-4zM80 68h4v4h-4zM84 68h4v4h-4z"/><path fill="#D14271" d="M88 68h4v4h-4zM92 68h4v4h-4z"/><path fill="#E95B7A" d="M96 68h4v4h-4zM100 68h4v4h-4z"/><path fill="#FF6284" d="M104 68h4v4h-4zM108 68h4v4h-4z"/><path fill="#B03B45" d="M112 68h4v4h-4z"/><path fill="#E95B7A" d="M116 68h4v4h-4zM120 68h4v4h-4zM124 68h4v4h-4zM128 68h4v4h-4z"/><path fill="#B03B45" d="M132 68h4v4h-4z"/><path fill="#8A2133" d="M156 68h4v4h-4z"/><path fill="#AB245F" d="M160 68h4v4h-4z"/><path fill="#C33864" d="M164 68h4v4h-4zM168 68h4v4h-4zM172 68h4v4h-4z"/><path fill="#F8477F" d="M176 68h4v4h-4z"/><path fill="#8A2133" d="M180 68h4v4h-4zM184 68h4v4h-4zM188 68h4v4h-4z"/><path fill="#B03B45" d="M208 68h4v4h-4zM212 68h4v4h-4zM68 72h4v4h-4zM72 72h4v4h-4z"/><path fill="#D14271" d="M76 72h4v4h-4zM80 72h4v4h-4z"/><path fill="#B03B45" d="M84 72h4v4h-4zM88 72h4v4h-4z"/><path fill="#D14271" d="M92 72h4v4h-4zM96 72h4v4h-4z"/><path fill="#E95B7A" d="M100 72h4v4h-4z"/><path fill="#D14271" d="M104 72h4v4h-4z"/><path fill="#FF6284" d="M108 72h4v4h-4z"/><path fill="#B03B45" d="M112 72h4v4h-4z"/><path fill="#D14271" d="M116 72h4v4h-4z"/><path fill="#E95B7A" d="M120 72h4v4h-4zM124 72h4v4h-4z"/><path fill="#FF6284" d="M128 72h4v4h-4z"/><path fill="#B03B45" d="M132 72h4v4h-4z"/><path fill="#8A2133" d="M148 72h4v4h-4zM152 72h4v4h-4zM156 72h4v4h-4z"/><path fill="#AB245F" d="M160 72h4v4h-4z"/><path fill="#C33864" d="M164 72h4v4h-4zM168 72h4v4h-4z"/><path fill="#F8477F" d="M172 72h4v4h-4zM176 72h4v4h-4z"/><path fill="#8A2133" d="M180 72h4v4h-4zM184 72h4v4h-4z"/><path fill="#B03B45" d="M204 72h4v4h-4z"/><path fill="#E95B7A" d="M208 72h4v4h-4z"/><path fill="#D14271" d="M212 72h4v4h-4z"/><path fill="#B03B45" d="M216 72h4v4h-4z"/><path fill="#8A2133" d="M52 76h4v4h-4zM56 76h4v4h-4z"/><path fill="#B03B45" d="M68 76h4v4h-4z"/><path fill="#D14271" d="M72 76h4v4h-4z"/><path fill="#E95B7A" d="M76 76h4v4h-4zM80 76h4v4h-4z"/><path fill="#D14271" d="M84 76h4v4h-4z"/><path fill="#B03B45" d="M88 76h4v4h-4z"/><path fill="#D14271" d="M92 76h4v4h-4zM96 76h4v4h-4z"/><path fill="#E95B7A" d="M100 76h4v4h-4z"/><path fill="#D14271" d="M104 76h4v4h-4zM108 76h4v4h-4z"/><path fill="#B03B45" d="M112 76h4v4h-4z"/><path fill="#D14271" d="M116 76h4v4h-4z"/><path fill="#E95B7A" d="M120 76h4v4h-4z"/><path fill="#FF6284" d="M124 76h4v4h-4zM128 76h4v4h-4z"/><path fill="#B03B45" d="M132 76h4v4h-4z"/><path fill="#8A2133" d="M144 76h4v4h-4z"/><path fill="#C33864" d="M148 76h4v4h-4zM152 76h4v4h-4z"/><path fill="#8A2133" d="M156 76h4v4h-4zM160 76h4v4h-4z"/><path fill="#C33864" d="M164 76h4v4h-4zM168 76h4v4h-4z"/><path fill="#F8477F" d="M172 76h4v4h-4zM176 76h4v4h-4z"/><path fill="#8A2133" d="M180 76h4v4h-4z"/><path fill="#B03B45" d="M200 76h4v4h-4z"/><path fill="#E95B7A" d="M204 76h4v4h-4zM208 76h4v4h-4zM212 76h4v4h-4z"/><path fill="#D14271" d="M216 76h4v4h-4z"/><path fill="#B03B45" d="M220 76h4v4h-4z"/><path fill="#8A2133" d="M48 80h4v4h-4z"/><path fill="#AB245F" d="M52 80h4v4h-4z"/><path fill="#C33864" d="M56 80h4v4h-4z"/><path fill="#8A2133" d="M60 80h4v4h-4zM68 80h4v4h-4z"/><path fill="#E95B7A" d="M72 80h4v4h-4zM76 80h4v4h-4zM80 80h4v4h-4zM84 80h4v4h-4z"/><path fill="#FF6284" d="M88 80h4v4h-4zM92 80h4v4h-4z"/><path fill="#E95B7A" d="M96 80h4v4h-4zM100 80h4v4h-4zM104 80h4v4h-4z"/><path fill="#D14271" d="M108 80h4v4h-4zM112 80h4v4h-4z"/><path fill="#E95B7A" d="M116 80h4v4h-4zM120 80h4v4h-4zM124 80h4v4h-4zM128 80h4v4h-4z"/><path fill="#B03B45" d="M132 80h4v4h-4z"/><path fill="#8A2133" d="M140 80h4v4h-4z"/><path fill="#AB245F" d="M144 80h4v4h-4z"/><path fill="#C33864" d="M148 80h4v4h-4zM152 80h4v4h-4z"/><path fill="#F8477F" d="M156 80h4v4h-4z"/><path fill="#8A2133" d="M160 80h4v4h-4z"/><path fill="#C33864" d="M164 80h4v4h-4zM168 80h4v4h-4z"/><path fill="#F8477F" d="M172 80h4v4h-4z"/><path fill="#C33864" d="M176 80h4v4h-4z"/><path fill="#AB245F" d="M180 80h4v4h-4z"/><path fill="#8A2133" d="M184 80h4v4h-4z"/><path fill="#B03B45" d="M200 80h4v4h-4z"/><path fill="#E95B7A" d="M204 80h4v4h-4zM208 80h4v4h-4zM212 80h4v4h-4zM216 80h4v4h-4z"/><path fill="#FF6284" d="M220 80h4v4h-4z"/><path fill="#B03B45" d="M224 80h4v4h-4z"/><path fill="#8A2133" d="M44 84h4v4h-4z"/><path fill="#AB245F" d="M48 84h4v4h-4z"/><path fill="#C33864" d="M52 84h4v4h-4zM56 84h4v4h-4zM60 84h4v4h-4z"/><path fill="#8A2133" d="M64 84h4v4h-4zM68 84h4v4h-4z"/><path fill="#E95B7A" d="M72 84h4v4h-4zM76 84h4v4h-4zM80 84h4v4h-4zM84 84h4v4h-4z"/><path fill="#FF6284" d="M88 84h4v4h-4zM92 84h4v4h-4z"/><path fill="#E95B7A" d="M96 84h4v4h-4zM100 84h4v4h-4zM104 84h4v4h-4zM108 84h4v4h-4zM112 84h4v4h-4zM116 84h4v4h-4zM120 84h4v4h-4zM124 84h4v4h-4z"/><path fill="#B03B45" d="M128 84h4v4h-4z"/><path fill="#8A2133" d="M140 84h4v4h-4z"/><path fill="#AB245F" d="M144 84h4v4h-4zM148 84h4v4h-4z"/><path fill="#C33864" d="M152 84h4v4h-4z"/><path fill="#F8477F" d="M156 84h4v4h-4z"/><path fill="#C33864" d="M160 84h4v4h-4zM164 84h4v4h-4zM168 84h4v4h-4zM172 84h4v4h-4zM176 84h4v4h-4z"/><path fill="#AB245F" d="M180 84h4v4h-4zM184 84h4v4h-4z"/><path fill="#8A2133" d="M188 84h4v4h-4z"/><path fill="#B03B45" d="M200 84h4v4h-4z"/><path fill="#E95B7A" d="M204 84h4v4h-4zM208 84h4v4h-4zM212 84h4v4h-4z"/><path fill="#FF6284" d="M216 84h4v4h-4zM220 84h4v4h-4z"/><path fill="#B03B45" d="M224 84h4v4h-4z"/><path fill="#8A2133" d="M40 88h4v4h-4z"/><path fill="#AB245F" d="M44 88h4v4h-4z"/><path fill="#F8477F" d="M48 88h4v4h-4z"/><path fill="#C33864" d="M52 88h4v4h-4zM56 88h4v4h-4zM60 88h4v4h-4z"/><path fill="#8A2133" d="M64 88h4v4h-4zM68 88h4v4h-4z"/><path fill="#D14271" d="M72 88h4v4h-4z"/><path fill="#E95B7A" d="M76 88h4v4h-4zM80 88h4v4h-4zM84 88h4v4h-4zM88 88h4v4h-4zM92 88h4v4h-4zM96 88h4v4h-4zM100 88h4v4h-4zM104 88h4v4h-4zM108 88h4v4h-4z"/><path fill="#FF6284" d="M112 88h4v4h-4z"/><path fill="#E95B7A" d="M116 88h4v4h-4zM120 88h4v4h-4z"/><path fill="#D14271" d="M124 88h4v4h-4z"/><path fill="#B03B45" d="M128 88h4v4h-4z"/><path fill="#8A2133" d="M144 88h4v4h-4z"/><path fill="#AB245F" d="M148 88h4v4h-4z"/><path fill="#C33864" d="M152 88h4v4h-4z"/><path fill="#F8477F" d="M156 88h4v4h-4zM160 88h4v4h-4z"/><path fill="#C33864" d="M164 88h4v4h-4zM168 88h4v4h-4zM172 88h4v4h-4zM176 88h4v4h-4z"/><path fill="#AB245F" d="M180 88h4v4h-4zM184 88h4v4h-4z"/><path fill="#8A2133" d="M188 88h4v4h-4z"/><path fill="#B03B45" d="M204 88h4v4h-4z"/><path fill="#E95B7A" d="M208 88h4v4h-4zM212 88h4v4h-4zM216 88h4v4h-4z"/><path fill="#D14271" d="M220 88h4v4h-4z"/><path fill="#B03B45" d="M224 88h4v4h-4z"/><path fill="#8A2133" d="M40 92h4v4h-4z"/><path fill="#F8477F" d="M44 92h4v4h-4zM48 92h4v4h-4z"/><path fill="#C33864" d="M52 92h4v4h-4zM56 92h4v4h-4zM60 92h4v4h-4z"/><path fill="#8A2133" d="M64 92h4v4h-4z"/><path fill="#B03B45" d="M72 92h4v4h-4z"/><path fill="#D14271" d="M76 92h4v4h-4z"/><path fill="#E95B7A" d="M80 92h4v4h-4zM84 92h4v4h-4zM88 92h4v4h-4zM92 92h4v4h-4zM96 92h4v4h-4zM100 92h4v4h-4zM104 92h4v4h-4z"/><path fill="#FF6284" d="M108 92h4v4h-4zM112 92h4v4h-4z"/><path fill="#E95B7A" d="M116 92h4v4h-4z"/><path fill="#D14271" d="M120 92h4v4h-4z"/><path fill="#B03B45" d="M124 92h4v4h-4z"/><path fill="#8A2133" d="M144 92h4v4h-4z"/><path fill="#AB245F" d="M148 92h4v4h-4z"/><path fill="#C33864" d="M152 92h4v4h-4z"/><path fill="#F8477F" d="M156 92h4v4h-4z"/><path fill="#C33864" d="M160 92h4v4h-4zM164 92h4v4h-4zM168 92h4v4h-4zM172 92h4v4h-4z"/><path fill="#AB245F" d="M176 92h4v4h-4zM180 92h4v4h-4z"/><path fill="#8A2133" d="M184 92h4v4h-4z"/><path fill="#B03B45" d="M200 92h4v4h-4z"/><path fill="#E95B7A" d="M204 92h4v4h-4zM208 92h4v4h-4zM212 92h4v4h-4zM216 92h4v4h-4z"/><path fill="#D14271" d="M220 92h4v4h-4z"/><path fill="#B03B45" d="M224 92h4v4h-4z"/><path fill="#8A2133" d="M36 96h4v4h-4z"/><path fill="#AB245F" d="M40 96h4v4h-4z"/><path fill="#F8477F" d="M44 96h4v4h-4zM48 96h4v4h-4z"/><path fill="#C33864" d="M52 96h4v4h-4zM56 96h4v4h-4zM60 96h4v4h-4z"/><path fill="#8A2133" d="M64 96h4v4h-4z"/><path fill="#B03B45" d="M76 96h4v4h-4z"/><path fill="#D14271" d="M80 96h4v4h-4z"/><path fill="#E95B7A" d="M84 96h4v4h-4zM88 96h4v4h-4zM92 96h4v4h-4zM96 96h4v4h-4z"/><path fill="#D14271" d="M100 96h4v4h-4zM104 96h4v4h-4zM108 96h4v4h-4z"/><path fill="#E95B7A" d="M112 96h4v4h-4zM116 96h4v4h-4zM120 96h4v4h-4zM124 96h4v4h-4z"/><path fill="#B03B45" d="M128 96h4v4h-4z"/><path fill="#8A2133" d="M136 96h4v4h-4zM144 96h4v4h-4z"/><path fill="#AB245F" d="M148 96h4v4h-4z"/><path fill="#C33864" d="M152 96h4v4h-4zM156 96h4v4h-4zM160 96h4v4h-4zM164 96h4v4h-4zM168 96h4v4h-4z"/><path fill="#AB245F" d="M172 96h4v4h-4zM176 96h4v4h-4z"/><path fill="#8A2133" d="M180 96h4v4h-4z"/><path fill="#B03B45" d="M196 96h4v4h-4z"/><path fill="#FF6284" d="M200 96h4v4h-4z"/><path fill="#E95B7A" d="M204 96h4v4h-4zM208 96h4v4h-4zM212 96h4v4h-4zM216 96h4v4h-4z"/><path fill="#B03B45" d="M220 96h4v4h-4z"/><path fill="#8A2133" d="M36 100h4v4h-4z"/><path fill="#AB245F" d="M40 100h4v4h-4z"/><path fill="#C33864" d="M44 100h4v4h-4zM48 100h4v4h-4zM52 100h4v4h-4zM56 100h4v4h-4z"/><path fill="#8A2133" d="M60 100h4v4h-4zM76 100h4v4h-4z"/><path fill="#AB245F" d="M80 100h4v4h-4zM84 100h4v4h-4z"/><path fill="#D14271" d="M88 100h4v4h-4z"/><path fill="#E95B7A" d="M92 100h4v4h-4z"/><path fill="#B03B45" d="M96 100h4v4h-4z"/><path fill="#D14271" d="M100 100h4v4h-4zM104 100h4v4h-4zM108 100h4v4h-4zM112 100h4v4h-4z"/><path fill="#E95B7A" d="M116 100h4v4h-4zM120 100h4v4h-4zM124 100h4v4h-4z"/><path fill="#B03B45" d="M128 100h4v4h-4z"/><path fill="#8A2133" d="M132 100h4v4h-4zM136 100h4v4h-4zM140 100h4v4h-4z"/><path fill="#AB245F" d="M144 100h4v4h-4z"/><path fill="#C33864" d="M148 100h4v4h-4zM152 100h4v4h-4zM156 100h4v4h-4zM160 100h4v4h-4z"/><path fill="#F8477F" d="M164 100h4v4h-4z"/><path fill="#8A2133" d="M168 100h4v4h-4zM172 100h4v4h-4zM176 100h4v4h-4z"/><path fill="#B03B45" d="M192 100h4v4h-4z"/><path fill="#FF6284" d="M196 100h4v4h-4zM200 100h4v4h-4z"/><path fill="#E95B7A" d="M204 100h4v4h-4zM208 100h4v4h-4z"/><path fill="#FF6284" d="M212 100h4v4h-4z"/><path fill="#E95B7A" d="M216 100h4v4h-4z"/><path fill="#B03B45" d="M220 100h4v4h-4z"/><path fill="#8A2133" d="M32 104h4v4h-4z"/><path fill="#AB245F" d="M36 104h4v4h-4zM40 104h4v4h-4zM44 104h4v4h-4z"/><path fill="#C33864" d="M48 104h4v4h-4zM52 104h4v4h-4zM56 104h4v4h-4zM60 104h4v4h-4z"/><path fill="#8A2133" d="M64 104h4v4h-4zM72 104h4v4h-4z"/><path fill="#AB245F" d="M76 104h4v4h-4z"/><path fill="#C33864" d="M80 104h4v4h-4zM84 104h4v4h-4z"/><path fill="#AB245F" d="M88 104h4v4h-4zM92 104h4v4h-4z"/><path fill="#B03B45" d="M96 104h4v4h-4z"/><path fill="#D14271" d="M100 104h4v4h-4zM104 104h4v4h-4zM108 104h4v4h-4zM112 104h4v4h-4z"/><path fill="#E95B7A" d="M116 104h4v4h-4zM120 104h4v4h-4zM124 104h4v4h-4z"/><path fill="#B03B45" d="M128 104h4v4h-4z"/><path fill="#8A2133" d="M132 104h4v4h-4z"/><path fill="#C33864" d="M136 104h4v4h-4z"/><path fill="#AB245F" d="M140 104h4v4h-4z"/><path fill="#C33864" d="M144 104h4v4h-4zM148 104h4v4h-4zM152 104h4v4h-4zM156 104h4v4h-4zM160 104h4v4h-4z"/><path fill="#8A2133" d="M164 104h4v4h-4z"/><path fill="#B03B45" d="M188 104h4v4h-4z"/><path fill="#D14271" d="M192 104h4v4h-4z"/><path fill="#FF6284" d="M196 104h4v4h-4zM200 104h4v4h-4z"/><path fill="#E95B7A" d="M204 104h4v4h-4zM208 104h4v4h-4z"/><path fill="#FF6284" d="M212 104h4v4h-4z"/><path fill="#B03B45" d="M216 104h4v4h-4z"/><path fill="#8A2133" d="M36 108h4v4h-4z"/><path fill="#AB245F" d="M40 108h4v4h-4zM44 108h4v4h-4zM48 108h4v4h-4z"/><path fill="#C33864" d="M52 108h4v4h-4zM56 108h4v4h-4z"/><path fill="#F8477F" d="M60 108h4v4h-4z"/><path fill="#8A2133" d="M64 108h4v4h-4zM68 108h4v4h-4zM72 108h4v4h-4z"/><path fill="#C33864" d="M76 108h4v4h-4zM80 108h4v4h-4zM84 108h4v4h-4zM88 108h4v4h-4z"/><path fill="#AB245F" d="M92 108h4v4h-4z"/><path fill="#8A2133" d="M96 108h4v4h-4z"/><path fill="#B03B45" d="M100 108h4v4h-4zM104 108h4v4h-4zM108 108h4v4h-4z"/><path fill="#E95B7A" d="M112 108h4v4h-4zM116 108h4v4h-4zM120 108h4v4h-4zM124 108h4v4h-4zM128 108h4v4h-4z"/><path fill="#8A2133" d="M132 108h4v4h-4z"/><path fill="#AB245F" d="M136 108h4v4h-4z"/><path fill="#C33864" d="M140 108h4v4h-4zM144 108h4v4h-4zM148 108h4v4h-4z"/><path fill="#AB245F" d="M152 108h4v4h-4z"/><path fill="#C33864" d="M156 108h4v4h-4zM160 108h4v4h-4z"/><path fill="#8A2133" d="M164 108h4v4h-4z"/><path fill="#B03B45" d="M184 108h4v4h-4z"/><path fill="#D14271" d="M188 108h4v4h-4z"/><path fill="#E95B7A" d="M192 108h4v4h-4zM196 108h4v4h-4zM200 108h4v4h-4zM204 108h4v4h-4z"/><path fill="#D14271" d="M208 108h4v4h-4z"/><path fill="#B03B45" d="M212 108h4v4h-4zM224 108h4v4h-4zM228 108h4v4h-4z"/><path fill="#8A2133" d="M40 112h4v4h-4z"/><path fill="#AB245F" d="M44 112h4v4h-4zM48 112h4v4h-4z"/><path fill="#C33864" d="M52 112h4v4h-4z"/><path fill="#F8477F" d="M56 112h4v4h-4zM60 112h4v4h-4zM64 112h4v4h-4z"/><path fill="#AB245F" d="M68 112h4v4h-4z"/><path fill="#8A2133" d="M72 112h4v4h-4z"/><path fill="#C33864" d="M76 112h4v4h-4zM80 112h4v4h-4zM84 112h4v4h-4zM88 112h4v4h-4z"/><path fill="#8A2133" d="M92 112h4v4h-4z"/><path fill="#B03B45" d="M104 112h4v4h-4z"/><path fill="#D14271" d="M108 112h4v4h-4z"/><path fill="#E95B7A" d="M112 112h4v4h-4zM116 112h4v4h-4zM120 112h4v4h-4zM124 112h4v4h-4zM128 112h4v4h-4z"/><path fill="#FF6284" d="M132 112h4v4h-4z"/><path fill="#C33864" d="M136 112h4v4h-4zM140 112h4v4h-4zM144 112h4v4h-4zM148 112h4v4h-4z"/><path fill="#AB245F" d="M152 112h4v4h-4zM156 112h4v4h-4z"/><path fill="#8A2133" d="M160 112h4v4h-4z"/><path fill="#B03B45" d="M172 112h4v4h-4zM176 112h4v4h-4zM184 112h4v4h-4z"/><path fill="#D14271" d="M188 112h4v4h-4z"/><path fill="#E95B7A" d="M192 112h4v4h-4zM196 112h4v4h-4zM200 112h4v4h-4zM204 112h4v4h-4z"/><path fill="#D14271" d="M208 112h4v4h-4z"/><path fill="#B03B45" d="M212 112h4v4h-4zM220 112h4v4h-4z"/><path fill="#D14271" d="M224 112h4v4h-4zM228 112h4v4h-4z"/><path fill="#B03B45" d="M232 112h4v4h-4z"/><path fill="#8A2133" d="M40 116h4v4h-4z"/><path fill="#AB245F" d="M44 116h4v4h-4zM48 116h4v4h-4z"/><path fill="#C33864" d="M52 116h4v4h-4zM56 116h4v4h-4zM60 116h4v4h-4zM64 116h4v4h-4zM68 116h4v4h-4zM72 116h4v4h-4zM76 116h4v4h-4z"/><path fill="#F8477F" d="M80 116h4v4h-4z"/><path fill="#C33864" d="M84 116h4v4h-4z"/><path fill="#AB245F" d="M88 116h4v4h-4z"/><path fill="#8A2133" d="M92 116h4v4h-4zM100 116h4v4h-4z"/><path fill="#C33864" d="M104 116h4v4h-4z"/><path fill="#AB245F" d="M108 116h4v4h-4zM112 116h4v4h-4z"/><path fill="#E95B7A" d="M116 116h4v4h-4z"/><path fill="#D14271" d="M120 116h4v4h-4z"/><path fill="#E95B7A" d="M124 116h4v4h-4z"/><path fill="#FF6284" d="M128 116h4v4h-4zM132 116h4v4h-4z"/><path fill="#E95B7A" d="M136 116h4v4h-4z"/><path fill="#C33864" d="M140 116h4v4h-4z"/><path fill="#F8477F" d="M144 116h4v4h-4z"/><path fill="#C33864" d="M148 116h4v4h-4z"/><path fill="#AB245F" d="M152 116h4v4h-4z"/><path fill="#8A2133" d="M156 116h4v4h-4z"/><path fill="#B03B45" d="M168 116h4v4h-4z"/><path fill="#D14271" d="M172 116h4v4h-4zM176 116h4v4h-4z"/><path fill="#B03B45" d="M180 116h4v4h-4zM184 116h4v4h-4z"/><path fill="#D14271" d="M188 116h4v4h-4z"/><path fill="#E95B7A" d="M192 116h4v4h-4zM196 116h4v4h-4zM200 116h4v4h-4zM204 116h4v4h-4z"/><path fill="#D14271" d="M208 116h4v4h-4z"/><path fill="#B03B45" d="M212 116h4v4h-4zM216 116h4v4h-4z"/><path fill="#E95B7A" d="M220 116h4v4h-4zM224 116h4v4h-4z"/><path fill="#D14271" d="M228 116h4v4h-4zM232 116h4v4h-4z"/><path fill="#B03B45" d="M236 116h4v4h-4z"/><path fill="#8A2133" d="M40 120h4v4h-4zM44 120h4v4h-4z"/><path fill="#AB245F" d="M48 120h4v4h-4zM52 120h4v4h-4z"/><path fill="#C33864" d="M56 120h4v4h-4zM60 120h4v4h-4zM64 120h4v4h-4zM68 120h4v4h-4zM72 120h4v4h-4zM76 120h4v4h-4z"/><path fill="#F8477F" d="M80 120h4v4h-4z"/><path fill="#AB245F" d="M84 120h4v4h-4zM88 120h4v4h-4zM92 120h4v4h-4z"/><path fill="#8A2133" d="M96 120h4v4h-4z"/><path fill="#AB245F" d="M100 120h4v4h-4z"/><path fill="#C33864" d="M104 120h4v4h-4z"/><path fill="#AB245F" d="M108 120h4v4h-4zM112 120h4v4h-4zM116 120h4v4h-4z"/><path fill="#E95B7A" d="M120 120h4v4h-4zM124 120h4v4h-4zM128 120h4v4h-4zM132 120h4v4h-4zM136 120h4v4h-4zM140 120h4v4h-4z"/><path fill="#F8477F" d="M144 120h4v4h-4z"/><path fill="#AB245F" d="M148 120h4v4h-4zM152 120h4v4h-4z"/><path fill="#8A2133" d="M156 120h4v4h-4z"/><path fill="#B03B45" d="M164 120h4v4h-4z"/><path fill="#D14271" d="M168 120h4v4h-4zM172 120h4v4h-4zM176 120h4v4h-4zM180 120h4v4h-4z"/><path fill="#B03B45" d="M184 120h4v4h-4zM188 120h4v4h-4z"/><path fill="#E95B7A" d="M192 120h4v4h-4zM196 120h4v4h-4zM200 120h4v4h-4zM204 120h4v4h-4z"/><path fill="#D14271" d="M208 120h4v4h-4z"/><path fill="#B03B45" d="M212 120h4v4h-4z"/><path fill="#FF6284" d="M216 120h4v4h-4zM220 120h4v4h-4z"/><path fill="#E95B7A" d="M224 120h4v4h-4zM228 120h4v4h-4z"/><path fill="#D14271" d="M232 120h4v4h-4z"/><path fill="#B03B45" d="M236 120h4v4h-4z"/><path fill="#8A2133" d="M40 124h4v4h-4zM44 124h4v4h-4zM48 124h4v4h-4z"/><path fill="#AB245F" d="M52 124h4v4h-4z"/><path fill="#F8477F" d="M56 124h4v4h-4zM60 124h4v4h-4z"/><path fill="#C33864" d="M64 124h4v4h-4zM68 124h4v4h-4zM72 124h4v4h-4z"/><path fill="#AB245F" d="M76 124h4v4h-4zM80 124h4v4h-4zM84 124h4v4h-4zM88 124h4v4h-4zM92 124h4v4h-4zM96 124h4v4h-4z"/><path fill="#C33864" d="M100 124h4v4h-4zM104 124h4v4h-4zM108 124h4v4h-4z"/><path fill="#AB245F" d="M112 124h4v4h-4zM116 124h4v4h-4z"/><path fill="#D14271" d="M120 124h4v4h-4zM124 124h4v4h-4z"/><path fill="#E95B7A" d="M128 124h4v4h-4zM132 124h4v4h-4zM136 124h4v4h-4zM140 124h4v4h-4zM144 124h4v4h-4z"/><path fill="#AB245F" d="M148 124h4v4h-4zM152 124h4v4h-4z"/><path fill="#8A2133" d="M156 124h4v4h-4zM160 124h4v4h-4z"/><path fill="#D14271" d="M164 124h4v4h-4zM168 124h4v4h-4zM172 124h4v4h-4zM176 124h4v4h-4zM180 124h4v4h-4z"/><path fill="#B03B45" d="M184 124h4v4h-4zM188 124h4v4h-4z"/><path fill="#E95B7A" d="M192 124h4v4h-4zM196 124h4v4h-4zM200 124h4v4h-4zM204 124h4v4h-4zM208 124h4v4h-4zM212 124h4v4h-4zM216 124h4v4h-4z"/><path fill="#FF6284" d="M220 124h4v4h-4z"/><path fill="#E95B7A" d="M224 124h4v4h-4z"/><path fill="#FF6284" d="M228 124h4v4h-4z"/><path fill="#D14271" d="M232 124h4v4h-4z"/><path fill="#B03B45" d="M236 124h4v4h-4z"/><path fill="#8A2133" d="M52 128h4v4h-4z"/><path fill="#F8477F" d="M56 128h4v4h-4zM60 128h4v4h-4z"/><path fill="#C33864" d="M64 128h4v4h-4zM68 128h4v4h-4zM72 128h4v4h-4z"/><path fill="#AB245F" d="M76 128h4v4h-4zM80 128h4v4h-4zM84 128h4v4h-4zM88 128h4v4h-4zM92 128h4v4h-4z"/><path fill="#C33864" d="M96 128h4v4h-4z"/><path fill="#F8477F" d="M100 128h4v4h-4z"/><path fill="#C33864" d="M104 128h4v4h-4zM108 128h4v4h-4zM112 128h4v4h-4z"/><path fill="#AB245F" d="M116 128h4v4h-4z"/><path fill="#8A2133" d="M120 128h4v4h-4z"/><path fill="#B03B45" d="M124 128h4v4h-4zM128 128h4v4h-4z"/><path fill="#E95B7A" d="M132 128h4v4h-4zM136 128h4v4h-4zM140 128h4v4h-4zM144 128h4v4h-4zM148 128h4v4h-4z"/><path fill="#D14271" d="M152 128h4v4h-4z"/><path fill="#B03B45" d="M156 128h4v4h-4zM160 128h4v4h-4z"/><path fill="#D14271" d="M164 128h4v4h-4zM168 128h4v4h-4zM172 128h4v4h-4zM176 128h4v4h-4z"/><path fill="#B03B45" d="M180 128h4v4h-4zM188 128h4v4h-4z"/><path fill="#D14271" d="M192 128h4v4h-4z"/><path fill="#E95B7A" d="M196 128h4v4h-4zM200 128h4v4h-4zM204 128h4v4h-4zM208 128h4v4h-4zM212 128h4v4h-4zM216 128h4v4h-4zM220 128h4v4h-4zM224 128h4v4h-4z"/><path fill="#FF6284" d="M228 128h4v4h-4z"/><path fill="#B03B45" d="M232 128h4v4h-4z"/><path fill="#8A2133" d="M56 132h4v4h-4zM60 132h4v4h-4zM64 132h4v4h-4z"/><path fill="#AB245F" d="M68 132h4v4h-4zM72 132h4v4h-4zM76 132h4v4h-4zM80 132h4v4h-4zM84 132h4v4h-4zM88 132h4v4h-4z"/><path fill="#C33864" d="M92 132h4v4h-4z"/><path fill="#F8477F" d="M96 132h4v4h-4zM100 132h4v4h-4z"/><path fill="#C33864" d="M104 132h4v4h-4zM108 132h4v4h-4zM112 132h4v4h-4z"/><path fill="#AB245F" d="M116 132h4v4h-4z"/><path fill="#8A2133" d="M120 132h4v4h-4zM124 132h4v4h-4zM128 132h4v4h-4z"/><path fill="#B03B45" d="M132 132h4v4h-4z"/><path fill="#E95B7A" d="M136 132h4v4h-4zM140 132h4v4h-4zM144 132h4v4h-4zM148 132h4v4h-4zM152 132h4v4h-4z"/><path fill="#D14271" d="M156 132h4v4h-4zM160 132h4v4h-4zM164 132h4v4h-4zM168 132h4v4h-4zM172 132h4v4h-4zM176 132h4v4h-4zM180 132h4v4h-4z"/><path fill="#B03B45" d="M184 132h4v4h-4zM188 132h4v4h-4z"/><path fill="#D14271" d="M192 132h4v4h-4z"/><path fill="#FF6284" d="M196 132h4v4h-4zM200 132h4v4h-4z"/><path fill="#E95B7A" d="M204 132h4v4h-4zM208 132h4v4h-4z"/><path fill="#D14271" d="M212 132h4v4h-4zM216 132h4v4h-4z"/><path fill="#E95B7A" d="M220 132h4v4h-4zM224 132h4v4h-4z"/><path fill="#B03B45" d="M228 132h4v4h-4z"/><path fill="#8A2133" d="M60 136h4v4h-4z"/><path fill="#AB245F" d="M64 136h4v4h-4zM68 136h4v4h-4z"/><path fill="#8A2133" d="M72 136h4v4h-4zM76 136h4v4h-4zM80 136h4v4h-4zM84 136h4v4h-4z"/><path fill="#AB245F" d="M88 136h4v4h-4z"/><path fill="#C33864" d="M92 136h4v4h-4z"/><path fill="#F8477F" d="M96 136h4v4h-4z"/><path fill="#C33864" d="M100 136h4v4h-4zM104 136h4v4h-4zM108 136h4v4h-4zM112 136h4v4h-4z"/><path fill="#F8477F" d="M116 136h4v4h-4z"/><path fill="#8A2133" d="M120 136h4v4h-4z"/><path fill="#AB245F" d="M124 136h4v4h-4zM128 136h4v4h-4z"/><path fill="#8A2133" d="M132 136h4v4h-4z"/><path fill="#D14271" d="M136 136h4v4h-4z"/><path fill="#E95B7A" d="M140 136h4v4h-4zM144 136h4v4h-4zM148 136h4v4h-4zM152 136h4v4h-4z"/><path fill="#D14271" d="M156 136h4v4h-4zM160 136h4v4h-4z"/><path fill="#B03B45" d="M164 136h4v4h-4z"/><path fill="#D14271" d="M168 136h4v4h-4z"/><path fill="#E95B7A" d="M172 136h4v4h-4zM176 136h4v4h-4z"/><path fill="#D14271" d="M180 136h4v4h-4zM184 136h4v4h-4zM188 136h4v4h-4zM192 136h4v4h-4z"/><path fill="#E95B7A" d="M196 136h4v4h-4zM200 136h4v4h-4zM204 136h4v4h-4z"/><path fill="#D14271" d="M208 136h4v4h-4z"/><path fill="#FF6284" d="M212 136h4v4h-4zM216 136h4v4h-4z"/><path fill="#D14271" d="M220 136h4v4h-4z"/><path fill="#B03B45" d="M224 136h4v4h-4zM228 136h4v4h-4z"/><path fill="#8A2133" d="M56 140h4v4h-4z"/><path fill="#AB245F" d="M60 140h4v4h-4zM64 140h4v4h-4zM68 140h4v4h-4z"/><path fill="#C33864" d="M72 140h4v4h-4zM76 140h4v4h-4z"/><path fill="#8A2133" d="M80 140h4v4h-4zM84 140h4v4h-4z"/><path fill="#F8477F" d="M88 140h4v4h-4z"/><path fill="#C33864" d="M92 140h4v4h-4zM96 140h4v4h-4zM100 140h4v4h-4zM104 140h4v4h-4zM108 140h4v4h-4zM112 140h4v4h-4z"/><path fill="#F8477F" d="M116 140h4v4h-4z"/><path fill="#AB245F" d="M120 140h4v4h-4zM124 140h4v4h-4zM128 140h4v4h-4zM132 140h4v4h-4zM136 140h4v4h-4z"/><path fill="#E95B7A" d="M140 140h4v4h-4zM144 140h4v4h-4z"/><path fill="#FF6284" d="M148 140h4v4h-4zM152 140h4v4h-4zM156 140h4v4h-4z"/><path fill="#B03B45" d="M160 140h4v4h-4zM164 140h4v4h-4z"/><path fill="#E95B7A" d="M168 140h4v4h-4zM172 140h4v4h-4zM176 140h4v4h-4zM180 140h4v4h-4z"/><path fill="#D14271" d="M184 140h4v4h-4zM188 140h4v4h-4z"/><path fill="#E95B7A" d="M192 140h4v4h-4zM196 140h4v4h-4zM200 140h4v4h-4zM204 140h4v4h-4z"/><path fill="#D14271" d="M208 140h4v4h-4z"/><path fill="#B03B45" d="M212 140h4v4h-4zM216 140h4v4h-4zM220 140h4v4h-4zM224 140h4v4h-4zM228 140h4v4h-4z"/><path fill="#8A2133" d="M56 144h4v4h-4z"/><path fill="#AB245F" d="M60 144h4v4h-4zM64 144h4v4h-4z"/><path fill="#C33864" d="M68 144h4v4h-4zM72 144h4v4h-4zM76 144h4v4h-4zM80 144h4v4h-4z"/><path fill="#F8477F" d="M84 144h4v4h-4z"/><path fill="#C33864" d="M88 144h4v4h-4zM92 144h4v4h-4z"/><path fill="#AB245F" d="M96 144h4v4h-4z"/><path fill="#C33864" d="M100 144h4v4h-4zM104 144h4v4h-4zM108 144h4v4h-4z"/><path fill="#F8477F" d="M112 144h4v4h-4zM116 144h4v4h-4z"/><path fill="#AB245F" d="M120 144h4v4h-4zM124 144h4v4h-4zM128 144h4v4h-4zM132 144h4v4h-4zM136 144h4v4h-4z"/><path fill="#E95B7A" d="M140 144h4v4h-4zM144 144h4v4h-4z"/><path fill="#FF6284" d="M148 144h4v4h-4zM152 144h4v4h-4z"/><path fill="#D14271" d="M156 144h4v4h-4z"/><path fill="#B03B45" d="M160 144h4v4h-4z"/><path fill="#D14271" d="M164 144h4v4h-4z"/><path fill="#E95B7A" d="M168 144h4v4h-4zM172 144h4v4h-4zM176 144h4v4h-4z"/><path fill="#FF6284" d="M180 144h4v4h-4z"/><path fill="#D14271" d="M184 144h4v4h-4zM188 144h4v4h-4z"/><path fill="#E95B7A" d="M192 144h4v4h-4zM196 144h4v4h-4zM200 144h4v4h-4zM204 144h4v4h-4z"/><path fill="#B03B45" d="M208 144h4v4h-4z"/><path fill="#8A2133" d="M56 148h4v4h-4z"/><path fill="#AB245F" d="M60 148h4v4h-4zM64 148h4v4h-4z"/><path fill="#C33864" d="M68 148h4v4h-4z"/><path fill="#F8477F" d="M72 148h4v4h-4z"/><path fill="#C33864" d="M76 148h4v4h-4zM80 148h4v4h-4zM84 148h4v4h-4zM88 148h4v4h-4zM92 148h4v4h-4z"/><path fill="#AB245F" d="M96 148h4v4h-4zM100 148h4v4h-4z"/><path fill="#C33864" d="M104 148h4v4h-4zM108 148h4v4h-4zM112 148h4v4h-4zM116 148h4v4h-4zM120 148h4v4h-4z"/><path fill="#AB245F" d="M124 148h4v4h-4zM128 148h4v4h-4zM132 148h4v4h-4zM136 148h4v4h-4z"/><path fill="#E95B7A" d="M140 148h4v4h-4zM144 148h4v4h-4zM148 148h4v4h-4zM152 148h4v4h-4z"/><path fill="#D14271" d="M156 148h4v4h-4zM160 148h4v4h-4zM164 148h4v4h-4z"/><path fill="#E95B7A" d="M168 148h4v4h-4zM172 148h4v4h-4z"/><path fill="#FF6284" d="M176 148h4v4h-4zM180 148h4v4h-4z"/><path fill="#D14271" d="M184 148h4v4h-4zM188 148h4v4h-4z"/><path fill="#E95B7A" d="M192 148h4v4h-4zM196 148h4v4h-4zM200 148h4v4h-4z"/><path fill="#B03B45" d="M204 148h4v4h-4z"/><path fill="#8A2133" d="M60 152h4v4h-4z"/><path fill="#AB245F" d="M64 152h4v4h-4z"/><path fill="#F8477F" d="M68 152h4v4h-4zM72 152h4v4h-4zM76 152h4v4h-4z"/><path fill="#C33864" d="M80 152h4v4h-4zM84 152h4v4h-4zM88 152h4v4h-4zM92 152h4v4h-4z"/><path fill="#F8477F" d="M96 152h4v4h-4z"/><path fill="#AB245F" d="M100 152h4v4h-4zM104 152h4v4h-4z"/><path fill="#C33864" d="M108 152h4v4h-4zM112 152h4v4h-4zM116 152h4v4h-4zM120 152h4v4h-4zM124 152h4v4h-4z"/><path fill="#F8477F" d="M128 152h4v4h-4z"/><path fill="#AB245F" d="M132 152h4v4h-4zM136 152h4v4h-4z"/><path fill="#E95B7A" d="M140 152h4v4h-4zM144 152h4v4h-4zM148 152h4v4h-4zM152 152h4v4h-4z"/><path fill="#D14271" d="M156 152h4v4h-4zM160 152h4v4h-4zM164 152h4v4h-4zM168 152h4v4h-4z"/><path fill="#E95B7A" d="M172 152h4v4h-4zM176 152h4v4h-4z"/><path fill="#FF6284" d="M180 152h4v4h-4z"/><path fill="#E95B7A" d="M184 152h4v4h-4zM188 152h4v4h-4zM192 152h4v4h-4zM196 152h4v4h-4zM200 152h4v4h-4z"/><path fill="#B03B45" d="M204 152h4v4h-4z"/><path fill="#8A2133" d="M64 156h4v4h-4z"/><path fill="#AB245F" d="M68 156h4v4h-4zM72 156h4v4h-4z"/><path fill="#C33864" d="M76 156h4v4h-4zM80 156h4v4h-4zM84 156h4v4h-4zM88 156h4v4h-4z"/><path fill="#AB245F" d="M92 156h4v4h-4z"/><path fill="#F8477F" d="M96 156h4v4h-4z"/><path fill="#8A2133" d="M100 156h4v4h-4zM104 156h4v4h-4z"/><path fill="#AB245F" d="M108 156h4v4h-4zM112 156h4v4h-4z"/><path fill="#C33864" d="M116 156h4v4h-4zM120 156h4v4h-4zM124 156h4v4h-4z"/><path fill="#F8477F" d="M128 156h4v4h-4zM132 156h4v4h-4z"/><path fill="#AB245F" d="M136 156h4v4h-4z"/><path fill="#B03B45" d="M140 156h4v4h-4z"/><path fill="#E95B7A" d="M144 156h4v4h-4zM148 156h4v4h-4zM152 156h4v4h-4z"/><path fill="#D14271" d="M156 156h4v4h-4zM160 156h4v4h-4zM164 156h4v4h-4zM168 156h4v4h-4z"/><path fill="#E95B7A" d="M172 156h4v4h-4zM176 156h4v4h-4zM180 156h4v4h-4zM184 156h4v4h-4zM188 156h4v4h-4zM192 156h4v4h-4zM196 156h4v4h-4zM200 156h4v4h-4z"/><path fill="#D14271" d="M204 156h4v4h-4z"/><path fill="#B03B45" d="M208 156h4v4h-4z"/><path fill="#8A2133" d="M68 160h4v4h-4zM72 160h4v4h-4z"/><path fill="#AB245F" d="M76 160h4v4h-4zM80 160h4v4h-4zM84 160h4v4h-4zM88 160h4v4h-4zM92 160h4v4h-4z"/><path fill="#8A2133" d="M96 160h4v4h-4zM108 160h4v4h-4z"/><path fill="#AB245F" d="M112 160h4v4h-4zM116 160h4v4h-4z"/><path fill="#C33864" d="M120 160h4v4h-4zM124 160h4v4h-4z"/><path fill="#F8477F" d="M128 160h4v4h-4z"/><path fill="#C33864" d="M132 160h4v4h-4z"/><path fill="#AB245F" d="M136 160h4v4h-4z"/><path fill="#8A2133" d="M140 160h4v4h-4z"/><path fill="#B03B45" d="M144 160h4v4h-4z"/><path fill="#E95B7A" d="M148 160h4v4h-4zM152 160h4v4h-4zM156 160h4v4h-4z"/><path fill="#D14271" d="M160 160h4v4h-4zM164 160h4v4h-4z"/><path fill="#E95B7A" d="M168 160h4v4h-4z"/><path fill="#FF6284" d="M172 160h4v4h-4z"/><path fill="#E95B7A" d="M176 160h4v4h-4zM180 160h4v4h-4zM184 160h4v4h-4zM188 160h4v4h-4zM192 160h4v4h-4z"/><path fill="#D14271" d="M196 160h4v4h-4zM200 160h4v4h-4z"/><path fill="#B03B45" d="M204 160h4v4h-4zM208 160h4v4h-4zM212 160h4v4h-4zM216 160h4v4h-4zM220 160h4v4h-4z"/><path fill="#8A2133" d="M76 164h4v4h-4zM80 164h4v4h-4zM84 164h4v4h-4zM88 164h4v4h-4zM92 164h4v4h-4zM112 164h4v4h-4z"/><path fill="#AB245F" d="M116 164h4v4h-4z"/><path fill="#C33864" d="M120 164h4v4h-4zM124 164h4v4h-4zM128 164h4v4h-4zM132 164h4v4h-4zM136 164h4v4h-4z"/><path fill="#8A2133" d="M140 164h4v4h-4z"/><path fill="#B03B45" d="M144 164h4v4h-4z"/><path fill="#E95B7A" d="M148 164h4v4h-4zM152 164h4v4h-4zM156 164h4v4h-4zM160 164h4v4h-4zM164 164h4v4h-4z"/><path fill="#FF6284" d="M168 164h4v4h-4zM172 164h4v4h-4zM176 164h4v4h-4z"/><path fill="#E95B7A" d="M180 164h4v4h-4z"/><path fill="#FF6284" d="M184 164h4v4h-4zM188 164h4v4h-4z"/><path fill="#D14271" d="M192 164h4v4h-4zM196 164h4v4h-4z"/><path fill="#B03B45" d="M200 164h4v4h-4zM204 164h4v4h-4z"/><path fill="#D14271" d="M208 164h4v4h-4zM212 164h4v4h-4zM216 164h4v4h-4zM220 164h4v4h-4z"/><path fill="#B03B45" d="M224 164h4v4h-4z"/><path fill="#8A2133" d="M100 168h4v4h-4zM104 168h4v4h-4zM116 168h4v4h-4zM120 168h4v4h-4z"/><path fill="#C33864" d="M124 168h4v4h-4zM128 168h4v4h-4zM132 168h4v4h-4zM136 168h4v4h-4zM140 168h4v4h-4z"/><path fill="#8A2133" d="M144 168h4v4h-4z"/><path fill="#E95B7A" d="M148 168h4v4h-4zM152 168h4v4h-4zM156 168h4v4h-4zM160 168h4v4h-4zM164 168h4v4h-4z"/><path fill="#FF6284" d="M168 168h4v4h-4z"/><path fill="#E95B7A" d="M172 168h4v4h-4zM176 168h4v4h-4zM180 168h4v4h-4z"/><path fill="#FF6284" d="M184 168h4v4h-4zM188 168h4v4h-4z"/><path fill="#D14271" d="M192 168h4v4h-4zM196 168h4v4h-4z"/><path fill="#E95B7A" d="M200 168h4v4h-4zM204 168h4v4h-4z"/><path fill="#D14271" d="M208 168h4v4h-4zM212 168h4v4h-4zM216 168h4v4h-4zM220 168h4v4h-4zM224 168h4v4h-4z"/><path fill="#B03B45" d="M228 168h4v4h-4z"/><path fill="#8A2133" d="M68 172h4v4h-4zM72 172h4v4h-4zM76 172h4v4h-4zM96 172h4v4h-4z"/><path fill="#AB245F" d="M100 172h4v4h-4z"/><path fill="#C33864" d="M104 172h4v4h-4z"/><path fill="#8A2133" d="M108 172h4v4h-4zM120 172h4v4h-4z"/><path fill="#AB245F" d="M124 172h4v4h-4z"/><path fill="#C33864" d="M128 172h4v4h-4zM132 172h4v4h-4zM136 172h4v4h-4zM140 172h4v4h-4z"/><path fill="#AB245F" d="M144 172h4v4h-4z"/><path fill="#D14271" d="M148 172h4v4h-4z"/><path fill="#E95B7A" d="M152 172h4v4h-4zM156 172h4v4h-4zM160 172h4v4h-4zM164 172h4v4h-4zM168 172h4v4h-4zM172 172h4v4h-4zM176 172h4v4h-4zM180 172h4v4h-4zM184 172h4v4h-4zM188 172h4v4h-4zM192 172h4v4h-4z"/><path fill="#D14271" d="M196 172h4v4h-4zM200 172h4v4h-4zM204 172h4v4h-4zM208 172h4v4h-4zM212 172h4v4h-4zM216 172h4v4h-4zM220 172h4v4h-4zM224 172h4v4h-4z"/><path fill="#B03B45" d="M228 172h4v4h-4z"/><path fill="#8A2133" d="M64 176h4v4h-4z"/><path fill="#AB245F" d="M68 176h4v4h-4zM72 176h4v4h-4zM76 176h4v4h-4z"/><path fill="#8A2133" d="M80 176h4v4h-4zM92 176h4v4h-4z"/><path fill="#AB245F" d="M96 176h4v4h-4z"/><path fill="#C33864" d="M100 176h4v4h-4zM104 176h4v4h-4zM108 176h4v4h-4z"/><path fill="#8A2133" d="M112 176h4v4h-4zM116 176h4v4h-4zM120 176h4v4h-4z"/><path fill="#F8477F" d="M124 176h4v4h-4zM128 176h4v4h-4z"/><path fill="#C33864" d="M132 176h4v4h-4zM136 176h4v4h-4zM140 176h4v4h-4z"/><path fill="#AB245F" d="M144 176h4v4h-4zM148 176h4v4h-4z"/><path fill="#D14271" d="M152 176h4v4h-4zM156 176h4v4h-4z"/><path fill="#E95B7A" d="M160 176h4v4h-4zM164 176h4v4h-4zM168 176h4v4h-4zM172 176h4v4h-4zM176 176h4v4h-4zM180 176h4v4h-4zM184 176h4v4h-4zM188 176h4v4h-4zM192 176h4v4h-4z"/><path fill="#D14271" d="M196 176h4v4h-4zM200 176h4v4h-4zM204 176h4v4h-4zM208 176h4v4h-4zM212 176h4v4h-4zM216 176h4v4h-4zM220 176h4v4h-4zM224 176h4v4h-4zM228 176h4v4h-4z"/><path fill="#B03B45" d="M232 176h4v4h-4z"/><path fill="#8A2133" d="M60 180h4v4h-4z"/><path fill="#AB245F" d="M64 180h4v4h-4zM68 180h4v4h-4zM72 180h4v4h-4zM76 180h4v4h-4z"/><path fill="#C33864" d="M80 180h4v4h-4z"/><path fill="#8A2133" d="M84 180h4v4h-4zM92 180h4v4h-4z"/><path fill="#AB245F" d="M96 180h4v4h-4z"/><path fill="#C33864" d="M100 180h4v4h-4zM104 180h4v4h-4zM108 180h4v4h-4zM112 180h4v4h-4z"/><path fill="#AB245F" d="M116 180h4v4h-4zM120 180h4v4h-4zM124 180h4v4h-4z"/><path fill="#F8477F" d="M128 180h4v4h-4z"/><path fill="#C33864" d="M132 180h4v4h-4zM136 180h4v4h-4zM140 180h4v4h-4z"/><path fill="#AB245F" d="M144 180h4v4h-4zM148 180h4v4h-4zM152 180h4v4h-4zM156 180h4v4h-4z"/><path fill="#E95B7A" d="M160 180h4v4h-4zM164 180h4v4h-4z"/><path fill="#D14271" d="M168 180h4v4h-4zM172 180h4v4h-4z"/><path fill="#E95B7A" d="M176 180h4v4h-4zM180 180h4v4h-4zM184 180h4v4h-4zM188 180h4v4h-4zM192 180h4v4h-4z"/><path fill="#D14271" d="M196 180h4v4h-4zM200 180h4v4h-4zM204 180h4v4h-4zM208 180h4v4h-4zM212 180h4v4h-4zM216 180h4v4h-4zM220 180h4v4h-4zM224 180h4v4h-4zM228 180h4v4h-4z"/><path fill="#B03B45" d="M232 180h4v4h-4z"/><path fill="#8A2133" d="M60 184h4v4h-4z"/><path fill="#AB245F" d="M64 184h4v4h-4zM68 184h4v4h-4zM72 184h4v4h-4zM76 184h4v4h-4zM80 184h4v4h-4zM84 184h4v4h-4z"/><path fill="#8A2133" d="M88 184h4v4h-4zM92 184h4v4h-4zM96 184h4v4h-4z"/><path fill="#C33864" d="M100 184h4v4h-4zM104 184h4v4h-4zM108 184h4v4h-4zM112 184h4v4h-4zM116 184h4v4h-4zM120 184h4v4h-4z"/><path fill="#AB245F" d="M124 184h4v4h-4z"/><path fill="#C33864" d="M128 184h4v4h-4zM132 184h4v4h-4zM136 184h4v4h-4zM140 184h4v4h-4z"/><path fill="#AB245F" d="M144 184h4v4h-4z"/><path fill="#D14271" d="M148 184h4v4h-4z"/><path fill="#AB245F" d="M152 184h4v4h-4zM156 184h4v4h-4z"/><path fill="#D14271" d="M160 184h4v4h-4zM164 184h4v4h-4zM168 184h4v4h-4z"/><path fill="#B03B45" d="M172 184h4v4h-4zM176 184h4v4h-4z"/><path fill="#E95B7A" d="M180 184h4v4h-4z"/><path fill="#B03B45" d="M184 184h4v4h-4zM188 184h4v4h-4zM192 184h4v4h-4zM196 184h4v4h-4z"/><path fill="#D14271" d="M200 184h4v4h-4zM204 184h4v4h-4zM208 184h4v4h-4z"/><path fill="#B03B45" d="M212 184h4v4h-4zM216 184h4v4h-4zM220 184h4v4h-4zM224 184h4v4h-4z"/><path fill="#A17E8A" d="M228 184h4v4h-4z"/><path fill="#B03B45" d="M232 184h4v4h-4z"/><path fill="#8A2133" d="M60 188h4v4h-4z"/><path fill="#AB245F" d="M64 188h4v4h-4zM68 188h4v4h-4zM72 188h4v4h-4zM76 188h4v4h-4zM80 188h4v4h-4zM84 188h4v4h-4z"/><path fill="#C33864" d="M88 188h4v4h-4zM92 188h4v4h-4z"/><path fill="#8A2133" d="M96 188h4v4h-4z"/><path fill="#AB245F" d="M100 188h4v4h-4z"/><path fill="#F8477F" d="M104 188h4v4h-4z"/><path fill="#C33864" d="M108 188h4v4h-4zM112 188h4v4h-4zM116 188h4v4h-4zM120 188h4v4h-4zM124 188h4v4h-4zM128 188h4v4h-4zM132 188h4v4h-4zM136 188h4v4h-4zM140 188h4v4h-4z"/><path fill="#E95B7A" d="M144 188h4v4h-4zM148 188h4v4h-4z"/><path fill="#D14271" d="M152 188h4v4h-4zM156 188h4v4h-4z"/><path fill="#E95B7A" d="M160 188h4v4h-4zM164 188h4v4h-4z"/><path fill="#D14271" d="M168 188h4v4h-4z"/><path fill="#E95B7A" d="M172 188h4v4h-4z"/><path fill="#B03B45" d="M176 188h4v4h-4zM180 188h4v4h-4z"/><path fill="#A27B8E" d="M184 188h4v4h-4zM188 188h4v4h-4zM192 188h4v4h-4zM196 188h4v4h-4z"/><path fill="#B03B45" d="M200 188h4v4h-4zM204 188h4v4h-4zM208 188h4v4h-4z"/><path fill="#C8ABB7" d="M212 188h4v4h-4zM216 188h4v4h-4z"/><path fill="#DABFCD" d="M220 188h4v4h-4zM224 188h4v4h-4zM228 188h4v4h-4z"/><path fill="#B03B45" d="M232 188h4v4h-4z"/><path fill="#8A2133" d="M60 192h4v4h-4z"/><path fill="#AB245F" d="M64 192h4v4h-4z"/><path fill="#C33864" d="M68 192h4v4h-4zM72 192h4v4h-4zM76 192h4v4h-4z"/><path fill="#AB245F" d="M80 192h4v4h-4zM84 192h4v4h-4z"/><path fill="#C33864" d="M88 192h4v4h-4zM92 192h4v4h-4z"/><path fill="#AB245F" d="M96 192h4v4h-4zM100 192h4v4h-4zM104 192h4v4h-4z"/><path fill="#F8477F" d="M108 192h4v4h-4z"/><path fill="#C33864" d="M112 192h4v4h-4zM116 192h4v4h-4zM120 192h4v4h-4zM124 192h4v4h-4zM128 192h4v4h-4zM132 192h4v4h-4z"/><path fill="#E95B7A" d="M136 192h4v4h-4zM140 192h4v4h-4zM144 192h4v4h-4zM148 192h4v4h-4zM152 192h4v4h-4z"/><path fill="#D14271" d="M156 192h4v4h-4z"/><path fill="#E95B7A" d="M160 192h4v4h-4z"/><path fill="#D14271" d="M164 192h4v4h-4zM168 192h4v4h-4zM172 192h4v4h-4zM176 192h4v4h-4zM180 192h4v4h-4z"/><path fill="#B03B45" d="M184 192h4v4h-4zM188 192h4v4h-4z"/><path fill="#C8ABB7" d="M192 192h4v4h-4zM196 192h4v4h-4z"/><path fill="#A27B8E" d="M200 192h4v4h-4zM204 192h4v4h-4z"/><path fill="#C8ABB7" d="M208 192h4v4h-4zM212 192h4v4h-4z"/><path fill="#DABFCD" d="M216 192h4v4h-4zM220 192h4v4h-4zM224 192h4v4h-4zM228 192h4v4h-4zM232 192h4v4h-4z"/><path fill="#A17E8A" d="M236 192h4v4h-4z"/><path fill="#8A2133" d="M64 196h4v4h-4z"/><path fill="#C33864" d="M68 196h4v4h-4zM72 196h4v4h-4z"/><path fill="#AB245F" d="M76 196h4v4h-4zM80 196h4v4h-4zM84 196h4v4h-4zM88 196h4v4h-4zM92 196h4v4h-4zM96 196h4v4h-4zM100 196h4v4h-4zM104 196h4v4h-4zM108 196h4v4h-4z"/><path fill="#C33864" d="M112 196h4v4h-4z"/><path fill="#AB245F" d="M116 196h4v4h-4z"/><path fill="#C33864" d="M120 196h4v4h-4z"/><path fill="#F8477F" d="M124 196h4v4h-4z"/><path fill="#C33864" d="M128 196h4v4h-4z"/><path fill="#E95B7A" d="M132 196h4v4h-4zM136 196h4v4h-4zM140 196h4v4h-4zM144 196h4v4h-4zM148 196h4v4h-4zM152 196h4v4h-4z"/><path fill="#D14271" d="M156 196h4v4h-4zM160 196h4v4h-4zM164 196h4v4h-4zM168 196h4v4h-4zM172 196h4v4h-4zM176 196h4v4h-4zM180 196h4v4h-4zM184 196h4v4h-4zM188 196h4v4h-4z"/><path fill="#B03B45" d="M192 196h4v4h-4z"/><path fill="#C8ABB7" d="M196 196h4v4h-4zM200 196h4v4h-4zM204 196h4v4h-4zM208 196h4v4h-4z"/><path fill="#DABFCD" d="M212 196h4v4h-4zM216 196h4v4h-4zM220 196h4v4h-4zM224 196h4v4h-4zM228 196h4v4h-4zM232 196h4v4h-4z"/><path fill="#A17E8A" d="M236 196h4v4h-4z"/><path fill="#8A2133" d="M68 200h4v4h-4z"/><path fill="#AB245F" d="M72 200h4v4h-4zM76 200h4v4h-4zM80 200h4v4h-4zM84 200h4v4h-4zM88 200h4v4h-4z"/><path fill="#C33864" d="M92 200h4v4h-4zM96 200h4v4h-4z"/><path fill="#AB245F" d="M100 200h4v4h-4zM104 200h4v4h-4zM108 200h4v4h-4zM112 200h4v4h-4zM116 200h4v4h-4z"/><path fill="#C33864" d="M120 200h4v4h-4z"/><path fill="#F8477F" d="M124 200h4v4h-4zM128 200h4v4h-4z"/><path fill="#E95B7A" d="M132 200h4v4h-4zM136 200h4v4h-4z"/><path fill="#D14271" d="M140 200h4v4h-4z"/><path fill="#E95B7A" d="M144 200h4v4h-4z"/><path fill="#D14271" d="M148 200h4v4h-4zM152 200h4v4h-4zM156 200h4v4h-4zM160 200h4v4h-4zM164 200h4v4h-4zM168 200h4v4h-4zM172 200h4v4h-4zM176 200h4v4h-4zM180 200h4v4h-4zM184 200h4v4h-4zM188 200h4v4h-4z"/><path fill="#B03B45" d="M192 200h4v4h-4z"/><path fill="#DABFCD" d="M196 200h4v4h-4zM200 200h4v4h-4zM204 200h4v4h-4zM208 200h4v4h-4zM212 200h4v4h-4zM216 200h4v4h-4zM220 200h4v4h-4zM224 200h4v4h-4zM228 200h4v4h-4zM232 200h4v4h-4zM236 200h4v4h-4z"/><path fill="#A17E8A" d="M240 200h4v4h-4z"/><path fill="#8A2133" d="M68 204h4v4h-4zM72 204h4v4h-4z"/><path fill="#AB245F" d="M76 204h4v4h-4zM80 204h4v4h-4zM84 204h4v4h-4zM88 204h4v4h-4z"/><path fill="#C33864" d="M92 204h4v4h-4zM96 204h4v4h-4z"/><path fill="#AB245F" d="M100 204h4v4h-4zM104 204h4v4h-4z"/><path fill="#8A2133" d="M108 204h4v4h-4z"/><path fill="#AB245F" d="M112 204h4v4h-4zM116 204h4v4h-4zM120 204h4v4h-4zM124 204h4v4h-4zM128 204h4v4h-4z"/><path fill="#D14271" d="M132 204h4v4h-4zM136 204h4v4h-4zM140 204h4v4h-4zM144 204h4v4h-4zM148 204h4v4h-4z"/><path fill="#B03B45" d="M152 204h4v4h-4zM156 204h4v4h-4zM160 204h4v4h-4z"/><path fill="#D14271" d="M164 204h4v4h-4zM168 204h4v4h-4zM172 204h4v4h-4zM176 204h4v4h-4zM180 204h4v4h-4z"/><path fill="#B03B45" d="M184 204h4v4h-4zM188 204h4v4h-4z"/><path fill="#DABFCD" d="M192 204h4v4h-4zM196 204h4v4h-4zM200 204h4v4h-4zM204 204h4v4h-4zM208 204h4v4h-4zM212 204h4v4h-4zM216 204h4v4h-4zM220 204h4v4h-4zM224 204h4v4h-4zM228 204h4v4h-4zM232 204h4v4h-4zM236 204h4v4h-4zM240 204h4v4h-4z"/><path fill="#A17E8A" d="M244 204h4v4h-4z"/><path fill="#8A2133" d="M68 208h4v4h-4zM72 208h4v4h-4zM76 208h4v4h-4z"/><path fill="#AB245F" d="M80 208h4v4h-4zM84 208h4v4h-4zM88 208h4v4h-4zM92 208h4v4h-4zM96 208h4v4h-4z"/><path fill="#8A2133" d="M100 208h4v4h-4z"/><path fill="#AB245F" d="M104 208h4v4h-4z"/><path fill="#8A2133" d="M108 208h4v4h-4z"/><path fill="#AB245F" d="M112 208h4v4h-4zM116 208h4v4h-4zM120 208h4v4h-4z"/><path fill="#8A2133" d="M124 208h4v4h-4zM128 208h4v4h-4z"/><path fill="#D14271" d="M132 208h4v4h-4zM136 208h4v4h-4zM140 208h4v4h-4zM144 208h4v4h-4z"/><path fill="#B03B45" d="M148 208h4v4h-4z"/><path fill="#A27B8E" d="M152 208h4v4h-4zM156 208h4v4h-4zM160 208h4v4h-4z"/><path fill="#B03B45" d="M164 208h4v4h-4zM168 208h4v4h-4zM172 208h4v4h-4zM176 208h4v4h-4zM180 208h4v4h-4z"/><path fill="#DABFCD" d="M184 208h4v4h-4zM188 208h4v4h-4zM192 208h4v4h-4zM196 208h4v4h-4zM200 208h4v4h-4zM204 208h4v4h-4zM208 208h4v4h-4zM212 208h4v4h-4zM216 208h4v4h-4zM220 208h4v4h-4zM224 208h4v4h-4zM228 208h4v4h-4zM232 208h4v4h-4zM236 208h4v4h-4zM240 208h4v4h-4z"/><path fill="#A17E8A" d="M244 208h4v4h-4z"/><path fill="#8A2133" d="M80 212h4v4h-4zM84 212h4v4h-4zM88 212h4v4h-4zM92 212h4v4h-4zM96 212h4v4h-4zM104 212h4v4h-4zM108 212h4v4h-4z"/><path fill="#AB245F" d="M112 212h4v4h-4zM116 212h4v4h-4zM120 212h4v4h-4z"/><path fill="#8A2133" d="M124 212h4v4h-4z"/><path fill="#A27B8E" d="M128 212h4v4h-4z"/><path fill="#8A2133" d="M132 212h4v4h-4z"/><path fill="#D14271" d="M136 212h4v4h-4zM140 212h4v4h-4z"/><path fill="#B03B45" d="M144 212h4v4h-4z"/><path fill="#A27B8E" d="M148 212h4v4h-4z"/><path fill="#C8ABB7" d="M152 212h4v4h-4zM156 212h4v4h-4zM160 212h4v4h-4z"/><path fill="#DABFCD" d="M164 212h4v4h-4zM168 212h4v4h-4z"/><path fill="#C8ABB7" d="M172 212h4v4h-4zM176 212h4v4h-4z"/><path fill="#DABFCD" d="M180 212h4v4h-4zM184 212h4v4h-4zM188 212h4v4h-4zM192 212h4v4h-4zM196 212h4v4h-4zM200 212h4v4h-4zM204 212h4v4h-4zM208 212h4v4h-4zM212 212h4v4h-4zM216 212h4v4h-4zM220 212h4v4h-4zM224 212h4v4h-4zM228 212h4v4h-4zM232 212h4v4h-4zM236 212h4v4h-4zM240 212h4v4h-4zM244 212h4v4h-4z"/><path fill="#A17E8A" d="M248 212h4v4h-4z"/><path fill="#8A2133" d="M100 216h4v4h-4z"/><path fill="#AB245F" d="M104 216h4v4h-4zM108 216h4v4h-4zM112 216h4v4h-4zM116 216h4v4h-4z"/><path fill="#8A2133" d="M120 216h4v4h-4z"/><path fill="#A27B8E" d="M124 216h4v4h-4zM128 216h4v4h-4zM132 216h4v4h-4z"/><path fill="#B03B45" d="M136 216h4v4h-4zM140 216h4v4h-4z"/><path fill="#A27B8E" d="M144 216h4v4h-4z"/><path fill="#C8ABB7" d="M148 216h4v4h-4zM152 216h4v4h-4z"/><path fill="#DABFCD" d="M156 216h4v4h-4zM160 216h4v4h-4zM164 216h4v4h-4zM168 216h4v4h-4zM172 216h4v4h-4zM176 216h4v4h-4zM180 216h4v4h-4zM184 216h4v4h-4zM188 216h4v4h-4zM192 216h4v4h-4zM196 216h4v4h-4zM200 216h4v4h-4zM204 216h4v4h-4zM208 216h4v4h-4zM212 216h4v4h-4zM216 216h4v4h-4zM220 216h4v4h-4zM224 216h4v4h-4zM228 216h4v4h-4zM232 216h4v4h-4zM236 216h4v4h-4z"/><path fill="#B796A0" d="M240 216h4v4h-4zM244 216h4v4h-4z"/><path fill="#A17E8A" d="M248 216h4v4h-4z"/><path fill="#8A2133" d="M96 220h4v4h-4z"/><path fill="#AB245F" d="M100 220h4v4h-4zM104 220h4v4h-4zM108 220h4v4h-4zM112 220h4v4h-4z"/><path fill="#8A2133" d="M116 220h4v4h-4z"/><path fill="#A27B8E" d="M120 220h4v4h-4zM124 220h4v4h-4zM128 220h4v4h-4zM132 220h4v4h-4zM136 220h4v4h-4zM140 220h4v4h-4z"/><path fill="#C8ABB7" d="M144 220h4v4h-4zM148 220h4v4h-4z"/><path fill="#DABFCD" d="M152 220h4v4h-4zM156 220h4v4h-4zM160 220h4v4h-4zM164 220h4v4h-4zM168 220h4v4h-4zM172 220h4v4h-4zM176 220h4v4h-4zM180 220h4v4h-4z"/><path fill="#C8ABB7" d="M184 220h4v4h-4zM188 220h4v4h-4z"/><path fill="#DABFCD" d="M192 220h4v4h-4zM196 220h4v4h-4zM200 220h4v4h-4zM204 220h4v4h-4zM208 220h4v4h-4zM212 220h4v4h-4zM216 220h4v4h-4zM220 220h4v4h-4zM224 220h4v4h-4zM228 220h4v4h-4zM232 220h4v4h-4z"/><path fill="#B796A0" d="M236 220h4v4h-4z"/><path fill="#C8ABB7" d="M240 220h4v4h-4z"/><path fill="#B796A0" d="M244 220h4v4h-4z"/><path fill="#A17E8A" d="M248 220h4v4h-4z"/><path fill="#8A2133" d="M92 224h4v4h-4z"/><path fill="#AB245F" d="M96 224h4v4h-4zM100 224h4v4h-4z"/><path fill="#8A2133" d="M104 224h4v4h-4zM108 224h4v4h-4zM112 224h4v4h-4z"/><path fill="#A27B8E" d="M116 224h4v4h-4zM120 224h4v4h-4zM124 224h4v4h-4zM128 224h4v4h-4zM132 224h4v4h-4z"/><path fill="#C8ABB7" d="M136 224h4v4h-4zM140 224h4v4h-4z"/><path fill="#DABFCD" d="M144 224h4v4h-4zM148 224h4v4h-4zM152 224h4v4h-4zM156 224h4v4h-4zM160 224h4v4h-4zM164 224h4v4h-4zM168 224h4v4h-4zM172 224h4v4h-4zM176 224h4v4h-4z"/><path fill="#C8ABB7" d="M180 224h4v4h-4zM184 224h4v4h-4zM188 224h4v4h-4zM192 224h4v4h-4z"/><path fill="#DABFCD" d="M196 224h4v4h-4zM200 224h4v4h-4zM204 224h4v4h-4zM208 224h4v4h-4zM212 224h4v4h-4zM216 224h4v4h-4zM220 224h4v4h-4zM224 224h4v4h-4zM228 224h4v4h-4z"/><path fill="#B796A0" d="M232 224h4v4h-4z"/><path fill="#C8ABB7" d="M236 224h4v4h-4zM240 224h4v4h-4zM244 224h4v4h-4z"/><path fill="#A17E8A" d="M248 224h4v4h-4z"/><path fill="#8A2133" d="M92 228h4v4h-4z"/><path fill="#AB245F" d="M96 228h4v4h-4zM100 228h4v4h-4z"/><path fill="#8A2133" d="M104 228h4v4h-4z"/><path fill="#A27B8E" d="M108 228h4v4h-4zM112 228h4v4h-4zM116 228h4v4h-4zM120 228h4v4h-4zM124 228h4v4h-4zM128 228h4v4h-4z"/><path fill="#C8ABB7" d="M132 228h4v4h-4z"/><path fill="#DABFCD" d="M136 228h4v4h-4zM140 228h4v4h-4zM144 228h4v4h-4zM148 228h4v4h-4zM152 228h4v4h-4zM156 228h4v4h-4zM160 228h4v4h-4zM164 228h4v4h-4zM168 228h4v4h-4zM172 228h4v4h-4zM176 228h4v4h-4z"/><path fill="#C8ABB7" d="M180 228h4v4h-4zM184 228h4v4h-4zM188 228h4v4h-4zM192 228h4v4h-4z"/><path fill="#DABFCD" d="M196 228h4v4h-4zM200 228h4v4h-4zM204 228h4v4h-4zM208 228h4v4h-4zM212 228h4v4h-4zM216 228h4v4h-4zM220 228h4v4h-4z"/><path fill="#C8ABB7" d="M224 228h4v4h-4zM228 228h4v4h-4zM232 228h4v4h-4zM236 228h4v4h-4zM240 228h4v4h-4zM244 228h4v4h-4z"/><path fill="#A17E8A" d="M248 228h4v4h-4z"/><path fill="#8A2133" d="M92 232h4v4h-4z"/><path fill="#AB245F" d="M96 232h4v4h-4z"/><path fill="#8A2133" d="M100 232h4v4h-4z"/><path fill="#AB8886" d="M104 232h4v4h-4z"/><path fill="#A27B8E" d="M108 232h4v4h-4zM112 232h4v4h-4zM116 232h4v4h-4zM120 232h4v4h-4zM124 232h4v4h-4z"/><path fill="#C8ABB7" d="M128 232h4v4h-4zM132 232h4v4h-4z"/><path fill="#DABFCD" d="M136 232h4v4h-4zM140 232h4v4h-4zM144 232h4v4h-4zM148 232h4v4h-4zM152 232h4v4h-4zM156 232h4v4h-4zM160 232h4v4h-4zM164 232h4v4h-4zM168 232h4v4h-4zM172 232h4v4h-4zM176 232h4v4h-4zM180 232h4v4h-4z"/><path fill="#C8ABB7" d="M184 232h4v4h-4zM188 232h4v4h-4z"/><path fill="#B796A0" d="M192 232h4v4h-4zM196 232h4v4h-4zM200 232h4v4h-4zM204 232h4v4h-4z"/><path fill="#DABFCD" d="M208 232h4v4h-4zM212 232h4v4h-4z"/><path fill="#B796A0" d="M216 232h4v4h-4z"/><path fill="#C8ABB7" d="M220 232h4v4h-4zM224 232h4v4h-4zM228 232h4v4h-4zM232 232h4v4h-4zM236 232h4v4h-4zM240 232h4v4h-4zM244 232h4v4h-4z"/><path fill="#A17E8A" d="M248 232h4v4h-4z"/><path fill="#8A2133" d="M92 236h4v4h-4z"/><path fill="#AB245F" d="M96 236h4v4h-4z"/><path fill="#8A2133" d="M100 236h4v4h-4z"/><path fill="#AB8886" d="M104 236h4v4h-4z"/><path fill="#A27B8E" d="M108 236h4v4h-4zM112 236h4v4h-4zM116 236h4v4h-4zM120 236h4v4h-4z"/><path fill="#C8ABB7" d="M124 236h4v4h-4zM128 236h4v4h-4z"/><path fill="#DABFCD" d="M132 236h4v4h-4zM136 236h4v4h-4zM140 236h4v4h-4zM144 236h4v4h-4zM148 236h4v4h-4zM152 236h4v4h-4zM156 236h4v4h-4zM160 236h4v4h-4zM164 236h4v4h-4z"/><path fill="#B796A0" d="M168 236h4v4h-4zM172 236h4v4h-4zM176 236h4v4h-4zM180 236h4v4h-4zM184 236h4v4h-4zM188 236h4v4h-4zM192 236h4v4h-4zM196 236h4v4h-4zM200 236h4v4h-4zM204 236h4v4h-4zM208 236h4v4h-4zM212 236h4v4h-4zM216 236h4v4h-4z"/><path fill="#C8ABB7" d="M220 236h4v4h-4zM224 236h4v4h-4zM228 236h4v4h-4zM232 236h4v4h-4zM236 236h4v4h-4zM240 236h4v4h-4zM244 236h4v4h-4z"/><path fill="#A17E8A" d="M248 236h4v4h-4z"/><path fill="#8A2133" d="M96 240h4v4h-4zM100 240h4v4h-4z"/><path fill="#AB8886" d="M104 240h4v4h-4z"/><path fill="#A27B8E" d="M108 240h4v4h-4zM112 240h4v4h-4zM116 240h4v4h-4z"/><path fill="#C8ABB7" d="M120 240h4v4h-4zM124 240h4v4h-4zM128 240h4v4h-4zM132 240h4v4h-4z"/><path fill="#DABFCD" d="M136 240h4v4h-4zM140 240h4v4h-4zM144 240h4v4h-4zM148 240h4v4h-4z"/><path fill="#B796A0" d="M152 240h4v4h-4z"/><path fill="#DABFCD" d="M156 240h4v4h-4z"/><path fill="#B796A0" d="M160 240h4v4h-4zM164 240h4v4h-4zM168 240h4v4h-4zM172 240h4v4h-4zM176 240h4v4h-4zM180 240h4v4h-4zM184 240h4v4h-4zM188 240h4v4h-4zM192 240h4v4h-4zM196 240h4v4h-4zM200 240h4v4h-4zM204 240h4v4h-4zM208 240h4v4h-4zM212 240h4v4h-4zM216 240h4v4h-4zM220 240h4v4h-4z"/><path fill="#C8ABB7" d="M224 240h4v4h-4zM228 240h4v4h-4zM232 240h4v4h-4zM236 240h4v4h-4zM240 240h4v4h-4zM244 240h4v4h-4z"/><path fill="#A17E8A" d="M248 240h4v4h-4z"/><path fill="#7B5365" d="M100 244h4v4h-4z"/><path fill="#AB8886" d="M104 244h4v4h-4zM108 244h4v4h-4z"/><path fill="#A27B8E" d="M112 244h4v4h-4zM116 244h4v4h-4z"/><path fill="#C8ABB7" d="M120 244h4v4h-4zM124 244h4v4h-4zM128 244h4v4h-4zM132 244h4v4h-4zM136 244h4v4h-4z"/><path fill="#DABFCD" d="M140 244h4v4h-4zM144 244h4v4h-4zM148 244h4v4h-4z"/><path fill="#B796A0" d="M152 244h4v4h-4zM156 244h4v4h-4zM160 244h4v4h-4zM164 244h4v4h-4zM168 244h4v4h-4zM172 244h4v4h-4zM176 244h4v4h-4zM180 244h4v4h-4zM184 244h4v4h-4zM188 244h4v4h-4zM192 244h4v4h-4zM196 244h4v4h-4zM200 244h4v4h-4zM204 244h4v4h-4zM208 244h4v4h-4zM212 244h4v4h-4zM216 244h4v4h-4zM220 244h4v4h-4z"/><path fill="#C8ABB7" d="M224 244h4v4h-4zM228 244h4v4h-4zM232 244h4v4h-4zM236 244h4v4h-4zM240 244h4v4h-4zM244 244h4v4h-4z"/><path fill="#A17E8A" d="M248 244h4v4h-4z"/><path fill="#7B5365" d="M104 248h4v4h-4z"/><path fill="#AB8886" d="M108 248h4v4h-4zM112 248h4v4h-4z"/><path fill="#A27B8E" d="M116 248h4v4h-4z"/><path fill="#C8ABB7" d="M120 248h4v4h-4zM124 248h4v4h-4zM128 248h4v4h-4zM132 248h4v4h-4zM136 248h4v4h-4zM140 248h4v4h-4z"/><path fill="#B796A0" d="M144 248h4v4h-4zM148 248h4v4h-4zM152 248h4v4h-4zM156 248h4v4h-4zM160 248h4v4h-4zM164 248h4v4h-4zM168 248h4v4h-4zM172 248h4v4h-4zM176 248h4v4h-4zM180 248h4v4h-4zM184 248h4v4h-4zM188 248h4v4h-4zM192 248h4v4h-4zM196 248h4v4h-4zM200 248h4v4h-4zM204 248h4v4h-4zM208 248h4v4h-4zM212 248h4v4h-4zM216 248h4v4h-4zM220 248h4v4h-4z"/><path fill="#C8ABB7" d="M224 248h4v4h-4zM228 248h4v4h-4zM232 248h4v4h-4zM236 248h4v4h-4zM240 248h4v4h-4zM244 248h4v4h-4z"/><path fill="#A17E8A" d="M248 248h4v4h-4z"/><path fill="#7B5365" d="M104 252h4v4h-4z"/><path fill="#AB8886" d="M108 252h4v4h-4zM112 252h4v4h-4zM116 252h4v4h-4z"/><path fill="#C8ABB7" d="M120 252h4v4h-4zM124 252h4v4h-4zM128 252h4v4h-4zM132 252h4v4h-4zM136 252h4v4h-4zM140 252h4v4h-4z"/><path fill="#B796A0" d="M144 252h4v4h-4zM148 252h4v4h-4zM152 252h4v4h-4zM156 252h4v4h-4zM160 252h4v4h-4zM164 252h4v4h-4zM168 252h4v4h-4zM172 252h4v4h-4zM176 252h4v4h-4zM180 252h4v4h-4zM184 252h4v4h-4zM188 252h4v4h-4zM192 252h4v4h-4zM196 252h4v4h-4zM200 252h4v4h-4zM204 252h4v4h-4zM208 252h4v4h-4zM212 252h4v4h-4zM216 252h4v4h-4zM220 252h4v4h-4zM224 252h4v4h-4z"/><path fill="#C8ABB7" d="M228 252h4v4h-4zM232 252h4v4h-4zM236 252h4v4h-4zM240 252h4v4h-4z"/><path fill="#A17E8A" d="M244 252h4v4h-4z"/><path fill="#7B5365" d="M108 256h4v4h-4z"/><path fill="#AB8886" d="M112 256h4v4h-4z"/><path fill="#D1BCB9" d="M116 256h4v4h-4zM120 256h4v4h-4zM124 256h4v4h-4z"/><path fill="#C8ABB7" d="M128 256h4v4h-4zM132 256h4v4h-4zM136 256h4v4h-4zM140 256h4v4h-4z"/><path fill="#B796A0" d="M144 256h4v4h-4zM148 256h4v4h-4zM152 256h4v4h-4z"/><path fill="#C8ABB7" d="M156 256h4v4h-4zM160 256h4v4h-4z"/><path fill="#B796A0" d="M164 256h4v4h-4zM168 256h4v4h-4zM172 256h4v4h-4zM176 256h4v4h-4zM180 256h4v4h-4zM184 256h4v4h-4zM188 256h4v4h-4zM192 256h4v4h-4zM196 256h4v4h-4zM200 256h4v4h-4zM204 256h4v4h-4zM208 256h4v4h-4zM212 256h4v4h-4zM216 256h4v4h-4zM220 256h4v4h-4zM224 256h4v4h-4zM228 256h4v4h-4z"/><path fill="#A17E8A" d="M232 256h4v4h-4zM236 256h4v4h-4zM240 256h4v4h-4zM112 260h4v4h-4z"/><path fill="#D1BCB9" d="M116 260h4v4h-4zM120 260h4v4h-4zM124 260h4v4h-4zM128 260h4v4h-4z"/><path fill="#C8ABB7" d="M132 260h4v4h-4zM136 260h4v4h-4zM140 260h4v4h-4z"/><path fill="#B796A0" d="M144 260h4v4h-4z"/><path fill="#C8ABB7" d="M148 260h4v4h-4zM152 260h4v4h-4zM156 260h4v4h-4zM160 260h4v4h-4z"/><path fill="#B796A0" d="M164 260h4v4h-4zM168 260h4v4h-4zM172 260h4v4h-4zM176 260h4v4h-4zM180 260h4v4h-4zM184 260h4v4h-4zM188 260h4v4h-4zM192 260h4v4h-4zM196 260h4v4h-4zM200 260h4v4h-4zM204 260h4v4h-4zM208 260h4v4h-4zM212 260h4v4h-4zM216 260h4v4h-4zM220 260h4v4h-4zM224 260h4v4h-4z"/><path fill="#A17E8A" d="M228 260h4v4h-4zM116 264h4v4h-4zM120 264h4v4h-4z"/><path fill="#D1BCB9" d="M124 264h4v4h-4zM128 264h4v4h-4zM132 264h4v4h-4zM136 264h4v4h-4z"/><path fill="#B796A0" d="M140 264h4v4h-4z"/><path fill="#C8ABB7" d="M144 264h4v4h-4zM148 264h4v4h-4zM152 264h4v4h-4zM156 264h4v4h-4zM160 264h4v4h-4z"/><path fill="#B796A0" d="M164 264h4v4h-4zM168 264h4v4h-4zM172 264h4v4h-4zM176 264h4v4h-4zM180 264h4v4h-4zM184 264h4v4h-4zM188 264h4v4h-4zM192 264h4v4h-4zM196 264h4v4h-4zM200 264h4v4h-4zM204 264h4v4h-4zM208 264h4v4h-4zM212 264h4v4h-4zM216 264h4v4h-4zM220 264h4v4h-4zM224 264h4v4h-4z"/><path fill="#A17E8A" d="M124 268h4v4h-4z"/><path fill="#D1BCB9" d="M128 268h4v4h-4zM132 268h4v4h-4zM136 268h4v4h-4zM140 268h4v4h-4z"/><path fill="#C8ABB7" d="M144 268h4v4h-4zM148 268h4v4h-4zM152 268h4v4h-4zM156 268h4v4h-4zM160 268h4v4h-4z"/><path fill="#B796A0" d="M164 268h4v4h-4zM168 268h4v4h-4zM172 268h4v4h-4zM176 268h4v4h-4zM180 268h4v4h-4zM184 268h4v4h-4zM188 268h4v4h-4zM192 268h4v4h-4zM196 268h4v4h-4zM200 268h4v4h-4zM204 268h4v4h-4zM208 268h4v4h-4zM212 268h4v4h-4zM216 268h4v4h-4zM220 268h4v4h-4z"/><path fill="#A17E8A" d="M224 268h4v4h-4zM128 272h4v4h-4z"/><path fill="#D1BCB9" d="M132 272h4v4h-4zM136 272h4v4h-4zM140 272h4v4h-4zM144 272h4v4h-4z"/><path fill="#C8ABB7" d="M148 272h4v4h-4zM152 272h4v4h-4zM156 272h4v4h-4zM160 272h4v4h-4z"/><path fill="#B796A0" d="M164 272h4v4h-4zM168 272h4v4h-4zM172 272h4v4h-4zM176 272h4v4h-4zM180 272h4v4h-4z"/><path fill="#C8ABB7" d="M184 272h4v4h-4z"/><path fill="#B796A0" d="M188 272h4v4h-4zM192 272h4v4h-4z"/><path fill="#A17E8A" d="M196 272h4v4h-4z"/><path fill="#B796A0" d="M200 272h4v4h-4zM204 272h4v4h-4zM208 272h4v4h-4zM212 272h4v4h-4zM216 272h4v4h-4z"/><path fill="#A17E8A" d="M220 272h4v4h-4zM132 276h4v4h-4zM136 276h4v4h-4z"/><path fill="#D1BCB9" d="M140 276h4v4h-4zM144 276h4v4h-4zM148 276h4v4h-4z"/><path fill="#C8ABB7" d="M152 276h4v4h-4zM156 276h4v4h-4z"/><path fill="#B796A0" d="M160 276h4v4h-4zM164 276h4v4h-4zM168 276h4v4h-4zM172 276h4v4h-4zM176 276h4v4h-4z"/><path fill="#A17E8A" d="M180 276h4v4h-4zM184 276h4v4h-4zM188 276h4v4h-4zM192 276h4v4h-4zM200 276h4v4h-4z"/><path fill="#DABFCD" d="M204 276h4v4h-4z"/><path fill="#B796A0" d="M208 276h4v4h-4zM212 276h4v4h-4z"/><path fill="#A17E8A" d="M216 276h4v4h-4zM140 280h4v4h-4z"/><path fill="#D1BCB9" d="M144 280h4v4h-4zM148 280h4v4h-4zM152 280h4v4h-4z"/><path fill="#C8ABB7" d="M156 280h4v4h-4z"/><path fill="#B796A0" d="M160 280h4v4h-4zM164 280h4v4h-4zM168 280h4v4h-4zM172 280h4v4h-4z"/><path fill="#A17E8A" d="M176 280h4v4h-4zM204 280h4v4h-4zM208 280h4v4h-4zM212 280h4v4h-4zM144 284h4v4h-4z"/><path fill="#D1BCB9" d="M148 284h4v4h-4zM152 284h4v4h-4z"/><path fill="#C8ABB7" d="M156 284h4v4h-4zM160 284h4v4h-4z"/><path fill="#B796A0" d="M164 284h4v4h-4zM168 284h4v4h-4z"/><path fill="#A17E8A" d="M172 284h4v4h-4zM148 288h4v4h-4zM152 288h4v4h-4zM156 288h4v4h-4zM160 288h4v4h-4zM164 288h4v4h-4zM168 288h4v4h-4z"/></svg>