<svg width="384" height="384" xmlns="http://www.w3.org/2000/svg" shape-rendering="crispEdges"><path fill="#87A1FF" d="M52 48h4v4h-4zM56 48h4v4h-4zM60 48h4v4h-4zM64 48h4v4h-4zM48 52h4v4h-4z"/><path fill="#C58BFF" d="M52 52h4v4h-4z"/><path fill="#A8D7FF" d="M56 52h4v4h-4zM60 52h4v4h-4zM64 52h4v4h-4z"/><path fill="#87A1FF" d="M68 52h4v4h-4zM44 56h4v4h-4z"/><path fill="#C58BFF" d="M48 56h4v4h-4zM52 56h4v4h-4zM56 56h4v4h-4z"/><path fill="#A8D7FF" d="M60 56h4v4h-4z"/><path fill="#8CFFFF" d="M64 56h4v4h-4z"/><path fill="#A8D7FF" d="M68 56h4v4h-4z"/><path fill="#87A1FF" d="M72 56h4v4h-4zM44 60h4v4h-4z"/><path fill="#C58BFF" d="M48 60h4v4h-4zM52 60h4v4h-4zM56 60h4v4h-4z"/><path fill="#A8D7FF" d="M60 60h4v4h-4z"/><path fill="#8CFFFF" d="M64 60h4v4h-4z"/><path fill="#DCFFFF" d="M68 60h4v4h-4z"/><path fill="#A8D7FF" d="M72 60h4v4h-4z"/><path fill="#87A1FF" d="M76 60h4v4h-4zM80 60h4v4h-4zM84 60h4v4h-4zM88 60h4v4h-4zM92 60h4v4h-4zM96 60h4v4h-4zM44 64h4v4h-4z"/><path fill="#8CFFFF" d="M48 64h4v4h-4z"/><path fill="#C58BFF" d="M52 64h4v4h-4zM56 64h4v4h-4zM60 64h4v4h-4z"/><path fill="#A8D7FF" d="M64 64h4v4h-4z"/><path fill="#8CFFFF" d="M68 64h4v4h-4z"/><path fill="#A8D7FF" d="M72 64h4v4h-4z"/><path fill="#C58BFF" d="M76 64h4v4h-4zM80 64h4v4h-4z"/><path fill="#A8D7FF" d="M84 64h4v4h-4zM88 64h4v4h-4zM92 64h4v4h-4zM96 64h4v4h-4z"/><path fill="#87A1FF" d="M100 64h4v4h-4zM44 68h4v4h-4z"/><path fill="#DCFFFF" d="M48 68h4v4h-4z"/><path fill="#C58BFF" d="M52 68h4v4h-4zM56 68h4v4h-4z"/><path fill="#956DE0" d="M60 68h4v4h-4z"/><path fill="#A8D7FF" d="M64 68h4v4h-4zM68 68h4v4h-4zM72 68h4v4h-4z"/><path fill="#C58BFF" d="M76 68h4v4h-4z"/><path fill="#8CFFFF" d="M80 68h4v4h-4z"/><path fill="#C58BFF" d="M84 68h4v4h-4z"/><path fill="#A8D7FF" d="M88 68h4v4h-4z"/><path fill="#8CFFFF" d="M92 68h4v4h-4z"/><path fill="#A8D7FF" d="M96 68h4v4h-4zM100 68h4v4h-4z"/><path fill="#87A1FF" d="M104 68h4v4h-4zM44 72h4v4h-4z"/><path fill="#DCFFFF" d="M48 72h4v4h-4z"/><path fill="#8CFFFF" d="M52 72h4v4h-4z"/><path fill="#956DE0" d="M56 72h4v4h-4zM60 72h4v4h-4z"/><path fill="#C58BFF" d="M64 72h4v4h-4z"/><path fill="#A8D7FF" d="M68 72h4v4h-4z"/><path fill="#956DE0" d="M72 72h4v4h-4z"/><path fill="#C58BFF" d="M76 72h4v4h-4z"/><path fill="#DCFFFF" d="M80 72h4v4h-4z"/><path fill="#C58BFF" d="M84 72h4v4h-4z"/><path fill="#A8D7FF" d="M88 72h4v4h-4z"/><path fill="#8CFFFF" d="M92 72h4v4h-4z"/><path fill="#DCFFFF" d="M96 72h4v4h-4z"/><path fill="#A8D7FF" d="M100 72h4v4h-4z"/><path fill="#87A1FF" d="M104 72h4v4h-4zM44 76h4v4h-4z"/><path fill="#8CFFFF" d="M48 76h4v4h-4z"/><path fill="#DCFFFF" d="M52 76h4v4h-4z"/><path fill="#8CFFFF" d="M56 76h4v4h-4z"/><path fill="#956DE0" d="M60 76h4v4h-4zM64 76h4v4h-4zM68 76h4v4h-4zM72 76h4v4h-4zM76 76h4v4h-4z"/><path fill="#DCFFFF" d="M80 76h4v4h-4z"/><path fill="#C58BFF" d="M84 76h4v4h-4z"/><path fill="#A8D7FF" d="M88 76h4v4h-4z"/><path fill="#8CFFFF" d="M92 76h4v4h-4z"/><path fill="#DCFFFF" d="M96 76h4v4h-4z"/><path fill="#8CFFFF" d="M100 76h4v4h-4z"/><path fill="#A8D7FF" d="M104 76h4v4h-4z"/><path fill="#87A1FF" d="M108 76h4v4h-4zM44 80h4v4h-4z"/><path fill="#C58BFF" d="M48 80h4v4h-4z"/><path fill="#DCFFFF" d="M52 80h4v4h-4zM56 80h4v4h-4z"/><path fill="#8CFFFF" d="M60 80h4v4h-4z"/><path fill="#956DE0" d="M64 80h4v4h-4zM68 80h4v4h-4zM72 80h4v4h-4zM76 80h4v4h-4z"/><path fill="#DCFFFF" d="M80 80h4v4h-4z"/><path fill="#C58BFF" d="M84 80h4v4h-4z"/><path fill="#A8D7FF" d="M88 80h4v4h-4z"/><path fill="#8CFFFF" d="M92 80h4v4h-4zM96 80h4v4h-4zM100 80h4v4h-4z"/><path fill="#A8D7FF" d="M104 80h4v4h-4z"/><path fill="#87A1FF" d="M108 80h4v4h-4zM48 84h4v4h-4z"/><path fill="#8CFFFF" d="M52 84h4v4h-4z"/><path fill="#DCFFFF" d="M56 84h4v4h-4zM60 84h4v4h-4zM64 84h4v4h-4z"/><path fill="#956DE0" d="M68 84h4v4h-4zM72 84h4v4h-4z"/><path fill="#8CFFFF" d="M76 84h4v4h-4z"/><path fill="#DCFFFF" d="M80 84h4v4h-4z"/><path fill="#C58BFF" d="M84 84h4v4h-4z"/><path fill="#A8D7FF" d="M88 84h4v4h-4zM92 84h4v4h-4z"/><path fill="#8CFFFF" d="M96 84h4v4h-4zM100 84h4v4h-4z"/><path fill="#A8D7FF" d="M104 84h4v4h-4zM108 84h4v4h-4z"/><path fill="#87A1FF" d="M112 84h4v4h-4zM44 88h4v4h-4z"/><path fill="#8CFFFF" d="M48 88h4v4h-4z"/><path fill="#956DE0" d="M52 88h4v4h-4zM56 88h4v4h-4zM60 88h4v4h-4zM64 88h4v4h-4zM68 88h4v4h-4z"/><path fill="#8CFFFF" d="M72 88h4v4h-4z"/><path fill="#DCFFFF" d="M76 88h4v4h-4z"/><path fill="#8CFFFF" d="M80 88h4v4h-4z"/><path fill="#956DE0" d="M84 88h4v4h-4z"/><path fill="#A8D7FF" d="M88 88h4v4h-4z"/><path fill="#956DE0" d="M92 88h4v4h-4z"/><path fill="#A8D7FF" d="M96 88h4v4h-4z"/><path fill="#8CFFFF" d="M100 88h4v4h-4z"/><path fill="#A8D7FF" d="M104 88h4v4h-4zM108 88h4v4h-4z"/><path fill="#C58BFF" d="M112 88h4v4h-4z"/><path fill="#87A1FF" d="M116 88h4v4h-4zM120 88h4v4h-4zM124 88h4v4h-4zM40 92h4v4h-4z"/><path fill="#8CFFFF" d="M44 92h4v4h-4z"/><path fill="#DCFFFF" d="M48 92h4v4h-4zM52 92h4v4h-4zM56 92h4v4h-4zM60 92h4v4h-4zM64 92h4v4h-4zM68 92h4v4h-4zM72 92h4v4h-4z"/><path fill="#8CFFFF" d="M76 92h4v4h-4z"/><path fill="#956DE0" d="M80 92h4v4h-4z"/><path fill="#A8D7FF" d="M84 92h4v4h-4z"/><path fill="#956DE0" d="M88 92h4v4h-4zM92 92h4v4h-4zM96 92h4v4h-4z"/><path fill="#A8D7FF" d="M100 92h4v4h-4zM104 92h4v4h-4z"/><path fill="#956DE0" d="M108 92h4v4h-4zM112 92h4v4h-4z"/><path fill="#8CFFFF" d="M116 92h4v4h-4z"/><path fill="#C58BFF" d="M120 92h4v4h-4z"/><path fill="#A8D7FF" d="M124 92h4v4h-4z"/><path fill="#87A1FF" d="M128 92h4v4h-4zM132 92h4v4h-4zM136 92h4v4h-4zM40 96h4v4h-4z"/><path fill="#C58BFF" d="M44 96h4v4h-4z"/><path fill="#8CFFFF" d="M48 96h4v4h-4z"/><path fill="#DCFFFF" d="M52 96h4v4h-4zM56 96h4v4h-4zM60 96h4v4h-4zM64 96h4v4h-4zM68 96h4v4h-4z"/><path fill="#8CFFFF" d="M72 96h4v4h-4z"/><path fill="#956DE0" d="M76 96h4v4h-4z"/><path fill="#A8D7FF" d="M80 96h4v4h-4z"/><path fill="#956DE0" d="M84 96h4v4h-4zM88 96h4v4h-4z"/><path fill="#A8D7FF" d="M92 96h4v4h-4z"/><path fill="#956DE0" d="M96 96h4v4h-4zM100 96h4v4h-4zM104 96h4v4h-4zM108 96h4v4h-4zM112 96h4v4h-4z"/><path fill="#DCFFFF" d="M116 96h4v4h-4z"/><path fill="#C58BFF" d="M120 96h4v4h-4z"/><path fill="#A8D7FF" d="M124 96h4v4h-4zM128 96h4v4h-4zM132 96h4v4h-4zM136 96h4v4h-4z"/><path fill="#87A1FF" d="M140 96h4v4h-4zM144 96h4v4h-4zM40 100h4v4h-4z"/><path fill="#A8D7FF" d="M44 100h4v4h-4z"/><path fill="#C58BFF" d="M48 100h4v4h-4zM52 100h4v4h-4zM56 100h4v4h-4z"/><path fill="#956DE0" d="M60 100h4v4h-4zM64 100h4v4h-4zM68 100h4v4h-4zM72 100h4v4h-4zM76 100h4v4h-4zM80 100h4v4h-4zM84 100h4v4h-4z"/><path fill="#A8D7FF" d="M88 100h4v4h-4z"/><path fill="#8CFFFF" d="M92 100h4v4h-4z"/><path fill="#A8D7FF" d="M96 100h4v4h-4zM100 100h4v4h-4z"/><path fill="#956DE0" d="M104 100h4v4h-4zM108 100h4v4h-4z"/><path fill="#8CFFFF" d="M112 100h4v4h-4z"/><path fill="#DCFFFF" d="M116 100h4v4h-4z"/><path fill="#C58BFF" d="M120 100h4v4h-4z"/><path fill="#A8D7FF" d="M124 100h4v4h-4zM128 100h4v4h-4z"/><path fill="#8CFFFF" d="M132 100h4v4h-4z"/><path fill="#A8D7FF" d="M136 100h4v4h-4zM140 100h4v4h-4z"/><path fill="#C58BFF" d="M144 100h4v4h-4z"/><path fill="#87A1FF" d="M148 100h4v4h-4zM40 104h4v4h-4z"/><path fill="#A8D7FF" d="M44 104h4v4h-4zM48 104h4v4h-4zM52 104h4v4h-4zM56 104h4v4h-4z"/><path fill="#956DE0" d="M60 104h4v4h-4z"/><path fill="#8CFFFF" d="M64 104h4v4h-4z"/><path fill="#DCFFFF" d="M68 104h4v4h-4zM72 104h4v4h-4z"/><path fill="#8CFFFF" d="M76 104h4v4h-4z"/><path fill="#956DE0" d="M80 104h4v4h-4zM84 104h4v4h-4z"/><path fill="#A8D7FF" d="M88 104h4v4h-4z"/><path fill="#8CFFFF" d="M92 104h4v4h-4zM96 104h4v4h-4zM100 104h4v4h-4z"/><path fill="#A8D7FF" d="M104 104h4v4h-4z"/><path fill="#956DE0" d="M108 104h4v4h-4z"/><path fill="#DCFFFF" d="M112 104h4v4h-4z"/><path fill="#C58BFF" d="M116 104h4v4h-4zM120 104h4v4h-4z"/><path fill="#A8D7FF" d="M124 104h4v4h-4zM128 104h4v4h-4z"/><path fill="#DCFFFF" d="M132 104h4v4h-4z"/><path fill="#8CFFFF" d="M136 104h4v4h-4z"/><path fill="#A8D7FF" d="M140 104h4v4h-4zM144 104h4v4h-4z"/><path fill="#C58BFF" d="M148 104h4v4h-4z"/><path fill="#87A1FF" d="M152 104h4v4h-4zM40 108h4v4h-4z"/><path fill="#A8D7FF" d="M44 108h4v4h-4z"/><path fill="#C58BFF" d="M48 108h4v4h-4zM52 108h4v4h-4z"/><path fill="#8CFFFF" d="M56 108h4v4h-4z"/><path fill="#DCFFFF" d="M60 108h4v4h-4zM64 108h4v4h-4z"/><path fill="#8CFFFF" d="M68 108h4v4h-4z"/><path fill="#956DE0" d="M72 108h4v4h-4zM76 108h4v4h-4zM80 108h4v4h-4zM84 108h4v4h-4zM88 108h4v4h-4z"/><path fill="#A8D7FF" d="M92 108h4v4h-4z"/><path fill="#8CFFFF" d="M96 108h4v4h-4zM100 108h4v4h-4z"/><path fill="#A8D7FF" d="M104 108h4v4h-4z"/><path fill="#956DE0" d="M108 108h4v4h-4z"/><path fill="#DCFFFF" d="M112 108h4v4h-4z"/><path fill="#C58BFF" d="M116 108h4v4h-4z"/><path fill="#A8D7FF" d="M120 108h4v4h-4zM124 108h4v4h-4z"/><path fill="#8CFFFF" d="M128 108h4v4h-4z"/><path fill="#DCFFFF" d="M132 108h4v4h-4zM136 108h4v4h-4z"/><path fill="#8CFFFF" d="M140 108h4v4h-4z"/><path fill="#A8D7FF" d="M144 108h4v4h-4zM148 108h4v4h-4z"/><path fill="#C58BFF" d="M152 108h4v4h-4z"/><path fill="#87A1FF" d="M156 108h4v4h-4zM40 112h4v4h-4z"/><path fill="#A8D7FF" d="M44 112h4v4h-4z"/><path fill="#C58BFF" d="M48 112h4v4h-4z"/><path fill="#956DE0" d="M52 112h4v4h-4z"/><path fill="#DCFFFF" d="M56 112h4v4h-4zM60 112h4v4h-4z"/><path fill="#8CFFFF" d="M64 112h4v4h-4z"/><path fill="#956DE0" d="M68 112h4v4h-4zM72 112h4v4h-4zM76 112h4v4h-4zM80 112h4v4h-4zM84 112h4v4h-4zM88 112h4v4h-4zM92 112h4v4h-4z"/><path fill="#A8D7FF" d="M96 112h4v4h-4zM100 112h4v4h-4z"/><path fill="#956DE0" d="M104 112h4v4h-4z"/><path fill="#8CFFFF" d="M108 112h4v4h-4z"/><path fill="#DCFFFF" d="M112 112h4v4h-4z"/><path fill="#956DE0" d="M116 112h4v4h-4z"/><path fill="#A8D7FF" d="M120 112h4v4h-4zM124 112h4v4h-4z"/><path fill="#8CFFFF" d="M128 112h4v4h-4zM132 112h4v4h-4z"/><path fill="#DCFFFF" d="M136 112h4v4h-4z"/><path fill="#8CFFFF" d="M140 112h4v4h-4zM144 112h4v4h-4z"/><path fill="#A8D7FF" d="M148 112h4v4h-4z"/><path fill="#C58BFF" d="M152 112h4v4h-4zM156 112h4v4h-4z"/><path fill="#87A1FF" d="M160 112h4v4h-4zM164 112h4v4h-4zM168 112h4v4h-4zM40 116h4v4h-4z"/><path fill="#A8D7FF" d="M44 116h4v4h-4z"/><path fill="#C58BFF" d="M48 116h4v4h-4z"/><path fill="#956DE0" d="M52 116h4v4h-4z"/><path fill="#DCFFFF" d="M56 116h4v4h-4zM60 116h4v4h-4z"/><path fill="#8CFFFF" d="M64 116h4v4h-4z"/><path fill="#956DE0" d="M68 116h4v4h-4zM72 116h4v4h-4zM76 116h4v4h-4zM80 116h4v4h-4z"/><path fill="#A8D7FF" d="M84 116h4v4h-4zM88 116h4v4h-4zM92 116h4v4h-4zM96 116h4v4h-4z"/><path fill="#956DE0" d="M100 116h4v4h-4zM104 116h4v4h-4z"/><path fill="#DCFFFF" d="M108 116h4v4h-4z"/><path fill="#956DE0" d="M112 116h4v4h-4zM116 116h4v4h-4z"/><path fill="#A8D7FF" d="M120 116h4v4h-4z"/><path fill="#8CFFFF" d="M124 116h4v4h-4z"/><path fill="#A8D7FF" d="M128 116h4v4h-4z"/><path fill="#8CFFFF" d="M132 116h4v4h-4zM136 116h4v4h-4zM140 116h4v4h-4zM144 116h4v4h-4z"/><path fill="#A8D7FF" d="M148 116h4v4h-4z"/><path fill="#C58BFF" d="M152 116h4v4h-4zM156 116h4v4h-4z"/><path fill="#8CFFFF" d="M160 116h4v4h-4z"/><path fill="#C58BFF" d="M164 116h4v4h-4z"/><path fill="#A8D7FF" d="M168 116h4v4h-4z"/><path fill="#87A1FF" d="M172 116h4v4h-4zM176 116h4v4h-4zM180 116h4v4h-4zM40 120h4v4h-4z"/><path fill="#C58BFF" d="M44 120h4v4h-4z"/><path fill="#A8D7FF" d="M48 120h4v4h-4z"/><path fill="#956DE0" d="M52 120h4v4h-4z"/><path fill="#DCFFFF" d="M56 120h4v4h-4zM60 120h4v4h-4zM64 120h4v4h-4z"/><path fill="#8CFFFF" d="M68 120h4v4h-4z"/><path fill="#956DE0" d="M72 120h4v4h-4zM76 120h4v4h-4z"/><path fill="#C58BFF" d="M80 120h4v4h-4z"/><path fill="#A8D7FF" d="M84 120h4v4h-4zM88 120h4v4h-4zM92 120h4v4h-4z"/><path fill="#956DE0" d="M96 120h4v4h-4zM100 120h4v4h-4z"/><path fill="#8CFFFF" d="M104 120h4v4h-4z"/><path fill="#DCFFFF" d="M108 120h4v4h-4z"/><path fill="#956DE0" d="M112 120h4v4h-4z"/><path fill="#A8D7FF" d="M116 120h4v4h-4zM120 120h4v4h-4zM124 120h4v4h-4zM128 120h4v4h-4zM132 120h4v4h-4z"/><path fill="#8CFFFF" d="M136 120h4v4h-4zM140 120h4v4h-4zM144 120h4v4h-4z"/><path fill="#A8D7FF" d="M148 120h4v4h-4z"/><path fill="#C58BFF" d="M152 120h4v4h-4zM156 120h4v4h-4z"/><path fill="#DCFFFF" d="M160 120h4v4h-4z"/><path fill="#C58BFF" d="M164 120h4v4h-4z"/><path fill="#A8D7FF" d="M168 120h4v4h-4zM172 120h4v4h-4zM176 120h4v4h-4zM180 120h4v4h-4z"/><path fill="#87A1FF" d="M184 120h4v4h-4zM188 120h4v4h-4zM44 124h4v4h-4z"/><path fill="#C58BFF" d="M48 124h4v4h-4z"/><path fill="#956DE0" d="M52 124h4v4h-4z"/><path fill="#8CFFFF" d="M56 124h4v4h-4z"/><path fill="#DCFFFF" d="M60 124h4v4h-4zM64 124h4v4h-4zM68 124h4v4h-4z"/><path fill="#8CFFFF" d="M72 124h4v4h-4z"/><path fill="#956DE0" d="M76 124h4v4h-4zM80 124h4v4h-4z"/><path fill="#C58BFF" d="M84 124h4v4h-4z"/><path fill="#A8D7FF" d="M88 124h4v4h-4z"/><path fill="#956DE0" d="M92 124h4v4h-4z"/><path fill="#8CFFFF" d="M96 124h4v4h-4zM100 124h4v4h-4z"/><path fill="#DCFFFF" d="M104 124h4v4h-4z"/><path fill="#956DE0" d="M108 124h4v4h-4z"/><path fill="#A8D7FF" d="M112 124h4v4h-4zM116 124h4v4h-4zM120 124h4v4h-4z"/><path fill="#956DE0" d="M124 124h4v4h-4zM128 124h4v4h-4z"/><path fill="#A8D7FF" d="M132 124h4v4h-4zM136 124h4v4h-4zM140 124h4v4h-4z"/><path fill="#8CFFFF" d="M144 124h4v4h-4z"/><path fill="#A8D7FF" d="M148 124h4v4h-4z"/><path fill="#956DE0" d="M152 124h4v4h-4z"/><path fill="#C58BFF" d="M156 124h4v4h-4z"/><path fill="#DCFFFF" d="M160 124h4v4h-4z"/><path fill="#C58BFF" d="M164 124h4v4h-4z"/><path fill="#A8D7FF" d="M168 124h4v4h-4zM172 124h4v4h-4z"/><path fill="#8CFFFF" d="M176 124h4v4h-4z"/><path fill="#A8D7FF" d="M180 124h4v4h-4zM184 124h4v4h-4zM188 124h4v4h-4z"/><path fill="#87A1FF" d="M192 124h4v4h-4zM48 128h4v4h-4z"/><path fill="#8CFFFF" d="M52 128h4v4h-4z"/><path fill="#956DE0" d="M56 128h4v4h-4zM60 128h4v4h-4z"/><path fill="#8CFFFF" d="M64 128h4v4h-4z"/><path fill="#DCFFFF" d="M68 128h4v4h-4zM72 128h4v4h-4z"/><path fill="#8CFFFF" d="M76 128h4v4h-4z"/><path fill="#956DE0" d="M80 128h4v4h-4zM84 128h4v4h-4zM88 128h4v4h-4z"/><path fill="#8CFFFF" d="M92 128h4v4h-4z"/><path fill="#DCFFFF" d="M96 128h4v4h-4z"/><path fill="#956DE0" d="M100 128h4v4h-4zM104 128h4v4h-4z"/><path fill="#A8D7FF" d="M108 128h4v4h-4zM112 128h4v4h-4zM116 128h4v4h-4z"/><path fill="#956DE0" d="M120 128h4v4h-4zM124 128h4v4h-4zM128 128h4v4h-4zM132 128h4v4h-4zM136 128h4v4h-4z"/><path fill="#A8D7FF" d="M140 128h4v4h-4zM144 128h4v4h-4zM148 128h4v4h-4z"/><path fill="#956DE0" d="M152 128h4v4h-4z"/><path fill="#C58BFF" d="M156 128h4v4h-4z"/><path fill="#DCFFFF" d="M160 128h4v4h-4z"/><path fill="#C58BFF" d="M164 128h4v4h-4z"/><path fill="#A8D7FF" d="M168 128h4v4h-4zM172 128h4v4h-4z"/><path fill="#8CFFFF" d="M176 128h4v4h-4zM180 128h4v4h-4zM184 128h4v4h-4z"/><path fill="#A8D7FF" d="M188 128h4v4h-4zM192 128h4v4h-4z"/><path fill="#87A1FF" d="M196 128h4v4h-4zM48 132h4v4h-4z"/><path fill="#DCFFFF" d="M52 132h4v4h-4zM56 132h4v4h-4z"/><path fill="#8CFFFF" d="M60 132h4v4h-4z"/><path fill="#956DE0" d="M64 132h4v4h-4zM68 132h4v4h-4zM72 132h4v4h-4zM76 132h4v4h-4zM80 132h4v4h-4z"/><path fill="#8CFFFF" d="M84 132h4v4h-4z"/><path fill="#DCFFFF" d="M88 132h4v4h-4zM92 132h4v4h-4z"/><path fill="#956DE0" d="M96 132h4v4h-4zM100 132h4v4h-4z"/><path fill="#A8D7FF" d="M104 132h4v4h-4zM108 132h4v4h-4zM112 132h4v4h-4z"/><path fill="#956DE0" d="M116 132h4v4h-4zM120 132h4v4h-4z"/><path fill="#A8D7FF" d="M124 132h4v4h-4zM128 132h4v4h-4z"/><path fill="#956DE0" d="M132 132h4v4h-4zM136 132h4v4h-4zM140 132h4v4h-4z"/><path fill="#A8D7FF" d="M144 132h4v4h-4zM148 132h4v4h-4z"/><path fill="#956DE0" d="M152 132h4v4h-4z"/><path fill="#C58BFF" d="M156 132h4v4h-4z"/><path fill="#DCFFFF" d="M160 132h4v4h-4z"/><path fill="#C58BFF" d="M164 132h4v4h-4z"/><path fill="#A8D7FF" d="M168 132h4v4h-4zM172 132h4v4h-4z"/><path fill="#8CFFFF" d="M176 132h4v4h-4z"/><path fill="#DCFFFF" d="M180 132h4v4h-4zM184 132h4v4h-4z"/><path fill="#8CFFFF" d="M188 132h4v4h-4z"/><path fill="#A8D7FF" d="M192 132h4v4h-4zM196 132h4v4h-4z"/><path fill="#87A1FF" d="M200 132h4v4h-4zM44 136h4v4h-4z"/><path fill="#8CFFFF" d="M48 136h4v4h-4z"/><path fill="#DCFFFF" d="M52 136h4v4h-4zM56 136h4v4h-4zM60 136h4v4h-4zM64 136h4v4h-4zM68 136h4v4h-4zM72 136h4v4h-4zM76 136h4v4h-4zM80 136h4v4h-4zM84 136h4v4h-4z"/><path fill="#956DE0" d="M88 136h4v4h-4zM92 136h4v4h-4zM96 136h4v4h-4z"/><path fill="#A8D7FF" d="M100 136h4v4h-4zM104 136h4v4h-4zM108 136h4v4h-4z"/><path fill="#956DE0" d="M112 136h4v4h-4zM116 136h4v4h-4z"/><path fill="#A8D7FF" d="M120 136h4v4h-4z"/><path fill="#8CFFFF" d="M124 136h4v4h-4zM128 136h4v4h-4z"/><path fill="#A8D7FF" d="M132 136h4v4h-4zM136 136h4v4h-4z"/><path fill="#956DE0" d="M140 136h4v4h-4zM144 136h4v4h-4z"/><path fill="#A8D7FF" d="M148 136h4v4h-4z"/><path fill="#956DE0" d="M152 136h4v4h-4z"/><path fill="#8CFFFF" d="M156 136h4v4h-4z"/><path fill="#DCFFFF" d="M160 136h4v4h-4z"/><path fill="#956DE0" d="M164 136h4v4h-4z"/><path fill="#A8D7FF" d="M168 136h4v4h-4zM172 136h4v4h-4z"/><path fill="#8CFFFF" d="M176 136h4v4h-4z"/><path fill="#DCFFFF" d="M180 136h4v4h-4zM184 136h4v4h-4z"/><path fill="#8CFFFF" d="M188 136h4v4h-4zM192 136h4v4h-4z"/><path fill="#A8D7FF" d="M196 136h4v4h-4z"/><path fill="#C58BFF" d="M200 136h4v4h-4z"/><path fill="#87A1FF" d="M204 136h4v4h-4zM44 140h4v4h-4z"/><path fill="#C58BFF" d="M48 140h4v4h-4z"/><path fill="#8CFFFF" d="M52 140h4v4h-4z"/><path fill="#DCFFFF" d="M56 140h4v4h-4zM60 140h4v4h-4zM64 140h4v4h-4zM68 140h4v4h-4zM72 140h4v4h-4zM76 140h4v4h-4z"/><path fill="#956DE0" d="M80 140h4v4h-4zM84 140h4v4h-4zM88 140h4v4h-4zM92 140h4v4h-4z"/><path fill="#A8D7FF" d="M96 140h4v4h-4zM100 140h4v4h-4z"/><path fill="#956DE0" d="M104 140h4v4h-4zM108 140h4v4h-4zM112 140h4v4h-4z"/><path fill="#A8D7FF" d="M116 140h4v4h-4z"/><path fill="#8CFFFF" d="M120 140h4v4h-4zM124 140h4v4h-4zM128 140h4v4h-4zM132 140h4v4h-4z"/><path fill="#A8D7FF" d="M136 140h4v4h-4zM140 140h4v4h-4z"/><path fill="#956DE0" d="M144 140h4v4h-4zM148 140h4v4h-4zM152 140h4v4h-4z"/><path fill="#DCFFFF" d="M156 140h4v4h-4z"/><path fill="#956DE0" d="M160 140h4v4h-4zM164 140h4v4h-4z"/><path fill="#A8D7FF" d="M168 140h4v4h-4zM172 140h4v4h-4z"/><path fill="#8CFFFF" d="M176 140h4v4h-4z"/><path fill="#DCFFFF" d="M180 140h4v4h-4zM184 140h4v4h-4zM188 140h4v4h-4z"/><path fill="#8CFFFF" d="M192 140h4v4h-4z"/><path fill="#A8D7FF" d="M196 140h4v4h-4zM200 140h4v4h-4z"/><path fill="#C58BFF" d="M204 140h4v4h-4z"/><path fill="#87A1FF" d="M208 140h4v4h-4zM212 140h4v4h-4zM216 140h4v4h-4zM220 140h4v4h-4zM44 144h4v4h-4z"/><path fill="#A8D7FF" d="M48 144h4v4h-4z"/><path fill="#C58BFF" d="M52 144h4v4h-4zM56 144h4v4h-4zM60 144h4v4h-4zM64 144h4v4h-4zM68 144h4v4h-4z"/><path fill="#956DE0" d="M72 144h4v4h-4zM76 144h4v4h-4z"/><path fill="#DCFFFF" d="M80 144h4v4h-4z"/><path fill="#8CFFFF" d="M84 144h4v4h-4z"/><path fill="#A8D7FF" d="M88 144h4v4h-4zM92 144h4v4h-4z"/><path fill="#956DE0" d="M96 144h4v4h-4zM100 144h4v4h-4zM104 144h4v4h-4zM108 144h4v4h-4z"/><path fill="#A8D7FF" d="M112 144h4v4h-4z"/><path fill="#8CFFFF" d="M116 144h4v4h-4zM120 144h4v4h-4zM124 144h4v4h-4zM128 144h4v4h-4zM132 144h4v4h-4z"/><path fill="#A8D7FF" d="M136 144h4v4h-4zM140 144h4v4h-4zM144 144h4v4h-4z"/><path fill="#956DE0" d="M148 144h4v4h-4zM152 144h4v4h-4z"/><path fill="#DCFFFF" d="M156 144h4v4h-4z"/><path fill="#956DE0" d="M160 144h4v4h-4z"/><path fill="#A8D7FF" d="M164 144h4v4h-4zM168 144h4v4h-4z"/><path fill="#8CFFFF" d="M172 144h4v4h-4zM176 144h4v4h-4zM180 144h4v4h-4z"/><path fill="#DCFFFF" d="M184 144h4v4h-4zM188 144h4v4h-4z"/><path fill="#8CFFFF" d="M192 144h4v4h-4zM196 144h4v4h-4z"/><path fill="#A8D7FF" d="M200 144h4v4h-4z"/><path fill="#C58BFF" d="M204 144h4v4h-4z"/><path fill="#8CFFFF" d="M208 144h4v4h-4z"/><path fill="#C58BFF" d="M212 144h4v4h-4z"/><path fill="#A8D7FF" d="M216 144h4v4h-4zM220 144h4v4h-4z"/><path fill="#87A1FF" d="M224 144h4v4h-4zM228 144h4v4h-4zM44 148h4v4h-4z"/><path fill="#A8D7FF" d="M48 148h4v4h-4zM52 148h4v4h-4zM56 148h4v4h-4zM60 148h4v4h-4zM64 148h4v4h-4z"/><path fill="#956DE0" d="M68 148h4v4h-4z"/><path fill="#8CFFFF" d="M72 148h4v4h-4z"/><path fill="#DCFFFF" d="M76 148h4v4h-4z"/><path fill="#8CFFFF" d="M80 148h4v4h-4z"/><path fill="#956DE0" d="M84 148h4v4h-4zM88 148h4v4h-4zM92 148h4v4h-4zM96 148h4v4h-4zM100 148h4v4h-4zM104 148h4v4h-4zM108 148h4v4h-4z"/><path fill="#A8D7FF" d="M112 148h4v4h-4z"/><path fill="#8CFFFF" d="M116 148h4v4h-4zM120 148h4v4h-4zM124 148h4v4h-4zM128 148h4v4h-4zM132 148h4v4h-4z"/><path fill="#A8D7FF" d="M136 148h4v4h-4zM140 148h4v4h-4zM144 148h4v4h-4z"/><path fill="#956DE0" d="M148 148h4v4h-4zM152 148h4v4h-4z"/><path fill="#DCFFFF" d="M156 148h4v4h-4z"/><path fill="#956DE0" d="M160 148h4v4h-4z"/><path fill="#A8D7FF" d="M164 148h4v4h-4zM168 148h4v4h-4z"/><path fill="#8CFFFF" d="M172 148h4v4h-4zM176 148h4v4h-4zM180 148h4v4h-4zM184 148h4v4h-4zM188 148h4v4h-4zM192 148h4v4h-4zM196 148h4v4h-4z"/><path fill="#A8D7FF" d="M200 148h4v4h-4z"/><path fill="#C58BFF" d="M204 148h4v4h-4zM208 148h4v4h-4z"/><path fill="#DCFFFF" d="M212 148h4v4h-4z"/><path fill="#C58BFF" d="M216 148h4v4h-4z"/><path fill="#A8D7FF" d="M220 148h4v4h-4zM224 148h4v4h-4zM228 148h4v4h-4z"/><path fill="#87A1FF" d="M232 148h4v4h-4zM236 148h4v4h-4zM48 152h4v4h-4z"/><path fill="#A8D7FF" d="M52 152h4v4h-4z"/><path fill="#C58BFF" d="M56 152h4v4h-4z"/><path fill="#8CFFFF" d="M60 152h4v4h-4z"/><path fill="#DCFFFF" d="M64 152h4v4h-4zM68 152h4v4h-4zM72 152h4v4h-4z"/><path fill="#8CFFFF" d="M76 152h4v4h-4z"/><path fill="#956DE0" d="M80 152h4v4h-4zM84 152h4v4h-4zM88 152h4v4h-4zM92 152h4v4h-4zM96 152h4v4h-4zM100 152h4v4h-4zM104 152h4v4h-4zM108 152h4v4h-4zM112 152h4v4h-4z"/><path fill="#A8D7FF" d="M116 152h4v4h-4z"/><path fill="#8CFFFF" d="M120 152h4v4h-4zM124 152h4v4h-4zM128 152h4v4h-4zM132 152h4v4h-4z"/><path fill="#A8D7FF" d="M136 152h4v4h-4zM140 152h4v4h-4z"/><path fill="#956DE0" d="M144 152h4v4h-4zM148 152h4v4h-4z"/><path fill="#8CFFFF" d="M152 152h4v4h-4z"/><path fill="#DCFFFF" d="M156 152h4v4h-4z"/><path fill="#956DE0" d="M160 152h4v4h-4z"/><path fill="#A8D7FF" d="M164 152h4v4h-4zM168 152h4v4h-4zM172 152h4v4h-4zM176 152h4v4h-4z"/><path fill="#8CFFFF" d="M180 152h4v4h-4zM184 152h4v4h-4zM188 152h4v4h-4zM192 152h4v4h-4zM196 152h4v4h-4z"/><path fill="#A8D7FF" d="M200 152h4v4h-4zM204 152h4v4h-4z"/><path fill="#C58BFF" d="M208 152h4v4h-4z"/><path fill="#DCFFFF" d="M212 152h4v4h-4z"/><path fill="#C58BFF" d="M216 152h4v4h-4z"/><path fill="#A8D7FF" d="M220 152h4v4h-4z"/><path fill="#8CFFFF" d="M224 152h4v4h-4zM228 152h4v4h-4z"/><path fill="#A8D7FF" d="M232 152h4v4h-4zM236 152h4v4h-4z"/><path fill="#87A1FF" d="M240 152h4v4h-4zM244 152h4v4h-4zM48 156h4v4h-4z"/><path fill="#C58BFF" d="M52 156h4v4h-4z"/><path fill="#DCFFFF" d="M56 156h4v4h-4zM60 156h4v4h-4zM64 156h4v4h-4zM68 156h4v4h-4z"/><path fill="#8CFFFF" d="M72 156h4v4h-4z"/><path fill="#956DE0" d="M76 156h4v4h-4zM80 156h4v4h-4zM84 156h4v4h-4zM88 156h4v4h-4zM92 156h4v4h-4zM96 156h4v4h-4zM100 156h4v4h-4zM104 156h4v4h-4zM108 156h4v4h-4zM112 156h4v4h-4z"/><path fill="#A8D7FF" d="M116 156h4v4h-4zM120 156h4v4h-4z"/><path fill="#8CFFFF" d="M124 156h4v4h-4zM128 156h4v4h-4z"/><path fill="#A8D7FF" d="M132 156h4v4h-4zM136 156h4v4h-4zM140 156h4v4h-4z"/><path fill="#956DE0" d="M144 156h4v4h-4zM148 156h4v4h-4z"/><path fill="#DCFFFF" d="M152 156h4v4h-4z"/><path fill="#956DE0" d="M156 156h4v4h-4zM160 156h4v4h-4z"/><path fill="#A8D7FF" d="M164 156h4v4h-4z"/><path fill="#956DE0" d="M168 156h4v4h-4zM172 156h4v4h-4z"/><path fill="#A8D7FF" d="M176 156h4v4h-4zM180 156h4v4h-4zM184 156h4v4h-4z"/><path fill="#8CFFFF" d="M188 156h4v4h-4zM192 156h4v4h-4zM196 156h4v4h-4z"/><path fill="#A8D7FF" d="M200 156h4v4h-4zM204 156h4v4h-4z"/><path fill="#C58BFF" d="M208 156h4v4h-4z"/><path fill="#DCFFFF" d="M212 156h4v4h-4z"/><path fill="#C58BFF" d="M216 156h4v4h-4z"/><path fill="#A8D7FF" d="M220 156h4v4h-4zM224 156h4v4h-4z"/><path fill="#8CFFFF" d="M228 156h4v4h-4zM232 156h4v4h-4zM236 156h4v4h-4z"/><path fill="#A8D7FF" d="M240 156h4v4h-4zM244 156h4v4h-4z"/><path fill="#87A1FF" d="M248 156h4v4h-4zM48 160h4v4h-4z"/><path fill="#C58BFF" d="M52 160h4v4h-4z"/><path fill="#DCFFFF" d="M56 160h4v4h-4zM60 160h4v4h-4zM64 160h4v4h-4zM68 160h4v4h-4z"/><path fill="#956DE0" d="M72 160h4v4h-4zM76 160h4v4h-4zM80 160h4v4h-4zM84 160h4v4h-4zM88 160h4v4h-4zM92 160h4v4h-4zM96 160h4v4h-4zM100 160h4v4h-4zM104 160h4v4h-4zM108 160h4v4h-4zM112 160h4v4h-4zM116 160h4v4h-4z"/><path fill="#A8D7FF" d="M120 160h4v4h-4zM124 160h4v4h-4zM128 160h4v4h-4zM132 160h4v4h-4zM136 160h4v4h-4z"/><path fill="#956DE0" d="M140 160h4v4h-4zM144 160h4v4h-4z"/><path fill="#8CFFFF" d="M148 160h4v4h-4z"/><path fill="#DCFFFF" d="M152 160h4v4h-4z"/><path fill="#956DE0" d="M156 160h4v4h-4z"/><path fill="#A8D7FF" d="M160 160h4v4h-4zM164 160h4v4h-4z"/><path fill="#956DE0" d="M168 160h4v4h-4zM172 160h4v4h-4zM176 160h4v4h-4zM180 160h4v4h-4z"/><path fill="#A8D7FF" d="M184 160h4v4h-4zM188 160h4v4h-4zM192 160h4v4h-4z"/><path fill="#8CFFFF" d="M196 160h4v4h-4z"/><path fill="#A8D7FF" d="M200 160h4v4h-4zM204 160h4v4h-4z"/><path fill="#C58BFF" d="M208 160h4v4h-4z"/><path fill="#DCFFFF" d="M212 160h4v4h-4z"/><path fill="#C58BFF" d="M216 160h4v4h-4z"/><path fill="#A8D7FF" d="M220 160h4v4h-4zM224 160h4v4h-4z"/><path fill="#8CFFFF" d="M228 160h4v4h-4z"/><path fill="#DCFFFF" d="M232 160h4v4h-4zM236 160h4v4h-4z"/><path fill="#8CFFFF" d="M240 160h4v4h-4zM244 160h4v4h-4z"/><path fill="#A8D7FF" d="M248 160h4v4h-4z"/><path fill="#87A1FF" d="M252 160h4v4h-4zM48 164h4v4h-4z"/><path fill="#C58BFF" d="M52 164h4v4h-4z"/><path fill="#DCFFFF" d="M56 164h4v4h-4zM60 164h4v4h-4zM64 164h4v4h-4zM68 164h4v4h-4z"/><path fill="#956DE0" d="M72 164h4v4h-4zM76 164h4v4h-4zM80 164h4v4h-4z"/><path fill="#C58BFF" d="M84 164h4v4h-4z"/><path fill="#956DE0" d="M88 164h4v4h-4zM92 164h4v4h-4zM96 164h4v4h-4zM100 164h4v4h-4zM104 164h4v4h-4zM108 164h4v4h-4zM112 164h4v4h-4zM116 164h4v4h-4zM120 164h4v4h-4z"/><path fill="#A8D7FF" d="M124 164h4v4h-4zM128 164h4v4h-4zM132 164h4v4h-4z"/><path fill="#956DE0" d="M136 164h4v4h-4zM140 164h4v4h-4z"/><path fill="#8CFFFF" d="M144 164h4v4h-4z"/><path fill="#DCFFFF" d="M148 164h4v4h-4z"/><path fill="#956DE0" d="M152 164h4v4h-4zM156 164h4v4h-4z"/><path fill="#A8D7FF" d="M160 164h4v4h-4z"/><path fill="#8CFFFF" d="M164 164h4v4h-4z"/><path fill="#A8D7FF" d="M168 164h4v4h-4zM172 164h4v4h-4z"/><path fill="#956DE0" d="M176 164h4v4h-4zM180 164h4v4h-4zM184 164h4v4h-4zM188 164h4v4h-4z"/><path fill="#A8D7FF" d="M192 164h4v4h-4zM196 164h4v4h-4zM200 164h4v4h-4zM204 164h4v4h-4z"/><path fill="#956DE0" d="M208 164h4v4h-4z"/><path fill="#DCFFFF" d="M212 164h4v4h-4z"/><path fill="#956DE0" d="M216 164h4v4h-4z"/><path fill="#A8D7FF" d="M220 164h4v4h-4zM224 164h4v4h-4z"/><path fill="#8CFFFF" d="M228 164h4v4h-4z"/><path fill="#DCFFFF" d="M232 164h4v4h-4zM236 164h4v4h-4zM240 164h4v4h-4zM244 164h4v4h-4z"/><path fill="#8CFFFF" d="M248 164h4v4h-4z"/><path fill="#A8D7FF" d="M252 164h4v4h-4z"/><path fill="#87A1FF" d="M256 164h4v4h-4zM52 168h4v4h-4z"/><path fill="#8CFFFF" d="M56 168h4v4h-4z"/><path fill="#DCFFFF" d="M60 168h4v4h-4zM64 168h4v4h-4zM68 168h4v4h-4z"/><path fill="#8CFFFF" d="M72 168h4v4h-4z"/><path fill="#956DE0" d="M76 168h4v4h-4zM80 168h4v4h-4zM84 168h4v4h-4z"/><path fill="#A8D7FF" d="M88 168h4v4h-4z"/><path fill="#956DE0" d="M92 168h4v4h-4zM96 168h4v4h-4zM100 168h4v4h-4z"/><path fill="#8CFFFF" d="M104 168h4v4h-4z"/><path fill="#A8D7FF" d="M108 168h4v4h-4z"/><path fill="#956DE0" d="M112 168h4v4h-4zM116 168h4v4h-4z"/><path fill="#A8D7FF" d="M120 168h4v4h-4zM124 168h4v4h-4z"/><path fill="#C58BFF" d="M128 168h4v4h-4z"/><path fill="#956DE0" d="M132 168h4v4h-4zM136 168h4v4h-4z"/><path fill="#8CFFFF" d="M140 168h4v4h-4z"/><path fill="#DCFFFF" d="M144 168h4v4h-4z"/><path fill="#956DE0" d="M148 168h4v4h-4zM152 168h4v4h-4z"/><path fill="#A8D7FF" d="M156 168h4v4h-4z"/><path fill="#8CFFFF" d="M160 168h4v4h-4z"/><path fill="#DCFFFF" d="M164 168h4v4h-4z"/><path fill="#8CFFFF" d="M168 168h4v4h-4zM172 168h4v4h-4z"/><path fill="#A8D7FF" d="M176 168h4v4h-4zM180 168h4v4h-4z"/><path fill="#956DE0" d="M184 168h4v4h-4zM188 168h4v4h-4zM192 168h4v4h-4z"/><path fill="#A8D7FF" d="M196 168h4v4h-4zM200 168h4v4h-4zM204 168h4v4h-4z"/><path fill="#956DE0" d="M208 168h4v4h-4z"/><path fill="#DCFFFF" d="M212 168h4v4h-4z"/><path fill="#956DE0" d="M216 168h4v4h-4z"/><path fill="#A8D7FF" d="M220 168h4v4h-4zM224 168h4v4h-4z"/><path fill="#8CFFFF" d="M228 168h4v4h-4zM232 168h4v4h-4z"/><path fill="#DCFFFF" d="M236 168h4v4h-4zM240 168h4v4h-4zM244 168h4v4h-4z"/><path fill="#8CFFFF" d="M248 168h4v4h-4z"/><path fill="#A8D7FF" d="M252 168h4v4h-4zM256 168h4v4h-4z"/><path fill="#87A1FF" d="M260 168h4v4h-4zM52 172h4v4h-4z"/><path fill="#C58BFF" d="M56 172h4v4h-4z"/><path fill="#8CFFFF" d="M60 172h4v4h-4z"/><path fill="#DCFFFF" d="M64 172h4v4h-4zM68 172h4v4h-4zM72 172h4v4h-4z"/><path fill="#8CFFFF" d="M76 172h4v4h-4z"/><path fill="#956DE0" d="M80 172h4v4h-4zM84 172h4v4h-4zM88 172h4v4h-4z"/><path fill="#A8D7FF" d="M92 172h4v4h-4zM96 172h4v4h-4zM100 172h4v4h-4zM104 172h4v4h-4zM108 172h4v4h-4zM112 172h4v4h-4zM116 172h4v4h-4zM120 172h4v4h-4z"/><path fill="#C58BFF" d="M124 172h4v4h-4z"/><path fill="#956DE0" d="M128 172h4v4h-4zM132 172h4v4h-4z"/><path fill="#8CFFFF" d="M136 172h4v4h-4z"/><path fill="#DCFFFF" d="M140 172h4v4h-4z"/><path fill="#956DE0" d="M144 172h4v4h-4zM148 172h4v4h-4z"/><path fill="#A8D7FF" d="M152 172h4v4h-4z"/><path fill="#8CFFFF" d="M156 172h4v4h-4z"/><path fill="#DCFFFF" d="M160 172h4v4h-4zM164 172h4v4h-4z"/><path fill="#8CFFFF" d="M168 172h4v4h-4zM172 172h4v4h-4zM176 172h4v4h-4zM180 172h4v4h-4z"/><path fill="#A8D7FF" d="M184 172h4v4h-4z"/><path fill="#956DE0" d="M188 172h4v4h-4zM192 172h4v4h-4zM196 172h4v4h-4z"/><path fill="#A8D7FF" d="M200 172h4v4h-4zM204 172h4v4h-4z"/><path fill="#956DE0" d="M208 172h4v4h-4z"/><path fill="#DCFFFF" d="M212 172h4v4h-4z"/><path fill="#956DE0" d="M216 172h4v4h-4z"/><path fill="#A8D7FF" d="M220 172h4v4h-4zM224 172h4v4h-4z"/><path fill="#8CFFFF" d="M228 172h4v4h-4zM232 172h4v4h-4zM236 172h4v4h-4zM240 172h4v4h-4z"/><path fill="#DCFFFF" d="M244 172h4v4h-4z"/><path fill="#8CFFFF" d="M248 172h4v4h-4zM252 172h4v4h-4z"/><path fill="#A8D7FF" d="M256 172h4v4h-4zM260 172h4v4h-4z"/><path fill="#87A1FF" d="M264 172h4v4h-4zM56 176h4v4h-4z"/><path fill="#C58BFF" d="M60 176h4v4h-4z"/><path fill="#8CFFFF" d="M64 176h4v4h-4z"/><path fill="#DCFFFF" d="M68 176h4v4h-4zM72 176h4v4h-4zM76 176h4v4h-4z"/><path fill="#8CFFFF" d="M80 176h4v4h-4z"/><path fill="#956DE0" d="M84 176h4v4h-4zM88 176h4v4h-4zM92 176h4v4h-4z"/><path fill="#C58BFF" d="M96 176h4v4h-4z"/><path fill="#A8D7FF" d="M100 176h4v4h-4zM104 176h4v4h-4zM108 176h4v4h-4zM112 176h4v4h-4z"/><path fill="#C58BFF" d="M116 176h4v4h-4z"/><path fill="#956DE0" d="M120 176h4v4h-4zM124 176h4v4h-4zM128 176h4v4h-4z"/><path fill="#8CFFFF" d="M132 176h4v4h-4z"/><path fill="#DCFFFF" d="M136 176h4v4h-4z"/><path fill="#956DE0" d="M140 176h4v4h-4zM144 176h4v4h-4z"/><path fill="#A8D7FF" d="M148 176h4v4h-4z"/><path fill="#8CFFFF" d="M152 176h4v4h-4z"/><path fill="#DCFFFF" d="M156 176h4v4h-4zM160 176h4v4h-4z"/><path fill="#8CFFFF" d="M164 176h4v4h-4zM168 176h4v4h-4zM172 176h4v4h-4zM176 176h4v4h-4zM180 176h4v4h-4zM184 176h4v4h-4z"/><path fill="#A8D7FF" d="M188 176h4v4h-4z"/><path fill="#956DE0" d="M192 176h4v4h-4zM196 176h4v4h-4zM200 176h4v4h-4z"/><path fill="#A8D7FF" d="M204 176h4v4h-4z"/><path fill="#956DE0" d="M208 176h4v4h-4z"/><path fill="#DCFFFF" d="M212 176h4v4h-4z"/><path fill="#956DE0" d="M216 176h4v4h-4z"/><path fill="#A8D7FF" d="M220 176h4v4h-4zM224 176h4v4h-4z"/><path fill="#8CFFFF" d="M228 176h4v4h-4zM232 176h4v4h-4zM236 176h4v4h-4zM240 176h4v4h-4zM244 176h4v4h-4zM248 176h4v4h-4zM252 176h4v4h-4z"/><path fill="#A8D7FF" d="M256 176h4v4h-4zM260 176h4v4h-4z"/><path fill="#87A1FF" d="M264 176h4v4h-4zM60 180h4v4h-4z"/><path fill="#C58BFF" d="M64 180h4v4h-4zM68 180h4v4h-4z"/><path fill="#8CFFFF" d="M72 180h4v4h-4z"/><path fill="#DCFFFF" d="M76 180h4v4h-4zM80 180h4v4h-4z"/><path fill="#8CFFFF" d="M84 180h4v4h-4z"/><path fill="#956DE0" d="M88 180h4v4h-4zM92 180h4v4h-4zM96 180h4v4h-4zM100 180h4v4h-4zM104 180h4v4h-4zM108 180h4v4h-4zM112 180h4v4h-4zM116 180h4v4h-4zM120 180h4v4h-4z"/><path fill="#8CFFFF" d="M124 180h4v4h-4z"/><path fill="#DCFFFF" d="M128 180h4v4h-4zM132 180h4v4h-4z"/><path fill="#956DE0" d="M136 180h4v4h-4zM140 180h4v4h-4z"/><path fill="#A8D7FF" d="M144 180h4v4h-4zM148 180h4v4h-4zM152 180h4v4h-4z"/><path fill="#8CFFFF" d="M156 180h4v4h-4zM160 180h4v4h-4zM164 180h4v4h-4zM168 180h4v4h-4zM172 180h4v4h-4zM176 180h4v4h-4zM180 180h4v4h-4zM184 180h4v4h-4zM188 180h4v4h-4z"/><path fill="#A8D7FF" d="M192 180h4v4h-4z"/><path fill="#956DE0" d="M196 180h4v4h-4zM200 180h4v4h-4z"/><path fill="#A8D7FF" d="M204 180h4v4h-4z"/><path fill="#956DE0" d="M208 180h4v4h-4z"/><path fill="#DCFFFF" d="M212 180h4v4h-4z"/><path fill="#956DE0" d="M216 180h4v4h-4z"/><path fill="#A8D7FF" d="M220 180h4v4h-4zM224 180h4v4h-4zM228 180h4v4h-4zM232 180h4v4h-4zM236 180h4v4h-4zM240 180h4v4h-4zM244 180h4v4h-4zM248 180h4v4h-4z"/><path fill="#8CFFFF" d="M252 180h4v4h-4z"/><path fill="#A8D7FF" d="M256 180h4v4h-4zM260 180h4v4h-4zM264 180h4v4h-4z"/><path fill="#87A1FF" d="M268 180h4v4h-4zM64 184h4v4h-4z"/><path fill="#8CFFFF" d="M68 184h4v4h-4z"/><path fill="#C58BFF" d="M72 184h4v4h-4z"/><path fill="#956DE0" d="M76 184h4v4h-4zM80 184h4v4h-4zM84 184h4v4h-4zM88 184h4v4h-4zM92 184h4v4h-4zM96 184h4v4h-4zM100 184h4v4h-4zM104 184h4v4h-4zM108 184h4v4h-4zM112 184h4v4h-4z"/><path fill="#8CFFFF" d="M116 184h4v4h-4z"/><path fill="#DCFFFF" d="M120 184h4v4h-4zM124 184h4v4h-4z"/><path fill="#8CFFFF" d="M128 184h4v4h-4z"/><path fill="#956DE0" d="M132 184h4v4h-4zM136 184h4v4h-4z"/><path fill="#A8D7FF" d="M140 184h4v4h-4zM144 184h4v4h-4z"/><path fill="#C58BFF" d="M148 184h4v4h-4z"/><path fill="#A8D7FF" d="M152 184h4v4h-4z"/><path fill="#8CFFFF" d="M156 184h4v4h-4zM160 184h4v4h-4zM164 184h4v4h-4zM168 184h4v4h-4zM172 184h4v4h-4zM176 184h4v4h-4zM180 184h4v4h-4zM184 184h4v4h-4zM188 184h4v4h-4z"/><path fill="#A8D7FF" d="M192 184h4v4h-4zM196 184h4v4h-4z"/><path fill="#956DE0" d="M200 184h4v4h-4z"/><path fill="#C58BFF" d="M204 184h4v4h-4z"/><path fill="#956DE0" d="M208 184h4v4h-4z"/><path fill="#DCFFFF" d="M212 184h4v4h-4z"/><path fill="#956DE0" d="M216 184h4v4h-4z"/><path fill="#8CFFFF" d="M220 184h4v4h-4z"/><path fill="#DCFFFF" d="M224 184h4v4h-4zM228 184h4v4h-4zM232 184h4v4h-4zM236 184h4v4h-4zM240 184h4v4h-4z"/><path fill="#8CFFFF" d="M244 184h4v4h-4z"/><path fill="#A8D7FF" d="M248 184h4v4h-4zM252 184h4v4h-4zM256 184h4v4h-4zM260 184h4v4h-4zM264 184h4v4h-4z"/><path fill="#87A1FF" d="M268 184h4v4h-4zM60 188h4v4h-4z"/><path fill="#C58BFF" d="M64 188h4v4h-4z"/><path fill="#DCFFFF" d="M68 188h4v4h-4zM72 188h4v4h-4zM76 188h4v4h-4zM80 188h4v4h-4z"/><path fill="#8CFFFF" d="M84 188h4v4h-4zM88 188h4v4h-4z"/><path fill="#956DE0" d="M92 188h4v4h-4zM96 188h4v4h-4zM100 188h4v4h-4z"/><path fill="#8CFFFF" d="M104 188h4v4h-4z"/><path fill="#DCFFFF" d="M108 188h4v4h-4zM112 188h4v4h-4zM116 188h4v4h-4zM120 188h4v4h-4z"/><path fill="#8CFFFF" d="M124 188h4v4h-4z"/><path fill="#956DE0" d="M128 188h4v4h-4zM132 188h4v4h-4z"/><path fill="#A8D7FF" d="M136 188h4v4h-4zM140 188h4v4h-4z"/><path fill="#956DE0" d="M144 188h4v4h-4zM148 188h4v4h-4z"/><path fill="#A8D7FF" d="M152 188h4v4h-4zM156 188h4v4h-4z"/><path fill="#8CFFFF" d="M160 188h4v4h-4zM164 188h4v4h-4zM168 188h4v4h-4zM172 188h4v4h-4zM176 188h4v4h-4zM180 188h4v4h-4zM184 188h4v4h-4zM188 188h4v4h-4z"/><path fill="#A8D7FF" d="M192 188h4v4h-4zM196 188h4v4h-4z"/><path fill="#956DE0" d="M200 188h4v4h-4zM204 188h4v4h-4zM208 188h4v4h-4z"/><path fill="#DCFFFF" d="M212 188h4v4h-4z"/><path fill="#8CFFFF" d="M216 188h4v4h-4z"/><path fill="#DCFFFF" d="M220 188h4v4h-4zM224 188h4v4h-4zM228 188h4v4h-4zM232 188h4v4h-4zM236 188h4v4h-4zM240 188h4v4h-4zM244 188h4v4h-4z"/><path fill="#8CFFFF" d="M248 188h4v4h-4z"/><path fill="#956DE0" d="M252 188h4v4h-4z"/><path fill="#A8D7FF" d="M256 188h4v4h-4zM260 188h4v4h-4zM264 188h4v4h-4z"/><path fill="#87A1FF" d="M268 188h4v4h-4zM56 192h4v4h-4z"/><path fill="#A8D7FF" d="M60 192h4v4h-4z"/><path fill="#C58BFF" d="M64 192h4v4h-4z"/><path fill="#8CFFFF" d="M68 192h4v4h-4z"/><path fill="#DCFFFF" d="M72 192h4v4h-4zM76 192h4v4h-4zM80 192h4v4h-4zM84 192h4v4h-4zM88 192h4v4h-4zM92 192h4v4h-4zM96 192h4v4h-4zM100 192h4v4h-4zM104 192h4v4h-4zM108 192h4v4h-4zM112 192h4v4h-4z"/><path fill="#8CFFFF" d="M116 192h4v4h-4z"/><path fill="#956DE0" d="M120 192h4v4h-4zM124 192h4v4h-4z"/><path fill="#A8D7FF" d="M128 192h4v4h-4zM132 192h4v4h-4z"/><path fill="#956DE0" d="M136 192h4v4h-4zM140 192h4v4h-4zM144 192h4v4h-4zM148 192h4v4h-4z"/><path fill="#A8D7FF" d="M152 192h4v4h-4zM156 192h4v4h-4z"/><path fill="#8CFFFF" d="M160 192h4v4h-4zM164 192h4v4h-4zM168 192h4v4h-4zM172 192h4v4h-4zM176 192h4v4h-4zM180 192h4v4h-4zM184 192h4v4h-4zM188 192h4v4h-4z"/><path fill="#A8D7FF" d="M192 192h4v4h-4zM196 192h4v4h-4z"/><path fill="#956DE0" d="M200 192h4v4h-4zM204 192h4v4h-4zM208 192h4v4h-4z"/><path fill="#DCFFFF" d="M212 192h4v4h-4zM216 192h4v4h-4z"/><path fill="#C58BFF" d="M220 192h4v4h-4zM224 192h4v4h-4zM228 192h4v4h-4zM232 192h4v4h-4zM236 192h4v4h-4zM240 192h4v4h-4zM244 192h4v4h-4z"/><path fill="#DCFFFF" d="M248 192h4v4h-4z"/><path fill="#8CFFFF" d="M252 192h4v4h-4z"/><path fill="#956DE0" d="M256 192h4v4h-4z"/><path fill="#A8D7FF" d="M260 192h4v4h-4zM264 192h4v4h-4z"/><path fill="#87A1FF" d="M268 192h4v4h-4zM56 196h4v4h-4z"/><path fill="#A8D7FF" d="M60 196h4v4h-4zM64 196h4v4h-4z"/><path fill="#C58BFF" d="M68 196h4v4h-4z"/><path fill="#8CFFFF" d="M72 196h4v4h-4z"/><path fill="#DCFFFF" d="M76 196h4v4h-4zM80 196h4v4h-4zM84 196h4v4h-4zM88 196h4v4h-4zM92 196h4v4h-4zM96 196h4v4h-4zM100 196h4v4h-4zM104 196h4v4h-4z"/><path fill="#8CFFFF" d="M108 196h4v4h-4z"/><path fill="#956DE0" d="M112 196h4v4h-4zM116 196h4v4h-4z"/><path fill="#A8D7FF" d="M120 196h4v4h-4zM124 196h4v4h-4z"/><path fill="#956DE0" d="M128 196h4v4h-4zM132 196h4v4h-4zM136 196h4v4h-4zM140 196h4v4h-4zM144 196h4v4h-4zM148 196h4v4h-4z"/><path fill="#A8D7FF" d="M152 196h4v4h-4zM156 196h4v4h-4zM160 196h4v4h-4z"/><path fill="#8CFFFF" d="M164 196h4v4h-4zM168 196h4v4h-4zM172 196h4v4h-4zM176 196h4v4h-4zM180 196h4v4h-4zM184 196h4v4h-4z"/><path fill="#A8D7FF" d="M188 196h4v4h-4zM192 196h4v4h-4zM196 196h4v4h-4z"/><path fill="#956DE0" d="M200 196h4v4h-4zM204 196h4v4h-4z"/><path fill="#8CFFFF" d="M208 196h4v4h-4z"/><path fill="#DCFFFF" d="M212 196h4v4h-4z"/><path fill="#C58BFF" d="M216 196h4v4h-4zM220 196h4v4h-4zM224 196h4v4h-4zM228 196h4v4h-4zM232 196h4v4h-4zM236 196h4v4h-4zM240 196h4v4h-4zM244 196h4v4h-4zM248 196h4v4h-4z"/><path fill="#DCFFFF" d="M252 196h4v4h-4z"/><path fill="#8CFFFF" d="M256 196h4v4h-4z"/><path fill="#C58BFF" d="M260 196h4v4h-4z"/><path fill="#A8D7FF" d="M264 196h4v4h-4z"/><path fill="#87A1FF" d="M268 196h4v4h-4zM56 200h4v4h-4z"/><path fill="#8CFFFF" d="M60 200h4v4h-4zM64 200h4v4h-4z"/><path fill="#A8D7FF" d="M68 200h4v4h-4z"/><path fill="#C58BFF" d="M72 200h4v4h-4zM76 200h4v4h-4z"/><path fill="#8CFFFF" d="M80 200h4v4h-4z"/><path fill="#DCFFFF" d="M84 200h4v4h-4zM88 200h4v4h-4z"/><path fill="#8CFFFF" d="M92 200h4v4h-4zM96 200h4v4h-4z"/><path fill="#956DE0" d="M100 200h4v4h-4zM104 200h4v4h-4zM108 200h4v4h-4z"/><path fill="#DCFFFF" d="M112 200h4v4h-4z"/><path fill="#8CFFFF" d="M116 200h4v4h-4z"/><path fill="#956DE0" d="M120 200h4v4h-4zM124 200h4v4h-4zM128 200h4v4h-4zM132 200h4v4h-4zM136 200h4v4h-4zM140 200h4v4h-4zM144 200h4v4h-4zM148 200h4v4h-4z"/><path fill="#A8D7FF" d="M152 200h4v4h-4zM156 200h4v4h-4zM160 200h4v4h-4zM164 200h4v4h-4zM168 200h4v4h-4z"/><path fill="#8CFFFF" d="M172 200h4v4h-4zM176 200h4v4h-4zM180 200h4v4h-4z"/><path fill="#A8D7FF" d="M184 200h4v4h-4zM188 200h4v4h-4zM192 200h4v4h-4zM196 200h4v4h-4z"/><path fill="#956DE0" d="M200 200h4v4h-4zM204 200h4v4h-4z"/><path fill="#DCFFFF" d="M208 200h4v4h-4zM212 200h4v4h-4z"/><path fill="#C58BFF" d="M216 200h4v4h-4z"/><path fill="#A8D7FF" d="M220 200h4v4h-4zM224 200h4v4h-4zM228 200h4v4h-4zM232 200h4v4h-4zM236 200h4v4h-4zM240 200h4v4h-4zM244 200h4v4h-4z"/><path fill="#C58BFF" d="M248 200h4v4h-4zM252 200h4v4h-4z"/><path fill="#DCFFFF" d="M256 200h4v4h-4z"/><path fill="#8CFFFF" d="M260 200h4v4h-4z"/><path fill="#C58BFF" d="M264 200h4v4h-4z"/><path fill="#87A1FF" d="M268 200h4v4h-4zM56 204h4v4h-4z"/><path fill="#8CFFFF" d="M60 204h4v4h-4z"/><path fill="#DCFFFF" d="M64 204h4v4h-4z"/><path fill="#8CFFFF" d="M68 204h4v4h-4z"/><path fill="#C58BFF" d="M72 204h4v4h-4zM76 204h4v4h-4z"/><path fill="#956DE0" d="M80 204h4v4h-4zM84 204h4v4h-4zM88 204h4v4h-4zM92 204h4v4h-4z"/><path fill="#8CFFFF" d="M96 204h4v4h-4z"/><path fill="#DCFFFF" d="M100 204h4v4h-4zM104 204h4v4h-4zM108 204h4v4h-4z"/><path fill="#8CFFFF" d="M112 204h4v4h-4z"/><path fill="#956DE0" d="M116 204h4v4h-4zM120 204h4v4h-4zM124 204h4v4h-4zM128 204h4v4h-4zM132 204h4v4h-4zM136 204h4v4h-4zM140 204h4v4h-4zM144 204h4v4h-4zM148 204h4v4h-4z"/><path fill="#C58BFF" d="M152 204h4v4h-4z"/><path fill="#A8D7FF" d="M156 204h4v4h-4zM160 204h4v4h-4zM164 204h4v4h-4zM168 204h4v4h-4zM172 204h4v4h-4zM176 204h4v4h-4zM180 204h4v4h-4zM184 204h4v4h-4zM188 204h4v4h-4zM192 204h4v4h-4zM196 204h4v4h-4z"/><path fill="#956DE0" d="M200 204h4v4h-4zM204 204h4v4h-4z"/><path fill="#DCFFFF" d="M208 204h4v4h-4z"/><path fill="#C58BFF" d="M212 204h4v4h-4z"/><path fill="#A8D7FF" d="M216 204h4v4h-4zM220 204h4v4h-4z"/><path fill="#DCFFFF" d="M224 204h4v4h-4zM228 204h4v4h-4zM232 204h4v4h-4zM236 204h4v4h-4zM240 204h4v4h-4z"/><path fill="#8CFFFF" d="M244 204h4v4h-4z"/><path fill="#A8D7FF" d="M248 204h4v4h-4zM252 204h4v4h-4z"/><path fill="#C58BFF" d="M256 204h4v4h-4z"/><path fill="#DCFFFF" d="M260 204h4v4h-4z"/><path fill="#8CFFFF" d="M264 204h4v4h-4z"/><path fill="#87A1FF" d="M268 204h4v4h-4zM56 208h4v4h-4z"/><path fill="#8CFFFF" d="M60 208h4v4h-4z"/><path fill="#DCFFFF" d="M64 208h4v4h-4zM68 208h4v4h-4zM72 208h4v4h-4zM76 208h4v4h-4zM80 208h4v4h-4zM84 208h4v4h-4zM88 208h4v4h-4zM92 208h4v4h-4zM96 208h4v4h-4z"/><path fill="#8CFFFF" d="M100 208h4v4h-4z"/><path fill="#956DE0" d="M104 208h4v4h-4zM108 208h4v4h-4zM112 208h4v4h-4zM116 208h4v4h-4zM120 208h4v4h-4zM124 208h4v4h-4zM128 208h4v4h-4zM132 208h4v4h-4zM136 208h4v4h-4zM140 208h4v4h-4zM144 208h4v4h-4zM148 208h4v4h-4zM152 208h4v4h-4z"/><path fill="#A8D7FF" d="M156 208h4v4h-4zM160 208h4v4h-4zM164 208h4v4h-4zM168 208h4v4h-4zM172 208h4v4h-4zM176 208h4v4h-4zM180 208h4v4h-4zM184 208h4v4h-4zM188 208h4v4h-4zM192 208h4v4h-4z"/><path fill="#956DE0" d="M196 208h4v4h-4zM200 208h4v4h-4z"/><path fill="#8CFFFF" d="M204 208h4v4h-4z"/><path fill="#A8D7FF" d="M208 208h4v4h-4zM212 208h4v4h-4z"/><path fill="#DCFFFF" d="M216 208h4v4h-4zM220 208h4v4h-4z"/><path fill="#8CFFFF" d="M224 208h4v4h-4z"/><path fill="#956DE0" d="M228 208h4v4h-4zM232 208h4v4h-4zM236 208h4v4h-4zM240 208h4v4h-4z"/><path fill="#DCFFFF" d="M244 208h4v4h-4z"/><path fill="#8CFFFF" d="M248 208h4v4h-4z"/><path fill="#A8D7FF" d="M252 208h4v4h-4zM256 208h4v4h-4z"/><path fill="#C58BFF" d="M260 208h4v4h-4z"/><path fill="#DCFFFF" d="M264 208h4v4h-4z"/><path fill="#87A1FF" d="M268 208h4v4h-4zM56 212h4v4h-4z"/><path fill="#8CFFFF" d="M60 212h4v4h-4z"/><path fill="#DCFFFF" d="M64 212h4v4h-4zM68 212h4v4h-4zM72 212h4v4h-4zM76 212h4v4h-4zM80 212h4v4h-4zM84 212h4v4h-4zM88 212h4v4h-4zM92 212h4v4h-4z"/><path fill="#8CFFFF" d="M96 212h4v4h-4z"/><path fill="#956DE0" d="M100 212h4v4h-4zM104 212h4v4h-4zM108 212h4v4h-4zM112 212h4v4h-4zM116 212h4v4h-4zM120 212h4v4h-4zM124 212h4v4h-4zM128 212h4v4h-4zM132 212h4v4h-4zM136 212h4v4h-4zM140 212h4v4h-4zM144 212h4v4h-4zM148 212h4v4h-4zM152 212h4v4h-4z"/><path fill="#C58BFF" d="M156 212h4v4h-4z"/><path fill="#A8D7FF" d="M160 212h4v4h-4zM164 212h4v4h-4zM168 212h4v4h-4zM172 212h4v4h-4zM176 212h4v4h-4zM180 212h4v4h-4zM184 212h4v4h-4zM188 212h4v4h-4z"/><path fill="#C58BFF" d="M192 212h4v4h-4z"/><path fill="#956DE0" d="M196 212h4v4h-4zM200 212h4v4h-4z"/><path fill="#DCFFFF" d="M204 212h4v4h-4z"/><path fill="#A8D7FF" d="M208 212h4v4h-4z"/><path fill="#DCFFFF" d="M212 212h4v4h-4z"/><path fill="#8CFFFF" d="M216 212h4v4h-4z"/><path fill="#956DE0" d="M220 212h4v4h-4zM224 212h4v4h-4zM228 212h4v4h-4zM232 212h4v4h-4zM236 212h4v4h-4zM240 212h4v4h-4zM244 212h4v4h-4z"/><path fill="#DCFFFF" d="M248 212h4v4h-4z"/><path fill="#8CFFFF" d="M252 212h4v4h-4z"/><path fill="#A8D7FF" d="M256 212h4v4h-4zM260 212h4v4h-4z"/><path fill="#DCFFFF" d="M264 212h4v4h-4z"/><path fill="#87A1FF" d="M268 212h4v4h-4zM60 216h4v4h-4z"/><path fill="#8CFFFF" d="M64 216h4v4h-4z"/><path fill="#DCFFFF" d="M68 216h4v4h-4zM72 216h4v4h-4zM76 216h4v4h-4z"/><path fill="#8CFFFF" d="M80 216h4v4h-4zM84 216h4v4h-4zM88 216h4v4h-4z"/><path fill="#DCFFFF" d="M92 216h4v4h-4z"/><path fill="#956DE0" d="M96 216h4v4h-4zM100 216h4v4h-4zM104 216h4v4h-4zM108 216h4v4h-4zM112 216h4v4h-4zM116 216h4v4h-4zM120 216h4v4h-4zM124 216h4v4h-4zM128 216h4v4h-4zM132 216h4v4h-4zM136 216h4v4h-4zM140 216h4v4h-4zM144 216h4v4h-4zM148 216h4v4h-4zM152 216h4v4h-4zM156 216h4v4h-4zM160 216h4v4h-4z"/><path fill="#C58BFF" d="M164 216h4v4h-4z"/><path fill="#A8D7FF" d="M168 216h4v4h-4zM172 216h4v4h-4zM176 216h4v4h-4zM180 216h4v4h-4zM184 216h4v4h-4zM188 216h4v4h-4z"/><path fill="#956DE0" d="M192 216h4v4h-4zM196 216h4v4h-4z"/><path fill="#8CFFFF" d="M200 216h4v4h-4z"/><path fill="#A8D7FF" d="M204 216h4v4h-4z"/><path fill="#DCFFFF" d="M208 216h4v4h-4z"/><path fill="#956DE0" d="M212 216h4v4h-4zM216 216h4v4h-4zM220 216h4v4h-4zM224 216h4v4h-4zM228 216h4v4h-4zM232 216h4v4h-4zM236 216h4v4h-4zM240 216h4v4h-4zM244 216h4v4h-4zM248 216h4v4h-4z"/><path fill="#DCFFFF" d="M252 216h4v4h-4z"/><path fill="#A8D7FF" d="M256 216h4v4h-4zM260 216h4v4h-4z"/><path fill="#DCFFFF" d="M264 216h4v4h-4z"/><path fill="#87A1FF" d="M268 216h4v4h-4zM60 220h4v4h-4z"/><path fill="#C58BFF" d="M64 220h4v4h-4z"/><path fill="#DCFFFF" d="M68 220h4v4h-4zM72 220h4v4h-4z"/><path fill="#8CFFFF" d="M76 220h4v4h-4z"/><path fill="#956DE0" d="M80 220h4v4h-4zM84 220h4v4h-4zM88 220h4v4h-4z"/><path fill="#DCFFFF" d="M92 220h4v4h-4z"/><path fill="#8CFFFF" d="M96 220h4v4h-4z"/><path fill="#956DE0" d="M100 220h4v4h-4zM104 220h4v4h-4zM108 220h4v4h-4zM112 220h4v4h-4zM116 220h4v4h-4zM120 220h4v4h-4zM124 220h4v4h-4zM128 220h4v4h-4zM132 220h4v4h-4zM136 220h4v4h-4zM140 220h4v4h-4zM144 220h4v4h-4zM148 220h4v4h-4zM152 220h4v4h-4zM156 220h4v4h-4zM160 220h4v4h-4zM164 220h4v4h-4z"/><path fill="#C58BFF" d="M168 220h4v4h-4z"/><path fill="#A8D7FF" d="M172 220h4v4h-4zM176 220h4v4h-4zM180 220h4v4h-4zM184 220h4v4h-4z"/><path fill="#956DE0" d="M188 220h4v4h-4zM192 220h4v4h-4zM196 220h4v4h-4z"/><path fill="#DCFFFF" d="M200 220h4v4h-4zM204 220h4v4h-4z"/><path fill="#956DE0" d="M208 220h4v4h-4zM212 220h4v4h-4zM216 220h4v4h-4zM220 220h4v4h-4zM224 220h4v4h-4zM228 220h4v4h-4zM232 220h4v4h-4zM236 220h4v4h-4zM240 220h4v4h-4zM244 220h4v4h-4z"/><path fill="#C58BFF" d="M248 220h4v4h-4z"/><path fill="#DCFFFF" d="M252 220h4v4h-4z"/><path fill="#A8D7FF" d="M256 220h4v4h-4zM260 220h4v4h-4z"/><path fill="#DCFFFF" d="M264 220h4v4h-4z"/><path fill="#87A1FF" d="M268 220h4v4h-4zM64 224h4v4h-4z"/><path fill="#DCFFFF" d="M68 224h4v4h-4zM72 224h4v4h-4z"/><path fill="#8CFFFF" d="M76 224h4v4h-4z"/><path fill="#956DE0" d="M80 224h4v4h-4zM84 224h4v4h-4zM88 224h4v4h-4z"/><path fill="#8CFFFF" d="M92 224h4v4h-4z"/><path fill="#DCFFFF" d="M96 224h4v4h-4z"/><path fill="#956DE0" d="M100 224h4v4h-4zM104 224h4v4h-4zM108 224h4v4h-4zM112 224h4v4h-4zM116 224h4v4h-4zM120 224h4v4h-4zM124 224h4v4h-4zM128 224h4v4h-4zM132 224h4v4h-4zM136 224h4v4h-4zM140 224h4v4h-4zM144 224h4v4h-4zM148 224h4v4h-4zM152 224h4v4h-4zM156 224h4v4h-4zM160 224h4v4h-4zM164 224h4v4h-4z"/><path fill="#A8D7FF" d="M168 224h4v4h-4zM172 224h4v4h-4zM176 224h4v4h-4zM180 224h4v4h-4z"/><path fill="#956DE0" d="M184 224h4v4h-4zM188 224h4v4h-4zM192 224h4v4h-4z"/><path fill="#8CFFFF" d="M196 224h4v4h-4z"/><path fill="#DCFFFF" d="M200 224h4v4h-4z"/><path fill="#956DE0" d="M204 224h4v4h-4zM208 224h4v4h-4zM212 224h4v4h-4zM216 224h4v4h-4zM220 224h4v4h-4zM224 224h4v4h-4zM228 224h4v4h-4zM232 224h4v4h-4zM236 224h4v4h-4zM240 224h4v4h-4zM244 224h4v4h-4z"/><path fill="#C58BFF" d="M248 224h4v4h-4z"/><path fill="#DCFFFF" d="M252 224h4v4h-4z"/><path fill="#A8D7FF" d="M256 224h4v4h-4zM260 224h4v4h-4z"/><path fill="#87A1FF" d="M264 224h4v4h-4zM64 228h4v4h-4z"/><path fill="#8CFFFF" d="M68 228h4v4h-4z"/><path fill="#DCFFFF" d="M72 228h4v4h-4z"/><path fill="#8CFFFF" d="M76 228h4v4h-4z"/><path fill="#956DE0" d="M80 228h4v4h-4zM84 228h4v4h-4zM88 228h4v4h-4zM92 228h4v4h-4z"/><path fill="#DCFFFF" d="M96 228h4v4h-4z"/><path fill="#8CFFFF" d="M100 228h4v4h-4z"/><path fill="#956DE0" d="M104 228h4v4h-4zM108 228h4v4h-4zM112 228h4v4h-4zM116 228h4v4h-4zM120 228h4v4h-4zM124 228h4v4h-4zM128 228h4v4h-4zM132 228h4v4h-4zM136 228h4v4h-4zM140 228h4v4h-4zM144 228h4v4h-4zM148 228h4v4h-4z"/><path fill="#A8D7FF" d="M152 228h4v4h-4zM156 228h4v4h-4z"/><path fill="#956DE0" d="M160 228h4v4h-4z"/><path fill="#A8D7FF" d="M164 228h4v4h-4zM168 228h4v4h-4zM172 228h4v4h-4zM176 228h4v4h-4z"/><path fill="#956DE0" d="M180 228h4v4h-4zM184 228h4v4h-4zM188 228h4v4h-4z"/><path fill="#8CFFFF" d="M192 228h4v4h-4z"/><path fill="#DCFFFF" d="M196 228h4v4h-4z"/><path fill="#956DE0" d="M200 228h4v4h-4zM204 228h4v4h-4zM208 228h4v4h-4zM212 228h4v4h-4zM216 228h4v4h-4zM220 228h4v4h-4zM224 228h4v4h-4zM228 228h4v4h-4zM232 228h4v4h-4zM236 228h4v4h-4zM240 228h4v4h-4z"/><path fill="#C58BFF" d="M244 228h4v4h-4zM248 228h4v4h-4z"/><path fill="#DCFFFF" d="M252 228h4v4h-4z"/><path fill="#A8D7FF" d="M256 228h4v4h-4zM260 228h4v4h-4z"/><path fill="#87A1FF" d="M264 228h4v4h-4zM68 232h4v4h-4z"/><path fill="#8CFFFF" d="M72 232h4v4h-4z"/><path fill="#DCFFFF" d="M76 232h4v4h-4z"/><path fill="#8CFFFF" d="M80 232h4v4h-4z"/><path fill="#956DE0" d="M84 232h4v4h-4zM88 232h4v4h-4zM92 232h4v4h-4z"/><path fill="#DCFFFF" d="M96 232h4v4h-4zM100 232h4v4h-4z"/><path fill="#956DE0" d="M104 232h4v4h-4zM108 232h4v4h-4zM112 232h4v4h-4z"/><path fill="#C58BFF" d="M116 232h4v4h-4z"/><path fill="#956DE0" d="M120 232h4v4h-4zM124 232h4v4h-4zM128 232h4v4h-4zM132 232h4v4h-4zM136 232h4v4h-4zM140 232h4v4h-4zM144 232h4v4h-4z"/><path fill="#A8D7FF" d="M148 232h4v4h-4z"/><path fill="#8CFFFF" d="M152 232h4v4h-4zM156 232h4v4h-4z"/><path fill="#A8D7FF" d="M160 232h4v4h-4zM164 232h4v4h-4zM168 232h4v4h-4zM172 232h4v4h-4z"/><path fill="#956DE0" d="M176 232h4v4h-4zM180 232h4v4h-4zM184 232h4v4h-4z"/><path fill="#8CFFFF" d="M188 232h4v4h-4z"/><path fill="#DCFFFF" d="M192 232h4v4h-4z"/><path fill="#956DE0" d="M196 232h4v4h-4zM200 232h4v4h-4zM204 232h4v4h-4zM208 232h4v4h-4zM212 232h4v4h-4zM216 232h4v4h-4zM220 232h4v4h-4zM224 232h4v4h-4zM228 232h4v4h-4zM232 232h4v4h-4zM236 232h4v4h-4zM240 232h4v4h-4z"/><path fill="#C58BFF" d="M244 232h4v4h-4z"/><path fill="#DCFFFF" d="M248 232h4v4h-4z"/><path fill="#8CFFFF" d="M252 232h4v4h-4z"/><path fill="#A8D7FF" d="M256 232h4v4h-4z"/><path fill="#87A1FF" d="M260 232h4v4h-4zM72 236h4v4h-4z"/><path fill="#8CFFFF" d="M76 236h4v4h-4z"/><path fill="#DCFFFF" d="M80 236h4v4h-4zM84 236h4v4h-4z"/><path fill="#8CFFFF" d="M88 236h4v4h-4z"/><path fill="#956DE0" d="M92 236h4v4h-4z"/><path fill="#8CFFFF" d="M96 236h4v4h-4z"/><path fill="#DCFFFF" d="M100 236h4v4h-4z"/><path fill="#8CFFFF" d="M104 236h4v4h-4z"/><path fill="#956DE0" d="M108 236h4v4h-4zM112 236h4v4h-4zM116 236h4v4h-4z"/><path fill="#A8D7FF" d="M120 236h4v4h-4z"/><path fill="#956DE0" d="M124 236h4v4h-4zM128 236h4v4h-4zM132 236h4v4h-4zM136 236h4v4h-4zM140 236h4v4h-4zM144 236h4v4h-4z"/><path fill="#A8D7FF" d="M148 236h4v4h-4z"/><path fill="#8CFFFF" d="M152 236h4v4h-4zM156 236h4v4h-4z"/><path fill="#A8D7FF" d="M160 236h4v4h-4zM164 236h4v4h-4z"/><path fill="#C58BFF" d="M168 236h4v4h-4z"/><path fill="#956DE0" d="M172 236h4v4h-4zM176 236h4v4h-4zM180 236h4v4h-4z"/><path fill="#8CFFFF" d="M184 236h4v4h-4z"/><path fill="#DCFFFF" d="M188 236h4v4h-4z"/><path fill="#956DE0" d="M192 236h4v4h-4zM196 236h4v4h-4zM200 236h4v4h-4zM204 236h4v4h-4zM208 236h4v4h-4zM212 236h4v4h-4zM216 236h4v4h-4zM220 236h4v4h-4zM224 236h4v4h-4zM228 236h4v4h-4zM232 236h4v4h-4zM236 236h4v4h-4z"/><path fill="#C58BFF" d="M240 236h4v4h-4zM244 236h4v4h-4z"/><path fill="#DCFFFF" d="M248 236h4v4h-4z"/><path fill="#8CFFFF" d="M252 236h4v4h-4z"/><path fill="#A8D7FF" d="M256 236h4v4h-4z"/><path fill="#87A1FF" d="M260 236h4v4h-4zM76 240h4v4h-4z"/><path fill="#8CFFFF" d="M80 240h4v4h-4z"/><path fill="#DCFFFF" d="M84 240h4v4h-4zM88 240h4v4h-4z"/><path fill="#8CFFFF" d="M92 240h4v4h-4zM96 240h4v4h-4zM100 240h4v4h-4z"/><path fill="#DCFFFF" d="M104 240h4v4h-4z"/><path fill="#956DE0" d="M108 240h4v4h-4zM112 240h4v4h-4zM116 240h4v4h-4zM120 240h4v4h-4z"/><path fill="#A8D7FF" d="M124 240h4v4h-4zM128 240h4v4h-4z"/><path fill="#956DE0" d="M132 240h4v4h-4zM136 240h4v4h-4zM140 240h4v4h-4z"/><path fill="#A8D7FF" d="M144 240h4v4h-4zM148 240h4v4h-4zM152 240h4v4h-4zM156 240h4v4h-4z"/><path fill="#C58BFF" d="M160 240h4v4h-4z"/><path fill="#956DE0" d="M164 240h4v4h-4zM168 240h4v4h-4zM172 240h4v4h-4zM176 240h4v4h-4z"/><path fill="#8CFFFF" d="M180 240h4v4h-4z"/><path fill="#DCFFFF" d="M184 240h4v4h-4z"/><path fill="#956DE0" d="M188 240h4v4h-4zM192 240h4v4h-4zM196 240h4v4h-4zM200 240h4v4h-4zM204 240h4v4h-4zM208 240h4v4h-4zM212 240h4v4h-4zM216 240h4v4h-4zM220 240h4v4h-4zM224 240h4v4h-4zM228 240h4v4h-4zM232 240h4v4h-4zM236 240h4v4h-4z"/><path fill="#C58BFF" d="M240 240h4v4h-4zM244 240h4v4h-4z"/><path fill="#DCFFFF" d="M248 240h4v4h-4z"/><path fill="#A8D7FF" d="M252 240h4v4h-4z"/><path fill="#87A1FF" d="M256 240h4v4h-4zM80 244h4v4h-4z"/><path fill="#8CFFFF" d="M84 244h4v4h-4z"/><path fill="#DCFFFF" d="M88 244h4v4h-4zM92 244h4v4h-4z"/><path fill="#8CFFFF" d="M96 244h4v4h-4z"/><path fill="#956DE0" d="M100 244h4v4h-4z"/><path fill="#8CFFFF" d="M104 244h4v4h-4z"/><path fill="#DCFFFF" d="M108 244h4v4h-4z"/><path fill="#956DE0" d="M112 244h4v4h-4zM116 244h4v4h-4zM120 244h4v4h-4zM124 244h4v4h-4zM128 244h4v4h-4z"/><path fill="#A8D7FF" d="M132 244h4v4h-4zM136 244h4v4h-4zM140 244h4v4h-4zM144 244h4v4h-4z"/><path fill="#C58BFF" d="M148 244h4v4h-4z"/><path fill="#956DE0" d="M152 244h4v4h-4zM156 244h4v4h-4zM160 244h4v4h-4zM164 244h4v4h-4zM168 244h4v4h-4zM172 244h4v4h-4z"/><path fill="#8CFFFF" d="M176 244h4v4h-4z"/><path fill="#DCFFFF" d="M180 244h4v4h-4z"/><path fill="#956DE0" d="M184 244h4v4h-4zM188 244h4v4h-4zM192 244h4v4h-4zM196 244h4v4h-4zM200 244h4v4h-4zM204 244h4v4h-4zM208 244h4v4h-4zM212 244h4v4h-4zM216 244h4v4h-4zM220 244h4v4h-4zM224 244h4v4h-4zM228 244h4v4h-4zM232 244h4v4h-4z"/><path fill="#C58BFF" d="M236 244h4v4h-4zM240 244h4v4h-4z"/><path fill="#DCFFFF" d="M244 244h4v4h-4z"/><path fill="#8CFFFF" d="M248 244h4v4h-4z"/><path fill="#A8D7FF" d="M252 244h4v4h-4z"/><path fill="#87A1FF" d="M256 244h4v4h-4zM84 248h4v4h-4z"/><path fill="#C58BFF" d="M88 248h4v4h-4z"/><path fill="#8CFFFF" d="M92 248h4v4h-4z"/><path fill="#DCFFFF" d="M96 248h4v4h-4zM100 248h4v4h-4zM104 248h4v4h-4zM108 248h4v4h-4zM112 248h4v4h-4z"/><path fill="#8CFFFF" d="M116 248h4v4h-4z"/><path fill="#956DE0" d="M120 248h4v4h-4zM124 248h4v4h-4zM128 248h4v4h-4zM132 248h4v4h-4zM136 248h4v4h-4zM140 248h4v4h-4zM144 248h4v4h-4zM148 248h4v4h-4zM152 248h4v4h-4zM156 248h4v4h-4zM160 248h4v4h-4zM164 248h4v4h-4zM168 248h4v4h-4z"/><path fill="#8CFFFF" d="M172 248h4v4h-4z"/><path fill="#DCFFFF" d="M176 248h4v4h-4z"/><path fill="#956DE0" d="M180 248h4v4h-4zM184 248h4v4h-4zM188 248h4v4h-4zM192 248h4v4h-4zM196 248h4v4h-4zM200 248h4v4h-4zM204 248h4v4h-4zM208 248h4v4h-4zM212 248h4v4h-4zM216 248h4v4h-4zM220 248h4v4h-4zM224 248h4v4h-4zM228 248h4v4h-4z"/><path fill="#C58BFF" d="M232 248h4v4h-4zM236 248h4v4h-4zM240 248h4v4h-4z"/><path fill="#DCFFFF" d="M244 248h4v4h-4z"/><path fill="#8CFFFF" d="M248 248h4v4h-4z"/><path fill="#87A1FF" d="M252 248h4v4h-4zM88 252h4v4h-4z"/><path fill="#C58BFF" d="M92 252h4v4h-4z"/><path fill="#956DE0" d="M96 252h4v4h-4z"/><path fill="#8CFFFF" d="M100 252h4v4h-4z"/><path fill="#DCFFFF" d="M104 252h4v4h-4zM108 252h4v4h-4zM112 252h4v4h-4zM116 252h4v4h-4zM120 252h4v4h-4z"/><path fill="#8CFFFF" d="M124 252h4v4h-4z"/><path fill="#956DE0" d="M128 252h4v4h-4zM132 252h4v4h-4zM136 252h4v4h-4zM140 252h4v4h-4zM144 252h4v4h-4zM148 252h4v4h-4zM152 252h4v4h-4zM156 252h4v4h-4zM160 252h4v4h-4z"/><path fill="#8CFFFF" d="M164 252h4v4h-4z"/><path fill="#DCFFFF" d="M168 252h4v4h-4zM172 252h4v4h-4z"/><path fill="#956DE0" d="M176 252h4v4h-4zM180 252h4v4h-4zM184 252h4v4h-4zM188 252h4v4h-4zM192 252h4v4h-4zM196 252h4v4h-4zM200 252h4v4h-4zM204 252h4v4h-4zM208 252h4v4h-4zM212 252h4v4h-4zM216 252h4v4h-4zM220 252h4v4h-4zM224 252h4v4h-4z"/><path fill="#C58BFF" d="M228 252h4v4h-4zM232 252h4v4h-4zM236 252h4v4h-4z"/><path fill="#DCFFFF" d="M240 252h4v4h-4z"/><path fill="#8CFFFF" d="M244 252h4v4h-4z"/><path fill="#A8D7FF" d="M248 252h4v4h-4z"/><path fill="#87A1FF" d="M252 252h4v4h-4zM88 256h4v4h-4z"/><path fill="#DCFFFF" d="M92 256h4v4h-4zM96 256h4v4h-4z"/><path fill="#956DE0" d="M100 256h4v4h-4zM104 256h4v4h-4zM108 256h4v4h-4zM112 256h4v4h-4zM116 256h4v4h-4zM120 256h4v4h-4z"/><path fill="#DCFFFF" d="M124 256h4v4h-4zM128 256h4v4h-4z"/><path fill="#8CFFFF" d="M132 256h4v4h-4z"/><path fill="#956DE0" d="M136 256h4v4h-4zM140 256h4v4h-4zM144 256h4v4h-4zM148 256h4v4h-4zM152 256h4v4h-4z"/><path fill="#8CFFFF" d="M156 256h4v4h-4z"/><path fill="#DCFFFF" d="M160 256h4v4h-4zM164 256h4v4h-4zM168 256h4v4h-4z"/><path fill="#956DE0" d="M172 256h4v4h-4zM176 256h4v4h-4zM180 256h4v4h-4zM184 256h4v4h-4zM188 256h4v4h-4zM192 256h4v4h-4zM196 256h4v4h-4zM200 256h4v4h-4zM204 256h4v4h-4zM208 256h4v4h-4zM212 256h4v4h-4zM216 256h4v4h-4zM220 256h4v4h-4z"/><path fill="#C58BFF" d="M224 256h4v4h-4zM228 256h4v4h-4zM232 256h4v4h-4zM236 256h4v4h-4z"/><path fill="#DCFFFF" d="M240 256h4v4h-4z"/><path fill="#A8D7FF" d="M244 256h4v4h-4z"/><path fill="#87A1FF" d="M248 256h4v4h-4zM88 260h4v4h-4z"/><path fill="#A8D7FF" d="M92 260h4v4h-4z"/><path fill="#8CFFFF" d="M96 260h4v4h-4z"/><path fill="#DCFFFF" d="M100 260h4v4h-4zM104 260h4v4h-4zM108 260h4v4h-4zM112 260h4v4h-4zM116 260h4v4h-4zM120 260h4v4h-4z"/><path fill="#956DE0" d="M124 260h4v4h-4zM128 260h4v4h-4zM132 260h4v4h-4zM136 260h4v4h-4zM140 260h4v4h-4z"/><path fill="#8CFFFF" d="M144 260h4v4h-4z"/><path fill="#DCFFFF" d="M148 260h4v4h-4zM152 260h4v4h-4zM156 260h4v4h-4zM160 260h4v4h-4z"/><path fill="#8CFFFF" d="M164 260h4v4h-4z"/><path fill="#956DE0" d="M168 260h4v4h-4zM172 260h4v4h-4zM176 260h4v4h-4zM180 260h4v4h-4zM184 260h4v4h-4zM188 260h4v4h-4zM192 260h4v4h-4zM196 260h4v4h-4zM200 260h4v4h-4zM204 260h4v4h-4zM208 260h4v4h-4zM212 260h4v4h-4zM216 260h4v4h-4z"/><path fill="#C58BFF" d="M220 260h4v4h-4zM224 260h4v4h-4zM228 260h4v4h-4zM232 260h4v4h-4z"/><path fill="#DCFFFF" d="M236 260h4v4h-4z"/><path fill="#A8D7FF" d="M240 260h4v4h-4z"/><path fill="#87A1FF" d="M244 260h4v4h-4zM92 264h4v4h-4z"/><path fill="#C58BFF" d="M96 264h4v4h-4zM100 264h4v4h-4z"/><path fill="#956DE0" d="M104 264h4v4h-4zM108 264h4v4h-4zM112 264h4v4h-4z"/><path fill="#8CFFFF" d="M116 264h4v4h-4zM120 264h4v4h-4z"/><path fill="#DCFFFF" d="M124 264h4v4h-4zM128 264h4v4h-4zM132 264h4v4h-4zM136 264h4v4h-4zM140 264h4v4h-4zM144 264h4v4h-4z"/><path fill="#8CFFFF" d="M148 264h4v4h-4zM152 264h4v4h-4z"/><path fill="#956DE0" d="M156 264h4v4h-4zM160 264h4v4h-4zM164 264h4v4h-4zM168 264h4v4h-4zM172 264h4v4h-4zM176 264h4v4h-4zM180 264h4v4h-4zM184 264h4v4h-4zM188 264h4v4h-4zM192 264h4v4h-4zM196 264h4v4h-4zM200 264h4v4h-4zM204 264h4v4h-4zM208 264h4v4h-4zM212 264h4v4h-4z"/><path fill="#C58BFF" d="M216 264h4v4h-4zM220 264h4v4h-4zM224 264h4v4h-4zM228 264h4v4h-4z"/><path fill="#DCFFFF" d="M232 264h4v4h-4z"/><path fill="#A8D7FF" d="M236 264h4v4h-4z"/><path fill="#87A1FF" d="M240 264h4v4h-4zM96 268h4v4h-4z"/><path fill="#C58BFF" d="M100 268h4v4h-4zM104 268h4v4h-4z"/><path fill="#956DE0" d="M108 268h4v4h-4zM112 268h4v4h-4zM116 268h4v4h-4zM120 268h4v4h-4zM124 268h4v4h-4zM128 268h4v4h-4zM132 268h4v4h-4zM136 268h4v4h-4zM140 268h4v4h-4zM144 268h4v4h-4zM148 268h4v4h-4zM152 268h4v4h-4zM156 268h4v4h-4zM160 268h4v4h-4zM164 268h4v4h-4zM168 268h4v4h-4zM172 268h4v4h-4zM176 268h4v4h-4zM180 268h4v4h-4zM184 268h4v4h-4zM188 268h4v4h-4zM192 268h4v4h-4zM196 268h4v4h-4zM200 268h4v4h-4zM204 268h4v4h-4zM208 268h4v4h-4z"/><path fill="#C58BFF" d="M212 268h4v4h-4zM216 268h4v4h-4zM220 268h4v4h-4zM224 268h4v4h-4z"/><path fill="#DCFFFF" d="M228 268h4v4h-4z"/><path fill="#A8D7FF" d="M232 268h4v4h-4z"/><path fill="#87A1FF" d="M236 268h4v4h-4zM96 272h4v4h-4z"/><path fill="#C58BFF" d="M100 272h4v4h-4zM104 272h4v4h-4zM108 272h4v4h-4zM112 272h4v4h-4z"/><path fill="#956DE0" d="M116 272h4v4h-4zM120 272h4v4h-4zM124 272h4v4h-4zM128 272h4v4h-4zM132 272h4v4h-4zM136 272h4v4h-4zM140 272h4v4h-4zM144 272h4v4h-4zM148 272h4v4h-4zM152 272h4v4h-4zM156 272h4v4h-4zM160 272h4v4h-4zM164 272h4v4h-4zM168 272h4v4h-4zM172 272h4v4h-4zM176 272h4v4h-4zM180 272h4v4h-4zM184 272h4v4h-4zM188 272h4v4h-4zM192 272h4v4h-4zM196 272h4v4h-4zM200 272h4v4h-4z"/><path fill="#C58BFF" d="M204 272h4v4h-4zM208 272h4v4h-4zM212 272h4v4h-4zM216 272h4v4h-4zM220 272h4v4h-4z"/><path fill="#DCFFFF" d="M224 272h4v4h-4z"/><path fill="#A8D7FF" d="M228 272h4v4h-4z"/><path fill="#87A1FF" d="M232 272h4v4h-4zM100 276h4v4h-4z"/><path fill="#C58BFF" d="M104 276h4v4h-4zM108 276h4v4h-4zM112 276h4v4h-4zM116 276h4v4h-4zM120 276h4v4h-4z"/><path fill="#956DE0" d="M124 276h4v4h-4zM128 276h4v4h-4zM132 276h4v4h-4zM136 276h4v4h-4zM140 276h4v4h-4zM144 276h4v4h-4zM148 276h4v4h-4zM152 276h4v4h-4zM156 276h4v4h-4zM160 276h4v4h-4zM164 276h4v4h-4zM168 276h4v4h-4zM172 276h4v4h-4zM176 276h4v4h-4zM180 276h4v4h-4zM184 276h4v4h-4zM188 276h4v4h-4z"/><path fill="#C58BFF" d="M192 276h4v4h-4zM196 276h4v4h-4zM200 276h4v4h-4zM204 276h4v4h-4zM208 276h4v4h-4zM212 276h4v4h-4zM216 276h4v4h-4z"/><path fill="#DCFFFF" d="M220 276h4v4h-4z"/><path fill="#87A1FF" d="M224 276h4v4h-4zM228 276h4v4h-4zM104 280h4v4h-4z"/><path fill="#C58BFF" d="M108 280h4v4h-4zM112 280h4v4h-4zM116 280h4v4h-4zM120 280h4v4h-4zM124 280h4v4h-4zM128 280h4v4h-4zM132 280h4v4h-4z"/><path fill="#956DE0" d="M136 280h4v4h-4zM140 280h4v4h-4zM144 280h4v4h-4zM148 280h4v4h-4zM152 280h4v4h-4zM156 280h4v4h-4zM160 280h4v4h-4zM164 280h4v4h-4zM168 280h4v4h-4z"/><path fill="#C58BFF" d="M172 280h4v4h-4zM176 280h4v4h-4zM180 280h4v4h-4zM184 280h4v4h-4zM188 280h4v4h-4zM192 280h4v4h-4zM196 280h4v4h-4zM200 280h4v4h-4zM204 280h4v4h-4zM208 280h4v4h-4zM212 280h4v4h-4z"/><path fill="#87A1FF" d="M216 280h4v4h-4zM220 280h4v4h-4zM108 284h4v4h-4zM112 284h4v4h-4z"/><path fill="#C58BFF" d="M116 284h4v4h-4zM120 284h4v4h-4zM124 284h4v4h-4zM128 284h4v4h-4zM132 284h4v4h-4zM136 284h4v4h-4zM140 284h4v4h-4zM144 284h4v4h-4zM148 284h4v4h-4zM152 284h4v4h-4zM156 284h4v4h-4zM160 284h4v4h-4zM164 284h4v4h-4zM168 284h4v4h-4zM172 284h4v4h-4zM176 284h4v4h-4zM180 284h4v4h-4zM184 284h4v4h-4zM188 284h4v4h-4zM192 284h4v4h-4zM196 284h4v4h-4zM200 284h4v4h-4zM204 284h4v4h-4z"/><path fill="#87A1FF" d="M208 284h4v4h-4zM212 284h4v4h-4zM116 288h4v4h-4zM120 288h4v4h-4z"/><path fill="#C58BFF" d="M124 288h4v4h-4zM128 288h4v4h-4zM132 288h4v4h-4zM136 288h4v4h-4zM140 288h4v4h-4zM144 288h4v4h-4zM148 288h4v4h-4zM152 288h4v4h-4zM156 288h4v4h-4zM160 288h4v4h-4zM164 288h4v4h-4zM168 288h4v4h-4zM172 288h4v4h-4zM176 288h4v4h-4zM180 288h4v4h-4zM184 288h4v4h-4zM188 288h4v4h-4zM192 288h4v4h-4zM196 288h4v4h-4z"/><path fill="#87A1FF" d="M200 288h4v4h-4zM204 288h4v4h-4zM124 292h4v4h-4zM128 292h4v4h-4zM132 292h4v4h-4zM136 292h4v4h-4z"/><path fill="#A8D7FF" d="M140 292h4v4h-4z"/><path fill="#C58BFF" d="M144 292h4v4h-4zM148 292h4v4h-4zM152 292h4v4h-4zM156 292h4v4h-4zM160 292h4v4h-4zM164 292h4v4h-4zM168 292h4v4h-4zM172 292h4v4h-4z"/><path fill="#87A1FF" d="M176 292h4v4h-4zM180 292h4v4h-4zM184 292h4v4h-4zM188 292h4v4h-4zM192 292h4v4h-4zM196 292h4v4h-4zM140 296h4v4h-4zM144 296h4v4h-4zM148 296h4v4h-4zM152 296h4v4h-4zM156 296h4v4h-4zM160 296h4v4h-4zM164 296h4v4h-4zM168 296h4v4h-4zM172 296h4v4h-4z"/></svg>