<svg width="384" height="384" xmlns="http://www.w3.org/2000/svg" shape-rendering="crispEdges"><path fill="#01FAA4" d="M156 124h4v4h-4z"/><path fill="#49FAFF" d="M160 124h4v4h-4zM164 124h4v4h-4zM168 124h4v4h-4zM172 124h4v4h-4zM176 124h4v4h-4zM180 124h4v4h-4zM184 124h4v4h-4zM188 124h4v4h-4z"/><path fill="#49FFFF" d="M192 124h4v4h-4z"/><path fill="#AEFFFF" d="M196 124h4v4h-4zM200 124h4v4h-4zM204 124h4v4h-4zM208 124h4v4h-4zM212 124h4v4h-4zM216 124h4v4h-4zM220 124h4v4h-4z"/><path fill="#01FFA4" d="M148 128h4v4h-4z"/><path fill="#AEFFFF" d="M152 128h4v4h-4z"/><path fill="#6BCCFF" d="M156 128h4v4h-4zM160 128h4v4h-4zM164 128h4v4h-4zM168 128h4v4h-4zM172 128h4v4h-4zM176 128h4v4h-4z"/><path fill="#49FAFF" d="M180 128h4v4h-4zM184 128h4v4h-4zM188 128h4v4h-4zM192 128h4v4h-4z"/><path fill="#AEFAFF" d="M196 128h4v4h-4zM200 128h4v4h-4zM204 128h4v4h-4zM208 128h4v4h-4z"/><path fill="#AEFFFF" d="M212 128h4v4h-4zM216 128h4v4h-4zM220 128h4v4h-4zM224 128h4v4h-4zM228 128h4v4h-4z"/><path fill="#01FFA4" d="M140 132h4v4h-4z"/><path fill="#AEFFFF" d="M144 132h4v4h-4z"/><path fill="#AECCFF" d="M148 132h4v4h-4zM152 132h4v4h-4z"/><path fill="#6BCCF5" d="M156 132h4v4h-4zM160 132h4v4h-4zM164 132h4v4h-4zM168 132h4v4h-4zM172 132h4v4h-4z"/><path fill="#6BFAF5" d="M176 132h4v4h-4z"/><path fill="#49FAFF" d="M180 132h4v4h-4zM184 132h4v4h-4zM188 132h4v4h-4zM192 132h4v4h-4zM196 132h4v4h-4zM200 132h4v4h-4zM204 132h4v4h-4zM208 132h4v4h-4zM212 132h4v4h-4z"/><path fill="#AEFFFF" d="M216 132h4v4h-4zM220 132h4v4h-4zM224 132h4v4h-4zM228 132h4v4h-4zM232 132h4v4h-4z"/><path fill="#49FAFF" d="M236 132h4v4h-4z"/><path fill="#01FFA4" d="M132 136h4v4h-4z"/><path fill="#AEFFFF" d="M136 136h4v4h-4z"/><path fill="#AECCFF" d="M140 136h4v4h-4zM144 136h4v4h-4z"/><path fill="#6BCCF5" d="M148 136h4v4h-4zM152 136h4v4h-4zM156 136h4v4h-4zM160 136h4v4h-4zM164 136h4v4h-4zM168 136h4v4h-4z"/><path fill="#6BFAF5" d="M172 136h4v4h-4z"/><path fill="#49FAFF" d="M176 136h4v4h-4zM180 136h4v4h-4zM184 136h4v4h-4zM188 136h4v4h-4zM192 136h4v4h-4zM196 136h4v4h-4zM200 136h4v4h-4zM204 136h4v4h-4zM208 136h4v4h-4zM212 136h4v4h-4zM216 136h4v4h-4z"/><path fill="#AEFFFF" d="M220 136h4v4h-4zM224 136h4v4h-4zM228 136h4v4h-4zM232 136h4v4h-4z"/><path fill="#AEFAFF" d="M236 136h4v4h-4z"/><path fill="#49FFFF" d="M240 136h4v4h-4z"/><path fill="#49FAFF" d="M244 136h4v4h-4z"/><path fill="#01FFA4" d="M124 140h4v4h-4z"/><path fill="#AEFFFF" d="M128 140h4v4h-4z"/><path fill="#AECCFF" d="M132 140h4v4h-4zM136 140h4v4h-4z"/><path fill="#6BCCF5" d="M140 140h4v4h-4zM144 140h4v4h-4zM148 140h4v4h-4zM152 140h4v4h-4zM156 140h4v4h-4zM160 140h4v4h-4zM164 140h4v4h-4z"/><path fill="#6BFAF5" d="M168 140h4v4h-4z"/><path fill="#49FAFF" d="M172 140h4v4h-4zM176 140h4v4h-4zM180 140h4v4h-4zM184 140h4v4h-4zM188 140h4v4h-4zM192 140h4v4h-4zM196 140h4v4h-4zM200 140h4v4h-4zM204 140h4v4h-4zM208 140h4v4h-4zM212 140h4v4h-4zM216 140h4v4h-4zM220 140h4v4h-4z"/><path fill="#AEFFFF" d="M224 140h4v4h-4zM228 140h4v4h-4zM232 140h4v4h-4z"/><path fill="#AEFAFF" d="M236 140h4v4h-4z"/><path fill="#FFF" d="M240 140h4v4h-4z"/><path fill="#FCF" d="M244 140h4v4h-4z"/><path fill="#49FAFF" d="M248 140h4v4h-4zM252 140h4v4h-4z"/><path fill="#01FFA4" d="M116 144h4v4h-4z"/><path fill="#AEFFFF" d="M120 144h4v4h-4z"/><path fill="#AECCFF" d="M124 144h4v4h-4zM128 144h4v4h-4z"/><path fill="#6BCCF5" d="M132 144h4v4h-4zM136 144h4v4h-4zM140 144h4v4h-4zM144 144h4v4h-4zM148 144h4v4h-4zM152 144h4v4h-4zM156 144h4v4h-4zM160 144h4v4h-4zM164 144h4v4h-4zM168 144h4v4h-4z"/><path fill="#6BCCFF" d="M172 144h4v4h-4zM176 144h4v4h-4zM180 144h4v4h-4z"/><path fill="#49FAFF" d="M184 144h4v4h-4zM188 144h4v4h-4zM192 144h4v4h-4zM196 144h4v4h-4zM200 144h4v4h-4zM204 144h4v4h-4zM208 144h4v4h-4zM212 144h4v4h-4zM216 144h4v4h-4zM220 144h4v4h-4zM224 144h4v4h-4z"/><path fill="#AEFAFF" d="M228 144h4v4h-4z"/><path fill="#AEFFFF" d="M232 144h4v4h-4zM236 144h4v4h-4z"/><path fill="#FFF" d="M240 144h4v4h-4z"/><path fill="#FCF" d="M244 144h4v4h-4z"/><path fill="#6ECCF5" d="M248 144h4v4h-4z"/><path fill="#6ECCFF" d="M252 144h4v4h-4z"/><path fill="#49FAFF" d="M256 144h4v4h-4zM260 144h4v4h-4z"/><path fill="#01FFA4" d="M108 148h4v4h-4z"/><path fill="#AEFFFF" d="M112 148h4v4h-4z"/><path fill="#AECCFF" d="M116 148h4v4h-4zM120 148h4v4h-4z"/><path fill="#6BCCF5" d="M124 148h4v4h-4zM128 148h4v4h-4zM132 148h4v4h-4zM136 148h4v4h-4zM140 148h4v4h-4zM144 148h4v4h-4zM148 148h4v4h-4zM152 148h4v4h-4zM156 148h4v4h-4zM160 148h4v4h-4zM164 148h4v4h-4zM168 148h4v4h-4zM172 148h4v4h-4zM176 148h4v4h-4zM180 148h4v4h-4zM184 148h4v4h-4z"/><path fill="#6BCCFF" d="M188 148h4v4h-4zM192 148h4v4h-4zM196 148h4v4h-4z"/><path fill="#49FAFF" d="M200 148h4v4h-4zM204 148h4v4h-4zM208 148h4v4h-4zM212 148h4v4h-4zM216 148h4v4h-4zM220 148h4v4h-4z"/><path fill="#49FFFF" d="M224 148h4v4h-4z"/><path fill="#AEFFFF" d="M228 148h4v4h-4z"/><path fill="#AEFAFF" d="M232 148h4v4h-4zM236 148h4v4h-4z"/><path fill="#FFFAFF" d="M240 148h4v4h-4z"/><path fill="#FFF" d="M244 148h4v4h-4z"/><path fill="#6EFAFF" d="M248 148h4v4h-4z"/><path fill="#6ECCF5" d="M252 148h4v4h-4zM256 148h4v4h-4z"/><path fill="#6ECCFF" d="M260 148h4v4h-4z"/><path fill="#0178A4" d="M104 152h4v4h-4z"/><path fill="#6BCCF5" d="M108 152h4v4h-4z"/><path fill="#AEFFFF" d="M112 152h4v4h-4zM116 152h4v4h-4z"/><path fill="#6BCCF5" d="M120 152h4v4h-4zM124 152h4v4h-4zM128 152h4v4h-4zM132 152h4v4h-4zM136 152h4v4h-4zM140 152h4v4h-4zM144 152h4v4h-4zM148 152h4v4h-4zM152 152h4v4h-4zM156 152h4v4h-4zM160 152h4v4h-4zM164 152h4v4h-4zM168 152h4v4h-4zM172 152h4v4h-4zM176 152h4v4h-4zM180 152h4v4h-4zM184 152h4v4h-4zM188 152h4v4h-4z"/><path fill="#6BFAF5" d="M192 152h4v4h-4z"/><path fill="#6BFAFF" d="M196 152h4v4h-4z"/><path fill="#49FAFF" d="M200 152h4v4h-4zM204 152h4v4h-4zM208 152h4v4h-4zM212 152h4v4h-4z"/><path fill="#49FFFF" d="M216 152h4v4h-4z"/><path fill="#AEFFFF" d="M220 152h4v4h-4z"/><path fill="#AECCFF" d="M224 152h4v4h-4zM228 152h4v4h-4z"/><path fill="#6BCCFF" d="M232 152h4v4h-4z"/><path fill="#6BFFFF" d="M236 152h4v4h-4z"/><path fill="#AEFFFF" d="M240 152h4v4h-4zM244 152h4v4h-4z"/><path fill="#FFF" d="M248 152h4v4h-4z"/><path fill="#6EFAFF" d="M252 152h4v4h-4zM256 152h4v4h-4z"/><path fill="#6ECCF5" d="M260 152h4v4h-4z"/><path fill="#6EFAF5" d="M264 152h4v4h-4z"/><path fill="#49FAFF" d="M268 152h4v4h-4z"/><path fill="#01CCA4" d="M100 156h4v4h-4z"/><path fill="#6BCCF5" d="M104 156h4v4h-4z"/><path fill="#6B78F5" d="M108 156h4v4h-4zM112 156h4v4h-4z"/><path fill="#AECCFF" d="M116 156h4v4h-4z"/><path fill="#AEFFFF" d="M120 156h4v4h-4zM124 156h4v4h-4z"/><path fill="#6BCCF5" d="M128 156h4v4h-4zM132 156h4v4h-4zM136 156h4v4h-4zM140 156h4v4h-4zM144 156h4v4h-4zM148 156h4v4h-4zM152 156h4v4h-4zM156 156h4v4h-4zM160 156h4v4h-4zM164 156h4v4h-4zM168 156h4v4h-4zM172 156h4v4h-4zM176 156h4v4h-4zM180 156h4v4h-4z"/><path fill="#6BFAF5" d="M184 156h4v4h-4z"/><path fill="#6BFAFF" d="M188 156h4v4h-4z"/><path fill="#49FAFF" d="M192 156h4v4h-4zM196 156h4v4h-4zM200 156h4v4h-4z"/><path fill="#49FFFF" d="M204 156h4v4h-4z"/><path fill="#AEFFFF" d="M208 156h4v4h-4zM212 156h4v4h-4z"/><path fill="#AECCFF" d="M216 156h4v4h-4zM220 156h4v4h-4z"/><path fill="#6BCCF5" d="M224 156h4v4h-4zM228 156h4v4h-4zM232 156h4v4h-4z"/><path fill="#6ECCF5" d="M236 156h4v4h-4z"/><path fill="#AEFFFF" d="M240 156h4v4h-4zM244 156h4v4h-4z"/><path fill="#AEFAFF" d="M248 156h4v4h-4z"/><path fill="#AEFFFF" d="M252 156h4v4h-4z"/><path fill="#49FAFF" d="M256 156h4v4h-4zM260 156h4v4h-4z"/><path fill="#6ECCFF" d="M264 156h4v4h-4zM268 156h4v4h-4z"/><path fill="#49FAFF" d="M272 156h4v4h-4z"/><path fill="#0C0" d="M96 160h4v4h-4z"/><path fill="#6BCCF5" d="M100 160h4v4h-4zM104 160h4v4h-4zM108 160h4v4h-4zM112 160h4v4h-4z"/><path fill="#6B78F5" d="M116 160h4v4h-4zM120 160h4v4h-4z"/><path fill="#AECCFF" d="M124 160h4v4h-4z"/><path fill="#AEFFFF" d="M128 160h4v4h-4zM132 160h4v4h-4z"/><path fill="#6BCCF5" d="M136 160h4v4h-4zM140 160h4v4h-4z"/><path fill="#6ECCF5" d="M144 160h4v4h-4zM148 160h4v4h-4zM152 160h4v4h-4zM156 160h4v4h-4zM160 160h4v4h-4zM164 160h4v4h-4zM168 160h4v4h-4z"/><path fill="#6BCCF5" d="M172 160h4v4h-4z"/><path fill="#6BFAF5" d="M176 160h4v4h-4z"/><path fill="#6BFAFF" d="M180 160h4v4h-4z"/><path fill="#49FAFF" d="M184 160h4v4h-4zM188 160h4v4h-4zM192 160h4v4h-4zM196 160h4v4h-4z"/><path fill="#49FFFF" d="M200 160h4v4h-4z"/><path fill="#AEFAFF" d="M204 160h4v4h-4z"/><path fill="#AEB5FF" d="M208 160h4v4h-4zM212 160h4v4h-4z"/><path fill="#6EB5F5" d="M216 160h4v4h-4z"/><path fill="#6ECCF5" d="M220 160h4v4h-4zM224 160h4v4h-4z"/><path fill="#6BCCF5" d="M228 160h4v4h-4zM232 160h4v4h-4z"/><path fill="#6ECCF5" d="M236 160h4v4h-4z"/><path fill="#6EFAFF" d="M240 160h4v4h-4z"/><path fill="#AEFAFF" d="M244 160h4v4h-4z"/><path fill="#49FAFF" d="M248 160h4v4h-4zM252 160h4v4h-4z"/><path fill="#AEFFFF" d="M256 160h4v4h-4z"/><path fill="#49FAFF" d="M260 160h4v4h-4z"/><path fill="#6BFAFF" d="M264 160h4v4h-4z"/><path fill="#6ECCF5" d="M268 160h4v4h-4zM272 160h4v4h-4z"/><path fill="#49FAFF" d="M276 160h4v4h-4zM280 160h4v4h-4z"/><path fill="#0C0" d="M92 164h4v4h-4z"/><path fill="#5FFAF5" d="M96 164h4v4h-4z"/><path fill="#6B91F5" d="M100 164h4v4h-4zM104 164h4v4h-4zM108 164h4v4h-4zM112 164h4v4h-4z"/><path fill="#5F91CA" d="M116 164h4v4h-4zM120 164h4v4h-4z"/><path fill="#5F78CA" d="M124 164h4v4h-4z"/><path fill="#6B78F5" d="M128 164h4v4h-4z"/><path fill="#AECCFF" d="M132 164h4v4h-4z"/><path fill="#AEFFFF" d="M136 164h4v4h-4zM140 164h4v4h-4zM144 164h4v4h-4zM148 164h4v4h-4zM152 164h4v4h-4zM156 164h4v4h-4zM160 164h4v4h-4zM164 164h4v4h-4z"/><path fill="#6EFAFF" d="M168 164h4v4h-4z"/><path fill="#6BFAFF" d="M172 164h4v4h-4z"/><path fill="#49FAFF" d="M176 164h4v4h-4zM180 164h4v4h-4zM184 164h4v4h-4zM188 164h4v4h-4z"/><path fill="#49FFFF" d="M192 164h4v4h-4z"/><path fill="#AEFFFF" d="M196 164h4v4h-4z"/><path fill="#AEB5FF" d="M200 164h4v4h-4z"/><path fill="#6EFAFF" d="M204 164h4v4h-4z"/><path fill="#49FAFF" d="M208 164h4v4h-4z"/><path fill="#6EB5D4" d="M212 164h4v4h-4zM216 164h4v4h-4zM220 164h4v4h-4z"/><path fill="#6EB5F5" d="M224 164h4v4h-4z"/><path fill="#6ECCF5" d="M228 164h4v4h-4z"/><path fill="#6BCCF5" d="M232 164h4v4h-4z"/><path fill="#6BB5F5" d="M236 164h4v4h-4z"/><path fill="#6EB5F5" d="M240 164h4v4h-4z"/><path fill="#6EFAFF" d="M244 164h4v4h-4z"/><path fill="#49FAFF" d="M248 164h4v4h-4zM252 164h4v4h-4z"/><path fill="#6BCCFF" d="M256 164h4v4h-4z"/><path fill="#AEFFFF" d="M260 164h4v4h-4z"/><path fill="#6BFAFF" d="M264 164h4v4h-4z"/><path fill="#6BCCFF" d="M268 164h4v4h-4z"/><path fill="#6EFAF5" d="M272 164h4v4h-4z"/><path fill="#6ECCFF" d="M276 164h4v4h-4zM280 164h4v4h-4z"/><path fill="#49FAFF" d="M284 164h4v4h-4zM288 164h4v4h-4z"/><path fill="#0C0" d="M88 168h4v4h-4z"/><path fill="#5F91F5" d="M92 168h4v4h-4zM96 168h4v4h-4z"/><path fill="#5F91CA" d="M100 168h4v4h-4zM104 168h4v4h-4zM108 168h4v4h-4zM112 168h4v4h-4zM116 168h4v4h-4zM120 168h4v4h-4zM124 168h4v4h-4z"/><path fill="#5FB5CA" d="M128 168h4v4h-4z"/><path fill="#6B78D4" d="M132 168h4v4h-4z"/><path fill="#6BFAFF" d="M136 168h4v4h-4z"/><path fill="#AEB5FF" d="M140 168h4v4h-4zM144 168h4v4h-4z"/><path fill="#AE91FF" d="M148 168h4v4h-4zM152 168h4v4h-4zM156 168h4v4h-4zM160 168h4v4h-4zM164 168h4v4h-4z"/><path fill="#5F91FF" d="M168 168h4v4h-4z"/><path fill="#5F78FF" d="M172 168h4v4h-4z"/><path fill="#5FB5FF" d="M176 168h4v4h-4z"/><path fill="#6EB5FF" d="M180 168h4v4h-4zM184 168h4v4h-4zM188 168h4v4h-4z"/><path fill="#6E91FF" d="M192 168h4v4h-4z"/><path fill="#AEB5FF" d="M196 168h4v4h-4z"/><path fill="#6EB5D4" d="M200 168h4v4h-4z"/><path fill="#6EFAFF" d="M204 168h4v4h-4z"/><path fill="#49FAFF" d="M208 168h4v4h-4z"/><path fill="#6EB5FF" d="M212 168h4v4h-4z"/><path fill="#6EB5D4" d="M216 168h4v4h-4zM220 168h4v4h-4zM224 168h4v4h-4zM228 168h4v4h-4z"/><path fill="#6E91F5" d="M232 168h4v4h-4z"/><path fill="#6B91D4" d="M236 168h4v4h-4zM240 168h4v4h-4z"/><path fill="#5FB5D4" d="M244 168h4v4h-4z"/><path fill="#5FFAFF" d="M248 168h4v4h-4z"/><path fill="#5FCCFF" d="M252 168h4v4h-4z"/><path fill="#6BCCF5" d="M256 168h4v4h-4zM260 168h4v4h-4z"/><path fill="#6BFAFF" d="M264 168h4v4h-4z"/><path fill="#49FAFF" d="M268 168h4v4h-4z"/><path fill="#6BCCFF" d="M272 168h4v4h-4z"/><path fill="#6BCCF5" d="M276 168h4v4h-4z"/><path fill="#6ECCF5" d="M280 168h4v4h-4zM284 168h4v4h-4z"/><path fill="#6ECCFF" d="M288 168h4v4h-4z"/><path fill="#6EFFFF" d="M292 168h4v4h-4z"/><path fill="#009100" d="M84 172h4v4h-4z"/><path fill="#5F91CA" d="M88 172h4v4h-4zM92 172h4v4h-4z"/><path fill="#5FCCCA" d="M96 172h4v4h-4z"/><path fill="#5F91CA" d="M100 172h4v4h-4zM104 172h4v4h-4zM108 172h4v4h-4zM112 172h4v4h-4zM116 172h4v4h-4zM120 172h4v4h-4z"/><path fill="#5FB5CA" d="M124 172h4v4h-4z"/><path fill="#6EB5D4" d="M128 172h4v4h-4z"/><path fill="#6E91D4" d="M132 172h4v4h-4z"/><path fill="#5FFAFF" d="M136 172h4v4h-4z"/><path fill="#5F91FF" d="M140 172h4v4h-4z"/><path fill="#6E91D4" d="M144 172h4v4h-4z"/><path fill="#5F91CA" d="M148 172h4v4h-4zM152 172h4v4h-4zM156 172h4v4h-4zM160 172h4v4h-4zM164 172h4v4h-4z"/><path fill="#5FB5CA" d="M168 172h4v4h-4z"/><path fill="#5F78CA" d="M172 172h4v4h-4z"/><path fill="#6EB5D4" d="M176 172h4v4h-4zM180 172h4v4h-4zM184 172h4v4h-4zM188 172h4v4h-4zM192 172h4v4h-4zM196 172h4v4h-4z"/><path fill="#6ECCD4" d="M200 172h4v4h-4z"/><path fill="#6EFAFF" d="M204 172h4v4h-4z"/><path fill="#49B5FF" d="M208 172h4v4h-4z"/><path fill="#6EFAFF" d="M212 172h4v4h-4z"/><path fill="#6EB5D4" d="M216 172h4v4h-4zM220 172h4v4h-4zM224 172h4v4h-4zM228 172h4v4h-4z"/><path fill="#6E91D4" d="M232 172h4v4h-4z"/><path fill="#5F91CA" d="M236 172h4v4h-4zM240 172h4v4h-4zM244 172h4v4h-4z"/><path fill="#5F91D4" d="M248 172h4v4h-4z"/><path fill="#5F91F5" d="M252 172h4v4h-4zM256 172h4v4h-4z"/><path fill="#6B91F5" d="M260 172h4v4h-4z"/><path fill="#6BFFFF" d="M264 172h4v4h-4z"/><path fill="#49FAFF" d="M268 172h4v4h-4zM272 172h4v4h-4z"/><path fill="#6BCCF5" d="M276 172h4v4h-4zM280 172h4v4h-4zM284 172h4v4h-4z"/><path fill="#6ECCF5" d="M288 172h4v4h-4z"/><path fill="#AEFFFF" d="M292 172h4v4h-4z"/><path fill="#5F91CA" d="M84 176h4v4h-4z"/><path fill="#5FB5CA" d="M88 176h4v4h-4z"/><path fill="#6BB5D4" d="M92 176h4v4h-4z"/><path fill="#6B91D4" d="M96 176h4v4h-4z"/><path fill="#5F91CA" d="M100 176h4v4h-4zM104 176h4v4h-4zM108 176h4v4h-4zM112 176h4v4h-4zM116 176h4v4h-4z"/><path fill="#5FB5CA" d="M120 176h4v4h-4z"/><path fill="#6EB5D4" d="M124 176h4v4h-4zM128 176h4v4h-4z"/><path fill="#6EFAD4" d="M132 176h4v4h-4z"/><path fill="#5F91FF" d="M136 176h4v4h-4z"/><path fill="#5FB5D4" d="M140 176h4v4h-4z"/><path fill="#5F91CA" d="M144 176h4v4h-4zM148 176h4v4h-4zM152 176h4v4h-4zM156 176h4v4h-4zM160 176h4v4h-4zM164 176h4v4h-4z"/><path fill="#6EB5D4" d="M168 176h4v4h-4z"/><path fill="#6ECCD4" d="M172 176h4v4h-4z"/><path fill="#6B78D4" d="M176 176h4v4h-4z"/><path fill="#6EB5D4" d="M180 176h4v4h-4zM184 176h4v4h-4zM188 176h4v4h-4zM192 176h4v4h-4z"/><path fill="#6ECCD4" d="M196 176h4v4h-4z"/><path fill="#6ECCF5" d="M200 176h4v4h-4z"/><path fill="#6BFAFF" d="M204 176h4v4h-4z"/><path fill="#6ECCFF" d="M208 176h4v4h-4z"/><path fill="#6EFAFF" d="M212 176h4v4h-4z"/><path fill="#6EB5FF" d="M216 176h4v4h-4z"/><path fill="#6EB5D4" d="M220 176h4v4h-4zM224 176h4v4h-4zM228 176h4v4h-4zM232 176h4v4h-4z"/><path fill="#5F91CA" d="M236 176h4v4h-4zM240 176h4v4h-4zM244 176h4v4h-4zM248 176h4v4h-4zM252 176h4v4h-4zM256 176h4v4h-4zM260 176h4v4h-4zM264 176h4v4h-4z"/><path fill="#AEFFFF" d="M268 176h4v4h-4z"/><path fill="#49FAFF" d="M272 176h4v4h-4zM276 176h4v4h-4z"/><path fill="#6B91F5" d="M280 176h4v4h-4zM284 176h4v4h-4z"/><path fill="#6BB5F5" d="M288 176h4v4h-4z"/><path fill="#AEFFFF" d="M292 176h4v4h-4z"/><path fill="#00FA00" d="M80 180h4v4h-4z"/><path fill="#5FB5D4" d="M84 180h4v4h-4z"/><path fill="#6EB5D4" d="M88 180h4v4h-4zM92 180h4v4h-4z"/><path fill="#6B91D4" d="M96 180h4v4h-4z"/><path fill="#5F91CA" d="M100 180h4v4h-4zM104 180h4v4h-4zM108 180h4v4h-4zM112 180h4v4h-4zM116 180h4v4h-4z"/><path fill="#6EB5D4" d="M120 180h4v4h-4zM124 180h4v4h-4z"/><path fill="#6E91D4" d="M128 180h4v4h-4z"/><path fill="#5FFAFF" d="M132 180h4v4h-4z"/><path fill="#5F91FF" d="M136 180h4v4h-4z"/><path fill="#6EB5D4" d="M140 180h4v4h-4zM144 180h4v4h-4z"/><path fill="#5F91CA" d="M148 180h4v4h-4zM152 180h4v4h-4zM156 180h4v4h-4zM160 180h4v4h-4zM164 180h4v4h-4z"/><path fill="#6BCCD4" d="M168 180h4v4h-4z"/><path fill="#6EB5F5" d="M172 180h4v4h-4z"/><path fill="#6B78D4" d="M176 180h4v4h-4z"/><path fill="#6EB5D4" d="M180 180h4v4h-4zM184 180h4v4h-4zM188 180h4v4h-4zM192 180h4v4h-4z"/><path fill="#6ECCF5" d="M196 180h4v4h-4zM200 180h4v4h-4z"/><path fill="#6BFAFF" d="M204 180h4v4h-4z"/><path fill="#6EB5FF" d="M208 180h4v4h-4z"/><path fill="#6EB5F5" d="M212 180h4v4h-4z"/><path fill="#6EFAFF" d="M216 180h4v4h-4z"/><path fill="#6E91D4" d="M220 180h4v4h-4zM224 180h4v4h-4zM228 180h4v4h-4zM232 180h4v4h-4z"/><path fill="#5F91CA" d="M236 180h4v4h-4zM240 180h4v4h-4z"/><path fill="#5F78CA" d="M244 180h4v4h-4zM248 180h4v4h-4z"/><path fill="#5F91CA" d="M252 180h4v4h-4zM256 180h4v4h-4zM260 180h4v4h-4zM264 180h4v4h-4zM268 180h4v4h-4z"/><path fill="#AEFFFF" d="M272 180h4v4h-4z"/><path fill="#49FAFF" d="M276 180h4v4h-4zM280 180h4v4h-4z"/><path fill="#5F91CA" d="M284 180h4v4h-4z"/><path fill="#6BFFD4" d="M288 180h4v4h-4z"/><path fill="#AEB5FF" d="M292 180h4v4h-4z"/><path fill="#00FA00" d="M76 184h4v4h-4z"/><path fill="#5FB5FF" d="M80 184h4v4h-4z"/><path fill="#6EB5D4" d="M84 184h4v4h-4z"/><path fill="#6EFAD4" d="M88 184h4v4h-4z"/><path fill="#6EB5D4" d="M92 184h4v4h-4z"/><path fill="#5F91D4" d="M96 184h4v4h-4z"/><path fill="#5F91CA" d="M100 184h4v4h-4z"/><path fill="#5F78CA" d="M104 184h4v4h-4zM108 184h4v4h-4z"/><path fill="#5F91CA" d="M112 184h4v4h-4zM116 184h4v4h-4z"/><path fill="#6EB5D4" d="M120 184h4v4h-4zM124 184h4v4h-4z"/><path fill="#6EFAD4" d="M128 184h4v4h-4z"/><path fill="#5F78FF" d="M132 184h4v4h-4z"/><path fill="#5F78CA" d="M136 184h4v4h-4z"/><path fill="#6EB5D4" d="M140 184h4v4h-4zM144 184h4v4h-4zM148 184h4v4h-4z"/><path fill="#5F91CA" d="M152 184h4v4h-4zM156 184h4v4h-4zM160 184h4v4h-4z"/><path fill="#5FCCCA" d="M164 184h4v4h-4z"/><path fill="#6B91F5" d="M168 184h4v4h-4z"/><path fill="#6EB5D4" d="M172 184h4v4h-4zM176 184h4v4h-4z"/><path fill="#6E78D4" d="M180 184h4v4h-4z"/><path fill="#6EB5D4" d="M184 184h4v4h-4zM188 184h4v4h-4zM192 184h4v4h-4zM196 184h4v4h-4z"/><path fill="#6ECCF5" d="M200 184h4v4h-4z"/><path fill="#6BFAFF" d="M204 184h4v4h-4z"/><path fill="#6EB5FF" d="M208 184h4v4h-4z"/><path fill="#6E91D4" d="M212 184h4v4h-4z"/><path fill="#5FFAFF" d="M216 184h4v4h-4z"/><path fill="#5F91FF" d="M220 184h4v4h-4z"/><path fill="#5F91CA" d="M224 184h4v4h-4z"/><path fill="#5F78CA" d="M228 184h4v4h-4z"/><path fill="#5F91CA" d="M232 184h4v4h-4zM236 184h4v4h-4z"/><path fill="#5F78CA" d="M240 184h4v4h-4zM244 184h4v4h-4z"/><path fill="#5F91CA" d="M248 184h4v4h-4zM252 184h4v4h-4zM256 184h4v4h-4zM260 184h4v4h-4zM264 184h4v4h-4zM268 184h4v4h-4zM272 184h4v4h-4z"/><path fill="#AEFFFF" d="M276 184h4v4h-4z"/><path fill="#49FAFF" d="M280 184h4v4h-4z"/><path fill="#5FFFFF" d="M284 184h4v4h-4z"/><path fill="#AECCFF" d="M288 184h4v4h-4z"/><path fill="#6ECCF5" d="M292 184h4v4h-4z"/><path fill="#00FA00" d="M72 188h4v4h-4z"/><path fill="#5FB5FF" d="M76 188h4v4h-4z"/><path fill="#6BB5D4" d="M80 188h4v4h-4z"/><path fill="#6EB5D4" d="M84 188h4v4h-4z"/><path fill="#6EFAFF" d="M88 188h4v4h-4z"/><path fill="#5F91FF" d="M92 188h4v4h-4z"/><path fill="#5F91CA" d="M96 188h4v4h-4z"/><path fill="#5F78CA" d="M100 188h4v4h-4zM104 188h4v4h-4zM108 188h4v4h-4zM112 188h4v4h-4z"/><path fill="#5F91CA" d="M116 188h4v4h-4zM120 188h4v4h-4z"/><path fill="#6E78D4" d="M124 188h4v4h-4z"/><path fill="#5FFAFF" d="M128 188h4v4h-4z"/><path fill="#5F78FF" d="M132 188h4v4h-4z"/><path fill="#5F78CA" d="M136 188h4v4h-4z"/><path fill="#6EB5D4" d="M140 188h4v4h-4zM144 188h4v4h-4zM148 188h4v4h-4zM152 188h4v4h-4z"/><path fill="#6BCCD4" d="M156 188h4v4h-4z"/><path fill="#6BCCF5" d="M160 188h4v4h-4z"/><path fill="#6B91F5" d="M164 188h4v4h-4z"/><path fill="#5F91CA" d="M168 188h4v4h-4zM172 188h4v4h-4z"/><path fill="#6EB5D4" d="M176 188h4v4h-4z"/><path fill="#6E78D4" d="M180 188h4v4h-4z"/><path fill="#6EB5D4" d="M184 188h4v4h-4zM188 188h4v4h-4zM192 188h4v4h-4zM196 188h4v4h-4zM200 188h4v4h-4z"/><path fill="#6EFAFF" d="M204 188h4v4h-4z"/><path fill="#5F91FF" d="M208 188h4v4h-4z"/><path fill="#5F91CA" d="M212 188h4v4h-4zM216 188h4v4h-4z"/><path fill="#5FFAFF" d="M220 188h4v4h-4z"/><path fill="#5F91CA" d="M224 188h4v4h-4zM228 188h4v4h-4zM232 188h4v4h-4zM236 188h4v4h-4z"/><path fill="#5F78CA" d="M240 188h4v4h-4z"/><path fill="#5F91CA" d="M244 188h4v4h-4z"/><path fill="#5FB5CA" d="M248 188h4v4h-4z"/><path fill="#5F91CA" d="M252 188h4v4h-4z"/><path fill="#5F78CA" d="M256 188h4v4h-4zM260 188h4v4h-4z"/><path fill="#5F91CA" d="M264 188h4v4h-4zM268 188h4v4h-4zM272 188h4v4h-4zM276 188h4v4h-4z"/><path fill="#AEFFFF" d="M280 188h4v4h-4z"/><path fill="#AE91FF" d="M284 188h4v4h-4z"/><path fill="#6BCCF5" d="M288 188h4v4h-4z"/><path fill="#00FA00" d="M68 192h4v4h-4z"/><path fill="#5F91FF" d="M72 192h4v4h-4z"/><path fill="#6BB5D4" d="M76 192h4v4h-4z"/><path fill="#6EB5D4" d="M80 192h4v4h-4z"/><path fill="#6E91D4" d="M84 192h4v4h-4z"/><path fill="#5F91D4" d="M88 192h4v4h-4z"/><path fill="#5F91CA" d="M92 192h4v4h-4z"/><path fill="#5F78CA" d="M96 192h4v4h-4zM100 192h4v4h-4zM104 192h4v4h-4zM108 192h4v4h-4z"/><path fill="#5F91CA" d="M112 192h4v4h-4zM116 192h4v4h-4zM120 192h4v4h-4z"/><path fill="#5FFACA" d="M124 192h4v4h-4z"/><path fill="#5F78FF" d="M128 192h4v4h-4z"/><path fill="#5F78CA" d="M132 192h4v4h-4zM136 192h4v4h-4z"/><path fill="#6EB5D4" d="M140 192h4v4h-4zM144 192h4v4h-4zM148 192h4v4h-4z"/><path fill="#6ECCD4" d="M152 192h4v4h-4z"/><path fill="#6BFAF5" d="M156 192h4v4h-4z"/><path fill="#6B91F5" d="M160 192h4v4h-4z"/><path fill="#5F91CA" d="M164 192h4v4h-4zM168 192h4v4h-4z"/><path fill="#5F78CA" d="M172 192h4v4h-4z"/><path fill="#5F91CA" d="M176 192h4v4h-4z"/><path fill="#6EB5D4" d="M180 192h4v4h-4z"/><path fill="#6E78D4" d="M184 192h4v4h-4z"/><path fill="#6EB5D4" d="M188 192h4v4h-4zM192 192h4v4h-4zM196 192h4v4h-4zM200 192h4v4h-4z"/><path fill="#6EFAFF" d="M204 192h4v4h-4z"/><path fill="#5F91FF" d="M208 192h4v4h-4z"/><path fill="#5F91CA" d="M212 192h4v4h-4zM216 192h4v4h-4z"/><path fill="#5FFAFF" d="M220 192h4v4h-4z"/><path fill="#5F91FF" d="M224 192h4v4h-4z"/><path fill="#5F91CA" d="M228 192h4v4h-4zM232 192h4v4h-4zM236 192h4v4h-4z"/><path fill="#5F78CA" d="M240 192h4v4h-4zM244 192h4v4h-4z"/><path fill="#6EB5D4" d="M248 192h4v4h-4z"/><path fill="#6E78D4" d="M252 192h4v4h-4z"/><path fill="#5F78CA" d="M256 192h4v4h-4zM260 192h4v4h-4z"/><path fill="#5F91CA" d="M264 192h4v4h-4zM268 192h4v4h-4zM272 192h4v4h-4z"/><path fill="#5FFFCA" d="M276 192h4v4h-4z"/><path fill="#AE91FF" d="M280 192h4v4h-4z"/><path fill="#6BCCF5" d="M284 192h4v4h-4z"/><path fill="#6BB5F5" d="M288 192h4v4h-4z"/><path fill="#00FA00" d="M64 196h4v4h-4z"/><path fill="#5F91FF" d="M68 196h4v4h-4z"/><path fill="#5FB5D4" d="M72 196h4v4h-4z"/><path fill="#6EB5D4" d="M76 196h4v4h-4zM80 196h4v4h-4z"/><path fill="#6E78D4" d="M84 196h4v4h-4z"/><path fill="#5F78CA" d="M88 196h4v4h-4zM92 196h4v4h-4zM96 196h4v4h-4zM100 196h4v4h-4zM104 196h4v4h-4zM108 196h4v4h-4z"/><path fill="#5F91CA" d="M112 196h4v4h-4zM116 196h4v4h-4z"/><path fill="#5F78CA" d="M120 196h4v4h-4z"/><path fill="#5FFAFF" d="M124 196h4v4h-4z"/><path fill="#5F78FF" d="M128 196h4v4h-4z"/><path fill="#5F78CA" d="M132 196h4v4h-4zM136 196h4v4h-4z"/><path fill="#6EB5D4" d="M140 196h4v4h-4zM144 196h4v4h-4z"/><path fill="#6ECCD4" d="M148 196h4v4h-4z"/><path fill="#6BCCF5" d="M152 196h4v4h-4z"/><path fill="#6BFAFF" d="M156 196h4v4h-4z"/><path fill="#5FFAFF" d="M160 196h4v4h-4z"/><path fill="#5FCCF5" d="M164 196h4v4h-4z"/><path fill="#5F91CA" d="M168 196h4v4h-4z"/><path fill="#5F78CA" d="M172 196h4v4h-4zM176 196h4v4h-4zM180 196h4v4h-4zM184 196h4v4h-4z"/><path fill="#6EB5D4" d="M188 196h4v4h-4zM192 196h4v4h-4zM196 196h4v4h-4zM200 196h4v4h-4z"/><path fill="#6ECCF5" d="M204 196h4v4h-4z"/><path fill="#5F91F5" d="M208 196h4v4h-4z"/><path fill="#5F91CA" d="M212 196h4v4h-4zM216 196h4v4h-4z"/><path fill="#5F78CA" d="M220 196h4v4h-4z"/><path fill="#5FCCF5" d="M224 196h4v4h-4z"/><path fill="#5F91CA" d="M228 196h4v4h-4zM232 196h4v4h-4zM236 196h4v4h-4z"/><path fill="#5F78CA" d="M240 196h4v4h-4zM244 196h4v4h-4zM248 196h4v4h-4zM252 196h4v4h-4zM256 196h4v4h-4zM260 196h4v4h-4z"/><path fill="#5F91CA" d="M264 196h4v4h-4zM268 196h4v4h-4z"/><path fill="#5FFFCA" d="M272 196h4v4h-4z"/><path fill="#AE91FF" d="M276 196h4v4h-4z"/><path fill="#5F78CA" d="M280 196h4v4h-4z"/><path fill="#6BCCF5" d="M284 196h4v4h-4z"/><path fill="#00FA00" d="M60 200h4v4h-4z"/><path fill="#5FB5FF" d="M64 200h4v4h-4z"/><path fill="#6BB5D4" d="M68 200h4v4h-4z"/><path fill="#6EB5D4" d="M72 200h4v4h-4zM76 200h4v4h-4z"/><path fill="#6E78D4" d="M80 200h4v4h-4z"/><path fill="#5F78CA" d="M84 200h4v4h-4zM88 200h4v4h-4zM92 200h4v4h-4zM96 200h4v4h-4z"/><path fill="#5F91CA" d="M100 200h4v4h-4zM104 200h4v4h-4z"/><path fill="#5F78CA" d="M108 200h4v4h-4zM112 200h4v4h-4zM116 200h4v4h-4zM120 200h4v4h-4z"/><path fill="#5FFAFF" d="M124 200h4v4h-4z"/><path fill="#5F78FF" d="M128 200h4v4h-4z"/><path fill="#5F78CA" d="M132 200h4v4h-4z"/><path fill="#5F91CA" d="M136 200h4v4h-4z"/><path fill="#6EB5D4" d="M140 200h4v4h-4z"/><path fill="#6ECCD4" d="M144 200h4v4h-4z"/><path fill="#6BCCF5" d="M148 200h4v4h-4zM152 200h4v4h-4zM156 200h4v4h-4z"/><path fill="#6BCCFF" d="M160 200h4v4h-4z"/><path fill="#6BCCF5" d="M164 200h4v4h-4zM168 200h4v4h-4z"/><path fill="#5FCCF5" d="M172 200h4v4h-4zM176 200h4v4h-4z"/><path fill="#5F91CA" d="M180 200h4v4h-4zM184 200h4v4h-4z"/><path fill="#5F78CA" d="M188 200h4v4h-4z"/><path fill="#6EB5D4" d="M192 200h4v4h-4zM196 200h4v4h-4zM200 200h4v4h-4z"/><path fill="#6ECCF5" d="M204 200h4v4h-4z"/><path fill="#6BB5F5" d="M208 200h4v4h-4z"/><path fill="#5F91CA" d="M212 200h4v4h-4z"/><path fill="#5F78CA" d="M216 200h4v4h-4zM220 200h4v4h-4z"/><path fill="#6BCCF5" d="M224 200h4v4h-4z"/><path fill="#6B78F5" d="M228 200h4v4h-4z"/><path fill="#5F78CA" d="M232 200h4v4h-4zM236 200h4v4h-4zM240 200h4v4h-4zM244 200h4v4h-4zM248 200h4v4h-4zM252 200h4v4h-4zM256 200h4v4h-4zM260 200h4v4h-4zM264 200h4v4h-4z"/><path fill="#5FFACA" d="M268 200h4v4h-4z"/><path fill="#5F78FF" d="M272 200h4v4h-4z"/><path fill="#5F91CA" d="M276 200h4v4h-4z"/><path fill="#5FCCCA" d="M280 200h4v4h-4z"/><path fill="#6BB5F5" d="M284 200h4v4h-4z"/><path fill="#00FA00" d="M56 204h4v4h-4z"/><path fill="#5FFAFF" d="M60 204h4v4h-4z"/><path fill="#6BB5FF" d="M64 204h4v4h-4z"/><path fill="#6EB5D4" d="M68 204h4v4h-4z"/><path fill="#6E91D4" d="M72 204h4v4h-4zM76 204h4v4h-4z"/><path fill="#5F78CA" d="M80 204h4v4h-4zM84 204h4v4h-4zM88 204h4v4h-4zM92 204h4v4h-4zM96 204h4v4h-4z"/><path fill="#5F91CA" d="M100 204h4v4h-4zM104 204h4v4h-4z"/><path fill="#5F78CA" d="M108 204h4v4h-4zM112 204h4v4h-4zM116 204h4v4h-4z"/><path fill="#5FFACA" d="M120 204h4v4h-4z"/><path fill="#5F78FF" d="M124 204h4v4h-4z"/><path fill="#5F78CA" d="M128 204h4v4h-4z"/><path fill="#5F91CA" d="M132 204h4v4h-4zM136 204h4v4h-4z"/><path fill="#6EB5D4" d="M140 204h4v4h-4z"/><path fill="#6ECCF5" d="M144 204h4v4h-4z"/><path fill="#6BCCF5" d="M148 204h4v4h-4zM152 204h4v4h-4zM156 204h4v4h-4zM160 204h4v4h-4zM164 204h4v4h-4zM168 204h4v4h-4zM172 204h4v4h-4zM176 204h4v4h-4zM180 204h4v4h-4zM184 204h4v4h-4z"/><path fill="#5F78CA" d="M188 204h4v4h-4z"/><path fill="#6EB5D4" d="M192 204h4v4h-4zM196 204h4v4h-4zM200 204h4v4h-4z"/><path fill="#6ECCF5" d="M204 204h4v4h-4z"/><path fill="#6EB5F5" d="M208 204h4v4h-4z"/><path fill="#6E78D4" d="M212 204h4v4h-4z"/><path fill="#5F78CA" d="M216 204h4v4h-4zM220 204h4v4h-4zM224 204h4v4h-4z"/><path fill="#6BCCF5" d="M228 204h4v4h-4z"/><path fill="#5F78CA" d="M232 204h4v4h-4zM236 204h4v4h-4zM240 204h4v4h-4zM244 204h4v4h-4zM248 204h4v4h-4zM252 204h4v4h-4zM256 204h4v4h-4zM260 204h4v4h-4z"/><path fill="#5FFACA" d="M264 204h4v4h-4z"/><path fill="#5F78FF" d="M268 204h4v4h-4z"/><path fill="#5F78CA" d="M272 204h4v4h-4z"/><path fill="#5F91CA" d="M276 204h4v4h-4z"/><path fill="#6BCCF5" d="M280 204h4v4h-4z"/><path fill="#00FA00" d="M52 208h4v4h-4z"/><path fill="#5F78FF" d="M56 208h4v4h-4z"/><path fill="#5FB5FF" d="M60 208h4v4h-4z"/><path fill="#6EFAFF" d="M64 208h4v4h-4zM68 208h4v4h-4z"/><path fill="#5F91D4" d="M72 208h4v4h-4z"/><path fill="#5F91CA" d="M76 208h4v4h-4z"/><path fill="#5F78CA" d="M80 208h4v4h-4zM84 208h4v4h-4zM88 208h4v4h-4zM92 208h4v4h-4zM96 208h4v4h-4z"/><path fill="#5F91CA" d="M100 208h4v4h-4zM104 208h4v4h-4z"/><path fill="#5F78CA" d="M108 208h4v4h-4zM112 208h4v4h-4zM116 208h4v4h-4z"/><path fill="#5FFAFF" d="M120 208h4v4h-4z"/><path fill="#5F78FF" d="M124 208h4v4h-4z"/><path fill="#5F78CA" d="M128 208h4v4h-4z"/><path fill="#5F91CA" d="M132 208h4v4h-4z"/><path fill="#5FCCCA" d="M136 208h4v4h-4z"/><path fill="#6BCCF5" d="M140 208h4v4h-4zM144 208h4v4h-4zM148 208h4v4h-4zM152 208h4v4h-4zM156 208h4v4h-4zM160 208h4v4h-4zM164 208h4v4h-4zM168 208h4v4h-4zM172 208h4v4h-4zM176 208h4v4h-4zM180 208h4v4h-4zM184 208h4v4h-4z"/><path fill="#6B91F5" d="M188 208h4v4h-4z"/><path fill="#5F78CA" d="M192 208h4v4h-4z"/><path fill="#6EB5D4" d="M196 208h4v4h-4zM200 208h4v4h-4z"/><path fill="#6ECCF5" d="M204 208h4v4h-4z"/><path fill="#6EB5F5" d="M208 208h4v4h-4z"/><path fill="#6E78D4" d="M212 208h4v4h-4z"/><path fill="#5F78CA" d="M216 208h4v4h-4zM220 208h4v4h-4zM224 208h4v4h-4z"/><path fill="#6BCCF5" d="M228 208h4v4h-4z"/><path fill="#6B78F5" d="M232 208h4v4h-4z"/><path fill="#5F78CA" d="M236 208h4v4h-4z"/><path fill="#5F91CA" d="M240 208h4v4h-4zM244 208h4v4h-4z"/><path fill="#5F78CA" d="M248 208h4v4h-4zM252 208h4v4h-4zM256 208h4v4h-4zM260 208h4v4h-4zM264 208h4v4h-4zM268 208h4v4h-4zM272 208h4v4h-4z"/><path fill="#5FCCCA" d="M276 208h4v4h-4z"/><path fill="#6BB5F5" d="M280 208h4v4h-4z"/><path fill="#5FB5D4" d="M52 212h4v4h-4z"/><path fill="#5F91D4" d="M56 212h4v4h-4z"/><path fill="#5F78CA" d="M60 212h4v4h-4z"/><path fill="#5F78D4" d="M64 212h4v4h-4z"/><path fill="#5F78FF" d="M68 212h4v4h-4z"/><path fill="#5FFAFF" d="M72 212h4v4h-4zM76 212h4v4h-4z"/><path fill="#5F78CA" d="M80 212h4v4h-4zM84 212h4v4h-4zM88 212h4v4h-4zM92 212h4v4h-4zM96 212h4v4h-4zM100 212h4v4h-4zM104 212h4v4h-4zM108 212h4v4h-4zM112 212h4v4h-4z"/><path fill="#5FFACA" d="M116 212h4v4h-4z"/><path fill="#5F78FF" d="M120 212h4v4h-4z"/><path fill="#5F78CA" d="M124 212h4v4h-4zM128 212h4v4h-4z"/><path fill="#5FCCCA" d="M132 212h4v4h-4z"/><path fill="#6BFAF5" d="M136 212h4v4h-4z"/><path fill="#6BCCF5" d="M140 212h4v4h-4zM144 212h4v4h-4zM148 212h4v4h-4zM152 212h4v4h-4zM156 212h4v4h-4zM160 212h4v4h-4zM164 212h4v4h-4zM168 212h4v4h-4zM172 212h4v4h-4zM176 212h4v4h-4zM180 212h4v4h-4zM184 212h4v4h-4zM188 212h4v4h-4z"/><path fill="#5F78CA" d="M192 212h4v4h-4z"/><path fill="#6EB5D4" d="M196 212h4v4h-4zM200 212h4v4h-4z"/><path fill="#6ECCF5" d="M204 212h4v4h-4z"/><path fill="#6B78F5" d="M208 212h4v4h-4z"/><path fill="#5F78CA" d="M212 212h4v4h-4zM216 212h4v4h-4z"/><path fill="#5F91CA" d="M220 212h4v4h-4z"/><path fill="#5F78CA" d="M224 212h4v4h-4zM228 212h4v4h-4z"/><path fill="#6BCCF5" d="M232 212h4v4h-4z"/><path fill="#5F78CA" d="M236 212h4v4h-4zM240 212h4v4h-4zM244 212h4v4h-4zM248 212h4v4h-4zM252 212h4v4h-4z"/><path fill="#5FFACA" d="M256 212h4v4h-4z"/><path fill="#5FFAFF" d="M260 212h4v4h-4z"/><path fill="#5F78CA" d="M264 212h4v4h-4zM268 212h4v4h-4zM272 212h4v4h-4z"/><path fill="#6BCCF5" d="M276 212h4v4h-4z"/><path fill="#6EB5D4" d="M56 216h4v4h-4z"/><path fill="#5F91CA" d="M60 216h4v4h-4z"/><path fill="#5F78CA" d="M64 216h4v4h-4zM68 216h4v4h-4zM72 216h4v4h-4z"/><path fill="#5F78FF" d="M76 216h4v4h-4z"/><path fill="#5FFAFF" d="M80 216h4v4h-4z"/><path fill="#5F78CA" d="M84 216h4v4h-4zM88 216h4v4h-4zM92 216h4v4h-4zM96 216h4v4h-4zM100 216h4v4h-4zM104 216h4v4h-4zM108 216h4v4h-4zM112 216h4v4h-4z"/><path fill="#5FFAFF" d="M116 216h4v4h-4z"/><path fill="#5F78FF" d="M120 216h4v4h-4z"/><path fill="#5F78CA" d="M124 216h4v4h-4z"/><path fill="#5FCCCA" d="M128 216h4v4h-4z"/><path fill="#6BCCF5" d="M132 216h4v4h-4z"/><path fill="#6BFAFF" d="M136 216h4v4h-4z"/><path fill="#6BCCFF" d="M140 216h4v4h-4z"/><path fill="#6BCCF5" d="M144 216h4v4h-4zM148 216h4v4h-4zM152 216h4v4h-4zM156 216h4v4h-4zM160 216h4v4h-4zM164 216h4v4h-4zM168 216h4v4h-4zM172 216h4v4h-4zM176 216h4v4h-4zM180 216h4v4h-4zM184 216h4v4h-4zM188 216h4v4h-4z"/><path fill="#6B91F5" d="M192 216h4v4h-4z"/><path fill="#5F78CA" d="M196 216h4v4h-4z"/><path fill="#6EB5D4" d="M200 216h4v4h-4z"/><path fill="#6ECCF5" d="M204 216h4v4h-4z"/><path fill="#6BB5F5" d="M208 216h4v4h-4z"/><path fill="#5F91CA" d="M212 216h4v4h-4zM216 216h4v4h-4zM220 216h4v4h-4zM224 216h4v4h-4z"/><path fill="#5F78CA" d="M228 216h4v4h-4z"/><path fill="#6BCCF5" d="M232 216h4v4h-4z"/><path fill="#6B78F5" d="M236 216h4v4h-4z"/><path fill="#5F78CA" d="M240 216h4v4h-4zM244 216h4v4h-4zM248 216h4v4h-4z"/><path fill="#5FFACA" d="M252 216h4v4h-4z"/><path fill="#5FB5FF" d="M256 216h4v4h-4z"/><path fill="#6EFFFF" d="M260 216h4v4h-4z"/><path fill="#6EB5FF" d="M264 216h4v4h-4z"/><path fill="#6EB5D4" d="M268 216h4v4h-4zM272 216h4v4h-4z"/><path fill="#6BCCF5" d="M276 216h4v4h-4z"/><path fill="#6EB5D4" d="M60 220h4v4h-4z"/><path fill="#5F91CA" d="M64 220h4v4h-4zM68 220h4v4h-4z"/><path fill="#5F78CA" d="M72 220h4v4h-4zM76 220h4v4h-4zM80 220h4v4h-4z"/><path fill="#5FB5D4" d="M84 220h4v4h-4z"/><path fill="#6EB5D4" d="M88 220h4v4h-4z"/><path fill="#5F78CA" d="M92 220h4v4h-4zM96 220h4v4h-4zM100 220h4v4h-4zM104 220h4v4h-4zM108 220h4v4h-4z"/><path fill="#5FFACA" d="M112 220h4v4h-4z"/><path fill="#5F78FF" d="M116 220h4v4h-4z"/><path fill="#5F78CA" d="M120 220h4v4h-4z"/><path fill="#5FCCCA" d="M124 220h4v4h-4z"/><path fill="#6BCCF5" d="M128 220h4v4h-4zM132 220h4v4h-4zM136 220h4v4h-4zM140 220h4v4h-4zM144 220h4v4h-4zM148 220h4v4h-4zM152 220h4v4h-4zM156 220h4v4h-4zM160 220h4v4h-4zM164 220h4v4h-4zM168 220h4v4h-4zM172 220h4v4h-4zM176 220h4v4h-4zM180 220h4v4h-4zM184 220h4v4h-4zM188 220h4v4h-4zM192 220h4v4h-4z"/><path fill="#5F78CA" d="M196 220h4v4h-4zM200 220h4v4h-4z"/><path fill="#6BCCF5" d="M204 220h4v4h-4z"/><path fill="#6B91F5" d="M208 220h4v4h-4z"/><path fill="#5F78CA" d="M212 220h4v4h-4zM216 220h4v4h-4z"/><path fill="#5F91CA" d="M220 220h4v4h-4zM224 220h4v4h-4z"/><path fill="#5F78CA" d="M228 220h4v4h-4zM232 220h4v4h-4z"/><path fill="#6BCCF5" d="M236 220h4v4h-4z"/><path fill="#5FFAF5" d="M240 220h4v4h-4z"/><path fill="#5FFAFF" d="M244 220h4v4h-4zM248 220h4v4h-4z"/><path fill="#5F91FF" d="M252 220h4v4h-4z"/><path fill="#5F91D4" d="M256 220h4v4h-4z"/><path fill="#6EB5D4" d="M260 220h4v4h-4zM264 220h4v4h-4zM268 220h4v4h-4z"/><path fill="#6ECCD4" d="M272 220h4v4h-4z"/><path fill="#6EB5D4" d="M64 224h4v4h-4z"/><path fill="#5F91CA" d="M68 224h4v4h-4z"/><path fill="#5F78CA" d="M72 224h4v4h-4zM76 224h4v4h-4zM80 224h4v4h-4zM84 224h4v4h-4z"/><path fill="#6E78D4" d="M88 224h4v4h-4z"/><path fill="#6EB5D4" d="M92 224h4v4h-4zM96 224h4v4h-4z"/><path fill="#5F78CA" d="M100 224h4v4h-4zM104 224h4v4h-4z"/><path fill="#5FB5CA" d="M108 224h4v4h-4z"/><path fill="#5FFAFF" d="M112 224h4v4h-4z"/><path fill="#5FB5FF" d="M116 224h4v4h-4z"/><path fill="#6EB5D4" d="M120 224h4v4h-4zM124 224h4v4h-4z"/><path fill="#6BCCF5" d="M128 224h4v4h-4zM132 224h4v4h-4zM136 224h4v4h-4zM140 224h4v4h-4zM144 224h4v4h-4zM148 224h4v4h-4zM152 224h4v4h-4zM156 224h4v4h-4zM160 224h4v4h-4zM164 224h4v4h-4zM168 224h4v4h-4zM172 224h4v4h-4zM176 224h4v4h-4zM180 224h4v4h-4zM184 224h4v4h-4zM188 224h4v4h-4zM192 224h4v4h-4z"/><path fill="#6B91F5" d="M196 224h4v4h-4z"/><path fill="#5F78CA" d="M200 224h4v4h-4z"/><path fill="#6BCCF5" d="M204 224h4v4h-4z"/><path fill="#6B78F5" d="M208 224h4v4h-4z"/><path fill="#5F78CA" d="M212 224h4v4h-4zM216 224h4v4h-4zM220 224h4v4h-4z"/><path fill="#5F91CA" d="M224 224h4v4h-4zM228 224h4v4h-4z"/><path fill="#5F78CA" d="M232 224h4v4h-4z"/><path fill="#6BCCF5" d="M236 224h4v4h-4z"/><path fill="#6B78F5" d="M240 224h4v4h-4z"/><path fill="#49FAFF" d="M244 224h4v4h-4z"/><path fill="#49B5FF" d="M248 224h4v4h-4z"/><path fill="#6EB5D4" d="M252 224h4v4h-4z"/><path fill="#5F91CA" d="M256 224h4v4h-4zM260 224h4v4h-4z"/><path fill="#6E91D4" d="M264 224h4v4h-4zM268 224h4v4h-4z"/><path fill="#6BCCF5" d="M272 224h4v4h-4z"/><path fill="#6EB5D4" d="M68 228h4v4h-4z"/><path fill="#5F78CA" d="M72 228h4v4h-4zM76 228h4v4h-4zM80 228h4v4h-4zM84 228h4v4h-4zM88 228h4v4h-4zM92 228h4v4h-4z"/><path fill="#6E78D4" d="M96 228h4v4h-4z"/><path fill="#6EB5D4" d="M100 228h4v4h-4z"/><path fill="#5FFAD4" d="M104 228h4v4h-4z"/><path fill="#5FFAFF" d="M108 228h4v4h-4z"/><path fill="#6EFFFF" d="M112 228h4v4h-4z"/><path fill="#AEFFFF" d="M116 228h4v4h-4zM120 228h4v4h-4z"/><path fill="#6EFAFF" d="M124 228h4v4h-4z"/><path fill="#6BFAFF" d="M128 228h4v4h-4zM132 228h4v4h-4zM136 228h4v4h-4z"/><path fill="#6BB5F5" d="M140 228h4v4h-4z"/><path fill="#6EB5F5" d="M144 228h4v4h-4zM148 228h4v4h-4zM152 228h4v4h-4zM156 228h4v4h-4zM160 228h4v4h-4zM164 228h4v4h-4zM168 228h4v4h-4zM172 228h4v4h-4zM176 228h4v4h-4zM180 228h4v4h-4zM184 228h4v4h-4zM188 228h4v4h-4zM192 228h4v4h-4z"/><path fill="#6B91D4" d="M196 228h4v4h-4z"/><path fill="#5F78CA" d="M200 228h4v4h-4z"/><path fill="#5FFAF5" d="M204 228h4v4h-4z"/><path fill="#5F78F5" d="M208 228h4v4h-4z"/><path fill="#5F78CA" d="M212 228h4v4h-4zM216 228h4v4h-4z"/><path fill="#5F91CA" d="M220 228h4v4h-4zM224 228h4v4h-4zM228 228h4v4h-4zM232 228h4v4h-4z"/><path fill="#6BB5D4" d="M236 228h4v4h-4z"/><path fill="#6BFAF5" d="M240 228h4v4h-4z"/><path fill="#5F91FF" d="M244 228h4v4h-4z"/><path fill="#5F91D4" d="M248 228h4v4h-4z"/><path fill="#6EB5D4" d="M252 228h4v4h-4z"/><path fill="#6E91D4" d="M256 228h4v4h-4z"/><path fill="#5F91CA" d="M260 228h4v4h-4zM264 228h4v4h-4z"/><path fill="#5FCCCA" d="M268 228h4v4h-4z"/><path fill="#6EB5D4" d="M72 232h4v4h-4z"/><path fill="#5F78CA" d="M76 232h4v4h-4zM80 232h4v4h-4z"/><path fill="#5F91CA" d="M84 232h4v4h-4zM88 232h4v4h-4z"/><path fill="#5F78CA" d="M92 232h4v4h-4zM96 232h4v4h-4zM100 232h4v4h-4z"/><path fill="#5F78D4" d="M104 232h4v4h-4z"/><path fill="#5F78FF" d="M108 232h4v4h-4z"/><path fill="#6EB5FF" d="M112 232h4v4h-4z"/><path fill="#AE78FF" d="M116 232h4v4h-4zM120 232h4v4h-4z"/><path fill="#5F78FF" d="M124 232h4v4h-4zM128 232h4v4h-4z"/><path fill="#5FCCFF" d="M132 232h4v4h-4z"/><path fill="#6BCCFF" d="M136 232h4v4h-4z"/><path fill="#6BCCF5" d="M140 232h4v4h-4z"/><path fill="#6ECCF5" d="M144 232h4v4h-4zM148 232h4v4h-4zM152 232h4v4h-4zM156 232h4v4h-4z"/><path fill="#6E91D4" d="M160 232h4v4h-4z"/><path fill="#6EB5D4" d="M164 232h4v4h-4z"/><path fill="#6ECCD4" d="M168 232h4v4h-4z"/><path fill="#6ECCF5" d="M172 232h4v4h-4zM176 232h4v4h-4zM180 232h4v4h-4zM184 232h4v4h-4zM188 232h4v4h-4zM192 232h4v4h-4z"/><path fill="#6B91D4" d="M196 232h4v4h-4z"/><path fill="#5F91CA" d="M200 232h4v4h-4zM204 232h4v4h-4zM208 232h4v4h-4zM212 232h4v4h-4zM216 232h4v4h-4zM220 232h4v4h-4zM224 232h4v4h-4zM228 232h4v4h-4zM232 232h4v4h-4z"/><path fill="#6BB5D4" d="M236 232h4v4h-4zM240 232h4v4h-4z"/><path fill="#5F91D4" d="M244 232h4v4h-4z"/><path fill="#5F91CA" d="M248 232h4v4h-4zM252 232h4v4h-4zM256 232h4v4h-4zM260 232h4v4h-4z"/><path fill="#5FB5CA" d="M264 232h4v4h-4z"/><path fill="#6BCCF5" d="M268 232h4v4h-4z"/><path fill="#6EB5D4" d="M76 236h4v4h-4z"/><path fill="#5F78CA" d="M80 236h4v4h-4z"/><path fill="#5F91CA" d="M84 236h4v4h-4zM88 236h4v4h-4zM92 236h4v4h-4z"/><path fill="#5F78CA" d="M96 236h4v4h-4zM100 236h4v4h-4zM104 236h4v4h-4zM108 236h4v4h-4z"/><path fill="#6EB5D4" d="M112 236h4v4h-4z"/><path fill="#6E78D4" d="M116 236h4v4h-4z"/><path fill="#5F78CA" d="M120 236h4v4h-4zM124 236h4v4h-4zM128 236h4v4h-4z"/><path fill="#6BCCF5" d="M132 236h4v4h-4zM136 236h4v4h-4zM140 236h4v4h-4zM144 236h4v4h-4zM148 236h4v4h-4zM152 236h4v4h-4zM156 236h4v4h-4z"/><path fill="#6B78F5" d="M160 236h4v4h-4z"/><path fill="#5F78CA" d="M164 236h4v4h-4z"/><path fill="#6B91D4" d="M168 236h4v4h-4z"/><path fill="#6BCCF5" d="M172 236h4v4h-4zM176 236h4v4h-4zM180 236h4v4h-4zM184 236h4v4h-4zM188 236h4v4h-4z"/><path fill="#6B91F5" d="M192 236h4v4h-4z"/><path fill="#5F91CA" d="M196 236h4v4h-4z"/><path fill="#5FB5CA" d="M200 236h4v4h-4z"/><path fill="#5FFAD4" d="M204 236h4v4h-4z"/><path fill="#5F91CA" d="M208 236h4v4h-4zM212 236h4v4h-4zM216 236h4v4h-4zM220 236h4v4h-4zM224 236h4v4h-4zM228 236h4v4h-4zM232 236h4v4h-4zM236 236h4v4h-4z"/><path fill="#6B91D4" d="M240 236h4v4h-4z"/><path fill="#5F91CA" d="M244 236h4v4h-4zM248 236h4v4h-4zM252 236h4v4h-4zM256 236h4v4h-4zM260 236h4v4h-4z"/><path fill="#6BCCD4" d="M264 236h4v4h-4z"/><path fill="#6EB5D4" d="M80 240h4v4h-4z"/><path fill="#5F91CA" d="M84 240h4v4h-4zM88 240h4v4h-4zM92 240h4v4h-4z"/><path fill="#5F78CA" d="M96 240h4v4h-4zM100 240h4v4h-4zM104 240h4v4h-4zM108 240h4v4h-4zM112 240h4v4h-4z"/><path fill="#6EB5D4" d="M116 240h4v4h-4z"/><path fill="#5F78CA" d="M120 240h4v4h-4zM124 240h4v4h-4zM128 240h4v4h-4z"/><path fill="#5F91CA" d="M132 240h4v4h-4z"/><path fill="#6BCCF5" d="M136 240h4v4h-4zM140 240h4v4h-4zM144 240h4v4h-4zM148 240h4v4h-4zM152 240h4v4h-4z"/><path fill="#6B91F5" d="M156 240h4v4h-4z"/><path fill="#5F91CA" d="M160 240h4v4h-4zM164 240h4v4h-4zM168 240h4v4h-4z"/><path fill="#6BB5D4" d="M172 240h4v4h-4z"/><path fill="#6BCCF5" d="M176 240h4v4h-4z"/><path fill="#6ECCF5" d="M180 240h4v4h-4zM184 240h4v4h-4z"/><path fill="#6BFAF5" d="M188 240h4v4h-4z"/><path fill="#5FFAFF" d="M192 240h4v4h-4zM196 240h4v4h-4zM200 240h4v4h-4z"/><path fill="#49FAFF" d="M204 240h4v4h-4z"/><path fill="#5F91FF" d="M208 240h4v4h-4z"/><path fill="#5F91CA" d="M212 240h4v4h-4zM216 240h4v4h-4zM220 240h4v4h-4zM224 240h4v4h-4zM228 240h4v4h-4zM232 240h4v4h-4zM236 240h4v4h-4zM240 240h4v4h-4zM244 240h4v4h-4zM248 240h4v4h-4zM252 240h4v4h-4zM256 240h4v4h-4z"/><path fill="#5FB5CA" d="M260 240h4v4h-4z"/><path fill="#6BCCF5" d="M264 240h4v4h-4z"/><path fill="#5F78CA" d="M84 244h4v4h-4zM88 244h4v4h-4zM92 244h4v4h-4zM96 244h4v4h-4zM100 244h4v4h-4zM104 244h4v4h-4zM108 244h4v4h-4z"/><path fill="#5F91CA" d="M112 244h4v4h-4z"/><path fill="#6EB5D4" d="M116 244h4v4h-4z"/><path fill="#6E91D4" d="M120 244h4v4h-4z"/><path fill="#5F91CA" d="M124 244h4v4h-4zM128 244h4v4h-4zM132 244h4v4h-4zM136 244h4v4h-4z"/><path fill="#6B91F5" d="M140 244h4v4h-4z"/><path fill="#6BCCF5" d="M144 244h4v4h-4zM148 244h4v4h-4z"/><path fill="#6B91F5" d="M152 244h4v4h-4z"/><path fill="#5F91CA" d="M156 244h4v4h-4zM160 244h4v4h-4zM164 244h4v4h-4z"/><path fill="#5FFACA" d="M168 244h4v4h-4z"/><path fill="#5FFAFF" d="M172 244h4v4h-4z"/><path fill="#6BFAFF" d="M176 244h4v4h-4z"/><path fill="#6EFAFF" d="M180 244h4v4h-4zM184 244h4v4h-4z"/><path fill="#49FAFF" d="M188 244h4v4h-4zM192 244h4v4h-4zM196 244h4v4h-4zM200 244h4v4h-4z"/><path fill="#49B5FF" d="M204 244h4v4h-4z"/><path fill="#5F91D4" d="M208 244h4v4h-4z"/><path fill="#5F91CA" d="M212 244h4v4h-4zM216 244h4v4h-4z"/><path fill="#5FFACA" d="M220 244h4v4h-4z"/><path fill="#5FB5D4" d="M224 244h4v4h-4zM228 244h4v4h-4z"/><path fill="#5F91CA" d="M232 244h4v4h-4zM236 244h4v4h-4zM240 244h4v4h-4zM244 244h4v4h-4zM248 244h4v4h-4zM252 244h4v4h-4zM256 244h4v4h-4z"/><path fill="#6EFFD4" d="M260 244h4v4h-4z"/><path fill="#5FFACA" d="M84 248h4v4h-4z"/><path fill="#5F78CA" d="M88 248h4v4h-4zM92 248h4v4h-4z"/><path fill="#5F91CA" d="M96 248h4v4h-4zM100 248h4v4h-4zM104 248h4v4h-4zM108 248h4v4h-4zM112 248h4v4h-4zM116 248h4v4h-4z"/><path fill="#6EB5D4" d="M120 248h4v4h-4z"/><path fill="#5F91CA" d="M124 248h4v4h-4zM128 248h4v4h-4zM132 248h4v4h-4z"/><path fill="#5FFACA" d="M136 248h4v4h-4z"/><path fill="#5FFAFF" d="M140 248h4v4h-4zM144 248h4v4h-4z"/><path fill="#6BFAFF" d="M148 248h4v4h-4z"/><path fill="#5FFAFF" d="M152 248h4v4h-4z"/><path fill="#5F91CA" d="M156 248h4v4h-4zM160 248h4v4h-4z"/><path fill="#5FB5CA" d="M164 248h4v4h-4z"/><path fill="#5FFAFF" d="M168 248h4v4h-4z"/><path fill="#49FAFF" d="M172 248h4v4h-4zM176 248h4v4h-4zM180 248h4v4h-4z"/><path fill="#49B5FF" d="M184 248h4v4h-4z"/><path fill="#6EB5FF" d="M188 248h4v4h-4z"/><path fill="#5F91FF" d="M192 248h4v4h-4zM196 248h4v4h-4zM200 248h4v4h-4z"/><path fill="#5F91D4" d="M204 248h4v4h-4z"/><path fill="#5F91CA" d="M208 248h4v4h-4zM212 248h4v4h-4zM216 248h4v4h-4zM220 248h4v4h-4z"/><path fill="#5F91D4" d="M224 248h4v4h-4z"/><path fill="#6EB5D4" d="M228 248h4v4h-4z"/><path fill="#6E91D4" d="M232 248h4v4h-4z"/><path fill="#5F91CA" d="M236 248h4v4h-4zM240 248h4v4h-4z"/><path fill="#5F78CA" d="M244 248h4v4h-4z"/><path fill="#5F91CA" d="M248 248h4v4h-4zM252 248h4v4h-4z"/><path fill="#5FB5CA" d="M256 248h4v4h-4z"/><path fill="#AEFFFF" d="M260 248h4v4h-4z"/><path fill="#5FFAFF" d="M88 252h4v4h-4z"/><path fill="#5F91CA" d="M92 252h4v4h-4zM96 252h4v4h-4zM100 252h4v4h-4zM104 252h4v4h-4z"/><path fill="#5FFACA" d="M108 252h4v4h-4z"/><path fill="#5FFAFF" d="M112 252h4v4h-4zM116 252h4v4h-4z"/><path fill="#6EB5D4" d="M120 252h4v4h-4z"/><path fill="#6EFAD4" d="M124 252h4v4h-4z"/><path fill="#5FFAFF" d="M128 252h4v4h-4zM132 252h4v4h-4z"/><path fill="#49FAFF" d="M136 252h4v4h-4zM140 252h4v4h-4zM144 252h4v4h-4zM148 252h4v4h-4zM152 252h4v4h-4zM156 252h4v4h-4z"/><path fill="#5F91CA" d="M160 252h4v4h-4z"/><path fill="#6EB5D4" d="M164 252h4v4h-4zM168 252h4v4h-4z"/><path fill="#6EB5FF" d="M172 252h4v4h-4zM176 252h4v4h-4zM180 252h4v4h-4z"/><path fill="#6E91D4" d="M184 252h4v4h-4zM188 252h4v4h-4z"/><path fill="#5F91CA" d="M192 252h4v4h-4zM196 252h4v4h-4zM200 252h4v4h-4zM204 252h4v4h-4zM208 252h4v4h-4zM212 252h4v4h-4zM216 252h4v4h-4zM220 252h4v4h-4zM224 252h4v4h-4zM228 252h4v4h-4zM232 252h4v4h-4zM236 252h4v4h-4zM240 252h4v4h-4z"/><path fill="#5F78CA" d="M244 252h4v4h-4z"/><path fill="#5F91CA" d="M248 252h4v4h-4zM252 252h4v4h-4z"/><path fill="#5FFAD4" d="M256 252h4v4h-4z"/><path fill="#5FFAFF" d="M92 256h4v4h-4zM96 256h4v4h-4z"/><path fill="#5FCCF5" d="M100 256h4v4h-4z"/><path fill="#6BFAF5" d="M104 256h4v4h-4z"/><path fill="#5FFAFF" d="M108 256h4v4h-4z"/><path fill="#49FAFF" d="M112 256h4v4h-4zM116 256h4v4h-4zM120 256h4v4h-4z"/><path fill="#6EB5FF" d="M124 256h4v4h-4z"/><path fill="#49FAFF" d="M128 256h4v4h-4zM132 256h4v4h-4zM136 256h4v4h-4zM140 256h4v4h-4zM144 256h4v4h-4zM148 256h4v4h-4zM152 256h4v4h-4z"/><path fill="#4991FF" d="M156 256h4v4h-4z"/><path fill="#5F91CA" d="M160 256h4v4h-4zM164 256h4v4h-4z"/><path fill="#6E91D4" d="M168 256h4v4h-4zM172 256h4v4h-4zM176 256h4v4h-4zM180 256h4v4h-4z"/><path fill="#5F91CA" d="M184 256h4v4h-4zM188 256h4v4h-4zM192 256h4v4h-4zM196 256h4v4h-4zM200 256h4v4h-4zM204 256h4v4h-4zM208 256h4v4h-4z"/><path fill="#5F78CA" d="M212 256h4v4h-4z"/><path fill="#5F91CA" d="M216 256h4v4h-4zM220 256h4v4h-4zM224 256h4v4h-4zM228 256h4v4h-4zM232 256h4v4h-4zM236 256h4v4h-4z"/><path fill="#5F78CA" d="M240 256h4v4h-4zM244 256h4v4h-4z"/><path fill="#5F91CA" d="M248 256h4v4h-4z"/><path fill="#5FFACA" d="M252 256h4v4h-4z"/><path fill="#5FB5FF" d="M96 260h4v4h-4z"/><path fill="#6BFAFF" d="M100 260h4v4h-4z"/><path fill="#6BCCFF" d="M104 260h4v4h-4z"/><path fill="#6BFAFF" d="M108 260h4v4h-4z"/><path fill="#6BCCFF" d="M112 260h4v4h-4z"/><path fill="#6BB5FF" d="M116 260h4v4h-4z"/><path fill="#5F91FF" d="M120 260h4v4h-4z"/><path fill="#6EB5D4" d="M124 260h4v4h-4z"/><path fill="#6E91D4" d="M128 260h4v4h-4z"/><path fill="#5F91FF" d="M132 260h4v4h-4zM136 260h4v4h-4zM140 260h4v4h-4zM144 260h4v4h-4zM148 260h4v4h-4zM152 260h4v4h-4z"/><path fill="#5F91CA" d="M156 260h4v4h-4zM160 260h4v4h-4zM164 260h4v4h-4zM168 260h4v4h-4zM172 260h4v4h-4z"/><path fill="#5FCCCA" d="M176 260h4v4h-4z"/><path fill="#6BCCF5" d="M180 260h4v4h-4z"/><path fill="#5F91CA" d="M184 260h4v4h-4zM188 260h4v4h-4zM192 260h4v4h-4zM196 260h4v4h-4zM200 260h4v4h-4zM204 260h4v4h-4z"/><path fill="#5F78CA" d="M208 260h4v4h-4zM212 260h4v4h-4zM216 260h4v4h-4z"/><path fill="#5F91CA" d="M220 260h4v4h-4zM224 260h4v4h-4z"/><path fill="#5F78CA" d="M228 260h4v4h-4zM232 260h4v4h-4zM236 260h4v4h-4zM240 260h4v4h-4z"/><path fill="#5F91CA" d="M244 260h4v4h-4zM248 260h4v4h-4z"/><path fill="#5FCCF5" d="M252 260h4v4h-4z"/><path fill="#6EB5D4" d="M100 264h4v4h-4z"/><path fill="#6BFAFF" d="M104 264h4v4h-4z"/><path fill="#6BCCFF" d="M108 264h4v4h-4z"/><path fill="#6BCCF5" d="M112 264h4v4h-4z"/><path fill="#6B91F5" d="M116 264h4v4h-4z"/><path fill="#5F91CA" d="M120 264h4v4h-4zM124 264h4v4h-4zM128 264h4v4h-4zM132 264h4v4h-4zM136 264h4v4h-4zM140 264h4v4h-4zM144 264h4v4h-4zM148 264h4v4h-4z"/><path fill="#5F78CA" d="M152 264h4v4h-4zM156 264h4v4h-4z"/><path fill="#5F91CA" d="M160 264h4v4h-4zM164 264h4v4h-4zM168 264h4v4h-4zM172 264h4v4h-4z"/><path fill="#6BCCF5" d="M176 264h4v4h-4z"/><path fill="#6B78F5" d="M180 264h4v4h-4z"/><path fill="#5F78CA" d="M184 264h4v4h-4zM188 264h4v4h-4z"/><path fill="#5F91CA" d="M192 264h4v4h-4z"/><path fill="#5F78CA" d="M196 264h4v4h-4zM200 264h4v4h-4z"/><path fill="#5F91CA" d="M204 264h4v4h-4z"/><path fill="#5F78CA" d="M208 264h4v4h-4zM212 264h4v4h-4zM216 264h4v4h-4zM220 264h4v4h-4zM224 264h4v4h-4zM228 264h4v4h-4zM232 264h4v4h-4z"/><path fill="#5F91CA" d="M236 264h4v4h-4zM240 264h4v4h-4zM244 264h4v4h-4z"/><path fill="#5FB5CA" d="M248 264h4v4h-4z"/><path fill="#6EB5D4" d="M104 268h4v4h-4z"/><path fill="#5F91F5" d="M108 268h4v4h-4zM112 268h4v4h-4z"/><path fill="#5F91CA" d="M116 268h4v4h-4zM120 268h4v4h-4zM124 268h4v4h-4zM128 268h4v4h-4zM132 268h4v4h-4z"/><path fill="#5FCCCA" d="M136 268h4v4h-4z"/><path fill="#5F91CA" d="M140 268h4v4h-4z"/><path fill="#5F78CA" d="M144 268h4v4h-4zM148 268h4v4h-4zM152 268h4v4h-4z"/><path fill="#5F91CA" d="M156 268h4v4h-4zM160 268h4v4h-4zM164 268h4v4h-4zM168 268h4v4h-4zM172 268h4v4h-4z"/><path fill="#5F78CA" d="M176 268h4v4h-4zM180 268h4v4h-4zM184 268h4v4h-4zM188 268h4v4h-4z"/><path fill="#5F91CA" d="M192 268h4v4h-4zM196 268h4v4h-4z"/><path fill="#5F78CA" d="M200 268h4v4h-4zM204 268h4v4h-4zM208 268h4v4h-4zM212 268h4v4h-4zM216 268h4v4h-4z"/><path fill="#5F91CA" d="M220 268h4v4h-4zM224 268h4v4h-4zM228 268h4v4h-4zM232 268h4v4h-4zM236 268h4v4h-4zM240 268h4v4h-4z"/><path fill="#5FB5CA" d="M244 268h4v4h-4z"/><path fill="#6EB5D4" d="M108 272h4v4h-4z"/><path fill="#5F78CA" d="M112 272h4v4h-4zM116 272h4v4h-4zM120 272h4v4h-4z"/><path fill="#5F91CA" d="M124 272h4v4h-4zM128 272h4v4h-4zM132 272h4v4h-4z"/><path fill="#6BCCF5" d="M136 272h4v4h-4z"/><path fill="#6B91F5" d="M140 272h4v4h-4z"/><path fill="#5F78CA" d="M144 272h4v4h-4zM148 272h4v4h-4z"/><path fill="#5F91CA" d="M152 272h4v4h-4zM156 272h4v4h-4zM160 272h4v4h-4zM164 272h4v4h-4zM168 272h4v4h-4zM172 272h4v4h-4z"/><path fill="#5F78CA" d="M176 272h4v4h-4zM180 272h4v4h-4z"/><path fill="#5F91CA" d="M184 272h4v4h-4zM188 272h4v4h-4zM192 272h4v4h-4zM196 272h4v4h-4z"/><path fill="#5F78CA" d="M200 272h4v4h-4zM204 272h4v4h-4zM208 272h4v4h-4z"/><path fill="#5F91CA" d="M212 272h4v4h-4zM216 272h4v4h-4zM220 272h4v4h-4zM224 272h4v4h-4z"/><path fill="#5FB5CA" d="M228 272h4v4h-4z"/><path fill="#5F91CA" d="M232 272h4v4h-4zM236 272h4v4h-4zM240 272h4v4h-4z"/><path fill="#5F78CA" d="M112 276h4v4h-4zM116 276h4v4h-4zM120 276h4v4h-4z"/><path fill="#5F91CA" d="M124 276h4v4h-4zM128 276h4v4h-4zM132 276h4v4h-4zM136 276h4v4h-4zM140 276h4v4h-4z"/><path fill="#5F78CA" d="M144 276h4v4h-4z"/><path fill="#5F91CA" d="M148 276h4v4h-4z"/><path fill="#5FCCCA" d="M152 276h4v4h-4z"/><path fill="#5FCCF5" d="M156 276h4v4h-4z"/><path fill="#5F91CA" d="M160 276h4v4h-4zM164 276h4v4h-4zM168 276h4v4h-4z"/><path fill="#5FB5CA" d="M172 276h4v4h-4z"/><path fill="#6BCCD4" d="M176 276h4v4h-4z"/><path fill="#5F91CA" d="M180 276h4v4h-4zM184 276h4v4h-4zM188 276h4v4h-4zM192 276h4v4h-4zM196 276h4v4h-4z"/><path fill="#5F78CA" d="M200 276h4v4h-4z"/><path fill="#5F91CA" d="M204 276h4v4h-4zM208 276h4v4h-4zM212 276h4v4h-4zM216 276h4v4h-4z"/><path fill="#5FFFCA" d="M220 276h4v4h-4z"/><path fill="#6BCCF5" d="M224 276h4v4h-4z"/><path fill="#6BB5D4" d="M228 276h4v4h-4z"/><path fill="#6B91D4" d="M232 276h4v4h-4z"/><path fill="#5F91CA" d="M236 276h4v4h-4z"/><path fill="#6EB5D4" d="M112 280h4v4h-4zM116 280h4v4h-4z"/><path fill="#5F78CA" d="M120 280h4v4h-4zM124 280h4v4h-4z"/><path fill="#5F91CA" d="M128 280h4v4h-4zM132 280h4v4h-4zM136 280h4v4h-4zM140 280h4v4h-4z"/><path fill="#5F78CA" d="M144 280h4v4h-4z"/><path fill="#5F91CA" d="M148 280h4v4h-4z"/><path fill="#5FCCF5" d="M152 280h4v4h-4z"/><path fill="#6BCCF5" d="M156 280h4v4h-4zM160 280h4v4h-4z"/><path fill="#5F91CA" d="M164 280h4v4h-4zM168 280h4v4h-4z"/><path fill="#6BB5D4" d="M172 280h4v4h-4z"/><path fill="#6BCCF5" d="M176 280h4v4h-4z"/><path fill="#6B91F5" d="M180 280h4v4h-4z"/><path fill="#5F91CA" d="M184 280h4v4h-4zM188 280h4v4h-4zM192 280h4v4h-4zM196 280h4v4h-4zM200 280h4v4h-4zM204 280h4v4h-4zM208 280h4v4h-4zM212 280h4v4h-4z"/><path fill="#5FFFCA" d="M216 280h4v4h-4z"/><path fill="#AEFFFF" d="M220 280h4v4h-4zM224 280h4v4h-4z"/><path fill="#6B91F5" d="M228 280h4v4h-4z"/><path fill="#6BB5D4" d="M232 280h4v4h-4z"/><path fill="#6EB5D4" d="M116 284h4v4h-4zM120 284h4v4h-4zM124 284h4v4h-4zM128 284h4v4h-4z"/><path fill="#5F91CA" d="M132 284h4v4h-4z"/><path fill="#5FB5CA" d="M136 284h4v4h-4z"/><path fill="#5F91CA" d="M140 284h4v4h-4zM144 284h4v4h-4zM148 284h4v4h-4zM152 284h4v4h-4z"/><path fill="#5F91F5" d="M156 284h4v4h-4z"/><path fill="#6BCCF5" d="M160 284h4v4h-4z"/><path fill="#5FFAF5" d="M164 284h4v4h-4z"/><path fill="#5F91CA" d="M168 284h4v4h-4zM172 284h4v4h-4z"/><path fill="#6B91D4" d="M176 284h4v4h-4z"/><path fill="#5F91CA" d="M180 284h4v4h-4zM184 284h4v4h-4zM188 284h4v4h-4z"/><path fill="#5FCCCA" d="M192 284h4v4h-4z"/><path fill="#5F91CA" d="M196 284h4v4h-4z"/><path fill="#5F78CA" d="M200 284h4v4h-4zM204 284h4v4h-4z"/><path fill="#5F91CA" d="M208 284h4v4h-4zM212 284h4v4h-4z"/></svg>