<svg width="384" height="384" xmlns="http://www.w3.org/2000/svg" shape-rendering="crispEdges"><path fill="#4071AC" d="M180 16h4v4h-4zM180 20h4v4h-4z"/><path fill="#A0C8F5" d="M184 20h4v4h-4z"/><path fill="#4071AC" d="M176 24h4v4h-4z"/><path fill="#5896E2" d="M180 24h4v4h-4z"/><path fill="#A0C8F5" d="M184 24h4v4h-4z"/><path fill="#4071AC" d="M176 28h4v4h-4z"/><path fill="#5896E2" d="M180 28h4v4h-4zM184 28h4v4h-4z"/><path fill="#A0C8F5" d="M188 28h4v4h-4z"/><path fill="#4071AC" d="M172 32h4v4h-4z"/><path fill="#5896E2" d="M176 32h4v4h-4zM180 32h4v4h-4zM184 32h4v4h-4z"/><path fill="#A0C8F5" d="M188 32h4v4h-4z"/><path fill="#4071AC" d="M172 36h4v4h-4z"/><path fill="#5896E2" d="M176 36h4v4h-4zM180 36h4v4h-4zM184 36h4v4h-4z"/><path fill="#A0C8F5" d="M188 36h4v4h-4z"/><path fill="#4071AC" d="M168 40h4v4h-4z"/><path fill="#5896E2" d="M172 40h4v4h-4zM176 40h4v4h-4zM180 40h4v4h-4zM184 40h4v4h-4z"/><path fill="#A0C8F5" d="M188 40h4v4h-4zM192 40h4v4h-4z"/><path fill="#4071AC" d="M168 44h4v4h-4z"/><path fill="#5896E2" d="M172 44h4v4h-4zM176 44h4v4h-4zM180 44h4v4h-4zM184 44h4v4h-4zM188 44h4v4h-4z"/><path fill="#A0C8F5" d="M192 44h4v4h-4z"/><path fill="#4071AC" d="M164 48h4v4h-4z"/><path fill="#5896E2" d="M168 48h4v4h-4zM172 48h4v4h-4zM176 48h4v4h-4zM180 48h4v4h-4zM184 48h4v4h-4zM188 48h4v4h-4z"/><path fill="#A0C8F5" d="M192 48h4v4h-4z"/><path fill="#4071AC" d="M164 52h4v4h-4z"/><path fill="#5896E2" d="M168 52h4v4h-4zM172 52h4v4h-4zM176 52h4v4h-4zM180 52h4v4h-4zM184 52h4v4h-4zM188 52h4v4h-4z"/><path fill="#A0C8F5" d="M192 52h4v4h-4zM196 52h4v4h-4z"/><path fill="#4071AC" d="M160 56h4v4h-4z"/><path fill="#5896E2" d="M164 56h4v4h-4zM168 56h4v4h-4zM172 56h4v4h-4zM176 56h4v4h-4zM180 56h4v4h-4zM184 56h4v4h-4zM188 56h4v4h-4zM192 56h4v4h-4z"/><path fill="#A0C8F5" d="M196 56h4v4h-4z"/><path fill="#4071AC" d="M160 60h4v4h-4z"/><path fill="#5896E2" d="M164 60h4v4h-4zM168 60h4v4h-4zM172 60h4v4h-4zM176 60h4v4h-4zM180 60h4v4h-4zM184 60h4v4h-4zM188 60h4v4h-4zM192 60h4v4h-4z"/><path fill="#A0C8F5" d="M196 60h4v4h-4zM200 60h4v4h-4z"/><path fill="#4071AC" d="M156 64h4v4h-4z"/><path fill="#5896E2" d="M160 64h4v4h-4zM164 64h4v4h-4zM168 64h4v4h-4zM172 64h4v4h-4zM176 64h4v4h-4zM180 64h4v4h-4zM184 64h4v4h-4zM188 64h4v4h-4zM192 64h4v4h-4z"/><path fill="#A0C8F5" d="M196 64h4v4h-4zM200 64h4v4h-4z"/><path fill="#4071AC" d="M156 68h4v4h-4z"/><path fill="#5896E2" d="M160 68h4v4h-4zM164 68h4v4h-4zM168 68h4v4h-4zM172 68h4v4h-4zM176 68h4v4h-4zM180 68h4v4h-4zM184 68h4v4h-4zM188 68h4v4h-4zM192 68h4v4h-4z"/><path fill="#A0C8F5" d="M196 68h4v4h-4zM200 68h4v4h-4z"/><path fill="#4071AC" d="M152 72h4v4h-4z"/><path fill="#5896E2" d="M156 72h4v4h-4zM160 72h4v4h-4zM164 72h4v4h-4zM168 72h4v4h-4zM172 72h4v4h-4zM176 72h4v4h-4zM180 72h4v4h-4zM184 72h4v4h-4zM188 72h4v4h-4zM192 72h4v4h-4zM196 72h4v4h-4z"/><path fill="#A0C8F5" d="M200 72h4v4h-4zM204 72h4v4h-4z"/><path fill="#4071AC" d="M152 76h4v4h-4z"/><path fill="#5896E2" d="M156 76h4v4h-4zM160 76h4v4h-4zM164 76h4v4h-4zM168 76h4v4h-4zM172 76h4v4h-4zM176 76h4v4h-4zM180 76h4v4h-4zM184 76h4v4h-4zM188 76h4v4h-4zM192 76h4v4h-4zM196 76h4v4h-4z"/><path fill="#A0C8F5" d="M200 76h4v4h-4zM204 76h4v4h-4z"/><path fill="#4071AC" d="M148 80h4v4h-4z"/><path fill="#5896E2" d="M152 80h4v4h-4zM156 80h4v4h-4zM160 80h4v4h-4zM164 80h4v4h-4zM168 80h4v4h-4zM172 80h4v4h-4zM176 80h4v4h-4zM180 80h4v4h-4zM184 80h4v4h-4zM188 80h4v4h-4zM192 80h4v4h-4zM196 80h4v4h-4z"/><path fill="#A0C8F5" d="M200 80h4v4h-4zM204 80h4v4h-4zM208 80h4v4h-4z"/><path fill="#4071AC" d="M148 84h4v4h-4z"/><path fill="#5896E2" d="M152 84h4v4h-4zM156 84h4v4h-4zM160 84h4v4h-4zM164 84h4v4h-4zM168 84h4v4h-4zM172 84h4v4h-4zM176 84h4v4h-4zM180 84h4v4h-4zM184 84h4v4h-4zM188 84h4v4h-4zM192 84h4v4h-4zM196 84h4v4h-4zM200 84h4v4h-4z"/><path fill="#A0C8F5" d="M204 84h4v4h-4zM208 84h4v4h-4z"/><path fill="#4071AC" d="M144 88h4v4h-4z"/><path fill="#5896E2" d="M148 88h4v4h-4zM152 88h4v4h-4zM156 88h4v4h-4zM160 88h4v4h-4zM164 88h4v4h-4zM168 88h4v4h-4zM172 88h4v4h-4zM176 88h4v4h-4zM180 88h4v4h-4zM184 88h4v4h-4zM188 88h4v4h-4zM192 88h4v4h-4zM196 88h4v4h-4zM200 88h4v4h-4z"/><path fill="#A0C8F5" d="M204 88h4v4h-4zM208 88h4v4h-4z"/><path fill="#4071AC" d="M144 92h4v4h-4z"/><path fill="#5896E2" d="M148 92h4v4h-4zM152 92h4v4h-4zM156 92h4v4h-4zM160 92h4v4h-4zM164 92h4v4h-4zM168 92h4v4h-4zM172 92h4v4h-4zM176 92h4v4h-4zM180 92h4v4h-4zM184 92h4v4h-4zM188 92h4v4h-4zM192 92h4v4h-4zM196 92h4v4h-4zM200 92h4v4h-4z"/><path fill="#A0C8F5" d="M204 92h4v4h-4zM208 92h4v4h-4zM212 92h4v4h-4z"/><path fill="#4071AC" d="M140 96h4v4h-4z"/><path fill="#5896E2" d="M144 96h4v4h-4zM148 96h4v4h-4zM152 96h4v4h-4zM156 96h4v4h-4zM160 96h4v4h-4zM164 96h4v4h-4zM168 96h4v4h-4zM172 96h4v4h-4zM176 96h4v4h-4zM180 96h4v4h-4zM184 96h4v4h-4zM188 96h4v4h-4zM192 96h4v4h-4zM196 96h4v4h-4zM200 96h4v4h-4z"/><path fill="#A0C8F5" d="M204 96h4v4h-4zM208 96h4v4h-4zM212 96h4v4h-4z"/><path fill="#4071AC" d="M140 100h4v4h-4z"/><path fill="#5896E2" d="M144 100h4v4h-4zM148 100h4v4h-4zM152 100h4v4h-4zM156 100h4v4h-4zM160 100h4v4h-4zM164 100h4v4h-4zM168 100h4v4h-4zM172 100h4v4h-4zM176 100h4v4h-4zM180 100h4v4h-4zM184 100h4v4h-4zM188 100h4v4h-4zM192 100h4v4h-4zM196 100h4v4h-4zM200 100h4v4h-4zM204 100h4v4h-4z"/><path fill="#A0C8F5" d="M208 100h4v4h-4zM212 100h4v4h-4z"/><path fill="#4071AC" d="M136 104h4v4h-4z"/><path fill="#5896E2" d="M140 104h4v4h-4zM144 104h4v4h-4zM148 104h4v4h-4zM152 104h4v4h-4zM156 104h4v4h-4zM160 104h4v4h-4zM164 104h4v4h-4zM168 104h4v4h-4zM172 104h4v4h-4zM176 104h4v4h-4zM180 104h4v4h-4zM184 104h4v4h-4zM188 104h4v4h-4zM192 104h4v4h-4zM196 104h4v4h-4zM200 104h4v4h-4zM204 104h4v4h-4z"/><path fill="#A0C8F5" d="M208 104h4v4h-4zM212 104h4v4h-4zM216 104h4v4h-4z"/><path fill="#4071AC" d="M136 108h4v4h-4z"/><path fill="#5896E2" d="M140 108h4v4h-4zM144 108h4v4h-4zM148 108h4v4h-4zM152 108h4v4h-4zM156 108h4v4h-4zM160 108h4v4h-4zM164 108h4v4h-4zM168 108h4v4h-4zM172 108h4v4h-4zM176 108h4v4h-4zM180 108h4v4h-4zM184 108h4v4h-4zM188 108h4v4h-4zM192 108h4v4h-4zM196 108h4v4h-4z"/><path fill="#43679B" d="M200 108h4v4h-4zM204 108h4v4h-4z"/><path fill="#A0C8F5" d="M208 108h4v4h-4zM212 108h4v4h-4zM216 108h4v4h-4z"/><path fill="#4071AC" d="M132 112h4v4h-4z"/><path fill="#5896E2" d="M136 112h4v4h-4zM140 112h4v4h-4zM144 112h4v4h-4zM148 112h4v4h-4zM152 112h4v4h-4zM156 112h4v4h-4zM160 112h4v4h-4zM164 112h4v4h-4zM168 112h4v4h-4zM172 112h4v4h-4zM176 112h4v4h-4zM180 112h4v4h-4zM184 112h4v4h-4zM188 112h4v4h-4z"/><path fill="#43679B" d="M192 112h4v4h-4zM196 112h4v4h-4zM200 112h4v4h-4z"/><path fill="#5896E2" d="M204 112h4v4h-4z"/><path fill="#A0C8F5" d="M208 112h4v4h-4zM212 112h4v4h-4zM216 112h4v4h-4zM220 112h4v4h-4z"/><path fill="#4071AC" d="M132 116h4v4h-4z"/><path fill="#5896E2" d="M136 116h4v4h-4zM140 116h4v4h-4zM144 116h4v4h-4zM148 116h4v4h-4zM152 116h4v4h-4zM156 116h4v4h-4zM160 116h4v4h-4zM164 116h4v4h-4zM168 116h4v4h-4zM172 116h4v4h-4zM176 116h4v4h-4z"/><path fill="#43679B" d="M180 116h4v4h-4zM184 116h4v4h-4zM188 116h4v4h-4zM192 116h4v4h-4zM196 116h4v4h-4zM200 116h4v4h-4z"/><path fill="#5896E2" d="M204 116h4v4h-4zM208 116h4v4h-4z"/><path fill="#A0C8F5" d="M212 116h4v4h-4zM216 116h4v4h-4zM220 116h4v4h-4z"/><path fill="#4071AC" d="M128 120h4v4h-4z"/><path fill="#5896E2" d="M132 120h4v4h-4zM136 120h4v4h-4zM140 120h4v4h-4zM144 120h4v4h-4zM148 120h4v4h-4zM152 120h4v4h-4zM156 120h4v4h-4zM160 120h4v4h-4zM164 120h4v4h-4z"/><path fill="#43679B" d="M168 120h4v4h-4zM172 120h4v4h-4zM176 120h4v4h-4zM180 120h4v4h-4zM184 120h4v4h-4zM188 120h4v4h-4zM192 120h4v4h-4zM196 120h4v4h-4zM200 120h4v4h-4z"/><path fill="#5896E2" d="M204 120h4v4h-4zM208 120h4v4h-4zM212 120h4v4h-4z"/><path fill="#A0C8F5" d="M216 120h4v4h-4zM220 120h4v4h-4z"/><path fill="#4071AC" d="M128 124h4v4h-4z"/><path fill="#5896E2" d="M132 124h4v4h-4zM136 124h4v4h-4zM140 124h4v4h-4zM144 124h4v4h-4zM148 124h4v4h-4zM152 124h4v4h-4z"/><path fill="#43679B" d="M156 124h4v4h-4zM160 124h4v4h-4zM164 124h4v4h-4zM168 124h4v4h-4zM172 124h4v4h-4zM176 124h4v4h-4zM180 124h4v4h-4zM184 124h4v4h-4zM188 124h4v4h-4zM192 124h4v4h-4zM196 124h4v4h-4zM200 124h4v4h-4z"/><path fill="#5896E2" d="M204 124h4v4h-4zM208 124h4v4h-4zM212 124h4v4h-4zM216 124h4v4h-4z"/><path fill="#A0C8F5" d="M220 124h4v4h-4zM224 124h4v4h-4z"/><path fill="#4071AC" d="M124 128h4v4h-4z"/><path fill="#5896E2" d="M128 128h4v4h-4zM132 128h4v4h-4zM136 128h4v4h-4zM140 128h4v4h-4z"/><path fill="#43679B" d="M144 128h4v4h-4zM148 128h4v4h-4zM152 128h4v4h-4zM156 128h4v4h-4zM160 128h4v4h-4zM164 128h4v4h-4zM168 128h4v4h-4zM172 128h4v4h-4zM176 128h4v4h-4zM180 128h4v4h-4zM184 128h4v4h-4zM188 128h4v4h-4zM192 128h4v4h-4zM196 128h4v4h-4zM200 128h4v4h-4z"/><path fill="#5896E2" d="M204 128h4v4h-4zM208 128h4v4h-4zM212 128h4v4h-4zM216 128h4v4h-4zM220 128h4v4h-4z"/><path fill="#A0C8F5" d="M224 128h4v4h-4z"/><path fill="#4071AC" d="M124 132h4v4h-4z"/><path fill="#5896E2" d="M128 132h4v4h-4z"/><path fill="#43679B" d="M132 132h4v4h-4zM136 132h4v4h-4zM140 132h4v4h-4zM144 132h4v4h-4zM148 132h4v4h-4zM152 132h4v4h-4zM156 132h4v4h-4zM160 132h4v4h-4zM164 132h4v4h-4zM168 132h4v4h-4zM172 132h4v4h-4zM176 132h4v4h-4zM180 132h4v4h-4zM184 132h4v4h-4zM188 132h4v4h-4zM192 132h4v4h-4zM196 132h4v4h-4z"/><path fill="#5896E2" d="M200 132h4v4h-4zM204 132h4v4h-4zM208 132h4v4h-4zM212 132h4v4h-4zM216 132h4v4h-4zM220 132h4v4h-4zM224 132h4v4h-4z"/><path fill="#A0C8F5" d="M228 132h4v4h-4z"/><path fill="#40597B" d="M128 136h4v4h-4z"/><path fill="#43679B" d="M132 136h4v4h-4zM136 136h4v4h-4zM140 136h4v4h-4zM144 136h4v4h-4zM148 136h4v4h-4zM152 136h4v4h-4zM156 136h4v4h-4zM160 136h4v4h-4zM164 136h4v4h-4zM168 136h4v4h-4zM172 136h4v4h-4zM176 136h4v4h-4zM180 136h4v4h-4zM184 136h4v4h-4zM188 136h4v4h-4zM192 136h4v4h-4zM196 136h4v4h-4z"/><path fill="#5896E2" d="M200 136h4v4h-4zM204 136h4v4h-4zM208 136h4v4h-4zM212 136h4v4h-4zM216 136h4v4h-4zM220 136h4v4h-4zM224 136h4v4h-4z"/><path fill="#40597B" d="M132 140h4v4h-4z"/><path fill="#43679B" d="M136 140h4v4h-4zM140 140h4v4h-4zM144 140h4v4h-4zM148 140h4v4h-4zM152 140h4v4h-4zM156 140h4v4h-4zM160 140h4v4h-4zM164 140h4v4h-4zM168 140h4v4h-4zM172 140h4v4h-4zM176 140h4v4h-4zM180 140h4v4h-4zM184 140h4v4h-4zM188 140h4v4h-4zM192 140h4v4h-4zM196 140h4v4h-4z"/><path fill="#5896E2" d="M200 140h4v4h-4zM204 140h4v4h-4zM208 140h4v4h-4zM212 140h4v4h-4zM216 140h4v4h-4zM220 140h4v4h-4zM224 140h4v4h-4z"/><path fill="#40597B" d="M136 144h4v4h-4z"/><path fill="#43679B" d="M140 144h4v4h-4zM144 144h4v4h-4zM148 144h4v4h-4zM152 144h4v4h-4zM156 144h4v4h-4zM160 144h4v4h-4zM164 144h4v4h-4zM168 144h4v4h-4zM172 144h4v4h-4zM176 144h4v4h-4zM180 144h4v4h-4zM184 144h4v4h-4zM188 144h4v4h-4zM192 144h4v4h-4zM196 144h4v4h-4z"/><path fill="#5896E2" d="M200 144h4v4h-4zM204 144h4v4h-4zM208 144h4v4h-4zM212 144h4v4h-4zM216 144h4v4h-4zM220 144h4v4h-4z"/><path fill="#40597B" d="M140 148h4v4h-4z"/><path fill="#43679B" d="M144 148h4v4h-4zM148 148h4v4h-4zM152 148h4v4h-4zM156 148h4v4h-4zM160 148h4v4h-4zM164 148h4v4h-4zM168 148h4v4h-4zM172 148h4v4h-4zM176 148h4v4h-4zM180 148h4v4h-4zM184 148h4v4h-4zM188 148h4v4h-4zM192 148h4v4h-4z"/><path fill="#5896E2" d="M196 148h4v4h-4zM200 148h4v4h-4zM204 148h4v4h-4zM208 148h4v4h-4zM212 148h4v4h-4zM216 148h4v4h-4z"/><path fill="#40597B" d="M144 152h4v4h-4z"/><path fill="#43679B" d="M148 152h4v4h-4zM152 152h4v4h-4zM156 152h4v4h-4zM160 152h4v4h-4zM164 152h4v4h-4zM168 152h4v4h-4zM172 152h4v4h-4zM176 152h4v4h-4zM180 152h4v4h-4zM184 152h4v4h-4zM188 152h4v4h-4zM192 152h4v4h-4z"/><path fill="#5896E2" d="M196 152h4v4h-4zM200 152h4v4h-4zM204 152h4v4h-4zM208 152h4v4h-4zM212 152h4v4h-4z"/><path fill="#233D5B" d="M124 156h4v4h-4z"/><path fill="#40597B" d="M148 156h4v4h-4z"/><path fill="#43679B" d="M152 156h4v4h-4zM156 156h4v4h-4zM160 156h4v4h-4zM164 156h4v4h-4zM168 156h4v4h-4zM172 156h4v4h-4zM176 156h4v4h-4zM180 156h4v4h-4zM184 156h4v4h-4zM188 156h4v4h-4zM192 156h4v4h-4z"/><path fill="#5896E2" d="M196 156h4v4h-4zM200 156h4v4h-4zM204 156h4v4h-4zM208 156h4v4h-4z"/><path fill="#164CAA" d="M224 156h4v4h-4z"/><path fill="#43679B" d="M228 156h4v4h-4z"/><path fill="#233D5B" d="M124 160h4v4h-4zM128 160h4v4h-4z"/><path fill="#40597B" d="M152 160h4v4h-4z"/><path fill="#43679B" d="M156 160h4v4h-4zM160 160h4v4h-4zM164 160h4v4h-4zM168 160h4v4h-4zM172 160h4v4h-4zM176 160h4v4h-4zM180 160h4v4h-4zM184 160h4v4h-4zM188 160h4v4h-4zM192 160h4v4h-4z"/><path fill="#5896E2" d="M196 160h4v4h-4zM200 160h4v4h-4zM204 160h4v4h-4z"/><path fill="#164CAA" d="M220 160h4v4h-4zM224 160h4v4h-4z"/><path fill="#43679B" d="M228 160h4v4h-4z"/><path fill="#233D5B" d="M128 164h4v4h-4zM132 164h4v4h-4z"/><path fill="#40597B" d="M156 164h4v4h-4z"/><path fill="#43679B" d="M160 164h4v4h-4zM164 164h4v4h-4zM168 164h4v4h-4zM172 164h4v4h-4zM176 164h4v4h-4zM180 164h4v4h-4zM184 164h4v4h-4zM188 164h4v4h-4z"/><path fill="#5896E2" d="M192 164h4v4h-4zM196 164h4v4h-4zM200 164h4v4h-4z"/><path fill="#164CAA" d="M216 164h4v4h-4zM220 164h4v4h-4zM224 164h4v4h-4z"/><path fill="#233D5B" d="M132 168h4v4h-4zM136 168h4v4h-4z"/><path fill="#40597B" d="M160 168h4v4h-4z"/><path fill="#43679B" d="M164 168h4v4h-4zM168 168h4v4h-4zM172 168h4v4h-4zM176 168h4v4h-4zM180 168h4v4h-4zM184 168h4v4h-4zM188 168h4v4h-4z"/><path fill="#5896E2" d="M192 168h4v4h-4zM196 168h4v4h-4zM200 168h4v4h-4z"/><path fill="#164CAA" d="M212 168h4v4h-4zM216 168h4v4h-4zM220 168h4v4h-4z"/><path fill="#43679B" d="M224 168h4v4h-4z"/><path fill="#233D5B" d="M132 172h4v4h-4zM136 172h4v4h-4zM140 172h4v4h-4zM144 172h4v4h-4z"/><path fill="#40597B" d="M164 172h4v4h-4z"/><path fill="#43679B" d="M168 172h4v4h-4zM172 172h4v4h-4zM176 172h4v4h-4zM180 172h4v4h-4zM184 172h4v4h-4zM188 172h4v4h-4z"/><path fill="#5896E2" d="M192 172h4v4h-4zM196 172h4v4h-4z"/><path fill="#164CAA" d="M208 172h4v4h-4zM212 172h4v4h-4zM216 172h4v4h-4z"/><path fill="#43679B" d="M220 172h4v4h-4z"/><path fill="#233D5B" d="M136 176h4v4h-4zM140 176h4v4h-4zM144 176h4v4h-4zM148 176h4v4h-4z"/><path fill="#40597B" d="M168 176h4v4h-4z"/><path fill="#43679B" d="M172 176h4v4h-4zM176 176h4v4h-4zM180 176h4v4h-4zM184 176h4v4h-4zM188 176h4v4h-4z"/><path fill="#5896E2" d="M192 176h4v4h-4z"/><path fill="#164CAA" d="M204 176h4v4h-4zM208 176h4v4h-4zM212 176h4v4h-4zM216 176h4v4h-4z"/><path fill="#43679B" d="M220 176h4v4h-4z"/><path fill="#233D5B" d="M136 180h4v4h-4zM140 180h4v4h-4zM144 180h4v4h-4zM148 180h4v4h-4zM152 180h4v4h-4z"/><path fill="#2B75E1" d="M156 180h4v4h-4z"/><path fill="#40597B" d="M172 180h4v4h-4z"/><path fill="#43679B" d="M176 180h4v4h-4zM180 180h4v4h-4zM184 180h4v4h-4z"/><path fill="#5896E2" d="M188 180h4v4h-4z"/><path fill="#164CAA" d="M200 180h4v4h-4zM204 180h4v4h-4z"/><path fill="#1353BA" d="M208 180h4v4h-4z"/><path fill="#164CAA" d="M212 180h4v4h-4zM216 180h4v4h-4z"/><path fill="#233D5B" d="M140 184h4v4h-4zM144 184h4v4h-4zM148 184h4v4h-4zM152 184h4v4h-4zM156 184h4v4h-4z"/><path fill="#2B75E1" d="M160 184h4v4h-4z"/><path fill="#40597B" d="M176 184h4v4h-4z"/><path fill="#43679B" d="M180 184h4v4h-4zM184 184h4v4h-4z"/><path fill="#164CAA" d="M196 184h4v4h-4zM200 184h4v4h-4zM204 184h4v4h-4zM208 184h4v4h-4zM212 184h4v4h-4z"/><path fill="#43679B" d="M216 184h4v4h-4z"/><path fill="#233D5B" d="M140 188h4v4h-4zM144 188h4v4h-4zM148 188h4v4h-4zM152 188h4v4h-4zM156 188h4v4h-4zM160 188h4v4h-4z"/><path fill="#2B75E1" d="M164 188h4v4h-4z"/><path fill="#40597B" d="M180 188h4v4h-4z"/><path fill="#43679B" d="M184 188h4v4h-4z"/><path fill="#164CAA" d="M192 188h4v4h-4zM196 188h4v4h-4zM200 188h4v4h-4zM204 188h4v4h-4zM208 188h4v4h-4z"/><path fill="#43679B" d="M212 188h4v4h-4z"/><path fill="#233D5B" d="M144 192h4v4h-4zM148 192h4v4h-4zM152 192h4v4h-4zM156 192h4v4h-4zM160 192h4v4h-4zM164 192h4v4h-4z"/><path fill="#347AE2" d="M168 192h4v4h-4z"/><path fill="#2B75E1" d="M172 192h4v4h-4z"/><path fill="#164CAA" d="M188 192h4v4h-4zM192 192h4v4h-4zM196 192h4v4h-4zM200 192h4v4h-4zM204 192h4v4h-4zM208 192h4v4h-4z"/><path fill="#43679B" d="M212 192h4v4h-4z"/><path fill="#233D5B" d="M148 196h4v4h-4zM152 196h4v4h-4zM156 196h4v4h-4zM160 196h4v4h-4zM164 196h4v4h-4zM168 196h4v4h-4z"/><path fill="#2D75DB" d="M172 196h4v4h-4z"/><path fill="#3371E7" d="M176 196h4v4h-4z"/><path fill="#164CAA" d="M184 196h4v4h-4zM188 196h4v4h-4zM192 196h4v4h-4zM196 196h4v4h-4zM200 196h4v4h-4zM204 196h4v4h-4z"/><path fill="#43679B" d="M208 196h4v4h-4zM212 196h4v4h-4z"/><path fill="#233D5B" d="M148 200h4v4h-4zM152 200h4v4h-4zM156 200h4v4h-4zM160 200h4v4h-4zM164 200h4v4h-4zM168 200h4v4h-4zM172 200h4v4h-4zM176 200h4v4h-4z"/><path fill="#3371E7" d="M180 200h4v4h-4z"/><path fill="#164CAA" d="M184 200h4v4h-4zM188 200h4v4h-4zM192 200h4v4h-4zM196 200h4v4h-4zM200 200h4v4h-4z"/><path fill="#43679B" d="M204 200h4v4h-4zM208 200h4v4h-4z"/><path fill="#233D5B" d="M152 204h4v4h-4zM156 204h4v4h-4zM160 204h4v4h-4zM164 204h4v4h-4zM168 204h4v4h-4zM172 204h4v4h-4zM176 204h4v4h-4zM180 204h4v4h-4z"/><path fill="#164CAA" d="M184 204h4v4h-4zM188 204h4v4h-4zM192 204h4v4h-4zM196 204h4v4h-4z"/><path fill="#43679B" d="M200 204h4v4h-4zM204 204h4v4h-4zM208 204h4v4h-4z"/><path fill="#233D5B" d="M152 208h4v4h-4zM156 208h4v4h-4zM160 208h4v4h-4zM164 208h4v4h-4zM168 208h4v4h-4zM172 208h4v4h-4zM176 208h4v4h-4zM180 208h4v4h-4zM184 208h4v4h-4z"/><path fill="#164CAA" d="M188 208h4v4h-4zM192 208h4v4h-4z"/><path fill="#43679B" d="M196 208h4v4h-4zM200 208h4v4h-4zM204 208h4v4h-4z"/><path fill="#233D5B" d="M152 212h4v4h-4zM156 212h4v4h-4zM160 212h4v4h-4zM164 212h4v4h-4zM168 212h4v4h-4zM172 212h4v4h-4zM176 212h4v4h-4zM180 212h4v4h-4zM184 212h4v4h-4zM188 212h4v4h-4z"/><path fill="#164CAA" d="M192 212h4v4h-4z"/><path fill="#43679B" d="M196 212h4v4h-4zM200 212h4v4h-4zM204 212h4v4h-4z"/><path fill="#233D5B" d="M156 216h4v4h-4zM160 216h4v4h-4zM164 216h4v4h-4zM168 216h4v4h-4zM172 216h4v4h-4zM176 216h4v4h-4zM180 216h4v4h-4zM184 216h4v4h-4zM188 216h4v4h-4z"/><path fill="#43679B" d="M192 216h4v4h-4zM196 216h4v4h-4zM200 216h4v4h-4zM204 216h4v4h-4z"/><path fill="#233D5B" d="M156 220h4v4h-4zM160 220h4v4h-4zM164 220h4v4h-4zM168 220h4v4h-4zM172 220h4v4h-4zM176 220h4v4h-4zM180 220h4v4h-4zM184 220h4v4h-4zM188 220h4v4h-4z"/><path fill="#43679B" d="M192 220h4v4h-4zM196 220h4v4h-4zM200 220h4v4h-4z"/><path fill="#233D5B" d="M160 224h4v4h-4zM164 224h4v4h-4zM168 224h4v4h-4zM172 224h4v4h-4zM176 224h4v4h-4zM180 224h4v4h-4zM184 224h4v4h-4zM188 224h4v4h-4z"/><path fill="#43679B" d="M192 224h4v4h-4zM196 224h4v4h-4zM200 224h4v4h-4z"/><path fill="#233D5B" d="M160 228h4v4h-4zM164 228h4v4h-4zM168 228h4v4h-4zM172 228h4v4h-4zM176 228h4v4h-4zM180 228h4v4h-4zM184 228h4v4h-4zM188 228h4v4h-4z"/><path fill="#43679B" d="M192 228h4v4h-4zM196 228h4v4h-4z"/><path fill="#233D5B" d="M164 232h4v4h-4zM168 232h4v4h-4zM172 232h4v4h-4zM176 232h4v4h-4zM180 232h4v4h-4zM184 232h4v4h-4zM188 232h4v4h-4z"/><path fill="#43679B" d="M192 232h4v4h-4zM196 232h4v4h-4z"/><path fill="#233D5B" d="M164 236h4v4h-4zM168 236h4v4h-4zM172 236h4v4h-4zM176 236h4v4h-4zM180 236h4v4h-4zM184 236h4v4h-4zM188 236h4v4h-4z"/><path fill="#43679B" d="M192 236h4v4h-4z"/><path fill="#233D5B" d="M168 240h4v4h-4zM172 240h4v4h-4zM176 240h4v4h-4zM180 240h4v4h-4zM184 240h4v4h-4zM188 240h4v4h-4z"/><path fill="#43679B" d="M192 240h4v4h-4z"/><path fill="#233D5B" d="M168 244h4v4h-4zM172 244h4v4h-4zM176 244h4v4h-4zM180 244h4v4h-4zM184 244h4v4h-4zM188 244h4v4h-4z"/><path fill="#43679B" d="M192 244h4v4h-4z"/><path fill="#233D5B" d="M172 248h4v4h-4zM176 248h4v4h-4zM180 248h4v4h-4zM184 248h4v4h-4zM188 248h4v4h-4zM172 252h4v4h-4zM176 252h4v4h-4zM180 252h4v4h-4zM184 252h4v4h-4zM188 252h4v4h-4zM176 256h4v4h-4zM180 256h4v4h-4zM184 256h4v4h-4zM176 260h4v4h-4zM180 260h4v4h-4zM184 260h4v4h-4zM180 264h4v4h-4zM180 268h4v4h-4z"/></svg>