<svg width="384" height="384" xmlns="http://www.w3.org/2000/svg" shape-rendering="crispEdges"><path fill="#0C2546" opacity=".98" d="M108 28h4v4h-4zM112 28h4v4h-4zM116 28h4v4h-4zM120 28h4v4h-4z"/><path fill="#0C2546" d="M124 28h4v4h-4z"/><path fill="#0C2546" opacity=".98" d="M128 28h4v4h-4zM132 28h4v4h-4zM136 28h4v4h-4zM140 28h4v4h-4zM100 32h4v4h-4zM104 32h4v4h-4zM108 32h4v4h-4z"/><path fill="#1B4070" d="M112 32h4v4h-4zM116 32h4v4h-4zM120 32h4v4h-4zM124 32h4v4h-4zM128 32h4v4h-4z"/><path fill="#0D2647" d="M132 32h4v4h-4z"/><path fill="#0C2546" opacity=".98" d="M136 32h4v4h-4zM140 32h4v4h-4zM92 36h4v4h-4zM96 36h4v4h-4zM100 36h4v4h-4zM104 36h4v4h-4zM108 36h4v4h-4z"/><path fill="#0C2546" d="M112 36h4v4h-4z"/><path fill="#1C4171" d="M116 36h4v4h-4zM120 36h4v4h-4zM124 36h4v4h-4zM128 36h4v4h-4zM132 36h4v4h-4z"/><path fill="#0C2546" d="M136 36h4v4h-4zM140 36h4v4h-4z"/><path fill="#0C2546" opacity=".98" d="M84 40h4v4h-4zM88 40h4v4h-4zM92 40h4v4h-4zM96 40h4v4h-4z"/><path fill="#0C2546" d="M100 40h4v4h-4zM104 40h4v4h-4zM108 40h4v4h-4zM112 40h4v4h-4zM116 40h4v4h-4z"/><path fill="#1C4171" d="M120 40h4v4h-4zM124 40h4v4h-4zM128 40h4v4h-4zM132 40h4v4h-4z"/><path fill="#0C2546" d="M136 40h4v4h-4zM140 40h4v4h-4zM144 40h4v4h-4z"/><path fill="#0C2546" opacity=".98" d="M80 44h4v4h-4zM84 44h4v4h-4zM88 44h4v4h-4z"/><path fill="#0C2546" d="M92 44h4v4h-4zM96 44h4v4h-4zM100 44h4v4h-4zM104 44h4v4h-4zM108 44h4v4h-4zM112 44h4v4h-4zM116 44h4v4h-4z"/><path fill="#1C4171" d="M120 44h4v4h-4zM124 44h4v4h-4zM128 44h4v4h-4zM132 44h4v4h-4z"/><path fill="#0C2546" d="M136 44h4v4h-4zM140 44h4v4h-4zM144 44h4v4h-4z"/><path fill="#0C2546" opacity=".98" d="M76 48h4v4h-4zM80 48h4v4h-4zM84 48h4v4h-4z"/><path fill="#0C2546" d="M88 48h4v4h-4zM92 48h4v4h-4zM96 48h4v4h-4zM100 48h4v4h-4zM104 48h4v4h-4zM108 48h4v4h-4zM112 48h4v4h-4zM116 48h4v4h-4zM120 48h4v4h-4z"/><path fill="#1C4171" d="M124 48h4v4h-4zM128 48h4v4h-4zM132 48h4v4h-4z"/><path fill="#0C2546" d="M136 48h4v4h-4zM140 48h4v4h-4zM144 48h4v4h-4z"/><path fill="#0C2546" opacity=".98" d="M80 52h4v4h-4z"/><path fill="#0C2546" d="M84 52h4v4h-4zM88 52h4v4h-4zM92 52h4v4h-4zM96 52h4v4h-4zM100 52h4v4h-4zM104 52h4v4h-4zM108 52h4v4h-4zM112 52h4v4h-4zM116 52h4v4h-4zM120 52h4v4h-4z"/><path fill="#1C4171" d="M124 52h4v4h-4zM128 52h4v4h-4zM132 52h4v4h-4z"/><path fill="#0C2546" d="M136 52h4v4h-4zM140 52h4v4h-4zM144 52h4v4h-4z"/><path fill="#0C2546" opacity=".98" d="M148 52h4v4h-4z"/><path fill="#0C2546" d="M84 56h4v4h-4zM88 56h4v4h-4zM92 56h4v4h-4zM96 56h4v4h-4zM100 56h4v4h-4zM104 56h4v4h-4zM108 56h4v4h-4zM112 56h4v4h-4zM116 56h4v4h-4zM120 56h4v4h-4zM124 56h4v4h-4z"/><path fill="#1C4171" d="M128 56h4v4h-4zM132 56h4v4h-4zM136 56h4v4h-4z"/><path fill="#0C2546" d="M140 56h4v4h-4zM144 56h4v4h-4zM148 56h4v4h-4zM88 60h4v4h-4zM92 60h4v4h-4zM96 60h4v4h-4zM100 60h4v4h-4zM104 60h4v4h-4zM108 60h4v4h-4zM112 60h4v4h-4zM116 60h4v4h-4zM120 60h4v4h-4zM124 60h4v4h-4z"/><path fill="#1C4171" d="M128 60h4v4h-4zM132 60h4v4h-4zM136 60h4v4h-4z"/><path fill="#0C2546" d="M140 60h4v4h-4zM144 60h4v4h-4zM148 60h4v4h-4zM88 64h4v4h-4zM92 64h4v4h-4zM96 64h4v4h-4zM100 64h4v4h-4zM104 64h4v4h-4zM108 64h4v4h-4zM112 64h4v4h-4zM116 64h4v4h-4zM120 64h4v4h-4zM124 64h4v4h-4zM128 64h4v4h-4z"/><path fill="#0D2647" d="M132 64h4v4h-4z"/><path fill="#1C4171" d="M136 64h4v4h-4z"/><path fill="#0C2546" d="M140 64h4v4h-4zM144 64h4v4h-4zM148 64h4v4h-4zM152 64h4v4h-4zM156 64h4v4h-4zM160 64h4v4h-4zM164 64h4v4h-4z"/><path fill="#1B4070" d="M168 64h4v4h-4z"/><path fill="#0C2546" d="M92 68h4v4h-4zM96 68h4v4h-4zM100 68h4v4h-4zM104 68h4v4h-4zM108 68h4v4h-4zM112 68h4v4h-4zM116 68h4v4h-4zM120 68h4v4h-4zM124 68h4v4h-4zM128 68h4v4h-4z"/><path fill="#0D2647" d="M132 68h4v4h-4zM136 68h4v4h-4z"/><path fill="#0C2546" d="M140 68h4v4h-4zM144 68h4v4h-4zM148 68h4v4h-4zM152 68h4v4h-4zM156 68h4v4h-4z"/><path fill="#1B4070" d="M160 68h4v4h-4zM164 68h4v4h-4z"/><path fill="#0C2546" d="M168 68h4v4h-4zM92 72h4v4h-4zM96 72h4v4h-4zM100 72h4v4h-4zM104 72h4v4h-4zM108 72h4v4h-4zM112 72h4v4h-4zM116 72h4v4h-4zM120 72h4v4h-4zM124 72h4v4h-4zM128 72h4v4h-4zM132 72h4v4h-4z"/><path fill="#0D2647" d="M136 72h4v4h-4z"/><path fill="#0C2546" d="M140 72h4v4h-4zM144 72h4v4h-4zM148 72h4v4h-4z"/><path fill="#2D578D" d="M152 72h4v4h-4zM156 72h4v4h-4zM160 72h4v4h-4z"/><path fill="#0C2546" d="M164 72h4v4h-4zM96 76h4v4h-4zM100 76h4v4h-4zM104 76h4v4h-4zM108 76h4v4h-4zM112 76h4v4h-4zM116 76h4v4h-4zM120 76h4v4h-4zM124 76h4v4h-4zM128 76h4v4h-4zM132 76h4v4h-4zM136 76h4v4h-4zM140 76h4v4h-4z"/><path fill="#1B4070" d="M144 76h4v4h-4zM148 76h4v4h-4z"/><path fill="#2D578D" d="M152 76h4v4h-4z"/><path fill="#0C2546" d="M156 76h4v4h-4zM160 76h4v4h-4z"/><path fill="#CCDDED" d="M164 76h4v4h-4z"/><path fill="#8882B7" d="M168 76h4v4h-4z"/><path fill="#0C2546" d="M96 80h4v4h-4zM100 80h4v4h-4zM104 80h4v4h-4zM108 80h4v4h-4zM112 80h4v4h-4zM116 80h4v4h-4zM120 80h4v4h-4zM124 80h4v4h-4z"/><path fill="#1B4070" d="M128 80h4v4h-4zM132 80h4v4h-4zM136 80h4v4h-4zM140 80h4v4h-4z"/><path fill="#0C2546" d="M144 80h4v4h-4zM148 80h4v4h-4zM152 80h4v4h-4z"/><path fill="#CADCEA" d="M156 80h4v4h-4z"/><path fill="#CCDDEB" d="M160 80h4v4h-4z"/><path fill="#E9E8EF" opacity=".98" d="M164 80h4v4h-4zM168 80h4v4h-4z"/><path fill="#8680B4" d="M172 80h4v4h-4zM176 80h4v4h-4z"/><path fill="#0C2546" d="M88 84h4v4h-4zM92 84h4v4h-4zM96 84h4v4h-4zM100 84h4v4h-4zM104 84h4v4h-4zM108 84h4v4h-4z"/><path fill="#1B4070" d="M112 84h4v4h-4zM116 84h4v4h-4zM120 84h4v4h-4zM124 84h4v4h-4z"/><path fill="#0C2546" d="M128 84h4v4h-4zM132 84h4v4h-4zM136 84h4v4h-4zM140 84h4v4h-4zM144 84h4v4h-4z"/><path fill="#CADCEA" d="M148 84h4v4h-4zM152 84h4v4h-4zM156 84h4v4h-4z"/><path fill="#E8E7EE" d="M160 84h4v4h-4z"/><path fill="#E7E5EC" d="M164 84h4v4h-4z"/><path fill="#E8E6ED" d="M168 84h4v4h-4z"/><path fill="#E7E5EC" d="M172 84h4v4h-4zM176 84h4v4h-4z"/><path fill="#8A84B8" d="M180 84h4v4h-4z"/><path fill="#0C2546" d="M80 88h4v4h-4zM84 88h4v4h-4zM88 88h4v4h-4zM92 88h4v4h-4zM96 88h4v4h-4zM100 88h4v4h-4zM104 88h4v4h-4z"/><path fill="#1B4070" d="M108 88h4v4h-4z"/><path fill="#0C2546" d="M112 88h4v4h-4zM116 88h4v4h-4zM120 88h4v4h-4zM124 88h4v4h-4zM128 88h4v4h-4z"/><path fill="#CBDCEC" d="M132 88h4v4h-4zM136 88h4v4h-4z"/><path fill="#C7D8E7" d="M140 88h4v4h-4z"/><path fill="#C8D8E8" d="M144 88h4v4h-4z"/><path fill="#CCDDEB" d="M148 88h4v4h-4zM152 88h4v4h-4zM156 88h4v4h-4z"/><path fill="#E7E5EC" d="M160 88h4v4h-4z"/><path fill="#E7E6ED" d="M164 88h4v4h-4z"/><path fill="#E7E5EC" d="M168 88h4v4h-4zM172 88h4v4h-4zM176 88h4v4h-4z"/><path fill="#E3E1E8" d="M180 88h4v4h-4z"/><path fill="#8882B7" opacity=".98" d="M184 88h4v4h-4z"/><path fill="#0C2546" d="M80 92h4v4h-4zM84 92h4v4h-4zM88 92h4v4h-4zM92 92h4v4h-4zM96 92h4v4h-4zM100 92h4v4h-4zM104 92h4v4h-4zM108 92h4v4h-4zM112 92h4v4h-4zM116 92h4v4h-4z"/><path fill="#CEDFEF" d="M120 92h4v4h-4zM124 92h4v4h-4z"/><path fill="#CEDAEA" d="M128 92h4v4h-4z"/><path fill="#CADBEB" d="M132 92h4v4h-4z"/><path fill="#CBDCEC" d="M136 92h4v4h-4z"/><path fill="#C7D8E7" d="M140 92h4v4h-4z"/><path fill="#C8D8E8" d="M144 92h4v4h-4z"/><path fill="#CCDDEB" d="M148 92h4v4h-4zM152 92h4v4h-4z"/><path fill="#E6E4EB" d="M156 92h4v4h-4z"/><path fill="#E7E5EC" d="M160 92h4v4h-4z"/><path fill="#E8E6ED" d="M164 92h4v4h-4z"/><path fill="#E7E5EC" d="M168 92h4v4h-4zM172 92h4v4h-4zM176 92h4v4h-4z"/><path fill="#E3E1E8" d="M180 92h4v4h-4z"/><path fill="#8882B7" d="M184 92h4v4h-4z"/><path fill="#8882B7" opacity=".98" d="M84 96h4v4h-4z"/><path fill="#CDDEEE" d="M88 96h4v4h-4z"/><path fill="#CEDFEE" d="M92 96h4v4h-4zM96 96h4v4h-4zM100 96h4v4h-4zM104 96h4v4h-4zM108 96h4v4h-4zM112 96h4v4h-4zM116 96h4v4h-4zM120 96h4v4h-4z"/><path fill="#CDDEEE" d="M124 96h4v4h-4zM128 96h4v4h-4zM132 96h4v4h-4zM136 96h4v4h-4z"/><path fill="#8681B5" d="M140 96h4v4h-4zM144 96h4v4h-4z"/><path fill="#CCDDEB" d="M148 96h4v4h-4z"/><path fill="#E6E4EB" d="M152 96h4v4h-4zM156 96h4v4h-4z"/><path fill="#E9E8EF" d="M160 96h4v4h-4z"/><path fill="#CCDDED" d="M164 96h4v4h-4z"/><path fill="#CCDDEC" d="M168 96h4v4h-4z"/><path fill="#8681B5" d="M172 96h4v4h-4zM176 96h4v4h-4z"/><path fill="#E9E8EF" d="M180 96h4v4h-4zM184 96h4v4h-4z"/><path fill="#8882B7" d="M188 96h4v4h-4z"/><path fill="#8882B7" opacity=".98" d="M84 100h4v4h-4z"/><path fill="#CDDEEE" d="M88 100h4v4h-4z"/><path fill="#CEDFEE" d="M92 100h4v4h-4zM96 100h4v4h-4zM100 100h4v4h-4zM104 100h4v4h-4zM108 100h4v4h-4zM112 100h4v4h-4zM116 100h4v4h-4z"/><path fill="#CDDEEE" d="M120 100h4v4h-4zM124 100h4v4h-4zM128 100h4v4h-4z"/><path fill="#CADBEB" d="M132 100h4v4h-4z"/><path fill="#8680B5" d="M136 100h4v4h-4z"/><path fill="#E8E7EE" d="M140 100h4v4h-4zM144 100h4v4h-4zM148 100h4v4h-4zM152 100h4v4h-4zM156 100h4v4h-4z"/><path fill="#E9E8EF" d="M160 100h4v4h-4zM164 100h4v4h-4z"/><path fill="#CBDCEC" d="M168 100h4v4h-4zM172 100h4v4h-4zM176 100h4v4h-4z"/><path fill="#8680B5" d="M180 100h4v4h-4z"/><path fill="#E9E8EF" d="M184 100h4v4h-4z"/><path fill="#8882B7" d="M188 100h4v4h-4z"/><path fill="#8882B7" opacity=".98" d="M84 104h4v4h-4z"/><path fill="#CDDEEE" d="M88 104h4v4h-4z"/><path fill="#CEDFEE" d="M92 104h4v4h-4z"/><path fill="#E6E5EE" d="M96 104h4v4h-4z"/><path fill="#CEDFEE" d="M100 104h4v4h-4zM104 104h4v4h-4zM108 104h4v4h-4z"/><path fill="#CDDEEE" d="M112 104h4v4h-4zM116 104h4v4h-4zM120 104h4v4h-4zM124 104h4v4h-4zM128 104h4v4h-4z"/><path fill="#CADBEB" d="M132 104h4v4h-4z"/><path fill="#E6E3E9" d="M136 104h4v4h-4z"/><path fill="#505266" d="M140 104h4v4h-4z"/><path fill="#535569" d="M144 104h4v4h-4z"/><path fill="#E5E4EA" d="M148 104h4v4h-4zM152 104h4v4h-4zM156 104h4v4h-4z"/><path fill="#E9E8EF" d="M160 104h4v4h-4z"/><path fill="#E4E3EB" d="M164 104h4v4h-4z"/><path fill="#C8D9E9" d="M168 104h4v4h-4z"/><path fill="#535569" d="M172 104h4v4h-4zM176 104h4v4h-4z"/><path fill="#8680B5" d="M180 104h4v4h-4z"/><path fill="#CFE0EF" d="M184 104h4v4h-4z"/><path fill="#E9E8EF" d="M188 104h4v4h-4z"/><path fill="#8882B7" d="M84 108h4v4h-4z"/><path fill="#CDDEEE" d="M88 108h4v4h-4z"/><path fill="#CEDFEE" d="M92 108h4v4h-4z"/><path fill="#E6E5EE" d="M96 108h4v4h-4zM100 108h4v4h-4z"/><path fill="#CDDEEE" d="M104 108h4v4h-4zM108 108h4v4h-4zM112 108h4v4h-4zM116 108h4v4h-4zM120 108h4v4h-4zM124 108h4v4h-4zM128 108h4v4h-4z"/><path fill="#CEDFEF" d="M132 108h4v4h-4z"/><path fill="#8681B5" d="M136 108h4v4h-4z"/><path fill="#505266" d="M140 108h4v4h-4zM144 108h4v4h-4z"/><path fill="#E6E5E9" d="M148 108h4v4h-4zM152 108h4v4h-4zM156 108h4v4h-4z"/><path fill="#CFE0EF" d="M160 108h4v4h-4z"/><path fill="#E4E3ED" d="M164 108h4v4h-4z"/><path fill="#C8D9E9" d="M168 108h4v4h-4z"/><path fill="#55576A" d="M172 108h4v4h-4zM176 108h4v4h-4z"/><path fill="#8680B5" d="M180 108h4v4h-4z"/><path fill="#CFE0EF" d="M184 108h4v4h-4z"/><path fill="#E9E8EF" d="M188 108h4v4h-4z"/><path fill="#8882B7" d="M84 112h4v4h-4z"/><path fill="#CDDEEE" d="M88 112h4v4h-4zM92 112h4v4h-4z"/><path fill="#E6E5EE" d="M96 112h4v4h-4zM100 112h4v4h-4z"/><path fill="#CDDEEE" d="M104 112h4v4h-4zM108 112h4v4h-4zM112 112h4v4h-4zM116 112h4v4h-4zM120 112h4v4h-4z"/><path fill="#CEDFEE" d="M124 112h4v4h-4z"/><path fill="#CEDFEF" d="M128 112h4v4h-4zM132 112h4v4h-4z"/><path fill="#8FB8D7" d="M136 112h4v4h-4z"/><path fill="#8680B5" d="M140 112h4v4h-4z"/><path fill="#CEDFEF" d="M144 112h4v4h-4zM148 112h4v4h-4zM152 112h4v4h-4zM156 112h4v4h-4z"/><path fill="#E9E8EF" d="M160 112h4v4h-4z"/><path fill="#FF8F51" d="M164 112h4v4h-4z"/><path fill="#FF8E51" d="M168 112h4v4h-4z"/><path fill="#FB8A51" d="M172 112h4v4h-4zM176 112h4v4h-4z"/><path fill="#FE8E54" d="M180 112h4v4h-4zM184 112h4v4h-4zM188 112h4v4h-4z"/><path fill="#E2672B" d="M192 112h4v4h-4z"/><path fill="#8882B7" d="M84 116h4v4h-4z"/><path fill="#CDDEEE" d="M88 116h4v4h-4zM92 116h4v4h-4zM96 116h4v4h-4zM100 116h4v4h-4zM104 116h4v4h-4zM108 116h4v4h-4zM112 116h4v4h-4zM116 116h4v4h-4z"/><path fill="#CEDFEE" d="M120 116h4v4h-4z"/><path fill="#CEDFED" d="M124 116h4v4h-4z"/><path fill="#E7E5EB" d="M128 116h4v4h-4z"/><path fill="#E9E8EF" d="M132 116h4v4h-4zM136 116h4v4h-4z"/><path fill="#E7E7EE" d="M140 116h4v4h-4z"/><path fill="#E7E6ED" d="M144 116h4v4h-4zM148 116h4v4h-4zM152 116h4v4h-4zM156 116h4v4h-4z"/><path fill="#E2672B" d="M160 116h4v4h-4z"/><path fill="#FF8C50" d="M164 116h4v4h-4zM168 116h4v4h-4z"/><path fill="#FE8E54" d="M172 116h4v4h-4zM176 116h4v4h-4z"/><path fill="#E2672B" d="M180 116h4v4h-4zM184 116h4v4h-4zM188 116h4v4h-4z"/><path fill="#8882B7" d="M84 120h4v4h-4z"/><path fill="#CDDEEE" d="M88 120h4v4h-4zM92 120h4v4h-4zM96 120h4v4h-4zM100 120h4v4h-4z"/><path fill="#CEDFEE" d="M104 120h4v4h-4zM108 120h4v4h-4z"/><path fill="#CDDEEE" d="M112 120h4v4h-4zM116 120h4v4h-4z"/><path fill="#E6E5ED" d="M120 120h4v4h-4z"/><path fill="#E8E7EE" d="M124 120h4v4h-4zM128 120h4v4h-4z"/><path fill="#E9E8EF" opacity=".98" d="M132 120h4v4h-4zM136 120h4v4h-4zM140 120h4v4h-4z"/><path fill="#E9E8EF" d="M144 120h4v4h-4z"/><path fill="#E9E8EF" opacity=".98" d="M148 120h4v4h-4zM152 120h4v4h-4zM156 120h4v4h-4z"/><path fill="#E2692E" d="M160 120h4v4h-4zM164 120h4v4h-4zM168 120h4v4h-4zM172 120h4v4h-4zM176 120h4v4h-4z"/><path fill="#E9E8EF" opacity=".98" d="M180 120h4v4h-4z"/><path fill="#E7E6ED" d="M184 120h4v4h-4z"/><path fill="#E9E8EF" d="M188 120h4v4h-4z"/><path fill="#8882B7" opacity=".98" d="M84 124h4v4h-4z"/><path fill="#CDDEEE" d="M88 124h4v4h-4zM92 124h4v4h-4zM96 124h4v4h-4zM100 124h4v4h-4zM104 124h4v4h-4zM108 124h4v4h-4z"/><path fill="#CEDFEE" d="M112 124h4v4h-4z"/><path fill="#CEDFED" d="M116 124h4v4h-4z"/><path fill="#E6E5EE" d="M120 124h4v4h-4z"/><path fill="#E8E7EE" d="M124 124h4v4h-4z"/><path fill="#E7E6EE" d="M128 124h4v4h-4z"/><path fill="#E7E6ED" d="M132 124h4v4h-4z"/><path fill="#978897" d="M136 124h4v4h-4z"/><path fill="#E8E7EE" d="M140 124h4v4h-4zM144 124h4v4h-4z"/><path fill="#E6E5EC" d="M148 124h4v4h-4zM152 124h4v4h-4zM156 124h4v4h-4z"/><path fill="#8BB6D5" d="M160 124h4v4h-4z"/><path fill="#91B9D8" d="M164 124h4v4h-4zM168 124h4v4h-4z"/><path fill="#E6E5EC" d="M172 124h4v4h-4zM176 124h4v4h-4z"/><path fill="#9B8C9B" d="M180 124h4v4h-4z"/><path fill="#E7E6ED" d="M184 124h4v4h-4zM188 124h4v4h-4z"/><path fill="#8882B7" d="M88 128h4v4h-4z"/><path fill="#CDDEEE" d="M92 128h4v4h-4zM96 128h4v4h-4zM100 128h4v4h-4zM104 128h4v4h-4zM108 128h4v4h-4zM112 128h4v4h-4zM116 128h4v4h-4z"/><path fill="#E6E5EE" d="M120 128h4v4h-4z"/><path fill="#E8E7EE" d="M124 128h4v4h-4zM128 128h4v4h-4z"/><path fill="#E9E8EF" d="M132 128h4v4h-4zM136 128h4v4h-4z"/><path fill="#E6E4ED" d="M140 128h4v4h-4z"/><path fill="#958695" d="M144 128h4v4h-4z"/><path fill="#CEDFEF" d="M148 128h4v4h-4zM152 128h4v4h-4zM156 128h4v4h-4z"/><path fill="#958695" d="M160 128h4v4h-4z"/><path fill="#CEDFEF" d="M164 128h4v4h-4z"/><path fill="#958695" d="M168 128h4v4h-4z"/><path fill="#CADCEB" d="M172 128h4v4h-4z"/><path fill="#978897" d="M176 128h4v4h-4z"/><path fill="#E9E8EF" d="M180 128h4v4h-4zM184 128h4v4h-4z"/><path fill="#8780B3" d="M188 128h4v4h-4z"/><path fill="#CDDEEE" d="M92 132h4v4h-4zM96 132h4v4h-4zM100 132h4v4h-4zM104 132h4v4h-4zM108 132h4v4h-4zM112 132h4v4h-4zM116 132h4v4h-4zM120 132h4v4h-4z"/><path fill="#E6E5EE" d="M124 132h4v4h-4z"/><path fill="#E8E7EE" d="M128 132h4v4h-4zM132 132h4v4h-4zM136 132h4v4h-4z"/><path fill="#E9E8EF" d="M140 132h4v4h-4z"/><path fill="#CCDEED" d="M144 132h4v4h-4z"/><path fill="#E8E7EE" d="M148 132h4v4h-4zM152 132h4v4h-4zM156 132h4v4h-4z"/><path fill="#CCDEED" d="M160 132h4v4h-4z"/><path fill="#E9E8EF" d="M164 132h4v4h-4z"/><path fill="#CCDEED" d="M168 132h4v4h-4zM172 132h4v4h-4zM176 132h4v4h-4z"/><path fill="#E9E8EF" d="M180 132h4v4h-4zM184 132h4v4h-4z"/><path fill="#8981B3" d="M188 132h4v4h-4z"/><path fill="#8882B7" d="M92 136h4v4h-4z"/><path fill="#CDDEEE" d="M96 136h4v4h-4zM100 136h4v4h-4zM104 136h4v4h-4zM108 136h4v4h-4zM112 136h4v4h-4zM116 136h4v4h-4zM120 136h4v4h-4zM124 136h4v4h-4zM128 136h4v4h-4z"/><path fill="#E8E7EF" d="M132 136h4v4h-4zM136 136h4v4h-4z"/><path fill="#E9E8EF" d="M140 136h4v4h-4zM144 136h4v4h-4z"/><path fill="#E7E5EC" d="M148 136h4v4h-4zM152 136h4v4h-4zM156 136h4v4h-4z"/><path fill="#E8E4EB" d="M160 136h4v4h-4z"/><path fill="#E8E5ED" d="M164 136h4v4h-4z"/><path fill="#E9E8EF" d="M168 136h4v4h-4zM172 136h4v4h-4zM176 136h4v4h-4zM180 136h4v4h-4z"/><path fill="#CFE0EE" d="M184 136h4v4h-4z"/><path fill="#D22436" opacity=".98" d="M188 136h4v4h-4z"/><path fill="#D0273A" d="M92 140h4v4h-4z"/><path fill="#D1283A" d="M96 140h4v4h-4zM100 140h4v4h-4zM104 140h4v4h-4zM108 140h4v4h-4zM112 140h4v4h-4z"/><path fill="#CDDEEE" d="M116 140h4v4h-4zM120 140h4v4h-4zM124 140h4v4h-4zM128 140h4v4h-4z"/><path fill="#CEDFEF" d="M132 140h4v4h-4z"/><path fill="#CDDEEE" d="M136 140h4v4h-4z"/><path fill="#CEDFED" d="M140 140h4v4h-4zM144 140h4v4h-4z"/><path fill="#E7E3EC" d="M148 140h4v4h-4zM152 140h4v4h-4zM156 140h4v4h-4zM160 140h4v4h-4zM164 140h4v4h-4zM168 140h4v4h-4z"/><path fill="#CEDEED" d="M172 140h4v4h-4zM176 140h4v4h-4z"/><path fill="#D1283A" d="M180 140h4v4h-4zM184 140h4v4h-4z"/><path fill="#D02639" d="M188 140h4v4h-4z"/><path fill="#E72D40" opacity=".98" d="M192 140h4v4h-4z"/><path fill="#8882B7" d="M92 144h4v4h-4z"/><path fill="#E53043" d="M96 144h4v4h-4zM100 144h4v4h-4z"/><path fill="#E72D40" d="M104 144h4v4h-4zM108 144h4v4h-4zM112 144h4v4h-4z"/><path fill="#D22C3E" d="M116 144h4v4h-4zM120 144h4v4h-4z"/><path fill="#D02C3E" d="M124 144h4v4h-4z"/><path fill="#D22436" d="M128 144h4v4h-4zM132 144h4v4h-4z"/><path fill="#CEDAEA" d="M136 144h4v4h-4zM140 144h4v4h-4zM144 144h4v4h-4zM148 144h4v4h-4zM152 144h4v4h-4zM156 144h4v4h-4zM160 144h4v4h-4z"/><path fill="#D22639" d="M164 144h4v4h-4z"/><path fill="#D22638" d="M168 144h4v4h-4z"/><path fill="#D22739" d="M172 144h4v4h-4zM176 144h4v4h-4zM180 144h4v4h-4z"/><path fill="#E72D40" d="M184 144h4v4h-4zM188 144h4v4h-4z"/><path fill="#D3283A" d="M192 144h4v4h-4z"/><path fill="#CDDEEE" d="M196 144h4v4h-4zM200 144h4v4h-4z"/><path fill="#8882B7" d="M204 144h4v4h-4zM208 144h4v4h-4z"/><path fill="#E72D40" d="M92 148h4v4h-4zM96 148h4v4h-4zM100 148h4v4h-4zM104 148h4v4h-4zM108 148h4v4h-4z"/><path fill="#CEDAEA" d="M112 148h4v4h-4zM116 148h4v4h-4zM120 148h4v4h-4z"/><path fill="#E72D40" d="M124 148h4v4h-4zM128 148h4v4h-4zM132 148h4v4h-4zM136 148h4v4h-4z"/><path fill="#D22436" d="M140 148h4v4h-4z"/><path fill="#E72D40" d="M144 148h4v4h-4zM148 148h4v4h-4zM152 148h4v4h-4zM156 148h4v4h-4zM160 148h4v4h-4z"/><path fill="#D02436" d="M164 148h4v4h-4z"/><path fill="#D22436" d="M168 148h4v4h-4z"/><path fill="#E62C3F" d="M172 148h4v4h-4zM176 148h4v4h-4zM180 148h4v4h-4zM184 148h4v4h-4zM188 148h4v4h-4z"/><path fill="#E72D40" d="M192 148h4v4h-4z"/><path fill="#CDDEEE" d="M196 148h4v4h-4zM200 148h4v4h-4z"/><path fill="#8882B7" d="M204 148h4v4h-4zM208 148h4v4h-4zM88 152h4v4h-4z"/><path fill="#E63144" d="M92 152h4v4h-4z"/><path fill="#CFD6E6" d="M96 152h4v4h-4z"/><path fill="#CEDAEA" d="M100 152h4v4h-4z"/><path fill="#E63144" d="M104 152h4v4h-4zM108 152h4v4h-4z"/><path fill="#E72D40" d="M112 152h4v4h-4z"/><path fill="#CEDAEA" d="M116 152h4v4h-4zM120 152h4v4h-4zM124 152h4v4h-4z"/><path fill="#E72D40" d="M128 152h4v4h-4zM132 152h4v4h-4zM136 152h4v4h-4zM140 152h4v4h-4zM144 152h4v4h-4zM148 152h4v4h-4zM152 152h4v4h-4zM156 152h4v4h-4z"/><path fill="#D22436" d="M160 152h4v4h-4zM164 152h4v4h-4zM168 152h4v4h-4zM172 152h4v4h-4zM176 152h4v4h-4z"/><path fill="#D3283A" d="M180 152h4v4h-4z"/><path fill="#E72D40" d="M184 152h4v4h-4z"/><path fill="#E62E41" d="M188 152h4v4h-4z"/><path fill="#E72D40" d="M192 152h4v4h-4z"/><path fill="#8DB3D2" d="M196 152h4v4h-4zM200 152h4v4h-4z"/><path fill="#8882B7" d="M204 152h4v4h-4zM208 152h4v4h-4zM88 156h4v4h-4z"/><path fill="#E63144" d="M92 156h4v4h-4zM96 156h4v4h-4z"/><path fill="#CEDAEA" d="M100 156h4v4h-4zM104 156h4v4h-4z"/><path fill="#E63144" d="M108 156h4v4h-4z"/><path fill="#E72D40" d="M112 156h4v4h-4z"/><path fill="#CEDAEA" d="M116 156h4v4h-4zM120 156h4v4h-4z"/><path fill="#E72D40" d="M124 156h4v4h-4zM128 156h4v4h-4zM132 156h4v4h-4zM136 156h4v4h-4zM140 156h4v4h-4zM144 156h4v4h-4zM148 156h4v4h-4zM152 156h4v4h-4zM156 156h4v4h-4z"/><path fill="#8DB3D1" d="M160 156h4v4h-4zM164 156h4v4h-4zM168 156h4v4h-4z"/><path fill="#D22436" d="M172 156h4v4h-4zM176 156h4v4h-4z"/><path fill="#E72D40" d="M180 156h4v4h-4zM184 156h4v4h-4z"/><path fill="#8DB3D2" d="M188 156h4v4h-4z"/><path fill="#8DB7D6" d="M192 156h4v4h-4zM196 156h4v4h-4zM200 156h4v4h-4z"/><path fill="#8CB4D1" d="M204 156h4v4h-4zM208 156h4v4h-4z"/><path fill="#E72D40" d="M88 160h4v4h-4zM92 160h4v4h-4zM96 160h4v4h-4zM100 160h4v4h-4zM104 160h4v4h-4zM108 160h4v4h-4zM112 160h4v4h-4zM116 160h4v4h-4zM120 160h4v4h-4zM124 160h4v4h-4zM128 160h4v4h-4z"/><path fill="#D02538" d="M132 160h4v4h-4z"/><path fill="#D22436" d="M136 160h4v4h-4zM140 160h4v4h-4z"/><path fill="#8DB3D1" d="M144 160h4v4h-4zM148 160h4v4h-4zM152 160h4v4h-4zM156 160h4v4h-4z"/><path fill="#CDDEEE" d="M160 160h4v4h-4zM164 160h4v4h-4z"/><path fill="#8DB7D6" d="M168 160h4v4h-4zM172 160h4v4h-4zM176 160h4v4h-4zM180 160h4v4h-4z"/><path fill="#8CB7D6" d="M184 160h4v4h-4z"/><path fill="#CBDDED" d="M188 160h4v4h-4zM192 160h4v4h-4z"/><path fill="#CEDFEF" d="M196 160h4v4h-4zM200 160h4v4h-4zM204 160h4v4h-4zM208 160h4v4h-4z"/><path fill="#8882B7" d="M84 164h4v4h-4z"/><path fill="#E72D40" d="M88 164h4v4h-4zM92 164h4v4h-4z"/><path fill="#D1D1E1" d="M96 164h4v4h-4z"/><path fill="#E72D40" d="M100 164h4v4h-4zM104 164h4v4h-4zM108 164h4v4h-4z"/><path fill="#CFD6E6" d="M112 164h4v4h-4z"/><path fill="#E72D40" d="M116 164h4v4h-4zM120 164h4v4h-4zM124 164h4v4h-4z"/><path fill="#8FB2D1" d="M128 164h4v4h-4zM132 164h4v4h-4z"/><path fill="#8DB5D4" d="M136 164h4v4h-4z"/><path fill="#8DB7D6" d="M140 164h4v4h-4zM144 164h4v4h-4z"/><path fill="#CCDEEE" d="M148 164h4v4h-4zM152 164h4v4h-4z"/><path fill="#CDDEEE" d="M156 164h4v4h-4z"/><path fill="#CEDFEF" d="M160 164h4v4h-4zM164 164h4v4h-4zM168 164h4v4h-4z"/><path fill="#CBDDED" d="M172 164h4v4h-4zM176 164h4v4h-4zM180 164h4v4h-4zM184 164h4v4h-4z"/><path fill="#CEDFEF" d="M188 164h4v4h-4zM192 164h4v4h-4zM196 164h4v4h-4zM200 164h4v4h-4zM204 164h4v4h-4zM208 164h4v4h-4z"/><path fill="#8882B7" d="M212 164h4v4h-4zM84 168h4v4h-4z"/><path fill="#E72D40" d="M88 168h4v4h-4z"/><path fill="#CFD6E6" d="M92 168h4v4h-4z"/><path fill="#E63144" d="M96 168h4v4h-4zM100 168h4v4h-4z"/><path fill="#E72D40" d="M104 168h4v4h-4zM108 168h4v4h-4zM112 168h4v4h-4zM116 168h4v4h-4zM120 168h4v4h-4z"/><path fill="#8FB2D1" d="M124 168h4v4h-4zM128 168h4v4h-4zM132 168h4v4h-4z"/><path fill="#8DB4D3" d="M136 168h4v4h-4z"/><path fill="#CDDEEE" d="M140 168h4v4h-4zM144 168h4v4h-4zM148 168h4v4h-4zM152 168h4v4h-4zM156 168h4v4h-4z"/><path fill="#E8E7EF" d="M160 168h4v4h-4zM164 168h4v4h-4zM168 168h4v4h-4z"/><path fill="#CFE0EF" d="M172 168h4v4h-4zM176 168h4v4h-4z"/><path fill="#E8E7EF" d="M180 168h4v4h-4z"/><path fill="#CFE0EF" d="M184 168h4v4h-4z"/><path fill="#CEDFEF" d="M188 168h4v4h-4zM192 168h4v4h-4z"/><path fill="#E9E8EF" d="M196 168h4v4h-4zM200 168h4v4h-4zM204 168h4v4h-4zM208 168h4v4h-4zM212 168h4v4h-4z"/><path fill="#8882B7" d="M216 168h4v4h-4zM84 172h4v4h-4z"/><path fill="#E72D40" d="M88 172h4v4h-4z"/><path fill="#D0D5E5" d="M92 172h4v4h-4z"/><path fill="#E63144" d="M96 172h4v4h-4z"/><path fill="#E72D40" d="M100 172h4v4h-4zM104 172h4v4h-4zM108 172h4v4h-4zM112 172h4v4h-4zM116 172h4v4h-4zM120 172h4v4h-4zM124 172h4v4h-4z"/><path fill="#8FB2D1" d="M128 172h4v4h-4z"/><path fill="#CCD9E9" d="M132 172h4v4h-4z"/><path fill="#CBDDED" d="M136 172h4v4h-4z"/><path fill="#CDDCEC" d="M140 172h4v4h-4z"/><path fill="#CDDEEE" d="M144 172h4v4h-4zM148 172h4v4h-4zM152 172h4v4h-4zM156 172h4v4h-4z"/><path fill="#E8E7EF" d="M160 172h4v4h-4zM164 172h4v4h-4z"/><path fill="#E9E8EF" d="M168 172h4v4h-4zM172 172h4v4h-4zM176 172h4v4h-4z"/><path fill="#E8E7EF" d="M180 172h4v4h-4zM184 172h4v4h-4z"/><path fill="#E9E8EF" d="M188 172h4v4h-4zM192 172h4v4h-4zM196 172h4v4h-4zM200 172h4v4h-4zM204 172h4v4h-4zM208 172h4v4h-4zM212 172h4v4h-4zM216 172h4v4h-4z"/><path fill="#596E8A" d="M220 172h4v4h-4z"/><path fill="#8882B7" d="M84 176h4v4h-4z"/><path fill="#E72D40" d="M88 176h4v4h-4z"/><path fill="#E63144" d="M92 176h4v4h-4zM96 176h4v4h-4z"/><path fill="#E72D40" d="M100 176h4v4h-4zM104 176h4v4h-4zM108 176h4v4h-4z"/><path fill="#D12335" d="M112 176h4v4h-4z"/><path fill="#E72D40" d="M116 176h4v4h-4zM120 176h4v4h-4zM124 176h4v4h-4z"/><path fill="#8FB2D1" d="M128 176h4v4h-4z"/><path fill="#CCD9E9" d="M132 176h4v4h-4z"/><path fill="#CDDBEB" d="M136 176h4v4h-4z"/><path fill="#CDDCEC" d="M140 176h4v4h-4z"/><path fill="#CDDEEE" d="M144 176h4v4h-4z"/><path fill="#CFE0EE" d="M148 176h4v4h-4zM152 176h4v4h-4zM156 176h4v4h-4z"/><path fill="#E9E8EF" d="M160 176h4v4h-4zM164 176h4v4h-4zM168 176h4v4h-4zM172 176h4v4h-4zM176 176h4v4h-4zM180 176h4v4h-4zM184 176h4v4h-4zM188 176h4v4h-4zM192 176h4v4h-4z"/><path fill="#E5E3EC" d="M196 176h4v4h-4zM200 176h4v4h-4z"/><path fill="#E9E8EF" d="M204 176h4v4h-4zM208 176h4v4h-4zM212 176h4v4h-4zM216 176h4v4h-4zM220 176h4v4h-4zM224 176h4v4h-4z"/><path fill="#8882B7" d="M228 176h4v4h-4zM84 180h4v4h-4z"/><path fill="#E72D40" d="M88 180h4v4h-4zM92 180h4v4h-4zM96 180h4v4h-4zM100 180h4v4h-4zM104 180h4v4h-4zM108 180h4v4h-4zM112 180h4v4h-4z"/><path fill="#D12335" d="M116 180h4v4h-4z"/><path fill="#E72D40" d="M120 180h4v4h-4zM124 180h4v4h-4z"/><path fill="#8FB2D1" d="M128 180h4v4h-4z"/><path fill="#CCD9E9" d="M132 180h4v4h-4z"/><path fill="#CDDBEB" d="M136 180h4v4h-4z"/><path fill="#CBDDED" d="M140 180h4v4h-4z"/><path fill="#CDDEEE" d="M144 180h4v4h-4z"/><path fill="#CFE0EE" d="M148 180h4v4h-4zM152 180h4v4h-4zM156 180h4v4h-4z"/><path fill="#E9E8EF" d="M160 180h4v4h-4zM164 180h4v4h-4zM168 180h4v4h-4zM172 180h4v4h-4zM176 180h4v4h-4zM180 180h4v4h-4zM184 180h4v4h-4zM188 180h4v4h-4zM192 180h4v4h-4zM196 180h4v4h-4zM200 180h4v4h-4zM204 180h4v4h-4zM208 180h4v4h-4zM212 180h4v4h-4zM216 180h4v4h-4zM220 180h4v4h-4z"/><path fill="#D0E1EF" d="M224 180h4v4h-4z"/><path fill="#E9E8EF" d="M228 180h4v4h-4z"/><path fill="#8882B7" d="M232 180h4v4h-4zM84 184h4v4h-4z"/><path fill="#E72D40" d="M88 184h4v4h-4zM92 184h4v4h-4zM96 184h4v4h-4zM100 184h4v4h-4zM104 184h4v4h-4zM108 184h4v4h-4zM112 184h4v4h-4z"/><path fill="#D12335" d="M116 184h4v4h-4zM120 184h4v4h-4z"/><path fill="#E72D40" d="M124 184h4v4h-4z"/><path fill="#8FB2D1" d="M128 184h4v4h-4z"/><path fill="#CCD9E9" d="M132 184h4v4h-4z"/><path fill="#CDDBEB" d="M136 184h4v4h-4z"/><path fill="#CCDDED" d="M140 184h4v4h-4z"/><path fill="#CDDEEE" d="M144 184h4v4h-4z"/><path fill="#E8E7EE" d="M148 184h4v4h-4zM152 184h4v4h-4zM156 184h4v4h-4z"/><path fill="#E9E8EF" d="M160 184h4v4h-4zM164 184h4v4h-4zM168 184h4v4h-4zM172 184h4v4h-4zM176 184h4v4h-4z"/><path fill="#8BB6D5" d="M180 184h4v4h-4zM184 184h4v4h-4z"/><path fill="#8882B7" d="M188 184h4v4h-4z"/><path fill="#E9E8EF" d="M192 184h4v4h-4zM196 184h4v4h-4zM200 184h4v4h-4zM204 184h4v4h-4zM208 184h4v4h-4zM212 184h4v4h-4zM216 184h4v4h-4zM220 184h4v4h-4zM224 184h4v4h-4z"/><path fill="#D0E1EF" d="M228 184h4v4h-4zM232 184h4v4h-4z"/><path fill="#8882B7" d="M84 188h4v4h-4z"/><path fill="#E72D40" d="M88 188h4v4h-4zM92 188h4v4h-4zM96 188h4v4h-4zM100 188h4v4h-4zM104 188h4v4h-4zM108 188h4v4h-4zM112 188h4v4h-4z"/><path fill="#D12335" d="M116 188h4v4h-4zM120 188h4v4h-4z"/><path fill="#E72D40" d="M124 188h4v4h-4z"/><path fill="#8FB2D1" d="M128 188h4v4h-4z"/><path fill="#CBDDED" d="M132 188h4v4h-4z"/><path fill="#CDDBEB" d="M136 188h4v4h-4z"/><path fill="#CCDDED" d="M140 188h4v4h-4z"/><path fill="#E7E6ED" d="M144 188h4v4h-4z"/><path fill="#E8E7EE" d="M148 188h4v4h-4zM152 188h4v4h-4zM156 188h4v4h-4zM160 188h4v4h-4z"/><path fill="#E9E8EF" d="M164 188h4v4h-4zM168 188h4v4h-4zM172 188h4v4h-4zM176 188h4v4h-4z"/><path fill="#474A60" d="M180 188h4v4h-4z"/><path fill="#4E506D" d="M184 188h4v4h-4z"/><path fill="#827D8E" d="M188 188h4v4h-4z"/><path fill="#E9E8EF" d="M192 188h4v4h-4zM196 188h4v4h-4zM200 188h4v4h-4zM204 188h4v4h-4zM208 188h4v4h-4zM212 188h4v4h-4zM216 188h4v4h-4zM220 188h4v4h-4zM224 188h4v4h-4z"/><path fill="#D0E1EF" d="M228 188h4v4h-4zM232 188h4v4h-4z"/><path fill="#8882B7" d="M236 188h4v4h-4zM80 192h4v4h-4z"/><path fill="#E72D40" d="M84 192h4v4h-4zM88 192h4v4h-4zM92 192h4v4h-4zM96 192h4v4h-4zM100 192h4v4h-4zM104 192h4v4h-4zM108 192h4v4h-4zM112 192h4v4h-4zM116 192h4v4h-4z"/><path fill="#D12335" d="M120 192h4v4h-4z"/><path fill="#E72D40" d="M124 192h4v4h-4zM128 192h4v4h-4z"/><path fill="#CBDDED" d="M132 192h4v4h-4z"/><path fill="#CDDBEB" d="M136 192h4v4h-4z"/><path fill="#CCDDED" d="M140 192h4v4h-4z"/><path fill="#E7E6ED" d="M144 192h4v4h-4z"/><path fill="#E8E7EE" d="M148 192h4v4h-4zM152 192h4v4h-4zM156 192h4v4h-4zM160 192h4v4h-4zM164 192h4v4h-4z"/><path fill="#E9E8EF" d="M168 192h4v4h-4zM172 192h4v4h-4zM176 192h4v4h-4z"/><path fill="#8DB7D6" d="M180 192h4v4h-4zM184 192h4v4h-4z"/><path fill="#E9E8EF" d="M188 192h4v4h-4zM192 192h4v4h-4zM196 192h4v4h-4zM200 192h4v4h-4zM204 192h4v4h-4zM208 192h4v4h-4zM212 192h4v4h-4zM216 192h4v4h-4zM220 192h4v4h-4zM224 192h4v4h-4zM228 192h4v4h-4z"/><path fill="#D0E1EF" d="M232 192h4v4h-4z"/><path fill="#CEDFEE" d="M236 192h4v4h-4z"/><path fill="#8882B7" d="M80 196h4v4h-4z"/><path fill="#E72D40" d="M84 196h4v4h-4zM88 196h4v4h-4zM92 196h4v4h-4zM96 196h4v4h-4zM100 196h4v4h-4zM104 196h4v4h-4zM108 196h4v4h-4zM112 196h4v4h-4zM116 196h4v4h-4z"/><path fill="#D12335" d="M120 196h4v4h-4z"/><path fill="#E63144" d="M124 196h4v4h-4z"/><path fill="#E62E41" d="M128 196h4v4h-4z"/><path fill="#CBDDED" d="M132 196h4v4h-4z"/><path fill="#CCDCEC" d="M136 196h4v4h-4z"/><path fill="#CDDBEB" d="M140 196h4v4h-4z"/><path fill="#E7E6ED" d="M144 196h4v4h-4z"/><path fill="#CFE0EE" d="M148 196h4v4h-4zM152 196h4v4h-4zM156 196h4v4h-4z"/><path fill="#E8E7EE" d="M160 196h4v4h-4zM164 196h4v4h-4z"/><path fill="#E9E8EF" d="M168 196h4v4h-4zM172 196h4v4h-4zM176 196h4v4h-4zM180 196h4v4h-4zM184 196h4v4h-4zM188 196h4v4h-4zM192 196h4v4h-4zM196 196h4v4h-4zM200 196h4v4h-4zM204 196h4v4h-4zM208 196h4v4h-4z"/><path fill="#CEDFEF" d="M212 196h4v4h-4z"/><path fill="#E9E8EF" d="M216 196h4v4h-4zM220 196h4v4h-4zM224 196h4v4h-4zM228 196h4v4h-4z"/><path fill="#D0E1EF" d="M232 196h4v4h-4zM236 196h4v4h-4z"/><path fill="#E8E6EB" d="M240 196h4v4h-4z"/><path fill="#857FB4" d="M80 200h4v4h-4z"/><path fill="#E72D40" d="M84 200h4v4h-4zM88 200h4v4h-4zM92 200h4v4h-4zM96 200h4v4h-4zM100 200h4v4h-4zM104 200h4v4h-4zM108 200h4v4h-4zM112 200h4v4h-4zM116 200h4v4h-4z"/><path fill="#D12335" d="M120 200h4v4h-4z"/><path fill="#E72D40" d="M124 200h4v4h-4zM128 200h4v4h-4z"/><path fill="#CBDDED" d="M132 200h4v4h-4z"/><path fill="#CCDDED" d="M136 200h4v4h-4z"/><path fill="#CEDAEA" d="M140 200h4v4h-4z"/><path fill="#CFE0ED" d="M144 200h4v4h-4z"/><path fill="#CFE0EE" d="M148 200h4v4h-4zM152 200h4v4h-4zM156 200h4v4h-4z"/><path fill="#E8E7EE" d="M160 200h4v4h-4zM164 200h4v4h-4z"/><path fill="#E9E8EF" d="M168 200h4v4h-4zM172 200h4v4h-4zM176 200h4v4h-4zM180 200h4v4h-4zM184 200h4v4h-4zM188 200h4v4h-4zM192 200h4v4h-4zM196 200h4v4h-4zM200 200h4v4h-4zM204 200h4v4h-4zM208 200h4v4h-4zM212 200h4v4h-4zM216 200h4v4h-4z"/><path fill="#CEDFEF" d="M220 200h4v4h-4zM224 200h4v4h-4z"/><path fill="#E9E8EF" d="M228 200h4v4h-4z"/><path fill="#D0E1EF" d="M232 200h4v4h-4zM236 200h4v4h-4z"/><path fill="#E8E6EB" d="M240 200h4v4h-4z"/><path fill="#8A84B9" d="M80 204h4v4h-4z"/><path fill="#E72D40" d="M84 204h4v4h-4zM88 204h4v4h-4zM92 204h4v4h-4zM96 204h4v4h-4zM100 204h4v4h-4zM104 204h4v4h-4zM108 204h4v4h-4zM112 204h4v4h-4zM116 204h4v4h-4z"/><path fill="#D12335" d="M120 204h4v4h-4z"/><path fill="#E62C3F" d="M124 204h4v4h-4z"/><path fill="#E72D40" d="M128 204h4v4h-4z"/><path fill="#CBDDED" d="M132 204h4v4h-4zM136 204h4v4h-4z"/><path fill="#CEDAEA" d="M140 204h4v4h-4z"/><path fill="#CFE0ED" d="M144 204h4v4h-4z"/><path fill="#CFE0EE" d="M148 204h4v4h-4zM152 204h4v4h-4zM156 204h4v4h-4zM160 204h4v4h-4zM164 204h4v4h-4z"/><path fill="#E9E8EF" d="M168 204h4v4h-4zM172 204h4v4h-4zM176 204h4v4h-4zM180 204h4v4h-4zM184 204h4v4h-4zM188 204h4v4h-4zM192 204h4v4h-4zM196 204h4v4h-4zM200 204h4v4h-4zM204 204h4v4h-4zM208 204h4v4h-4zM212 204h4v4h-4zM216 204h4v4h-4zM220 204h4v4h-4zM224 204h4v4h-4zM228 204h4v4h-4z"/><path fill="#D0E1EF" d="M232 204h4v4h-4zM236 204h4v4h-4z"/><path fill="#E9E8EF" d="M240 204h4v4h-4z"/><path fill="#8B80B6" d="M80 208h4v4h-4z"/><path fill="#E72D40" d="M84 208h4v4h-4zM88 208h4v4h-4zM92 208h4v4h-4zM96 208h4v4h-4zM100 208h4v4h-4zM104 208h4v4h-4zM108 208h4v4h-4zM112 208h4v4h-4zM116 208h4v4h-4z"/><path fill="#D12335" d="M120 208h4v4h-4z"/><path fill="#E62C3F" d="M124 208h4v4h-4z"/><path fill="#E72D40" d="M128 208h4v4h-4z"/><path fill="#CBDDED" d="M132 208h4v4h-4zM136 208h4v4h-4z"/><path fill="#CDDCEC" d="M140 208h4v4h-4z"/><path fill="#CFE0ED" d="M144 208h4v4h-4z"/><path fill="#E8E7EE" d="M148 208h4v4h-4zM152 208h4v4h-4zM156 208h4v4h-4zM160 208h4v4h-4z"/><path fill="#E8E7EF" d="M164 208h4v4h-4z"/><path fill="#E9E8EF" d="M168 208h4v4h-4zM172 208h4v4h-4zM176 208h4v4h-4zM180 208h4v4h-4z"/><path fill="#CDDEEE" d="M184 208h4v4h-4z"/><path fill="#89B3D2" d="M188 208h4v4h-4z"/><path fill="#E9E8EF" d="M192 208h4v4h-4zM196 208h4v4h-4zM200 208h4v4h-4zM204 208h4v4h-4zM208 208h4v4h-4zM212 208h4v4h-4zM216 208h4v4h-4zM220 208h4v4h-4zM224 208h4v4h-4zM228 208h4v4h-4z"/><path fill="#D0E1EF" d="M232 208h4v4h-4zM236 208h4v4h-4z"/><path fill="#CFE0EF" d="M240 208h4v4h-4z"/><path fill="#8EB4D4" d="M92 212h4v4h-4z"/><path fill="#8EB4D3" d="M96 212h4v4h-4zM100 212h4v4h-4zM104 212h4v4h-4zM108 212h4v4h-4z"/><path fill="#E72D40" d="M112 212h4v4h-4zM116 212h4v4h-4z"/><path fill="#D12335" d="M120 212h4v4h-4z"/><path fill="#E62C3F" d="M124 212h4v4h-4z"/><path fill="#E72D40" d="M128 212h4v4h-4z"/><path fill="#CBDDED" d="M132 212h4v4h-4zM136 212h4v4h-4z"/><path fill="#CEDDED" d="M140 212h4v4h-4z"/><path fill="#E7E6ED" d="M144 212h4v4h-4z"/><path fill="#E8E7EE" d="M148 212h4v4h-4zM152 212h4v4h-4zM156 212h4v4h-4zM160 212h4v4h-4z"/><path fill="#E9E8EF" d="M164 212h4v4h-4zM168 212h4v4h-4zM172 212h4v4h-4zM176 212h4v4h-4zM180 212h4v4h-4z"/><path fill="#8BB6D5" d="M184 212h4v4h-4z"/><path fill="#4B4B60" d="M188 212h4v4h-4z"/><path fill="#E9E8EF" d="M192 212h4v4h-4zM196 212h4v4h-4zM200 212h4v4h-4zM204 212h4v4h-4zM208 212h4v4h-4zM212 212h4v4h-4zM216 212h4v4h-4zM220 212h4v4h-4zM224 212h4v4h-4zM228 212h4v4h-4zM232 212h4v4h-4z"/><path fill="#D0E1EF" d="M236 212h4v4h-4z"/><path fill="#CFE0EF" d="M240 212h4v4h-4z"/><path fill="#4F78A3" d="M88 216h4v4h-4z"/><path fill="#CBDDED" d="M92 216h4v4h-4zM96 216h4v4h-4zM100 216h4v4h-4zM104 216h4v4h-4zM108 216h4v4h-4z"/><path fill="#8EB8D7" d="M112 216h4v4h-4zM116 216h4v4h-4z"/><path fill="#E82E42" d="M120 216h4v4h-4zM124 216h4v4h-4zM128 216h4v4h-4z"/><path fill="#CBDDED" d="M132 216h4v4h-4zM136 216h4v4h-4z"/><path fill="#CDDDED" d="M140 216h4v4h-4z"/><path fill="#E7E6EE" d="M144 216h4v4h-4z"/><path fill="#E8E7EE" d="M148 216h4v4h-4zM152 216h4v4h-4zM156 216h4v4h-4z"/><path fill="#E8E7EF" d="M160 216h4v4h-4zM164 216h4v4h-4z"/><path fill="#E9E8EF" d="M168 216h4v4h-4zM172 216h4v4h-4zM176 216h4v4h-4zM180 216h4v4h-4zM184 216h4v4h-4zM188 216h4v4h-4zM192 216h4v4h-4z"/><path fill="#E8E7EF" d="M196 216h4v4h-4zM200 216h4v4h-4zM204 216h4v4h-4zM208 216h4v4h-4zM212 216h4v4h-4zM216 216h4v4h-4zM220 216h4v4h-4zM224 216h4v4h-4zM228 216h4v4h-4z"/><path fill="#D0E1EF" d="M232 216h4v4h-4zM236 216h4v4h-4z"/><path fill="#CFE0EF" d="M240 216h4v4h-4z"/><path fill="#CDDEEE" d="M88 220h4v4h-4zM92 220h4v4h-4z"/><path fill="#E8E7EE" d="M96 220h4v4h-4zM100 220h4v4h-4zM104 220h4v4h-4zM108 220h4v4h-4z"/><path fill="#CEDFEE" d="M112 220h4v4h-4z"/><path fill="#CDDEEE" d="M116 220h4v4h-4z"/><path fill="#8FB8D7" d="M120 220h4v4h-4z"/><path fill="#8DB7D6" d="M124 220h4v4h-4zM128 220h4v4h-4z"/><path fill="#CBDDED" d="M132 220h4v4h-4zM136 220h4v4h-4zM140 220h4v4h-4z"/><path fill="#E7E6EF" d="M144 220h4v4h-4z"/><path fill="#E7E6EE" d="M148 220h4v4h-4zM152 220h4v4h-4zM156 220h4v4h-4z"/><path fill="#E8E7EF" d="M160 220h4v4h-4zM164 220h4v4h-4zM168 220h4v4h-4zM172 220h4v4h-4zM176 220h4v4h-4zM180 220h4v4h-4zM184 220h4v4h-4zM188 220h4v4h-4zM192 220h4v4h-4zM196 220h4v4h-4zM200 220h4v4h-4zM204 220h4v4h-4zM208 220h4v4h-4zM212 220h4v4h-4zM216 220h4v4h-4zM220 220h4v4h-4zM224 220h4v4h-4zM228 220h4v4h-4z"/><path fill="#D0E1EF" d="M232 220h4v4h-4z"/><path fill="#CFE0EF" d="M236 220h4v4h-4zM240 220h4v4h-4z"/><path fill="#8FB8D7" d="M84 224h4v4h-4z"/><path fill="#CDDEEE" d="M88 224h4v4h-4z"/><path fill="#E8E7EE" d="M92 224h4v4h-4zM96 224h4v4h-4zM100 224h4v4h-4zM104 224h4v4h-4zM108 224h4v4h-4zM112 224h4v4h-4z"/><path fill="#CDDEEE" d="M116 224h4v4h-4zM120 224h4v4h-4z"/><path fill="#CBDDED" d="M124 224h4v4h-4zM128 224h4v4h-4z"/><path fill="#CCDDED" d="M132 224h4v4h-4zM136 224h4v4h-4zM140 224h4v4h-4z"/><path fill="#CFE0EE" d="M144 224h4v4h-4z"/><path fill="#E7E6EE" d="M148 224h4v4h-4zM152 224h4v4h-4zM156 224h4v4h-4z"/><path fill="#E8E7EF" d="M160 224h4v4h-4zM164 224h4v4h-4zM168 224h4v4h-4zM172 224h4v4h-4zM176 224h4v4h-4zM180 224h4v4h-4zM184 224h4v4h-4z"/><path fill="#575377" d="M188 224h4v4h-4z"/><path fill="#82809C" d="M192 224h4v4h-4z"/><path fill="#E8E7EF" d="M196 224h4v4h-4zM200 224h4v4h-4zM204 224h4v4h-4zM208 224h4v4h-4zM212 224h4v4h-4zM216 224h4v4h-4z"/><path fill="#D0E1EF" d="M220 224h4v4h-4z"/><path fill="#E8E7EF" d="M224 224h4v4h-4zM228 224h4v4h-4z"/><path fill="#CFE0EF" d="M232 224h4v4h-4zM236 224h4v4h-4zM240 224h4v4h-4z"/><path fill="#8882B7" d="M84 228h4v4h-4z"/><path fill="#CDDEEE" d="M88 228h4v4h-4z"/><path fill="#E7E6EE" d="M92 228h4v4h-4z"/><path fill="#E8E7EE" d="M96 228h4v4h-4zM100 228h4v4h-4zM104 228h4v4h-4zM108 228h4v4h-4zM112 228h4v4h-4zM116 228h4v4h-4zM120 228h4v4h-4zM124 228h4v4h-4zM128 228h4v4h-4z"/><path fill="#CDDEEE" d="M132 228h4v4h-4zM136 228h4v4h-4zM140 228h4v4h-4z"/><path fill="#CFE0EE" d="M144 228h4v4h-4zM148 228h4v4h-4zM152 228h4v4h-4zM156 228h4v4h-4z"/><path fill="#E8E7EF" d="M160 228h4v4h-4zM164 228h4v4h-4zM168 228h4v4h-4zM172 228h4v4h-4zM176 228h4v4h-4zM180 228h4v4h-4zM184 228h4v4h-4z"/><path fill="#D0E1EE" d="M188 228h4v4h-4z"/><path fill="#CCDCEC" d="M192 228h4v4h-4z"/><path fill="#E8E7EF" d="M196 228h4v4h-4zM200 228h4v4h-4zM204 228h4v4h-4zM208 228h4v4h-4zM212 228h4v4h-4zM216 228h4v4h-4zM220 228h4v4h-4z"/><path fill="#D0E1EF" d="M224 228h4v4h-4zM228 228h4v4h-4z"/><path fill="#CFE0EF" d="M232 228h4v4h-4zM236 228h4v4h-4zM240 228h4v4h-4z"/><path fill="#8882B7" d="M84 232h4v4h-4z"/><path fill="#CDDEEE" d="M88 232h4v4h-4z"/><path fill="#E7E6EE" d="M92 232h4v4h-4z"/><path fill="#E8E7EE" d="M96 232h4v4h-4zM100 232h4v4h-4zM104 232h4v4h-4zM108 232h4v4h-4zM112 232h4v4h-4zM116 232h4v4h-4zM120 232h4v4h-4zM124 232h4v4h-4zM128 232h4v4h-4z"/><path fill="#CDDEEE" d="M132 232h4v4h-4zM136 232h4v4h-4zM140 232h4v4h-4z"/><path fill="#CFE0EE" d="M144 232h4v4h-4zM148 232h4v4h-4zM152 232h4v4h-4zM156 232h4v4h-4z"/><path fill="#E8E7EF" d="M160 232h4v4h-4zM164 232h4v4h-4zM168 232h4v4h-4zM172 232h4v4h-4zM176 232h4v4h-4zM180 232h4v4h-4zM184 232h4v4h-4z"/><path fill="#D0E1EE" d="M188 232h4v4h-4z"/><path fill="#CCDCEC" d="M192 232h4v4h-4z"/><path fill="#E8E7EF" d="M196 232h4v4h-4zM200 232h4v4h-4zM204 232h4v4h-4zM208 232h4v4h-4zM212 232h4v4h-4zM216 232h4v4h-4zM220 232h4v4h-4z"/><path fill="#D0E1EF" d="M224 232h4v4h-4zM228 232h4v4h-4z"/><path fill="#CFE0EF" d="M232 232h4v4h-4zM236 232h4v4h-4zM240 232h4v4h-4z"/><path fill="#8882B7" d="M84 236h4v4h-4z"/><path fill="#8FB8D7" d="M88 236h4v4h-4z"/><path fill="#CDDEEE" d="M92 236h4v4h-4z"/><path fill="#E7E6EE" d="M96 236h4v4h-4zM100 236h4v4h-4zM104 236h4v4h-4zM108 236h4v4h-4z"/><path fill="#E8E7EE" d="M112 236h4v4h-4zM116 236h4v4h-4zM120 236h4v4h-4zM124 236h4v4h-4z"/><path fill="#CDDEEE" d="M128 236h4v4h-4zM132 236h4v4h-4zM136 236h4v4h-4zM140 236h4v4h-4z"/><path fill="#CFE0EE" d="M144 236h4v4h-4zM148 236h4v4h-4zM152 236h4v4h-4zM156 236h4v4h-4z"/><path fill="#E8E7EF" d="M160 236h4v4h-4zM164 236h4v4h-4zM168 236h4v4h-4zM172 236h4v4h-4zM176 236h4v4h-4zM180 236h4v4h-4zM184 236h4v4h-4zM188 236h4v4h-4z"/><path fill="#D0E1EF" d="M192 236h4v4h-4z"/><path fill="#E8E7EF" d="M196 236h4v4h-4zM200 236h4v4h-4zM204 236h4v4h-4zM208 236h4v4h-4zM212 236h4v4h-4zM216 236h4v4h-4zM220 236h4v4h-4zM224 236h4v4h-4z"/><path fill="#CFE0EF" d="M228 236h4v4h-4zM232 236h4v4h-4zM236 236h4v4h-4zM240 236h4v4h-4z"/><path fill="#8882B7" d="M84 240h4v4h-4z"/><path fill="#8FB8D7" d="M88 240h4v4h-4z"/><path fill="#CDDEEE" d="M92 240h4v4h-4z"/><path fill="#E7E6EE" d="M96 240h4v4h-4zM100 240h4v4h-4zM104 240h4v4h-4zM108 240h4v4h-4z"/><path fill="#E8E7EE" d="M112 240h4v4h-4zM116 240h4v4h-4zM120 240h4v4h-4zM124 240h4v4h-4z"/><path fill="#CDDEEE" d="M128 240h4v4h-4zM132 240h4v4h-4zM136 240h4v4h-4zM140 240h4v4h-4z"/><path fill="#CFE0EE" d="M144 240h4v4h-4zM148 240h4v4h-4zM152 240h4v4h-4zM156 240h4v4h-4z"/><path fill="#E8E7EF" d="M160 240h4v4h-4zM164 240h4v4h-4zM168 240h4v4h-4zM172 240h4v4h-4zM176 240h4v4h-4zM180 240h4v4h-4zM184 240h4v4h-4zM188 240h4v4h-4z"/><path fill="#D0E1EF" d="M192 240h4v4h-4z"/><path fill="#E8E7EF" d="M196 240h4v4h-4zM200 240h4v4h-4zM204 240h4v4h-4zM208 240h4v4h-4zM212 240h4v4h-4zM216 240h4v4h-4zM220 240h4v4h-4zM224 240h4v4h-4z"/><path fill="#CFE0EF" d="M228 240h4v4h-4zM232 240h4v4h-4zM236 240h4v4h-4zM240 240h4v4h-4z"/><path fill="#8882B7" d="M84 244h4v4h-4z"/><path fill="#8DB7D6" d="M88 244h4v4h-4z"/><path fill="#CDDEEE" d="M92 244h4v4h-4zM96 244h4v4h-4zM100 244h4v4h-4zM104 244h4v4h-4zM108 244h4v4h-4z"/><path fill="#CBDDED" d="M112 244h4v4h-4zM116 244h4v4h-4z"/><path fill="#CDDEEE" d="M120 244h4v4h-4zM124 244h4v4h-4zM128 244h4v4h-4zM132 244h4v4h-4zM136 244h4v4h-4z"/><path fill="#CEDFEE" d="M140 244h4v4h-4zM144 244h4v4h-4z"/><path fill="#CFE0EF" d="M148 244h4v4h-4zM152 244h4v4h-4zM156 244h4v4h-4z"/><path fill="#E8E7EF" d="M160 244h4v4h-4zM164 244h4v4h-4zM168 244h4v4h-4zM172 244h4v4h-4zM176 244h4v4h-4zM180 244h4v4h-4zM184 244h4v4h-4zM188 244h4v4h-4zM192 244h4v4h-4zM196 244h4v4h-4zM200 244h4v4h-4zM204 244h4v4h-4zM208 244h4v4h-4zM212 244h4v4h-4zM216 244h4v4h-4zM220 244h4v4h-4z"/><path fill="#CFE0EF" d="M224 244h4v4h-4zM228 244h4v4h-4zM232 244h4v4h-4zM236 244h4v4h-4z"/><path fill="#8882B7" d="M84 248h4v4h-4z"/><path fill="#8DB7D6" d="M88 248h4v4h-4z"/><path fill="#CDDEEE" d="M92 248h4v4h-4zM96 248h4v4h-4zM100 248h4v4h-4zM104 248h4v4h-4zM108 248h4v4h-4zM112 248h4v4h-4z"/><path fill="#CBDDED" d="M116 248h4v4h-4z"/><path fill="#CDDEEE" d="M120 248h4v4h-4zM124 248h4v4h-4zM128 248h4v4h-4zM132 248h4v4h-4zM136 248h4v4h-4z"/><path fill="#CEDFEE" d="M140 248h4v4h-4zM144 248h4v4h-4z"/><path fill="#CFE0EE" d="M148 248h4v4h-4zM152 248h4v4h-4zM156 248h4v4h-4z"/><path fill="#E8E7EF" d="M160 248h4v4h-4zM164 248h4v4h-4z"/><path fill="#E8E7EE" d="M168 248h4v4h-4z"/><path fill="#E8E7EF" d="M172 248h4v4h-4zM176 248h4v4h-4zM180 248h4v4h-4zM184 248h4v4h-4z"/><path fill="#D0E1EF" d="M188 248h4v4h-4z"/><path fill="#E8E7EF" d="M192 248h4v4h-4zM196 248h4v4h-4zM200 248h4v4h-4zM204 248h4v4h-4zM208 248h4v4h-4zM212 248h4v4h-4zM216 248h4v4h-4z"/><path fill="#CFE0EF" d="M220 248h4v4h-4zM224 248h4v4h-4zM228 248h4v4h-4zM232 248h4v4h-4zM236 248h4v4h-4z"/><path fill="#8882B7" d="M84 252h4v4h-4z"/><path fill="#8DB7D6" d="M88 252h4v4h-4z"/><path fill="#CDDEEE" d="M92 252h4v4h-4zM96 252h4v4h-4zM100 252h4v4h-4zM104 252h4v4h-4zM108 252h4v4h-4zM112 252h4v4h-4z"/><path fill="#CBDDED" d="M116 252h4v4h-4z"/><path fill="#CDDEEE" d="M120 252h4v4h-4zM124 252h4v4h-4zM128 252h4v4h-4zM132 252h4v4h-4zM136 252h4v4h-4z"/><path fill="#CEDFEE" d="M140 252h4v4h-4zM144 252h4v4h-4z"/><path fill="#CFE0EE" d="M148 252h4v4h-4zM152 252h4v4h-4zM156 252h4v4h-4z"/><path fill="#E8E7EF" d="M160 252h4v4h-4zM164 252h4v4h-4z"/><path fill="#E8E7EE" d="M168 252h4v4h-4z"/><path fill="#E8E7EF" d="M172 252h4v4h-4zM176 252h4v4h-4zM180 252h4v4h-4zM184 252h4v4h-4z"/><path fill="#D0E1EF" d="M188 252h4v4h-4z"/><path fill="#E8E7EF" d="M192 252h4v4h-4zM196 252h4v4h-4zM200 252h4v4h-4zM204 252h4v4h-4zM208 252h4v4h-4zM212 252h4v4h-4zM216 252h4v4h-4z"/><path fill="#CFE0EF" d="M220 252h4v4h-4zM224 252h4v4h-4zM228 252h4v4h-4zM232 252h4v4h-4zM236 252h4v4h-4z"/><path fill="#8882B7" opacity=".98" d="M84 256h4v4h-4z"/><path fill="#8DB7D6" d="M88 256h4v4h-4z"/><path fill="#CDDEEE" d="M92 256h4v4h-4zM96 256h4v4h-4zM100 256h4v4h-4zM104 256h4v4h-4zM108 256h4v4h-4zM112 256h4v4h-4zM116 256h4v4h-4zM120 256h4v4h-4zM124 256h4v4h-4zM128 256h4v4h-4zM132 256h4v4h-4z"/><path fill="#CEDFEF" d="M136 256h4v4h-4z"/><path fill="#CDDEEE" d="M140 256h4v4h-4z"/><path fill="#CEDFEE" d="M144 256h4v4h-4zM148 256h4v4h-4zM152 256h4v4h-4zM156 256h4v4h-4z"/><path fill="#CFE0EE" d="M160 256h4v4h-4z"/><path fill="#E8E7EF" d="M164 256h4v4h-4zM168 256h4v4h-4zM172 256h4v4h-4zM176 256h4v4h-4z"/><path fill="#CEDFEF" d="M180 256h4v4h-4zM184 256h4v4h-4zM188 256h4v4h-4z"/><path fill="#D0E1EF" d="M192 256h4v4h-4zM196 256h4v4h-4zM200 256h4v4h-4zM204 256h4v4h-4zM208 256h4v4h-4zM212 256h4v4h-4z"/><path fill="#CFE0EF" d="M216 256h4v4h-4zM220 256h4v4h-4zM224 256h4v4h-4zM228 256h4v4h-4zM232 256h4v4h-4zM236 256h4v4h-4z"/><path fill="#8882B7" opacity=".98" d="M84 260h4v4h-4z"/><path fill="#8DB7D6" d="M88 260h4v4h-4z"/><path fill="#CDDEEE" d="M92 260h4v4h-4zM96 260h4v4h-4zM100 260h4v4h-4zM104 260h4v4h-4zM108 260h4v4h-4zM112 260h4v4h-4zM116 260h4v4h-4zM120 260h4v4h-4zM124 260h4v4h-4zM128 260h4v4h-4zM132 260h4v4h-4z"/><path fill="#CEDFEF" d="M136 260h4v4h-4z"/><path fill="#CDDEEE" d="M140 260h4v4h-4z"/><path fill="#CEDFEE" d="M144 260h4v4h-4zM148 260h4v4h-4zM152 260h4v4h-4zM156 260h4v4h-4z"/><path fill="#CFE0EE" d="M160 260h4v4h-4z"/><path fill="#E8E7EF" d="M164 260h4v4h-4zM168 260h4v4h-4zM172 260h4v4h-4zM176 260h4v4h-4z"/><path fill="#CEDFEF" d="M180 260h4v4h-4zM184 260h4v4h-4zM188 260h4v4h-4z"/><path fill="#D0E1EF" d="M192 260h4v4h-4zM196 260h4v4h-4zM200 260h4v4h-4zM204 260h4v4h-4zM208 260h4v4h-4zM212 260h4v4h-4z"/><path fill="#CFE0EF" d="M216 260h4v4h-4zM220 260h4v4h-4zM224 260h4v4h-4zM228 260h4v4h-4zM232 260h4v4h-4zM236 260h4v4h-4z"/><path fill="#8882B7" d="M88 264h4v4h-4z"/><path fill="#8DB7D6" d="M92 264h4v4h-4z"/><path fill="#CDDEEE" d="M96 264h4v4h-4zM100 264h4v4h-4zM104 264h4v4h-4zM108 264h4v4h-4zM112 264h4v4h-4zM116 264h4v4h-4zM120 264h4v4h-4zM124 264h4v4h-4zM128 264h4v4h-4zM132 264h4v4h-4zM136 264h4v4h-4z"/><path fill="#CEDFEE" d="M140 264h4v4h-4zM144 264h4v4h-4z"/><path fill="#CEDFEF" d="M148 264h4v4h-4zM152 264h4v4h-4zM156 264h4v4h-4zM160 264h4v4h-4zM164 264h4v4h-4zM168 264h4v4h-4zM172 264h4v4h-4zM176 264h4v4h-4zM180 264h4v4h-4zM184 264h4v4h-4z"/><path fill="#CFE0EF" d="M188 264h4v4h-4zM192 264h4v4h-4z"/><path fill="#CDDEEE" d="M196 264h4v4h-4zM200 264h4v4h-4z"/><path fill="#CFE0EF" d="M204 264h4v4h-4zM208 264h4v4h-4zM212 264h4v4h-4zM216 264h4v4h-4zM220 264h4v4h-4zM224 264h4v4h-4zM228 264h4v4h-4zM232 264h4v4h-4z"/><path fill="#8882B7" d="M88 268h4v4h-4z"/><path fill="#8DB7D6" d="M92 268h4v4h-4z"/><path fill="#CDDEEE" d="M96 268h4v4h-4zM100 268h4v4h-4zM104 268h4v4h-4zM108 268h4v4h-4zM112 268h4v4h-4zM116 268h4v4h-4zM120 268h4v4h-4zM124 268h4v4h-4zM128 268h4v4h-4zM132 268h4v4h-4zM136 268h4v4h-4z"/><path fill="#CEDFEE" d="M140 268h4v4h-4zM144 268h4v4h-4z"/><path fill="#CEDFEF" d="M148 268h4v4h-4zM152 268h4v4h-4zM156 268h4v4h-4zM160 268h4v4h-4zM164 268h4v4h-4zM168 268h4v4h-4zM172 268h4v4h-4zM176 268h4v4h-4zM180 268h4v4h-4zM184 268h4v4h-4z"/><path fill="#CFE0EF" d="M188 268h4v4h-4zM192 268h4v4h-4z"/><path fill="#CDDEEE" d="M196 268h4v4h-4zM200 268h4v4h-4z"/><path fill="#CFE0EF" d="M204 268h4v4h-4zM208 268h4v4h-4zM212 268h4v4h-4zM216 268h4v4h-4zM220 268h4v4h-4zM224 268h4v4h-4zM228 268h4v4h-4zM232 268h4v4h-4z"/><path fill="#8DB7D6" d="M92 272h4v4h-4z"/><path fill="#CDDEEE" d="M96 272h4v4h-4zM100 272h4v4h-4zM104 272h4v4h-4zM108 272h4v4h-4zM112 272h4v4h-4zM116 272h4v4h-4zM120 272h4v4h-4zM124 272h4v4h-4zM128 272h4v4h-4zM132 272h4v4h-4zM136 272h4v4h-4z"/><path fill="#CEDFEE" d="M140 272h4v4h-4zM144 272h4v4h-4zM148 272h4v4h-4zM152 272h4v4h-4zM156 272h4v4h-4z"/><path fill="#CEDFEF" d="M160 272h4v4h-4zM164 272h4v4h-4zM168 272h4v4h-4zM172 272h4v4h-4zM176 272h4v4h-4zM180 272h4v4h-4z"/><path fill="#D0E1EF" d="M184 272h4v4h-4z"/><path fill="#CFE0EF" d="M188 272h4v4h-4z"/><path fill="#8BB6D5" d="M192 272h4v4h-4z"/><path fill="#CDDEEE" d="M196 272h4v4h-4zM200 272h4v4h-4zM204 272h4v4h-4zM208 272h4v4h-4z"/><path fill="#8DB7D6" d="M212 272h4v4h-4zM216 272h4v4h-4zM220 272h4v4h-4z"/><path fill="#CFE0EF" d="M224 272h4v4h-4zM228 272h4v4h-4zM232 272h4v4h-4z"/><path fill="#8DB7D6" d="M92 276h4v4h-4z"/><path fill="#CDDEEE" d="M96 276h4v4h-4zM100 276h4v4h-4zM104 276h4v4h-4zM108 276h4v4h-4zM112 276h4v4h-4zM116 276h4v4h-4zM120 276h4v4h-4zM124 276h4v4h-4zM128 276h4v4h-4zM132 276h4v4h-4zM136 276h4v4h-4z"/><path fill="#CEDFEE" d="M140 276h4v4h-4zM144 276h4v4h-4zM148 276h4v4h-4zM152 276h4v4h-4zM156 276h4v4h-4z"/><path fill="#CEDFEF" d="M160 276h4v4h-4zM164 276h4v4h-4zM168 276h4v4h-4zM172 276h4v4h-4zM176 276h4v4h-4zM180 276h4v4h-4z"/><path fill="#D0E1EF" d="M184 276h4v4h-4z"/><path fill="#CFE0EF" d="M188 276h4v4h-4z"/><path fill="#8BB6D5" d="M192 276h4v4h-4z"/><path fill="#CDDEEE" d="M196 276h4v4h-4zM200 276h4v4h-4zM204 276h4v4h-4zM208 276h4v4h-4z"/><path fill="#8DB7D6" d="M212 276h4v4h-4zM216 276h4v4h-4zM220 276h4v4h-4z"/><path fill="#CFE0EF" d="M224 276h4v4h-4zM228 276h4v4h-4zM232 276h4v4h-4z"/><path fill="#8984B8" d="M92 280h4v4h-4zM96 280h4v4h-4zM100 280h4v4h-4z"/><path fill="#8DB7D6" d="M104 280h4v4h-4zM108 280h4v4h-4zM112 280h4v4h-4zM116 280h4v4h-4zM120 280h4v4h-4z"/><path fill="#CDDEEE" d="M124 280h4v4h-4zM128 280h4v4h-4zM132 280h4v4h-4z"/><path fill="#CEDFEE" d="M136 280h4v4h-4z"/><path fill="#D0E1EE" d="M140 280h4v4h-4zM144 280h4v4h-4z"/><path fill="#CEDFEE" d="M148 280h4v4h-4zM152 280h4v4h-4zM156 280h4v4h-4z"/><path fill="#CEDFEF" d="M160 280h4v4h-4zM164 280h4v4h-4zM168 280h4v4h-4z"/><path fill="#D0E1EF" d="M172 280h4v4h-4zM176 280h4v4h-4z"/><path fill="#CFE0EF" d="M180 280h4v4h-4zM184 280h4v4h-4zM188 280h4v4h-4z"/><path fill="#8DB7D6" d="M192 280h4v4h-4z"/><path fill="#8BB6D5" d="M196 280h4v4h-4zM200 280h4v4h-4z"/><path fill="#8DB7D6" d="M204 280h4v4h-4zM208 280h4v4h-4zM212 280h4v4h-4zM216 280h4v4h-4zM220 280h4v4h-4zM224 280h4v4h-4zM228 280h4v4h-4z"/><path fill="#8984B8" d="M232 280h4v4h-4zM104 284h4v4h-4zM108 284h4v4h-4zM112 284h4v4h-4zM116 284h4v4h-4z"/><path fill="#8DB7D6" d="M120 284h4v4h-4zM124 284h4v4h-4zM128 284h4v4h-4zM132 284h4v4h-4zM136 284h4v4h-4z"/><path fill="#CDDFEE" d="M140 284h4v4h-4zM144 284h4v4h-4zM148 284h4v4h-4zM152 284h4v4h-4zM156 284h4v4h-4zM160 284h4v4h-4zM164 284h4v4h-4zM168 284h4v4h-4z"/><path fill="#8FB8D7" d="M172 284h4v4h-4zM176 284h4v4h-4zM180 284h4v4h-4zM184 284h4v4h-4z"/><path fill="#8DB7D6" d="M188 284h4v4h-4zM192 284h4v4h-4zM196 284h4v4h-4zM200 284h4v4h-4zM204 284h4v4h-4zM208 284h4v4h-4zM212 284h4v4h-4zM216 284h4v4h-4zM220 284h4v4h-4zM224 284h4v4h-4z"/><path fill="#8984B8" d="M228 284h4v4h-4zM104 288h4v4h-4zM108 288h4v4h-4zM112 288h4v4h-4zM116 288h4v4h-4z"/><path fill="#8DB7D6" d="M120 288h4v4h-4zM124 288h4v4h-4zM128 288h4v4h-4zM132 288h4v4h-4zM136 288h4v4h-4z"/><path fill="#CDDFEE" d="M140 288h4v4h-4zM144 288h4v4h-4zM148 288h4v4h-4zM152 288h4v4h-4zM156 288h4v4h-4zM160 288h4v4h-4zM164 288h4v4h-4zM168 288h4v4h-4z"/><path fill="#8FB8D7" d="M172 288h4v4h-4zM176 288h4v4h-4zM180 288h4v4h-4zM184 288h4v4h-4z"/><path fill="#8DB7D6" d="M188 288h4v4h-4zM192 288h4v4h-4zM196 288h4v4h-4z"/><path fill="#8984B8" d="M200 288h4v4h-4zM204 288h4v4h-4zM208 288h4v4h-4zM212 288h4v4h-4zM216 288h4v4h-4zM220 288h4v4h-4zM224 288h4v4h-4zM120 292h4v4h-4zM124 292h4v4h-4zM128 292h4v4h-4zM132 292h4v4h-4zM136 292h4v4h-4z"/><path fill="#8DB7D6" d="M140 292h4v4h-4zM144 292h4v4h-4zM148 292h4v4h-4zM152 292h4v4h-4zM156 292h4v4h-4zM160 292h4v4h-4zM164 292h4v4h-4zM168 292h4v4h-4z"/><path fill="#8984B8" d="M172 292h4v4h-4zM176 292h4v4h-4zM180 292h4v4h-4zM184 292h4v4h-4zM188 292h4v4h-4zM192 292h4v4h-4zM196 292h4v4h-4zM140 296h4v4h-4zM144 296h4v4h-4zM148 296h4v4h-4zM152 296h4v4h-4zM156 296h4v4h-4zM160 296h4v4h-4zM164 296h4v4h-4zM168 296h4v4h-4z"/></svg>