<svg width="384" height="384" xmlns="http://www.w3.org/2000/svg" shape-rendering="crispEdges"><path fill="#584047" d="M136 40h4v4h-4zM140 40h4v4h-4zM144 40h4v4h-4zM148 40h4v4h-4zM152 40h4v4h-4zM156 40h4v4h-4zM160 40h4v4h-4zM164 40h4v4h-4zM168 40h4v4h-4zM172 40h4v4h-4zM176 40h4v4h-4z"/><path fill="#472534" d="M180 40h4v4h-4z"/><path fill="#584047" d="M128 44h4v4h-4zM132 44h4v4h-4zM136 44h4v4h-4zM140 44h4v4h-4zM144 44h4v4h-4zM148 44h4v4h-4zM152 44h4v4h-4z"/><path fill="#38262D" d="M156 44h4v4h-4z"/><path fill="#472534" d="M160 44h4v4h-4zM164 44h4v4h-4z"/><path fill="#584047" d="M168 44h4v4h-4z"/><path fill="#472534" d="M172 44h4v4h-4z"/><path fill="#584047" d="M176 44h4v4h-4z"/><path fill="#472534" d="M180 44h4v4h-4z"/><path fill="#584047" d="M184 44h4v4h-4zM188 44h4v4h-4z"/><path fill="#472534" d="M192 44h4v4h-4z"/><path fill="#38262D" d="M196 44h4v4h-4z"/><path fill="#584047" d="M120 48h4v4h-4zM124 48h4v4h-4zM128 48h4v4h-4zM132 48h4v4h-4zM136 48h4v4h-4zM140 48h4v4h-4z"/><path fill="#58243C" d="M144 48h4v4h-4z"/><path fill="#584047" d="M148 48h4v4h-4zM152 48h4v4h-4zM156 48h4v4h-4zM160 48h4v4h-4z"/><path fill="#472534" d="M164 48h4v4h-4z"/><path fill="#38262D" d="M168 48h4v4h-4zM172 48h4v4h-4zM176 48h4v4h-4zM180 48h4v4h-4z"/><path fill="#584047" d="M184 48h4v4h-4zM188 48h4v4h-4z"/><path fill="#472534" d="M192 48h4v4h-4z"/><path fill="#38262D" d="M196 48h4v4h-4z"/><path fill="#472534" d="M200 48h4v4h-4z"/><path fill="#39222F" d="M204 48h4v4h-4z"/><path fill="#693444" d="M116 52h4v4h-4zM120 52h4v4h-4zM124 52h4v4h-4zM128 52h4v4h-4zM132 52h4v4h-4zM136 52h4v4h-4z"/><path fill="#584047" d="M140 52h4v4h-4zM144 52h4v4h-4zM148 52h4v4h-4zM152 52h4v4h-4z"/><path fill="#472534" d="M156 52h4v4h-4zM160 52h4v4h-4zM164 52h4v4h-4z"/><path fill="#77514E" d="M168 52h4v4h-4z"/><path fill="#9F5A51" d="M172 52h4v4h-4zM176 52h4v4h-4zM180 52h4v4h-4zM184 52h4v4h-4z"/><path fill="#472534" d="M188 52h4v4h-4z"/><path fill="#38262D" d="M192 52h4v4h-4z"/><path fill="#472534" d="M196 52h4v4h-4zM200 52h4v4h-4zM204 52h4v4h-4z"/><path fill="#38262D" d="M208 52h4v4h-4zM212 52h4v4h-4z"/><path fill="#693444" d="M112 56h4v4h-4zM116 56h4v4h-4zM120 56h4v4h-4zM124 56h4v4h-4zM128 56h4v4h-4zM132 56h4v4h-4z"/><path fill="#5B223C" d="M136 56h4v4h-4z"/><path fill="#693444" d="M140 56h4v4h-4z"/><path fill="#38262D" d="M144 56h4v4h-4z"/><path fill="#472534" d="M148 56h4v4h-4zM152 56h4v4h-4zM156 56h4v4h-4zM160 56h4v4h-4z"/><path fill="#77514E" d="M164 56h4v4h-4zM168 56h4v4h-4zM172 56h4v4h-4zM176 56h4v4h-4z"/><path fill="#9F5A51" d="M180 56h4v4h-4zM184 56h4v4h-4zM188 56h4v4h-4z"/><path fill="#38262D" d="M192 56h4v4h-4z"/><path fill="#472534" d="M196 56h4v4h-4zM200 56h4v4h-4z"/><path fill="#38262D" d="M204 56h4v4h-4zM208 56h4v4h-4zM212 56h4v4h-4zM216 56h4v4h-4z"/><path fill="#693444" d="M108 60h4v4h-4zM112 60h4v4h-4zM116 60h4v4h-4zM120 60h4v4h-4zM124 60h4v4h-4zM128 60h4v4h-4z"/><path fill="#502336" d="M132 60h4v4h-4z"/><path fill="#693444" d="M136 60h4v4h-4z"/><path fill="#472534" d="M140 60h4v4h-4zM144 60h4v4h-4zM148 60h4v4h-4zM152 60h4v4h-4zM156 60h4v4h-4zM160 60h4v4h-4z"/><path fill="#6C3B39" d="M164 60h4v4h-4zM168 60h4v4h-4z"/><path fill="#77514E" d="M172 60h4v4h-4z"/><path d="M176 60h4v4h-4zM180 60h4v4h-4z"/><path fill="#77514E" d="M184 60h4v4h-4z"/><path d="M188 60h4v4h-4z"/><path fill="#38262D" d="M192 60h4v4h-4zM196 60h4v4h-4zM200 60h4v4h-4z"/><path fill="#472534" d="M204 60h4v4h-4zM208 60h4v4h-4z"/><path fill="#38262D" d="M212 60h4v4h-4zM216 60h4v4h-4zM220 60h4v4h-4z"/><path fill="#693444" d="M104 64h4v4h-4zM108 64h4v4h-4zM112 64h4v4h-4zM116 64h4v4h-4z"/><path fill="#38262D" d="M120 64h4v4h-4z"/><path fill="#693444" d="M124 64h4v4h-4zM128 64h4v4h-4z"/><path fill="#472534" d="M132 64h4v4h-4zM136 64h4v4h-4zM140 64h4v4h-4zM144 64h4v4h-4zM148 64h4v4h-4zM152 64h4v4h-4zM156 64h4v4h-4zM160 64h4v4h-4z"/><path fill="#6C3B39" d="M164 64h4v4h-4zM168 64h4v4h-4z"/><path fill="#77514E" d="M172 64h4v4h-4z"/><path fill="#9F5A51" d="M176 64h4v4h-4zM180 64h4v4h-4z"/><path fill="#1E1110" d="M184 64h4v4h-4z"/><path fill="#9F5A51" d="M188 64h4v4h-4z"/><path fill="#472534" d="M192 64h4v4h-4zM196 64h4v4h-4zM200 64h4v4h-4zM204 64h4v4h-4z"/><path fill="#38262D" d="M208 64h4v4h-4zM212 64h4v4h-4zM216 64h4v4h-4zM220 64h4v4h-4zM224 64h4v4h-4z"/><path fill="#693444" d="M100 68h4v4h-4zM104 68h4v4h-4zM108 68h4v4h-4zM112 68h4v4h-4zM116 68h4v4h-4z"/><path fill="#584047" d="M120 68h4v4h-4z"/><path fill="#472534" d="M124 68h4v4h-4zM128 68h4v4h-4zM132 68h4v4h-4zM136 68h4v4h-4zM140 68h4v4h-4zM144 68h4v4h-4zM148 68h4v4h-4zM152 68h4v4h-4zM156 68h4v4h-4z"/><path fill="#974013" d="M160 68h4v4h-4zM164 68h4v4h-4z"/><path fill="#6C3B39" d="M168 68h4v4h-4zM172 68h4v4h-4z"/><path fill="#77514E" d="M176 68h4v4h-4z"/><path fill="#6C3B39" d="M180 68h4v4h-4zM184 68h4v4h-4zM188 68h4v4h-4z"/><path fill="#974013" d="M192 68h4v4h-4z"/><path fill="#F36725" d="M196 68h4v4h-4zM200 68h4v4h-4z"/><path fill="#472534" d="M204 68h4v4h-4z"/><path fill="#38262D" d="M208 68h4v4h-4z"/><path fill="#472534" d="M212 68h4v4h-4z"/><path fill="#38262D" d="M216 68h4v4h-4zM220 68h4v4h-4z"/><path fill="#472534" d="M224 68h4v4h-4z"/><path fill="#38262D" d="M228 68h4v4h-4z"/><path fill="#693444" d="M96 72h4v4h-4zM100 72h4v4h-4zM104 72h4v4h-4zM108 72h4v4h-4z"/><path fill="#4D1F30" d="M112 72h4v4h-4z"/><path fill="#693444" d="M116 72h4v4h-4z"/><path fill="#472534" d="M120 72h4v4h-4zM124 72h4v4h-4zM128 72h4v4h-4zM132 72h4v4h-4zM136 72h4v4h-4zM140 72h4v4h-4zM144 72h4v4h-4zM148 72h4v4h-4z"/><path fill="#F44617" d="M152 72h4v4h-4zM156 72h4v4h-4z"/><path fill="#3B1101" d="M160 72h4v4h-4z"/><path fill="#0D0508" d="M164 72h4v4h-4zM168 72h4v4h-4z"/><path fill="#0F090B" d="M172 72h4v4h-4z"/><path fill="#6C3B39" d="M176 72h4v4h-4z"/><path fill="#77514E" d="M180 72h4v4h-4zM184 72h4v4h-4z"/><path fill="#9F5A51" d="M188 72h4v4h-4z"/><path fill="#0D0508" d="M192 72h4v4h-4zM196 72h4v4h-4zM200 72h4v4h-4z"/><path fill="#F36725" d="M204 72h4v4h-4zM208 72h4v4h-4z"/><path fill="#38262D" d="M212 72h4v4h-4z"/><path fill="#472534" d="M216 72h4v4h-4zM220 72h4v4h-4zM224 72h4v4h-4z"/><path fill="#38262D" d="M228 72h4v4h-4zM232 72h4v4h-4z"/><path fill="#693444" d="M92 76h4v4h-4zM96 76h4v4h-4zM100 76h4v4h-4zM104 76h4v4h-4zM108 76h4v4h-4z"/><path fill="#38262D" d="M112 76h4v4h-4z"/><path fill="#472534" d="M116 76h4v4h-4zM120 76h4v4h-4zM124 76h4v4h-4zM128 76h4v4h-4zM132 76h4v4h-4zM136 76h4v4h-4zM140 76h4v4h-4z"/><path fill="#F44617" d="M144 76h4v4h-4zM148 76h4v4h-4z"/><path fill="#0D0508" d="M152 76h4v4h-4zM156 76h4v4h-4zM160 76h4v4h-4zM164 76h4v4h-4zM168 76h4v4h-4zM172 76h4v4h-4z"/><path fill="#0F090B" d="M176 76h4v4h-4zM180 76h4v4h-4zM184 76h4v4h-4zM188 76h4v4h-4zM192 76h4v4h-4zM196 76h4v4h-4z"/><path fill="#3D170C" d="M200 76h4v4h-4zM204 76h4v4h-4zM208 76h4v4h-4z"/><path fill="#F36725" d="M212 76h4v4h-4z"/><path fill="#38262D" d="M216 76h4v4h-4z"/><path fill="#472534" d="M220 76h4v4h-4z"/><path fill="#38262D" d="M224 76h4v4h-4zM228 76h4v4h-4z"/><path fill="#472534" d="M232 76h4v4h-4z"/><path fill="#693444" d="M92 80h4v4h-4zM96 80h4v4h-4zM100 80h4v4h-4zM104 80h4v4h-4z"/><path fill="#584047" d="M108 80h4v4h-4z"/><path fill="#693444" d="M112 80h4v4h-4z"/><path fill="#472534" d="M116 80h4v4h-4zM120 80h4v4h-4zM124 80h4v4h-4zM128 80h4v4h-4zM132 80h4v4h-4z"/><path fill="#974013" d="M136 80h4v4h-4z"/><path fill="#F36725" d="M140 80h4v4h-4z"/><path fill="#3B1101" d="M144 80h4v4h-4z"/><path fill="#0D0508" d="M148 80h4v4h-4zM152 80h4v4h-4zM156 80h4v4h-4z"/><path fill="#0F090B" d="M160 80h4v4h-4z"/><path fill="#30131D" d="M164 80h4v4h-4z"/><path fill="#E11000" d="M168 80h4v4h-4zM172 80h4v4h-4zM176 80h4v4h-4zM180 80h4v4h-4zM184 80h4v4h-4zM188 80h4v4h-4zM192 80h4v4h-4zM196 80h4v4h-4zM200 80h4v4h-4zM204 80h4v4h-4z"/><path fill="#0F090B" d="M208 80h4v4h-4zM212 80h4v4h-4z"/><path fill="#974013" d="M216 80h4v4h-4z"/><path fill="#38262D" d="M220 80h4v4h-4zM224 80h4v4h-4zM228 80h4v4h-4z"/><path fill="#472534" d="M232 80h4v4h-4zM236 80h4v4h-4z"/><path fill="#693444" d="M88 84h4v4h-4zM92 84h4v4h-4zM96 84h4v4h-4zM100 84h4v4h-4z"/><path fill="#471D2E" d="M104 84h4v4h-4z"/><path fill="#693444" d="M108 84h4v4h-4z"/><path fill="#472534" d="M112 84h4v4h-4zM116 84h4v4h-4zM120 84h4v4h-4zM124 84h4v4h-4zM128 84h4v4h-4z"/><path fill="#974013" d="M132 84h4v4h-4z"/><path fill="#F36725" d="M136 84h4v4h-4z"/><path fill="#0D0508" d="M140 84h4v4h-4zM144 84h4v4h-4zM148 84h4v4h-4zM152 84h4v4h-4z"/><path fill="#231C20" d="M156 84h4v4h-4z"/><path fill="#E11000" d="M160 84h4v4h-4zM164 84h4v4h-4zM168 84h4v4h-4zM172 84h4v4h-4zM176 84h4v4h-4zM180 84h4v4h-4zM184 84h4v4h-4zM188 84h4v4h-4zM192 84h4v4h-4zM196 84h4v4h-4zM200 84h4v4h-4zM204 84h4v4h-4zM208 84h4v4h-4zM212 84h4v4h-4zM216 84h4v4h-4z"/><path fill="#965626" d="M220 84h4v4h-4z"/><path fill="#38262D" d="M224 84h4v4h-4z"/><path fill="#472534" d="M228 84h4v4h-4zM232 84h4v4h-4zM236 84h4v4h-4z"/><path fill="#584047" d="M88 88h4v4h-4z"/><path fill="#693444" d="M92 88h4v4h-4zM96 88h4v4h-4zM100 88h4v4h-4zM104 88h4v4h-4z"/><path fill="#472534" d="M108 88h4v4h-4zM112 88h4v4h-4zM116 88h4v4h-4zM120 88h4v4h-4zM124 88h4v4h-4z"/><path fill="#66311F" d="M128 88h4v4h-4z"/><path fill="#974013" d="M132 88h4v4h-4z"/><path fill="#0D0508" d="M136 88h4v4h-4zM140 88h4v4h-4zM144 88h4v4h-4zM148 88h4v4h-4z"/><path fill="#E11000" d="M152 88h4v4h-4zM156 88h4v4h-4zM160 88h4v4h-4zM164 88h4v4h-4zM168 88h4v4h-4z"/><path fill="#F36725" d="M172 88h4v4h-4zM176 88h4v4h-4zM180 88h4v4h-4zM184 88h4v4h-4z"/><path fill="#E11000" d="M188 88h4v4h-4zM192 88h4v4h-4zM196 88h4v4h-4z"/><path fill="#FF8E45" d="M200 88h4v4h-4zM204 88h4v4h-4z"/><path fill="#584047" d="M208 88h4v4h-4z"/><path fill="#38262D" d="M212 88h4v4h-4z"/><path fill="#382128" d="M216 88h4v4h-4z"/><path fill="#E11000" d="M220 88h4v4h-4z"/><path fill="#974013" d="M224 88h4v4h-4z"/><path fill="#38262D" d="M228 88h4v4h-4zM232 88h4v4h-4z"/><path fill="#472534" d="M236 88h4v4h-4zM240 88h4v4h-4z"/><path fill="#584047" d="M84 92h4v4h-4zM88 92h4v4h-4z"/><path fill="#693444" d="M92 92h4v4h-4zM96 92h4v4h-4z"/><path fill="#38262D" d="M100 92h4v4h-4zM104 92h4v4h-4z"/><path fill="#472534" d="M108 92h4v4h-4zM112 92h4v4h-4z"/><path fill="#38262D" d="M116 92h4v4h-4z"/><path fill="#30131D" d="M120 92h4v4h-4z"/><path fill="#38262D" d="M124 92h4v4h-4z"/><path fill="#974013" d="M128 92h4v4h-4z"/><path fill="#0D0508" d="M132 92h4v4h-4zM136 92h4v4h-4zM140 92h4v4h-4zM144 92h4v4h-4z"/><path fill="#E11000" d="M148 92h4v4h-4zM152 92h4v4h-4zM156 92h4v4h-4z"/><path fill="#F36725" d="M160 92h4v4h-4zM164 92h4v4h-4zM168 92h4v4h-4z"/><path fill="#5E1E02" d="M172 92h4v4h-4z"/><path fill="#30131D" d="M176 92h4v4h-4zM180 92h4v4h-4z"/><path fill="#F36725" d="M184 92h4v4h-4z"/><path fill="#E11000" d="M188 92h4v4h-4zM192 92h4v4h-4zM196 92h4v4h-4z"/><path fill="#FF8E45" d="M200 92h4v4h-4zM204 92h4v4h-4z"/><path fill="#584047" d="M208 92h4v4h-4zM212 92h4v4h-4z"/><path fill="#38262D" d="M216 92h4v4h-4zM220 92h4v4h-4z"/><path fill="#E11000" d="M224 92h4v4h-4z"/><path fill="#38262D" d="M228 92h4v4h-4zM232 92h4v4h-4zM236 92h4v4h-4z"/><path fill="#472534" d="M240 92h4v4h-4z"/><path fill="#584047" d="M84 96h4v4h-4zM88 96h4v4h-4z"/><path fill="#693444" d="M92 96h4v4h-4z"/><path fill="#584047" d="M96 96h4v4h-4z"/><path fill="#38262D" d="M100 96h4v4h-4zM104 96h4v4h-4z"/><path fill="#472534" d="M108 96h4v4h-4zM112 96h4v4h-4z"/><path fill="#584047" d="M116 96h4v4h-4z"/><path fill="#2E1C25" d="M120 96h4v4h-4z"/><path fill="#974013" d="M124 96h4v4h-4z"/><path fill="#0D0508" d="M128 96h4v4h-4zM132 96h4v4h-4zM136 96h4v4h-4z"/><path fill="#E11000" d="M140 96h4v4h-4zM144 96h4v4h-4zM148 96h4v4h-4z"/><path fill="#F36725" d="M152 96h4v4h-4zM156 96h4v4h-4z"/><path fill="#5E1E02" d="M160 96h4v4h-4z"/><path fill="#30131D" d="M164 96h4v4h-4z"/><path fill="#38262D" d="M168 96h4v4h-4z"/><path fill="#30131D" d="M172 96h4v4h-4zM176 96h4v4h-4zM180 96h4v4h-4z"/><path fill="#F36725" d="M184 96h4v4h-4z"/><path fill="#E11000" d="M188 96h4v4h-4zM192 96h4v4h-4zM196 96h4v4h-4z"/><path fill="#FF8E45" d="M200 96h4v4h-4zM204 96h4v4h-4z"/><path fill="#38262D" d="M208 96h4v4h-4z"/><path fill="#584047" d="M212 96h4v4h-4zM216 96h4v4h-4z"/><path fill="#69414D" d="M220 96h4v4h-4z"/><path fill="#38262D" d="M224 96h4v4h-4zM228 96h4v4h-4z"/><path fill="#472534" d="M232 96h4v4h-4z"/><path fill="#38262D" d="M236 96h4v4h-4zM240 96h4v4h-4zM244 96h4v4h-4z"/><path fill="#3F222A" d="M248 96h4v4h-4zM252 96h4v4h-4zM256 96h4v4h-4z"/><path fill="#693444" d="M84 100h4v4h-4z"/><path fill="#584047" d="M88 100h4v4h-4zM92 100h4v4h-4zM96 100h4v4h-4z"/><path fill="#38262D" d="M100 100h4v4h-4z"/><path fill="#472534" d="M104 100h4v4h-4zM108 100h4v4h-4zM112 100h4v4h-4z"/><path fill="#30131D" d="M116 100h4v4h-4z"/><path fill="#9B2E05" d="M120 100h4v4h-4z"/><path fill="#3B1101" d="M124 100h4v4h-4z"/><path fill="#0D0508" d="M128 100h4v4h-4zM132 100h4v4h-4z"/><path fill="#E11000" d="M136 100h4v4h-4zM140 100h4v4h-4z"/><path fill="#F36725" d="M144 100h4v4h-4zM148 100h4v4h-4z"/><path fill="#30131D" d="M152 100h4v4h-4z"/><path fill="#282325" d="M156 100h4v4h-4z"/><path fill="#241D21" d="M160 100h4v4h-4z"/><path fill="#38262D" d="M164 100h4v4h-4zM168 100h4v4h-4z"/><path fill="#30131D" d="M172 100h4v4h-4zM176 100h4v4h-4zM180 100h4v4h-4z"/><path fill="#F36725" d="M184 100h4v4h-4z"/><path fill="#E11000" d="M188 100h4v4h-4zM192 100h4v4h-4zM196 100h4v4h-4z"/><path fill="#FF8E45" d="M200 100h4v4h-4zM204 100h4v4h-4z"/><path fill="#38262D" d="M208 100h4v4h-4z"/><path fill="#30131D" d="M212 100h4v4h-4z"/><path fill="#584047" d="M216 100h4v4h-4z"/><path fill="#38262D" d="M220 100h4v4h-4zM224 100h4v4h-4zM228 100h4v4h-4zM232 100h4v4h-4zM236 100h4v4h-4zM240 100h4v4h-4z"/><path fill="#472534" d="M244 100h4v4h-4z"/><path fill="#693444" d="M248 100h4v4h-4z"/><path fill="#584047" d="M252 100h4v4h-4zM256 100h4v4h-4z"/><path fill="#693444" d="M84 104h4v4h-4z"/><path fill="#584047" d="M88 104h4v4h-4zM92 104h4v4h-4z"/><path fill="#38262D" d="M96 104h4v4h-4zM100 104h4v4h-4zM104 104h4v4h-4z"/><path fill="#30131D" d="M108 104h4v4h-4z"/><path fill="#472534" d="M112 104h4v4h-4z"/><path fill="#5E1E02" d="M116 104h4v4h-4z"/><path fill="#974013" d="M120 104h4v4h-4z"/><path fill="#0D0508" d="M124 104h4v4h-4zM128 104h4v4h-4z"/><path fill="#E11000" d="M132 104h4v4h-4z"/><path fill="#F36725" d="M136 104h4v4h-4zM140 104h4v4h-4z"/><path fill="#30131D" d="M144 104h4v4h-4zM148 104h4v4h-4z"/><path fill="#38262D" d="M152 104h4v4h-4zM156 104h4v4h-4z"/><path fill="#0F090B" d="M160 104h4v4h-4z"/><path fill="#584047" d="M164 104h4v4h-4z"/><path fill="#46353B" d="M168 104h4v4h-4z"/><path fill="#30131D" d="M172 104h4v4h-4zM176 104h4v4h-4zM180 104h4v4h-4z"/><path fill="#F36725" d="M184 104h4v4h-4z"/><path fill="#E11000" d="M188 104h4v4h-4zM192 104h4v4h-4zM196 104h4v4h-4z"/><path fill="#FF8E45" d="M200 104h4v4h-4zM204 104h4v4h-4z"/><path fill="#38262D" d="M208 104h4v4h-4zM212 104h4v4h-4zM216 104h4v4h-4z"/><path fill="#584047" d="M220 104h4v4h-4z"/><path fill="#38262D" d="M224 104h4v4h-4z"/><path fill="#584047" d="M228 104h4v4h-4z"/><path fill="#38262D" d="M232 104h4v4h-4z"/><path fill="#3F222A" d="M236 104h4v4h-4z"/><path fill="#693444" d="M240 104h4v4h-4zM244 104h4v4h-4zM248 104h4v4h-4z"/><path fill="#584047" d="M252 104h4v4h-4zM256 104h4v4h-4zM80 108h4v4h-4zM84 108h4v4h-4zM88 108h4v4h-4zM92 108h4v4h-4z"/><path fill="#30131D" d="M96 108h4v4h-4zM100 108h4v4h-4zM104 108h4v4h-4zM108 108h4v4h-4zM112 108h4v4h-4z"/><path fill="#9B2E05" d="M116 108h4v4h-4z"/><path fill="#0D0508" d="M120 108h4v4h-4zM124 108h4v4h-4z"/><path fill="#E11000" d="M128 108h4v4h-4z"/><path fill="#F36725" d="M132 108h4v4h-4z"/><path fill="#5E1E02" d="M136 108h4v4h-4z"/><path fill="#30131D" d="M140 108h4v4h-4zM144 108h4v4h-4zM148 108h4v4h-4zM152 108h4v4h-4z"/><path fill="#38262D" d="M156 108h4v4h-4zM160 108h4v4h-4z"/><path fill="#584047" d="M164 108h4v4h-4zM168 108h4v4h-4zM172 108h4v4h-4z"/><path fill="#30131D" d="M176 108h4v4h-4zM180 108h4v4h-4z"/><path fill="#F36725" d="M184 108h4v4h-4z"/><path fill="#E11000" d="M188 108h4v4h-4zM192 108h4v4h-4zM196 108h4v4h-4z"/><path fill="#F36725" d="M200 108h4v4h-4z"/><path fill="#FF8E45" d="M204 108h4v4h-4z"/><path fill="#38262D" d="M208 108h4v4h-4zM212 108h4v4h-4zM216 108h4v4h-4z"/><path fill="#584047" d="M220 108h4v4h-4zM224 108h4v4h-4zM228 108h4v4h-4zM232 108h4v4h-4z"/><path fill="#0D0508" d="M236 108h4v4h-4z"/><path fill="#3F222A" d="M240 108h4v4h-4z"/><path fill="#693444" d="M244 108h4v4h-4zM248 108h4v4h-4z"/><path fill="#584047" d="M252 108h4v4h-4zM256 108h4v4h-4zM80 112h4v4h-4zM84 112h4v4h-4zM88 112h4v4h-4zM92 112h4v4h-4z"/><path fill="#30131D" d="M96 112h4v4h-4z"/><path fill="#38262D" d="M100 112h4v4h-4z"/><path fill="#30131D" d="M104 112h4v4h-4z"/><path fill="#38262D" d="M108 112h4v4h-4z"/><path fill="#30131D" d="M112 112h4v4h-4z"/><path fill="#9B2E05" d="M116 112h4v4h-4z"/><path fill="#0D0508" d="M120 112h4v4h-4z"/><path fill="#E11000" d="M124 112h4v4h-4z"/><path fill="#F36725" d="M128 112h4v4h-4z"/><path fill="#3B1101" d="M132 112h4v4h-4z"/><path fill="#30131D" d="M136 112h4v4h-4z"/><path fill="#38262D" d="M140 112h4v4h-4z"/><path fill="#30131D" d="M144 112h4v4h-4zM148 112h4v4h-4zM152 112h4v4h-4zM156 112h4v4h-4z"/><path fill="#38262D" d="M160 112h4v4h-4z"/><path fill="#584047" d="M164 112h4v4h-4zM168 112h4v4h-4zM172 112h4v4h-4z"/><path fill="#30131D" d="M176 112h4v4h-4zM180 112h4v4h-4z"/><path fill="#F36725" d="M184 112h4v4h-4z"/><path fill="#E11000" d="M188 112h4v4h-4zM192 112h4v4h-4zM196 112h4v4h-4z"/><path fill="#F36725" d="M200 112h4v4h-4z"/><path fill="#FF8E45" d="M204 112h4v4h-4z"/><path fill="#38262D" d="M208 112h4v4h-4zM212 112h4v4h-4zM216 112h4v4h-4zM220 112h4v4h-4z"/><path fill="#584047" d="M224 112h4v4h-4zM228 112h4v4h-4zM232 112h4v4h-4z"/><path fill="#0D0508" d="M236 112h4v4h-4z"/><path fill="#3F222A" d="M240 112h4v4h-4zM244 112h4v4h-4z"/><path fill="#693444" d="M248 112h4v4h-4z"/><path fill="#584047" d="M252 112h4v4h-4zM256 112h4v4h-4zM80 116h4v4h-4zM84 116h4v4h-4zM88 116h4v4h-4zM92 116h4v4h-4z"/><path fill="#38262D" d="M96 116h4v4h-4zM100 116h4v4h-4zM104 116h4v4h-4zM108 116h4v4h-4z"/><path fill="#30131D" d="M112 116h4v4h-4z"/><path fill="#0D0508" d="M116 116h4v4h-4z"/><path fill="#E11000" d="M120 116h4v4h-4z"/><path fill="#F36725" d="M124 116h4v4h-4z"/><path fill="#30131D" d="M128 116h4v4h-4zM132 116h4v4h-4z"/><path fill="#38262D" d="M136 116h4v4h-4z"/><path fill="#30131D" d="M140 116h4v4h-4zM144 116h4v4h-4zM148 116h4v4h-4zM152 116h4v4h-4z"/><path fill="#38262D" d="M156 116h4v4h-4z"/><path fill="#30131D" d="M160 116h4v4h-4z"/><path fill="#38262D" d="M164 116h4v4h-4z"/><path fill="#584047" d="M168 116h4v4h-4zM172 116h4v4h-4z"/><path fill="#30131D" d="M176 116h4v4h-4z"/><path fill="#48000D" d="M180 116h4v4h-4z"/><path fill="#F36725" d="M184 116h4v4h-4z"/><path fill="#E11000" d="M188 116h4v4h-4zM192 116h4v4h-4zM196 116h4v4h-4z"/><path fill="#F36725" d="M200 116h4v4h-4zM204 116h4v4h-4z"/><path fill="#584047" d="M208 116h4v4h-4zM212 116h4v4h-4z"/><path fill="#38262D" d="M216 116h4v4h-4zM220 116h4v4h-4z"/><path fill="#584047" d="M224 116h4v4h-4zM228 116h4v4h-4zM232 116h4v4h-4zM236 116h4v4h-4z"/><path fill="#3B1101" d="M240 116h4v4h-4z"/><path fill="#3F222A" d="M244 116h4v4h-4z"/><path fill="#693444" d="M248 116h4v4h-4z"/><path fill="#38262D" d="M252 116h4v4h-4zM256 116h4v4h-4z"/><path fill="#584047" d="M80 120h4v4h-4zM84 120h4v4h-4zM88 120h4v4h-4zM92 120h4v4h-4z"/><path fill="#38262D" d="M96 120h4v4h-4zM100 120h4v4h-4zM104 120h4v4h-4z"/><path fill="#30131D" d="M108 120h4v4h-4z"/><path fill="#38262D" d="M112 120h4v4h-4z"/><path fill="#0D0508" d="M116 120h4v4h-4z"/><path fill="#E11000" d="M120 120h4v4h-4z"/><path fill="#5E1E02" d="M124 120h4v4h-4z"/><path fill="#38262D" d="M128 120h4v4h-4zM132 120h4v4h-4z"/><path fill="#30131D" d="M136 120h4v4h-4z"/><path fill="#38262D" d="M140 120h4v4h-4z"/><path fill="#30131D" d="M144 120h4v4h-4zM148 120h4v4h-4z"/><path fill="#38262D" d="M152 120h4v4h-4z"/><path fill="#584047" d="M156 120h4v4h-4zM160 120h4v4h-4z"/><path fill="#38262D" d="M164 120h4v4h-4z"/><path fill="#584047" d="M168 120h4v4h-4zM172 120h4v4h-4z"/><path fill="#48000D" d="M176 120h4v4h-4z"/><path fill="#880018" d="M180 120h4v4h-4z"/><path fill="#F36725" d="M184 120h4v4h-4z"/><path fill="#E11000" d="M188 120h4v4h-4zM192 120h4v4h-4zM196 120h4v4h-4z"/><path fill="#F36725" d="M200 120h4v4h-4zM204 120h4v4h-4z"/><path fill="#38262D" d="M208 120h4v4h-4z"/><path fill="#584047" d="M212 120h4v4h-4z"/><path fill="#38262D" d="M216 120h4v4h-4zM220 120h4v4h-4zM224 120h4v4h-4z"/><path fill="#30131D" d="M228 120h4v4h-4z"/><path fill="#584047" d="M232 120h4v4h-4zM236 120h4v4h-4z"/><path fill="#3B1101" d="M240 120h4v4h-4z"/><path fill="#3F222A" d="M244 120h4v4h-4z"/><path fill="#38262D" d="M248 120h4v4h-4zM252 120h4v4h-4zM80 124h4v4h-4zM84 124h4v4h-4zM88 124h4v4h-4zM92 124h4v4h-4zM96 124h4v4h-4zM100 124h4v4h-4z"/><path fill="#30131D" d="M104 124h4v4h-4zM108 124h4v4h-4z"/><path fill="#584047" d="M112 124h4v4h-4z"/><path fill="#E11000" d="M116 124h4v4h-4z"/><path fill="#30131D" d="M120 124h4v4h-4zM124 124h4v4h-4z"/><path fill="#38262D" d="M128 124h4v4h-4zM132 124h4v4h-4zM136 124h4v4h-4zM140 124h4v4h-4z"/><path fill="#56343D" d="M144 124h4v4h-4z"/><path fill="#381E25" d="M148 124h4v4h-4z"/><path fill="#38262D" d="M152 124h4v4h-4z"/><path fill="#584047" d="M156 124h4v4h-4zM160 124h4v4h-4z"/><path fill="#38262D" d="M164 124h4v4h-4zM168 124h4v4h-4z"/><path fill="#584047" d="M172 124h4v4h-4z"/><path fill="#48000D" d="M176 124h4v4h-4z"/><path fill="#880018" d="M180 124h4v4h-4z"/><path fill="#F36725" d="M184 124h4v4h-4z"/><path fill="#E11000" d="M188 124h4v4h-4zM192 124h4v4h-4zM196 124h4v4h-4z"/><path fill="#F36725" d="M200 124h4v4h-4zM204 124h4v4h-4z"/><path fill="#48000D" d="M208 124h4v4h-4z"/><path fill="#38262D" d="M212 124h4v4h-4zM216 124h4v4h-4zM220 124h4v4h-4zM224 124h4v4h-4z"/><path fill="#30131D" d="M228 124h4v4h-4z"/><path fill="#38262D" d="M232 124h4v4h-4z"/><path fill="#584047" d="M236 124h4v4h-4z"/><path fill="#3B1101" d="M240 124h4v4h-4zM244 124h4v4h-4z"/><path fill="#38262D" d="M248 124h4v4h-4zM252 124h4v4h-4z"/><path fill="#693444" d="M64 128h4v4h-4zM68 128h4v4h-4zM72 128h4v4h-4zM76 128h4v4h-4zM80 128h4v4h-4zM84 128h4v4h-4zM88 128h4v4h-4zM92 128h4v4h-4zM96 128h4v4h-4zM100 128h4v4h-4z"/><path fill="#472534" d="M104 128h4v4h-4z"/><path fill="#30131D" d="M108 128h4v4h-4z"/><path fill="#0D0508" d="M112 128h4v4h-4z"/><path fill="#E11000" d="M116 128h4v4h-4z"/><path d="M120 128h4v4h-4z"/><path fill="#38262D" d="M124 128h4v4h-4zM128 128h4v4h-4zM132 128h4v4h-4zM136 128h4v4h-4zM140 128h4v4h-4z"/><path fill="#56343D" d="M144 128h4v4h-4zM148 128h4v4h-4z"/><path fill="#492E34" d="M152 128h4v4h-4zM156 128h4v4h-4z"/><path fill="#38262D" d="M160 128h4v4h-4zM164 128h4v4h-4zM168 128h4v4h-4z"/><path fill="#48000D" d="M172 128h4v4h-4z"/><path fill="#880018" d="M176 128h4v4h-4z"/><path fill="#48000D" d="M180 128h4v4h-4z"/><path fill="#30131D" d="M184 128h4v4h-4z"/><path fill="#F36725" d="M188 128h4v4h-4z"/><path fill="#E11000" d="M192 128h4v4h-4zM196 128h4v4h-4z"/><path fill="#F36725" d="M200 128h4v4h-4zM204 128h4v4h-4z"/><path fill="#48000D" d="M208 128h4v4h-4z"/><path fill="#38262D" d="M212 128h4v4h-4zM216 128h4v4h-4zM220 128h4v4h-4zM224 128h4v4h-4zM228 128h4v4h-4zM232 128h4v4h-4z"/><path fill="#584047" d="M236 128h4v4h-4z"/><path fill="#3B1101" d="M240 128h4v4h-4zM244 128h4v4h-4z"/><path fill="#38262D" d="M248 128h4v4h-4z"/><path fill="#30131D" d="M252 128h4v4h-4z"/><path fill="#693444" d="M64 132h4v4h-4zM68 132h4v4h-4zM72 132h4v4h-4zM76 132h4v4h-4zM80 132h4v4h-4zM84 132h4v4h-4zM88 132h4v4h-4zM92 132h4v4h-4zM96 132h4v4h-4zM100 132h4v4h-4z"/><path fill="#30131D" d="M104 132h4v4h-4zM108 132h4v4h-4z"/><path fill="#0D0508" d="M112 132h4v4h-4z"/><path fill="#E11000" d="M116 132h4v4h-4z"/><path fill="#30131D" d="M120 132h4v4h-4zM124 132h4v4h-4z"/><path fill="#38262D" d="M128 132h4v4h-4z"/><path fill="#30131D" d="M132 132h4v4h-4z"/><path fill="#38262D" d="M136 132h4v4h-4z"/><path fill="#3A272C" d="M140 132h4v4h-4zM144 132h4v4h-4z"/><path fill="#584047" d="M148 132h4v4h-4z"/><path fill="#492E34" d="M152 132h4v4h-4z"/><path fill="#38262D" d="M156 132h4v4h-4zM160 132h4v4h-4z"/><path fill="#584047" d="M164 132h4v4h-4zM168 132h4v4h-4z"/><path fill="#48000D" d="M172 132h4v4h-4z"/><path fill="#880018" d="M176 132h4v4h-4z"/><path fill="#48000D" d="M180 132h4v4h-4z"/><path fill="#30131D" d="M184 132h4v4h-4z"/><path fill="#F36725" d="M188 132h4v4h-4z"/><path fill="#F44617" d="M192 132h4v4h-4zM196 132h4v4h-4z"/><path fill="#F36725" d="M200 132h4v4h-4zM204 132h4v4h-4z"/><path fill="#880018" d="M208 132h4v4h-4z"/><path fill="#38262D" d="M212 132h4v4h-4zM216 132h4v4h-4zM220 132h4v4h-4zM224 132h4v4h-4zM228 132h4v4h-4zM232 132h4v4h-4zM236 132h4v4h-4z"/><path fill="#3B1101" d="M240 132h4v4h-4zM244 132h4v4h-4z"/><path fill="#38262D" d="M248 132h4v4h-4z"/><path fill="#0D0508" d="M252 132h4v4h-4z"/><path fill="#693444" d="M68 136h4v4h-4zM72 136h4v4h-4zM76 136h4v4h-4zM80 136h4v4h-4zM84 136h4v4h-4zM88 136h4v4h-4zM92 136h4v4h-4zM96 136h4v4h-4z"/><path fill="#30131D" d="M100 136h4v4h-4zM104 136h4v4h-4zM108 136h4v4h-4z"/><path fill="#0D0508" d="M112 136h4v4h-4z"/><path fill="#E11000" d="M116 136h4v4h-4z"/><path fill="#30131D" d="M120 136h4v4h-4zM124 136h4v4h-4zM128 136h4v4h-4zM132 136h4v4h-4z"/><path fill="#38262D" d="M136 136h4v4h-4z"/><path fill="#584047" d="M140 136h4v4h-4z"/><path fill="#38262D" d="M144 136h4v4h-4zM148 136h4v4h-4z"/><path fill="#50313A" d="M152 136h4v4h-4z"/><path fill="#38262D" d="M156 136h4v4h-4zM160 136h4v4h-4zM164 136h4v4h-4z"/><path fill="#584047" d="M168 136h4v4h-4z"/><path fill="#48000D" d="M172 136h4v4h-4z"/><path fill="#880018" d="M176 136h4v4h-4z"/><path fill="#48000D" d="M180 136h4v4h-4z"/><path fill="#30131D" d="M184 136h4v4h-4z"/><path fill="#F36725" d="M188 136h4v4h-4z"/><path fill="#F44617" d="M192 136h4v4h-4zM196 136h4v4h-4z"/><path fill="#F36725" d="M200 136h4v4h-4zM204 136h4v4h-4z"/><path fill="#880018" d="M208 136h4v4h-4z"/><path fill="#38262D" d="M212 136h4v4h-4zM216 136h4v4h-4zM220 136h4v4h-4zM224 136h4v4h-4zM228 136h4v4h-4zM232 136h4v4h-4zM236 136h4v4h-4z"/><path fill="#3B1101" d="M240 136h4v4h-4z"/><path fill="#66311F" d="M244 136h4v4h-4z"/><path fill="#0D0508" d="M248 136h4v4h-4zM252 136h4v4h-4z"/><path fill="#693444" d="M68 140h4v4h-4zM72 140h4v4h-4zM76 140h4v4h-4zM80 140h4v4h-4zM84 140h4v4h-4zM88 140h4v4h-4zM92 140h4v4h-4zM96 140h4v4h-4z"/><path fill="#30131D" d="M100 140h4v4h-4zM104 140h4v4h-4z"/><path fill="#6D2C44" d="M108 140h4v4h-4z"/><path fill="#0D0508" d="M112 140h4v4h-4z"/><path fill="#9B2E05" d="M116 140h4v4h-4z"/><path fill="#30131D" d="M120 140h4v4h-4zM124 140h4v4h-4zM128 140h4v4h-4zM132 140h4v4h-4z"/><path fill="#38262D" d="M136 140h4v4h-4z"/><path fill="#584047" d="M140 140h4v4h-4zM144 140h4v4h-4z"/><path fill="#38262D" d="M148 140h4v4h-4z"/><path fill="#50313A" d="M152 140h4v4h-4z"/><path fill="#38262D" d="M156 140h4v4h-4zM160 140h4v4h-4zM164 140h4v4h-4zM168 140h4v4h-4z"/><path fill="#CA1334" d="M172 140h4v4h-4z"/><path fill="#48000D" d="M176 140h4v4h-4z"/><path fill="#30131D" d="M180 140h4v4h-4zM184 140h4v4h-4z"/><path fill="#F36725" d="M188 140h4v4h-4z"/><path fill="#F44617" d="M192 140h4v4h-4zM196 140h4v4h-4z"/><path fill="#F36725" d="M200 140h4v4h-4zM204 140h4v4h-4z"/><path fill="#48000D" d="M208 140h4v4h-4zM212 140h4v4h-4z"/><path fill="#38262D" d="M216 140h4v4h-4zM220 140h4v4h-4zM224 140h4v4h-4zM228 140h4v4h-4z"/><path fill="#48000D" d="M232 140h4v4h-4zM236 140h4v4h-4z"/><path fill="#3B1101" d="M240 140h4v4h-4z"/><path fill="#752411" d="M244 140h4v4h-4z"/><path fill="#30131D" d="M248 140h4v4h-4z"/><path fill="#0D0508" d="M252 140h4v4h-4z"/><path fill="#38262D" d="M72 144h4v4h-4zM76 144h4v4h-4zM80 144h4v4h-4zM84 144h4v4h-4zM88 144h4v4h-4zM92 144h4v4h-4zM96 144h4v4h-4z"/><path fill="#30131D" d="M100 144h4v4h-4zM104 144h4v4h-4z"/><path fill="#6D2C44" d="M108 144h4v4h-4z"/><path fill="#0D0508" d="M112 144h4v4h-4z"/><path fill="#3B1101" d="M116 144h4v4h-4z"/><path fill="#30131D" d="M120 144h4v4h-4zM124 144h4v4h-4zM128 144h4v4h-4zM132 144h4v4h-4z"/><path fill="#38262D" d="M136 144h4v4h-4z"/><path fill="#4E3036" d="M140 144h4v4h-4zM144 144h4v4h-4z"/><path fill="#57353B" d="M148 144h4v4h-4zM152 144h4v4h-4z"/><path fill="#38262D" d="M156 144h4v4h-4zM160 144h4v4h-4zM164 144h4v4h-4zM168 144h4v4h-4z"/><path fill="#CA1334" d="M172 144h4v4h-4z"/><path fill="#48000D" d="M176 144h4v4h-4zM180 144h4v4h-4z"/><path fill="#30131D" d="M184 144h4v4h-4z"/><path fill="#F36725" d="M188 144h4v4h-4z"/><path fill="#F44617" d="M192 144h4v4h-4zM196 144h4v4h-4z"/><path fill="#F36725" d="M200 144h4v4h-4zM204 144h4v4h-4z"/><path fill="#48000D" d="M208 144h4v4h-4zM212 144h4v4h-4zM216 144h4v4h-4zM220 144h4v4h-4zM224 144h4v4h-4z"/><path fill="#880018" d="M228 144h4v4h-4zM232 144h4v4h-4zM236 144h4v4h-4z"/><path fill="#3B1101" d="M240 144h4v4h-4z"/><path fill="#974013" d="M244 144h4v4h-4z"/><path fill="#30131D" d="M248 144h4v4h-4z"/><path fill="#0D0508" d="M252 144h4v4h-4z"/><path fill="#38262D" d="M76 148h4v4h-4zM80 148h4v4h-4zM84 148h4v4h-4zM88 148h4v4h-4zM92 148h4v4h-4z"/><path fill="#30131D" d="M96 148h4v4h-4zM100 148h4v4h-4zM104 148h4v4h-4zM108 148h4v4h-4z"/><path fill="#0D0508" d="M112 148h4v4h-4zM116 148h4v4h-4z"/><path fill="#30131D" d="M120 148h4v4h-4zM124 148h4v4h-4z"/><path fill="#38262D" d="M128 148h4v4h-4zM132 148h4v4h-4zM136 148h4v4h-4zM140 148h4v4h-4zM144 148h4v4h-4z"/><path fill="#57353B" d="M148 148h4v4h-4zM152 148h4v4h-4z"/><path fill="#48000D" d="M156 148h4v4h-4zM160 148h4v4h-4zM164 148h4v4h-4zM168 148h4v4h-4z"/><path fill="#CA1334" d="M172 148h4v4h-4zM176 148h4v4h-4zM180 148h4v4h-4z"/><path fill="#30131D" d="M184 148h4v4h-4z"/><path fill="#F36725" d="M188 148h4v4h-4z"/><path fill="#F44617" d="M192 148h4v4h-4zM196 148h4v4h-4z"/><path fill="#F36725" d="M200 148h4v4h-4zM204 148h4v4h-4z"/><path fill="#48000D" d="M208 148h4v4h-4z"/><path fill="#CA1334" d="M212 148h4v4h-4z"/><path fill="#880018" d="M216 148h4v4h-4zM220 148h4v4h-4zM224 148h4v4h-4z"/><path fill="#48000D" d="M228 148h4v4h-4z"/><path fill="#880018" d="M232 148h4v4h-4z"/><path fill="#48000D" d="M236 148h4v4h-4z"/><path fill="#3B1101" d="M240 148h4v4h-4z"/><path fill="#974013" d="M244 148h4v4h-4z"/><path fill="#30131D" d="M248 148h4v4h-4z"/><path fill="#0D0508" d="M252 148h4v4h-4z"/><path fill="#38262D" d="M76 152h4v4h-4z"/><path fill="#693444" d="M80 152h4v4h-4zM84 152h4v4h-4zM88 152h4v4h-4zM92 152h4v4h-4zM96 152h4v4h-4z"/><path fill="#30131D" d="M100 152h4v4h-4zM104 152h4v4h-4z"/><path fill="#38262D" d="M108 152h4v4h-4z"/><path fill="#0D0508" d="M112 152h4v4h-4zM116 152h4v4h-4z"/><path fill="#30131D" d="M120 152h4v4h-4zM124 152h4v4h-4z"/><path fill="#38262D" d="M128 152h4v4h-4zM132 152h4v4h-4zM136 152h4v4h-4z"/><path fill="#48000D" d="M140 152h4v4h-4zM144 152h4v4h-4zM148 152h4v4h-4zM152 152h4v4h-4z"/><path fill="#880018" d="M156 152h4v4h-4zM160 152h4v4h-4zM164 152h4v4h-4z"/><path fill="#CA1334" d="M168 152h4v4h-4z"/><path fill="#48000D" d="M172 152h4v4h-4zM176 152h4v4h-4zM180 152h4v4h-4z"/><path fill="#30131D" d="M184 152h4v4h-4z"/><path fill="#F36725" d="M188 152h4v4h-4z"/><path fill="#F44617" d="M192 152h4v4h-4zM196 152h4v4h-4z"/><path fill="#F36725" d="M200 152h4v4h-4zM204 152h4v4h-4z"/><path fill="#CA1334" d="M208 152h4v4h-4zM212 152h4v4h-4z"/><path fill="#48000D" d="M216 152h4v4h-4zM220 152h4v4h-4zM224 152h4v4h-4zM228 152h4v4h-4zM232 152h4v4h-4z"/><path fill="#513138" d="M236 152h4v4h-4z"/><path fill="#3B1101" d="M240 152h4v4h-4z"/><path fill="#974013" d="M244 152h4v4h-4z"/><path fill="#30131D" d="M248 152h4v4h-4z"/><path fill="#0D0508" d="M252 152h4v4h-4z"/><path fill="#38262D" d="M76 156h4v4h-4z"/><path fill="#693444" d="M80 156h4v4h-4zM84 156h4v4h-4zM88 156h4v4h-4zM92 156h4v4h-4zM96 156h4v4h-4z"/><path fill="#6D2C44" d="M100 156h4v4h-4z"/><path fill="#30131D" d="M104 156h4v4h-4z"/><path fill="#472534" d="M108 156h4v4h-4z"/><path fill="#0D0508" d="M112 156h4v4h-4zM116 156h4v4h-4z"/><path fill="#30131D" d="M120 156h4v4h-4zM124 156h4v4h-4z"/><path fill="#48000D" d="M128 156h4v4h-4zM132 156h4v4h-4zM136 156h4v4h-4z"/><path fill="#880018" d="M140 156h4v4h-4zM144 156h4v4h-4zM148 156h4v4h-4zM152 156h4v4h-4z"/><path fill="#48000D" d="M156 156h4v4h-4zM160 156h4v4h-4zM164 156h4v4h-4zM168 156h4v4h-4zM172 156h4v4h-4z"/><path fill="#38262D" d="M176 156h4v4h-4zM180 156h4v4h-4z"/><path fill="#30131D" d="M184 156h4v4h-4z"/><path fill="#F36725" d="M188 156h4v4h-4z"/><path fill="#F44617" d="M192 156h4v4h-4zM196 156h4v4h-4z"/><path fill="#F36725" d="M200 156h4v4h-4zM204 156h4v4h-4z"/><path fill="#48000D" d="M208 156h4v4h-4z"/><path fill="#CA1334" d="M212 156h4v4h-4z"/><path fill="#48000D" d="M216 156h4v4h-4z"/><path fill="#38262D" d="M220 156h4v4h-4zM224 156h4v4h-4z"/><path fill="#48000D" d="M228 156h4v4h-4zM232 156h4v4h-4z"/><path fill="#3A1D23" d="M236 156h4v4h-4z"/><path fill="#3B1101" d="M240 156h4v4h-4z"/><path fill="#974013" d="M244 156h4v4h-4z"/><path fill="#30131D" d="M248 156h4v4h-4z"/><path fill="#0D0508" d="M252 156h4v4h-4z"/><path fill="#38262D" d="M80 160h4v4h-4zM84 160h4v4h-4zM88 160h4v4h-4zM92 160h4v4h-4z"/><path fill="#4B2333" d="M96 160h4v4h-4zM100 160h4v4h-4z"/><path fill="#30131D" d="M104 160h4v4h-4zM108 160h4v4h-4zM112 160h4v4h-4z"/><path fill="#0D0508" d="M116 160h4v4h-4z"/><path fill="#30131D" d="M120 160h4v4h-4z"/><path fill="#48000D" d="M124 160h4v4h-4z"/><path fill="#880018" d="M128 160h4v4h-4zM132 160h4v4h-4zM136 160h4v4h-4z"/><path fill="#48000D" d="M140 160h4v4h-4zM144 160h4v4h-4zM148 160h4v4h-4zM152 160h4v4h-4z"/><path fill="#38262D" d="M156 160h4v4h-4zM160 160h4v4h-4z"/><path fill="#48000D" d="M164 160h4v4h-4zM168 160h4v4h-4z"/><path fill="#38262D" d="M172 160h4v4h-4zM176 160h4v4h-4zM180 160h4v4h-4z"/><path fill="#30131D" d="M184 160h4v4h-4z"/><path fill="#F36725" d="M188 160h4v4h-4z"/><path fill="#F44617" d="M192 160h4v4h-4zM196 160h4v4h-4z"/><path fill="#F36725" d="M200 160h4v4h-4zM204 160h4v4h-4z"/><path fill="#38262D" d="M208 160h4v4h-4z"/><path fill="#48000D" d="M212 160h4v4h-4z"/><path fill="#CA1334" d="M216 160h4v4h-4z"/><path fill="#48000D" d="M220 160h4v4h-4z"/><path fill="#FFF15F" d="M224 160h4v4h-4z"/><path fill="#880018" d="M228 160h4v4h-4z"/><path fill="#584047" d="M232 160h4v4h-4z"/><path fill="#30131D" d="M236 160h4v4h-4z"/><path fill="#3B1101" d="M240 160h4v4h-4z"/><path fill="#974013" d="M244 160h4v4h-4z"/><path fill="#30131D" d="M248 160h4v4h-4z"/><path fill="#0D0508" d="M252 160h4v4h-4z"/><path fill="#30131D" d="M80 164h4v4h-4zM84 164h4v4h-4zM88 164h4v4h-4zM92 164h4v4h-4zM96 164h4v4h-4zM100 164h4v4h-4zM104 164h4v4h-4zM108 164h4v4h-4z"/><path fill="#38262D" d="M112 164h4v4h-4z"/><path fill="#0D0508" d="M116 164h4v4h-4z"/><path fill="#9B2E05" d="M120 164h4v4h-4z"/><path fill="#301F29" d="M124 164h4v4h-4z"/><path fill="#48000D" d="M128 164h4v4h-4z"/><path fill="#880018" d="M132 164h4v4h-4zM136 164h4v4h-4z"/><path fill="#48000D" d="M140 164h4v4h-4z"/><path fill="#30131D" d="M144 164h4v4h-4zM148 164h4v4h-4z"/><path fill="#38262D" d="M152 164h4v4h-4zM156 164h4v4h-4zM160 164h4v4h-4z"/><path fill="#48000D" d="M164 164h4v4h-4z"/><path fill="#880018" d="M168 164h4v4h-4z"/><path fill="#38262D" d="M172 164h4v4h-4zM176 164h4v4h-4zM180 164h4v4h-4z"/><path fill="#30131D" d="M184 164h4v4h-4z"/><path fill="#F36725" d="M188 164h4v4h-4z"/><path fill="#F44617" d="M192 164h4v4h-4zM196 164h4v4h-4z"/><path fill="#F36725" d="M200 164h4v4h-4zM204 164h4v4h-4z"/><path fill="#38262D" d="M208 164h4v4h-4z"/><path fill="#48000D" d="M212 164h4v4h-4z"/><path fill="#880018" d="M216 164h4v4h-4z"/><path fill="#48000D" d="M220 164h4v4h-4z"/><path fill="#880018" d="M224 164h4v4h-4z"/><path fill="#48000D" d="M228 164h4v4h-4z"/><path fill="#582D37" d="M232 164h4v4h-4z"/><path fill="#30131D" d="M236 164h4v4h-4z"/><path fill="#3B1101" d="M240 164h4v4h-4z"/><path fill="#974013" d="M244 164h4v4h-4z"/><path fill="#30131D" d="M248 164h4v4h-4z"/><path fill="#0D0508" d="M252 164h4v4h-4z"/><path fill="#584047" d="M84 168h4v4h-4zM88 168h4v4h-4zM92 168h4v4h-4zM96 168h4v4h-4z"/><path fill="#30131D" d="M100 168h4v4h-4z"/><path fill="#472534" d="M104 168h4v4h-4z"/><path fill="#30131D" d="M108 168h4v4h-4z"/><path fill="#0D0508" d="M112 168h4v4h-4zM116 168h4v4h-4z"/><path fill="#9B2E05" d="M120 168h4v4h-4z"/><path fill="#472534" d="M124 168h4v4h-4z"/><path fill="#38262D" d="M128 168h4v4h-4z"/><path fill="#48000D" d="M132 168h4v4h-4zM136 168h4v4h-4z"/><path fill="#880018" d="M140 168h4v4h-4z"/><path fill="#48000D" d="M144 168h4v4h-4z"/><path fill="#38262D" d="M148 168h4v4h-4zM152 168h4v4h-4zM156 168h4v4h-4zM160 168h4v4h-4z"/><path fill="#48000D" d="M164 168h4v4h-4z"/><path fill="#880018" d="M168 168h4v4h-4z"/><path fill="#38262D" d="M172 168h4v4h-4zM176 168h4v4h-4zM180 168h4v4h-4z"/><path fill="#30131D" d="M184 168h4v4h-4z"/><path fill="#F36725" d="M188 168h4v4h-4z"/><path fill="#F44617" d="M192 168h4v4h-4zM196 168h4v4h-4z"/><path fill="#F36725" d="M200 168h4v4h-4zM204 168h4v4h-4z"/><path fill="#38262D" d="M208 168h4v4h-4z"/><path fill="#48000D" d="M212 168h4v4h-4z"/><path fill="#880018" d="M216 168h4v4h-4z"/><path fill="#48000D" d="M220 168h4v4h-4zM224 168h4v4h-4z"/><path fill="#38262D" d="M228 168h4v4h-4z"/><path fill="#351A20" d="M232 168h4v4h-4z"/><path fill="#30131D" d="M236 168h4v4h-4z"/><path fill="#3B1101" d="M240 168h4v4h-4z"/><path fill="#974013" d="M244 168h4v4h-4z"/><path fill="#30131D" d="M248 168h4v4h-4z"/><path fill="#0D0508" d="M252 168h4v4h-4z"/><path fill="#584047" d="M84 172h4v4h-4zM88 172h4v4h-4zM92 172h4v4h-4zM96 172h4v4h-4z"/><path fill="#30131D" d="M100 172h4v4h-4zM104 172h4v4h-4z"/><path fill="#38262D" d="M108 172h4v4h-4z"/><path fill="#30131D" d="M112 172h4v4h-4z"/><path fill="#0D0508" d="M116 172h4v4h-4z"/><path fill="#9B2E05" d="M120 172h4v4h-4z"/><path fill="#30131D" d="M124 172h4v4h-4z"/><path fill="#402C31" d="M128 172h4v4h-4z"/><path fill="#38262D" d="M132 172h4v4h-4zM136 172h4v4h-4z"/><path fill="#48000D" d="M140 172h4v4h-4z"/><path fill="#880018" d="M144 172h4v4h-4z"/><path fill="#48000D" d="M148 172h4v4h-4z"/><path fill="#38262D" d="M152 172h4v4h-4zM156 172h4v4h-4z"/><path fill="#48000D" d="M160 172h4v4h-4zM164 172h4v4h-4z"/><path fill="#CA1334" d="M168 172h4v4h-4z"/><path fill="#38262D" d="M172 172h4v4h-4zM176 172h4v4h-4zM180 172h4v4h-4z"/><path fill="#30131D" d="M184 172h4v4h-4z"/><path fill="#F36725" d="M188 172h4v4h-4z"/><path fill="#F44617" d="M192 172h4v4h-4zM196 172h4v4h-4zM200 172h4v4h-4z"/><path fill="#F36725" d="M204 172h4v4h-4zM208 172h4v4h-4z"/><path fill="#38262D" d="M212 172h4v4h-4z"/><path fill="#48000D" d="M216 172h4v4h-4z"/><path fill="#CA1334" d="M220 172h4v4h-4z"/><path fill="#30131D" d="M224 172h4v4h-4z"/><path fill="#351A20" d="M228 172h4v4h-4z"/><path fill="#301822" d="M232 172h4v4h-4z"/><path fill="#0F090B" d="M236 172h4v4h-4z"/><path fill="#3B1101" d="M240 172h4v4h-4z"/><path fill="#974013" d="M244 172h4v4h-4z"/><path fill="#30131D" d="M248 172h4v4h-4z"/><path fill="#0D0508" d="M252 172h4v4h-4z"/><path fill="#584047" d="M84 176h4v4h-4z"/><path fill="#693444" d="M88 176h4v4h-4z"/><path fill="#584047" d="M92 176h4v4h-4zM96 176h4v4h-4z"/><path fill="#30131D" d="M100 176h4v4h-4zM104 176h4v4h-4z"/><path fill="#472534" d="M108 176h4v4h-4z"/><path fill="#30131D" d="M112 176h4v4h-4zM116 176h4v4h-4z"/><path fill="#9B2E05" d="M120 176h4v4h-4z"/><path fill="#30131D" d="M124 176h4v4h-4zM128 176h4v4h-4z"/><path fill="#38262D" d="M132 176h4v4h-4zM136 176h4v4h-4zM140 176h4v4h-4z"/><path fill="#48000D" d="M144 176h4v4h-4z"/><path fill="#880018" d="M148 176h4v4h-4zM152 176h4v4h-4z"/><path fill="#48000D" d="M156 176h4v4h-4zM160 176h4v4h-4z"/><path fill="#CA1334" d="M164 176h4v4h-4z"/><path fill="#48000D" d="M168 176h4v4h-4z"/><path fill="#38262D" d="M172 176h4v4h-4zM176 176h4v4h-4zM180 176h4v4h-4z"/><path fill="#30131D" d="M184 176h4v4h-4z"/><path fill="#F36725" d="M188 176h4v4h-4z"/><path fill="#F44617" d="M192 176h4v4h-4zM196 176h4v4h-4zM200 176h4v4h-4z"/><path fill="#F36725" d="M204 176h4v4h-4zM208 176h4v4h-4z"/><path fill="#38262D" d="M212 176h4v4h-4z"/><path fill="#48000D" d="M216 176h4v4h-4z"/><path fill="#CA1334" d="M220 176h4v4h-4z"/><path fill="#30131D" d="M224 176h4v4h-4zM228 176h4v4h-4zM232 176h4v4h-4z"/><path fill="#0D0508" d="M236 176h4v4h-4z"/><path fill="#3B1101" d="M240 176h4v4h-4z"/><path fill="#974013" d="M244 176h4v4h-4z"/><path fill="#30131D" d="M248 176h4v4h-4z"/><path fill="#0D0508" d="M252 176h4v4h-4z"/><path fill="#693444" d="M84 180h4v4h-4zM88 180h4v4h-4zM92 180h4v4h-4z"/><path fill="#584047" d="M96 180h4v4h-4z"/><path fill="#30131D" d="M100 180h4v4h-4zM104 180h4v4h-4z"/><path fill="#472534" d="M108 180h4v4h-4z"/><path fill="#30131D" d="M112 180h4v4h-4zM116 180h4v4h-4z"/><path fill="#9B2E05" d="M120 180h4v4h-4z"/><path fill="#0D0508" d="M124 180h4v4h-4z"/><path fill="#38262D" d="M128 180h4v4h-4z"/><path fill="#30131D" d="M132 180h4v4h-4z"/><path fill="#38262D" d="M136 180h4v4h-4zM140 180h4v4h-4zM144 180h4v4h-4z"/><path fill="#48000D" d="M148 180h4v4h-4zM152 180h4v4h-4z"/><path fill="#CA1334" d="M156 180h4v4h-4z"/><path fill="#48000D" d="M160 180h4v4h-4z"/><path fill="#CA1334" d="M164 180h4v4h-4z"/><path fill="#48000D" d="M168 180h4v4h-4z"/><path fill="#38262D" d="M172 180h4v4h-4zM176 180h4v4h-4zM180 180h4v4h-4z"/><path fill="#30131D" d="M184 180h4v4h-4z"/><path fill="#F36725" d="M188 180h4v4h-4z"/><path fill="#FF8E45" d="M192 180h4v4h-4z"/><path fill="#F44617" d="M196 180h4v4h-4zM200 180h4v4h-4z"/><path fill="#F36725" d="M204 180h4v4h-4zM208 180h4v4h-4z"/><path fill="#48000D" d="M212 180h4v4h-4z"/><path fill="#CA1334" d="M216 180h4v4h-4z"/><path fill="#48000D" d="M220 180h4v4h-4zM224 180h4v4h-4z"/><path fill="#30131D" d="M228 180h4v4h-4zM232 180h4v4h-4zM236 180h4v4h-4z"/><path fill="#3B1101" d="M240 180h4v4h-4z"/><path fill="#5E1E02" d="M244 180h4v4h-4z"/><path fill="#30131D" d="M248 180h4v4h-4z"/><path fill="#0D0508" d="M252 180h4v4h-4z"/><path fill="#693444" d="M88 184h4v4h-4zM92 184h4v4h-4z"/><path fill="#584047" d="M96 184h4v4h-4z"/><path fill="#693444" d="M100 184h4v4h-4z"/><path fill="#30131D" d="M104 184h4v4h-4z"/><path fill="#38262D" d="M108 184h4v4h-4z"/><path fill="#30131D" d="M112 184h4v4h-4zM116 184h4v4h-4z"/><path fill="#0D0508" d="M120 184h4v4h-4z"/><path fill="#9B2E05" d="M124 184h4v4h-4z"/><path fill="#38262D" d="M128 184h4v4h-4zM132 184h4v4h-4zM136 184h4v4h-4zM140 184h4v4h-4zM144 184h4v4h-4zM148 184h4v4h-4z"/><path fill="#48000D" d="M152 184h4v4h-4zM156 184h4v4h-4z"/><path fill="#CA1334" d="M160 184h4v4h-4zM164 184h4v4h-4z"/><path fill="#48000D" d="M168 184h4v4h-4z"/><path fill="#38262D" d="M172 184h4v4h-4zM176 184h4v4h-4zM180 184h4v4h-4z"/><path fill="#30131D" d="M184 184h4v4h-4z"/><path fill="#F36725" d="M188 184h4v4h-4z"/><path fill="#FF8E45" d="M192 184h4v4h-4z"/><path fill="#F44617" d="M196 184h4v4h-4zM200 184h4v4h-4z"/><path fill="#F36725" d="M204 184h4v4h-4zM208 184h4v4h-4z"/><path fill="#880018" d="M212 184h4v4h-4z"/><path fill="#48000D" d="M216 184h4v4h-4zM220 184h4v4h-4zM224 184h4v4h-4z"/><path fill="#30131D" d="M228 184h4v4h-4zM232 184h4v4h-4zM236 184h4v4h-4z"/><path fill="#3B1101" d="M240 184h4v4h-4z"/><path fill="#5E1E02" d="M244 184h4v4h-4z"/><path fill="#0D0508" d="M248 184h4v4h-4zM252 184h4v4h-4z"/><path fill="#693444" d="M88 188h4v4h-4zM92 188h4v4h-4zM96 188h4v4h-4zM100 188h4v4h-4z"/><path fill="#30131D" d="M104 188h4v4h-4z"/><path fill="#3D2026" d="M108 188h4v4h-4z"/><path fill="#30131D" d="M112 188h4v4h-4zM116 188h4v4h-4z"/><path fill="#0D0508" d="M120 188h4v4h-4z"/><path fill="#9B2E05" d="M124 188h4v4h-4z"/><path fill="#30131D" d="M128 188h4v4h-4z"/><path fill="#38262D" d="M132 188h4v4h-4z"/><path fill="#30131D" d="M136 188h4v4h-4z"/><path fill="#38262D" d="M140 188h4v4h-4zM144 188h4v4h-4zM148 188h4v4h-4zM152 188h4v4h-4z"/><path fill="#48000D" d="M156 188h4v4h-4z"/><path fill="#CA1334" d="M160 188h4v4h-4z"/><path fill="#48000D" d="M164 188h4v4h-4z"/><path fill="#CA1334" d="M168 188h4v4h-4z"/><path fill="#48000D" d="M172 188h4v4h-4z"/><path fill="#38262D" d="M176 188h4v4h-4z"/><path fill="#48000D" d="M180 188h4v4h-4z"/><path fill="#30131D" d="M184 188h4v4h-4z"/><path fill="#F36725" d="M188 188h4v4h-4z"/><path fill="#FF8E45" d="M192 188h4v4h-4zM196 188h4v4h-4z"/><path fill="#F44617" d="M200 188h4v4h-4z"/><path fill="#F36725" d="M204 188h4v4h-4z"/><path fill="#48000D" d="M208 188h4v4h-4z"/><path fill="#880018" d="M212 188h4v4h-4z"/><path fill="#0D0508" d="M216 188h4v4h-4z"/><path fill="#48000D" d="M220 188h4v4h-4zM224 188h4v4h-4z"/><path fill="#0D0508" d="M228 188h4v4h-4z"/><path fill="#30131D" d="M232 188h4v4h-4zM236 188h4v4h-4z"/><path fill="#3B1101" d="M240 188h4v4h-4z"/><path fill="#5E1E02" d="M244 188h4v4h-4z"/><path fill="#0D0508" d="M248 188h4v4h-4zM252 188h4v4h-4z"/><path fill="#693444" d="M88 192h4v4h-4zM92 192h4v4h-4zM96 192h4v4h-4z"/><path fill="#38262D" d="M100 192h4v4h-4z"/><path fill="#30131D" d="M104 192h4v4h-4z"/><path fill="#38262D" d="M108 192h4v4h-4z"/><path fill="#30131D" d="M112 192h4v4h-4zM116 192h4v4h-4zM120 192h4v4h-4z"/><path fill="#3B1101" d="M124 192h4v4h-4z"/><path fill="#0D0508" d="M128 192h4v4h-4z"/><path fill="#30131D" d="M132 192h4v4h-4zM136 192h4v4h-4z"/><path fill="#38262D" d="M140 192h4v4h-4zM144 192h4v4h-4zM148 192h4v4h-4zM152 192h4v4h-4z"/><path fill="#48000D" d="M156 192h4v4h-4z"/><path fill="#CA1334" d="M160 192h4v4h-4z"/><path fill="#48000D" d="M164 192h4v4h-4zM168 192h4v4h-4z"/><path fill="#CA1334" d="M172 192h4v4h-4z"/><path fill="#48000D" d="M176 192h4v4h-4zM180 192h4v4h-4z"/><path fill="#30131D" d="M184 192h4v4h-4z"/><path fill="#F36725" d="M188 192h4v4h-4z"/><path fill="#FF8E45" d="M192 192h4v4h-4zM196 192h4v4h-4z"/><path fill="#F44617" d="M200 192h4v4h-4z"/><path fill="#F36725" d="M204 192h4v4h-4z"/><path fill="#48000D" d="M208 192h4v4h-4z"/><path fill="#30131D" d="M212 192h4v4h-4z"/><path fill="#0F090B" d="M216 192h4v4h-4z"/><path fill="#271B1E" d="M220 192h4v4h-4z"/><path fill="#CA1334" d="M224 192h4v4h-4z"/><path fill="#48000D" d="M228 192h4v4h-4z"/><path fill="#30131D" d="M232 192h4v4h-4z"/><path fill="#0D0508" d="M236 192h4v4h-4z"/><path fill="#3B1101" d="M240 192h4v4h-4z"/><path fill="#974013" d="M244 192h4v4h-4z"/><path fill="#0F090B" d="M248 192h4v4h-4z"/><path fill="#0D0508" d="M252 192h4v4h-4z"/><path fill="#693444" d="M88 196h4v4h-4zM92 196h4v4h-4zM96 196h4v4h-4zM100 196h4v4h-4z"/><path fill="#38262D" d="M104 196h4v4h-4zM108 196h4v4h-4z"/><path fill="#30131D" d="M112 196h4v4h-4zM116 196h4v4h-4zM120 196h4v4h-4z"/><path fill="#3B1101" d="M124 196h4v4h-4z"/><path fill="#0D0508" d="M128 196h4v4h-4z"/><path fill="#30131D" d="M132 196h4v4h-4zM136 196h4v4h-4z"/><path fill="#38262D" d="M140 196h4v4h-4zM144 196h4v4h-4zM148 196h4v4h-4z"/><path fill="#48000D" d="M152 196h4v4h-4z"/><path fill="#880018" d="M156 196h4v4h-4z"/><path fill="#48000D" d="M160 196h4v4h-4z"/><path fill="#38262D" d="M164 196h4v4h-4zM168 196h4v4h-4z"/><path fill="#48000D" d="M172 196h4v4h-4z"/><path fill="#CA1334" d="M176 196h4v4h-4zM180 196h4v4h-4z"/><path fill="#30131D" d="M184 196h4v4h-4z"/><path fill="#F36725" d="M188 196h4v4h-4z"/><path fill="#FF8E45" d="M192 196h4v4h-4zM196 196h4v4h-4zM200 196h4v4h-4z"/><path fill="#F36725" d="M204 196h4v4h-4z"/><path fill="#CA1334" d="M208 196h4v4h-4z"/><path fill="#30131D" d="M212 196h4v4h-4zM216 196h4v4h-4zM220 196h4v4h-4z"/><path fill="#CA1334" d="M224 196h4v4h-4z"/><path fill="#48000D" d="M228 196h4v4h-4z"/><path fill="#0D0508" d="M232 196h4v4h-4zM236 196h4v4h-4z"/><path fill="#3B1101" d="M240 196h4v4h-4z"/><path fill="#974013" d="M244 196h4v4h-4z"/><path fill="#0F090B" d="M248 196h4v4h-4z"/><path fill="#0D0508" d="M252 196h4v4h-4z"/><path fill="#30131D" d="M88 200h4v4h-4z"/><path fill="#38262D" d="M92 200h4v4h-4z"/><path fill="#693444" d="M96 200h4v4h-4zM100 200h4v4h-4z"/><path fill="#38262D" d="M104 200h4v4h-4zM108 200h4v4h-4z"/><path fill="#30131D" d="M112 200h4v4h-4zM116 200h4v4h-4zM120 200h4v4h-4z"/><path fill="#3B1101" d="M124 200h4v4h-4z"/><path fill="#0D0508" d="M128 200h4v4h-4z"/><path fill="#30131D" d="M132 200h4v4h-4zM136 200h4v4h-4zM140 200h4v4h-4z"/><path fill="#38262D" d="M144 200h4v4h-4zM148 200h4v4h-4z"/><path fill="#48000D" d="M152 200h4v4h-4z"/><path fill="#CA1334" d="M156 200h4v4h-4z"/><path fill="#48000D" d="M160 200h4v4h-4z"/><path fill="#30131D" d="M164 200h4v4h-4z"/><path fill="#38262D" d="M168 200h4v4h-4z"/><path fill="#48000D" d="M172 200h4v4h-4z"/><path fill="#CA1334" d="M176 200h4v4h-4zM180 200h4v4h-4z"/><path fill="#30131D" d="M184 200h4v4h-4z"/><path fill="#F36725" d="M188 200h4v4h-4z"/><path fill="#FF8E45" d="M192 200h4v4h-4zM196 200h4v4h-4zM200 200h4v4h-4z"/><path fill="#F36725" d="M204 200h4v4h-4z"/><path fill="#48000D" d="M208 200h4v4h-4z"/><path fill="#30131D" d="M212 200h4v4h-4zM216 200h4v4h-4zM220 200h4v4h-4z"/><path fill="#48000D" d="M224 200h4v4h-4z"/><path fill="#880018" d="M228 200h4v4h-4z"/><path fill="#0D0508" d="M232 200h4v4h-4z"/><path fill="#0F090B" d="M236 200h4v4h-4z"/><path fill="#3B1101" d="M240 200h4v4h-4z"/><path fill="#974013" d="M244 200h4v4h-4z"/><path fill="#110D0E" d="M248 200h4v4h-4z"/><path fill="#0D0508" d="M252 200h4v4h-4z"/><path fill="#38262D" d="M92 204h4v4h-4z"/><path fill="#693444" d="M96 204h4v4h-4zM100 204h4v4h-4z"/><path fill="#30131D" d="M104 204h4v4h-4zM108 204h4v4h-4zM112 204h4v4h-4z"/><path fill="#472534" d="M116 204h4v4h-4z"/><path fill="#30131D" d="M120 204h4v4h-4z"/><path fill="#3B1101" d="M124 204h4v4h-4z"/><path fill="#0D0508" d="M128 204h4v4h-4z"/><path fill="#30131D" d="M132 204h4v4h-4zM136 204h4v4h-4zM140 204h4v4h-4zM144 204h4v4h-4z"/><path fill="#38262D" d="M148 204h4v4h-4z"/><path fill="#48000D" d="M152 204h4v4h-4z"/><path fill="#880018" d="M156 204h4v4h-4z"/><path fill="#48000D" d="M160 204h4v4h-4z"/><path fill="#30131D" d="M164 204h4v4h-4z"/><path fill="#38262D" d="M168 204h4v4h-4z"/><path fill="#48000D" d="M172 204h4v4h-4z"/><path fill="#CA1334" d="M176 204h4v4h-4z"/><path fill="#48000D" d="M180 204h4v4h-4z"/><path fill="#30131D" d="M184 204h4v4h-4z"/><path fill="#F36725" d="M188 204h4v4h-4z"/><path fill="#FF8E45" d="M192 204h4v4h-4zM196 204h4v4h-4zM200 204h4v4h-4z"/><path fill="#C56786" d="M204 204h4v4h-4z"/><path fill="#CA1334" d="M208 204h4v4h-4z"/><path fill="#0F090B" d="M212 204h4v4h-4z"/><path fill="#30131D" d="M216 204h4v4h-4z"/><path fill="#26191C" d="M220 204h4v4h-4z"/><path fill="#48000D" d="M224 204h4v4h-4z"/><path fill="#880018" d="M228 204h4v4h-4z"/><path fill="#30131D" d="M232 204h4v4h-4z"/><path fill="#0D0508" d="M236 204h4v4h-4z"/><path fill="#3B1101" d="M240 204h4v4h-4z"/><path fill="#974013" d="M244 204h4v4h-4z"/><path fill="#140F11" d="M248 204h4v4h-4z"/><path fill="#0D0508" d="M252 204h4v4h-4z"/><path fill="#38262D" d="M92 208h4v4h-4z"/><path fill="#693444" d="M96 208h4v4h-4zM100 208h4v4h-4z"/><path fill="#38262D" d="M104 208h4v4h-4z"/><path fill="#30131D" d="M108 208h4v4h-4z"/><path fill="#0D0508" d="M112 208h4v4h-4z"/><path fill="#472534" d="M116 208h4v4h-4z"/><path fill="#30131D" d="M120 208h4v4h-4z"/><path fill="#3B1101" d="M124 208h4v4h-4z"/><path fill="#0D0508" d="M128 208h4v4h-4zM132 208h4v4h-4zM136 208h4v4h-4z"/><path fill="#0F090B" d="M140 208h4v4h-4z"/><path fill="#0D0508" d="M144 208h4v4h-4z"/><path fill="#48000D" d="M148 208h4v4h-4z"/><path fill="#880018" d="M152 208h4v4h-4z"/><path fill="#48000D" d="M156 208h4v4h-4z"/><path fill="#30131D" d="M160 208h4v4h-4zM164 208h4v4h-4z"/><path fill="#48000D" d="M168 208h4v4h-4z"/><path fill="#880018" d="M172 208h4v4h-4z"/><path fill="#38262D" d="M176 208h4v4h-4z"/><path fill="#30131D" d="M180 208h4v4h-4zM184 208h4v4h-4zM188 208h4v4h-4z"/><path fill="#F36725" d="M192 208h4v4h-4z"/><path fill="#FF8E45" d="M196 208h4v4h-4zM200 208h4v4h-4z"/><path fill="#C56786" d="M204 208h4v4h-4z"/><path fill="#48000D" d="M208 208h4v4h-4zM212 208h4v4h-4zM216 208h4v4h-4z"/><path d="M220 208h4v4h-4z"/><path fill="#48000D" d="M224 208h4v4h-4z"/><path fill="#880018" d="M228 208h4v4h-4z"/><path fill="#0D0508" d="M232 208h4v4h-4zM236 208h4v4h-4z"/><path fill="#3B1101" d="M240 208h4v4h-4z"/><path fill="#974013" d="M244 208h4v4h-4z"/><path fill="#0F090B" d="M248 208h4v4h-4z"/><path fill="#0D0508" d="M252 208h4v4h-4z"/><path fill="#693444" d="M92 212h4v4h-4zM96 212h4v4h-4zM100 212h4v4h-4zM104 212h4v4h-4z"/><path fill="#38262D" d="M108 212h4v4h-4z"/><path fill="#30131D" d="M112 212h4v4h-4z"/><path fill="#0D0508" d="M116 212h4v4h-4z"/><path fill="#30131D" d="M120 212h4v4h-4z"/><path fill="#3B1101" d="M124 212h4v4h-4z"/><path fill="#0D0508" d="M128 212h4v4h-4zM132 212h4v4h-4zM136 212h4v4h-4zM140 212h4v4h-4zM144 212h4v4h-4z"/><path fill="#48000D" d="M148 212h4v4h-4z"/><path fill="#880018" d="M152 212h4v4h-4z"/><path fill="#48000D" d="M156 212h4v4h-4z"/><path fill="#30131D" d="M160 212h4v4h-4zM164 212h4v4h-4z"/><path fill="#48000D" d="M168 212h4v4h-4zM172 212h4v4h-4z"/><path fill="#30131D" d="M176 212h4v4h-4zM180 212h4v4h-4zM184 212h4v4h-4zM188 212h4v4h-4z"/><path fill="#F36725" d="M192 212h4v4h-4z"/><path fill="#FFCE83" d="M196 212h4v4h-4z"/><path fill="#FF8E45" d="M200 212h4v4h-4z"/><path fill="#C56786" d="M204 212h4v4h-4zM208 212h4v4h-4z"/><path fill="#880018" d="M212 212h4v4h-4zM216 212h4v4h-4z"/><path fill="#48000D" d="M220 212h4v4h-4z"/><path fill="#0D0508" d="M224 212h4v4h-4z"/><path fill="#48000D" d="M228 212h4v4h-4zM232 212h4v4h-4z"/><path fill="#0D0508" d="M236 212h4v4h-4z"/><path fill="#3B1101" d="M240 212h4v4h-4z"/><path fill="#693444" d="M244 212h4v4h-4z"/><path fill="#141012" d="M248 212h4v4h-4z"/><path fill="#0D0508" d="M252 212h4v4h-4z"/><path fill="#693444" d="M92 216h4v4h-4zM96 216h4v4h-4zM100 216h4v4h-4zM104 216h4v4h-4z"/><path fill="#381823" d="M108 216h4v4h-4z"/><path fill="#30141E" d="M112 216h4v4h-4z"/><path fill="#0D0508" d="M116 216h4v4h-4zM120 216h4v4h-4z"/><path fill="#260B04" d="M124 216h4v4h-4z"/><path fill="#9B2E05" d="M128 216h4v4h-4z"/><path fill="#0D0508" d="M132 216h4v4h-4zM136 216h4v4h-4zM140 216h4v4h-4zM144 216h4v4h-4z"/><path fill="#48000D" d="M148 216h4v4h-4z"/><path fill="#880018" d="M152 216h4v4h-4z"/><path fill="#30131D" d="M156 216h4v4h-4zM160 216h4v4h-4z"/><path fill="#48000D" d="M164 216h4v4h-4z"/><path fill="#880018" d="M168 216h4v4h-4z"/><path fill="#30131D" d="M172 216h4v4h-4zM176 216h4v4h-4z"/><path fill="#0F090B" d="M180 216h4v4h-4z"/><path fill="#30131D" d="M184 216h4v4h-4zM188 216h4v4h-4z"/><path fill="#F36725" d="M192 216h4v4h-4z"/><path fill="#FFCE83" d="M196 216h4v4h-4z"/><path fill="#FF8E45" d="M200 216h4v4h-4z"/><path fill="#C56786" d="M204 216h4v4h-4zM208 216h4v4h-4z"/><path fill="#48000D" d="M212 216h4v4h-4zM216 216h4v4h-4z"/><path fill="#880018" d="M220 216h4v4h-4z"/><path fill="#48000D" d="M224 216h4v4h-4zM228 216h4v4h-4zM232 216h4v4h-4z"/><path fill="#0D0508" d="M236 216h4v4h-4z"/><path fill="#3B1101" d="M240 216h4v4h-4z"/><path fill="#693444" d="M244 216h4v4h-4z"/><path fill="#30131D" d="M248 216h4v4h-4z"/><path fill="#0D0508" d="M252 216h4v4h-4z"/><path fill="#693444" d="M92 220h4v4h-4zM96 220h4v4h-4zM100 220h4v4h-4z"/><path fill="#584047" d="M104 220h4v4h-4z"/><path fill="#30131D" d="M108 220h4v4h-4z"/><path fill="#0F090B" d="M112 220h4v4h-4z"/><path fill="#0D0609" d="M116 220h4v4h-4z"/><path fill="#0D0508" d="M120 220h4v4h-4z"/><path fill="#0D0609" d="M124 220h4v4h-4z"/><path fill="#9B2E05" d="M128 220h4v4h-4z"/><path fill="#0D0508" d="M132 220h4v4h-4zM136 220h4v4h-4zM140 220h4v4h-4zM144 220h4v4h-4z"/><path fill="#880018" d="M148 220h4v4h-4z"/><path fill="#48000D" d="M152 220h4v4h-4z"/><path fill="#0D0508" d="M156 220h4v4h-4z"/><path fill="#48000D" d="M160 220h4v4h-4zM164 220h4v4h-4z"/><path fill="#880018" d="M168 220h4v4h-4z"/><path fill="#30131D" d="M172 220h4v4h-4zM176 220h4v4h-4zM180 220h4v4h-4z"/><path fill="#0F090B" d="M184 220h4v4h-4z"/><path fill="#30131D" d="M188 220h4v4h-4z"/><path fill="#F36725" d="M192 220h4v4h-4z"/><path fill="#FFCE83" d="M196 220h4v4h-4z"/><path fill="#FF8E45" d="M200 220h4v4h-4z"/><path fill="#C56786" d="M204 220h4v4h-4zM208 220h4v4h-4z"/><path fill="#0D0508" d="M212 220h4v4h-4z"/><path fill="#0F090B" d="M216 220h4v4h-4z"/><path fill="#48000D" d="M220 220h4v4h-4z"/><path fill="#880018" d="M224 220h4v4h-4z"/><path fill="#48000D" d="M228 220h4v4h-4z"/><path fill="#880018" d="M232 220h4v4h-4z"/><path fill="#0D0508" d="M236 220h4v4h-4z"/><path fill="#3B1101" d="M240 220h4v4h-4z"/><path fill="#693444" d="M244 220h4v4h-4z"/><path fill="#30131D" d="M248 220h4v4h-4z"/><path fill="#0D0508" d="M252 220h4v4h-4z"/><path fill="#693444" d="M92 224h4v4h-4zM96 224h4v4h-4zM100 224h4v4h-4z"/><path fill="#584047" d="M104 224h4v4h-4z"/><path fill="#30131D" d="M108 224h4v4h-4z"/><path fill="#0F090B" d="M112 224h4v4h-4zM116 224h4v4h-4z"/><path fill="#0D0508" d="M120 224h4v4h-4z"/><path fill="#0D0609" d="M124 224h4v4h-4z"/><path fill="#E11000" d="M128 224h4v4h-4z"/><path fill="#0D0508" d="M132 224h4v4h-4zM136 224h4v4h-4zM140 224h4v4h-4z"/><path fill="#30131D" d="M144 224h4v4h-4z"/><path fill="#880018" d="M148 224h4v4h-4z"/><path fill="#48000D" d="M152 224h4v4h-4zM156 224h4v4h-4zM160 224h4v4h-4z"/><path fill="#880018" d="M164 224h4v4h-4z"/><path fill="#30131D" d="M168 224h4v4h-4zM172 224h4v4h-4zM176 224h4v4h-4zM180 224h4v4h-4z"/><path fill="#0F090B" d="M184 224h4v4h-4z"/><path fill="#30131D" d="M188 224h4v4h-4z"/><path fill="#F36725" d="M192 224h4v4h-4z"/><path fill="#FFCE83" d="M196 224h4v4h-4z"/><path fill="#FF8E45" d="M200 224h4v4h-4z"/><path fill="#C56786" d="M204 224h4v4h-4zM208 224h4v4h-4z"/><path fill="#0D0508" d="M212 224h4v4h-4zM216 224h4v4h-4zM220 224h4v4h-4z"/><path fill="#48000D" d="M224 224h4v4h-4z"/><path fill="#880018" d="M228 224h4v4h-4zM232 224h4v4h-4z"/><path fill="#48000D" d="M236 224h4v4h-4z"/><path fill="#5E1E02" d="M240 224h4v4h-4z"/><path fill="#693444" d="M244 224h4v4h-4z"/><path fill="#0F090B" d="M248 224h4v4h-4z"/><path d="M252 224h4v4h-4z"/><path fill="#0D0508" d="M256 224h4v4h-4z"/><path fill="#584047" d="M92 228h4v4h-4z"/><path fill="#693444" d="M96 228h4v4h-4z"/><path fill="#584047" d="M100 228h4v4h-4zM104 228h4v4h-4z"/><path fill="#30131D" d="M108 228h4v4h-4z"/><path fill="#0F090B" d="M112 228h4v4h-4zM116 228h4v4h-4z"/><path d="M120 228h4v4h-4z"/><path fill="#0D0609" d="M124 228h4v4h-4z"/><path fill="#0D0508" d="M128 228h4v4h-4z"/><path fill="#9B2E05" d="M132 228h4v4h-4z"/><path fill="#0D0508" d="M136 228h4v4h-4z"/><path fill="#0F090B" d="M140 228h4v4h-4z"/><path fill="#48000D" d="M144 228h4v4h-4z"/><path fill="#880018" d="M148 228h4v4h-4z"/><path fill="#48000D" d="M152 228h4v4h-4zM156 228h4v4h-4z"/><path fill="#880018" d="M160 228h4v4h-4z"/><path fill="#30131D" d="M164 228h4v4h-4z"/><path fill="#0D0508" d="M168 228h4v4h-4zM172 228h4v4h-4z"/><path fill="#30131D" d="M176 228h4v4h-4zM180 228h4v4h-4z"/><path fill="#0F090B" d="M184 228h4v4h-4z"/><path fill="#30131D" d="M188 228h4v4h-4z"/><path fill="#F36725" d="M192 228h4v4h-4z"/><path fill="#FFCE83" d="M196 228h4v4h-4z"/><path fill="#FF8E45" d="M200 228h4v4h-4z"/><path fill="#C56786" d="M204 228h4v4h-4zM208 228h4v4h-4z"/><path fill="#0D0508" d="M212 228h4v4h-4zM216 228h4v4h-4zM220 228h4v4h-4zM224 228h4v4h-4z"/><path fill="#48000D" d="M228 228h4v4h-4z"/><path fill="#880018" d="M232 228h4v4h-4z"/><path fill="#48000D" d="M236 228h4v4h-4z"/><path fill="#3B1101" d="M240 228h4v4h-4z"/><path fill="#693444" d="M244 228h4v4h-4z"/><path fill="#0F0C0D" d="M248 228h4v4h-4z"/><path fill="#0D0508" d="M252 228h4v4h-4z"/><path d="M256 228h4v4h-4z"/><path fill="#584047" d="M92 232h4v4h-4z"/><path fill="#38262D" d="M96 232h4v4h-4z"/><path fill="#584047" d="M100 232h4v4h-4zM104 232h4v4h-4z"/><path fill="#30131D" d="M108 232h4v4h-4z"/><path fill="#0D0508" d="M112 232h4v4h-4z"/><path fill="#0D0609" d="M116 232h4v4h-4z"/><path d="M120 232h4v4h-4z"/><path fill="#0D0609" d="M124 232h4v4h-4z"/><path fill="#0D0508" d="M128 232h4v4h-4z"/><path fill="#9B2E05" d="M132 232h4v4h-4z"/><path fill="#0D0508" d="M136 232h4v4h-4zM140 232h4v4h-4z"/><path fill="#48000D" d="M144 232h4v4h-4zM148 232h4v4h-4zM152 232h4v4h-4z"/><path fill="#880018" d="M156 232h4v4h-4z"/><path fill="#48000D" d="M160 232h4v4h-4z"/><path fill="#0F090B" d="M164 232h4v4h-4z"/><path fill="#0D0508" d="M168 232h4v4h-4zM172 232h4v4h-4zM176 232h4v4h-4z"/><path fill="#0F090B" d="M180 232h4v4h-4z"/><path fill="#0D0508" d="M184 232h4v4h-4z"/><path fill="#30131D" d="M188 232h4v4h-4z"/><path fill="#F36725" d="M192 232h4v4h-4z"/><path fill="#FFCE83" d="M196 232h4v4h-4z"/><path fill="#FF8E45" d="M200 232h4v4h-4z"/><path fill="#C56786" d="M204 232h4v4h-4zM208 232h4v4h-4z"/><path fill="#0D0508" d="M212 232h4v4h-4zM216 232h4v4h-4zM220 232h4v4h-4zM224 232h4v4h-4zM228 232h4v4h-4z"/><path fill="#48000D" d="M232 232h4v4h-4zM236 232h4v4h-4z"/><path d="M240 232h4v4h-4z"/><path fill="#0F090B" d="M244 232h4v4h-4z"/><path fill="#0D0508" d="M248 232h4v4h-4z"/><path d="M252 232h4v4h-4zM256 232h4v4h-4z"/><path fill="#584047" d="M92 236h4v4h-4z"/><path fill="#38262D" d="M96 236h4v4h-4zM100 236h4v4h-4z"/><path fill="#584047" d="M104 236h4v4h-4z"/><path fill="#30131D" d="M108 236h4v4h-4z"/><path fill="#0D0508" d="M112 236h4v4h-4zM116 236h4v4h-4z"/><path d="M120 236h4v4h-4z"/><path fill="#0D0609" d="M124 236h4v4h-4zM128 236h4v4h-4z"/><path fill="#E11000" d="M132 236h4v4h-4z"/><path fill="#30131D" d="M136 236h4v4h-4z"/><path fill="#0D0508" d="M140 236h4v4h-4z"/><path fill="#48000D" d="M144 236h4v4h-4zM148 236h4v4h-4zM152 236h4v4h-4z"/><path fill="#880018" d="M156 236h4v4h-4z"/><path d="M160 236h4v4h-4z"/><path fill="#0F090B" d="M164 236h4v4h-4zM168 236h4v4h-4z"/><path fill="#0D0508" d="M172 236h4v4h-4zM176 236h4v4h-4zM180 236h4v4h-4zM184 236h4v4h-4z"/><path fill="#30131D" d="M188 236h4v4h-4z"/><path fill="#F36725" d="M192 236h4v4h-4z"/><path fill="#FFCE83" d="M196 236h4v4h-4zM200 236h4v4h-4z"/><path fill="#C56786" d="M204 236h4v4h-4zM208 236h4v4h-4z"/><path fill="#0D0508" d="M212 236h4v4h-4zM216 236h4v4h-4zM220 236h4v4h-4z"/><path d="M224 236h4v4h-4z"/><path fill="#0D0508" d="M228 236h4v4h-4z"/><path fill="#48000D" d="M232 236h4v4h-4zM236 236h4v4h-4z"/><path fill="#0F090B" d="M240 236h4v4h-4z"/><path fill="#0D0508" d="M244 236h4v4h-4zM248 236h4v4h-4zM252 236h4v4h-4z"/><path d="M256 236h4v4h-4zM260 236h4v4h-4z"/><path fill="#584047" d="M92 240h4v4h-4z"/><path fill="#38262D" d="M96 240h4v4h-4zM100 240h4v4h-4z"/><path fill="#584047" d="M104 240h4v4h-4z"/><path fill="#30131D" d="M108 240h4v4h-4z"/><path fill="#0D0508" d="M112 240h4v4h-4zM116 240h4v4h-4z"/><path d="M120 240h4v4h-4zM124 240h4v4h-4z"/><path fill="#0D0609" d="M128 240h4v4h-4z"/><path fill="#E11000" d="M132 240h4v4h-4z"/><path fill="#0D0508" d="M136 240h4v4h-4z"/><path fill="#48000D" d="M140 240h4v4h-4zM144 240h4v4h-4zM148 240h4v4h-4z"/><path fill="#880018" d="M152 240h4v4h-4z"/><path fill="#0D0508" d="M156 240h4v4h-4zM160 240h4v4h-4z"/><path fill="#0D0609" d="M164 240h4v4h-4z"/><path fill="#0F090B" d="M168 240h4v4h-4zM172 240h4v4h-4z"/><path fill="#0D0508" d="M176 240h4v4h-4zM180 240h4v4h-4zM184 240h4v4h-4zM188 240h4v4h-4z"/><path fill="#F36725" d="M192 240h4v4h-4z"/><path fill="#FFCE83" d="M196 240h4v4h-4zM200 240h4v4h-4z"/><path fill="#C56786" d="M204 240h4v4h-4zM208 240h4v4h-4z"/><path fill="#0F090B" d="M212 240h4v4h-4z"/><path fill="#0D0508" d="M216 240h4v4h-4z"/><path fill="#0F090B" d="M220 240h4v4h-4z"/><path d="M224 240h4v4h-4z"/><path fill="#0D0508" d="M228 240h4v4h-4z"/><path fill="#0F090B" d="M232 240h4v4h-4z"/><path fill="#48000D" d="M236 240h4v4h-4z"/><path d="M240 240h4v4h-4z"/><path fill="#0D0508" d="M244 240h4v4h-4zM248 240h4v4h-4zM252 240h4v4h-4zM256 240h4v4h-4z"/><path d="M260 240h4v4h-4zM264 240h4v4h-4z"/><path fill="#38262D" d="M92 244h4v4h-4zM96 244h4v4h-4zM100 244h4v4h-4z"/><path fill="#30131D" d="M104 244h4v4h-4zM108 244h4v4h-4zM112 244h4v4h-4z"/><path fill="#0D0508" d="M116 244h4v4h-4z"/><path fill="#0D0609" d="M120 244h4v4h-4z"/><path d="M124 244h4v4h-4zM128 244h4v4h-4z"/><path fill="#E11000" d="M132 244h4v4h-4z"/><path fill="#0F090B" d="M136 244h4v4h-4z"/><path fill="#48000D" d="M140 244h4v4h-4zM144 244h4v4h-4z"/><path fill="#880018" d="M148 244h4v4h-4z"/><path fill="#0D0609" d="M152 244h4v4h-4zM156 244h4v4h-4z"/><path fill="#0D0508" d="M160 244h4v4h-4zM164 244h4v4h-4z"/><path fill="#0D0609" d="M168 244h4v4h-4z"/><path fill="#0F090B" d="M172 244h4v4h-4z"/><path fill="#0D0508" d="M176 244h4v4h-4zM180 244h4v4h-4z"/><path d="M184 244h4v4h-4zM188 244h4v4h-4z"/><path fill="#F36725" d="M192 244h4v4h-4z"/><path fill="#FFCE83" d="M196 244h4v4h-4zM200 244h4v4h-4z"/><path fill="#C56786" d="M204 244h4v4h-4zM208 244h4v4h-4z"/><path fill="#0D0508" d="M212 244h4v4h-4z"/><path fill="#0F090B" d="M216 244h4v4h-4z"/><path fill="#0D0508" d="M220 244h4v4h-4zM224 244h4v4h-4z"/><path d="M228 244h4v4h-4zM232 244h4v4h-4zM236 244h4v4h-4zM240 244h4v4h-4z"/><path fill="#0D0508" d="M244 244h4v4h-4zM248 244h4v4h-4zM252 244h4v4h-4zM256 244h4v4h-4z"/><path d="M260 244h4v4h-4zM264 244h4v4h-4z"/><path fill="#0F090B" d="M268 244h4v4h-4z"/><path fill="#693444" d="M84 248h4v4h-4zM88 248h4v4h-4zM92 248h4v4h-4zM96 248h4v4h-4zM100 248h4v4h-4zM104 248h4v4h-4z"/><path fill="#30131D" d="M108 248h4v4h-4zM112 248h4v4h-4zM116 248h4v4h-4z"/><path fill="#0D0508" d="M120 248h4v4h-4zM124 248h4v4h-4zM128 248h4v4h-4z"/><path fill="#E11000" d="M132 248h4v4h-4z"/><path fill="#0D0609" d="M136 248h4v4h-4z"/><path d="M140 248h4v4h-4z"/><path fill="#48000D" d="M144 248h4v4h-4z"/><path d="M148 248h4v4h-4zM152 248h4v4h-4zM156 248h4v4h-4z"/><path fill="#0D0609" d="M160 248h4v4h-4z"/><path fill="#0D0508" d="M164 248h4v4h-4zM168 248h4v4h-4z"/><path fill="#0F090B" d="M172 248h4v4h-4zM176 248h4v4h-4z"/><path fill="#0D0508" d="M180 248h4v4h-4zM184 248h4v4h-4z"/><path d="M188 248h4v4h-4z"/><path fill="#3D170C" d="M192 248h4v4h-4z"/><path fill="#FFCE83" d="M196 248h4v4h-4zM200 248h4v4h-4z"/><path fill="#C56786" d="M204 248h4v4h-4zM208 248h4v4h-4z"/><path d="M212 248h4v4h-4zM216 248h4v4h-4z"/><path fill="#0D0508" d="M220 248h4v4h-4zM224 248h4v4h-4z"/><path d="M228 248h4v4h-4z"/><path fill="#0D0508" d="M232 248h4v4h-4z"/><path d="M236 248h4v4h-4zM240 248h4v4h-4z"/><path fill="#0D0508" d="M244 248h4v4h-4zM248 248h4v4h-4zM252 248h4v4h-4zM256 248h4v4h-4z"/><path d="M260 248h4v4h-4zM264 248h4v4h-4z"/><path fill="#0D0508" d="M268 248h4v4h-4z"/><path fill="#584047" d="M84 252h4v4h-4zM88 252h4v4h-4zM92 252h4v4h-4zM96 252h4v4h-4zM100 252h4v4h-4zM104 252h4v4h-4z"/><path fill="#30131D" d="M108 252h4v4h-4zM112 252h4v4h-4zM116 252h4v4h-4z"/><path fill="#0D0508" d="M120 252h4v4h-4zM124 252h4v4h-4zM128 252h4v4h-4z"/><path fill="#3B1104" d="M132 252h4v4h-4z"/><path fill="#0D0609" d="M136 252h4v4h-4zM140 252h4v4h-4z"/><path d="M144 252h4v4h-4zM148 252h4v4h-4zM152 252h4v4h-4zM156 252h4v4h-4zM160 252h4v4h-4z"/><path fill="#0D0508" d="M164 252h4v4h-4zM168 252h4v4h-4z"/><path fill="#0F090B" d="M172 252h4v4h-4z"/><path fill="#0D0508" d="M176 252h4v4h-4zM180 252h4v4h-4zM184 252h4v4h-4z"/><path d="M188 252h4v4h-4z"/><path fill="#30131D" d="M192 252h4v4h-4z"/><path fill="#0D0508" d="M196 252h4v4h-4z"/><path fill="#FFCE83" d="M200 252h4v4h-4z"/><path fill="#C56786" d="M204 252h4v4h-4zM208 252h4v4h-4z"/><path d="M212 252h4v4h-4z"/><path fill="#0D0508" d="M216 252h4v4h-4zM220 252h4v4h-4zM224 252h4v4h-4zM228 252h4v4h-4z"/><path d="M232 252h4v4h-4zM236 252h4v4h-4z"/><path fill="#0D0508" d="M240 252h4v4h-4zM244 252h4v4h-4zM248 252h4v4h-4zM252 252h4v4h-4zM256 252h4v4h-4z"/><path d="M260 252h4v4h-4zM264 252h4v4h-4z"/><path fill="#693444" d="M80 256h4v4h-4zM84 256h4v4h-4zM88 256h4v4h-4zM92 256h4v4h-4zM96 256h4v4h-4zM100 256h4v4h-4z"/><path fill="#30131D" d="M104 256h4v4h-4zM108 256h4v4h-4zM112 256h4v4h-4zM116 256h4v4h-4z"/><path fill="#0D0508" d="M120 256h4v4h-4zM124 256h4v4h-4zM128 256h4v4h-4z"/><path fill="#3B1101" d="M132 256h4v4h-4z"/><path fill="#0D0508" d="M136 256h4v4h-4z"/><path d="M140 256h4v4h-4zM144 256h4v4h-4zM148 256h4v4h-4zM152 256h4v4h-4zM156 256h4v4h-4z"/><path fill="#0D0609" d="M160 256h4v4h-4zM164 256h4v4h-4z"/><path fill="#0F090B" d="M168 256h4v4h-4zM172 256h4v4h-4z"/><path fill="#0D0609" d="M176 256h4v4h-4zM180 256h4v4h-4zM184 256h4v4h-4z"/><path d="M188 256h4v4h-4z"/><path fill="#0D0508" d="M192 256h4v4h-4z"/><path fill="#FFCE83" d="M196 256h4v4h-4zM200 256h4v4h-4z"/><path fill="#0F090B" d="M204 256h4v4h-4z"/><path fill="#C56786" d="M208 256h4v4h-4z"/><path d="M212 256h4v4h-4z"/><path fill="#0D0508" d="M216 256h4v4h-4zM220 256h4v4h-4zM224 256h4v4h-4z"/><path fill="#0F090B" d="M228 256h4v4h-4z"/><path fill="#0D0508" d="M232 256h4v4h-4z"/><path d="M236 256h4v4h-4z"/><path fill="#0D0508" d="M240 256h4v4h-4zM244 256h4v4h-4zM248 256h4v4h-4zM252 256h4v4h-4zM256 256h4v4h-4z"/><path d="M260 256h4v4h-4z"/><path fill="#693444" d="M80 260h4v4h-4zM84 260h4v4h-4zM88 260h4v4h-4zM92 260h4v4h-4zM96 260h4v4h-4z"/><path fill="#30131D" d="M100 260h4v4h-4zM104 260h4v4h-4zM108 260h4v4h-4zM112 260h4v4h-4zM116 260h4v4h-4z"/><path fill="#0D0508" d="M120 260h4v4h-4zM124 260h4v4h-4zM128 260h4v4h-4z"/><path fill="#3B1104" d="M132 260h4v4h-4z"/><path fill="#0D0609" d="M136 260h4v4h-4zM140 260h4v4h-4zM144 260h4v4h-4zM148 260h4v4h-4zM152 260h4v4h-4zM156 260h4v4h-4zM160 260h4v4h-4zM164 260h4v4h-4zM168 260h4v4h-4z"/><path d="M172 260h4v4h-4zM176 260h4v4h-4zM180 260h4v4h-4zM184 260h4v4h-4zM188 260h4v4h-4z"/><path fill="#0D0508" d="M192 260h4v4h-4z"/><path fill="#FFCE83" d="M196 260h4v4h-4zM200 260h4v4h-4z"/><path fill="#0F090B" d="M204 260h4v4h-4z"/><path fill="#C56786" d="M208 260h4v4h-4z"/><path d="M212 260h4v4h-4z"/><path fill="#0D0508" d="M216 260h4v4h-4zM220 260h4v4h-4zM224 260h4v4h-4z"/><path fill="#0F090B" d="M228 260h4v4h-4z"/><path fill="#0D0508" d="M232 260h4v4h-4z"/><path d="M236 260h4v4h-4z"/><path fill="#0D0508" d="M240 260h4v4h-4zM244 260h4v4h-4zM248 260h4v4h-4zM252 260h4v4h-4zM256 260h4v4h-4z"/><path d="M260 260h4v4h-4z"/><path fill="#693444" d="M80 264h4v4h-4zM84 264h4v4h-4z"/><path fill="#30131D" d="M88 264h4v4h-4z"/><path fill="#693444" d="M92 264h4v4h-4zM96 264h4v4h-4z"/><path fill="#30131D" d="M100 264h4v4h-4zM104 264h4v4h-4zM108 264h4v4h-4zM112 264h4v4h-4z"/><path fill="#0D0508" d="M116 264h4v4h-4zM120 264h4v4h-4zM124 264h4v4h-4zM128 264h4v4h-4z"/><path fill="#3B1101" d="M132 264h4v4h-4z"/><path fill="#0D0508" d="M136 264h4v4h-4z"/><path fill="#0D080A" d="M140 264h4v4h-4zM144 264h4v4h-4zM148 264h4v4h-4zM152 264h4v4h-4zM156 264h4v4h-4z"/><path d="M160 264h4v4h-4zM164 264h4v4h-4zM168 264h4v4h-4zM172 264h4v4h-4zM176 264h4v4h-4zM180 264h4v4h-4zM184 264h4v4h-4zM188 264h4v4h-4z"/><path fill="#0F090B" d="M192 264h4v4h-4zM196 264h4v4h-4zM200 264h4v4h-4zM204 264h4v4h-4z"/><path fill="#C56786" d="M208 264h4v4h-4z"/><path d="M212 264h4v4h-4z"/><path fill="#0D0508" d="M216 264h4v4h-4zM220 264h4v4h-4zM224 264h4v4h-4zM228 264h4v4h-4zM232 264h4v4h-4zM236 264h4v4h-4zM240 264h4v4h-4zM244 264h4v4h-4zM248 264h4v4h-4zM252 264h4v4h-4z"/><path fill="#0F090B" d="M256 264h4v4h-4z"/><path fill="#693444" d="M80 268h4v4h-4z"/><path fill="#30131D" d="M84 268h4v4h-4z"/><path fill="#693444" d="M88 268h4v4h-4z"/><path fill="#30131D" d="M92 268h4v4h-4z"/><path fill="#693444" d="M96 268h4v4h-4z"/><path fill="#30131D" d="M100 268h4v4h-4zM104 268h4v4h-4zM108 268h4v4h-4z"/><path fill="#0D0508" d="M112 268h4v4h-4z"/><path fill="#30131D" d="M116 268h4v4h-4z"/><path fill="#0D0508" d="M120 268h4v4h-4zM124 268h4v4h-4zM128 268h4v4h-4zM132 268h4v4h-4zM136 268h4v4h-4z"/><path fill="#0D080A" d="M140 268h4v4h-4zM144 268h4v4h-4zM148 268h4v4h-4zM152 268h4v4h-4zM156 268h4v4h-4z"/><path d="M160 268h4v4h-4zM164 268h4v4h-4zM168 268h4v4h-4zM172 268h4v4h-4zM176 268h4v4h-4zM180 268h4v4h-4zM184 268h4v4h-4zM188 268h4v4h-4z"/><path fill="#0F090B" d="M192 268h4v4h-4zM196 268h4v4h-4zM200 268h4v4h-4zM204 268h4v4h-4z"/><path fill="#C56786" d="M208 268h4v4h-4z"/><path d="M212 268h4v4h-4z"/><path fill="#0D0508" d="M216 268h4v4h-4z"/><path fill="#0F090B" d="M220 268h4v4h-4zM224 268h4v4h-4z"/><path d="M228 268h4v4h-4z"/><path fill="#0D0508" d="M232 268h4v4h-4zM236 268h4v4h-4zM240 268h4v4h-4zM244 268h4v4h-4z"/><path fill="#0F090B" d="M248 268h4v4h-4zM252 268h4v4h-4z"/><path fill="#30131D" d="M80 272h4v4h-4z"/><path fill="#693444" d="M84 272h4v4h-4zM88 272h4v4h-4zM92 272h4v4h-4z"/><path fill="#30131D" d="M96 272h4v4h-4zM100 272h4v4h-4zM104 272h4v4h-4zM108 272h4v4h-4z"/><path fill="#0D0508" d="M112 272h4v4h-4z"/><path fill="#30131D" d="M116 272h4v4h-4z"/><path fill="#0D0508" d="M120 272h4v4h-4zM124 272h4v4h-4zM128 272h4v4h-4z"/><path fill="#0D0609" d="M132 272h4v4h-4zM136 272h4v4h-4z"/><path fill="#030102" d="M140 272h4v4h-4zM144 272h4v4h-4z"/><path fill="#030202" d="M148 272h4v4h-4zM152 272h4v4h-4zM156 272h4v4h-4zM160 272h4v4h-4zM164 272h4v4h-4z"/><path d="M168 272h4v4h-4zM172 272h4v4h-4zM176 272h4v4h-4z"/><path fill="#0D0609" d="M180 272h4v4h-4z"/><path d="M184 272h4v4h-4zM188 272h4v4h-4z"/><path fill="#0D0609" d="M192 272h4v4h-4z"/><path fill="#0F090B" d="M196 272h4v4h-4zM200 272h4v4h-4zM204 272h4v4h-4z"/><path fill="#0D0508" d="M208 272h4v4h-4z"/><path fill="#0F090B" d="M212 272h4v4h-4z"/><path fill="#0D0508" d="M216 272h4v4h-4z"/><path d="M220 272h4v4h-4zM224 272h4v4h-4z"/><path fill="#0F090B" d="M228 272h4v4h-4z"/><path fill="#0D0508" d="M232 272h4v4h-4zM236 272h4v4h-4zM240 272h4v4h-4z"/><path fill="#693444" d="M80 276h4v4h-4z"/><path fill="#584047" d="M84 276h4v4h-4z"/><path fill="#693444" d="M88 276h4v4h-4zM92 276h4v4h-4zM96 276h4v4h-4z"/><path fill="#30131D" d="M100 276h4v4h-4zM104 276h4v4h-4zM108 276h4v4h-4z"/><path fill="#0D0508" d="M112 276h4v4h-4z"/><path fill="#30131D" d="M116 276h4v4h-4zM120 276h4v4h-4zM124 276h4v4h-4z"/><path fill="#0D0508" d="M128 276h4v4h-4z"/><path d="M132 276h4v4h-4zM136 276h4v4h-4zM140 276h4v4h-4zM144 276h4v4h-4zM148 276h4v4h-4zM152 276h4v4h-4zM156 276h4v4h-4z"/><path fill="#030203" d="M160 276h4v4h-4zM164 276h4v4h-4z"/><path d="M168 276h4v4h-4zM172 276h4v4h-4zM176 276h4v4h-4z"/><path fill="#0D0609" d="M180 276h4v4h-4z"/><path d="M184 276h4v4h-4zM188 276h4v4h-4z"/><path fill="#0D0609" d="M192 276h4v4h-4z"/><path fill="#0F090B" d="M196 276h4v4h-4zM200 276h4v4h-4zM204 276h4v4h-4z"/><path fill="#0D0508" d="M208 276h4v4h-4z"/><path fill="#0F090B" d="M212 276h4v4h-4z"/><path fill="#0D0508" d="M216 276h4v4h-4z"/><path d="M220 276h4v4h-4zM224 276h4v4h-4z"/><path fill="#0F090B" d="M228 276h4v4h-4z"/><path fill="#0D0508" d="M232 276h4v4h-4zM236 276h4v4h-4zM240 276h4v4h-4z"/><path fill="#584047" d="M80 280h4v4h-4zM84 280h4v4h-4zM88 280h4v4h-4z"/><path fill="#693444" d="M92 280h4v4h-4zM96 280h4v4h-4z"/><path fill="#30131D" d="M100 280h4v4h-4zM104 280h4v4h-4zM108 280h4v4h-4z"/><path fill="#0D0508" d="M112 280h4v4h-4z"/><path fill="#30131D" d="M116 280h4v4h-4zM120 280h4v4h-4z"/><path fill="#0D0508" d="M124 280h4v4h-4z"/><path fill="#30131D" d="M128 280h4v4h-4z"/><path d="M136 280h4v4h-4zM140 280h4v4h-4zM144 280h4v4h-4zM148 280h4v4h-4zM152 280h4v4h-4zM156 280h4v4h-4zM160 280h4v4h-4zM164 280h4v4h-4zM168 280h4v4h-4zM172 280h4v4h-4zM176 280h4v4h-4z"/><path fill="#0D0609" d="M180 280h4v4h-4z"/><path d="M184 280h4v4h-4zM188 280h4v4h-4z"/><path fill="#0D0609" d="M192 280h4v4h-4z"/><path fill="#0F090B" d="M196 280h4v4h-4zM200 280h4v4h-4zM204 280h4v4h-4z"/><path fill="#0D0508" d="M208 280h4v4h-4zM212 280h4v4h-4z"/><path d="M216 280h4v4h-4zM220 280h4v4h-4zM224 280h4v4h-4z"/><path fill="#0F090B" d="M228 280h4v4h-4z"/><path fill="#584047" d="M76 284h4v4h-4zM80 284h4v4h-4zM84 284h4v4h-4zM88 284h4v4h-4zM92 284h4v4h-4zM96 284h4v4h-4zM100 284h4v4h-4z"/><path fill="#30131D" d="M104 284h4v4h-4zM108 284h4v4h-4zM112 284h4v4h-4z"/><path fill="#0D0508" d="M116 284h4v4h-4zM120 284h4v4h-4z"/><path fill="#30131D" d="M124 284h4v4h-4zM128 284h4v4h-4zM140 284h4v4h-4zM144 284h4v4h-4z"/><path d="M148 284h4v4h-4zM152 284h4v4h-4zM156 284h4v4h-4zM160 284h4v4h-4zM164 284h4v4h-4zM168 284h4v4h-4zM172 284h4v4h-4zM176 284h4v4h-4z"/><path fill="#30131D" d="M80 288h4v4h-4zM84 288h4v4h-4zM88 288h4v4h-4zM92 288h4v4h-4zM96 288h4v4h-4zM100 288h4v4h-4zM104 288h4v4h-4zM108 288h4v4h-4zM112 288h4v4h-4zM116 288h4v4h-4zM120 288h4v4h-4zM124 288h4v4h-4zM128 288h4v4h-4zM132 288h4v4h-4zM136 288h4v4h-4zM140 288h4v4h-4z"/><path d="M168 288h4v4h-4zM172 288h4v4h-4zM176 288h4v4h-4zM280 304h4v4h-4z"/></svg>