<svg width="384" height="384" xmlns="http://www.w3.org/2000/svg" shape-rendering="crispEdges"><path fill="#65400B" d="M132 44h4v4h-4zM136 44h4v4h-4zM140 44h4v4h-4zM144 44h4v4h-4zM148 44h4v4h-4zM152 44h4v4h-4zM156 44h4v4h-4zM160 44h4v4h-4zM164 44h4v4h-4zM168 44h4v4h-4zM172 44h4v4h-4zM176 44h4v4h-4zM180 44h4v4h-4zM184 44h4v4h-4zM188 44h4v4h-4zM116 48h4v4h-4zM120 48h4v4h-4zM124 48h4v4h-4zM128 48h4v4h-4z"/><path fill="#B36810" d="M132 48h4v4h-4z"/><path fill="#BE7C2A" d="M136 48h4v4h-4z"/><path fill="#B36810" d="M140 48h4v4h-4zM144 48h4v4h-4zM148 48h4v4h-4zM152 48h4v4h-4zM156 48h4v4h-4zM160 48h4v4h-4z"/><path fill="#BE7C2A" d="M164 48h4v4h-4zM168 48h4v4h-4zM172 48h4v4h-4zM176 48h4v4h-4z"/><path fill="#B36810" d="M180 48h4v4h-4zM184 48h4v4h-4z"/><path fill="#BE7C2A" d="M188 48h4v4h-4z"/><path fill="#65400B" d="M192 48h4v4h-4zM196 48h4v4h-4zM200 48h4v4h-4zM108 52h4v4h-4zM112 52h4v4h-4z"/><path fill="#BE7C2A" d="M116 52h4v4h-4zM120 52h4v4h-4zM124 52h4v4h-4zM128 52h4v4h-4zM132 52h4v4h-4zM136 52h4v4h-4zM140 52h4v4h-4zM144 52h4v4h-4zM148 52h4v4h-4zM152 52h4v4h-4zM156 52h4v4h-4zM160 52h4v4h-4z"/><path fill="#E69410" d="M164 52h4v4h-4zM168 52h4v4h-4zM172 52h4v4h-4zM176 52h4v4h-4zM180 52h4v4h-4zM184 52h4v4h-4zM188 52h4v4h-4zM192 52h4v4h-4z"/><path fill="#E7A85F" d="M196 52h4v4h-4z"/><path fill="#BE7C2A" d="M200 52h4v4h-4z"/><path fill="#65400B" d="M204 52h4v4h-4zM208 52h4v4h-4zM96 56h4v4h-4zM100 56h4v4h-4zM104 56h4v4h-4z"/><path fill="#BE7C2A" d="M108 56h4v4h-4zM112 56h4v4h-4zM116 56h4v4h-4zM120 56h4v4h-4zM124 56h4v4h-4zM128 56h4v4h-4zM132 56h4v4h-4zM136 56h4v4h-4zM140 56h4v4h-4zM144 56h4v4h-4zM148 56h4v4h-4zM152 56h4v4h-4z"/><path fill="#E69410" d="M156 56h4v4h-4zM160 56h4v4h-4z"/><path fill="#FAC859" d="M164 56h4v4h-4zM168 56h4v4h-4zM172 56h4v4h-4zM176 56h4v4h-4zM180 56h4v4h-4zM184 56h4v4h-4zM188 56h4v4h-4z"/><path fill="#E69410" d="M192 56h4v4h-4z"/><path fill="#FAC859" d="M196 56h4v4h-4zM200 56h4v4h-4z"/><path fill="#BE7C2A" d="M204 56h4v4h-4z"/><path fill="#E69410" d="M208 56h4v4h-4z"/><path fill="#65400B" d="M212 56h4v4h-4zM216 56h4v4h-4zM92 60h4v4h-4z"/><path fill="#E7A85F" d="M96 60h4v4h-4z"/><path fill="#E69410" d="M100 60h4v4h-4z"/><path fill="#BE7C2A" d="M104 60h4v4h-4zM108 60h4v4h-4zM112 60h4v4h-4zM116 60h4v4h-4zM120 60h4v4h-4z"/><path fill="#BD8112" d="M124 60h4v4h-4z"/><path fill="#BE7C2A" d="M128 60h4v4h-4zM132 60h4v4h-4zM136 60h4v4h-4zM140 60h4v4h-4zM144 60h4v4h-4z"/><path fill="#E69410" d="M148 60h4v4h-4zM152 60h4v4h-4z"/><path fill="#FAC859" d="M156 60h4v4h-4zM160 60h4v4h-4zM164 60h4v4h-4zM168 60h4v4h-4zM172 60h4v4h-4zM176 60h4v4h-4zM180 60h4v4h-4zM184 60h4v4h-4zM188 60h4v4h-4zM192 60h4v4h-4z"/><path fill="#BE7C2A" d="M196 60h4v4h-4z"/><path fill="#E69410" d="M200 60h4v4h-4z"/><path fill="#FAC859" d="M204 60h4v4h-4zM208 60h4v4h-4z"/><path fill="#BE7C2A" d="M212 60h4v4h-4z"/><path fill="#E69410" d="M216 60h4v4h-4z"/><path fill="#65400B" d="M220 60h4v4h-4zM84 64h4v4h-4zM88 64h4v4h-4z"/><path fill="#E69410" d="M92 64h4v4h-4zM96 64h4v4h-4z"/><path fill="#BE7C2A" d="M100 64h4v4h-4zM104 64h4v4h-4zM108 64h4v4h-4zM112 64h4v4h-4z"/><path fill="#E69410" d="M116 64h4v4h-4zM120 64h4v4h-4z"/><path fill="#BE7C2A" d="M124 64h4v4h-4z"/><path fill="#E69410" d="M128 64h4v4h-4z"/><path fill="#BE7C2A" d="M132 64h4v4h-4zM136 64h4v4h-4zM140 64h4v4h-4z"/><path fill="#E69410" d="M144 64h4v4h-4zM148 64h4v4h-4z"/><path fill="#FAC859" d="M152 64h4v4h-4z"/><path fill="#E69410" d="M156 64h4v4h-4zM160 64h4v4h-4zM164 64h4v4h-4zM168 64h4v4h-4zM172 64h4v4h-4zM176 64h4v4h-4z"/><path fill="#FAC859" d="M180 64h4v4h-4zM184 64h4v4h-4zM188 64h4v4h-4z"/><path fill="#E69410" d="M192 64h4v4h-4z"/><path fill="#BE7C2A" d="M196 64h4v4h-4zM200 64h4v4h-4z"/><path fill="#FDFD29" d="M204 64h4v4h-4z"/><path fill="#FFF75C" d="M208 64h4v4h-4zM212 64h4v4h-4z"/><path fill="#BE7C2A" d="M216 64h4v4h-4z"/><path fill="#E69410" d="M220 64h4v4h-4z"/><path fill="#65400B" d="M224 64h4v4h-4zM228 64h4v4h-4zM80 68h4v4h-4z"/><path fill="#E69410" d="M84 68h4v4h-4zM88 68h4v4h-4z"/><path fill="#BE7C2A" d="M92 68h4v4h-4zM96 68h4v4h-4zM100 68h4v4h-4zM104 68h4v4h-4z"/><path fill="#E69410" d="M108 68h4v4h-4zM112 68h4v4h-4zM116 68h4v4h-4zM120 68h4v4h-4zM124 68h4v4h-4z"/><path fill="#FEC43E" d="M128 68h4v4h-4zM132 68h4v4h-4zM136 68h4v4h-4zM140 68h4v4h-4z"/><path fill="#E69410" d="M144 68h4v4h-4zM148 68h4v4h-4zM152 68h4v4h-4zM156 68h4v4h-4zM160 68h4v4h-4zM164 68h4v4h-4zM168 68h4v4h-4zM172 68h4v4h-4zM176 68h4v4h-4zM180 68h4v4h-4zM184 68h4v4h-4zM188 68h4v4h-4zM192 68h4v4h-4zM196 68h4v4h-4z"/><path fill="#BE7C2A" d="M200 68h4v4h-4zM204 68h4v4h-4z"/><path fill="#FFF75C" d="M208 68h4v4h-4zM212 68h4v4h-4z"/><path fill="#FAC859" d="M216 68h4v4h-4z"/><path fill="#BE7C2A" d="M220 68h4v4h-4zM224 68h4v4h-4z"/><path fill="#E69410" d="M228 68h4v4h-4z"/><path fill="#65400B" d="M232 68h4v4h-4zM72 72h4v4h-4zM76 72h4v4h-4z"/><path fill="#E69410" d="M80 72h4v4h-4zM84 72h4v4h-4z"/><path fill="#BE7C2A" d="M88 72h4v4h-4zM92 72h4v4h-4zM96 72h4v4h-4zM100 72h4v4h-4z"/><path fill="#E69410" d="M104 72h4v4h-4zM108 72h4v4h-4zM112 72h4v4h-4zM116 72h4v4h-4zM120 72h4v4h-4zM124 72h4v4h-4zM128 72h4v4h-4zM132 72h4v4h-4z"/><path fill="#FEC43E" d="M136 72h4v4h-4zM140 72h4v4h-4z"/><path fill="#E69410" d="M144 72h4v4h-4zM148 72h4v4h-4zM152 72h4v4h-4zM156 72h4v4h-4zM160 72h4v4h-4zM164 72h4v4h-4zM168 72h4v4h-4zM172 72h4v4h-4zM176 72h4v4h-4zM180 72h4v4h-4zM184 72h4v4h-4zM188 72h4v4h-4zM192 72h4v4h-4zM196 72h4v4h-4zM200 72h4v4h-4z"/><path fill="#B36810" d="M204 72h4v4h-4zM208 72h4v4h-4z"/><path fill="#E69410" d="M212 72h4v4h-4zM216 72h4v4h-4z"/><path fill="#FAC13F" d="M220 72h4v4h-4z"/><path fill="#BE7C2A" d="M224 72h4v4h-4z"/><path fill="#E69410" d="M228 72h4v4h-4zM232 72h4v4h-4z"/><path fill="#65400B" d="M236 72h4v4h-4zM68 76h4v4h-4z"/><path fill="#E7A85F" d="M72 76h4v4h-4z"/><path fill="#E69410" d="M76 76h4v4h-4z"/><path fill="#BE7C2A" d="M80 76h4v4h-4zM84 76h4v4h-4zM88 76h4v4h-4zM92 76h4v4h-4zM96 76h4v4h-4zM100 76h4v4h-4zM104 76h4v4h-4z"/><path fill="#E69410" d="M108 76h4v4h-4zM112 76h4v4h-4zM116 76h4v4h-4zM120 76h4v4h-4zM124 76h4v4h-4zM128 76h4v4h-4z"/><path fill="#FAC859" d="M132 76h4v4h-4z"/><path fill="#FDFD29" d="M136 76h4v4h-4z"/><path fill="#FEC23E" d="M140 76h4v4h-4z"/><path fill="#E69410" d="M144 76h4v4h-4zM148 76h4v4h-4zM152 76h4v4h-4zM156 76h4v4h-4zM160 76h4v4h-4zM164 76h4v4h-4zM168 76h4v4h-4zM172 76h4v4h-4zM176 76h4v4h-4zM180 76h4v4h-4zM184 76h4v4h-4zM188 76h4v4h-4zM192 76h4v4h-4zM196 76h4v4h-4zM200 76h4v4h-4z"/><path fill="#BE7C2A" d="M204 76h4v4h-4zM208 76h4v4h-4z"/><path fill="#B36810" d="M212 76h4v4h-4zM216 76h4v4h-4z"/><path fill="#E69410" d="M220 76h4v4h-4zM224 76h4v4h-4z"/><path fill="#FAC859" d="M228 76h4v4h-4z"/><path fill="#BE7C2A" d="M232 76h4v4h-4z"/><path fill="#E69410" d="M236 76h4v4h-4z"/><path fill="#65400B" d="M240 76h4v4h-4zM244 76h4v4h-4zM64 80h4v4h-4z"/><path fill="#E69410" d="M68 80h4v4h-4zM72 80h4v4h-4z"/><path fill="#BE7C2A" d="M76 80h4v4h-4zM80 80h4v4h-4zM84 80h4v4h-4zM88 80h4v4h-4zM92 80h4v4h-4zM96 80h4v4h-4zM100 80h4v4h-4zM104 80h4v4h-4zM108 80h4v4h-4z"/><path fill="#E69410" d="M112 80h4v4h-4z"/><path fill="#BE7C2A" d="M116 80h4v4h-4zM120 80h4v4h-4zM124 80h4v4h-4z"/><path fill="#E69410" d="M128 80h4v4h-4z"/><path fill="#FAC859" d="M132 80h4v4h-4z"/><path fill="#FDFD29" d="M136 80h4v4h-4z"/><path fill="#FAC859" d="M140 80h4v4h-4z"/><path fill="#FEC43E" d="M144 80h4v4h-4z"/><path fill="#FAC859" d="M148 80h4v4h-4z"/><path fill="#E69410" d="M152 80h4v4h-4zM156 80h4v4h-4zM160 80h4v4h-4zM164 80h4v4h-4zM168 80h4v4h-4zM172 80h4v4h-4zM176 80h4v4h-4zM180 80h4v4h-4zM184 80h4v4h-4zM188 80h4v4h-4zM192 80h4v4h-4zM196 80h4v4h-4zM200 80h4v4h-4zM204 80h4v4h-4zM208 80h4v4h-4z"/><path fill="#BE7C2A" d="M212 80h4v4h-4zM216 80h4v4h-4z"/><path fill="#B36810" d="M220 80h4v4h-4z"/><path fill="#BE7C2A" d="M224 80h4v4h-4zM228 80h4v4h-4z"/><path fill="#E69410" d="M232 80h4v4h-4z"/><path fill="#E7A85F" d="M236 80h4v4h-4z"/><path fill="#E69410" d="M240 80h4v4h-4zM244 80h4v4h-4z"/><path fill="#65400B" d="M248 80h4v4h-4zM60 84h4v4h-4z"/><path fill="#E69410" d="M64 84h4v4h-4zM68 84h4v4h-4zM72 84h4v4h-4z"/><path fill="#BE7C2A" d="M76 84h4v4h-4zM80 84h4v4h-4zM84 84h4v4h-4z"/><path fill="#E69410" d="M88 84h4v4h-4zM92 84h4v4h-4z"/><path fill="#BE7C2A" d="M96 84h4v4h-4zM100 84h4v4h-4zM104 84h4v4h-4zM108 84h4v4h-4zM112 84h4v4h-4zM116 84h4v4h-4zM120 84h4v4h-4zM124 84h4v4h-4z"/><path fill="#E69410" d="M128 84h4v4h-4zM132 84h4v4h-4z"/><path fill="#FAC859" d="M136 84h4v4h-4z"/><path fill="#FDFD29" d="M140 84h4v4h-4z"/><path fill="#FAC859" d="M144 84h4v4h-4zM148 84h4v4h-4z"/><path fill="#E69410" d="M152 84h4v4h-4zM156 84h4v4h-4zM160 84h4v4h-4zM164 84h4v4h-4zM168 84h4v4h-4zM172 84h4v4h-4zM176 84h4v4h-4zM180 84h4v4h-4zM184 84h4v4h-4zM188 84h4v4h-4zM192 84h4v4h-4zM196 84h4v4h-4zM200 84h4v4h-4zM204 84h4v4h-4z"/><path fill="#BE7C2A" d="M208 84h4v4h-4zM212 84h4v4h-4zM216 84h4v4h-4zM220 84h4v4h-4z"/><path fill="#B36810" d="M224 84h4v4h-4z"/><path fill="#BE7C2A" d="M228 84h4v4h-4zM232 84h4v4h-4z"/><path fill="#E69410" d="M236 84h4v4h-4z"/><path fill="#E7A85F" d="M240 84h4v4h-4z"/><path fill="#E69410" d="M244 84h4v4h-4z"/><path fill="#65400B" d="M248 84h4v4h-4zM56 88h4v4h-4z"/><path fill="#E69410" d="M60 88h4v4h-4zM64 88h4v4h-4zM68 88h4v4h-4z"/><path fill="#BE7C2A" d="M72 88h4v4h-4zM76 88h4v4h-4zM80 88h4v4h-4z"/><path fill="#E69410" d="M84 88h4v4h-4zM88 88h4v4h-4zM92 88h4v4h-4zM96 88h4v4h-4z"/><path fill="#BE7C2A" d="M100 88h4v4h-4z"/><path fill="#B36810" d="M104 88h4v4h-4z"/><path fill="#BE7C2A" d="M108 88h4v4h-4zM112 88h4v4h-4zM116 88h4v4h-4zM120 88h4v4h-4zM124 88h4v4h-4zM128 88h4v4h-4z"/><path fill="#E69410" d="M132 88h4v4h-4zM136 88h4v4h-4z"/><path fill="#FCC33E" d="M140 88h4v4h-4z"/><path fill="#FAC859" d="M144 88h4v4h-4z"/><path fill="#FEBD3F" d="M148 88h4v4h-4z"/><path fill="#E69410" d="M152 88h4v4h-4zM156 88h4v4h-4zM160 88h4v4h-4zM164 88h4v4h-4zM168 88h4v4h-4zM172 88h4v4h-4zM176 88h4v4h-4zM180 88h4v4h-4zM184 88h4v4h-4zM188 88h4v4h-4zM192 88h4v4h-4zM196 88h4v4h-4zM200 88h4v4h-4z"/><path fill="#BE7C2A" d="M204 88h4v4h-4zM208 88h4v4h-4zM212 88h4v4h-4zM216 88h4v4h-4z"/><path fill="#E69410" d="M220 88h4v4h-4zM224 88h4v4h-4z"/><path fill="#B36810" d="M228 88h4v4h-4zM232 88h4v4h-4z"/><path fill="#BE7C2A" d="M236 88h4v4h-4z"/><path fill="#E69410" d="M240 88h4v4h-4zM244 88h4v4h-4z"/><path fill="#FAC859" d="M248 88h4v4h-4z"/><path fill="#65400B" d="M252 88h4v4h-4zM52 92h4v4h-4z"/><path fill="#E69410" d="M56 92h4v4h-4zM60 92h4v4h-4zM64 92h4v4h-4zM68 92h4v4h-4zM72 92h4v4h-4z"/><path fill="#BE7C2A" d="M76 92h4v4h-4zM80 92h4v4h-4zM84 92h4v4h-4z"/><path fill="#E69410" d="M88 92h4v4h-4zM92 92h4v4h-4z"/><path fill="#BE7C2A" d="M96 92h4v4h-4z"/><path fill="#B36810" d="M100 92h4v4h-4zM104 92h4v4h-4z"/><path fill="#BE7C2A" d="M108 92h4v4h-4zM112 92h4v4h-4zM116 92h4v4h-4z"/><path fill="#E69410" d="M120 92h4v4h-4zM124 92h4v4h-4zM128 92h4v4h-4zM132 92h4v4h-4zM136 92h4v4h-4z"/><path fill="#FDBC3D" d="M140 92h4v4h-4z"/><path fill="#FEC740" d="M144 92h4v4h-4z"/><path fill="#E69410" d="M148 92h4v4h-4zM152 92h4v4h-4zM156 92h4v4h-4zM160 92h4v4h-4zM164 92h4v4h-4zM168 92h4v4h-4zM172 92h4v4h-4zM176 92h4v4h-4zM180 92h4v4h-4zM184 92h4v4h-4zM188 92h4v4h-4zM192 92h4v4h-4zM196 92h4v4h-4z"/><path fill="#BE7C2A" d="M200 92h4v4h-4zM204 92h4v4h-4z"/><path fill="#B36810" d="M208 92h4v4h-4zM212 92h4v4h-4zM216 92h4v4h-4z"/><path fill="#E69410" d="M220 92h4v4h-4zM224 92h4v4h-4z"/><path fill="#BE7C2A" d="M228 92h4v4h-4z"/><path fill="#B36810" d="M232 92h4v4h-4z"/><path fill="#BE7C2A" d="M236 92h4v4h-4zM240 92h4v4h-4z"/><path fill="#E69410" d="M244 92h4v4h-4z"/><path fill="#FAC859" d="M248 92h4v4h-4z"/><path fill="#65400B" d="M252 92h4v4h-4zM48 96h4v4h-4z"/><path fill="#E69410" d="M52 96h4v4h-4zM56 96h4v4h-4zM60 96h4v4h-4zM64 96h4v4h-4zM68 96h4v4h-4zM72 96h4v4h-4z"/><path fill="#BE7C2A" d="M76 96h4v4h-4zM80 96h4v4h-4zM84 96h4v4h-4zM88 96h4v4h-4z"/><path fill="#B36810" d="M92 96h4v4h-4zM96 96h4v4h-4z"/><path fill="#BE7C2A" d="M100 96h4v4h-4zM104 96h4v4h-4zM108 96h4v4h-4zM112 96h4v4h-4z"/><path fill="#E69410" d="M116 96h4v4h-4zM120 96h4v4h-4z"/><path fill="#FDFD29" d="M124 96h4v4h-4zM128 96h4v4h-4zM132 96h4v4h-4zM136 96h4v4h-4zM140 96h4v4h-4z"/><path fill="#E69410" d="M144 96h4v4h-4z"/><path fill="#BE7C2A" d="M148 96h4v4h-4z"/><path fill="#E69410" d="M152 96h4v4h-4zM156 96h4v4h-4zM160 96h4v4h-4zM164 96h4v4h-4zM168 96h4v4h-4z"/><path fill="#BE7C2A" d="M172 96h4v4h-4zM176 96h4v4h-4zM180 96h4v4h-4zM184 96h4v4h-4zM188 96h4v4h-4zM192 96h4v4h-4zM196 96h4v4h-4zM200 96h4v4h-4zM204 96h4v4h-4zM208 96h4v4h-4z"/><path fill="#B36810" d="M212 96h4v4h-4zM216 96h4v4h-4z"/><path fill="#BE7C2A" d="M220 96h4v4h-4zM224 96h4v4h-4zM228 96h4v4h-4zM232 96h4v4h-4z"/><path fill="#E69410" d="M236 96h4v4h-4z"/><path fill="#BE7C2A" d="M240 96h4v4h-4zM244 96h4v4h-4z"/><path fill="#FAC859" d="M248 96h4v4h-4z"/><path fill="#E69410" d="M252 96h4v4h-4z"/><path fill="#65400B" d="M256 96h4v4h-4zM44 100h4v4h-4z"/><path fill="#E69410" d="M48 100h4v4h-4zM52 100h4v4h-4zM56 100h4v4h-4zM60 100h4v4h-4zM64 100h4v4h-4zM68 100h4v4h-4zM72 100h4v4h-4zM76 100h4v4h-4zM80 100h4v4h-4z"/><path fill="#BE7C2A" d="M84 100h4v4h-4zM88 100h4v4h-4zM92 100h4v4h-4zM96 100h4v4h-4zM100 100h4v4h-4zM104 100h4v4h-4zM108 100h4v4h-4zM112 100h4v4h-4zM116 100h4v4h-4z"/><path fill="#E69410" d="M120 100h4v4h-4zM124 100h4v4h-4zM128 100h4v4h-4z"/><path fill="#FDFD29" d="M132 100h4v4h-4zM136 100h4v4h-4zM140 100h4v4h-4z"/><path fill="#BE7C2A" d="M144 100h4v4h-4z"/><path fill="#E69410" d="M148 100h4v4h-4zM152 100h4v4h-4z"/><path fill="#BE7C2A" d="M156 100h4v4h-4zM160 100h4v4h-4z"/><path fill="#B36810" d="M164 100h4v4h-4z"/><path fill="#BE7C2A" d="M168 100h4v4h-4zM172 100h4v4h-4zM176 100h4v4h-4z"/><path fill="#B36810" d="M180 100h4v4h-4zM184 100h4v4h-4zM188 100h4v4h-4zM192 100h4v4h-4zM196 100h4v4h-4zM200 100h4v4h-4z"/><path fill="#BE7C2A" d="M204 100h4v4h-4zM208 100h4v4h-4z"/><path fill="#B36810" d="M212 100h4v4h-4zM216 100h4v4h-4zM220 100h4v4h-4zM224 100h4v4h-4zM228 100h4v4h-4zM232 100h4v4h-4z"/><path fill="#BE7C2A" d="M236 100h4v4h-4z"/><path fill="#E69410" d="M240 100h4v4h-4z"/><path fill="#BE7C2A" d="M244 100h4v4h-4zM248 100h4v4h-4z"/><path fill="#F3BD34" d="M252 100h4v4h-4z"/><path fill="#E69410" d="M256 100h4v4h-4z"/><path fill="#65400B" d="M260 100h4v4h-4zM40 104h4v4h-4z"/><path fill="#E69410" d="M44 104h4v4h-4zM48 104h4v4h-4zM52 104h4v4h-4zM56 104h4v4h-4zM60 104h4v4h-4zM64 104h4v4h-4zM68 104h4v4h-4zM72 104h4v4h-4zM76 104h4v4h-4zM80 104h4v4h-4z"/><path fill="#BE7C2A" d="M84 104h4v4h-4zM88 104h4v4h-4zM92 104h4v4h-4zM96 104h4v4h-4zM100 104h4v4h-4zM104 104h4v4h-4zM108 104h4v4h-4zM112 104h4v4h-4zM116 104h4v4h-4zM120 104h4v4h-4zM124 104h4v4h-4zM128 104h4v4h-4zM132 104h4v4h-4z"/><path fill="#E69410" d="M136 104h4v4h-4z"/><path fill="#FFCA3F" d="M140 104h4v4h-4z"/><path fill="#BE7C2A" d="M144 104h4v4h-4z"/><path fill="#E69410" d="M148 104h4v4h-4z"/><path fill="#FDFD29" d="M152 104h4v4h-4z"/><path fill="#E69410" d="M156 104h4v4h-4z"/><path fill="#BE7C2A" d="M160 104h4v4h-4zM164 104h4v4h-4zM168 104h4v4h-4z"/><path fill="#E69410" d="M172 104h4v4h-4z"/><path fill="#BE7C2A" d="M176 104h4v4h-4z"/><path fill="#B36810" d="M180 104h4v4h-4zM184 104h4v4h-4zM188 104h4v4h-4zM192 104h4v4h-4zM196 104h4v4h-4zM200 104h4v4h-4zM204 104h4v4h-4z"/><path fill="#BE7C2A" d="M208 104h4v4h-4z"/><path fill="#B36810" d="M212 104h4v4h-4z"/><path fill="#BE7C2A" d="M216 104h4v4h-4zM220 104h4v4h-4zM224 104h4v4h-4zM228 104h4v4h-4z"/><path fill="#B36810" d="M232 104h4v4h-4zM236 104h4v4h-4zM240 104h4v4h-4zM244 104h4v4h-4zM248 104h4v4h-4z"/><path fill="#BE7C2A" d="M252 104h4v4h-4z"/><path fill="#FAC859" d="M256 104h4v4h-4z"/><path fill="#65400B" d="M260 104h4v4h-4zM40 108h4v4h-4z"/><path fill="#E69410" d="M44 108h4v4h-4zM48 108h4v4h-4zM52 108h4v4h-4zM56 108h4v4h-4zM60 108h4v4h-4zM64 108h4v4h-4zM68 108h4v4h-4zM72 108h4v4h-4zM76 108h4v4h-4zM80 108h4v4h-4z"/><path fill="#BE7C2A" d="M84 108h4v4h-4zM88 108h4v4h-4zM92 108h4v4h-4zM96 108h4v4h-4zM100 108h4v4h-4zM104 108h4v4h-4zM108 108h4v4h-4zM112 108h4v4h-4z"/><path fill="#E69410" d="M116 108h4v4h-4zM120 108h4v4h-4z"/><path fill="#BE7C2A" d="M124 108h4v4h-4zM128 108h4v4h-4zM132 108h4v4h-4zM136 108h4v4h-4z"/><path fill="#E69410" d="M140 108h4v4h-4z"/><path fill="#BE7C2A" d="M144 108h4v4h-4z"/><path fill="#E69410" d="M148 108h4v4h-4z"/><path fill="#FDFD29" d="M152 108h4v4h-4z"/><path fill="#E69410" d="M156 108h4v4h-4zM160 108h4v4h-4z"/><path fill="#BE7C2A" d="M164 108h4v4h-4z"/><path fill="#E69410" d="M168 108h4v4h-4zM172 108h4v4h-4z"/><path fill="#BE7C2A" d="M176 108h4v4h-4z"/><path fill="#B36810" d="M180 108h4v4h-4zM184 108h4v4h-4zM188 108h4v4h-4zM192 108h4v4h-4zM196 108h4v4h-4zM200 108h4v4h-4z"/><path fill="#BE7C2A" d="M204 108h4v4h-4zM208 108h4v4h-4z"/><path fill="#B36810" d="M212 108h4v4h-4z"/><path fill="#BE7C2A" d="M216 108h4v4h-4zM220 108h4v4h-4zM224 108h4v4h-4zM228 108h4v4h-4z"/><path fill="#B36810" d="M232 108h4v4h-4zM236 108h4v4h-4zM240 108h4v4h-4z"/><path fill="#BE7C2A" d="M244 108h4v4h-4zM248 108h4v4h-4zM252 108h4v4h-4zM256 108h4v4h-4z"/><path fill="#65400B" d="M260 108h4v4h-4zM264 108h4v4h-4zM36 112h4v4h-4z"/><path fill="#BE7C2A" d="M40 112h4v4h-4z"/><path fill="#E69410" d="M44 112h4v4h-4zM48 112h4v4h-4zM52 112h4v4h-4zM56 112h4v4h-4zM60 112h4v4h-4zM64 112h4v4h-4zM68 112h4v4h-4zM72 112h4v4h-4z"/><path fill="#BE7C2A" d="M76 112h4v4h-4zM80 112h4v4h-4zM84 112h4v4h-4zM88 112h4v4h-4zM92 112h4v4h-4zM96 112h4v4h-4zM100 112h4v4h-4zM104 112h4v4h-4zM108 112h4v4h-4zM112 112h4v4h-4zM116 112h4v4h-4z"/><path fill="#E69410" d="M120 112h4v4h-4zM124 112h4v4h-4zM128 112h4v4h-4zM132 112h4v4h-4zM136 112h4v4h-4zM140 112h4v4h-4z"/><path fill="#BE7C2A" d="M144 112h4v4h-4zM148 112h4v4h-4z"/><path fill="#E69410" d="M152 112h4v4h-4z"/><path fill="#BE7C2A" d="M156 112h4v4h-4zM160 112h4v4h-4zM164 112h4v4h-4z"/><path fill="#E69410" d="M168 112h4v4h-4z"/><path fill="#B36810" d="M172 112h4v4h-4zM176 112h4v4h-4z"/><path fill="#BE7C2A" d="M180 112h4v4h-4z"/><path fill="#FAC859" d="M184 112h4v4h-4z"/><path fill="#FDFB92" d="M188 112h4v4h-4z"/><path fill="#FDFEAA" d="M192 112h4v4h-4zM196 112h4v4h-4z"/><path fill="#FDFC8D" d="M200 112h4v4h-4z"/><path fill="#FAC859" d="M204 112h4v4h-4z"/><path fill="#FDFD29" d="M208 112h4v4h-4z"/><path fill="#FAC859" d="M212 112h4v4h-4zM216 112h4v4h-4z"/><path fill="#E69410" d="M220 112h4v4h-4z"/><path fill="#B36810" d="M224 112h4v4h-4z"/><path fill="#BE7C2A" d="M228 112h4v4h-4zM232 112h4v4h-4z"/><path fill="#E69410" d="M236 112h4v4h-4z"/><path fill="#BE7C2A" d="M240 112h4v4h-4zM244 112h4v4h-4zM248 112h4v4h-4zM252 112h4v4h-4zM256 112h4v4h-4z"/><path fill="#E69410" d="M260 112h4v4h-4zM264 112h4v4h-4z"/><path fill="#65400B" d="M268 112h4v4h-4zM36 116h4v4h-4z"/><path fill="#BE7C2A" d="M40 116h4v4h-4z"/><path fill="#E69410" d="M44 116h4v4h-4zM48 116h4v4h-4zM52 116h4v4h-4zM56 116h4v4h-4zM60 116h4v4h-4zM64 116h4v4h-4zM68 116h4v4h-4zM72 116h4v4h-4z"/><path fill="#BE7C2A" d="M76 116h4v4h-4zM80 116h4v4h-4zM84 116h4v4h-4zM88 116h4v4h-4zM92 116h4v4h-4z"/><path fill="#B36810" d="M96 116h4v4h-4zM100 116h4v4h-4zM104 116h4v4h-4zM108 116h4v4h-4zM112 116h4v4h-4zM116 116h4v4h-4zM120 116h4v4h-4zM124 116h4v4h-4z"/><path fill="#BE7C2A" d="M128 116h4v4h-4z"/><path fill="#E69410" d="M132 116h4v4h-4z"/><path fill="#B36810" d="M136 116h4v4h-4z"/><path fill="#E69410" d="M140 116h4v4h-4z"/><path fill="#BE7C2A" d="M144 116h4v4h-4z"/><path fill="#B36810" d="M148 116h4v4h-4zM152 116h4v4h-4zM156 116h4v4h-4z"/><path fill="#BE7C2A" d="M160 116h4v4h-4z"/><path fill="#E69410" d="M164 116h4v4h-4z"/><path fill="#BE7C2A" d="M168 116h4v4h-4z"/><path fill="#B36810" d="M172 116h4v4h-4z"/><path fill="#FAC859" d="M176 116h4v4h-4z"/><path fill="#FDFD29" d="M180 116h4v4h-4zM184 116h4v4h-4z"/><path fill="#FAC859" d="M188 116h4v4h-4zM192 116h4v4h-4zM196 116h4v4h-4zM200 116h4v4h-4zM204 116h4v4h-4zM208 116h4v4h-4z"/><path fill="#FDFD29" d="M212 116h4v4h-4zM216 116h4v4h-4z"/><path fill="#FAC859" d="M220 116h4v4h-4z"/><path fill="#E69410" d="M224 116h4v4h-4z"/><path fill="#BE7C2A" d="M228 116h4v4h-4z"/><path fill="#B36810" d="M232 116h4v4h-4z"/><path fill="#E69410" d="M236 116h4v4h-4z"/><path fill="#BE7C2A" d="M240 116h4v4h-4zM244 116h4v4h-4zM248 116h4v4h-4zM252 116h4v4h-4zM256 116h4v4h-4zM260 116h4v4h-4zM264 116h4v4h-4z"/><path fill="#65400B" d="M268 116h4v4h-4zM32 120h4v4h-4z"/><path fill="#BE7C2A" d="M36 120h4v4h-4zM40 120h4v4h-4z"/><path fill="#E69410" d="M44 120h4v4h-4zM48 120h4v4h-4zM52 120h4v4h-4zM56 120h4v4h-4zM60 120h4v4h-4zM64 120h4v4h-4zM68 120h4v4h-4z"/><path fill="#BE7C2A" d="M72 120h4v4h-4zM76 120h4v4h-4zM80 120h4v4h-4zM84 120h4v4h-4zM88 120h4v4h-4z"/><path fill="#B36810" d="M92 120h4v4h-4zM96 120h4v4h-4zM100 120h4v4h-4zM104 120h4v4h-4zM108 120h4v4h-4z"/><path fill="#BE7C2A" d="M112 120h4v4h-4zM116 120h4v4h-4zM120 120h4v4h-4zM124 120h4v4h-4zM128 120h4v4h-4zM132 120h4v4h-4z"/><path fill="#B36810" d="M136 120h4v4h-4zM140 120h4v4h-4z"/><path fill="#BE7C2A" d="M144 120h4v4h-4z"/><path fill="#E69410" d="M148 120h4v4h-4z"/><path fill="#BE7C2A" d="M152 120h4v4h-4zM156 120h4v4h-4z"/><path fill="#E69410" d="M160 120h4v4h-4zM164 120h4v4h-4z"/><path fill="#FDFD29" d="M168 120h4v4h-4z"/><path fill="#FAC859" d="M172 120h4v4h-4z"/><path fill="#E69410" d="M176 120h4v4h-4z"/><path fill="#B36810" d="M180 120h4v4h-4zM184 120h4v4h-4z"/><path fill="#65400B" d="M188 120h4v4h-4z"/><path fill="#B36810" d="M192 120h4v4h-4zM196 120h4v4h-4z"/><path fill="#BE7C2A" d="M200 120h4v4h-4z"/><path fill="#FAC859" d="M204 120h4v4h-4zM208 120h4v4h-4zM212 120h4v4h-4z"/><path fill="#FDFD29" d="M216 120h4v4h-4z"/><path fill="#E69410" d="M220 120h4v4h-4z"/><path fill="#B36810" d="M224 120h4v4h-4zM228 120h4v4h-4zM232 120h4v4h-4z"/><path fill="#BE7C2A" d="M236 120h4v4h-4z"/><path fill="#B36810" d="M240 120h4v4h-4z"/><path fill="#65400B" d="M244 120h4v4h-4zM248 120h4v4h-4zM252 120h4v4h-4z"/><path fill="#BE7C2A" d="M256 120h4v4h-4zM260 120h4v4h-4zM264 120h4v4h-4z"/><path fill="#65400B" d="M268 120h4v4h-4zM32 124h4v4h-4z"/><path fill="#E7A85F" d="M36 124h4v4h-4z"/><path fill="#BE7C2A" d="M40 124h4v4h-4z"/><path fill="#E7A85F" d="M44 124h4v4h-4z"/><path fill="#E69410" d="M48 124h4v4h-4zM52 124h4v4h-4zM56 124h4v4h-4zM60 124h4v4h-4zM64 124h4v4h-4z"/><path fill="#BE7C2A" d="M68 124h4v4h-4zM72 124h4v4h-4zM76 124h4v4h-4zM80 124h4v4h-4zM84 124h4v4h-4z"/><path fill="#B36810" d="M88 124h4v4h-4zM92 124h4v4h-4zM96 124h4v4h-4zM100 124h4v4h-4zM104 124h4v4h-4z"/><path fill="#BE7C2A" d="M108 124h4v4h-4zM112 124h4v4h-4zM116 124h4v4h-4zM120 124h4v4h-4zM124 124h4v4h-4zM128 124h4v4h-4zM132 124h4v4h-4zM136 124h4v4h-4zM140 124h4v4h-4z"/><path fill="#B36810" d="M144 124h4v4h-4z"/><path fill="#FFC131" d="M148 124h4v4h-4z"/><path fill="#BE7C2A" d="M152 124h4v4h-4z"/><path fill="#E69410" d="M156 124h4v4h-4z"/><path fill="#BE7C2A" d="M160 124h4v4h-4z"/><path fill="#FDFD29" d="M164 124h4v4h-4z"/><path fill="#FAC859" d="M168 124h4v4h-4z"/><path fill="#BE7C2A" d="M172 124h4v4h-4z"/><path fill="#B36810" d="M176 124h4v4h-4z"/><path fill="#65400B" d="M180 124h4v4h-4zM184 124h4v4h-4zM188 124h4v4h-4zM192 124h4v4h-4z"/><path fill="#B36810" d="M196 124h4v4h-4zM200 124h4v4h-4z"/><path fill="#FAC859" d="M204 124h4v4h-4zM208 124h4v4h-4zM212 124h4v4h-4z"/><path fill="#FDFD29" d="M216 124h4v4h-4z"/><path fill="#E7A85F" d="M220 124h4v4h-4z"/><path fill="#B36810" d="M224 124h4v4h-4zM228 124h4v4h-4z"/><path fill="#BE7C2A" d="M232 124h4v4h-4zM236 124h4v4h-4z"/><path fill="#65400B" d="M240 124h4v4h-4zM244 124h4v4h-4zM248 124h4v4h-4zM252 124h4v4h-4zM256 124h4v4h-4z"/><path fill="#BE7C2A" d="M260 124h4v4h-4zM264 124h4v4h-4z"/><path fill="#65400B" d="M268 124h4v4h-4zM32 128h4v4h-4z"/><path fill="#E7A85F" d="M36 128h4v4h-4z"/><path fill="#BE7C2A" d="M40 128h4v4h-4zM44 128h4v4h-4z"/><path fill="#E7A85F" d="M48 128h4v4h-4z"/><path fill="#E69410" d="M52 128h4v4h-4z"/><path fill="#BE7C2A" d="M56 128h4v4h-4z"/><path fill="#E69410" d="M60 128h4v4h-4zM64 128h4v4h-4z"/><path fill="#BE7C2A" d="M68 128h4v4h-4zM72 128h4v4h-4zM76 128h4v4h-4zM80 128h4v4h-4z"/><path fill="#B36810" d="M84 128h4v4h-4zM88 128h4v4h-4zM92 128h4v4h-4zM96 128h4v4h-4zM100 128h4v4h-4z"/><path fill="#BE7C2A" d="M104 128h4v4h-4zM108 128h4v4h-4zM112 128h4v4h-4zM116 128h4v4h-4zM120 128h4v4h-4zM124 128h4v4h-4zM128 128h4v4h-4zM132 128h4v4h-4zM136 128h4v4h-4zM140 128h4v4h-4z"/><path fill="#B36810" d="M144 128h4v4h-4z"/><path fill="#BE7C2A" d="M148 128h4v4h-4z"/><path fill="#B36810" d="M152 128h4v4h-4z"/><path fill="#E69410" d="M156 128h4v4h-4z"/><path fill="#FDFD29" d="M160 128h4v4h-4z"/><path fill="#65400B" d="M164 128h4v4h-4zM168 128h4v4h-4zM172 128h4v4h-4z"/><path fill="#2E1D03" d="M176 128h4v4h-4zM180 128h4v4h-4z"/><path fill="#65400B" d="M184 128h4v4h-4zM188 128h4v4h-4zM192 128h4v4h-4z"/><path fill="#E69410" d="M196 128h4v4h-4z"/><path fill="#BE7C2A" d="M200 128h4v4h-4z"/><path fill="#B36810" d="M204 128h4v4h-4z"/><path fill="#E7A85F" d="M208 128h4v4h-4z"/><path fill="#BE7C2A" d="M212 128h4v4h-4zM216 128h4v4h-4zM220 128h4v4h-4zM224 128h4v4h-4zM228 128h4v4h-4z"/><path fill="#E69410" d="M232 128h4v4h-4zM236 128h4v4h-4z"/><path fill="#65400B" d="M240 128h4v4h-4zM244 128h4v4h-4zM248 128h4v4h-4zM252 128h4v4h-4zM256 128h4v4h-4zM260 128h4v4h-4z"/><path fill="#B36810" d="M264 128h4v4h-4z"/><path fill="#65400B" d="M268 128h4v4h-4zM28 132h4v4h-4z"/><path fill="#E7A85F" d="M32 132h4v4h-4zM36 132h4v4h-4zM40 132h4v4h-4z"/><path fill="#BE7C2A" d="M44 132h4v4h-4z"/><path fill="#E69410" d="M48 132h4v4h-4z"/><path fill="#B36810" d="M52 132h4v4h-4z"/><path fill="#BE7C2A" d="M56 132h4v4h-4z"/><path fill="#E7A85F" d="M60 132h4v4h-4z"/><path fill="#E69410" d="M64 132h4v4h-4z"/><path fill="#BE7C2A" d="M68 132h4v4h-4zM72 132h4v4h-4zM76 132h4v4h-4z"/><path fill="#B36810" d="M80 132h4v4h-4zM84 132h4v4h-4zM88 132h4v4h-4zM92 132h4v4h-4zM96 132h4v4h-4z"/><path fill="#BE7C2A" d="M100 132h4v4h-4zM104 132h4v4h-4zM108 132h4v4h-4zM112 132h4v4h-4zM116 132h4v4h-4zM120 132h4v4h-4zM124 132h4v4h-4zM128 132h4v4h-4zM132 132h4v4h-4zM136 132h4v4h-4zM140 132h4v4h-4zM144 132h4v4h-4zM148 132h4v4h-4z"/><path fill="#B36810" d="M152 132h4v4h-4z"/><path fill="#FDFD29" d="M156 132h4v4h-4z"/><path fill="#E7A85F" d="M160 132h4v4h-4z"/><path fill="#2E1D03" d="M164 132h4v4h-4zM168 132h4v4h-4zM172 132h4v4h-4zM176 132h4v4h-4zM180 132h4v4h-4zM184 132h4v4h-4z"/><path fill="#65400B" d="M188 132h4v4h-4zM192 132h4v4h-4zM196 132h4v4h-4z"/><path fill="#B36810" d="M200 132h4v4h-4zM204 132h4v4h-4zM208 132h4v4h-4zM212 132h4v4h-4zM216 132h4v4h-4z"/><path fill="#E69410" d="M220 132h4v4h-4zM224 132h4v4h-4zM228 132h4v4h-4zM232 132h4v4h-4zM236 132h4v4h-4zM240 132h4v4h-4z"/><path fill="#65400B" d="M244 132h4v4h-4zM248 132h4v4h-4zM252 132h4v4h-4z"/><path fill="#2E1D03" d="M256 132h4v4h-4z"/><path fill="#65400B" d="M260 132h4v4h-4z"/><path fill="#BE7C2A" d="M264 132h4v4h-4z"/><path fill="#65400B" d="M268 132h4v4h-4zM28 136h4v4h-4z"/><path fill="#E7A85F" d="M32 136h4v4h-4z"/><path fill="#FDFD29" d="M36 136h4v4h-4z"/><path fill="#E7A85F" d="M40 136h4v4h-4zM44 136h4v4h-4z"/><path fill="#BE7C2A" d="M48 136h4v4h-4zM52 136h4v4h-4z"/><path fill="#E7A85F" d="M56 136h4v4h-4z"/><path fill="#E69410" d="M60 136h4v4h-4z"/><path fill="#BE7C2A" d="M64 136h4v4h-4zM68 136h4v4h-4zM72 136h4v4h-4zM76 136h4v4h-4z"/><path fill="#B36810" d="M80 136h4v4h-4zM84 136h4v4h-4zM88 136h4v4h-4zM92 136h4v4h-4zM96 136h4v4h-4z"/><path fill="#BE7C2A" d="M100 136h4v4h-4zM104 136h4v4h-4zM108 136h4v4h-4zM112 136h4v4h-4zM116 136h4v4h-4zM120 136h4v4h-4zM124 136h4v4h-4zM128 136h4v4h-4zM132 136h4v4h-4z"/><path fill="#B36810" d="M136 136h4v4h-4z"/><path fill="#BE7C2A" d="M140 136h4v4h-4z"/><path fill="#E69410" d="M144 136h4v4h-4z"/><path fill="#B36810" d="M148 136h4v4h-4z"/><path fill="#E69410" d="M152 136h4v4h-4z"/><path fill="#A1853A" d="M156 136h4v4h-4z"/><path fill="#2E1D03" d="M160 136h4v4h-4zM164 136h4v4h-4zM168 136h4v4h-4zM172 136h4v4h-4zM176 136h4v4h-4zM180 136h4v4h-4zM184 136h4v4h-4z"/><path fill="#65400B" d="M188 136h4v4h-4zM192 136h4v4h-4zM196 136h4v4h-4z"/><path fill="#B36810" d="M200 136h4v4h-4zM204 136h4v4h-4zM208 136h4v4h-4zM212 136h4v4h-4zM216 136h4v4h-4zM220 136h4v4h-4z"/><path fill="#BE7C2A" d="M224 136h4v4h-4zM228 136h4v4h-4zM232 136h4v4h-4z"/><path fill="#65400B" d="M236 136h4v4h-4zM240 136h4v4h-4zM244 136h4v4h-4zM248 136h4v4h-4z"/><path fill="#2E1D03" d="M252 136h4v4h-4zM256 136h4v4h-4z"/><path fill="#65400B" d="M260 136h4v4h-4z"/><path fill="#BE7C2A" d="M264 136h4v4h-4z"/><path fill="#65400B" d="M268 136h4v4h-4zM28 140h4v4h-4z"/><path fill="#E7A85F" d="M32 140h4v4h-4z"/><path fill="#FDFEAA" d="M36 140h4v4h-4z"/><path fill="#FDFD29" d="M40 140h4v4h-4z"/><path fill="#E7A85F" d="M44 140h4v4h-4z"/><path fill="#BE7C2A" d="M48 140h4v4h-4zM52 140h4v4h-4z"/><path fill="#E7A85F" d="M56 140h4v4h-4z"/><path fill="#E69410" d="M60 140h4v4h-4z"/><path fill="#BE7C2A" d="M64 140h4v4h-4zM68 140h4v4h-4zM72 140h4v4h-4z"/><path fill="#B36810" d="M76 140h4v4h-4zM80 140h4v4h-4zM84 140h4v4h-4zM88 140h4v4h-4zM92 140h4v4h-4zM96 140h4v4h-4zM100 140h4v4h-4z"/><path fill="#BE7C2A" d="M104 140h4v4h-4zM108 140h4v4h-4zM112 140h4v4h-4zM116 140h4v4h-4zM120 140h4v4h-4zM124 140h4v4h-4zM128 140h4v4h-4z"/><path fill="#B36810" d="M132 140h4v4h-4zM136 140h4v4h-4zM140 140h4v4h-4z"/><path fill="#E69410" d="M144 140h4v4h-4z"/><path fill="#B36810" d="M148 140h4v4h-4z"/><path fill="#FAC859" d="M152 140h4v4h-4z"/><path fill="#2E1D03" d="M156 140h4v4h-4zM160 140h4v4h-4zM164 140h4v4h-4zM168 140h4v4h-4zM172 140h4v4h-4zM176 140h4v4h-4zM180 140h4v4h-4zM184 140h4v4h-4z"/><path fill="#65400B" d="M188 140h4v4h-4zM192 140h4v4h-4zM196 140h4v4h-4zM200 140h4v4h-4z"/><path fill="#B36810" d="M204 140h4v4h-4zM208 140h4v4h-4zM212 140h4v4h-4zM216 140h4v4h-4zM220 140h4v4h-4z"/><path fill="#E69410" d="M224 140h4v4h-4z"/><path fill="#B36810" d="M228 140h4v4h-4z"/><path fill="#E7A85F" d="M232 140h4v4h-4z"/><path fill="#65400B" d="M236 140h4v4h-4zM240 140h4v4h-4z"/><path fill="#BE7C2A" d="M244 140h4v4h-4z"/><path fill="#2E1D03" d="M248 140h4v4h-4zM252 140h4v4h-4zM256 140h4v4h-4z"/><path fill="#65400B" d="M260 140h4v4h-4z"/><path fill="#B36810" d="M264 140h4v4h-4z"/><path fill="#65400B" d="M268 140h4v4h-4zM28 144h4v4h-4z"/><path fill="#E7A85F" d="M32 144h4v4h-4z"/><path fill="#FDFEAA" d="M36 144h4v4h-4zM40 144h4v4h-4z"/><path fill="#E69410" d="M44 144h4v4h-4z"/><path fill="#BE7C2A" d="M48 144h4v4h-4z"/><path fill="#E7A85F" d="M52 144h4v4h-4zM56 144h4v4h-4z"/><path fill="#E69410" d="M60 144h4v4h-4z"/><path fill="#BE7C2A" d="M64 144h4v4h-4zM68 144h4v4h-4zM72 144h4v4h-4z"/><path fill="#B36810" d="M76 144h4v4h-4zM80 144h4v4h-4zM84 144h4v4h-4zM88 144h4v4h-4zM92 144h4v4h-4zM96 144h4v4h-4zM100 144h4v4h-4zM104 144h4v4h-4zM108 144h4v4h-4zM112 144h4v4h-4zM116 144h4v4h-4zM120 144h4v4h-4zM124 144h4v4h-4zM128 144h4v4h-4zM132 144h4v4h-4zM136 144h4v4h-4zM140 144h4v4h-4z"/><path fill="#E69410" d="M144 144h4v4h-4z"/><path fill="#BE7C2A" d="M148 144h4v4h-4z"/><path fill="#FDFD29" d="M152 144h4v4h-4z"/><path fill="#2E1D03" d="M156 144h4v4h-4zM160 144h4v4h-4zM164 144h4v4h-4zM168 144h4v4h-4zM172 144h4v4h-4zM176 144h4v4h-4zM180 144h4v4h-4z"/><path fill="#65400B" d="M184 144h4v4h-4zM188 144h4v4h-4zM192 144h4v4h-4z"/><path fill="#2E1D03" d="M196 144h4v4h-4z"/><path fill="#65400B" d="M200 144h4v4h-4zM204 144h4v4h-4zM208 144h4v4h-4zM212 144h4v4h-4zM216 144h4v4h-4z"/><path fill="#B36810" d="M220 144h4v4h-4z"/><path fill="#E69410" d="M224 144h4v4h-4z"/><path fill="#B36810" d="M228 144h4v4h-4z"/><path fill="#E7A85F" d="M232 144h4v4h-4zM236 144h4v4h-4z"/><path fill="#65400B" d="M240 144h4v4h-4z"/><path fill="#BE7C2A" d="M244 144h4v4h-4z"/><path fill="#2E1D03" d="M248 144h4v4h-4zM252 144h4v4h-4zM256 144h4v4h-4z"/><path fill="#65400B" d="M260 144h4v4h-4z"/><path fill="#BE7C2A" d="M264 144h4v4h-4z"/><path fill="#65400B" d="M268 144h4v4h-4zM28 148h4v4h-4z"/><path fill="#E7A85F" d="M32 148h4v4h-4zM36 148h4v4h-4z"/><path fill="#FDFEAA" d="M40 148h4v4h-4z"/><path fill="#E69410" d="M44 148h4v4h-4z"/><path fill="#BE7C2A" d="M48 148h4v4h-4z"/><path fill="#E7A85F" d="M52 148h4v4h-4zM56 148h4v4h-4z"/><path fill="#E69410" d="M60 148h4v4h-4z"/><path fill="#BE7C2A" d="M64 148h4v4h-4zM68 148h4v4h-4zM72 148h4v4h-4z"/><path fill="#B36810" d="M76 148h4v4h-4zM80 148h4v4h-4zM84 148h4v4h-4zM88 148h4v4h-4zM92 148h4v4h-4zM96 148h4v4h-4zM100 148h4v4h-4zM104 148h4v4h-4zM108 148h4v4h-4zM112 148h4v4h-4zM116 148h4v4h-4zM120 148h4v4h-4zM124 148h4v4h-4zM128 148h4v4h-4zM132 148h4v4h-4zM136 148h4v4h-4zM140 148h4v4h-4z"/><path fill="#BE7C2A" d="M144 148h4v4h-4z"/><path fill="#E69410" d="M148 148h4v4h-4z"/><path fill="#FDFD29" d="M152 148h4v4h-4z"/><path fill="#2E1D03" d="M156 148h4v4h-4zM160 148h4v4h-4zM164 148h4v4h-4zM168 148h4v4h-4zM172 148h4v4h-4zM176 148h4v4h-4zM180 148h4v4h-4zM184 148h4v4h-4z"/><path fill="#65400B" d="M188 148h4v4h-4z"/><path fill="#2E1D03" d="M192 148h4v4h-4zM196 148h4v4h-4z"/><path fill="#65400B" d="M200 148h4v4h-4zM204 148h4v4h-4zM208 148h4v4h-4zM212 148h4v4h-4zM216 148h4v4h-4z"/><path fill="#B36810" d="M220 148h4v4h-4z"/><path fill="#E69410" d="M224 148h4v4h-4z"/><path fill="#BE7C2A" d="M228 148h4v4h-4z"/><path fill="#E7A85F" d="M232 148h4v4h-4z"/><path fill="#B36810" d="M236 148h4v4h-4z"/><path fill="#65400B" d="M240 148h4v4h-4zM244 148h4v4h-4z"/><path fill="#E7A85F" d="M248 148h4v4h-4z"/><path fill="#2E1D03" d="M252 148h4v4h-4zM256 148h4v4h-4z"/><path fill="#65400B" d="M260 148h4v4h-4zM264 148h4v4h-4zM268 148h4v4h-4zM28 152h4v4h-4z"/><path fill="#E7A85F" d="M32 152h4v4h-4zM36 152h4v4h-4z"/><path fill="#FDFD29" d="M40 152h4v4h-4z"/><path fill="#E7A85F" d="M44 152h4v4h-4z"/><path fill="#BE7C2A" d="M48 152h4v4h-4z"/><path fill="#E7A85F" d="M52 152h4v4h-4z"/><path fill="#FAC859" d="M56 152h4v4h-4z"/><path fill="#BE7C2A" d="M60 152h4v4h-4zM64 152h4v4h-4zM68 152h4v4h-4zM72 152h4v4h-4z"/><path fill="#B36810" d="M76 152h4v4h-4zM80 152h4v4h-4zM84 152h4v4h-4zM88 152h4v4h-4zM92 152h4v4h-4zM96 152h4v4h-4zM100 152h4v4h-4zM104 152h4v4h-4zM108 152h4v4h-4zM112 152h4v4h-4zM116 152h4v4h-4zM120 152h4v4h-4zM124 152h4v4h-4zM128 152h4v4h-4zM132 152h4v4h-4zM136 152h4v4h-4z"/><path fill="#BE7C2A" d="M140 152h4v4h-4zM144 152h4v4h-4z"/><path fill="#E69410" d="M148 152h4v4h-4z"/><path fill="#FDFD29" d="M152 152h4v4h-4z"/><path fill="#2E1D03" d="M156 152h4v4h-4zM160 152h4v4h-4zM164 152h4v4h-4zM168 152h4v4h-4zM172 152h4v4h-4zM176 152h4v4h-4zM180 152h4v4h-4zM184 152h4v4h-4zM188 152h4v4h-4zM192 152h4v4h-4zM196 152h4v4h-4zM200 152h4v4h-4z"/><path fill="#65400B" d="M204 152h4v4h-4zM208 152h4v4h-4zM212 152h4v4h-4z"/><path fill="#B36810" d="M216 152h4v4h-4z"/><path fill="#E69410" d="M220 152h4v4h-4z"/><path fill="#B36810" d="M224 152h4v4h-4zM228 152h4v4h-4z"/><path fill="#65400B" d="M232 152h4v4h-4zM236 152h4v4h-4zM240 152h4v4h-4zM244 152h4v4h-4z"/><path fill="#E7A85F" d="M248 152h4v4h-4z"/><path fill="#2E1D03" d="M252 152h4v4h-4zM256 152h4v4h-4z"/><path fill="#65400B" d="M260 152h4v4h-4z"/><path fill="#BE7C2A" d="M264 152h4v4h-4z"/><path fill="#E69410" d="M268 152h4v4h-4z"/><path fill="#65400B" d="M272 152h4v4h-4zM28 156h4v4h-4z"/><path fill="#B36810" d="M32 156h4v4h-4z"/><path fill="#E7A85F" d="M36 156h4v4h-4zM40 156h4v4h-4zM44 156h4v4h-4z"/><path fill="#BE7C2A" d="M48 156h4v4h-4z"/><path fill="#E7A85F" d="M52 156h4v4h-4z"/><path fill="#FAC859" d="M56 156h4v4h-4z"/><path fill="#BE7C2A" d="M60 156h4v4h-4zM64 156h4v4h-4zM68 156h4v4h-4zM72 156h4v4h-4z"/><path fill="#B36810" d="M76 156h4v4h-4zM80 156h4v4h-4zM84 156h4v4h-4zM88 156h4v4h-4zM92 156h4v4h-4zM96 156h4v4h-4zM100 156h4v4h-4zM104 156h4v4h-4zM108 156h4v4h-4zM112 156h4v4h-4zM116 156h4v4h-4zM120 156h4v4h-4zM124 156h4v4h-4zM128 156h4v4h-4zM132 156h4v4h-4zM136 156h4v4h-4z"/><path fill="#E69410" d="M140 156h4v4h-4z"/><path fill="#BE7C2A" d="M144 156h4v4h-4z"/><path fill="#E69410" d="M148 156h4v4h-4zM152 156h4v4h-4z"/><path fill="#65400B" d="M156 156h4v4h-4z"/><path fill="#2E1D03" d="M160 156h4v4h-4zM164 156h4v4h-4zM168 156h4v4h-4zM172 156h4v4h-4zM176 156h4v4h-4zM180 156h4v4h-4zM184 156h4v4h-4zM188 156h4v4h-4zM192 156h4v4h-4zM196 156h4v4h-4zM200 156h4v4h-4z"/><path fill="#65400B" d="M204 156h4v4h-4zM208 156h4v4h-4zM212 156h4v4h-4z"/><path fill="#BE7C2A" d="M216 156h4v4h-4z"/><path fill="#E69410" d="M220 156h4v4h-4z"/><path fill="#B36810" d="M224 156h4v4h-4zM228 156h4v4h-4z"/><path fill="#65400B" d="M232 156h4v4h-4zM236 156h4v4h-4zM240 156h4v4h-4zM244 156h4v4h-4z"/><path fill="#BE7C2A" d="M248 156h4v4h-4z"/><path fill="#E69410" d="M252 156h4v4h-4z"/><path fill="#2E1D03" d="M256 156h4v4h-4zM260 156h4v4h-4z"/><path fill="#BE7C2A" d="M264 156h4v4h-4z"/><path fill="#E7A85F" d="M268 156h4v4h-4z"/><path fill="#65400B" d="M272 156h4v4h-4zM28 160h4v4h-4z"/><path fill="#B36810" d="M32 160h4v4h-4zM36 160h4v4h-4z"/><path fill="#FAC859" d="M40 160h4v4h-4z"/><path fill="#E7A85F" d="M44 160h4v4h-4z"/><path fill="#BE7C2A" d="M48 160h4v4h-4z"/><path fill="#E7A85F" d="M52 160h4v4h-4z"/><path fill="#FAC859" d="M56 160h4v4h-4z"/><path fill="#E69410" d="M60 160h4v4h-4z"/><path fill="#BE7C2A" d="M64 160h4v4h-4zM68 160h4v4h-4zM72 160h4v4h-4zM76 160h4v4h-4z"/><path fill="#B36810" d="M80 160h4v4h-4zM84 160h4v4h-4z"/><path fill="#BE7C2A" d="M88 160h4v4h-4zM92 160h4v4h-4zM96 160h4v4h-4z"/><path fill="#B36810" d="M100 160h4v4h-4zM104 160h4v4h-4zM108 160h4v4h-4zM112 160h4v4h-4zM116 160h4v4h-4zM120 160h4v4h-4zM124 160h4v4h-4zM128 160h4v4h-4zM132 160h4v4h-4zM136 160h4v4h-4z"/><path fill="#BE7C2A" d="M140 160h4v4h-4z"/><path fill="#B36810" d="M144 160h4v4h-4zM148 160h4v4h-4zM152 160h4v4h-4zM156 160h4v4h-4z"/><path fill="#65400B" d="M160 160h4v4h-4z"/><path fill="#2E1D03" d="M164 160h4v4h-4zM168 160h4v4h-4zM172 160h4v4h-4zM176 160h4v4h-4zM180 160h4v4h-4zM184 160h4v4h-4zM188 160h4v4h-4zM192 160h4v4h-4zM196 160h4v4h-4z"/><path fill="#65400B" d="M200 160h4v4h-4zM204 160h4v4h-4zM208 160h4v4h-4z"/><path fill="#E69410" d="M212 160h4v4h-4zM216 160h4v4h-4z"/><path fill="#B36810" d="M220 160h4v4h-4zM224 160h4v4h-4z"/><path fill="#65400B" d="M228 160h4v4h-4z"/><path fill="#2E1D03" d="M232 160h4v4h-4z"/><path fill="#65400B" d="M236 160h4v4h-4zM240 160h4v4h-4z"/><path fill="#2E1D03" d="M244 160h4v4h-4z"/><path fill="#65400B" d="M248 160h4v4h-4z"/><path fill="#E7A85F" d="M252 160h4v4h-4z"/><path fill="#E69410" d="M256 160h4v4h-4z"/><path fill="#2E1D03" d="M260 160h4v4h-4z"/><path fill="#65400B" d="M264 160h4v4h-4z"/><path fill="#E7A85F" d="M268 160h4v4h-4z"/><path fill="#E69410" d="M272 160h4v4h-4z"/><path fill="#65400B" d="M276 160h4v4h-4zM28 164h4v4h-4z"/><path fill="#E7A85F" d="M32 164h4v4h-4z"/><path fill="#B36810" d="M36 164h4v4h-4z"/><path fill="#E7A85F" d="M40 164h4v4h-4zM44 164h4v4h-4z"/><path fill="#BE7C2A" d="M48 164h4v4h-4z"/><path fill="#E7A85F" d="M52 164h4v4h-4zM56 164h4v4h-4z"/><path fill="#E69410" d="M60 164h4v4h-4z"/><path fill="#BE7C2A" d="M64 164h4v4h-4zM68 164h4v4h-4zM72 164h4v4h-4z"/><path fill="#B36810" d="M76 164h4v4h-4zM80 164h4v4h-4zM84 164h4v4h-4z"/><path fill="#BE7C2A" d="M88 164h4v4h-4zM92 164h4v4h-4zM96 164h4v4h-4zM100 164h4v4h-4zM104 164h4v4h-4zM108 164h4v4h-4zM112 164h4v4h-4zM116 164h4v4h-4zM120 164h4v4h-4zM124 164h4v4h-4zM128 164h4v4h-4z"/><path fill="#B36810" d="M132 164h4v4h-4zM136 164h4v4h-4z"/><path fill="#BE7C2A" d="M140 164h4v4h-4z"/><path fill="#B36810" d="M144 164h4v4h-4zM148 164h4v4h-4z"/><path fill="#BE7C2A" d="M152 164h4v4h-4zM156 164h4v4h-4z"/><path fill="#E69410" d="M160 164h4v4h-4z"/><path fill="#2E1D03" d="M164 164h4v4h-4zM168 164h4v4h-4zM172 164h4v4h-4zM176 164h4v4h-4zM180 164h4v4h-4zM184 164h4v4h-4zM188 164h4v4h-4zM192 164h4v4h-4z"/><path fill="#65400B" d="M196 164h4v4h-4z"/><path fill="#B36810" d="M200 164h4v4h-4z"/><path fill="#E69410" d="M204 164h4v4h-4zM208 164h4v4h-4zM212 164h4v4h-4z"/><path fill="#B36810" d="M216 164h4v4h-4zM220 164h4v4h-4zM224 164h4v4h-4z"/><path fill="#2E1D03" d="M228 164h4v4h-4zM232 164h4v4h-4zM236 164h4v4h-4zM240 164h4v4h-4zM244 164h4v4h-4zM248 164h4v4h-4z"/><path fill="#BE7C2A" d="M252 164h4v4h-4z"/><path fill="#B36810" d="M256 164h4v4h-4z"/><path fill="#E69410" d="M260 164h4v4h-4zM264 164h4v4h-4z"/><path fill="#BE7C2A" d="M268 164h4v4h-4zM272 164h4v4h-4z"/><path fill="#65400B" d="M276 164h4v4h-4zM28 168h4v4h-4z"/><path fill="#E7A85F" d="M32 168h4v4h-4z"/><path fill="#B36810" d="M36 168h4v4h-4z"/><path fill="#E7A85F" d="M40 168h4v4h-4zM44 168h4v4h-4z"/><path fill="#BE7C2A" d="M48 168h4v4h-4z"/><path fill="#E7A85F" d="M52 168h4v4h-4zM56 168h4v4h-4z"/><path fill="#E69410" d="M60 168h4v4h-4z"/><path fill="#BE7C2A" d="M64 168h4v4h-4zM68 168h4v4h-4zM72 168h4v4h-4z"/><path fill="#B36810" d="M76 168h4v4h-4zM80 168h4v4h-4zM84 168h4v4h-4zM88 168h4v4h-4z"/><path fill="#BE7C2A" d="M92 168h4v4h-4zM96 168h4v4h-4zM100 168h4v4h-4zM104 168h4v4h-4z"/><path fill="#E69410" d="M108 168h4v4h-4zM112 168h4v4h-4zM116 168h4v4h-4zM120 168h4v4h-4zM124 168h4v4h-4z"/><path fill="#BE7C2A" d="M128 168h4v4h-4z"/><path fill="#B36810" d="M132 168h4v4h-4zM136 168h4v4h-4z"/><path fill="#BE7C2A" d="M140 168h4v4h-4zM144 168h4v4h-4zM148 168h4v4h-4z"/><path fill="#B36810" d="M152 168h4v4h-4z"/><path fill="#BE7C2A" d="M156 168h4v4h-4z"/><path fill="#E69410" d="M160 168h4v4h-4zM164 168h4v4h-4z"/><path fill="#65400B" d="M168 168h4v4h-4z"/><path fill="#2E1D03" d="M172 168h4v4h-4zM176 168h4v4h-4zM180 168h4v4h-4zM184 168h4v4h-4zM188 168h4v4h-4zM192 168h4v4h-4z"/><path fill="#E69410" d="M196 168h4v4h-4zM200 168h4v4h-4zM204 168h4v4h-4z"/><path fill="#B36810" d="M208 168h4v4h-4zM212 168h4v4h-4zM216 168h4v4h-4zM220 168h4v4h-4zM224 168h4v4h-4z"/><path fill="#2E1D03" d="M228 168h4v4h-4zM232 168h4v4h-4zM236 168h4v4h-4zM240 168h4v4h-4zM244 168h4v4h-4zM248 168h4v4h-4z"/><path fill="#65400B" d="M252 168h4v4h-4z"/><path fill="#B36810" d="M256 168h4v4h-4z"/><path fill="#BE7C2A" d="M260 168h4v4h-4z"/><path fill="#E69410" d="M264 168h4v4h-4z"/><path fill="#BE7C2A" d="M268 168h4v4h-4zM272 168h4v4h-4z"/><path fill="#E69410" d="M276 168h4v4h-4z"/><path fill="#65400B" d="M280 168h4v4h-4zM28 172h4v4h-4z"/><path fill="#CCA06F" d="M32 172h4v4h-4z"/><path fill="#BE7C2A" d="M36 172h4v4h-4z"/><path fill="#B36810" d="M40 172h4v4h-4z"/><path fill="#BE7C2A" d="M44 172h4v4h-4zM48 172h4v4h-4z"/><path fill="#E7A85F" d="M52 172h4v4h-4zM56 172h4v4h-4z"/><path fill="#E69410" d="M60 172h4v4h-4z"/><path fill="#BE7C2A" d="M64 172h4v4h-4zM68 172h4v4h-4zM72 172h4v4h-4z"/><path fill="#B36810" d="M76 172h4v4h-4zM80 172h4v4h-4zM84 172h4v4h-4zM88 172h4v4h-4z"/><path fill="#E69410" d="M92 172h4v4h-4zM96 172h4v4h-4zM100 172h4v4h-4zM104 172h4v4h-4zM108 172h4v4h-4zM112 172h4v4h-4zM116 172h4v4h-4zM120 172h4v4h-4zM124 172h4v4h-4zM128 172h4v4h-4z"/><path fill="#B36810" d="M132 172h4v4h-4zM136 172h4v4h-4z"/><path fill="#BE7C2A" d="M140 172h4v4h-4z"/><path fill="#FAC859" d="M144 172h4v4h-4z"/><path fill="#E69410" d="M148 172h4v4h-4z"/><path fill="#FAC859" d="M152 172h4v4h-4z"/><path fill="#FDFD29" d="M156 172h4v4h-4z"/><path fill="#E69410" d="M160 172h4v4h-4zM164 172h4v4h-4zM168 172h4v4h-4zM172 172h4v4h-4zM176 172h4v4h-4z"/><path fill="#E7A85F" d="M180 172h4v4h-4z"/><path fill="#E69410" d="M184 172h4v4h-4z"/><path fill="#BE7C2A" d="M188 172h4v4h-4z"/><path fill="#B36810" d="M192 172h4v4h-4z"/><path fill="#E7A85F" d="M196 172h4v4h-4z"/><path fill="#FAC859" d="M200 172h4v4h-4z"/><path fill="#FDFD29" d="M204 172h4v4h-4zM208 172h4v4h-4z"/><path fill="#FAC859" d="M212 172h4v4h-4z"/><path fill="#E69410" d="M216 172h4v4h-4z"/><path fill="#B36810" d="M220 172h4v4h-4z"/><path fill="#BE7C2A" d="M224 172h4v4h-4z"/><path fill="#B36810" d="M228 172h4v4h-4z"/><path fill="#2E1D03" d="M232 172h4v4h-4zM236 172h4v4h-4zM240 172h4v4h-4z"/><path fill="#65400B" d="M244 172h4v4h-4z"/><path fill="#2E1D03" d="M248 172h4v4h-4z"/><path fill="#65400B" d="M252 172h4v4h-4z"/><path fill="#B36810" d="M256 172h4v4h-4zM260 172h4v4h-4z"/><path fill="#BE7C2A" d="M264 172h4v4h-4z"/><path fill="#E69410" d="M268 172h4v4h-4z"/><path fill="#BE7C2A" d="M272 172h4v4h-4zM276 172h4v4h-4zM280 172h4v4h-4z"/><path fill="#65400B" d="M284 172h4v4h-4zM32 176h4v4h-4z"/><path fill="#BE7C2A" d="M36 176h4v4h-4z"/><path fill="#B36810" d="M40 176h4v4h-4z"/><path fill="#BE7C2A" d="M44 176h4v4h-4zM48 176h4v4h-4zM52 176h4v4h-4z"/><path fill="#E7A85F" d="M56 176h4v4h-4z"/><path fill="#E69410" d="M60 176h4v4h-4z"/><path fill="#BE7C2A" d="M64 176h4v4h-4zM68 176h4v4h-4zM72 176h4v4h-4z"/><path fill="#B36810" d="M76 176h4v4h-4zM80 176h4v4h-4zM84 176h4v4h-4zM88 176h4v4h-4z"/><path fill="#E69410" d="M92 176h4v4h-4zM96 176h4v4h-4zM100 176h4v4h-4zM104 176h4v4h-4zM108 176h4v4h-4zM112 176h4v4h-4zM116 176h4v4h-4zM120 176h4v4h-4zM124 176h4v4h-4zM128 176h4v4h-4z"/><path fill="#BE7C2A" d="M132 176h4v4h-4z"/><path fill="#B36810" d="M136 176h4v4h-4z"/><path fill="#65400B" d="M140 176h4v4h-4z"/><path fill="#E69410" d="M144 176h4v4h-4z"/><path fill="#BE7C2A" d="M148 176h4v4h-4z"/><path fill="#E69410" d="M152 176h4v4h-4z"/><path fill="#FAC859" d="M156 176h4v4h-4z"/><path fill="#FFCC35" d="M160 176h4v4h-4z"/><path fill="#BE7C2A" d="M164 176h4v4h-4z"/><path fill="#E69410" d="M168 176h4v4h-4z"/><path fill="#BE7C2A" d="M172 176h4v4h-4z"/><path fill="#B36810" d="M176 176h4v4h-4zM180 176h4v4h-4zM184 176h4v4h-4z"/><path fill="#FAC859" d="M188 176h4v4h-4z"/><path fill="#FDFD29" d="M192 176h4v4h-4zM196 176h4v4h-4zM200 176h4v4h-4zM204 176h4v4h-4zM208 176h4v4h-4z"/><path fill="#E69410" d="M212 176h4v4h-4z"/><path fill="#BE7C2A" d="M216 176h4v4h-4zM220 176h4v4h-4z"/><path fill="#B36810" d="M224 176h4v4h-4zM228 176h4v4h-4z"/><path fill="#65400B" d="M232 176h4v4h-4z"/><path fill="#2E1D03" d="M236 176h4v4h-4zM240 176h4v4h-4z"/><path fill="#65400B" d="M244 176h4v4h-4z"/><path fill="#BE7C2A" d="M248 176h4v4h-4z"/><path fill="#65400B" d="M252 176h4v4h-4zM256 176h4v4h-4z"/><path fill="#B36810" d="M260 176h4v4h-4z"/><path fill="#BE7C2A" d="M264 176h4v4h-4z"/><path fill="#E69410" d="M268 176h4v4h-4z"/><path fill="#BE7C2A" d="M272 176h4v4h-4zM276 176h4v4h-4zM280 176h4v4h-4z"/><path fill="#65400B" d="M284 176h4v4h-4zM32 180h4v4h-4z"/><path fill="#BE7C2A" d="M36 180h4v4h-4zM40 180h4v4h-4zM44 180h4v4h-4zM48 180h4v4h-4zM52 180h4v4h-4z"/><path fill="#E7A85F" d="M56 180h4v4h-4z"/><path fill="#E69410" d="M60 180h4v4h-4z"/><path fill="#BE7C2A" d="M64 180h4v4h-4zM68 180h4v4h-4zM72 180h4v4h-4zM76 180h4v4h-4zM80 180h4v4h-4z"/><path fill="#B36810" d="M84 180h4v4h-4zM88 180h4v4h-4z"/><path fill="#BE7C2A" d="M92 180h4v4h-4z"/><path fill="#E69410" d="M96 180h4v4h-4zM100 180h4v4h-4zM104 180h4v4h-4z"/><path fill="#BE7C2A" d="M108 180h4v4h-4zM112 180h4v4h-4zM116 180h4v4h-4zM120 180h4v4h-4zM124 180h4v4h-4zM128 180h4v4h-4z"/><path fill="#65400B" d="M132 180h4v4h-4zM136 180h4v4h-4zM140 180h4v4h-4z"/><path fill="#E69410" d="M144 180h4v4h-4z"/><path fill="#FAC859" d="M148 180h4v4h-4z"/><path fill="#FDFD29" d="M152 180h4v4h-4z"/><path fill="#FAC859" d="M156 180h4v4h-4z"/><path fill="#E69410" d="M160 180h4v4h-4z"/><path fill="#B36810" d="M164 180h4v4h-4zM168 180h4v4h-4z"/><path fill="#E69410" d="M172 180h4v4h-4z"/><path fill="#FAC859" d="M176 180h4v4h-4z"/><path fill="#FDFD29" d="M180 180h4v4h-4zM184 180h4v4h-4z"/><path fill="#FAC859" d="M188 180h4v4h-4zM192 180h4v4h-4z"/><path fill="#FDFD29" d="M196 180h4v4h-4zM200 180h4v4h-4z"/><path fill="#FDFEAA" d="M204 180h4v4h-4z"/><path fill="#FDFD29" d="M208 180h4v4h-4z"/><path fill="#B36810" d="M212 180h4v4h-4zM216 180h4v4h-4zM220 180h4v4h-4z"/><path fill="#BE7C2A" d="M224 180h4v4h-4zM228 180h4v4h-4z"/><path fill="#B36810" d="M232 180h4v4h-4z"/><path fill="#E69410" d="M236 180h4v4h-4zM240 180h4v4h-4zM244 180h4v4h-4z"/><path fill="#B36810" d="M248 180h4v4h-4z"/><path fill="#BE7C2A" d="M252 180h4v4h-4zM256 180h4v4h-4z"/><path fill="#E69410" d="M260 180h4v4h-4zM264 180h4v4h-4zM268 180h4v4h-4zM272 180h4v4h-4z"/><path fill="#BE7C2A" d="M276 180h4v4h-4zM280 180h4v4h-4z"/><path fill="#65400B" d="M284 180h4v4h-4zM32 184h4v4h-4z"/><path fill="#BE7C2A" d="M36 184h4v4h-4zM40 184h4v4h-4zM44 184h4v4h-4zM48 184h4v4h-4zM52 184h4v4h-4z"/><path fill="#E7A85F" d="M56 184h4v4h-4z"/><path fill="#E69410" d="M60 184h4v4h-4z"/><path fill="#BE7C2A" d="M64 184h4v4h-4zM68 184h4v4h-4zM72 184h4v4h-4zM76 184h4v4h-4zM80 184h4v4h-4z"/><path fill="#B36810" d="M84 184h4v4h-4zM88 184h4v4h-4z"/><path fill="#BE7C2A" d="M92 184h4v4h-4zM96 184h4v4h-4zM100 184h4v4h-4zM104 184h4v4h-4z"/><path fill="#B36810" d="M108 184h4v4h-4zM112 184h4v4h-4z"/><path fill="#BE7C2A" d="M116 184h4v4h-4zM120 184h4v4h-4zM124 184h4v4h-4z"/><path fill="#65400B" d="M128 184h4v4h-4zM132 184h4v4h-4zM136 184h4v4h-4z"/><path fill="#E69410" d="M140 184h4v4h-4zM144 184h4v4h-4zM148 184h4v4h-4zM152 184h4v4h-4z"/><path fill="#BE7C2A" d="M156 184h4v4h-4zM160 184h4v4h-4zM164 184h4v4h-4zM168 184h4v4h-4z"/><path fill="#FDFD29" d="M172 184h4v4h-4z"/><path fill="#FDFEAA" d="M176 184h4v4h-4z"/><path fill="#FDFD29" d="M180 184h4v4h-4zM184 184h4v4h-4zM188 184h4v4h-4zM192 184h4v4h-4zM196 184h4v4h-4zM200 184h4v4h-4z"/><path fill="#FDFEAA" d="M204 184h4v4h-4zM208 184h4v4h-4z"/><path fill="#B36810" d="M212 184h4v4h-4zM216 184h4v4h-4zM220 184h4v4h-4z"/><path fill="#BE7C2A" d="M224 184h4v4h-4z"/><path fill="#B36810" d="M228 184h4v4h-4zM232 184h4v4h-4z"/><path fill="#BE7C2A" d="M236 184h4v4h-4zM240 184h4v4h-4zM244 184h4v4h-4z"/><path fill="#B36810" d="M248 184h4v4h-4z"/><path fill="#BE7C2A" d="M252 184h4v4h-4zM256 184h4v4h-4z"/><path fill="#E69410" d="M260 184h4v4h-4zM264 184h4v4h-4z"/><path fill="#BE7C2A" d="M268 184h4v4h-4z"/><path fill="#E69410" d="M272 184h4v4h-4z"/><path fill="#BE7C2A" d="M276 184h4v4h-4z"/><path fill="#65400B" d="M280 184h4v4h-4zM32 188h4v4h-4z"/><path fill="#BE7C2A" d="M36 188h4v4h-4zM40 188h4v4h-4z"/><path fill="#B36810" d="M44 188h4v4h-4z"/><path fill="#BE7C2A" d="M48 188h4v4h-4zM52 188h4v4h-4z"/><path fill="#E7A85F" d="M56 188h4v4h-4zM60 188h4v4h-4z"/><path fill="#E69410" d="M64 188h4v4h-4zM68 188h4v4h-4z"/><path fill="#BE7C2A" d="M72 188h4v4h-4zM76 188h4v4h-4zM80 188h4v4h-4zM84 188h4v4h-4zM88 188h4v4h-4zM92 188h4v4h-4zM96 188h4v4h-4zM100 188h4v4h-4zM104 188h4v4h-4zM108 188h4v4h-4z"/><path fill="#E69410" d="M112 188h4v4h-4zM116 188h4v4h-4zM120 188h4v4h-4z"/><path fill="#65400B" d="M124 188h4v4h-4zM128 188h4v4h-4z"/><path fill="#E69410" d="M132 188h4v4h-4zM136 188h4v4h-4z"/><path fill="#BE7C2A" d="M140 188h4v4h-4zM144 188h4v4h-4zM148 188h4v4h-4zM152 188h4v4h-4zM156 188h4v4h-4zM160 188h4v4h-4zM164 188h4v4h-4z"/><path fill="#E69410" d="M168 188h4v4h-4z"/><path fill="#FAC859" d="M172 188h4v4h-4zM176 188h4v4h-4zM180 188h4v4h-4zM184 188h4v4h-4z"/><path fill="#FDFEAA" d="M188 188h4v4h-4zM192 188h4v4h-4z"/><path fill="#FAF98F" d="M196 188h4v4h-4z"/><path fill="#FDFEAA" d="M200 188h4v4h-4zM204 188h4v4h-4z"/><path fill="#FAC859" d="M208 188h4v4h-4z"/><path fill="#B36810" d="M212 188h4v4h-4zM216 188h4v4h-4zM220 188h4v4h-4zM224 188h4v4h-4zM228 188h4v4h-4zM232 188h4v4h-4zM236 188h4v4h-4zM240 188h4v4h-4zM244 188h4v4h-4zM248 188h4v4h-4zM252 188h4v4h-4z"/><path fill="#BE7C2A" d="M256 188h4v4h-4z"/><path fill="#B36810" d="M260 188h4v4h-4zM264 188h4v4h-4z"/><path fill="#BE7C2A" d="M268 188h4v4h-4z"/><path fill="#65400B" d="M272 188h4v4h-4zM276 188h4v4h-4zM32 192h4v4h-4z"/><path fill="#B36810" d="M36 192h4v4h-4zM40 192h4v4h-4zM44 192h4v4h-4z"/><path fill="#BE7C2A" d="M48 192h4v4h-4zM52 192h4v4h-4z"/><path fill="#E7A85F" d="M56 192h4v4h-4zM60 192h4v4h-4z"/><path fill="#E69410" d="M64 192h4v4h-4zM68 192h4v4h-4zM72 192h4v4h-4z"/><path fill="#BE7C2A" d="M76 192h4v4h-4zM80 192h4v4h-4zM84 192h4v4h-4zM88 192h4v4h-4zM92 192h4v4h-4zM96 192h4v4h-4zM100 192h4v4h-4zM104 192h4v4h-4zM108 192h4v4h-4z"/><path fill="#E69410" d="M112 192h4v4h-4zM116 192h4v4h-4z"/><path fill="#BE7C2A" d="M120 192h4v4h-4zM124 192h4v4h-4zM128 192h4v4h-4zM132 192h4v4h-4zM136 192h4v4h-4zM140 192h4v4h-4zM144 192h4v4h-4z"/><path fill="#E69410" d="M148 192h4v4h-4zM152 192h4v4h-4zM156 192h4v4h-4zM160 192h4v4h-4z"/><path fill="#BE7C2A" d="M164 192h4v4h-4zM168 192h4v4h-4zM172 192h4v4h-4zM176 192h4v4h-4z"/><path fill="#B36810" d="M180 192h4v4h-4z"/><path fill="#BE7C2A" d="M184 192h4v4h-4z"/><path fill="#FAC859" d="M188 192h4v4h-4z"/><path fill="#FDFEAA" d="M192 192h4v4h-4zM196 192h4v4h-4zM200 192h4v4h-4z"/><path fill="#FDFD29" d="M204 192h4v4h-4z"/><path fill="#E69410" d="M208 192h4v4h-4z"/><path fill="#B36810" d="M212 192h4v4h-4zM216 192h4v4h-4zM220 192h4v4h-4zM224 192h4v4h-4zM228 192h4v4h-4zM232 192h4v4h-4zM236 192h4v4h-4zM240 192h4v4h-4zM244 192h4v4h-4zM248 192h4v4h-4zM252 192h4v4h-4zM256 192h4v4h-4z"/><path fill="#BE7C2A" d="M260 192h4v4h-4z"/><path fill="#B36810" d="M264 192h4v4h-4z"/><path fill="#E69410" d="M268 192h4v4h-4z"/><path fill="#65400B" d="M272 192h4v4h-4zM32 196h4v4h-4z"/><path fill="#E7A85F" d="M36 196h4v4h-4z"/><path fill="#B36810" d="M40 196h4v4h-4z"/><path fill="#BE7C2A" d="M44 196h4v4h-4zM48 196h4v4h-4z"/><path fill="#B36810" d="M52 196h4v4h-4z"/><path fill="#BE7C2A" d="M56 196h4v4h-4z"/><path fill="#E7A85F" d="M60 196h4v4h-4zM64 196h4v4h-4z"/><path fill="#E69410" d="M68 196h4v4h-4zM72 196h4v4h-4zM76 196h4v4h-4z"/><path fill="#BE7C2A" d="M80 196h4v4h-4zM84 196h4v4h-4zM88 196h4v4h-4zM92 196h4v4h-4z"/><path fill="#E7A85F" d="M96 196h4v4h-4zM100 196h4v4h-4zM104 196h4v4h-4zM108 196h4v4h-4zM112 196h4v4h-4z"/><path fill="#BE7C2A" d="M116 196h4v4h-4zM120 196h4v4h-4zM124 196h4v4h-4zM128 196h4v4h-4zM132 196h4v4h-4zM136 196h4v4h-4zM140 196h4v4h-4zM144 196h4v4h-4z"/><path fill="#B36810" d="M148 196h4v4h-4z"/><path fill="#65400B" d="M152 196h4v4h-4zM156 196h4v4h-4zM160 196h4v4h-4z"/><path fill="#B36810" d="M164 196h4v4h-4zM168 196h4v4h-4zM172 196h4v4h-4zM176 196h4v4h-4zM180 196h4v4h-4zM184 196h4v4h-4z"/><path fill="#BE7C2A" d="M188 196h4v4h-4z"/><path fill="#E69410" d="M192 196h4v4h-4z"/><path fill="#FDFEAA" d="M196 196h4v4h-4zM200 196h4v4h-4z"/><path fill="#BE7C2A" d="M204 196h4v4h-4zM208 196h4v4h-4z"/><path fill="#B36810" d="M212 196h4v4h-4zM216 196h4v4h-4zM220 196h4v4h-4zM224 196h4v4h-4zM228 196h4v4h-4zM232 196h4v4h-4zM236 196h4v4h-4zM240 196h4v4h-4zM244 196h4v4h-4z"/><path fill="#BE7C2A" d="M248 196h4v4h-4zM252 196h4v4h-4zM256 196h4v4h-4z"/><path fill="#B36810" d="M260 196h4v4h-4zM264 196h4v4h-4z"/><path fill="#E69410" d="M268 196h4v4h-4z"/><path fill="#B36810" d="M272 196h4v4h-4z"/><path fill="#65400B" d="M276 196h4v4h-4zM32 200h4v4h-4z"/><path fill="#E7A85F" d="M36 200h4v4h-4zM40 200h4v4h-4z"/><path fill="#BE7C2A" d="M44 200h4v4h-4zM48 200h4v4h-4zM52 200h4v4h-4zM56 200h4v4h-4z"/><path fill="#E7A85F" d="M60 200h4v4h-4zM64 200h4v4h-4z"/><path fill="#E69410" d="M68 200h4v4h-4zM72 200h4v4h-4z"/><path fill="#BE7C2A" d="M76 200h4v4h-4zM80 200h4v4h-4zM84 200h4v4h-4zM88 200h4v4h-4zM92 200h4v4h-4z"/><path fill="#E7A85F" d="M96 200h4v4h-4zM100 200h4v4h-4zM104 200h4v4h-4z"/><path fill="#E69410" d="M108 200h4v4h-4z"/><path fill="#E7A85F" d="M112 200h4v4h-4z"/><path fill="#BE7C2A" d="M116 200h4v4h-4zM120 200h4v4h-4zM124 200h4v4h-4zM128 200h4v4h-4z"/><path fill="#B36810" d="M132 200h4v4h-4z"/><path fill="#BE7C2A" d="M136 200h4v4h-4z"/><path fill="#65400B" d="M140 200h4v4h-4zM144 200h4v4h-4zM148 200h4v4h-4zM152 200h4v4h-4zM156 200h4v4h-4z"/><path fill="#B36810" d="M160 200h4v4h-4zM164 200h4v4h-4zM168 200h4v4h-4zM172 200h4v4h-4zM176 200h4v4h-4zM180 200h4v4h-4z"/><path fill="#BE7C2A" d="M184 200h4v4h-4zM188 200h4v4h-4zM192 200h4v4h-4z"/><path fill="#F7E695" d="M196 200h4v4h-4z"/><path fill="#FDFEAA" d="M200 200h4v4h-4z"/><path fill="#B36810" d="M204 200h4v4h-4zM208 200h4v4h-4zM212 200h4v4h-4zM216 200h4v4h-4z"/><path fill="#E69410" d="M220 200h4v4h-4zM224 200h4v4h-4z"/><path fill="#BE7C2A" d="M228 200h4v4h-4z"/><path fill="#B36810" d="M232 200h4v4h-4zM236 200h4v4h-4zM240 200h4v4h-4zM244 200h4v4h-4z"/><path fill="#BE7C2A" d="M248 200h4v4h-4zM252 200h4v4h-4z"/><path fill="#B36810" d="M256 200h4v4h-4zM260 200h4v4h-4zM264 200h4v4h-4zM268 200h4v4h-4zM272 200h4v4h-4z"/><path fill="#65400B" d="M276 200h4v4h-4zM36 204h4v4h-4z"/><path fill="#E7A85F" d="M40 204h4v4h-4zM44 204h4v4h-4zM48 204h4v4h-4z"/><path fill="#BE7C2A" d="M52 204h4v4h-4zM56 204h4v4h-4z"/><path fill="#E7A85F" d="M60 204h4v4h-4zM64 204h4v4h-4zM68 204h4v4h-4zM72 204h4v4h-4z"/><path fill="#E69410" d="M76 204h4v4h-4zM80 204h4v4h-4zM84 204h4v4h-4zM88 204h4v4h-4z"/><path fill="#BE7C2A" d="M92 204h4v4h-4zM96 204h4v4h-4z"/><path fill="#E69410" d="M100 204h4v4h-4z"/><path fill="#BE7C2A" d="M104 204h4v4h-4zM108 204h4v4h-4zM112 204h4v4h-4zM116 204h4v4h-4z"/><path fill="#65400B" d="M120 204h4v4h-4zM124 204h4v4h-4zM128 204h4v4h-4zM132 204h4v4h-4zM136 204h4v4h-4zM140 204h4v4h-4zM144 204h4v4h-4zM148 204h4v4h-4zM152 204h4v4h-4z"/><path fill="#BE7C2A" d="M156 204h4v4h-4z"/><path fill="#B36810" d="M160 204h4v4h-4z"/><path fill="#65400B" d="M164 204h4v4h-4zM168 204h4v4h-4z"/><path fill="#B36810" d="M172 204h4v4h-4z"/><path fill="#BE7C2A" d="M176 204h4v4h-4z"/><path fill="#B36810" d="M180 204h4v4h-4z"/><path fill="#BE7C2A" d="M184 204h4v4h-4zM188 204h4v4h-4zM192 204h4v4h-4zM196 204h4v4h-4zM200 204h4v4h-4z"/><path fill="#65400B" d="M204 204h4v4h-4zM208 204h4v4h-4z"/><path fill="#BE7C2A" d="M212 204h4v4h-4z"/><path fill="#E69410" d="M216 204h4v4h-4zM220 204h4v4h-4z"/><path fill="#FDBF33" d="M224 204h4v4h-4z"/><path fill="#BE7C2A" d="M228 204h4v4h-4z"/><path fill="#B36810" d="M232 204h4v4h-4z"/><path fill="#BE7C2A" d="M236 204h4v4h-4z"/><path fill="#B36810" d="M240 204h4v4h-4z"/><path fill="#BE7C2A" d="M244 204h4v4h-4zM248 204h4v4h-4z"/><path fill="#B36810" d="M252 204h4v4h-4z"/><path fill="#BE7C2A" d="M256 204h4v4h-4z"/><path fill="#B36810" d="M260 204h4v4h-4zM264 204h4v4h-4z"/><path fill="#BE7C2A" d="M268 204h4v4h-4z"/><path fill="#B36810" d="M272 204h4v4h-4z"/><path fill="#65400B" d="M276 204h4v4h-4zM36 208h4v4h-4z"/><path fill="#E7A85F" d="M40 208h4v4h-4zM44 208h4v4h-4zM48 208h4v4h-4z"/><path fill="#BE7C2A" d="M52 208h4v4h-4zM56 208h4v4h-4zM60 208h4v4h-4z"/><path fill="#E7A85F" d="M64 208h4v4h-4zM68 208h4v4h-4zM72 208h4v4h-4zM76 208h4v4h-4zM80 208h4v4h-4z"/><path fill="#BE7C2A" d="M84 208h4v4h-4zM88 208h4v4h-4zM92 208h4v4h-4zM96 208h4v4h-4zM100 208h4v4h-4zM104 208h4v4h-4zM108 208h4v4h-4zM112 208h4v4h-4z"/><path fill="#65400B" d="M116 208h4v4h-4zM120 208h4v4h-4zM124 208h4v4h-4zM128 208h4v4h-4zM132 208h4v4h-4zM136 208h4v4h-4zM140 208h4v4h-4zM144 208h4v4h-4zM148 208h4v4h-4z"/><path fill="#BE7C2A" d="M152 208h4v4h-4zM156 208h4v4h-4zM160 208h4v4h-4z"/><path fill="#65400B" d="M164 208h4v4h-4zM168 208h4v4h-4zM172 208h4v4h-4zM176 208h4v4h-4z"/><path fill="#BE7C2A" d="M180 208h4v4h-4zM184 208h4v4h-4zM188 208h4v4h-4zM192 208h4v4h-4z"/><path fill="#E7A85F" d="M196 208h4v4h-4z"/><path fill="#BE7C2A" d="M200 208h4v4h-4z"/><path fill="#E7A85F" d="M204 208h4v4h-4z"/><path fill="#65400B" d="M208 208h4v4h-4z"/><path fill="#E7A85F" d="M212 208h4v4h-4z"/><path fill="#BE7C2A" d="M216 208h4v4h-4zM220 208h4v4h-4zM224 208h4v4h-4z"/><path fill="#B36810" d="M228 208h4v4h-4zM232 208h4v4h-4zM236 208h4v4h-4z"/><path fill="#FAC859" d="M240 208h4v4h-4zM244 208h4v4h-4zM248 208h4v4h-4z"/><path fill="#E7A85F" d="M252 208h4v4h-4zM256 208h4v4h-4z"/><path fill="#FAC859" d="M260 208h4v4h-4z"/><path fill="#65400B" d="M264 208h4v4h-4z"/><path fill="#BE7C2A" d="M268 208h4v4h-4z"/><path fill="#B36810" d="M272 208h4v4h-4z"/><path fill="#65400B" d="M276 208h4v4h-4zM40 212h4v4h-4z"/><path fill="#E7A85F" d="M44 212h4v4h-4z"/><path fill="#BE7C2A" d="M48 212h4v4h-4zM52 212h4v4h-4zM56 212h4v4h-4zM60 212h4v4h-4zM64 212h4v4h-4zM68 212h4v4h-4zM72 212h4v4h-4zM76 212h4v4h-4zM80 212h4v4h-4zM84 212h4v4h-4zM88 212h4v4h-4zM92 212h4v4h-4zM96 212h4v4h-4z"/><path fill="#E69410" d="M100 212h4v4h-4z"/><path fill="#BE7C2A" d="M104 212h4v4h-4zM108 212h4v4h-4zM112 212h4v4h-4zM116 212h4v4h-4z"/><path fill="#B36810" d="M120 212h4v4h-4zM124 212h4v4h-4z"/><path fill="#65400B" d="M128 212h4v4h-4zM132 212h4v4h-4zM136 212h4v4h-4zM140 212h4v4h-4zM144 212h4v4h-4zM148 212h4v4h-4zM152 212h4v4h-4z"/><path fill="#BE7C2A" d="M156 212h4v4h-4zM160 212h4v4h-4z"/><path fill="#E7A85F" d="M164 212h4v4h-4z"/><path fill="#65400B" d="M168 212h4v4h-4zM172 212h4v4h-4zM176 212h4v4h-4z"/><path fill="#BE7C2A" d="M180 212h4v4h-4zM184 212h4v4h-4zM188 212h4v4h-4zM192 212h4v4h-4zM196 212h4v4h-4zM200 212h4v4h-4zM204 212h4v4h-4zM208 212h4v4h-4zM212 212h4v4h-4zM216 212h4v4h-4zM220 212h4v4h-4zM224 212h4v4h-4z"/><path fill="#B36810" d="M228 212h4v4h-4zM232 212h4v4h-4z"/><path fill="#65400B" d="M236 212h4v4h-4z"/><path fill="#B36810" d="M240 212h4v4h-4zM244 212h4v4h-4zM248 212h4v4h-4zM252 212h4v4h-4zM256 212h4v4h-4z"/><path fill="#65400B" d="M260 212h4v4h-4z"/><path fill="#B36810" d="M264 212h4v4h-4zM268 212h4v4h-4zM272 212h4v4h-4z"/><path fill="#65400B" d="M276 212h4v4h-4zM40 216h4v4h-4z"/><path fill="#E7A85F" d="M44 216h4v4h-4z"/><path fill="#BE7C2A" d="M48 216h4v4h-4zM52 216h4v4h-4zM56 216h4v4h-4zM60 216h4v4h-4zM64 216h4v4h-4zM68 216h4v4h-4zM72 216h4v4h-4zM76 216h4v4h-4zM80 216h4v4h-4zM84 216h4v4h-4zM88 216h4v4h-4zM92 216h4v4h-4zM96 216h4v4h-4z"/><path fill="#E69410" d="M100 216h4v4h-4zM104 216h4v4h-4z"/><path fill="#BE7C2A" d="M108 216h4v4h-4z"/><path fill="#B36810" d="M112 216h4v4h-4zM116 216h4v4h-4zM120 216h4v4h-4z"/><path fill="#BE7C2A" d="M124 216h4v4h-4z"/><path fill="#65400B" d="M128 216h4v4h-4zM132 216h4v4h-4zM136 216h4v4h-4zM140 216h4v4h-4zM144 216h4v4h-4zM148 216h4v4h-4zM152 216h4v4h-4z"/><path fill="#BE7C2A" d="M156 216h4v4h-4zM160 216h4v4h-4z"/><path fill="#FAC859" d="M164 216h4v4h-4z"/><path fill="#65400B" d="M168 216h4v4h-4zM172 216h4v4h-4zM176 216h4v4h-4z"/><path fill="#B36810" d="M180 216h4v4h-4z"/><path fill="#BE7C2A" d="M184 216h4v4h-4zM188 216h4v4h-4z"/><path fill="#B36810" d="M192 216h4v4h-4zM196 216h4v4h-4z"/><path fill="#BE7C2A" d="M200 216h4v4h-4z"/><path fill="#B36810" d="M204 216h4v4h-4z"/><path fill="#BE7C2A" d="M208 216h4v4h-4zM212 216h4v4h-4z"/><path fill="#B36810" d="M216 216h4v4h-4zM220 216h4v4h-4zM224 216h4v4h-4zM228 216h4v4h-4zM232 216h4v4h-4z"/><path fill="#65400B" d="M236 216h4v4h-4z"/><path fill="#B36810" d="M240 216h4v4h-4zM244 216h4v4h-4zM248 216h4v4h-4zM252 216h4v4h-4z"/><path fill="#BE7C2A" d="M256 216h4v4h-4zM260 216h4v4h-4z"/><path fill="#B36810" d="M264 216h4v4h-4z"/><path fill="#BE7C2A" d="M268 216h4v4h-4z"/><path fill="#B36810" d="M272 216h4v4h-4z"/><path fill="#65400B" d="M276 216h4v4h-4zM44 220h4v4h-4z"/><path fill="#E7A85F" d="M48 220h4v4h-4z"/><path fill="#BE7C2A" d="M52 220h4v4h-4zM56 220h4v4h-4zM60 220h4v4h-4zM64 220h4v4h-4zM68 220h4v4h-4zM72 220h4v4h-4zM76 220h4v4h-4zM80 220h4v4h-4zM84 220h4v4h-4zM88 220h4v4h-4zM92 220h4v4h-4z"/><path fill="#E69410" d="M96 220h4v4h-4zM100 220h4v4h-4zM104 220h4v4h-4z"/><path fill="#B36810" d="M108 220h4v4h-4zM112 220h4v4h-4zM116 220h4v4h-4z"/><path fill="#BE7C2A" d="M120 220h4v4h-4zM124 220h4v4h-4z"/><path fill="#B36810" d="M128 220h4v4h-4z"/><path fill="#65400B" d="M132 220h4v4h-4zM136 220h4v4h-4zM140 220h4v4h-4zM144 220h4v4h-4zM148 220h4v4h-4z"/><path fill="#E69410" d="M152 220h4v4h-4z"/><path fill="#BE7C2A" d="M156 220h4v4h-4zM160 220h4v4h-4zM164 220h4v4h-4z"/><path fill="#65400B" d="M168 220h4v4h-4zM172 220h4v4h-4zM176 220h4v4h-4zM180 220h4v4h-4zM184 220h4v4h-4zM188 220h4v4h-4zM192 220h4v4h-4z"/><path fill="#B36810" d="M196 220h4v4h-4zM200 220h4v4h-4zM204 220h4v4h-4zM208 220h4v4h-4zM212 220h4v4h-4zM216 220h4v4h-4zM220 220h4v4h-4zM224 220h4v4h-4zM228 220h4v4h-4z"/><path fill="#BE7C2A" d="M232 220h4v4h-4z"/><path fill="#E69410" d="M236 220h4v4h-4z"/><path fill="#B36810" d="M240 220h4v4h-4z"/><path fill="#FAC859" d="M244 220h4v4h-4zM248 220h4v4h-4zM252 220h4v4h-4zM256 220h4v4h-4zM260 220h4v4h-4zM264 220h4v4h-4z"/><path fill="#E69410" d="M268 220h4v4h-4z"/><path fill="#BE7C2A" d="M272 220h4v4h-4z"/><path fill="#65400B" d="M276 220h4v4h-4zM48 224h4v4h-4z"/><path fill="#BE7C2A" d="M52 224h4v4h-4zM56 224h4v4h-4zM60 224h4v4h-4zM64 224h4v4h-4zM68 224h4v4h-4zM72 224h4v4h-4zM76 224h4v4h-4zM80 224h4v4h-4zM84 224h4v4h-4zM88 224h4v4h-4zM92 224h4v4h-4z"/><path fill="#E69410" d="M96 224h4v4h-4zM100 224h4v4h-4z"/><path fill="#BE7C2A" d="M104 224h4v4h-4z"/><path fill="#B36810" d="M108 224h4v4h-4zM112 224h4v4h-4zM116 224h4v4h-4zM120 224h4v4h-4z"/><path fill="#BE7C2A" d="M124 224h4v4h-4zM128 224h4v4h-4z"/><path fill="#E69410" d="M132 224h4v4h-4z"/><path fill="#65400B" d="M136 224h4v4h-4zM140 224h4v4h-4zM144 224h4v4h-4z"/><path fill="#E69410" d="M148 224h4v4h-4z"/><path fill="#BE7C2A" d="M152 224h4v4h-4zM156 224h4v4h-4zM160 224h4v4h-4zM164 224h4v4h-4z"/><path fill="#E7A85F" d="M168 224h4v4h-4z"/><path fill="#65400B" d="M172 224h4v4h-4zM176 224h4v4h-4zM180 224h4v4h-4zM184 224h4v4h-4zM188 224h4v4h-4z"/><path fill="#B36810" d="M192 224h4v4h-4zM196 224h4v4h-4zM200 224h4v4h-4zM204 224h4v4h-4zM208 224h4v4h-4zM212 224h4v4h-4z"/><path fill="#BE7C2A" d="M216 224h4v4h-4z"/><path fill="#FAC859" d="M220 224h4v4h-4z"/><path fill="#E7A85F" d="M224 224h4v4h-4z"/><path fill="#BE7C2A" d="M228 224h4v4h-4z"/><path fill="#E7A85F" d="M232 224h4v4h-4z"/><path fill="#FDFD29" d="M236 224h4v4h-4z"/><path fill="#BE7C2A" d="M240 224h4v4h-4z"/><path fill="#FDFD29" d="M244 224h4v4h-4z"/><path fill="#E7A85F" d="M248 224h4v4h-4z"/><path fill="#65400B" d="M252 224h4v4h-4z"/><path fill="#FAC859" d="M256 224h4v4h-4z"/><path fill="#65400B" d="M260 224h4v4h-4zM264 224h4v4h-4z"/><path fill="#E7A85F" d="M268 224h4v4h-4zM272 224h4v4h-4z"/><path fill="#65400B" d="M276 224h4v4h-4zM52 228h4v4h-4z"/><path fill="#BE7C2A" d="M56 228h4v4h-4zM60 228h4v4h-4zM64 228h4v4h-4z"/><path fill="#E69410" d="M68 228h4v4h-4zM72 228h4v4h-4z"/><path fill="#BE7C2A" d="M76 228h4v4h-4zM80 228h4v4h-4zM84 228h4v4h-4zM88 228h4v4h-4zM92 228h4v4h-4z"/><path fill="#E69410" d="M96 228h4v4h-4zM100 228h4v4h-4z"/><path fill="#BE7C2A" d="M104 228h4v4h-4z"/><path fill="#B36810" d="M108 228h4v4h-4zM112 228h4v4h-4zM116 228h4v4h-4zM120 228h4v4h-4z"/><path fill="#BE7C2A" d="M124 228h4v4h-4zM128 228h4v4h-4zM132 228h4v4h-4z"/><path fill="#E69410" d="M136 228h4v4h-4zM140 228h4v4h-4zM144 228h4v4h-4z"/><path fill="#BE7C2A" d="M148 228h4v4h-4zM152 228h4v4h-4zM156 228h4v4h-4zM160 228h4v4h-4zM164 228h4v4h-4zM168 228h4v4h-4z"/><path fill="#65400B" d="M172 228h4v4h-4zM176 228h4v4h-4zM180 228h4v4h-4zM184 228h4v4h-4z"/><path fill="#BE7C2A" d="M188 228h4v4h-4z"/><path fill="#B36810" d="M192 228h4v4h-4z"/><path fill="#BE7C2A" d="M196 228h4v4h-4z"/><path fill="#E69410" d="M200 228h4v4h-4z"/><path fill="#B36810" d="M204 228h4v4h-4z"/><path fill="#BE7C2A" d="M208 228h4v4h-4zM212 228h4v4h-4zM216 228h4v4h-4z"/><path fill="#65400B" d="M220 228h4v4h-4z"/><path fill="#B36810" d="M224 228h4v4h-4z"/><path fill="#FAC859" d="M228 228h4v4h-4zM232 228h4v4h-4z"/><path fill="#65400B" d="M236 228h4v4h-4z"/><path fill="#FAC859" d="M240 228h4v4h-4z"/><path fill="#BE7C2A" d="M244 228h4v4h-4z"/><path fill="#FDFEAA" d="M248 228h4v4h-4zM252 228h4v4h-4zM256 228h4v4h-4z"/><path fill="#E7A85F" d="M260 228h4v4h-4z"/><path fill="#FDFEAA" d="M264 228h4v4h-4zM268 228h4v4h-4z"/><path fill="#FAC859" d="M272 228h4v4h-4z"/><path fill="#65400B" d="M276 228h4v4h-4zM52 232h4v4h-4z"/><path fill="#E7A85F" d="M56 232h4v4h-4z"/><path fill="#BE7C2A" d="M60 232h4v4h-4zM64 232h4v4h-4z"/><path fill="#E69410" d="M68 232h4v4h-4zM72 232h4v4h-4z"/><path fill="#BE7C2A" d="M76 232h4v4h-4zM80 232h4v4h-4zM84 232h4v4h-4zM88 232h4v4h-4zM92 232h4v4h-4z"/><path fill="#E69410" d="M96 232h4v4h-4zM100 232h4v4h-4z"/><path fill="#BE7C2A" d="M104 232h4v4h-4z"/><path fill="#B36810" d="M108 232h4v4h-4zM112 232h4v4h-4zM116 232h4v4h-4zM120 232h4v4h-4z"/><path fill="#BE7C2A" d="M124 232h4v4h-4zM128 232h4v4h-4zM132 232h4v4h-4z"/><path fill="#B36810" d="M136 232h4v4h-4z"/><path fill="#BE7C2A" d="M140 232h4v4h-4zM144 232h4v4h-4zM148 232h4v4h-4zM152 232h4v4h-4zM156 232h4v4h-4zM160 232h4v4h-4zM164 232h4v4h-4zM168 232h4v4h-4z"/><path fill="#65400B" d="M172 232h4v4h-4zM176 232h4v4h-4zM180 232h4v4h-4zM184 232h4v4h-4z"/><path fill="#B36810" d="M188 232h4v4h-4zM192 232h4v4h-4zM196 232h4v4h-4z"/><path fill="#FAC859" d="M200 232h4v4h-4z"/><path fill="#65400B" d="M204 232h4v4h-4zM208 232h4v4h-4z"/><path fill="#BE7C2A" d="M212 232h4v4h-4zM216 232h4v4h-4z"/><path fill="#65400B" d="M220 232h4v4h-4z"/><path fill="#BE7C2A" d="M224 232h4v4h-4z"/><path fill="#FAC859" d="M228 232h4v4h-4zM232 232h4v4h-4z"/><path fill="#65400B" d="M236 232h4v4h-4z"/><path fill="#FAC859" d="M240 232h4v4h-4z"/><path fill="#BE7C2A" d="M244 232h4v4h-4z"/><path fill="#FDFEAA" d="M248 232h4v4h-4zM252 232h4v4h-4z"/><path fill="#FDFD29" d="M256 232h4v4h-4z"/><path fill="#E7A85F" d="M260 232h4v4h-4z"/><path fill="#FDFEAA" d="M264 232h4v4h-4zM268 232h4v4h-4z"/><path fill="#E69410" d="M272 232h4v4h-4z"/><path fill="#65400B" d="M276 232h4v4h-4zM56 236h4v4h-4z"/><path fill="#E7A85F" d="M60 236h4v4h-4z"/><path fill="#BE7C2A" d="M64 236h4v4h-4z"/><path fill="#E69410" d="M68 236h4v4h-4zM72 236h4v4h-4z"/><path fill="#BE7C2A" d="M76 236h4v4h-4zM80 236h4v4h-4zM84 236h4v4h-4zM88 236h4v4h-4zM92 236h4v4h-4z"/><path fill="#E69410" d="M96 236h4v4h-4zM100 236h4v4h-4zM104 236h4v4h-4z"/><path fill="#BE7C2A" d="M108 236h4v4h-4z"/><path fill="#B36810" d="M112 236h4v4h-4zM116 236h4v4h-4z"/><path fill="#BE7C2A" d="M120 236h4v4h-4zM124 236h4v4h-4zM128 236h4v4h-4zM132 236h4v4h-4z"/><path fill="#B36810" d="M136 236h4v4h-4zM140 236h4v4h-4z"/><path fill="#BE7C2A" d="M144 236h4v4h-4zM148 236h4v4h-4zM152 236h4v4h-4zM156 236h4v4h-4zM160 236h4v4h-4zM164 236h4v4h-4zM168 236h4v4h-4z"/><path fill="#B36810" d="M172 236h4v4h-4z"/><path fill="#65400B" d="M176 236h4v4h-4zM180 236h4v4h-4zM184 236h4v4h-4z"/><path fill="#B36810" d="M188 236h4v4h-4zM192 236h4v4h-4zM196 236h4v4h-4z"/><path fill="#FAC859" d="M200 236h4v4h-4zM204 236h4v4h-4z"/><path fill="#65400B" d="M208 236h4v4h-4z"/><path fill="#BE7C2A" d="M212 236h4v4h-4zM216 236h4v4h-4z"/><path fill="#65400B" d="M220 236h4v4h-4z"/><path fill="#BE7C2A" d="M224 236h4v4h-4z"/><path fill="#FAC859" d="M228 236h4v4h-4zM232 236h4v4h-4z"/><path fill="#65400B" d="M236 236h4v4h-4z"/><path fill="#FAC859" d="M240 236h4v4h-4z"/><path fill="#65400B" d="M244 236h4v4h-4z"/><path fill="#E7A85F" d="M248 236h4v4h-4z"/><path fill="#FDFEAA" d="M252 236h4v4h-4z"/><path fill="#FAC859" d="M256 236h4v4h-4z"/><path fill="#65400B" d="M260 236h4v4h-4z"/><path fill="#FDFEAA" d="M264 236h4v4h-4zM268 236h4v4h-4z"/><path fill="#E7A85F" d="M272 236h4v4h-4z"/><path fill="#65400B" d="M276 236h4v4h-4zM60 240h4v4h-4z"/><path fill="#F0CEB5" d="M64 240h4v4h-4z"/><path fill="#BE7C2A" d="M68 240h4v4h-4zM72 240h4v4h-4zM76 240h4v4h-4zM80 240h4v4h-4zM84 240h4v4h-4zM88 240h4v4h-4zM92 240h4v4h-4zM96 240h4v4h-4zM100 240h4v4h-4z"/><path fill="#E69410" d="M104 240h4v4h-4z"/><path fill="#BE7C2A" d="M108 240h4v4h-4zM112 240h4v4h-4z"/><path fill="#B36810" d="M116 240h4v4h-4zM120 240h4v4h-4zM124 240h4v4h-4zM128 240h4v4h-4z"/><path fill="#E7A85F" d="M132 240h4v4h-4z"/><path fill="#B36810" d="M136 240h4v4h-4zM140 240h4v4h-4z"/><path fill="#BE7C2A" d="M144 240h4v4h-4zM148 240h4v4h-4zM152 240h4v4h-4zM156 240h4v4h-4zM160 240h4v4h-4zM164 240h4v4h-4zM168 240h4v4h-4z"/><path fill="#B36810" d="M172 240h4v4h-4zM176 240h4v4h-4z"/><path fill="#65400B" d="M180 240h4v4h-4z"/><path fill="#B36810" d="M184 240h4v4h-4zM188 240h4v4h-4zM192 240h4v4h-4z"/><path fill="#65400B" d="M196 240h4v4h-4z"/><path fill="#FAC859" d="M200 240h4v4h-4zM204 240h4v4h-4z"/><path fill="#65400B" d="M208 240h4v4h-4z"/><path fill="#B36810" d="M212 240h4v4h-4z"/><path fill="#BE7C2A" d="M216 240h4v4h-4z"/><path fill="#65400B" d="M220 240h4v4h-4zM224 240h4v4h-4z"/><path fill="#BE7C2A" d="M228 240h4v4h-4z"/><path fill="#65400B" d="M232 240h4v4h-4zM236 240h4v4h-4z"/><path fill="#BE7C2A" d="M240 240h4v4h-4z"/><path fill="#B36810" d="M244 240h4v4h-4zM248 240h4v4h-4zM252 240h4v4h-4zM256 240h4v4h-4zM260 240h4v4h-4zM264 240h4v4h-4zM268 240h4v4h-4z"/><path fill="#BE7C2A" d="M272 240h4v4h-4z"/><path fill="#65400B" d="M276 240h4v4h-4zM64 244h4v4h-4z"/><path fill="#BE7C2A" d="M68 244h4v4h-4z"/><path fill="#B36810" d="M72 244h4v4h-4zM76 244h4v4h-4zM80 244h4v4h-4zM84 244h4v4h-4z"/><path fill="#C74D05" d="M88 244h4v4h-4z"/><path fill="#B36810" d="M92 244h4v4h-4z"/><path fill="#BE7C2A" d="M96 244h4v4h-4zM100 244h4v4h-4z"/><path fill="#CC5F21" d="M104 244h4v4h-4z"/><path fill="#BE7C2A" d="M108 244h4v4h-4zM112 244h4v4h-4zM116 244h4v4h-4z"/><path fill="#B36810" d="M120 244h4v4h-4zM124 244h4v4h-4z"/><path fill="#BE7C2A" d="M128 244h4v4h-4z"/><path fill="#E7A85F" d="M132 244h4v4h-4z"/><path fill="#B36810" d="M136 244h4v4h-4z"/><path fill="#BE7C2A" d="M140 244h4v4h-4z"/><path fill="#E69410" d="M144 244h4v4h-4z"/><path fill="#BE7C2A" d="M148 244h4v4h-4zM152 244h4v4h-4z"/><path fill="#B36810" d="M156 244h4v4h-4z"/><path fill="#BE7C2A" d="M160 244h4v4h-4zM164 244h4v4h-4zM168 244h4v4h-4zM172 244h4v4h-4zM176 244h4v4h-4z"/><path fill="#E69410" d="M180 244h4v4h-4z"/><path fill="#CE961F" d="M184 244h4v4h-4z"/><path fill="#B36810" d="M188 244h4v4h-4z"/><path fill="#BE7C2A" d="M192 244h4v4h-4z"/><path fill="#B36810" d="M196 244h4v4h-4z"/><path fill="#65400B" d="M200 244h4v4h-4z"/><path fill="#B36810" d="M204 244h4v4h-4z"/><path fill="#65400B" d="M208 244h4v4h-4zM212 244h4v4h-4z"/><path fill="#B36810" d="M216 244h4v4h-4zM220 244h4v4h-4z"/><path fill="#BE7C2A" d="M224 244h4v4h-4z"/><path fill="#E69410" d="M228 244h4v4h-4z"/><path fill="#BE7C2A" d="M232 244h4v4h-4z"/><path fill="#E7A85F" d="M236 244h4v4h-4z"/><path fill="#B36810" d="M240 244h4v4h-4zM244 244h4v4h-4z"/><path fill="#BE7C2A" d="M248 244h4v4h-4z"/><path fill="#FAC859" d="M252 244h4v4h-4z"/><path fill="#E69410" d="M256 244h4v4h-4z"/><path fill="#FAC859" d="M260 244h4v4h-4z"/><path fill="#F6C83C" d="M264 244h4v4h-4z"/><path fill="#E69410" d="M268 244h4v4h-4z"/><path fill="#BE7C2A" d="M272 244h4v4h-4z"/><path fill="#65400B" d="M276 244h4v4h-4zM68 248h4v4h-4zM72 248h4v4h-4z"/><path fill="#B36810" d="M76 248h4v4h-4zM80 248h4v4h-4z"/><path fill="#BE7C2A" d="M84 248h4v4h-4zM88 248h4v4h-4zM92 248h4v4h-4zM96 248h4v4h-4zM100 248h4v4h-4z"/><path fill="#B36810" d="M104 248h4v4h-4zM108 248h4v4h-4zM112 248h4v4h-4z"/><path fill="#AA4B0D" d="M116 248h4v4h-4z"/><path fill="#A74B0E" d="M120 248h4v4h-4z"/><path fill="#B36810" d="M124 248h4v4h-4zM128 248h4v4h-4zM132 248h4v4h-4z"/><path fill="#BE7C2A" d="M136 248h4v4h-4z"/><path fill="#E69410" d="M140 248h4v4h-4z"/><path fill="#BE7C2A" d="M144 248h4v4h-4z"/><path fill="#FCC741" d="M148 248h4v4h-4z"/><path fill="#FEC136" d="M152 248h4v4h-4z"/><path fill="#E69410" d="M156 248h4v4h-4zM160 248h4v4h-4z"/><path fill="#FAC859" d="M164 248h4v4h-4zM168 248h4v4h-4zM172 248h4v4h-4z"/><path fill="#FDFD29" d="M176 248h4v4h-4z"/><path fill="#E69410" d="M180 248h4v4h-4z"/><path fill="#FAC859" d="M184 248h4v4h-4z"/><path fill="#BE7C2A" d="M188 248h4v4h-4zM192 248h4v4h-4zM196 248h4v4h-4z"/><path fill="#E69410" d="M200 248h4v4h-4z"/><path fill="#BE7C2A" d="M204 248h4v4h-4zM208 248h4v4h-4z"/><path fill="#E69410" d="M212 248h4v4h-4zM216 248h4v4h-4z"/><path fill="#BE7C2A" d="M220 248h4v4h-4zM224 248h4v4h-4z"/><path fill="#E69410" d="M228 248h4v4h-4z"/><path fill="#B36810" d="M232 248h4v4h-4z"/><path fill="#BE7C2A" d="M236 248h4v4h-4zM240 248h4v4h-4z"/><path fill="#FDFD29" d="M244 248h4v4h-4zM248 248h4v4h-4z"/><path fill="#FFFD88" d="M252 248h4v4h-4z"/><path fill="#FEFD83" d="M256 248h4v4h-4z"/><path fill="#FDFD29" d="M260 248h4v4h-4z"/><path fill="#FDFEAA" d="M264 248h4v4h-4z"/><path fill="#BE7C2A" d="M268 248h4v4h-4zM272 248h4v4h-4z"/><path fill="#65400B" d="M276 248h4v4h-4zM76 252h4v4h-4z"/><path fill="#BE9C80" d="M80 252h4v4h-4z"/><path fill="#B36810" d="M84 252h4v4h-4zM88 252h4v4h-4z"/><path fill="#BE7C2A" d="M92 252h4v4h-4zM96 252h4v4h-4z"/><path fill="#B36810" d="M100 252h4v4h-4zM104 252h4v4h-4zM108 252h4v4h-4zM112 252h4v4h-4z"/><path fill="#65400B" d="M116 252h4v4h-4zM120 252h4v4h-4z"/><path fill="#B36810" d="M124 252h4v4h-4z"/><path fill="#65400B" d="M128 252h4v4h-4z"/><path fill="#B36810" d="M132 252h4v4h-4z"/><path fill="#BE7C2A" d="M136 252h4v4h-4zM140 252h4v4h-4z"/><path fill="#B36810" d="M144 252h4v4h-4z"/><path fill="#FCC53F" d="M148 252h4v4h-4z"/><path fill="#FEC738" d="M152 252h4v4h-4z"/><path fill="#E69410" d="M156 252h4v4h-4zM160 252h4v4h-4z"/><path fill="#FAC859" d="M164 252h4v4h-4zM168 252h4v4h-4z"/><path fill="#FDC93C" d="M172 252h4v4h-4z"/><path fill="#E69410" d="M176 252h4v4h-4z"/><path fill="#BE7C2A" d="M180 252h4v4h-4zM184 252h4v4h-4zM188 252h4v4h-4zM192 252h4v4h-4zM196 252h4v4h-4zM200 252h4v4h-4z"/><path fill="#B36810" d="M204 252h4v4h-4zM208 252h4v4h-4zM212 252h4v4h-4z"/><path fill="#BE7C2A" d="M216 252h4v4h-4zM220 252h4v4h-4zM224 252h4v4h-4zM228 252h4v4h-4z"/><path fill="#B36810" d="M232 252h4v4h-4z"/><path fill="#E69410" d="M236 252h4v4h-4z"/><path fill="#BE7C2A" d="M240 252h4v4h-4z"/><path fill="#FDFD29" d="M244 252h4v4h-4z"/><path fill="#FEFE7D" d="M248 252h4v4h-4z"/><path fill="#FFFD91" d="M252 252h4v4h-4z"/><path fill="#FEFE8C" d="M256 252h4v4h-4z"/><path fill="#FDFD29" d="M260 252h4v4h-4z"/><path fill="#FDFEAA" d="M264 252h4v4h-4z"/><path fill="#B36810" d="M268 252h4v4h-4z"/><path fill="#BE7C2A" d="M272 252h4v4h-4z"/><path fill="#65400B" d="M276 252h4v4h-4zM80 256h4v4h-4zM84 256h4v4h-4zM88 256h4v4h-4zM92 256h4v4h-4z"/><path fill="#B36810" d="M96 256h4v4h-4z"/><path fill="#65400B" d="M100 256h4v4h-4zM104 256h4v4h-4zM108 256h4v4h-4zM112 256h4v4h-4zM116 256h4v4h-4zM120 256h4v4h-4z"/><path fill="#8C4830" d="M124 256h4v4h-4z"/><path fill="#844939" d="M128 256h4v4h-4z"/><path fill="#7E4935" d="M132 256h4v4h-4z"/><path fill="#65400B" d="M136 256h4v4h-4z"/><path fill="#BE7C2A" d="M140 256h4v4h-4zM144 256h4v4h-4z"/><path fill="#FAC859" d="M148 256h4v4h-4z"/><path fill="#BE7C2A" d="M152 256h4v4h-4z"/><path fill="#E69410" d="M156 256h4v4h-4zM160 256h4v4h-4zM164 256h4v4h-4zM168 256h4v4h-4zM172 256h4v4h-4zM176 256h4v4h-4z"/><path fill="#BE7C2A" d="M180 256h4v4h-4zM184 256h4v4h-4zM188 256h4v4h-4zM192 256h4v4h-4zM196 256h4v4h-4zM200 256h4v4h-4zM204 256h4v4h-4zM208 256h4v4h-4zM212 256h4v4h-4zM216 256h4v4h-4zM220 256h4v4h-4z"/><path fill="#B36810" d="M224 256h4v4h-4zM228 256h4v4h-4z"/><path fill="#BE7C2A" d="M232 256h4v4h-4z"/><path fill="#E69410" d="M236 256h4v4h-4zM240 256h4v4h-4z"/><path fill="#FDFD29" d="M244 256h4v4h-4zM248 256h4v4h-4z"/><path fill="#FAC859" d="M252 256h4v4h-4z"/><path fill="#FDFD29" d="M256 256h4v4h-4zM260 256h4v4h-4z"/><path fill="#FDFEAA" d="M264 256h4v4h-4z"/><path fill="#E69410" d="M268 256h4v4h-4z"/><path fill="#BE7C2A" d="M272 256h4v4h-4z"/><path fill="#CE9F62" d="M276 256h4v4h-4z"/><path fill="#65400B" d="M280 256h4v4h-4zM92 260h4v4h-4zM96 260h4v4h-4zM100 260h4v4h-4zM104 260h4v4h-4zM108 260h4v4h-4zM112 260h4v4h-4zM116 260h4v4h-4zM120 260h4v4h-4z"/><path fill="#2E1D03" d="M124 260h4v4h-4z"/><path fill="#0D0501" d="M128 260h4v4h-4z"/><path fill="#070200" d="M132 260h4v4h-4z"/><path fill="#090606" d="M136 260h4v4h-4z"/><path fill="#BE7C2A" d="M140 260h4v4h-4zM144 260h4v4h-4z"/><path fill="#FAC859" d="M148 260h4v4h-4z"/><path fill="#FDFD29" d="M152 260h4v4h-4z"/><path fill="#B36810" d="M156 260h4v4h-4z"/><path fill="#BE7C2A" d="M160 260h4v4h-4zM164 260h4v4h-4zM168 260h4v4h-4z"/><path fill="#B36810" d="M172 260h4v4h-4z"/><path fill="#BE7C2A" d="M176 260h4v4h-4zM180 260h4v4h-4zM184 260h4v4h-4zM188 260h4v4h-4zM192 260h4v4h-4zM196 260h4v4h-4zM200 260h4v4h-4zM204 260h4v4h-4zM208 260h4v4h-4zM212 260h4v4h-4zM216 260h4v4h-4z"/><path fill="#B36810" d="M220 260h4v4h-4zM224 260h4v4h-4z"/><path fill="#BE7C2A" d="M228 260h4v4h-4zM232 260h4v4h-4z"/><path fill="#E69410" d="M236 260h4v4h-4zM240 260h4v4h-4z"/><path fill="#FDFD29" d="M244 260h4v4h-4zM248 260h4v4h-4z"/><path fill="#FAC859" d="M252 260h4v4h-4zM256 260h4v4h-4z"/><path fill="#FDFD29" d="M260 260h4v4h-4z"/><path fill="#FFFD92" d="M264 260h4v4h-4z"/><path fill="#E69410" d="M268 260h4v4h-4z"/><path fill="#BE7C2A" d="M272 260h4v4h-4z"/><path fill="#CD9F51" d="M276 260h4v4h-4z"/><path fill="#65400B" d="M280 260h4v4h-4zM104 264h4v4h-4zM108 264h4v4h-4zM112 264h4v4h-4zM116 264h4v4h-4zM120 264h4v4h-4zM124 264h4v4h-4zM128 264h4v4h-4zM132 264h4v4h-4z"/><path fill="#2E1D03" d="M136 264h4v4h-4z"/><path fill="#65400B" d="M140 264h4v4h-4z"/><path fill="#BE7C2A" d="M144 264h4v4h-4z"/><path fill="#B36810" d="M148 264h4v4h-4zM152 264h4v4h-4z"/><path fill="#E69410" d="M156 264h4v4h-4z"/><path fill="#BE7C2A" d="M160 264h4v4h-4zM164 264h4v4h-4zM168 264h4v4h-4zM172 264h4v4h-4zM176 264h4v4h-4zM180 264h4v4h-4zM184 264h4v4h-4z"/><path fill="#B36810" d="M188 264h4v4h-4zM192 264h4v4h-4zM196 264h4v4h-4z"/><path fill="#BE7C2A" d="M200 264h4v4h-4zM204 264h4v4h-4zM208 264h4v4h-4zM212 264h4v4h-4zM216 264h4v4h-4z"/><path fill="#B36810" d="M220 264h4v4h-4zM224 264h4v4h-4zM228 264h4v4h-4zM232 264h4v4h-4zM236 264h4v4h-4z"/><path fill="#BE7C2A" d="M240 264h4v4h-4z"/><path fill="#E7A85F" d="M244 264h4v4h-4z"/><path fill="#FAC859" d="M248 264h4v4h-4z"/><path fill="#E69410" d="M252 264h4v4h-4z"/><path fill="#FAC859" d="M256 264h4v4h-4z"/><path fill="#E69410" d="M260 264h4v4h-4z"/><path fill="#FDFD29" d="M264 264h4v4h-4z"/><path fill="#E69410" d="M268 264h4v4h-4zM272 264h4v4h-4z"/><path fill="#BE7C2A" d="M276 264h4v4h-4z"/><path fill="#CDB690" d="M280 264h4v4h-4z"/><path fill="#65400B" d="M284 264h4v4h-4zM136 268h4v4h-4z"/><path fill="#2E1D03" d="M140 268h4v4h-4z"/><path fill="#BE7C2A" d="M144 268h4v4h-4zM148 268h4v4h-4zM152 268h4v4h-4zM156 268h4v4h-4zM160 268h4v4h-4z"/><path fill="#B36810" d="M164 268h4v4h-4zM168 268h4v4h-4z"/><path fill="#BE7C2A" d="M172 268h4v4h-4zM176 268h4v4h-4zM180 268h4v4h-4zM184 268h4v4h-4z"/><path fill="#B36810" d="M188 268h4v4h-4zM192 268h4v4h-4zM196 268h4v4h-4zM200 268h4v4h-4z"/><path fill="#BE7C2A" d="M204 268h4v4h-4zM208 268h4v4h-4zM212 268h4v4h-4zM216 268h4v4h-4zM220 268h4v4h-4z"/><path fill="#B36810" d="M224 268h4v4h-4zM228 268h4v4h-4zM232 268h4v4h-4zM236 268h4v4h-4zM240 268h4v4h-4zM244 268h4v4h-4z"/><path fill="#E69410" d="M248 268h4v4h-4zM252 268h4v4h-4z"/><path fill="#FAC859" d="M256 268h4v4h-4z"/><path fill="#E69410" d="M260 268h4v4h-4zM264 268h4v4h-4z"/><path fill="#FAC859" d="M268 268h4v4h-4z"/><path fill="#E69410" d="M272 268h4v4h-4z"/><path fill="#BE7C2A" d="M276 268h4v4h-4zM280 268h4v4h-4z"/><path fill="#65400B" d="M284 268h4v4h-4zM140 272h4v4h-4z"/><path fill="#464032" d="M144 272h4v4h-4z"/><path fill="#2E1D03" d="M148 272h4v4h-4zM152 272h4v4h-4zM156 272h4v4h-4zM160 272h4v4h-4zM164 272h4v4h-4zM168 272h4v4h-4z"/><path fill="#B36810" d="M172 272h4v4h-4zM176 272h4v4h-4zM180 272h4v4h-4zM184 272h4v4h-4z"/><path fill="#BE7C2A" d="M188 272h4v4h-4zM192 272h4v4h-4zM196 272h4v4h-4zM200 272h4v4h-4zM204 272h4v4h-4zM208 272h4v4h-4zM212 272h4v4h-4zM216 272h4v4h-4zM220 272h4v4h-4zM224 272h4v4h-4zM228 272h4v4h-4z"/><path fill="#B36810" d="M232 272h4v4h-4zM236 272h4v4h-4z"/><path fill="#E69410" d="M240 272h4v4h-4z"/><path fill="#FAC859" d="M244 272h4v4h-4zM248 272h4v4h-4z"/><path fill="#FDFD29" d="M252 272h4v4h-4zM256 272h4v4h-4z"/><path fill="#FDFEAA" d="M260 272h4v4h-4z"/><path fill="#FDFD29" d="M264 272h4v4h-4z"/><path fill="#FDFEAA" d="M268 272h4v4h-4z"/><path fill="#E7A85F" d="M272 272h4v4h-4z"/><path fill="#BE7C2A" d="M276 272h4v4h-4zM280 272h4v4h-4z"/><path fill="#65400B" d="M284 272h4v4h-4zM144 276h4v4h-4zM148 276h4v4h-4zM152 276h4v4h-4zM156 276h4v4h-4zM160 276h4v4h-4zM164 276h4v4h-4zM168 276h4v4h-4zM172 276h4v4h-4z"/><path fill="#2E1D03" d="M176 276h4v4h-4zM180 276h4v4h-4z"/><path fill="#65400B" d="M184 276h4v4h-4z"/><path fill="#B36810" d="M188 276h4v4h-4zM192 276h4v4h-4z"/><path fill="#BE7C2A" d="M196 276h4v4h-4zM200 276h4v4h-4zM204 276h4v4h-4zM208 276h4v4h-4zM212 276h4v4h-4zM216 276h4v4h-4zM220 276h4v4h-4zM224 276h4v4h-4zM228 276h4v4h-4zM232 276h4v4h-4zM236 276h4v4h-4z"/><path fill="#E7A85F" d="M240 276h4v4h-4z"/><path fill="#FDE28E" d="M244 276h4v4h-4z"/><path fill="#FDFD29" d="M248 276h4v4h-4z"/><path fill="#FDFEAA" d="M252 276h4v4h-4z"/><path fill="#FAC859" d="M256 276h4v4h-4z"/><path fill="#FDFD29" d="M260 276h4v4h-4z"/><path fill="#E7A85F" d="M264 276h4v4h-4zM268 276h4v4h-4z"/><path fill="#65400B" d="M272 276h4v4h-4zM276 276h4v4h-4z"/><path fill="#8F7A65" d="M280 276h4v4h-4z"/><path fill="#65400B" d="M284 276h4v4h-4zM176 280h4v4h-4zM180 280h4v4h-4zM184 280h4v4h-4zM188 280h4v4h-4zM192 280h4v4h-4zM196 280h4v4h-4zM200 280h4v4h-4zM204 280h4v4h-4z"/><path fill="#605A51" d="M208 280h4v4h-4z"/><path fill="#424130" d="M212 280h4v4h-4z"/><path fill="#593E30" d="M216 280h4v4h-4z"/><path fill="#65400B" d="M220 280h4v4h-4zM224 280h4v4h-4z"/><path fill="#726644" d="M228 280h4v4h-4z"/><path fill="#65400B" d="M232 280h4v4h-4z"/><path fill="#BE7C2A" d="M236 280h4v4h-4zM240 280h4v4h-4z"/><path fill="#65400B" d="M244 280h4v4h-4z"/><path fill="#675842" d="M248 280h4v4h-4z"/><path fill="#65400B" d="M252 280h4v4h-4z"/><path fill="#3F3B33" d="M256 280h4v4h-4z"/><path fill="#4E4B40" d="M260 280h4v4h-4z"/><path fill="#58554D" d="M264 280h4v4h-4z"/><path fill="#65400B" d="M268 280h4v4h-4zM272 280h4v4h-4zM276 280h4v4h-4zM280 280h4v4h-4zM208 284h4v4h-4zM212 284h4v4h-4zM216 284h4v4h-4zM220 284h4v4h-4zM224 284h4v4h-4zM228 284h4v4h-4zM232 284h4v4h-4zM236 284h4v4h-4zM240 284h4v4h-4zM244 284h4v4h-4zM248 284h4v4h-4zM252 284h4v4h-4zM256 284h4v4h-4zM260 284h4v4h-4zM264 284h4v4h-4z"/></svg>