<svg width="384" height="384" xmlns="http://www.w3.org/2000/svg" shape-rendering="crispEdges"><path fill="#D6F5FF" d="M48 36h4v4h-4zM52 36h4v4h-4zM108 36h4v4h-4zM48 40h4v4h-4z"/><path fill="#7AE8FF" d="M52 40h4v4h-4z"/><path fill="#D6F5FF" d="M56 40h4v4h-4zM104 40h4v4h-4zM108 40h4v4h-4zM48 44h4v4h-4z"/><path fill="#7AE8FF" d="M52 44h4v4h-4zM56 44h4v4h-4z"/><path fill="#D6F5FF" d="M60 44h4v4h-4zM64 44h4v4h-4zM100 44h4v4h-4z"/><path fill="#91D7FF" d="M104 44h4v4h-4z"/><path fill="#D6F5FF" d="M108 44h4v4h-4zM48 48h4v4h-4z"/><path fill="#7AE8FF" d="M52 48h4v4h-4z"/><path fill="#91D7FF" d="M56 48h4v4h-4z"/><path fill="#7AE8FF" d="M60 48h4v4h-4zM64 48h4v4h-4z"/><path fill="#D6F5FF" d="M68 48h4v4h-4zM96 48h4v4h-4z"/><path fill="#91D7FF" d="M100 48h4v4h-4z"/><path fill="#7AE8FF" d="M104 48h4v4h-4z"/><path fill="#D6F5FF" d="M108 48h4v4h-4zM48 52h4v4h-4z"/><path fill="#7AE8FF" d="M52 52h4v4h-4zM56 52h4v4h-4z"/><path fill="#91D7FF" d="M60 52h4v4h-4zM64 52h4v4h-4z"/><path fill="#7AE8FF" d="M68 52h4v4h-4z"/><path fill="#D6F5FF" d="M72 52h4v4h-4zM76 52h4v4h-4zM84 52h4v4h-4zM88 52h4v4h-4zM92 52h4v4h-4z"/><path fill="#91D7FF" d="M96 52h4v4h-4z"/><path fill="#7AE8FF" d="M100 52h4v4h-4zM104 52h4v4h-4z"/><path fill="#D6F5FF" d="M108 52h4v4h-4zM48 56h4v4h-4z"/><path fill="#7AE8FF" d="M52 56h4v4h-4zM56 56h4v4h-4zM60 56h4v4h-4z"/><path fill="#91D7FF" d="M64 56h4v4h-4zM68 56h4v4h-4z"/><path fill="#7AE8FF" d="M72 56h4v4h-4zM76 56h4v4h-4z"/><path fill="#D6F5FF" d="M80 56h4v4h-4z"/><path fill="#BDFBFF" d="M84 56h4v4h-4z"/><path fill="#91D7FF" d="M88 56h4v4h-4zM92 56h4v4h-4z"/><path fill="#4AD3FF" d="M96 56h4v4h-4zM100 56h4v4h-4z"/><path fill="#BDFBFF" d="M104 56h4v4h-4z"/><path fill="#D6F5FF" d="M108 56h4v4h-4zM48 60h4v4h-4z"/><path fill="#7AE8FF" d="M52 60h4v4h-4z"/><path fill="#91D7FF" d="M56 60h4v4h-4z"/><path fill="#7AE8FF" d="M60 60h4v4h-4z"/><path fill="#91D7FF" d="M64 60h4v4h-4z"/><path fill="#BDFBFF" d="M68 60h4v4h-4z"/><path fill="#91D7FF" d="M72 60h4v4h-4zM76 60h4v4h-4z"/><path fill="#7AE8FF" d="M80 60h4v4h-4z"/><path fill="#91D7FF" d="M84 60h4v4h-4z"/><path fill="#BDFBFF" d="M88 60h4v4h-4z"/><path fill="#91D7FF" d="M92 60h4v4h-4zM96 60h4v4h-4zM100 60h4v4h-4z"/><path fill="#7AE8FF" d="M104 60h4v4h-4zM108 60h4v4h-4z"/><path fill="#D6F5FF" d="M112 60h4v4h-4zM48 64h4v4h-4z"/><path fill="#7AE8FF" d="M52 64h4v4h-4z"/><path fill="#BDFBFF" d="M56 64h4v4h-4z"/><path fill="#7AE8FF" d="M60 64h4v4h-4zM64 64h4v4h-4z"/><path fill="#91D7FF" d="M68 64h4v4h-4z"/><path fill="#BDFBFF" d="M72 64h4v4h-4zM76 64h4v4h-4z"/><path fill="#91D7FF" d="M80 64h4v4h-4z"/><path fill="#7AE8FF" d="M84 64h4v4h-4z"/><path fill="#BDFBFF" d="M88 64h4v4h-4z"/><path fill="#7AE8FF" d="M92 64h4v4h-4z"/><path fill="#91D7FF" d="M96 64h4v4h-4z"/><path fill="#BDFBFF" d="M100 64h4v4h-4z"/><path fill="#91D7FF" d="M104 64h4v4h-4zM108 64h4v4h-4z"/><path fill="#7AE8FF" d="M112 64h4v4h-4z"/><path fill="#D6F5FF" d="M116 64h4v4h-4zM48 68h4v4h-4z"/><path fill="#7AE8FF" d="M52 68h4v4h-4z"/><path fill="#BDFBFF" d="M56 68h4v4h-4z"/><path fill="#7AE8FF" d="M60 68h4v4h-4zM64 68h4v4h-4z"/><path fill="#91D7FF" d="M68 68h4v4h-4zM72 68h4v4h-4z"/><path fill="#F9FDFF" d="M76 68h4v4h-4z"/><path fill="#91D7FF" d="M80 68h4v4h-4z"/><path fill="#7AE8FF" d="M84 68h4v4h-4z"/><path fill="#BDFBFF" d="M88 68h4v4h-4z"/><path fill="#7AE8FF" d="M92 68h4v4h-4z"/><path fill="#91D7FF" d="M96 68h4v4h-4z"/><path fill="#BDFBFF" d="M100 68h4v4h-4zM104 68h4v4h-4z"/><path fill="#91D7FF" d="M108 68h4v4h-4z"/><path fill="#7AE8FF" d="M112 68h4v4h-4z"/><path fill="#D6F5FF" d="M116 68h4v4h-4zM152 68h4v4h-4zM156 68h4v4h-4zM48 72h4v4h-4z"/><path fill="#7AE8FF" d="M52 72h4v4h-4z"/><path fill="#BDFBFF" d="M56 72h4v4h-4z"/><path fill="#91D7FF" d="M60 72h4v4h-4z"/><path fill="#4AD3FF" d="M64 72h4v4h-4zM68 72h4v4h-4z"/><path fill="#91D7FF" d="M72 72h4v4h-4z"/><path fill="#F9FDFF" d="M76 72h4v4h-4z"/><path fill="#4AD3FF" d="M80 72h4v4h-4zM84 72h4v4h-4z"/><path fill="#BDFBFF" d="M88 72h4v4h-4z"/><path fill="#7AE8FF" d="M92 72h4v4h-4z"/><path fill="#91D7FF" d="M96 72h4v4h-4z"/><path fill="#BDFBFF" d="M100 72h4v4h-4zM104 72h4v4h-4zM108 72h4v4h-4z"/><path fill="#91D7FF" d="M112 72h4v4h-4z"/><path fill="#7AE8FF" d="M116 72h4v4h-4z"/><path fill="#D6F5FF" d="M120 72h4v4h-4zM148 72h4v4h-4z"/><path fill="#91D7FF" d="M152 72h4v4h-4z"/><path fill="#D6F5FF" d="M156 72h4v4h-4zM48 76h4v4h-4z"/><path fill="#7AE8FF" d="M52 76h4v4h-4z"/><path fill="#BDFBFF" d="M56 76h4v4h-4zM60 76h4v4h-4z"/><path fill="#91D7FF" d="M64 76h4v4h-4z"/><path fill="#4AD3FF" d="M68 76h4v4h-4zM72 76h4v4h-4zM76 76h4v4h-4zM80 76h4v4h-4zM84 76h4v4h-4z"/><path fill="#F9FDFF" d="M88 76h4v4h-4z"/><path fill="#7AE8FF" d="M92 76h4v4h-4z"/><path fill="#91D7FF" d="M96 76h4v4h-4z"/><path fill="#BDFBFF" d="M100 76h4v4h-4zM104 76h4v4h-4zM108 76h4v4h-4z"/><path fill="#91D7FF" d="M112 76h4v4h-4z"/><path fill="#7AE8FF" d="M116 76h4v4h-4z"/><path fill="#D6F5FF" d="M120 76h4v4h-4zM144 76h4v4h-4z"/><path fill="#91D7FF" d="M148 76h4v4h-4z"/><path fill="#7AE8FF" d="M152 76h4v4h-4z"/><path fill="#D6F5FF" d="M156 76h4v4h-4zM28 80h4v4h-4zM32 80h4v4h-4zM36 80h4v4h-4zM40 80h4v4h-4zM44 80h4v4h-4z"/><path fill="#BDFBFF" d="M48 80h4v4h-4z"/><path fill="#91D7FF" d="M52 80h4v4h-4z"/><path fill="#7AE8FF" d="M56 80h4v4h-4z"/><path fill="#BDFBFF" d="M60 80h4v4h-4zM64 80h4v4h-4zM68 80h4v4h-4z"/><path fill="#91D7FF" d="M72 80h4v4h-4z"/><path fill="#4AD3FF" d="M76 80h4v4h-4zM80 80h4v4h-4z"/><path fill="#91D7FF" d="M84 80h4v4h-4z"/><path fill="#F9FDFF" d="M88 80h4v4h-4z"/><path fill="#7AE8FF" d="M92 80h4v4h-4z"/><path fill="#91D7FF" d="M96 80h4v4h-4zM100 80h4v4h-4z"/><path fill="#BDFBFF" d="M104 80h4v4h-4zM108 80h4v4h-4z"/><path fill="#91D7FF" d="M112 80h4v4h-4zM116 80h4v4h-4z"/><path fill="#7AE8FF" d="M120 80h4v4h-4z"/><path fill="#D6F5FF" d="M124 80h4v4h-4zM128 80h4v4h-4zM132 80h4v4h-4zM140 80h4v4h-4z"/><path fill="#91D7FF" d="M144 80h4v4h-4z"/><path fill="#7AE8FF" d="M148 80h4v4h-4zM152 80h4v4h-4z"/><path fill="#D6F5FF" d="M156 80h4v4h-4zM28 84h4v4h-4z"/><path fill="#91D7FF" d="M32 84h4v4h-4zM36 84h4v4h-4zM40 84h4v4h-4zM44 84h4v4h-4z"/><path fill="#BDFBFF" d="M48 84h4v4h-4zM52 84h4v4h-4z"/><path fill="#91D7FF" d="M56 84h4v4h-4z"/><path fill="#4AD3FF" d="M60 84h4v4h-4zM64 84h4v4h-4zM68 84h4v4h-4zM72 84h4v4h-4zM76 84h4v4h-4z"/><path fill="#91D7FF" d="M80 84h4v4h-4z"/><path fill="#F9FDFF" d="M84 84h4v4h-4zM88 84h4v4h-4z"/><path fill="#4AD3FF" d="M92 84h4v4h-4z"/><path fill="#91D7FF" d="M96 84h4v4h-4zM100 84h4v4h-4zM104 84h4v4h-4z"/><path fill="#BDFBFF" d="M108 84h4v4h-4z"/><path fill="#91D7FF" d="M112 84h4v4h-4zM116 84h4v4h-4z"/><path fill="#7AE8FF" d="M120 84h4v4h-4z"/><path fill="#BDFBFF" d="M124 84h4v4h-4z"/><path fill="#7AE8FF" d="M128 84h4v4h-4zM132 84h4v4h-4z"/><path fill="#D6F5FF" d="M136 84h4v4h-4z"/><path fill="#BDFBFF" d="M140 84h4v4h-4zM144 84h4v4h-4z"/><path fill="#7AE8FF" d="M148 84h4v4h-4zM152 84h4v4h-4z"/><path fill="#D6F5FF" d="M156 84h4v4h-4zM32 88h4v4h-4z"/><path fill="#7AE8FF" d="M36 88h4v4h-4zM40 88h4v4h-4z"/><path fill="#BDFBFF" d="M44 88h4v4h-4z"/><path fill="#7AE8FF" d="M48 88h4v4h-4z"/><path fill="#BDFBFF" d="M52 88h4v4h-4zM56 88h4v4h-4zM60 88h4v4h-4zM64 88h4v4h-4zM68 88h4v4h-4zM72 88h4v4h-4zM76 88h4v4h-4zM80 88h4v4h-4zM84 88h4v4h-4z"/><path fill="#4AD3FF" d="M88 88h4v4h-4zM92 88h4v4h-4zM96 88h4v4h-4zM100 88h4v4h-4z"/><path fill="#91D7FF" d="M104 88h4v4h-4zM108 88h4v4h-4zM112 88h4v4h-4z"/><path fill="#4AD3FF" d="M116 88h4v4h-4zM120 88h4v4h-4z"/><path fill="#BDFBFF" d="M124 88h4v4h-4z"/><path fill="#7AE8FF" d="M128 88h4v4h-4z"/><path fill="#91D7FF" d="M132 88h4v4h-4z"/><path fill="#7AE8FF" d="M136 88h4v4h-4zM140 88h4v4h-4zM144 88h4v4h-4z"/><path fill="#BDFBFF" d="M148 88h4v4h-4zM152 88h4v4h-4z"/><path fill="#D6F5FF" d="M156 88h4v4h-4zM36 92h4v4h-4z"/><path fill="#7AE8FF" d="M40 92h4v4h-4z"/><path fill="#BDFBFF" d="M44 92h4v4h-4z"/><path fill="#91D7FF" d="M48 92h4v4h-4z"/><path fill="#7AE8FF" d="M52 92h4v4h-4z"/><path fill="#BDFBFF" d="M56 92h4v4h-4zM60 92h4v4h-4zM64 92h4v4h-4zM68 92h4v4h-4zM72 92h4v4h-4zM76 92h4v4h-4z"/><path fill="#91D7FF" d="M80 92h4v4h-4z"/><path fill="#4AD3FF" d="M84 92h4v4h-4zM88 92h4v4h-4z"/><path fill="#91D7FF" d="M92 92h4v4h-4zM96 92h4v4h-4zM100 92h4v4h-4z"/><path fill="#4AD3FF" d="M104 92h4v4h-4z"/><path fill="#91D7FF" d="M108 92h4v4h-4zM112 92h4v4h-4z"/><path fill="#4AD3FF" d="M116 92h4v4h-4zM120 92h4v4h-4z"/><path fill="#BDFBFF" d="M124 92h4v4h-4z"/><path fill="#7AE8FF" d="M128 92h4v4h-4z"/><path fill="#91D7FF" d="M132 92h4v4h-4zM136 92h4v4h-4zM140 92h4v4h-4zM144 92h4v4h-4z"/><path fill="#7AE8FF" d="M148 92h4v4h-4zM152 92h4v4h-4z"/><path fill="#D6F5FF" d="M156 92h4v4h-4zM40 96h4v4h-4z"/><path fill="#BDFBFF" d="M44 96h4v4h-4z"/><path fill="#91D7FF" d="M48 96h4v4h-4zM52 96h4v4h-4z"/><path fill="#7AE8FF" d="M56 96h4v4h-4zM60 96h4v4h-4zM64 96h4v4h-4z"/><path fill="#4AD3FF" d="M68 96h4v4h-4zM72 96h4v4h-4zM76 96h4v4h-4zM80 96h4v4h-4zM84 96h4v4h-4z"/><path fill="#91D7FF" d="M88 96h4v4h-4z"/><path fill="#4AD3FF" d="M92 96h4v4h-4zM96 96h4v4h-4zM100 96h4v4h-4z"/><path fill="#91D7FF" d="M104 96h4v4h-4z"/><path fill="#4AD3FF" d="M108 96h4v4h-4z"/><path fill="#91D7FF" d="M112 96h4v4h-4z"/><path fill="#4AD3FF" d="M116 96h4v4h-4z"/><path fill="#BDFBFF" d="M120 96h4v4h-4z"/><path fill="#91D7FF" d="M124 96h4v4h-4z"/><path fill="#7AE8FF" d="M128 96h4v4h-4z"/><path fill="#91D7FF" d="M132 96h4v4h-4zM136 96h4v4h-4z"/><path fill="#BDFBFF" d="M140 96h4v4h-4z"/><path fill="#91D7FF" d="M144 96h4v4h-4zM148 96h4v4h-4z"/><path fill="#7AE8FF" d="M152 96h4v4h-4zM156 96h4v4h-4z"/><path fill="#D6F5FF" d="M160 96h4v4h-4zM204 96h4v4h-4zM208 96h4v4h-4zM44 100h4v4h-4z"/><path fill="#91D7FF" d="M48 100h4v4h-4zM52 100h4v4h-4zM56 100h4v4h-4zM60 100h4v4h-4zM64 100h4v4h-4z"/><path fill="#4AD3FF" d="M68 100h4v4h-4z"/><path fill="#91D7FF" d="M72 100h4v4h-4z"/><path fill="#BDFBFF" d="M76 100h4v4h-4z"/><path fill="#4AD3FF" d="M80 100h4v4h-4z"/><path fill="#7AE8FF" d="M84 100h4v4h-4z"/><path fill="#4AD3FF" d="M88 100h4v4h-4zM92 100h4v4h-4zM96 100h4v4h-4zM100 100h4v4h-4zM104 100h4v4h-4z"/><path fill="#F9FDFF" d="M108 100h4v4h-4z"/><path fill="#4AD3FF" d="M112 100h4v4h-4zM116 100h4v4h-4z"/><path fill="#BDFBFF" d="M120 100h4v4h-4z"/><path fill="#7AE8FF" d="M124 100h4v4h-4zM128 100h4v4h-4z"/><path fill="#91D7FF" d="M132 100h4v4h-4zM136 100h4v4h-4z"/><path fill="#BDFBFF" d="M140 100h4v4h-4zM144 100h4v4h-4z"/><path fill="#91D7FF" d="M148 100h4v4h-4zM152 100h4v4h-4z"/><path fill="#7AE8FF" d="M156 100h4v4h-4zM160 100h4v4h-4z"/><path fill="#D6F5FF" d="M164 100h4v4h-4zM196 100h4v4h-4zM200 100h4v4h-4z"/><path fill="#91D7FF" d="M204 100h4v4h-4z"/><path fill="#D6F5FF" d="M208 100h4v4h-4zM44 104h4v4h-4z"/><path fill="#91D7FF" d="M48 104h4v4h-4zM52 104h4v4h-4z"/><path fill="#7AE8FF" d="M56 104h4v4h-4zM60 104h4v4h-4z"/><path fill="#91D7FF" d="M64 104h4v4h-4z"/><path fill="#BDFBFF" d="M68 104h4v4h-4zM72 104h4v4h-4zM76 104h4v4h-4z"/><path fill="#4AD3FF" d="M80 104h4v4h-4z"/><path fill="#91D7FF" d="M84 104h4v4h-4z"/><path fill="#7AE8FF" d="M88 104h4v4h-4z"/><path fill="#4AD3FF" d="M92 104h4v4h-4zM96 104h4v4h-4zM100 104h4v4h-4z"/><path fill="#7AE8FF" d="M104 104h4v4h-4z"/><path fill="#F9FDFF" d="M108 104h4v4h-4z"/><path fill="#4AD3FF" d="M112 104h4v4h-4zM116 104h4v4h-4z"/><path fill="#BDFBFF" d="M120 104h4v4h-4z"/><path fill="#7AE8FF" d="M124 104h4v4h-4z"/><path fill="#91D7FF" d="M128 104h4v4h-4zM132 104h4v4h-4z"/><path fill="#BDFBFF" d="M136 104h4v4h-4zM140 104h4v4h-4z"/><path fill="#F9FDFF" d="M144 104h4v4h-4z"/><path fill="#BDFBFF" d="M148 104h4v4h-4z"/><path fill="#91D7FF" d="M152 104h4v4h-4zM156 104h4v4h-4z"/><path fill="#7AE8FF" d="M160 104h4v4h-4zM164 104h4v4h-4z"/><path fill="#D6F5FF" d="M168 104h4v4h-4zM172 104h4v4h-4zM176 104h4v4h-4zM188 104h4v4h-4zM192 104h4v4h-4z"/><path fill="#BDFBFF" d="M196 104h4v4h-4z"/><path fill="#91D7FF" d="M200 104h4v4h-4z"/><path fill="#7AE8FF" d="M204 104h4v4h-4z"/><path fill="#D6F5FF" d="M208 104h4v4h-4zM44 108h4v4h-4z"/><path fill="#91D7FF" d="M48 108h4v4h-4zM52 108h4v4h-4z"/><path fill="#7AE8FF" d="M56 108h4v4h-4z"/><path fill="#4AD3FF" d="M60 108h4v4h-4z"/><path fill="#BDFBFF" d="M64 108h4v4h-4zM68 108h4v4h-4zM72 108h4v4h-4z"/><path fill="#4AD3FF" d="M76 108h4v4h-4zM80 108h4v4h-4z"/><path fill="#91D7FF" d="M84 108h4v4h-4z"/><path fill="#7AE8FF" d="M88 108h4v4h-4zM92 108h4v4h-4zM96 108h4v4h-4z"/><path fill="#BDFBFF" d="M100 108h4v4h-4z"/><path fill="#7AE8FF" d="M104 108h4v4h-4z"/><path fill="#BDFBFF" d="M108 108h4v4h-4z"/><path fill="#4AD3FF" d="M112 108h4v4h-4z"/><path fill="#BDFBFF" d="M116 108h4v4h-4z"/><path fill="#91D7FF" d="M120 108h4v4h-4z"/><path fill="#4AD3FF" d="M124 108h4v4h-4z"/><path fill="#91D7FF" d="M128 108h4v4h-4zM132 108h4v4h-4z"/><path fill="#BDFBFF" d="M136 108h4v4h-4zM140 108h4v4h-4z"/><path fill="#F9FDFF" d="M144 108h4v4h-4zM148 108h4v4h-4z"/><path fill="#BDFBFF" d="M152 108h4v4h-4z"/><path fill="#91D7FF" d="M156 108h4v4h-4z"/><path fill="#7AE8FF" d="M160 108h4v4h-4zM164 108h4v4h-4z"/><path fill="#BDFBFF" d="M168 108h4v4h-4z"/><path fill="#7AE8FF" d="M172 108h4v4h-4zM176 108h4v4h-4z"/><path fill="#D6F5FF" d="M180 108h4v4h-4zM184 108h4v4h-4z"/><path fill="#BDFBFF" d="M188 108h4v4h-4zM192 108h4v4h-4z"/><path fill="#91D7FF" d="M196 108h4v4h-4z"/><path fill="#7AE8FF" d="M200 108h4v4h-4zM204 108h4v4h-4z"/><path fill="#D6F5FF" d="M208 108h4v4h-4zM44 112h4v4h-4z"/><path fill="#7AE8FF" d="M48 112h4v4h-4z"/><path fill="#91D7FF" d="M52 112h4v4h-4z"/><path fill="#7AE8FF" d="M56 112h4v4h-4z"/><path fill="#4AD3FF" d="M60 112h4v4h-4z"/><path fill="#BDFBFF" d="M64 112h4v4h-4zM68 112h4v4h-4zM72 112h4v4h-4z"/><path fill="#4AD3FF" d="M76 112h4v4h-4zM80 112h4v4h-4zM84 112h4v4h-4z"/><path fill="#91D7FF" d="M88 112h4v4h-4z"/><path fill="#7AE8FF" d="M92 112h4v4h-4zM96 112h4v4h-4zM100 112h4v4h-4z"/><path fill="#BDFBFF" d="M104 112h4v4h-4z"/><path fill="#4AD3FF" d="M108 112h4v4h-4zM112 112h4v4h-4z"/><path fill="#BDFBFF" d="M116 112h4v4h-4z"/><path fill="#4AD3FF" d="M120 112h4v4h-4zM124 112h4v4h-4z"/><path fill="#91D7FF" d="M128 112h4v4h-4z"/><path fill="#BDFBFF" d="M132 112h4v4h-4z"/><path fill="#91D7FF" d="M136 112h4v4h-4z"/><path fill="#BDFBFF" d="M140 112h4v4h-4zM144 112h4v4h-4z"/><path fill="#F9FDFF" d="M148 112h4v4h-4z"/><path fill="#BDFBFF" d="M152 112h4v4h-4z"/><path fill="#91D7FF" d="M156 112h4v4h-4z"/><path fill="#7AE8FF" d="M160 112h4v4h-4zM164 112h4v4h-4z"/><path fill="#BDFBFF" d="M168 112h4v4h-4z"/><path fill="#7AE8FF" d="M172 112h4v4h-4z"/><path fill="#91D7FF" d="M176 112h4v4h-4z"/><path fill="#7AE8FF" d="M180 112h4v4h-4z"/><path fill="#BDFBFF" d="M184 112h4v4h-4zM188 112h4v4h-4z"/><path fill="#91D7FF" d="M192 112h4v4h-4zM196 112h4v4h-4z"/><path fill="#7AE8FF" d="M200 112h4v4h-4zM204 112h4v4h-4z"/><path fill="#D6F5FF" d="M208 112h4v4h-4zM44 116h4v4h-4z"/><path fill="#BDFBFF" d="M48 116h4v4h-4z"/><path fill="#7AE8FF" d="M52 116h4v4h-4z"/><path fill="#91D7FF" d="M56 116h4v4h-4z"/><path fill="#4AD3FF" d="M60 116h4v4h-4z"/><path fill="#BDFBFF" d="M64 116h4v4h-4zM68 116h4v4h-4zM72 116h4v4h-4z"/><path fill="#91D7FF" d="M76 116h4v4h-4z"/><path fill="#4AD3FF" d="M80 116h4v4h-4zM84 116h4v4h-4zM88 116h4v4h-4z"/><path fill="#BDFBFF" d="M92 116h4v4h-4zM96 116h4v4h-4zM100 116h4v4h-4z"/><path fill="#4AD3FF" d="M104 116h4v4h-4zM108 116h4v4h-4z"/><path fill="#BDFBFF" d="M112 116h4v4h-4z"/><path fill="#91D7FF" d="M116 116h4v4h-4z"/><path fill="#4AD3FF" d="M120 116h4v4h-4z"/><path fill="#91D7FF" d="M124 116h4v4h-4zM128 116h4v4h-4zM132 116h4v4h-4zM136 116h4v4h-4zM140 116h4v4h-4z"/><path fill="#BDFBFF" d="M144 116h4v4h-4zM148 116h4v4h-4zM152 116h4v4h-4z"/><path fill="#91D7FF" d="M156 116h4v4h-4z"/><path fill="#7AE8FF" d="M160 116h4v4h-4zM164 116h4v4h-4z"/><path fill="#BDFBFF" d="M168 116h4v4h-4z"/><path fill="#7AE8FF" d="M172 116h4v4h-4z"/><path fill="#91D7FF" d="M176 116h4v4h-4zM180 116h4v4h-4z"/><path fill="#BDFBFF" d="M184 116h4v4h-4z"/><path fill="#91D7FF" d="M188 116h4v4h-4z"/><path fill="#7AE8FF" d="M192 116h4v4h-4z"/><path fill="#4AD3FF" d="M196 116h4v4h-4z"/><path fill="#7AE8FF" d="M200 116h4v4h-4zM204 116h4v4h-4z"/><path fill="#D6F5FF" d="M208 116h4v4h-4zM48 120h4v4h-4z"/><path fill="#BDFBFF" d="M52 120h4v4h-4z"/><path fill="#7AE8FF" d="M56 120h4v4h-4z"/><path fill="#4AD3FF" d="M60 120h4v4h-4z"/><path fill="#91D7FF" d="M64 120h4v4h-4z"/><path fill="#BDFBFF" d="M68 120h4v4h-4zM72 120h4v4h-4zM76 120h4v4h-4z"/><path fill="#91D7FF" d="M80 120h4v4h-4z"/><path fill="#4AD3FF" d="M84 120h4v4h-4zM88 120h4v4h-4zM92 120h4v4h-4zM96 120h4v4h-4zM100 120h4v4h-4z"/><path fill="#91D7FF" d="M104 120h4v4h-4z"/><path fill="#BDFBFF" d="M108 120h4v4h-4z"/><path fill="#91D7FF" d="M112 120h4v4h-4z"/><path fill="#4AD3FF" d="M116 120h4v4h-4z"/><path fill="#91D7FF" d="M120 120h4v4h-4zM124 120h4v4h-4zM128 120h4v4h-4z"/><path fill="#4AD3FF" d="M132 120h4v4h-4zM136 120h4v4h-4z"/><path fill="#91D7FF" d="M140 120h4v4h-4zM144 120h4v4h-4zM148 120h4v4h-4z"/><path fill="#BDFBFF" d="M152 120h4v4h-4z"/><path fill="#91D7FF" d="M156 120h4v4h-4z"/><path fill="#4AD3FF" d="M160 120h4v4h-4z"/><path fill="#7AE8FF" d="M164 120h4v4h-4z"/><path fill="#BDFBFF" d="M168 120h4v4h-4z"/><path fill="#7AE8FF" d="M172 120h4v4h-4z"/><path fill="#91D7FF" d="M176 120h4v4h-4zM180 120h4v4h-4z"/><path fill="#BDFBFF" d="M184 120h4v4h-4z"/><path fill="#91D7FF" d="M188 120h4v4h-4z"/><path fill="#7AE8FF" d="M192 120h4v4h-4z"/><path fill="#4AD3FF" d="M196 120h4v4h-4zM200 120h4v4h-4z"/><path fill="#7AE8FF" d="M204 120h4v4h-4z"/><path fill="#D6F5FF" d="M208 120h4v4h-4zM252 120h4v4h-4zM256 120h4v4h-4zM52 124h4v4h-4z"/><path fill="#BDFBFF" d="M56 124h4v4h-4zM60 124h4v4h-4z"/><path fill="#4AD3FF" d="M64 124h4v4h-4zM68 124h4v4h-4z"/><path fill="#91D7FF" d="M72 124h4v4h-4z"/><path fill="#BDFBFF" d="M76 124h4v4h-4zM80 124h4v4h-4z"/><path fill="#91D7FF" d="M84 124h4v4h-4zM88 124h4v4h-4z"/><path fill="#4AD3FF" d="M92 124h4v4h-4zM96 124h4v4h-4z"/><path fill="#BDFBFF" d="M100 124h4v4h-4zM104 124h4v4h-4z"/><path fill="#4AD3FF" d="M108 124h4v4h-4zM112 124h4v4h-4z"/><path fill="#91D7FF" d="M116 124h4v4h-4zM120 124h4v4h-4zM124 124h4v4h-4z"/><path fill="#4AD3FF" d="M128 124h4v4h-4zM132 124h4v4h-4zM136 124h4v4h-4zM140 124h4v4h-4zM144 124h4v4h-4z"/><path fill="#91D7FF" d="M148 124h4v4h-4zM152 124h4v4h-4zM156 124h4v4h-4z"/><path fill="#4AD3FF" d="M160 124h4v4h-4z"/><path fill="#7AE8FF" d="M164 124h4v4h-4z"/><path fill="#BDFBFF" d="M168 124h4v4h-4z"/><path fill="#7AE8FF" d="M172 124h4v4h-4z"/><path fill="#91D7FF" d="M176 124h4v4h-4zM180 124h4v4h-4z"/><path fill="#BDFBFF" d="M184 124h4v4h-4zM188 124h4v4h-4z"/><path fill="#91D7FF" d="M192 124h4v4h-4z"/><path fill="#7AE8FF" d="M196 124h4v4h-4z"/><path fill="#4AD3FF" d="M200 124h4v4h-4z"/><path fill="#7AE8FF" d="M204 124h4v4h-4z"/><path fill="#D6F5FF" d="M208 124h4v4h-4zM248 124h4v4h-4z"/><path fill="#7AE8FF" d="M252 124h4v4h-4z"/><path fill="#D6F5FF" d="M256 124h4v4h-4zM52 128h4v4h-4z"/><path fill="#BDFBFF" d="M56 128h4v4h-4zM60 128h4v4h-4zM64 128h4v4h-4zM68 128h4v4h-4z"/><path fill="#4AD3FF" d="M72 128h4v4h-4zM76 128h4v4h-4zM80 128h4v4h-4zM84 128h4v4h-4zM88 128h4v4h-4z"/><path fill="#BDFBFF" d="M92 128h4v4h-4zM96 128h4v4h-4z"/><path fill="#91D7FF" d="M100 128h4v4h-4z"/><path fill="#4AD3FF" d="M104 128h4v4h-4zM108 128h4v4h-4z"/><path fill="#91D7FF" d="M112 128h4v4h-4zM116 128h4v4h-4zM120 128h4v4h-4z"/><path fill="#4AD3FF" d="M124 128h4v4h-4zM128 128h4v4h-4z"/><path fill="#91D7FF" d="M132 128h4v4h-4zM136 128h4v4h-4z"/><path fill="#4AD3FF" d="M140 128h4v4h-4zM144 128h4v4h-4zM148 128h4v4h-4z"/><path fill="#91D7FF" d="M152 128h4v4h-4zM156 128h4v4h-4z"/><path fill="#4AD3FF" d="M160 128h4v4h-4z"/><path fill="#7AE8FF" d="M164 128h4v4h-4z"/><path fill="#BDFBFF" d="M168 128h4v4h-4z"/><path fill="#7AE8FF" d="M172 128h4v4h-4z"/><path fill="#91D7FF" d="M176 128h4v4h-4zM180 128h4v4h-4z"/><path fill="#BDFBFF" d="M184 128h4v4h-4zM188 128h4v4h-4zM192 128h4v4h-4zM196 128h4v4h-4z"/><path fill="#7AE8FF" d="M200 128h4v4h-4z"/><path fill="#BDFBFF" d="M204 128h4v4h-4z"/><path fill="#7AE8FF" d="M208 128h4v4h-4z"/><path fill="#D6F5FF" d="M212 128h4v4h-4zM244 128h4v4h-4z"/><path fill="#91D7FF" d="M248 128h4v4h-4z"/><path fill="#7AE8FF" d="M252 128h4v4h-4z"/><path fill="#D6F5FF" d="M256 128h4v4h-4zM48 132h4v4h-4z"/><path fill="#7AE8FF" d="M52 132h4v4h-4z"/><path fill="#BDFBFF" d="M56 132h4v4h-4zM60 132h4v4h-4zM64 132h4v4h-4zM68 132h4v4h-4zM72 132h4v4h-4zM76 132h4v4h-4zM80 132h4v4h-4zM84 132h4v4h-4zM88 132h4v4h-4z"/><path fill="#91D7FF" d="M92 132h4v4h-4z"/><path fill="#4AD3FF" d="M96 132h4v4h-4zM100 132h4v4h-4zM104 132h4v4h-4z"/><path fill="#91D7FF" d="M108 132h4v4h-4zM112 132h4v4h-4zM116 132h4v4h-4z"/><path fill="#4AD3FF" d="M120 132h4v4h-4zM124 132h4v4h-4z"/><path fill="#91D7FF" d="M128 132h4v4h-4z"/><path fill="#BDFBFF" d="M132 132h4v4h-4zM136 132h4v4h-4z"/><path fill="#91D7FF" d="M140 132h4v4h-4zM144 132h4v4h-4z"/><path fill="#4AD3FF" d="M148 132h4v4h-4zM152 132h4v4h-4z"/><path fill="#91D7FF" d="M156 132h4v4h-4z"/><path fill="#4AD3FF" d="M160 132h4v4h-4z"/><path fill="#BDFBFF" d="M164 132h4v4h-4z"/><path fill="#91D7FF" d="M168 132h4v4h-4z"/><path fill="#4AD3FF" d="M172 132h4v4h-4z"/><path fill="#91D7FF" d="M176 132h4v4h-4zM180 132h4v4h-4z"/><path fill="#BDFBFF" d="M184 132h4v4h-4zM188 132h4v4h-4zM192 132h4v4h-4zM196 132h4v4h-4zM200 132h4v4h-4z"/><path fill="#91D7FF" d="M204 132h4v4h-4z"/><path fill="#7AE8FF" d="M208 132h4v4h-4zM212 132h4v4h-4z"/><path fill="#D6F5FF" d="M216 132h4v4h-4zM220 132h4v4h-4zM224 132h4v4h-4zM228 132h4v4h-4zM240 132h4v4h-4z"/><path fill="#91D7FF" d="M244 132h4v4h-4z"/><path fill="#7AE8FF" d="M248 132h4v4h-4zM252 132h4v4h-4z"/><path fill="#D6F5FF" d="M256 132h4v4h-4zM48 136h4v4h-4z"/><path fill="#91D7FF" d="M52 136h4v4h-4z"/><path fill="#7AE8FF" d="M56 136h4v4h-4z"/><path fill="#BDFBFF" d="M60 136h4v4h-4zM64 136h4v4h-4zM68 136h4v4h-4zM72 136h4v4h-4zM76 136h4v4h-4zM80 136h4v4h-4z"/><path fill="#91D7FF" d="M84 136h4v4h-4z"/><path fill="#4AD3FF" d="M88 136h4v4h-4zM92 136h4v4h-4zM96 136h4v4h-4zM100 136h4v4h-4z"/><path fill="#91D7FF" d="M104 136h4v4h-4zM108 136h4v4h-4z"/><path fill="#4AD3FF" d="M112 136h4v4h-4zM116 136h4v4h-4zM120 136h4v4h-4z"/><path fill="#91D7FF" d="M124 136h4v4h-4z"/><path fill="#BDFBFF" d="M128 136h4v4h-4zM132 136h4v4h-4zM136 136h4v4h-4zM140 136h4v4h-4z"/><path fill="#91D7FF" d="M144 136h4v4h-4zM148 136h4v4h-4z"/><path fill="#4AD3FF" d="M152 136h4v4h-4zM156 136h4v4h-4zM160 136h4v4h-4z"/><path fill="#BDFBFF" d="M164 136h4v4h-4z"/><path fill="#4AD3FF" d="M168 136h4v4h-4zM172 136h4v4h-4z"/><path fill="#91D7FF" d="M176 136h4v4h-4zM180 136h4v4h-4z"/><path fill="#BDFBFF" d="M184 136h4v4h-4zM188 136h4v4h-4zM192 136h4v4h-4zM196 136h4v4h-4zM200 136h4v4h-4z"/><path fill="#91D7FF" d="M204 136h4v4h-4zM208 136h4v4h-4z"/><path fill="#7AE8FF" d="M212 136h4v4h-4z"/><path fill="#BDFBFF" d="M216 136h4v4h-4z"/><path fill="#7AE8FF" d="M220 136h4v4h-4zM224 136h4v4h-4zM228 136h4v4h-4z"/><path fill="#D6F5FF" d="M232 136h4v4h-4zM236 136h4v4h-4z"/><path fill="#91D7FF" d="M240 136h4v4h-4z"/><path fill="#7AE8FF" d="M244 136h4v4h-4zM248 136h4v4h-4zM252 136h4v4h-4z"/><path fill="#D6F5FF" d="M256 136h4v4h-4zM48 140h4v4h-4z"/><path fill="#91D7FF" d="M52 140h4v4h-4zM56 140h4v4h-4z"/><path fill="#7AE8FF" d="M60 140h4v4h-4zM64 140h4v4h-4zM68 140h4v4h-4zM72 140h4v4h-4zM76 140h4v4h-4z"/><path fill="#4AD3FF" d="M80 140h4v4h-4zM84 140h4v4h-4z"/><path fill="#BDFBFF" d="M88 140h4v4h-4zM92 140h4v4h-4z"/><path fill="#91D7FF" d="M96 140h4v4h-4zM100 140h4v4h-4z"/><path fill="#4AD3FF" d="M104 140h4v4h-4zM108 140h4v4h-4zM112 140h4v4h-4zM116 140h4v4h-4z"/><path fill="#91D7FF" d="M120 140h4v4h-4z"/><path fill="#BDFBFF" d="M124 140h4v4h-4zM128 140h4v4h-4z"/><path fill="#F9FDFF" d="M132 140h4v4h-4zM136 140h4v4h-4z"/><path fill="#BDFBFF" d="M140 140h4v4h-4z"/><path fill="#91D7FF" d="M144 140h4v4h-4zM148 140h4v4h-4zM152 140h4v4h-4z"/><path fill="#4AD3FF" d="M156 140h4v4h-4zM160 140h4v4h-4z"/><path fill="#BDFBFF" d="M164 140h4v4h-4z"/><path fill="#4AD3FF" d="M168 140h4v4h-4z"/><path fill="#91D7FF" d="M172 140h4v4h-4zM176 140h4v4h-4z"/><path fill="#BDFBFF" d="M180 140h4v4h-4zM184 140h4v4h-4zM188 140h4v4h-4zM192 140h4v4h-4zM196 140h4v4h-4zM200 140h4v4h-4zM204 140h4v4h-4z"/><path fill="#91D7FF" d="M208 140h4v4h-4z"/><path fill="#7AE8FF" d="M212 140h4v4h-4z"/><path fill="#BDFBFF" d="M216 140h4v4h-4z"/><path fill="#7AE8FF" d="M220 140h4v4h-4z"/><path fill="#91D7FF" d="M224 140h4v4h-4zM228 140h4v4h-4z"/><path fill="#7AE8FF" d="M232 140h4v4h-4zM236 140h4v4h-4z"/><path fill="#BDFBFF" d="M240 140h4v4h-4z"/><path fill="#91D7FF" d="M244 140h4v4h-4z"/><path fill="#7AE8FF" d="M248 140h4v4h-4zM252 140h4v4h-4z"/><path fill="#D6F5FF" d="M256 140h4v4h-4zM48 144h4v4h-4z"/><path fill="#91D7FF" d="M52 144h4v4h-4zM56 144h4v4h-4zM60 144h4v4h-4zM64 144h4v4h-4zM68 144h4v4h-4zM72 144h4v4h-4z"/><path fill="#4AD3FF" d="M76 144h4v4h-4z"/><path fill="#BDFBFF" d="M80 144h4v4h-4zM84 144h4v4h-4z"/><path fill="#91D7FF" d="M88 144h4v4h-4z"/><path fill="#4AD3FF" d="M92 144h4v4h-4zM96 144h4v4h-4zM100 144h4v4h-4zM104 144h4v4h-4zM108 144h4v4h-4zM112 144h4v4h-4zM116 144h4v4h-4z"/><path fill="#91D7FF" d="M120 144h4v4h-4z"/><path fill="#BDFBFF" d="M124 144h4v4h-4zM128 144h4v4h-4zM132 144h4v4h-4zM136 144h4v4h-4zM140 144h4v4h-4z"/><path fill="#91D7FF" d="M144 144h4v4h-4zM148 144h4v4h-4zM152 144h4v4h-4z"/><path fill="#4AD3FF" d="M156 144h4v4h-4zM160 144h4v4h-4z"/><path fill="#BDFBFF" d="M164 144h4v4h-4z"/><path fill="#4AD3FF" d="M168 144h4v4h-4z"/><path fill="#91D7FF" d="M172 144h4v4h-4zM176 144h4v4h-4z"/><path fill="#BDFBFF" d="M180 144h4v4h-4zM184 144h4v4h-4zM188 144h4v4h-4zM192 144h4v4h-4zM196 144h4v4h-4zM200 144h4v4h-4zM204 144h4v4h-4z"/><path fill="#91D7FF" d="M208 144h4v4h-4z"/><path fill="#7AE8FF" d="M212 144h4v4h-4zM216 144h4v4h-4z"/><path fill="#BDFBFF" d="M220 144h4v4h-4z"/><path fill="#7AE8FF" d="M224 144h4v4h-4z"/><path fill="#91D7FF" d="M228 144h4v4h-4zM232 144h4v4h-4zM236 144h4v4h-4z"/><path fill="#7AE8FF" d="M240 144h4v4h-4z"/><path fill="#4AD3FF" d="M244 144h4v4h-4zM248 144h4v4h-4z"/><path fill="#91D7FF" d="M252 144h4v4h-4z"/><path fill="#D6F5FF" d="M256 144h4v4h-4zM44 148h4v4h-4z"/><path fill="#91D7FF" d="M48 148h4v4h-4z"/><path fill="#BDFBFF" d="M52 148h4v4h-4z"/><path fill="#91D7FF" d="M56 148h4v4h-4zM60 148h4v4h-4z"/><path fill="#7AE8FF" d="M64 148h4v4h-4z"/><path fill="#BDFBFF" d="M68 148h4v4h-4zM72 148h4v4h-4zM76 148h4v4h-4zM80 148h4v4h-4z"/><path fill="#91D7FF" d="M84 148h4v4h-4z"/><path fill="#4AD3FF" d="M88 148h4v4h-4zM92 148h4v4h-4zM96 148h4v4h-4zM100 148h4v4h-4zM104 148h4v4h-4z"/><path fill="#7AE8FF" d="M108 148h4v4h-4z"/><path fill="#91D7FF" d="M112 148h4v4h-4z"/><path fill="#4AD3FF" d="M116 148h4v4h-4z"/><path fill="#91D7FF" d="M120 148h4v4h-4zM124 148h4v4h-4z"/><path fill="#BDFBFF" d="M128 148h4v4h-4zM132 148h4v4h-4zM136 148h4v4h-4zM140 148h4v4h-4z"/><path fill="#91D7FF" d="M144 148h4v4h-4zM148 148h4v4h-4z"/><path fill="#4AD3FF" d="M152 148h4v4h-4zM156 148h4v4h-4z"/><path fill="#BDFBFF" d="M160 148h4v4h-4z"/><path fill="#91D7FF" d="M164 148h4v4h-4z"/><path fill="#4AD3FF" d="M168 148h4v4h-4z"/><path fill="#91D7FF" d="M172 148h4v4h-4zM176 148h4v4h-4zM180 148h4v4h-4zM184 148h4v4h-4z"/><path fill="#BDFBFF" d="M188 148h4v4h-4zM192 148h4v4h-4zM196 148h4v4h-4zM200 148h4v4h-4zM204 148h4v4h-4z"/><path fill="#91D7FF" d="M208 148h4v4h-4zM212 148h4v4h-4z"/><path fill="#7AE8FF" d="M216 148h4v4h-4z"/><path fill="#BDFBFF" d="M220 148h4v4h-4z"/><path fill="#7AE8FF" d="M224 148h4v4h-4z"/><path fill="#91D7FF" d="M228 148h4v4h-4z"/><path fill="#BDFBFF" d="M232 148h4v4h-4zM236 148h4v4h-4z"/><path fill="#91D7FF" d="M240 148h4v4h-4zM244 148h4v4h-4z"/><path fill="#7AE8FF" d="M248 148h4v4h-4z"/><path fill="#4AD3FF" d="M252 148h4v4h-4z"/><path fill="#D6F5FF" d="M256 148h4v4h-4zM40 152h4v4h-4z"/><path fill="#91D7FF" d="M44 152h4v4h-4z"/><path fill="#7AE8FF" d="M48 152h4v4h-4z"/><path fill="#BDFBFF" d="M52 152h4v4h-4z"/><path fill="#91D7FF" d="M56 152h4v4h-4z"/><path fill="#7AE8FF" d="M60 152h4v4h-4z"/><path fill="#BDFBFF" d="M64 152h4v4h-4zM68 152h4v4h-4zM72 152h4v4h-4zM76 152h4v4h-4z"/><path fill="#91D7FF" d="M80 152h4v4h-4z"/><path fill="#4AD3FF" d="M84 152h4v4h-4zM88 152h4v4h-4zM92 152h4v4h-4zM96 152h4v4h-4z"/><path fill="#91D7FF" d="M100 152h4v4h-4z"/><path fill="#4AD3FF" d="M104 152h4v4h-4zM108 152h4v4h-4zM112 152h4v4h-4z"/><path fill="#91D7FF" d="M116 152h4v4h-4z"/><path fill="#4AD3FF" d="M120 152h4v4h-4z"/><path fill="#91D7FF" d="M124 152h4v4h-4zM128 152h4v4h-4z"/><path fill="#BDFBFF" d="M132 152h4v4h-4zM136 152h4v4h-4z"/><path fill="#91D7FF" d="M140 152h4v4h-4zM144 152h4v4h-4zM148 152h4v4h-4z"/><path fill="#4AD3FF" d="M152 152h4v4h-4zM156 152h4v4h-4z"/><path fill="#BDFBFF" d="M160 152h4v4h-4z"/><path fill="#4AD3FF" d="M164 152h4v4h-4zM168 152h4v4h-4z"/><path fill="#91D7FF" d="M172 152h4v4h-4z"/><path fill="#4AD3FF" d="M176 152h4v4h-4zM180 152h4v4h-4z"/><path fill="#91D7FF" d="M184 152h4v4h-4zM188 152h4v4h-4zM192 152h4v4h-4z"/><path fill="#BDFBFF" d="M196 152h4v4h-4zM200 152h4v4h-4zM204 152h4v4h-4z"/><path fill="#91D7FF" d="M208 152h4v4h-4zM212 152h4v4h-4z"/><path fill="#7AE8FF" d="M216 152h4v4h-4z"/><path fill="#BDFBFF" d="M220 152h4v4h-4z"/><path fill="#7AE8FF" d="M224 152h4v4h-4z"/><path fill="#91D7FF" d="M228 152h4v4h-4zM232 152h4v4h-4z"/><path fill="#BDFBFF" d="M236 152h4v4h-4zM240 152h4v4h-4zM244 152h4v4h-4z"/><path fill="#91D7FF" d="M248 152h4v4h-4zM252 152h4v4h-4z"/><path fill="#7AE8FF" d="M256 152h4v4h-4z"/><path fill="#D6F5FF" d="M260 152h4v4h-4zM288 152h4v4h-4zM292 152h4v4h-4zM296 152h4v4h-4zM300 152h4v4h-4zM36 156h4v4h-4z"/><path fill="#91D7FF" d="M40 156h4v4h-4z"/><path fill="#7AE8FF" d="M44 156h4v4h-4zM48 156h4v4h-4z"/><path fill="#BDFBFF" d="M52 156h4v4h-4z"/><path fill="#91D7FF" d="M56 156h4v4h-4z"/><path fill="#7AE8FF" d="M60 156h4v4h-4z"/><path fill="#BDFBFF" d="M64 156h4v4h-4zM68 156h4v4h-4zM72 156h4v4h-4zM76 156h4v4h-4z"/><path fill="#4AD3FF" d="M80 156h4v4h-4zM84 156h4v4h-4zM88 156h4v4h-4zM92 156h4v4h-4z"/><path fill="#91D7FF" d="M96 156h4v4h-4z"/><path fill="#4AD3FF" d="M100 156h4v4h-4zM104 156h4v4h-4zM108 156h4v4h-4zM112 156h4v4h-4z"/><path fill="#7AE8FF" d="M116 156h4v4h-4z"/><path fill="#F9FDFF" d="M120 156h4v4h-4z"/><path fill="#4AD3FF" d="M124 156h4v4h-4z"/><path fill="#91D7FF" d="M128 156h4v4h-4zM132 156h4v4h-4zM136 156h4v4h-4zM140 156h4v4h-4zM144 156h4v4h-4z"/><path fill="#4AD3FF" d="M148 156h4v4h-4zM152 156h4v4h-4z"/><path fill="#BDFBFF" d="M156 156h4v4h-4z"/><path fill="#91D7FF" d="M160 156h4v4h-4z"/><path fill="#4AD3FF" d="M164 156h4v4h-4z"/><path fill="#91D7FF" d="M168 156h4v4h-4zM172 156h4v4h-4z"/><path fill="#4AD3FF" d="M176 156h4v4h-4zM180 156h4v4h-4zM184 156h4v4h-4zM188 156h4v4h-4z"/><path fill="#91D7FF" d="M192 156h4v4h-4zM196 156h4v4h-4zM200 156h4v4h-4z"/><path fill="#BDFBFF" d="M204 156h4v4h-4z"/><path fill="#91D7FF" d="M208 156h4v4h-4zM212 156h4v4h-4z"/><path fill="#7AE8FF" d="M216 156h4v4h-4z"/><path fill="#BDFBFF" d="M220 156h4v4h-4z"/><path fill="#7AE8FF" d="M224 156h4v4h-4z"/><path fill="#91D7FF" d="M228 156h4v4h-4zM232 156h4v4h-4z"/><path fill="#BDFBFF" d="M236 156h4v4h-4zM240 156h4v4h-4zM244 156h4v4h-4zM248 156h4v4h-4zM252 156h4v4h-4z"/><path fill="#91D7FF" d="M256 156h4v4h-4z"/><path fill="#7AE8FF" d="M260 156h4v4h-4z"/><path fill="#D6F5FF" d="M264 156h4v4h-4zM276 156h4v4h-4zM280 156h4v4h-4zM284 156h4v4h-4z"/><path fill="#91D7FF" d="M288 156h4v4h-4zM292 156h4v4h-4zM296 156h4v4h-4z"/><path fill="#D6F5FF" d="M300 156h4v4h-4zM36 160h4v4h-4zM40 160h4v4h-4zM44 160h4v4h-4zM48 160h4v4h-4zM52 160h4v4h-4z"/><path fill="#91D7FF" d="M56 160h4v4h-4z"/><path fill="#7AE8FF" d="M60 160h4v4h-4z"/><path fill="#BDFBFF" d="M64 160h4v4h-4zM68 160h4v4h-4zM72 160h4v4h-4zM76 160h4v4h-4z"/><path fill="#4AD3FF" d="M80 160h4v4h-4zM84 160h4v4h-4zM88 160h4v4h-4zM92 160h4v4h-4z"/><path fill="#BDFBFF" d="M96 160h4v4h-4z"/><path fill="#7AE8FF" d="M100 160h4v4h-4z"/><path fill="#4AD3FF" d="M104 160h4v4h-4zM108 160h4v4h-4z"/><path fill="#7AE8FF" d="M112 160h4v4h-4zM116 160h4v4h-4z"/><path fill="#F9FDFF" d="M120 160h4v4h-4z"/><path fill="#4AD3FF" d="M124 160h4v4h-4z"/><path fill="#91D7FF" d="M128 160h4v4h-4zM132 160h4v4h-4zM136 160h4v4h-4zM140 160h4v4h-4z"/><path fill="#4AD3FF" d="M144 160h4v4h-4zM148 160h4v4h-4z"/><path fill="#BDFBFF" d="M152 160h4v4h-4z"/><path fill="#91D7FF" d="M156 160h4v4h-4z"/><path fill="#4AD3FF" d="M160 160h4v4h-4zM164 160h4v4h-4z"/><path fill="#91D7FF" d="M168 160h4v4h-4z"/><path fill="#BDFBFF" d="M172 160h4v4h-4z"/><path fill="#91D7FF" d="M176 160h4v4h-4zM180 160h4v4h-4z"/><path fill="#4AD3FF" d="M184 160h4v4h-4zM188 160h4v4h-4zM192 160h4v4h-4zM196 160h4v4h-4z"/><path fill="#91D7FF" d="M200 160h4v4h-4zM204 160h4v4h-4zM208 160h4v4h-4zM212 160h4v4h-4z"/><path fill="#4AD3FF" d="M216 160h4v4h-4z"/><path fill="#BDFBFF" d="M220 160h4v4h-4z"/><path fill="#4AD3FF" d="M224 160h4v4h-4z"/><path fill="#91D7FF" d="M228 160h4v4h-4zM232 160h4v4h-4z"/><path fill="#BDFBFF" d="M236 160h4v4h-4zM240 160h4v4h-4zM244 160h4v4h-4zM248 160h4v4h-4zM252 160h4v4h-4zM256 160h4v4h-4z"/><path fill="#91D7FF" d="M260 160h4v4h-4z"/><path fill="#7AE8FF" d="M264 160h4v4h-4z"/><path fill="#D6F5FF" d="M268 160h4v4h-4zM272 160h4v4h-4z"/><path fill="#91D7FF" d="M276 160h4v4h-4zM280 160h4v4h-4zM284 160h4v4h-4z"/><path fill="#7AE8FF" d="M288 160h4v4h-4zM292 160h4v4h-4z"/><path fill="#D6F5FF" d="M296 160h4v4h-4zM56 164h4v4h-4z"/><path fill="#91D7FF" d="M60 164h4v4h-4z"/><path fill="#BDFBFF" d="M64 164h4v4h-4zM68 164h4v4h-4zM72 164h4v4h-4zM76 164h4v4h-4z"/><path fill="#91D7FF" d="M80 164h4v4h-4z"/><path fill="#4AD3FF" d="M84 164h4v4h-4zM88 164h4v4h-4zM92 164h4v4h-4z"/><path fill="#BDFBFF" d="M96 164h4v4h-4z"/><path fill="#7AE8FF" d="M100 164h4v4h-4zM104 164h4v4h-4z"/><path fill="#BDFBFF" d="M108 164h4v4h-4z"/><path fill="#7AE8FF" d="M112 164h4v4h-4zM116 164h4v4h-4z"/><path fill="#BDFBFF" d="M120 164h4v4h-4z"/><path fill="#4AD3FF" d="M124 164h4v4h-4z"/><path fill="#91D7FF" d="M128 164h4v4h-4zM132 164h4v4h-4z"/><path fill="#7AE8FF" d="M136 164h4v4h-4z"/><path fill="#4AD3FF" d="M140 164h4v4h-4zM144 164h4v4h-4z"/><path fill="#BDFBFF" d="M148 164h4v4h-4z"/><path fill="#91D7FF" d="M152 164h4v4h-4z"/><path fill="#4AD3FF" d="M156 164h4v4h-4zM160 164h4v4h-4z"/><path fill="#91D7FF" d="M164 164h4v4h-4z"/><path fill="#BDFBFF" d="M168 164h4v4h-4zM172 164h4v4h-4zM176 164h4v4h-4zM180 164h4v4h-4z"/><path fill="#91D7FF" d="M184 164h4v4h-4zM188 164h4v4h-4z"/><path fill="#4AD3FF" d="M192 164h4v4h-4zM196 164h4v4h-4zM200 164h4v4h-4z"/><path fill="#91D7FF" d="M204 164h4v4h-4zM208 164h4v4h-4zM212 164h4v4h-4z"/><path fill="#4AD3FF" d="M216 164h4v4h-4z"/><path fill="#BDFBFF" d="M220 164h4v4h-4z"/><path fill="#4AD3FF" d="M224 164h4v4h-4z"/><path fill="#91D7FF" d="M228 164h4v4h-4zM232 164h4v4h-4z"/><path fill="#BDFBFF" d="M236 164h4v4h-4zM240 164h4v4h-4zM244 164h4v4h-4zM248 164h4v4h-4zM252 164h4v4h-4zM256 164h4v4h-4z"/><path fill="#91D7FF" d="M260 164h4v4h-4zM264 164h4v4h-4z"/><path fill="#7AE8FF" d="M268 164h4v4h-4z"/><path fill="#BDFBFF" d="M272 164h4v4h-4z"/><path fill="#91D7FF" d="M276 164h4v4h-4z"/><path fill="#7AE8FF" d="M280 164h4v4h-4z"/><path fill="#4AD3FF" d="M284 164h4v4h-4zM288 164h4v4h-4z"/><path fill="#7AE8FF" d="M292 164h4v4h-4z"/><path fill="#D6F5FF" d="M296 164h4v4h-4zM56 168h4v4h-4z"/><path fill="#BDFBFF" d="M60 168h4v4h-4z"/><path fill="#7AE8FF" d="M64 168h4v4h-4z"/><path fill="#BDFBFF" d="M68 168h4v4h-4zM72 168h4v4h-4zM76 168h4v4h-4zM80 168h4v4h-4z"/><path fill="#91D7FF" d="M84 168h4v4h-4z"/><path fill="#4AD3FF" d="M88 168h4v4h-4zM92 168h4v4h-4zM96 168h4v4h-4z"/><path fill="#BDFBFF" d="M100 168h4v4h-4z"/><path fill="#7AE8FF" d="M104 168h4v4h-4zM108 168h4v4h-4zM112 168h4v4h-4z"/><path fill="#BDFBFF" d="M116 168h4v4h-4z"/><path fill="#4AD3FF" d="M120 168h4v4h-4zM124 168h4v4h-4z"/><path fill="#91D7FF" d="M128 168h4v4h-4z"/><path fill="#7AE8FF" d="M132 168h4v4h-4z"/><path fill="#4AD3FF" d="M136 168h4v4h-4zM140 168h4v4h-4z"/><path fill="#BDFBFF" d="M144 168h4v4h-4z"/><path fill="#91D7FF" d="M148 168h4v4h-4z"/><path fill="#4AD3FF" d="M152 168h4v4h-4zM156 168h4v4h-4z"/><path fill="#91D7FF" d="M160 168h4v4h-4z"/><path fill="#BDFBFF" d="M164 168h4v4h-4zM168 168h4v4h-4zM172 168h4v4h-4zM176 168h4v4h-4zM180 168h4v4h-4zM184 168h4v4h-4zM188 168h4v4h-4z"/><path fill="#91D7FF" d="M192 168h4v4h-4z"/><path fill="#4AD3FF" d="M196 168h4v4h-4zM200 168h4v4h-4zM204 168h4v4h-4z"/><path fill="#91D7FF" d="M208 168h4v4h-4zM212 168h4v4h-4z"/><path fill="#4AD3FF" d="M216 168h4v4h-4z"/><path fill="#BDFBFF" d="M220 168h4v4h-4z"/><path fill="#4AD3FF" d="M224 168h4v4h-4z"/><path fill="#91D7FF" d="M228 168h4v4h-4zM232 168h4v4h-4z"/><path fill="#BDFBFF" d="M236 168h4v4h-4zM240 168h4v4h-4zM244 168h4v4h-4zM248 168h4v4h-4zM252 168h4v4h-4zM256 168h4v4h-4zM260 168h4v4h-4z"/><path fill="#91D7FF" d="M264 168h4v4h-4zM268 168h4v4h-4z"/><path fill="#7AE8FF" d="M272 168h4v4h-4z"/><path fill="#BDFBFF" d="M276 168h4v4h-4z"/><path fill="#4AD3FF" d="M280 168h4v4h-4zM284 168h4v4h-4z"/><path fill="#7AE8FF" d="M288 168h4v4h-4z"/><path fill="#D6F5FF" d="M292 168h4v4h-4zM60 172h4v4h-4z"/><path fill="#BDFBFF" d="M64 172h4v4h-4z"/><path fill="#7AE8FF" d="M68 172h4v4h-4z"/><path fill="#BDFBFF" d="M72 172h4v4h-4zM76 172h4v4h-4zM80 172h4v4h-4zM84 172h4v4h-4z"/><path fill="#91D7FF" d="M88 172h4v4h-4z"/><path fill="#4AD3FF" d="M92 172h4v4h-4zM96 172h4v4h-4zM100 172h4v4h-4z"/><path fill="#BDFBFF" d="M104 172h4v4h-4zM108 172h4v4h-4zM112 172h4v4h-4z"/><path fill="#4AD3FF" d="M116 172h4v4h-4zM120 172h4v4h-4z"/><path fill="#7AE8FF" d="M124 172h4v4h-4z"/><path fill="#4AD3FF" d="M128 172h4v4h-4zM132 172h4v4h-4zM136 172h4v4h-4z"/><path fill="#BDFBFF" d="M140 172h4v4h-4z"/><path fill="#91D7FF" d="M144 172h4v4h-4z"/><path fill="#4AD3FF" d="M148 172h4v4h-4zM152 172h4v4h-4z"/><path fill="#91D7FF" d="M156 172h4v4h-4z"/><path fill="#BDFBFF" d="M160 172h4v4h-4zM164 172h4v4h-4zM168 172h4v4h-4zM172 172h4v4h-4zM176 172h4v4h-4zM180 172h4v4h-4zM184 172h4v4h-4zM188 172h4v4h-4zM192 172h4v4h-4z"/><path fill="#91D7FF" d="M196 172h4v4h-4z"/><path fill="#4AD3FF" d="M200 172h4v4h-4zM204 172h4v4h-4zM208 172h4v4h-4z"/><path fill="#91D7FF" d="M212 172h4v4h-4z"/><path fill="#4AD3FF" d="M216 172h4v4h-4z"/><path fill="#BDFBFF" d="M220 172h4v4h-4z"/><path fill="#4AD3FF" d="M224 172h4v4h-4z"/><path fill="#91D7FF" d="M228 172h4v4h-4zM232 172h4v4h-4z"/><path fill="#BDFBFF" d="M236 172h4v4h-4zM240 172h4v4h-4zM244 172h4v4h-4zM248 172h4v4h-4zM252 172h4v4h-4zM256 172h4v4h-4zM260 172h4v4h-4z"/><path fill="#91D7FF" d="M264 172h4v4h-4zM268 172h4v4h-4z"/><path fill="#4AD3FF" d="M272 172h4v4h-4z"/><path fill="#91D7FF" d="M276 172h4v4h-4z"/><path fill="#4AD3FF" d="M280 172h4v4h-4zM284 172h4v4h-4z"/><path fill="#7AE8FF" d="M288 172h4v4h-4z"/><path fill="#D6F5FF" d="M292 172h4v4h-4zM64 176h4v4h-4z"/><path fill="#BDFBFF" d="M68 176h4v4h-4z"/><path fill="#7AE8FF" d="M72 176h4v4h-4zM76 176h4v4h-4z"/><path fill="#BDFBFF" d="M80 176h4v4h-4zM84 176h4v4h-4zM88 176h4v4h-4zM92 176h4v4h-4z"/><path fill="#91D7FF" d="M96 176h4v4h-4z"/><path fill="#4AD3FF" d="M100 176h4v4h-4zM104 176h4v4h-4zM108 176h4v4h-4zM112 176h4v4h-4zM116 176h4v4h-4zM120 176h4v4h-4zM124 176h4v4h-4zM128 176h4v4h-4z"/><path fill="#91D7FF" d="M132 176h4v4h-4z"/><path fill="#BDFBFF" d="M136 176h4v4h-4z"/><path fill="#91D7FF" d="M140 176h4v4h-4z"/><path fill="#4AD3FF" d="M144 176h4v4h-4zM148 176h4v4h-4z"/><path fill="#91D7FF" d="M152 176h4v4h-4zM156 176h4v4h-4zM160 176h4v4h-4z"/><path fill="#BDFBFF" d="M164 176h4v4h-4zM168 176h4v4h-4zM172 176h4v4h-4zM176 176h4v4h-4zM180 176h4v4h-4zM184 176h4v4h-4zM188 176h4v4h-4zM192 176h4v4h-4zM196 176h4v4h-4z"/><path fill="#91D7FF" d="M200 176h4v4h-4z"/><path fill="#4AD3FF" d="M204 176h4v4h-4zM208 176h4v4h-4z"/><path fill="#91D7FF" d="M212 176h4v4h-4z"/><path fill="#4AD3FF" d="M216 176h4v4h-4z"/><path fill="#BDFBFF" d="M220 176h4v4h-4z"/><path fill="#4AD3FF" d="M224 176h4v4h-4z"/><path fill="#91D7FF" d="M228 176h4v4h-4zM232 176h4v4h-4zM236 176h4v4h-4zM240 176h4v4h-4zM244 176h4v4h-4zM248 176h4v4h-4zM252 176h4v4h-4zM256 176h4v4h-4z"/><path fill="#BDFBFF" d="M260 176h4v4h-4z"/><path fill="#91D7FF" d="M264 176h4v4h-4zM268 176h4v4h-4zM272 176h4v4h-4z"/><path fill="#4AD3FF" d="M276 176h4v4h-4z"/><path fill="#7AE8FF" d="M280 176h4v4h-4zM284 176h4v4h-4z"/><path fill="#D6F5FF" d="M288 176h4v4h-4zM68 180h4v4h-4z"/><path fill="#BDFBFF" d="M72 180h4v4h-4z"/><path fill="#91D7FF" d="M76 180h4v4h-4z"/><path fill="#7AE8FF" d="M80 180h4v4h-4z"/><path fill="#4AD3FF" d="M84 180h4v4h-4zM88 180h4v4h-4zM92 180h4v4h-4zM96 180h4v4h-4zM100 180h4v4h-4zM104 180h4v4h-4zM108 180h4v4h-4zM112 180h4v4h-4zM116 180h4v4h-4zM120 180h4v4h-4z"/><path fill="#91D7FF" d="M124 180h4v4h-4z"/><path fill="#BDFBFF" d="M128 180h4v4h-4zM132 180h4v4h-4z"/><path fill="#91D7FF" d="M136 180h4v4h-4z"/><path fill="#4AD3FF" d="M140 180h4v4h-4zM144 180h4v4h-4z"/><path fill="#91D7FF" d="M148 180h4v4h-4zM152 180h4v4h-4z"/><path fill="#7AE8FF" d="M156 180h4v4h-4z"/><path fill="#91D7FF" d="M160 180h4v4h-4z"/><path fill="#BDFBFF" d="M164 180h4v4h-4zM168 180h4v4h-4zM172 180h4v4h-4zM176 180h4v4h-4zM180 180h4v4h-4zM184 180h4v4h-4zM188 180h4v4h-4zM192 180h4v4h-4zM196 180h4v4h-4z"/><path fill="#91D7FF" d="M200 180h4v4h-4z"/><path fill="#7AE8FF" d="M204 180h4v4h-4z"/><path fill="#4AD3FF" d="M208 180h4v4h-4z"/><path fill="#7AE8FF" d="M212 180h4v4h-4z"/><path fill="#4AD3FF" d="M216 180h4v4h-4z"/><path fill="#BDFBFF" d="M220 180h4v4h-4z"/><path fill="#4AD3FF" d="M224 180h4v4h-4z"/><path fill="#BDFBFF" d="M228 180h4v4h-4zM232 180h4v4h-4zM236 180h4v4h-4zM240 180h4v4h-4zM244 180h4v4h-4zM248 180h4v4h-4zM252 180h4v4h-4z"/><path fill="#91D7FF" d="M256 180h4v4h-4zM260 180h4v4h-4zM264 180h4v4h-4zM268 180h4v4h-4zM272 180h4v4h-4z"/><path fill="#4AD3FF" d="M276 180h4v4h-4z"/><path fill="#91D7FF" d="M280 180h4v4h-4z"/><path fill="#7AE8FF" d="M284 180h4v4h-4z"/><path fill="#D6F5FF" d="M288 180h4v4h-4zM64 184h4v4h-4z"/><path fill="#91D7FF" d="M68 184h4v4h-4z"/><path fill="#7AE8FF" d="M72 184h4v4h-4z"/><path fill="#BDFBFF" d="M76 184h4v4h-4zM80 184h4v4h-4zM84 184h4v4h-4zM88 184h4v4h-4zM92 184h4v4h-4z"/><path fill="#91D7FF" d="M96 184h4v4h-4z"/><path fill="#4AD3FF" d="M100 184h4v4h-4zM104 184h4v4h-4zM108 184h4v4h-4z"/><path fill="#91D7FF" d="M112 184h4v4h-4z"/><path fill="#BDFBFF" d="M116 184h4v4h-4zM120 184h4v4h-4zM124 184h4v4h-4zM128 184h4v4h-4zM132 184h4v4h-4z"/><path fill="#4AD3FF" d="M136 184h4v4h-4zM140 184h4v4h-4z"/><path fill="#91D7FF" d="M144 184h4v4h-4zM148 184h4v4h-4z"/><path fill="#4AD3FF" d="M152 184h4v4h-4z"/><path fill="#7AE8FF" d="M156 184h4v4h-4z"/><path fill="#91D7FF" d="M160 184h4v4h-4zM164 184h4v4h-4z"/><path fill="#BDFBFF" d="M168 184h4v4h-4zM172 184h4v4h-4zM176 184h4v4h-4zM180 184h4v4h-4zM184 184h4v4h-4zM188 184h4v4h-4zM192 184h4v4h-4zM196 184h4v4h-4z"/><path fill="#91D7FF" d="M200 184h4v4h-4zM204 184h4v4h-4z"/><path fill="#4AD3FF" d="M208 184h4v4h-4zM212 184h4v4h-4zM216 184h4v4h-4z"/><path fill="#BDFBFF" d="M220 184h4v4h-4zM224 184h4v4h-4zM228 184h4v4h-4zM232 184h4v4h-4zM236 184h4v4h-4zM240 184h4v4h-4zM244 184h4v4h-4zM248 184h4v4h-4zM252 184h4v4h-4zM256 184h4v4h-4z"/><path fill="#4AD3FF" d="M260 184h4v4h-4z"/><path fill="#91D7FF" d="M264 184h4v4h-4zM268 184h4v4h-4zM272 184h4v4h-4z"/><path fill="#4AD3FF" d="M276 184h4v4h-4z"/><path fill="#91D7FF" d="M280 184h4v4h-4z"/><path fill="#D6F5FF" d="M284 184h4v4h-4zM60 188h4v4h-4z"/><path fill="#91D7FF" d="M64 188h4v4h-4zM68 188h4v4h-4z"/><path fill="#7AE8FF" d="M72 188h4v4h-4z"/><path fill="#91D7FF" d="M76 188h4v4h-4z"/><path fill="#BDFBFF" d="M80 188h4v4h-4zM84 188h4v4h-4zM88 188h4v4h-4zM92 188h4v4h-4zM96 188h4v4h-4zM100 188h4v4h-4zM104 188h4v4h-4zM108 188h4v4h-4zM112 188h4v4h-4zM116 188h4v4h-4zM120 188h4v4h-4zM124 188h4v4h-4z"/><path fill="#4AD3FF" d="M128 188h4v4h-4zM132 188h4v4h-4z"/><path fill="#91D7FF" d="M136 188h4v4h-4zM140 188h4v4h-4z"/><path fill="#4AD3FF" d="M144 188h4v4h-4zM148 188h4v4h-4z"/><path fill="#7AE8FF" d="M152 188h4v4h-4z"/><path fill="#91D7FF" d="M156 188h4v4h-4zM160 188h4v4h-4zM164 188h4v4h-4z"/><path fill="#BDFBFF" d="M168 188h4v4h-4zM172 188h4v4h-4zM176 188h4v4h-4zM180 188h4v4h-4zM184 188h4v4h-4zM188 188h4v4h-4zM192 188h4v4h-4zM196 188h4v4h-4z"/><path fill="#91D7FF" d="M200 188h4v4h-4zM204 188h4v4h-4z"/><path fill="#7AE8FF" d="M208 188h4v4h-4z"/><path fill="#4AD3FF" d="M212 188h4v4h-4zM216 188h4v4h-4z"/><path fill="#BDFBFF" d="M220 188h4v4h-4z"/><path fill="#91D7FF" d="M224 188h4v4h-4z"/><path fill="#7AE8FF" d="M228 188h4v4h-4zM232 188h4v4h-4zM236 188h4v4h-4zM240 188h4v4h-4zM244 188h4v4h-4zM248 188h4v4h-4zM252 188h4v4h-4z"/><path fill="#91D7FF" d="M256 188h4v4h-4z"/><path fill="#BDFBFF" d="M260 188h4v4h-4z"/><path fill="#4AD3FF" d="M264 188h4v4h-4z"/><path fill="#91D7FF" d="M268 188h4v4h-4zM272 188h4v4h-4z"/><path fill="#7AE8FF" d="M276 188h4v4h-4z"/><path fill="#BDFBFF" d="M280 188h4v4h-4z"/><path fill="#D6F5FF" d="M284 188h4v4h-4zM60 192h4v4h-4z"/><path fill="#91D7FF" d="M64 192h4v4h-4zM68 192h4v4h-4zM72 192h4v4h-4z"/><path fill="#7AE8FF" d="M76 192h4v4h-4z"/><path fill="#91D7FF" d="M80 192h4v4h-4z"/><path fill="#BDFBFF" d="M84 192h4v4h-4zM88 192h4v4h-4zM92 192h4v4h-4zM96 192h4v4h-4zM100 192h4v4h-4zM104 192h4v4h-4zM108 192h4v4h-4zM112 192h4v4h-4zM116 192h4v4h-4z"/><path fill="#4AD3FF" d="M120 192h4v4h-4zM124 192h4v4h-4z"/><path fill="#91D7FF" d="M128 192h4v4h-4zM132 192h4v4h-4z"/><path fill="#4AD3FF" d="M136 192h4v4h-4zM140 192h4v4h-4zM144 192h4v4h-4zM148 192h4v4h-4z"/><path fill="#91D7FF" d="M152 192h4v4h-4z"/><path fill="#4AD3FF" d="M156 192h4v4h-4zM160 192h4v4h-4zM164 192h4v4h-4zM168 192h4v4h-4z"/><path fill="#BDFBFF" d="M172 192h4v4h-4zM176 192h4v4h-4zM180 192h4v4h-4zM184 192h4v4h-4zM188 192h4v4h-4zM192 192h4v4h-4z"/><path fill="#91D7FF" d="M196 192h4v4h-4zM200 192h4v4h-4zM204 192h4v4h-4z"/><path fill="#7AE8FF" d="M208 192h4v4h-4z"/><path fill="#4AD3FF" d="M212 192h4v4h-4z"/><path fill="#BDFBFF" d="M216 192h4v4h-4zM220 192h4v4h-4z"/><path fill="#7AE8FF" d="M224 192h4v4h-4zM228 192h4v4h-4zM232 192h4v4h-4zM236 192h4v4h-4zM240 192h4v4h-4zM244 192h4v4h-4zM248 192h4v4h-4zM252 192h4v4h-4zM256 192h4v4h-4z"/><path fill="#91D7FF" d="M260 192h4v4h-4z"/><path fill="#BDFBFF" d="M264 192h4v4h-4z"/><path fill="#7AE8FF" d="M268 192h4v4h-4z"/><path fill="#91D7FF" d="M272 192h4v4h-4z"/><path fill="#7AE8FF" d="M276 192h4v4h-4z"/><path fill="#D6F5FF" d="M280 192h4v4h-4zM60 196h4v4h-4z"/><path fill="#91D7FF" d="M64 196h4v4h-4z"/><path fill="#BDFBFF" d="M68 196h4v4h-4zM72 196h4v4h-4z"/><path fill="#91D7FF" d="M76 196h4v4h-4z"/><path fill="#7AE8FF" d="M80 196h4v4h-4zM84 196h4v4h-4z"/><path fill="#91D7FF" d="M88 196h4v4h-4z"/><path fill="#BDFBFF" d="M92 196h4v4h-4zM96 196h4v4h-4zM100 196h4v4h-4z"/><path fill="#91D7FF" d="M104 196h4v4h-4z"/><path fill="#4AD3FF" d="M108 196h4v4h-4zM112 196h4v4h-4zM116 196h4v4h-4z"/><path fill="#BDFBFF" d="M120 196h4v4h-4zM124 196h4v4h-4z"/><path fill="#4AD3FF" d="M128 196h4v4h-4zM132 196h4v4h-4zM136 196h4v4h-4zM140 196h4v4h-4zM144 196h4v4h-4zM148 196h4v4h-4zM152 196h4v4h-4z"/><path fill="#7AE8FF" d="M156 196h4v4h-4z"/><path fill="#91D7FF" d="M160 196h4v4h-4zM164 196h4v4h-4z"/><path fill="#FAFFFF" d="M168 196h4v4h-4z"/><path fill="#4AD3FF" d="M172 196h4v4h-4z"/><path fill="#91D7FF" d="M176 196h4v4h-4z"/><path fill="#BDFBFF" d="M180 196h4v4h-4zM184 196h4v4h-4zM188 196h4v4h-4z"/><path fill="#91D7FF" d="M192 196h4v4h-4zM196 196h4v4h-4zM200 196h4v4h-4zM204 196h4v4h-4z"/><path fill="#7AE8FF" d="M208 196h4v4h-4z"/><path fill="#4AD3FF" d="M212 196h4v4h-4z"/><path fill="#BDFBFF" d="M216 196h4v4h-4z"/><path fill="#91D7FF" d="M220 196h4v4h-4z"/><path fill="#7AE8FF" d="M224 196h4v4h-4z"/><path fill="#91D7FF" d="M228 196h4v4h-4zM232 196h4v4h-4zM236 196h4v4h-4zM240 196h4v4h-4zM244 196h4v4h-4zM248 196h4v4h-4zM252 196h4v4h-4z"/><path fill="#7AE8FF" d="M256 196h4v4h-4zM260 196h4v4h-4z"/><path fill="#91D7FF" d="M264 196h4v4h-4z"/><path fill="#BDFBFF" d="M268 196h4v4h-4z"/><path fill="#7AE8FF" d="M272 196h4v4h-4zM276 196h4v4h-4z"/><path fill="#D6F5FF" d="M280 196h4v4h-4zM60 200h4v4h-4z"/><path fill="#91D7FF" d="M64 200h4v4h-4z"/><path fill="#BDFBFF" d="M68 200h4v4h-4zM72 200h4v4h-4zM76 200h4v4h-4z"/><path fill="#91D7FF" d="M80 200h4v4h-4z"/><path fill="#7AE8FF" d="M84 200h4v4h-4z"/><path fill="#4AD3FF" d="M88 200h4v4h-4zM92 200h4v4h-4zM96 200h4v4h-4zM100 200h4v4h-4z"/><path fill="#BDFBFF" d="M104 200h4v4h-4zM108 200h4v4h-4zM112 200h4v4h-4zM116 200h4v4h-4z"/><path fill="#91D7FF" d="M120 200h4v4h-4z"/><path fill="#4AD3FF" d="M124 200h4v4h-4zM128 200h4v4h-4zM132 200h4v4h-4zM136 200h4v4h-4zM140 200h4v4h-4zM144 200h4v4h-4z"/><path fill="#7AE8FF" d="M148 200h4v4h-4z"/><path fill="#4AD3FF" d="M152 200h4v4h-4zM156 200h4v4h-4zM160 200h4v4h-4zM164 200h4v4h-4zM168 200h4v4h-4z"/><path fill="#FAFFFF" d="M172 200h4v4h-4z"/><path fill="#4AD3FF" d="M176 200h4v4h-4z"/><path fill="#91D7FF" d="M180 200h4v4h-4zM184 200h4v4h-4zM188 200h4v4h-4zM192 200h4v4h-4zM196 200h4v4h-4zM200 200h4v4h-4z"/><path fill="#7AE8FF" d="M204 200h4v4h-4z"/><path fill="#4AD3FF" d="M208 200h4v4h-4zM212 200h4v4h-4z"/><path fill="#BDFBFF" d="M216 200h4v4h-4z"/><path fill="#7AE8FF" d="M220 200h4v4h-4z"/><path fill="#91D7FF" d="M224 200h4v4h-4zM228 200h4v4h-4z"/><path fill="#BDFBFF" d="M232 200h4v4h-4zM236 200h4v4h-4zM240 200h4v4h-4zM244 200h4v4h-4zM248 200h4v4h-4zM252 200h4v4h-4z"/><path fill="#91D7FF" d="M256 200h4v4h-4zM260 200h4v4h-4z"/><path fill="#7AE8FF" d="M264 200h4v4h-4z"/><path fill="#91D7FF" d="M268 200h4v4h-4z"/><path fill="#BDFBFF" d="M272 200h4v4h-4z"/><path fill="#7AE8FF" d="M276 200h4v4h-4z"/><path fill="#D6F5FF" d="M280 200h4v4h-4zM60 204h4v4h-4z"/><path fill="#91D7FF" d="M64 204h4v4h-4z"/><path fill="#BDFBFF" d="M68 204h4v4h-4zM72 204h4v4h-4zM76 204h4v4h-4zM80 204h4v4h-4zM84 204h4v4h-4zM88 204h4v4h-4zM92 204h4v4h-4zM96 204h4v4h-4zM100 204h4v4h-4zM104 204h4v4h-4zM108 204h4v4h-4z"/><path fill="#91D7FF" d="M112 204h4v4h-4z"/><path fill="#4AD3FF" d="M116 204h4v4h-4zM120 204h4v4h-4zM124 204h4v4h-4zM128 204h4v4h-4zM132 204h4v4h-4zM136 204h4v4h-4zM140 204h4v4h-4z"/><path fill="#91D7FF" d="M144 204h4v4h-4z"/><path fill="#4AD3FF" d="M148 204h4v4h-4zM152 204h4v4h-4z"/><path fill="#91D7FF" d="M156 204h4v4h-4zM160 204h4v4h-4zM164 204h4v4h-4z"/><path fill="#4AD3FF" d="M168 204h4v4h-4z"/><path fill="#7AE8FF" d="M172 204h4v4h-4z"/><path fill="#FAFFFF" d="M176 204h4v4h-4z"/><path fill="#4AD3FF" d="M180 204h4v4h-4z"/><path fill="#91D7FF" d="M184 204h4v4h-4zM188 204h4v4h-4zM192 204h4v4h-4zM196 204h4v4h-4zM200 204h4v4h-4z"/><path fill="#7AE8FF" d="M204 204h4v4h-4z"/><path fill="#4AD3FF" d="M208 204h4v4h-4z"/><path fill="#BDFBFF" d="M212 204h4v4h-4z"/><path fill="#91D7FF" d="M216 204h4v4h-4zM220 204h4v4h-4z"/><path fill="#BDFBFF" d="M224 204h4v4h-4zM228 204h4v4h-4zM232 204h4v4h-4z"/><path fill="#4AD3FF" d="M236 204h4v4h-4zM240 204h4v4h-4zM244 204h4v4h-4zM248 204h4v4h-4z"/><path fill="#BDFBFF" d="M252 204h4v4h-4zM256 204h4v4h-4z"/><path fill="#91D7FF" d="M260 204h4v4h-4zM264 204h4v4h-4z"/><path fill="#7AE8FF" d="M268 204h4v4h-4z"/><path fill="#BDFBFF" d="M272 204h4v4h-4z"/><path fill="#7AE8FF" d="M276 204h4v4h-4z"/><path fill="#D6F5FF" d="M280 204h4v4h-4zM60 208h4v4h-4z"/><path fill="#7AE8FF" d="M64 208h4v4h-4z"/><path fill="#BDFBFF" d="M68 208h4v4h-4zM72 208h4v4h-4zM76 208h4v4h-4zM80 208h4v4h-4zM84 208h4v4h-4zM88 208h4v4h-4zM92 208h4v4h-4zM96 208h4v4h-4zM100 208h4v4h-4zM104 208h4v4h-4z"/><path fill="#91D7FF" d="M108 208h4v4h-4z"/><path fill="#4AD3FF" d="M112 208h4v4h-4zM116 208h4v4h-4zM120 208h4v4h-4zM124 208h4v4h-4zM128 208h4v4h-4zM132 208h4v4h-4zM136 208h4v4h-4z"/><path fill="#91D7FF" d="M140 208h4v4h-4z"/><path fill="#4AD3FF" d="M144 208h4v4h-4zM148 208h4v4h-4z"/><path fill="#91D7FF" d="M152 208h4v4h-4z"/><path fill="#BDFBFF" d="M156 208h4v4h-4zM160 208h4v4h-4zM164 208h4v4h-4z"/><path fill="#91D7FF" d="M168 208h4v4h-4z"/><path fill="#4AD3FF" d="M172 208h4v4h-4z"/><path fill="#7AE8FF" d="M176 208h4v4h-4z"/><path fill="#FAFFFF" d="M180 208h4v4h-4z"/><path fill="#4AD3FF" d="M184 208h4v4h-4z"/><path fill="#91D7FF" d="M188 208h4v4h-4zM192 208h4v4h-4zM196 208h4v4h-4z"/><path fill="#7AE8FF" d="M200 208h4v4h-4z"/><path fill="#4AD3FF" d="M204 208h4v4h-4zM208 208h4v4h-4z"/><path fill="#BDFBFF" d="M212 208h4v4h-4z"/><path fill="#91D7FF" d="M216 208h4v4h-4z"/><path fill="#BDFBFF" d="M220 208h4v4h-4zM224 208h4v4h-4z"/><path fill="#4AD3FF" d="M228 208h4v4h-4zM232 208h4v4h-4zM236 208h4v4h-4zM240 208h4v4h-4zM244 208h4v4h-4zM248 208h4v4h-4zM252 208h4v4h-4z"/><path fill="#BDFBFF" d="M256 208h4v4h-4zM260 208h4v4h-4z"/><path fill="#91D7FF" d="M264 208h4v4h-4zM268 208h4v4h-4z"/><path fill="#BDFBFF" d="M272 208h4v4h-4z"/><path fill="#7AE8FF" d="M276 208h4v4h-4z"/><path fill="#D6F5FF" d="M280 208h4v4h-4zM64 212h4v4h-4z"/><path fill="#7AE8FF" d="M68 212h4v4h-4z"/><path fill="#BDFBFF" d="M72 212h4v4h-4zM76 212h4v4h-4zM80 212h4v4h-4z"/><path fill="#91D7FF" d="M84 212h4v4h-4zM88 212h4v4h-4z"/><path fill="#BDFBFF" d="M92 212h4v4h-4zM96 212h4v4h-4zM100 212h4v4h-4z"/><path fill="#91D7FF" d="M104 212h4v4h-4z"/><path fill="#4AD3FF" d="M108 212h4v4h-4zM112 212h4v4h-4zM116 212h4v4h-4zM120 212h4v4h-4zM124 212h4v4h-4zM128 212h4v4h-4zM132 212h4v4h-4zM136 212h4v4h-4z"/><path fill="#FAFFFF" d="M140 212h4v4h-4z"/><path fill="#4AD3FF" d="M144 212h4v4h-4zM148 212h4v4h-4zM152 212h4v4h-4z"/><path fill="#91D7FF" d="M156 212h4v4h-4zM160 212h4v4h-4z"/><path fill="#4AD3FF" d="M164 212h4v4h-4zM168 212h4v4h-4zM172 212h4v4h-4z"/><path fill="#7AE8FF" d="M176 212h4v4h-4z"/><path fill="#FAFFFF" d="M180 212h4v4h-4z"/><path fill="#4AD3FF" d="M184 212h4v4h-4z"/><path fill="#91D7FF" d="M188 212h4v4h-4zM192 212h4v4h-4z"/><path fill="#7AE8FF" d="M196 212h4v4h-4z"/><path fill="#4AD3FF" d="M200 212h4v4h-4zM204 212h4v4h-4z"/><path fill="#BDFBFF" d="M208 212h4v4h-4z"/><path fill="#91D7FF" d="M212 212h4v4h-4z"/><path fill="#BDFBFF" d="M216 212h4v4h-4z"/><path fill="#4AD3FF" d="M220 212h4v4h-4zM224 212h4v4h-4zM228 212h4v4h-4zM232 212h4v4h-4zM236 212h4v4h-4zM240 212h4v4h-4zM244 212h4v4h-4zM248 212h4v4h-4zM252 212h4v4h-4zM256 212h4v4h-4z"/><path fill="#BDFBFF" d="M260 212h4v4h-4z"/><path fill="#91D7FF" d="M264 212h4v4h-4zM268 212h4v4h-4z"/><path fill="#BDFBFF" d="M272 212h4v4h-4z"/><path fill="#7AE8FF" d="M276 212h4v4h-4z"/><path fill="#D6F5FF" d="M280 212h4v4h-4zM64 216h4v4h-4z"/><path fill="#7AE8FF" d="M68 216h4v4h-4zM72 216h4v4h-4z"/><path fill="#BDFBFF" d="M76 216h4v4h-4zM80 216h4v4h-4z"/><path fill="#91D7FF" d="M84 216h4v4h-4z"/><path fill="#4AD3FF" d="M88 216h4v4h-4zM92 216h4v4h-4zM96 216h4v4h-4z"/><path fill="#BDFBFF" d="M100 216h4v4h-4z"/><path fill="#91D7FF" d="M104 216h4v4h-4z"/><path fill="#4AD3FF" d="M108 216h4v4h-4zM112 216h4v4h-4zM116 216h4v4h-4zM120 216h4v4h-4zM124 216h4v4h-4zM128 216h4v4h-4zM132 216h4v4h-4zM136 216h4v4h-4z"/><path fill="#FAFFFF" d="M140 216h4v4h-4z"/><path fill="#7AE8FF" d="M144 216h4v4h-4z"/><path fill="#4AD3FF" d="M148 216h4v4h-4zM152 216h4v4h-4zM156 216h4v4h-4zM160 216h4v4h-4zM164 216h4v4h-4zM168 216h4v4h-4z"/><path fill="#7AE8FF" d="M172 216h4v4h-4zM176 216h4v4h-4z"/><path fill="#FAFFFF" d="M180 216h4v4h-4z"/><path fill="#4AD3FF" d="M184 216h4v4h-4z"/><path fill="#91D7FF" d="M188 216h4v4h-4z"/><path fill="#7AE8FF" d="M192 216h4v4h-4z"/><path fill="#4AD3FF" d="M196 216h4v4h-4zM200 216h4v4h-4zM204 216h4v4h-4z"/><path fill="#BDFBFF" d="M208 216h4v4h-4zM212 216h4v4h-4z"/><path fill="#4AD3FF" d="M216 216h4v4h-4zM220 216h4v4h-4zM224 216h4v4h-4zM228 216h4v4h-4zM232 216h4v4h-4zM236 216h4v4h-4zM240 216h4v4h-4zM244 216h4v4h-4zM248 216h4v4h-4zM252 216h4v4h-4z"/><path fill="#7AE8FF" d="M256 216h4v4h-4z"/><path fill="#BDFBFF" d="M260 216h4v4h-4z"/><path fill="#91D7FF" d="M264 216h4v4h-4zM268 216h4v4h-4z"/><path fill="#BDFBFF" d="M272 216h4v4h-4zM276 216h4v4h-4z"/><path fill="#D6F5FF" d="M280 216h4v4h-4zM60 220h4v4h-4z"/><path fill="#91D7FF" d="M64 220h4v4h-4z"/><path fill="#BDFBFF" d="M68 220h4v4h-4z"/><path fill="#7AE8FF" d="M72 220h4v4h-4z"/><path fill="#BDFBFF" d="M76 220h4v4h-4zM80 220h4v4h-4z"/><path fill="#91D7FF" d="M84 220h4v4h-4z"/><path fill="#4AD3FF" d="M88 220h4v4h-4zM92 220h4v4h-4zM96 220h4v4h-4z"/><path fill="#91D7FF" d="M100 220h4v4h-4z"/><path fill="#BDFBFF" d="M104 220h4v4h-4z"/><path fill="#4AD3FF" d="M108 220h4v4h-4zM112 220h4v4h-4zM116 220h4v4h-4zM120 220h4v4h-4zM124 220h4v4h-4zM128 220h4v4h-4zM132 220h4v4h-4zM136 220h4v4h-4z"/><path fill="#FAFFFF" d="M140 220h4v4h-4z"/><path fill="#7AE8FF" d="M144 220h4v4h-4zM148 220h4v4h-4z"/><path fill="#4AD3FF" d="M152 220h4v4h-4zM156 220h4v4h-4zM160 220h4v4h-4zM164 220h4v4h-4z"/><path fill="#7AE8FF" d="M168 220h4v4h-4zM172 220h4v4h-4zM176 220h4v4h-4z"/><path fill="#FAFFFF" d="M180 220h4v4h-4z"/><path fill="#4AD3FF" d="M184 220h4v4h-4z"/><path fill="#91D7FF" d="M188 220h4v4h-4z"/><path fill="#7AE8FF" d="M192 220h4v4h-4z"/><path fill="#4AD3FF" d="M196 220h4v4h-4zM200 220h4v4h-4z"/><path fill="#BDFBFF" d="M204 220h4v4h-4zM208 220h4v4h-4z"/><path fill="#4AD3FF" d="M212 220h4v4h-4zM216 220h4v4h-4zM220 220h4v4h-4zM224 220h4v4h-4zM228 220h4v4h-4zM232 220h4v4h-4zM236 220h4v4h-4zM240 220h4v4h-4zM244 220h4v4h-4zM248 220h4v4h-4zM252 220h4v4h-4z"/><path fill="#7AE8FF" d="M256 220h4v4h-4z"/><path fill="#BDFBFF" d="M260 220h4v4h-4z"/><path fill="#91D7FF" d="M264 220h4v4h-4zM268 220h4v4h-4z"/><path fill="#BDFBFF" d="M272 220h4v4h-4z"/><path fill="#D6F5FF" d="M276 220h4v4h-4zM56 224h4v4h-4z"/><path fill="#91D7FF" d="M60 224h4v4h-4zM64 224h4v4h-4z"/><path fill="#BDFBFF" d="M68 224h4v4h-4z"/><path fill="#7AE8FF" d="M72 224h4v4h-4z"/><path fill="#91D7FF" d="M76 224h4v4h-4z"/><path fill="#BDFBFF" d="M80 224h4v4h-4zM84 224h4v4h-4z"/><path fill="#4AD3FF" d="M88 224h4v4h-4zM92 224h4v4h-4zM96 224h4v4h-4zM100 224h4v4h-4z"/><path fill="#BDFBFF" d="M104 224h4v4h-4z"/><path fill="#91D7FF" d="M108 224h4v4h-4z"/><path fill="#4AD3FF" d="M112 224h4v4h-4zM116 224h4v4h-4zM120 224h4v4h-4zM124 224h4v4h-4zM128 224h4v4h-4zM132 224h4v4h-4zM136 224h4v4h-4zM140 224h4v4h-4z"/><path fill="#FAFFFF" d="M144 224h4v4h-4z"/><path fill="#7AE8FF" d="M148 224h4v4h-4zM152 224h4v4h-4zM156 224h4v4h-4zM160 224h4v4h-4zM164 224h4v4h-4z"/><path fill="#BDFBFF" d="M168 224h4v4h-4z"/><path fill="#7AE8FF" d="M172 224h4v4h-4zM176 224h4v4h-4z"/><path fill="#BDFBFF" d="M180 224h4v4h-4z"/><path fill="#4AD3FF" d="M184 224h4v4h-4z"/><path fill="#7AE8FF" d="M188 224h4v4h-4z"/><path fill="#4AD3FF" d="M192 224h4v4h-4zM196 224h4v4h-4z"/><path fill="#BDFBFF" d="M200 224h4v4h-4zM204 224h4v4h-4z"/><path fill="#4AD3FF" d="M208 224h4v4h-4zM212 224h4v4h-4zM216 224h4v4h-4zM220 224h4v4h-4zM224 224h4v4h-4zM228 224h4v4h-4zM232 224h4v4h-4zM236 224h4v4h-4zM240 224h4v4h-4zM244 224h4v4h-4zM248 224h4v4h-4z"/><path fill="#7AE8FF" d="M252 224h4v4h-4zM256 224h4v4h-4z"/><path fill="#BDFBFF" d="M260 224h4v4h-4z"/><path fill="#91D7FF" d="M264 224h4v4h-4zM268 224h4v4h-4z"/><path fill="#BDFBFF" d="M272 224h4v4h-4z"/><path fill="#D6F5FF" d="M276 224h4v4h-4zM52 228h4v4h-4z"/><path fill="#91D7FF" d="M56 228h4v4h-4zM60 228h4v4h-4z"/><path fill="#7AE8FF" d="M64 228h4v4h-4zM68 228h4v4h-4z"/><path fill="#BDFBFF" d="M72 228h4v4h-4z"/><path fill="#7AE8FF" d="M76 228h4v4h-4z"/><path fill="#91D7FF" d="M80 228h4v4h-4z"/><path fill="#BDFBFF" d="M84 228h4v4h-4z"/><path fill="#91D7FF" d="M88 228h4v4h-4z"/><path fill="#4AD3FF" d="M92 228h4v4h-4zM96 228h4v4h-4zM100 228h4v4h-4z"/><path fill="#BDFBFF" d="M104 228h4v4h-4zM108 228h4v4h-4z"/><path fill="#4AD3FF" d="M112 228h4v4h-4zM116 228h4v4h-4zM120 228h4v4h-4z"/><path fill="#7AE8FF" d="M124 228h4v4h-4z"/><path fill="#4AD3FF" d="M128 228h4v4h-4zM132 228h4v4h-4zM136 228h4v4h-4zM140 228h4v4h-4zM144 228h4v4h-4z"/><path fill="#FAFFFF" d="M148 228h4v4h-4z"/><path fill="#7AE8FF" d="M152 228h4v4h-4zM156 228h4v4h-4zM160 228h4v4h-4zM164 228h4v4h-4zM168 228h4v4h-4zM172 228h4v4h-4z"/><path fill="#BDFBFF" d="M176 228h4v4h-4z"/><path fill="#4AD3FF" d="M180 228h4v4h-4z"/><path fill="#7AE8FF" d="M184 228h4v4h-4z"/><path fill="#4AD3FF" d="M188 228h4v4h-4zM192 228h4v4h-4z"/><path fill="#BDFBFF" d="M196 228h4v4h-4zM200 228h4v4h-4z"/><path fill="#4AD3FF" d="M204 228h4v4h-4zM208 228h4v4h-4zM212 228h4v4h-4zM216 228h4v4h-4zM220 228h4v4h-4zM224 228h4v4h-4zM228 228h4v4h-4zM232 228h4v4h-4zM236 228h4v4h-4zM240 228h4v4h-4zM244 228h4v4h-4zM248 228h4v4h-4z"/><path fill="#7AE8FF" d="M252 228h4v4h-4z"/><path fill="#BDFBFF" d="M256 228h4v4h-4zM260 228h4v4h-4z"/><path fill="#91D7FF" d="M264 228h4v4h-4z"/><path fill="#BDFBFF" d="M268 228h4v4h-4z"/><path fill="#D6F5FF" d="M272 228h4v4h-4zM52 232h4v4h-4z"/><path fill="#91D7FF" d="M56 232h4v4h-4z"/><path fill="#7AE8FF" d="M60 232h4v4h-4zM64 232h4v4h-4zM68 232h4v4h-4zM72 232h4v4h-4z"/><path fill="#BDFBFF" d="M76 232h4v4h-4z"/><path fill="#7AE8FF" d="M80 232h4v4h-4z"/><path fill="#91D7FF" d="M84 232h4v4h-4z"/><path fill="#BDFBFF" d="M88 232h4v4h-4zM92 232h4v4h-4z"/><path fill="#91D7FF" d="M96 232h4v4h-4z"/><path fill="#4AD3FF" d="M100 232h4v4h-4z"/><path fill="#BDFBFF" d="M104 232h4v4h-4zM108 232h4v4h-4z"/><path fill="#91D7FF" d="M112 232h4v4h-4z"/><path fill="#4AD3FF" d="M116 232h4v4h-4zM120 232h4v4h-4zM124 232h4v4h-4z"/><path fill="#91D7FF" d="M128 232h4v4h-4z"/><path fill="#4AD3FF" d="M132 232h4v4h-4zM136 232h4v4h-4zM140 232h4v4h-4zM144 232h4v4h-4zM148 232h4v4h-4z"/><path fill="#FAFFFF" d="M152 232h4v4h-4zM156 232h4v4h-4zM160 232h4v4h-4zM164 232h4v4h-4z"/><path fill="#BDFBFF" d="M168 232h4v4h-4zM172 232h4v4h-4z"/><path fill="#4AD3FF" d="M176 232h4v4h-4zM180 232h4v4h-4zM184 232h4v4h-4zM188 232h4v4h-4z"/><path fill="#BDFBFF" d="M192 232h4v4h-4zM196 232h4v4h-4z"/><path fill="#4AD3FF" d="M200 232h4v4h-4zM204 232h4v4h-4zM208 232h4v4h-4zM212 232h4v4h-4zM216 232h4v4h-4zM220 232h4v4h-4zM224 232h4v4h-4zM228 232h4v4h-4zM232 232h4v4h-4zM236 232h4v4h-4zM240 232h4v4h-4zM244 232h4v4h-4z"/><path fill="#7AE8FF" d="M248 232h4v4h-4zM252 232h4v4h-4z"/><path fill="#BDFBFF" d="M256 232h4v4h-4zM260 232h4v4h-4z"/><path fill="#91D7FF" d="M264 232h4v4h-4z"/><path fill="#BDFBFF" d="M268 232h4v4h-4z"/><path fill="#D6F5FF" d="M272 232h4v4h-4zM56 236h4v4h-4zM60 236h4v4h-4zM64 236h4v4h-4zM68 236h4v4h-4zM72 236h4v4h-4zM76 236h4v4h-4zM80 236h4v4h-4z"/><path fill="#7AE8FF" d="M84 236h4v4h-4z"/><path fill="#91D7FF" d="M88 236h4v4h-4z"/><path fill="#BDFBFF" d="M92 236h4v4h-4zM96 236h4v4h-4zM100 236h4v4h-4zM104 236h4v4h-4zM108 236h4v4h-4zM112 236h4v4h-4z"/><path fill="#4AD3FF" d="M116 236h4v4h-4zM120 236h4v4h-4zM124 236h4v4h-4zM128 236h4v4h-4z"/><path fill="#91D7FF" d="M132 236h4v4h-4zM136 236h4v4h-4z"/><path fill="#4AD3FF" d="M140 236h4v4h-4zM144 236h4v4h-4zM148 236h4v4h-4zM152 236h4v4h-4zM156 236h4v4h-4zM160 236h4v4h-4zM164 236h4v4h-4zM168 236h4v4h-4zM172 236h4v4h-4zM176 236h4v4h-4zM180 236h4v4h-4zM184 236h4v4h-4z"/><path fill="#BDFBFF" d="M188 236h4v4h-4zM192 236h4v4h-4z"/><path fill="#4AD3FF" d="M196 236h4v4h-4zM200 236h4v4h-4zM204 236h4v4h-4zM208 236h4v4h-4zM212 236h4v4h-4zM216 236h4v4h-4zM220 236h4v4h-4zM224 236h4v4h-4zM228 236h4v4h-4zM232 236h4v4h-4zM236 236h4v4h-4zM240 236h4v4h-4zM244 236h4v4h-4z"/><path fill="#7AE8FF" d="M248 236h4v4h-4zM252 236h4v4h-4z"/><path fill="#BDFBFF" d="M256 236h4v4h-4z"/><path fill="#91D7FF" d="M260 236h4v4h-4zM264 236h4v4h-4z"/><path fill="#D6F5FF" d="M268 236h4v4h-4zM84 240h4v4h-4z"/><path fill="#7AE8FF" d="M88 240h4v4h-4z"/><path fill="#91D7FF" d="M92 240h4v4h-4z"/><path fill="#BDFBFF" d="M96 240h4v4h-4zM100 240h4v4h-4zM104 240h4v4h-4z"/><path fill="#4AD3FF" d="M108 240h4v4h-4z"/><path fill="#BDFBFF" d="M112 240h4v4h-4zM116 240h4v4h-4z"/><path fill="#4AD3FF" d="M120 240h4v4h-4zM124 240h4v4h-4zM128 240h4v4h-4zM132 240h4v4h-4zM136 240h4v4h-4z"/><path fill="#91D7FF" d="M140 240h4v4h-4zM144 240h4v4h-4zM148 240h4v4h-4zM152 240h4v4h-4z"/><path fill="#7AE8FF" d="M156 240h4v4h-4zM160 240h4v4h-4z"/><path fill="#4AD3FF" d="M164 240h4v4h-4zM168 240h4v4h-4zM172 240h4v4h-4zM176 240h4v4h-4zM180 240h4v4h-4z"/><path fill="#BDFBFF" d="M184 240h4v4h-4zM188 240h4v4h-4z"/><path fill="#4AD3FF" d="M192 240h4v4h-4zM196 240h4v4h-4zM200 240h4v4h-4zM204 240h4v4h-4zM208 240h4v4h-4zM212 240h4v4h-4zM216 240h4v4h-4zM220 240h4v4h-4zM224 240h4v4h-4zM228 240h4v4h-4zM232 240h4v4h-4zM236 240h4v4h-4zM240 240h4v4h-4z"/><path fill="#7AE8FF" d="M244 240h4v4h-4zM248 240h4v4h-4z"/><path fill="#BDFBFF" d="M252 240h4v4h-4zM256 240h4v4h-4z"/><path fill="#91D7FF" d="M260 240h4v4h-4z"/><path fill="#BDFBFF" d="M264 240h4v4h-4z"/><path fill="#D6F5FF" d="M268 240h4v4h-4zM88 244h4v4h-4z"/><path fill="#7AE8FF" d="M92 244h4v4h-4zM96 244h4v4h-4z"/><path fill="#91D7FF" d="M100 244h4v4h-4z"/><path fill="#BDFBFF" d="M104 244h4v4h-4zM108 244h4v4h-4z"/><path fill="#91D7FF" d="M112 244h4v4h-4z"/><path fill="#BDFBFF" d="M116 244h4v4h-4zM120 244h4v4h-4z"/><path fill="#91D7FF" d="M124 244h4v4h-4z"/><path fill="#4AD3FF" d="M128 244h4v4h-4zM132 244h4v4h-4zM136 244h4v4h-4zM140 244h4v4h-4zM144 244h4v4h-4zM148 244h4v4h-4zM152 244h4v4h-4zM156 244h4v4h-4zM160 244h4v4h-4zM164 244h4v4h-4zM168 244h4v4h-4zM172 244h4v4h-4zM176 244h4v4h-4z"/><path fill="#BDFBFF" d="M180 244h4v4h-4zM184 244h4v4h-4z"/><path fill="#4AD3FF" d="M188 244h4v4h-4zM192 244h4v4h-4zM196 244h4v4h-4zM200 244h4v4h-4zM204 244h4v4h-4zM208 244h4v4h-4zM212 244h4v4h-4zM216 244h4v4h-4zM220 244h4v4h-4zM224 244h4v4h-4zM228 244h4v4h-4zM232 244h4v4h-4zM236 244h4v4h-4z"/><path fill="#7AE8FF" d="M240 244h4v4h-4zM244 244h4v4h-4zM248 244h4v4h-4z"/><path fill="#BDFBFF" d="M252 244h4v4h-4zM256 244h4v4h-4z"/><path fill="#91D7FF" d="M260 244h4v4h-4z"/><path fill="#D6F5FF" d="M264 244h4v4h-4zM92 248h4v4h-4z"/><path fill="#BDFBFF" d="M96 248h4v4h-4z"/><path fill="#7AE8FF" d="M100 248h4v4h-4z"/><path fill="#4AD3FF" d="M104 248h4v4h-4z"/><path fill="#91D7FF" d="M108 248h4v4h-4z"/><path fill="#BDFBFF" d="M112 248h4v4h-4zM116 248h4v4h-4zM120 248h4v4h-4zM124 248h4v4h-4zM128 248h4v4h-4z"/><path fill="#91D7FF" d="M132 248h4v4h-4z"/><path fill="#4AD3FF" d="M136 248h4v4h-4zM140 248h4v4h-4zM144 248h4v4h-4zM148 248h4v4h-4zM152 248h4v4h-4zM156 248h4v4h-4zM160 248h4v4h-4zM164 248h4v4h-4zM168 248h4v4h-4z"/><path fill="#BDFBFF" d="M172 248h4v4h-4zM176 248h4v4h-4zM180 248h4v4h-4z"/><path fill="#4AD3FF" d="M184 248h4v4h-4zM188 248h4v4h-4zM192 248h4v4h-4zM196 248h4v4h-4zM200 248h4v4h-4zM204 248h4v4h-4zM208 248h4v4h-4zM212 248h4v4h-4zM216 248h4v4h-4zM220 248h4v4h-4zM224 248h4v4h-4zM228 248h4v4h-4zM232 248h4v4h-4z"/><path fill="#7AE8FF" d="M236 248h4v4h-4zM240 248h4v4h-4zM244 248h4v4h-4z"/><path fill="#BDFBFF" d="M248 248h4v4h-4zM252 248h4v4h-4z"/><path fill="#91D7FF" d="M256 248h4v4h-4zM260 248h4v4h-4z"/><path fill="#D6F5FF" d="M264 248h4v4h-4zM92 252h4v4h-4z"/><path fill="#91D7FF" d="M96 252h4v4h-4z"/><path fill="#BDFBFF" d="M100 252h4v4h-4zM104 252h4v4h-4z"/><path fill="#4AD3FF" d="M108 252h4v4h-4zM112 252h4v4h-4zM116 252h4v4h-4zM120 252h4v4h-4zM124 252h4v4h-4zM128 252h4v4h-4z"/><path fill="#BDFBFF" d="M132 252h4v4h-4zM136 252h4v4h-4zM140 252h4v4h-4z"/><path fill="#91D7FF" d="M144 252h4v4h-4z"/><path fill="#4AD3FF" d="M148 252h4v4h-4zM152 252h4v4h-4zM156 252h4v4h-4zM160 252h4v4h-4z"/><path fill="#BDFBFF" d="M164 252h4v4h-4zM168 252h4v4h-4zM172 252h4v4h-4z"/><path fill="#91D7FF" d="M176 252h4v4h-4z"/><path fill="#4AD3FF" d="M180 252h4v4h-4zM184 252h4v4h-4zM188 252h4v4h-4zM192 252h4v4h-4zM196 252h4v4h-4zM200 252h4v4h-4zM204 252h4v4h-4zM208 252h4v4h-4zM212 252h4v4h-4zM216 252h4v4h-4zM220 252h4v4h-4zM224 252h4v4h-4zM228 252h4v4h-4z"/><path fill="#7AE8FF" d="M232 252h4v4h-4zM236 252h4v4h-4zM240 252h4v4h-4zM244 252h4v4h-4z"/><path fill="#BDFBFF" d="M248 252h4v4h-4z"/><path fill="#91D7FF" d="M252 252h4v4h-4zM256 252h4v4h-4z"/><path fill="#D6F5FF" d="M260 252h4v4h-4zM92 256h4v4h-4z"/><path fill="#91D7FF" d="M96 256h4v4h-4zM100 256h4v4h-4z"/><path fill="#BDFBFF" d="M104 256h4v4h-4zM108 256h4v4h-4zM112 256h4v4h-4zM116 256h4v4h-4zM120 256h4v4h-4zM124 256h4v4h-4zM128 256h4v4h-4z"/><path fill="#4AD3FF" d="M132 256h4v4h-4zM136 256h4v4h-4zM140 256h4v4h-4zM144 256h4v4h-4zM148 256h4v4h-4z"/><path fill="#BDFBFF" d="M152 256h4v4h-4zM156 256h4v4h-4zM160 256h4v4h-4zM164 256h4v4h-4z"/><path fill="#91D7FF" d="M168 256h4v4h-4zM172 256h4v4h-4z"/><path fill="#4AD3FF" d="M176 256h4v4h-4zM180 256h4v4h-4zM184 256h4v4h-4zM188 256h4v4h-4zM192 256h4v4h-4zM196 256h4v4h-4zM200 256h4v4h-4zM204 256h4v4h-4zM208 256h4v4h-4zM212 256h4v4h-4zM216 256h4v4h-4zM220 256h4v4h-4zM224 256h4v4h-4z"/><path fill="#7AE8FF" d="M228 256h4v4h-4zM232 256h4v4h-4zM236 256h4v4h-4zM240 256h4v4h-4z"/><path fill="#BDFBFF" d="M244 256h4v4h-4z"/><path fill="#91D7FF" d="M248 256h4v4h-4zM252 256h4v4h-4z"/><path fill="#D6F5FF" d="M256 256h4v4h-4zM96 260h4v4h-4z"/><path fill="#91D7FF" d="M100 260h4v4h-4z"/><path fill="#7AE8FF" d="M104 260h4v4h-4zM108 260h4v4h-4z"/><path fill="#4AD3FF" d="M112 260h4v4h-4zM116 260h4v4h-4zM120 260h4v4h-4z"/><path fill="#91D7FF" d="M124 260h4v4h-4z"/><path fill="#BDFBFF" d="M128 260h4v4h-4zM132 260h4v4h-4zM136 260h4v4h-4zM140 260h4v4h-4zM144 260h4v4h-4zM148 260h4v4h-4zM152 260h4v4h-4zM156 260h4v4h-4z"/><path fill="#91D7FF" d="M160 260h4v4h-4z"/><path fill="#4AD3FF" d="M164 260h4v4h-4zM168 260h4v4h-4zM172 260h4v4h-4zM176 260h4v4h-4zM180 260h4v4h-4zM184 260h4v4h-4zM188 260h4v4h-4zM192 260h4v4h-4zM196 260h4v4h-4zM200 260h4v4h-4zM204 260h4v4h-4zM208 260h4v4h-4zM212 260h4v4h-4zM216 260h4v4h-4zM220 260h4v4h-4z"/><path fill="#7AE8FF" d="M224 260h4v4h-4zM228 260h4v4h-4zM232 260h4v4h-4zM236 260h4v4h-4z"/><path fill="#BDFBFF" d="M240 260h4v4h-4z"/><path fill="#91D7FF" d="M244 260h4v4h-4zM248 260h4v4h-4z"/><path fill="#D6F5FF" d="M252 260h4v4h-4zM100 264h4v4h-4z"/><path fill="#91D7FF" d="M104 264h4v4h-4z"/><path fill="#7AE8FF" d="M108 264h4v4h-4zM112 264h4v4h-4z"/><path fill="#4AD3FF" d="M116 264h4v4h-4zM120 264h4v4h-4zM124 264h4v4h-4zM128 264h4v4h-4zM132 264h4v4h-4zM136 264h4v4h-4zM140 264h4v4h-4zM144 264h4v4h-4zM148 264h4v4h-4zM152 264h4v4h-4zM156 264h4v4h-4zM160 264h4v4h-4zM164 264h4v4h-4zM168 264h4v4h-4zM172 264h4v4h-4zM176 264h4v4h-4zM180 264h4v4h-4zM184 264h4v4h-4zM188 264h4v4h-4zM192 264h4v4h-4zM196 264h4v4h-4zM200 264h4v4h-4zM204 264h4v4h-4zM208 264h4v4h-4zM212 264h4v4h-4zM216 264h4v4h-4z"/><path fill="#7AE8FF" d="M220 264h4v4h-4zM224 264h4v4h-4zM228 264h4v4h-4zM232 264h4v4h-4z"/><path fill="#BDFBFF" d="M236 264h4v4h-4z"/><path fill="#91D7FF" d="M240 264h4v4h-4zM244 264h4v4h-4z"/><path fill="#D6F5FF" d="M248 264h4v4h-4zM100 268h4v4h-4z"/><path fill="#91D7FF" d="M104 268h4v4h-4z"/><path fill="#7AE8FF" d="M108 268h4v4h-4zM112 268h4v4h-4zM116 268h4v4h-4zM120 268h4v4h-4z"/><path fill="#4AD3FF" d="M124 268h4v4h-4zM128 268h4v4h-4zM132 268h4v4h-4zM136 268h4v4h-4zM140 268h4v4h-4zM144 268h4v4h-4zM148 268h4v4h-4zM152 268h4v4h-4zM156 268h4v4h-4zM160 268h4v4h-4zM164 268h4v4h-4zM168 268h4v4h-4zM172 268h4v4h-4zM176 268h4v4h-4zM180 268h4v4h-4zM184 268h4v4h-4zM188 268h4v4h-4zM192 268h4v4h-4zM196 268h4v4h-4zM200 268h4v4h-4zM204 268h4v4h-4zM208 268h4v4h-4z"/><path fill="#7AE8FF" d="M212 268h4v4h-4zM216 268h4v4h-4zM220 268h4v4h-4zM224 268h4v4h-4zM228 268h4v4h-4z"/><path fill="#BDFBFF" d="M232 268h4v4h-4z"/><path fill="#91D7FF" d="M236 268h4v4h-4zM240 268h4v4h-4z"/><path fill="#D6F5FF" d="M244 268h4v4h-4zM104 272h4v4h-4z"/><path fill="#91D7FF" d="M108 272h4v4h-4z"/><path fill="#7AE8FF" d="M112 272h4v4h-4zM116 272h4v4h-4zM120 272h4v4h-4zM124 272h4v4h-4zM128 272h4v4h-4z"/><path fill="#4AD3FF" d="M132 272h4v4h-4zM136 272h4v4h-4zM140 272h4v4h-4zM144 272h4v4h-4zM148 272h4v4h-4zM152 272h4v4h-4zM156 272h4v4h-4zM160 272h4v4h-4zM164 272h4v4h-4zM168 272h4v4h-4zM172 272h4v4h-4zM176 272h4v4h-4zM180 272h4v4h-4zM184 272h4v4h-4zM188 272h4v4h-4zM192 272h4v4h-4zM196 272h4v4h-4z"/><path fill="#7AE8FF" d="M200 272h4v4h-4zM204 272h4v4h-4zM208 272h4v4h-4zM212 272h4v4h-4zM216 272h4v4h-4zM220 272h4v4h-4zM224 272h4v4h-4z"/><path fill="#BDFBFF" d="M228 272h4v4h-4z"/><path fill="#91D7FF" d="M232 272h4v4h-4zM236 272h4v4h-4z"/><path fill="#D6F5FF" d="M240 272h4v4h-4zM108 276h4v4h-4z"/><path fill="#91D7FF" d="M112 276h4v4h-4z"/><path fill="#7AE8FF" d="M116 276h4v4h-4zM120 276h4v4h-4zM124 276h4v4h-4zM128 276h4v4h-4zM132 276h4v4h-4zM136 276h4v4h-4zM140 276h4v4h-4z"/><path fill="#4AD3FF" d="M144 276h4v4h-4zM148 276h4v4h-4zM152 276h4v4h-4zM156 276h4v4h-4zM160 276h4v4h-4zM164 276h4v4h-4zM168 276h4v4h-4zM172 276h4v4h-4zM176 276h4v4h-4z"/><path fill="#7AE8FF" d="M180 276h4v4h-4zM184 276h4v4h-4zM188 276h4v4h-4zM192 276h4v4h-4zM196 276h4v4h-4zM200 276h4v4h-4zM204 276h4v4h-4zM208 276h4v4h-4zM212 276h4v4h-4zM216 276h4v4h-4zM220 276h4v4h-4z"/><path fill="#BDFBFF" d="M224 276h4v4h-4z"/><path fill="#91D7FF" d="M228 276h4v4h-4z"/><path fill="#D6F5FF" d="M232 276h4v4h-4zM236 276h4v4h-4zM112 280h4v4h-4z"/><path fill="#91D7FF" d="M116 280h4v4h-4zM120 280h4v4h-4z"/><path fill="#7AE8FF" d="M124 280h4v4h-4zM128 280h4v4h-4zM132 280h4v4h-4zM136 280h4v4h-4zM140 280h4v4h-4zM144 280h4v4h-4zM148 280h4v4h-4zM152 280h4v4h-4zM156 280h4v4h-4zM160 280h4v4h-4zM164 280h4v4h-4zM168 280h4v4h-4zM172 280h4v4h-4zM176 280h4v4h-4zM180 280h4v4h-4zM184 280h4v4h-4zM188 280h4v4h-4zM192 280h4v4h-4zM196 280h4v4h-4zM200 280h4v4h-4zM204 280h4v4h-4zM208 280h4v4h-4zM212 280h4v4h-4z"/><path fill="#91D7FF" d="M216 280h4v4h-4zM220 280h4v4h-4z"/><path fill="#D6F5FF" d="M224 280h4v4h-4zM228 280h4v4h-4zM116 284h4v4h-4zM120 284h4v4h-4z"/><path fill="#91D7FF" d="M124 284h4v4h-4zM128 284h4v4h-4z"/><path fill="#7AE8FF" d="M132 284h4v4h-4zM136 284h4v4h-4zM140 284h4v4h-4zM144 284h4v4h-4zM148 284h4v4h-4zM152 284h4v4h-4zM156 284h4v4h-4zM160 284h4v4h-4zM164 284h4v4h-4zM168 284h4v4h-4zM172 284h4v4h-4zM176 284h4v4h-4zM180 284h4v4h-4zM184 284h4v4h-4zM188 284h4v4h-4zM192 284h4v4h-4zM196 284h4v4h-4zM200 284h4v4h-4zM204 284h4v4h-4z"/><path fill="#91D7FF" d="M208 284h4v4h-4zM212 284h4v4h-4z"/><path fill="#D6F5FF" d="M216 284h4v4h-4zM220 284h4v4h-4zM124 288h4v4h-4zM128 288h4v4h-4z"/><path fill="#91D7FF" d="M132 288h4v4h-4zM136 288h4v4h-4zM140 288h4v4h-4zM144 288h4v4h-4zM148 288h4v4h-4z"/><path fill="#7AE8FF" d="M152 288h4v4h-4zM156 288h4v4h-4zM160 288h4v4h-4zM164 288h4v4h-4zM168 288h4v4h-4zM172 288h4v4h-4zM176 288h4v4h-4zM180 288h4v4h-4z"/><path fill="#91D7FF" d="M184 288h4v4h-4zM188 288h4v4h-4zM192 288h4v4h-4zM196 288h4v4h-4zM200 288h4v4h-4zM204 288h4v4h-4z"/><path fill="#D6F5FF" d="M208 288h4v4h-4zM212 288h4v4h-4zM132 292h4v4h-4zM136 292h4v4h-4zM140 292h4v4h-4zM144 292h4v4h-4z"/><path fill="#91D7FF" d="M148 292h4v4h-4zM152 292h4v4h-4zM156 292h4v4h-4zM160 292h4v4h-4zM164 292h4v4h-4zM168 292h4v4h-4zM172 292h4v4h-4zM176 292h4v4h-4zM180 292h4v4h-4z"/><path fill="#D6F5FF" d="M184 292h4v4h-4zM188 292h4v4h-4zM192 292h4v4h-4zM196 292h4v4h-4zM200 292h4v4h-4zM204 292h4v4h-4zM148 296h4v4h-4zM152 296h4v4h-4zM156 296h4v4h-4zM160 296h4v4h-4zM164 296h4v4h-4zM168 296h4v4h-4zM172 296h4v4h-4zM176 296h4v4h-4zM180 296h4v4h-4z"/></svg>