<svg width="384" height="384" xmlns="http://www.w3.org/2000/svg" shape-rendering="crispEdges"><path fill="#91D7FF" d="M156 108h4v4h-4zM160 108h4v4h-4z"/><path fill="#BDFBFF" d="M164 108h4v4h-4z"/><path fill="#4AD3FF" d="M148 112h4v4h-4z"/><path fill="#7AE8FF" d="M152 112h4v4h-4z"/><path fill="#91D7FF" d="M156 112h4v4h-4zM160 112h4v4h-4zM164 112h4v4h-4zM168 112h4v4h-4z"/><path fill="#7AE8FF" d="M172 112h4v4h-4zM176 112h4v4h-4zM180 112h4v4h-4zM184 112h4v4h-4zM188 112h4v4h-4zM192 112h4v4h-4zM196 112h4v4h-4zM200 112h4v4h-4zM204 112h4v4h-4zM208 112h4v4h-4zM212 112h4v4h-4zM216 112h4v4h-4zM220 112h4v4h-4z"/><path fill="#4AD3FF" d="M124 116h4v4h-4zM128 116h4v4h-4zM132 116h4v4h-4zM136 116h4v4h-4zM140 116h4v4h-4zM144 116h4v4h-4z"/><path fill="#C2EAFF" d="M148 116h4v4h-4z"/><path fill="#BDFBFF" d="M152 116h4v4h-4zM156 116h4v4h-4zM160 116h4v4h-4zM164 116h4v4h-4zM168 116h4v4h-4zM172 116h4v4h-4z"/><path fill="#C2EAFF" d="M176 116h4v4h-4zM180 116h4v4h-4zM184 116h4v4h-4z"/><path fill="#BDFBFF" d="M188 116h4v4h-4zM192 116h4v4h-4zM196 116h4v4h-4z"/><path fill="#C2EAFF" d="M200 116h4v4h-4zM204 116h4v4h-4z"/><path fill="#BDFBFF" d="M208 116h4v4h-4zM212 116h4v4h-4zM216 116h4v4h-4zM220 116h4v4h-4z"/><path fill="#7AE8FF" d="M224 116h4v4h-4zM228 116h4v4h-4z"/><path fill="#4AD3FF" d="M100 120h4v4h-4zM104 120h4v4h-4zM108 120h4v4h-4zM112 120h4v4h-4zM116 120h4v4h-4zM120 120h4v4h-4z"/><path fill="#BDFBFF" d="M124 120h4v4h-4zM128 120h4v4h-4zM132 120h4v4h-4zM136 120h4v4h-4z"/><path fill="#C2EAFF" d="M140 120h4v4h-4zM144 120h4v4h-4zM148 120h4v4h-4z"/><path fill="#BDFBFF" d="M152 120h4v4h-4zM156 120h4v4h-4zM160 120h4v4h-4zM164 120h4v4h-4zM168 120h4v4h-4zM172 120h4v4h-4z"/><path fill="#C2EAFF" d="M176 120h4v4h-4zM180 120h4v4h-4z"/><path fill="#BDFBFF" d="M184 120h4v4h-4zM188 120h4v4h-4zM192 120h4v4h-4z"/><path fill="#C2EAFF" d="M196 120h4v4h-4zM200 120h4v4h-4zM204 120h4v4h-4zM208 120h4v4h-4zM212 120h4v4h-4z"/><path fill="#91D7FF" d="M216 120h4v4h-4z"/><path fill="#BDFBFF" d="M220 120h4v4h-4zM224 120h4v4h-4zM228 120h4v4h-4z"/><path fill="#7AE8FF" d="M232 120h4v4h-4zM236 120h4v4h-4zM240 120h4v4h-4z"/><path fill="#F9FDFF" d="M96 124h4v4h-4zM100 124h4v4h-4zM104 124h4v4h-4zM108 124h4v4h-4zM112 124h4v4h-4zM116 124h4v4h-4z"/><path fill="#BDFBFF" d="M120 124h4v4h-4zM124 124h4v4h-4zM128 124h4v4h-4z"/><path fill="#C2EAFF" d="M132 124h4v4h-4zM136 124h4v4h-4zM140 124h4v4h-4zM144 124h4v4h-4z"/><path fill="#BDFBFF" d="M148 124h4v4h-4zM152 124h4v4h-4zM156 124h4v4h-4zM160 124h4v4h-4zM164 124h4v4h-4zM168 124h4v4h-4zM172 124h4v4h-4zM176 124h4v4h-4zM180 124h4v4h-4zM184 124h4v4h-4zM188 124h4v4h-4z"/><path fill="#C2EAFF" d="M192 124h4v4h-4zM196 124h4v4h-4z"/><path fill="#91D7FF" d="M200 124h4v4h-4z"/><path fill="#F9FDFF" d="M204 124h4v4h-4z"/><path fill="#C2EAFF" d="M208 124h4v4h-4zM212 124h4v4h-4z"/><path fill="#91D7FF" d="M216 124h4v4h-4zM220 124h4v4h-4z"/><path fill="#C2EAFF" d="M224 124h4v4h-4z"/><path fill="#91D7FF" d="M228 124h4v4h-4z"/><path fill="#C2EAFF" d="M232 124h4v4h-4zM236 124h4v4h-4zM240 124h4v4h-4z"/><path fill="#7AE8FF" d="M244 124h4v4h-4zM248 124h4v4h-4zM252 124h4v4h-4z"/><path fill="#4AD3FF" d="M92 128h4v4h-4z"/><path fill="#C2EAFF" d="M96 128h4v4h-4z"/><path fill="#F9FDFF" d="M100 128h4v4h-4zM104 128h4v4h-4zM108 128h4v4h-4z"/><path fill="#BDFBFF" d="M112 128h4v4h-4zM116 128h4v4h-4zM120 128h4v4h-4z"/><path fill="#C2EAFF" d="M124 128h4v4h-4zM128 128h4v4h-4zM132 128h4v4h-4z"/><path fill="#91D7FF" d="M136 128h4v4h-4zM140 128h4v4h-4zM144 128h4v4h-4z"/><path fill="#F9FDFF" d="M148 128h4v4h-4z"/><path fill="#BDFBFF" d="M152 128h4v4h-4zM156 128h4v4h-4zM160 128h4v4h-4zM164 128h4v4h-4zM168 128h4v4h-4z"/><path fill="#C2EAFF" d="M172 128h4v4h-4zM176 128h4v4h-4z"/><path fill="#BDFBFF" d="M180 128h4v4h-4zM184 128h4v4h-4zM188 128h4v4h-4z"/><path fill="#C2EAFF" d="M192 128h4v4h-4z"/><path fill="#BDFBFF" d="M196 128h4v4h-4z"/><path fill="#91D7FF" d="M200 128h4v4h-4zM204 128h4v4h-4zM208 128h4v4h-4z"/><path fill="#C2EAFF" d="M212 128h4v4h-4z"/><path fill="#91D7FF" d="M216 128h4v4h-4zM220 128h4v4h-4z"/><path fill="#C2EAFF" d="M224 128h4v4h-4z"/><path fill="#91D7FF" d="M228 128h4v4h-4zM232 128h4v4h-4zM236 128h4v4h-4zM240 128h4v4h-4z"/><path fill="#C2EAFF" d="M244 128h4v4h-4zM248 128h4v4h-4zM252 128h4v4h-4z"/><path fill="#7AE8FF" d="M256 128h4v4h-4zM260 128h4v4h-4zM264 128h4v4h-4z"/><path fill="#4AD3FF" d="M92 132h4v4h-4z"/><path fill="#7AE8FF" d="M96 132h4v4h-4z"/><path fill="#BDFBFF" d="M100 132h4v4h-4zM104 132h4v4h-4zM108 132h4v4h-4zM112 132h4v4h-4zM116 132h4v4h-4z"/><path fill="#C2EAFF" d="M120 132h4v4h-4zM124 132h4v4h-4zM128 132h4v4h-4z"/><path fill="#7AE8FF" d="M132 132h4v4h-4zM136 132h4v4h-4zM140 132h4v4h-4z"/><path fill="#91D7FF" d="M144 132h4v4h-4zM148 132h4v4h-4zM152 132h4v4h-4z"/><path fill="#BDFBFF" d="M156 132h4v4h-4zM160 132h4v4h-4zM164 132h4v4h-4z"/><path fill="#C2EAFF" d="M168 132h4v4h-4zM172 132h4v4h-4z"/><path fill="#BDFBFF" d="M176 132h4v4h-4zM180 132h4v4h-4zM184 132h4v4h-4z"/><path fill="#C2EAFF" d="M188 132h4v4h-4zM192 132h4v4h-4zM196 132h4v4h-4zM200 132h4v4h-4zM204 132h4v4h-4zM208 132h4v4h-4zM212 132h4v4h-4zM216 132h4v4h-4z"/><path fill="#91D7FF" d="M220 132h4v4h-4z"/><path fill="#C2EAFF" d="M224 132h4v4h-4z"/><path fill="#91D7FF" d="M228 132h4v4h-4zM232 132h4v4h-4zM236 132h4v4h-4zM240 132h4v4h-4zM244 132h4v4h-4zM248 132h4v4h-4z"/><path fill="#C2EAFF" d="M252 132h4v4h-4zM256 132h4v4h-4zM260 132h4v4h-4z"/><path fill="#4AD3FF" d="M264 132h4v4h-4zM88 136h4v4h-4zM92 136h4v4h-4zM96 136h4v4h-4zM100 136h4v4h-4z"/><path fill="#BDFBFF" d="M104 136h4v4h-4zM108 136h4v4h-4zM112 136h4v4h-4zM116 136h4v4h-4z"/><path fill="#C2EAFF" d="M120 136h4v4h-4zM124 136h4v4h-4zM128 136h4v4h-4z"/><path fill="#BDFBFF" d="M132 136h4v4h-4zM136 136h4v4h-4z"/><path fill="#7AE8FF" d="M140 136h4v4h-4z"/><path fill="#91D7FF" d="M144 136h4v4h-4zM148 136h4v4h-4zM152 136h4v4h-4z"/><path fill="#BDFBFF" d="M156 136h4v4h-4zM160 136h4v4h-4zM164 136h4v4h-4z"/><path fill="#C2EAFF" d="M168 136h4v4h-4zM172 136h4v4h-4z"/><path fill="#BDFBFF" d="M176 136h4v4h-4zM180 136h4v4h-4zM184 136h4v4h-4z"/><path fill="#C2EAFF" d="M188 136h4v4h-4zM192 136h4v4h-4zM196 136h4v4h-4zM200 136h4v4h-4zM204 136h4v4h-4zM208 136h4v4h-4zM212 136h4v4h-4zM216 136h4v4h-4z"/><path fill="#91D7FF" d="M220 136h4v4h-4z"/><path fill="#C2EAFF" d="M224 136h4v4h-4z"/><path fill="#91D7FF" d="M228 136h4v4h-4zM232 136h4v4h-4zM236 136h4v4h-4zM240 136h4v4h-4zM244 136h4v4h-4zM248 136h4v4h-4zM252 136h4v4h-4z"/><path fill="#C2EAFF" d="M256 136h4v4h-4z"/><path fill="#BDFBFF" d="M260 136h4v4h-4zM264 136h4v4h-4zM268 136h4v4h-4z"/><path fill="#4AD3FF" d="M88 140h4v4h-4z"/><path fill="#7AE8FF" d="M92 140h4v4h-4z"/><path fill="#4AD3FF" d="M96 140h4v4h-4zM100 140h4v4h-4z"/><path fill="#7AE8FF" d="M104 140h4v4h-4z"/><path fill="#4AD3FF" d="M108 140h4v4h-4z"/><path fill="#BDFBFF" d="M112 140h4v4h-4zM116 140h4v4h-4z"/><path fill="#C2EAFF" d="M120 140h4v4h-4z"/><path fill="#7AE8FF" d="M124 140h4v4h-4zM128 140h4v4h-4zM132 140h4v4h-4z"/><path fill="#C2EAFF" d="M136 140h4v4h-4z"/><path fill="#BDFBFF" d="M140 140h4v4h-4zM144 140h4v4h-4zM148 140h4v4h-4zM152 140h4v4h-4zM156 140h4v4h-4z"/><path fill="#C2EAFF" d="M160 140h4v4h-4zM164 140h4v4h-4zM168 140h4v4h-4zM172 140h4v4h-4z"/><path fill="#BDFBFF" d="M176 140h4v4h-4zM180 140h4v4h-4zM184 140h4v4h-4z"/><path fill="#C2EAFF" d="M188 140h4v4h-4zM192 140h4v4h-4zM196 140h4v4h-4z"/><path fill="#BDFBFF" d="M200 140h4v4h-4zM204 140h4v4h-4z"/><path fill="#C2EAFF" d="M208 140h4v4h-4zM212 140h4v4h-4zM216 140h4v4h-4zM220 140h4v4h-4zM224 140h4v4h-4z"/><path fill="#91D7FF" d="M228 140h4v4h-4zM232 140h4v4h-4zM236 140h4v4h-4z"/><path fill="#C2EAFF" d="M240 140h4v4h-4z"/><path fill="#BDFBFF" d="M244 140h4v4h-4zM248 140h4v4h-4zM252 140h4v4h-4zM256 140h4v4h-4zM260 140h4v4h-4zM264 140h4v4h-4zM268 140h4v4h-4z"/><path fill="#4AD3FF" d="M88 144h4v4h-4z"/><path fill="#7AE8FF" d="M92 144h4v4h-4z"/><path fill="#BDFBFF" d="M96 144h4v4h-4z"/><path fill="#7AE8FF" d="M100 144h4v4h-4z"/><path fill="#4AD3FF" d="M104 144h4v4h-4zM108 144h4v4h-4z"/><path fill="#BDFBFF" d="M112 144h4v4h-4z"/><path fill="#C2EAFF" d="M116 144h4v4h-4zM120 144h4v4h-4zM124 144h4v4h-4zM128 144h4v4h-4zM132 144h4v4h-4z"/><path fill="#BDFBFF" d="M136 144h4v4h-4zM140 144h4v4h-4zM144 144h4v4h-4zM148 144h4v4h-4zM152 144h4v4h-4zM156 144h4v4h-4z"/><path fill="#C2EAFF" d="M160 144h4v4h-4zM164 144h4v4h-4zM168 144h4v4h-4z"/><path fill="#BDFBFF" d="M172 144h4v4h-4zM176 144h4v4h-4zM180 144h4v4h-4zM184 144h4v4h-4z"/><path fill="#C2EAFF" d="M188 144h4v4h-4zM192 144h4v4h-4zM196 144h4v4h-4zM200 144h4v4h-4zM204 144h4v4h-4zM208 144h4v4h-4zM212 144h4v4h-4zM216 144h4v4h-4z"/><path fill="#BDFBFF" d="M220 144h4v4h-4zM224 144h4v4h-4zM228 144h4v4h-4zM232 144h4v4h-4zM236 144h4v4h-4zM240 144h4v4h-4zM244 144h4v4h-4zM248 144h4v4h-4zM252 144h4v4h-4z"/><path fill="#91D7FF" d="M256 144h4v4h-4z"/><path fill="#BDFBFF" d="M260 144h4v4h-4zM264 144h4v4h-4z"/><path fill="#7AE8FF" d="M268 144h4v4h-4z"/><path fill="#4AD3FF" d="M88 148h4v4h-4z"/><path fill="#BDFBFF" d="M92 148h4v4h-4zM96 148h4v4h-4z"/><path fill="#7AE8FF" d="M100 148h4v4h-4z"/><path fill="#4AD3FF" d="M104 148h4v4h-4zM108 148h4v4h-4zM112 148h4v4h-4z"/><path fill="#C2EAFF" d="M116 148h4v4h-4zM120 148h4v4h-4zM124 148h4v4h-4zM128 148h4v4h-4z"/><path fill="#BDFBFF" d="M132 148h4v4h-4zM136 148h4v4h-4zM140 148h4v4h-4zM144 148h4v4h-4zM148 148h4v4h-4zM152 148h4v4h-4zM156 148h4v4h-4z"/><path fill="#C2EAFF" d="M160 148h4v4h-4zM164 148h4v4h-4z"/><path fill="#BDFBFF" d="M168 148h4v4h-4zM172 148h4v4h-4zM176 148h4v4h-4z"/><path fill="#C2EAFF" d="M180 148h4v4h-4zM184 148h4v4h-4zM188 148h4v4h-4zM192 148h4v4h-4zM196 148h4v4h-4z"/><path fill="#BDFBFF" d="M200 148h4v4h-4zM204 148h4v4h-4zM208 148h4v4h-4zM212 148h4v4h-4zM216 148h4v4h-4zM220 148h4v4h-4zM224 148h4v4h-4z"/><path fill="#91D7FF" d="M228 148h4v4h-4zM232 148h4v4h-4z"/><path fill="#BDFBFF" d="M236 148h4v4h-4z"/><path fill="#4AD3FF" d="M240 148h4v4h-4zM244 148h4v4h-4zM248 148h4v4h-4zM252 148h4v4h-4z"/><path fill="#BDFBFF" d="M256 148h4v4h-4z"/><path fill="#F9FDFF" d="M260 148h4v4h-4zM264 148h4v4h-4z"/><path fill="#7AE8FF" d="M268 148h4v4h-4z"/><path fill="#4AD3FF" d="M88 152h4v4h-4z"/><path fill="#BDFBFF" d="M92 152h4v4h-4zM96 152h4v4h-4z"/><path fill="#7AE8FF" d="M100 152h4v4h-4z"/><path fill="#4AD3FF" d="M104 152h4v4h-4zM108 152h4v4h-4zM112 152h4v4h-4zM116 152h4v4h-4z"/><path fill="#BDFBFF" d="M120 152h4v4h-4zM124 152h4v4h-4zM128 152h4v4h-4zM132 152h4v4h-4zM136 152h4v4h-4zM140 152h4v4h-4z"/><path fill="#F9FDFF" d="M144 152h4v4h-4z"/><path fill="#BDFBFF" d="M148 152h4v4h-4zM152 152h4v4h-4zM156 152h4v4h-4zM160 152h4v4h-4zM164 152h4v4h-4zM168 152h4v4h-4zM172 152h4v4h-4zM176 152h4v4h-4zM180 152h4v4h-4zM184 152h4v4h-4zM188 152h4v4h-4zM192 152h4v4h-4zM196 152h4v4h-4z"/><path fill="#7AE8FF" d="M200 152h4v4h-4zM204 152h4v4h-4zM208 152h4v4h-4zM212 152h4v4h-4zM216 152h4v4h-4zM220 152h4v4h-4zM224 152h4v4h-4zM228 152h4v4h-4zM232 152h4v4h-4z"/><path fill="#BDFBFF" d="M236 152h4v4h-4z"/><path fill="#7AE8FF" d="M240 152h4v4h-4zM244 152h4v4h-4zM248 152h4v4h-4z"/><path fill="#4AD3FF" d="M252 152h4v4h-4z"/><path fill="#BDFBFF" d="M256 152h4v4h-4z"/><path fill="#F9FDFF" d="M260 152h4v4h-4zM264 152h4v4h-4z"/><path fill="#7AE8FF" d="M268 152h4v4h-4z"/><path fill="#4AD3FF" d="M88 156h4v4h-4z"/><path fill="#BDFBFF" d="M92 156h4v4h-4z"/><path fill="#7AE8FF" d="M96 156h4v4h-4zM100 156h4v4h-4z"/><path fill="#4AD3FF" d="M104 156h4v4h-4zM108 156h4v4h-4z"/><path fill="#7AE8FF" d="M112 156h4v4h-4z"/><path fill="#BDFBFF" d="M116 156h4v4h-4z"/><path fill="#4AD3FF" d="M120 156h4v4h-4z"/><path fill="#7AE8FF" d="M124 156h4v4h-4z"/><path fill="#BDFBFF" d="M128 156h4v4h-4zM132 156h4v4h-4zM136 156h4v4h-4z"/><path fill="#F9FDFF" d="M140 156h4v4h-4zM144 156h4v4h-4zM148 156h4v4h-4z"/><path fill="#BDFBFF" d="M152 156h4v4h-4zM156 156h4v4h-4zM160 156h4v4h-4z"/><path fill="#C2EAFF" d="M164 156h4v4h-4z"/><path fill="#BDFBFF" d="M168 156h4v4h-4z"/><path fill="#91D7FF" d="M172 156h4v4h-4z"/><path fill="#7AE8FF" d="M176 156h4v4h-4zM180 156h4v4h-4zM184 156h4v4h-4zM188 156h4v4h-4zM192 156h4v4h-4zM196 156h4v4h-4zM200 156h4v4h-4zM204 156h4v4h-4zM208 156h4v4h-4zM212 156h4v4h-4zM216 156h4v4h-4zM220 156h4v4h-4zM224 156h4v4h-4zM228 156h4v4h-4zM232 156h4v4h-4zM236 156h4v4h-4zM240 156h4v4h-4z"/><path fill="#4AD3FF" d="M244 156h4v4h-4zM248 156h4v4h-4zM252 156h4v4h-4z"/><path fill="#BDFBFF" d="M256 156h4v4h-4z"/><path fill="#F9FDFF" d="M260 156h4v4h-4zM264 156h4v4h-4z"/><path fill="#7AE8FF" d="M268 156h4v4h-4z"/><path fill="#4AD3FF" d="M88 160h4v4h-4z"/><path fill="#BDFBFF" d="M92 160h4v4h-4z"/><path fill="#7AE8FF" d="M96 160h4v4h-4zM100 160h4v4h-4z"/><path fill="#4AD3FF" d="M104 160h4v4h-4zM108 160h4v4h-4z"/><path fill="#7AE8FF" d="M112 160h4v4h-4z"/><path fill="#BDFBFF" d="M116 160h4v4h-4z"/><path fill="#7AE8FF" d="M120 160h4v4h-4z"/><path fill="#4AD3FF" d="M124 160h4v4h-4z"/><path fill="#BDFBFF" d="M128 160h4v4h-4zM132 160h4v4h-4zM136 160h4v4h-4z"/><path fill="#F9FDFF" d="M140 160h4v4h-4zM144 160h4v4h-4zM148 160h4v4h-4z"/><path fill="#91D7FF" d="M152 160h4v4h-4zM156 160h4v4h-4z"/><path fill="#C2EAFF" d="M160 160h4v4h-4zM164 160h4v4h-4zM168 160h4v4h-4z"/><path fill="#91D7FF" d="M172 160h4v4h-4zM176 160h4v4h-4zM180 160h4v4h-4zM184 160h4v4h-4z"/><path fill="#7AE8FF" d="M188 160h4v4h-4z"/><path fill="#91D7FF" d="M192 160h4v4h-4zM196 160h4v4h-4zM200 160h4v4h-4zM204 160h4v4h-4zM208 160h4v4h-4zM212 160h4v4h-4z"/><path fill="#7AE8FF" d="M216 160h4v4h-4z"/><path fill="#91D7FF" d="M220 160h4v4h-4zM224 160h4v4h-4z"/><path fill="#4AD3FF" d="M228 160h4v4h-4zM232 160h4v4h-4zM236 160h4v4h-4zM240 160h4v4h-4zM244 160h4v4h-4zM248 160h4v4h-4zM252 160h4v4h-4z"/><path fill="#BDFBFF" d="M256 160h4v4h-4zM260 160h4v4h-4z"/><path fill="#F9FDFF" d="M264 160h4v4h-4z"/><path fill="#7AE8FF" d="M268 160h4v4h-4z"/><path fill="#4AD3FF" d="M88 164h4v4h-4z"/><path fill="#7AE8FF" d="M92 164h4v4h-4zM96 164h4v4h-4zM100 164h4v4h-4z"/><path fill="#4AD3FF" d="M104 164h4v4h-4zM108 164h4v4h-4z"/><path fill="#7AE8FF" d="M112 164h4v4h-4z"/><path fill="#BDFBFF" d="M116 164h4v4h-4zM120 164h4v4h-4z"/><path fill="#4AD3FF" d="M124 164h4v4h-4z"/><path fill="#7AE8FF" d="M128 164h4v4h-4z"/><path fill="#BDFBFF" d="M132 164h4v4h-4z"/><path fill="#91D7FF" d="M136 164h4v4h-4z"/><path fill="#C2EAFF" d="M140 164h4v4h-4z"/><path fill="#F9FDFF" d="M144 164h4v4h-4z"/><path fill="#C2EAFF" d="M148 164h4v4h-4z"/><path fill="#91D7FF" d="M152 164h4v4h-4zM156 164h4v4h-4z"/><path fill="#C2EAFF" d="M160 164h4v4h-4zM164 164h4v4h-4z"/><path fill="#F9FDFF" d="M168 164h4v4h-4z"/><path fill="#91D7FF" d="M172 164h4v4h-4zM176 164h4v4h-4zM180 164h4v4h-4zM184 164h4v4h-4z"/><path fill="#7AE8FF" d="M188 164h4v4h-4z"/><path fill="#91D7FF" d="M192 164h4v4h-4zM196 164h4v4h-4zM200 164h4v4h-4zM204 164h4v4h-4zM208 164h4v4h-4zM212 164h4v4h-4zM216 164h4v4h-4zM220 164h4v4h-4zM224 164h4v4h-4z"/><path fill="#4AD3FF" d="M228 164h4v4h-4zM232 164h4v4h-4zM236 164h4v4h-4zM240 164h4v4h-4zM244 164h4v4h-4zM248 164h4v4h-4zM252 164h4v4h-4zM256 164h4v4h-4z"/><path fill="#BDFBFF" d="M260 164h4v4h-4zM264 164h4v4h-4z"/><path fill="#7AE8FF" d="M268 164h4v4h-4z"/><path fill="#4AD3FF" d="M88 168h4v4h-4z"/><path fill="#7AE8FF" d="M92 168h4v4h-4zM96 168h4v4h-4zM100 168h4v4h-4z"/><path fill="#4AD3FF" d="M104 168h4v4h-4zM108 168h4v4h-4z"/><path fill="#7AE8FF" d="M112 168h4v4h-4zM116 168h4v4h-4z"/><path fill="#BDFBFF" d="M120 168h4v4h-4z"/><path fill="#4AD3FF" d="M124 168h4v4h-4zM128 168h4v4h-4z"/><path fill="#BDFBFF" d="M132 168h4v4h-4z"/><path fill="#91D7FF" d="M136 168h4v4h-4z"/><path fill="#C2EAFF" d="M140 168h4v4h-4zM144 168h4v4h-4zM148 168h4v4h-4z"/><path fill="#91D7FF" d="M152 168h4v4h-4zM156 168h4v4h-4z"/><path fill="#BDFBFF" d="M160 168h4v4h-4z"/><path fill="#C2EAFF" d="M164 168h4v4h-4z"/><path fill="#F9FDFF" d="M168 168h4v4h-4z"/><path fill="#BDFBFF" d="M172 168h4v4h-4z"/><path fill="#91D7FF" d="M176 168h4v4h-4zM180 168h4v4h-4zM184 168h4v4h-4z"/><path fill="#7AE8FF" d="M188 168h4v4h-4z"/><path fill="#91D7FF" d="M192 168h4v4h-4zM196 168h4v4h-4zM200 168h4v4h-4zM204 168h4v4h-4zM208 168h4v4h-4zM212 168h4v4h-4zM216 168h4v4h-4zM220 168h4v4h-4zM224 168h4v4h-4z"/><path fill="#4AD3FF" d="M228 168h4v4h-4zM232 168h4v4h-4zM236 168h4v4h-4zM240 168h4v4h-4zM244 168h4v4h-4zM248 168h4v4h-4zM252 168h4v4h-4zM256 168h4v4h-4z"/><path fill="#91D7FF" d="M260 168h4v4h-4z"/><path fill="#4AD3FF" d="M264 168h4v4h-4z"/><path fill="#7AE8FF" d="M268 168h4v4h-4z"/><path fill="#4AD3FF" d="M88 172h4v4h-4zM92 172h4v4h-4z"/><path fill="#7AE8FF" d="M96 172h4v4h-4zM100 172h4v4h-4zM104 172h4v4h-4z"/><path fill="#4AD3FF" d="M108 172h4v4h-4z"/><path fill="#7AE8FF" d="M112 172h4v4h-4zM116 172h4v4h-4z"/><path fill="#BDFBFF" d="M120 172h4v4h-4z"/><path fill="#4AD3FF" d="M124 172h4v4h-4zM128 172h4v4h-4z"/><path fill="#BDFBFF" d="M132 172h4v4h-4z"/><path fill="#91D7FF" d="M136 172h4v4h-4z"/><path fill="#C2EAFF" d="M140 172h4v4h-4zM144 172h4v4h-4zM148 172h4v4h-4z"/><path fill="#91D7FF" d="M152 172h4v4h-4z"/><path fill="#7AE8FF" d="M156 172h4v4h-4z"/><path fill="#BDFBFF" d="M160 172h4v4h-4z"/><path fill="#C2EAFF" d="M164 172h4v4h-4z"/><path fill="#F9FDFF" d="M168 172h4v4h-4z"/><path fill="#BDFBFF" d="M172 172h4v4h-4z"/><path fill="#91D7FF" d="M176 172h4v4h-4zM180 172h4v4h-4zM184 172h4v4h-4zM188 172h4v4h-4zM192 172h4v4h-4zM196 172h4v4h-4zM200 172h4v4h-4zM204 172h4v4h-4zM208 172h4v4h-4zM212 172h4v4h-4zM216 172h4v4h-4zM220 172h4v4h-4zM224 172h4v4h-4z"/><path fill="#4AD3FF" d="M228 172h4v4h-4zM232 172h4v4h-4zM236 172h4v4h-4zM240 172h4v4h-4zM244 172h4v4h-4zM248 172h4v4h-4zM252 172h4v4h-4zM256 172h4v4h-4zM260 172h4v4h-4zM264 172h4v4h-4z"/><path fill="#7AE8FF" d="M268 172h4v4h-4z"/><path fill="#4AD3FF" d="M88 176h4v4h-4zM92 176h4v4h-4z"/><path fill="#7AE8FF" d="M96 176h4v4h-4zM100 176h4v4h-4zM104 176h4v4h-4z"/><path fill="#4AD3FF" d="M108 176h4v4h-4z"/><path fill="#7AE8FF" d="M112 176h4v4h-4zM116 176h4v4h-4zM120 176h4v4h-4z"/><path fill="#4AD3FF" d="M124 176h4v4h-4zM128 176h4v4h-4z"/><path fill="#BDFBFF" d="M132 176h4v4h-4z"/><path fill="#91D7FF" d="M136 176h4v4h-4z"/><path fill="#C2EAFF" d="M140 176h4v4h-4zM144 176h4v4h-4z"/><path fill="#91D7FF" d="M148 176h4v4h-4zM152 176h4v4h-4z"/><path fill="#7AE8FF" d="M156 176h4v4h-4z"/><path fill="#BDFBFF" d="M160 176h4v4h-4z"/><path fill="#C2EAFF" d="M164 176h4v4h-4zM168 176h4v4h-4zM172 176h4v4h-4z"/><path fill="#91D7FF" d="M176 176h4v4h-4zM180 176h4v4h-4zM184 176h4v4h-4zM188 176h4v4h-4zM192 176h4v4h-4zM196 176h4v4h-4zM200 176h4v4h-4zM204 176h4v4h-4zM208 176h4v4h-4zM212 176h4v4h-4zM216 176h4v4h-4zM220 176h4v4h-4zM224 176h4v4h-4z"/><path fill="#4AD3FF" d="M228 176h4v4h-4z"/><path fill="#91D7FF" d="M232 176h4v4h-4z"/><path fill="#4AD3FF" d="M236 176h4v4h-4zM240 176h4v4h-4zM244 176h4v4h-4zM248 176h4v4h-4zM252 176h4v4h-4zM256 176h4v4h-4zM260 176h4v4h-4zM264 176h4v4h-4z"/><path fill="#7AE8FF" d="M268 176h4v4h-4z"/><path fill="#4AD3FF" d="M88 180h4v4h-4zM92 180h4v4h-4z"/><path fill="#7AE8FF" d="M96 180h4v4h-4zM100 180h4v4h-4zM104 180h4v4h-4zM108 180h4v4h-4zM112 180h4v4h-4z"/><path fill="#4AD3FF" d="M116 180h4v4h-4z"/><path fill="#7AE8FF" d="M120 180h4v4h-4z"/><path fill="#4AD3FF" d="M124 180h4v4h-4zM128 180h4v4h-4z"/><path fill="#91D7FF" d="M132 180h4v4h-4zM136 180h4v4h-4z"/><path fill="#C2EAFF" d="M140 180h4v4h-4z"/><path fill="#BDFBFF" d="M144 180h4v4h-4z"/><path fill="#91D7FF" d="M148 180h4v4h-4zM152 180h4v4h-4z"/><path fill="#7AE8FF" d="M156 180h4v4h-4z"/><path fill="#BDFBFF" d="M160 180h4v4h-4z"/><path fill="#C2EAFF" d="M164 180h4v4h-4zM168 180h4v4h-4zM172 180h4v4h-4z"/><path fill="#91D7FF" d="M176 180h4v4h-4zM180 180h4v4h-4zM184 180h4v4h-4zM188 180h4v4h-4zM192 180h4v4h-4zM196 180h4v4h-4zM200 180h4v4h-4zM204 180h4v4h-4zM208 180h4v4h-4zM212 180h4v4h-4zM216 180h4v4h-4zM220 180h4v4h-4zM224 180h4v4h-4z"/><path fill="#4AD3FF" d="M228 180h4v4h-4z"/><path fill="#91D7FF" d="M232 180h4v4h-4z"/><path fill="#4AD3FF" d="M236 180h4v4h-4zM240 180h4v4h-4zM244 180h4v4h-4zM248 180h4v4h-4zM252 180h4v4h-4zM256 180h4v4h-4zM260 180h4v4h-4zM264 180h4v4h-4z"/><path fill="#7AE8FF" d="M268 180h4v4h-4z"/><path fill="#4AD3FF" d="M92 184h4v4h-4z"/><path fill="#7AE8FF" d="M96 184h4v4h-4zM100 184h4v4h-4zM104 184h4v4h-4zM108 184h4v4h-4zM112 184h4v4h-4z"/><path fill="#4AD3FF" d="M116 184h4v4h-4z"/><path fill="#7AE8FF" d="M120 184h4v4h-4z"/><path fill="#4AD3FF" d="M124 184h4v4h-4zM128 184h4v4h-4z"/><path fill="#91D7FF" d="M132 184h4v4h-4z"/><path fill="#7AE8FF" d="M136 184h4v4h-4z"/><path fill="#C2EAFF" d="M140 184h4v4h-4zM144 184h4v4h-4z"/><path fill="#91D7FF" d="M148 184h4v4h-4zM152 184h4v4h-4zM156 184h4v4h-4z"/><path fill="#7AE8FF" d="M160 184h4v4h-4z"/><path fill="#BDFBFF" d="M164 184h4v4h-4zM168 184h4v4h-4z"/><path fill="#91D7FF" d="M172 184h4v4h-4zM176 184h4v4h-4zM180 184h4v4h-4zM184 184h4v4h-4zM188 184h4v4h-4zM192 184h4v4h-4zM196 184h4v4h-4zM200 184h4v4h-4zM204 184h4v4h-4zM208 184h4v4h-4zM212 184h4v4h-4zM216 184h4v4h-4zM220 184h4v4h-4zM224 184h4v4h-4z"/><path fill="#4AD3FF" d="M228 184h4v4h-4z"/><path fill="#91D7FF" d="M232 184h4v4h-4z"/><path fill="#4AD3FF" d="M236 184h4v4h-4zM240 184h4v4h-4zM244 184h4v4h-4zM248 184h4v4h-4zM252 184h4v4h-4zM256 184h4v4h-4zM260 184h4v4h-4zM264 184h4v4h-4z"/><path fill="#7AE8FF" d="M268 184h4v4h-4z"/><path fill="#4AD3FF" d="M92 188h4v4h-4z"/><path fill="#BDFBFF" d="M96 188h4v4h-4z"/><path fill="#7AE8FF" d="M100 188h4v4h-4zM104 188h4v4h-4z"/><path fill="#4AD3FF" d="M108 188h4v4h-4z"/><path fill="#7AE8FF" d="M112 188h4v4h-4zM116 188h4v4h-4zM120 188h4v4h-4z"/><path fill="#4AD3FF" d="M124 188h4v4h-4zM128 188h4v4h-4z"/><path fill="#91D7FF" d="M132 188h4v4h-4z"/><path fill="#7AE8FF" d="M136 188h4v4h-4z"/><path fill="#C2EAFF" d="M140 188h4v4h-4zM144 188h4v4h-4z"/><path fill="#91D7FF" d="M148 188h4v4h-4zM152 188h4v4h-4zM156 188h4v4h-4zM160 188h4v4h-4zM164 188h4v4h-4zM168 188h4v4h-4zM172 188h4v4h-4zM176 188h4v4h-4zM180 188h4v4h-4zM184 188h4v4h-4zM188 188h4v4h-4zM192 188h4v4h-4zM196 188h4v4h-4zM200 188h4v4h-4zM204 188h4v4h-4zM208 188h4v4h-4zM212 188h4v4h-4zM216 188h4v4h-4zM220 188h4v4h-4zM224 188h4v4h-4z"/><path fill="#4AD3FF" d="M228 188h4v4h-4z"/><path fill="#91D7FF" d="M232 188h4v4h-4z"/><path fill="#4AD3FF" d="M236 188h4v4h-4zM240 188h4v4h-4zM244 188h4v4h-4zM248 188h4v4h-4zM252 188h4v4h-4zM256 188h4v4h-4zM260 188h4v4h-4zM264 188h4v4h-4z"/><path fill="#7AE8FF" d="M268 188h4v4h-4z"/><path fill="#4AD3FF" d="M92 192h4v4h-4z"/><path fill="#BDFBFF" d="M96 192h4v4h-4z"/><path fill="#7AE8FF" d="M100 192h4v4h-4zM104 192h4v4h-4z"/><path fill="#4AD3FF" d="M108 192h4v4h-4z"/><path fill="#7AE8FF" d="M112 192h4v4h-4zM116 192h4v4h-4zM120 192h4v4h-4zM124 192h4v4h-4z"/><path fill="#4AD3FF" d="M128 192h4v4h-4z"/><path fill="#7AE8FF" d="M132 192h4v4h-4zM136 192h4v4h-4z"/><path fill="#C2EAFF" d="M140 192h4v4h-4zM144 192h4v4h-4z"/><path fill="#91D7FF" d="M148 192h4v4h-4zM152 192h4v4h-4zM156 192h4v4h-4zM160 192h4v4h-4zM164 192h4v4h-4zM168 192h4v4h-4zM172 192h4v4h-4zM176 192h4v4h-4zM180 192h4v4h-4zM184 192h4v4h-4zM188 192h4v4h-4zM192 192h4v4h-4zM196 192h4v4h-4zM200 192h4v4h-4zM204 192h4v4h-4zM208 192h4v4h-4zM212 192h4v4h-4zM216 192h4v4h-4zM220 192h4v4h-4zM224 192h4v4h-4z"/><path fill="#4AD3FF" d="M228 192h4v4h-4z"/><path fill="#91D7FF" d="M232 192h4v4h-4z"/><path fill="#4AD3FF" d="M236 192h4v4h-4zM240 192h4v4h-4zM244 192h4v4h-4zM248 192h4v4h-4zM252 192h4v4h-4zM256 192h4v4h-4zM260 192h4v4h-4zM264 192h4v4h-4z"/><path fill="#BDFBFF" d="M268 192h4v4h-4z"/><path fill="#4AD3FF" d="M92 196h4v4h-4z"/><path fill="#BDFBFF" d="M96 196h4v4h-4z"/><path fill="#7AE8FF" d="M100 196h4v4h-4zM104 196h4v4h-4z"/><path fill="#4AD3FF" d="M108 196h4v4h-4zM112 196h4v4h-4z"/><path fill="#7AE8FF" d="M116 196h4v4h-4zM120 196h4v4h-4zM124 196h4v4h-4z"/><path fill="#4AD3FF" d="M128 196h4v4h-4z"/><path fill="#7AE8FF" d="M132 196h4v4h-4zM136 196h4v4h-4z"/><path fill="#C2EAFF" d="M140 196h4v4h-4zM144 196h4v4h-4zM148 196h4v4h-4z"/><path fill="#91D7FF" d="M152 196h4v4h-4zM156 196h4v4h-4z"/><path fill="#7AE8FF" d="M160 196h4v4h-4z"/><path fill="#91D7FF" d="M164 196h4v4h-4zM168 196h4v4h-4zM172 196h4v4h-4zM176 196h4v4h-4zM180 196h4v4h-4zM184 196h4v4h-4zM188 196h4v4h-4zM192 196h4v4h-4zM196 196h4v4h-4zM200 196h4v4h-4zM204 196h4v4h-4zM208 196h4v4h-4zM212 196h4v4h-4zM216 196h4v4h-4zM220 196h4v4h-4zM224 196h4v4h-4z"/><path fill="#4AD3FF" d="M228 196h4v4h-4zM232 196h4v4h-4zM236 196h4v4h-4zM240 196h4v4h-4zM244 196h4v4h-4zM248 196h4v4h-4zM252 196h4v4h-4zM256 196h4v4h-4zM260 196h4v4h-4zM264 196h4v4h-4z"/><path fill="#7AE8FF" d="M268 196h4v4h-4z"/><path fill="#4AD3FF" d="M92 200h4v4h-4z"/><path fill="#BDFBFF" d="M96 200h4v4h-4z"/><path fill="#7AE8FF" d="M100 200h4v4h-4zM104 200h4v4h-4z"/><path fill="#4AD3FF" d="M108 200h4v4h-4zM112 200h4v4h-4z"/><path fill="#7AE8FF" d="M116 200h4v4h-4zM120 200h4v4h-4zM124 200h4v4h-4z"/><path fill="#4AD3FF" d="M128 200h4v4h-4z"/><path fill="#7AE8FF" d="M132 200h4v4h-4zM136 200h4v4h-4z"/><path fill="#BDFBFF" d="M140 200h4v4h-4z"/><path fill="#C2EAFF" d="M144 200h4v4h-4z"/><path fill="#F9FDFF" d="M148 200h4v4h-4z"/><path fill="#91D7FF" d="M152 200h4v4h-4zM156 200h4v4h-4z"/><path fill="#7AE8FF" d="M160 200h4v4h-4zM164 200h4v4h-4zM168 200h4v4h-4z"/><path fill="#91D7FF" d="M172 200h4v4h-4zM176 200h4v4h-4zM180 200h4v4h-4zM184 200h4v4h-4zM188 200h4v4h-4zM192 200h4v4h-4zM196 200h4v4h-4zM200 200h4v4h-4zM204 200h4v4h-4zM208 200h4v4h-4zM212 200h4v4h-4zM216 200h4v4h-4zM220 200h4v4h-4zM224 200h4v4h-4zM228 200h4v4h-4z"/><path fill="#4AD3FF" d="M232 200h4v4h-4zM236 200h4v4h-4zM240 200h4v4h-4zM244 200h4v4h-4zM248 200h4v4h-4zM252 200h4v4h-4zM256 200h4v4h-4zM260 200h4v4h-4zM264 200h4v4h-4z"/><path fill="#BDFBFF" d="M268 200h4v4h-4z"/><path fill="#4AD3FF" d="M92 204h4v4h-4z"/><path fill="#BDFBFF" d="M96 204h4v4h-4z"/><path fill="#7AE8FF" d="M100 204h4v4h-4zM104 204h4v4h-4zM108 204h4v4h-4z"/><path fill="#4AD3FF" d="M112 204h4v4h-4z"/><path fill="#7AE8FF" d="M116 204h4v4h-4zM120 204h4v4h-4zM124 204h4v4h-4z"/><path fill="#4AD3FF" d="M128 204h4v4h-4z"/><path fill="#7AE8FF" d="M132 204h4v4h-4zM136 204h4v4h-4z"/><path fill="#BDFBFF" d="M140 204h4v4h-4z"/><path fill="#C2EAFF" d="M144 204h4v4h-4z"/><path fill="#F9FDFF" d="M148 204h4v4h-4z"/><path fill="#C2EAFF" d="M152 204h4v4h-4z"/><path fill="#91D7FF" d="M156 204h4v4h-4z"/><path fill="#7AE8FF" d="M160 204h4v4h-4zM164 204h4v4h-4zM168 204h4v4h-4z"/><path fill="#91D7FF" d="M172 204h4v4h-4zM176 204h4v4h-4zM180 204h4v4h-4zM184 204h4v4h-4zM188 204h4v4h-4zM192 204h4v4h-4zM196 204h4v4h-4zM200 204h4v4h-4zM204 204h4v4h-4zM208 204h4v4h-4zM212 204h4v4h-4zM216 204h4v4h-4zM220 204h4v4h-4zM224 204h4v4h-4zM228 204h4v4h-4z"/><path fill="#4AD3FF" d="M232 204h4v4h-4zM236 204h4v4h-4zM240 204h4v4h-4zM244 204h4v4h-4zM248 204h4v4h-4zM252 204h4v4h-4zM256 204h4v4h-4zM260 204h4v4h-4zM264 204h4v4h-4z"/><path fill="#BDFBFF" d="M268 204h4v4h-4z"/><path fill="#4AD3FF" d="M92 208h4v4h-4z"/><path fill="#BDFBFF" d="M96 208h4v4h-4z"/><path fill="#7AE8FF" d="M100 208h4v4h-4zM104 208h4v4h-4zM108 208h4v4h-4z"/><path fill="#4AD3FF" d="M112 208h4v4h-4z"/><path fill="#7AE8FF" d="M116 208h4v4h-4zM120 208h4v4h-4zM124 208h4v4h-4z"/><path fill="#4AD3FF" d="M128 208h4v4h-4zM132 208h4v4h-4z"/><path fill="#7AE8FF" d="M136 208h4v4h-4z"/><path fill="#BDFBFF" d="M140 208h4v4h-4z"/><path fill="#C2EAFF" d="M144 208h4v4h-4zM148 208h4v4h-4zM152 208h4v4h-4z"/><path fill="#91D7FF" d="M156 208h4v4h-4z"/><path fill="#7AE8FF" d="M160 208h4v4h-4zM164 208h4v4h-4zM168 208h4v4h-4z"/><path fill="#91D7FF" d="M172 208h4v4h-4zM176 208h4v4h-4zM180 208h4v4h-4zM184 208h4v4h-4zM188 208h4v4h-4zM192 208h4v4h-4zM196 208h4v4h-4zM200 208h4v4h-4zM204 208h4v4h-4zM208 208h4v4h-4zM212 208h4v4h-4zM216 208h4v4h-4zM220 208h4v4h-4zM224 208h4v4h-4zM228 208h4v4h-4z"/><path fill="#4AD3FF" d="M232 208h4v4h-4zM236 208h4v4h-4zM240 208h4v4h-4zM244 208h4v4h-4zM248 208h4v4h-4zM252 208h4v4h-4zM256 208h4v4h-4zM260 208h4v4h-4zM264 208h4v4h-4z"/><path fill="#BDFBFF" d="M268 208h4v4h-4z"/><path fill="#4AD3FF" d="M92 212h4v4h-4z"/><path fill="#BDFBFF" d="M96 212h4v4h-4z"/><path fill="#7AE8FF" d="M100 212h4v4h-4zM104 212h4v4h-4zM108 212h4v4h-4zM112 212h4v4h-4zM116 212h4v4h-4zM120 212h4v4h-4zM124 212h4v4h-4z"/><path fill="#4AD3FF" d="M128 212h4v4h-4zM132 212h4v4h-4z"/><path fill="#7AE8FF" d="M136 212h4v4h-4zM140 212h4v4h-4z"/><path fill="#BDFBFF" d="M144 212h4v4h-4zM148 212h4v4h-4z"/><path fill="#91D7FF" d="M152 212h4v4h-4zM156 212h4v4h-4z"/><path fill="#7AE8FF" d="M160 212h4v4h-4zM164 212h4v4h-4zM168 212h4v4h-4z"/><path fill="#91D7FF" d="M172 212h4v4h-4zM176 212h4v4h-4zM180 212h4v4h-4zM184 212h4v4h-4zM188 212h4v4h-4zM192 212h4v4h-4zM196 212h4v4h-4zM200 212h4v4h-4zM204 212h4v4h-4zM208 212h4v4h-4zM212 212h4v4h-4zM216 212h4v4h-4zM220 212h4v4h-4zM224 212h4v4h-4zM228 212h4v4h-4z"/><path fill="#4AD3FF" d="M232 212h4v4h-4zM236 212h4v4h-4zM240 212h4v4h-4zM244 212h4v4h-4zM248 212h4v4h-4zM252 212h4v4h-4zM256 212h4v4h-4zM260 212h4v4h-4zM264 212h4v4h-4z"/><path fill="#BDFBFF" d="M268 212h4v4h-4z"/><path fill="#4AD3FF" d="M92 216h4v4h-4z"/><path fill="#BDFBFF" d="M96 216h4v4h-4z"/><path fill="#7AE8FF" d="M100 216h4v4h-4zM104 216h4v4h-4zM108 216h4v4h-4zM112 216h4v4h-4zM116 216h4v4h-4zM120 216h4v4h-4zM124 216h4v4h-4z"/><path fill="#4AD3FF" d="M128 216h4v4h-4zM132 216h4v4h-4z"/><path fill="#7AE8FF" d="M136 216h4v4h-4zM140 216h4v4h-4zM144 216h4v4h-4z"/><path fill="#91D7FF" d="M148 216h4v4h-4zM152 216h4v4h-4zM156 216h4v4h-4z"/><path fill="#7AE8FF" d="M160 216h4v4h-4zM164 216h4v4h-4zM168 216h4v4h-4z"/><path fill="#91D7FF" d="M172 216h4v4h-4zM176 216h4v4h-4z"/><path fill="#7AE8FF" d="M180 216h4v4h-4z"/><path fill="#91D7FF" d="M184 216h4v4h-4zM188 216h4v4h-4zM192 216h4v4h-4zM196 216h4v4h-4zM200 216h4v4h-4zM204 216h4v4h-4zM208 216h4v4h-4zM212 216h4v4h-4zM216 216h4v4h-4zM220 216h4v4h-4zM224 216h4v4h-4zM228 216h4v4h-4z"/><path fill="#4AD3FF" d="M232 216h4v4h-4zM236 216h4v4h-4zM240 216h4v4h-4zM244 216h4v4h-4zM248 216h4v4h-4zM252 216h4v4h-4zM256 216h4v4h-4zM260 216h4v4h-4zM264 216h4v4h-4z"/><path fill="#BDFBFF" d="M268 216h4v4h-4z"/><path fill="#4AD3FF" d="M92 220h4v4h-4z"/><path fill="#BDFBFF" d="M96 220h4v4h-4z"/><path fill="#7AE8FF" d="M100 220h4v4h-4zM104 220h4v4h-4zM108 220h4v4h-4zM112 220h4v4h-4zM116 220h4v4h-4zM120 220h4v4h-4zM124 220h4v4h-4z"/><path fill="#4AD3FF" d="M128 220h4v4h-4zM132 220h4v4h-4z"/><path fill="#BDFBFF" d="M136 220h4v4h-4z"/><path fill="#7AE8FF" d="M140 220h4v4h-4zM144 220h4v4h-4zM148 220h4v4h-4z"/><path fill="#91D7FF" d="M152 220h4v4h-4zM156 220h4v4h-4z"/><path fill="#7AE8FF" d="M160 220h4v4h-4zM164 220h4v4h-4zM168 220h4v4h-4z"/><path fill="#91D7FF" d="M172 220h4v4h-4z"/><path fill="#7AE8FF" d="M176 220h4v4h-4zM180 220h4v4h-4z"/><path fill="#91D7FF" d="M184 220h4v4h-4zM188 220h4v4h-4zM192 220h4v4h-4zM196 220h4v4h-4zM200 220h4v4h-4zM204 220h4v4h-4zM208 220h4v4h-4zM212 220h4v4h-4zM216 220h4v4h-4zM220 220h4v4h-4zM224 220h4v4h-4zM228 220h4v4h-4z"/><path fill="#4AD3FF" d="M232 220h4v4h-4zM236 220h4v4h-4zM240 220h4v4h-4zM244 220h4v4h-4zM248 220h4v4h-4zM252 220h4v4h-4zM256 220h4v4h-4zM260 220h4v4h-4zM264 220h4v4h-4z"/><path fill="#BDFBFF" d="M268 220h4v4h-4z"/><path fill="#4AD3FF" d="M92 224h4v4h-4z"/><path fill="#BDFBFF" d="M96 224h4v4h-4z"/><path fill="#7AE8FF" d="M100 224h4v4h-4zM104 224h4v4h-4zM108 224h4v4h-4zM112 224h4v4h-4zM116 224h4v4h-4z"/><path fill="#4AD3FF" d="M120 224h4v4h-4z"/><path fill="#7AE8FF" d="M124 224h4v4h-4z"/><path fill="#4AD3FF" d="M128 224h4v4h-4zM132 224h4v4h-4z"/><path fill="#BDFBFF" d="M136 224h4v4h-4z"/><path fill="#7AE8FF" d="M140 224h4v4h-4zM144 224h4v4h-4zM148 224h4v4h-4z"/><path fill="#91D7FF" d="M152 224h4v4h-4zM156 224h4v4h-4z"/><path fill="#7AE8FF" d="M160 224h4v4h-4zM164 224h4v4h-4zM168 224h4v4h-4z"/><path fill="#91D7FF" d="M172 224h4v4h-4zM176 224h4v4h-4zM180 224h4v4h-4zM184 224h4v4h-4zM188 224h4v4h-4zM192 224h4v4h-4zM196 224h4v4h-4zM200 224h4v4h-4zM204 224h4v4h-4zM208 224h4v4h-4zM212 224h4v4h-4zM216 224h4v4h-4zM220 224h4v4h-4zM224 224h4v4h-4zM228 224h4v4h-4z"/><path fill="#4AD3FF" d="M232 224h4v4h-4zM236 224h4v4h-4zM240 224h4v4h-4zM244 224h4v4h-4zM248 224h4v4h-4zM252 224h4v4h-4zM256 224h4v4h-4zM260 224h4v4h-4zM264 224h4v4h-4z"/><path fill="#7AE8FF" d="M268 224h4v4h-4z"/><path fill="#4AD3FF" d="M92 228h4v4h-4z"/><path fill="#BDFBFF" d="M96 228h4v4h-4z"/><path fill="#7AE8FF" d="M100 228h4v4h-4zM104 228h4v4h-4zM108 228h4v4h-4zM112 228h4v4h-4zM116 228h4v4h-4z"/><path fill="#4AD3FF" d="M120 228h4v4h-4zM124 228h4v4h-4zM128 228h4v4h-4zM132 228h4v4h-4z"/><path fill="#BDFBFF" d="M136 228h4v4h-4z"/><path fill="#7AE8FF" d="M140 228h4v4h-4zM144 228h4v4h-4zM148 228h4v4h-4z"/><path fill="#91D7FF" d="M152 228h4v4h-4z"/><path fill="#72CCFF" d="M156 228h4v4h-4z"/><path fill="#7AE8FF" d="M160 228h4v4h-4zM164 228h4v4h-4zM168 228h4v4h-4z"/><path fill="#91D7FF" d="M172 228h4v4h-4zM176 228h4v4h-4zM180 228h4v4h-4zM184 228h4v4h-4zM188 228h4v4h-4zM192 228h4v4h-4zM196 228h4v4h-4zM200 228h4v4h-4zM204 228h4v4h-4zM208 228h4v4h-4zM212 228h4v4h-4zM216 228h4v4h-4z"/><path fill="#4AD3FF" d="M220 228h4v4h-4z"/><path fill="#91D7FF" d="M224 228h4v4h-4zM228 228h4v4h-4z"/><path fill="#4AD3FF" d="M232 228h4v4h-4zM236 228h4v4h-4zM240 228h4v4h-4zM244 228h4v4h-4zM248 228h4v4h-4zM252 228h4v4h-4zM256 228h4v4h-4zM260 228h4v4h-4z"/><path fill="#91D7FF" d="M264 228h4v4h-4z"/><path fill="#7AE8FF" d="M268 228h4v4h-4z"/><path fill="#4AD3FF" d="M92 232h4v4h-4z"/><path fill="#BDFBFF" d="M96 232h4v4h-4z"/><path fill="#7AE8FF" d="M100 232h4v4h-4zM104 232h4v4h-4zM108 232h4v4h-4zM112 232h4v4h-4zM116 232h4v4h-4z"/><path fill="#4AD3FF" d="M120 232h4v4h-4zM124 232h4v4h-4zM128 232h4v4h-4zM132 232h4v4h-4z"/><path fill="#BDFBFF" d="M136 232h4v4h-4z"/><path fill="#4AD3FF" d="M140 232h4v4h-4z"/><path fill="#7AE8FF" d="M144 232h4v4h-4zM148 232h4v4h-4z"/><path fill="#91D7FF" d="M152 232h4v4h-4z"/><path fill="#72CCFF" d="M156 232h4v4h-4z"/><path fill="#7AE8FF" d="M160 232h4v4h-4zM164 232h4v4h-4zM168 232h4v4h-4z"/><path fill="#91D7FF" d="M172 232h4v4h-4zM176 232h4v4h-4zM180 232h4v4h-4zM184 232h4v4h-4zM188 232h4v4h-4zM192 232h4v4h-4zM196 232h4v4h-4zM200 232h4v4h-4zM204 232h4v4h-4zM208 232h4v4h-4zM212 232h4v4h-4zM216 232h4v4h-4zM220 232h4v4h-4zM224 232h4v4h-4z"/><path fill="#4AD3FF" d="M228 232h4v4h-4zM232 232h4v4h-4zM236 232h4v4h-4zM240 232h4v4h-4z"/><path fill="#91D7FF" d="M244 232h4v4h-4zM248 232h4v4h-4z"/><path fill="#4AD3FF" d="M252 232h4v4h-4zM256 232h4v4h-4zM260 232h4v4h-4z"/><path fill="#91D7FF" d="M264 232h4v4h-4z"/><path fill="#7AE8FF" d="M268 232h4v4h-4z"/><path fill="#4AD3FF" d="M92 236h4v4h-4z"/><path fill="#BDFBFF" d="M96 236h4v4h-4zM100 236h4v4h-4z"/><path fill="#7AE8FF" d="M104 236h4v4h-4zM108 236h4v4h-4zM112 236h4v4h-4zM116 236h4v4h-4z"/><path fill="#4AD3FF" d="M120 236h4v4h-4zM124 236h4v4h-4zM128 236h4v4h-4zM132 236h4v4h-4z"/><path fill="#BDFBFF" d="M136 236h4v4h-4z"/><path fill="#4AD3FF" d="M140 236h4v4h-4zM144 236h4v4h-4z"/><path fill="#7AE8FF" d="M148 236h4v4h-4z"/><path fill="#91D7FF" d="M152 236h4v4h-4z"/><path fill="#72CCFF" d="M156 236h4v4h-4z"/><path fill="#91D7FF" d="M160 236h4v4h-4z"/><path fill="#7AE8FF" d="M164 236h4v4h-4z"/><path fill="#91D7FF" d="M168 236h4v4h-4zM172 236h4v4h-4z"/><path fill="#4AD3FF" d="M176 236h4v4h-4z"/><path fill="#91D7FF" d="M180 236h4v4h-4zM184 236h4v4h-4zM188 236h4v4h-4zM192 236h4v4h-4zM196 236h4v4h-4zM200 236h4v4h-4zM204 236h4v4h-4zM208 236h4v4h-4zM212 236h4v4h-4zM216 236h4v4h-4zM220 236h4v4h-4zM224 236h4v4h-4z"/><path fill="#4AD3FF" d="M228 236h4v4h-4zM232 236h4v4h-4zM236 236h4v4h-4zM240 236h4v4h-4z"/><path fill="#91D7FF" d="M244 236h4v4h-4zM248 236h4v4h-4z"/><path fill="#4AD3FF" d="M252 236h4v4h-4zM256 236h4v4h-4zM260 236h4v4h-4z"/><path fill="#91D7FF" d="M264 236h4v4h-4z"/><path fill="#7AE8FF" d="M268 236h4v4h-4z"/><path fill="#4AD3FF" d="M92 240h4v4h-4z"/><path fill="#BDFBFF" d="M96 240h4v4h-4zM100 240h4v4h-4z"/><path fill="#7AE8FF" d="M104 240h4v4h-4zM108 240h4v4h-4zM112 240h4v4h-4zM116 240h4v4h-4z"/><path fill="#4AD3FF" d="M120 240h4v4h-4zM124 240h4v4h-4zM128 240h4v4h-4z"/><path fill="#B0E2FF" d="M132 240h4v4h-4z"/><path fill="#BDFBFF" d="M136 240h4v4h-4z"/><path fill="#4AD3FF" d="M140 240h4v4h-4zM144 240h4v4h-4z"/><path fill="#7AE8FF" d="M148 240h4v4h-4z"/><path fill="#91D7FF" d="M152 240h4v4h-4z"/><path fill="#72CCFF" d="M156 240h4v4h-4z"/><path fill="#91D7FF" d="M160 240h4v4h-4zM164 240h4v4h-4zM168 240h4v4h-4zM172 240h4v4h-4zM176 240h4v4h-4zM180 240h4v4h-4zM184 240h4v4h-4z"/><path fill="#4AD3FF" d="M188 240h4v4h-4z"/><path fill="#91D7FF" d="M192 240h4v4h-4zM196 240h4v4h-4zM200 240h4v4h-4zM204 240h4v4h-4zM208 240h4v4h-4zM212 240h4v4h-4zM216 240h4v4h-4zM220 240h4v4h-4zM224 240h4v4h-4zM228 240h4v4h-4z"/><path fill="#4AD3FF" d="M232 240h4v4h-4zM236 240h4v4h-4z"/><path fill="#91D7FF" d="M240 240h4v4h-4zM244 240h4v4h-4zM248 240h4v4h-4zM252 240h4v4h-4zM256 240h4v4h-4z"/><path fill="#4AD3FF" d="M260 240h4v4h-4z"/><path fill="#91D7FF" d="M264 240h4v4h-4z"/><path fill="#7AE8FF" d="M268 240h4v4h-4z"/><path fill="#4AD3FF" d="M92 244h4v4h-4z"/><path fill="#F9FDFF" d="M96 244h4v4h-4z"/><path fill="#BDFBFF" d="M100 244h4v4h-4z"/><path fill="#7AE8FF" d="M104 244h4v4h-4zM108 244h4v4h-4zM112 244h4v4h-4zM116 244h4v4h-4z"/><path fill="#4AD3FF" d="M120 244h4v4h-4zM124 244h4v4h-4zM128 244h4v4h-4z"/><path fill="#B0E2FF" d="M132 244h4v4h-4z"/><path fill="#BDFBFF" d="M136 244h4v4h-4z"/><path fill="#4AD3FF" d="M140 244h4v4h-4zM144 244h4v4h-4z"/><path fill="#7AE8FF" d="M148 244h4v4h-4z"/><path fill="#91D7FF" d="M152 244h4v4h-4zM156 244h4v4h-4z"/><path fill="#7AE8FF" d="M160 244h4v4h-4z"/><path fill="#91D7FF" d="M164 244h4v4h-4zM168 244h4v4h-4zM172 244h4v4h-4zM176 244h4v4h-4zM180 244h4v4h-4z"/><path fill="#4AD3FF" d="M184 244h4v4h-4zM188 244h4v4h-4z"/><path fill="#91D7FF" d="M192 244h4v4h-4zM196 244h4v4h-4zM200 244h4v4h-4zM204 244h4v4h-4zM208 244h4v4h-4zM212 244h4v4h-4zM216 244h4v4h-4zM220 244h4v4h-4zM224 244h4v4h-4zM228 244h4v4h-4zM232 244h4v4h-4zM236 244h4v4h-4zM240 244h4v4h-4zM244 244h4v4h-4zM248 244h4v4h-4zM252 244h4v4h-4z"/><path fill="#4AD3FF" d="M256 244h4v4h-4zM260 244h4v4h-4z"/><path fill="#91D7FF" d="M264 244h4v4h-4z"/><path fill="#4AD3FF" d="M92 248h4v4h-4z"/><path fill="#F9FDFF" d="M96 248h4v4h-4z"/><path fill="#BDFBFF" d="M100 248h4v4h-4z"/><path fill="#7AE8FF" d="M104 248h4v4h-4zM108 248h4v4h-4zM112 248h4v4h-4zM116 248h4v4h-4z"/><path fill="#4AD3FF" d="M120 248h4v4h-4zM124 248h4v4h-4zM128 248h4v4h-4z"/><path fill="#B0E2FF" d="M132 248h4v4h-4z"/><path fill="#BDFBFF" d="M136 248h4v4h-4z"/><path fill="#4AD3FF" d="M140 248h4v4h-4zM144 248h4v4h-4z"/><path fill="#7AE8FF" d="M148 248h4v4h-4z"/><path fill="#91D7FF" d="M152 248h4v4h-4z"/><path fill="#7AE8FF" d="M156 248h4v4h-4zM160 248h4v4h-4zM164 248h4v4h-4z"/><path fill="#91D7FF" d="M168 248h4v4h-4zM172 248h4v4h-4zM176 248h4v4h-4zM180 248h4v4h-4zM184 248h4v4h-4zM188 248h4v4h-4zM192 248h4v4h-4zM196 248h4v4h-4zM200 248h4v4h-4zM204 248h4v4h-4zM208 248h4v4h-4zM212 248h4v4h-4zM216 248h4v4h-4zM220 248h4v4h-4zM224 248h4v4h-4zM228 248h4v4h-4zM232 248h4v4h-4zM236 248h4v4h-4zM240 248h4v4h-4zM244 248h4v4h-4zM248 248h4v4h-4zM252 248h4v4h-4z"/><path fill="#4AD3FF" d="M256 248h4v4h-4zM260 248h4v4h-4zM264 248h4v4h-4zM92 252h4v4h-4z"/><path fill="#F9FDFF" d="M96 252h4v4h-4z"/><path fill="#BDFBFF" d="M100 252h4v4h-4zM104 252h4v4h-4z"/><path fill="#7AE8FF" d="M108 252h4v4h-4zM112 252h4v4h-4zM116 252h4v4h-4z"/><path fill="#4AD3FF" d="M120 252h4v4h-4zM124 252h4v4h-4zM128 252h4v4h-4z"/><path fill="#B0E2FF" d="M132 252h4v4h-4z"/><path fill="#BDFBFF" d="M136 252h4v4h-4z"/><path fill="#7AE8FF" d="M140 252h4v4h-4z"/><path fill="#4AD3FF" d="M144 252h4v4h-4z"/><path fill="#7AE8FF" d="M148 252h4v4h-4zM152 252h4v4h-4z"/><path fill="#91D7FF" d="M156 252h4v4h-4z"/><path fill="#7AE8FF" d="M160 252h4v4h-4z"/><path fill="#4AD3FF" d="M164 252h4v4h-4z"/><path fill="#91D7FF" d="M168 252h4v4h-4zM172 252h4v4h-4zM176 252h4v4h-4zM180 252h4v4h-4zM184 252h4v4h-4zM188 252h4v4h-4zM192 252h4v4h-4zM196 252h4v4h-4zM200 252h4v4h-4zM204 252h4v4h-4zM208 252h4v4h-4zM212 252h4v4h-4zM216 252h4v4h-4zM220 252h4v4h-4zM224 252h4v4h-4z"/><path fill="#4AD3FF" d="M228 252h4v4h-4zM232 252h4v4h-4z"/><path fill="#91D7FF" d="M236 252h4v4h-4zM240 252h4v4h-4zM244 252h4v4h-4zM248 252h4v4h-4zM252 252h4v4h-4zM256 252h4v4h-4z"/><path fill="#4AD3FF" d="M260 252h4v4h-4zM264 252h4v4h-4z"/><path fill="#8FF5CE" d="M268 252h4v4h-4z"/><path fill="#4AD3FF" d="M92 256h4v4h-4z"/><path fill="#F9FDFF" d="M96 256h4v4h-4z"/><path fill="#BDFBFF" d="M100 256h4v4h-4zM104 256h4v4h-4z"/><path fill="#7AE8FF" d="M108 256h4v4h-4zM112 256h4v4h-4zM116 256h4v4h-4z"/><path fill="#4AD3FF" d="M120 256h4v4h-4z"/><path fill="#7AE8FF" d="M124 256h4v4h-4z"/><path fill="#B0E2FF" d="M128 256h4v4h-4zM132 256h4v4h-4z"/><path fill="#BDFBFF" d="M136 256h4v4h-4z"/><path fill="#7AE8FF" d="M140 256h4v4h-4z"/><path fill="#4AD3FF" d="M144 256h4v4h-4z"/><path fill="#7AE8FF" d="M148 256h4v4h-4z"/><path fill="#91D7FF" d="M152 256h4v4h-4zM156 256h4v4h-4z"/><path fill="#4AD3FF" d="M160 256h4v4h-4zM164 256h4v4h-4zM168 256h4v4h-4z"/><path fill="#91D7FF" d="M172 256h4v4h-4zM176 256h4v4h-4zM180 256h4v4h-4zM184 256h4v4h-4zM188 256h4v4h-4zM192 256h4v4h-4zM196 256h4v4h-4zM200 256h4v4h-4zM204 256h4v4h-4zM208 256h4v4h-4zM212 256h4v4h-4z"/><path fill="#4AD3FF" d="M216 256h4v4h-4zM220 256h4v4h-4zM224 256h4v4h-4zM228 256h4v4h-4zM232 256h4v4h-4zM236 256h4v4h-4z"/><path fill="#91D7FF" d="M240 256h4v4h-4zM244 256h4v4h-4zM248 256h4v4h-4zM252 256h4v4h-4zM256 256h4v4h-4z"/><path fill="#4AD3FF" d="M260 256h4v4h-4zM264 256h4v4h-4z"/><path fill="#8FF5CE" d="M268 256h4v4h-4z"/><path fill="#4AD3FF" d="M92 260h4v4h-4z"/><path fill="#F9FDFF" d="M96 260h4v4h-4zM100 260h4v4h-4z"/><path fill="#BDFBFF" d="M104 260h4v4h-4z"/><path fill="#7AE8FF" d="M108 260h4v4h-4zM112 260h4v4h-4zM116 260h4v4h-4zM120 260h4v4h-4zM124 260h4v4h-4z"/><path fill="#B0E2FF" d="M128 260h4v4h-4z"/><path fill="#C2EAFF" d="M132 260h4v4h-4z"/><path fill="#BDFBFF" d="M136 260h4v4h-4z"/><path fill="#91D7FF" d="M140 260h4v4h-4zM144 260h4v4h-4z"/><path fill="#7AE8FF" d="M148 260h4v4h-4z"/><path fill="#91D7FF" d="M152 260h4v4h-4z"/><path fill="#4AD3FF" d="M156 260h4v4h-4zM160 260h4v4h-4zM164 260h4v4h-4zM168 260h4v4h-4zM172 260h4v4h-4z"/><path fill="#91D7FF" d="M176 260h4v4h-4zM180 260h4v4h-4z"/><path fill="#4AD3FF" d="M184 260h4v4h-4zM188 260h4v4h-4z"/><path fill="#91D7FF" d="M192 260h4v4h-4zM196 260h4v4h-4z"/><path fill="#4AD3FF" d="M200 260h4v4h-4z"/><path fill="#91D7FF" d="M204 260h4v4h-4zM208 260h4v4h-4z"/><path fill="#4AD3FF" d="M212 260h4v4h-4zM216 260h4v4h-4zM220 260h4v4h-4zM224 260h4v4h-4zM228 260h4v4h-4zM232 260h4v4h-4zM236 260h4v4h-4zM240 260h4v4h-4z"/><path fill="#91D7FF" d="M244 260h4v4h-4zM248 260h4v4h-4zM252 260h4v4h-4z"/><path fill="#4AD3FF" d="M256 260h4v4h-4z"/><path fill="#91D7FF" d="M260 260h4v4h-4zM264 260h4v4h-4z"/><path fill="#8FF5CE" d="M268 260h4v4h-4z"/><path fill="#7AE8FF" d="M92 264h4v4h-4zM96 264h4v4h-4z"/><path fill="#F9FDFF" d="M100 264h4v4h-4z"/><path fill="#BDFBFF" d="M104 264h4v4h-4z"/><path fill="#7AE8FF" d="M108 264h4v4h-4zM112 264h4v4h-4z"/><path fill="#B0E2FF" d="M116 264h4v4h-4z"/><path fill="#7AE8FF" d="M120 264h4v4h-4zM124 264h4v4h-4z"/><path fill="#C2EAFF" d="M128 264h4v4h-4z"/><path fill="#B0E2FF" d="M132 264h4v4h-4z"/><path fill="#BDFBFF" d="M136 264h4v4h-4z"/><path fill="#91D7FF" d="M140 264h4v4h-4zM144 264h4v4h-4zM148 264h4v4h-4zM152 264h4v4h-4z"/><path fill="#4AD3FF" d="M156 264h4v4h-4zM160 264h4v4h-4zM164 264h4v4h-4zM168 264h4v4h-4zM172 264h4v4h-4zM176 264h4v4h-4zM180 264h4v4h-4zM184 264h4v4h-4zM188 264h4v4h-4zM192 264h4v4h-4zM196 264h4v4h-4zM200 264h4v4h-4zM204 264h4v4h-4zM208 264h4v4h-4zM212 264h4v4h-4zM216 264h4v4h-4zM220 264h4v4h-4zM224 264h4v4h-4zM228 264h4v4h-4zM232 264h4v4h-4zM236 264h4v4h-4zM240 264h4v4h-4zM244 264h4v4h-4z"/><path fill="#91D7FF" d="M248 264h4v4h-4zM252 264h4v4h-4z"/><path fill="#4AD3FF" d="M256 264h4v4h-4z"/><path fill="#91D7FF" d="M260 264h4v4h-4z"/><path fill="#4AD3FF" d="M264 264h4v4h-4z"/><path fill="#8FF5CE" d="M268 264h4v4h-4z"/><path fill="#4AD3FF" d="M96 268h4v4h-4z"/><path fill="#7AE8FF" d="M100 268h4v4h-4z"/><path fill="#BDFBFF" d="M104 268h4v4h-4zM108 268h4v4h-4z"/><path fill="#7AE8FF" d="M112 268h4v4h-4zM116 268h4v4h-4zM120 268h4v4h-4zM124 268h4v4h-4z"/><path fill="#C2EAFF" d="M128 268h4v4h-4z"/><path fill="#B0E2FF" d="M132 268h4v4h-4z"/><path fill="#BDFBFF" d="M136 268h4v4h-4z"/><path fill="#91D7FF" d="M140 268h4v4h-4zM144 268h4v4h-4zM148 268h4v4h-4zM152 268h4v4h-4z"/><path fill="#4AD3FF" d="M156 268h4v4h-4zM160 268h4v4h-4zM164 268h4v4h-4zM168 268h4v4h-4zM172 268h4v4h-4zM176 268h4v4h-4zM180 268h4v4h-4zM184 268h4v4h-4zM188 268h4v4h-4zM192 268h4v4h-4zM196 268h4v4h-4zM200 268h4v4h-4zM204 268h4v4h-4zM208 268h4v4h-4zM212 268h4v4h-4zM216 268h4v4h-4zM220 268h4v4h-4zM224 268h4v4h-4zM228 268h4v4h-4zM232 268h4v4h-4zM236 268h4v4h-4zM240 268h4v4h-4zM244 268h4v4h-4zM248 268h4v4h-4z"/><path fill="#91D7FF" d="M252 268h4v4h-4z"/><path fill="#4AD3FF" d="M256 268h4v4h-4zM260 268h4v4h-4zM264 268h4v4h-4z"/><path fill="#8FF5CE" d="M268 268h4v4h-4z"/><path fill="#4AD3FF" d="M100 272h4v4h-4z"/><path fill="#7AE8FF" d="M104 272h4v4h-4zM108 272h4v4h-4z"/><path fill="#BDFBFF" d="M112 272h4v4h-4zM116 272h4v4h-4z"/><path fill="#7AE8FF" d="M120 272h4v4h-4zM124 272h4v4h-4z"/><path fill="#C2EAFF" d="M128 272h4v4h-4z"/><path fill="#B0E2FF" d="M132 272h4v4h-4z"/><path fill="#BDFBFF" d="M136 272h4v4h-4z"/><path fill="#91D7FF" d="M140 272h4v4h-4zM144 272h4v4h-4zM148 272h4v4h-4zM152 272h4v4h-4z"/><path fill="#4AD3FF" d="M156 272h4v4h-4zM160 272h4v4h-4zM164 272h4v4h-4zM168 272h4v4h-4zM172 272h4v4h-4zM176 272h4v4h-4zM180 272h4v4h-4zM184 272h4v4h-4zM188 272h4v4h-4zM192 272h4v4h-4zM196 272h4v4h-4zM200 272h4v4h-4zM204 272h4v4h-4zM208 272h4v4h-4zM212 272h4v4h-4zM216 272h4v4h-4zM220 272h4v4h-4zM224 272h4v4h-4zM228 272h4v4h-4zM232 272h4v4h-4zM236 272h4v4h-4zM240 272h4v4h-4zM244 272h4v4h-4zM248 272h4v4h-4zM252 272h4v4h-4zM256 272h4v4h-4zM260 272h4v4h-4zM264 272h4v4h-4z"/><path fill="#8FF5CE" d="M268 272h4v4h-4z"/><path fill="#4AD3FF" d="M104 276h4v4h-4z"/><path fill="#7AE8FF" d="M108 276h4v4h-4zM112 276h4v4h-4z"/><path fill="#B0E2FF" d="M116 276h4v4h-4zM120 276h4v4h-4zM124 276h4v4h-4z"/><path fill="#C2EAFF" d="M128 276h4v4h-4z"/><path fill="#4AD3FF" d="M132 276h4v4h-4z"/><path fill="#BDFBFF" d="M136 276h4v4h-4z"/><path fill="#91D7FF" d="M140 276h4v4h-4zM144 276h4v4h-4zM148 276h4v4h-4zM152 276h4v4h-4z"/><path fill="#4AD3FF" d="M156 276h4v4h-4zM160 276h4v4h-4zM164 276h4v4h-4zM168 276h4v4h-4zM172 276h4v4h-4zM176 276h4v4h-4zM180 276h4v4h-4zM184 276h4v4h-4zM188 276h4v4h-4zM192 276h4v4h-4zM196 276h4v4h-4zM200 276h4v4h-4zM204 276h4v4h-4zM208 276h4v4h-4zM212 276h4v4h-4zM216 276h4v4h-4z"/><path fill="#77B8FA" d="M220 276h4v4h-4zM224 276h4v4h-4zM228 276h4v4h-4zM232 276h4v4h-4zM236 276h4v4h-4zM240 276h4v4h-4zM244 276h4v4h-4z"/><path fill="#4AD3FF" d="M248 276h4v4h-4zM252 276h4v4h-4zM256 276h4v4h-4zM260 276h4v4h-4zM264 276h4v4h-4z"/><path fill="#8FF5CE" d="M268 276h4v4h-4z"/><path fill="#4AD3FF" d="M108 280h4v4h-4zM112 280h4v4h-4zM116 280h4v4h-4zM120 280h4v4h-4z"/><path fill="#B0E2FF" d="M124 280h4v4h-4z"/><path fill="#C2EAFF" d="M128 280h4v4h-4z"/><path fill="#4AD3FF" d="M132 280h4v4h-4z"/><path fill="#BDFBFF" d="M136 280h4v4h-4z"/><path fill="#91D7FF" d="M140 280h4v4h-4zM144 280h4v4h-4zM148 280h4v4h-4z"/><path fill="#4AD3FF" d="M152 280h4v4h-4zM156 280h4v4h-4zM160 280h4v4h-4zM164 280h4v4h-4zM168 280h4v4h-4z"/><path fill="#77B8FA" d="M172 280h4v4h-4zM176 280h4v4h-4zM180 280h4v4h-4zM184 280h4v4h-4zM188 280h4v4h-4zM192 280h4v4h-4zM196 280h4v4h-4zM200 280h4v4h-4zM204 280h4v4h-4zM208 280h4v4h-4zM212 280h4v4h-4zM216 280h4v4h-4zM220 280h4v4h-4zM224 280h4v4h-4zM228 280h4v4h-4zM232 280h4v4h-4zM236 280h4v4h-4zM240 280h4v4h-4zM244 280h4v4h-4zM248 280h4v4h-4z"/><path fill="#4AD3FF" d="M252 280h4v4h-4zM256 280h4v4h-4zM260 280h4v4h-4z"/><path fill="#8FF5CE" d="M264 280h4v4h-4zM268 280h4v4h-4z"/><path fill="#4AD3FF" d="M116 284h4v4h-4zM120 284h4v4h-4zM124 284h4v4h-4zM128 284h4v4h-4z"/><path fill="#B0E2FF" d="M132 284h4v4h-4zM136 284h4v4h-4z"/><path fill="#91D7FF" d="M140 284h4v4h-4zM144 284h4v4h-4z"/><path fill="#77B8FA" d="M148 284h4v4h-4zM152 284h4v4h-4zM156 284h4v4h-4zM160 284h4v4h-4zM164 284h4v4h-4zM168 284h4v4h-4zM172 284h4v4h-4zM176 284h4v4h-4zM180 284h4v4h-4zM184 284h4v4h-4zM188 284h4v4h-4zM192 284h4v4h-4zM196 284h4v4h-4zM200 284h4v4h-4zM204 284h4v4h-4zM208 284h4v4h-4zM212 284h4v4h-4zM216 284h4v4h-4zM220 284h4v4h-4zM224 284h4v4h-4zM228 284h4v4h-4zM232 284h4v4h-4zM236 284h4v4h-4zM240 284h4v4h-4zM244 284h4v4h-4z"/><path fill="#4AD3FF" d="M248 284h4v4h-4zM252 284h4v4h-4zM256 284h4v4h-4z"/><path fill="#8FF5CE" d="M260 284h4v4h-4z"/><path fill="#4AD3FF" d="M120 288h4v4h-4zM124 288h4v4h-4zM128 288h4v4h-4zM132 288h4v4h-4zM136 288h4v4h-4z"/><path fill="#91D7FF" d="M140 288h4v4h-4z"/><path fill="#77B8FA" d="M144 288h4v4h-4zM148 288h4v4h-4zM152 288h4v4h-4zM156 288h4v4h-4zM160 288h4v4h-4zM164 288h4v4h-4zM168 288h4v4h-4zM172 288h4v4h-4zM176 288h4v4h-4zM180 288h4v4h-4zM184 288h4v4h-4zM188 288h4v4h-4zM192 288h4v4h-4zM196 288h4v4h-4zM200 288h4v4h-4zM204 288h4v4h-4zM208 288h4v4h-4zM212 288h4v4h-4zM216 288h4v4h-4zM220 288h4v4h-4zM224 288h4v4h-4zM228 288h4v4h-4z"/><path fill="#4AD3FF" d="M232 288h4v4h-4zM236 288h4v4h-4zM240 288h4v4h-4zM244 288h4v4h-4zM248 288h4v4h-4zM252 288h4v4h-4zM128 292h4v4h-4zM132 292h4v4h-4zM136 292h4v4h-4zM140 292h4v4h-4z"/><path fill="#77B8FA" d="M144 292h4v4h-4zM148 292h4v4h-4zM152 292h4v4h-4zM156 292h4v4h-4zM160 292h4v4h-4zM164 292h4v4h-4zM168 292h4v4h-4zM172 292h4v4h-4zM176 292h4v4h-4zM180 292h4v4h-4zM184 292h4v4h-4zM188 292h4v4h-4zM192 292h4v4h-4zM196 292h4v4h-4zM200 292h4v4h-4z"/><path fill="#4AD3FF" d="M204 292h4v4h-4zM208 292h4v4h-4z"/><path fill="#7AE8FF" d="M212 292h4v4h-4zM216 292h4v4h-4zM220 292h4v4h-4z"/><path fill="#4AD3FF" d="M224 292h4v4h-4zM228 292h4v4h-4zM232 292h4v4h-4zM236 292h4v4h-4zM132 296h4v4h-4zM136 296h4v4h-4zM140 296h4v4h-4z"/><path fill="#77B8FA" d="M144 296h4v4h-4zM148 296h4v4h-4zM152 296h4v4h-4zM156 296h4v4h-4zM160 296h4v4h-4zM164 296h4v4h-4z"/><path fill="#4AD3FF" d="M168 296h4v4h-4zM172 296h4v4h-4zM176 296h4v4h-4zM180 296h4v4h-4zM184 296h4v4h-4zM188 296h4v4h-4zM192 296h4v4h-4zM196 296h4v4h-4zM200 296h4v4h-4zM140 300h4v4h-4zM144 300h4v4h-4z"/><path fill="#7AE8FF" d="M148 300h4v4h-4zM152 300h4v4h-4zM156 300h4v4h-4zM160 300h4v4h-4z"/><path fill="#4AD3FF" d="M164 300h4v4h-4z"/></svg>