<svg width="384" height="384" xmlns="http://www.w3.org/2000/svg" shape-rendering="crispEdges"><path fill="#3F7C74" d="M96 32h4v4h-4zM100 32h4v4h-4zM104 32h4v4h-4zM96 36h4v4h-4z"/><path fill="#00CDA2" d="M100 36h4v4h-4zM104 36h4v4h-4z"/><path fill="#3F7C74" d="M108 36h4v4h-4zM96 40h4v4h-4z"/><path fill="#00CDA2" d="M100 40h4v4h-4zM104 40h4v4h-4zM108 40h4v4h-4z"/><path fill="#3F7C74" d="M112 40h4v4h-4zM116 40h4v4h-4zM120 40h4v4h-4zM96 44h4v4h-4z"/><path fill="#00CDA2" d="M100 44h4v4h-4z"/><path fill="#00E8B7" d="M104 44h4v4h-4zM108 44h4v4h-4z"/><path fill="#00CDA2" d="M112 44h4v4h-4zM116 44h4v4h-4z"/><path fill="#00AE87" d="M120 44h4v4h-4z"/><path fill="#3F7C74" d="M124 44h4v4h-4zM172 44h4v4h-4zM176 44h4v4h-4zM92 48h4v4h-4z"/><path fill="#00CDA2" d="M96 48h4v4h-4zM100 48h4v4h-4z"/><path fill="#00E8B7" d="M104 48h4v4h-4zM108 48h4v4h-4z"/><path fill="#00EAB6" d="M112 48h4v4h-4z"/><path fill="#00E9B7" d="M116 48h4v4h-4z"/><path fill="#00CDA2" d="M120 48h4v4h-4zM124 48h4v4h-4z"/><path fill="#3F7C74" d="M128 48h4v4h-4zM132 48h4v4h-4zM156 48h4v4h-4zM160 48h4v4h-4zM164 48h4v4h-4zM168 48h4v4h-4z"/><path fill="#00CDA2" d="M172 48h4v4h-4z"/><path fill="#004635" d="M176 48h4v4h-4z"/><path fill="#3F7C74" d="M180 48h4v4h-4zM92 52h4v4h-4z"/><path fill="#00CDA2" d="M96 52h4v4h-4zM100 52h4v4h-4z"/><path fill="#00E8B7" d="M104 52h4v4h-4zM108 52h4v4h-4z"/><path fill="#00E9B7" d="M112 52h4v4h-4z"/><path fill="#00E8B7" d="M116 52h4v4h-4zM120 52h4v4h-4zM124 52h4v4h-4z"/><path fill="#00CDA2" d="M128 52h4v4h-4zM132 52h4v4h-4z"/><path fill="#3F7C74" d="M136 52h4v4h-4zM140 52h4v4h-4zM144 52h4v4h-4zM148 52h4v4h-4zM152 52h4v4h-4z"/><path fill="#00CDA2" d="M156 52h4v4h-4zM160 52h4v4h-4zM164 52h4v4h-4zM168 52h4v4h-4z"/><path fill="#003C31" d="M172 52h4v4h-4z"/><path fill="#3F7C74" d="M176 52h4v4h-4zM88 56h4v4h-4z"/><path fill="#00CDA2" d="M92 56h4v4h-4zM96 56h4v4h-4zM100 56h4v4h-4z"/><path fill="#00E8B7" d="M104 56h4v4h-4zM108 56h4v4h-4z"/><path fill="#00E9B7" d="M112 56h4v4h-4zM116 56h4v4h-4zM120 56h4v4h-4z"/><path fill="#00EBB8" d="M124 56h4v4h-4z"/><path fill="#00EAB9" d="M128 56h4v4h-4zM132 56h4v4h-4z"/><path fill="#00EBB9" d="M136 56h4v4h-4z"/><path fill="#00CDA2" d="M140 56h4v4h-4z"/><path fill="#00EBB9" d="M144 56h4v4h-4zM148 56h4v4h-4z"/><path fill="#00CDA2" d="M152 56h4v4h-4zM156 56h4v4h-4zM160 56h4v4h-4zM164 56h4v4h-4z"/><path fill="#00503C" d="M168 56h4v4h-4z"/><path fill="#3F7C74" d="M172 56h4v4h-4zM88 60h4v4h-4z"/><path fill="#00CDA2" d="M92 60h4v4h-4zM96 60h4v4h-4zM100 60h4v4h-4zM104 60h4v4h-4z"/><path fill="#00E8B7" d="M108 60h4v4h-4zM112 60h4v4h-4zM116 60h4v4h-4zM120 60h4v4h-4z"/><path fill="#00E9B4" d="M124 60h4v4h-4z"/><path fill="#00EAB9" d="M128 60h4v4h-4z"/><path fill="#00CDA2" d="M132 60h4v4h-4zM136 60h4v4h-4z"/><path fill="#00ECB8" d="M140 60h4v4h-4z"/><path fill="#00CDA2" d="M144 60h4v4h-4zM148 60h4v4h-4zM152 60h4v4h-4z"/><path fill="#00D9A4" d="M156 60h4v4h-4z"/><path fill="#00231C" d="M160 60h4v4h-4z"/><path fill="#001F18" d="M164 60h4v4h-4z"/><path fill="#002F26" d="M168 60h4v4h-4z"/><path fill="#3F7C74" d="M172 60h4v4h-4zM84 64h4v4h-4z"/><path fill="#00CDA2" d="M88 64h4v4h-4zM92 64h4v4h-4zM96 64h4v4h-4zM100 64h4v4h-4zM104 64h4v4h-4zM108 64h4v4h-4z"/><path fill="#00E8B3" d="M112 64h4v4h-4z"/><path fill="#00CDA2" d="M116 64h4v4h-4zM120 64h4v4h-4zM124 64h4v4h-4zM128 64h4v4h-4zM132 64h4v4h-4zM136 64h4v4h-4zM140 64h4v4h-4z"/><path fill="#00301F" d="M144 64h4v4h-4z"/><path fill="#00311E" d="M148 64h4v4h-4z"/><path fill="#002F1F" d="M152 64h4v4h-4z"/><path fill="#00251C" d="M156 64h4v4h-4z"/><path fill="#001714" d="M160 64h4v4h-4z"/><path fill="#002719" d="M164 64h4v4h-4z"/><path fill="#3F7C74" d="M168 64h4v4h-4zM80 68h4v4h-4z"/><path fill="#00CDA2" d="M84 68h4v4h-4zM88 68h4v4h-4zM92 68h4v4h-4zM96 68h4v4h-4zM100 68h4v4h-4zM104 68h4v4h-4zM108 68h4v4h-4zM112 68h4v4h-4z"/><path fill="#00D9A0" d="M116 68h4v4h-4z"/><path fill="#00D89C" d="M120 68h4v4h-4z"/><path fill="#00CDA2" d="M124 68h4v4h-4zM128 68h4v4h-4z"/><path fill="#002C21" d="M132 68h4v4h-4z"/><path fill="#002B1E" d="M136 68h4v4h-4z"/><path fill="#003120" d="M140 68h4v4h-4z"/><path fill="#001916" d="M144 68h4v4h-4z"/><path fill="#001816" d="M148 68h4v4h-4z"/><path fill="#170603" d="M152 68h4v4h-4z"/><path fill="#110200" d="M156 68h4v4h-4z"/><path fill="#3F7C74" d="M160 68h4v4h-4zM164 68h4v4h-4zM60 72h4v4h-4zM76 72h4v4h-4z"/><path fill="#00CDA2" d="M80 72h4v4h-4zM84 72h4v4h-4zM88 72h4v4h-4zM92 72h4v4h-4zM96 72h4v4h-4zM100 72h4v4h-4zM104 72h4v4h-4zM108 72h4v4h-4z"/><path fill="#00D49C" d="M112 72h4v4h-4z"/><path fill="#002820" d="M116 72h4v4h-4z"/><path fill="#002B20" d="M120 72h4v4h-4z"/><path fill="#002F28" d="M124 72h4v4h-4z"/><path fill="#2C0303" d="M128 72h4v4h-4z"/><path fill="#160305" d="M132 72h4v4h-4z"/><path fill="#150303" d="M136 72h4v4h-4z"/><path fill="#110200" d="M140 72h4v4h-4z"/><path fill="#663E32" d="M144 72h4v4h-4zM148 72h4v4h-4z"/><path fill="#771E16" d="M152 72h4v4h-4zM156 72h4v4h-4z"/><path fill="#3F7C74" d="M60 76h4v4h-4zM64 76h4v4h-4zM68 76h4v4h-4zM72 76h4v4h-4z"/><path fill="#00A881" d="M76 76h4v4h-4z"/><path fill="#00CDA2" d="M80 76h4v4h-4zM84 76h4v4h-4zM88 76h4v4h-4zM92 76h4v4h-4zM96 76h4v4h-4zM100 76h4v4h-4z"/><path fill="#001913" d="M104 76h4v4h-4z"/><path fill="#001B14" d="M108 76h4v4h-4z"/><path fill="#002018" d="M112 76h4v4h-4z"/><path fill="#00262B" d="M116 76h4v4h-4z"/><path fill="#200C07" d="M120 76h4v4h-4z"/><path fill="#170505" d="M124 76h4v4h-4z"/><path fill="#180606" d="M128 76h4v4h-4z"/><path fill="#653B2D" d="M132 76h4v4h-4z"/><path fill="#771E16" d="M136 76h4v4h-4z"/><path fill="#663C2E" d="M140 76h4v4h-4z"/><path fill="#816D66" d="M144 76h4v4h-4zM148 76h4v4h-4zM152 76h4v4h-4z"/><path fill="#771E16" d="M156 76h4v4h-4z"/><path fill="#3F7C74" d="M60 80h4v4h-4z"/><path fill="#003126" d="M64 80h4v4h-4z"/><path fill="#002F23" d="M68 80h4v4h-4z"/><path fill="#003129" d="M72 80h4v4h-4z"/><path fill="#001E14" d="M76 80h4v4h-4z"/><path fill="#001E16" d="M80 80h4v4h-4z"/><path fill="#003227" d="M84 80h4v4h-4z"/><path fill="#00170E" d="M88 80h4v4h-4z"/><path fill="#00180F" d="M92 80h4v4h-4z"/><path fill="#00150D" d="M96 80h4v4h-4z"/><path fill="#001510" d="M100 80h4v4h-4z"/><path fill="#003439" d="M104 80h4v4h-4z"/><path fill="#352116" d="M108 80h4v4h-4z"/><path fill="#2D190E" d="M112 80h4v4h-4z"/><path fill="#2B170C" d="M116 80h4v4h-4z"/><path fill="#771E16" d="M120 80h4v4h-4zM124 80h4v4h-4zM128 80h4v4h-4z"/><path fill="#816D66" d="M132 80h4v4h-4zM136 80h4v4h-4zM140 80h4v4h-4zM144 80h4v4h-4zM148 80h4v4h-4zM152 80h4v4h-4z"/><path fill="#771E16" d="M156 80h4v4h-4z"/><path fill="#3F7C74" d="M60 84h4v4h-4z"/><path fill="#002C24" d="M64 84h4v4h-4z"/><path fill="#00231C" d="M68 84h4v4h-4z"/><path fill="#001E18" d="M72 84h4v4h-4z"/><path fill="#001D14" d="M76 84h4v4h-4z"/><path fill="#001911" d="M80 84h4v4h-4z"/><path fill="#140105" d="M84 84h4v4h-4z"/><path fill="#170003" d="M88 84h4v4h-4z"/><path fill="#5D4239" d="M92 84h4v4h-4z"/><path fill="#4D3B2F" d="M96 84h4v4h-4z"/><path fill="#39281E" d="M100 84h4v4h-4z"/><path fill="#4F2519" d="M104 84h4v4h-4z"/><path fill="#532919" d="M108 84h4v4h-4z"/><path fill="#771E16" d="M112 84h4v4h-4zM116 84h4v4h-4z"/><path fill="#816D66" d="M120 84h4v4h-4zM124 84h4v4h-4zM128 84h4v4h-4zM132 84h4v4h-4zM136 84h4v4h-4zM140 84h4v4h-4zM144 84h4v4h-4z"/><path fill="#FEEAC5" d="M148 84h4v4h-4zM152 84h4v4h-4zM156 84h4v4h-4z"/><path fill="#771E16" d="M160 84h4v4h-4z"/><path fill="#3F7C74" d="M60 88h4v4h-4z"/><path fill="#002A21" d="M64 88h4v4h-4z"/><path fill="#001F18" d="M68 88h4v4h-4z"/><path fill="#001A14" d="M72 88h4v4h-4z"/><path fill="#001B15" d="M76 88h4v4h-4z"/><path fill="#816D66" d="M80 88h4v4h-4z"/><path fill="#5F3D33" d="M84 88h4v4h-4z"/><path fill="#604339" d="M88 88h4v4h-4z"/><path fill="#4D1E18" d="M92 88h4v4h-4z"/><path fill="#4E1F17" d="M96 88h4v4h-4z"/><path fill="#4D2217" d="M100 88h4v4h-4z"/><path fill="#816D66" d="M104 88h4v4h-4zM108 88h4v4h-4zM112 88h4v4h-4zM116 88h4v4h-4zM120 88h4v4h-4zM124 88h4v4h-4zM128 88h4v4h-4z"/><path fill="#FEEAC5" d="M132 88h4v4h-4zM136 88h4v4h-4zM140 88h4v4h-4z"/><path fill="#CD3832" d="M144 88h4v4h-4z"/><path fill="#94291E" d="M148 88h4v4h-4z"/><path fill="#771E16" d="M152 88h4v4h-4z"/><path fill="#952A1F" d="M156 88h4v4h-4z"/><path fill="#771E16" d="M160 88h4v4h-4z"/><path fill="#3F7C74" d="M64 92h4v4h-4z"/><path fill="#002A21" d="M68 92h4v4h-4z"/><path fill="#001510" d="M72 92h4v4h-4z"/><path fill="#816D66" d="M76 92h4v4h-4zM80 92h4v4h-4zM84 92h4v4h-4z"/><path fill="#542015" d="M88 92h4v4h-4z"/><path fill="#816D66" d="M92 92h4v4h-4zM96 92h4v4h-4zM100 92h4v4h-4zM104 92h4v4h-4zM108 92h4v4h-4zM112 92h4v4h-4zM116 92h4v4h-4z"/><path fill="#FEEAC5" d="M120 92h4v4h-4zM124 92h4v4h-4zM128 92h4v4h-4zM132 92h4v4h-4z"/><path fill="#C19079" d="M136 92h4v4h-4z"/><path fill="#EE875A" d="M140 92h4v4h-4z"/><path fill="#A23C33" d="M144 92h4v4h-4z"/><path fill="#771E16" d="M148 92h4v4h-4zM152 92h4v4h-4zM156 92h4v4h-4zM160 92h4v4h-4zM176 92h4v4h-4z"/><path fill="#3F7C74" d="M68 96h4v4h-4z"/><path fill="#150303" d="M72 96h4v4h-4z"/><path fill="#170B0D" d="M76 96h4v4h-4z"/><path fill="#816D66" d="M80 96h4v4h-4z"/><path fill="#771E16" d="M84 96h4v4h-4z"/><path fill="#816D66" d="M88 96h4v4h-4zM92 96h4v4h-4zM96 96h4v4h-4zM100 96h4v4h-4z"/><path fill="#FEEAC5" d="M104 96h4v4h-4zM108 96h4v4h-4zM112 96h4v4h-4zM116 96h4v4h-4z"/><path fill="#B88B6E" d="M120 96h4v4h-4z"/><path fill="#EE875A" d="M124 96h4v4h-4z"/><path fill="#CD3832" d="M128 96h4v4h-4z"/><path fill="#EE875A" d="M132 96h4v4h-4z"/><path fill="#FEEAC5" d="M136 96h4v4h-4zM140 96h4v4h-4z"/><path fill="#CD3832" d="M144 96h4v4h-4z"/><path fill="#771E16" d="M148 96h4v4h-4zM152 96h4v4h-4zM156 96h4v4h-4zM160 96h4v4h-4zM164 96h4v4h-4zM168 96h4v4h-4zM172 96h4v4h-4zM176 96h4v4h-4z"/><path fill="#3F7C74" d="M244 96h4v4h-4zM72 100h4v4h-4zM76 100h4v4h-4z"/><path fill="#771E16" d="M80 100h4v4h-4zM84 100h4v4h-4z"/><path fill="#C0AF95" d="M88 100h4v4h-4zM92 100h4v4h-4z"/><path fill="#CD3832" d="M96 100h4v4h-4zM100 100h4v4h-4zM104 100h4v4h-4zM108 100h4v4h-4zM112 100h4v4h-4z"/><path fill="#EE875A" d="M116 100h4v4h-4z"/><path fill="#FEEAC5" d="M120 100h4v4h-4zM124 100h4v4h-4z"/><path fill="#CD3832" d="M128 100h4v4h-4z"/><path fill="#FEEAC5" d="M132 100h4v4h-4zM136 100h4v4h-4zM140 100h4v4h-4z"/><path fill="#CD3832" d="M144 100h4v4h-4z"/><path fill="#771E16" d="M148 100h4v4h-4zM152 100h4v4h-4zM156 100h4v4h-4z"/><path fill="#CD544B" d="M160 100h4v4h-4z"/><path fill="#FEEAC5" d="M164 100h4v4h-4z"/><path fill="#771E16" d="M168 100h4v4h-4zM172 100h4v4h-4zM176 100h4v4h-4z"/><path fill="#3F7C74" d="M236 100h4v4h-4zM240 100h4v4h-4zM244 100h4v4h-4z"/><path fill="#771E16" d="M88 104h4v4h-4z"/><path fill="#AC3632" d="M92 104h4v4h-4z"/><path fill="#771E16" d="M96 104h4v4h-4zM100 104h4v4h-4zM104 104h4v4h-4zM108 104h4v4h-4z"/><path fill="#CD3832" d="M112 104h4v4h-4z"/><path fill="#FEEAC5" d="M116 104h4v4h-4zM120 104h4v4h-4zM124 104h4v4h-4zM128 104h4v4h-4z"/><path fill="#CD3832" d="M132 104h4v4h-4z"/><path fill="#FEEAC5" d="M136 104h4v4h-4zM140 104h4v4h-4zM144 104h4v4h-4z"/><path fill="#CD3832" d="M148 104h4v4h-4z"/><path fill="#EE875A" d="M152 104h4v4h-4z"/><path fill="#FEEAC5" d="M156 104h4v4h-4zM160 104h4v4h-4zM164 104h4v4h-4z"/><path fill="#A83C3A" d="M168 104h4v4h-4z"/><path fill="#A7605C" d="M172 104h4v4h-4z"/><path fill="#AF5152" d="M176 104h4v4h-4z"/><path fill="#771E16" d="M180 104h4v4h-4z"/><path fill="#3F7C74" d="M220 104h4v4h-4zM224 104h4v4h-4zM228 104h4v4h-4zM232 104h4v4h-4z"/><path fill="#00EAB0" d="M236 104h4v4h-4z"/><path fill="#00B281" d="M240 104h4v4h-4z"/><path fill="#3F7C74" d="M244 104h4v4h-4z"/><path fill="#771E16" d="M88 108h4v4h-4z"/><path fill="#AC3632" d="M92 108h4v4h-4z"/><path fill="#771E16" d="M96 108h4v4h-4zM100 108h4v4h-4zM104 108h4v4h-4zM108 108h4v4h-4z"/><path fill="#CD3832" d="M112 108h4v4h-4z"/><path fill="#FEEAC5" d="M116 108h4v4h-4zM120 108h4v4h-4zM124 108h4v4h-4zM128 108h4v4h-4z"/><path fill="#CD3832" d="M132 108h4v4h-4z"/><path fill="#FEEAC5" d="M136 108h4v4h-4zM140 108h4v4h-4zM144 108h4v4h-4z"/><path fill="#9F3529" d="M148 108h4v4h-4z"/><path fill="#EE875A" d="M152 108h4v4h-4z"/><path fill="#FEEAC5" d="M156 108h4v4h-4zM160 108h4v4h-4zM164 108h4v4h-4z"/><path fill="#C0AF95" d="M168 108h4v4h-4zM172 108h4v4h-4zM176 108h4v4h-4zM180 108h4v4h-4z"/><path fill="#3F7C74" d="M184 108h4v4h-4zM188 108h4v4h-4zM192 108h4v4h-4zM196 108h4v4h-4zM200 108h4v4h-4zM204 108h4v4h-4zM208 108h4v4h-4zM212 108h4v4h-4zM216 108h4v4h-4z"/><path fill="#00EBB7" d="M220 108h4v4h-4z"/><path fill="#00EAB9" d="M224 108h4v4h-4z"/><path fill="#00EBBE" d="M228 108h4v4h-4z"/><path fill="#00CDA2" d="M232 108h4v4h-4zM236 108h4v4h-4z"/><path fill="#3F7C74" d="M240 108h4v4h-4z"/><path fill="#771E16" d="M92 112h4v4h-4zM96 112h4v4h-4zM100 112h4v4h-4zM104 112h4v4h-4zM108 112h4v4h-4z"/><path fill="#CD3832" d="M112 112h4v4h-4zM116 112h4v4h-4z"/><path fill="#FEEAC5" d="M120 112h4v4h-4zM124 112h4v4h-4zM128 112h4v4h-4zM132 112h4v4h-4z"/><path fill="#A14F3A" d="M136 112h4v4h-4z"/><path fill="#FEEAC5" d="M140 112h4v4h-4z"/><path fill="#EE875A" d="M144 112h4v4h-4zM148 112h4v4h-4zM152 112h4v4h-4z"/><path fill="#C0AF95" d="M156 112h4v4h-4zM160 112h4v4h-4zM164 112h4v4h-4zM168 112h4v4h-4zM172 112h4v4h-4z"/><path fill="#008E6D" d="M176 112h4v4h-4zM180 112h4v4h-4z"/><path fill="#00CDA2" d="M184 112h4v4h-4zM188 112h4v4h-4zM192 112h4v4h-4zM196 112h4v4h-4zM200 112h4v4h-4zM204 112h4v4h-4z"/><path fill="#00EBB9" d="M208 112h4v4h-4z"/><path fill="#00EEBC" d="M212 112h4v4h-4z"/><path fill="#00EFBC" d="M216 112h4v4h-4z"/><path fill="#00EBB7" d="M220 112h4v4h-4z"/><path fill="#00CDA2" d="M224 112h4v4h-4zM228 112h4v4h-4zM232 112h4v4h-4z"/><path fill="#3F7C74" d="M236 112h4v4h-4z"/><path fill="#771E16" d="M92 116h4v4h-4z"/><path fill="#CD3832" d="M96 116h4v4h-4z"/><path fill="#AC362A" d="M100 116h4v4h-4z"/><path fill="#B0302D" d="M104 116h4v4h-4z"/><path fill="#EE875A" d="M108 116h4v4h-4zM112 116h4v4h-4z"/><path fill="#CD3832" d="M116 116h4v4h-4z"/><path fill="#FEEAC5" d="M120 116h4v4h-4zM124 116h4v4h-4z"/><path fill="#EE875A" d="M128 116h4v4h-4zM132 116h4v4h-4zM136 116h4v4h-4zM140 116h4v4h-4z"/><path fill="#C0AF95" d="M144 116h4v4h-4zM148 116h4v4h-4zM152 116h4v4h-4zM156 116h4v4h-4zM160 116h4v4h-4z"/><path fill="#008E6D" d="M164 116h4v4h-4zM168 116h4v4h-4zM172 116h4v4h-4z"/><path fill="#00CDA2" d="M176 116h4v4h-4z"/><path fill="#00E8B5" d="M180 116h4v4h-4z"/><path fill="#00E8B8" d="M184 116h4v4h-4z"/><path fill="#00EAB7" d="M188 116h4v4h-4zM192 116h4v4h-4zM196 116h4v4h-4zM200 116h4v4h-4z"/><path fill="#00EBB9" d="M204 116h4v4h-4z"/><path fill="#00EEB5" d="M208 116h4v4h-4z"/><path fill="#00EFB7" d="M212 116h4v4h-4z"/><path fill="#00EBB9" d="M216 116h4v4h-4z"/><path fill="#00CDA2" d="M220 116h4v4h-4zM224 116h4v4h-4zM228 116h4v4h-4z"/><path fill="#3F7C74" d="M232 116h4v4h-4z"/><path fill="#771E16" d="M76 120h4v4h-4zM80 120h4v4h-4zM92 120h4v4h-4z"/><path fill="#CD3832" d="M96 120h4v4h-4z"/><path fill="#FEEAC5" d="M100 120h4v4h-4zM104 120h4v4h-4zM108 120h4v4h-4zM112 120h4v4h-4z"/><path fill="#CD3832" d="M116 120h4v4h-4z"/><path fill="#EE875A" d="M120 120h4v4h-4zM124 120h4v4h-4z"/><path fill="#C0AF95" d="M128 120h4v4h-4zM132 120h4v4h-4zM136 120h4v4h-4zM140 120h4v4h-4zM144 120h4v4h-4zM148 120h4v4h-4z"/><path fill="#008E6D" d="M152 120h4v4h-4zM156 120h4v4h-4zM160 120h4v4h-4z"/><path fill="#00E9B1" d="M164 120h4v4h-4z"/><path fill="#00CDA2" d="M168 120h4v4h-4z"/><path fill="#00E8B1" d="M172 120h4v4h-4z"/><path fill="#00E9B1" d="M176 120h4v4h-4z"/><path fill="#00EAB7" d="M180 120h4v4h-4zM184 120h4v4h-4zM188 120h4v4h-4zM192 120h4v4h-4zM196 120h4v4h-4z"/><path fill="#00E9B5" d="M200 120h4v4h-4z"/><path fill="#00E9B4" d="M204 120h4v4h-4z"/><path fill="#00CDA2" d="M208 120h4v4h-4zM212 120h4v4h-4zM216 120h4v4h-4zM220 120h4v4h-4z"/><path fill="#3F7C74" d="M224 120h4v4h-4zM228 120h4v4h-4z"/><path fill="#771E16" d="M80 124h4v4h-4zM84 124h4v4h-4zM96 124h4v4h-4z"/><path fill="#FEEAC5" d="M100 124h4v4h-4zM104 124h4v4h-4z"/><path fill="#C0AF95" d="M108 124h4v4h-4zM112 124h4v4h-4zM116 124h4v4h-4zM120 124h4v4h-4zM124 124h4v4h-4zM128 124h4v4h-4z"/><path fill="#008E6D" d="M132 124h4v4h-4zM136 124h4v4h-4zM140 124h4v4h-4zM144 124h4v4h-4zM148 124h4v4h-4z"/><path fill="#00CDA2" d="M152 124h4v4h-4z"/><path fill="#00EAB7" d="M156 124h4v4h-4z"/><path fill="#00CDA2" d="M160 124h4v4h-4zM164 124h4v4h-4zM168 124h4v4h-4zM172 124h4v4h-4zM176 124h4v4h-4zM180 124h4v4h-4zM184 124h4v4h-4zM188 124h4v4h-4zM192 124h4v4h-4zM196 124h4v4h-4zM200 124h4v4h-4zM204 124h4v4h-4zM208 124h4v4h-4zM212 124h4v4h-4z"/><path fill="#3F7C74" d="M216 124h4v4h-4zM220 124h4v4h-4z"/><path fill="#771E16" d="M80 128h4v4h-4z"/><path fill="#A7605C" d="M84 128h4v4h-4z"/><path fill="#771E16" d="M88 128h4v4h-4zM92 128h4v4h-4z"/><path fill="#C0AF95" d="M96 128h4v4h-4zM100 128h4v4h-4zM104 128h4v4h-4zM108 128h4v4h-4z"/><path fill="#008E6D" d="M112 128h4v4h-4zM116 128h4v4h-4zM120 128h4v4h-4zM124 128h4v4h-4zM128 128h4v4h-4z"/><path fill="#00CDA2" d="M132 128h4v4h-4zM136 128h4v4h-4zM140 128h4v4h-4z"/><path fill="#00EAB7" d="M144 128h4v4h-4z"/><path fill="#00CDA2" d="M148 128h4v4h-4zM152 128h4v4h-4z"/><path fill="#00EAB7" d="M156 128h4v4h-4z"/><path fill="#00CDA2" d="M160 128h4v4h-4zM164 128h4v4h-4zM168 128h4v4h-4zM172 128h4v4h-4zM176 128h4v4h-4zM180 128h4v4h-4zM184 128h4v4h-4zM188 128h4v4h-4zM192 128h4v4h-4zM196 128h4v4h-4zM200 128h4v4h-4zM204 128h4v4h-4z"/><path fill="#32120A" d="M208 128h4v4h-4z"/><path fill="#771E16" d="M212 128h4v4h-4zM224 128h4v4h-4zM84 132h4v4h-4z"/><path fill="#A7605C" d="M88 132h4v4h-4z"/><path fill="#C0AF95" d="M92 132h4v4h-4z"/><path fill="#008E6D" d="M96 132h4v4h-4zM100 132h4v4h-4zM104 132h4v4h-4zM108 132h4v4h-4z"/><path fill="#00CDA2" d="M112 132h4v4h-4zM116 132h4v4h-4zM120 132h4v4h-4zM124 132h4v4h-4zM128 132h4v4h-4z"/><path fill="#00EAB7" d="M132 132h4v4h-4z"/><path fill="#00CDA2" d="M136 132h4v4h-4zM140 132h4v4h-4z"/><path fill="#00EAB7" d="M144 132h4v4h-4z"/><path fill="#00CDA2" d="M148 132h4v4h-4zM152 132h4v4h-4z"/><path fill="#00EAB7" d="M156 132h4v4h-4z"/><path fill="#00CDA2" d="M160 132h4v4h-4zM164 132h4v4h-4zM168 132h4v4h-4zM172 132h4v4h-4zM176 132h4v4h-4zM180 132h4v4h-4zM184 132h4v4h-4zM188 132h4v4h-4zM192 132h4v4h-4z"/><path fill="#32120A" d="M196 132h4v4h-4zM200 132h4v4h-4zM204 132h4v4h-4z"/><path fill="#816D66" d="M208 132h4v4h-4z"/><path fill="#771E16" d="M212 132h4v4h-4zM224 132h4v4h-4zM228 132h4v4h-4z"/><path fill="#3F7C74" d="M84 136h4v4h-4z"/><path fill="#008E6D" d="M88 136h4v4h-4zM92 136h4v4h-4z"/><path fill="#00CDA2" d="M96 136h4v4h-4zM100 136h4v4h-4zM104 136h4v4h-4zM108 136h4v4h-4zM112 136h4v4h-4zM116 136h4v4h-4z"/><path fill="#00EAB7" d="M120 136h4v4h-4z"/><path fill="#00CDA2" d="M124 136h4v4h-4zM128 136h4v4h-4z"/><path fill="#00EAB7" d="M132 136h4v4h-4z"/><path fill="#00CDA2" d="M136 136h4v4h-4zM140 136h4v4h-4z"/><path fill="#00EAB7" d="M144 136h4v4h-4z"/><path fill="#00CDA2" d="M148 136h4v4h-4zM152 136h4v4h-4zM156 136h4v4h-4zM160 136h4v4h-4zM164 136h4v4h-4zM168 136h4v4h-4zM172 136h4v4h-4z"/><path fill="#00D097" d="M176 136h4v4h-4z"/><path fill="#00CDA2" d="M180 136h4v4h-4z"/><path fill="#320600" d="M184 136h4v4h-4z"/><path fill="#32120A" d="M188 136h4v4h-4zM192 136h4v4h-4z"/><path fill="#816D66" d="M196 136h4v4h-4zM200 136h4v4h-4zM204 136h4v4h-4zM208 136h4v4h-4z"/><path fill="#190002" d="M212 136h4v4h-4z"/><path fill="#771E16" d="M216 136h4v4h-4zM220 136h4v4h-4z"/><path fill="#300302" d="M224 136h4v4h-4z"/><path fill="#771E16" d="M228 136h4v4h-4z"/><path fill="#3F7C74" d="M76 140h4v4h-4zM80 140h4v4h-4z"/><path fill="#00CDA2" d="M84 140h4v4h-4zM88 140h4v4h-4zM92 140h4v4h-4zM96 140h4v4h-4zM100 140h4v4h-4zM104 140h4v4h-4z"/><path fill="#00EAB7" d="M108 140h4v4h-4z"/><path fill="#00CDA2" d="M112 140h4v4h-4zM116 140h4v4h-4z"/><path fill="#00EAB7" d="M120 140h4v4h-4z"/><path fill="#00CDA2" d="M124 140h4v4h-4zM128 140h4v4h-4z"/><path fill="#00EAB7" d="M132 140h4v4h-4z"/><path fill="#00CDA2" d="M136 140h4v4h-4zM140 140h4v4h-4zM144 140h4v4h-4zM148 140h4v4h-4zM152 140h4v4h-4zM156 140h4v4h-4zM160 140h4v4h-4zM164 140h4v4h-4z"/><path fill="#003528" d="M168 140h4v4h-4z"/><path fill="#360200" d="M172 140h4v4h-4z"/><path fill="#320300" d="M176 140h4v4h-4z"/><path fill="#370802" d="M180 140h4v4h-4z"/><path fill="#816D66" d="M184 140h4v4h-4zM188 140h4v4h-4zM192 140h4v4h-4z"/><path fill="#1F0204" d="M196 140h4v4h-4z"/><path fill="#1E0103" d="M200 140h4v4h-4z"/><path fill="#1F0204" d="M204 140h4v4h-4z"/><path fill="#1C0603" d="M208 140h4v4h-4z"/><path fill="#320404" d="M212 140h4v4h-4z"/><path fill="#300302" d="M216 140h4v4h-4zM220 140h4v4h-4zM224 140h4v4h-4z"/><path fill="#771E16" d="M228 140h4v4h-4z"/><path fill="#3F7C74" d="M72 144h4v4h-4z"/><path fill="#00CDA2" d="M76 144h4v4h-4zM80 144h4v4h-4zM84 144h4v4h-4zM88 144h4v4h-4zM92 144h4v4h-4z"/><path fill="#00EAB7" d="M96 144h4v4h-4z"/><path fill="#00CDA2" d="M100 144h4v4h-4zM104 144h4v4h-4z"/><path fill="#00EAB7" d="M108 144h4v4h-4z"/><path fill="#00CDA2" d="M112 144h4v4h-4zM116 144h4v4h-4z"/><path fill="#00EAB7" d="M120 144h4v4h-4z"/><path fill="#00CDA2" d="M124 144h4v4h-4zM128 144h4v4h-4zM132 144h4v4h-4zM136 144h4v4h-4zM140 144h4v4h-4zM144 144h4v4h-4zM148 144h4v4h-4zM152 144h4v4h-4z"/><path fill="#350203" d="M156 144h4v4h-4z"/><path fill="#380204" d="M160 144h4v4h-4z"/><path fill="#370304" d="M164 144h4v4h-4z"/><path fill="#816D66" d="M168 144h4v4h-4zM172 144h4v4h-4zM176 144h4v4h-4zM180 144h4v4h-4z"/><path fill="#1C0203" d="M184 144h4v4h-4z"/><path fill="#1D0102" d="M188 144h4v4h-4z"/><path fill="#1F0204" d="M192 144h4v4h-4z"/><path fill="#290000" d="M196 144h4v4h-4z"/><path fill="#270000" d="M200 144h4v4h-4z"/><path fill="#300404" d="M204 144h4v4h-4z"/><path fill="#300403" d="M208 144h4v4h-4z"/><path fill="#771E16" d="M212 144h4v4h-4zM216 144h4v4h-4z"/><path fill="#300302" d="M220 144h4v4h-4z"/><path fill="#3F7C74" d="M64 148h4v4h-4zM68 148h4v4h-4z"/><path fill="#00CDA2" d="M72 148h4v4h-4zM76 148h4v4h-4zM80 148h4v4h-4z"/><path fill="#00EAB7" d="M84 148h4v4h-4z"/><path fill="#00CDA2" d="M88 148h4v4h-4zM92 148h4v4h-4z"/><path fill="#00EAB7" d="M96 148h4v4h-4z"/><path fill="#00CDA2" d="M100 148h4v4h-4zM104 148h4v4h-4z"/><path fill="#00EAB7" d="M108 148h4v4h-4z"/><path fill="#00CDA2" d="M112 148h4v4h-4zM116 148h4v4h-4zM120 148h4v4h-4zM124 148h4v4h-4z"/><path fill="#00C99A" d="M128 148h4v4h-4z"/><path fill="#00CDA2" d="M132 148h4v4h-4zM136 148h4v4h-4z"/><path fill="#003B2B" d="M140 148h4v4h-4z"/><path fill="#390809" d="M144 148h4v4h-4z"/><path fill="#380809" d="M148 148h4v4h-4zM152 148h4v4h-4z"/><path fill="#816D66" d="M156 148h4v4h-4zM160 148h4v4h-4zM164 148h4v4h-4z"/><path fill="#220509" d="M168 148h4v4h-4z"/><path fill="#1D0204" d="M172 148h4v4h-4z"/><path fill="#1E0105" d="M176 148h4v4h-4z"/><path fill="#1C0704" d="M180 148h4v4h-4z"/><path fill="#2B0201" d="M184 148h4v4h-4zM188 148h4v4h-4z"/><path fill="#270000" d="M192 148h4v4h-4z"/><path fill="#290000" d="M196 148h4v4h-4z"/><path fill="#771E16" d="M200 148h4v4h-4zM204 148h4v4h-4zM208 148h4v4h-4z"/><path fill="#816D66" d="M212 148h4v4h-4zM216 148h4v4h-4z"/><path fill="#771E16" d="M220 148h4v4h-4z"/><path fill="#3F7C74" d="M56 152h4v4h-4zM60 152h4v4h-4z"/><path fill="#00CDA2" d="M64 152h4v4h-4zM68 152h4v4h-4zM72 152h4v4h-4zM76 152h4v4h-4zM80 152h4v4h-4z"/><path fill="#00EAB7" d="M84 152h4v4h-4z"/><path fill="#00CDA2" d="M88 152h4v4h-4zM92 152h4v4h-4z"/><path fill="#00EAB7" d="M96 152h4v4h-4z"/><path fill="#00CDA2" d="M100 152h4v4h-4zM104 152h4v4h-4zM108 152h4v4h-4zM112 152h4v4h-4zM116 152h4v4h-4zM120 152h4v4h-4z"/><path fill="#00CF97" d="M124 152h4v4h-4z"/><path fill="#003831" d="M128 152h4v4h-4z"/><path fill="#390604" d="M132 152h4v4h-4z"/><path fill="#380605" d="M136 152h4v4h-4z"/><path fill="#3A0203" d="M140 152h4v4h-4z"/><path fill="#816D66" d="M144 152h4v4h-4zM148 152h4v4h-4zM152 152h4v4h-4z"/><path fill="#1B0000" d="M156 152h4v4h-4z"/><path fill="#1D0102" d="M160 152h4v4h-4z"/><path fill="#1E0103" d="M164 152h4v4h-4z"/><path fill="#220509" d="M168 152h4v4h-4z"/><path fill="#290102" d="M172 152h4v4h-4z"/><path fill="#2A0202" d="M176 152h4v4h-4z"/><path fill="#2B0201" d="M180 152h4v4h-4z"/><path fill="#771E16" d="M184 152h4v4h-4zM188 152h4v4h-4zM192 152h4v4h-4zM196 152h4v4h-4z"/><path fill="#816D66" d="M200 152h4v4h-4zM204 152h4v4h-4zM208 152h4v4h-4z"/><path fill="#FEEAC5" d="M212 152h4v4h-4zM216 152h4v4h-4z"/><path fill="#771E16" d="M220 152h4v4h-4z"/><path fill="#3F7C74" d="M36 156h4v4h-4zM40 156h4v4h-4zM44 156h4v4h-4zM48 156h4v4h-4zM52 156h4v4h-4z"/><path fill="#00AD80" d="M56 156h4v4h-4z"/><path fill="#00CDA2" d="M60 156h4v4h-4zM64 156h4v4h-4zM68 156h4v4h-4zM72 156h4v4h-4zM76 156h4v4h-4zM80 156h4v4h-4zM84 156h4v4h-4zM88 156h4v4h-4zM92 156h4v4h-4zM96 156h4v4h-4zM100 156h4v4h-4zM104 156h4v4h-4zM108 156h4v4h-4zM112 156h4v4h-4z"/><path fill="#3A0701" d="M116 156h4v4h-4z"/><path fill="#390501" d="M120 156h4v4h-4z"/><path fill="#370801" d="M124 156h4v4h-4z"/><path fill="#816D66" d="M128 156h4v4h-4zM132 156h4v4h-4zM136 156h4v4h-4zM140 156h4v4h-4z"/><path fill="#1D0002" d="M144 156h4v4h-4z"/><path fill="#1B0000" d="M148 156h4v4h-4z"/><path fill="#1C0001" d="M152 156h4v4h-4z"/><path fill="#290001" d="M156 156h4v4h-4z"/><path fill="#2A0002" d="M160 156h4v4h-4z"/><path fill="#280102" d="M164 156h4v4h-4z"/><path fill="#280002" d="M168 156h4v4h-4z"/><path fill="#771E16" d="M172 156h4v4h-4zM176 156h4v4h-4zM180 156h4v4h-4z"/><path fill="#816D66" d="M184 156h4v4h-4zM188 156h4v4h-4zM192 156h4v4h-4zM196 156h4v4h-4z"/><path fill="#FEEAC5" d="M200 156h4v4h-4zM204 156h4v4h-4zM208 156h4v4h-4zM212 156h4v4h-4zM216 156h4v4h-4zM220 156h4v4h-4z"/><path fill="#771E16" d="M224 156h4v4h-4zM228 156h4v4h-4z"/><path fill="#3F7C74" d="M40 160h4v4h-4z"/><path fill="#029C76" d="M44 160h4v4h-4z"/><path fill="#00CDA2" d="M48 160h4v4h-4zM52 160h4v4h-4zM56 160h4v4h-4zM60 160h4v4h-4zM64 160h4v4h-4zM68 160h4v4h-4zM72 160h4v4h-4zM76 160h4v4h-4zM80 160h4v4h-4zM84 160h4v4h-4zM88 160h4v4h-4zM92 160h4v4h-4zM96 160h4v4h-4z"/><path fill="#340A03" d="M100 160h4v4h-4z"/><path fill="#57352B" d="M104 160h4v4h-4z"/><path fill="#340A03" d="M108 160h4v4h-4z"/><path fill="#370400" d="M112 160h4v4h-4z"/><path fill="#816D66" d="M116 160h4v4h-4zM120 160h4v4h-4zM124 160h4v4h-4z"/><path fill="#1C0000" d="M128 160h4v4h-4z"/><path fill="#180000" d="M132 160h4v4h-4z"/><path fill="#190000" d="M136 160h4v4h-4zM140 160h4v4h-4z"/><path fill="#2C0405" d="M144 160h4v4h-4z"/><path fill="#2B0304" d="M148 160h4v4h-4zM152 160h4v4h-4z"/><path fill="#771E16" d="M156 160h4v4h-4zM160 160h4v4h-4zM164 160h4v4h-4zM168 160h4v4h-4z"/><path fill="#816D66" d="M172 160h4v4h-4z"/><path fill="#B78B7E" d="M176 160h4v4h-4z"/><path fill="#FEEAC5" d="M180 160h4v4h-4z"/><path fill="#816D66" d="M184 160h4v4h-4z"/><path fill="#FEEAC5" d="M188 160h4v4h-4zM192 160h4v4h-4zM196 160h4v4h-4zM200 160h4v4h-4zM204 160h4v4h-4zM208 160h4v4h-4zM212 160h4v4h-4zM216 160h4v4h-4zM220 160h4v4h-4zM224 160h4v4h-4z"/><path fill="#CD3832" d="M228 160h4v4h-4z"/><path fill="#771E16" d="M232 160h4v4h-4z"/><path fill="#3F7C74" d="M44 164h4v4h-4z"/><path fill="#00483A" d="M48 164h4v4h-4z"/><path fill="#003E31" d="M52 164h4v4h-4z"/><path fill="#003D30" d="M56 164h4v4h-4z"/><path fill="#003A2F" d="M60 164h4v4h-4z"/><path fill="#00382F" d="M64 164h4v4h-4z"/><path fill="#003830" d="M68 164h4v4h-4z"/><path fill="#00372E" d="M72 164h4v4h-4z"/><path fill="#00392C" d="M76 164h4v4h-4z"/><path fill="#003B2A" d="M80 164h4v4h-4z"/><path fill="#340A03" d="M84 164h4v4h-4zM88 164h4v4h-4zM92 164h4v4h-4zM96 164h4v4h-4z"/><path fill="#816D66" d="M100 164h4v4h-4zM104 164h4v4h-4zM108 164h4v4h-4zM112 164h4v4h-4z"/><path fill="#1B0000" d="M116 164h4v4h-4z"/><path fill="#1D0001" d="M120 164h4v4h-4zM124 164h4v4h-4z"/><path fill="#2A0203" d="M128 164h4v4h-4zM132 164h4v4h-4z"/><path fill="#280001" d="M136 164h4v4h-4zM140 164h4v4h-4z"/><path fill="#771E16" d="M144 164h4v4h-4zM148 164h4v4h-4zM152 164h4v4h-4z"/><path fill="#816D66" d="M156 164h4v4h-4zM160 164h4v4h-4z"/><path fill="#280102" d="M164 164h4v4h-4z"/><path fill="#816D66" d="M168 164h4v4h-4z"/><path fill="#280102" d="M172 164h4v4h-4z"/><path fill="#B88A7D" d="M176 164h4v4h-4z"/><path fill="#FEEAC5" d="M180 164h4v4h-4z"/><path fill="#816D66" d="M184 164h4v4h-4z"/><path fill="#FEEAC5" d="M188 164h4v4h-4zM192 164h4v4h-4zM196 164h4v4h-4zM200 164h4v4h-4zM204 164h4v4h-4zM208 164h4v4h-4zM212 164h4v4h-4zM216 164h4v4h-4z"/><path fill="#CD3832" d="M220 164h4v4h-4zM224 164h4v4h-4z"/><path fill="#AF3C34" d="M228 164h4v4h-4z"/><path fill="#771E16" d="M232 164h4v4h-4z"/><path fill="#3F7C74" d="M44 168h4v4h-4zM48 168h4v4h-4z"/><path fill="#004032" d="M52 168h4v4h-4z"/><path fill="#003D2E" d="M56 168h4v4h-4zM60 168h4v4h-4zM64 168h4v4h-4zM68 168h4v4h-4z"/><path fill="#002E26" d="M72 168h4v4h-4z"/><path fill="#003229" d="M76 168h4v4h-4zM80 168h4v4h-4z"/><path fill="#300502" d="M84 168h4v4h-4z"/><path fill="#C0AF95" d="M88 168h4v4h-4z"/><path fill="#816D66" d="M92 168h4v4h-4zM96 168h4v4h-4z"/><path fill="#200001" d="M100 168h4v4h-4z"/><path fill="#1D0000" d="M104 168h4v4h-4z"/><path fill="#1D0100" d="M108 168h4v4h-4z"/><path fill="#1C0001" d="M112 168h4v4h-4z"/><path fill="#2D0305" d="M116 168h4v4h-4zM120 168h4v4h-4z"/><path fill="#290102" d="M124 168h4v4h-4z"/><path fill="#771E16" d="M128 168h4v4h-4zM132 168h4v4h-4zM136 168h4v4h-4zM140 168h4v4h-4z"/><path fill="#B88A7D" d="M144 168h4v4h-4z"/><path fill="#280102" d="M148 168h4v4h-4z"/><path fill="#816D66" d="M152 168h4v4h-4z"/><path fill="#B88A7D" d="M156 168h4v4h-4zM160 168h4v4h-4zM164 168h4v4h-4z"/><path fill="#280102" d="M168 168h4v4h-4z"/><path fill="#B88A7D" d="M172 168h4v4h-4zM176 168h4v4h-4z"/><path fill="#FEEAC5" d="M180 168h4v4h-4z"/><path fill="#816D66" d="M184 168h4v4h-4z"/><path fill="#FEEAC5" d="M188 168h4v4h-4zM192 168h4v4h-4zM196 168h4v4h-4zM200 168h4v4h-4zM204 168h4v4h-4z"/><path fill="#CD3832" d="M208 168h4v4h-4zM212 168h4v4h-4zM216 168h4v4h-4zM220 168h4v4h-4z"/><path fill="#771E16" d="M224 168h4v4h-4z"/><path fill="#AD332B" d="M228 168h4v4h-4z"/><path fill="#771E16" d="M232 168h4v4h-4z"/><path fill="#3F7C74" d="M52 172h4v4h-4z"/><path fill="#003D2E" d="M56 172h4v4h-4zM60 172h4v4h-4zM64 172h4v4h-4zM68 172h4v4h-4z"/><path d="M72 172h4v4h-4z"/><path fill="#130100" d="M76 172h4v4h-4z"/><path fill="#210504" d="M80 172h4v4h-4z"/><path fill="#816D66" d="M84 172h4v4h-4z"/><path fill="#2E0203" d="M88 172h4v4h-4z"/><path fill="#270100" d="M92 172h4v4h-4z"/><path fill="#200" d="M96 172h4v4h-4z"/><path fill="#310304" d="M100 172h4v4h-4z"/><path fill="#300303" d="M104 172h4v4h-4z"/><path fill="#2E0202" d="M108 172h4v4h-4z"/><path fill="#2B0103" d="M112 172h4v4h-4z"/><path fill="#771E16" d="M116 172h4v4h-4zM120 172h4v4h-4zM124 172h4v4h-4z"/><path fill="#816D66" d="M128 172h4v4h-4zM132 172h4v4h-4z"/><path fill="#B88A7D" d="M136 172h4v4h-4z"/><path fill="#FEEAC5" d="M140 172h4v4h-4z"/><path fill="#B88A7D" d="M144 172h4v4h-4z"/><path fill="#280102" d="M148 172h4v4h-4z"/><path fill="#771E16" d="M152 172h4v4h-4z"/><path fill="#816D66" d="M156 172h4v4h-4z"/><path fill="#B88A7D" d="M160 172h4v4h-4z"/><path fill="#816D66" d="M164 172h4v4h-4z"/><path fill="#280102" d="M168 172h4v4h-4zM172 172h4v4h-4zM176 172h4v4h-4z"/><path fill="#FEEAC5" d="M180 172h4v4h-4z"/><path fill="#816D66" d="M184 172h4v4h-4z"/><path fill="#FEEAC5" d="M188 172h4v4h-4zM192 172h4v4h-4z"/><path fill="#CD3832" d="M196 172h4v4h-4zM200 172h4v4h-4zM204 172h4v4h-4zM208 172h4v4h-4zM212 172h4v4h-4z"/><path fill="#9A2923" d="M216 172h4v4h-4z"/><path fill="#9B2622" d="M220 172h4v4h-4z"/><path fill="#771E16" d="M224 172h4v4h-4zM228 172h4v4h-4zM232 172h4v4h-4z"/><path fill="#3F7C74" d="M56 176h4v4h-4zM60 176h4v4h-4zM64 176h4v4h-4z"/><path fill="#003D2E" d="M68 176h4v4h-4z"/><path fill="#1E0604" d="M72 176h4v4h-4z"/><path fill="#220203" d="M76 176h4v4h-4z"/><path fill="#270303" d="M80 176h4v4h-4z"/><path fill="#2B0202" d="M84 176h4v4h-4z"/><path fill="#300" d="M88 176h4v4h-4z"/><path fill="#320100" d="M92 176h4v4h-4z"/><path fill="#340201" d="M96 176h4v4h-4z"/><path fill="#310304" d="M100 176h4v4h-4z"/><path fill="#771E16" d="M104 176h4v4h-4zM108 176h4v4h-4zM112 176h4v4h-4z"/><path fill="#816D66" d="M116 176h4v4h-4zM120 176h4v4h-4zM124 176h4v4h-4zM128 176h4v4h-4z"/><path fill="#C0AF95" d="M132 176h4v4h-4z"/><path fill="#816D66" d="M136 176h4v4h-4z"/><path fill="#FEEAC5" d="M140 176h4v4h-4z"/><path fill="#B88A7D" d="M144 176h4v4h-4z"/><path fill="#280102" d="M148 176h4v4h-4zM152 176h4v4h-4zM156 176h4v4h-4z"/><path fill="#B88A7D" d="M160 176h4v4h-4zM164 176h4v4h-4z"/><path fill="#280102" d="M168 176h4v4h-4z"/><path fill="#B88A7D" d="M172 176h4v4h-4z"/><path fill="#280102" d="M176 176h4v4h-4z"/><path fill="#816D66" d="M180 176h4v4h-4z"/><path fill="#CD3832" d="M184 176h4v4h-4zM188 176h4v4h-4zM192 176h4v4h-4zM196 176h4v4h-4z"/><path fill="#C0AF95" d="M200 176h4v4h-4z"/><path fill="#771E16" d="M204 176h4v4h-4zM208 176h4v4h-4zM212 176h4v4h-4zM216 176h4v4h-4zM220 176h4v4h-4zM224 176h4v4h-4zM228 176h4v4h-4z"/><path fill="#B24743" d="M232 176h4v4h-4z"/><path fill="#771E16" d="M236 176h4v4h-4zM68 180h4v4h-4z"/><path fill="#1E0604" d="M72 180h4v4h-4z"/><path fill="#771E16" d="M76 180h4v4h-4z"/><path fill="#370503" d="M80 180h4v4h-4z"/><path fill="#390603" d="M84 180h4v4h-4z"/><path fill="#771E16" d="M88 180h4v4h-4zM92 180h4v4h-4zM96 180h4v4h-4zM100 180h4v4h-4z"/><path fill="#816D66" d="M104 180h4v4h-4zM108 180h4v4h-4zM112 180h4v4h-4z"/><path fill="#FEEAC5" d="M116 180h4v4h-4zM120 180h4v4h-4zM124 180h4v4h-4zM128 180h4v4h-4z"/><path fill="#C0AF95" d="M132 180h4v4h-4z"/><path fill="#816D66" d="M136 180h4v4h-4z"/><path fill="#FEEAC5" d="M140 180h4v4h-4z"/><path fill="#B88A7D" d="M144 180h4v4h-4z"/><path fill="#280102" d="M148 180h4v4h-4z"/><path fill="#B88A7D" d="M152 180h4v4h-4z"/><path fill="#771E16" d="M156 180h4v4h-4z"/><path fill="#816D66" d="M160 180h4v4h-4zM164 180h4v4h-4zM168 180h4v4h-4zM172 180h4v4h-4z"/><path fill="#CD3832" d="M176 180h4v4h-4zM180 180h4v4h-4zM184 180h4v4h-4z"/><path fill="#C0AF95" d="M188 180h4v4h-4zM192 180h4v4h-4z"/><path fill="#FEEAC5" d="M196 180h4v4h-4z"/><path fill="#C0AF95" d="M200 180h4v4h-4z"/><path fill="#CD3832" d="M204 180h4v4h-4z"/><path fill="#771E16" d="M208 180h4v4h-4zM212 180h4v4h-4zM216 180h4v4h-4zM220 180h4v4h-4zM224 180h4v4h-4zM228 180h4v4h-4z"/><path fill="#CD3832" d="M232 180h4v4h-4z"/><path fill="#771E16" d="M236 180h4v4h-4zM68 184h4v4h-4zM72 184h4v4h-4zM76 184h4v4h-4z"/><path fill="#C0AF95" d="M80 184h4v4h-4z"/><path fill="#771E16" d="M84 184h4v4h-4z"/><path fill="#816D66" d="M88 184h4v4h-4zM92 184h4v4h-4zM96 184h4v4h-4zM100 184h4v4h-4z"/><path fill="#FEEAC5" d="M104 184h4v4h-4zM108 184h4v4h-4zM112 184h4v4h-4zM116 184h4v4h-4zM120 184h4v4h-4zM124 184h4v4h-4zM128 184h4v4h-4z"/><path fill="#C0AF95" d="M132 184h4v4h-4z"/><path fill="#816D66" d="M136 184h4v4h-4z"/><path fill="#FEEAC5" d="M140 184h4v4h-4z"/><path fill="#816D66" d="M144 184h4v4h-4z"/><path fill="#280102" d="M148 184h4v4h-4z"/><path fill="#816D66" d="M152 184h4v4h-4zM156 184h4v4h-4z"/><path fill="#CD3832" d="M160 184h4v4h-4zM164 184h4v4h-4zM168 184h4v4h-4zM172 184h4v4h-4z"/><path fill="#9E2B27" d="M176 184h4v4h-4z"/><path fill="#771E16" d="M180 184h4v4h-4zM184 184h4v4h-4z"/><path fill="#BF5C44" d="M188 184h4v4h-4z"/><path fill="#FEEAC5" d="M192 184h4v4h-4zM196 184h4v4h-4zM200 184h4v4h-4z"/><path fill="#C0AF95" d="M204 184h4v4h-4z"/><path fill="#CD3832" d="M208 184h4v4h-4z"/><path fill="#771E16" d="M212 184h4v4h-4zM216 184h4v4h-4zM220 184h4v4h-4zM224 184h4v4h-4zM228 184h4v4h-4z"/><path fill="#CD3832" d="M232 184h4v4h-4z"/><path fill="#771E16" d="M236 184h4v4h-4zM264 184h4v4h-4zM268 184h4v4h-4zM76 188h4v4h-4z"/><path fill="#C0AF95" d="M80 188h4v4h-4zM84 188h4v4h-4zM88 188h4v4h-4z"/><path fill="#FEEAC5" d="M92 188h4v4h-4zM96 188h4v4h-4zM100 188h4v4h-4zM104 188h4v4h-4zM108 188h4v4h-4zM112 188h4v4h-4zM116 188h4v4h-4zM120 188h4v4h-4zM124 188h4v4h-4zM128 188h4v4h-4z"/><path fill="#C0AF95" d="M132 188h4v4h-4z"/><path fill="#816D66" d="M136 188h4v4h-4zM140 188h4v4h-4z"/><path fill="#CD3832" d="M144 188h4v4h-4zM148 188h4v4h-4zM152 188h4v4h-4zM156 188h4v4h-4z"/><path fill="#9E2C26" d="M160 188h4v4h-4z"/><path fill="#9D2D22" d="M164 188h4v4h-4z"/><path fill="#9E2723" d="M168 188h4v4h-4z"/><path fill="#A02925" d="M172 188h4v4h-4z"/><path fill="#771E16" d="M176 188h4v4h-4z"/><path fill="#CD3832" d="M180 188h4v4h-4zM184 188h4v4h-4z"/><path fill="#B96149" d="M188 188h4v4h-4z"/><path fill="#FEEAC5" d="M192 188h4v4h-4zM196 188h4v4h-4zM200 188h4v4h-4z"/><path fill="#C0AF95" d="M204 188h4v4h-4z"/><path fill="#CD3832" d="M208 188h4v4h-4z"/><path fill="#771E16" d="M212 188h4v4h-4zM216 188h4v4h-4zM220 188h4v4h-4zM224 188h4v4h-4zM228 188h4v4h-4z"/><path fill="#CD3832" d="M232 188h4v4h-4zM236 188h4v4h-4z"/><path fill="#771E16" d="M240 188h4v4h-4zM244 188h4v4h-4zM248 188h4v4h-4zM252 188h4v4h-4zM256 188h4v4h-4zM260 188h4v4h-4z"/><path fill="#CD3832" d="M264 188h4v4h-4zM268 188h4v4h-4z"/><path fill="#771E16" d="M272 188h4v4h-4zM80 192h4v4h-4z"/><path fill="#C0AF95" d="M84 192h4v4h-4zM88 192h4v4h-4z"/><path fill="#FEEAC5" d="M92 192h4v4h-4zM96 192h4v4h-4zM100 192h4v4h-4zM104 192h4v4h-4zM108 192h4v4h-4zM112 192h4v4h-4zM116 192h4v4h-4zM120 192h4v4h-4zM124 192h4v4h-4zM128 192h4v4h-4z"/><path fill="#A2261E" d="M132 192h4v4h-4z"/><path fill="#CD3832" d="M136 192h4v4h-4zM140 192h4v4h-4zM144 192h4v4h-4z"/><path fill="#A92E28" d="M148 192h4v4h-4z"/><path fill="#A22F25" d="M152 192h4v4h-4z"/><path fill="#A02A28" d="M156 192h4v4h-4z"/><path fill="#771E16" d="M160 192h4v4h-4zM164 192h4v4h-4zM168 192h4v4h-4zM172 192h4v4h-4zM176 192h4v4h-4z"/><path fill="#CD3832" d="M180 192h4v4h-4zM184 192h4v4h-4z"/><path fill="#B76047" d="M188 192h4v4h-4z"/><path fill="#FEEAC5" d="M192 192h4v4h-4zM196 192h4v4h-4zM200 192h4v4h-4z"/><path fill="#C0AF95" d="M204 192h4v4h-4z"/><path fill="#CD3832" d="M208 192h4v4h-4z"/><path fill="#771E16" d="M212 192h4v4h-4zM216 192h4v4h-4zM220 192h4v4h-4zM224 192h4v4h-4zM228 192h4v4h-4zM232 192h4v4h-4z"/><path fill="#CD3832" d="M236 192h4v4h-4zM240 192h4v4h-4z"/><path fill="#771E16" d="M244 192h4v4h-4zM248 192h4v4h-4z"/><path fill="#CD3832" d="M252 192h4v4h-4zM256 192h4v4h-4zM260 192h4v4h-4zM264 192h4v4h-4zM268 192h4v4h-4z"/><path fill="#771E16" d="M272 192h4v4h-4zM80 196h4v4h-4z"/><path fill="#EE875A" d="M84 196h4v4h-4z"/><path fill="#C0AF95" d="M88 196h4v4h-4z"/><path fill="#FEEAC5" d="M92 196h4v4h-4zM96 196h4v4h-4zM100 196h4v4h-4zM104 196h4v4h-4zM108 196h4v4h-4zM112 196h4v4h-4zM116 196h4v4h-4z"/><path fill="#CD3832" d="M120 196h4v4h-4zM124 196h4v4h-4zM128 196h4v4h-4z"/><path fill="#A2261E" d="M132 196h4v4h-4z"/><path fill="#CD3832" d="M136 196h4v4h-4zM140 196h4v4h-4zM144 196h4v4h-4z"/><path fill="#771E16" d="M148 196h4v4h-4zM152 196h4v4h-4zM156 196h4v4h-4zM160 196h4v4h-4zM164 196h4v4h-4zM168 196h4v4h-4zM172 196h4v4h-4zM176 196h4v4h-4zM180 196h4v4h-4z"/><path fill="#CD3832" d="M184 196h4v4h-4zM188 196h4v4h-4z"/><path fill="#B75F48" d="M192 196h4v4h-4z"/><path fill="#FEEAC5" d="M196 196h4v4h-4zM200 196h4v4h-4z"/><path fill="#C0AF95" d="M204 196h4v4h-4z"/><path fill="#FEEAC5" d="M208 196h4v4h-4z"/><path fill="#CD3832" d="M212 196h4v4h-4z"/><path fill="#771E16" d="M216 196h4v4h-4zM220 196h4v4h-4zM224 196h4v4h-4zM228 196h4v4h-4zM232 196h4v4h-4z"/><path fill="#CD3832" d="M236 196h4v4h-4zM240 196h4v4h-4z"/><path fill="#55272C" d="M244 196h4v4h-4z"/><path fill="#A43F39" d="M248 196h4v4h-4z"/><path fill="#9F4139" d="M252 196h4v4h-4z"/><path fill="#771E16" d="M256 196h4v4h-4z"/><path fill="#AC2C2B" d="M260 196h4v4h-4z"/><path fill="#CD3832" d="M264 196h4v4h-4zM268 196h4v4h-4z"/><path fill="#771E16" d="M272 196h4v4h-4zM80 200h4v4h-4z"/><path fill="#CD3832" d="M84 200h4v4h-4z"/><path fill="#C0AF95" d="M88 200h4v4h-4zM92 200h4v4h-4z"/><path fill="#FEEAC5" d="M96 200h4v4h-4zM100 200h4v4h-4zM104 200h4v4h-4z"/><path fill="#CD3832" d="M108 200h4v4h-4zM112 200h4v4h-4zM116 200h4v4h-4z"/><path fill="#A1261D" d="M120 200h4v4h-4z"/><path fill="#A3271F" d="M124 200h4v4h-4z"/><path fill="#A6251F" d="M128 200h4v4h-4z"/><path fill="#A2261E" d="M132 200h4v4h-4zM136 200h4v4h-4z"/><path fill="#CD3832" d="M140 200h4v4h-4zM144 200h4v4h-4z"/><path fill="#771E16" d="M148 200h4v4h-4zM152 200h4v4h-4zM156 200h4v4h-4zM160 200h4v4h-4zM164 200h4v4h-4zM168 200h4v4h-4zM172 200h4v4h-4zM176 200h4v4h-4zM180 200h4v4h-4z"/><path fill="#CD3832" d="M184 200h4v4h-4zM188 200h4v4h-4z"/><path fill="#BA5E49" d="M192 200h4v4h-4z"/><path fill="#FEEAC5" d="M196 200h4v4h-4zM200 200h4v4h-4zM204 200h4v4h-4zM208 200h4v4h-4z"/><path fill="#CD3832" d="M212 200h4v4h-4zM216 200h4v4h-4z"/><path fill="#771E16" d="M220 200h4v4h-4zM224 200h4v4h-4zM228 200h4v4h-4zM232 200h4v4h-4z"/><path fill="#CD3832" d="M236 200h4v4h-4zM240 200h4v4h-4zM244 200h4v4h-4zM248 200h4v4h-4zM252 200h4v4h-4z"/><path fill="#A74A45" d="M256 200h4v4h-4z"/><path fill="#771E16" d="M260 200h4v4h-4z"/><path fill="#CD3832" d="M264 200h4v4h-4zM268 200h4v4h-4z"/><path fill="#9F403C" d="M272 200h4v4h-4z"/><path fill="#771E16" d="M276 200h4v4h-4zM80 204h4v4h-4z"/><path fill="#CD3832" d="M84 204h4v4h-4z"/><path fill="#C0AF95" d="M88 204h4v4h-4zM92 204h4v4h-4z"/><path fill="#CD3832" d="M96 204h4v4h-4zM100 204h4v4h-4zM104 204h4v4h-4z"/><path fill="#771E16" d="M108 204h4v4h-4zM112 204h4v4h-4zM116 204h4v4h-4z"/><path fill="#CD3832" d="M120 204h4v4h-4z"/><path fill="#FEEAC5" d="M124 204h4v4h-4zM128 204h4v4h-4z"/><path fill="#C0AF95" d="M132 204h4v4h-4z"/><path fill="#A2261E" d="M136 204h4v4h-4z"/><path fill="#CD3832" d="M140 204h4v4h-4zM144 204h4v4h-4z"/><path fill="#771E16" d="M148 204h4v4h-4zM152 204h4v4h-4zM156 204h4v4h-4zM160 204h4v4h-4zM164 204h4v4h-4zM168 204h4v4h-4zM172 204h4v4h-4zM176 204h4v4h-4zM180 204h4v4h-4zM184 204h4v4h-4z"/><path fill="#CD3832" d="M188 204h4v4h-4z"/><path fill="#BD5D48" d="M192 204h4v4h-4z"/><path fill="#FEEAC5" d="M196 204h4v4h-4zM200 204h4v4h-4zM204 204h4v4h-4zM208 204h4v4h-4z"/><path fill="#CD3832" d="M212 204h4v4h-4zM216 204h4v4h-4zM220 204h4v4h-4zM224 204h4v4h-4z"/><path fill="#771E16" d="M228 204h4v4h-4zM232 204h4v4h-4z"/><path fill="#CD3832" d="M236 204h4v4h-4zM240 204h4v4h-4zM244 204h4v4h-4z"/><path fill="#771E16" d="M248 204h4v4h-4z"/><path fill="#FEEAC5" d="M252 204h4v4h-4z"/><path fill="#A06E6F" d="M256 204h4v4h-4z"/><path fill="#CD3832" d="M260 204h4v4h-4zM264 204h4v4h-4zM268 204h4v4h-4zM272 204h4v4h-4z"/><path fill="#771E16" d="M276 204h4v4h-4zM84 208h4v4h-4z"/><path fill="#A2261E" d="M88 208h4v4h-4z"/><path fill="#CD3832" d="M92 208h4v4h-4zM96 208h4v4h-4z"/><path fill="#771E16" d="M100 208h4v4h-4zM104 208h4v4h-4zM108 208h4v4h-4zM112 208h4v4h-4zM116 208h4v4h-4z"/><path fill="#CD3832" d="M120 208h4v4h-4z"/><path fill="#FEEAC5" d="M124 208h4v4h-4zM128 208h4v4h-4zM132 208h4v4h-4z"/><path fill="#C0AF95" d="M136 208h4v4h-4z"/><path fill="#A2261E" d="M140 208h4v4h-4z"/><path fill="#CD3832" d="M144 208h4v4h-4zM148 208h4v4h-4z"/><path fill="#771E16" d="M152 208h4v4h-4zM156 208h4v4h-4zM160 208h4v4h-4zM164 208h4v4h-4zM168 208h4v4h-4zM172 208h4v4h-4zM176 208h4v4h-4zM180 208h4v4h-4zM184 208h4v4h-4z"/><path fill="#CD3832" d="M188 208h4v4h-4z"/><path fill="#C15743" d="M192 208h4v4h-4zM196 208h4v4h-4z"/><path fill="#FEEAC5" d="M200 208h4v4h-4zM204 208h4v4h-4z"/><path fill="#CD3832" d="M208 208h4v4h-4zM212 208h4v4h-4zM216 208h4v4h-4zM220 208h4v4h-4zM224 208h4v4h-4z"/><path fill="#771E16" d="M228 208h4v4h-4zM232 208h4v4h-4z"/><path fill="#CD3832" d="M236 208h4v4h-4zM240 208h4v4h-4z"/><path fill="#B13A32" d="M244 208h4v4h-4z"/><path fill="#C0AF95" d="M248 208h4v4h-4zM252 208h4v4h-4z"/><path fill="#FEEAC5" d="M256 208h4v4h-4z"/><path fill="#C0AF95" d="M260 208h4v4h-4z"/><path fill="#771E16" d="M264 208h4v4h-4z"/><path fill="#CD3832" d="M268 208h4v4h-4z"/><path fill="#771E16" d="M272 208h4v4h-4zM276 208h4v4h-4zM280 208h4v4h-4zM84 212h4v4h-4z"/><path fill="#A2261E" d="M88 212h4v4h-4z"/><path fill="#CD3832" d="M92 212h4v4h-4zM96 212h4v4h-4z"/><path fill="#771E16" d="M100 212h4v4h-4zM104 212h4v4h-4zM108 212h4v4h-4zM112 212h4v4h-4zM116 212h4v4h-4z"/><path fill="#CD3832" d="M120 212h4v4h-4z"/><path fill="#FEEAC5" d="M124 212h4v4h-4zM128 212h4v4h-4zM132 212h4v4h-4z"/><path fill="#C0AF95" d="M136 212h4v4h-4z"/><path fill="#A2261E" d="M140 212h4v4h-4z"/><path fill="#CD3832" d="M144 212h4v4h-4zM148 212h4v4h-4z"/><path fill="#771E16" d="M152 212h4v4h-4zM156 212h4v4h-4zM160 212h4v4h-4zM164 212h4v4h-4zM168 212h4v4h-4zM172 212h4v4h-4zM176 212h4v4h-4zM180 212h4v4h-4zM184 212h4v4h-4z"/><path fill="#CD3832" d="M188 212h4v4h-4zM192 212h4v4h-4zM196 212h4v4h-4zM200 212h4v4h-4z"/><path fill="#771E16" d="M204 212h4v4h-4z"/><path fill="#CD3832" d="M208 212h4v4h-4zM212 212h4v4h-4zM216 212h4v4h-4zM220 212h4v4h-4z"/><path fill="#771E16" d="M224 212h4v4h-4zM228 212h4v4h-4zM232 212h4v4h-4zM236 212h4v4h-4z"/><path fill="#CD3832" d="M240 212h4v4h-4zM244 212h4v4h-4z"/><path fill="#EE875A" d="M248 212h4v4h-4z"/><path fill="#C0AF95" d="M252 212h4v4h-4zM256 212h4v4h-4zM260 212h4v4h-4z"/><path fill="#771E16" d="M264 212h4v4h-4zM268 212h4v4h-4z"/><path fill="#EE875A" d="M272 212h4v4h-4zM276 212h4v4h-4z"/><path fill="#771E16" d="M280 212h4v4h-4zM84 216h4v4h-4z"/><path fill="#A2261E" d="M88 216h4v4h-4zM92 216h4v4h-4z"/><path fill="#CD3832" d="M96 216h4v4h-4z"/><path fill="#771E16" d="M100 216h4v4h-4zM104 216h4v4h-4zM108 216h4v4h-4zM112 216h4v4h-4zM116 216h4v4h-4zM120 216h4v4h-4z"/><path fill="#CD3832" d="M124 216h4v4h-4z"/><path fill="#FEEAC5" d="M128 216h4v4h-4zM132 216h4v4h-4z"/><path fill="#C0AF95" d="M136 216h4v4h-4z"/><path fill="#A2261E" d="M140 216h4v4h-4z"/><path fill="#CD3832" d="M144 216h4v4h-4zM148 216h4v4h-4zM152 216h4v4h-4z"/><path fill="#771E16" d="M156 216h4v4h-4zM160 216h4v4h-4zM164 216h4v4h-4zM168 216h4v4h-4zM172 216h4v4h-4zM176 216h4v4h-4zM180 216h4v4h-4zM184 216h4v4h-4zM188 216h4v4h-4z"/><path fill="#BD5D48" d="M192 216h4v4h-4zM196 216h4v4h-4z"/><path fill="#CD3832" d="M200 216h4v4h-4zM204 216h4v4h-4zM208 216h4v4h-4z"/><path fill="#F7AE9F" d="M212 216h4v4h-4z"/><path fill="#962F28" d="M216 216h4v4h-4z"/><path fill="#771E16" d="M220 216h4v4h-4zM224 216h4v4h-4zM228 216h4v4h-4zM232 216h4v4h-4zM236 216h4v4h-4z"/><path fill="#CD3832" d="M240 216h4v4h-4zM244 216h4v4h-4z"/><path fill="#EE875A" d="M248 216h4v4h-4z"/><path fill="#C0AF95" d="M252 216h4v4h-4z"/><path fill="#771E16" d="M256 216h4v4h-4zM260 216h4v4h-4zM264 216h4v4h-4zM268 216h4v4h-4z"/><path fill="#EE875A" d="M272 216h4v4h-4z"/><path fill="#816D66" d="M276 216h4v4h-4z"/><path fill="#771E16" d="M280 216h4v4h-4zM88 220h4v4h-4z"/><path fill="#A2261E" d="M92 220h4v4h-4z"/><path fill="#CD3832" d="M96 220h4v4h-4zM100 220h4v4h-4z"/><path fill="#771E16" d="M104 220h4v4h-4zM108 220h4v4h-4zM112 220h4v4h-4zM116 220h4v4h-4zM120 220h4v4h-4z"/><path fill="#CD3832" d="M124 220h4v4h-4z"/><path fill="#FEEAC5" d="M128 220h4v4h-4zM132 220h4v4h-4zM136 220h4v4h-4z"/><path fill="#C0AF95" d="M140 220h4v4h-4z"/><path fill="#A2261E" d="M144 220h4v4h-4z"/><path fill="#CD3832" d="M148 220h4v4h-4zM152 220h4v4h-4z"/><path fill="#771E16" d="M156 220h4v4h-4zM160 220h4v4h-4zM164 220h4v4h-4zM168 220h4v4h-4zM172 220h4v4h-4zM176 220h4v4h-4zM180 220h4v4h-4zM184 220h4v4h-4zM188 220h4v4h-4z"/><path fill="#CD3832" d="M192 220h4v4h-4z"/><path fill="#C85845" d="M196 220h4v4h-4zM200 220h4v4h-4z"/><path fill="#CD3832" d="M204 220h4v4h-4zM208 220h4v4h-4z"/><path fill="#FEEAC5" d="M212 220h4v4h-4z"/><path fill="#816D66" d="M216 220h4v4h-4z"/><path fill="#771E16" d="M220 220h4v4h-4zM224 220h4v4h-4zM228 220h4v4h-4zM232 220h4v4h-4zM236 220h4v4h-4z"/><path fill="#FEEAC5" d="M240 220h4v4h-4z"/><path fill="#EE875A" d="M244 220h4v4h-4z"/><path fill="#771E16" d="M248 220h4v4h-4zM252 220h4v4h-4zM256 220h4v4h-4zM260 220h4v4h-4zM264 220h4v4h-4zM268 220h4v4h-4z"/><path fill="#320E12" d="M272 220h4v4h-4z"/><path fill="#771E16" d="M276 220h4v4h-4zM280 220h4v4h-4zM64 224h4v4h-4zM68 224h4v4h-4zM80 224h4v4h-4zM84 224h4v4h-4z"/><path fill="#A93F3A" d="M88 224h4v4h-4z"/><path fill="#A2261E" d="M92 224h4v4h-4zM96 224h4v4h-4z"/><path fill="#CD3832" d="M100 224h4v4h-4z"/><path fill="#771E16" d="M104 224h4v4h-4zM108 224h4v4h-4zM112 224h4v4h-4zM116 224h4v4h-4zM120 224h4v4h-4z"/><path fill="#CD3832" d="M124 224h4v4h-4z"/><path fill="#FEEAC5" d="M128 224h4v4h-4zM132 224h4v4h-4zM136 224h4v4h-4z"/><path fill="#C0AF95" d="M140 224h4v4h-4z"/><path fill="#A2261E" d="M144 224h4v4h-4z"/><path fill="#CD3832" d="M148 224h4v4h-4zM152 224h4v4h-4z"/><path fill="#771E16" d="M156 224h4v4h-4zM160 224h4v4h-4zM164 224h4v4h-4zM168 224h4v4h-4zM172 224h4v4h-4zM176 224h4v4h-4zM180 224h4v4h-4zM184 224h4v4h-4zM188 224h4v4h-4zM192 224h4v4h-4z"/><path fill="#CD3832" d="M196 224h4v4h-4z"/><path fill="#C45542" d="M200 224h4v4h-4z"/><path fill="#C65D4D" d="M204 224h4v4h-4z"/><path fill="#CD3832" d="M208 224h4v4h-4zM212 224h4v4h-4z"/><path fill="#A13B2D" d="M216 224h4v4h-4z"/><path fill="#771E16" d="M220 224h4v4h-4zM224 224h4v4h-4zM228 224h4v4h-4zM232 224h4v4h-4zM236 224h4v4h-4z"/><path fill="#C0AF95" d="M240 224h4v4h-4z"/><path fill="#EE875A" d="M244 224h4v4h-4z"/><path fill="#771E16" d="M248 224h4v4h-4zM252 224h4v4h-4zM256 224h4v4h-4zM260 224h4v4h-4zM264 224h4v4h-4zM268 224h4v4h-4z"/><path fill="#25110D" d="M272 224h4v4h-4z"/><path fill="#771E16" d="M276 224h4v4h-4zM64 228h4v4h-4z"/><path fill="#B8504F" d="M68 228h4v4h-4z"/><path fill="#771E16" d="M72 228h4v4h-4zM76 228h4v4h-4z"/><path fill="#943A39" d="M80 228h4v4h-4z"/><path fill="#8B3534" d="M84 228h4v4h-4z"/><path fill="#771E16" d="M88 228h4v4h-4z"/><path fill="#A2261E" d="M92 228h4v4h-4zM96 228h4v4h-4z"/><path fill="#CD3832" d="M100 228h4v4h-4z"/><path fill="#771E16" d="M104 228h4v4h-4zM108 228h4v4h-4zM112 228h4v4h-4zM116 228h4v4h-4zM120 228h4v4h-4zM124 228h4v4h-4z"/><path fill="#CD3832" d="M128 228h4v4h-4z"/><path fill="#FEEAC5" d="M132 228h4v4h-4zM136 228h4v4h-4z"/><path fill="#C0AF95" d="M140 228h4v4h-4z"/><path fill="#A2261E" d="M144 228h4v4h-4z"/><path fill="#CD3832" d="M148 228h4v4h-4zM152 228h4v4h-4zM156 228h4v4h-4z"/><path fill="#771E16" d="M160 228h4v4h-4zM164 228h4v4h-4zM168 228h4v4h-4zM172 228h4v4h-4zM176 228h4v4h-4zM180 228h4v4h-4zM184 228h4v4h-4zM188 228h4v4h-4zM192 228h4v4h-4z"/><path fill="#CD3832" d="M196 228h4v4h-4z"/><path fill="#BB5C48" d="M200 228h4v4h-4z"/><path fill="#C85E50" d="M204 228h4v4h-4z"/><path fill="#CD3832" d="M208 228h4v4h-4zM212 228h4v4h-4z"/><path fill="#C0AF95" d="M216 228h4v4h-4z"/><path fill="#771E16" d="M220 228h4v4h-4zM224 228h4v4h-4zM228 228h4v4h-4zM232 228h4v4h-4zM236 228h4v4h-4zM240 228h4v4h-4zM244 228h4v4h-4zM248 228h4v4h-4zM252 228h4v4h-4zM256 228h4v4h-4zM260 228h4v4h-4z"/><path fill="#CD3832" d="M264 228h4v4h-4zM268 228h4v4h-4zM272 228h4v4h-4z"/><path fill="#771E16" d="M276 228h4v4h-4zM64 232h4v4h-4z"/><path fill="#B8504F" d="M68 232h4v4h-4z"/><path fill="#913B31" d="M72 232h4v4h-4z"/><path fill="#943A2F" d="M76 232h4v4h-4z"/><path fill="#771E16" d="M80 232h4v4h-4z"/><path fill="#894343" d="M84 232h4v4h-4z"/><path fill="#914A46" d="M88 232h4v4h-4z"/><path fill="#9F4947" d="M92 232h4v4h-4z"/><path fill="#A2261E" d="M96 232h4v4h-4z"/><path fill="#CD3832" d="M100 232h4v4h-4zM104 232h4v4h-4z"/><path fill="#771E16" d="M108 232h4v4h-4zM112 232h4v4h-4zM116 232h4v4h-4zM120 232h4v4h-4zM124 232h4v4h-4z"/><path fill="#CD3832" d="M128 232h4v4h-4z"/><path fill="#FEEAC5" d="M132 232h4v4h-4z"/><path fill="#CD3832" d="M136 232h4v4h-4zM140 232h4v4h-4zM144 232h4v4h-4z"/><path fill="#A2261E" d="M148 232h4v4h-4z"/><path fill="#CD3832" d="M152 232h4v4h-4zM156 232h4v4h-4z"/><path fill="#771E16" d="M160 232h4v4h-4zM164 232h4v4h-4zM168 232h4v4h-4zM172 232h4v4h-4zM176 232h4v4h-4zM180 232h4v4h-4zM184 232h4v4h-4zM188 232h4v4h-4zM192 232h4v4h-4z"/><path fill="#EE875A" d="M196 232h4v4h-4zM200 232h4v4h-4z"/><path fill="#C0AF95" d="M204 232h4v4h-4z"/><path fill="#CD3832" d="M208 232h4v4h-4zM212 232h4v4h-4zM216 232h4v4h-4z"/><path fill="#771E16" d="M220 232h4v4h-4zM224 232h4v4h-4zM228 232h4v4h-4zM232 232h4v4h-4zM236 232h4v4h-4zM240 232h4v4h-4zM244 232h4v4h-4zM248 232h4v4h-4zM252 232h4v4h-4zM256 232h4v4h-4zM260 232h4v4h-4z"/><path fill="#CD3832" d="M264 232h4v4h-4zM268 232h4v4h-4zM272 232h4v4h-4z"/><path fill="#771E16" d="M276 232h4v4h-4zM64 236h4v4h-4z"/><path fill="#B8504F" d="M68 236h4v4h-4z"/><path fill="#CD3832" d="M72 236h4v4h-4z"/><path fill="#57302F" d="M76 236h4v4h-4z"/><path fill="#47372E" d="M80 236h4v4h-4z"/><path fill="#4E2A31" d="M84 236h4v4h-4z"/><path fill="#5C2E33" d="M88 236h4v4h-4z"/><path fill="#771E16" d="M92 236h4v4h-4z"/><path fill="#A2261E" d="M96 236h4v4h-4zM100 236h4v4h-4z"/><path fill="#CD3832" d="M104 236h4v4h-4z"/><path fill="#771E16" d="M108 236h4v4h-4zM112 236h4v4h-4zM116 236h4v4h-4zM120 236h4v4h-4zM124 236h4v4h-4z"/><path fill="#CD3832" d="M128 236h4v4h-4zM132 236h4v4h-4zM136 236h4v4h-4zM140 236h4v4h-4zM144 236h4v4h-4z"/><path fill="#A2261E" d="M148 236h4v4h-4z"/><path fill="#CD3832" d="M152 236h4v4h-4zM156 236h4v4h-4zM160 236h4v4h-4z"/><path fill="#771E16" d="M164 236h4v4h-4zM168 236h4v4h-4zM172 236h4v4h-4zM176 236h4v4h-4z"/><path fill="#EE875A" d="M180 236h4v4h-4zM184 236h4v4h-4zM188 236h4v4h-4zM192 236h4v4h-4zM196 236h4v4h-4zM200 236h4v4h-4zM204 236h4v4h-4zM208 236h4v4h-4z"/><path fill="#CD3832" d="M212 236h4v4h-4zM216 236h4v4h-4zM220 236h4v4h-4z"/><path fill="#771E16" d="M224 236h4v4h-4zM228 236h4v4h-4zM232 236h4v4h-4z"/><path fill="#0D080B" d="M236 236h4v4h-4z"/><path fill="#0E0909" d="M240 236h4v4h-4z"/><path fill="#973331" d="M244 236h4v4h-4z"/><path fill="#CD3832" d="M248 236h4v4h-4z"/><path fill="#771E16" d="M252 236h4v4h-4zM256 236h4v4h-4z"/><path fill="#CD3832" d="M260 236h4v4h-4zM264 236h4v4h-4zM268 236h4v4h-4zM272 236h4v4h-4z"/><path fill="#771E16" d="M276 236h4v4h-4zM68 240h4v4h-4z"/><path fill="#CD3832" d="M72 240h4v4h-4z"/><path fill="#512C26" d="M76 240h4v4h-4z"/><path fill="#47372E" d="M80 240h4v4h-4z"/><path fill="#C0AF95" d="M84 240h4v4h-4zM88 240h4v4h-4zM92 240h4v4h-4z"/><path fill="#A2261E" d="M96 240h4v4h-4zM100 240h4v4h-4z"/><path fill="#CD3832" d="M104 240h4v4h-4zM108 240h4v4h-4z"/><path fill="#771E16" d="M112 240h4v4h-4zM116 240h4v4h-4z"/><path fill="#CD3832" d="M120 240h4v4h-4zM124 240h4v4h-4zM128 240h4v4h-4zM132 240h4v4h-4zM136 240h4v4h-4z"/><path fill="#FEEAC5" d="M140 240h4v4h-4zM144 240h4v4h-4zM148 240h4v4h-4z"/><path fill="#A2261E" d="M152 240h4v4h-4z"/><path fill="#CD3832" d="M156 240h4v4h-4zM160 240h4v4h-4zM164 240h4v4h-4z"/><path fill="#AD654D" d="M168 240h4v4h-4z"/><path fill="#AA664C" d="M172 240h4v4h-4z"/><path fill="#EE875A" d="M176 240h4v4h-4zM180 240h4v4h-4zM184 240h4v4h-4zM188 240h4v4h-4zM192 240h4v4h-4zM196 240h4v4h-4zM200 240h4v4h-4zM204 240h4v4h-4z"/><path fill="#B2392E" d="M208 240h4v4h-4z"/><path fill="#B0372E" d="M212 240h4v4h-4z"/><path fill="#CD3832" d="M216 240h4v4h-4zM220 240h4v4h-4zM224 240h4v4h-4z"/><path fill="#A03D35" d="M228 240h4v4h-4z"/><path fill="#1C0904" d="M232 240h4v4h-4z"/><path fill="#0D080B" d="M236 240h4v4h-4z"/><path fill="#0D0809" d="M240 240h4v4h-4z"/><path fill="#B13B35" d="M244 240h4v4h-4z"/><path fill="#CD3832" d="M248 240h4v4h-4z"/><path fill="#771E16" d="M252 240h4v4h-4zM256 240h4v4h-4zM260 240h4v4h-4zM264 240h4v4h-4z"/><path fill="#CD3832" d="M268 240h4v4h-4zM272 240h4v4h-4z"/><path fill="#771E16" d="M276 240h4v4h-4zM68 244h4v4h-4z"/><path fill="#C0AF95" d="M72 244h4v4h-4z"/><path fill="#CD3832" d="M76 244h4v4h-4z"/><path fill="#C0AF95" d="M80 244h4v4h-4zM84 244h4v4h-4zM88 244h4v4h-4zM92 244h4v4h-4zM96 244h4v4h-4z"/><path fill="#A2261E" d="M100 244h4v4h-4zM104 244h4v4h-4z"/><path fill="#CD3832" d="M108 244h4v4h-4zM112 244h4v4h-4zM116 244h4v4h-4zM120 244h4v4h-4z"/><path fill="#FEEAC5" d="M124 244h4v4h-4z"/><path fill="#B65948" d="M128 244h4v4h-4z"/><path fill="#AF362D" d="M132 244h4v4h-4z"/><path fill="#FEEAC5" d="M136 244h4v4h-4zM140 244h4v4h-4zM144 244h4v4h-4zM148 244h4v4h-4z"/><path fill="#A2261E" d="M152 244h4v4h-4z"/><path fill="#CD3832" d="M156 244h4v4h-4zM160 244h4v4h-4zM164 244h4v4h-4z"/><path fill="#BD593F" d="M168 244h4v4h-4z"/><path fill="#9E5739" d="M172 244h4v4h-4z"/><path fill="#EE875A" d="M176 244h4v4h-4zM180 244h4v4h-4zM184 244h4v4h-4zM188 244h4v4h-4zM192 244h4v4h-4zM196 244h4v4h-4z"/><path fill="#CD3832" d="M200 244h4v4h-4zM204 244h4v4h-4z"/><path fill="#B2392E" d="M208 244h4v4h-4z"/><path fill="#CD3832" d="M212 244h4v4h-4zM216 244h4v4h-4zM220 244h4v4h-4zM224 244h4v4h-4zM228 244h4v4h-4zM232 244h4v4h-4z"/><path fill="#250200" d="M236 244h4v4h-4z"/><path fill="#070708" d="M240 244h4v4h-4z"/><path fill="#0D0709" d="M244 244h4v4h-4z"/><path fill="#CD3832" d="M248 244h4v4h-4zM252 244h4v4h-4z"/><path fill="#520B08" d="M256 244h4v4h-4z"/><path fill="#771E16" d="M268 244h4v4h-4z"/><path fill="#CD3832" d="M272 244h4v4h-4z"/><path fill="#771E16" d="M276 244h4v4h-4zM68 248h4v4h-4z"/><path fill="#C0AF95" d="M72 248h4v4h-4z"/><path fill="#CD3832" d="M76 248h4v4h-4zM80 248h4v4h-4z"/><path fill="#C0AF95" d="M84 248h4v4h-4zM88 248h4v4h-4zM92 248h4v4h-4zM96 248h4v4h-4z"/><path fill="#A2261E" d="M100 248h4v4h-4zM104 248h4v4h-4z"/><path fill="#CD3832" d="M108 248h4v4h-4zM112 248h4v4h-4z"/><path fill="#AC473B" d="M116 248h4v4h-4z"/><path fill="#AA3E31" d="M120 248h4v4h-4z"/><path fill="#FEEAC5" d="M124 248h4v4h-4z"/><path fill="#C0AF95" d="M128 248h4v4h-4z"/><path fill="#CD3832" d="M132 248h4v4h-4z"/><path fill="#FEEAC5" d="M136 248h4v4h-4z"/><path fill="#EE875A" d="M140 248h4v4h-4zM144 248h4v4h-4z"/><path fill="#C0AF95" d="M148 248h4v4h-4zM152 248h4v4h-4z"/><path fill="#EE875A" d="M156 248h4v4h-4z"/><path fill="#CD3832" d="M160 248h4v4h-4zM164 248h4v4h-4z"/><path fill="#EE875A" d="M168 248h4v4h-4z"/><path fill="#975734" d="M172 248h4v4h-4z"/><path fill="#EE875A" d="M176 248h4v4h-4zM180 248h4v4h-4zM184 248h4v4h-4zM188 248h4v4h-4zM192 248h4v4h-4z"/><path fill="#CD3832" d="M196 248h4v4h-4zM200 248h4v4h-4zM204 248h4v4h-4zM208 248h4v4h-4z"/><path fill="#771E16" d="M212 248h4v4h-4zM216 248h4v4h-4zM220 248h4v4h-4z"/><path fill="#CD3832" d="M224 248h4v4h-4zM228 248h4v4h-4zM232 248h4v4h-4z"/><path fill="#250100" d="M236 248h4v4h-4z"/><path fill="#090708" d="M240 248h4v4h-4z"/><path fill="#0D0508" d="M244 248h4v4h-4z"/><path fill="#CD3832" d="M248 248h4v4h-4zM252 248h4v4h-4z"/><path fill="#771E16" d="M256 248h4v4h-4zM272 248h4v4h-4zM276 248h4v4h-4zM68 252h4v4h-4z"/><path fill="#C0AF95" d="M72 252h4v4h-4z"/><path fill="#CD3832" d="M76 252h4v4h-4zM80 252h4v4h-4zM84 252h4v4h-4zM88 252h4v4h-4zM92 252h4v4h-4zM96 252h4v4h-4z"/><path fill="#A2261E" d="M100 252h4v4h-4z"/><path fill="#771E16" d="M104 252h4v4h-4z"/><path fill="#CD3832" d="M108 252h4v4h-4z"/><path fill="#FEEAC5" d="M112 252h4v4h-4zM116 252h4v4h-4z"/><path fill="#AA392B" d="M120 252h4v4h-4z"/><path fill="#FEEAC5" d="M124 252h4v4h-4z"/><path fill="#CD3832" d="M128 252h4v4h-4zM132 252h4v4h-4zM136 252h4v4h-4z"/><path fill="#FEEAC5" d="M140 252h4v4h-4zM144 252h4v4h-4zM148 252h4v4h-4z"/><path fill="#C0AF95" d="M152 252h4v4h-4zM156 252h4v4h-4z"/><path fill="#EE875A" d="M160 252h4v4h-4z"/><path fill="#D75D46" d="M164 252h4v4h-4z"/><path fill="#CD3832" d="M168 252h4v4h-4zM172 252h4v4h-4z"/><path fill="#824832" d="M176 252h4v4h-4z"/><path fill="#EE875A" d="M180 252h4v4h-4z"/><path fill="#CD3832" d="M184 252h4v4h-4zM188 252h4v4h-4zM192 252h4v4h-4z"/><path fill="#771E16" d="M196 252h4v4h-4zM200 252h4v4h-4zM204 252h4v4h-4zM208 252h4v4h-4zM212 252h4v4h-4zM216 252h4v4h-4zM220 252h4v4h-4z"/><path fill="#CD3832" d="M224 252h4v4h-4zM228 252h4v4h-4zM232 252h4v4h-4z"/><path fill="#260000" d="M236 252h4v4h-4z"/><path fill="#0B060A" d="M240 252h4v4h-4z"/><path fill="#2B262A" d="M244 252h4v4h-4z"/><path fill="#CD3832" d="M248 252h4v4h-4z"/><path fill="#771E16" d="M252 252h4v4h-4zM256 252h4v4h-4zM68 256h4v4h-4z"/><path fill="#C0AF95" d="M72 256h4v4h-4z"/><path fill="#CD3832" d="M76 256h4v4h-4zM80 256h4v4h-4zM84 256h4v4h-4z"/><path fill="#EE875A" d="M88 256h4v4h-4zM92 256h4v4h-4z"/><path fill="#C0AF95" d="M96 256h4v4h-4z"/><path fill="#E4AEA4" d="M100 256h4v4h-4z"/><path fill="#EE875A" d="M104 256h4v4h-4z"/><path fill="#CD3832" d="M108 256h4v4h-4zM112 256h4v4h-4zM116 256h4v4h-4zM120 256h4v4h-4zM124 256h4v4h-4z"/><path fill="#C0AF95" d="M128 256h4v4h-4zM132 256h4v4h-4zM136 256h4v4h-4z"/><path fill="#FEEAC5" d="M140 256h4v4h-4zM144 256h4v4h-4zM148 256h4v4h-4zM152 256h4v4h-4z"/><path fill="#EE875A" d="M156 256h4v4h-4zM160 256h4v4h-4zM164 256h4v4h-4z"/><path fill="#CD3832" d="M168 256h4v4h-4zM172 256h4v4h-4z"/><path fill="#771E16" d="M176 256h4v4h-4zM180 256h4v4h-4z"/><path fill="#CD3832" d="M184 256h4v4h-4zM188 256h4v4h-4z"/><path fill="#771E16" d="M192 256h4v4h-4zM196 256h4v4h-4zM200 256h4v4h-4z"/><path fill="#CD3832" d="M204 256h4v4h-4zM208 256h4v4h-4zM212 256h4v4h-4zM216 256h4v4h-4zM220 256h4v4h-4zM224 256h4v4h-4zM228 256h4v4h-4zM232 256h4v4h-4zM236 256h4v4h-4z"/><path fill="#280200" d="M240 256h4v4h-4z"/><path fill="#0B070A" d="M244 256h4v4h-4z"/><path fill="#771E16" d="M248 256h4v4h-4zM72 260h4v4h-4z"/><path fill="#C0AF95" d="M76 260h4v4h-4z"/><path fill="#CD3832" d="M80 260h4v4h-4zM84 260h4v4h-4z"/><path fill="#C0AF95" d="M88 260h4v4h-4zM92 260h4v4h-4zM96 260h4v4h-4z"/><path fill="#CD3832" d="M100 260h4v4h-4zM104 260h4v4h-4zM108 260h4v4h-4z"/><path fill="#C0AF95" d="M112 260h4v4h-4zM116 260h4v4h-4zM120 260h4v4h-4z"/><path fill="#AC3E2D" d="M124 260h4v4h-4z"/><path fill="#C0AF95" d="M128 260h4v4h-4zM132 260h4v4h-4zM136 260h4v4h-4z"/><path fill="#EE875A" d="M140 260h4v4h-4z"/><path fill="#C0AF95" d="M144 260h4v4h-4zM148 260h4v4h-4zM152 260h4v4h-4z"/><path fill="#771E16" d="M156 260h4v4h-4z"/><path fill="#CD3832" d="M160 260h4v4h-4zM164 260h4v4h-4zM168 260h4v4h-4zM172 260h4v4h-4zM176 260h4v4h-4z"/><path fill="#771E16" d="M180 260h4v4h-4zM184 260h4v4h-4z"/><path fill="#9A2221" d="M188 260h4v4h-4z"/><path fill="#771E16" d="M192 260h4v4h-4z"/><path fill="#CD3832" d="M196 260h4v4h-4zM200 260h4v4h-4zM204 260h4v4h-4zM208 260h4v4h-4z"/><path fill="#771E16" d="M212 260h4v4h-4zM216 260h4v4h-4zM220 260h4v4h-4zM224 260h4v4h-4z"/><path fill="#CD3832" d="M228 260h4v4h-4zM232 260h4v4h-4zM236 260h4v4h-4z"/><path fill="#280502" d="M240 260h4v4h-4z"/><path fill="#0D0B0C" d="M244 260h4v4h-4z"/><path fill="#771E16" d="M248 260h4v4h-4zM72 264h4v4h-4z"/><path fill="#C0AF95" d="M76 264h4v4h-4z"/><path fill="#CD3832" d="M80 264h4v4h-4zM84 264h4v4h-4z"/><path fill="#A43732" d="M88 264h4v4h-4z"/><path fill="#A83B3B" d="M92 264h4v4h-4z"/><path fill="#CD3832" d="M96 264h4v4h-4z"/><path fill="#FEEAC5" d="M100 264h4v4h-4z"/><path fill="#EE875A" d="M104 264h4v4h-4z"/><path fill="#C0AF95" d="M108 264h4v4h-4zM112 264h4v4h-4zM116 264h4v4h-4zM120 264h4v4h-4z"/><path fill="#EE875A" d="M124 264h4v4h-4zM128 264h4v4h-4zM132 264h4v4h-4zM136 264h4v4h-4z"/><path fill="#771E16" d="M140 264h4v4h-4zM144 264h4v4h-4zM148 264h4v4h-4zM152 264h4v4h-4zM156 264h4v4h-4zM160 264h4v4h-4z"/><path fill="#CD3832" d="M164 264h4v4h-4zM168 264h4v4h-4zM172 264h4v4h-4zM176 264h4v4h-4zM180 264h4v4h-4z"/><path fill="#771E16" d="M184 264h4v4h-4zM188 264h4v4h-4z"/><path fill="#CD3832" d="M192 264h4v4h-4zM196 264h4v4h-4z"/><path fill="#771E16" d="M200 264h4v4h-4zM204 264h4v4h-4zM208 264h4v4h-4z"/><path fill="#CD3832" d="M212 264h4v4h-4zM216 264h4v4h-4zM220 264h4v4h-4z"/><path fill="#771E16" d="M224 264h4v4h-4zM228 264h4v4h-4z"/><path fill="#CD3832" d="M232 264h4v4h-4zM236 264h4v4h-4z"/><path fill="#3B0100" d="M240 264h4v4h-4z"/><path fill="#0F090D" d="M244 264h4v4h-4z"/><path fill="#771E16" d="M72 268h4v4h-4z"/><path fill="#C0AF95" d="M76 268h4v4h-4z"/><path fill="#CD3832" d="M80 268h4v4h-4zM84 268h4v4h-4z"/><path fill="#FEEAC5" d="M88 268h4v4h-4zM92 268h4v4h-4zM96 268h4v4h-4zM100 268h4v4h-4zM104 268h4v4h-4z"/><path fill="#C0AF95" d="M108 268h4v4h-4z"/><path fill="#EE875A" d="M112 268h4v4h-4zM116 268h4v4h-4zM120 268h4v4h-4zM124 268h4v4h-4z"/><path fill="#771E16" d="M128 268h4v4h-4zM132 268h4v4h-4zM136 268h4v4h-4zM140 268h4v4h-4zM144 268h4v4h-4z"/><path fill="#CD3832" d="M148 268h4v4h-4zM152 268h4v4h-4z"/><path fill="#873939" d="M156 268h4v4h-4z"/><path fill="#883B35" d="M160 268h4v4h-4z"/><path fill="#771E16" d="M164 268h4v4h-4zM168 268h4v4h-4z"/><path fill="#CD3832" d="M172 268h4v4h-4zM176 268h4v4h-4zM180 268h4v4h-4z"/><path fill="#771E16" d="M184 268h4v4h-4zM188 268h4v4h-4z"/><path fill="#A5302C" d="M192 268h4v4h-4z"/><path fill="#771E16" d="M196 268h4v4h-4z"/><path fill="#CD3832" d="M200 268h4v4h-4zM204 268h4v4h-4zM208 268h4v4h-4zM212 268h4v4h-4zM216 268h4v4h-4z"/><path fill="#771E16" d="M220 268h4v4h-4zM224 268h4v4h-4zM228 268h4v4h-4zM232 268h4v4h-4zM236 268h4v4h-4z"/><path fill="#CD3832" d="M240 268h4v4h-4zM244 268h4v4h-4z"/><path fill="#771E16" d="M76 272h4v4h-4z"/><path fill="#C0AF95" d="M80 272h4v4h-4z"/><path fill="#CD3832" d="M84 272h4v4h-4z"/><path fill="#AE3A30" d="M88 272h4v4h-4z"/><path fill="#C0AF95" d="M92 272h4v4h-4z"/><path fill="#FEEAC5" d="M96 272h4v4h-4z"/><path fill="#C0AF95" d="M100 272h4v4h-4z"/><path fill="#EE875A" d="M104 272h4v4h-4zM108 272h4v4h-4zM112 272h4v4h-4z"/><path fill="#91402B" d="M116 272h4v4h-4z"/><path fill="#771E16" d="M120 272h4v4h-4zM124 272h4v4h-4zM128 272h4v4h-4z"/><path fill="#0C0201" d="M132 272h4v4h-4z"/><path fill="#0A0205" d="M136 272h4v4h-4z"/><path fill="#080203" d="M140 272h4v4h-4z"/><path fill="#771E16" d="M144 272h4v4h-4z"/><path fill="#CD3832" d="M148 272h4v4h-4zM152 272h4v4h-4z"/><path fill="#8C3C39" d="M156 272h4v4h-4z"/><path fill="#A84A48" d="M160 272h4v4h-4z"/><path fill="#CD3832" d="M164 272h4v4h-4zM168 272h4v4h-4zM172 272h4v4h-4zM176 272h4v4h-4zM180 272h4v4h-4z"/><path fill="#771E16" d="M184 272h4v4h-4zM188 272h4v4h-4zM192 272h4v4h-4z"/><path fill="#CD3832" d="M196 272h4v4h-4zM200 272h4v4h-4zM204 272h4v4h-4zM208 272h4v4h-4z"/><path fill="#771E16" d="M212 272h4v4h-4zM216 272h4v4h-4zM220 272h4v4h-4z"/><path fill="#A82823" d="M224 272h4v4h-4z"/><path fill="#CD3832" d="M228 272h4v4h-4zM232 272h4v4h-4zM236 272h4v4h-4zM240 272h4v4h-4zM244 272h4v4h-4z"/><path fill="#771E16" d="M76 276h4v4h-4z"/><path fill="#C0AF95" d="M80 276h4v4h-4z"/><path fill="#771E16" d="M84 276h4v4h-4z"/><path fill="#C0AF95" d="M88 276h4v4h-4zM92 276h4v4h-4zM96 276h4v4h-4zM100 276h4v4h-4z"/><path fill="#EE875A" d="M104 276h4v4h-4z"/><path fill="#B26048" d="M108 276h4v4h-4z"/><path fill="#97452D" d="M112 276h4v4h-4z"/><path fill="#260000" d="M116 276h4v4h-4z"/><path fill="#AD3934" d="M120 276h4v4h-4z"/><path fill="#CD3832" d="M124 276h4v4h-4z"/><path fill="#A73D3F" d="M128 276h4v4h-4z"/><path fill="#0A0301" d="M132 276h4v4h-4z"/><path fill="#070105" d="M136 276h4v4h-4z"/><path fill="#030102" d="M140 276h4v4h-4z"/><path fill="#771E16" d="M144 276h4v4h-4zM148 276h4v4h-4z"/><path fill="#CD3832" d="M152 276h4v4h-4zM156 276h4v4h-4z"/><path fill="#771E16" d="M160 276h4v4h-4z"/><path fill="#AA4644" d="M164 276h4v4h-4z"/><path fill="#CD3832" d="M168 276h4v4h-4z"/><path fill="#771E16" d="M172 276h4v4h-4z"/><path fill="#CD3832" d="M176 276h4v4h-4zM180 276h4v4h-4zM184 276h4v4h-4z"/><path fill="#771E16" d="M188 276h4v4h-4zM192 276h4v4h-4zM196 276h4v4h-4zM200 276h4v4h-4zM204 276h4v4h-4zM208 276h4v4h-4z"/><path fill="#CD3832" d="M212 276h4v4h-4zM216 276h4v4h-4zM220 276h4v4h-4zM224 276h4v4h-4zM228 276h4v4h-4zM232 276h4v4h-4zM236 276h4v4h-4zM240 276h4v4h-4z"/><path fill="#771E16" d="M244 276h4v4h-4zM76 280h4v4h-4z"/><path fill="#C0AF95" d="M80 280h4v4h-4zM84 280h4v4h-4z"/><path fill="#771E16" d="M88 280h4v4h-4z"/><path fill="#C0AF95" d="M92 280h4v4h-4zM96 280h4v4h-4z"/><path fill="#220605" d="M100 280h4v4h-4zM104 280h4v4h-4z"/><path fill="#1E0200" d="M108 280h4v4h-4z"/><path fill="#1A0406" d="M112 280h4v4h-4z"/><path fill="#0A0607" d="M116 280h4v4h-4z"/><path fill="#260001" d="M120 280h4v4h-4z"/><path fill="#CD3832" d="M124 280h4v4h-4zM128 280h4v4h-4z"/><path fill="#AE4642" d="M132 280h4v4h-4z"/><path fill="#0C0403" d="M136 280h4v4h-4z"/><path fill="#060305" d="M140 280h4v4h-4z"/><path fill="#060506" d="M144 280h4v4h-4z"/><path fill="#771E16" d="M148 280h4v4h-4z"/><path fill="#CD3832" d="M152 280h4v4h-4zM156 280h4v4h-4z"/><path fill="#883733" d="M160 280h4v4h-4z"/><path fill="#AB4745" d="M164 280h4v4h-4z"/><path fill="#CD3832" d="M168 280h4v4h-4zM172 280h4v4h-4zM176 280h4v4h-4zM180 280h4v4h-4zM184 280h4v4h-4z"/><path fill="#771E16" d="M188 280h4v4h-4z"/><path fill="#A83330" d="M192 280h4v4h-4z"/><path fill="#771E16" d="M196 280h4v4h-4z"/><path fill="#CD3832" d="M200 280h4v4h-4zM204 280h4v4h-4zM208 280h4v4h-4zM212 280h4v4h-4zM216 280h4v4h-4zM220 280h4v4h-4zM224 280h4v4h-4z"/><path fill="#771E16" d="M228 280h4v4h-4zM232 280h4v4h-4zM236 280h4v4h-4zM240 280h4v4h-4zM80 284h4v4h-4zM84 284h4v4h-4zM92 284h4v4h-4zM96 284h4v4h-4zM100 284h4v4h-4z"/><path fill="#261512" d="M104 284h4v4h-4z"/><path fill="#20201B" d="M108 284h4v4h-4z"/><path fill="#0E0709" d="M112 284h4v4h-4z"/><path fill="#0A0707" d="M116 284h4v4h-4z"/><path fill="#280000" d="M120 284h4v4h-4z"/><path fill="#CD3832" d="M124 284h4v4h-4zM128 284h4v4h-4zM132 284h4v4h-4z"/><path fill="#0F0504" d="M136 284h4v4h-4z"/><path fill="#050406" d="M140 284h4v4h-4z"/><path fill="#771E16" d="M144 284h4v4h-4zM148 284h4v4h-4zM152 284h4v4h-4z"/><path fill="#CD3832" d="M156 284h4v4h-4z"/><path fill="#771E16" d="M160 284h4v4h-4zM164 284h4v4h-4z"/><path fill="#CD3832" d="M168 284h4v4h-4zM172 284h4v4h-4zM176 284h4v4h-4zM180 284h4v4h-4zM184 284h4v4h-4z"/><path fill="#771E16" d="M188 284h4v4h-4z"/><path fill="#CD3832" d="M192 284h4v4h-4zM196 284h4v4h-4zM200 284h4v4h-4zM204 284h4v4h-4zM208 284h4v4h-4zM212 284h4v4h-4zM216 284h4v4h-4zM220 284h4v4h-4z"/><path fill="#771E16" d="M224 284h4v4h-4zM92 288h4v4h-4z"/><path fill="#CD3832" d="M96 288h4v4h-4zM100 288h4v4h-4z"/><path fill="#220508" d="M104 288h4v4h-4z"/><path fill="#10070C" d="M108 288h4v4h-4z"/><path fill="#1A1819" d="M112 288h4v4h-4z"/><path fill="#0D0506" d="M116 288h4v4h-4z"/><path fill="#250001" d="M120 288h4v4h-4z"/><path fill="#CD3832" d="M124 288h4v4h-4zM128 288h4v4h-4z"/><path fill="#B24139" d="M132 288h4v4h-4z"/><path fill="#1E1D1B" d="M136 288h4v4h-4z"/><path fill="#771E16" d="M140 288h4v4h-4zM156 288h4v4h-4zM168 288h4v4h-4zM172 288h4v4h-4z"/><path fill="#CD3832" d="M176 288h4v4h-4z"/><path fill="#771E16" d="M180 288h4v4h-4zM184 288h4v4h-4z"/><path fill="#CD3832" d="M188 288h4v4h-4zM192 288h4v4h-4zM196 288h4v4h-4zM200 288h4v4h-4zM204 288h4v4h-4z"/><path fill="#771E16" d="M208 288h4v4h-4zM212 288h4v4h-4zM216 288h4v4h-4zM220 288h4v4h-4zM92 292h4v4h-4z"/><path fill="#CD3832" d="M96 292h4v4h-4zM100 292h4v4h-4z"/><path fill="#1F1213" d="M104 292h4v4h-4zM108 292h4v4h-4z"/><path fill="#0B0A09" d="M112 292h4v4h-4z"/><path fill="#191718" d="M116 292h4v4h-4z"/><path fill="#771E16" d="M120 292h4v4h-4zM124 292h4v4h-4z"/><path fill="#CD3832" d="M128 292h4v4h-4zM132 292h4v4h-4zM136 292h4v4h-4z"/><path fill="#771E16" d="M140 292h4v4h-4zM156 292h4v4h-4zM176 292h4v4h-4z"/><path fill="#CD3832" d="M180 292h4v4h-4zM184 292h4v4h-4zM188 292h4v4h-4zM192 292h4v4h-4z"/><path fill="#771E16" d="M196 292h4v4h-4zM200 292h4v4h-4zM204 292h4v4h-4zM96 296h4v4h-4z"/><path fill="#CD3832" d="M100 296h4v4h-4zM104 296h4v4h-4z"/><path fill="#220405" d="M108 296h4v4h-4z"/><path fill="#322E2D" d="M112 296h4v4h-4z"/><path fill="#771E16" d="M116 296h4v4h-4zM128 296h4v4h-4zM132 296h4v4h-4zM136 296h4v4h-4zM176 296h4v4h-4zM180 296h4v4h-4zM184 296h4v4h-4zM188 296h4v4h-4zM192 296h4v4h-4zM96 300h4v4h-4z"/><path fill="#CD3832" d="M100 300h4v4h-4zM104 300h4v4h-4z"/><path fill="#210E0F" d="M108 300h4v4h-4z"/><path fill="#771E16" d="M112 300h4v4h-4zM96 304h4v4h-4z"/><path fill="#CD3832" d="M100 304h4v4h-4z"/><path fill="#771E16" d="M104 304h4v4h-4zM108 304h4v4h-4zM100 308h4v4h-4z"/></svg>