<svg width="384" height="384" xmlns="http://www.w3.org/2000/svg" shape-rendering="crispEdges"><path fill="#19343A" d="M148 36h4v4h-4zM152 36h4v4h-4zM144 40h4v4h-4z"/><path fill="#79B958" d="M148 40h4v4h-4zM152 40h4v4h-4z"/><path fill="#19343A" d="M156 40h4v4h-4zM160 40h4v4h-4zM164 40h4v4h-4zM168 40h4v4h-4zM172 40h4v4h-4zM124 44h4v4h-4zM128 44h4v4h-4zM132 44h4v4h-4zM136 44h4v4h-4zM140 44h4v4h-4zM144 44h4v4h-4z"/><path fill="#79B958" d="M148 44h4v4h-4zM152 44h4v4h-4zM156 44h4v4h-4zM160 44h4v4h-4zM164 44h4v4h-4zM168 44h4v4h-4zM172 44h4v4h-4z"/><path fill="#19343A" d="M176 44h4v4h-4zM108 48h4v4h-4zM112 48h4v4h-4zM116 48h4v4h-4zM120 48h4v4h-4z"/><path fill="#79B958" d="M124 48h4v4h-4zM128 48h4v4h-4zM132 48h4v4h-4zM136 48h4v4h-4zM140 48h4v4h-4zM144 48h4v4h-4zM148 48h4v4h-4zM152 48h4v4h-4zM156 48h4v4h-4zM160 48h4v4h-4z"/><path fill="#ABDC7F" d="M164 48h4v4h-4z"/><path fill="#79B958" d="M168 48h4v4h-4zM172 48h4v4h-4z"/><path fill="#19343A" d="M176 48h4v4h-4zM104 52h4v4h-4z"/><path fill="#48813A" d="M108 52h4v4h-4zM112 52h4v4h-4zM116 52h4v4h-4zM120 52h4v4h-4z"/><path fill="#79B958" d="M124 52h4v4h-4zM128 52h4v4h-4z"/><path fill="#ABDC7F" d="M132 52h4v4h-4zM136 52h4v4h-4zM140 52h4v4h-4z"/><path fill="#79B958" d="M144 52h4v4h-4zM148 52h4v4h-4zM152 52h4v4h-4zM156 52h4v4h-4z"/><path fill="#ABDC7F" d="M160 52h4v4h-4zM164 52h4v4h-4zM168 52h4v4h-4zM172 52h4v4h-4zM176 52h4v4h-4z"/><path fill="#19343A" d="M180 52h4v4h-4zM184 52h4v4h-4zM104 56h4v4h-4z"/><path fill="#48813A" d="M108 56h4v4h-4zM112 56h4v4h-4zM116 56h4v4h-4z"/><path fill="#79B958" d="M120 56h4v4h-4zM124 56h4v4h-4zM128 56h4v4h-4zM132 56h4v4h-4z"/><path fill="#ABDC7F" d="M136 56h4v4h-4zM140 56h4v4h-4z"/><path fill="#79B958" d="M144 56h4v4h-4zM148 56h4v4h-4zM152 56h4v4h-4zM156 56h4v4h-4z"/><path fill="#ABDC7F" d="M160 56h4v4h-4zM164 56h4v4h-4zM168 56h4v4h-4zM172 56h4v4h-4z"/><path fill="#79B958" d="M176 56h4v4h-4zM180 56h4v4h-4zM184 56h4v4h-4z"/><path fill="#19343A" d="M188 56h4v4h-4zM212 56h4v4h-4zM216 56h4v4h-4zM96 60h4v4h-4zM100 60h4v4h-4z"/><path fill="#48813A" d="M104 60h4v4h-4z"/><path fill="#79B958" d="M108 60h4v4h-4zM112 60h4v4h-4zM116 60h4v4h-4zM120 60h4v4h-4zM124 60h4v4h-4zM128 60h4v4h-4zM132 60h4v4h-4zM136 60h4v4h-4zM140 60h4v4h-4zM144 60h4v4h-4zM148 60h4v4h-4z"/><path fill="#ABDC7F" d="M152 60h4v4h-4zM156 60h4v4h-4z"/><path fill="#79B958" d="M160 60h4v4h-4zM164 60h4v4h-4z"/><path fill="#ABDC7F" d="M168 60h4v4h-4zM172 60h4v4h-4z"/><path fill="#79B958" d="M176 60h4v4h-4zM180 60h4v4h-4zM184 60h4v4h-4zM188 60h4v4h-4z"/><path fill="#19343A" d="M192 60h4v4h-4zM208 60h4v4h-4z"/><path fill="#79B958" d="M212 60h4v4h-4zM216 60h4v4h-4z"/><path fill="#19343A" d="M220 60h4v4h-4zM92 64h4v4h-4z"/><path fill="#48813A" d="M96 64h4v4h-4zM100 64h4v4h-4z"/><path fill="#79B958" d="M104 64h4v4h-4zM108 64h4v4h-4zM112 64h4v4h-4zM116 64h4v4h-4zM120 64h4v4h-4zM124 64h4v4h-4zM128 64h4v4h-4zM132 64h4v4h-4zM136 64h4v4h-4zM140 64h4v4h-4zM144 64h4v4h-4zM148 64h4v4h-4z"/><path fill="#ABDC7F" d="M152 64h4v4h-4zM156 64h4v4h-4z"/><path fill="#79B958" d="M160 64h4v4h-4zM164 64h4v4h-4zM168 64h4v4h-4zM172 64h4v4h-4z"/><path fill="#48813A" d="M176 64h4v4h-4z"/><path fill="#79B958" d="M180 64h4v4h-4zM184 64h4v4h-4z"/><path fill="#19343A" d="M188 64h4v4h-4zM192 64h4v4h-4zM200 64h4v4h-4zM204 64h4v4h-4z"/><path fill="#79B958" d="M208 64h4v4h-4zM212 64h4v4h-4zM216 64h4v4h-4zM220 64h4v4h-4z"/><path fill="#19343A" d="M224 64h4v4h-4zM228 64h4v4h-4zM232 64h4v4h-4zM88 68h4v4h-4z"/><path fill="#48813A" d="M92 68h4v4h-4z"/><path fill="#79B958" d="M96 68h4v4h-4z"/><path fill="#48813A" d="M100 68h4v4h-4zM104 68h4v4h-4zM108 68h4v4h-4zM112 68h4v4h-4z"/><path fill="#79B958" d="M116 68h4v4h-4zM120 68h4v4h-4zM124 68h4v4h-4zM128 68h4v4h-4zM132 68h4v4h-4zM136 68h4v4h-4zM140 68h4v4h-4zM144 68h4v4h-4zM148 68h4v4h-4zM152 68h4v4h-4z"/><path fill="#ABDC7F" d="M156 68h4v4h-4z"/><path fill="#79B958" d="M160 68h4v4h-4zM164 68h4v4h-4zM168 68h4v4h-4zM172 68h4v4h-4z"/><path fill="#48813A" d="M176 68h4v4h-4z"/><path fill="#79B958" d="M180 68h4v4h-4z"/><path fill="#19343A" d="M184 68h4v4h-4zM196 68h4v4h-4z"/><path fill="#48813A" d="M200 68h4v4h-4zM204 68h4v4h-4zM208 68h4v4h-4z"/><path fill="#79B958" d="M212 68h4v4h-4zM216 68h4v4h-4zM220 68h4v4h-4z"/><path fill="#ABDC7F" d="M224 68h4v4h-4zM228 68h4v4h-4z"/><path fill="#79B958" d="M232 68h4v4h-4z"/><path fill="#19343A" d="M236 68h4v4h-4zM240 68h4v4h-4zM244 68h4v4h-4zM84 72h4v4h-4z"/><path fill="#48813A" d="M88 72h4v4h-4z"/><path fill="#79B958" d="M92 72h4v4h-4zM96 72h4v4h-4z"/><path fill="#48813A" d="M100 72h4v4h-4zM104 72h4v4h-4zM108 72h4v4h-4z"/><path fill="#79B958" d="M112 72h4v4h-4zM116 72h4v4h-4zM120 72h4v4h-4zM124 72h4v4h-4zM128 72h4v4h-4zM132 72h4v4h-4zM136 72h4v4h-4zM140 72h4v4h-4zM144 72h4v4h-4zM148 72h4v4h-4zM152 72h4v4h-4zM156 72h4v4h-4zM160 72h4v4h-4zM164 72h4v4h-4z"/><path fill="#48813A" d="M168 72h4v4h-4zM172 72h4v4h-4z"/><path fill="#79B958" d="M176 72h4v4h-4z"/><path fill="#48813A" d="M180 72h4v4h-4zM184 72h4v4h-4z"/><path fill="#19343A" d="M188 72h4v4h-4zM192 72h4v4h-4z"/><path fill="#48813A" d="M196 72h4v4h-4zM200 72h4v4h-4z"/><path fill="#79B958" d="M204 72h4v4h-4zM208 72h4v4h-4zM212 72h4v4h-4zM216 72h4v4h-4z"/><path fill="#ABDC7F" d="M220 72h4v4h-4zM224 72h4v4h-4zM228 72h4v4h-4z"/><path fill="#79B958" d="M232 72h4v4h-4z"/><path fill="#ABDC7F" d="M236 72h4v4h-4zM240 72h4v4h-4z"/><path fill="#19343A" d="M244 72h4v4h-4zM248 72h4v4h-4zM252 72h4v4h-4zM80 76h4v4h-4z"/><path fill="#48813A" d="M84 76h4v4h-4zM88 76h4v4h-4zM92 76h4v4h-4zM96 76h4v4h-4z"/><path fill="#79B958" d="M100 76h4v4h-4zM104 76h4v4h-4zM108 76h4v4h-4zM112 76h4v4h-4zM116 76h4v4h-4z"/><path fill="#48813A" d="M120 76h4v4h-4z"/><path fill="#79B958" d="M124 76h4v4h-4zM128 76h4v4h-4zM132 76h4v4h-4zM136 76h4v4h-4zM140 76h4v4h-4zM144 76h4v4h-4zM148 76h4v4h-4zM152 76h4v4h-4zM156 76h4v4h-4zM160 76h4v4h-4z"/><path fill="#48813A" d="M164 76h4v4h-4zM168 76h4v4h-4z"/><path fill="#79B958" d="M172 76h4v4h-4z"/><path fill="#48813A" d="M176 76h4v4h-4zM180 76h4v4h-4zM184 76h4v4h-4zM188 76h4v4h-4zM192 76h4v4h-4zM196 76h4v4h-4z"/><path fill="#79B958" d="M200 76h4v4h-4zM204 76h4v4h-4zM208 76h4v4h-4zM212 76h4v4h-4zM216 76h4v4h-4z"/><path fill="#ABDC7F" d="M220 76h4v4h-4zM224 76h4v4h-4zM228 76h4v4h-4z"/><path fill="#79B958" d="M232 76h4v4h-4z"/><path fill="#ABDC7F" d="M236 76h4v4h-4z"/><path fill="#79B958" d="M240 76h4v4h-4zM244 76h4v4h-4zM248 76h4v4h-4zM252 76h4v4h-4z"/><path fill="#19343A" d="M256 76h4v4h-4zM80 80h4v4h-4z"/><path fill="#48813A" d="M84 80h4v4h-4zM88 80h4v4h-4zM92 80h4v4h-4zM96 80h4v4h-4zM100 80h4v4h-4z"/><path fill="#79B958" d="M104 80h4v4h-4zM108 80h4v4h-4zM112 80h4v4h-4z"/><path fill="#48813A" d="M116 80h4v4h-4zM120 80h4v4h-4z"/><path fill="#79B958" d="M124 80h4v4h-4zM128 80h4v4h-4zM132 80h4v4h-4z"/><path fill="#48813A" d="M136 80h4v4h-4z"/><path fill="#79B958" d="M140 80h4v4h-4zM144 80h4v4h-4z"/><path fill="#48813A" d="M148 80h4v4h-4z"/><path fill="#79B958" d="M152 80h4v4h-4zM156 80h4v4h-4zM160 80h4v4h-4zM164 80h4v4h-4zM168 80h4v4h-4zM172 80h4v4h-4z"/><path fill="#48813A" d="M176 80h4v4h-4zM180 80h4v4h-4z"/><path fill="#28624C" d="M184 80h4v4h-4zM188 80h4v4h-4z"/><path fill="#48813A" d="M192 80h4v4h-4zM196 80h4v4h-4zM200 80h4v4h-4zM204 80h4v4h-4z"/><path fill="#79B958" d="M208 80h4v4h-4zM212 80h4v4h-4zM216 80h4v4h-4zM220 80h4v4h-4zM224 80h4v4h-4zM228 80h4v4h-4zM232 80h4v4h-4zM236 80h4v4h-4zM240 80h4v4h-4zM244 80h4v4h-4zM248 80h4v4h-4zM252 80h4v4h-4z"/><path fill="#19343A" d="M256 80h4v4h-4zM80 84h4v4h-4z"/><path fill="#79B958" d="M84 84h4v4h-4zM88 84h4v4h-4z"/><path fill="#48813A" d="M92 84h4v4h-4zM96 84h4v4h-4zM100 84h4v4h-4zM104 84h4v4h-4zM108 84h4v4h-4zM112 84h4v4h-4zM116 84h4v4h-4z"/><path fill="#79B958" d="M120 84h4v4h-4zM124 84h4v4h-4zM128 84h4v4h-4z"/><path fill="#48813A" d="M132 84h4v4h-4zM136 84h4v4h-4z"/><path fill="#79B958" d="M140 84h4v4h-4zM144 84h4v4h-4z"/><path fill="#48813A" d="M148 84h4v4h-4zM152 84h4v4h-4z"/><path fill="#79B958" d="M156 84h4v4h-4zM160 84h4v4h-4zM164 84h4v4h-4zM168 84h4v4h-4zM172 84h4v4h-4zM176 84h4v4h-4z"/><path fill="#48813A" d="M180 84h4v4h-4z"/><path fill="#713D38" d="M184 84h4v4h-4zM188 84h4v4h-4z"/><path fill="#48813A" d="M192 84h4v4h-4zM196 84h4v4h-4z"/><path fill="#28624C" d="M200 84h4v4h-4z"/><path fill="#48813A" d="M204 84h4v4h-4zM208 84h4v4h-4z"/><path fill="#79B958" d="M212 84h4v4h-4zM216 84h4v4h-4zM220 84h4v4h-4zM224 84h4v4h-4zM228 84h4v4h-4zM232 84h4v4h-4zM236 84h4v4h-4zM240 84h4v4h-4zM244 84h4v4h-4zM248 84h4v4h-4zM252 84h4v4h-4z"/><path fill="#19343A" d="M256 84h4v4h-4zM84 88h4v4h-4z"/><path fill="#48813A" d="M88 88h4v4h-4zM92 88h4v4h-4zM96 88h4v4h-4z"/><path fill="#79B958" d="M100 88h4v4h-4zM104 88h4v4h-4z"/><path fill="#48813A" d="M108 88h4v4h-4zM112 88h4v4h-4z"/><path fill="#79B958" d="M116 88h4v4h-4z"/><path fill="#48813A" d="M120 88h4v4h-4zM124 88h4v4h-4zM128 88h4v4h-4zM132 88h4v4h-4zM136 88h4v4h-4zM140 88h4v4h-4zM144 88h4v4h-4zM148 88h4v4h-4z"/><path fill="#79B958" d="M152 88h4v4h-4z"/><path fill="#48813A" d="M156 88h4v4h-4zM160 88h4v4h-4zM164 88h4v4h-4z"/><path fill="#79B958" d="M168 88h4v4h-4zM172 88h4v4h-4zM176 88h4v4h-4z"/><path fill="#48813A" d="M180 88h4v4h-4z"/><path fill="#713D38" d="M184 88h4v4h-4zM188 88h4v4h-4z"/><path fill="#28624C" d="M192 88h4v4h-4zM196 88h4v4h-4z"/><path fill="#79B958" d="M200 88h4v4h-4zM204 88h4v4h-4zM208 88h4v4h-4z"/><path fill="#48813A" d="M212 88h4v4h-4z"/><path fill="#79B958" d="M216 88h4v4h-4zM220 88h4v4h-4zM224 88h4v4h-4zM228 88h4v4h-4zM232 88h4v4h-4zM236 88h4v4h-4zM240 88h4v4h-4z"/><path fill="#48813A" d="M244 88h4v4h-4zM248 88h4v4h-4zM252 88h4v4h-4z"/><path fill="#19343A" d="M256 88h4v4h-4zM260 88h4v4h-4zM80 92h4v4h-4z"/><path fill="#48813A" d="M84 92h4v4h-4zM88 92h4v4h-4z"/><path fill="#79B958" d="M92 92h4v4h-4zM96 92h4v4h-4zM100 92h4v4h-4zM104 92h4v4h-4z"/><path fill="#48813A" d="M108 92h4v4h-4zM112 92h4v4h-4zM116 92h4v4h-4zM120 92h4v4h-4zM124 92h4v4h-4zM128 92h4v4h-4zM132 92h4v4h-4zM136 92h4v4h-4zM140 92h4v4h-4zM144 92h4v4h-4z"/><path fill="#28624C" d="M148 92h4v4h-4z"/><path fill="#48813A" d="M152 92h4v4h-4zM156 92h4v4h-4zM160 92h4v4h-4zM164 92h4v4h-4zM168 92h4v4h-4zM172 92h4v4h-4zM176 92h4v4h-4z"/><path fill="#79B958" d="M180 92h4v4h-4z"/><path fill="#713D38" d="M184 92h4v4h-4zM188 92h4v4h-4zM192 92h4v4h-4zM196 92h4v4h-4zM200 92h4v4h-4z"/><path fill="#79B958" d="M204 92h4v4h-4zM208 92h4v4h-4zM212 92h4v4h-4z"/><path fill="#48813A" d="M216 92h4v4h-4zM220 92h4v4h-4zM224 92h4v4h-4z"/><path fill="#79B958" d="M228 92h4v4h-4zM232 92h4v4h-4zM236 92h4v4h-4zM240 92h4v4h-4zM244 92h4v4h-4zM248 92h4v4h-4z"/><path fill="#48813A" d="M252 92h4v4h-4z"/><path fill="#79B958" d="M256 92h4v4h-4zM260 92h4v4h-4z"/><path fill="#19343A" d="M264 92h4v4h-4zM268 92h4v4h-4zM56 96h4v4h-4zM60 96h4v4h-4zM64 96h4v4h-4zM68 96h4v4h-4zM72 96h4v4h-4zM76 96h4v4h-4z"/><path fill="#48813A" d="M80 96h4v4h-4zM84 96h4v4h-4zM88 96h4v4h-4z"/><path fill="#79B958" d="M92 96h4v4h-4zM96 96h4v4h-4z"/><path fill="#48813A" d="M100 96h4v4h-4zM104 96h4v4h-4z"/><path fill="#19343A" d="M108 96h4v4h-4zM112 96h4v4h-4zM116 96h4v4h-4z"/><path fill="#48813A" d="M120 96h4v4h-4zM124 96h4v4h-4z"/><path fill="#79B958" d="M128 96h4v4h-4zM132 96h4v4h-4z"/><path fill="#48813A" d="M136 96h4v4h-4zM140 96h4v4h-4z"/><path fill="#79B958" d="M144 96h4v4h-4zM148 96h4v4h-4z"/><path fill="#28624C" d="M152 96h4v4h-4zM156 96h4v4h-4z"/><path fill="#48813A" d="M160 96h4v4h-4zM164 96h4v4h-4zM168 96h4v4h-4zM172 96h4v4h-4zM176 96h4v4h-4z"/><path fill="#79B958" d="M180 96h4v4h-4z"/><path fill="#713D38" d="M184 96h4v4h-4zM188 96h4v4h-4zM192 96h4v4h-4zM196 96h4v4h-4zM200 96h4v4h-4z"/><path fill="#48813A" d="M204 96h4v4h-4z"/><path fill="#79B958" d="M208 96h4v4h-4zM212 96h4v4h-4z"/><path fill="#48813A" d="M216 96h4v4h-4zM220 96h4v4h-4z"/><path fill="#79B958" d="M224 96h4v4h-4zM228 96h4v4h-4z"/><path fill="#48813A" d="M232 96h4v4h-4zM236 96h4v4h-4z"/><path fill="#79B958" d="M240 96h4v4h-4zM244 96h4v4h-4zM248 96h4v4h-4zM252 96h4v4h-4zM256 96h4v4h-4zM260 96h4v4h-4zM264 96h4v4h-4z"/><path fill="#19343A" d="M268 96h4v4h-4zM52 100h4v4h-4z"/><path fill="#48813A" d="M56 100h4v4h-4zM60 100h4v4h-4zM64 100h4v4h-4zM68 100h4v4h-4zM72 100h4v4h-4zM76 100h4v4h-4zM80 100h4v4h-4zM84 100h4v4h-4zM88 100h4v4h-4zM92 100h4v4h-4zM96 100h4v4h-4zM100 100h4v4h-4z"/><path fill="#19343A" d="M104 100h4v4h-4z"/><path fill="#194435" d="M108 100h4v4h-4zM112 100h4v4h-4zM116 100h4v4h-4z"/><path fill="#19343A" d="M120 100h4v4h-4z"/><path fill="#79B958" d="M124 100h4v4h-4zM128 100h4v4h-4z"/><path fill="#48813A" d="M132 100h4v4h-4zM136 100h4v4h-4zM140 100h4v4h-4z"/><path fill="#79B958" d="M144 100h4v4h-4zM148 100h4v4h-4z"/><path fill="#48813A" d="M152 100h4v4h-4z"/><path fill="#28624C" d="M156 100h4v4h-4zM160 100h4v4h-4zM164 100h4v4h-4zM168 100h4v4h-4z"/><path fill="#48813A" d="M172 100h4v4h-4zM176 100h4v4h-4zM180 100h4v4h-4z"/><path fill="#713D38" d="M184 100h4v4h-4zM188 100h4v4h-4z"/><path fill="#48813A" d="M192 100h4v4h-4zM196 100h4v4h-4zM200 100h4v4h-4zM204 100h4v4h-4zM208 100h4v4h-4zM212 100h4v4h-4z"/><path fill="#79B958" d="M216 100h4v4h-4z"/><path fill="#48813A" d="M220 100h4v4h-4z"/><path fill="#79B958" d="M224 100h4v4h-4z"/><path fill="#48813A" d="M228 100h4v4h-4zM232 100h4v4h-4zM236 100h4v4h-4zM240 100h4v4h-4z"/><path fill="#79B958" d="M244 100h4v4h-4zM248 100h4v4h-4zM252 100h4v4h-4zM256 100h4v4h-4zM260 100h4v4h-4zM264 100h4v4h-4zM268 100h4v4h-4z"/><path fill="#19343A" d="M272 100h4v4h-4zM48 104h4v4h-4z"/><path fill="#48813A" d="M52 104h4v4h-4zM56 104h4v4h-4zM60 104h4v4h-4zM64 104h4v4h-4z"/><path fill="#28624C" d="M68 104h4v4h-4zM72 104h4v4h-4z"/><path fill="#79B958" d="M76 104h4v4h-4zM80 104h4v4h-4zM84 104h4v4h-4z"/><path fill="#48813A" d="M88 104h4v4h-4zM92 104h4v4h-4zM96 104h4v4h-4z"/><path fill="#19343A" d="M100 104h4v4h-4z"/><path fill="#194435" d="M104 104h4v4h-4zM108 104h4v4h-4zM112 104h4v4h-4zM116 104h4v4h-4z"/><path fill="#19343A" d="M120 104h4v4h-4z"/><path fill="#48813A" d="M124 104h4v4h-4zM128 104h4v4h-4zM132 104h4v4h-4z"/><path fill="#28624C" d="M136 104h4v4h-4z"/><path fill="#48813A" d="M140 104h4v4h-4zM144 104h4v4h-4zM148 104h4v4h-4zM152 104h4v4h-4z"/><path fill="#28624C" d="M156 104h4v4h-4zM160 104h4v4h-4zM164 104h4v4h-4zM168 104h4v4h-4zM172 104h4v4h-4zM176 104h4v4h-4z"/><path fill="#48813A" d="M180 104h4v4h-4zM184 104h4v4h-4zM188 104h4v4h-4zM192 104h4v4h-4zM196 104h4v4h-4z"/><path fill="#ABDC7F" d="M200 104h4v4h-4zM204 104h4v4h-4zM208 104h4v4h-4z"/><path fill="#48813A" d="M212 104h4v4h-4z"/><path fill="#79B958" d="M216 104h4v4h-4z"/><path fill="#48813A" d="M220 104h4v4h-4zM224 104h4v4h-4zM228 104h4v4h-4z"/><path fill="#28624C" d="M232 104h4v4h-4z"/><path fill="#79B958" d="M236 104h4v4h-4zM240 104h4v4h-4z"/><path fill="#48813A" d="M244 104h4v4h-4z"/><path fill="#79B958" d="M248 104h4v4h-4z"/><path fill="#48813A" d="M252 104h4v4h-4zM256 104h4v4h-4z"/><path fill="#79B958" d="M260 104h4v4h-4zM264 104h4v4h-4zM268 104h4v4h-4z"/><path fill="#19343A" d="M272 104h4v4h-4zM48 108h4v4h-4z"/><path fill="#48813A" d="M52 108h4v4h-4zM56 108h4v4h-4z"/><path fill="#28624C" d="M60 108h4v4h-4zM64 108h4v4h-4zM68 108h4v4h-4z"/><path fill="#48813A" d="M72 108h4v4h-4zM76 108h4v4h-4z"/><path fill="#79B958" d="M80 108h4v4h-4zM84 108h4v4h-4z"/><path fill="#48813A" d="M88 108h4v4h-4zM92 108h4v4h-4zM96 108h4v4h-4z"/><path fill="#ABDC7F" d="M100 108h4v4h-4z"/><path fill="#48813A" d="M104 108h4v4h-4zM108 108h4v4h-4z"/><path fill="#19343A" d="M112 108h4v4h-4z"/><path fill="#194435" d="M116 108h4v4h-4zM120 108h4v4h-4z"/><path fill="#19343A" d="M124 108h4v4h-4zM128 108h4v4h-4zM132 108h4v4h-4z"/><path fill="#28624C" d="M136 108h4v4h-4z"/><path fill="#48813A" d="M140 108h4v4h-4z"/><path fill="#28624C" d="M144 108h4v4h-4zM148 108h4v4h-4zM152 108h4v4h-4zM156 108h4v4h-4zM160 108h4v4h-4zM164 108h4v4h-4zM168 108h4v4h-4zM172 108h4v4h-4z"/><path fill="#48813A" d="M176 108h4v4h-4z"/><path fill="#79B958" d="M180 108h4v4h-4zM184 108h4v4h-4zM188 108h4v4h-4zM192 108h4v4h-4zM196 108h4v4h-4z"/><path fill="#ABDC7F" d="M200 108h4v4h-4zM204 108h4v4h-4zM208 108h4v4h-4z"/><path fill="#79B958" d="M212 108h4v4h-4zM216 108h4v4h-4z"/><path fill="#48813A" d="M220 108h4v4h-4z"/><path fill="#79B958" d="M224 108h4v4h-4zM228 108h4v4h-4z"/><path fill="#28624C" d="M232 108h4v4h-4z"/><path fill="#48813A" d="M236 108h4v4h-4z"/><path fill="#28624C" d="M240 108h4v4h-4z"/><path fill="#79B958" d="M244 108h4v4h-4zM248 108h4v4h-4z"/><path fill="#48813A" d="M252 108h4v4h-4zM256 108h4v4h-4zM260 108h4v4h-4z"/><path fill="#79B958" d="M264 108h4v4h-4z"/><path fill="#48813A" d="M268 108h4v4h-4z"/><path fill="#19343A" d="M272 108h4v4h-4zM52 112h4v4h-4z"/><path fill="#28624C" d="M56 112h4v4h-4z"/><path fill="#48813A" d="M60 112h4v4h-4z"/><path fill="#28624C" d="M64 112h4v4h-4z"/><path fill="#48813A" d="M68 112h4v4h-4zM72 112h4v4h-4zM76 112h4v4h-4zM80 112h4v4h-4zM84 112h4v4h-4z"/><path fill="#28624C" d="M88 112h4v4h-4z"/><path fill="#48813A" d="M92 112h4v4h-4z"/><path fill="#ABDC7F" d="M96 112h4v4h-4zM100 112h4v4h-4zM104 112h4v4h-4zM108 112h4v4h-4zM112 112h4v4h-4z"/><path fill="#48813A" d="M116 112h4v4h-4z"/><path fill="#19343A" d="M120 112h4v4h-4z"/><path fill="#194435" d="M124 112h4v4h-4zM128 112h4v4h-4zM132 112h4v4h-4z"/><path fill="#19343A" d="M136 112h4v4h-4z"/><path fill="#48813A" d="M140 112h4v4h-4z"/><path fill="#28624C" d="M144 112h4v4h-4zM148 112h4v4h-4zM152 112h4v4h-4zM156 112h4v4h-4z"/><path fill="#48813A" d="M160 112h4v4h-4zM164 112h4v4h-4z"/><path fill="#28624C" d="M168 112h4v4h-4z"/><path fill="#48813A" d="M172 112h4v4h-4z"/><path fill="#79B958" d="M176 112h4v4h-4zM180 112h4v4h-4zM184 112h4v4h-4z"/><path fill="#ABDC7F" d="M188 112h4v4h-4zM192 112h4v4h-4zM196 112h4v4h-4z"/><path fill="#79B958" d="M200 112h4v4h-4z"/><path fill="#ABDC7F" d="M204 112h4v4h-4zM208 112h4v4h-4z"/><path fill="#79B958" d="M212 112h4v4h-4zM216 112h4v4h-4zM220 112h4v4h-4z"/><path fill="#48813A" d="M224 112h4v4h-4z"/><path fill="#79B958" d="M228 112h4v4h-4z"/><path fill="#48813A" d="M232 112h4v4h-4z"/><path fill="#28624C" d="M236 112h4v4h-4zM240 112h4v4h-4z"/><path fill="#48813A" d="M244 112h4v4h-4zM248 112h4v4h-4z"/><path fill="#28624C" d="M252 112h4v4h-4zM256 112h4v4h-4z"/><path fill="#48813A" d="M260 112h4v4h-4zM264 112h4v4h-4z"/><path fill="#19343A" d="M268 112h4v4h-4zM44 116h4v4h-4zM48 116h4v4h-4z"/><path fill="#28624C" d="M52 116h4v4h-4z"/><path fill="#48813A" d="M56 116h4v4h-4zM60 116h4v4h-4z"/><path fill="#28624C" d="M64 116h4v4h-4zM68 116h4v4h-4z"/><path fill="#48813A" d="M72 116h4v4h-4z"/><path fill="#28624C" d="M76 116h4v4h-4z"/><path fill="#48813A" d="M80 116h4v4h-4zM84 116h4v4h-4z"/><path fill="#28624C" d="M88 116h4v4h-4z"/><path fill="#48813A" d="M92 116h4v4h-4z"/><path fill="#ABDC7F" d="M96 116h4v4h-4z"/><path fill="#48813A" d="M100 116h4v4h-4z"/><path fill="#ABDC7F" d="M104 116h4v4h-4zM108 116h4v4h-4zM112 116h4v4h-4zM116 116h4v4h-4z"/><path fill="#48813A" d="M120 116h4v4h-4z"/><path fill="#194435" d="M124 116h4v4h-4zM128 116h4v4h-4zM132 116h4v4h-4z"/><path fill="#19343A" d="M136 116h4v4h-4z"/><path fill="#28624C" d="M140 116h4v4h-4zM144 116h4v4h-4zM148 116h4v4h-4zM152 116h4v4h-4zM156 116h4v4h-4z"/><path fill="#48813A" d="M160 116h4v4h-4zM164 116h4v4h-4z"/><path fill="#28624C" d="M168 116h4v4h-4z"/><path fill="#48813A" d="M172 116h4v4h-4zM176 116h4v4h-4zM180 116h4v4h-4z"/><path fill="#79B958" d="M184 116h4v4h-4z"/><path fill="#ABDC7F" d="M188 116h4v4h-4zM192 116h4v4h-4zM196 116h4v4h-4z"/><path fill="#79B958" d="M200 116h4v4h-4zM204 116h4v4h-4z"/><path fill="#ABDC7F" d="M208 116h4v4h-4z"/><path fill="#79B958" d="M212 116h4v4h-4zM216 116h4v4h-4zM220 116h4v4h-4z"/><path fill="#28624C" d="M224 116h4v4h-4z"/><path fill="#48813A" d="M228 116h4v4h-4zM232 116h4v4h-4zM236 116h4v4h-4z"/><path fill="#28624C" d="M240 116h4v4h-4zM244 116h4v4h-4zM248 116h4v4h-4zM252 116h4v4h-4zM256 116h4v4h-4zM260 116h4v4h-4zM264 116h4v4h-4z"/><path fill="#19343A" d="M268 116h4v4h-4zM40 120h4v4h-4z"/><path fill="#48813A" d="M44 120h4v4h-4z"/><path fill="#28624C" d="M48 120h4v4h-4z"/><path fill="#48813A" d="M52 120h4v4h-4z"/><path fill="#79B958" d="M56 120h4v4h-4zM60 120h4v4h-4z"/><path fill="#48813A" d="M64 120h4v4h-4z"/><path fill="#28624C" d="M68 120h4v4h-4zM72 120h4v4h-4z"/><path fill="#48813A" d="M76 120h4v4h-4z"/><path fill="#28624C" d="M80 120h4v4h-4zM84 120h4v4h-4zM88 120h4v4h-4z"/><path fill="#194435" d="M92 120h4v4h-4z"/><path fill="#48813A" d="M96 120h4v4h-4zM100 120h4v4h-4zM104 120h4v4h-4z"/><path fill="#ABDC7F" d="M108 120h4v4h-4zM112 120h4v4h-4zM116 120h4v4h-4z"/><path fill="#48813A" d="M120 120h4v4h-4z"/><path fill="#19343A" d="M124 120h4v4h-4zM128 120h4v4h-4zM132 120h4v4h-4z"/><path fill="#194435" d="M136 120h4v4h-4z"/><path fill="#28624C" d="M140 120h4v4h-4zM144 120h4v4h-4zM148 120h4v4h-4zM152 120h4v4h-4z"/><path fill="#48813A" d="M156 120h4v4h-4z"/><path fill="#28624C" d="M160 120h4v4h-4zM164 120h4v4h-4z"/><path fill="#48813A" d="M168 120h4v4h-4zM172 120h4v4h-4zM176 120h4v4h-4z"/><path fill="#79B958" d="M180 120h4v4h-4zM184 120h4v4h-4zM188 120h4v4h-4zM192 120h4v4h-4zM196 120h4v4h-4zM200 120h4v4h-4zM204 120h4v4h-4zM208 120h4v4h-4zM212 120h4v4h-4zM216 120h4v4h-4z"/><path fill="#28624C" d="M220 120h4v4h-4zM224 120h4v4h-4zM228 120h4v4h-4z"/><path fill="#48813A" d="M232 120h4v4h-4z"/><path fill="#28624C" d="M236 120h4v4h-4zM240 120h4v4h-4zM244 120h4v4h-4zM248 120h4v4h-4zM252 120h4v4h-4zM256 120h4v4h-4zM260 120h4v4h-4zM264 120h4v4h-4zM268 120h4v4h-4z"/><path fill="#19343A" d="M272 120h4v4h-4zM40 124h4v4h-4z"/><path fill="#48813A" d="M44 124h4v4h-4zM48 124h4v4h-4z"/><path fill="#28624C" d="M52 124h4v4h-4z"/><path fill="#48813A" d="M56 124h4v4h-4zM60 124h4v4h-4z"/><path fill="#28624C" d="M64 124h4v4h-4zM68 124h4v4h-4z"/><path fill="#48813A" d="M72 124h4v4h-4zM76 124h4v4h-4z"/><path fill="#28624C" d="M80 124h4v4h-4zM84 124h4v4h-4zM88 124h4v4h-4zM92 124h4v4h-4zM96 124h4v4h-4z"/><path fill="#194435" d="M100 124h4v4h-4z"/><path fill="#48813A" d="M104 124h4v4h-4zM108 124h4v4h-4zM112 124h4v4h-4zM116 124h4v4h-4zM120 124h4v4h-4z"/><path fill="#194435" d="M124 124h4v4h-4zM128 124h4v4h-4zM132 124h4v4h-4z"/><path fill="#28624C" d="M136 124h4v4h-4zM140 124h4v4h-4zM144 124h4v4h-4zM148 124h4v4h-4zM152 124h4v4h-4zM156 124h4v4h-4zM160 124h4v4h-4z"/><path fill="#48813A" d="M164 124h4v4h-4zM168 124h4v4h-4zM172 124h4v4h-4zM176 124h4v4h-4zM180 124h4v4h-4z"/><path fill="#79B958" d="M184 124h4v4h-4zM188 124h4v4h-4z"/><path fill="#48813A" d="M192 124h4v4h-4z"/><path fill="#79B958" d="M196 124h4v4h-4zM200 124h4v4h-4z"/><path fill="#48813A" d="M204 124h4v4h-4z"/><path fill="#79B958" d="M208 124h4v4h-4z"/><path fill="#19343A" d="M212 124h4v4h-4z"/><path fill="#28624C" d="M216 124h4v4h-4zM220 124h4v4h-4zM224 124h4v4h-4zM228 124h4v4h-4zM232 124h4v4h-4zM236 124h4v4h-4zM240 124h4v4h-4zM244 124h4v4h-4zM248 124h4v4h-4zM252 124h4v4h-4zM256 124h4v4h-4zM260 124h4v4h-4zM264 124h4v4h-4zM268 124h4v4h-4z"/><path fill="#19343A" d="M272 124h4v4h-4zM40 128h4v4h-4z"/><path fill="#48813A" d="M44 128h4v4h-4zM48 128h4v4h-4z"/><path fill="#28624C" d="M52 128h4v4h-4zM56 128h4v4h-4zM60 128h4v4h-4zM64 128h4v4h-4zM68 128h4v4h-4zM72 128h4v4h-4zM76 128h4v4h-4z"/><path fill="#19343A" d="M80 128h4v4h-4zM84 128h4v4h-4z"/><path fill="#28624C" d="M88 128h4v4h-4z"/><path fill="#511D28" d="M92 128h4v4h-4zM96 128h4v4h-4z"/><path fill="#194435" d="M100 128h4v4h-4z"/><path fill="#511D28" d="M104 128h4v4h-4zM108 128h4v4h-4zM112 128h4v4h-4z"/><path fill="#28624C" d="M116 128h4v4h-4zM120 128h4v4h-4zM124 128h4v4h-4z"/><path fill="#194435" d="M128 128h4v4h-4zM132 128h4v4h-4z"/><path fill="#28624C" d="M136 128h4v4h-4zM140 128h4v4h-4zM144 128h4v4h-4zM148 128h4v4h-4zM152 128h4v4h-4zM156 128h4v4h-4zM160 128h4v4h-4zM164 128h4v4h-4zM168 128h4v4h-4z"/><path fill="#194435" d="M172 128h4v4h-4z"/><path fill="#28624C" d="M176 128h4v4h-4z"/><path fill="#48813A" d="M180 128h4v4h-4zM184 128h4v4h-4zM188 128h4v4h-4zM192 128h4v4h-4z"/><path fill="#79B958" d="M196 128h4v4h-4zM200 128h4v4h-4z"/><path fill="#48813A" d="M204 128h4v4h-4z"/><path fill="#19343A" d="M208 128h4v4h-4zM216 128h4v4h-4zM220 128h4v4h-4zM224 128h4v4h-4z"/><path fill="#28624C" d="M228 128h4v4h-4zM232 128h4v4h-4zM236 128h4v4h-4zM240 128h4v4h-4zM244 128h4v4h-4zM248 128h4v4h-4zM252 128h4v4h-4z"/><path fill="#19343A" d="M256 128h4v4h-4z"/><path fill="#28624C" d="M260 128h4v4h-4zM264 128h4v4h-4z"/><path fill="#19343A" d="M268 128h4v4h-4zM40 132h4v4h-4z"/><path fill="#28624C" d="M44 132h4v4h-4z"/><path fill="#48813A" d="M48 132h4v4h-4z"/><path fill="#28624C" d="M52 132h4v4h-4z"/><path fill="#48813A" d="M56 132h4v4h-4zM60 132h4v4h-4z"/><path fill="#28624C" d="M64 132h4v4h-4zM68 132h4v4h-4zM72 132h4v4h-4z"/><path fill="#19343A" d="M76 132h4v4h-4zM88 132h4v4h-4z"/><path fill="#511D28" d="M92 132h4v4h-4zM96 132h4v4h-4zM100 132h4v4h-4z"/><path fill="#194435" d="M104 132h4v4h-4z"/><path fill="#511D28" d="M108 132h4v4h-4zM112 132h4v4h-4z"/><path fill="#28624C" d="M116 132h4v4h-4zM120 132h4v4h-4zM124 132h4v4h-4z"/><path fill="#194435" d="M128 132h4v4h-4zM132 132h4v4h-4zM136 132h4v4h-4z"/><path fill="#48813A" d="M140 132h4v4h-4zM144 132h4v4h-4z"/><path fill="#28624C" d="M148 132h4v4h-4zM152 132h4v4h-4zM156 132h4v4h-4z"/><path fill="#48813A" d="M160 132h4v4h-4zM164 132h4v4h-4z"/><path fill="#194435" d="M168 132h4v4h-4z"/><path fill="#28624C" d="M172 132h4v4h-4zM176 132h4v4h-4zM180 132h4v4h-4zM184 132h4v4h-4z"/><path fill="#48813A" d="M188 132h4v4h-4zM192 132h4v4h-4zM196 132h4v4h-4zM200 132h4v4h-4z"/><path fill="#19343A" d="M204 132h4v4h-4zM208 132h4v4h-4zM224 132h4v4h-4z"/><path fill="#511D28" d="M228 132h4v4h-4z"/><path fill="#19343A" d="M232 132h4v4h-4zM236 132h4v4h-4z"/><path fill="#28624C" d="M240 132h4v4h-4zM244 132h4v4h-4zM248 132h4v4h-4z"/><path fill="#19343A" d="M252 132h4v4h-4zM260 132h4v4h-4zM264 132h4v4h-4zM44 136h4v4h-4z"/><path fill="#194435" d="M48 136h4v4h-4zM52 136h4v4h-4zM56 136h4v4h-4z"/><path fill="#28624C" d="M60 136h4v4h-4zM64 136h4v4h-4zM68 136h4v4h-4zM72 136h4v4h-4z"/><path fill="#194435" d="M76 136h4v4h-4z"/><path fill="#19343A" d="M80 136h4v4h-4zM84 136h4v4h-4z"/><path fill="#194435" d="M88 136h4v4h-4zM92 136h4v4h-4z"/><path fill="#511D28" d="M96 136h4v4h-4zM100 136h4v4h-4zM104 136h4v4h-4z"/><path fill="#28624C" d="M108 136h4v4h-4zM112 136h4v4h-4zM116 136h4v4h-4zM120 136h4v4h-4z"/><path fill="#79B958" d="M124 136h4v4h-4z"/><path fill="#48813A" d="M128 136h4v4h-4zM132 136h4v4h-4z"/><path fill="#79B958" d="M136 136h4v4h-4zM140 136h4v4h-4z"/><path fill="#48813A" d="M144 136h4v4h-4zM148 136h4v4h-4z"/><path fill="#28624C" d="M152 136h4v4h-4zM156 136h4v4h-4z"/><path fill="#48813A" d="M160 136h4v4h-4zM164 136h4v4h-4z"/><path fill="#194435" d="M168 136h4v4h-4z"/><path fill="#28624C" d="M172 136h4v4h-4zM176 136h4v4h-4zM180 136h4v4h-4zM184 136h4v4h-4z"/><path fill="#194435" d="M188 136h4v4h-4z"/><path fill="#48813A" d="M192 136h4v4h-4zM196 136h4v4h-4z"/><path fill="#19343A" d="M200 136h4v4h-4zM212 136h4v4h-4zM216 136h4v4h-4zM220 136h4v4h-4z"/><path fill="#511D28" d="M224 136h4v4h-4zM228 136h4v4h-4z"/><path fill="#19343A" d="M232 136h4v4h-4zM240 136h4v4h-4zM244 136h4v4h-4zM248 136h4v4h-4zM40 140h4v4h-4z"/><path fill="#194435" d="M44 140h4v4h-4zM48 140h4v4h-4zM52 140h4v4h-4z"/><path fill="#28624C" d="M56 140h4v4h-4zM60 140h4v4h-4zM64 140h4v4h-4zM68 140h4v4h-4z"/><path fill="#194435" d="M72 140h4v4h-4zM76 140h4v4h-4zM80 140h4v4h-4zM84 140h4v4h-4zM88 140h4v4h-4zM92 140h4v4h-4z"/><path fill="#79B958" d="M96 140h4v4h-4z"/><path fill="#511D28" d="M100 140h4v4h-4zM104 140h4v4h-4zM108 140h4v4h-4z"/><path fill="#28624C" d="M112 140h4v4h-4zM116 140h4v4h-4z"/><path fill="#79B958" d="M120 140h4v4h-4zM124 140h4v4h-4zM128 140h4v4h-4zM132 140h4v4h-4zM136 140h4v4h-4zM140 140h4v4h-4zM144 140h4v4h-4z"/><path fill="#48813A" d="M148 140h4v4h-4z"/><path fill="#28624C" d="M152 140h4v4h-4z"/><path fill="#511D28" d="M156 140h4v4h-4zM160 140h4v4h-4z"/><path fill="#194435" d="M164 140h4v4h-4zM168 140h4v4h-4zM172 140h4v4h-4z"/><path fill="#28624C" d="M176 140h4v4h-4zM180 140h4v4h-4z"/><path fill="#194435" d="M184 140h4v4h-4zM188 140h4v4h-4zM192 140h4v4h-4zM196 140h4v4h-4zM200 140h4v4h-4z"/><path fill="#19343A" d="M204 140h4v4h-4zM208 140h4v4h-4z"/><path fill="#511D28" d="M212 140h4v4h-4zM216 140h4v4h-4zM220 140h4v4h-4zM224 140h4v4h-4z"/><path fill="#19343A" d="M228 140h4v4h-4zM36 144h4v4h-4z"/><path fill="#194435" d="M40 144h4v4h-4zM44 144h4v4h-4zM48 144h4v4h-4zM52 144h4v4h-4zM56 144h4v4h-4z"/><path fill="#28624C" d="M60 144h4v4h-4zM64 144h4v4h-4zM68 144h4v4h-4z"/><path fill="#194435" d="M72 144h4v4h-4zM76 144h4v4h-4zM80 144h4v4h-4zM84 144h4v4h-4zM88 144h4v4h-4zM92 144h4v4h-4z"/><path fill="#79B958" d="M96 144h4v4h-4zM100 144h4v4h-4z"/><path fill="#511D28" d="M104 144h4v4h-4zM108 144h4v4h-4z"/><path fill="#28624C" d="M112 144h4v4h-4z"/><path fill="#79B958" d="M116 144h4v4h-4zM120 144h4v4h-4zM124 144h4v4h-4zM128 144h4v4h-4zM132 144h4v4h-4zM136 144h4v4h-4zM140 144h4v4h-4zM144 144h4v4h-4z"/><path fill="#48813A" d="M148 144h4v4h-4zM152 144h4v4h-4z"/><path fill="#511D28" d="M156 144h4v4h-4zM160 144h4v4h-4z"/><path fill="#19343A" d="M164 144h4v4h-4z"/><path fill="#194435" d="M168 144h4v4h-4zM172 144h4v4h-4zM176 144h4v4h-4zM180 144h4v4h-4zM184 144h4v4h-4zM188 144h4v4h-4z"/><path fill="#19343A" d="M192 144h4v4h-4zM196 144h4v4h-4zM200 144h4v4h-4zM204 144h4v4h-4zM208 144h4v4h-4zM212 144h4v4h-4zM216 144h4v4h-4zM220 144h4v4h-4zM224 144h4v4h-4zM36 148h4v4h-4z"/><path fill="#194435" d="M40 148h4v4h-4zM44 148h4v4h-4zM48 148h4v4h-4zM52 148h4v4h-4zM56 148h4v4h-4zM60 148h4v4h-4zM64 148h4v4h-4zM68 148h4v4h-4zM72 148h4v4h-4z"/><path fill="#28624C" d="M76 148h4v4h-4z"/><path fill="#48813A" d="M80 148h4v4h-4zM84 148h4v4h-4z"/><path fill="#194435" d="M88 148h4v4h-4z"/><path fill="#48813A" d="M92 148h4v4h-4zM96 148h4v4h-4z"/><path fill="#79B958" d="M100 148h4v4h-4zM104 148h4v4h-4zM108 148h4v4h-4z"/><path fill="#48813A" d="M112 148h4v4h-4zM116 148h4v4h-4z"/><path fill="#79B958" d="M120 148h4v4h-4z"/><path fill="#48813A" d="M124 148h4v4h-4zM128 148h4v4h-4z"/><path fill="#79B958" d="M132 148h4v4h-4zM136 148h4v4h-4zM140 148h4v4h-4z"/><path fill="#48813A" d="M144 148h4v4h-4zM148 148h4v4h-4zM152 148h4v4h-4z"/><path fill="#511D28" d="M156 148h4v4h-4zM160 148h4v4h-4z"/><path fill="#19343A" d="M164 148h4v4h-4zM168 148h4v4h-4zM172 148h4v4h-4zM176 148h4v4h-4zM180 148h4v4h-4z"/><path fill="#511D28" d="M184 148h4v4h-4zM188 148h4v4h-4z"/><path fill="#19343A" d="M192 148h4v4h-4zM200 148h4v4h-4z"/><path fill="#194435" d="M204 148h4v4h-4zM208 148h4v4h-4z"/><path fill="#19343A" d="M212 148h4v4h-4z"/><path fill="#48813A" d="M216 148h4v4h-4zM220 148h4v4h-4zM224 148h4v4h-4z"/><path fill="#19343A" d="M228 148h4v4h-4zM40 152h4v4h-4z"/><path fill="#194435" d="M44 152h4v4h-4zM48 152h4v4h-4zM52 152h4v4h-4zM56 152h4v4h-4zM60 152h4v4h-4zM64 152h4v4h-4zM68 152h4v4h-4zM72 152h4v4h-4z"/><path fill="#28624C" d="M76 152h4v4h-4z"/><path fill="#48813A" d="M80 152h4v4h-4zM84 152h4v4h-4z"/><path fill="#28624C" d="M88 152h4v4h-4z"/><path fill="#48813A" d="M92 152h4v4h-4zM96 152h4v4h-4z"/><path fill="#79B958" d="M100 152h4v4h-4zM104 152h4v4h-4z"/><path fill="#48813A" d="M108 152h4v4h-4zM112 152h4v4h-4zM116 152h4v4h-4zM120 152h4v4h-4zM124 152h4v4h-4zM128 152h4v4h-4zM132 152h4v4h-4zM136 152h4v4h-4zM140 152h4v4h-4z"/><path fill="#79B958" d="M144 152h4v4h-4zM148 152h4v4h-4z"/><path fill="#48813A" d="M152 152h4v4h-4z"/><path fill="#511D28" d="M156 152h4v4h-4zM160 152h4v4h-4z"/><path fill="#19343A" d="M164 152h4v4h-4zM180 152h4v4h-4z"/><path fill="#511D28" d="M184 152h4v4h-4z"/><path fill="#19343A" d="M188 152h4v4h-4zM196 152h4v4h-4z"/><path fill="#194435" d="M200 152h4v4h-4zM204 152h4v4h-4zM208 152h4v4h-4zM212 152h4v4h-4z"/><path fill="#48813A" d="M216 152h4v4h-4z"/><path fill="#79B958" d="M220 152h4v4h-4zM224 152h4v4h-4zM228 152h4v4h-4z"/><path fill="#19343A" d="M232 152h4v4h-4zM236 152h4v4h-4zM240 152h4v4h-4zM244 152h4v4h-4zM36 156h4v4h-4z"/><path fill="#194435" d="M40 156h4v4h-4zM44 156h4v4h-4zM48 156h4v4h-4zM52 156h4v4h-4z"/><path fill="#19343A" d="M56 156h4v4h-4zM60 156h4v4h-4z"/><path fill="#194435" d="M64 156h4v4h-4zM68 156h4v4h-4zM72 156h4v4h-4zM76 156h4v4h-4z"/><path fill="#48813A" d="M80 156h4v4h-4zM84 156h4v4h-4z"/><path fill="#28624C" d="M88 156h4v4h-4z"/><path fill="#48813A" d="M92 156h4v4h-4zM96 156h4v4h-4z"/><path fill="#28624C" d="M100 156h4v4h-4z"/><path fill="#48813A" d="M104 156h4v4h-4zM108 156h4v4h-4zM112 156h4v4h-4z"/><path fill="#79B958" d="M116 156h4v4h-4zM120 156h4v4h-4zM124 156h4v4h-4z"/><path fill="#48813A" d="M128 156h4v4h-4zM132 156h4v4h-4zM136 156h4v4h-4zM140 156h4v4h-4zM144 156h4v4h-4zM148 156h4v4h-4zM152 156h4v4h-4z"/><path fill="#511D28" d="M156 156h4v4h-4zM160 156h4v4h-4z"/><path fill="#19343A" d="M164 156h4v4h-4zM176 156h4v4h-4zM180 156h4v4h-4zM184 156h4v4h-4zM192 156h4v4h-4z"/><path fill="#194435" d="M196 156h4v4h-4zM200 156h4v4h-4zM204 156h4v4h-4zM208 156h4v4h-4z"/><path fill="#48813A" d="M212 156h4v4h-4z"/><path fill="#79B958" d="M216 156h4v4h-4zM220 156h4v4h-4zM224 156h4v4h-4z"/><path fill="#48813A" d="M228 156h4v4h-4zM232 156h4v4h-4zM236 156h4v4h-4zM240 156h4v4h-4zM244 156h4v4h-4z"/><path fill="#19343A" d="M248 156h4v4h-4zM252 156h4v4h-4zM28 160h4v4h-4zM32 160h4v4h-4z"/><path fill="#194435" d="M36 160h4v4h-4zM40 160h4v4h-4zM44 160h4v4h-4z"/><path fill="#19343A" d="M48 160h4v4h-4zM52 160h4v4h-4zM64 160h4v4h-4z"/><path fill="#194435" d="M68 160h4v4h-4zM72 160h4v4h-4zM76 160h4v4h-4zM80 160h4v4h-4z"/><path fill="#28624C" d="M84 160h4v4h-4zM88 160h4v4h-4zM92 160h4v4h-4zM96 160h4v4h-4z"/><path fill="#79B958" d="M100 160h4v4h-4zM104 160h4v4h-4z"/><path fill="#28624C" d="M108 160h4v4h-4z"/><path fill="#48813A" d="M112 160h4v4h-4z"/><path fill="#79B958" d="M116 160h4v4h-4zM120 160h4v4h-4z"/><path fill="#48813A" d="M124 160h4v4h-4zM128 160h4v4h-4zM132 160h4v4h-4zM136 160h4v4h-4z"/><path fill="#28624C" d="M140 160h4v4h-4z"/><path fill="#48813A" d="M144 160h4v4h-4zM148 160h4v4h-4z"/><path fill="#511D28" d="M152 160h4v4h-4zM156 160h4v4h-4zM160 160h4v4h-4z"/><path fill="#19343A" d="M164 160h4v4h-4zM172 160h4v4h-4z"/><path fill="#511D28" d="M176 160h4v4h-4z"/><path fill="#19343A" d="M180 160h4v4h-4zM192 160h4v4h-4z"/><path fill="#48813A" d="M196 160h4v4h-4zM200 160h4v4h-4zM204 160h4v4h-4zM208 160h4v4h-4z"/><path fill="#28624C" d="M212 160h4v4h-4zM216 160h4v4h-4zM220 160h4v4h-4z"/><path fill="#48813A" d="M224 160h4v4h-4zM228 160h4v4h-4zM232 160h4v4h-4z"/><path fill="#79B958" d="M236 160h4v4h-4zM240 160h4v4h-4zM244 160h4v4h-4zM248 160h4v4h-4z"/><path fill="#48813A" d="M252 160h4v4h-4z"/><path fill="#19343A" d="M256 160h4v4h-4zM260 160h4v4h-4zM24 164h4v4h-4z"/><path fill="#194435" d="M28 164h4v4h-4zM32 164h4v4h-4zM36 164h4v4h-4zM40 164h4v4h-4z"/><path fill="#19343A" d="M44 164h4v4h-4zM48 164h4v4h-4zM52 164h4v4h-4zM64 164h4v4h-4zM68 164h4v4h-4zM72 164h4v4h-4z"/><path fill="#194435" d="M76 164h4v4h-4z"/><path fill="#48813A" d="M80 164h4v4h-4zM84 164h4v4h-4z"/><path fill="#28624C" d="M88 164h4v4h-4zM92 164h4v4h-4zM96 164h4v4h-4z"/><path fill="#79B958" d="M100 164h4v4h-4zM104 164h4v4h-4z"/><path fill="#48813A" d="M108 164h4v4h-4z"/><path fill="#28624C" d="M112 164h4v4h-4zM116 164h4v4h-4z"/><path fill="#48813A" d="M120 164h4v4h-4zM124 164h4v4h-4zM128 164h4v4h-4z"/><path fill="#28624C" d="M132 164h4v4h-4zM136 164h4v4h-4zM140 164h4v4h-4z"/><path fill="#48813A" d="M144 164h4v4h-4z"/><path fill="#511D28" d="M148 164h4v4h-4zM152 164h4v4h-4zM156 164h4v4h-4z"/><path fill="#B8926A" d="M160 164h4v4h-4z"/><path fill="#19343A" d="M164 164h4v4h-4zM172 164h4v4h-4z"/><path fill="#511D28" d="M176 164h4v4h-4z"/><path fill="#19343A" d="M180 164h4v4h-4zM184 164h4v4h-4zM188 164h4v4h-4z"/><path fill="#48813A" d="M192 164h4v4h-4zM196 164h4v4h-4zM200 164h4v4h-4zM204 164h4v4h-4zM208 164h4v4h-4z"/><path fill="#28624C" d="M212 164h4v4h-4z"/><path fill="#48813A" d="M216 164h4v4h-4zM220 164h4v4h-4z"/><path fill="#79B958" d="M224 164h4v4h-4zM228 164h4v4h-4z"/><path fill="#48813A" d="M232 164h4v4h-4zM236 164h4v4h-4z"/><path fill="#79B958" d="M240 164h4v4h-4zM244 164h4v4h-4zM248 164h4v4h-4zM252 164h4v4h-4z"/><path fill="#48813A" d="M256 164h4v4h-4z"/><path fill="#19343A" d="M260 164h4v4h-4zM24 168h4v4h-4zM28 168h4v4h-4z"/><path fill="#194435" d="M32 168h4v4h-4z"/><path fill="#28624C" d="M36 168h4v4h-4z"/><path fill="#19343A" d="M40 168h4v4h-4z"/><path fill="#28624C" d="M44 168h4v4h-4zM48 168h4v4h-4z"/><path fill="#19343A" d="M52 168h4v4h-4zM60 168h4v4h-4z"/><path fill="#48813A" d="M64 168h4v4h-4zM68 168h4v4h-4zM72 168h4v4h-4z"/><path fill="#511D28" d="M76 168h4v4h-4zM80 168h4v4h-4zM84 168h4v4h-4zM88 168h4v4h-4z"/><path fill="#194435" d="M92 168h4v4h-4z"/><path fill="#28624C" d="M96 168h4v4h-4z"/><path fill="#48813A" d="M100 168h4v4h-4zM104 168h4v4h-4zM108 168h4v4h-4z"/><path fill="#28624C" d="M112 168h4v4h-4z"/><path fill="#48813A" d="M116 168h4v4h-4z"/><path fill="#28624C" d="M120 168h4v4h-4zM124 168h4v4h-4zM128 168h4v4h-4z"/><path fill="#48813A" d="M132 168h4v4h-4zM136 168h4v4h-4z"/><path fill="#28624C" d="M140 168h4v4h-4z"/><path fill="#511D28" d="M144 168h4v4h-4zM148 168h4v4h-4zM152 168h4v4h-4z"/><path fill="#B8926A" d="M156 168h4v4h-4zM160 168h4v4h-4z"/><path fill="#19343A" d="M164 168h4v4h-4zM168 168h4v4h-4z"/><path fill="#511D28" d="M172 168h4v4h-4z"/><path fill="#19343A" d="M176 168h4v4h-4zM180 168h4v4h-4z"/><path fill="#28624C" d="M184 168h4v4h-4z"/><path fill="#48813A" d="M188 168h4v4h-4zM192 168h4v4h-4zM196 168h4v4h-4zM200 168h4v4h-4zM204 168h4v4h-4zM208 168h4v4h-4z"/><path fill="#28624C" d="M212 168h4v4h-4z"/><path fill="#48813A" d="M216 168h4v4h-4z"/><path fill="#79B958" d="M220 168h4v4h-4zM224 168h4v4h-4zM228 168h4v4h-4z"/><path fill="#48813A" d="M232 168h4v4h-4zM236 168h4v4h-4zM240 168h4v4h-4z"/><path fill="#79B958" d="M244 168h4v4h-4zM248 168h4v4h-4zM252 168h4v4h-4z"/><path fill="#48813A" d="M256 168h4v4h-4z"/><path fill="#19343A" d="M260 168h4v4h-4zM32 172h4v4h-4z"/><path fill="#28624C" d="M36 172h4v4h-4z"/><path fill="#48813A" d="M40 172h4v4h-4zM44 172h4v4h-4z"/><path fill="#28624C" d="M48 172h4v4h-4zM52 172h4v4h-4z"/><path fill="#19343A" d="M56 172h4v4h-4z"/><path fill="#28624C" d="M60 172h4v4h-4z"/><path fill="#48813A" d="M64 172h4v4h-4zM68 172h4v4h-4zM72 172h4v4h-4z"/><path fill="#511D28" d="M76 172h4v4h-4zM80 172h4v4h-4zM84 172h4v4h-4zM88 172h4v4h-4zM92 172h4v4h-4z"/><path fill="#194435" d="M96 172h4v4h-4z"/><path fill="#19343A" d="M100 172h4v4h-4z"/><path fill="#194435" d="M104 172h4v4h-4zM108 172h4v4h-4zM112 172h4v4h-4z"/><path fill="#48813A" d="M116 172h4v4h-4z"/><path fill="#28624C" d="M120 172h4v4h-4zM124 172h4v4h-4zM128 172h4v4h-4z"/><path fill="#48813A" d="M132 172h4v4h-4z"/><path fill="#28624C" d="M136 172h4v4h-4zM140 172h4v4h-4z"/><path fill="#511D28" d="M144 172h4v4h-4zM148 172h4v4h-4zM152 172h4v4h-4z"/><path fill="#B8926A" d="M156 172h4v4h-4zM160 172h4v4h-4z"/><path fill="#A06A5C" d="M164 172h4v4h-4z"/><path fill="#511D28" d="M168 172h4v4h-4zM172 172h4v4h-4z"/><path fill="#19343A" d="M176 172h4v4h-4z"/><path fill="#28624C" d="M180 172h4v4h-4zM184 172h4v4h-4zM188 172h4v4h-4z"/><path fill="#48813A" d="M192 172h4v4h-4zM196 172h4v4h-4zM200 172h4v4h-4z"/><path fill="#28624C" d="M204 172h4v4h-4zM208 172h4v4h-4zM212 172h4v4h-4zM216 172h4v4h-4z"/><path fill="#48813A" d="M220 172h4v4h-4z"/><path fill="#79B958" d="M224 172h4v4h-4zM228 172h4v4h-4z"/><path fill="#48813A" d="M232 172h4v4h-4z"/><path fill="#28624C" d="M236 172h4v4h-4z"/><path fill="#48813A" d="M240 172h4v4h-4zM244 172h4v4h-4zM248 172h4v4h-4z"/><path fill="#79B958" d="M252 172h4v4h-4z"/><path fill="#48813A" d="M256 172h4v4h-4z"/><path fill="#19343A" d="M260 172h4v4h-4zM28 176h4v4h-4z"/><path fill="#28624C" d="M32 176h4v4h-4z"/><path fill="#48813A" d="M36 176h4v4h-4zM40 176h4v4h-4z"/><path fill="#28624C" d="M44 176h4v4h-4zM48 176h4v4h-4zM52 176h4v4h-4z"/><path fill="#19343A" d="M56 176h4v4h-4z"/><path fill="#28624C" d="M60 176h4v4h-4zM64 176h4v4h-4zM68 176h4v4h-4z"/><path fill="#79B958" d="M72 176h4v4h-4zM76 176h4v4h-4zM80 176h4v4h-4z"/><path fill="#48813A" d="M84 176h4v4h-4z"/><path fill="#511D28" d="M88 176h4v4h-4zM92 176h4v4h-4z"/><path fill="#19343A" d="M96 176h4v4h-4z"/><path fill="#713D38" d="M100 176h4v4h-4z"/><path fill="#19343A" d="M104 176h4v4h-4z"/><path fill="#194435" d="M108 176h4v4h-4zM112 176h4v4h-4zM116 176h4v4h-4z"/><path fill="#28624C" d="M120 176h4v4h-4zM124 176h4v4h-4zM128 176h4v4h-4z"/><path fill="#19343A" d="M132 176h4v4h-4zM136 176h4v4h-4zM140 176h4v4h-4zM144 176h4v4h-4z"/><path fill="#511D28" d="M148 176h4v4h-4z"/><path fill="#713D38" d="M152 176h4v4h-4z"/><path fill="#511D28" d="M156 176h4v4h-4z"/><path fill="#B8926A" d="M160 176h4v4h-4z"/><path fill="#A06A5C" d="M164 176h4v4h-4zM168 176h4v4h-4z"/><path fill="#19343A" d="M172 176h4v4h-4zM180 176h4v4h-4z"/><path fill="#28624C" d="M184 176h4v4h-4zM188 176h4v4h-4zM192 176h4v4h-4zM196 176h4v4h-4zM200 176h4v4h-4zM204 176h4v4h-4zM208 176h4v4h-4z"/><path fill="#48813A" d="M212 176h4v4h-4zM216 176h4v4h-4z"/><path fill="#28624C" d="M220 176h4v4h-4zM224 176h4v4h-4zM228 176h4v4h-4zM232 176h4v4h-4z"/><path fill="#48813A" d="M236 176h4v4h-4zM240 176h4v4h-4zM244 176h4v4h-4z"/><path fill="#194435" d="M248 176h4v4h-4zM252 176h4v4h-4z"/><path fill="#48813A" d="M256 176h4v4h-4z"/><path fill="#19343A" d="M260 176h4v4h-4zM28 180h4v4h-4z"/><path fill="#28624C" d="M32 180h4v4h-4z"/><path fill="#48813A" d="M36 180h4v4h-4zM40 180h4v4h-4zM44 180h4v4h-4z"/><path fill="#28624C" d="M48 180h4v4h-4zM52 180h4v4h-4zM56 180h4v4h-4zM60 180h4v4h-4z"/><path fill="#48813A" d="M64 180h4v4h-4z"/><path fill="#79B958" d="M68 180h4v4h-4zM72 180h4v4h-4zM76 180h4v4h-4z"/><path fill="#48813A" d="M80 180h4v4h-4zM84 180h4v4h-4z"/><path fill="#28624C" d="M88 180h4v4h-4zM92 180h4v4h-4z"/><path fill="#19343A" d="M96 180h4v4h-4z"/><path fill="#713D38" d="M100 180h4v4h-4zM104 180h4v4h-4z"/><path fill="#19343A" d="M108 180h4v4h-4z"/><path fill="#194435" d="M112 180h4v4h-4zM116 180h4v4h-4zM120 180h4v4h-4z"/><path fill="#19343A" d="M124 180h4v4h-4zM148 180h4v4h-4z"/><path fill="#713D38" d="M152 180h4v4h-4zM156 180h4v4h-4zM160 180h4v4h-4z"/><path fill="#A06A5C" d="M164 180h4v4h-4zM168 180h4v4h-4z"/><path fill="#19343A" d="M172 180h4v4h-4zM184 180h4v4h-4z"/><path fill="#28624C" d="M188 180h4v4h-4zM192 180h4v4h-4zM196 180h4v4h-4zM200 180h4v4h-4zM204 180h4v4h-4z"/><path fill="#19343A" d="M208 180h4v4h-4z"/><path fill="#48813A" d="M212 180h4v4h-4zM216 180h4v4h-4z"/><path fill="#28624C" d="M220 180h4v4h-4zM224 180h4v4h-4zM228 180h4v4h-4z"/><path fill="#48813A" d="M232 180h4v4h-4zM236 180h4v4h-4z"/><path fill="#28624C" d="M240 180h4v4h-4zM244 180h4v4h-4z"/><path fill="#19343A" d="M248 180h4v4h-4zM252 180h4v4h-4zM256 180h4v4h-4zM28 184h4v4h-4z"/><path fill="#28624C" d="M32 184h4v4h-4z"/><path fill="#48813A" d="M36 184h4v4h-4zM40 184h4v4h-4zM44 184h4v4h-4z"/><path fill="#28624C" d="M48 184h4v4h-4zM52 184h4v4h-4zM56 184h4v4h-4zM60 184h4v4h-4z"/><path fill="#48813A" d="M64 184h4v4h-4zM68 184h4v4h-4zM72 184h4v4h-4zM76 184h4v4h-4zM80 184h4v4h-4zM84 184h4v4h-4z"/><path fill="#194435" d="M88 184h4v4h-4zM92 184h4v4h-4zM96 184h4v4h-4z"/><path fill="#19343A" d="M100 184h4v4h-4zM104 184h4v4h-4z"/><path fill="#194435" d="M108 184h4v4h-4zM112 184h4v4h-4zM116 184h4v4h-4zM120 184h4v4h-4zM124 184h4v4h-4z"/><path fill="#19343A" d="M128 184h4v4h-4zM132 184h4v4h-4zM136 184h4v4h-4zM140 184h4v4h-4zM144 184h4v4h-4zM152 184h4v4h-4z"/><path fill="#713D38" d="M156 184h4v4h-4zM160 184h4v4h-4z"/><path fill="#B8926A" d="M164 184h4v4h-4z"/><path fill="#A06A5C" d="M168 184h4v4h-4zM172 184h4v4h-4z"/><path fill="#19343A" d="M176 184h4v4h-4zM188 184h4v4h-4z"/><path fill="#28624C" d="M192 184h4v4h-4zM196 184h4v4h-4zM200 184h4v4h-4z"/><path fill="#19343A" d="M204 184h4v4h-4zM212 184h4v4h-4z"/><path fill="#48813A" d="M216 184h4v4h-4z"/><path fill="#28624C" d="M220 184h4v4h-4z"/><path fill="#19343A" d="M224 184h4v4h-4z"/><path fill="#28624C" d="M228 184h4v4h-4zM232 184h4v4h-4z"/><path fill="#48813A" d="M236 184h4v4h-4z"/><path fill="#28624C" d="M240 184h4v4h-4zM244 184h4v4h-4z"/><path fill="#19343A" d="M248 184h4v4h-4zM28 188h4v4h-4z"/><path fill="#194435" d="M32 188h4v4h-4z"/><path fill="#48813A" d="M36 188h4v4h-4zM40 188h4v4h-4zM44 188h4v4h-4zM48 188h4v4h-4z"/><path fill="#28624C" d="M52 188h4v4h-4z"/><path fill="#194435" d="M56 188h4v4h-4z"/><path fill="#48813A" d="M60 188h4v4h-4zM64 188h4v4h-4zM68 188h4v4h-4zM72 188h4v4h-4zM76 188h4v4h-4zM80 188h4v4h-4z"/><path fill="#194435" d="M84 188h4v4h-4z"/><path fill="#28624C" d="M88 188h4v4h-4zM92 188h4v4h-4z"/><path fill="#194435" d="M96 188h4v4h-4zM100 188h4v4h-4zM104 188h4v4h-4zM108 188h4v4h-4zM112 188h4v4h-4zM116 188h4v4h-4z"/><path fill="#19343A" d="M120 188h4v4h-4zM124 188h4v4h-4zM128 188h4v4h-4z"/><path fill="#511D28" d="M132 188h4v4h-4zM136 188h4v4h-4zM140 188h4v4h-4zM144 188h4v4h-4z"/><path fill="#19343A" d="M148 188h4v4h-4zM152 188h4v4h-4zM156 188h4v4h-4z"/><path fill="#713D38" d="M160 188h4v4h-4zM164 188h4v4h-4zM168 188h4v4h-4z"/><path fill="#A06A5C" d="M172 188h4v4h-4zM176 188h4v4h-4z"/><path fill="#19343A" d="M180 188h4v4h-4zM192 188h4v4h-4zM196 188h4v4h-4zM200 188h4v4h-4zM212 188h4v4h-4z"/><path fill="#A06A5C" d="M216 188h4v4h-4z"/><path fill="#19343A" d="M220 188h4v4h-4zM228 188h4v4h-4z"/><path fill="#28624C" d="M232 188h4v4h-4zM236 188h4v4h-4zM240 188h4v4h-4z"/><path fill="#19343A" d="M244 188h4v4h-4zM248 188h4v4h-4zM28 192h4v4h-4z"/><path fill="#194435" d="M32 192h4v4h-4z"/><path fill="#28624C" d="M36 192h4v4h-4z"/><path fill="#48813A" d="M40 192h4v4h-4zM44 192h4v4h-4z"/><path fill="#28624C" d="M48 192h4v4h-4z"/><path fill="#194435" d="M52 192h4v4h-4z"/><path fill="#28624C" d="M56 192h4v4h-4z"/><path fill="#194435" d="M60 192h4v4h-4zM64 192h4v4h-4z"/><path fill="#48813A" d="M68 192h4v4h-4zM72 192h4v4h-4zM76 192h4v4h-4z"/><path fill="#194435" d="M80 192h4v4h-4zM84 192h4v4h-4z"/><path fill="#28624C" d="M88 192h4v4h-4z"/><path fill="#194435" d="M92 192h4v4h-4zM96 192h4v4h-4zM100 192h4v4h-4zM104 192h4v4h-4zM108 192h4v4h-4zM112 192h4v4h-4z"/><path fill="#19343A" d="M116 192h4v4h-4z"/><path fill="#511D28" d="M120 192h4v4h-4zM124 192h4v4h-4zM128 192h4v4h-4z"/><path fill="#19343A" d="M132 192h4v4h-4zM136 192h4v4h-4zM140 192h4v4h-4z"/><path fill="#511D28" d="M144 192h4v4h-4zM148 192h4v4h-4zM152 192h4v4h-4z"/><path fill="#19343A" d="M156 192h4v4h-4z"/><path fill="#511D28" d="M160 192h4v4h-4z"/><path fill="#A06A5C" d="M164 192h4v4h-4zM168 192h4v4h-4z"/><path fill="#713D38" d="M172 192h4v4h-4zM176 192h4v4h-4z"/><path fill="#A06A5C" d="M180 192h4v4h-4z"/><path fill="#19343A" d="M184 192h4v4h-4zM188 192h4v4h-4zM212 192h4v4h-4z"/><path fill="#A06A5C" d="M216 192h4v4h-4z"/><path fill="#19343A" d="M220 192h4v4h-4zM232 192h4v4h-4zM236 192h4v4h-4zM240 192h4v4h-4zM28 196h4v4h-4z"/><path fill="#194435" d="M32 196h4v4h-4zM36 196h4v4h-4z"/><path fill="#28624C" d="M40 196h4v4h-4zM44 196h4v4h-4z"/><path fill="#194435" d="M48 196h4v4h-4zM52 196h4v4h-4zM56 196h4v4h-4z"/><path fill="#28624C" d="M60 196h4v4h-4zM64 196h4v4h-4z"/><path fill="#194435" d="M68 196h4v4h-4zM72 196h4v4h-4zM76 196h4v4h-4zM80 196h4v4h-4z"/><path fill="#19343A" d="M84 196h4v4h-4zM88 196h4v4h-4z"/><path fill="#194435" d="M92 196h4v4h-4zM96 196h4v4h-4z"/><path fill="#19343A" d="M100 196h4v4h-4z"/><path fill="#28624C" d="M104 196h4v4h-4zM108 196h4v4h-4z"/><path fill="#19343A" d="M112 196h4v4h-4zM116 196h4v4h-4zM120 196h4v4h-4zM124 196h4v4h-4zM128 196h4v4h-4z"/><path fill="#511D28" d="M132 196h4v4h-4zM136 196h4v4h-4z"/><path fill="#19343A" d="M140 196h4v4h-4zM144 196h4v4h-4zM148 196h4v4h-4z"/><path fill="#511D28" d="M152 196h4v4h-4zM156 196h4v4h-4zM160 196h4v4h-4z"/><path fill="#A06A5C" d="M164 196h4v4h-4zM168 196h4v4h-4zM172 196h4v4h-4zM176 196h4v4h-4z"/><path fill="#713D38" d="M180 196h4v4h-4z"/><path fill="#A06A5C" d="M184 196h4v4h-4zM188 196h4v4h-4z"/><path fill="#19343A" d="M192 196h4v4h-4zM196 196h4v4h-4zM208 196h4v4h-4z"/><path fill="#A06A5C" d="M212 196h4v4h-4zM216 196h4v4h-4z"/><path fill="#19343A" d="M220 196h4v4h-4zM28 200h4v4h-4z"/><path fill="#28624C" d="M32 200h4v4h-4z"/><path fill="#194435" d="M36 200h4v4h-4z"/><path fill="#48813A" d="M40 200h4v4h-4zM44 200h4v4h-4z"/><path fill="#28624C" d="M48 200h4v4h-4z"/><path fill="#194435" d="M52 200h4v4h-4zM56 200h4v4h-4zM60 200h4v4h-4z"/><path fill="#28624C" d="M64 200h4v4h-4z"/><path fill="#194435" d="M68 200h4v4h-4zM72 200h4v4h-4z"/><path fill="#19343A" d="M76 200h4v4h-4zM80 200h4v4h-4z"/><path fill="#194435" d="M84 200h4v4h-4zM88 200h4v4h-4z"/><path fill="#19343A" d="M92 200h4v4h-4z"/><path fill="#28624C" d="M96 200h4v4h-4zM100 200h4v4h-4zM104 200h4v4h-4zM108 200h4v4h-4zM112 200h4v4h-4z"/><path fill="#19343A" d="M120 200h4v4h-4zM124 200h4v4h-4z"/><path fill="#511D28" d="M128 200h4v4h-4zM132 200h4v4h-4z"/><path fill="#19343A" d="M136 200h4v4h-4zM152 200h4v4h-4zM156 200h4v4h-4z"/><path fill="#511D28" d="M160 200h4v4h-4z"/><path fill="#A06A5C" d="M164 200h4v4h-4zM168 200h4v4h-4zM172 200h4v4h-4zM176 200h4v4h-4zM180 200h4v4h-4z"/><path fill="#713D38" d="M184 200h4v4h-4z"/><path fill="#A06A5C" d="M188 200h4v4h-4zM192 200h4v4h-4zM196 200h4v4h-4z"/><path fill="#19343A" d="M200 200h4v4h-4zM208 200h4v4h-4z"/><path fill="#A06A5C" d="M212 200h4v4h-4z"/><path fill="#19343A" d="M216 200h4v4h-4zM28 204h4v4h-4z"/><path fill="#28624C" d="M32 204h4v4h-4zM36 204h4v4h-4z"/><path fill="#194435" d="M40 204h4v4h-4z"/><path fill="#28624C" d="M44 204h4v4h-4z"/><path fill="#194435" d="M48 204h4v4h-4zM52 204h4v4h-4zM56 204h4v4h-4zM60 204h4v4h-4zM64 204h4v4h-4zM68 204h4v4h-4z"/><path fill="#19343A" d="M72 204h4v4h-4z"/><path fill="#194435" d="M76 204h4v4h-4z"/><path fill="#19343A" d="M88 204h4v4h-4z"/><path fill="#194435" d="M92 204h4v4h-4zM96 204h4v4h-4zM100 204h4v4h-4zM104 204h4v4h-4z"/><path fill="#28624C" d="M108 204h4v4h-4z"/><path fill="#19343A" d="M112 204h4v4h-4zM116 204h4v4h-4z"/><path fill="#511D28" d="M120 204h4v4h-4zM124 204h4v4h-4zM128 204h4v4h-4z"/><path fill="#19343A" d="M132 204h4v4h-4z"/><path fill="#511D28" d="M160 204h4v4h-4zM164 204h4v4h-4z"/><path fill="#713D38" d="M168 204h4v4h-4z"/><path fill="#A06A5C" d="M172 204h4v4h-4zM176 204h4v4h-4zM180 204h4v4h-4z"/><path fill="#713D38" d="M184 204h4v4h-4zM188 204h4v4h-4z"/><path fill="#A06A5C" d="M192 204h4v4h-4zM196 204h4v4h-4zM200 204h4v4h-4z"/><path fill="#19343A" d="M204 204h4v4h-4z"/><path fill="#713D38" d="M208 204h4v4h-4z"/><path fill="#A06A5C" d="M212 204h4v4h-4z"/><path fill="#19343A" d="M216 204h4v4h-4zM32 208h4v4h-4z"/><path fill="#28624C" d="M36 208h4v4h-4z"/><path fill="#194435" d="M40 208h4v4h-4zM44 208h4v4h-4zM48 208h4v4h-4z"/><path fill="#19343A" d="M52 208h4v4h-4zM56 208h4v4h-4zM60 208h4v4h-4zM64 208h4v4h-4z"/><path fill="#194435" d="M68 208h4v4h-4zM72 208h4v4h-4z"/><path fill="#19343A" d="M80 208h4v4h-4zM84 208h4v4h-4z"/><path fill="#28624C" d="M88 208h4v4h-4zM92 208h4v4h-4zM96 208h4v4h-4zM100 208h4v4h-4zM104 208h4v4h-4z"/><path fill="#511D28" d="M108 208h4v4h-4zM112 208h4v4h-4zM116 208h4v4h-4zM120 208h4v4h-4zM124 208h4v4h-4z"/><path fill="#19343A" d="M128 208h4v4h-4zM140 208h4v4h-4zM144 208h4v4h-4zM156 208h4v4h-4zM160 208h4v4h-4zM164 208h4v4h-4z"/><path fill="#511D28" d="M168 208h4v4h-4z"/><path fill="#A06A5C" d="M172 208h4v4h-4zM176 208h4v4h-4z"/><path fill="#713D38" d="M180 208h4v4h-4zM184 208h4v4h-4zM188 208h4v4h-4z"/><path fill="#A06A5C" d="M192 208h4v4h-4z"/><path fill="#B8926A" d="M196 208h4v4h-4z"/><path fill="#A06A5C" d="M200 208h4v4h-4z"/><path fill="#713D38" d="M204 208h4v4h-4zM208 208h4v4h-4z"/><path fill="#19343A" d="M212 208h4v4h-4zM36 212h4v4h-4z"/><path fill="#194435" d="M40 212h4v4h-4zM44 212h4v4h-4z"/><path fill="#19343A" d="M48 212h4v4h-4z"/><path fill="#194435" d="M56 212h4v4h-4z"/><path fill="#19343A" d="M76 212h4v4h-4z"/><path fill="#28624C" d="M80 212h4v4h-4zM84 212h4v4h-4z"/><path fill="#48813A" d="M88 212h4v4h-4zM92 212h4v4h-4z"/><path fill="#28624C" d="M96 212h4v4h-4zM100 212h4v4h-4z"/><path fill="#511D28" d="M104 212h4v4h-4zM108 212h4v4h-4z"/><path fill="#19343A" d="M112 212h4v4h-4z"/><path fill="#511D28" d="M116 212h4v4h-4z"/><path fill="#19343A" d="M120 212h4v4h-4zM124 212h4v4h-4zM136 212h4v4h-4z"/><path fill="#48813A" d="M140 212h4v4h-4zM144 212h4v4h-4z"/><path fill="#19343A" d="M148 212h4v4h-4zM152 212h4v4h-4z"/><path fill="#48813A" d="M156 212h4v4h-4zM160 212h4v4h-4z"/><path fill="#19343A" d="M164 212h4v4h-4zM168 212h4v4h-4z"/><path fill="#511D28" d="M172 212h4v4h-4zM176 212h4v4h-4z"/><path fill="#713D38" d="M180 212h4v4h-4zM184 212h4v4h-4zM188 212h4v4h-4zM192 212h4v4h-4z"/><path fill="#B8926A" d="M196 212h4v4h-4z"/><path fill="#A06A5C" d="M200 212h4v4h-4zM204 212h4v4h-4z"/><path fill="#713D38" d="M208 212h4v4h-4z"/><path fill="#19343A" d="M212 212h4v4h-4zM40 216h4v4h-4zM44 216h4v4h-4zM76 216h4v4h-4z"/><path fill="#48813A" d="M80 216h4v4h-4zM84 216h4v4h-4zM88 216h4v4h-4z"/><path fill="#28624C" d="M92 216h4v4h-4zM96 216h4v4h-4zM100 216h4v4h-4zM104 216h4v4h-4z"/><path fill="#19343A" d="M108 216h4v4h-4zM112 216h4v4h-4zM116 216h4v4h-4zM132 216h4v4h-4z"/><path fill="#48813A" d="M136 216h4v4h-4zM140 216h4v4h-4zM144 216h4v4h-4zM148 216h4v4h-4zM152 216h4v4h-4zM156 216h4v4h-4zM160 216h4v4h-4z"/><path fill="#19343A" d="M164 216h4v4h-4zM168 216h4v4h-4z"/><path fill="#511D28" d="M172 216h4v4h-4zM176 216h4v4h-4zM180 216h4v4h-4z"/><path fill="#713D38" d="M184 216h4v4h-4zM188 216h4v4h-4zM192 216h4v4h-4zM196 216h4v4h-4z"/><path fill="#B8926A" d="M200 216h4v4h-4z"/><path fill="#A06A5C" d="M204 216h4v4h-4zM208 216h4v4h-4z"/><path fill="#713D38" d="M212 216h4v4h-4z"/><path fill="#19343A" d="M216 216h4v4h-4zM76 220h4v4h-4z"/><path fill="#48813A" d="M80 220h4v4h-4zM84 220h4v4h-4zM88 220h4v4h-4z"/><path fill="#28624C" d="M92 220h4v4h-4zM96 220h4v4h-4z"/><path fill="#19343A" d="M100 220h4v4h-4zM104 220h4v4h-4zM108 220h4v4h-4z"/><path fill="#511D28" d="M112 220h4v4h-4z"/><path fill="#19343A" d="M116 220h4v4h-4zM128 220h4v4h-4z"/><path fill="#48813A" d="M132 220h4v4h-4zM136 220h4v4h-4zM140 220h4v4h-4z"/><path fill="#28624C" d="M144 220h4v4h-4z"/><path fill="#48813A" d="M148 220h4v4h-4zM152 220h4v4h-4zM156 220h4v4h-4zM160 220h4v4h-4zM164 220h4v4h-4z"/><path fill="#19343A" d="M168 220h4v4h-4z"/><path fill="#511D28" d="M172 220h4v4h-4zM176 220h4v4h-4zM180 220h4v4h-4zM184 220h4v4h-4z"/><path fill="#713D38" d="M188 220h4v4h-4z"/><path fill="#A06A5C" d="M192 220h4v4h-4zM196 220h4v4h-4z"/><path fill="#713D38" d="M200 220h4v4h-4z"/><path fill="#B8926A" d="M204 220h4v4h-4z"/><path fill="#A06A5C" d="M208 220h4v4h-4zM212 220h4v4h-4z"/><path fill="#19343A" d="M216 220h4v4h-4zM80 224h4v4h-4z"/><path fill="#28624C" d="M84 224h4v4h-4zM88 224h4v4h-4zM92 224h4v4h-4z"/><path fill="#19343A" d="M96 224h4v4h-4zM128 224h4v4h-4z"/><path fill="#194435" d="M132 224h4v4h-4z"/><path fill="#48813A" d="M136 224h4v4h-4zM140 224h4v4h-4zM144 224h4v4h-4z"/><path fill="#28624C" d="M148 224h4v4h-4zM152 224h4v4h-4zM156 224h4v4h-4z"/><path fill="#48813A" d="M160 224h4v4h-4zM164 224h4v4h-4zM168 224h4v4h-4zM172 224h4v4h-4z"/><path fill="#19343A" d="M176 224h4v4h-4z"/><path fill="#511D28" d="M180 224h4v4h-4zM184 224h4v4h-4z"/><path fill="#713D38" d="M188 224h4v4h-4zM192 224h4v4h-4z"/><path fill="#A06A5C" d="M196 224h4v4h-4zM200 224h4v4h-4z"/><path fill="#713D38" d="M204 224h4v4h-4zM208 224h4v4h-4z"/><path fill="#A06A5C" d="M212 224h4v4h-4zM216 224h4v4h-4z"/><path fill="#19343A" d="M220 224h4v4h-4zM84 228h4v4h-4zM88 228h4v4h-4zM92 228h4v4h-4zM128 228h4v4h-4z"/><path fill="#194435" d="M132 228h4v4h-4z"/><path fill="#48813A" d="M136 228h4v4h-4zM140 228h4v4h-4zM144 228h4v4h-4z"/><path fill="#28624C" d="M148 228h4v4h-4zM152 228h4v4h-4z"/><path fill="#48813A" d="M156 228h4v4h-4zM160 228h4v4h-4zM164 228h4v4h-4zM168 228h4v4h-4z"/><path fill="#19343A" d="M172 228h4v4h-4zM176 228h4v4h-4z"/><path fill="#511D28" d="M180 228h4v4h-4zM184 228h4v4h-4z"/><path fill="#713D38" d="M188 228h4v4h-4zM192 228h4v4h-4zM196 228h4v4h-4z"/><path fill="#A06A5C" d="M200 228h4v4h-4zM204 228h4v4h-4z"/><path fill="#713D38" d="M208 228h4v4h-4zM212 228h4v4h-4zM216 228h4v4h-4z"/><path fill="#19343A" d="M220 228h4v4h-4zM128 232h4v4h-4z"/><path fill="#194435" d="M132 232h4v4h-4zM136 232h4v4h-4z"/><path fill="#28624C" d="M140 232h4v4h-4zM144 232h4v4h-4zM148 232h4v4h-4zM152 232h4v4h-4zM156 232h4v4h-4z"/><path fill="#48813A" d="M160 232h4v4h-4zM164 232h4v4h-4z"/><path fill="#19343A" d="M168 232h4v4h-4zM176 232h4v4h-4z"/><path fill="#511D28" d="M180 232h4v4h-4zM184 232h4v4h-4zM188 232h4v4h-4z"/><path fill="#713D38" d="M192 232h4v4h-4zM196 232h4v4h-4z"/><path fill="#19343A" d="M200 232h4v4h-4z"/><path fill="#713D38" d="M204 232h4v4h-4z"/><path fill="#19343A" d="M208 232h4v4h-4zM212 232h4v4h-4zM216 232h4v4h-4zM220 232h4v4h-4zM132 236h4v4h-4zM136 236h4v4h-4z"/><path fill="#194435" d="M140 236h4v4h-4z"/><path fill="#28624C" d="M144 236h4v4h-4zM148 236h4v4h-4zM152 236h4v4h-4zM156 236h4v4h-4zM160 236h4v4h-4zM164 236h4v4h-4z"/><path fill="#19343A" d="M168 236h4v4h-4zM176 236h4v4h-4z"/><path fill="#511D28" d="M180 236h4v4h-4zM184 236h4v4h-4zM188 236h4v4h-4z"/><path fill="#713D38" d="M192 236h4v4h-4zM196 236h4v4h-4zM200 236h4v4h-4z"/><path fill="#19343A" d="M204 236h4v4h-4zM140 240h4v4h-4zM144 240h4v4h-4zM148 240h4v4h-4zM152 240h4v4h-4zM156 240h4v4h-4zM160 240h4v4h-4zM164 240h4v4h-4zM176 240h4v4h-4z"/><path fill="#511D28" d="M180 240h4v4h-4zM184 240h4v4h-4zM188 240h4v4h-4z"/><path fill="#713D38" d="M192 240h4v4h-4zM196 240h4v4h-4z"/><path fill="#19343A" d="M200 240h4v4h-4zM176 244h4v4h-4z"/><path fill="#511D28" d="M180 244h4v4h-4zM184 244h4v4h-4zM188 244h4v4h-4z"/><path fill="#713D38" d="M192 244h4v4h-4zM196 244h4v4h-4z"/><path fill="#19343A" d="M176 248h4v4h-4z"/><path fill="#511D28" d="M180 248h4v4h-4zM184 248h4v4h-4zM188 248h4v4h-4zM180 252h4v4h-4zM184 252h4v4h-4z"/></svg>