<svg width="384" height="384" xmlns="http://www.w3.org/2000/svg" shape-rendering="crispEdges"><path fill="#1C616D" d="M60 80h4v4h-4zM64 80h4v4h-4zM56 84h4v4h-4z"/><path fill="#2E839C" d="M60 84h4v4h-4zM64 84h4v4h-4z"/><path fill="#1C616D" d="M68 84h4v4h-4zM52 88h4v4h-4z"/><path fill="#2E839C" d="M56 88h4v4h-4zM60 88h4v4h-4zM64 88h4v4h-4zM68 88h4v4h-4z"/><path fill="#1C616D" d="M72 88h4v4h-4zM76 88h4v4h-4zM48 92h4v4h-4z"/><path fill="#2E839C" d="M52 92h4v4h-4zM56 92h4v4h-4zM60 92h4v4h-4z"/><path fill="#2293B4" d="M64 92h4v4h-4zM68 92h4v4h-4zM72 92h4v4h-4z"/><path fill="#2E839C" d="M76 92h4v4h-4z"/><path fill="#1C616D" d="M80 92h4v4h-4zM48 96h4v4h-4z"/><path fill="#2E839C" d="M52 96h4v4h-4zM56 96h4v4h-4zM60 96h4v4h-4z"/><path fill="#2293B4" d="M64 96h4v4h-4zM68 96h4v4h-4zM72 96h4v4h-4z"/><path fill="#2E839C" d="M76 96h4v4h-4z"/><path fill="#395B84" d="M80 96h4v4h-4z"/><path fill="#1C616D" d="M84 96h4v4h-4zM88 96h4v4h-4zM44 100h4v4h-4z"/><path fill="#395B84" d="M48 100h4v4h-4zM52 100h4v4h-4z"/><path fill="#3C6BA5" d="M56 100h4v4h-4z"/><path fill="#2E839C" d="M60 100h4v4h-4zM64 100h4v4h-4z"/><path fill="#2293B4" d="M68 100h4v4h-4zM72 100h4v4h-4z"/><path fill="#2E839C" d="M76 100h4v4h-4z"/><path fill="#395B84" d="M80 100h4v4h-4zM84 100h4v4h-4zM88 100h4v4h-4z"/><path fill="#1C616D" d="M92 100h4v4h-4zM96 100h4v4h-4zM100 100h4v4h-4zM104 100h4v4h-4zM44 104h4v4h-4z"/><path fill="#395B84" d="M48 104h4v4h-4z"/><path fill="#3C6BA5" d="M52 104h4v4h-4zM56 104h4v4h-4z"/><path fill="#395B84" d="M60 104h4v4h-4z"/><path fill="#2E839C" d="M64 104h4v4h-4zM68 104h4v4h-4z"/><path fill="#2293B4" d="M72 104h4v4h-4z"/><path fill="#2E839C" d="M76 104h4v4h-4z"/><path fill="#395B84" d="M80 104h4v4h-4zM84 104h4v4h-4zM88 104h4v4h-4zM92 104h4v4h-4z"/><path fill="#2E839C" d="M96 104h4v4h-4zM100 104h4v4h-4zM104 104h4v4h-4z"/><path fill="#1C616D" d="M108 104h4v4h-4zM112 104h4v4h-4zM116 104h4v4h-4zM44 108h4v4h-4z"/><path fill="#395B84" d="M48 108h4v4h-4z"/><path fill="#3C6BA5" d="M52 108h4v4h-4zM56 108h4v4h-4z"/><path fill="#395B84" d="M60 108h4v4h-4zM64 108h4v4h-4z"/><path fill="#2E839C" d="M68 108h4v4h-4zM72 108h4v4h-4z"/><path fill="#395B84" d="M76 108h4v4h-4zM80 108h4v4h-4zM84 108h4v4h-4zM88 108h4v4h-4zM92 108h4v4h-4z"/><path fill="#2E839C" d="M96 108h4v4h-4zM100 108h4v4h-4zM104 108h4v4h-4zM108 108h4v4h-4zM112 108h4v4h-4zM116 108h4v4h-4z"/><path fill="#1C616D" d="M120 108h4v4h-4zM44 112h4v4h-4z"/><path fill="#395B84" d="M48 112h4v4h-4z"/><path fill="#3C6BA5" d="M52 112h4v4h-4zM56 112h4v4h-4z"/><path fill="#395B84" d="M60 112h4v4h-4zM64 112h4v4h-4zM68 112h4v4h-4zM72 112h4v4h-4zM76 112h4v4h-4zM80 112h4v4h-4zM84 112h4v4h-4zM88 112h4v4h-4zM92 112h4v4h-4z"/><path fill="#2E839C" d="M96 112h4v4h-4zM100 112h4v4h-4zM104 112h4v4h-4zM108 112h4v4h-4zM112 112h4v4h-4zM116 112h4v4h-4zM120 112h4v4h-4z"/><path fill="#1C616D" d="M124 112h4v4h-4zM44 116h4v4h-4z"/><path fill="#395B84" d="M48 116h4v4h-4zM52 116h4v4h-4z"/><path fill="#3C6BA5" d="M56 116h4v4h-4z"/><path fill="#395B84" d="M60 116h4v4h-4zM64 116h4v4h-4zM68 116h4v4h-4zM72 116h4v4h-4zM76 116h4v4h-4zM80 116h4v4h-4zM84 116h4v4h-4zM88 116h4v4h-4zM92 116h4v4h-4z"/><path fill="#2293B4" d="M96 116h4v4h-4zM100 116h4v4h-4zM104 116h4v4h-4zM108 116h4v4h-4z"/><path fill="#2E839C" d="M112 116h4v4h-4zM116 116h4v4h-4zM120 116h4v4h-4zM124 116h4v4h-4z"/><path fill="#1C616D" d="M128 116h4v4h-4zM48 120h4v4h-4z"/><path fill="#395B84" d="M52 120h4v4h-4z"/><path fill="#3C6BA5" d="M56 120h4v4h-4zM60 120h4v4h-4z"/><path fill="#395B84" d="M64 120h4v4h-4zM68 120h4v4h-4zM72 120h4v4h-4zM76 120h4v4h-4zM80 120h4v4h-4zM84 120h4v4h-4zM88 120h4v4h-4z"/><path fill="#2E839C" d="M92 120h4v4h-4zM96 120h4v4h-4z"/><path fill="#2293B4" d="M100 120h4v4h-4zM104 120h4v4h-4zM108 120h4v4h-4zM112 120h4v4h-4zM116 120h4v4h-4z"/><path fill="#2E839C" d="M120 120h4v4h-4zM124 120h4v4h-4zM128 120h4v4h-4z"/><path fill="#1C616D" d="M132 120h4v4h-4zM48 124h4v4h-4z"/><path fill="#395B84" d="M52 124h4v4h-4zM56 124h4v4h-4z"/><path fill="#3C6BA5" d="M60 124h4v4h-4z"/><path fill="#395B84" d="M64 124h4v4h-4zM68 124h4v4h-4zM72 124h4v4h-4zM76 124h4v4h-4zM80 124h4v4h-4zM84 124h4v4h-4z"/><path fill="#2E839C" d="M88 124h4v4h-4zM92 124h4v4h-4zM96 124h4v4h-4zM100 124h4v4h-4z"/><path fill="#2293B4" d="M104 124h4v4h-4zM108 124h4v4h-4zM112 124h4v4h-4zM116 124h4v4h-4zM120 124h4v4h-4z"/><path fill="#2E839C" d="M124 124h4v4h-4zM128 124h4v4h-4z"/><path fill="#395B84" d="M132 124h4v4h-4z"/><path fill="#1C616D" d="M136 124h4v4h-4zM140 124h4v4h-4zM144 124h4v4h-4zM148 124h4v4h-4zM152 124h4v4h-4zM156 124h4v4h-4zM160 124h4v4h-4zM164 124h4v4h-4zM52 128h4v4h-4z"/><path fill="#395B84" d="M56 128h4v4h-4zM60 128h4v4h-4zM64 128h4v4h-4zM68 128h4v4h-4zM72 128h4v4h-4zM76 128h4v4h-4z"/><path fill="#3C6BA5" d="M80 128h4v4h-4z"/><path fill="#2E839C" d="M84 128h4v4h-4zM88 128h4v4h-4zM92 128h4v4h-4zM96 128h4v4h-4zM100 128h4v4h-4zM104 128h4v4h-4z"/><path fill="#2293B4" d="M108 128h4v4h-4zM112 128h4v4h-4zM116 128h4v4h-4zM120 128h4v4h-4zM124 128h4v4h-4z"/><path fill="#2E839C" d="M128 128h4v4h-4z"/><path fill="#395B84" d="M132 128h4v4h-4zM136 128h4v4h-4zM140 128h4v4h-4zM144 128h4v4h-4zM148 128h4v4h-4zM152 128h4v4h-4z"/><path fill="#2E839C" d="M156 128h4v4h-4zM160 128h4v4h-4zM164 128h4v4h-4z"/><path fill="#1C616D" d="M168 128h4v4h-4zM172 128h4v4h-4zM176 128h4v4h-4zM180 128h4v4h-4zM52 132h4v4h-4z"/><path fill="#395B84" d="M56 132h4v4h-4zM60 132h4v4h-4zM64 132h4v4h-4zM68 132h4v4h-4z"/><path fill="#3C6BA5" d="M72 132h4v4h-4zM76 132h4v4h-4zM80 132h4v4h-4z"/><path fill="#2E839C" d="M84 132h4v4h-4zM88 132h4v4h-4zM92 132h4v4h-4zM96 132h4v4h-4zM100 132h4v4h-4zM104 132h4v4h-4zM108 132h4v4h-4z"/><path fill="#2293B4" d="M112 132h4v4h-4zM116 132h4v4h-4zM120 132h4v4h-4zM124 132h4v4h-4z"/><path fill="#2E839C" d="M128 132h4v4h-4z"/><path fill="#395B84" d="M132 132h4v4h-4zM136 132h4v4h-4zM140 132h4v4h-4zM144 132h4v4h-4zM148 132h4v4h-4zM152 132h4v4h-4z"/><path fill="#2E839C" d="M156 132h4v4h-4zM160 132h4v4h-4zM164 132h4v4h-4zM168 132h4v4h-4zM172 132h4v4h-4zM176 132h4v4h-4zM180 132h4v4h-4z"/><path fill="#1C616D" d="M184 132h4v4h-4zM188 132h4v4h-4zM52 136h4v4h-4z"/><path fill="#395B84" d="M56 136h4v4h-4zM60 136h4v4h-4z"/><path fill="#3C6BA5" d="M64 136h4v4h-4zM68 136h4v4h-4zM72 136h4v4h-4zM76 136h4v4h-4z"/><path fill="#2E839C" d="M80 136h4v4h-4zM84 136h4v4h-4zM88 136h4v4h-4zM92 136h4v4h-4zM96 136h4v4h-4zM100 136h4v4h-4zM104 136h4v4h-4zM108 136h4v4h-4zM112 136h4v4h-4z"/><path fill="#2293B4" d="M116 136h4v4h-4zM120 136h4v4h-4zM124 136h4v4h-4z"/><path fill="#2E839C" d="M128 136h4v4h-4z"/><path fill="#3C6BA5" d="M132 136h4v4h-4z"/><path fill="#395B84" d="M136 136h4v4h-4zM140 136h4v4h-4zM144 136h4v4h-4zM148 136h4v4h-4zM152 136h4v4h-4z"/><path fill="#2E839C" d="M156 136h4v4h-4zM160 136h4v4h-4zM164 136h4v4h-4zM168 136h4v4h-4zM172 136h4v4h-4zM176 136h4v4h-4zM180 136h4v4h-4zM184 136h4v4h-4z"/><path fill="#395B84" d="M188 136h4v4h-4z"/><path fill="#1C616D" d="M192 136h4v4h-4zM196 136h4v4h-4zM52 140h4v4h-4z"/><path fill="#395B84" d="M56 140h4v4h-4z"/><path fill="#3C6BA5" d="M60 140h4v4h-4zM64 140h4v4h-4zM68 140h4v4h-4z"/><path fill="#2E839C" d="M72 140h4v4h-4zM76 140h4v4h-4zM80 140h4v4h-4zM84 140h4v4h-4zM88 140h4v4h-4zM92 140h4v4h-4zM96 140h4v4h-4zM100 140h4v4h-4zM104 140h4v4h-4zM108 140h4v4h-4zM112 140h4v4h-4z"/><path fill="#2293B4" d="M116 140h4v4h-4zM120 140h4v4h-4zM124 140h4v4h-4z"/><path fill="#2E839C" d="M128 140h4v4h-4z"/><path fill="#3C6BA5" d="M132 140h4v4h-4zM136 140h4v4h-4z"/><path fill="#395B84" d="M140 140h4v4h-4zM144 140h4v4h-4zM148 140h4v4h-4zM152 140h4v4h-4z"/><path fill="#2E839C" d="M156 140h4v4h-4zM160 140h4v4h-4zM164 140h4v4h-4zM168 140h4v4h-4zM172 140h4v4h-4zM176 140h4v4h-4zM180 140h4v4h-4zM184 140h4v4h-4zM188 140h4v4h-4z"/><path fill="#395B84" d="M192 140h4v4h-4zM196 140h4v4h-4z"/><path fill="#1C616D" d="M200 140h4v4h-4zM52 144h4v4h-4z"/><path fill="#2E839C" d="M56 144h4v4h-4z"/><path fill="#2293B4" d="M60 144h4v4h-4z"/><path fill="#2E839C" d="M64 144h4v4h-4zM68 144h4v4h-4zM72 144h4v4h-4zM76 144h4v4h-4zM80 144h4v4h-4zM84 144h4v4h-4zM88 144h4v4h-4zM92 144h4v4h-4zM96 144h4v4h-4zM100 144h4v4h-4zM104 144h4v4h-4zM108 144h4v4h-4zM112 144h4v4h-4zM116 144h4v4h-4z"/><path fill="#2293B4" d="M120 144h4v4h-4zM124 144h4v4h-4z"/><path fill="#2E839C" d="M128 144h4v4h-4z"/><path fill="#3C6BA5" d="M132 144h4v4h-4zM136 144h4v4h-4zM140 144h4v4h-4zM144 144h4v4h-4zM148 144h4v4h-4z"/><path fill="#395B84" d="M152 144h4v4h-4z"/><path fill="#2E839C" d="M156 144h4v4h-4zM160 144h4v4h-4zM164 144h4v4h-4zM168 144h4v4h-4zM172 144h4v4h-4zM176 144h4v4h-4zM180 144h4v4h-4zM184 144h4v4h-4zM188 144h4v4h-4z"/><path fill="#395B84" d="M192 144h4v4h-4zM196 144h4v4h-4zM200 144h4v4h-4z"/><path fill="#1C616D" d="M204 144h4v4h-4zM52 148h4v4h-4z"/><path fill="#2E839C" d="M56 148h4v4h-4z"/><path fill="#2293B4" d="M60 148h4v4h-4zM64 148h4v4h-4z"/><path fill="#2E839C" d="M68 148h4v4h-4zM72 148h4v4h-4zM76 148h4v4h-4zM80 148h4v4h-4zM84 148h4v4h-4zM88 148h4v4h-4zM92 148h4v4h-4zM96 148h4v4h-4zM100 148h4v4h-4zM104 148h4v4h-4zM108 148h4v4h-4zM112 148h4v4h-4zM116 148h4v4h-4z"/><path fill="#2293B4" d="M120 148h4v4h-4z"/><path fill="#2E839C" d="M124 148h4v4h-4z"/><path fill="#395B84" d="M128 148h4v4h-4z"/><path fill="#3C6BA5" d="M132 148h4v4h-4zM136 148h4v4h-4zM140 148h4v4h-4zM144 148h4v4h-4zM148 148h4v4h-4z"/><path fill="#395B84" d="M152 148h4v4h-4z"/><path fill="#2E839C" d="M156 148h4v4h-4z"/><path fill="#2293B4" d="M160 148h4v4h-4z"/><path fill="#2E839C" d="M164 148h4v4h-4zM168 148h4v4h-4zM172 148h4v4h-4zM176 148h4v4h-4zM180 148h4v4h-4zM184 148h4v4h-4zM188 148h4v4h-4zM192 148h4v4h-4z"/><path fill="#395B84" d="M196 148h4v4h-4zM200 148h4v4h-4zM204 148h4v4h-4z"/><path fill="#1C616D" d="M208 148h4v4h-4zM52 152h4v4h-4z"/><path fill="#2E839C" d="M56 152h4v4h-4z"/><path fill="#2293B4" d="M60 152h4v4h-4zM64 152h4v4h-4z"/><path fill="#2E839C" d="M68 152h4v4h-4zM72 152h4v4h-4zM76 152h4v4h-4zM80 152h4v4h-4zM84 152h4v4h-4zM88 152h4v4h-4zM92 152h4v4h-4zM96 152h4v4h-4zM100 152h4v4h-4zM104 152h4v4h-4zM108 152h4v4h-4zM112 152h4v4h-4zM116 152h4v4h-4zM120 152h4v4h-4z"/><path fill="#395B84" d="M124 152h4v4h-4z"/><path fill="#3C6BA5" d="M128 152h4v4h-4zM132 152h4v4h-4zM136 152h4v4h-4zM140 152h4v4h-4zM144 152h4v4h-4zM148 152h4v4h-4z"/><path fill="#395B84" d="M152 152h4v4h-4z"/><path fill="#2E839C" d="M156 152h4v4h-4z"/><path fill="#2293B4" d="M160 152h4v4h-4zM164 152h4v4h-4zM168 152h4v4h-4zM172 152h4v4h-4zM176 152h4v4h-4z"/><path fill="#2E839C" d="M180 152h4v4h-4zM184 152h4v4h-4zM188 152h4v4h-4zM192 152h4v4h-4z"/><path fill="#395B84" d="M196 152h4v4h-4zM200 152h4v4h-4zM204 152h4v4h-4zM208 152h4v4h-4z"/><path fill="#1C616D" d="M212 152h4v4h-4zM52 156h4v4h-4z"/><path fill="#2E839C" d="M56 156h4v4h-4z"/><path fill="#2293B4" d="M60 156h4v4h-4zM64 156h4v4h-4zM68 156h4v4h-4z"/><path fill="#2E839C" d="M72 156h4v4h-4zM76 156h4v4h-4zM80 156h4v4h-4zM84 156h4v4h-4zM88 156h4v4h-4zM92 156h4v4h-4zM96 156h4v4h-4zM100 156h4v4h-4zM104 156h4v4h-4zM108 156h4v4h-4zM112 156h4v4h-4zM116 156h4v4h-4z"/><path fill="#395B84" d="M120 156h4v4h-4zM124 156h4v4h-4z"/><path fill="#3C6BA5" d="M128 156h4v4h-4zM132 156h4v4h-4zM136 156h4v4h-4zM140 156h4v4h-4zM144 156h4v4h-4zM148 156h4v4h-4z"/><path fill="#395B84" d="M152 156h4v4h-4z"/><path fill="#2E839C" d="M156 156h4v4h-4z"/><path fill="#2293B4" d="M160 156h4v4h-4zM164 156h4v4h-4zM168 156h4v4h-4zM172 156h4v4h-4zM176 156h4v4h-4zM180 156h4v4h-4zM184 156h4v4h-4z"/><path fill="#2E839C" d="M188 156h4v4h-4zM192 156h4v4h-4z"/><path fill="#395B84" d="M196 156h4v4h-4zM200 156h4v4h-4zM204 156h4v4h-4zM208 156h4v4h-4z"/><path fill="#1C616D" d="M212 156h4v4h-4zM52 160h4v4h-4z"/><path fill="#2E839C" d="M56 160h4v4h-4z"/><path fill="#2293B4" d="M60 160h4v4h-4zM64 160h4v4h-4zM68 160h4v4h-4z"/><path fill="#2E839C" d="M72 160h4v4h-4zM76 160h4v4h-4zM80 160h4v4h-4zM84 160h4v4h-4zM88 160h4v4h-4zM92 160h4v4h-4zM96 160h4v4h-4zM100 160h4v4h-4zM104 160h4v4h-4zM108 160h4v4h-4zM112 160h4v4h-4z"/><path fill="#395B84" d="M116 160h4v4h-4zM120 160h4v4h-4zM124 160h4v4h-4zM128 160h4v4h-4z"/><path fill="#3C6BA5" d="M132 160h4v4h-4zM136 160h4v4h-4zM140 160h4v4h-4zM144 160h4v4h-4z"/><path fill="#395B84" d="M148 160h4v4h-4z"/><path fill="#2E839C" d="M152 160h4v4h-4zM156 160h4v4h-4z"/><path fill="#2293B4" d="M160 160h4v4h-4zM164 160h4v4h-4zM168 160h4v4h-4zM172 160h4v4h-4zM176 160h4v4h-4zM180 160h4v4h-4zM184 160h4v4h-4zM188 160h4v4h-4zM192 160h4v4h-4z"/><path fill="#2E839C" d="M196 160h4v4h-4z"/><path fill="#395B84" d="M200 160h4v4h-4zM204 160h4v4h-4zM208 160h4v4h-4zM212 160h4v4h-4z"/><path fill="#1C616D" d="M216 160h4v4h-4zM52 164h4v4h-4z"/><path fill="#2E839C" d="M56 164h4v4h-4zM60 164h4v4h-4z"/><path fill="#2293B4" d="M64 164h4v4h-4zM68 164h4v4h-4z"/><path fill="#2E839C" d="M72 164h4v4h-4zM76 164h4v4h-4zM80 164h4v4h-4zM84 164h4v4h-4zM88 164h4v4h-4zM92 164h4v4h-4zM96 164h4v4h-4zM100 164h4v4h-4zM104 164h4v4h-4zM108 164h4v4h-4z"/><path fill="#395B84" d="M112 164h4v4h-4zM116 164h4v4h-4zM120 164h4v4h-4zM124 164h4v4h-4zM128 164h4v4h-4zM132 164h4v4h-4z"/><path fill="#3C6BA5" d="M136 164h4v4h-4zM140 164h4v4h-4z"/><path fill="#395B84" d="M144 164h4v4h-4zM148 164h4v4h-4z"/><path fill="#2E839C" d="M152 164h4v4h-4z"/><path fill="#2293B4" d="M156 164h4v4h-4zM160 164h4v4h-4zM164 164h4v4h-4zM168 164h4v4h-4zM172 164h4v4h-4zM176 164h4v4h-4zM180 164h4v4h-4zM184 164h4v4h-4zM188 164h4v4h-4zM192 164h4v4h-4z"/><path fill="#2E839C" d="M196 164h4v4h-4z"/><path fill="#395B84" d="M200 164h4v4h-4zM204 164h4v4h-4zM208 164h4v4h-4zM212 164h4v4h-4zM216 164h4v4h-4z"/><path fill="#1C616D" d="M220 164h4v4h-4zM56 168h4v4h-4z"/><path fill="#2E839C" d="M60 168h4v4h-4z"/><path fill="#2293B4" d="M64 168h4v4h-4zM68 168h4v4h-4zM72 168h4v4h-4z"/><path fill="#2E839C" d="M76 168h4v4h-4zM80 168h4v4h-4zM84 168h4v4h-4zM88 168h4v4h-4zM92 168h4v4h-4zM96 168h4v4h-4zM100 168h4v4h-4zM104 168h4v4h-4z"/><path fill="#395B84" d="M108 168h4v4h-4zM112 168h4v4h-4zM116 168h4v4h-4zM120 168h4v4h-4zM124 168h4v4h-4zM128 168h4v4h-4zM132 168h4v4h-4zM136 168h4v4h-4zM140 168h4v4h-4zM144 168h4v4h-4z"/><path fill="#2E839C" d="M148 168h4v4h-4zM152 168h4v4h-4z"/><path fill="#2293B4" d="M156 168h4v4h-4zM160 168h4v4h-4zM164 168h4v4h-4zM168 168h4v4h-4zM172 168h4v4h-4zM176 168h4v4h-4zM180 168h4v4h-4zM184 168h4v4h-4zM188 168h4v4h-4zM192 168h4v4h-4z"/><path fill="#2E839C" d="M196 168h4v4h-4z"/><path fill="#395B84" d="M200 168h4v4h-4zM204 168h4v4h-4z"/><path fill="#3C6BA5" d="M208 168h4v4h-4z"/><path fill="#395B84" d="M212 168h4v4h-4zM216 168h4v4h-4z"/><path fill="#1C616D" d="M220 168h4v4h-4zM56 172h4v4h-4z"/><path fill="#2E839C" d="M60 172h4v4h-4zM64 172h4v4h-4z"/><path fill="#2293B4" d="M68 172h4v4h-4zM72 172h4v4h-4zM76 172h4v4h-4z"/><path fill="#2E839C" d="M80 172h4v4h-4zM84 172h4v4h-4zM88 172h4v4h-4zM92 172h4v4h-4zM96 172h4v4h-4zM100 172h4v4h-4z"/><path fill="#395B84" d="M104 172h4v4h-4zM108 172h4v4h-4zM112 172h4v4h-4zM116 172h4v4h-4zM120 172h4v4h-4zM124 172h4v4h-4zM128 172h4v4h-4zM132 172h4v4h-4zM136 172h4v4h-4zM140 172h4v4h-4z"/><path fill="#2E839C" d="M144 172h4v4h-4zM148 172h4v4h-4z"/><path fill="#2293B4" d="M152 172h4v4h-4zM156 172h4v4h-4zM160 172h4v4h-4zM164 172h4v4h-4zM168 172h4v4h-4zM172 172h4v4h-4zM176 172h4v4h-4zM180 172h4v4h-4zM184 172h4v4h-4zM188 172h4v4h-4zM192 172h4v4h-4z"/><path fill="#2E839C" d="M196 172h4v4h-4z"/><path fill="#395B84" d="M200 172h4v4h-4z"/><path fill="#3C6BA5" d="M204 172h4v4h-4zM208 172h4v4h-4zM212 172h4v4h-4zM216 172h4v4h-4z"/><path fill="#395B84" d="M220 172h4v4h-4z"/><path fill="#1C616D" d="M224 172h4v4h-4zM60 176h4v4h-4z"/><path fill="#2E839C" d="M64 176h4v4h-4zM68 176h4v4h-4z"/><path fill="#2293B4" d="M72 176h4v4h-4z"/><path fill="#2E839C" d="M76 176h4v4h-4zM80 176h4v4h-4zM84 176h4v4h-4zM88 176h4v4h-4zM92 176h4v4h-4z"/><path fill="#395B84" d="M96 176h4v4h-4zM100 176h4v4h-4zM104 176h4v4h-4zM108 176h4v4h-4zM112 176h4v4h-4zM116 176h4v4h-4zM120 176h4v4h-4zM124 176h4v4h-4zM128 176h4v4h-4zM132 176h4v4h-4zM136 176h4v4h-4zM140 176h4v4h-4z"/><path fill="#2E839C" d="M144 176h4v4h-4zM148 176h4v4h-4zM152 176h4v4h-4z"/><path fill="#2293B4" d="M156 176h4v4h-4zM160 176h4v4h-4zM164 176h4v4h-4zM168 176h4v4h-4zM172 176h4v4h-4zM176 176h4v4h-4zM180 176h4v4h-4zM184 176h4v4h-4zM188 176h4v4h-4zM192 176h4v4h-4z"/><path fill="#2E839C" d="M196 176h4v4h-4z"/><path fill="#395B84" d="M200 176h4v4h-4z"/><path fill="#3C6BA5" d="M204 176h4v4h-4zM208 176h4v4h-4zM212 176h4v4h-4zM216 176h4v4h-4z"/><path fill="#395B84" d="M220 176h4v4h-4z"/><path fill="#1C616D" d="M224 176h4v4h-4zM60 180h4v4h-4z"/><path fill="#395B84" d="M64 180h4v4h-4zM68 180h4v4h-4z"/><path fill="#3C6BA5" d="M72 180h4v4h-4zM76 180h4v4h-4zM80 180h4v4h-4zM84 180h4v4h-4z"/><path fill="#395B84" d="M88 180h4v4h-4zM92 180h4v4h-4zM96 180h4v4h-4zM100 180h4v4h-4zM104 180h4v4h-4zM108 180h4v4h-4zM112 180h4v4h-4zM116 180h4v4h-4zM120 180h4v4h-4zM124 180h4v4h-4zM128 180h4v4h-4zM132 180h4v4h-4zM136 180h4v4h-4z"/><path fill="#2E839C" d="M140 180h4v4h-4zM144 180h4v4h-4zM148 180h4v4h-4zM152 180h4v4h-4zM156 180h4v4h-4zM160 180h4v4h-4z"/><path fill="#2293B4" d="M164 180h4v4h-4zM168 180h4v4h-4zM172 180h4v4h-4zM176 180h4v4h-4zM180 180h4v4h-4zM184 180h4v4h-4zM188 180h4v4h-4zM192 180h4v4h-4z"/><path fill="#2E839C" d="M196 180h4v4h-4z"/><path fill="#395B84" d="M200 180h4v4h-4z"/><path fill="#3C6BA5" d="M204 180h4v4h-4zM208 180h4v4h-4zM212 180h4v4h-4zM216 180h4v4h-4z"/><path fill="#395B84" d="M220 180h4v4h-4z"/><path fill="#1C616D" d="M224 180h4v4h-4zM64 184h4v4h-4z"/><path fill="#395B84" d="M68 184h4v4h-4zM72 184h4v4h-4z"/><path fill="#3C6BA5" d="M76 184h4v4h-4zM80 184h4v4h-4zM84 184h4v4h-4zM88 184h4v4h-4zM92 184h4v4h-4z"/><path fill="#395B84" d="M96 184h4v4h-4zM100 184h4v4h-4zM104 184h4v4h-4zM108 184h4v4h-4zM112 184h4v4h-4zM116 184h4v4h-4zM120 184h4v4h-4zM124 184h4v4h-4zM128 184h4v4h-4zM132 184h4v4h-4z"/><path fill="#2E839C" d="M136 184h4v4h-4zM140 184h4v4h-4zM144 184h4v4h-4zM148 184h4v4h-4zM152 184h4v4h-4zM156 184h4v4h-4zM160 184h4v4h-4zM164 184h4v4h-4zM168 184h4v4h-4z"/><path fill="#2293B4" d="M172 184h4v4h-4zM176 184h4v4h-4zM180 184h4v4h-4zM184 184h4v4h-4zM188 184h4v4h-4z"/><path fill="#2E839C" d="M192 184h4v4h-4z"/><path fill="#395B84" d="M196 184h4v4h-4zM200 184h4v4h-4z"/><path fill="#3C6BA5" d="M204 184h4v4h-4zM208 184h4v4h-4zM212 184h4v4h-4zM216 184h4v4h-4z"/><path fill="#395B84" d="M220 184h4v4h-4zM224 184h4v4h-4z"/><path fill="#1C616D" d="M228 184h4v4h-4zM60 188h4v4h-4z"/><path fill="#2E839C" d="M64 188h4v4h-4z"/><path fill="#395B84" d="M68 188h4v4h-4zM72 188h4v4h-4zM76 188h4v4h-4zM80 188h4v4h-4z"/><path fill="#3C6BA5" d="M84 188h4v4h-4zM88 188h4v4h-4zM92 188h4v4h-4zM96 188h4v4h-4z"/><path fill="#395B84" d="M100 188h4v4h-4zM104 188h4v4h-4zM108 188h4v4h-4zM112 188h4v4h-4zM116 188h4v4h-4zM120 188h4v4h-4zM124 188h4v4h-4zM128 188h4v4h-4z"/><path fill="#2E839C" d="M132 188h4v4h-4zM136 188h4v4h-4zM140 188h4v4h-4zM144 188h4v4h-4zM148 188h4v4h-4zM152 188h4v4h-4zM156 188h4v4h-4zM160 188h4v4h-4zM164 188h4v4h-4zM168 188h4v4h-4zM172 188h4v4h-4z"/><path fill="#2293B4" d="M176 188h4v4h-4zM180 188h4v4h-4zM184 188h4v4h-4z"/><path fill="#2E839C" d="M188 188h4v4h-4zM192 188h4v4h-4z"/><path fill="#395B84" d="M196 188h4v4h-4zM200 188h4v4h-4z"/><path fill="#3C6BA5" d="M204 188h4v4h-4zM208 188h4v4h-4zM212 188h4v4h-4zM216 188h4v4h-4z"/><path fill="#395B84" d="M220 188h4v4h-4zM224 188h4v4h-4z"/><path fill="#1C616D" d="M228 188h4v4h-4zM60 192h4v4h-4z"/><path fill="#2E839C" d="M64 192h4v4h-4zM68 192h4v4h-4z"/><path fill="#395B84" d="M72 192h4v4h-4zM76 192h4v4h-4zM80 192h4v4h-4z"/><path fill="#3C6BA5" d="M84 192h4v4h-4zM88 192h4v4h-4zM92 192h4v4h-4zM96 192h4v4h-4z"/><path fill="#395B84" d="M100 192h4v4h-4zM104 192h4v4h-4zM108 192h4v4h-4zM112 192h4v4h-4zM116 192h4v4h-4zM120 192h4v4h-4zM124 192h4v4h-4z"/><path fill="#2E839C" d="M128 192h4v4h-4zM132 192h4v4h-4zM136 192h4v4h-4zM140 192h4v4h-4zM144 192h4v4h-4zM148 192h4v4h-4zM152 192h4v4h-4zM156 192h4v4h-4zM160 192h4v4h-4zM164 192h4v4h-4zM168 192h4v4h-4zM172 192h4v4h-4zM176 192h4v4h-4zM180 192h4v4h-4z"/><path fill="#2293B4" d="M184 192h4v4h-4z"/><path fill="#2E839C" d="M188 192h4v4h-4z"/><path fill="#395B84" d="M192 192h4v4h-4zM196 192h4v4h-4z"/><path fill="#3C6BA5" d="M200 192h4v4h-4zM204 192h4v4h-4zM208 192h4v4h-4zM212 192h4v4h-4zM216 192h4v4h-4z"/><path fill="#395B84" d="M220 192h4v4h-4zM224 192h4v4h-4z"/><path fill="#1C616D" d="M228 192h4v4h-4zM60 196h4v4h-4z"/><path fill="#2E839C" d="M64 196h4v4h-4zM68 196h4v4h-4z"/><path fill="#395B84" d="M72 196h4v4h-4zM76 196h4v4h-4z"/><path fill="#3C6BA5" d="M80 196h4v4h-4zM84 196h4v4h-4zM88 196h4v4h-4zM92 196h4v4h-4zM96 196h4v4h-4z"/><path fill="#395B84" d="M100 196h4v4h-4zM104 196h4v4h-4zM108 196h4v4h-4zM112 196h4v4h-4zM116 196h4v4h-4z"/><path fill="#2E839C" d="M120 196h4v4h-4zM124 196h4v4h-4zM128 196h4v4h-4zM132 196h4v4h-4zM136 196h4v4h-4zM140 196h4v4h-4zM144 196h4v4h-4zM148 196h4v4h-4zM152 196h4v4h-4zM156 196h4v4h-4zM160 196h4v4h-4zM164 196h4v4h-4zM168 196h4v4h-4zM172 196h4v4h-4zM176 196h4v4h-4zM180 196h4v4h-4zM184 196h4v4h-4zM188 196h4v4h-4z"/><path fill="#395B84" d="M192 196h4v4h-4zM196 196h4v4h-4z"/><path fill="#3C6BA5" d="M200 196h4v4h-4z"/><path fill="#395B84" d="M204 196h4v4h-4zM208 196h4v4h-4z"/><path fill="#3C6BA5" d="M212 196h4v4h-4zM216 196h4v4h-4z"/><path fill="#395B84" d="M220 196h4v4h-4zM224 196h4v4h-4z"/><path fill="#1C616D" d="M228 196h4v4h-4zM60 200h4v4h-4z"/><path fill="#2E839C" d="M64 200h4v4h-4zM68 200h4v4h-4zM72 200h4v4h-4zM76 200h4v4h-4z"/><path fill="#395B84" d="M80 200h4v4h-4z"/><path fill="#3C6BA5" d="M84 200h4v4h-4zM88 200h4v4h-4zM92 200h4v4h-4z"/><path fill="#395B84" d="M96 200h4v4h-4zM100 200h4v4h-4zM104 200h4v4h-4zM108 200h4v4h-4z"/><path fill="#2E839C" d="M112 200h4v4h-4zM116 200h4v4h-4zM120 200h4v4h-4zM124 200h4v4h-4zM128 200h4v4h-4zM132 200h4v4h-4zM136 200h4v4h-4zM140 200h4v4h-4zM144 200h4v4h-4zM148 200h4v4h-4zM152 200h4v4h-4zM156 200h4v4h-4zM160 200h4v4h-4zM164 200h4v4h-4zM168 200h4v4h-4zM172 200h4v4h-4zM176 200h4v4h-4zM180 200h4v4h-4zM184 200h4v4h-4z"/><path fill="#395B84" d="M188 200h4v4h-4zM192 200h4v4h-4zM196 200h4v4h-4zM200 200h4v4h-4zM204 200h4v4h-4zM208 200h4v4h-4z"/><path fill="#3C6BA5" d="M212 200h4v4h-4zM216 200h4v4h-4z"/><path fill="#395B84" d="M220 200h4v4h-4zM224 200h4v4h-4z"/><path fill="#1C616D" d="M228 200h4v4h-4zM60 204h4v4h-4z"/><path fill="#2E839C" d="M64 204h4v4h-4zM68 204h4v4h-4zM72 204h4v4h-4zM76 204h4v4h-4zM80 204h4v4h-4zM84 204h4v4h-4zM88 204h4v4h-4z"/><path fill="#2293B4" d="M92 204h4v4h-4z"/><path fill="#2E839C" d="M96 204h4v4h-4zM100 204h4v4h-4zM104 204h4v4h-4zM108 204h4v4h-4zM112 204h4v4h-4zM116 204h4v4h-4zM120 204h4v4h-4zM124 204h4v4h-4zM128 204h4v4h-4zM132 204h4v4h-4zM136 204h4v4h-4zM140 204h4v4h-4zM144 204h4v4h-4zM148 204h4v4h-4zM152 204h4v4h-4zM156 204h4v4h-4zM160 204h4v4h-4zM164 204h4v4h-4zM168 204h4v4h-4zM172 204h4v4h-4zM176 204h4v4h-4zM180 204h4v4h-4z"/><path fill="#395B84" d="M184 204h4v4h-4zM188 204h4v4h-4zM192 204h4v4h-4zM196 204h4v4h-4zM200 204h4v4h-4zM204 204h4v4h-4zM208 204h4v4h-4zM212 204h4v4h-4zM216 204h4v4h-4zM220 204h4v4h-4zM224 204h4v4h-4z"/><path fill="#1C616D" d="M228 204h4v4h-4zM64 208h4v4h-4z"/><path fill="#2E839C" d="M68 208h4v4h-4zM72 208h4v4h-4zM76 208h4v4h-4zM80 208h4v4h-4zM84 208h4v4h-4z"/><path fill="#2293B4" d="M88 208h4v4h-4zM92 208h4v4h-4z"/><path fill="#2E839C" d="M96 208h4v4h-4zM100 208h4v4h-4zM104 208h4v4h-4zM108 208h4v4h-4zM112 208h4v4h-4zM116 208h4v4h-4zM120 208h4v4h-4zM124 208h4v4h-4zM128 208h4v4h-4zM132 208h4v4h-4zM136 208h4v4h-4zM140 208h4v4h-4zM144 208h4v4h-4zM148 208h4v4h-4zM152 208h4v4h-4zM156 208h4v4h-4zM160 208h4v4h-4zM164 208h4v4h-4zM168 208h4v4h-4zM172 208h4v4h-4zM176 208h4v4h-4z"/><path fill="#395B84" d="M180 208h4v4h-4zM184 208h4v4h-4zM188 208h4v4h-4zM192 208h4v4h-4zM196 208h4v4h-4zM200 208h4v4h-4zM204 208h4v4h-4zM208 208h4v4h-4zM212 208h4v4h-4zM216 208h4v4h-4zM220 208h4v4h-4zM224 208h4v4h-4z"/><path fill="#1C616D" d="M228 208h4v4h-4zM68 212h4v4h-4z"/><path fill="#2E839C" d="M72 212h4v4h-4zM76 212h4v4h-4zM80 212h4v4h-4zM84 212h4v4h-4z"/><path fill="#2293B4" d="M88 212h4v4h-4zM92 212h4v4h-4z"/><path fill="#2E839C" d="M96 212h4v4h-4zM100 212h4v4h-4zM104 212h4v4h-4zM108 212h4v4h-4zM112 212h4v4h-4zM116 212h4v4h-4zM120 212h4v4h-4zM124 212h4v4h-4zM128 212h4v4h-4zM132 212h4v4h-4zM136 212h4v4h-4zM140 212h4v4h-4zM144 212h4v4h-4zM148 212h4v4h-4zM152 212h4v4h-4zM156 212h4v4h-4zM160 212h4v4h-4zM164 212h4v4h-4zM168 212h4v4h-4zM172 212h4v4h-4z"/><path fill="#395B84" d="M176 212h4v4h-4zM180 212h4v4h-4zM184 212h4v4h-4zM188 212h4v4h-4zM192 212h4v4h-4zM196 212h4v4h-4zM200 212h4v4h-4zM204 212h4v4h-4zM208 212h4v4h-4zM212 212h4v4h-4zM216 212h4v4h-4zM220 212h4v4h-4zM224 212h4v4h-4z"/><path fill="#1C616D" d="M228 212h4v4h-4zM72 216h4v4h-4z"/><path fill="#2E839C" d="M76 216h4v4h-4zM80 216h4v4h-4zM84 216h4v4h-4zM88 216h4v4h-4z"/><path fill="#2293B4" d="M92 216h4v4h-4zM96 216h4v4h-4z"/><path fill="#2E839C" d="M100 216h4v4h-4zM104 216h4v4h-4zM108 216h4v4h-4zM112 216h4v4h-4zM116 216h4v4h-4zM120 216h4v4h-4zM124 216h4v4h-4zM128 216h4v4h-4zM132 216h4v4h-4zM136 216h4v4h-4zM140 216h4v4h-4zM144 216h4v4h-4zM148 216h4v4h-4zM152 216h4v4h-4zM156 216h4v4h-4zM160 216h4v4h-4zM164 216h4v4h-4zM168 216h4v4h-4z"/><path fill="#395B84" d="M172 216h4v4h-4zM176 216h4v4h-4zM180 216h4v4h-4zM184 216h4v4h-4zM188 216h4v4h-4zM192 216h4v4h-4zM196 216h4v4h-4zM200 216h4v4h-4zM204 216h4v4h-4zM208 216h4v4h-4zM212 216h4v4h-4zM216 216h4v4h-4zM220 216h4v4h-4zM224 216h4v4h-4z"/><path fill="#1C616D" d="M228 216h4v4h-4zM76 220h4v4h-4z"/><path fill="#2E839C" d="M80 220h4v4h-4zM84 220h4v4h-4zM88 220h4v4h-4z"/><path fill="#2293B4" d="M92 220h4v4h-4zM96 220h4v4h-4zM100 220h4v4h-4z"/><path fill="#2E839C" d="M104 220h4v4h-4zM108 220h4v4h-4zM112 220h4v4h-4zM116 220h4v4h-4zM120 220h4v4h-4zM124 220h4v4h-4zM128 220h4v4h-4zM132 220h4v4h-4zM136 220h4v4h-4zM140 220h4v4h-4zM144 220h4v4h-4zM148 220h4v4h-4zM152 220h4v4h-4zM156 220h4v4h-4zM160 220h4v4h-4zM164 220h4v4h-4z"/><path fill="#395B84" d="M168 220h4v4h-4zM172 220h4v4h-4zM176 220h4v4h-4zM180 220h4v4h-4zM184 220h4v4h-4zM188 220h4v4h-4zM192 220h4v4h-4zM196 220h4v4h-4zM200 220h4v4h-4zM204 220h4v4h-4zM208 220h4v4h-4zM212 220h4v4h-4zM216 220h4v4h-4zM220 220h4v4h-4zM224 220h4v4h-4z"/><path fill="#1C616D" d="M228 220h4v4h-4zM80 224h4v4h-4z"/><path fill="#2E839C" d="M84 224h4v4h-4zM88 224h4v4h-4zM92 224h4v4h-4z"/><path fill="#2293B4" d="M96 224h4v4h-4zM100 224h4v4h-4zM104 224h4v4h-4z"/><path fill="#2E839C" d="M108 224h4v4h-4zM112 224h4v4h-4zM116 224h4v4h-4zM120 224h4v4h-4zM124 224h4v4h-4zM128 224h4v4h-4zM132 224h4v4h-4zM136 224h4v4h-4zM140 224h4v4h-4zM144 224h4v4h-4zM148 224h4v4h-4zM152 224h4v4h-4zM156 224h4v4h-4zM160 224h4v4h-4z"/><path fill="#395B84" d="M164 224h4v4h-4zM168 224h4v4h-4zM172 224h4v4h-4zM176 224h4v4h-4zM180 224h4v4h-4zM184 224h4v4h-4zM188 224h4v4h-4zM192 224h4v4h-4zM196 224h4v4h-4zM200 224h4v4h-4zM204 224h4v4h-4zM208 224h4v4h-4zM212 224h4v4h-4zM216 224h4v4h-4zM220 224h4v4h-4zM224 224h4v4h-4z"/><path fill="#1C616D" d="M228 224h4v4h-4zM84 228h4v4h-4z"/><path fill="#2E839C" d="M88 228h4v4h-4zM92 228h4v4h-4z"/><path fill="#2293B4" d="M96 228h4v4h-4zM100 228h4v4h-4zM104 228h4v4h-4zM108 228h4v4h-4zM112 228h4v4h-4z"/><path fill="#2E839C" d="M116 228h4v4h-4zM120 228h4v4h-4zM124 228h4v4h-4zM128 228h4v4h-4zM132 228h4v4h-4zM136 228h4v4h-4zM140 228h4v4h-4zM144 228h4v4h-4zM148 228h4v4h-4zM152 228h4v4h-4zM156 228h4v4h-4z"/><path fill="#395B84" d="M160 228h4v4h-4zM164 228h4v4h-4zM168 228h4v4h-4zM172 228h4v4h-4zM176 228h4v4h-4zM180 228h4v4h-4zM184 228h4v4h-4zM188 228h4v4h-4zM192 228h4v4h-4zM196 228h4v4h-4zM200 228h4v4h-4zM204 228h4v4h-4zM208 228h4v4h-4zM212 228h4v4h-4zM216 228h4v4h-4zM220 228h4v4h-4z"/><path fill="#1C616D" d="M224 228h4v4h-4zM88 232h4v4h-4z"/><path fill="#2E839C" d="M92 232h4v4h-4zM96 232h4v4h-4z"/><path fill="#2293B4" d="M100 232h4v4h-4zM104 232h4v4h-4zM108 232h4v4h-4zM112 232h4v4h-4zM116 232h4v4h-4z"/><path fill="#2E839C" d="M120 232h4v4h-4zM124 232h4v4h-4zM128 232h4v4h-4zM132 232h4v4h-4zM136 232h4v4h-4zM140 232h4v4h-4zM144 232h4v4h-4zM148 232h4v4h-4z"/><path fill="#395B84" d="M152 232h4v4h-4zM156 232h4v4h-4zM160 232h4v4h-4zM164 232h4v4h-4zM168 232h4v4h-4zM172 232h4v4h-4zM176 232h4v4h-4zM180 232h4v4h-4zM184 232h4v4h-4zM188 232h4v4h-4zM192 232h4v4h-4zM196 232h4v4h-4zM200 232h4v4h-4zM204 232h4v4h-4zM208 232h4v4h-4zM212 232h4v4h-4zM216 232h4v4h-4zM220 232h4v4h-4z"/><path fill="#1C616D" d="M224 232h4v4h-4zM92 236h4v4h-4z"/><path fill="#395B84" d="M96 236h4v4h-4z"/><path fill="#2E839C" d="M100 236h4v4h-4zM104 236h4v4h-4zM108 236h4v4h-4zM112 236h4v4h-4zM116 236h4v4h-4zM120 236h4v4h-4zM124 236h4v4h-4zM128 236h4v4h-4zM132 236h4v4h-4zM136 236h4v4h-4z"/><path fill="#395B84" d="M140 236h4v4h-4zM144 236h4v4h-4zM148 236h4v4h-4zM152 236h4v4h-4zM156 236h4v4h-4zM160 236h4v4h-4zM164 236h4v4h-4zM168 236h4v4h-4zM172 236h4v4h-4zM176 236h4v4h-4zM180 236h4v4h-4zM184 236h4v4h-4zM188 236h4v4h-4zM192 236h4v4h-4zM196 236h4v4h-4zM200 236h4v4h-4zM204 236h4v4h-4zM208 236h4v4h-4zM212 236h4v4h-4zM216 236h4v4h-4z"/><path fill="#1C616D" d="M220 236h4v4h-4zM96 240h4v4h-4z"/><path fill="#395B84" d="M100 240h4v4h-4zM104 240h4v4h-4zM108 240h4v4h-4zM112 240h4v4h-4zM116 240h4v4h-4zM120 240h4v4h-4zM124 240h4v4h-4zM128 240h4v4h-4zM132 240h4v4h-4zM136 240h4v4h-4zM140 240h4v4h-4zM144 240h4v4h-4zM148 240h4v4h-4zM152 240h4v4h-4zM156 240h4v4h-4zM160 240h4v4h-4zM164 240h4v4h-4zM168 240h4v4h-4zM172 240h4v4h-4zM176 240h4v4h-4zM180 240h4v4h-4zM184 240h4v4h-4zM188 240h4v4h-4zM192 240h4v4h-4zM196 240h4v4h-4zM200 240h4v4h-4zM204 240h4v4h-4zM208 240h4v4h-4zM212 240h4v4h-4z"/><path fill="#1C616D" d="M216 240h4v4h-4zM100 244h4v4h-4z"/><path fill="#395B84" d="M104 244h4v4h-4z"/><path fill="#3C6BA5" d="M108 244h4v4h-4zM112 244h4v4h-4zM116 244h4v4h-4zM120 244h4v4h-4z"/><path fill="#395B84" d="M124 244h4v4h-4zM128 244h4v4h-4zM132 244h4v4h-4zM136 244h4v4h-4zM140 244h4v4h-4zM144 244h4v4h-4zM148 244h4v4h-4zM152 244h4v4h-4zM156 244h4v4h-4zM160 244h4v4h-4zM164 244h4v4h-4zM168 244h4v4h-4z"/><path fill="#2E839C" d="M172 244h4v4h-4zM176 244h4v4h-4z"/><path fill="#395B84" d="M180 244h4v4h-4zM184 244h4v4h-4zM188 244h4v4h-4zM192 244h4v4h-4zM196 244h4v4h-4zM200 244h4v4h-4zM204 244h4v4h-4zM208 244h4v4h-4zM212 244h4v4h-4z"/><path fill="#1C616D" d="M216 244h4v4h-4zM100 248h4v4h-4z"/><path fill="#395B84" d="M104 248h4v4h-4z"/><path fill="#3C6BA5" d="M108 248h4v4h-4zM112 248h4v4h-4zM116 248h4v4h-4zM120 248h4v4h-4z"/><path fill="#395B84" d="M124 248h4v4h-4zM128 248h4v4h-4zM132 248h4v4h-4zM136 248h4v4h-4zM140 248h4v4h-4zM144 248h4v4h-4zM148 248h4v4h-4zM152 248h4v4h-4zM156 248h4v4h-4zM160 248h4v4h-4z"/><path fill="#2E839C" d="M164 248h4v4h-4zM168 248h4v4h-4zM172 248h4v4h-4zM176 248h4v4h-4zM180 248h4v4h-4z"/><path fill="#395B84" d="M184 248h4v4h-4zM188 248h4v4h-4zM192 248h4v4h-4zM196 248h4v4h-4zM200 248h4v4h-4zM204 248h4v4h-4zM208 248h4v4h-4z"/><path fill="#1C616D" d="M212 248h4v4h-4zM100 252h4v4h-4z"/><path fill="#395B84" d="M104 252h4v4h-4zM108 252h4v4h-4zM112 252h4v4h-4z"/><path fill="#3C6BA5" d="M116 252h4v4h-4zM120 252h4v4h-4zM124 252h4v4h-4zM128 252h4v4h-4z"/><path fill="#395B84" d="M132 252h4v4h-4zM136 252h4v4h-4zM140 252h4v4h-4zM144 252h4v4h-4zM148 252h4v4h-4z"/><path fill="#2E839C" d="M152 252h4v4h-4zM156 252h4v4h-4zM160 252h4v4h-4zM164 252h4v4h-4zM168 252h4v4h-4zM172 252h4v4h-4zM176 252h4v4h-4zM180 252h4v4h-4zM184 252h4v4h-4z"/><path fill="#395B84" d="M188 252h4v4h-4zM192 252h4v4h-4zM196 252h4v4h-4zM200 252h4v4h-4zM204 252h4v4h-4z"/><path fill="#1C616D" d="M208 252h4v4h-4zM100 256h4v4h-4z"/><path fill="#2E839C" d="M104 256h4v4h-4z"/><path fill="#395B84" d="M108 256h4v4h-4zM112 256h4v4h-4zM116 256h4v4h-4zM120 256h4v4h-4zM124 256h4v4h-4zM128 256h4v4h-4zM132 256h4v4h-4zM136 256h4v4h-4zM140 256h4v4h-4zM144 256h4v4h-4z"/><path fill="#2E839C" d="M148 256h4v4h-4zM152 256h4v4h-4zM156 256h4v4h-4zM160 256h4v4h-4zM164 256h4v4h-4zM168 256h4v4h-4zM172 256h4v4h-4zM176 256h4v4h-4zM180 256h4v4h-4zM184 256h4v4h-4zM188 256h4v4h-4z"/><path fill="#395B84" d="M192 256h4v4h-4zM196 256h4v4h-4zM200 256h4v4h-4z"/><path fill="#1C616D" d="M204 256h4v4h-4zM96 260h4v4h-4z"/><path fill="#2E839C" d="M100 260h4v4h-4zM104 260h4v4h-4zM108 260h4v4h-4zM112 260h4v4h-4zM116 260h4v4h-4z"/><path fill="#395B84" d="M120 260h4v4h-4zM124 260h4v4h-4zM128 260h4v4h-4zM132 260h4v4h-4zM136 260h4v4h-4z"/><path fill="#2E839C" d="M140 260h4v4h-4zM144 260h4v4h-4zM148 260h4v4h-4zM152 260h4v4h-4zM156 260h4v4h-4zM160 260h4v4h-4zM164 260h4v4h-4zM168 260h4v4h-4zM172 260h4v4h-4zM176 260h4v4h-4zM180 260h4v4h-4zM184 260h4v4h-4zM188 260h4v4h-4z"/><path fill="#395B84" d="M192 260h4v4h-4zM196 260h4v4h-4z"/><path fill="#1C616D" d="M200 260h4v4h-4zM96 264h4v4h-4z"/><path fill="#2E839C" d="M100 264h4v4h-4zM104 264h4v4h-4zM108 264h4v4h-4zM112 264h4v4h-4zM116 264h4v4h-4zM120 264h4v4h-4zM124 264h4v4h-4zM128 264h4v4h-4zM132 264h4v4h-4zM136 264h4v4h-4zM140 264h4v4h-4z"/><path fill="#199BC3" d="M144 264h4v4h-4z"/><path fill="#2E839C" d="M148 264h4v4h-4zM152 264h4v4h-4zM156 264h4v4h-4zM160 264h4v4h-4zM164 264h4v4h-4zM168 264h4v4h-4zM172 264h4v4h-4zM176 264h4v4h-4zM180 264h4v4h-4zM184 264h4v4h-4z"/><path fill="#395B84" d="M188 264h4v4h-4zM192 264h4v4h-4z"/><path fill="#1C616D" d="M196 264h4v4h-4zM96 268h4v4h-4z"/><path fill="#2E839C" d="M100 268h4v4h-4zM104 268h4v4h-4zM108 268h4v4h-4zM112 268h4v4h-4zM116 268h4v4h-4zM120 268h4v4h-4zM124 268h4v4h-4zM128 268h4v4h-4zM132 268h4v4h-4zM136 268h4v4h-4zM140 268h4v4h-4zM144 268h4v4h-4zM148 268h4v4h-4zM152 268h4v4h-4zM156 268h4v4h-4zM160 268h4v4h-4zM164 268h4v4h-4zM168 268h4v4h-4zM172 268h4v4h-4zM176 268h4v4h-4zM180 268h4v4h-4zM184 268h4v4h-4z"/><path fill="#395B84" d="M188 268h4v4h-4z"/><path fill="#1C616D" d="M192 268h4v4h-4zM100 272h4v4h-4z"/><path fill="#2E839C" d="M104 272h4v4h-4zM108 272h4v4h-4zM112 272h4v4h-4zM116 272h4v4h-4zM120 272h4v4h-4zM124 272h4v4h-4zM128 272h4v4h-4zM132 272h4v4h-4zM136 272h4v4h-4zM140 272h4v4h-4zM144 272h4v4h-4zM148 272h4v4h-4zM152 272h4v4h-4zM156 272h4v4h-4zM160 272h4v4h-4zM164 272h4v4h-4zM168 272h4v4h-4zM172 272h4v4h-4zM176 272h4v4h-4zM180 272h4v4h-4zM184 272h4v4h-4z"/><path fill="#1C616D" d="M188 272h4v4h-4zM100 276h4v4h-4z"/><path fill="#2E839C" d="M104 276h4v4h-4zM108 276h4v4h-4zM112 276h4v4h-4zM116 276h4v4h-4zM120 276h4v4h-4zM124 276h4v4h-4zM128 276h4v4h-4zM132 276h4v4h-4zM136 276h4v4h-4zM140 276h4v4h-4zM144 276h4v4h-4zM148 276h4v4h-4zM152 276h4v4h-4zM156 276h4v4h-4zM160 276h4v4h-4zM164 276h4v4h-4zM168 276h4v4h-4zM172 276h4v4h-4zM176 276h4v4h-4z"/><path fill="#1C616D" d="M180 276h4v4h-4zM184 276h4v4h-4zM104 280h4v4h-4z"/><path fill="#2E839C" d="M108 280h4v4h-4zM112 280h4v4h-4zM116 280h4v4h-4zM120 280h4v4h-4zM124 280h4v4h-4zM128 280h4v4h-4zM132 280h4v4h-4zM136 280h4v4h-4zM140 280h4v4h-4zM144 280h4v4h-4zM148 280h4v4h-4zM152 280h4v4h-4zM156 280h4v4h-4zM160 280h4v4h-4zM164 280h4v4h-4zM168 280h4v4h-4z"/><path fill="#1C616D" d="M172 280h4v4h-4zM176 280h4v4h-4zM108 284h4v4h-4z"/><path fill="#2E839C" d="M112 284h4v4h-4zM116 284h4v4h-4zM120 284h4v4h-4zM124 284h4v4h-4zM128 284h4v4h-4zM132 284h4v4h-4zM136 284h4v4h-4zM140 284h4v4h-4zM144 284h4v4h-4zM148 284h4v4h-4zM152 284h4v4h-4zM156 284h4v4h-4zM160 284h4v4h-4z"/><path fill="#1C616D" d="M164 284h4v4h-4zM168 284h4v4h-4zM112 288h4v4h-4zM116 288h4v4h-4z"/><path fill="#2E839C" d="M120 288h4v4h-4zM124 288h4v4h-4zM128 288h4v4h-4zM132 288h4v4h-4zM136 288h4v4h-4zM140 288h4v4h-4zM144 288h4v4h-4z"/><path fill="#1C616D" d="M148 288h4v4h-4zM152 288h4v4h-4zM156 288h4v4h-4zM160 288h4v4h-4zM120 292h4v4h-4zM124 292h4v4h-4zM128 292h4v4h-4zM132 292h4v4h-4zM136 292h4v4h-4zM140 292h4v4h-4zM144 292h4v4h-4z"/></svg>