<svg width="384" height="384" xmlns="http://www.w3.org/2000/svg" shape-rendering="crispEdges"><path fill="#5B6214" d="M76 76h4v4h-4zM80 76h4v4h-4zM72 80h4v4h-4z"/><path fill="#809C39" d="M76 80h4v4h-4zM80 80h4v4h-4z"/><path fill="#5B6214" d="M84 80h4v4h-4zM68 84h4v4h-4z"/><path fill="#809C39" d="M72 84h4v4h-4z"/><path fill="#4E3011" d="M76 84h4v4h-4zM80 84h4v4h-4z"/><path fill="#8FB42F" d="M84 84h4v4h-4z"/><path fill="#5B6214" d="M88 84h4v4h-4zM92 84h4v4h-4zM64 88h4v4h-4z"/><path fill="#809C39" d="M68 88h4v4h-4z"/><path fill="#4E3011" d="M72 88h4v4h-4zM76 88h4v4h-4zM80 88h4v4h-4zM84 88h4v4h-4z"/><path fill="#8FB42F" d="M88 88h4v4h-4z"/><path fill="#5C8442" d="M92 88h4v4h-4z"/><path fill="#5B6214" d="M96 88h4v4h-4zM60 92h4v4h-4z"/><path fill="#8FB42F" d="M64 92h4v4h-4z"/><path fill="#4E3011" d="M68 92h4v4h-4zM72 92h4v4h-4zM76 92h4v4h-4zM80 92h4v4h-4zM84 92h4v4h-4z"/><path fill="#8FB42F" d="M88 92h4v4h-4z"/><path fill="#5C8442" d="M92 92h4v4h-4z"/><path fill="#9A712E" d="M96 92h4v4h-4z"/><path fill="#AC8749" d="M100 92h4v4h-4zM104 92h4v4h-4z"/><path fill="#5B6214" d="M56 96h4v4h-4z"/><path fill="#8FB42F" d="M60 96h4v4h-4z"/><path fill="#4E3011" d="M64 96h4v4h-4z"/><path fill="#DBF41C" d="M68 96h4v4h-4z"/><path fill="#4E3011" d="M72 96h4v4h-4z"/><path fill="#DBF41C" d="M76 96h4v4h-4z"/><path fill="#4E3011" d="M80 96h4v4h-4zM84 96h4v4h-4z"/><path fill="#8FB42F" d="M88 96h4v4h-4z"/><path fill="#5C8442" d="M92 96h4v4h-4z"/><path fill="#9A712E" d="M96 96h4v4h-4z"/><path fill="#AC8749" d="M100 96h4v4h-4zM104 96h4v4h-4zM108 96h4v4h-4z"/><path fill="#5B6214" d="M112 96h4v4h-4zM116 96h4v4h-4zM120 96h4v4h-4zM56 100h4v4h-4z"/><path fill="#8FB42F" d="M60 100h4v4h-4z"/><path fill="#4E3011" d="M64 100h4v4h-4zM68 100h4v4h-4zM72 100h4v4h-4zM76 100h4v4h-4zM80 100h4v4h-4z"/><path fill="#8FB42F" d="M84 100h4v4h-4z"/><path fill="#5C8442" d="M88 100h4v4h-4z"/><path fill="#9A712E" d="M92 100h4v4h-4z"/><path fill="#AC8749" d="M96 100h4v4h-4z"/><path fill="#9A712E" d="M100 100h4v4h-4z"/><path fill="#AC8749" d="M104 100h4v4h-4z"/><path fill="#9A712E" d="M108 100h4v4h-4z"/><path fill="#809C39" d="M112 100h4v4h-4zM116 100h4v4h-4zM120 100h4v4h-4z"/><path fill="#5B6214" d="M124 100h4v4h-4zM128 100h4v4h-4zM132 100h4v4h-4zM60 104h4v4h-4z"/><path fill="#8FB42F" d="M64 104h4v4h-4z"/><path fill="#4E3011" d="M68 104h4v4h-4zM72 104h4v4h-4zM76 104h4v4h-4z"/><path fill="#8FB42F" d="M80 104h4v4h-4z"/><path fill="#5C8442" d="M84 104h4v4h-4zM88 104h4v4h-4z"/><path fill="#9A712E" d="M92 104h4v4h-4z"/><path fill="#AC8749" d="M96 104h4v4h-4zM100 104h4v4h-4zM104 104h4v4h-4z"/><path fill="#5C8442" d="M108 104h4v4h-4z"/><path fill="#8FB42F" d="M112 104h4v4h-4z"/><path fill="#809C39" d="M116 104h4v4h-4zM120 104h4v4h-4zM124 104h4v4h-4zM128 104h4v4h-4zM132 104h4v4h-4z"/><path fill="#5B6214" d="M136 104h4v4h-4z"/><path fill="#9A712E" d="M60 108h4v4h-4zM64 108h4v4h-4z"/><path fill="#8FB42F" d="M68 108h4v4h-4zM72 108h4v4h-4zM76 108h4v4h-4z"/><path fill="#5C8442" d="M80 108h4v4h-4zM84 108h4v4h-4z"/><path fill="#9A712E" d="M88 108h4v4h-4z"/><path fill="#AC8749" d="M92 108h4v4h-4zM96 108h4v4h-4zM100 108h4v4h-4zM104 108h4v4h-4z"/><path fill="#5C8442" d="M108 108h4v4h-4z"/><path fill="#8FB42F" d="M112 108h4v4h-4zM116 108h4v4h-4zM120 108h4v4h-4z"/><path fill="#809C39" d="M124 108h4v4h-4z"/><path fill="#5B6214" d="M128 108h4v4h-4z"/><path fill="#809C39" d="M132 108h4v4h-4zM136 108h4v4h-4z"/><path fill="#5B6214" d="M140 108h4v4h-4zM60 112h4v4h-4z"/><path fill="#5C8442" d="M64 112h4v4h-4z"/><path fill="#9A712E" d="M68 112h4v4h-4zM72 112h4v4h-4zM76 112h4v4h-4zM80 112h4v4h-4zM84 112h4v4h-4z"/><path fill="#AC8749" d="M88 112h4v4h-4zM92 112h4v4h-4zM96 112h4v4h-4z"/><path fill="#9A712E" d="M100 112h4v4h-4z"/><path fill="#5C8442" d="M104 112h4v4h-4zM108 112h4v4h-4z"/><path fill="#809C39" d="M112 112h4v4h-4z"/><path fill="#8FB42F" d="M116 112h4v4h-4zM120 112h4v4h-4z"/><path fill="#5B6214" d="M124 112h4v4h-4zM128 112h4v4h-4zM132 112h4v4h-4z"/><path fill="#809C39" d="M136 112h4v4h-4zM140 112h4v4h-4z"/><path fill="#5B6214" d="M144 112h4v4h-4zM64 116h4v4h-4z"/><path fill="#5C8442" d="M68 116h4v4h-4zM72 116h4v4h-4zM76 116h4v4h-4z"/><path fill="#9A712E" d="M80 116h4v4h-4z"/><path fill="#AC8749" d="M84 116h4v4h-4zM88 116h4v4h-4zM92 116h4v4h-4z"/><path fill="#9A712E" d="M96 116h4v4h-4z"/><path fill="#5C8442" d="M100 116h4v4h-4zM104 116h4v4h-4z"/><path fill="#809C39" d="M108 116h4v4h-4zM112 116h4v4h-4zM116 116h4v4h-4z"/><path fill="#8FB42F" d="M120 116h4v4h-4z"/><path fill="#5B6214" d="M124 116h4v4h-4zM128 116h4v4h-4zM132 116h4v4h-4z"/><path fill="#809C39" d="M136 116h4v4h-4zM140 116h4v4h-4zM144 116h4v4h-4z"/><path fill="#9A712E" d="M148 116h4v4h-4z"/><path fill="#AC8749" d="M152 116h4v4h-4z"/><path fill="#9A712E" d="M156 116h4v4h-4zM60 120h4v4h-4z"/><path fill="#AC8749" d="M64 120h4v4h-4zM68 120h4v4h-4zM72 120h4v4h-4zM76 120h4v4h-4zM80 120h4v4h-4z"/><path fill="#9A712E" d="M84 120h4v4h-4z"/><path fill="#AC8749" d="M88 120h4v4h-4z"/><path fill="#9A712E" d="M92 120h4v4h-4z"/><path fill="#5C8442" d="M96 120h4v4h-4zM100 120h4v4h-4z"/><path fill="#809C39" d="M104 120h4v4h-4z"/><path fill="#8FB42F" d="M108 120h4v4h-4z"/><path fill="#809C39" d="M112 120h4v4h-4z"/><path fill="#8FB42F" d="M116 120h4v4h-4zM120 120h4v4h-4zM124 120h4v4h-4z"/><path fill="#5B6214" d="M128 120h4v4h-4z"/><path fill="#8FB42F" d="M132 120h4v4h-4zM136 120h4v4h-4zM140 120h4v4h-4z"/><path fill="#809C39" d="M144 120h4v4h-4z"/><path fill="#9A712E" d="M148 120h4v4h-4z"/><path fill="#AC8749" d="M152 120h4v4h-4z"/><path fill="#9A712E" d="M156 120h4v4h-4z"/><path fill="#AC8749" d="M160 120h4v4h-4z"/><path fill="#5B6214" d="M164 120h4v4h-4zM168 120h4v4h-4zM172 120h4v4h-4zM176 120h4v4h-4zM180 120h4v4h-4zM64 124h4v4h-4zM68 124h4v4h-4z"/><path fill="#AC8749" d="M72 124h4v4h-4zM76 124h4v4h-4z"/><path fill="#9A712E" d="M80 124h4v4h-4z"/><path fill="#AC8749" d="M84 124h4v4h-4z"/><path fill="#9A712E" d="M88 124h4v4h-4z"/><path fill="#5C8442" d="M92 124h4v4h-4zM96 124h4v4h-4z"/><path fill="#809C39" d="M100 124h4v4h-4zM104 124h4v4h-4zM108 124h4v4h-4z"/><path fill="#8FB42F" d="M112 124h4v4h-4zM116 124h4v4h-4zM120 124h4v4h-4zM124 124h4v4h-4zM128 124h4v4h-4zM132 124h4v4h-4zM136 124h4v4h-4zM140 124h4v4h-4zM144 124h4v4h-4z"/><path fill="#9A712E" d="M148 124h4v4h-4z"/><path fill="#AC8749" d="M152 124h4v4h-4z"/><path fill="#9A712E" d="M156 124h4v4h-4z"/><path fill="#AC8749" d="M160 124h4v4h-4z"/><path fill="#5C8442" d="M164 124h4v4h-4zM168 124h4v4h-4z"/><path fill="#809C39" d="M172 124h4v4h-4zM176 124h4v4h-4zM180 124h4v4h-4z"/><path fill="#5B6214" d="M184 124h4v4h-4zM188 124h4v4h-4zM192 124h4v4h-4zM196 124h4v4h-4z"/><path fill="#9A712E" d="M56 128h4v4h-4z"/><path fill="#AC8749" d="M60 128h4v4h-4z"/><path fill="#5B6214" d="M64 128h4v4h-4z"/><path fill="#AC8749" d="M68 128h4v4h-4zM72 128h4v4h-4zM76 128h4v4h-4zM80 128h4v4h-4z"/><path fill="#9A712E" d="M84 128h4v4h-4z"/><path fill="#AC8749" d="M88 128h4v4h-4z"/><path fill="#5C8442" d="M92 128h4v4h-4z"/><path fill="#809C39" d="M96 128h4v4h-4zM100 128h4v4h-4zM104 128h4v4h-4zM108 128h4v4h-4z"/><path fill="#8FB42F" d="M112 128h4v4h-4zM116 128h4v4h-4zM120 128h4v4h-4zM124 128h4v4h-4zM128 128h4v4h-4zM132 128h4v4h-4zM136 128h4v4h-4zM140 128h4v4h-4zM144 128h4v4h-4z"/><path fill="#9A712E" d="M148 128h4v4h-4z"/><path fill="#AC8749" d="M152 128h4v4h-4z"/><path fill="#9A712E" d="M156 128h4v4h-4z"/><path fill="#AC8749" d="M160 128h4v4h-4z"/><path fill="#5C8442" d="M164 128h4v4h-4zM168 128h4v4h-4z"/><path fill="#809C39" d="M172 128h4v4h-4zM176 128h4v4h-4zM180 128h4v4h-4zM184 128h4v4h-4zM188 128h4v4h-4zM192 128h4v4h-4zM196 128h4v4h-4z"/><path fill="#5B6214" d="M200 128h4v4h-4zM204 128h4v4h-4z"/><path fill="#9A712E" d="M56 132h4v4h-4z"/><path fill="#AC8749" d="M60 132h4v4h-4z"/><path fill="#9A712E" d="M64 132h4v4h-4zM68 132h4v4h-4zM72 132h4v4h-4z"/><path fill="#AC8749" d="M76 132h4v4h-4z"/><path fill="#9A712E" d="M80 132h4v4h-4zM84 132h4v4h-4z"/><path fill="#AC8749" d="M88 132h4v4h-4z"/><path fill="#809C39" d="M92 132h4v4h-4zM96 132h4v4h-4zM100 132h4v4h-4zM104 132h4v4h-4zM108 132h4v4h-4zM112 132h4v4h-4z"/><path fill="#8FB42F" d="M116 132h4v4h-4zM120 132h4v4h-4zM124 132h4v4h-4zM128 132h4v4h-4zM132 132h4v4h-4zM136 132h4v4h-4zM140 132h4v4h-4zM144 132h4v4h-4z"/><path fill="#9A712E" d="M148 132h4v4h-4z"/><path fill="#AC8749" d="M152 132h4v4h-4z"/><path fill="#9A712E" d="M156 132h4v4h-4z"/><path fill="#AC8749" d="M160 132h4v4h-4z"/><path fill="#5C8442" d="M164 132h4v4h-4zM168 132h4v4h-4z"/><path fill="#809C39" d="M172 132h4v4h-4zM176 132h4v4h-4zM180 132h4v4h-4zM184 132h4v4h-4zM188 132h4v4h-4zM192 132h4v4h-4zM196 132h4v4h-4zM200 132h4v4h-4z"/><path fill="#5C8442" d="M204 132h4v4h-4z"/><path fill="#5B6214" d="M208 132h4v4h-4zM212 132h4v4h-4z"/><path fill="#9A712E" d="M56 136h4v4h-4z"/><path fill="#AC8749" d="M60 136h4v4h-4z"/><path fill="#5B6214" d="M68 136h4v4h-4z"/><path fill="#5C8442" d="M72 136h4v4h-4z"/><path fill="#9A712E" d="M76 136h4v4h-4z"/><path fill="#AC8749" d="M80 136h4v4h-4z"/><path fill="#9A712E" d="M84 136h4v4h-4z"/><path fill="#AC8749" d="M88 136h4v4h-4z"/><path fill="#809C39" d="M92 136h4v4h-4zM96 136h4v4h-4zM100 136h4v4h-4zM104 136h4v4h-4zM108 136h4v4h-4zM112 136h4v4h-4zM116 136h4v4h-4zM120 136h4v4h-4z"/><path fill="#8FB42F" d="M124 136h4v4h-4zM128 136h4v4h-4zM132 136h4v4h-4zM136 136h4v4h-4zM140 136h4v4h-4zM144 136h4v4h-4z"/><path fill="#9A712E" d="M148 136h4v4h-4z"/><path fill="#AC8749" d="M152 136h4v4h-4z"/><path fill="#9A712E" d="M156 136h4v4h-4z"/><path fill="#AC8749" d="M160 136h4v4h-4z"/><path fill="#5C8442" d="M164 136h4v4h-4zM168 136h4v4h-4z"/><path fill="#809C39" d="M172 136h4v4h-4zM176 136h4v4h-4z"/><path fill="#8FB42F" d="M180 136h4v4h-4zM184 136h4v4h-4zM188 136h4v4h-4zM192 136h4v4h-4zM196 136h4v4h-4z"/><path fill="#809C39" d="M200 136h4v4h-4zM204 136h4v4h-4z"/><path fill="#5C8442" d="M208 136h4v4h-4zM212 136h4v4h-4z"/><path fill="#5B6214" d="M216 136h4v4h-4z"/><path fill="#9A712E" d="M56 140h4v4h-4z"/><path fill="#AC8749" d="M60 140h4v4h-4z"/><path fill="#5B6214" d="M68 140h4v4h-4z"/><path fill="#809C39" d="M72 140h4v4h-4z"/><path fill="#9A712E" d="M76 140h4v4h-4z"/><path fill="#AC8749" d="M80 140h4v4h-4z"/><path fill="#9A712E" d="M84 140h4v4h-4z"/><path fill="#AC8749" d="M88 140h4v4h-4z"/><path fill="#809C39" d="M92 140h4v4h-4zM96 140h4v4h-4zM100 140h4v4h-4zM104 140h4v4h-4zM108 140h4v4h-4zM112 140h4v4h-4zM116 140h4v4h-4zM120 140h4v4h-4zM124 140h4v4h-4z"/><path fill="#8FB42F" d="M128 140h4v4h-4zM132 140h4v4h-4zM136 140h4v4h-4zM140 140h4v4h-4z"/><path fill="#5C8442" d="M144 140h4v4h-4z"/><path fill="#9A712E" d="M148 140h4v4h-4z"/><path fill="#AC8749" d="M152 140h4v4h-4z"/><path fill="#9A712E" d="M156 140h4v4h-4z"/><path fill="#AC8749" d="M160 140h4v4h-4z"/><path fill="#5C8442" d="M164 140h4v4h-4zM168 140h4v4h-4z"/><path fill="#809C39" d="M172 140h4v4h-4z"/><path fill="#8FB42F" d="M176 140h4v4h-4zM180 140h4v4h-4zM184 140h4v4h-4zM188 140h4v4h-4zM192 140h4v4h-4zM196 140h4v4h-4zM200 140h4v4h-4z"/><path fill="#809C39" d="M204 140h4v4h-4z"/><path fill="#5C8442" d="M208 140h4v4h-4zM212 140h4v4h-4zM216 140h4v4h-4z"/><path fill="#5B6214" d="M220 140h4v4h-4z"/><path fill="#9A712E" d="M56 144h4v4h-4z"/><path fill="#AC8749" d="M60 144h4v4h-4z"/><path fill="#5B6214" d="M68 144h4v4h-4z"/><path fill="#809C39" d="M72 144h4v4h-4z"/><path fill="#9A712E" d="M76 144h4v4h-4z"/><path fill="#AC8749" d="M80 144h4v4h-4z"/><path fill="#9A712E" d="M84 144h4v4h-4z"/><path fill="#AC8749" d="M88 144h4v4h-4z"/><path fill="#809C39" d="M92 144h4v4h-4zM96 144h4v4h-4zM100 144h4v4h-4zM104 144h4v4h-4zM108 144h4v4h-4zM112 144h4v4h-4zM116 144h4v4h-4zM120 144h4v4h-4zM124 144h4v4h-4zM128 144h4v4h-4zM132 144h4v4h-4z"/><path fill="#8FB42F" d="M136 144h4v4h-4zM140 144h4v4h-4z"/><path fill="#9A712E" d="M144 144h4v4h-4z"/><path fill="#AC8749" d="M148 144h4v4h-4z"/><path fill="#9A712E" d="M152 144h4v4h-4z"/><path fill="#AC8749" d="M156 144h4v4h-4z"/><path fill="#5C8442" d="M160 144h4v4h-4zM164 144h4v4h-4zM168 144h4v4h-4z"/><path fill="#809C39" d="M172 144h4v4h-4z"/><path fill="#8FB42F" d="M176 144h4v4h-4zM180 144h4v4h-4zM184 144h4v4h-4zM188 144h4v4h-4zM192 144h4v4h-4zM196 144h4v4h-4zM200 144h4v4h-4z"/><path fill="#809C39" d="M204 144h4v4h-4zM208 144h4v4h-4z"/><path fill="#5C8442" d="M212 144h4v4h-4zM216 144h4v4h-4zM220 144h4v4h-4z"/><path fill="#5B6214" d="M224 144h4v4h-4z"/><path fill="#9A712E" d="M56 148h4v4h-4z"/><path fill="#AC8749" d="M60 148h4v4h-4z"/><path fill="#5B6214" d="M68 148h4v4h-4z"/><path fill="#809C39" d="M72 148h4v4h-4z"/><path fill="#9A712E" d="M76 148h4v4h-4z"/><path fill="#AC8749" d="M80 148h4v4h-4z"/><path fill="#9A712E" d="M84 148h4v4h-4z"/><path fill="#AC8749" d="M88 148h4v4h-4z"/><path fill="#809C39" d="M92 148h4v4h-4zM96 148h4v4h-4zM100 148h4v4h-4zM104 148h4v4h-4zM108 148h4v4h-4zM112 148h4v4h-4zM116 148h4v4h-4zM120 148h4v4h-4zM124 148h4v4h-4zM128 148h4v4h-4zM132 148h4v4h-4zM136 148h4v4h-4z"/><path fill="#5C8442" d="M140 148h4v4h-4z"/><path fill="#9A712E" d="M144 148h4v4h-4z"/><path fill="#AC8749" d="M148 148h4v4h-4z"/><path fill="#9A712E" d="M152 148h4v4h-4z"/><path fill="#AC8749" d="M156 148h4v4h-4z"/><path fill="#5C8442" d="M160 148h4v4h-4zM164 148h4v4h-4zM168 148h4v4h-4z"/><path fill="#809C39" d="M172 148h4v4h-4z"/><path fill="#8FB42F" d="M176 148h4v4h-4zM180 148h4v4h-4zM184 148h4v4h-4zM188 148h4v4h-4zM192 148h4v4h-4zM196 148h4v4h-4zM200 148h4v4h-4zM204 148h4v4h-4z"/><path fill="#809C39" d="M208 148h4v4h-4z"/><path fill="#5C8442" d="M212 148h4v4h-4zM216 148h4v4h-4zM220 148h4v4h-4zM224 148h4v4h-4z"/><path fill="#5B6214" d="M228 148h4v4h-4z"/><path fill="#9A712E" d="M56 152h4v4h-4z"/><path fill="#AC8749" d="M60 152h4v4h-4z"/><path fill="#5B6214" d="M68 152h4v4h-4z"/><path fill="#809C39" d="M72 152h4v4h-4zM76 152h4v4h-4z"/><path fill="#9A712E" d="M80 152h4v4h-4z"/><path fill="#AC8749" d="M84 152h4v4h-4z"/><path fill="#9A712E" d="M88 152h4v4h-4z"/><path fill="#AC8749" d="M92 152h4v4h-4z"/><path fill="#809C39" d="M96 152h4v4h-4zM100 152h4v4h-4zM104 152h4v4h-4z"/><path fill="#5B6214" d="M108 152h4v4h-4z"/><path fill="#809C39" d="M112 152h4v4h-4zM116 152h4v4h-4zM120 152h4v4h-4zM124 152h4v4h-4zM128 152h4v4h-4zM132 152h4v4h-4z"/><path fill="#5C8442" d="M136 152h4v4h-4z"/><path fill="#9A712E" d="M140 152h4v4h-4z"/><path fill="#AC8749" d="M144 152h4v4h-4z"/><path fill="#9A712E" d="M148 152h4v4h-4z"/><path fill="#AC8749" d="M152 152h4v4h-4z"/><path fill="#5C8442" d="M156 152h4v4h-4zM160 152h4v4h-4zM164 152h4v4h-4zM168 152h4v4h-4z"/><path fill="#809C39" d="M172 152h4v4h-4z"/><path fill="#8FB42F" d="M176 152h4v4h-4zM180 152h4v4h-4zM184 152h4v4h-4zM188 152h4v4h-4zM192 152h4v4h-4zM196 152h4v4h-4zM200 152h4v4h-4zM204 152h4v4h-4zM208 152h4v4h-4z"/><path fill="#5C8442" d="M212 152h4v4h-4zM216 152h4v4h-4zM220 152h4v4h-4zM224 152h4v4h-4z"/><path fill="#5B6214" d="M228 152h4v4h-4z"/><path fill="#9A712E" d="M56 156h4v4h-4z"/><path fill="#AC8749" d="M60 156h4v4h-4z"/><path fill="#5B6214" d="M68 156h4v4h-4z"/><path fill="#809C39" d="M72 156h4v4h-4z"/><path fill="#9A712E" d="M76 156h4v4h-4zM80 156h4v4h-4z"/><path fill="#AC8749" d="M84 156h4v4h-4z"/><path fill="#9A712E" d="M88 156h4v4h-4z"/><path fill="#AC8749" d="M92 156h4v4h-4z"/><path fill="#809C39" d="M96 156h4v4h-4zM100 156h4v4h-4z"/><path fill="#5B6214" d="M104 156h4v4h-4zM108 156h4v4h-4zM112 156h4v4h-4z"/><path fill="#809C39" d="M116 156h4v4h-4zM120 156h4v4h-4zM124 156h4v4h-4zM128 156h4v4h-4z"/><path fill="#5C8442" d="M132 156h4v4h-4zM136 156h4v4h-4z"/><path fill="#9A712E" d="M140 156h4v4h-4z"/><path fill="#AC8749" d="M144 156h4v4h-4z"/><path fill="#9A712E" d="M148 156h4v4h-4z"/><path fill="#AC8749" d="M152 156h4v4h-4z"/><path fill="#5C8442" d="M156 156h4v4h-4zM160 156h4v4h-4zM164 156h4v4h-4z"/><path fill="#809C39" d="M168 156h4v4h-4zM172 156h4v4h-4z"/><path fill="#8FB42F" d="M176 156h4v4h-4zM180 156h4v4h-4zM184 156h4v4h-4zM188 156h4v4h-4zM192 156h4v4h-4zM196 156h4v4h-4zM200 156h4v4h-4zM204 156h4v4h-4zM208 156h4v4h-4z"/><path fill="#809C39" d="M212 156h4v4h-4z"/><path fill="#5C8442" d="M216 156h4v4h-4zM220 156h4v4h-4zM224 156h4v4h-4zM228 156h4v4h-4z"/><path fill="#5B6214" d="M232 156h4v4h-4z"/><path fill="#9A712E" d="M56 160h4v4h-4z"/><path fill="#AC8749" d="M60 160h4v4h-4z"/><path fill="#5B6214" d="M68 160h4v4h-4z"/><path fill="#809C39" d="M72 160h4v4h-4z"/><path fill="#9A712E" d="M76 160h4v4h-4zM80 160h4v4h-4z"/><path fill="#AC8749" d="M84 160h4v4h-4z"/><path fill="#9A712E" d="M88 160h4v4h-4z"/><path fill="#AC8749" d="M92 160h4v4h-4z"/><path fill="#809C39" d="M96 160h4v4h-4z"/><path fill="#5B6214" d="M100 160h4v4h-4zM104 160h4v4h-4zM108 160h4v4h-4zM112 160h4v4h-4z"/><path fill="#809C39" d="M116 160h4v4h-4zM120 160h4v4h-4zM124 160h4v4h-4z"/><path fill="#5C8442" d="M128 160h4v4h-4zM132 160h4v4h-4z"/><path fill="#9A712E" d="M136 160h4v4h-4z"/><path fill="#AC8749" d="M140 160h4v4h-4z"/><path fill="#9A712E" d="M144 160h4v4h-4z"/><path fill="#AC8749" d="M148 160h4v4h-4z"/><path fill="#5C8442" d="M152 160h4v4h-4zM156 160h4v4h-4zM160 160h4v4h-4z"/><path fill="#809C39" d="M164 160h4v4h-4zM168 160h4v4h-4z"/><path fill="#8FB42F" d="M172 160h4v4h-4zM176 160h4v4h-4zM180 160h4v4h-4zM184 160h4v4h-4zM188 160h4v4h-4zM192 160h4v4h-4zM196 160h4v4h-4zM200 160h4v4h-4zM204 160h4v4h-4zM208 160h4v4h-4z"/><path fill="#809C39" d="M212 160h4v4h-4z"/><path fill="#5C8442" d="M216 160h4v4h-4zM220 160h4v4h-4zM224 160h4v4h-4zM228 160h4v4h-4zM232 160h4v4h-4z"/><path fill="#5B6214" d="M236 160h4v4h-4z"/><path fill="#9A712E" d="M56 164h4v4h-4z"/><path fill="#AC8749" d="M60 164h4v4h-4z"/><path fill="#5B6214" d="M72 164h4v4h-4z"/><path fill="#9A712E" d="M76 164h4v4h-4z"/><path fill="#809C39" d="M80 164h4v4h-4z"/><path fill="#9A712E" d="M84 164h4v4h-4z"/><path fill="#AC8749" d="M88 164h4v4h-4z"/><path fill="#9A712E" d="M92 164h4v4h-4z"/><path fill="#AC8749" d="M96 164h4v4h-4z"/><path fill="#5B6214" d="M100 164h4v4h-4zM104 164h4v4h-4zM108 164h4v4h-4zM112 164h4v4h-4z"/><path fill="#809C39" d="M116 164h4v4h-4zM120 164h4v4h-4z"/><path fill="#5C8442" d="M124 164h4v4h-4zM128 164h4v4h-4z"/><path fill="#9A712E" d="M132 164h4v4h-4z"/><path fill="#AC8749" d="M136 164h4v4h-4zM140 164h4v4h-4z"/><path fill="#9A712E" d="M144 164h4v4h-4zM148 164h4v4h-4z"/><path fill="#5C8442" d="M152 164h4v4h-4zM156 164h4v4h-4zM160 164h4v4h-4z"/><path fill="#8FB42F" d="M164 164h4v4h-4zM168 164h4v4h-4zM172 164h4v4h-4zM176 164h4v4h-4zM180 164h4v4h-4zM184 164h4v4h-4zM188 164h4v4h-4zM192 164h4v4h-4zM196 164h4v4h-4zM200 164h4v4h-4zM204 164h4v4h-4zM208 164h4v4h-4z"/><path fill="#809C39" d="M212 164h4v4h-4z"/><path fill="#5C8442" d="M216 164h4v4h-4zM220 164h4v4h-4zM224 164h4v4h-4zM228 164h4v4h-4zM232 164h4v4h-4z"/><path fill="#5B6214" d="M236 164h4v4h-4z"/><path fill="#9A712E" d="M56 168h4v4h-4z"/><path fill="#AC8749" d="M60 168h4v4h-4z"/><path fill="#5B6214" d="M72 168h4v4h-4z"/><path fill="#9A712E" d="M76 168h4v4h-4z"/><path fill="#809C39" d="M80 168h4v4h-4z"/><path fill="#9A712E" d="M84 168h4v4h-4z"/><path fill="#AC8749" d="M88 168h4v4h-4z"/><path fill="#9A712E" d="M92 168h4v4h-4z"/><path fill="#AC8749" d="M96 168h4v4h-4z"/><path fill="#809C39" d="M100 168h4v4h-4z"/><path fill="#5B6214" d="M104 168h4v4h-4zM108 168h4v4h-4z"/><path fill="#809C39" d="M112 168h4v4h-4zM116 168h4v4h-4z"/><path fill="#5C8442" d="M120 168h4v4h-4zM124 168h4v4h-4z"/><path fill="#9A712E" d="M128 168h4v4h-4z"/><path fill="#AC8749" d="M132 168h4v4h-4zM136 168h4v4h-4z"/><path fill="#9A712E" d="M140 168h4v4h-4zM144 168h4v4h-4z"/><path fill="#5C8442" d="M148 168h4v4h-4zM152 168h4v4h-4zM156 168h4v4h-4z"/><path fill="#809C39" d="M160 168h4v4h-4zM164 168h4v4h-4z"/><path fill="#8FB42F" d="M168 168h4v4h-4zM172 168h4v4h-4z"/><path fill="#5B6214" d="M176 168h4v4h-4z"/><path fill="#8FB42F" d="M180 168h4v4h-4zM184 168h4v4h-4zM188 168h4v4h-4zM192 168h4v4h-4zM196 168h4v4h-4zM200 168h4v4h-4zM204 168h4v4h-4zM208 168h4v4h-4z"/><path fill="#809C39" d="M212 168h4v4h-4z"/><path fill="#5C8442" d="M216 168h4v4h-4zM220 168h4v4h-4zM224 168h4v4h-4zM228 168h4v4h-4zM232 168h4v4h-4zM236 168h4v4h-4z"/><path fill="#5B6214" d="M240 168h4v4h-4z"/><path fill="#AC8749" d="M60 172h4v4h-4z"/><path fill="#5B6214" d="M76 172h4v4h-4z"/><path fill="#809C39" d="M80 172h4v4h-4zM84 172h4v4h-4z"/><path fill="#9A712E" d="M88 172h4v4h-4z"/><path fill="#AC8749" d="M92 172h4v4h-4zM96 172h4v4h-4z"/><path fill="#809C39" d="M100 172h4v4h-4zM104 172h4v4h-4zM108 172h4v4h-4z"/><path fill="#5C8442" d="M112 172h4v4h-4zM116 172h4v4h-4z"/><path fill="#9A712E" d="M120 172h4v4h-4z"/><path fill="#AC8749" d="M124 172h4v4h-4zM128 172h4v4h-4zM132 172h4v4h-4z"/><path fill="#9A712E" d="M136 172h4v4h-4zM140 172h4v4h-4z"/><path fill="#5C8442" d="M144 172h4v4h-4zM148 172h4v4h-4zM152 172h4v4h-4z"/><path fill="#809C39" d="M156 172h4v4h-4zM160 172h4v4h-4zM164 172h4v4h-4zM168 172h4v4h-4z"/><path fill="#5B6214" d="M172 172h4v4h-4zM176 172h4v4h-4zM180 172h4v4h-4z"/><path fill="#8FB42F" d="M184 172h4v4h-4zM188 172h4v4h-4zM192 172h4v4h-4zM196 172h4v4h-4zM200 172h4v4h-4zM204 172h4v4h-4zM208 172h4v4h-4zM212 172h4v4h-4z"/><path fill="#5C8442" d="M216 172h4v4h-4zM220 172h4v4h-4zM224 172h4v4h-4zM228 172h4v4h-4zM232 172h4v4h-4zM236 172h4v4h-4z"/><path fill="#5B6214" d="M240 172h4v4h-4z"/><path fill="#AC8749" d="M60 176h4v4h-4z"/><path fill="#5B6214" d="M76 176h4v4h-4z"/><path fill="#5C8442" d="M80 176h4v4h-4zM84 176h4v4h-4zM88 176h4v4h-4z"/><path fill="#9A712E" d="M92 176h4v4h-4z"/><path fill="#AC8749" d="M96 176h4v4h-4zM100 176h4v4h-4z"/><path fill="#5B6214" d="M104 176h4v4h-4z"/><path fill="#9A712E" d="M108 176h4v4h-4z"/><path fill="#AC8749" d="M112 176h4v4h-4zM116 176h4v4h-4zM120 176h4v4h-4zM124 176h4v4h-4z"/><path fill="#9A712E" d="M128 176h4v4h-4zM132 176h4v4h-4zM136 176h4v4h-4z"/><path fill="#5C8442" d="M140 176h4v4h-4zM144 176h4v4h-4zM148 176h4v4h-4z"/><path fill="#809C39" d="M152 176h4v4h-4zM156 176h4v4h-4zM160 176h4v4h-4zM164 176h4v4h-4zM168 176h4v4h-4z"/><path fill="#5B6214" d="M172 176h4v4h-4zM176 176h4v4h-4zM180 176h4v4h-4z"/><path fill="#8FB42F" d="M184 176h4v4h-4zM188 176h4v4h-4zM192 176h4v4h-4zM196 176h4v4h-4zM200 176h4v4h-4zM204 176h4v4h-4zM208 176h4v4h-4z"/><path fill="#5C8442" d="M212 176h4v4h-4zM216 176h4v4h-4zM220 176h4v4h-4zM224 176h4v4h-4zM228 176h4v4h-4zM232 176h4v4h-4zM236 176h4v4h-4z"/><path fill="#5B6214" d="M240 176h4v4h-4z"/><path fill="#9A712E" d="M72 180h4v4h-4z"/><path fill="#AC8749" d="M76 180h4v4h-4zM80 180h4v4h-4zM84 180h4v4h-4zM88 180h4v4h-4zM92 180h4v4h-4zM96 180h4v4h-4zM100 180h4v4h-4zM104 180h4v4h-4zM108 180h4v4h-4zM112 180h4v4h-4z"/><path fill="#5B6214" d="M116 180h4v4h-4z"/><path fill="#9A712E" d="M120 180h4v4h-4zM124 180h4v4h-4z"/><path fill="#AC8749" d="M128 180h4v4h-4z"/><path fill="#9A712E" d="M132 180h4v4h-4z"/><path fill="#5C8442" d="M136 180h4v4h-4zM140 180h4v4h-4zM144 180h4v4h-4z"/><path fill="#809C39" d="M148 180h4v4h-4zM152 180h4v4h-4zM156 180h4v4h-4zM160 180h4v4h-4zM164 180h4v4h-4z"/><path fill="#5B6214" d="M168 180h4v4h-4zM172 180h4v4h-4zM176 180h4v4h-4zM180 180h4v4h-4z"/><path fill="#8FB42F" d="M184 180h4v4h-4zM188 180h4v4h-4zM192 180h4v4h-4zM196 180h4v4h-4zM200 180h4v4h-4zM204 180h4v4h-4zM208 180h4v4h-4z"/><path fill="#5C8442" d="M212 180h4v4h-4zM216 180h4v4h-4zM220 180h4v4h-4zM224 180h4v4h-4zM228 180h4v4h-4zM232 180h4v4h-4zM236 180h4v4h-4zM240 180h4v4h-4z"/><path fill="#5B6214" d="M244 180h4v4h-4z"/><path fill="#9A712E" d="M76 184h4v4h-4z"/><path fill="#AC8749" d="M80 184h4v4h-4z"/><path fill="#9A712E" d="M84 184h4v4h-4zM88 184h4v4h-4zM92 184h4v4h-4zM96 184h4v4h-4zM100 184h4v4h-4zM104 184h4v4h-4zM108 184h4v4h-4z"/><path fill="#5B6214" d="M112 184h4v4h-4zM116 184h4v4h-4z"/><path fill="#9A712E" d="M120 184h4v4h-4z"/><path fill="#AC8749" d="M124 184h4v4h-4z"/><path fill="#9A712E" d="M128 184h4v4h-4z"/><path fill="#5C8442" d="M132 184h4v4h-4zM136 184h4v4h-4zM140 184h4v4h-4z"/><path fill="#809C39" d="M144 184h4v4h-4zM148 184h4v4h-4z"/><path fill="#5B6214" d="M152 184h4v4h-4zM156 184h4v4h-4z"/><path fill="#809C39" d="M160 184h4v4h-4zM164 184h4v4h-4z"/><path fill="#5B6214" d="M168 184h4v4h-4zM172 184h4v4h-4zM176 184h4v4h-4z"/><path fill="#809C39" d="M180 184h4v4h-4zM184 184h4v4h-4z"/><path fill="#8FB42F" d="M188 184h4v4h-4zM192 184h4v4h-4zM196 184h4v4h-4zM200 184h4v4h-4zM204 184h4v4h-4z"/><path fill="#809C39" d="M208 184h4v4h-4z"/><path fill="#5C8442" d="M212 184h4v4h-4zM216 184h4v4h-4zM220 184h4v4h-4zM224 184h4v4h-4zM228 184h4v4h-4zM232 184h4v4h-4zM236 184h4v4h-4zM240 184h4v4h-4z"/><path fill="#5B6214" d="M244 184h4v4h-4zM76 188h4v4h-4z"/><path fill="#9A712E" d="M80 188h4v4h-4z"/><path fill="#AC8749" d="M84 188h4v4h-4zM88 188h4v4h-4zM92 188h4v4h-4zM96 188h4v4h-4zM100 188h4v4h-4zM104 188h4v4h-4z"/><path fill="#5B6214" d="M108 188h4v4h-4zM112 188h4v4h-4zM116 188h4v4h-4z"/><path fill="#9A712E" d="M120 188h4v4h-4zM124 188h4v4h-4z"/><path fill="#5C8442" d="M128 188h4v4h-4zM132 188h4v4h-4zM136 188h4v4h-4z"/><path fill="#809C39" d="M140 188h4v4h-4zM144 188h4v4h-4z"/><path fill="#5B6214" d="M148 188h4v4h-4zM152 188h4v4h-4zM156 188h4v4h-4zM160 188h4v4h-4z"/><path fill="#809C39" d="M164 188h4v4h-4zM168 188h4v4h-4zM172 188h4v4h-4zM176 188h4v4h-4zM180 188h4v4h-4zM184 188h4v4h-4zM188 188h4v4h-4z"/><path fill="#8FB42F" d="M192 188h4v4h-4zM196 188h4v4h-4z"/><path fill="#809C39" d="M200 188h4v4h-4zM204 188h4v4h-4z"/><path fill="#5C8442" d="M208 188h4v4h-4zM212 188h4v4h-4zM216 188h4v4h-4zM220 188h4v4h-4zM224 188h4v4h-4zM228 188h4v4h-4zM232 188h4v4h-4zM236 188h4v4h-4zM240 188h4v4h-4z"/><path fill="#5B6214" d="M244 188h4v4h-4zM76 192h4v4h-4z"/><path fill="#809C39" d="M80 192h4v4h-4z"/><path fill="#9A712E" d="M84 192h4v4h-4zM88 192h4v4h-4zM92 192h4v4h-4zM96 192h4v4h-4zM100 192h4v4h-4z"/><path fill="#5B6214" d="M104 192h4v4h-4z"/><path fill="#9A712E" d="M108 192h4v4h-4z"/><path fill="#5B6214" d="M112 192h4v4h-4zM116 192h4v4h-4z"/><path fill="#5C8442" d="M120 192h4v4h-4zM124 192h4v4h-4zM128 192h4v4h-4z"/><path fill="#809C39" d="M132 192h4v4h-4zM136 192h4v4h-4zM140 192h4v4h-4z"/><path fill="#5B6214" d="M144 192h4v4h-4zM148 192h4v4h-4zM152 192h4v4h-4zM156 192h4v4h-4zM160 192h4v4h-4z"/><path fill="#809C39" d="M164 192h4v4h-4zM168 192h4v4h-4zM172 192h4v4h-4zM176 192h4v4h-4zM180 192h4v4h-4zM184 192h4v4h-4zM188 192h4v4h-4zM192 192h4v4h-4zM196 192h4v4h-4z"/><path fill="#8FB42F" d="M200 192h4v4h-4z"/><path fill="#809C39" d="M204 192h4v4h-4z"/><path fill="#5C8442" d="M208 192h4v4h-4zM212 192h4v4h-4zM216 192h4v4h-4zM220 192h4v4h-4zM224 192h4v4h-4zM228 192h4v4h-4zM232 192h4v4h-4zM236 192h4v4h-4zM240 192h4v4h-4z"/><path fill="#5B6214" d="M244 192h4v4h-4zM76 196h4v4h-4z"/><path fill="#809C39" d="M80 196h4v4h-4zM84 196h4v4h-4zM88 196h4v4h-4zM92 196h4v4h-4z"/><path fill="#5B6214" d="M96 196h4v4h-4zM100 196h4v4h-4zM104 196h4v4h-4zM108 196h4v4h-4zM112 196h4v4h-4zM116 196h4v4h-4z"/><path fill="#5C8442" d="M120 196h4v4h-4zM124 196h4v4h-4z"/><path fill="#809C39" d="M128 196h4v4h-4zM132 196h4v4h-4zM136 196h4v4h-4zM140 196h4v4h-4z"/><path fill="#5B6214" d="M144 196h4v4h-4zM148 196h4v4h-4zM152 196h4v4h-4zM156 196h4v4h-4zM160 196h4v4h-4z"/><path fill="#809C39" d="M164 196h4v4h-4zM168 196h4v4h-4z"/><path fill="#5B6214" d="M172 196h4v4h-4zM176 196h4v4h-4z"/><path fill="#809C39" d="M180 196h4v4h-4zM184 196h4v4h-4zM188 196h4v4h-4zM192 196h4v4h-4zM196 196h4v4h-4z"/><path fill="#8FB42F" d="M200 196h4v4h-4z"/><path fill="#5C8442" d="M204 196h4v4h-4zM208 196h4v4h-4zM212 196h4v4h-4zM216 196h4v4h-4zM220 196h4v4h-4zM224 196h4v4h-4zM228 196h4v4h-4zM232 196h4v4h-4zM236 196h4v4h-4zM240 196h4v4h-4z"/><path fill="#5B6214" d="M244 196h4v4h-4zM76 200h4v4h-4z"/><path fill="#809C39" d="M80 200h4v4h-4zM84 200h4v4h-4zM88 200h4v4h-4zM92 200h4v4h-4zM96 200h4v4h-4zM100 200h4v4h-4zM104 200h4v4h-4zM108 200h4v4h-4z"/><path fill="#5B6214" d="M112 200h4v4h-4zM116 200h4v4h-4z"/><path fill="#809C39" d="M120 200h4v4h-4zM124 200h4v4h-4zM128 200h4v4h-4zM132 200h4v4h-4zM136 200h4v4h-4zM140 200h4v4h-4z"/><path fill="#5B6214" d="M144 200h4v4h-4zM148 200h4v4h-4zM152 200h4v4h-4zM156 200h4v4h-4z"/><path fill="#809C39" d="M160 200h4v4h-4zM164 200h4v4h-4z"/><path fill="#5B6214" d="M168 200h4v4h-4zM172 200h4v4h-4zM176 200h4v4h-4z"/><path fill="#809C39" d="M180 200h4v4h-4zM184 200h4v4h-4zM188 200h4v4h-4zM192 200h4v4h-4zM196 200h4v4h-4z"/><path fill="#5C8442" d="M200 200h4v4h-4zM204 200h4v4h-4zM208 200h4v4h-4zM212 200h4v4h-4zM216 200h4v4h-4zM220 200h4v4h-4zM224 200h4v4h-4zM228 200h4v4h-4zM232 200h4v4h-4zM236 200h4v4h-4zM240 200h4v4h-4z"/><path fill="#5B6214" d="M244 200h4v4h-4zM80 204h4v4h-4z"/><path fill="#809C39" d="M84 204h4v4h-4zM88 204h4v4h-4zM92 204h4v4h-4zM96 204h4v4h-4zM100 204h4v4h-4zM104 204h4v4h-4zM108 204h4v4h-4zM112 204h4v4h-4z"/><path fill="#5B6214" d="M116 204h4v4h-4z"/><path fill="#809C39" d="M120 204h4v4h-4zM124 204h4v4h-4zM128 204h4v4h-4zM132 204h4v4h-4zM136 204h4v4h-4zM140 204h4v4h-4zM144 204h4v4h-4z"/><path fill="#5B6214" d="M148 204h4v4h-4zM152 204h4v4h-4z"/><path fill="#809C39" d="M156 204h4v4h-4zM160 204h4v4h-4zM164 204h4v4h-4z"/><path fill="#5B6214" d="M168 204h4v4h-4zM172 204h4v4h-4zM176 204h4v4h-4z"/><path fill="#809C39" d="M180 204h4v4h-4zM184 204h4v4h-4zM188 204h4v4h-4zM192 204h4v4h-4z"/><path fill="#5C8442" d="M196 204h4v4h-4zM200 204h4v4h-4zM204 204h4v4h-4zM208 204h4v4h-4zM212 204h4v4h-4zM216 204h4v4h-4zM220 204h4v4h-4zM224 204h4v4h-4zM228 204h4v4h-4zM232 204h4v4h-4zM236 204h4v4h-4zM240 204h4v4h-4z"/><path fill="#5B6214" d="M244 204h4v4h-4zM84 208h4v4h-4z"/><path fill="#809C39" d="M88 208h4v4h-4zM92 208h4v4h-4zM96 208h4v4h-4zM100 208h4v4h-4zM104 208h4v4h-4zM108 208h4v4h-4zM112 208h4v4h-4z"/><path fill="#5B6214" d="M116 208h4v4h-4z"/><path fill="#809C39" d="M120 208h4v4h-4zM124 208h4v4h-4zM128 208h4v4h-4zM132 208h4v4h-4zM136 208h4v4h-4zM140 208h4v4h-4zM144 208h4v4h-4zM148 208h4v4h-4zM152 208h4v4h-4zM156 208h4v4h-4zM160 208h4v4h-4zM164 208h4v4h-4z"/><path fill="#5B6214" d="M168 208h4v4h-4zM172 208h4v4h-4z"/><path fill="#809C39" d="M176 208h4v4h-4zM180 208h4v4h-4zM184 208h4v4h-4zM188 208h4v4h-4z"/><path fill="#5C8442" d="M192 208h4v4h-4zM196 208h4v4h-4zM200 208h4v4h-4zM204 208h4v4h-4zM208 208h4v4h-4zM212 208h4v4h-4zM216 208h4v4h-4zM220 208h4v4h-4zM224 208h4v4h-4zM228 208h4v4h-4zM232 208h4v4h-4zM236 208h4v4h-4zM240 208h4v4h-4z"/><path fill="#5B6214" d="M244 208h4v4h-4zM84 212h4v4h-4zM88 212h4v4h-4zM92 212h4v4h-4zM96 212h4v4h-4zM100 212h4v4h-4zM104 212h4v4h-4zM108 212h4v4h-4z"/><path fill="#809C39" d="M112 212h4v4h-4z"/><path fill="#5B6214" d="M116 212h4v4h-4z"/><path fill="#809C39" d="M120 212h4v4h-4z"/><path fill="#5B6214" d="M124 212h4v4h-4z"/><path fill="#809C39" d="M128 212h4v4h-4zM132 212h4v4h-4zM136 212h4v4h-4zM140 212h4v4h-4zM144 212h4v4h-4zM148 212h4v4h-4zM152 212h4v4h-4zM156 212h4v4h-4zM160 212h4v4h-4zM164 212h4v4h-4zM168 212h4v4h-4zM172 212h4v4h-4zM176 212h4v4h-4zM180 212h4v4h-4zM184 212h4v4h-4z"/><path fill="#5C8442" d="M188 212h4v4h-4zM192 212h4v4h-4zM196 212h4v4h-4zM200 212h4v4h-4zM204 212h4v4h-4zM208 212h4v4h-4zM212 212h4v4h-4zM216 212h4v4h-4zM220 212h4v4h-4zM224 212h4v4h-4zM228 212h4v4h-4zM232 212h4v4h-4zM236 212h4v4h-4zM240 212h4v4h-4z"/><path fill="#5B6214" d="M244 212h4v4h-4zM92 216h4v4h-4zM96 216h4v4h-4zM100 216h4v4h-4zM104 216h4v4h-4zM108 216h4v4h-4zM112 216h4v4h-4zM116 216h4v4h-4zM120 216h4v4h-4zM124 216h4v4h-4zM128 216h4v4h-4z"/><path fill="#809C39" d="M132 216h4v4h-4zM136 216h4v4h-4zM140 216h4v4h-4zM144 216h4v4h-4zM148 216h4v4h-4zM152 216h4v4h-4zM156 216h4v4h-4zM160 216h4v4h-4zM164 216h4v4h-4zM168 216h4v4h-4zM172 216h4v4h-4zM176 216h4v4h-4zM180 216h4v4h-4z"/><path fill="#5C8442" d="M184 216h4v4h-4zM188 216h4v4h-4zM192 216h4v4h-4zM196 216h4v4h-4zM200 216h4v4h-4zM204 216h4v4h-4zM208 216h4v4h-4zM212 216h4v4h-4zM216 216h4v4h-4zM220 216h4v4h-4zM224 216h4v4h-4zM228 216h4v4h-4zM232 216h4v4h-4zM236 216h4v4h-4zM240 216h4v4h-4z"/><path fill="#5B6214" d="M244 216h4v4h-4zM92 220h4v4h-4zM96 220h4v4h-4zM100 220h4v4h-4zM104 220h4v4h-4zM108 220h4v4h-4z"/><path fill="#809C39" d="M112 220h4v4h-4z"/><path fill="#5B6214" d="M116 220h4v4h-4zM120 220h4v4h-4zM124 220h4v4h-4zM128 220h4v4h-4z"/><path fill="#809C39" d="M132 220h4v4h-4zM136 220h4v4h-4zM140 220h4v4h-4zM144 220h4v4h-4zM148 220h4v4h-4zM152 220h4v4h-4zM156 220h4v4h-4zM160 220h4v4h-4zM164 220h4v4h-4zM168 220h4v4h-4zM172 220h4v4h-4zM176 220h4v4h-4z"/><path fill="#5C8442" d="M180 220h4v4h-4zM184 220h4v4h-4zM188 220h4v4h-4zM192 220h4v4h-4zM196 220h4v4h-4zM200 220h4v4h-4zM204 220h4v4h-4zM208 220h4v4h-4zM212 220h4v4h-4zM216 220h4v4h-4zM220 220h4v4h-4zM224 220h4v4h-4zM228 220h4v4h-4zM232 220h4v4h-4zM236 220h4v4h-4zM240 220h4v4h-4z"/><path fill="#5B6214" d="M244 220h4v4h-4zM92 224h4v4h-4zM96 224h4v4h-4zM100 224h4v4h-4z"/><path fill="#809C39" d="M104 224h4v4h-4zM108 224h4v4h-4zM112 224h4v4h-4zM116 224h4v4h-4zM120 224h4v4h-4z"/><path fill="#5B6214" d="M124 224h4v4h-4z"/><path fill="#809C39" d="M128 224h4v4h-4zM132 224h4v4h-4zM136 224h4v4h-4zM140 224h4v4h-4zM144 224h4v4h-4zM148 224h4v4h-4zM152 224h4v4h-4zM156 224h4v4h-4zM160 224h4v4h-4zM164 224h4v4h-4zM168 224h4v4h-4zM172 224h4v4h-4z"/><path fill="#5C8442" d="M176 224h4v4h-4zM180 224h4v4h-4zM184 224h4v4h-4zM188 224h4v4h-4zM192 224h4v4h-4zM196 224h4v4h-4zM200 224h4v4h-4zM204 224h4v4h-4zM208 224h4v4h-4zM212 224h4v4h-4zM216 224h4v4h-4zM220 224h4v4h-4zM224 224h4v4h-4zM228 224h4v4h-4zM232 224h4v4h-4zM236 224h4v4h-4z"/><path fill="#5B6214" d="M240 224h4v4h-4zM92 228h4v4h-4zM96 228h4v4h-4zM104 228h4v4h-4z"/><path fill="#809C39" d="M108 228h4v4h-4z"/><path fill="#5B6214" d="M112 228h4v4h-4zM116 228h4v4h-4zM120 228h4v4h-4z"/><path fill="#809C39" d="M124 228h4v4h-4zM128 228h4v4h-4zM132 228h4v4h-4zM136 228h4v4h-4zM140 228h4v4h-4zM144 228h4v4h-4zM148 228h4v4h-4zM152 228h4v4h-4zM156 228h4v4h-4zM160 228h4v4h-4zM164 228h4v4h-4z"/><path fill="#5C8442" d="M168 228h4v4h-4zM172 228h4v4h-4zM176 228h4v4h-4zM180 228h4v4h-4zM184 228h4v4h-4zM188 228h4v4h-4zM192 228h4v4h-4zM196 228h4v4h-4zM200 228h4v4h-4zM204 228h4v4h-4zM208 228h4v4h-4zM212 228h4v4h-4zM216 228h4v4h-4zM220 228h4v4h-4zM224 228h4v4h-4zM228 228h4v4h-4zM232 228h4v4h-4zM236 228h4v4h-4z"/><path fill="#5B6214" d="M240 228h4v4h-4zM92 232h4v4h-4zM96 232h4v4h-4zM104 232h4v4h-4zM108 232h4v4h-4zM112 232h4v4h-4zM116 232h4v4h-4zM120 232h4v4h-4z"/><path fill="#809C39" d="M124 232h4v4h-4zM128 232h4v4h-4zM132 232h4v4h-4zM136 232h4v4h-4zM140 232h4v4h-4zM144 232h4v4h-4zM148 232h4v4h-4zM152 232h4v4h-4z"/><path fill="#5C8442" d="M156 232h4v4h-4zM160 232h4v4h-4zM164 232h4v4h-4zM168 232h4v4h-4zM172 232h4v4h-4zM176 232h4v4h-4zM180 232h4v4h-4zM184 232h4v4h-4zM188 232h4v4h-4zM192 232h4v4h-4zM196 232h4v4h-4zM200 232h4v4h-4zM204 232h4v4h-4zM208 232h4v4h-4zM212 232h4v4h-4zM216 232h4v4h-4zM220 232h4v4h-4zM224 232h4v4h-4zM228 232h4v4h-4zM232 232h4v4h-4z"/><path fill="#5B6214" d="M236 232h4v4h-4zM96 236h4v4h-4zM104 236h4v4h-4zM112 236h4v4h-4z"/><path fill="#5C8442" d="M116 236h4v4h-4zM120 236h4v4h-4zM124 236h4v4h-4zM128 236h4v4h-4zM132 236h4v4h-4zM136 236h4v4h-4zM140 236h4v4h-4zM144 236h4v4h-4zM148 236h4v4h-4zM152 236h4v4h-4zM156 236h4v4h-4zM160 236h4v4h-4zM164 236h4v4h-4zM168 236h4v4h-4zM172 236h4v4h-4zM176 236h4v4h-4zM180 236h4v4h-4zM184 236h4v4h-4zM188 236h4v4h-4zM192 236h4v4h-4zM196 236h4v4h-4zM200 236h4v4h-4zM204 236h4v4h-4zM208 236h4v4h-4zM212 236h4v4h-4zM216 236h4v4h-4zM220 236h4v4h-4zM224 236h4v4h-4zM228 236h4v4h-4z"/><path fill="#5B6214" d="M232 236h4v4h-4zM104 240h4v4h-4zM116 240h4v4h-4z"/><path fill="#5C8442" d="M120 240h4v4h-4zM124 240h4v4h-4zM128 240h4v4h-4zM132 240h4v4h-4zM136 240h4v4h-4zM140 240h4v4h-4zM144 240h4v4h-4zM148 240h4v4h-4zM152 240h4v4h-4zM156 240h4v4h-4zM160 240h4v4h-4zM164 240h4v4h-4zM168 240h4v4h-4zM172 240h4v4h-4zM176 240h4v4h-4zM180 240h4v4h-4zM184 240h4v4h-4z"/><path fill="#809C39" d="M188 240h4v4h-4zM192 240h4v4h-4z"/><path fill="#5C8442" d="M196 240h4v4h-4zM200 240h4v4h-4zM204 240h4v4h-4zM208 240h4v4h-4zM212 240h4v4h-4zM216 240h4v4h-4zM220 240h4v4h-4zM224 240h4v4h-4zM228 240h4v4h-4z"/><path fill="#5B6214" d="M232 240h4v4h-4zM104 244h4v4h-4zM116 244h4v4h-4z"/><path fill="#5C8442" d="M120 244h4v4h-4zM124 244h4v4h-4zM128 244h4v4h-4zM132 244h4v4h-4zM136 244h4v4h-4zM140 244h4v4h-4zM144 244h4v4h-4zM148 244h4v4h-4zM152 244h4v4h-4zM156 244h4v4h-4zM160 244h4v4h-4zM164 244h4v4h-4zM168 244h4v4h-4zM172 244h4v4h-4zM176 244h4v4h-4z"/><path fill="#809C39" d="M180 244h4v4h-4zM184 244h4v4h-4zM188 244h4v4h-4zM192 244h4v4h-4zM196 244h4v4h-4z"/><path fill="#5C8442" d="M200 244h4v4h-4zM204 244h4v4h-4zM208 244h4v4h-4zM212 244h4v4h-4zM216 244h4v4h-4zM220 244h4v4h-4zM224 244h4v4h-4z"/><path fill="#5B6214" d="M228 244h4v4h-4zM104 248h4v4h-4zM116 248h4v4h-4z"/><path fill="#5C8442" d="M120 248h4v4h-4zM124 248h4v4h-4zM128 248h4v4h-4zM132 248h4v4h-4zM136 248h4v4h-4zM140 248h4v4h-4zM144 248h4v4h-4zM148 248h4v4h-4zM152 248h4v4h-4zM156 248h4v4h-4zM160 248h4v4h-4zM164 248h4v4h-4z"/><path fill="#809C39" d="M168 248h4v4h-4zM172 248h4v4h-4zM176 248h4v4h-4zM180 248h4v4h-4zM184 248h4v4h-4zM188 248h4v4h-4zM192 248h4v4h-4zM196 248h4v4h-4zM200 248h4v4h-4z"/><path fill="#5C8442" d="M204 248h4v4h-4zM208 248h4v4h-4zM212 248h4v4h-4zM216 248h4v4h-4zM220 248h4v4h-4z"/><path fill="#5B6214" d="M224 248h4v4h-4zM104 252h4v4h-4zM116 252h4v4h-4z"/><path fill="#809C39" d="M120 252h4v4h-4z"/><path fill="#5C8442" d="M124 252h4v4h-4zM128 252h4v4h-4zM132 252h4v4h-4zM136 252h4v4h-4zM140 252h4v4h-4zM144 252h4v4h-4zM148 252h4v4h-4zM152 252h4v4h-4zM156 252h4v4h-4zM160 252h4v4h-4z"/><path fill="#809C39" d="M164 252h4v4h-4zM168 252h4v4h-4zM172 252h4v4h-4zM176 252h4v4h-4zM180 252h4v4h-4zM184 252h4v4h-4zM188 252h4v4h-4zM192 252h4v4h-4zM196 252h4v4h-4zM200 252h4v4h-4zM204 252h4v4h-4z"/><path fill="#5C8442" d="M208 252h4v4h-4zM212 252h4v4h-4zM216 252h4v4h-4z"/><path fill="#5B6214" d="M220 252h4v4h-4zM104 256h4v4h-4zM112 256h4v4h-4z"/><path fill="#809C39" d="M116 256h4v4h-4zM120 256h4v4h-4zM124 256h4v4h-4zM128 256h4v4h-4zM132 256h4v4h-4z"/><path fill="#5C8442" d="M136 256h4v4h-4zM140 256h4v4h-4zM144 256h4v4h-4zM148 256h4v4h-4zM152 256h4v4h-4z"/><path fill="#809C39" d="M156 256h4v4h-4zM160 256h4v4h-4zM164 256h4v4h-4zM168 256h4v4h-4zM172 256h4v4h-4zM176 256h4v4h-4zM180 256h4v4h-4zM184 256h4v4h-4zM188 256h4v4h-4zM192 256h4v4h-4zM196 256h4v4h-4zM200 256h4v4h-4zM204 256h4v4h-4z"/><path fill="#5C8442" d="M208 256h4v4h-4zM212 256h4v4h-4z"/><path fill="#5B6214" d="M216 256h4v4h-4zM104 260h4v4h-4zM112 260h4v4h-4z"/><path fill="#809C39" d="M116 260h4v4h-4zM120 260h4v4h-4zM124 260h4v4h-4zM128 260h4v4h-4zM132 260h4v4h-4zM136 260h4v4h-4zM140 260h4v4h-4zM144 260h4v4h-4zM148 260h4v4h-4zM152 260h4v4h-4zM156 260h4v4h-4zM160 260h4v4h-4zM164 260h4v4h-4zM168 260h4v4h-4zM172 260h4v4h-4zM176 260h4v4h-4zM180 260h4v4h-4zM184 260h4v4h-4zM188 260h4v4h-4zM192 260h4v4h-4zM196 260h4v4h-4zM200 260h4v4h-4z"/><path fill="#5C8442" d="M204 260h4v4h-4zM208 260h4v4h-4z"/><path fill="#5B6214" d="M212 260h4v4h-4zM104 264h4v4h-4zM112 264h4v4h-4z"/><path fill="#809C39" d="M116 264h4v4h-4zM120 264h4v4h-4zM124 264h4v4h-4zM128 264h4v4h-4zM132 264h4v4h-4zM136 264h4v4h-4zM140 264h4v4h-4zM144 264h4v4h-4zM148 264h4v4h-4zM152 264h4v4h-4zM156 264h4v4h-4zM160 264h4v4h-4zM164 264h4v4h-4zM168 264h4v4h-4zM172 264h4v4h-4zM176 264h4v4h-4zM180 264h4v4h-4zM184 264h4v4h-4zM188 264h4v4h-4zM192 264h4v4h-4zM196 264h4v4h-4zM200 264h4v4h-4z"/><path fill="#5C8442" d="M204 264h4v4h-4z"/><path fill="#5B6214" d="M208 264h4v4h-4zM116 268h4v4h-4z"/><path fill="#809C39" d="M120 268h4v4h-4zM124 268h4v4h-4zM128 268h4v4h-4zM132 268h4v4h-4zM136 268h4v4h-4zM140 268h4v4h-4zM144 268h4v4h-4zM148 268h4v4h-4zM152 268h4v4h-4zM156 268h4v4h-4zM160 268h4v4h-4zM164 268h4v4h-4zM168 268h4v4h-4zM172 268h4v4h-4zM176 268h4v4h-4zM180 268h4v4h-4zM184 268h4v4h-4zM188 268h4v4h-4zM192 268h4v4h-4zM196 268h4v4h-4zM200 268h4v4h-4z"/><path fill="#5B6214" d="M204 268h4v4h-4zM116 272h4v4h-4z"/><path fill="#809C39" d="M120 272h4v4h-4zM124 272h4v4h-4zM128 272h4v4h-4zM132 272h4v4h-4zM136 272h4v4h-4zM140 272h4v4h-4zM144 272h4v4h-4zM148 272h4v4h-4zM152 272h4v4h-4zM156 272h4v4h-4zM160 272h4v4h-4zM164 272h4v4h-4zM168 272h4v4h-4zM172 272h4v4h-4zM176 272h4v4h-4zM180 272h4v4h-4zM184 272h4v4h-4zM188 272h4v4h-4zM192 272h4v4h-4z"/><path fill="#5B6214" d="M196 272h4v4h-4zM200 272h4v4h-4zM120 276h4v4h-4z"/><path fill="#809C39" d="M124 276h4v4h-4zM128 276h4v4h-4zM132 276h4v4h-4zM136 276h4v4h-4zM140 276h4v4h-4zM144 276h4v4h-4zM148 276h4v4h-4zM152 276h4v4h-4zM156 276h4v4h-4zM160 276h4v4h-4zM164 276h4v4h-4zM168 276h4v4h-4zM172 276h4v4h-4zM176 276h4v4h-4zM180 276h4v4h-4zM184 276h4v4h-4z"/><path fill="#5B6214" d="M188 276h4v4h-4zM192 276h4v4h-4zM124 280h4v4h-4z"/><path fill="#809C39" d="M128 280h4v4h-4zM132 280h4v4h-4zM136 280h4v4h-4zM140 280h4v4h-4zM144 280h4v4h-4zM148 280h4v4h-4zM152 280h4v4h-4zM156 280h4v4h-4zM160 280h4v4h-4zM164 280h4v4h-4zM168 280h4v4h-4zM172 280h4v4h-4zM176 280h4v4h-4z"/><path fill="#5B6214" d="M180 280h4v4h-4zM184 280h4v4h-4zM128 284h4v4h-4zM132 284h4v4h-4z"/><path fill="#809C39" d="M136 284h4v4h-4zM140 284h4v4h-4zM144 284h4v4h-4zM148 284h4v4h-4zM152 284h4v4h-4zM156 284h4v4h-4zM160 284h4v4h-4z"/><path fill="#5B6214" d="M164 284h4v4h-4zM168 284h4v4h-4zM172 284h4v4h-4zM176 284h4v4h-4zM136 288h4v4h-4zM140 288h4v4h-4zM144 288h4v4h-4zM148 288h4v4h-4zM152 288h4v4h-4zM156 288h4v4h-4zM160 288h4v4h-4z"/></svg>