<svg width="384" height="384" xmlns="http://www.w3.org/2000/svg" shape-rendering="crispEdges"><path fill="#00524E" d="M196 80h4v4h-4zM200 80h4v4h-4zM204 80h4v4h-4zM168 84h4v4h-4zM172 84h4v4h-4zM184 84h4v4h-4zM188 84h4v4h-4zM192 84h4v4h-4z"/><path fill="#FF869C" d="M196 84h4v4h-4zM200 84h4v4h-4z"/><path fill="#00524E" d="M204 84h4v4h-4zM128 88h4v4h-4zM132 88h4v4h-4zM164 88h4v4h-4z"/><path fill="#4F963A" d="M168 88h4v4h-4zM172 88h4v4h-4z"/><path fill="#00524E" d="M176 88h4v4h-4zM180 88h4v4h-4z"/><path fill="#FF869C" d="M184 88h4v4h-4zM188 88h4v4h-4zM192 88h4v4h-4zM196 88h4v4h-4z"/><path fill="#FFB7BC" d="M200 88h4v4h-4zM204 88h4v4h-4z"/><path fill="#00524E" d="M208 88h4v4h-4zM124 92h4v4h-4z"/><path fill="#FFB7BC" d="M128 92h4v4h-4zM132 92h4v4h-4z"/><path fill="#00524E" d="M136 92h4v4h-4zM152 92h4v4h-4zM156 92h4v4h-4zM160 92h4v4h-4z"/><path fill="#FF869C" d="M164 92h4v4h-4zM168 92h4v4h-4z"/><path fill="#4F963A" d="M172 92h4v4h-4z"/><path fill="#00524E" d="M176 92h4v4h-4z"/><path fill="#FF869C" d="M180 92h4v4h-4zM184 92h4v4h-4z"/><path fill="#FFB7BC" d="M188 92h4v4h-4z"/><path fill="#FF869C" d="M192 92h4v4h-4z"/><path fill="#FFB7BC" d="M196 92h4v4h-4zM200 92h4v4h-4z"/><path fill="#FF869C" d="M204 92h4v4h-4z"/><path fill="#00524E" d="M208 92h4v4h-4zM120 96h4v4h-4z"/><path fill="#FFB7BC" d="M124 96h4v4h-4zM128 96h4v4h-4zM132 96h4v4h-4z"/><path fill="#00524E" d="M136 96h4v4h-4zM140 96h4v4h-4zM144 96h4v4h-4zM148 96h4v4h-4z"/><path fill="#0B6A33" d="M152 96h4v4h-4zM156 96h4v4h-4zM160 96h4v4h-4z"/><path fill="#FF869C" d="M164 96h4v4h-4zM168 96h4v4h-4z"/><path fill="#4F963A" d="M172 96h4v4h-4zM176 96h4v4h-4z"/><path fill="#FF869C" d="M180 96h4v4h-4z"/><path fill="#FFB7BC" d="M184 96h4v4h-4zM188 96h4v4h-4z"/><path fill="#DA506E" d="M192 96h4v4h-4z"/><path fill="#FF869C" d="M196 96h4v4h-4zM200 96h4v4h-4zM204 96h4v4h-4z"/><path fill="#00524E" d="M208 96h4v4h-4zM104 100h4v4h-4zM108 100h4v4h-4zM112 100h4v4h-4zM116 100h4v4h-4z"/><path fill="#FF869C" d="M120 100h4v4h-4z"/><path fill="#FFB7BC" d="M124 100h4v4h-4zM128 100h4v4h-4zM132 100h4v4h-4zM136 100h4v4h-4z"/><path fill="#FF869C" d="M140 100h4v4h-4z"/><path fill="#0B6A33" d="M144 100h4v4h-4zM148 100h4v4h-4zM152 100h4v4h-4zM156 100h4v4h-4zM160 100h4v4h-4zM164 100h4v4h-4zM168 100h4v4h-4zM172 100h4v4h-4z"/><path fill="#4F963A" d="M176 100h4v4h-4z"/><path fill="#FF869C" d="M180 100h4v4h-4z"/><path fill="#FFB7BC" d="M184 100h4v4h-4zM188 100h4v4h-4z"/><path fill="#DA506E" d="M192 100h4v4h-4zM196 100h4v4h-4z"/><path fill="#FF869C" d="M200 100h4v4h-4z"/><path fill="#00524E" d="M204 100h4v4h-4zM100 104h4v4h-4z"/><path fill="#4F963A" d="M104 104h4v4h-4zM108 104h4v4h-4zM112 104h4v4h-4zM116 104h4v4h-4z"/><path fill="#FF869C" d="M120 104h4v4h-4zM124 104h4v4h-4zM128 104h4v4h-4z"/><path fill="#FFB7BC" d="M132 104h4v4h-4zM136 104h4v4h-4z"/><path fill="#FF869C" d="M140 104h4v4h-4z"/><path fill="#0B6A33" d="M144 104h4v4h-4zM148 104h4v4h-4zM152 104h4v4h-4z"/><path fill="#DA506E" d="M156 104h4v4h-4z"/><path fill="#FF869C" d="M160 104h4v4h-4z"/><path fill="#0B6A33" d="M164 104h4v4h-4zM168 104h4v4h-4zM172 104h4v4h-4z"/><path fill="#4F963A" d="M176 104h4v4h-4z"/><path fill="#0B6A33" d="M180 104h4v4h-4z"/><path fill="#FF869C" d="M184 104h4v4h-4z"/><path fill="#FFB7BC" d="M188 104h4v4h-4z"/><path fill="#FF869C" d="M192 104h4v4h-4z"/><path fill="#FFB7BC" d="M196 104h4v4h-4zM200 104h4v4h-4zM204 104h4v4h-4z"/><path fill="#00524E" d="M208 104h4v4h-4zM212 104h4v4h-4zM216 104h4v4h-4zM220 104h4v4h-4zM96 108h4v4h-4z"/><path fill="#4F963A" d="M100 108h4v4h-4zM104 108h4v4h-4zM108 108h4v4h-4zM112 108h4v4h-4zM116 108h4v4h-4z"/><path fill="#FF869C" d="M120 108h4v4h-4zM124 108h4v4h-4z"/><path fill="#4F963A" d="M128 108h4v4h-4zM132 108h4v4h-4z"/><path fill="#FF869C" d="M136 108h4v4h-4zM140 108h4v4h-4z"/><path fill="#0B6A33" d="M144 108h4v4h-4zM148 108h4v4h-4z"/><path fill="#DA506E" d="M152 108h4v4h-4z"/><path fill="#FF869C" d="M156 108h4v4h-4zM160 108h4v4h-4zM164 108h4v4h-4zM168 108h4v4h-4z"/><path fill="#0B6A33" d="M172 108h4v4h-4zM176 108h4v4h-4zM180 108h4v4h-4zM184 108h4v4h-4z"/><path fill="#FFB7BC" d="M188 108h4v4h-4zM192 108h4v4h-4zM196 108h4v4h-4zM200 108h4v4h-4zM204 108h4v4h-4zM208 108h4v4h-4z"/><path fill="#00524E" d="M212 108h4v4h-4z"/><path fill="#4F963A" d="M216 108h4v4h-4zM220 108h4v4h-4z"/><path fill="#00524E" d="M224 108h4v4h-4zM228 108h4v4h-4zM232 108h4v4h-4zM96 112h4v4h-4z"/><path fill="#FF869C" d="M100 112h4v4h-4z"/><path fill="#FFB7BC" d="M104 112h4v4h-4z"/><path fill="#0B6A33" d="M108 112h4v4h-4zM112 112h4v4h-4z"/><path fill="#4F963A" d="M116 112h4v4h-4z"/><path fill="#0B6A33" d="M120 112h4v4h-4zM124 112h4v4h-4z"/><path fill="#4F963A" d="M128 112h4v4h-4zM132 112h4v4h-4z"/><path fill="#FF869C" d="M136 112h4v4h-4zM140 112h4v4h-4z"/><path fill="#0B6A33" d="M144 112h4v4h-4z"/><path fill="#DA506E" d="M148 112h4v4h-4z"/><path fill="#FF869C" d="M152 112h4v4h-4zM156 112h4v4h-4zM160 112h4v4h-4zM164 112h4v4h-4z"/><path fill="#FFB7BC" d="M168 112h4v4h-4z"/><path fill="#0B6A33" d="M172 112h4v4h-4zM176 112h4v4h-4zM180 112h4v4h-4zM184 112h4v4h-4z"/><path fill="#FF869C" d="M188 112h4v4h-4zM192 112h4v4h-4zM196 112h4v4h-4zM200 112h4v4h-4z"/><path fill="#FFB7BC" d="M204 112h4v4h-4zM208 112h4v4h-4z"/><path fill="#00524E" d="M212 112h4v4h-4z"/><path fill="#FF869C" d="M216 112h4v4h-4zM220 112h4v4h-4z"/><path fill="#4F963A" d="M224 112h4v4h-4zM228 112h4v4h-4z"/><path fill="#0B6A33" d="M232 112h4v4h-4z"/><path fill="#00524E" d="M236 112h4v4h-4zM64 116h4v4h-4zM68 116h4v4h-4zM84 116h4v4h-4zM88 116h4v4h-4zM92 116h4v4h-4z"/><path fill="#FF869C" d="M96 116h4v4h-4zM100 116h4v4h-4z"/><path fill="#FFB7BC" d="M104 116h4v4h-4z"/><path fill="#ABB02F" d="M108 116h4v4h-4z"/><path fill="#4F963A" d="M112 116h4v4h-4z"/><path fill="#ABB02F" d="M116 116h4v4h-4zM120 116h4v4h-4z"/><path fill="#4F963A" d="M124 116h4v4h-4z"/><path fill="#0B6A33" d="M128 116h4v4h-4z"/><path fill="#4F963A" d="M132 116h4v4h-4zM136 116h4v4h-4z"/><path fill="#0B6A33" d="M140 116h4v4h-4zM144 116h4v4h-4z"/><path fill="#DA506E" d="M148 116h4v4h-4z"/><path fill="#FF869C" d="M152 116h4v4h-4zM156 116h4v4h-4z"/><path fill="#DA506E" d="M160 116h4v4h-4z"/><path fill="#FF869C" d="M164 116h4v4h-4z"/><path fill="#FFB7BC" d="M168 116h4v4h-4z"/><path fill="#0B6A33" d="M172 116h4v4h-4zM176 116h4v4h-4zM180 116h4v4h-4zM184 116h4v4h-4z"/><path fill="#4F963A" d="M188 116h4v4h-4z"/><path fill="#FF869C" d="M192 116h4v4h-4zM196 116h4v4h-4zM200 116h4v4h-4z"/><path fill="#ABB02F" d="M204 116h4v4h-4zM208 116h4v4h-4z"/><path fill="#4F963A" d="M212 116h4v4h-4z"/><path fill="#FF869C" d="M216 116h4v4h-4zM220 116h4v4h-4zM224 116h4v4h-4z"/><path fill="#4F963A" d="M228 116h4v4h-4zM232 116h4v4h-4zM236 116h4v4h-4z"/><path fill="#00524E" d="M240 116h4v4h-4zM60 120h4v4h-4z"/><path fill="#FF869C" d="M64 120h4v4h-4zM68 120h4v4h-4z"/><path fill="#00524E" d="M72 120h4v4h-4zM80 120h4v4h-4z"/><path fill="#FF869C" d="M84 120h4v4h-4zM88 120h4v4h-4z"/><path fill="#DA506E" d="M92 120h4v4h-4zM96 120h4v4h-4z"/><path fill="#FF869C" d="M100 120h4v4h-4zM104 120h4v4h-4z"/><path fill="#FFB7BC" d="M108 120h4v4h-4z"/><path fill="#ABB02F" d="M112 120h4v4h-4z"/><path fill="#4F963A" d="M116 120h4v4h-4z"/><path fill="#ABB02F" d="M120 120h4v4h-4zM124 120h4v4h-4z"/><path fill="#4F963A" d="M128 120h4v4h-4z"/><path fill="#0B6A33" d="M132 120h4v4h-4zM136 120h4v4h-4zM140 120h4v4h-4z"/><path fill="#4F963A" d="M144 120h4v4h-4z"/><path fill="#FF869C" d="M148 120h4v4h-4z"/><path fill="#FFB7BC" d="M152 120h4v4h-4zM156 120h4v4h-4z"/><path fill="#DA506E" d="M160 120h4v4h-4zM164 120h4v4h-4z"/><path fill="#FF869C" d="M168 120h4v4h-4zM172 120h4v4h-4z"/><path fill="#0B6A33" d="M176 120h4v4h-4zM180 120h4v4h-4z"/><path fill="#FF869C" d="M184 120h4v4h-4z"/><path fill="#0B6A33" d="M188 120h4v4h-4z"/><path fill="#4F963A" d="M192 120h4v4h-4z"/><path fill="#FF869C" d="M196 120h4v4h-4z"/><path fill="#0B6A33" d="M200 120h4v4h-4z"/><path fill="#ABB02F" d="M204 120h4v4h-4z"/><path fill="#4F963A" d="M208 120h4v4h-4z"/><path fill="#0B6A33" d="M212 120h4v4h-4zM216 120h4v4h-4z"/><path fill="#FF869C" d="M220 120h4v4h-4zM224 120h4v4h-4zM228 120h4v4h-4zM232 120h4v4h-4zM236 120h4v4h-4z"/><path fill="#4F963A" d="M240 120h4v4h-4z"/><path fill="#00524E" d="M244 120h4v4h-4zM60 124h4v4h-4z"/><path fill="#FF869C" d="M64 124h4v4h-4zM68 124h4v4h-4zM72 124h4v4h-4z"/><path fill="#00524E" d="M76 124h4v4h-4z"/><path fill="#0B6A33" d="M80 124h4v4h-4z"/><path fill="#FF869C" d="M84 124h4v4h-4zM88 124h4v4h-4z"/><path fill="#DA506E" d="M92 124h4v4h-4zM96 124h4v4h-4z"/><path fill="#FF869C" d="M100 124h4v4h-4zM104 124h4v4h-4z"/><path fill="#FFB7BC" d="M108 124h4v4h-4z"/><path fill="#ABB02F" d="M112 124h4v4h-4z"/><path fill="#4F963A" d="M116 124h4v4h-4zM120 124h4v4h-4z"/><path fill="#ABB02F" d="M124 124h4v4h-4z"/><path fill="#4F963A" d="M128 124h4v4h-4z"/><path fill="#ABB02F" d="M132 124h4v4h-4zM136 124h4v4h-4z"/><path fill="#0B6A33" d="M140 124h4v4h-4zM144 124h4v4h-4z"/><path fill="#FF869C" d="M148 124h4v4h-4z"/><path fill="#FFB7BC" d="M152 124h4v4h-4zM156 124h4v4h-4z"/><path fill="#DA506E" d="M160 124h4v4h-4zM164 124h4v4h-4zM168 124h4v4h-4z"/><path fill="#FF869C" d="M172 124h4v4h-4z"/><path fill="#0B6A33" d="M176 124h4v4h-4z"/><path fill="#FF869C" d="M180 124h4v4h-4zM184 124h4v4h-4z"/><path fill="#DA506E" d="M188 124h4v4h-4zM192 124h4v4h-4z"/><path fill="#FF869C" d="M196 124h4v4h-4zM200 124h4v4h-4z"/><path fill="#0B6A33" d="M204 124h4v4h-4zM208 124h4v4h-4z"/><path fill="#4F963A" d="M212 124h4v4h-4zM216 124h4v4h-4z"/><path fill="#FF869C" d="M220 124h4v4h-4z"/><path fill="#DA506E" d="M224 124h4v4h-4z"/><path fill="#FF869C" d="M228 124h4v4h-4zM232 124h4v4h-4zM236 124h4v4h-4z"/><path fill="#4F963A" d="M240 124h4v4h-4z"/><path fill="#00524E" d="M244 124h4v4h-4zM56 128h4v4h-4zM60 128h4v4h-4z"/><path fill="#FF869C" d="M64 128h4v4h-4zM68 128h4v4h-4zM72 128h4v4h-4z"/><path fill="#0B6A33" d="M76 128h4v4h-4zM80 128h4v4h-4z"/><path fill="#FF869C" d="M84 128h4v4h-4zM88 128h4v4h-4z"/><path fill="#FFB7BC" d="M92 128h4v4h-4zM96 128h4v4h-4z"/><path fill="#FF869C" d="M100 128h4v4h-4zM104 128h4v4h-4z"/><path fill="#ABB02F" d="M108 128h4v4h-4zM112 128h4v4h-4z"/><path fill="#FF869C" d="M116 128h4v4h-4zM120 128h4v4h-4z"/><path fill="#ABB02F" d="M124 128h4v4h-4z"/><path fill="#4F963A" d="M128 128h4v4h-4z"/><path fill="#ABB02F" d="M132 128h4v4h-4zM136 128h4v4h-4z"/><path fill="#0B6A33" d="M140 128h4v4h-4zM144 128h4v4h-4zM148 128h4v4h-4z"/><path fill="#DA506E" d="M152 128h4v4h-4z"/><path fill="#FFB7BC" d="M156 128h4v4h-4zM160 128h4v4h-4zM164 128h4v4h-4z"/><path fill="#DA506E" d="M168 128h4v4h-4z"/><path fill="#FF869C" d="M172 128h4v4h-4z"/><path fill="#4F963A" d="M176 128h4v4h-4zM180 128h4v4h-4z"/><path fill="#FF869C" d="M184 128h4v4h-4zM188 128h4v4h-4zM192 128h4v4h-4zM196 128h4v4h-4zM200 128h4v4h-4z"/><path fill="#0B6A33" d="M204 128h4v4h-4z"/><path fill="#4F963A" d="M208 128h4v4h-4zM212 128h4v4h-4z"/><path fill="#FF869C" d="M216 128h4v4h-4zM220 128h4v4h-4z"/><path fill="#DA506E" d="M224 128h4v4h-4zM228 128h4v4h-4z"/><path fill="#FF869C" d="M232 128h4v4h-4zM236 128h4v4h-4z"/><path fill="#00524E" d="M240 128h4v4h-4zM52 132h4v4h-4z"/><path fill="#FF869C" d="M56 132h4v4h-4z"/><path fill="#DA506E" d="M60 132h4v4h-4zM64 132h4v4h-4z"/><path fill="#FF869C" d="M68 132h4v4h-4zM72 132h4v4h-4z"/><path fill="#0B6A33" d="M76 132h4v4h-4zM80 132h4v4h-4z"/><path fill="#FF869C" d="M84 132h4v4h-4z"/><path fill="#FFB7BC" d="M88 132h4v4h-4zM92 132h4v4h-4zM96 132h4v4h-4z"/><path fill="#ABB02F" d="M100 132h4v4h-4zM104 132h4v4h-4z"/><path fill="#0B6A33" d="M108 132h4v4h-4z"/><path fill="#4F963A" d="M112 132h4v4h-4z"/><path fill="#FF869C" d="M116 132h4v4h-4zM120 132h4v4h-4z"/><path fill="#4F963A" d="M124 132h4v4h-4zM128 132h4v4h-4zM132 132h4v4h-4z"/><path fill="#0B6A33" d="M136 132h4v4h-4zM140 132h4v4h-4zM144 132h4v4h-4zM148 132h4v4h-4zM152 132h4v4h-4z"/><path fill="#DA506E" d="M156 132h4v4h-4z"/><path fill="#FFB7BC" d="M160 132h4v4h-4zM164 132h4v4h-4z"/><path fill="#FF869C" d="M168 132h4v4h-4zM172 132h4v4h-4z"/><path fill="#4F963A" d="M176 132h4v4h-4z"/><path fill="#0B6A33" d="M180 132h4v4h-4z"/><path fill="#4F963A" d="M184 132h4v4h-4z"/><path fill="#FF869C" d="M188 132h4v4h-4zM192 132h4v4h-4zM196 132h4v4h-4z"/><path fill="#0B6A33" d="M200 132h4v4h-4zM204 132h4v4h-4z"/><path fill="#4F963A" d="M208 132h4v4h-4zM212 132h4v4h-4z"/><path fill="#FF869C" d="M216 132h4v4h-4z"/><path fill="#FFB7BC" d="M220 132h4v4h-4z"/><path fill="#DA506E" d="M224 132h4v4h-4zM228 132h4v4h-4z"/><path fill="#FF869C" d="M232 132h4v4h-4z"/><path fill="#00524E" d="M236 132h4v4h-4zM52 136h4v4h-4z"/><path fill="#FF869C" d="M56 136h4v4h-4z"/><path fill="#DA506E" d="M60 136h4v4h-4zM64 136h4v4h-4z"/><path fill="#FF869C" d="M68 136h4v4h-4z"/><path fill="#0B6A33" d="M72 136h4v4h-4zM76 136h4v4h-4z"/><path fill="#DA506E" d="M80 136h4v4h-4zM84 136h4v4h-4z"/><path fill="#FFB7BC" d="M88 136h4v4h-4zM92 136h4v4h-4z"/><path fill="#FF869C" d="M96 136h4v4h-4z"/><path fill="#ABB02F" d="M100 136h4v4h-4zM104 136h4v4h-4z"/><path fill="#0B6A33" d="M108 136h4v4h-4z"/><path fill="#4F963A" d="M112 136h4v4h-4zM116 136h4v4h-4zM120 136h4v4h-4zM124 136h4v4h-4z"/><path fill="#FF869C" d="M128 136h4v4h-4zM132 136h4v4h-4z"/><path fill="#4F963A" d="M136 136h4v4h-4z"/><path fill="#0B6A33" d="M140 136h4v4h-4z"/><path fill="#FFB7BC" d="M144 136h4v4h-4zM148 136h4v4h-4z"/><path fill="#0B6A33" d="M152 136h4v4h-4zM156 136h4v4h-4z"/><path fill="#FF869C" d="M160 136h4v4h-4zM164 136h4v4h-4zM168 136h4v4h-4z"/><path fill="#4F963A" d="M172 136h4v4h-4z"/><path fill="#0B6A33" d="M176 136h4v4h-4z"/><path fill="#FF869C" d="M180 136h4v4h-4zM184 136h4v4h-4z"/><path fill="#4F963A" d="M188 136h4v4h-4zM192 136h4v4h-4zM196 136h4v4h-4z"/><path fill="#0B6A33" d="M200 136h4v4h-4zM204 136h4v4h-4zM208 136h4v4h-4zM212 136h4v4h-4zM216 136h4v4h-4z"/><path fill="#FFB7BC" d="M220 136h4v4h-4zM224 136h4v4h-4z"/><path fill="#DA506E" d="M228 136h4v4h-4z"/><path fill="#FF869C" d="M232 136h4v4h-4z"/><path fill="#4F963A" d="M236 136h4v4h-4z"/><path fill="#00524E" d="M240 136h4v4h-4zM56 140h4v4h-4z"/><path fill="#FF869C" d="M60 140h4v4h-4zM64 140h4v4h-4zM68 140h4v4h-4z"/><path fill="#DA506E" d="M72 140h4v4h-4zM76 140h4v4h-4zM80 140h4v4h-4zM84 140h4v4h-4z"/><path fill="#FF869C" d="M88 140h4v4h-4zM92 140h4v4h-4z"/><path fill="#ABB02F" d="M96 140h4v4h-4zM100 140h4v4h-4z"/><path fill="#0B6A33" d="M104 140h4v4h-4zM108 140h4v4h-4zM112 140h4v4h-4z"/><path fill="#4F963A" d="M116 140h4v4h-4zM120 140h4v4h-4z"/><path fill="#FF869C" d="M124 140h4v4h-4zM128 140h4v4h-4z"/><path fill="#FFB7BC" d="M132 140h4v4h-4zM136 140h4v4h-4z"/><path fill="#FF869C" d="M140 140h4v4h-4zM144 140h4v4h-4z"/><path fill="#FFB7BC" d="M148 140h4v4h-4z"/><path fill="#0B6A33" d="M152 140h4v4h-4zM156 140h4v4h-4zM160 140h4v4h-4zM164 140h4v4h-4z"/><path fill="#4F963A" d="M168 140h4v4h-4z"/><path fill="#0B6A33" d="M172 140h4v4h-4z"/><path fill="#4F963A" d="M176 140h4v4h-4z"/><path fill="#FF869C" d="M180 140h4v4h-4zM184 140h4v4h-4zM188 140h4v4h-4zM192 140h4v4h-4z"/><path fill="#4F963A" d="M196 140h4v4h-4z"/><path fill="#0B6A33" d="M200 140h4v4h-4zM204 140h4v4h-4z"/><path fill="#4F963A" d="M208 140h4v4h-4zM212 140h4v4h-4zM216 140h4v4h-4z"/><path fill="#FF869C" d="M220 140h4v4h-4z"/><path fill="#FFB7BC" d="M224 140h4v4h-4z"/><path fill="#FF869C" d="M228 140h4v4h-4zM232 140h4v4h-4z"/><path fill="#4F963A" d="M236 140h4v4h-4zM240 140h4v4h-4z"/><path fill="#00524E" d="M244 140h4v4h-4zM56 144h4v4h-4z"/><path fill="#FF869C" d="M60 144h4v4h-4zM64 144h4v4h-4zM68 144h4v4h-4z"/><path fill="#DA506E" d="M72 144h4v4h-4zM76 144h4v4h-4zM80 144h4v4h-4zM84 144h4v4h-4z"/><path fill="#0B6A33" d="M88 144h4v4h-4z"/><path fill="#ABB02F" d="M92 144h4v4h-4z"/><path fill="#FFB7BC" d="M96 144h4v4h-4zM100 144h4v4h-4z"/><path fill="#0B6A33" d="M104 144h4v4h-4zM108 144h4v4h-4zM112 144h4v4h-4zM116 144h4v4h-4z"/><path fill="#4F963A" d="M120 144h4v4h-4z"/><path fill="#FF869C" d="M124 144h4v4h-4zM128 144h4v4h-4z"/><path fill="#FFB7BC" d="M132 144h4v4h-4zM136 144h4v4h-4z"/><path fill="#FF869C" d="M140 144h4v4h-4zM144 144h4v4h-4z"/><path fill="#FFB7BC" d="M148 144h4v4h-4z"/><path fill="#0B6A33" d="M152 144h4v4h-4zM156 144h4v4h-4zM160 144h4v4h-4zM164 144h4v4h-4z"/><path fill="#4F963A" d="M168 144h4v4h-4z"/><path fill="#0B6A33" d="M172 144h4v4h-4z"/><path fill="#4F963A" d="M176 144h4v4h-4z"/><path fill="#FF869C" d="M180 144h4v4h-4zM184 144h4v4h-4z"/><path fill="#DA506E" d="M188 144h4v4h-4zM192 144h4v4h-4z"/><path fill="#FF869C" d="M196 144h4v4h-4z"/><path fill="#0B6A33" d="M200 144h4v4h-4z"/><path fill="#ABB02F" d="M204 144h4v4h-4z"/><path fill="#0B6A33" d="M208 144h4v4h-4zM212 144h4v4h-4z"/><path fill="#4F963A" d="M216 144h4v4h-4zM220 144h4v4h-4z"/><path fill="#FF869C" d="M224 144h4v4h-4zM228 144h4v4h-4z"/><path fill="#0B6A33" d="M232 144h4v4h-4zM236 144h4v4h-4z"/><path fill="#4F963A" d="M240 144h4v4h-4zM244 144h4v4h-4z"/><path fill="#00524E" d="M248 144h4v4h-4zM56 148h4v4h-4z"/><path fill="#FF869C" d="M60 148h4v4h-4zM64 148h4v4h-4zM68 148h4v4h-4z"/><path fill="#0B6A33" d="M72 148h4v4h-4zM76 148h4v4h-4z"/><path fill="#DA506E" d="M80 148h4v4h-4zM84 148h4v4h-4z"/><path fill="#0B6A33" d="M88 148h4v4h-4z"/><path fill="#FFB7BC" d="M92 148h4v4h-4z"/><path fill="#DA506E" d="M96 148h4v4h-4z"/><path fill="#FFB7BC" d="M100 148h4v4h-4z"/><path fill="#0B6A33" d="M104 148h4v4h-4zM108 148h4v4h-4zM112 148h4v4h-4zM116 148h4v4h-4zM120 148h4v4h-4zM124 148h4v4h-4z"/><path fill="#FF869C" d="M128 148h4v4h-4z"/><path fill="#DA506E" d="M132 148h4v4h-4zM136 148h4v4h-4zM140 148h4v4h-4z"/><path fill="#FF869C" d="M144 148h4v4h-4zM148 148h4v4h-4z"/><path fill="#0B6A33" d="M152 148h4v4h-4zM156 148h4v4h-4zM160 148h4v4h-4zM164 148h4v4h-4zM168 148h4v4h-4zM172 148h4v4h-4zM176 148h4v4h-4z"/><path fill="#FF869C" d="M180 148h4v4h-4zM184 148h4v4h-4z"/><path fill="#DA506E" d="M188 148h4v4h-4zM192 148h4v4h-4z"/><path fill="#FF869C" d="M196 148h4v4h-4z"/><path fill="#0B6A33" d="M200 148h4v4h-4z"/><path fill="#ABB02F" d="M204 148h4v4h-4zM208 148h4v4h-4z"/><path fill="#D0D53B" d="M212 148h4v4h-4z"/><path fill="#0B6A33" d="M216 148h4v4h-4z"/><path fill="#4F963A" d="M220 148h4v4h-4zM224 148h4v4h-4zM228 148h4v4h-4zM232 148h4v4h-4zM236 148h4v4h-4zM240 148h4v4h-4zM244 148h4v4h-4z"/><path fill="#00524E" d="M248 148h4v4h-4zM60 152h4v4h-4z"/><path fill="#FF869C" d="M64 152h4v4h-4zM68 152h4v4h-4z"/><path fill="#0B6A33" d="M72 152h4v4h-4z"/><path fill="#4F963A" d="M76 152h4v4h-4zM80 152h4v4h-4zM84 152h4v4h-4z"/><path fill="#FFB7BC" d="M88 152h4v4h-4z"/><path fill="#DA506E" d="M92 152h4v4h-4zM96 152h4v4h-4z"/><path fill="#FFB7BC" d="M100 152h4v4h-4zM104 152h4v4h-4z"/><path fill="#0B6A33" d="M108 152h4v4h-4z"/><path fill="#4F963A" d="M112 152h4v4h-4zM116 152h4v4h-4zM120 152h4v4h-4z"/><path fill="#FF869C" d="M124 152h4v4h-4zM128 152h4v4h-4z"/><path fill="#DA506E" d="M132 152h4v4h-4zM136 152h4v4h-4zM140 152h4v4h-4z"/><path fill="#FF869C" d="M144 152h4v4h-4z"/><path fill="#4F963A" d="M148 152h4v4h-4z"/><path fill="#0B6A33" d="M152 152h4v4h-4zM156 152h4v4h-4z"/><path fill="#ABB02F" d="M160 152h4v4h-4zM164 152h4v4h-4zM168 152h4v4h-4z"/><path fill="#0B6A33" d="M172 152h4v4h-4zM176 152h4v4h-4z"/><path fill="#FF869C" d="M180 152h4v4h-4zM184 152h4v4h-4zM188 152h4v4h-4zM192 152h4v4h-4z"/><path fill="#0B6A33" d="M196 152h4v4h-4z"/><path fill="#ABB02F" d="M200 152h4v4h-4z"/><path fill="#0B6A33" d="M204 152h4v4h-4z"/><path fill="#ABB02F" d="M208 152h4v4h-4z"/><path fill="#D0D53B" d="M212 152h4v4h-4zM216 152h4v4h-4z"/><path fill="#0B6A33" d="M220 152h4v4h-4zM224 152h4v4h-4zM228 152h4v4h-4zM232 152h4v4h-4z"/><path fill="#00524E" d="M236 152h4v4h-4zM240 152h4v4h-4zM244 152h4v4h-4zM64 156h4v4h-4z"/><path fill="#0B6A33" d="M68 156h4v4h-4zM72 156h4v4h-4zM76 156h4v4h-4zM80 156h4v4h-4zM84 156h4v4h-4z"/><path fill="#FFB7BC" d="M88 156h4v4h-4z"/><path fill="#DA506E" d="M92 156h4v4h-4zM96 156h4v4h-4z"/><path fill="#FF869C" d="M100 156h4v4h-4zM104 156h4v4h-4z"/><path fill="#4F963A" d="M108 156h4v4h-4zM112 156h4v4h-4zM116 156h4v4h-4zM120 156h4v4h-4z"/><path fill="#FF869C" d="M124 156h4v4h-4zM128 156h4v4h-4zM132 156h4v4h-4z"/><path fill="#FFB7BC" d="M136 156h4v4h-4zM140 156h4v4h-4zM144 156h4v4h-4z"/><path fill="#FF869C" d="M148 156h4v4h-4z"/><path fill="#ABB02F" d="M152 156h4v4h-4zM156 156h4v4h-4z"/><path fill="#0B6A33" d="M160 156h4v4h-4z"/><path fill="#4F963A" d="M164 156h4v4h-4z"/><path fill="#ABB02F" d="M168 156h4v4h-4zM172 156h4v4h-4z"/><path fill="#0B6A33" d="M176 156h4v4h-4zM180 156h4v4h-4z"/><path fill="#FF869C" d="M184 156h4v4h-4zM188 156h4v4h-4zM192 156h4v4h-4z"/><path fill="#0B6A33" d="M196 156h4v4h-4z"/><path fill="#ABB02F" d="M200 156h4v4h-4z"/><path fill="#D0D53B" d="M204 156h4v4h-4z"/><path fill="#0B6A33" d="M208 156h4v4h-4z"/><path fill="#D0D53B" d="M212 156h4v4h-4zM216 156h4v4h-4zM220 156h4v4h-4z"/><path fill="#0B6A33" d="M224 156h4v4h-4z"/><path fill="#474958" d="M228 156h4v4h-4zM232 156h4v4h-4z"/><path fill="#00524E" d="M236 156h4v4h-4zM64 160h4v4h-4z"/><path fill="#0B6A33" d="M68 160h4v4h-4zM72 160h4v4h-4z"/><path fill="#4F963A" d="M76 160h4v4h-4zM80 160h4v4h-4zM84 160h4v4h-4z"/><path fill="#FFB7BC" d="M88 160h4v4h-4zM92 160h4v4h-4z"/><path fill="#FF869C" d="M96 160h4v4h-4zM100 160h4v4h-4z"/><path fill="#0B6A33" d="M104 160h4v4h-4z"/><path fill="#4F963A" d="M108 160h4v4h-4zM112 160h4v4h-4zM116 160h4v4h-4zM120 160h4v4h-4z"/><path fill="#FF869C" d="M124 160h4v4h-4zM128 160h4v4h-4z"/><path fill="#ABB02F" d="M132 160h4v4h-4z"/><path fill="#FF869C" d="M136 160h4v4h-4z"/><path fill="#FFB7BC" d="M140 160h4v4h-4zM144 160h4v4h-4z"/><path fill="#FF869C" d="M148 160h4v4h-4z"/><path fill="#4F963A" d="M152 160h4v4h-4z"/><path fill="#ABB02F" d="M156 160h4v4h-4zM160 160h4v4h-4z"/><path fill="#0B6A33" d="M164 160h4v4h-4z"/><path fill="#4F963A" d="M168 160h4v4h-4z"/><path fill="#ABB02F" d="M172 160h4v4h-4z"/><path fill="#0B6A33" d="M176 160h4v4h-4z"/><path fill="#ABB02F" d="M180 160h4v4h-4z"/><path fill="#0B6A33" d="M184 160h4v4h-4z"/><path fill="#ABB02F" d="M188 160h4v4h-4zM192 160h4v4h-4zM196 160h4v4h-4z"/><path fill="#D0D53B" d="M200 160h4v4h-4zM204 160h4v4h-4zM208 160h4v4h-4z"/><path fill="#0B6A33" d="M212 160h4v4h-4z"/><path fill="#D0D53B" d="M216 160h4v4h-4zM220 160h4v4h-4z"/><path fill="#0B6A33" d="M224 160h4v4h-4z"/><path fill="#474958" d="M228 160h4v4h-4zM232 160h4v4h-4z"/><path fill="#00524E" d="M236 160h4v4h-4zM60 164h4v4h-4z"/><path fill="#DA506E" d="M64 164h4v4h-4zM68 164h4v4h-4z"/><path fill="#4F963A" d="M72 164h4v4h-4zM76 164h4v4h-4z"/><path fill="#0B6A33" d="M80 164h4v4h-4z"/><path fill="#FF869C" d="M84 164h4v4h-4zM88 164h4v4h-4z"/><path fill="#4F963A" d="M92 164h4v4h-4zM96 164h4v4h-4z"/><path fill="#0B6A33" d="M100 164h4v4h-4z"/><path fill="#ABB02F" d="M104 164h4v4h-4zM108 164h4v4h-4z"/><path fill="#4F963A" d="M112 164h4v4h-4zM116 164h4v4h-4z"/><path fill="#D0D53B" d="M120 164h4v4h-4zM124 164h4v4h-4z"/><path fill="#ABB02F" d="M128 164h4v4h-4zM132 164h4v4h-4z"/><path fill="#0B6A33" d="M136 164h4v4h-4z"/><path fill="#FF869C" d="M140 164h4v4h-4zM144 164h4v4h-4z"/><path fill="#ABB02F" d="M148 164h4v4h-4zM152 164h4v4h-4z"/><path fill="#4F963A" d="M156 164h4v4h-4z"/><path fill="#ABB02F" d="M160 164h4v4h-4zM164 164h4v4h-4z"/><path fill="#0B6A33" d="M168 164h4v4h-4z"/><path fill="#4F963A" d="M172 164h4v4h-4z"/><path fill="#0B6A33" d="M176 164h4v4h-4z"/><path fill="#ABB02F" d="M180 164h4v4h-4zM184 164h4v4h-4z"/><path fill="#0B6A33" d="M188 164h4v4h-4z"/><path fill="#ABB02F" d="M192 164h4v4h-4z"/><path fill="#D0D53B" d="M196 164h4v4h-4zM200 164h4v4h-4zM204 164h4v4h-4zM208 164h4v4h-4z"/><path fill="#0B6A33" d="M212 164h4v4h-4z"/><path fill="#D0D53B" d="M216 164h4v4h-4zM220 164h4v4h-4zM224 164h4v4h-4z"/><path fill="#0B6A33" d="M228 164h4v4h-4z"/><path fill="#474958" d="M232 164h4v4h-4zM236 164h4v4h-4z"/><path fill="#00524E" d="M240 164h4v4h-4zM60 168h4v4h-4z"/><path fill="#0B6A33" d="M64 168h4v4h-4z"/><path fill="#DA506E" d="M68 168h4v4h-4z"/><path fill="#0B6A33" d="M72 168h4v4h-4zM76 168h4v4h-4zM80 168h4v4h-4zM84 168h4v4h-4zM88 168h4v4h-4z"/><path fill="#4F963A" d="M92 168h4v4h-4zM96 168h4v4h-4z"/><path fill="#0B6A33" d="M100 168h4v4h-4z"/><path fill="#ABB02F" d="M104 168h4v4h-4zM108 168h4v4h-4z"/><path fill="#4F963A" d="M112 168h4v4h-4z"/><path fill="#D0D53B" d="M116 168h4v4h-4zM120 168h4v4h-4zM124 168h4v4h-4zM128 168h4v4h-4zM132 168h4v4h-4z"/><path fill="#0B6A33" d="M136 168h4v4h-4z"/><path fill="#ABB02F" d="M140 168h4v4h-4zM144 168h4v4h-4zM148 168h4v4h-4zM152 168h4v4h-4zM156 168h4v4h-4z"/><path fill="#4F963A" d="M160 168h4v4h-4z"/><path fill="#ABB02F" d="M164 168h4v4h-4z"/><path fill="#0B6A33" d="M168 168h4v4h-4zM172 168h4v4h-4zM176 168h4v4h-4z"/><path fill="#ABB02F" d="M180 168h4v4h-4zM184 168h4v4h-4z"/><path fill="#4F963A" d="M188 168h4v4h-4z"/><path fill="#0B6A33" d="M192 168h4v4h-4zM196 168h4v4h-4zM200 168h4v4h-4z"/><path fill="#D0D53B" d="M204 168h4v4h-4zM208 168h4v4h-4zM212 168h4v4h-4zM216 168h4v4h-4zM220 168h4v4h-4zM224 168h4v4h-4z"/><path fill="#0B6A33" d="M228 168h4v4h-4z"/><path fill="#474958" d="M232 168h4v4h-4zM236 168h4v4h-4z"/><path fill="#00524E" d="M240 168h4v4h-4zM56 172h4v4h-4z"/><path fill="#0B6A33" d="M60 172h4v4h-4zM64 172h4v4h-4zM68 172h4v4h-4zM72 172h4v4h-4zM76 172h4v4h-4z"/><path fill="#4F963A" d="M80 172h4v4h-4zM84 172h4v4h-4z"/><path fill="#0B6A33" d="M88 172h4v4h-4z"/><path fill="#4F963A" d="M92 172h4v4h-4z"/><path fill="#0B6A33" d="M96 172h4v4h-4z"/><path fill="#ABB02F" d="M100 172h4v4h-4zM104 172h4v4h-4zM108 172h4v4h-4z"/><path fill="#4F963A" d="M112 172h4v4h-4z"/><path fill="#D0D53B" d="M116 172h4v4h-4zM120 172h4v4h-4zM124 172h4v4h-4zM128 172h4v4h-4z"/><path fill="#0B6A33" d="M132 172h4v4h-4z"/><path fill="#4F963A" d="M136 172h4v4h-4zM140 172h4v4h-4z"/><path fill="#ABB02F" d="M144 172h4v4h-4zM148 172h4v4h-4zM152 172h4v4h-4zM156 172h4v4h-4z"/><path fill="#4F963A" d="M160 172h4v4h-4z"/><path fill="#ABB02F" d="M164 172h4v4h-4z"/><path fill="#0B6A33" d="M168 172h4v4h-4z"/><path fill="#ABB02F" d="M172 172h4v4h-4z"/><path fill="#4F963A" d="M176 172h4v4h-4z"/><path fill="#ABB02F" d="M180 172h4v4h-4zM184 172h4v4h-4z"/><path fill="#4F963A" d="M188 172h4v4h-4z"/><path fill="#DA506E" d="M192 172h4v4h-4zM196 172h4v4h-4z"/><path fill="#474958" d="M200 172h4v4h-4zM204 172h4v4h-4zM208 172h4v4h-4z"/><path fill="#D0D53B" d="M212 172h4v4h-4zM216 172h4v4h-4zM220 172h4v4h-4zM224 172h4v4h-4z"/><path fill="#0B6A33" d="M228 172h4v4h-4z"/><path fill="#474958" d="M232 172h4v4h-4zM236 172h4v4h-4z"/><path fill="#00524E" d="M240 172h4v4h-4zM52 176h4v4h-4z"/><path fill="#ABB02F" d="M56 176h4v4h-4zM60 176h4v4h-4z"/><path fill="#0B6A33" d="M64 176h4v4h-4zM68 176h4v4h-4zM72 176h4v4h-4z"/><path fill="#ABB02F" d="M76 176h4v4h-4zM80 176h4v4h-4z"/><path fill="#0B6A33" d="M84 176h4v4h-4z"/><path fill="#4F963A" d="M88 176h4v4h-4zM92 176h4v4h-4z"/><path fill="#0B6A33" d="M96 176h4v4h-4z"/><path fill="#ABB02F" d="M100 176h4v4h-4zM104 176h4v4h-4z"/><path fill="#4F963A" d="M108 176h4v4h-4z"/><path fill="#D0D53B" d="M112 176h4v4h-4zM116 176h4v4h-4zM120 176h4v4h-4zM124 176h4v4h-4zM128 176h4v4h-4z"/><path fill="#0B6A33" d="M132 176h4v4h-4z"/><path fill="#4F963A" d="M136 176h4v4h-4zM140 176h4v4h-4zM144 176h4v4h-4zM148 176h4v4h-4z"/><path fill="#0B6A33" d="M152 176h4v4h-4z"/><path fill="#ABB02F" d="M156 176h4v4h-4zM160 176h4v4h-4zM164 176h4v4h-4z"/><path fill="#0B6A33" d="M168 176h4v4h-4z"/><path fill="#ABB02F" d="M172 176h4v4h-4zM176 176h4v4h-4z"/><path fill="#4F963A" d="M180 176h4v4h-4zM184 176h4v4h-4zM188 176h4v4h-4z"/><path fill="#DA506E" d="M192 176h4v4h-4z"/><path fill="#474958" d="M196 176h4v4h-4zM200 176h4v4h-4zM204 176h4v4h-4zM208 176h4v4h-4zM212 176h4v4h-4z"/><path fill="#D0D53B" d="M216 176h4v4h-4zM220 176h4v4h-4z"/><path fill="#585F77" d="M224 176h4v4h-4zM228 176h4v4h-4z"/><path fill="#474958" d="M232 176h4v4h-4zM236 176h4v4h-4zM240 176h4v4h-4z"/><path fill="#00524E" d="M244 176h4v4h-4zM48 180h4v4h-4z"/><path fill="#ABB02F" d="M52 180h4v4h-4zM56 180h4v4h-4zM60 180h4v4h-4zM64 180h4v4h-4z"/><path fill="#0B6A33" d="M68 180h4v4h-4z"/><path fill="#ABB02F" d="M72 180h4v4h-4zM76 180h4v4h-4zM80 180h4v4h-4z"/><path fill="#0B6A33" d="M84 180h4v4h-4z"/><path fill="#4F963A" d="M88 180h4v4h-4zM92 180h4v4h-4z"/><path fill="#0B6A33" d="M96 180h4v4h-4z"/><path fill="#ABB02F" d="M100 180h4v4h-4zM104 180h4v4h-4z"/><path fill="#4F963A" d="M108 180h4v4h-4z"/><path fill="#D0D53B" d="M112 180h4v4h-4zM116 180h4v4h-4zM120 180h4v4h-4zM124 180h4v4h-4z"/><path fill="#4F963A" d="M128 180h4v4h-4z"/><path fill="#FF869C" d="M132 180h4v4h-4z"/><path fill="#4F963A" d="M136 180h4v4h-4z"/><path fill="#474958" d="M140 180h4v4h-4zM144 180h4v4h-4z"/><path fill="#4F963A" d="M148 180h4v4h-4zM152 180h4v4h-4z"/><path fill="#474958" d="M156 180h4v4h-4zM160 180h4v4h-4z"/><path fill="#0B6A33" d="M164 180h4v4h-4zM168 180h4v4h-4z"/><path fill="#4F963A" d="M172 180h4v4h-4z"/><path fill="#ABB02F" d="M176 180h4v4h-4zM180 180h4v4h-4z"/><path fill="#474958" d="M184 180h4v4h-4zM188 180h4v4h-4zM192 180h4v4h-4zM196 180h4v4h-4zM200 180h4v4h-4zM204 180h4v4h-4zM208 180h4v4h-4zM212 180h4v4h-4z"/><path fill="#D0D53B" d="M216 180h4v4h-4z"/><path fill="#585F77" d="M220 180h4v4h-4zM224 180h4v4h-4zM228 180h4v4h-4z"/><path fill="#474958" d="M232 180h4v4h-4zM236 180h4v4h-4zM240 180h4v4h-4z"/><path fill="#00524E" d="M244 180h4v4h-4zM48 184h4v4h-4z"/><path fill="#ABB02F" d="M52 184h4v4h-4zM56 184h4v4h-4zM60 184h4v4h-4z"/><path fill="#FF869C" d="M64 184h4v4h-4zM68 184h4v4h-4z"/><path fill="#ABB02F" d="M72 184h4v4h-4zM76 184h4v4h-4zM80 184h4v4h-4zM84 184h4v4h-4z"/><path fill="#0B6A33" d="M88 184h4v4h-4z"/><path fill="#474958" d="M92 184h4v4h-4z"/><path fill="#0B6A33" d="M96 184h4v4h-4z"/><path fill="#ABB02F" d="M100 184h4v4h-4zM104 184h4v4h-4zM108 184h4v4h-4z"/><path fill="#D0D53B" d="M112 184h4v4h-4zM116 184h4v4h-4z"/><path fill="#4F963A" d="M120 184h4v4h-4zM124 184h4v4h-4zM128 184h4v4h-4z"/><path fill="#FF869C" d="M132 184h4v4h-4zM136 184h4v4h-4z"/><path fill="#474958" d="M140 184h4v4h-4zM144 184h4v4h-4zM148 184h4v4h-4zM152 184h4v4h-4zM156 184h4v4h-4zM160 184h4v4h-4zM164 184h4v4h-4z"/><path fill="#0B6A33" d="M168 184h4v4h-4z"/><path fill="#4F963A" d="M172 184h4v4h-4z"/><path fill="#ABB02F" d="M176 184h4v4h-4zM180 184h4v4h-4zM184 184h4v4h-4z"/><path fill="#474958" d="M188 184h4v4h-4zM192 184h4v4h-4zM196 184h4v4h-4zM200 184h4v4h-4zM204 184h4v4h-4zM208 184h4v4h-4zM212 184h4v4h-4zM216 184h4v4h-4z"/><path fill="#585F77" d="M220 184h4v4h-4zM224 184h4v4h-4zM228 184h4v4h-4zM232 184h4v4h-4z"/><path fill="#474958" d="M236 184h4v4h-4zM240 184h4v4h-4z"/><path fill="#ABB02F" d="M244 184h4v4h-4z"/><path fill="#00524E" d="M248 184h4v4h-4zM48 188h4v4h-4z"/><path fill="#ABB02F" d="M52 188h4v4h-4zM56 188h4v4h-4zM60 188h4v4h-4z"/><path fill="#FF869C" d="M64 188h4v4h-4zM68 188h4v4h-4z"/><path fill="#DA506E" d="M72 188h4v4h-4z"/><path fill="#FF869C" d="M76 188h4v4h-4zM80 188h4v4h-4z"/><path fill="#ABB02F" d="M84 188h4v4h-4z"/><path fill="#3E3C41" d="M88 188h4v4h-4z"/><path fill="#474958" d="M92 188h4v4h-4z"/><path fill="#0B6A33" d="M96 188h4v4h-4z"/><path fill="#ABB02F" d="M100 188h4v4h-4zM104 188h4v4h-4z"/><path fill="#D0D53B" d="M108 188h4v4h-4zM112 188h4v4h-4z"/><path fill="#4F963A" d="M116 188h4v4h-4zM120 188h4v4h-4zM124 188h4v4h-4zM128 188h4v4h-4zM132 188h4v4h-4z"/><path fill="#FF869C" d="M136 188h4v4h-4z"/><path fill="#4F963A" d="M140 188h4v4h-4z"/><path fill="#474958" d="M144 188h4v4h-4zM148 188h4v4h-4zM152 188h4v4h-4zM156 188h4v4h-4zM160 188h4v4h-4zM164 188h4v4h-4zM168 188h4v4h-4z"/><path fill="#4F963A" d="M172 188h4v4h-4z"/><path fill="#ABB02F" d="M176 188h4v4h-4zM180 188h4v4h-4zM184 188h4v4h-4z"/><path fill="#474958" d="M188 188h4v4h-4zM192 188h4v4h-4zM196 188h4v4h-4zM200 188h4v4h-4zM204 188h4v4h-4zM208 188h4v4h-4zM212 188h4v4h-4zM216 188h4v4h-4z"/><path fill="#585F77" d="M220 188h4v4h-4zM224 188h4v4h-4zM228 188h4v4h-4zM232 188h4v4h-4z"/><path fill="#474958" d="M236 188h4v4h-4zM240 188h4v4h-4z"/><path fill="#ABB02F" d="M244 188h4v4h-4z"/><path fill="#00524E" d="M248 188h4v4h-4zM52 192h4v4h-4z"/><path fill="#ABB02F" d="M56 192h4v4h-4zM60 192h4v4h-4z"/><path fill="#0B6A33" d="M64 192h4v4h-4z"/><path fill="#FF869C" d="M68 192h4v4h-4z"/><path fill="#DA506E" d="M72 192h4v4h-4zM76 192h4v4h-4z"/><path fill="#FF869C" d="M80 192h4v4h-4z"/><path fill="#3E3C41" d="M84 192h4v4h-4zM88 192h4v4h-4z"/><path fill="#474958" d="M92 192h4v4h-4z"/><path fill="#3E3C41" d="M96 192h4v4h-4z"/><path fill="#0B6A33" d="M100 192h4v4h-4z"/><path fill="#ABB02F" d="M104 192h4v4h-4z"/><path fill="#D0D53B" d="M108 192h4v4h-4z"/><path fill="#4F963A" d="M112 192h4v4h-4zM116 192h4v4h-4zM120 192h4v4h-4z"/><path fill="#ABB02F" d="M124 192h4v4h-4zM128 192h4v4h-4z"/><path fill="#4F963A" d="M132 192h4v4h-4zM136 192h4v4h-4zM140 192h4v4h-4z"/><path fill="#474958" d="M144 192h4v4h-4zM148 192h4v4h-4zM152 192h4v4h-4zM156 192h4v4h-4zM160 192h4v4h-4zM164 192h4v4h-4zM168 192h4v4h-4zM172 192h4v4h-4z"/><path fill="#4F963A" d="M176 192h4v4h-4zM180 192h4v4h-4z"/><path fill="#474958" d="M184 192h4v4h-4zM188 192h4v4h-4zM192 192h4v4h-4zM196 192h4v4h-4zM200 192h4v4h-4zM204 192h4v4h-4zM208 192h4v4h-4zM212 192h4v4h-4zM216 192h4v4h-4z"/><path fill="#585F77" d="M220 192h4v4h-4zM224 192h4v4h-4zM228 192h4v4h-4zM232 192h4v4h-4z"/><path fill="#474958" d="M236 192h4v4h-4zM240 192h4v4h-4z"/><path fill="#00524E" d="M244 192h4v4h-4zM56 196h4v4h-4z"/><path fill="#0B6A33" d="M60 196h4v4h-4zM64 196h4v4h-4z"/><path fill="#FF869C" d="M68 196h4v4h-4zM72 196h4v4h-4zM76 196h4v4h-4z"/><path fill="#4F963A" d="M80 196h4v4h-4z"/><path fill="#ABB02F" d="M84 196h4v4h-4z"/><path fill="#3E3C41" d="M88 196h4v4h-4zM92 196h4v4h-4zM96 196h4v4h-4z"/><path fill="#0B6A33" d="M100 196h4v4h-4z"/><path fill="#ABB02F" d="M104 196h4v4h-4z"/><path fill="#D0D53B" d="M108 196h4v4h-4z"/><path fill="#3E3C41" d="M112 196h4v4h-4zM116 196h4v4h-4z"/><path fill="#4F963A" d="M120 196h4v4h-4z"/><path fill="#ABB02F" d="M124 196h4v4h-4zM128 196h4v4h-4z"/><path fill="#4F963A" d="M132 196h4v4h-4zM136 196h4v4h-4z"/><path fill="#474958" d="M140 196h4v4h-4zM144 196h4v4h-4zM148 196h4v4h-4zM152 196h4v4h-4zM156 196h4v4h-4zM160 196h4v4h-4zM164 196h4v4h-4zM168 196h4v4h-4zM172 196h4v4h-4z"/><path fill="#4F963A" d="M176 196h4v4h-4z"/><path fill="#474958" d="M180 196h4v4h-4zM184 196h4v4h-4zM188 196h4v4h-4zM192 196h4v4h-4zM196 196h4v4h-4zM200 196h4v4h-4zM204 196h4v4h-4zM208 196h4v4h-4zM212 196h4v4h-4zM216 196h4v4h-4zM220 196h4v4h-4zM224 196h4v4h-4z"/><path fill="#585F77" d="M228 196h4v4h-4zM232 196h4v4h-4z"/><path fill="#474958" d="M236 196h4v4h-4zM240 196h4v4h-4z"/><path fill="#00524E" d="M244 196h4v4h-4zM56 200h4v4h-4z"/><path fill="#4F963A" d="M60 200h4v4h-4z"/><path fill="#ABB02F" d="M64 200h4v4h-4z"/><path fill="#0B6A33" d="M68 200h4v4h-4z"/><path fill="#FF869C" d="M72 200h4v4h-4z"/><path fill="#3E3C41" d="M76 200h4v4h-4zM80 200h4v4h-4zM84 200h4v4h-4zM88 200h4v4h-4zM92 200h4v4h-4zM96 200h4v4h-4zM100 200h4v4h-4z"/><path fill="#4F963A" d="M104 200h4v4h-4z"/><path fill="#3E3C41" d="M108 200h4v4h-4zM112 200h4v4h-4zM116 200h4v4h-4z"/><path fill="#4F963A" d="M120 200h4v4h-4zM124 200h4v4h-4z"/><path fill="#ABB02F" d="M128 200h4v4h-4z"/><path fill="#474958" d="M132 200h4v4h-4zM136 200h4v4h-4zM140 200h4v4h-4zM144 200h4v4h-4zM148 200h4v4h-4zM152 200h4v4h-4zM156 200h4v4h-4zM160 200h4v4h-4zM164 200h4v4h-4zM168 200h4v4h-4z"/><path fill="#4F963A" d="M172 200h4v4h-4z"/><path fill="#D0D53B" d="M176 200h4v4h-4z"/><path fill="#ABB02F" d="M180 200h4v4h-4z"/><path fill="#474958" d="M184 200h4v4h-4zM188 200h4v4h-4zM192 200h4v4h-4zM196 200h4v4h-4zM200 200h4v4h-4zM204 200h4v4h-4zM208 200h4v4h-4zM212 200h4v4h-4zM216 200h4v4h-4zM220 200h4v4h-4zM224 200h4v4h-4z"/><path fill="#585F77" d="M228 200h4v4h-4zM232 200h4v4h-4z"/><path fill="#474958" d="M236 200h4v4h-4zM240 200h4v4h-4z"/><path fill="#ABB02F" d="M244 200h4v4h-4z"/><path fill="#00524E" d="M248 200h4v4h-4zM52 204h4v4h-4z"/><path fill="#4F963A" d="M56 204h4v4h-4z"/><path fill="#ABB02F" d="M60 204h4v4h-4zM64 204h4v4h-4z"/><path fill="#0B6A33" d="M68 204h4v4h-4z"/><path fill="#ABB02F" d="M72 204h4v4h-4z"/><path fill="#4F963A" d="M76 204h4v4h-4z"/><path fill="#3E3C41" d="M80 204h4v4h-4zM84 204h4v4h-4zM88 204h4v4h-4zM92 204h4v4h-4zM96 204h4v4h-4zM100 204h4v4h-4zM104 204h4v4h-4zM108 204h4v4h-4zM112 204h4v4h-4zM116 204h4v4h-4z"/><path fill="#4F963A" d="M120 204h4v4h-4zM124 204h4v4h-4z"/><path fill="#ABB02F" d="M128 204h4v4h-4z"/><path fill="#474958" d="M132 204h4v4h-4zM136 204h4v4h-4zM140 204h4v4h-4zM144 204h4v4h-4zM148 204h4v4h-4zM152 204h4v4h-4zM156 204h4v4h-4zM160 204h4v4h-4zM164 204h4v4h-4zM168 204h4v4h-4z"/><path fill="#ABB02F" d="M172 204h4v4h-4z"/><path fill="#D0D53B" d="M176 204h4v4h-4zM180 204h4v4h-4z"/><path fill="#474958" d="M184 204h4v4h-4zM188 204h4v4h-4zM192 204h4v4h-4zM196 204h4v4h-4zM200 204h4v4h-4zM204 204h4v4h-4zM208 204h4v4h-4zM212 204h4v4h-4zM216 204h4v4h-4zM220 204h4v4h-4zM224 204h4v4h-4z"/><path fill="#585F77" d="M228 204h4v4h-4zM232 204h4v4h-4z"/><path fill="#474958" d="M236 204h4v4h-4zM240 204h4v4h-4z"/><path fill="#ABB02F" d="M244 204h4v4h-4z"/><path fill="#00524E" d="M248 204h4v4h-4zM52 208h4v4h-4z"/><path fill="#4F963A" d="M56 208h4v4h-4z"/><path fill="#ABB02F" d="M60 208h4v4h-4zM64 208h4v4h-4z"/><path fill="#0B6A33" d="M68 208h4v4h-4z"/><path fill="#ABB02F" d="M72 208h4v4h-4z"/><path fill="#4F963A" d="M76 208h4v4h-4z"/><path fill="#3E3C41" d="M80 208h4v4h-4zM84 208h4v4h-4zM88 208h4v4h-4zM92 208h4v4h-4zM96 208h4v4h-4zM100 208h4v4h-4zM104 208h4v4h-4zM108 208h4v4h-4zM112 208h4v4h-4z"/><path fill="#ABB02F" d="M116 208h4v4h-4zM120 208h4v4h-4z"/><path fill="#4F963A" d="M124 208h4v4h-4zM128 208h4v4h-4z"/><path fill="#474958" d="M132 208h4v4h-4zM136 208h4v4h-4zM140 208h4v4h-4zM144 208h4v4h-4zM148 208h4v4h-4zM152 208h4v4h-4zM156 208h4v4h-4zM160 208h4v4h-4zM164 208h4v4h-4zM168 208h4v4h-4zM172 208h4v4h-4z"/><path fill="#D0D53B" d="M176 208h4v4h-4zM180 208h4v4h-4z"/><path fill="#474958" d="M184 208h4v4h-4zM188 208h4v4h-4zM192 208h4v4h-4zM196 208h4v4h-4zM200 208h4v4h-4zM204 208h4v4h-4zM208 208h4v4h-4zM212 208h4v4h-4zM216 208h4v4h-4zM220 208h4v4h-4zM224 208h4v4h-4z"/><path fill="#585F77" d="M228 208h4v4h-4z"/><path fill="#474958" d="M232 208h4v4h-4zM236 208h4v4h-4zM240 208h4v4h-4z"/><path fill="#00524E" d="M244 208h4v4h-4zM248 208h4v4h-4zM56 212h4v4h-4zM60 212h4v4h-4z"/><path fill="#0B6A33" d="M64 212h4v4h-4z"/><path fill="#ABB02F" d="M68 212h4v4h-4zM72 212h4v4h-4z"/><path fill="#4F963A" d="M76 212h4v4h-4z"/><path fill="#474958" d="M80 212h4v4h-4z"/><path fill="#3E3C41" d="M84 212h4v4h-4zM88 212h4v4h-4zM92 212h4v4h-4zM96 212h4v4h-4zM100 212h4v4h-4zM104 212h4v4h-4zM108 212h4v4h-4zM112 212h4v4h-4z"/><path fill="#ABB02F" d="M116 212h4v4h-4zM120 212h4v4h-4z"/><path fill="#4F963A" d="M124 212h4v4h-4z"/><path fill="#D0D53B" d="M128 212h4v4h-4z"/><path fill="#ABB02F" d="M132 212h4v4h-4z"/><path fill="#474958" d="M136 212h4v4h-4zM140 212h4v4h-4zM144 212h4v4h-4zM148 212h4v4h-4zM152 212h4v4h-4zM156 212h4v4h-4zM160 212h4v4h-4zM164 212h4v4h-4zM168 212h4v4h-4zM172 212h4v4h-4z"/><path fill="#D0D53B" d="M176 212h4v4h-4z"/><path fill="#474958" d="M180 212h4v4h-4zM184 212h4v4h-4zM188 212h4v4h-4zM192 212h4v4h-4zM196 212h4v4h-4zM200 212h4v4h-4zM204 212h4v4h-4zM208 212h4v4h-4zM212 212h4v4h-4zM216 212h4v4h-4zM220 212h4v4h-4zM224 212h4v4h-4z"/><path fill="#585F77" d="M228 212h4v4h-4z"/><path fill="#474958" d="M232 212h4v4h-4zM236 212h4v4h-4z"/><path fill="#00524E" d="M240 212h4v4h-4zM64 216h4v4h-4z"/><path fill="#ABB02F" d="M68 216h4v4h-4zM72 216h4v4h-4z"/><path fill="#4F963A" d="M76 216h4v4h-4z"/><path fill="#474958" d="M80 216h4v4h-4zM84 216h4v4h-4z"/><path fill="#3E3C41" d="M88 216h4v4h-4zM92 216h4v4h-4zM96 216h4v4h-4zM100 216h4v4h-4zM104 216h4v4h-4zM108 216h4v4h-4zM112 216h4v4h-4zM116 216h4v4h-4z"/><path fill="#ABB02F" d="M120 216h4v4h-4z"/><path fill="#4F963A" d="M124 216h4v4h-4z"/><path fill="#D0D53B" d="M128 216h4v4h-4zM132 216h4v4h-4z"/><path fill="#474958" d="M136 216h4v4h-4zM140 216h4v4h-4zM144 216h4v4h-4zM148 216h4v4h-4zM152 216h4v4h-4zM156 216h4v4h-4zM160 216h4v4h-4zM164 216h4v4h-4zM168 216h4v4h-4zM172 216h4v4h-4zM176 216h4v4h-4zM180 216h4v4h-4zM184 216h4v4h-4zM188 216h4v4h-4zM192 216h4v4h-4zM196 216h4v4h-4zM200 216h4v4h-4zM204 216h4v4h-4zM208 216h4v4h-4zM212 216h4v4h-4zM216 216h4v4h-4zM220 216h4v4h-4zM224 216h4v4h-4z"/><path fill="#585F77" d="M228 216h4v4h-4z"/><path fill="#474958" d="M232 216h4v4h-4zM236 216h4v4h-4z"/><path fill="#00524E" d="M240 216h4v4h-4zM64 220h4v4h-4z"/><path fill="#ABB02F" d="M68 220h4v4h-4zM72 220h4v4h-4zM76 220h4v4h-4z"/><path fill="#474958" d="M80 220h4v4h-4zM84 220h4v4h-4z"/><path fill="#3E3C41" d="M88 220h4v4h-4zM92 220h4v4h-4zM96 220h4v4h-4zM100 220h4v4h-4zM104 220h4v4h-4zM108 220h4v4h-4zM112 220h4v4h-4zM116 220h4v4h-4zM120 220h4v4h-4z"/><path fill="#4F963A" d="M124 220h4v4h-4z"/><path fill="#D0D53B" d="M128 220h4v4h-4z"/><path fill="#3E3C41" d="M132 220h4v4h-4zM136 220h4v4h-4z"/><path fill="#474958" d="M140 220h4v4h-4zM144 220h4v4h-4zM148 220h4v4h-4zM152 220h4v4h-4zM156 220h4v4h-4zM160 220h4v4h-4zM164 220h4v4h-4zM168 220h4v4h-4zM172 220h4v4h-4zM176 220h4v4h-4zM180 220h4v4h-4zM184 220h4v4h-4zM188 220h4v4h-4zM192 220h4v4h-4zM196 220h4v4h-4zM200 220h4v4h-4zM204 220h4v4h-4zM208 220h4v4h-4zM212 220h4v4h-4zM216 220h4v4h-4zM220 220h4v4h-4zM224 220h4v4h-4zM228 220h4v4h-4zM232 220h4v4h-4zM236 220h4v4h-4z"/><path fill="#00524E" d="M240 220h4v4h-4zM64 224h4v4h-4z"/><path fill="#ABB02F" d="M68 224h4v4h-4zM72 224h4v4h-4zM76 224h4v4h-4z"/><path fill="#00524E" d="M80 224h4v4h-4z"/><path fill="#474958" d="M84 224h4v4h-4zM88 224h4v4h-4z"/><path fill="#3E3C41" d="M92 224h4v4h-4zM96 224h4v4h-4zM100 224h4v4h-4zM104 224h4v4h-4zM108 224h4v4h-4zM112 224h4v4h-4zM116 224h4v4h-4zM120 224h4v4h-4zM124 224h4v4h-4z"/><path fill="#D0D53B" d="M128 224h4v4h-4z"/><path fill="#3E3C41" d="M132 224h4v4h-4zM136 224h4v4h-4zM140 224h4v4h-4z"/><path fill="#474958" d="M144 224h4v4h-4zM148 224h4v4h-4zM152 224h4v4h-4zM156 224h4v4h-4zM160 224h4v4h-4zM164 224h4v4h-4zM168 224h4v4h-4zM172 224h4v4h-4zM176 224h4v4h-4zM180 224h4v4h-4zM184 224h4v4h-4zM188 224h4v4h-4zM192 224h4v4h-4zM196 224h4v4h-4zM200 224h4v4h-4zM204 224h4v4h-4zM208 224h4v4h-4zM212 224h4v4h-4zM216 224h4v4h-4zM220 224h4v4h-4zM224 224h4v4h-4zM228 224h4v4h-4zM232 224h4v4h-4zM236 224h4v4h-4z"/><path fill="#00524E" d="M240 224h4v4h-4zM64 228h4v4h-4z"/><path fill="#ABB02F" d="M68 228h4v4h-4zM72 228h4v4h-4z"/><path fill="#00524E" d="M76 228h4v4h-4zM84 228h4v4h-4z"/><path fill="#474958" d="M88 228h4v4h-4zM92 228h4v4h-4z"/><path fill="#3E3C41" d="M96 228h4v4h-4zM100 228h4v4h-4zM104 228h4v4h-4zM108 228h4v4h-4zM112 228h4v4h-4zM116 228h4v4h-4zM120 228h4v4h-4zM124 228h4v4h-4zM128 228h4v4h-4zM132 228h4v4h-4zM136 228h4v4h-4zM140 228h4v4h-4zM144 228h4v4h-4zM148 228h4v4h-4z"/><path fill="#474958" d="M152 228h4v4h-4zM156 228h4v4h-4zM160 228h4v4h-4zM164 228h4v4h-4zM168 228h4v4h-4zM172 228h4v4h-4zM176 228h4v4h-4zM180 228h4v4h-4zM184 228h4v4h-4zM188 228h4v4h-4zM192 228h4v4h-4zM196 228h4v4h-4zM200 228h4v4h-4zM204 228h4v4h-4zM208 228h4v4h-4zM212 228h4v4h-4zM216 228h4v4h-4zM220 228h4v4h-4zM224 228h4v4h-4zM228 228h4v4h-4zM232 228h4v4h-4z"/><path fill="#00524E" d="M236 228h4v4h-4zM68 232h4v4h-4zM72 232h4v4h-4zM84 232h4v4h-4z"/><path fill="#474958" d="M88 232h4v4h-4zM92 232h4v4h-4zM96 232h4v4h-4z"/><path fill="#3E3C41" d="M100 232h4v4h-4zM104 232h4v4h-4zM108 232h4v4h-4zM112 232h4v4h-4zM116 232h4v4h-4zM120 232h4v4h-4zM124 232h4v4h-4zM128 232h4v4h-4zM132 232h4v4h-4zM136 232h4v4h-4zM140 232h4v4h-4zM144 232h4v4h-4zM148 232h4v4h-4zM152 232h4v4h-4zM156 232h4v4h-4z"/><path fill="#474958" d="M160 232h4v4h-4zM164 232h4v4h-4zM168 232h4v4h-4zM172 232h4v4h-4zM176 232h4v4h-4zM180 232h4v4h-4zM184 232h4v4h-4zM188 232h4v4h-4zM192 232h4v4h-4zM196 232h4v4h-4zM200 232h4v4h-4zM204 232h4v4h-4zM208 232h4v4h-4zM212 232h4v4h-4zM216 232h4v4h-4zM220 232h4v4h-4zM224 232h4v4h-4zM228 232h4v4h-4zM232 232h4v4h-4z"/><path fill="#00524E" d="M236 232h4v4h-4zM84 236h4v4h-4z"/><path fill="#474958" d="M88 236h4v4h-4zM92 236h4v4h-4zM96 236h4v4h-4zM100 236h4v4h-4z"/><path fill="#3E3C41" d="M104 236h4v4h-4zM108 236h4v4h-4zM112 236h4v4h-4zM116 236h4v4h-4zM120 236h4v4h-4zM124 236h4v4h-4zM128 236h4v4h-4zM132 236h4v4h-4zM136 236h4v4h-4zM140 236h4v4h-4zM144 236h4v4h-4zM148 236h4v4h-4zM152 236h4v4h-4zM156 236h4v4h-4zM160 236h4v4h-4z"/><path fill="#474958" d="M164 236h4v4h-4zM168 236h4v4h-4zM172 236h4v4h-4zM176 236h4v4h-4zM180 236h4v4h-4zM184 236h4v4h-4zM188 236h4v4h-4zM192 236h4v4h-4zM196 236h4v4h-4zM200 236h4v4h-4zM204 236h4v4h-4zM208 236h4v4h-4zM212 236h4v4h-4zM216 236h4v4h-4zM220 236h4v4h-4zM224 236h4v4h-4zM228 236h4v4h-4zM232 236h4v4h-4z"/><path fill="#00524E" d="M84 240h4v4h-4z"/><path fill="#4F963A" d="M88 240h4v4h-4z"/><path fill="#474958" d="M92 240h4v4h-4zM96 240h4v4h-4zM100 240h4v4h-4zM104 240h4v4h-4z"/><path fill="#3E3C41" d="M108 240h4v4h-4zM112 240h4v4h-4zM116 240h4v4h-4zM120 240h4v4h-4zM124 240h4v4h-4zM128 240h4v4h-4zM132 240h4v4h-4zM136 240h4v4h-4zM140 240h4v4h-4zM144 240h4v4h-4zM148 240h4v4h-4zM152 240h4v4h-4zM156 240h4v4h-4zM160 240h4v4h-4zM164 240h4v4h-4zM168 240h4v4h-4zM172 240h4v4h-4z"/><path fill="#474958" d="M176 240h4v4h-4zM180 240h4v4h-4zM184 240h4v4h-4zM188 240h4v4h-4zM192 240h4v4h-4zM196 240h4v4h-4zM200 240h4v4h-4zM204 240h4v4h-4zM208 240h4v4h-4zM212 240h4v4h-4zM216 240h4v4h-4zM220 240h4v4h-4zM224 240h4v4h-4zM228 240h4v4h-4zM232 240h4v4h-4z"/><path fill="#00524E" d="M84 244h4v4h-4z"/><path fill="#4F963A" d="M88 244h4v4h-4zM92 244h4v4h-4z"/><path fill="#00524E" d="M96 244h4v4h-4z"/><path fill="#474958" d="M100 244h4v4h-4zM104 244h4v4h-4z"/><path fill="#3E3C41" d="M108 244h4v4h-4zM112 244h4v4h-4zM116 244h4v4h-4zM120 244h4v4h-4zM124 244h4v4h-4zM128 244h4v4h-4zM132 244h4v4h-4zM136 244h4v4h-4zM140 244h4v4h-4zM144 244h4v4h-4zM148 244h4v4h-4zM152 244h4v4h-4zM156 244h4v4h-4zM160 244h4v4h-4zM164 244h4v4h-4zM168 244h4v4h-4zM172 244h4v4h-4zM176 244h4v4h-4zM180 244h4v4h-4zM184 244h4v4h-4zM188 244h4v4h-4z"/><path fill="#474958" d="M192 244h4v4h-4zM196 244h4v4h-4zM200 244h4v4h-4zM204 244h4v4h-4zM208 244h4v4h-4zM212 244h4v4h-4zM216 244h4v4h-4zM220 244h4v4h-4zM224 244h4v4h-4zM228 244h4v4h-4z"/><path fill="#00524E" d="M84 248h4v4h-4z"/><path fill="#4F963A" d="M88 248h4v4h-4z"/><path fill="#0B6A33" d="M92 248h4v4h-4z"/><path fill="#00524E" d="M96 248h4v4h-4zM100 248h4v4h-4z"/><path fill="#474958" d="M104 248h4v4h-4zM108 248h4v4h-4z"/><path fill="#3E3C41" d="M112 248h4v4h-4zM116 248h4v4h-4zM120 248h4v4h-4zM124 248h4v4h-4zM128 248h4v4h-4zM132 248h4v4h-4zM136 248h4v4h-4zM140 248h4v4h-4zM144 248h4v4h-4zM148 248h4v4h-4zM152 248h4v4h-4zM156 248h4v4h-4zM160 248h4v4h-4zM164 248h4v4h-4zM168 248h4v4h-4zM172 248h4v4h-4zM176 248h4v4h-4zM180 248h4v4h-4zM184 248h4v4h-4zM188 248h4v4h-4zM192 248h4v4h-4zM196 248h4v4h-4zM200 248h4v4h-4zM204 248h4v4h-4zM208 248h4v4h-4zM212 248h4v4h-4z"/><path fill="#00524E" d="M80 252h4v4h-4z"/><path fill="#ABB02F" d="M84 252h4v4h-4z"/><path fill="#0B6A33" d="M88 252h4v4h-4z"/><path fill="#00524E" d="M92 252h4v4h-4zM104 252h4v4h-4z"/><path fill="#474958" d="M108 252h4v4h-4zM112 252h4v4h-4z"/><path fill="#3E3C41" d="M116 252h4v4h-4zM120 252h4v4h-4zM124 252h4v4h-4zM128 252h4v4h-4zM132 252h4v4h-4zM136 252h4v4h-4zM140 252h4v4h-4zM144 252h4v4h-4zM148 252h4v4h-4zM152 252h4v4h-4zM156 252h4v4h-4zM160 252h4v4h-4zM164 252h4v4h-4zM168 252h4v4h-4zM172 252h4v4h-4z"/><path fill="#474958" d="M176 252h4v4h-4zM180 252h4v4h-4zM184 252h4v4h-4zM188 252h4v4h-4zM192 252h4v4h-4z"/><path fill="#00524E" d="M196 252h4v4h-4z"/><path fill="#474958" d="M200 252h4v4h-4zM204 252h4v4h-4z"/><path fill="#00524E" d="M80 256h4v4h-4z"/><path fill="#0B6A33" d="M84 256h4v4h-4z"/><path fill="#D0D53B" d="M88 256h4v4h-4zM92 256h4v4h-4z"/><path fill="#00524E" d="M96 256h4v4h-4zM108 256h4v4h-4z"/><path fill="#474958" d="M112 256h4v4h-4zM116 256h4v4h-4z"/><path fill="#3E3C41" d="M120 256h4v4h-4zM124 256h4v4h-4zM128 256h4v4h-4zM132 256h4v4h-4zM136 256h4v4h-4zM140 256h4v4h-4zM144 256h4v4h-4zM148 256h4v4h-4zM152 256h4v4h-4zM156 256h4v4h-4zM160 256h4v4h-4zM164 256h4v4h-4zM168 256h4v4h-4z"/><path fill="#00524E" d="M200 256h4v4h-4zM80 260h4v4h-4z"/><path fill="#0B6A33" d="M84 260h4v4h-4z"/><path fill="#D0D53B" d="M88 260h4v4h-4zM92 260h4v4h-4z"/><path fill="#00524E" d="M96 260h4v4h-4zM112 260h4v4h-4z"/><path fill="#474958" d="M116 260h4v4h-4zM120 260h4v4h-4zM124 260h4v4h-4z"/><path fill="#3E3C41" d="M128 260h4v4h-4zM132 260h4v4h-4zM136 260h4v4h-4zM140 260h4v4h-4zM144 260h4v4h-4zM148 260h4v4h-4zM152 260h4v4h-4zM156 260h4v4h-4zM160 260h4v4h-4z"/><path fill="#00524E" d="M84 264h4v4h-4z"/><path fill="#D0D53B" d="M88 264h4v4h-4zM92 264h4v4h-4z"/><path fill="#00524E" d="M96 264h4v4h-4zM116 264h4v4h-4zM120 264h4v4h-4z"/><path fill="#474958" d="M124 264h4v4h-4zM128 264h4v4h-4zM132 264h4v4h-4z"/><path fill="#3E3C41" d="M136 264h4v4h-4zM140 264h4v4h-4zM144 264h4v4h-4zM148 264h4v4h-4zM152 264h4v4h-4zM156 264h4v4h-4z"/><path fill="#00524E" d="M88 268h4v4h-4zM92 268h4v4h-4zM96 268h4v4h-4zM124 268h4v4h-4zM128 268h4v4h-4zM132 268h4v4h-4zM136 268h4v4h-4zM140 268h4v4h-4zM144 268h4v4h-4z"/><path fill="#3E3C41" d="M148 268h4v4h-4zM152 268h4v4h-4zM136 272h4v4h-4zM140 272h4v4h-4zM148 272h4v4h-4z"/></svg>