<svg width="384" height="384" xmlns="http://www.w3.org/2000/svg" shape-rendering="crispEdges"><path fill="#3A2F2B" d="M208 72h4v4h-4zM212 72h4v4h-4zM216 72h4v4h-4z"/><path fill="#7A5434" d="M220 72h4v4h-4z"/><path fill="#3A2F2B" d="M184 76h4v4h-4zM188 76h4v4h-4zM192 76h4v4h-4zM196 76h4v4h-4zM200 76h4v4h-4zM204 76h4v4h-4zM208 76h4v4h-4zM212 76h4v4h-4zM216 76h4v4h-4z"/><path fill="#7A5434" d="M220 76h4v4h-4z"/><path fill="#3A2F2B" d="M164 80h4v4h-4zM168 80h4v4h-4zM172 80h4v4h-4zM176 80h4v4h-4zM180 80h4v4h-4zM184 80h4v4h-4zM188 80h4v4h-4zM192 80h4v4h-4zM196 80h4v4h-4zM200 80h4v4h-4zM204 80h4v4h-4zM208 80h4v4h-4zM212 80h4v4h-4zM216 80h4v4h-4z"/><path fill="#7A5434" d="M220 80h4v4h-4z"/><path fill="#3A2F2B" d="M140 84h4v4h-4zM144 84h4v4h-4zM148 84h4v4h-4zM152 84h4v4h-4zM156 84h4v4h-4zM160 84h4v4h-4zM164 84h4v4h-4zM168 84h4v4h-4zM172 84h4v4h-4zM176 84h4v4h-4zM180 84h4v4h-4zM184 84h4v4h-4zM188 84h4v4h-4z"/><path fill="#C6850C" d="M192 84h4v4h-4zM196 84h4v4h-4zM200 84h4v4h-4zM204 84h4v4h-4zM208 84h4v4h-4z"/><path fill="#3A2F2B" d="M212 84h4v4h-4zM216 84h4v4h-4zM220 84h4v4h-4z"/><path fill="#7A5434" d="M224 84h4v4h-4z"/><path fill="#3A2F2B" d="M120 88h4v4h-4zM124 88h4v4h-4zM128 88h4v4h-4zM132 88h4v4h-4zM136 88h4v4h-4zM140 88h4v4h-4zM144 88h4v4h-4zM148 88h4v4h-4zM152 88h4v4h-4zM156 88h4v4h-4zM160 88h4v4h-4zM164 88h4v4h-4z"/><path fill="#C6850C" d="M168 88h4v4h-4zM172 88h4v4h-4zM176 88h4v4h-4zM180 88h4v4h-4zM184 88h4v4h-4zM188 88h4v4h-4zM192 88h4v4h-4zM196 88h4v4h-4zM200 88h4v4h-4z"/><path fill="#E2AC14" d="M204 88h4v4h-4z"/><path fill="#C6850C" d="M208 88h4v4h-4zM212 88h4v4h-4z"/><path fill="#3A2F2B" d="M216 88h4v4h-4zM220 88h4v4h-4z"/><path fill="#7A5434" d="M224 88h4v4h-4z"/><path fill="#3A2F2B" d="M96 92h4v4h-4zM100 92h4v4h-4zM104 92h4v4h-4zM108 92h4v4h-4zM112 92h4v4h-4zM116 92h4v4h-4zM120 92h4v4h-4zM124 92h4v4h-4zM128 92h4v4h-4zM132 92h4v4h-4zM136 92h4v4h-4z"/><path fill="#C6850C" d="M140 92h4v4h-4zM144 92h4v4h-4zM148 92h4v4h-4zM152 92h4v4h-4zM156 92h4v4h-4zM160 92h4v4h-4zM164 92h4v4h-4zM168 92h4v4h-4zM172 92h4v4h-4zM176 92h4v4h-4zM180 92h4v4h-4z"/><path fill="#E2AC14" d="M184 92h4v4h-4zM188 92h4v4h-4zM192 92h4v4h-4zM196 92h4v4h-4zM200 92h4v4h-4zM204 92h4v4h-4z"/><path fill="#C6850C" d="M208 92h4v4h-4zM212 92h4v4h-4z"/><path fill="#3A2F2B" d="M216 92h4v4h-4zM220 92h4v4h-4z"/><path fill="#7A5434" d="M224 92h4v4h-4z"/><path fill="#3A2F2B" d="M76 96h4v4h-4zM80 96h4v4h-4zM84 96h4v4h-4zM88 96h4v4h-4zM92 96h4v4h-4zM96 96h4v4h-4zM100 96h4v4h-4zM104 96h4v4h-4zM108 96h4v4h-4z"/><path fill="#C6850C" d="M112 96h4v4h-4zM116 96h4v4h-4zM120 96h4v4h-4zM124 96h4v4h-4zM128 96h4v4h-4zM132 96h4v4h-4zM136 96h4v4h-4zM140 96h4v4h-4zM144 96h4v4h-4zM148 96h4v4h-4zM152 96h4v4h-4zM156 96h4v4h-4z"/><path fill="#3A2F2B" d="M160 96h4v4h-4zM164 96h4v4h-4z"/><path fill="#E2AC14" d="M168 96h4v4h-4zM172 96h4v4h-4zM176 96h4v4h-4zM180 96h4v4h-4zM184 96h4v4h-4zM188 96h4v4h-4zM192 96h4v4h-4zM196 96h4v4h-4zM200 96h4v4h-4zM204 96h4v4h-4z"/><path fill="#C6850C" d="M208 96h4v4h-4zM212 96h4v4h-4z"/><path fill="#3A2F2B" d="M216 96h4v4h-4zM220 96h4v4h-4z"/><path fill="#7A5434" d="M224 96h4v4h-4z"/><path fill="#3A2F2B" d="M52 100h4v4h-4zM56 100h4v4h-4zM60 100h4v4h-4zM64 100h4v4h-4zM68 100h4v4h-4zM72 100h4v4h-4zM76 100h4v4h-4zM80 100h4v4h-4zM84 100h4v4h-4z"/><path fill="#C6850C" d="M88 100h4v4h-4zM92 100h4v4h-4zM96 100h4v4h-4zM100 100h4v4h-4zM104 100h4v4h-4zM108 100h4v4h-4zM112 100h4v4h-4zM116 100h4v4h-4zM120 100h4v4h-4zM124 100h4v4h-4zM128 100h4v4h-4zM132 100h4v4h-4zM136 100h4v4h-4z"/><path fill="#E2AC14" d="M140 100h4v4h-4z"/><path fill="#3A2F2B" d="M144 100h4v4h-4zM148 100h4v4h-4zM152 100h4v4h-4z"/><path fill="#E2AC14" d="M156 100h4v4h-4z"/><path fill="#3A2F2B" d="M160 100h4v4h-4z"/><path fill="#E2AC14" d="M164 100h4v4h-4z"/><path fill="#3A2F2B" d="M168 100h4v4h-4z"/><path fill="#E2AC14" d="M172 100h4v4h-4zM176 100h4v4h-4zM180 100h4v4h-4zM184 100h4v4h-4zM188 100h4v4h-4zM192 100h4v4h-4zM196 100h4v4h-4zM200 100h4v4h-4zM204 100h4v4h-4z"/><path fill="#C6850C" d="M208 100h4v4h-4zM212 100h4v4h-4z"/><path fill="#3A2F2B" d="M216 100h4v4h-4zM220 100h4v4h-4z"/><path fill="#7A5434" d="M224 100h4v4h-4z"/><path fill="#3A2F2B" d="M40 104h4v4h-4zM44 104h4v4h-4zM48 104h4v4h-4z"/><path fill="#7A5434" d="M52 104h4v4h-4zM56 104h4v4h-4zM60 104h4v4h-4z"/><path fill="#001628" d="M64 104h4v4h-4z"/><path fill="#7A5434" d="M68 104h4v4h-4z"/><path fill="#C6850C" d="M72 104h4v4h-4zM76 104h4v4h-4zM80 104h4v4h-4zM84 104h4v4h-4zM88 104h4v4h-4zM92 104h4v4h-4zM96 104h4v4h-4zM100 104h4v4h-4zM104 104h4v4h-4zM108 104h4v4h-4zM112 104h4v4h-4zM116 104h4v4h-4z"/><path fill="#E2AC14" d="M120 104h4v4h-4zM124 104h4v4h-4z"/><path fill="#3A2F2B" d="M128 104h4v4h-4zM132 104h4v4h-4zM136 104h4v4h-4z"/><path fill="#E2AC14" d="M140 104h4v4h-4z"/><path fill="#3A2F2B" d="M144 104h4v4h-4z"/><path fill="#E2AC14" d="M148 104h4v4h-4z"/><path fill="#3A2F2B" d="M152 104h4v4h-4z"/><path fill="#E2AC14" d="M156 104h4v4h-4z"/><path fill="#3A2F2B" d="M160 104h4v4h-4zM164 104h4v4h-4zM168 104h4v4h-4z"/><path fill="#E2AC14" d="M172 104h4v4h-4zM176 104h4v4h-4zM180 104h4v4h-4zM184 104h4v4h-4zM188 104h4v4h-4zM192 104h4v4h-4zM196 104h4v4h-4zM200 104h4v4h-4zM204 104h4v4h-4z"/><path fill="#C6850C" d="M208 104h4v4h-4zM212 104h4v4h-4z"/><path fill="#3A2F2B" d="M216 104h4v4h-4zM220 104h4v4h-4z"/><path fill="#7A5434" d="M224 104h4v4h-4zM40 108h4v4h-4zM44 108h4v4h-4zM48 108h4v4h-4z"/><path fill="#3A2F2B" d="M52 108h4v4h-4zM56 108h4v4h-4zM60 108h4v4h-4zM64 108h4v4h-4z"/><path fill="#7A5434" d="M68 108h4v4h-4z"/><path fill="#C6850C" d="M72 108h4v4h-4zM76 108h4v4h-4zM80 108h4v4h-4zM84 108h4v4h-4zM88 108h4v4h-4zM92 108h4v4h-4zM96 108h4v4h-4z"/><path fill="#E2AC14" d="M100 108h4v4h-4zM104 108h4v4h-4zM108 108h4v4h-4z"/><path fill="#3A2F2B" d="M112 108h4v4h-4zM116 108h4v4h-4zM120 108h4v4h-4z"/><path fill="#E2AC14" d="M124 108h4v4h-4z"/><path fill="#3A2F2B" d="M128 108h4v4h-4z"/><path fill="#E2AC14" d="M132 108h4v4h-4z"/><path fill="#3A2F2B" d="M136 108h4v4h-4z"/><path fill="#E2AC14" d="M140 108h4v4h-4z"/><path fill="#3A2F2B" d="M144 108h4v4h-4z"/><path fill="#E2AC14" d="M148 108h4v4h-4z"/><path fill="#3A2F2B" d="M152 108h4v4h-4z"/><path fill="#E2AC14" d="M156 108h4v4h-4zM160 108h4v4h-4zM164 108h4v4h-4zM168 108h4v4h-4zM172 108h4v4h-4zM176 108h4v4h-4zM180 108h4v4h-4zM184 108h4v4h-4zM188 108h4v4h-4zM192 108h4v4h-4zM196 108h4v4h-4zM200 108h4v4h-4zM204 108h4v4h-4z"/><path fill="#C6850C" d="M208 108h4v4h-4zM212 108h4v4h-4z"/><path fill="#3A2F2B" d="M216 108h4v4h-4zM220 108h4v4h-4zM224 108h4v4h-4z"/><path fill="#7A5434" d="M228 108h4v4h-4z"/><path fill="#3A2F2B" d="M40 112h4v4h-4zM44 112h4v4h-4zM48 112h4v4h-4zM52 112h4v4h-4zM56 112h4v4h-4zM60 112h4v4h-4zM64 112h4v4h-4z"/><path fill="#7A5434" d="M68 112h4v4h-4z"/><path fill="#C6850C" d="M72 112h4v4h-4zM76 112h4v4h-4z"/><path fill="#E2AC14" d="M80 112h4v4h-4zM84 112h4v4h-4zM88 112h4v4h-4zM92 112h4v4h-4zM96 112h4v4h-4zM100 112h4v4h-4zM104 112h4v4h-4zM108 112h4v4h-4z"/><path fill="#3A2F2B" d="M112 112h4v4h-4zM116 112h4v4h-4zM120 112h4v4h-4z"/><path fill="#E2AC14" d="M124 112h4v4h-4z"/><path fill="#3A2F2B" d="M128 112h4v4h-4zM132 112h4v4h-4zM136 112h4v4h-4z"/><path fill="#E2AC14" d="M140 112h4v4h-4zM144 112h4v4h-4zM148 112h4v4h-4zM152 112h4v4h-4zM156 112h4v4h-4zM160 112h4v4h-4zM164 112h4v4h-4z"/><path fill="#3A2F2B" d="M168 112h4v4h-4zM172 112h4v4h-4zM176 112h4v4h-4zM180 112h4v4h-4zM184 112h4v4h-4z"/><path fill="#E2AC14" d="M188 112h4v4h-4zM192 112h4v4h-4zM196 112h4v4h-4zM200 112h4v4h-4zM204 112h4v4h-4z"/><path fill="#C6850C" d="M208 112h4v4h-4zM212 112h4v4h-4z"/><path fill="#3A2F2B" d="M216 112h4v4h-4zM220 112h4v4h-4zM224 112h4v4h-4z"/><path fill="#7A5434" d="M228 112h4v4h-4z"/><path fill="#3A2F2B" d="M40 116h4v4h-4zM44 116h4v4h-4zM48 116h4v4h-4zM52 116h4v4h-4zM56 116h4v4h-4zM60 116h4v4h-4zM64 116h4v4h-4z"/><path fill="#7A5434" d="M68 116h4v4h-4z"/><path fill="#E2AC14" d="M72 116h4v4h-4zM76 116h4v4h-4zM80 116h4v4h-4zM84 116h4v4h-4zM88 116h4v4h-4zM92 116h4v4h-4zM96 116h4v4h-4zM100 116h4v4h-4zM104 116h4v4h-4zM108 116h4v4h-4z"/><path fill="#3A2F2B" d="M112 116h4v4h-4z"/><path fill="#E2AC14" d="M116 116h4v4h-4zM120 116h4v4h-4zM124 116h4v4h-4zM128 116h4v4h-4zM132 116h4v4h-4zM136 116h4v4h-4zM140 116h4v4h-4z"/><path fill="#3A2F2B" d="M144 116h4v4h-4zM148 116h4v4h-4zM152 116h4v4h-4zM156 116h4v4h-4zM160 116h4v4h-4zM164 116h4v4h-4zM168 116h4v4h-4zM172 116h4v4h-4zM176 116h4v4h-4zM180 116h4v4h-4zM184 116h4v4h-4zM188 116h4v4h-4z"/><path fill="#E2AC14" d="M192 116h4v4h-4zM196 116h4v4h-4zM200 116h4v4h-4zM204 116h4v4h-4zM208 116h4v4h-4z"/><path fill="#C6850C" d="M212 116h4v4h-4z"/><path fill="#3A2F2B" d="M216 116h4v4h-4zM220 116h4v4h-4zM224 116h4v4h-4z"/><path fill="#7A5434" d="M228 116h4v4h-4z"/><path fill="#3A2F2B" d="M44 120h4v4h-4zM48 120h4v4h-4zM52 120h4v4h-4zM56 120h4v4h-4zM60 120h4v4h-4zM64 120h4v4h-4zM68 120h4v4h-4z"/><path fill="#7A5434" d="M72 120h4v4h-4z"/><path fill="#E2AC14" d="M76 120h4v4h-4zM80 120h4v4h-4zM84 120h4v4h-4zM88 120h4v4h-4zM92 120h4v4h-4zM96 120h4v4h-4zM100 120h4v4h-4zM104 120h4v4h-4zM108 120h4v4h-4zM112 120h4v4h-4zM116 120h4v4h-4z"/><path fill="#3A2F2B" d="M120 120h4v4h-4zM124 120h4v4h-4zM128 120h4v4h-4zM132 120h4v4h-4zM136 120h4v4h-4zM140 120h4v4h-4zM144 120h4v4h-4zM148 120h4v4h-4zM152 120h4v4h-4zM156 120h4v4h-4zM160 120h4v4h-4zM164 120h4v4h-4zM168 120h4v4h-4zM172 120h4v4h-4zM176 120h4v4h-4zM180 120h4v4h-4zM184 120h4v4h-4zM188 120h4v4h-4z"/><path fill="#E2AC14" d="M192 120h4v4h-4zM196 120h4v4h-4zM200 120h4v4h-4zM204 120h4v4h-4zM208 120h4v4h-4z"/><path fill="#C6850C" d="M212 120h4v4h-4z"/><path fill="#3A2F2B" d="M216 120h4v4h-4zM220 120h4v4h-4zM224 120h4v4h-4z"/><path fill="#7A5434" d="M228 120h4v4h-4z"/><path fill="#3A2F2B" d="M44 124h4v4h-4zM48 124h4v4h-4zM52 124h4v4h-4zM56 124h4v4h-4zM60 124h4v4h-4zM64 124h4v4h-4zM68 124h4v4h-4z"/><path fill="#7A5434" d="M72 124h4v4h-4z"/><path fill="#E2AC14" d="M76 124h4v4h-4zM80 124h4v4h-4zM84 124h4v4h-4zM88 124h4v4h-4zM92 124h4v4h-4zM96 124h4v4h-4zM100 124h4v4h-4zM104 124h4v4h-4z"/><path fill="#3A2F2B" d="M108 124h4v4h-4zM112 124h4v4h-4zM116 124h4v4h-4zM120 124h4v4h-4zM124 124h4v4h-4zM128 124h4v4h-4zM132 124h4v4h-4zM136 124h4v4h-4zM140 124h4v4h-4zM144 124h4v4h-4zM148 124h4v4h-4zM152 124h4v4h-4zM156 124h4v4h-4zM160 124h4v4h-4zM164 124h4v4h-4zM168 124h4v4h-4zM172 124h4v4h-4zM176 124h4v4h-4zM180 124h4v4h-4zM184 124h4v4h-4zM188 124h4v4h-4z"/><path fill="#E2AC14" d="M192 124h4v4h-4zM196 124h4v4h-4zM200 124h4v4h-4zM204 124h4v4h-4zM208 124h4v4h-4z"/><path fill="#C6850C" d="M212 124h4v4h-4z"/><path fill="#3A2F2B" d="M216 124h4v4h-4zM220 124h4v4h-4zM224 124h4v4h-4z"/><path fill="#7A5434" d="M228 124h4v4h-4z"/><path fill="#3A2F2B" d="M44 128h4v4h-4zM48 128h4v4h-4zM52 128h4v4h-4zM56 128h4v4h-4zM60 128h4v4h-4zM64 128h4v4h-4zM68 128h4v4h-4z"/><path fill="#7A5434" d="M72 128h4v4h-4z"/><path fill="#E2AC14" d="M76 128h4v4h-4zM80 128h4v4h-4zM84 128h4v4h-4zM88 128h4v4h-4zM92 128h4v4h-4zM96 128h4v4h-4zM100 128h4v4h-4zM104 128h4v4h-4z"/><path fill="#3A2F2B" d="M108 128h4v4h-4zM112 128h4v4h-4zM116 128h4v4h-4zM120 128h4v4h-4zM124 128h4v4h-4zM128 128h4v4h-4zM132 128h4v4h-4zM136 128h4v4h-4zM140 128h4v4h-4zM144 128h4v4h-4zM148 128h4v4h-4zM152 128h4v4h-4zM156 128h4v4h-4zM160 128h4v4h-4zM164 128h4v4h-4zM168 128h4v4h-4zM172 128h4v4h-4z"/><path fill="#7A5434" d="M176 128h4v4h-4z"/><path fill="#3A2F2B" d="M180 128h4v4h-4zM184 128h4v4h-4zM188 128h4v4h-4z"/><path fill="#E2AC14" d="M192 128h4v4h-4zM196 128h4v4h-4zM200 128h4v4h-4zM204 128h4v4h-4zM208 128h4v4h-4z"/><path fill="#C6850C" d="M212 128h4v4h-4z"/><path fill="#3A2F2B" d="M216 128h4v4h-4zM220 128h4v4h-4zM224 128h4v4h-4z"/><path fill="#7A5434" d="M228 128h4v4h-4z"/><path fill="#3A2F2B" d="M48 132h4v4h-4zM52 132h4v4h-4zM56 132h4v4h-4zM60 132h4v4h-4zM64 132h4v4h-4zM68 132h4v4h-4zM72 132h4v4h-4z"/><path fill="#7A5434" d="M76 132h4v4h-4z"/><path fill="#E2AC14" d="M80 132h4v4h-4zM84 132h4v4h-4zM88 132h4v4h-4zM92 132h4v4h-4zM96 132h4v4h-4zM100 132h4v4h-4zM104 132h4v4h-4z"/><path fill="#3A2F2B" d="M108 132h4v4h-4zM112 132h4v4h-4zM116 132h4v4h-4zM120 132h4v4h-4zM124 132h4v4h-4zM128 132h4v4h-4zM132 132h4v4h-4zM136 132h4v4h-4zM140 132h4v4h-4zM144 132h4v4h-4z"/><path fill="#868145" d="M148 132h4v4h-4zM152 132h4v4h-4zM156 132h4v4h-4z"/><path fill="#C8B08F" d="M160 132h4v4h-4zM164 132h4v4h-4z"/><path fill="#868145" d="M168 132h4v4h-4z"/><path fill="#3A2F2B" d="M172 132h4v4h-4z"/><path fill="#7A5434" d="M176 132h4v4h-4z"/><path fill="#3A2F2B" d="M180 132h4v4h-4zM184 132h4v4h-4zM188 132h4v4h-4z"/><path fill="#E2AC14" d="M192 132h4v4h-4zM196 132h4v4h-4zM200 132h4v4h-4zM204 132h4v4h-4zM208 132h4v4h-4z"/><path fill="#C6850C" d="M212 132h4v4h-4z"/><path fill="#3A2F2B" d="M216 132h4v4h-4zM220 132h4v4h-4zM224 132h4v4h-4zM228 132h4v4h-4z"/><path fill="#7A5434" d="M232 132h4v4h-4z"/><path fill="#3A2F2B" d="M48 136h4v4h-4zM52 136h4v4h-4zM56 136h4v4h-4zM60 136h4v4h-4zM64 136h4v4h-4zM68 136h4v4h-4zM72 136h4v4h-4z"/><path fill="#7A5434" d="M76 136h4v4h-4z"/><path fill="#E2AC14" d="M80 136h4v4h-4zM84 136h4v4h-4zM88 136h4v4h-4zM92 136h4v4h-4zM96 136h4v4h-4zM100 136h4v4h-4zM104 136h4v4h-4z"/><path fill="#3A2F2B" d="M108 136h4v4h-4zM112 136h4v4h-4zM116 136h4v4h-4zM120 136h4v4h-4zM124 136h4v4h-4z"/><path fill="#868145" d="M128 136h4v4h-4z"/><path fill="#C8B08F" d="M132 136h4v4h-4z"/><path fill="#868145" d="M136 136h4v4h-4zM140 136h4v4h-4zM144 136h4v4h-4z"/><path fill="#C8B08F" d="M148 136h4v4h-4z"/><path fill="#868145" d="M152 136h4v4h-4zM156 136h4v4h-4zM160 136h4v4h-4z"/><path fill="#C8B08F" d="M164 136h4v4h-4z"/><path fill="#868145" d="M168 136h4v4h-4zM172 136h4v4h-4z"/><path fill="#3A2F2B" d="M176 136h4v4h-4z"/><path fill="#7A5434" d="M180 136h4v4h-4z"/><path fill="#3A2F2B" d="M184 136h4v4h-4zM188 136h4v4h-4z"/><path fill="#E2AC14" d="M192 136h4v4h-4zM196 136h4v4h-4zM200 136h4v4h-4zM204 136h4v4h-4zM208 136h4v4h-4z"/><path fill="#C6850C" d="M212 136h4v4h-4z"/><path fill="#3A2F2B" d="M216 136h4v4h-4zM220 136h4v4h-4zM224 136h4v4h-4zM228 136h4v4h-4z"/><path fill="#7A5434" d="M232 136h4v4h-4z"/><path fill="#3A2F2B" d="M52 140h4v4h-4zM56 140h4v4h-4zM60 140h4v4h-4zM64 140h4v4h-4zM68 140h4v4h-4zM72 140h4v4h-4zM76 140h4v4h-4z"/><path fill="#7A5434" d="M80 140h4v4h-4z"/><path fill="#E2AC14" d="M84 140h4v4h-4zM88 140h4v4h-4zM92 140h4v4h-4zM96 140h4v4h-4zM100 140h4v4h-4zM104 140h4v4h-4z"/><path fill="#3A2F2B" d="M108 140h4v4h-4zM112 140h4v4h-4zM116 140h4v4h-4zM120 140h4v4h-4z"/><path fill="#868145" d="M124 140h4v4h-4zM128 140h4v4h-4z"/><path fill="#C8B08F" d="M132 140h4v4h-4zM136 140h4v4h-4z"/><path fill="#868145" d="M140 140h4v4h-4zM144 140h4v4h-4zM148 140h4v4h-4z"/><path fill="#C8B08F" d="M152 140h4v4h-4z"/><path fill="#868145" d="M156 140h4v4h-4zM160 140h4v4h-4zM164 140h4v4h-4zM168 140h4v4h-4zM172 140h4v4h-4z"/><path fill="#3A2F2B" d="M176 140h4v4h-4z"/><path fill="#7A5434" d="M180 140h4v4h-4z"/><path fill="#3A2F2B" d="M184 140h4v4h-4zM188 140h4v4h-4z"/><path fill="#E2AC14" d="M192 140h4v4h-4zM196 140h4v4h-4zM200 140h4v4h-4zM204 140h4v4h-4zM208 140h4v4h-4z"/><path fill="#C6850C" d="M212 140h4v4h-4z"/><path fill="#3A2F2B" d="M216 140h4v4h-4zM220 140h4v4h-4zM224 140h4v4h-4zM228 140h4v4h-4z"/><path fill="#7A5434" d="M232 140h4v4h-4z"/><path fill="#3A2F2B" d="M52 144h4v4h-4zM56 144h4v4h-4zM60 144h4v4h-4zM64 144h4v4h-4zM68 144h4v4h-4zM72 144h4v4h-4zM76 144h4v4h-4z"/><path fill="#7A5434" d="M80 144h4v4h-4z"/><path fill="#E2AC14" d="M84 144h4v4h-4zM88 144h4v4h-4zM92 144h4v4h-4zM96 144h4v4h-4zM100 144h4v4h-4zM104 144h4v4h-4z"/><path fill="#3A2F2B" d="M108 144h4v4h-4zM112 144h4v4h-4zM116 144h4v4h-4z"/><path fill="#868145" d="M120 144h4v4h-4zM124 144h4v4h-4zM128 144h4v4h-4zM132 144h4v4h-4zM136 144h4v4h-4zM140 144h4v4h-4zM144 144h4v4h-4zM148 144h4v4h-4z"/><path fill="#C8B08F" d="M152 144h4v4h-4z"/><path fill="#868145" d="M156 144h4v4h-4zM160 144h4v4h-4zM164 144h4v4h-4zM168 144h4v4h-4z"/><path fill="#C8B08F" d="M172 144h4v4h-4z"/><path fill="#868145" d="M176 144h4v4h-4z"/><path fill="#3A2F2B" d="M180 144h4v4h-4z"/><path fill="#7A5434" d="M184 144h4v4h-4z"/><path fill="#3A2F2B" d="M188 144h4v4h-4z"/><path fill="#E2AC14" d="M192 144h4v4h-4zM196 144h4v4h-4zM200 144h4v4h-4zM204 144h4v4h-4zM208 144h4v4h-4z"/><path fill="#C6850C" d="M212 144h4v4h-4z"/><path fill="#3A2F2B" d="M216 144h4v4h-4zM220 144h4v4h-4zM224 144h4v4h-4zM228 144h4v4h-4z"/><path fill="#7A5434" d="M232 144h4v4h-4z"/><path fill="#3A2F2B" d="M52 148h4v4h-4zM56 148h4v4h-4zM60 148h4v4h-4zM64 148h4v4h-4zM68 148h4v4h-4zM72 148h4v4h-4zM76 148h4v4h-4z"/><path fill="#7A5434" d="M80 148h4v4h-4z"/><path fill="#E2AC14" d="M84 148h4v4h-4zM88 148h4v4h-4zM92 148h4v4h-4zM96 148h4v4h-4zM100 148h4v4h-4zM104 148h4v4h-4zM108 148h4v4h-4z"/><path fill="#3A2F2B" d="M112 148h4v4h-4zM116 148h4v4h-4z"/><path fill="#868145" d="M120 148h4v4h-4zM124 148h4v4h-4zM128 148h4v4h-4zM132 148h4v4h-4zM136 148h4v4h-4zM140 148h4v4h-4zM144 148h4v4h-4zM148 148h4v4h-4zM152 148h4v4h-4z"/><path fill="#C8B08F" d="M156 148h4v4h-4z"/><path fill="#868145" d="M160 148h4v4h-4zM164 148h4v4h-4zM168 148h4v4h-4z"/><path fill="#C8B08F" d="M172 148h4v4h-4z"/><path fill="#868145" d="M176 148h4v4h-4z"/><path fill="#3A2F2B" d="M180 148h4v4h-4z"/><path fill="#7A5434" d="M184 148h4v4h-4z"/><path fill="#3A2F2B" d="M188 148h4v4h-4zM192 148h4v4h-4z"/><path fill="#E2AC14" d="M196 148h4v4h-4zM200 148h4v4h-4zM204 148h4v4h-4zM208 148h4v4h-4zM212 148h4v4h-4z"/><path fill="#C6850C" d="M216 148h4v4h-4z"/><path fill="#3A2F2B" d="M220 148h4v4h-4zM224 148h4v4h-4zM228 148h4v4h-4z"/><path fill="#7A5434" d="M232 148h4v4h-4z"/><path fill="#3A2F2B" d="M56 152h4v4h-4zM60 152h4v4h-4zM64 152h4v4h-4zM68 152h4v4h-4zM72 152h4v4h-4zM76 152h4v4h-4zM80 152h4v4h-4z"/><path fill="#7A5434" d="M84 152h4v4h-4z"/><path fill="#E2AC14" d="M88 152h4v4h-4zM92 152h4v4h-4zM96 152h4v4h-4zM100 152h4v4h-4zM104 152h4v4h-4zM108 152h4v4h-4zM112 152h4v4h-4z"/><path fill="#3A2F2B" d="M116 152h4v4h-4zM120 152h4v4h-4z"/><path fill="#868145" d="M124 152h4v4h-4z"/><path fill="#C8B08F" d="M128 152h4v4h-4z"/><path fill="#868145" d="M132 152h4v4h-4zM136 152h4v4h-4zM140 152h4v4h-4z"/><path fill="#C8B08F" d="M144 152h4v4h-4z"/><path fill="#868145" d="M148 152h4v4h-4zM152 152h4v4h-4z"/><path fill="#C8B08F" d="M156 152h4v4h-4z"/><path fill="#868145" d="M160 152h4v4h-4zM164 152h4v4h-4zM168 152h4v4h-4zM172 152h4v4h-4zM176 152h4v4h-4zM180 152h4v4h-4z"/><path fill="#3A2F2B" d="M184 152h4v4h-4z"/><path fill="#7A5434" d="M188 152h4v4h-4z"/><path fill="#3A2F2B" d="M192 152h4v4h-4z"/><path fill="#E2AC14" d="M196 152h4v4h-4zM200 152h4v4h-4zM204 152h4v4h-4zM208 152h4v4h-4zM212 152h4v4h-4z"/><path fill="#C6850C" d="M216 152h4v4h-4zM220 152h4v4h-4z"/><path fill="#3A2F2B" d="M224 152h4v4h-4zM228 152h4v4h-4z"/><path fill="#7A5434" d="M232 152h4v4h-4z"/><path fill="#3A2F2B" d="M56 156h4v4h-4zM60 156h4v4h-4zM64 156h4v4h-4zM68 156h4v4h-4zM72 156h4v4h-4zM76 156h4v4h-4zM80 156h4v4h-4z"/><path fill="#7A5434" d="M84 156h4v4h-4z"/><path fill="#E2AC14" d="M88 156h4v4h-4zM92 156h4v4h-4zM96 156h4v4h-4zM100 156h4v4h-4zM104 156h4v4h-4zM108 156h4v4h-4zM112 156h4v4h-4zM116 156h4v4h-4z"/><path fill="#3A2F2B" d="M120 156h4v4h-4z"/><path fill="#868145" d="M124 156h4v4h-4z"/><path fill="#C8B08F" d="M128 156h4v4h-4z"/><path fill="#868145" d="M132 156h4v4h-4zM136 156h4v4h-4zM140 156h4v4h-4zM144 156h4v4h-4zM148 156h4v4h-4zM152 156h4v4h-4zM156 156h4v4h-4z"/><path fill="#C8B08F" d="M160 156h4v4h-4z"/><path fill="#868145" d="M164 156h4v4h-4zM168 156h4v4h-4zM172 156h4v4h-4zM176 156h4v4h-4zM180 156h4v4h-4z"/><path fill="#3A2F2B" d="M184 156h4v4h-4z"/><path fill="#7A5434" d="M188 156h4v4h-4z"/><path fill="#3A2F2B" d="M192 156h4v4h-4z"/><path fill="#E2AC14" d="M196 156h4v4h-4zM200 156h4v4h-4zM204 156h4v4h-4zM208 156h4v4h-4zM212 156h4v4h-4zM216 156h4v4h-4z"/><path fill="#C6850C" d="M220 156h4v4h-4z"/><path fill="#3A2F2B" d="M224 156h4v4h-4zM228 156h4v4h-4zM232 156h4v4h-4z"/><path fill="#7A5434" d="M236 156h4v4h-4z"/><path fill="#3A2F2B" d="M56 160h4v4h-4zM60 160h4v4h-4zM64 160h4v4h-4zM68 160h4v4h-4zM72 160h4v4h-4zM76 160h4v4h-4zM80 160h4v4h-4zM84 160h4v4h-4z"/><path fill="#7A5434" d="M88 160h4v4h-4z"/><path fill="#E2AC14" d="M92 160h4v4h-4zM96 160h4v4h-4zM100 160h4v4h-4zM104 160h4v4h-4zM108 160h4v4h-4zM112 160h4v4h-4zM116 160h4v4h-4z"/><path fill="#3A2F2B" d="M120 160h4v4h-4zM124 160h4v4h-4z"/><path fill="#868145" d="M128 160h4v4h-4zM132 160h4v4h-4zM136 160h4v4h-4zM140 160h4v4h-4zM144 160h4v4h-4zM148 160h4v4h-4zM152 160h4v4h-4zM156 160h4v4h-4z"/><path fill="#C8B08F" d="M160 160h4v4h-4z"/><path fill="#868145" d="M164 160h4v4h-4zM168 160h4v4h-4zM172 160h4v4h-4zM176 160h4v4h-4z"/><path fill="#3A2F2B" d="M180 160h4v4h-4zM184 160h4v4h-4z"/><path fill="#E2AC14" d="M188 160h4v4h-4zM192 160h4v4h-4zM196 160h4v4h-4zM200 160h4v4h-4zM204 160h4v4h-4zM208 160h4v4h-4zM212 160h4v4h-4zM216 160h4v4h-4z"/><path fill="#C6850C" d="M220 160h4v4h-4zM224 160h4v4h-4z"/><path fill="#3A2F2B" d="M228 160h4v4h-4zM232 160h4v4h-4z"/><path fill="#7A5434" d="M236 160h4v4h-4z"/><path fill="#3A2F2B" d="M60 164h4v4h-4zM64 164h4v4h-4zM68 164h4v4h-4zM72 164h4v4h-4zM76 164h4v4h-4zM80 164h4v4h-4zM84 164h4v4h-4z"/><path fill="#7A5434" d="M88 164h4v4h-4z"/><path fill="#E2AC14" d="M92 164h4v4h-4zM96 164h4v4h-4zM100 164h4v4h-4zM104 164h4v4h-4zM108 164h4v4h-4zM112 164h4v4h-4zM116 164h4v4h-4zM120 164h4v4h-4z"/><path fill="#3A2F2B" d="M124 164h4v4h-4z"/><path fill="#868145" d="M128 164h4v4h-4zM132 164h4v4h-4zM136 164h4v4h-4zM140 164h4v4h-4zM144 164h4v4h-4zM148 164h4v4h-4zM152 164h4v4h-4zM156 164h4v4h-4zM160 164h4v4h-4zM164 164h4v4h-4z"/><path fill="#3A2F2B" d="M168 164h4v4h-4zM172 164h4v4h-4zM176 164h4v4h-4z"/><path fill="#E2AC14" d="M180 164h4v4h-4zM184 164h4v4h-4zM188 164h4v4h-4zM192 164h4v4h-4zM196 164h4v4h-4zM200 164h4v4h-4zM204 164h4v4h-4zM208 164h4v4h-4zM212 164h4v4h-4zM216 164h4v4h-4zM220 164h4v4h-4zM224 164h4v4h-4z"/><path fill="#7A5434" d="M228 164h4v4h-4z"/><path fill="#3A2F2B" d="M232 164h4v4h-4z"/><path fill="#7A5434" d="M236 164h4v4h-4z"/><path fill="#3A2F2B" d="M60 168h4v4h-4zM64 168h4v4h-4zM68 168h4v4h-4zM72 168h4v4h-4zM76 168h4v4h-4zM80 168h4v4h-4zM84 168h4v4h-4zM88 168h4v4h-4z"/><path fill="#7A5434" d="M92 168h4v4h-4z"/><path fill="#E2AC14" d="M96 168h4v4h-4zM100 168h4v4h-4zM104 168h4v4h-4zM108 168h4v4h-4zM112 168h4v4h-4zM116 168h4v4h-4zM120 168h4v4h-4z"/><path fill="#3A2F2B" d="M124 168h4v4h-4zM128 168h4v4h-4z"/><path fill="#868145" d="M132 168h4v4h-4zM136 168h4v4h-4zM140 168h4v4h-4zM144 168h4v4h-4z"/><path fill="#3A2F2B" d="M148 168h4v4h-4zM152 168h4v4h-4zM156 168h4v4h-4zM160 168h4v4h-4z"/><path fill="#E2AC14" d="M164 168h4v4h-4zM168 168h4v4h-4zM172 168h4v4h-4zM176 168h4v4h-4zM180 168h4v4h-4zM184 168h4v4h-4zM188 168h4v4h-4zM192 168h4v4h-4zM196 168h4v4h-4zM200 168h4v4h-4z"/><path fill="#FFD61F" d="M204 168h4v4h-4zM208 168h4v4h-4zM212 168h4v4h-4zM216 168h4v4h-4zM220 168h4v4h-4zM224 168h4v4h-4z"/><path fill="#E2AC14" d="M228 168h4v4h-4z"/><path fill="#7A5434" d="M232 168h4v4h-4z"/><path fill="#3A2F2B" d="M236 168h4v4h-4z"/><path fill="#7A5434" d="M240 168h4v4h-4z"/><path fill="#3A2F2B" d="M64 172h4v4h-4zM68 172h4v4h-4zM72 172h4v4h-4zM76 172h4v4h-4zM80 172h4v4h-4zM84 172h4v4h-4zM88 172h4v4h-4z"/><path fill="#7A5434" d="M92 172h4v4h-4z"/><path fill="#E2AC14" d="M96 172h4v4h-4zM100 172h4v4h-4zM104 172h4v4h-4zM108 172h4v4h-4zM112 172h4v4h-4zM116 172h4v4h-4zM120 172h4v4h-4zM124 172h4v4h-4z"/><path fill="#3A2F2B" d="M128 172h4v4h-4zM132 172h4v4h-4zM136 172h4v4h-4zM140 172h4v4h-4zM144 172h4v4h-4z"/><path fill="#E2AC14" d="M148 172h4v4h-4zM152 172h4v4h-4zM156 172h4v4h-4zM160 172h4v4h-4zM164 172h4v4h-4zM168 172h4v4h-4zM172 172h4v4h-4zM176 172h4v4h-4zM180 172h4v4h-4z"/><path fill="#FFD61F" d="M184 172h4v4h-4zM188 172h4v4h-4zM192 172h4v4h-4zM196 172h4v4h-4zM200 172h4v4h-4z"/><path fill="#C8B08F" d="M204 172h4v4h-4zM208 172h4v4h-4zM212 172h4v4h-4zM216 172h4v4h-4z"/><path fill="#868145" d="M220 172h4v4h-4z"/><path fill="#FFD61F" d="M224 172h4v4h-4z"/><path fill="#E2AC14" d="M228 172h4v4h-4z"/><path fill="#7A5434" d="M232 172h4v4h-4z"/><path fill="#3A2F2B" d="M236 172h4v4h-4zM240 172h4v4h-4z"/><path fill="#7A5434" d="M244 172h4v4h-4z"/><path fill="#3A2F2B" d="M64 176h4v4h-4zM68 176h4v4h-4zM72 176h4v4h-4zM76 176h4v4h-4zM80 176h4v4h-4zM84 176h4v4h-4zM88 176h4v4h-4z"/><path fill="#7A5434" d="M92 176h4v4h-4z"/><path fill="#E2AC14" d="M96 176h4v4h-4zM100 176h4v4h-4zM104 176h4v4h-4zM108 176h4v4h-4zM112 176h4v4h-4zM116 176h4v4h-4zM120 176h4v4h-4zM124 176h4v4h-4zM128 176h4v4h-4zM132 176h4v4h-4zM136 176h4v4h-4zM140 176h4v4h-4zM144 176h4v4h-4zM148 176h4v4h-4zM152 176h4v4h-4zM156 176h4v4h-4zM160 176h4v4h-4zM164 176h4v4h-4zM168 176h4v4h-4z"/><path fill="#FFD61F" d="M172 176h4v4h-4zM176 176h4v4h-4zM180 176h4v4h-4zM184 176h4v4h-4z"/><path fill="#C8B08F" d="M188 176h4v4h-4zM192 176h4v4h-4zM196 176h4v4h-4z"/><path fill="#7A5434" d="M200 176h4v4h-4zM204 176h4v4h-4z"/><path fill="#C8B08F" d="M208 176h4v4h-4zM212 176h4v4h-4zM216 176h4v4h-4zM220 176h4v4h-4z"/><path fill="#FFD61F" d="M224 176h4v4h-4zM228 176h4v4h-4z"/><path fill="#E2AC14" d="M232 176h4v4h-4z"/><path fill="#7A5434" d="M236 176h4v4h-4z"/><path fill="#3A2F2B" d="M240 176h4v4h-4z"/><path fill="#7A5434" d="M244 176h4v4h-4z"/><path fill="#3A2F2B" d="M64 180h4v4h-4zM68 180h4v4h-4zM72 180h4v4h-4zM76 180h4v4h-4zM80 180h4v4h-4zM84 180h4v4h-4zM88 180h4v4h-4zM92 180h4v4h-4z"/><path fill="#7A5434" d="M96 180h4v4h-4z"/><path fill="#E2AC14" d="M100 180h4v4h-4zM104 180h4v4h-4zM108 180h4v4h-4zM112 180h4v4h-4zM116 180h4v4h-4zM120 180h4v4h-4zM124 180h4v4h-4zM128 180h4v4h-4zM132 180h4v4h-4zM136 180h4v4h-4zM140 180h4v4h-4zM144 180h4v4h-4zM148 180h4v4h-4zM152 180h4v4h-4z"/><path fill="#FFD61F" d="M156 180h4v4h-4zM160 180h4v4h-4zM164 180h4v4h-4zM168 180h4v4h-4z"/><path fill="#868145" d="M172 180h4v4h-4z"/><path fill="#C8B08F" d="M176 180h4v4h-4zM180 180h4v4h-4zM184 180h4v4h-4zM188 180h4v4h-4zM192 180h4v4h-4zM196 180h4v4h-4z"/><path fill="#7A5434" d="M200 180h4v4h-4zM204 180h4v4h-4z"/><path fill="#C8B08F" d="M208 180h4v4h-4zM212 180h4v4h-4zM216 180h4v4h-4zM220 180h4v4h-4z"/><path fill="#FFD61F" d="M224 180h4v4h-4zM228 180h4v4h-4z"/><path fill="#E2AC14" d="M232 180h4v4h-4z"/><path fill="#7A5434" d="M236 180h4v4h-4z"/><path fill="#3A2F2B" d="M240 180h4v4h-4z"/><path fill="#7A5434" d="M244 180h4v4h-4z"/><path fill="#3A2F2B" d="M68 184h4v4h-4zM72 184h4v4h-4zM76 184h4v4h-4zM80 184h4v4h-4zM84 184h4v4h-4zM88 184h4v4h-4zM92 184h4v4h-4z"/><path fill="#7A5434" d="M96 184h4v4h-4z"/><path fill="#E2AC14" d="M100 184h4v4h-4zM104 184h4v4h-4zM108 184h4v4h-4zM112 184h4v4h-4zM116 184h4v4h-4zM120 184h4v4h-4zM124 184h4v4h-4zM128 184h4v4h-4zM132 184h4v4h-4zM136 184h4v4h-4z"/><path fill="#FFD61F" d="M140 184h4v4h-4zM144 184h4v4h-4zM148 184h4v4h-4zM152 184h4v4h-4z"/><path fill="#C8B08F" d="M156 184h4v4h-4zM160 184h4v4h-4zM164 184h4v4h-4zM168 184h4v4h-4zM172 184h4v4h-4zM176 184h4v4h-4zM180 184h4v4h-4zM184 184h4v4h-4zM188 184h4v4h-4zM192 184h4v4h-4zM196 184h4v4h-4z"/><path fill="#FFD61F" d="M200 184h4v4h-4zM204 184h4v4h-4z"/><path fill="#C8B08F" d="M208 184h4v4h-4zM212 184h4v4h-4zM216 184h4v4h-4z"/><path fill="#868145" d="M220 184h4v4h-4z"/><path fill="#FFD61F" d="M224 184h4v4h-4zM228 184h4v4h-4z"/><path fill="#7A5434" d="M232 184h4v4h-4zM236 184h4v4h-4z"/><path fill="#3A2F2B" d="M240 184h4v4h-4z"/><path fill="#7A5434" d="M244 184h4v4h-4z"/><path fill="#3A2F2B" d="M68 188h4v4h-4zM72 188h4v4h-4zM76 188h4v4h-4zM80 188h4v4h-4zM84 188h4v4h-4zM88 188h4v4h-4zM92 188h4v4h-4zM96 188h4v4h-4z"/><path fill="#7A5434" d="M100 188h4v4h-4z"/><path fill="#E2AC14" d="M104 188h4v4h-4zM108 188h4v4h-4zM112 188h4v4h-4zM116 188h4v4h-4zM120 188h4v4h-4zM124 188h4v4h-4z"/><path fill="#FFD61F" d="M128 188h4v4h-4zM132 188h4v4h-4zM136 188h4v4h-4z"/><path fill="#C8B08F" d="M140 188h4v4h-4z"/><path fill="#7A5434" d="M144 188h4v4h-4zM148 188h4v4h-4z"/><path fill="#C8B08F" d="M152 188h4v4h-4zM156 188h4v4h-4zM160 188h4v4h-4zM164 188h4v4h-4zM168 188h4v4h-4zM172 188h4v4h-4zM176 188h4v4h-4zM180 188h4v4h-4zM184 188h4v4h-4zM188 188h4v4h-4zM192 188h4v4h-4zM196 188h4v4h-4zM200 188h4v4h-4zM204 188h4v4h-4z"/><path fill="#FFD61F" d="M208 188h4v4h-4zM212 188h4v4h-4zM216 188h4v4h-4zM220 188h4v4h-4z"/><path fill="#7A5434" d="M224 188h4v4h-4zM228 188h4v4h-4zM232 188h4v4h-4zM236 188h4v4h-4z"/><path fill="#3A2F2B" d="M240 188h4v4h-4z"/><path fill="#7A5434" d="M244 188h4v4h-4z"/><path fill="#3A2F2B" d="M72 192h4v4h-4zM76 192h4v4h-4zM80 192h4v4h-4zM84 192h4v4h-4zM88 192h4v4h-4zM92 192h4v4h-4zM96 192h4v4h-4z"/><path fill="#7A5434" d="M100 192h4v4h-4z"/><path fill="#E2AC14" d="M104 192h4v4h-4zM108 192h4v4h-4z"/><path fill="#FFD61F" d="M112 192h4v4h-4zM116 192h4v4h-4zM120 192h4v4h-4zM124 192h4v4h-4zM128 192h4v4h-4z"/><path fill="#C8B08F" d="M132 192h4v4h-4zM136 192h4v4h-4zM140 192h4v4h-4z"/><path fill="#7A5434" d="M144 192h4v4h-4zM148 192h4v4h-4z"/><path fill="#C8B08F" d="M152 192h4v4h-4zM156 192h4v4h-4zM160 192h4v4h-4zM164 192h4v4h-4zM168 192h4v4h-4zM172 192h4v4h-4zM176 192h4v4h-4z"/><path fill="#868145" d="M180 192h4v4h-4z"/><path fill="#C8B08F" d="M184 192h4v4h-4zM188 192h4v4h-4z"/><path fill="#FFD61F" d="M192 192h4v4h-4zM196 192h4v4h-4zM200 192h4v4h-4zM204 192h4v4h-4z"/><path fill="#7A5434" d="M208 192h4v4h-4zM212 192h4v4h-4zM216 192h4v4h-4zM220 192h4v4h-4zM224 192h4v4h-4zM228 192h4v4h-4zM232 192h4v4h-4zM236 192h4v4h-4z"/><path fill="#3A2F2B" d="M240 192h4v4h-4z"/><path fill="#7A5434" d="M244 192h4v4h-4z"/><path fill="#3A2F2B" d="M72 196h4v4h-4zM76 196h4v4h-4zM80 196h4v4h-4zM84 196h4v4h-4zM88 196h4v4h-4zM92 196h4v4h-4zM96 196h4v4h-4zM100 196h4v4h-4z"/><path fill="#7A5434" d="M104 196h4v4h-4z"/><path fill="#FFD61F" d="M108 196h4v4h-4zM112 196h4v4h-4zM116 196h4v4h-4zM120 196h4v4h-4z"/><path fill="#868145" d="M124 196h4v4h-4z"/><path fill="#C8B08F" d="M128 196h4v4h-4zM132 196h4v4h-4zM136 196h4v4h-4zM140 196h4v4h-4z"/><path fill="#FFD61F" d="M144 196h4v4h-4zM148 196h4v4h-4z"/><path fill="#C8B08F" d="M152 196h4v4h-4zM156 196h4v4h-4zM160 196h4v4h-4zM164 196h4v4h-4zM168 196h4v4h-4zM172 196h4v4h-4z"/><path fill="#FFD61F" d="M176 196h4v4h-4zM180 196h4v4h-4zM184 196h4v4h-4zM188 196h4v4h-4zM192 196h4v4h-4z"/><path fill="#7A5434" d="M196 196h4v4h-4zM200 196h4v4h-4zM204 196h4v4h-4zM208 196h4v4h-4zM212 196h4v4h-4zM216 196h4v4h-4zM220 196h4v4h-4zM224 196h4v4h-4zM228 196h4v4h-4zM232 196h4v4h-4zM236 196h4v4h-4z"/><path fill="#3A2F2B" d="M240 196h4v4h-4z"/><path fill="#7A5434" d="M244 196h4v4h-4z"/><path fill="#3A2F2B" d="M72 200h4v4h-4zM76 200h4v4h-4zM80 200h4v4h-4zM84 200h4v4h-4zM88 200h4v4h-4zM92 200h4v4h-4zM96 200h4v4h-4zM100 200h4v4h-4zM104 200h4v4h-4z"/><path fill="#7A5434" d="M108 200h4v4h-4z"/><path fill="#FFD61F" d="M112 200h4v4h-4zM116 200h4v4h-4zM120 200h4v4h-4zM124 200h4v4h-4z"/><path fill="#C8B08F" d="M128 200h4v4h-4zM132 200h4v4h-4zM136 200h4v4h-4zM140 200h4v4h-4zM144 200h4v4h-4zM148 200h4v4h-4zM152 200h4v4h-4zM156 200h4v4h-4z"/><path fill="#FFD61F" d="M160 200h4v4h-4zM164 200h4v4h-4zM168 200h4v4h-4zM172 200h4v4h-4zM176 200h4v4h-4z"/><path fill="#7A5434" d="M180 200h4v4h-4zM184 200h4v4h-4zM188 200h4v4h-4zM192 200h4v4h-4zM196 200h4v4h-4zM200 200h4v4h-4zM204 200h4v4h-4zM208 200h4v4h-4zM212 200h4v4h-4zM216 200h4v4h-4zM220 200h4v4h-4zM224 200h4v4h-4zM228 200h4v4h-4zM232 200h4v4h-4zM236 200h4v4h-4z"/><path fill="#3A2F2B" d="M240 200h4v4h-4z"/><path fill="#7A5434" d="M244 200h4v4h-4z"/><path fill="#3A2F2B" d="M76 204h4v4h-4zM80 204h4v4h-4zM84 204h4v4h-4zM88 204h4v4h-4zM92 204h4v4h-4zM96 204h4v4h-4zM100 204h4v4h-4zM104 204h4v4h-4zM108 204h4v4h-4z"/><path fill="#7A5434" d="M112 204h4v4h-4z"/><path fill="#FFD61F" d="M116 204h4v4h-4zM120 204h4v4h-4zM124 204h4v4h-4z"/><path fill="#C8B08F" d="M128 204h4v4h-4zM132 204h4v4h-4zM136 204h4v4h-4zM140 204h4v4h-4z"/><path fill="#FFD61F" d="M144 204h4v4h-4zM148 204h4v4h-4zM152 204h4v4h-4zM156 204h4v4h-4zM160 204h4v4h-4z"/><path fill="#7A5434" d="M164 204h4v4h-4zM168 204h4v4h-4zM172 204h4v4h-4zM176 204h4v4h-4zM180 204h4v4h-4zM184 204h4v4h-4zM188 204h4v4h-4zM192 204h4v4h-4zM196 204h4v4h-4zM200 204h4v4h-4zM204 204h4v4h-4zM208 204h4v4h-4zM212 204h4v4h-4zM216 204h4v4h-4zM220 204h4v4h-4zM224 204h4v4h-4zM228 204h4v4h-4zM232 204h4v4h-4zM236 204h4v4h-4z"/><path fill="#3A2F2B" d="M240 204h4v4h-4z"/><path fill="#7A5434" d="M244 204h4v4h-4z"/><path fill="#3A2F2B" d="M76 208h4v4h-4zM80 208h4v4h-4zM84 208h4v4h-4zM88 208h4v4h-4zM92 208h4v4h-4zM96 208h4v4h-4zM100 208h4v4h-4zM104 208h4v4h-4zM108 208h4v4h-4zM112 208h4v4h-4z"/><path fill="#7A5434" d="M116 208h4v4h-4zM120 208h4v4h-4zM124 208h4v4h-4z"/><path fill="#FFD61F" d="M128 208h4v4h-4z"/><path fill="#868145" d="M132 208h4v4h-4z"/><path fill="#FFD61F" d="M136 208h4v4h-4zM140 208h4v4h-4zM144 208h4v4h-4zM148 208h4v4h-4z"/><path fill="#7A5434" d="M152 208h4v4h-4zM156 208h4v4h-4zM160 208h4v4h-4zM164 208h4v4h-4zM168 208h4v4h-4zM172 208h4v4h-4zM176 208h4v4h-4zM180 208h4v4h-4zM184 208h4v4h-4zM188 208h4v4h-4zM192 208h4v4h-4zM196 208h4v4h-4zM200 208h4v4h-4zM204 208h4v4h-4zM208 208h4v4h-4zM212 208h4v4h-4zM216 208h4v4h-4zM220 208h4v4h-4zM224 208h4v4h-4zM228 208h4v4h-4zM232 208h4v4h-4zM236 208h4v4h-4z"/><path fill="#3A2F2B" d="M240 208h4v4h-4z"/><path fill="#7A5434" d="M244 208h4v4h-4z"/><path fill="#3A2F2B" d="M80 212h4v4h-4zM84 212h4v4h-4zM88 212h4v4h-4zM92 212h4v4h-4zM96 212h4v4h-4zM100 212h4v4h-4zM104 212h4v4h-4zM108 212h4v4h-4zM112 212h4v4h-4zM116 212h4v4h-4zM120 212h4v4h-4z"/><path fill="#7A5434" d="M124 212h4v4h-4z"/><path fill="#FFD61F" d="M128 212h4v4h-4zM132 212h4v4h-4z"/><path fill="#7A5434" d="M136 212h4v4h-4zM140 212h4v4h-4zM144 212h4v4h-4zM148 212h4v4h-4zM152 212h4v4h-4zM156 212h4v4h-4zM160 212h4v4h-4zM164 212h4v4h-4zM168 212h4v4h-4zM172 212h4v4h-4zM176 212h4v4h-4zM180 212h4v4h-4zM184 212h4v4h-4zM188 212h4v4h-4zM192 212h4v4h-4zM196 212h4v4h-4zM200 212h4v4h-4zM204 212h4v4h-4zM208 212h4v4h-4zM212 212h4v4h-4zM216 212h4v4h-4zM220 212h4v4h-4zM224 212h4v4h-4zM228 212h4v4h-4zM232 212h4v4h-4zM236 212h4v4h-4z"/><path fill="#3A2F2B" d="M240 212h4v4h-4z"/><path fill="#7A5434" d="M244 212h4v4h-4z"/><path fill="#3A2F2B" d="M80 216h4v4h-4zM84 216h4v4h-4zM88 216h4v4h-4zM92 216h4v4h-4zM96 216h4v4h-4zM100 216h4v4h-4zM104 216h4v4h-4zM108 216h4v4h-4zM112 216h4v4h-4zM116 216h4v4h-4zM120 216h4v4h-4z"/><path fill="#7A5434" d="M124 216h4v4h-4zM128 216h4v4h-4zM132 216h4v4h-4zM136 216h4v4h-4zM140 216h4v4h-4zM144 216h4v4h-4zM148 216h4v4h-4zM152 216h4v4h-4zM156 216h4v4h-4zM160 216h4v4h-4zM164 216h4v4h-4zM168 216h4v4h-4zM172 216h4v4h-4zM176 216h4v4h-4zM180 216h4v4h-4zM184 216h4v4h-4zM188 216h4v4h-4zM192 216h4v4h-4zM196 216h4v4h-4zM200 216h4v4h-4zM204 216h4v4h-4zM208 216h4v4h-4zM212 216h4v4h-4zM216 216h4v4h-4zM220 216h4v4h-4zM224 216h4v4h-4zM228 216h4v4h-4zM232 216h4v4h-4zM236 216h4v4h-4z"/><path fill="#3A2F2B" d="M240 216h4v4h-4z"/><path fill="#7A5434" d="M244 216h4v4h-4z"/><path fill="#3A2F2B" d="M80 220h4v4h-4zM84 220h4v4h-4zM88 220h4v4h-4zM92 220h4v4h-4zM96 220h4v4h-4zM100 220h4v4h-4zM104 220h4v4h-4zM108 220h4v4h-4zM112 220h4v4h-4zM116 220h4v4h-4zM120 220h4v4h-4z"/><path fill="#7A5434" d="M124 220h4v4h-4zM128 220h4v4h-4zM132 220h4v4h-4zM136 220h4v4h-4zM140 220h4v4h-4zM144 220h4v4h-4zM148 220h4v4h-4zM152 220h4v4h-4zM156 220h4v4h-4zM160 220h4v4h-4zM164 220h4v4h-4zM168 220h4v4h-4zM172 220h4v4h-4zM176 220h4v4h-4zM180 220h4v4h-4zM184 220h4v4h-4zM188 220h4v4h-4zM192 220h4v4h-4zM196 220h4v4h-4zM200 220h4v4h-4zM204 220h4v4h-4zM208 220h4v4h-4zM212 220h4v4h-4zM216 220h4v4h-4zM220 220h4v4h-4zM224 220h4v4h-4zM228 220h4v4h-4zM232 220h4v4h-4zM236 220h4v4h-4z"/><path fill="#3A2F2B" d="M240 220h4v4h-4z"/><path fill="#7A5434" d="M244 220h4v4h-4z"/><path fill="#3A2F2B" d="M84 224h4v4h-4zM88 224h4v4h-4zM92 224h4v4h-4zM96 224h4v4h-4zM100 224h4v4h-4zM104 224h4v4h-4zM108 224h4v4h-4zM112 224h4v4h-4zM116 224h4v4h-4zM120 224h4v4h-4z"/><path fill="#7A5434" d="M124 224h4v4h-4zM128 224h4v4h-4zM132 224h4v4h-4zM136 224h4v4h-4zM140 224h4v4h-4zM144 224h4v4h-4zM148 224h4v4h-4zM152 224h4v4h-4zM156 224h4v4h-4zM160 224h4v4h-4zM164 224h4v4h-4zM168 224h4v4h-4zM172 224h4v4h-4zM176 224h4v4h-4zM180 224h4v4h-4zM184 224h4v4h-4zM188 224h4v4h-4zM192 224h4v4h-4zM196 224h4v4h-4zM200 224h4v4h-4zM204 224h4v4h-4zM208 224h4v4h-4zM212 224h4v4h-4zM216 224h4v4h-4zM220 224h4v4h-4zM224 224h4v4h-4zM228 224h4v4h-4zM232 224h4v4h-4zM236 224h4v4h-4z"/><path fill="#3A2F2B" d="M240 224h4v4h-4z"/><path fill="#7A5434" d="M244 224h4v4h-4z"/><path fill="#3A2F2B" d="M84 228h4v4h-4zM88 228h4v4h-4zM92 228h4v4h-4zM96 228h4v4h-4zM100 228h4v4h-4zM104 228h4v4h-4zM108 228h4v4h-4zM112 228h4v4h-4zM116 228h4v4h-4zM120 228h4v4h-4z"/><path fill="#7A5434" d="M124 228h4v4h-4zM128 228h4v4h-4zM132 228h4v4h-4zM136 228h4v4h-4zM140 228h4v4h-4zM144 228h4v4h-4zM148 228h4v4h-4zM152 228h4v4h-4zM156 228h4v4h-4zM160 228h4v4h-4zM164 228h4v4h-4zM168 228h4v4h-4zM172 228h4v4h-4zM176 228h4v4h-4zM180 228h4v4h-4zM184 228h4v4h-4zM188 228h4v4h-4zM192 228h4v4h-4zM196 228h4v4h-4zM200 228h4v4h-4zM204 228h4v4h-4zM208 228h4v4h-4zM212 228h4v4h-4zM216 228h4v4h-4zM220 228h4v4h-4zM224 228h4v4h-4zM228 228h4v4h-4zM232 228h4v4h-4zM236 228h4v4h-4z"/><path fill="#3A2F2B" d="M240 228h4v4h-4z"/><path fill="#7A5434" d="M244 228h4v4h-4z"/><path fill="#3A2F2B" d="M84 232h4v4h-4zM88 232h4v4h-4zM92 232h4v4h-4zM96 232h4v4h-4zM100 232h4v4h-4zM104 232h4v4h-4zM108 232h4v4h-4zM112 232h4v4h-4zM116 232h4v4h-4zM120 232h4v4h-4zM124 232h4v4h-4z"/><path fill="#7A5434" d="M128 232h4v4h-4zM132 232h4v4h-4zM136 232h4v4h-4zM140 232h4v4h-4zM144 232h4v4h-4zM148 232h4v4h-4zM152 232h4v4h-4zM156 232h4v4h-4zM160 232h4v4h-4zM164 232h4v4h-4zM168 232h4v4h-4zM172 232h4v4h-4zM176 232h4v4h-4zM180 232h4v4h-4zM184 232h4v4h-4zM188 232h4v4h-4zM192 232h4v4h-4zM196 232h4v4h-4zM200 232h4v4h-4zM204 232h4v4h-4zM208 232h4v4h-4zM212 232h4v4h-4zM216 232h4v4h-4zM220 232h4v4h-4zM224 232h4v4h-4zM228 232h4v4h-4zM232 232h4v4h-4zM236 232h4v4h-4z"/><path fill="#3A2F2B" d="M240 232h4v4h-4z"/><path fill="#7A5434" d="M244 232h4v4h-4z"/><path fill="#3A2F2B" d="M88 236h4v4h-4zM92 236h4v4h-4zM96 236h4v4h-4zM100 236h4v4h-4zM104 236h4v4h-4zM108 236h4v4h-4zM112 236h4v4h-4zM116 236h4v4h-4zM120 236h4v4h-4zM124 236h4v4h-4z"/><path fill="#7A5434" d="M128 236h4v4h-4zM132 236h4v4h-4zM136 236h4v4h-4zM140 236h4v4h-4zM144 236h4v4h-4zM148 236h4v4h-4zM152 236h4v4h-4zM156 236h4v4h-4zM160 236h4v4h-4zM164 236h4v4h-4zM168 236h4v4h-4zM172 236h4v4h-4zM176 236h4v4h-4zM180 236h4v4h-4zM184 236h4v4h-4zM188 236h4v4h-4zM192 236h4v4h-4zM196 236h4v4h-4zM200 236h4v4h-4zM204 236h4v4h-4zM208 236h4v4h-4zM212 236h4v4h-4zM216 236h4v4h-4zM220 236h4v4h-4zM224 236h4v4h-4zM228 236h4v4h-4zM232 236h4v4h-4zM236 236h4v4h-4z"/><path fill="#3A2F2B" d="M240 236h4v4h-4z"/><path fill="#7A5434" d="M244 236h4v4h-4z"/><path fill="#3A2F2B" d="M88 240h4v4h-4zM92 240h4v4h-4zM96 240h4v4h-4zM100 240h4v4h-4zM104 240h4v4h-4zM108 240h4v4h-4zM112 240h4v4h-4zM116 240h4v4h-4zM120 240h4v4h-4zM124 240h4v4h-4z"/><path fill="#7A5434" d="M128 240h4v4h-4zM132 240h4v4h-4zM136 240h4v4h-4zM140 240h4v4h-4zM144 240h4v4h-4zM148 240h4v4h-4zM152 240h4v4h-4zM156 240h4v4h-4zM160 240h4v4h-4zM164 240h4v4h-4zM168 240h4v4h-4zM172 240h4v4h-4zM176 240h4v4h-4zM180 240h4v4h-4zM184 240h4v4h-4zM188 240h4v4h-4zM192 240h4v4h-4zM196 240h4v4h-4zM200 240h4v4h-4zM204 240h4v4h-4zM208 240h4v4h-4zM212 240h4v4h-4zM216 240h4v4h-4zM220 240h4v4h-4zM224 240h4v4h-4zM232 240h4v4h-4zM236 240h4v4h-4zM240 240h4v4h-4zM244 240h4v4h-4z"/><path fill="#3A2F2B" d="M92 244h4v4h-4zM96 244h4v4h-4zM100 244h4v4h-4zM104 244h4v4h-4zM108 244h4v4h-4zM112 244h4v4h-4zM116 244h4v4h-4zM120 244h4v4h-4zM124 244h4v4h-4z"/><path fill="#7A5434" d="M128 244h4v4h-4zM132 244h4v4h-4zM136 244h4v4h-4zM140 244h4v4h-4zM144 244h4v4h-4zM148 244h4v4h-4zM152 244h4v4h-4zM156 244h4v4h-4zM160 244h4v4h-4zM164 244h4v4h-4zM168 244h4v4h-4zM172 244h4v4h-4zM176 244h4v4h-4zM180 244h4v4h-4zM184 244h4v4h-4zM188 244h4v4h-4zM192 244h4v4h-4zM196 244h4v4h-4zM200 244h4v4h-4zM204 244h4v4h-4zM208 244h4v4h-4zM212 244h4v4h-4zM216 244h4v4h-4zM220 244h4v4h-4zM224 244h4v4h-4zM228 244h4v4h-4zM232 244h4v4h-4zM236 244h4v4h-4zM240 244h4v4h-4zM244 244h4v4h-4z"/><path fill="#3A2F2B" d="M92 248h4v4h-4zM96 248h4v4h-4zM100 248h4v4h-4zM104 248h4v4h-4zM108 248h4v4h-4zM112 248h4v4h-4zM116 248h4v4h-4zM120 248h4v4h-4zM124 248h4v4h-4z"/><path fill="#7A5434" d="M128 248h4v4h-4zM132 248h4v4h-4zM136 248h4v4h-4zM140 248h4v4h-4zM144 248h4v4h-4zM148 248h4v4h-4zM152 248h4v4h-4zM156 248h4v4h-4zM160 248h4v4h-4zM164 248h4v4h-4zM168 248h4v4h-4zM172 248h4v4h-4zM176 248h4v4h-4zM180 248h4v4h-4zM184 248h4v4h-4zM188 248h4v4h-4zM192 248h4v4h-4zM196 248h4v4h-4zM200 248h4v4h-4zM204 248h4v4h-4zM208 248h4v4h-4zM212 248h4v4h-4zM216 248h4v4h-4zM220 248h4v4h-4zM224 248h4v4h-4zM228 248h4v4h-4zM232 248h4v4h-4zM236 248h4v4h-4zM240 248h4v4h-4zM244 248h4v4h-4z"/><path fill="#3A2F2B" d="M92 252h4v4h-4zM96 252h4v4h-4zM100 252h4v4h-4zM104 252h4v4h-4zM108 252h4v4h-4zM112 252h4v4h-4zM116 252h4v4h-4zM120 252h4v4h-4zM124 252h4v4h-4z"/><path fill="#7A5434" d="M128 252h4v4h-4zM132 252h4v4h-4zM136 252h4v4h-4zM140 252h4v4h-4zM144 252h4v4h-4zM148 252h4v4h-4zM152 252h4v4h-4zM156 252h4v4h-4zM160 252h4v4h-4zM164 252h4v4h-4zM168 252h4v4h-4zM172 252h4v4h-4zM176 252h4v4h-4zM180 252h4v4h-4zM184 252h4v4h-4zM188 252h4v4h-4zM192 252h4v4h-4zM196 252h4v4h-4zM200 252h4v4h-4zM204 252h4v4h-4zM208 252h4v4h-4zM212 252h4v4h-4zM216 252h4v4h-4zM220 252h4v4h-4zM224 252h4v4h-4zM228 252h4v4h-4zM232 252h4v4h-4zM236 252h4v4h-4zM240 252h4v4h-4z"/><path fill="#3A2F2B" d="M244 252h4v4h-4z"/><path fill="#7A5434" d="M248 252h4v4h-4z"/><path fill="#3A2F2B" d="M96 256h4v4h-4zM100 256h4v4h-4zM104 256h4v4h-4zM108 256h4v4h-4zM112 256h4v4h-4zM116 256h4v4h-4zM120 256h4v4h-4zM124 256h4v4h-4z"/><path fill="#7A5434" d="M128 256h4v4h-4zM132 256h4v4h-4zM136 256h4v4h-4zM140 256h4v4h-4zM144 256h4v4h-4zM148 256h4v4h-4zM152 256h4v4h-4zM156 256h4v4h-4zM160 256h4v4h-4zM164 256h4v4h-4zM168 256h4v4h-4zM172 256h4v4h-4zM176 256h4v4h-4zM180 256h4v4h-4zM184 256h4v4h-4zM188 256h4v4h-4zM192 256h4v4h-4zM196 256h4v4h-4zM200 256h4v4h-4zM204 256h4v4h-4zM208 256h4v4h-4zM212 256h4v4h-4zM216 256h4v4h-4zM220 256h4v4h-4zM224 256h4v4h-4zM228 256h4v4h-4zM232 256h4v4h-4z"/><path fill="#3A2F2B" d="M244 256h4v4h-4z"/><path fill="#7A5434" d="M248 256h4v4h-4z"/><path fill="#3A2F2B" d="M96 260h4v4h-4zM100 260h4v4h-4zM104 260h4v4h-4zM108 260h4v4h-4zM112 260h4v4h-4zM116 260h4v4h-4zM120 260h4v4h-4zM124 260h4v4h-4z"/><path fill="#7A5434" d="M128 260h4v4h-4zM132 260h4v4h-4zM136 260h4v4h-4zM140 260h4v4h-4zM144 260h4v4h-4zM148 260h4v4h-4zM152 260h4v4h-4zM156 260h4v4h-4zM160 260h4v4h-4zM164 260h4v4h-4zM168 260h4v4h-4zM172 260h4v4h-4zM176 260h4v4h-4zM180 260h4v4h-4zM184 260h4v4h-4zM188 260h4v4h-4zM192 260h4v4h-4zM196 260h4v4h-4zM200 260h4v4h-4zM204 260h4v4h-4zM208 260h4v4h-4zM212 260h4v4h-4zM216 260h4v4h-4zM220 260h4v4h-4z"/><path fill="#3A2F2B" d="M244 260h4v4h-4z"/><path fill="#7A5434" d="M248 260h4v4h-4z"/><path fill="#3A2F2B" d="M100 264h4v4h-4zM104 264h4v4h-4zM108 264h4v4h-4zM112 264h4v4h-4zM116 264h4v4h-4zM120 264h4v4h-4zM124 264h4v4h-4z"/><path fill="#7A5434" d="M128 264h4v4h-4zM132 264h4v4h-4zM136 264h4v4h-4zM140 264h4v4h-4zM144 264h4v4h-4zM148 264h4v4h-4zM152 264h4v4h-4zM156 264h4v4h-4zM160 264h4v4h-4zM164 264h4v4h-4zM168 264h4v4h-4zM172 264h4v4h-4zM176 264h4v4h-4zM180 264h4v4h-4zM184 264h4v4h-4zM188 264h4v4h-4zM192 264h4v4h-4zM196 264h4v4h-4zM200 264h4v4h-4zM204 264h4v4h-4z"/><path fill="#3A2F2B" d="M244 264h4v4h-4z"/><path fill="#7A5434" d="M248 264h4v4h-4z"/><path fill="#3A2F2B" d="M100 268h4v4h-4zM104 268h4v4h-4zM108 268h4v4h-4zM112 268h4v4h-4zM116 268h4v4h-4zM120 268h4v4h-4zM124 268h4v4h-4z"/><path fill="#7A5434" d="M128 268h4v4h-4zM132 268h4v4h-4zM136 268h4v4h-4zM140 268h4v4h-4zM144 268h4v4h-4zM148 268h4v4h-4zM152 268h4v4h-4zM156 268h4v4h-4zM160 268h4v4h-4zM164 268h4v4h-4zM168 268h4v4h-4zM172 268h4v4h-4zM176 268h4v4h-4zM180 268h4v4h-4zM184 268h4v4h-4zM188 268h4v4h-4zM192 268h4v4h-4z"/><path fill="#3A2F2B" d="M244 268h4v4h-4z"/><path fill="#7A5434" d="M248 268h4v4h-4z"/><path fill="#3A2F2B" d="M100 272h4v4h-4zM104 272h4v4h-4zM108 272h4v4h-4zM112 272h4v4h-4zM116 272h4v4h-4zM120 272h4v4h-4z"/><path fill="#7A5434" d="M124 272h4v4h-4z"/><path fill="#3A2F2B" d="M128 272h4v4h-4z"/><path fill="#7A5434" d="M132 272h4v4h-4zM136 272h4v4h-4zM140 272h4v4h-4zM144 272h4v4h-4zM148 272h4v4h-4zM152 272h4v4h-4zM156 272h4v4h-4zM160 272h4v4h-4zM164 272h4v4h-4zM168 272h4v4h-4zM172 272h4v4h-4zM176 272h4v4h-4zM180 272h4v4h-4z"/><path fill="#3A2F2B" d="M244 272h4v4h-4z"/><path fill="#7A5434" d="M248 272h4v4h-4z"/><path fill="#3A2F2B" d="M104 276h4v4h-4zM108 276h4v4h-4zM112 276h4v4h-4zM116 276h4v4h-4zM120 276h4v4h-4z"/><path fill="#7A5434" d="M124 276h4v4h-4z"/><path fill="#3A2F2B" d="M128 276h4v4h-4z"/><path fill="#7A5434" d="M132 276h4v4h-4zM136 276h4v4h-4zM140 276h4v4h-4zM144 276h4v4h-4zM148 276h4v4h-4zM152 276h4v4h-4zM156 276h4v4h-4zM160 276h4v4h-4zM164 276h4v4h-4z"/><path fill="#3A2F2B" d="M240 276h4v4h-4z"/><path fill="#7A5434" d="M248 276h4v4h-4z"/><path fill="#3A2F2B" d="M104 280h4v4h-4zM108 280h4v4h-4zM112 280h4v4h-4zM116 280h4v4h-4zM120 280h4v4h-4zM124 280h4v4h-4zM128 280h4v4h-4z"/><path fill="#7A5434" d="M132 280h4v4h-4zM136 280h4v4h-4zM140 280h4v4h-4zM144 280h4v4h-4zM148 280h4v4h-4zM152 280h4v4h-4zM248 280h4v4h-4z"/><path fill="#3A2F2B" d="M108 284h4v4h-4zM112 284h4v4h-4zM116 284h4v4h-4zM120 284h4v4h-4zM124 284h4v4h-4zM128 284h4v4h-4z"/><path fill="#7A5434" d="M132 284h4v4h-4zM136 284h4v4h-4zM140 284h4v4h-4zM144 284h4v4h-4zM148 284h4v4h-4zM248 284h4v4h-4z"/><path fill="#3A2F2B" d="M108 288h4v4h-4zM112 288h4v4h-4zM116 288h4v4h-4zM120 288h4v4h-4zM124 288h4v4h-4zM128 288h4v4h-4zM132 288h4v4h-4z"/><path fill="#7A5434" d="M136 288h4v4h-4z"/><path fill="#3A2F2B" d="M140 288h4v4h-4z"/><path fill="#7A5434" d="M248 288h4v4h-4z"/><path fill="#3A2F2B" d="M108 292h4v4h-4zM112 292h4v4h-4zM116 292h4v4h-4zM120 292h4v4h-4z"/><path fill="#7A5434" d="M248 292h4v4h-4z"/><path fill="#3A2F2B" d="M108 296h4v4h-4zM112 296h4v4h-4zM120 296h4v4h-4zM124 296h4v4h-4z"/><path fill="#7A5434" d="M248 296h4v4h-4z"/><path fill="#3A2F2B" d="M112 300h4v4h-4zM116 300h4v4h-4zM120 300h4v4h-4z"/><path fill="#7A5434" d="M244 300h4v4h-4z"/></svg>