<svg width="384" height="384" xmlns="http://www.w3.org/2000/svg" shape-rendering="crispEdges"><path fill="#024139" d="M148 28h4v4h-4zM152 28h4v4h-4zM156 28h4v4h-4zM136 32h4v4h-4zM140 32h4v4h-4zM144 32h4v4h-4z"/><path fill="#577582" d="M148 32h4v4h-4z"/><path fill="#5C556B" d="M152 32h4v4h-4zM156 32h4v4h-4z"/><path fill="#024139" d="M160 32h4v4h-4zM124 36h4v4h-4zM128 36h4v4h-4zM132 36h4v4h-4z"/><path fill="#5C556B" d="M136 36h4v4h-4z"/><path fill="#577582" d="M140 36h4v4h-4zM144 36h4v4h-4zM148 36h4v4h-4z"/><path fill="#5C556B" d="M152 36h4v4h-4z"/><path fill="#597885" d="M156 36h4v4h-4zM160 36h4v4h-4z"/><path fill="#024139" d="M164 36h4v4h-4zM120 40h4v4h-4z"/><path fill="#5C556B" d="M124 40h4v4h-4zM128 40h4v4h-4z"/><path fill="#577582" d="M132 40h4v4h-4zM136 40h4v4h-4zM140 40h4v4h-4zM144 40h4v4h-4z"/><path fill="#5C556B" d="M148 40h4v4h-4zM152 40h4v4h-4z"/><path fill="#597885" d="M156 40h4v4h-4zM160 40h4v4h-4zM164 40h4v4h-4z"/><path fill="#024139" d="M168 40h4v4h-4zM116 44h4v4h-4z"/><path fill="#5C556B" d="M120 44h4v4h-4zM124 44h4v4h-4z"/><path fill="#577582" d="M128 44h4v4h-4zM132 44h4v4h-4z"/><path fill="#5C556B" d="M136 44h4v4h-4zM140 44h4v4h-4zM144 44h4v4h-4zM148 44h4v4h-4z"/><path fill="#597885" d="M152 44h4v4h-4zM156 44h4v4h-4zM160 44h4v4h-4zM164 44h4v4h-4zM168 44h4v4h-4z"/><path fill="#024139" d="M172 44h4v4h-4zM112 48h4v4h-4z"/><path fill="#5C556B" d="M116 48h4v4h-4zM120 48h4v4h-4zM124 48h4v4h-4zM128 48h4v4h-4zM132 48h4v4h-4zM136 48h4v4h-4zM140 48h4v4h-4zM144 48h4v4h-4zM148 48h4v4h-4z"/><path fill="#597885" d="M152 48h4v4h-4zM156 48h4v4h-4zM160 48h4v4h-4zM164 48h4v4h-4zM168 48h4v4h-4zM172 48h4v4h-4z"/><path fill="#024139" d="M176 48h4v4h-4zM112 52h4v4h-4z"/><path fill="#5C556B" d="M116 52h4v4h-4z"/><path fill="#577582" d="M120 52h4v4h-4z"/><path fill="#5C556B" d="M124 52h4v4h-4zM128 52h4v4h-4zM132 52h4v4h-4zM136 52h4v4h-4zM140 52h4v4h-4zM144 52h4v4h-4z"/><path fill="#597885" d="M148 52h4v4h-4zM152 52h4v4h-4zM156 52h4v4h-4z"/><path fill="#5B546A" d="M160 52h4v4h-4zM164 52h4v4h-4z"/><path fill="#597885" d="M168 52h4v4h-4zM172 52h4v4h-4z"/><path fill="#024139" d="M176 52h4v4h-4zM112 56h4v4h-4z"/><path fill="#5C556B" d="M116 56h4v4h-4z"/><path fill="#577582" d="M120 56h4v4h-4z"/><path fill="#5C556B" d="M124 56h4v4h-4zM128 56h4v4h-4zM132 56h4v4h-4zM136 56h4v4h-4zM140 56h4v4h-4zM144 56h4v4h-4z"/><path fill="#597885" d="M148 56h4v4h-4zM152 56h4v4h-4zM156 56h4v4h-4zM160 56h4v4h-4zM164 56h4v4h-4zM168 56h4v4h-4zM172 56h4v4h-4zM176 56h4v4h-4z"/><path fill="#024139" d="M180 56h4v4h-4zM108 60h4v4h-4z"/><path fill="#5C556B" d="M112 60h4v4h-4zM116 60h4v4h-4zM120 60h4v4h-4zM124 60h4v4h-4zM128 60h4v4h-4zM132 60h4v4h-4zM136 60h4v4h-4zM140 60h4v4h-4zM144 60h4v4h-4z"/><path fill="#597885" d="M148 60h4v4h-4zM152 60h4v4h-4zM156 60h4v4h-4zM160 60h4v4h-4zM164 60h4v4h-4zM168 60h4v4h-4zM172 60h4v4h-4zM176 60h4v4h-4zM180 60h4v4h-4z"/><path fill="#024139" d="M184 60h4v4h-4zM108 64h4v4h-4z"/><path fill="#5C556B" d="M112 64h4v4h-4zM116 64h4v4h-4zM120 64h4v4h-4zM124 64h4v4h-4zM128 64h4v4h-4zM132 64h4v4h-4zM136 64h4v4h-4zM140 64h4v4h-4z"/><path fill="#5B546A" d="M144 64h4v4h-4zM148 64h4v4h-4z"/><path fill="#587784" d="M152 64h4v4h-4z"/><path fill="#597885" d="M156 64h4v4h-4zM160 64h4v4h-4zM164 64h4v4h-4zM168 64h4v4h-4zM172 64h4v4h-4zM176 64h4v4h-4zM180 64h4v4h-4zM184 64h4v4h-4z"/><path fill="#024139" d="M188 64h4v4h-4zM108 68h4v4h-4z"/><path fill="#5C556B" d="M112 68h4v4h-4zM116 68h4v4h-4zM120 68h4v4h-4zM124 68h4v4h-4zM128 68h4v4h-4zM132 68h4v4h-4zM136 68h4v4h-4zM140 68h4v4h-4z"/><path fill="#597885" d="M144 68h4v4h-4zM148 68h4v4h-4z"/><path fill="#5B546A" d="M152 68h4v4h-4z"/><path fill="#597885" d="M156 68h4v4h-4zM160 68h4v4h-4zM164 68h4v4h-4zM168 68h4v4h-4zM172 68h4v4h-4zM176 68h4v4h-4z"/><path fill="#024139" d="M180 68h4v4h-4z"/><path fill="#597885" d="M184 68h4v4h-4zM188 68h4v4h-4z"/><path fill="#024139" d="M192 68h4v4h-4zM104 72h4v4h-4z"/><path fill="#5C556B" d="M108 72h4v4h-4zM112 72h4v4h-4zM116 72h4v4h-4zM120 72h4v4h-4z"/><path fill="#587683" d="M124 72h4v4h-4z"/><path fill="#5C556B" d="M128 72h4v4h-4zM132 72h4v4h-4zM136 72h4v4h-4zM140 72h4v4h-4z"/><path fill="#597885" d="M144 72h4v4h-4zM148 72h4v4h-4zM152 72h4v4h-4zM156 72h4v4h-4zM160 72h4v4h-4zM164 72h4v4h-4zM168 72h4v4h-4zM172 72h4v4h-4zM176 72h4v4h-4z"/><path fill="#024139" d="M180 72h4v4h-4zM184 72h4v4h-4z"/><path fill="#597885" d="M188 72h4v4h-4zM192 72h4v4h-4z"/><path fill="#024139" d="M196 72h4v4h-4zM104 76h4v4h-4z"/><path fill="#5C556B" d="M108 76h4v4h-4zM112 76h4v4h-4zM116 76h4v4h-4zM120 76h4v4h-4z"/><path fill="#587683" d="M124 76h4v4h-4zM128 76h4v4h-4z"/><path fill="#5C556B" d="M132 76h4v4h-4zM136 76h4v4h-4zM140 76h4v4h-4z"/><path fill="#597885" d="M144 76h4v4h-4zM148 76h4v4h-4zM152 76h4v4h-4zM156 76h4v4h-4zM160 76h4v4h-4zM164 76h4v4h-4zM168 76h4v4h-4z"/><path fill="#5B546A" d="M172 76h4v4h-4zM176 76h4v4h-4z"/><path fill="#024139" d="M180 76h4v4h-4z"/><path fill="#47773E" d="M184 76h4v4h-4z"/><path fill="#024139" d="M188 76h4v4h-4zM192 76h4v4h-4zM196 76h4v4h-4zM200 76h4v4h-4zM104 80h4v4h-4z"/><path fill="#5C556B" d="M108 80h4v4h-4zM112 80h4v4h-4zM116 80h4v4h-4zM120 80h4v4h-4z"/><path fill="#587683" d="M124 80h4v4h-4zM128 80h4v4h-4z"/><path fill="#4A4058" d="M132 80h4v4h-4zM136 80h4v4h-4zM140 80h4v4h-4z"/><path fill="#4B4059" d="M144 80h4v4h-4z"/><path fill="#597885" d="M148 80h4v4h-4zM152 80h4v4h-4zM156 80h4v4h-4zM160 80h4v4h-4zM164 80h4v4h-4zM168 80h4v4h-4zM172 80h4v4h-4z"/><path fill="#5B546A" d="M176 80h4v4h-4z"/><path fill="#024139" d="M180 80h4v4h-4z"/><path fill="#46773E" d="M184 80h4v4h-4z"/><path fill="#808F3A" d="M188 80h4v4h-4zM192 80h4v4h-4zM196 80h4v4h-4z"/><path fill="#7F8E3A" d="M200 80h4v4h-4z"/><path fill="#024139" d="M204 80h4v4h-4zM208 80h4v4h-4zM212 80h4v4h-4zM216 80h4v4h-4zM100 84h4v4h-4z"/><path fill="#5C556B" d="M104 84h4v4h-4zM108 84h4v4h-4zM112 84h4v4h-4zM116 84h4v4h-4z"/><path fill="#4A4058" d="M120 84h4v4h-4zM124 84h4v4h-4zM128 84h4v4h-4zM132 84h4v4h-4zM136 84h4v4h-4zM140 84h4v4h-4zM144 84h4v4h-4z"/><path fill="#4B4059" d="M148 84h4v4h-4z"/><path fill="#597885" d="M152 84h4v4h-4zM156 84h4v4h-4zM160 84h4v4h-4zM164 84h4v4h-4zM168 84h4v4h-4zM172 84h4v4h-4zM176 84h4v4h-4zM180 84h4v4h-4z"/><path fill="#024139" d="M184 84h4v4h-4z"/><path fill="#46773E" d="M188 84h4v4h-4z"/><path fill="#808F3A" d="M192 84h4v4h-4zM196 84h4v4h-4z"/><path fill="#47773E" d="M200 84h4v4h-4z"/><path fill="#808F3A" d="M204 84h4v4h-4z"/><path fill="#024139" d="M208 84h4v4h-4z"/><path fill="#47773E" d="M212 84h4v4h-4z"/><path fill="#808F3A" d="M216 84h4v4h-4z"/><path fill="#024139" d="M220 84h4v4h-4zM100 88h4v4h-4z"/><path fill="#5C556B" d="M104 88h4v4h-4zM108 88h4v4h-4zM112 88h4v4h-4z"/><path fill="#597885" d="M116 88h4v4h-4z"/><path fill="#4A4058" d="M120 88h4v4h-4zM124 88h4v4h-4zM128 88h4v4h-4zM132 88h4v4h-4zM136 88h4v4h-4zM140 88h4v4h-4zM144 88h4v4h-4zM148 88h4v4h-4z"/><path fill="#4B4059" d="M152 88h4v4h-4z"/><path fill="#597885" d="M156 88h4v4h-4zM160 88h4v4h-4zM164 88h4v4h-4zM168 88h4v4h-4zM172 88h4v4h-4zM176 88h4v4h-4zM180 88h4v4h-4zM184 88h4v4h-4z"/><path fill="#024139" d="M188 88h4v4h-4z"/><path fill="#47773E" d="M192 88h4v4h-4zM196 88h4v4h-4z"/><path fill="#46773E" d="M200 88h4v4h-4z"/><path fill="#47773E" d="M204 88h4v4h-4zM208 88h4v4h-4z"/><path fill="#45763D" d="M212 88h4v4h-4z"/><path fill="#808F3A" d="M216 88h4v4h-4zM220 88h4v4h-4z"/><path fill="#024139" d="M224 88h4v4h-4zM100 92h4v4h-4z"/><path fill="#5C556B" d="M104 92h4v4h-4zM108 92h4v4h-4zM112 92h4v4h-4zM116 92h4v4h-4z"/><path fill="#4A4058" d="M120 92h4v4h-4zM124 92h4v4h-4zM128 92h4v4h-4zM132 92h4v4h-4z"/><path fill="#5B546A" d="M136 92h4v4h-4z"/><path fill="#4A4058" d="M140 92h4v4h-4zM144 92h4v4h-4zM148 92h4v4h-4zM152 92h4v4h-4z"/><path fill="#4B4059" d="M156 92h4v4h-4z"/><path fill="#5C556B" d="M160 92h4v4h-4zM164 92h4v4h-4z"/><path fill="#597885" d="M168 92h4v4h-4zM172 92h4v4h-4zM176 92h4v4h-4zM180 92h4v4h-4zM184 92h4v4h-4zM188 92h4v4h-4z"/><path fill="#024139" d="M192 92h4v4h-4zM196 92h4v4h-4zM200 92h4v4h-4zM204 92h4v4h-4z"/><path fill="#47773E" d="M208 92h4v4h-4z"/><path fill="#808F3A" d="M212 92h4v4h-4z"/><path fill="#808F39" d="M216 92h4v4h-4z"/><path fill="#808F3A" d="M220 92h4v4h-4z"/><path fill="#47773E" d="M224 92h4v4h-4z"/><path fill="#024139" d="M228 92h4v4h-4zM96 96h4v4h-4z"/><path fill="#5C556B" d="M100 96h4v4h-4zM104 96h4v4h-4zM108 96h4v4h-4zM112 96h4v4h-4zM116 96h4v4h-4z"/><path fill="#4A4058" d="M120 96h4v4h-4zM124 96h4v4h-4zM128 96h4v4h-4zM132 96h4v4h-4z"/><path fill="#5B546A" d="M136 96h4v4h-4zM140 96h4v4h-4z"/><path fill="#4A4058" d="M144 96h4v4h-4zM148 96h4v4h-4zM152 96h4v4h-4zM156 96h4v4h-4zM160 96h4v4h-4z"/><path fill="#597885" d="M164 96h4v4h-4zM168 96h4v4h-4zM172 96h4v4h-4zM176 96h4v4h-4zM180 96h4v4h-4zM184 96h4v4h-4zM188 96h4v4h-4zM192 96h4v4h-4zM196 96h4v4h-4zM200 96h4v4h-4zM204 96h4v4h-4z"/><path fill="#024139" d="M208 96h4v4h-4z"/><path fill="#47773E" d="M212 96h4v4h-4z"/><path fill="#808F39" d="M216 96h4v4h-4zM220 96h4v4h-4z"/><path fill="#024139" d="M224 96h4v4h-4zM96 100h4v4h-4z"/><path fill="#5C556B" d="M100 100h4v4h-4zM104 100h4v4h-4zM108 100h4v4h-4zM112 100h4v4h-4zM116 100h4v4h-4z"/><path fill="#4A4058" d="M120 100h4v4h-4zM124 100h4v4h-4zM128 100h4v4h-4zM132 100h4v4h-4zM136 100h4v4h-4z"/><path fill="#5B546A" d="M140 100h4v4h-4z"/><path fill="#4A4058" d="M144 100h4v4h-4zM148 100h4v4h-4zM152 100h4v4h-4zM156 100h4v4h-4zM160 100h4v4h-4zM164 100h4v4h-4z"/><path fill="#597885" d="M168 100h4v4h-4zM172 100h4v4h-4zM176 100h4v4h-4zM180 100h4v4h-4zM184 100h4v4h-4zM188 100h4v4h-4zM192 100h4v4h-4zM196 100h4v4h-4zM200 100h4v4h-4zM204 100h4v4h-4zM208 100h4v4h-4z"/><path fill="#024139" d="M212 100h4v4h-4z"/><path fill="#47773E" d="M216 100h4v4h-4z"/><path fill="#45763D" d="M220 100h4v4h-4z"/><path fill="#024139" d="M224 100h4v4h-4zM96 104h4v4h-4z"/><path fill="#5C556B" d="M100 104h4v4h-4zM104 104h4v4h-4zM108 104h4v4h-4zM112 104h4v4h-4z"/><path fill="#4A4058" d="M116 104h4v4h-4zM120 104h4v4h-4zM124 104h4v4h-4zM128 104h4v4h-4zM132 104h4v4h-4zM136 104h4v4h-4zM140 104h4v4h-4zM144 104h4v4h-4zM148 104h4v4h-4zM152 104h4v4h-4zM156 104h4v4h-4zM160 104h4v4h-4z"/><path fill="#5A5369" d="M164 104h4v4h-4z"/><path fill="#597885" d="M168 104h4v4h-4zM172 104h4v4h-4zM176 104h4v4h-4zM180 104h4v4h-4zM184 104h4v4h-4zM188 104h4v4h-4zM192 104h4v4h-4zM196 104h4v4h-4z"/><path fill="#48783F" d="M200 104h4v4h-4z"/><path fill="#47773E" d="M204 104h4v4h-4z"/><path fill="#597885" d="M208 104h4v4h-4z"/><path fill="#024139" d="M212 104h4v4h-4z"/><path fill="#47773E" d="M216 104h4v4h-4z"/><path fill="#A0BB2D" d="M220 104h4v4h-4z"/><path fill="#47773E" d="M224 104h4v4h-4z"/><path fill="#024139" d="M228 104h4v4h-4zM92 108h4v4h-4z"/><path fill="#5C556B" d="M96 108h4v4h-4zM100 108h4v4h-4zM104 108h4v4h-4zM108 108h4v4h-4zM112 108h4v4h-4z"/><path fill="#4A4058" d="M116 108h4v4h-4zM120 108h4v4h-4zM124 108h4v4h-4zM128 108h4v4h-4zM132 108h4v4h-4zM136 108h4v4h-4zM140 108h4v4h-4zM144 108h4v4h-4zM148 108h4v4h-4zM152 108h4v4h-4zM156 108h4v4h-4zM160 108h4v4h-4z"/><path fill="#4B4059" d="M164 108h4v4h-4z"/><path fill="#5A5369" d="M168 108h4v4h-4z"/><path fill="#4B4059" d="M172 108h4v4h-4zM176 108h4v4h-4z"/><path fill="#597885" d="M180 108h4v4h-4zM184 108h4v4h-4zM188 108h4v4h-4zM192 108h4v4h-4zM196 108h4v4h-4zM200 108h4v4h-4z"/><path fill="#024139" d="M204 108h4v4h-4z"/><path fill="#47773E" d="M208 108h4v4h-4zM212 108h4v4h-4zM216 108h4v4h-4z"/><path fill="#A0BB2D" d="M220 108h4v4h-4z"/><path fill="#46763D" d="M224 108h4v4h-4z"/><path fill="#024139" d="M228 108h4v4h-4zM92 112h4v4h-4z"/><path fill="#5C556B" d="M96 112h4v4h-4zM100 112h4v4h-4zM104 112h4v4h-4zM108 112h4v4h-4zM112 112h4v4h-4z"/><path fill="#4A4058" d="M116 112h4v4h-4zM120 112h4v4h-4zM124 112h4v4h-4zM128 112h4v4h-4zM132 112h4v4h-4zM136 112h4v4h-4zM140 112h4v4h-4zM144 112h4v4h-4zM148 112h4v4h-4zM152 112h4v4h-4zM156 112h4v4h-4zM160 112h4v4h-4z"/><path fill="#4B4059" d="M164 112h4v4h-4z"/><path fill="#4A4058" d="M168 112h4v4h-4zM172 112h4v4h-4z"/><path fill="#4B4059" d="M176 112h4v4h-4zM180 112h4v4h-4z"/><path fill="#597885" d="M184 112h4v4h-4z"/><path fill="#595268" d="M188 112h4v4h-4z"/><path fill="#597885" d="M192 112h4v4h-4zM196 112h4v4h-4zM200 112h4v4h-4z"/><path fill="#024139" d="M204 112h4v4h-4z"/><path fill="#81903A" d="M208 112h4v4h-4z"/><path fill="#46773E" d="M212 112h4v4h-4z"/><path fill="#808F3A" d="M216 112h4v4h-4z"/><path fill="#7F8D3B" d="M220 112h4v4h-4z"/><path fill="#46763D" d="M224 112h4v4h-4z"/><path fill="#024139" d="M228 112h4v4h-4zM232 112h4v4h-4zM236 112h4v4h-4zM92 116h4v4h-4z"/><path fill="#5C556B" d="M96 116h4v4h-4zM100 116h4v4h-4zM104 116h4v4h-4zM108 116h4v4h-4z"/><path fill="#4A4058" d="M112 116h4v4h-4zM116 116h4v4h-4zM120 116h4v4h-4zM124 116h4v4h-4zM128 116h4v4h-4zM132 116h4v4h-4zM136 116h4v4h-4zM140 116h4v4h-4zM144 116h4v4h-4zM148 116h4v4h-4z"/><path fill="#00B3B1" d="M152 116h4v4h-4z"/><path fill="#4A4058" d="M156 116h4v4h-4z"/><path fill="#00B4B2" d="M160 116h4v4h-4z"/><path fill="#4A4058" d="M164 116h4v4h-4zM168 116h4v4h-4zM172 116h4v4h-4zM176 116h4v4h-4zM180 116h4v4h-4z"/><path fill="#595268" d="M184 116h4v4h-4zM188 116h4v4h-4z"/><path fill="#597885" d="M192 116h4v4h-4zM196 116h4v4h-4zM200 116h4v4h-4z"/><path fill="#024139" d="M204 116h4v4h-4z"/><path fill="#829139" d="M208 116h4v4h-4z"/><path fill="#A0BB2D" d="M212 116h4v4h-4z"/><path fill="#808F3A" d="M216 116h4v4h-4z"/><path fill="#7F8D3B" d="M220 116h4v4h-4z"/><path fill="#47773E" d="M224 116h4v4h-4z"/><path fill="#024139" d="M228 116h4v4h-4zM232 116h4v4h-4z"/><path fill="#47773E" d="M236 116h4v4h-4z"/><path fill="#024139" d="M240 116h4v4h-4zM88 120h4v4h-4z"/><path fill="#5C556B" d="M92 120h4v4h-4z"/><path fill="#5A546A" d="M96 120h4v4h-4z"/><path fill="#5C556B" d="M100 120h4v4h-4zM104 120h4v4h-4zM108 120h4v4h-4z"/><path fill="#4A4058" d="M112 120h4v4h-4zM116 120h4v4h-4zM120 120h4v4h-4zM124 120h4v4h-4zM128 120h4v4h-4zM132 120h4v4h-4z"/><path fill="#00B3B1" d="M136 120h4v4h-4z"/><path fill="#4A4058" d="M140 120h4v4h-4zM144 120h4v4h-4zM148 120h4v4h-4zM152 120h4v4h-4z"/><path fill="#00B3B1" d="M156 120h4v4h-4z"/><path fill="#4A4058" d="M160 120h4v4h-4zM164 120h4v4h-4zM168 120h4v4h-4zM172 120h4v4h-4zM176 120h4v4h-4zM180 120h4v4h-4zM184 120h4v4h-4z"/><path fill="#597885" d="M188 120h4v4h-4zM192 120h4v4h-4zM196 120h4v4h-4z"/><path fill="#024139" d="M200 120h4v4h-4z"/><path fill="#48783F" d="M204 120h4v4h-4z"/><path fill="#819039" d="M208 120h4v4h-4z"/><path fill="#A0BB2D" d="M212 120h4v4h-4z"/><path fill="#81903A" d="M216 120h4v4h-4z"/><path fill="#49783D" d="M220 120h4v4h-4z"/><path fill="#47773E" d="M224 120h4v4h-4z"/><path fill="#024139" d="M228 120h4v4h-4z"/><path fill="#597885" opacity=".98" d="M232 120h4v4h-4z"/><path fill="#808F3A" d="M236 120h4v4h-4z"/><path fill="#47773E" d="M240 120h4v4h-4z"/><path fill="#024139" d="M244 120h4v4h-4zM88 124h4v4h-4z"/><path fill="#5C556B" d="M92 124h4v4h-4z"/><path fill="#5A546A" d="M96 124h4v4h-4z"/><path fill="#5C556B" d="M100 124h4v4h-4z"/><path fill="#4A4058" d="M104 124h4v4h-4zM108 124h4v4h-4zM112 124h4v4h-4zM116 124h4v4h-4zM120 124h4v4h-4zM124 124h4v4h-4zM128 124h4v4h-4zM132 124h4v4h-4z"/><path fill="#00B3B1" d="M136 124h4v4h-4zM140 124h4v4h-4z"/><path fill="#4A4058" d="M144 124h4v4h-4zM148 124h4v4h-4zM152 124h4v4h-4z"/><path fill="#0FFFF5" d="M156 124h4v4h-4z"/><path fill="#4A4058" d="M160 124h4v4h-4zM164 124h4v4h-4zM168 124h4v4h-4zM172 124h4v4h-4zM176 124h4v4h-4zM180 124h4v4h-4z"/><path fill="#4B4059" d="M184 124h4v4h-4zM188 124h4v4h-4z"/><path fill="#597885" d="M192 124h4v4h-4zM196 124h4v4h-4z"/><path fill="#024139" d="M200 124h4v4h-4z"/><path fill="#48783E" d="M204 124h4v4h-4z"/><path fill="#829139" d="M208 124h4v4h-4z"/><path fill="#A0BB2D" d="M212 124h4v4h-4z"/><path fill="#48783F" d="M216 124h4v4h-4z"/><path fill="#49783D" d="M220 124h4v4h-4z"/><path fill="#47773E" d="M224 124h4v4h-4z"/><path fill="#81903A" d="M228 124h4v4h-4z"/><path fill="#81903C" d="M232 124h4v4h-4z"/><path fill="#808F3C" d="M236 124h4v4h-4z"/><path fill="#47773E" d="M240 124h4v4h-4z"/><path fill="#024139" d="M244 124h4v4h-4zM88 128h4v4h-4z"/><path fill="#5C556B" d="M92 128h4v4h-4z"/><path fill="#024139" d="M96 128h4v4h-4z"/><path fill="#5C556B" d="M100 128h4v4h-4zM104 128h4v4h-4z"/><path fill="#4A4058" d="M108 128h4v4h-4zM112 128h4v4h-4z"/><path fill="#00B3B1" d="M116 128h4v4h-4z"/><path fill="#4A4058" d="M120 128h4v4h-4zM124 128h4v4h-4zM128 128h4v4h-4zM132 128h4v4h-4z"/><path fill="#00B3B1" d="M136 128h4v4h-4zM140 128h4v4h-4z"/><path fill="#4A4058" d="M144 128h4v4h-4zM148 128h4v4h-4z"/><path fill="#474059" d="M152 128h4v4h-4z"/><path fill="#4A4058" d="M156 128h4v4h-4zM160 128h4v4h-4zM164 128h4v4h-4zM168 128h4v4h-4zM172 128h4v4h-4zM176 128h4v4h-4zM180 128h4v4h-4zM184 128h4v4h-4zM188 128h4v4h-4zM192 128h4v4h-4z"/><path fill="#024139" d="M196 128h4v4h-4z"/><path fill="#49783D" d="M200 128h4v4h-4z"/><path fill="#7F8E3B" d="M204 128h4v4h-4z"/><path fill="#81903A" d="M208 128h4v4h-4z"/><path fill="#808F3A" d="M212 128h4v4h-4z"/><path fill="#497741" d="M216 128h4v4h-4z"/><path fill="#47773E" d="M220 128h4v4h-4z"/><path fill="#024139" d="M224 128h4v4h-4z"/><path fill="#81903A" d="M228 128h4v4h-4z"/><path fill="#A0BB2D" d="M232 128h4v4h-4z"/><path fill="#81903A" d="M236 128h4v4h-4z"/><path fill="#808F3A" d="M240 128h4v4h-4z"/><path fill="#47773E" d="M244 128h4v4h-4z"/><path fill="#024139" d="M248 128h4v4h-4zM84 132h4v4h-4z"/><path fill="#5C556B" d="M88 132h4v4h-4z"/><path fill="#024139" d="M92 132h4v4h-4z"/><path fill="#46773E" d="M96 132h4v4h-4z"/><path fill="#5C556B" d="M100 132h4v4h-4zM104 132h4v4h-4zM108 132h4v4h-4z"/><path fill="#4A4058" d="M112 132h4v4h-4z"/><path fill="#00B3B1" d="M116 132h4v4h-4z"/><path fill="#0FFFF5" d="M120 132h4v4h-4z"/><path fill="#4A4058" d="M124 132h4v4h-4zM128 132h4v4h-4zM132 132h4v4h-4z"/><path fill="#0FFFF5" d="M136 132h4v4h-4z"/><path fill="#4A4058" d="M140 132h4v4h-4z"/><path fill="#0FFFF5" d="M144 132h4v4h-4z"/><path fill="#4A4058" d="M148 132h4v4h-4zM152 132h4v4h-4zM156 132h4v4h-4zM160 132h4v4h-4z"/><path fill="#00B3B1" d="M164 132h4v4h-4zM168 132h4v4h-4z"/><path fill="#4A4058" d="M172 132h4v4h-4zM176 132h4v4h-4zM180 132h4v4h-4zM184 132h4v4h-4zM188 132h4v4h-4z"/><path fill="#024139" d="M192 132h4v4h-4z"/><path fill="#47773E" d="M196 132h4v4h-4z"/><path fill="#9FBA2E" d="M200 132h4v4h-4zM204 132h4v4h-4zM208 132h4v4h-4z"/><path fill="#808F3A" d="M212 132h4v4h-4z"/><path fill="#4A4058" d="M216 132h4v4h-4z"/><path fill="#024139" d="M220 132h4v4h-4z"/><path fill="#47773E" d="M224 132h4v4h-4z"/><path fill="#7E8E3B" d="M228 132h4v4h-4z"/><path fill="#A0BB2D" d="M232 132h4v4h-4z"/><path fill="#9EB92F" d="M236 132h4v4h-4z"/><path fill="#808F3A" d="M240 132h4v4h-4z"/><path fill="#47773E" d="M244 132h4v4h-4z"/><path fill="#024139" d="M248 132h4v4h-4zM84 136h4v4h-4zM88 136h4v4h-4z"/><path fill="#46773E" d="M92 136h4v4h-4zM96 136h4v4h-4z"/><path fill="#5C556B" d="M100 136h4v4h-4zM104 136h4v4h-4z"/><path fill="#4A4058" d="M108 136h4v4h-4zM112 136h4v4h-4zM116 136h4v4h-4zM120 136h4v4h-4z"/><path fill="#00B3B1" d="M124 136h4v4h-4z"/><path fill="#4A4058" d="M128 136h4v4h-4zM132 136h4v4h-4z"/><path fill="#0FFFF5" d="M136 136h4v4h-4z"/><path fill="#4A4058" d="M140 136h4v4h-4zM144 136h4v4h-4z"/><path fill="#0FFFF5" d="M148 136h4v4h-4zM152 136h4v4h-4zM156 136h4v4h-4z"/><path fill="#00B3B1" d="M160 136h4v4h-4zM164 136h4v4h-4z"/><path fill="#4A4058" d="M168 136h4v4h-4zM172 136h4v4h-4zM176 136h4v4h-4zM180 136h4v4h-4zM184 136h4v4h-4z"/><path fill="#024139" d="M188 136h4v4h-4z"/><path fill="#4A793C" d="M192 136h4v4h-4z"/><path fill="#82913B" d="M196 136h4v4h-4z"/><path fill="#7F8E3B" d="M200 136h4v4h-4z"/><path fill="#9FBA2E" d="M204 136h4v4h-4zM208 136h4v4h-4zM212 136h4v4h-4z"/><path fill="#5C556B" d="M216 136h4v4h-4z"/><path fill="#024139" d="M220 136h4v4h-4z"/><path fill="#47773E" d="M224 136h4v4h-4z"/><path fill="#7E8E3B" d="M228 136h4v4h-4z"/><path fill="#81903A" d="M232 136h4v4h-4z"/><path fill="#9EB92F" d="M236 136h4v4h-4z"/><path fill="#808F3A" d="M240 136h4v4h-4z"/><path fill="#47773E" d="M244 136h4v4h-4z"/><path fill="#024139" d="M248 136h4v4h-4zM84 140h4v4h-4zM88 140h4v4h-4z"/><path fill="#46773E" d="M92 140h4v4h-4z"/><path fill="#024139" d="M96 140h4v4h-4z"/><path fill="#5C556B" d="M100 140h4v4h-4zM104 140h4v4h-4z"/><path fill="#4A4058" d="M108 140h4v4h-4zM112 140h4v4h-4zM116 140h4v4h-4zM120 140h4v4h-4zM124 140h4v4h-4zM128 140h4v4h-4zM132 140h4v4h-4z"/><path fill="#0FFFF5" d="M136 140h4v4h-4zM140 140h4v4h-4zM144 140h4v4h-4z"/><path fill="#0EFDF3" d="M148 140h4v4h-4z"/><path fill="#4A4058" d="M152 140h4v4h-4zM156 140h4v4h-4z"/><path fill="#0EFDF3" d="M160 140h4v4h-4z"/><path fill="#4A4058" d="M164 140h4v4h-4zM168 140h4v4h-4zM172 140h4v4h-4zM176 140h4v4h-4zM180 140h4v4h-4zM184 140h4v4h-4z"/><path fill="#024139" d="M188 140h4v4h-4z"/><path fill="#04433A" d="M192 140h4v4h-4z"/><path fill="#054339" d="M196 140h4v4h-4z"/><path fill="#819039" d="M200 140h4v4h-4z"/><path fill="#7F8E3A" d="M204 140h4v4h-4z"/><path fill="#81903A" d="M208 140h4v4h-4zM212 140h4v4h-4z"/><path fill="#5C556B" d="M216 140h4v4h-4z"/><path fill="#024139" d="M220 140h4v4h-4z"/><path fill="#47773E" d="M224 140h4v4h-4z"/><path fill="#48763F" d="M228 140h4v4h-4z"/><path fill="#7E8E3B" d="M232 140h4v4h-4z"/><path fill="#808F3A" d="M236 140h4v4h-4z"/><path fill="#47773E" d="M240 140h4v4h-4zM244 140h4v4h-4z"/><path fill="#024139" d="M248 140h4v4h-4zM80 144h4v4h-4zM84 144h4v4h-4zM88 144h4v4h-4zM92 144h4v4h-4z"/><path fill="#5C556B" d="M96 144h4v4h-4zM100 144h4v4h-4zM104 144h4v4h-4z"/><path fill="#4A4058" d="M108 144h4v4h-4zM112 144h4v4h-4zM116 144h4v4h-4zM120 144h4v4h-4zM124 144h4v4h-4z"/><path fill="#00B3B1" d="M128 144h4v4h-4z"/><path fill="#0FFFF5" d="M132 144h4v4h-4zM136 144h4v4h-4z"/><path fill="#4A4058" d="M140 144h4v4h-4zM144 144h4v4h-4zM148 144h4v4h-4z"/><path fill="#0FFFF5" d="M152 144h4v4h-4z"/><path fill="#4A4058" d="M156 144h4v4h-4z"/><path fill="#0FFFF5" d="M160 144h4v4h-4z"/><path fill="#4A4058" d="M164 144h4v4h-4zM168 144h4v4h-4zM172 144h4v4h-4z"/><path fill="#00B1AF" d="M176 144h4v4h-4z"/><path fill="#4A4058" d="M180 144h4v4h-4zM184 144h4v4h-4z"/><path fill="#024139" d="M188 144h4v4h-4z"/><path fill="#46763F" d="M192 144h4v4h-4z"/><path fill="#9FBA2E" d="M196 144h4v4h-4zM200 144h4v4h-4zM204 144h4v4h-4z"/><path fill="#81903A" d="M208 144h4v4h-4z"/><path fill="#45763D" d="M212 144h4v4h-4z"/><path fill="#5C556B" d="M216 144h4v4h-4z"/><path fill="#024139" d="M220 144h4v4h-4z"/><path fill="#47773E" d="M224 144h4v4h-4z"/><path fill="#7D8E3B" d="M228 144h4v4h-4z"/><path fill="#9EB92F" d="M232 144h4v4h-4z"/><path fill="#9DB830" d="M236 144h4v4h-4z"/><path fill="#47773E" d="M240 144h4v4h-4z"/><path fill="#024139" d="M244 144h4v4h-4zM80 148h4v4h-4zM84 148h4v4h-4z"/><path fill="#46773E" d="M88 148h4v4h-4z"/><path fill="#5C556B" d="M92 148h4v4h-4zM96 148h4v4h-4z"/><path fill="#4A4058" d="M100 148h4v4h-4z"/><path fill="#5C556B" d="M104 148h4v4h-4z"/><path fill="#4A4058" d="M108 148h4v4h-4zM112 148h4v4h-4zM116 148h4v4h-4z"/><path fill="#00B3B1" d="M120 148h4v4h-4z"/><path fill="#00B4B2" d="M124 148h4v4h-4z"/><path fill="#4A4058" d="M128 148h4v4h-4zM132 148h4v4h-4z"/><path fill="#0FFFF5" d="M136 148h4v4h-4z"/><path fill="#4A4058" d="M140 148h4v4h-4z"/><path fill="#4B4059" d="M144 148h4v4h-4z"/><path fill="#4A4058" d="M148 148h4v4h-4z"/><path fill="#0FFFF5" d="M152 148h4v4h-4zM156 148h4v4h-4z"/><path fill="#4A4058" d="M160 148h4v4h-4zM164 148h4v4h-4zM168 148h4v4h-4z"/><path fill="#00B1AF" d="M172 148h4v4h-4z"/><path fill="#0FFFF5" d="M176 148h4v4h-4z"/><path fill="#4A4058" d="M180 148h4v4h-4zM184 148h4v4h-4z"/><path fill="#024139" d="M188 148h4v4h-4z"/><path fill="#47763F" d="M192 148h4v4h-4z"/><path fill="#9FBA2E" d="M196 148h4v4h-4zM200 148h4v4h-4zM204 148h4v4h-4zM208 148h4v4h-4z"/><path fill="#47773E" d="M212 148h4v4h-4z"/><path fill="#5C556B" d="M216 148h4v4h-4z"/><path fill="#024139" d="M220 148h4v4h-4z"/><path fill="#47773E" d="M224 148h4v4h-4z"/><path fill="#7D8E3B" d="M228 148h4v4h-4z"/><path fill="#7C8D3C" d="M232 148h4v4h-4z"/><path fill="#46763D" d="M236 148h4v4h-4z"/><path fill="#A0BB2D" d="M240 148h4v4h-4z"/><path fill="#47773E" d="M244 148h4v4h-4z"/><path fill="#024139" d="M248 148h4v4h-4zM76 152h4v4h-4z"/><path fill="#45763D" d="M80 152h4v4h-4z"/><path fill="#024139" d="M84 152h4v4h-4z"/><path fill="#82913B" d="M88 152h4v4h-4z"/><path fill="#5C556B" d="M92 152h4v4h-4zM96 152h4v4h-4z"/><path fill="#4A4058" d="M100 152h4v4h-4zM104 152h4v4h-4zM108 152h4v4h-4zM112 152h4v4h-4zM116 152h4v4h-4zM120 152h4v4h-4zM124 152h4v4h-4z"/><path fill="#00B3B1" d="M128 152h4v4h-4z"/><path fill="#0FFFF5" d="M132 152h4v4h-4zM136 152h4v4h-4z"/><path fill="#4A4058" d="M140 152h4v4h-4zM144 152h4v4h-4zM148 152h4v4h-4z"/><path fill="#0FFFF5" d="M152 152h4v4h-4zM156 152h4v4h-4z"/><path fill="#4A4058" d="M160 152h4v4h-4zM164 152h4v4h-4zM168 152h4v4h-4z"/><path fill="#00B1AF" d="M172 152h4v4h-4z"/><path fill="#4A4058" d="M176 152h4v4h-4zM180 152h4v4h-4zM184 152h4v4h-4z"/><path fill="#024139" d="M188 152h4v4h-4z"/><path fill="#47773E" d="M192 152h4v4h-4z"/><path fill="#7F8E3C" d="M196 152h4v4h-4z"/><path fill="#9FBA2E" d="M200 152h4v4h-4zM204 152h4v4h-4zM208 152h4v4h-4z"/><path fill="#47773E" d="M212 152h4v4h-4z"/><path fill="#5C556B" d="M216 152h4v4h-4z"/><path fill="#024139" d="M220 152h4v4h-4z"/><path fill="#47773E" d="M224 152h4v4h-4z"/><path fill="#7C8D3C" d="M228 152h4v4h-4z"/><path fill="#49783D" d="M232 152h4v4h-4z"/><path fill="#7F8E3B" d="M236 152h4v4h-4z"/><path fill="#9FBA2E" d="M240 152h4v4h-4z"/><path fill="#A0BB2D" d="M244 152h4v4h-4z"/><path fill="#47773E" d="M248 152h4v4h-4z"/><path fill="#024139" d="M252 152h4v4h-4zM76 156h4v4h-4z"/><path fill="#45763D" d="M80 156h4v4h-4z"/><path fill="#024139" d="M84 156h4v4h-4z"/><path fill="#82913B" d="M88 156h4v4h-4z"/><path fill="#5C556B" d="M92 156h4v4h-4zM96 156h4v4h-4z"/><path fill="#024139" d="M100 156h4v4h-4z"/><path fill="#4A4058" d="M104 156h4v4h-4zM108 156h4v4h-4zM112 156h4v4h-4zM116 156h4v4h-4zM120 156h4v4h-4zM124 156h4v4h-4zM128 156h4v4h-4zM132 156h4v4h-4z"/><path fill="#0FFFF5" d="M136 156h4v4h-4zM140 156h4v4h-4zM144 156h4v4h-4zM148 156h4v4h-4z"/><path fill="#4A4058" d="M152 156h4v4h-4zM156 156h4v4h-4z"/><path fill="#00B3B1" d="M160 156h4v4h-4z"/><path fill="#4A4058" d="M164 156h4v4h-4zM168 156h4v4h-4zM172 156h4v4h-4zM176 156h4v4h-4zM180 156h4v4h-4z"/><path fill="#024139" d="M184 156h4v4h-4zM188 156h4v4h-4z"/><path fill="#47763F" d="M192 156h4v4h-4z"/><path fill="#7F8E3C" d="M196 156h4v4h-4z"/><path fill="#9FBA2E" d="M200 156h4v4h-4zM204 156h4v4h-4zM208 156h4v4h-4z"/><path fill="#808F3A" d="M212 156h4v4h-4z"/><path fill="#5C556B" d="M216 156h4v4h-4zM220 156h4v4h-4z"/><path fill="#024139" d="M224 156h4v4h-4z"/><path fill="#45763D" d="M228 156h4v4h-4z"/><path fill="#47773E" d="M232 156h4v4h-4z"/><path fill="#7E8E3B" d="M236 156h4v4h-4z"/><path fill="#9FBA2E" d="M240 156h4v4h-4zM244 156h4v4h-4z"/><path fill="#9EB92F" d="M248 156h4v4h-4z"/><path fill="#47773E" d="M252 156h4v4h-4z"/><path fill="#024139" d="M256 156h4v4h-4zM76 160h4v4h-4z"/><path fill="#45763D" d="M80 160h4v4h-4z"/><path fill="#024139" d="M84 160h4v4h-4z"/><path fill="#46773E" d="M88 160h4v4h-4z"/><path fill="#5C556B" d="M92 160h4v4h-4z"/><path fill="#024139" d="M96 160h4v4h-4z"/><path fill="#46763F" d="M100 160h4v4h-4z"/><path fill="#4A4058" d="M104 160h4v4h-4zM108 160h4v4h-4zM112 160h4v4h-4z"/><path fill="#00B3B1" d="M116 160h4v4h-4z"/><path fill="#4A4058" d="M120 160h4v4h-4zM124 160h4v4h-4zM128 160h4v4h-4zM132 160h4v4h-4z"/><path fill="#0FFFF5" d="M136 160h4v4h-4z"/><path fill="#4A4058" d="M140 160h4v4h-4z"/><path fill="#0FFFF5" d="M144 160h4v4h-4zM148 160h4v4h-4zM152 160h4v4h-4zM156 160h4v4h-4z"/><path fill="#00B3B1" d="M160 160h4v4h-4z"/><path fill="#4A4058" d="M164 160h4v4h-4zM168 160h4v4h-4zM172 160h4v4h-4zM176 160h4v4h-4zM180 160h4v4h-4z"/><path fill="#024139" d="M184 160h4v4h-4zM188 160h4v4h-4z"/><path fill="#46763E" d="M192 160h4v4h-4z"/><path fill="#48783C" d="M196 160h4v4h-4z"/><path fill="#81903A" d="M200 160h4v4h-4z"/><path fill="#9FBA2E" d="M204 160h4v4h-4zM208 160h4v4h-4zM212 160h4v4h-4z"/><path fill="#808F3B" d="M216 160h4v4h-4z"/><path fill="#024139" d="M220 160h4v4h-4z"/><path fill="#5C556B" opacity=".98" d="M224 160h4v4h-4z"/><path fill="#024139" d="M228 160h4v4h-4z"/><path fill="#04433A" d="M232 160h4v4h-4z"/><path fill="#47773E" d="M236 160h4v4h-4z"/><path fill="#7F8E3B" d="M240 160h4v4h-4z"/><path fill="#9FBA2E" d="M244 160h4v4h-4z"/><path fill="#9EB92F" d="M248 160h4v4h-4z"/><path fill="#47773E" d="M252 160h4v4h-4z"/><path fill="#024139" d="M256 160h4v4h-4zM72 164h4v4h-4zM76 164h4v4h-4z"/><path fill="#45763D" d="M80 164h4v4h-4z"/><path fill="#024139" d="M84 164h4v4h-4z"/><path fill="#46773E" d="M88 164h4v4h-4z"/><path fill="#5C556B" d="M92 164h4v4h-4z"/><path fill="#024139" d="M96 164h4v4h-4z"/><path fill="#46763F" d="M100 164h4v4h-4z"/><path fill="#4A4058" d="M104 164h4v4h-4zM108 164h4v4h-4z"/><path fill="#00B3B1" d="M112 164h4v4h-4z"/><path fill="#0FFFF5" d="M116 164h4v4h-4z"/><path fill="#4A4058" d="M120 164h4v4h-4zM124 164h4v4h-4zM128 164h4v4h-4zM132 164h4v4h-4z"/><path fill="#0FFFF5" d="M136 164h4v4h-4z"/><path fill="#4A4058" d="M140 164h4v4h-4z"/><path fill="#0FFFF5" d="M144 164h4v4h-4z"/><path fill="#4A4058" d="M148 164h4v4h-4zM152 164h4v4h-4zM156 164h4v4h-4z"/><path fill="#00B3B1" d="M160 164h4v4h-4zM164 164h4v4h-4z"/><path fill="#4A4058" d="M168 164h4v4h-4zM172 164h4v4h-4zM176 164h4v4h-4zM180 164h4v4h-4z"/><path fill="#4B4059" d="M184 164h4v4h-4z"/><path fill="#024139" d="M188 164h4v4h-4z"/><path fill="#44743D" d="M192 164h4v4h-4z"/><path fill="#48783C" d="M196 164h4v4h-4z"/><path fill="#7F8E3B" d="M200 164h4v4h-4z"/><path fill="#9FBA2E" d="M204 164h4v4h-4zM208 164h4v4h-4zM212 164h4v4h-4z"/><path fill="#808F3B" d="M216 164h4v4h-4z"/><path fill="#024139" d="M220 164h4v4h-4z"/><path fill="#5C556B" opacity=".98" d="M224 164h4v4h-4z"/><path fill="#024139" d="M228 164h4v4h-4z"/><path fill="#49783D" d="M232 164h4v4h-4zM236 164h4v4h-4z"/><path fill="#7E8E3B" d="M240 164h4v4h-4z"/><path fill="#81903B" d="M244 164h4v4h-4z"/><path fill="#9EB92F" d="M248 164h4v4h-4z"/><path fill="#47773E" d="M252 164h4v4h-4z"/><path fill="#024139" d="M256 164h4v4h-4zM76 168h4v4h-4z"/><path fill="#45763D" d="M80 168h4v4h-4z"/><path fill="#024139" d="M84 168h4v4h-4zM88 168h4v4h-4z"/><path fill="#5C556B" d="M92 168h4v4h-4z"/><path fill="#024139" d="M96 168h4v4h-4z"/><path fill="#48763F" d="M100 168h4v4h-4z"/><path fill="#4A4058" d="M104 168h4v4h-4zM108 168h4v4h-4zM112 168h4v4h-4z"/><path fill="#00B3B1" d="M116 168h4v4h-4z"/><path fill="#4A4058" d="M120 168h4v4h-4zM124 168h4v4h-4zM128 168h4v4h-4zM132 168h4v4h-4z"/><path fill="#00B3B1" d="M136 168h4v4h-4zM140 168h4v4h-4z"/><path fill="#4A4058" d="M144 168h4v4h-4zM148 168h4v4h-4z"/><path fill="#474059" d="M152 168h4v4h-4z"/><path fill="#4A4058" d="M156 168h4v4h-4zM160 168h4v4h-4zM164 168h4v4h-4zM168 168h4v4h-4zM172 168h4v4h-4zM176 168h4v4h-4zM180 168h4v4h-4z"/><path fill="#4B4059" d="M184 168h4v4h-4zM188 168h4v4h-4z"/><path fill="#024139" d="M192 168h4v4h-4z"/><path fill="#04433A" d="M196 168h4v4h-4z"/><path fill="#7F8E3B" d="M200 168h4v4h-4z"/><path fill="#9FBA2E" d="M204 168h4v4h-4zM208 168h4v4h-4z"/><path fill="#808F3A" d="M212 168h4v4h-4z"/><path fill="#808F3B" d="M216 168h4v4h-4z"/><path fill="#024139" d="M220 168h4v4h-4z"/><path fill="#5C556B" d="M224 168h4v4h-4z"/><path fill="#024139" d="M228 168h4v4h-4z"/><path fill="#47773E" d="M232 168h4v4h-4z"/><path fill="#7E8E3B" d="M236 168h4v4h-4z"/><path fill="#9EB92F" d="M240 168h4v4h-4z"/><path fill="#83923B" d="M244 168h4v4h-4z"/><path fill="#46763D" d="M248 168h4v4h-4z"/><path fill="#47773E" d="M252 168h4v4h-4z"/><path fill="#024139" d="M256 168h4v4h-4zM80 172h4v4h-4z"/><path fill="#45763D" d="M84 172h4v4h-4z"/><path fill="#024139" d="M88 172h4v4h-4zM92 172h4v4h-4zM96 172h4v4h-4z"/><path fill="#46773E" d="M100 172h4v4h-4z"/><path fill="#4A4058" d="M104 172h4v4h-4zM108 172h4v4h-4zM112 172h4v4h-4zM116 172h4v4h-4zM120 172h4v4h-4zM124 172h4v4h-4zM128 172h4v4h-4zM132 172h4v4h-4z"/><path fill="#00B4B2" d="M136 172h4v4h-4z"/><path fill="#4A4058" d="M140 172h4v4h-4zM144 172h4v4h-4zM148 172h4v4h-4zM152 172h4v4h-4zM156 172h4v4h-4zM160 172h4v4h-4z"/><path fill="#4B4059" d="M164 172h4v4h-4zM168 172h4v4h-4zM172 172h4v4h-4z"/><path fill="#4A4058" d="M176 172h4v4h-4zM180 172h4v4h-4z"/><path fill="#484157" d="M184 172h4v4h-4z"/><path fill="#4B4059" d="M188 172h4v4h-4z"/><path fill="#024139" d="M192 172h4v4h-4z"/><path fill="#46763D" d="M196 172h4v4h-4z"/><path fill="#48783C" d="M200 172h4v4h-4z"/><path fill="#7F8E3B" d="M204 172h4v4h-4z"/><path fill="#81903A" d="M208 172h4v4h-4z"/><path fill="#808F3A" d="M212 172h4v4h-4zM216 172h4v4h-4z"/><path fill="#024139" d="M220 172h4v4h-4zM224 172h4v4h-4zM228 172h4v4h-4z"/><path fill="#47773E" d="M232 172h4v4h-4z"/><path fill="#7E8E3B" d="M236 172h4v4h-4z"/><path fill="#808F3A" d="M240 172h4v4h-4z"/><path fill="#9DB82F" d="M244 172h4v4h-4z"/><path fill="#46763D" d="M248 172h4v4h-4z"/><path fill="#024139" d="M252 172h4v4h-4zM84 176h4v4h-4zM88 176h4v4h-4zM92 176h4v4h-4zM96 176h4v4h-4z"/><path fill="#45763D" d="M100 176h4v4h-4z"/><path fill="#82903D" d="M104 176h4v4h-4z"/><path fill="#82913B" d="M108 176h4v4h-4z"/><path fill="#808E3C" d="M112 176h4v4h-4z"/><path fill="#4A4058" d="M116 176h4v4h-4zM120 176h4v4h-4zM124 176h4v4h-4zM128 176h4v4h-4zM132 176h4v4h-4zM136 176h4v4h-4zM140 176h4v4h-4zM144 176h4v4h-4zM148 176h4v4h-4z"/><path fill="#00B3B1" d="M152 176h4v4h-4z"/><path fill="#4A4058" d="M156 176h4v4h-4z"/><path fill="#00B3B1" d="M160 176h4v4h-4z"/><path fill="#4A4058" d="M164 176h4v4h-4z"/><path fill="#4B4059" d="M168 176h4v4h-4zM172 176h4v4h-4z"/><path fill="#4A4058" d="M176 176h4v4h-4zM180 176h4v4h-4zM184 176h4v4h-4z"/><path fill="#484157" d="M188 176h4v4h-4z"/><path fill="#024139" d="M192 176h4v4h-4z"/><path fill="#44743D" d="M196 176h4v4h-4z"/><path fill="#46763D" d="M200 176h4v4h-4z"/><path fill="#48783C" d="M204 176h4v4h-4z"/><path fill="#49783D" d="M208 176h4v4h-4z"/><path fill="#808F3A" d="M212 176h4v4h-4z"/><path fill="#81903A" d="M216 176h4v4h-4z"/><path fill="#808F3B" d="M220 176h4v4h-4z"/><path fill="#024139" d="M224 176h4v4h-4zM228 176h4v4h-4z"/><path fill="#46773E" d="M232 176h4v4h-4z"/><path fill="#7E8E3B" d="M236 176h4v4h-4z"/><path fill="#808F3A" d="M240 176h4v4h-4z"/><path fill="#47773E" d="M244 176h4v4h-4z"/><path fill="#024139" d="M248 176h4v4h-4zM80 180h4v4h-4zM84 180h4v4h-4zM88 180h4v4h-4zM92 180h4v4h-4zM96 180h4v4h-4z"/><path fill="#48763F" d="M100 180h4v4h-4z"/><path fill="#45763D" d="M104 180h4v4h-4z"/><path fill="#83923C" d="M108 180h4v4h-4z"/><path fill="#9EB92F" d="M112 180h4v4h-4zM116 180h4v4h-4z"/><path fill="#4A4058" d="M120 180h4v4h-4zM124 180h4v4h-4zM128 180h4v4h-4zM132 180h4v4h-4zM136 180h4v4h-4zM140 180h4v4h-4zM144 180h4v4h-4zM148 180h4v4h-4z"/><path fill="#0FFFF5" d="M152 180h4v4h-4zM156 180h4v4h-4z"/><path fill="#4A4058" d="M160 180h4v4h-4zM164 180h4v4h-4z"/><path fill="#024139" d="M168 180h4v4h-4zM172 180h4v4h-4z"/><path fill="#4B4059" d="M176 180h4v4h-4zM180 180h4v4h-4z"/><path fill="#4A4058" d="M184 180h4v4h-4z"/><path fill="#4B4059" d="M188 180h4v4h-4zM192 180h4v4h-4z"/><path fill="#024139" d="M196 180h4v4h-4z"/><path fill="#44743D" d="M200 180h4v4h-4z"/><path fill="#46763D" d="M204 180h4v4h-4z"/><path fill="#7F8F3B" d="M208 180h4v4h-4z"/><path fill="#9EB92F" d="M212 180h4v4h-4zM216 180h4v4h-4z"/><path fill="#808F3A" d="M220 180h4v4h-4z"/><path fill="#47773E" d="M224 180h4v4h-4z"/><path fill="#024139" d="M228 180h4v4h-4z"/><path fill="#49783D" d="M232 180h4v4h-4z"/><path fill="#45763D" d="M236 180h4v4h-4z"/><path fill="#46773E" d="M240 180h4v4h-4z"/><path fill="#024139" d="M244 180h4v4h-4zM88 184h4v4h-4z"/><path fill="#493F57" d="M92 184h4v4h-4z"/><path fill="#024139" d="M96 184h4v4h-4zM100 184h4v4h-4zM104 184h4v4h-4z"/><path fill="#45763D" d="M108 184h4v4h-4z"/><path fill="#818F3A" d="M112 184h4v4h-4z"/><path fill="#9EB92F" d="M116 184h4v4h-4zM120 184h4v4h-4z"/><path fill="#4A4058" d="M124 184h4v4h-4zM128 184h4v4h-4zM132 184h4v4h-4zM136 184h4v4h-4zM140 184h4v4h-4zM144 184h4v4h-4zM148 184h4v4h-4z"/><path fill="#00B3B1" d="M152 184h4v4h-4z"/><path fill="#4A4058" d="M156 184h4v4h-4zM160 184h4v4h-4z"/><path fill="#024139" d="M164 184h4v4h-4z"/><path fill="#46753E" d="M168 184h4v4h-4z"/><path fill="#4A4058" d="M172 184h4v4h-4zM176 184h4v4h-4z"/><path fill="#5B546A" d="M180 184h4v4h-4z"/><path fill="#4A4058" d="M184 184h4v4h-4z"/><path fill="#4B4059" d="M188 184h4v4h-4zM192 184h4v4h-4zM196 184h4v4h-4z"/><path fill="#024139" d="M200 184h4v4h-4z"/><path fill="#04423A" d="M204 184h4v4h-4z"/><path fill="#04433A" d="M208 184h4v4h-4z"/><path fill="#47773E" d="M212 184h4v4h-4z"/><path fill="#81903A" d="M216 184h4v4h-4z"/><path fill="#808F3A" d="M220 184h4v4h-4z"/><path fill="#47773E" d="M224 184h4v4h-4z"/><path fill="#024139" d="M228 184h4v4h-4z"/><path fill="#45753D" d="M232 184h4v4h-4z"/><path fill="#47773E" d="M236 184h4v4h-4z"/><path fill="#46753E" d="M240 184h4v4h-4z"/><path fill="#024139" d="M244 184h4v4h-4z"/><path fill="#024139" opacity=".98" d="M252 184h4v4h-4z"/><path fill="#46753E" opacity=".98" d="M256 184h4v4h-4z"/><path fill="#024139" d="M88 188h4v4h-4zM92 188h4v4h-4zM96 188h4v4h-4zM100 188h4v4h-4zM104 188h4v4h-4zM108 188h4v4h-4z"/><path fill="#45763D" d="M112 188h4v4h-4z"/><path fill="#818F3A" d="M116 188h4v4h-4z"/><path fill="#9EB92F" d="M120 188h4v4h-4z"/><path fill="#818F3A" d="M124 188h4v4h-4z"/><path fill="#4A4058" d="M128 188h4v4h-4zM132 188h4v4h-4zM136 188h4v4h-4z"/><path fill="#4D4257" d="M140 188h4v4h-4z"/><path fill="#4A4058" d="M144 188h4v4h-4zM148 188h4v4h-4zM152 188h4v4h-4zM156 188h4v4h-4z"/><path fill="#024139" d="M160 188h4v4h-4z"/><path fill="#46753E" d="M164 188h4v4h-4z"/><path fill="#4A4058" d="M168 188h4v4h-4zM172 188h4v4h-4zM176 188h4v4h-4z"/><path fill="#5B546A" d="M180 188h4v4h-4z"/><path fill="#04423A" d="M184 188h4v4h-4z"/><path fill="#04403A" d="M188 188h4v4h-4z"/><path fill="#4B4059" d="M192 188h4v4h-4z"/><path fill="#5B546A" d="M196 188h4v4h-4z"/><path fill="#5C556B" d="M200 188h4v4h-4z"/><path fill="#024139" d="M204 188h4v4h-4z"/><path fill="#44743D" d="M208 188h4v4h-4z"/><path fill="#47773E" d="M212 188h4v4h-4zM216 188h4v4h-4z"/><path fill="#808F3A" d="M220 188h4v4h-4z"/><path fill="#46773E" d="M224 188h4v4h-4zM228 188h4v4h-4z"/><path fill="#024139" d="M232 188h4v4h-4z"/><path fill="#47773E" d="M236 188h4v4h-4z"/><path fill="#46753E" d="M240 188h4v4h-4z"/><path fill="#024139" d="M244 188h4v4h-4z"/><path fill="#024139" opacity=".98" d="M248 188h4v4h-4zM252 188h4v4h-4z"/><path fill="#44733D" d="M256 188h4v4h-4z"/><path fill="#024139" d="M80 192h4v4h-4zM92 192h4v4h-4zM96 192h4v4h-4zM100 192h4v4h-4zM104 192h4v4h-4z"/><path fill="#493F57" d="M108 192h4v4h-4z"/><path fill="#024139" d="M112 192h4v4h-4z"/><path fill="#7F8D3B" d="M116 192h4v4h-4z"/><path fill="#818F3A" d="M120 192h4v4h-4zM124 192h4v4h-4z"/><path fill="#808E3C" d="M128 192h4v4h-4z"/><path fill="#5A5369" d="M132 192h4v4h-4zM136 192h4v4h-4z"/><path fill="#4D4257" d="M140 192h4v4h-4z"/><path fill="#4A4058" d="M144 192h4v4h-4zM148 192h4v4h-4zM152 192h4v4h-4zM156 192h4v4h-4z"/><path fill="#024139" d="M160 192h4v4h-4z"/><path fill="#46753E" d="M164 192h4v4h-4z"/><path fill="#4A4058" d="M168 192h4v4h-4zM172 192h4v4h-4zM176 192h4v4h-4zM180 192h4v4h-4z"/><path fill="#04423A" d="M184 192h4v4h-4z"/><path fill="#47753F" d="M188 192h4v4h-4z"/><path fill="#04403A" d="M192 192h4v4h-4zM196 192h4v4h-4z"/><path fill="#5F566A" d="M200 192h4v4h-4z"/><path fill="#44753D" d="M204 192h4v4h-4z"/><path fill="#44743D" d="M208 192h4v4h-4z"/><path fill="#47773E" d="M212 192h4v4h-4z"/><path fill="#46773E" d="M216 192h4v4h-4z"/><path fill="#48783B" d="M220 192h4v4h-4z"/><path fill="#47773C" d="M224 192h4v4h-4z"/><path fill="#46773E" d="M228 192h4v4h-4z"/><path fill="#45753D" d="M232 192h4v4h-4z"/><path fill="#45763D" d="M236 192h4v4h-4z"/><path fill="#46753E" d="M240 192h4v4h-4z"/><path fill="#024139" d="M244 192h4v4h-4z"/><path fill="#44733D" d="M252 192h4v4h-4zM256 192h4v4h-4z"/><path fill="#024139" d="M80 196h4v4h-4zM84 196h4v4h-4zM92 196h4v4h-4zM96 196h4v4h-4zM100 196h4v4h-4zM104 196h4v4h-4z"/><path fill="#493F57" d="M108 196h4v4h-4z"/><path fill="#024139" d="M112 196h4v4h-4z"/><path fill="#45763D" d="M116 196h4v4h-4z"/><path fill="#81903A" d="M120 196h4v4h-4zM124 196h4v4h-4z"/><path fill="#47773E" d="M128 196h4v4h-4z"/><path fill="#4A4058" d="M132 196h4v4h-4z"/><path fill="#4D4257" d="M136 196h4v4h-4z"/><path fill="#4A4058" d="M140 196h4v4h-4zM144 196h4v4h-4zM148 196h4v4h-4zM152 196h4v4h-4zM156 196h4v4h-4z"/><path fill="#024139" d="M160 196h4v4h-4z"/><path fill="#46753E" d="M164 196h4v4h-4z"/><path fill="#4A4058" d="M168 196h4v4h-4zM172 196h4v4h-4zM176 196h4v4h-4zM180 196h4v4h-4zM184 196h4v4h-4z"/><path fill="#04403A" d="M188 196h4v4h-4z"/><path fill="#47753F" d="M192 196h4v4h-4z"/><path fill="#04403A" d="M196 196h4v4h-4z"/><path fill="#47763F" d="M200 196h4v4h-4z"/><path fill="#44753D" d="M204 196h4v4h-4z"/><path fill="#024139" d="M208 196h4v4h-4z"/><path fill="#47773E" d="M212 196h4v4h-4z"/><path fill="#48783B" d="M216 196h4v4h-4z"/><path fill="#45763D" d="M220 196h4v4h-4z"/><path fill="#47773C" d="M224 196h4v4h-4z"/><path fill="#47773E" d="M228 196h4v4h-4z"/><path fill="#45763D" d="M232 196h4v4h-4z"/><path fill="#47773E" d="M236 196h4v4h-4z"/><path fill="#46753E" d="M240 196h4v4h-4z"/><path fill="#024139" d="M244 196h4v4h-4zM248 196h4v4h-4zM252 196h4v4h-4z"/><path fill="#44733D" d="M256 196h4v4h-4z"/><path fill="#024139" d="M80 200h4v4h-4zM84 200h4v4h-4zM88 200h4v4h-4zM92 200h4v4h-4zM96 200h4v4h-4zM100 200h4v4h-4zM104 200h4v4h-4z"/><path fill="#493F57" d="M108 200h4v4h-4zM112 200h4v4h-4z"/><path fill="#024139" d="M116 200h4v4h-4z"/><path fill="#45763D" d="M120 200h4v4h-4z"/><path fill="#47773E" d="M124 200h4v4h-4zM128 200h4v4h-4zM132 200h4v4h-4zM136 200h4v4h-4z"/><path fill="#4A4058" d="M140 200h4v4h-4zM144 200h4v4h-4zM148 200h4v4h-4zM152 200h4v4h-4zM156 200h4v4h-4zM160 200h4v4h-4z"/><path fill="#024139" d="M164 200h4v4h-4z"/><path fill="#45763D" d="M168 200h4v4h-4z"/><path fill="#024139" d="M172 200h4v4h-4z"/><path fill="#4A4058" d="M176 200h4v4h-4z"/><path fill="#4B4257" d="M180 200h4v4h-4z"/><path fill="#4A4058" d="M184 200h4v4h-4z"/><path fill="#04403A" d="M188 200h4v4h-4z"/><path fill="#47753F" d="M192 200h4v4h-4z"/><path fill="#47763F" d="M196 200h4v4h-4z"/><path fill="#44753D" d="M200 200h4v4h-4z"/><path fill="#48793F" d="M204 200h4v4h-4z"/><path fill="#47773E" d="M208 200h4v4h-4z"/><path fill="#46773E" d="M212 200h4v4h-4z"/><path fill="#48783B" d="M216 200h4v4h-4z"/><path fill="#46773E" d="M220 200h4v4h-4z"/><path fill="#45763D" d="M224 200h4v4h-4z"/><path fill="#47773E" d="M228 200h4v4h-4z"/><path fill="#46763D" d="M232 200h4v4h-4z"/><path fill="#45763D" d="M236 200h4v4h-4z"/><path fill="#47773E" d="M240 200h4v4h-4z"/><path fill="#44753C" d="M244 200h4v4h-4z"/><path fill="#024139" d="M248 200h4v4h-4zM252 200h4v4h-4zM256 200h4v4h-4zM80 204h4v4h-4zM84 204h4v4h-4zM88 204h4v4h-4zM92 204h4v4h-4zM96 204h4v4h-4zM100 204h4v4h-4zM104 204h4v4h-4z"/><path fill="#493F57" d="M108 204h4v4h-4zM112 204h4v4h-4zM116 204h4v4h-4z"/><path fill="#024139" d="M120 204h4v4h-4z"/><path fill="#45763D" d="M124 204h4v4h-4z"/><path fill="#47773E" d="M128 204h4v4h-4z"/><path fill="#4A793C" d="M132 204h4v4h-4zM136 204h4v4h-4z"/><path fill="#4A4058" d="M140 204h4v4h-4z"/><path fill="#024139" d="M144 204h4v4h-4zM148 204h4v4h-4zM152 204h4v4h-4zM156 204h4v4h-4z"/><path fill="#4A4058" d="M160 204h4v4h-4z"/><path fill="#024139" d="M164 204h4v4h-4z"/><path fill="#44753C" d="M168 204h4v4h-4z"/><path fill="#46773E" d="M172 204h4v4h-4z"/><path fill="#024139" d="M176 204h4v4h-4z"/><path fill="#4B4257" d="M180 204h4v4h-4z"/><path fill="#4A4058" d="M184 204h4v4h-4z"/><path fill="#04403A" d="M188 204h4v4h-4z"/><path fill="#47753F" d="M192 204h4v4h-4z"/><path fill="#44753D" d="M196 204h4v4h-4z"/><path fill="#48793F" d="M200 204h4v4h-4z"/><path fill="#47773E" d="M204 204h4v4h-4z"/><path fill="#46773E" d="M208 204h4v4h-4z"/><path fill="#85943B" d="M212 204h4v4h-4z"/><path fill="#48783B" d="M216 204h4v4h-4z"/><path fill="#46753E" d="M220 204h4v4h-4z"/><path fill="#45763D" d="M224 204h4v4h-4z"/><path fill="#47773E" d="M228 204h4v4h-4zM232 204h4v4h-4z"/><path fill="#46763D" d="M236 204h4v4h-4z"/><path fill="#47773E" d="M240 204h4v4h-4z"/><path fill="#46773E" d="M244 204h4v4h-4z"/><path fill="#024139" d="M248 204h4v4h-4zM252 204h4v4h-4zM80 208h4v4h-4zM84 208h4v4h-4zM88 208h4v4h-4z"/><path fill="#46763D" d="M92 208h4v4h-4z"/><path fill="#48783E" d="M96 208h4v4h-4z"/><path fill="#024139" d="M100 208h4v4h-4zM104 208h4v4h-4zM108 208h4v4h-4zM112 208h4v4h-4z"/><path fill="#493F57" d="M116 208h4v4h-4zM120 208h4v4h-4z"/><path fill="#024139" d="M124 208h4v4h-4z"/><path fill="#45763D" d="M128 208h4v4h-4z"/><path fill="#024139" d="M132 208h4v4h-4zM136 208h4v4h-4zM140 208h4v4h-4z"/><path fill="#4A4058" d="M144 208h4v4h-4z"/><path fill="#024139" d="M148 208h4v4h-4z"/><path fill="#45763D" d="M152 208h4v4h-4z"/><path fill="#47783E" d="M156 208h4v4h-4z"/><path fill="#024139" d="M160 208h4v4h-4zM164 208h4v4h-4z"/><path fill="#45763D" d="M168 208h4v4h-4z"/><path fill="#46773E" d="M172 208h4v4h-4z"/><path fill="#024139" d="M176 208h4v4h-4z"/><path fill="#4B4257" d="M180 208h4v4h-4z"/><path fill="#4A4058" d="M184 208h4v4h-4z"/><path fill="#024139" d="M188 208h4v4h-4z"/><path fill="#44753D" d="M192 208h4v4h-4z"/><path fill="#46773E" d="M196 208h4v4h-4zM200 208h4v4h-4zM204 208h4v4h-4z"/><path fill="#84933C" d="M208 208h4v4h-4z"/><path fill="#85943B" d="M212 208h4v4h-4z"/><path fill="#47773C" d="M216 208h4v4h-4z"/><path fill="#47773E" d="M220 208h4v4h-4zM224 208h4v4h-4z"/><path fill="#48783E" d="M228 208h4v4h-4zM232 208h4v4h-4z"/><path fill="#46763D" d="M236 208h4v4h-4z"/><path fill="#47773E" d="M240 208h4v4h-4z"/><path fill="#80923E" d="M244 208h4v4h-4z"/><path fill="#46773E" d="M248 208h4v4h-4z"/><path fill="#024139" d="M252 208h4v4h-4zM84 212h4v4h-4zM88 212h4v4h-4zM92 212h4v4h-4z"/><path fill="#46763D" d="M96 212h4v4h-4zM100 212h4v4h-4z"/><path fill="#024139" d="M104 212h4v4h-4zM108 212h4v4h-4zM112 212h4v4h-4zM116 212h4v4h-4zM120 212h4v4h-4z"/><path fill="#4A4058" d="M124 212h4v4h-4z"/><path fill="#024139" d="M128 212h4v4h-4zM132 212h4v4h-4zM136 212h4v4h-4zM140 212h4v4h-4z"/><path fill="#4D4257" d="M144 212h4v4h-4zM148 212h4v4h-4z"/><path fill="#024139" d="M152 212h4v4h-4z"/><path fill="#45763D" d="M156 212h4v4h-4z"/><path fill="#47783E" d="M160 212h4v4h-4z"/><path fill="#024139" d="M164 212h4v4h-4z"/><path fill="#46773E" d="M168 212h4v4h-4z"/><path fill="#83923C" d="M172 212h4v4h-4z"/><path fill="#024139" d="M176 212h4v4h-4zM180 212h4v4h-4zM184 212h4v4h-4z"/><path fill="#46773E" d="M188 212h4v4h-4zM192 212h4v4h-4zM196 212h4v4h-4zM200 212h4v4h-4z"/><path fill="#48793E" d="M204 212h4v4h-4z"/><path fill="#85943B" d="M208 212h4v4h-4z"/><path fill="#47773E" d="M212 212h4v4h-4zM216 212h4v4h-4z"/><path fill="#48783E" d="M220 212h4v4h-4z"/><path fill="#46763D" d="M224 212h4v4h-4z"/><path fill="#47773E" d="M228 212h4v4h-4z"/><path fill="#46763D" d="M232 212h4v4h-4zM236 212h4v4h-4z"/><path fill="#45763D" d="M240 212h4v4h-4z"/><path fill="#84933C" d="M244 212h4v4h-4z"/><path fill="#46773E" d="M248 212h4v4h-4zM252 212h4v4h-4z"/><path fill="#024139" d="M256 212h4v4h-4zM88 216h4v4h-4zM92 216h4v4h-4zM96 216h4v4h-4z"/><path fill="#45763D" d="M100 216h4v4h-4z"/><path fill="#024139" d="M104 216h4v4h-4zM108 216h4v4h-4zM112 216h4v4h-4zM116 216h4v4h-4z"/><path fill="#84933C" d="M120 216h4v4h-4z"/><path fill="#493F57" d="M124 216h4v4h-4z"/><path fill="#4A4058" d="M128 216h4v4h-4z"/><path fill="#024139" d="M132 216h4v4h-4zM136 216h4v4h-4zM140 216h4v4h-4zM144 216h4v4h-4z"/><path fill="#4D4257" d="M148 216h4v4h-4zM152 216h4v4h-4z"/><path fill="#024139" d="M156 216h4v4h-4z"/><path fill="#45763D" d="M160 216h4v4h-4z"/><path fill="#024139" d="M164 216h4v4h-4z"/><path fill="#47773E" d="M168 216h4v4h-4z"/><path fill="#83923C" d="M172 216h4v4h-4z"/><path fill="#808F3C" d="M176 216h4v4h-4z"/><path fill="#024139" d="M180 216h4v4h-4zM184 216h4v4h-4z"/><path fill="#46773E" d="M188 216h4v4h-4zM192 216h4v4h-4zM196 216h4v4h-4z"/><path fill="#45763D" d="M200 216h4v4h-4zM204 216h4v4h-4z"/><path fill="#85943B" d="M208 216h4v4h-4z"/><path fill="#84933C" d="M212 216h4v4h-4z"/><path fill="#48783E" d="M216 216h4v4h-4zM220 216h4v4h-4z"/><path fill="#46763D" d="M224 216h4v4h-4z"/><path fill="#47773E" d="M228 216h4v4h-4z"/><path fill="#48783E" d="M232 216h4v4h-4z"/><path fill="#47773E" d="M236 216h4v4h-4zM240 216h4v4h-4z"/><path fill="#45763D" d="M244 216h4v4h-4zM248 216h4v4h-4zM252 216h4v4h-4z"/><path fill="#44753C" d="M256 216h4v4h-4z"/><path fill="#024139" d="M260 216h4v4h-4zM96 220h4v4h-4zM100 220h4v4h-4z"/><path fill="#46763D" d="M104 220h4v4h-4z"/><path fill="#024139" d="M108 220h4v4h-4zM112 220h4v4h-4z"/><path fill="#84933C" d="M116 220h4v4h-4zM120 220h4v4h-4z"/><path fill="#493F57" d="M124 220h4v4h-4zM128 220h4v4h-4z"/><path fill="#024139" d="M132 220h4v4h-4zM136 220h4v4h-4zM140 220h4v4h-4z"/><path fill="#46763F" d="M144 220h4v4h-4z"/><path fill="#024139" d="M148 220h4v4h-4z"/><path fill="#4D4257" d="M152 220h4v4h-4z"/><path fill="#024139" d="M156 220h4v4h-4z"/><path fill="#45763D" d="M160 220h4v4h-4z"/><path fill="#024139" d="M164 220h4v4h-4z"/><path fill="#47773E" d="M168 220h4v4h-4z"/><path fill="#82913D" d="M172 220h4v4h-4zM176 220h4v4h-4z"/><path fill="#024139" d="M180 220h4v4h-4zM184 220h4v4h-4z"/><path fill="#46773E" d="M188 220h4v4h-4z"/><path fill="#45763D" d="M192 220h4v4h-4zM196 220h4v4h-4zM200 220h4v4h-4z"/><path fill="#024139" d="M204 220h4v4h-4z"/><path fill="#45763D" d="M208 220h4v4h-4z"/><path fill="#48783E" d="M212 220h4v4h-4z"/><path fill="#84933C" d="M216 220h4v4h-4z"/><path fill="#48783E" d="M220 220h4v4h-4zM224 220h4v4h-4zM228 220h4v4h-4zM232 220h4v4h-4zM236 220h4v4h-4zM240 220h4v4h-4z"/><path fill="#80923E" d="M244 220h4v4h-4z"/><path fill="#47773E" d="M248 220h4v4h-4z"/><path fill="#46773E" d="M252 220h4v4h-4z"/><path fill="#44753C" d="M256 220h4v4h-4z"/><path fill="#024139" d="M92 224h4v4h-4zM96 224h4v4h-4zM100 224h4v4h-4z"/><path fill="#47773E" d="M104 224h4v4h-4z"/><path fill="#024139" d="M108 224h4v4h-4zM112 224h4v4h-4z"/><path fill="#82923B" d="M116 224h4v4h-4z"/><path fill="#83923B" d="M120 224h4v4h-4z"/><path fill="#493F57" d="M124 224h4v4h-4zM128 224h4v4h-4z"/><path fill="#024139" d="M132 224h4v4h-4zM136 224h4v4h-4zM140 224h4v4h-4z"/><path fill="#46763E" d="M144 224h4v4h-4z"/><path fill="#024139" d="M148 224h4v4h-4z"/><path fill="#4A4058" d="M152 224h4v4h-4z"/><path fill="#024139" d="M156 224h4v4h-4z"/><path fill="#45763D" d="M160 224h4v4h-4z"/><path fill="#024139" d="M164 224h4v4h-4zM168 224h4v4h-4z"/><path fill="#47773E" d="M172 224h4v4h-4z"/><path fill="#82913D" d="M176 224h4v4h-4z"/><path fill="#81903C" d="M180 224h4v4h-4z"/><path fill="#024139" d="M184 224h4v4h-4z"/><path fill="#45763D" d="M188 224h4v4h-4zM192 224h4v4h-4zM196 224h4v4h-4z"/><path fill="#024139" d="M200 224h4v4h-4zM204 224h4v4h-4zM208 224h4v4h-4z"/><path fill="#45763D" d="M212 224h4v4h-4z"/><path fill="#46763D" d="M216 224h4v4h-4z"/><path fill="#48783E" d="M220 224h4v4h-4zM224 224h4v4h-4zM228 224h4v4h-4zM232 224h4v4h-4zM236 224h4v4h-4zM240 224h4v4h-4z"/><path fill="#024139" d="M244 224h4v4h-4z"/><path fill="#46773E" d="M252 224h4v4h-4z"/><path fill="#024139" d="M92 228h4v4h-4zM96 228h4v4h-4zM100 228h4v4h-4z"/><path fill="#47773E" d="M104 228h4v4h-4z"/><path fill="#024139" d="M108 228h4v4h-4zM112 228h4v4h-4z"/><path fill="#83923B" d="M116 228h4v4h-4z"/><path fill="#47773E" d="M120 228h4v4h-4z"/><path fill="#024139" d="M124 228h4v4h-4z"/><path fill="#493F57" d="M128 228h4v4h-4zM132 228h4v4h-4z"/><path fill="#024139" d="M136 228h4v4h-4zM140 228h4v4h-4zM144 228h4v4h-4zM148 228h4v4h-4zM152 228h4v4h-4zM156 228h4v4h-4zM160 228h4v4h-4z"/><path fill="#47783E" d="M164 228h4v4h-4z"/><path fill="#024139" d="M168 228h4v4h-4zM172 228h4v4h-4z"/><path fill="#45763D" d="M176 228h4v4h-4zM180 228h4v4h-4z"/><path fill="#024139" d="M184 228h4v4h-4z"/><path fill="#45763D" d="M188 228h4v4h-4zM192 228h4v4h-4z"/><path fill="#024139" d="M196 228h4v4h-4zM200 228h4v4h-4zM204 228h4v4h-4zM208 228h4v4h-4zM212 228h4v4h-4z"/><path fill="#46763D" d="M216 228h4v4h-4zM220 228h4v4h-4z"/><path fill="#48783E" d="M224 228h4v4h-4zM228 228h4v4h-4zM232 228h4v4h-4zM236 228h4v4h-4zM240 228h4v4h-4z"/><path fill="#024139" d="M244 228h4v4h-4zM88 232h4v4h-4zM92 232h4v4h-4z"/><path fill="#82923B" d="M96 232h4v4h-4z"/><path fill="#024139" d="M100 232h4v4h-4zM104 232h4v4h-4zM108 232h4v4h-4zM112 232h4v4h-4z"/><path fill="#47773E" d="M116 232h4v4h-4zM120 232h4v4h-4z"/><path fill="#024139" d="M124 232h4v4h-4zM128 232h4v4h-4zM132 232h4v4h-4zM136 232h4v4h-4zM140 232h4v4h-4zM144 232h4v4h-4zM148 232h4v4h-4zM152 232h4v4h-4zM156 232h4v4h-4zM160 232h4v4h-4zM164 232h4v4h-4z"/><path fill="#45763D" d="M168 232h4v4h-4z"/><path fill="#024139" d="M172 232h4v4h-4zM176 232h4v4h-4zM180 232h4v4h-4zM184 232h4v4h-4zM188 232h4v4h-4zM192 232h4v4h-4zM196 232h4v4h-4zM200 232h4v4h-4zM204 232h4v4h-4zM208 232h4v4h-4zM212 232h4v4h-4zM216 232h4v4h-4z"/><path fill="#46763D" d="M220 232h4v4h-4zM224 232h4v4h-4zM228 232h4v4h-4zM232 232h4v4h-4zM236 232h4v4h-4z"/><path fill="#48783E" d="M240 232h4v4h-4z"/><path fill="#024139" d="M244 232h4v4h-4zM92 236h4v4h-4zM96 236h4v4h-4z"/><path fill="#83923B" d="M100 236h4v4h-4z"/><path fill="#024139" d="M104 236h4v4h-4zM108 236h4v4h-4zM112 236h4v4h-4z"/><path fill="#49783D" d="M116 236h4v4h-4z"/><path fill="#46773E" d="M120 236h4v4h-4z"/><path fill="#49783D" d="M124 236h4v4h-4z"/><path fill="#024139" d="M128 236h4v4h-4zM132 236h4v4h-4zM136 236h4v4h-4zM140 236h4v4h-4zM144 236h4v4h-4zM148 236h4v4h-4z"/><path fill="#45763D" d="M152 236h4v4h-4z"/><path fill="#4D4257" d="M156 236h4v4h-4z"/><path fill="#024139" d="M160 236h4v4h-4zM164 236h4v4h-4zM168 236h4v4h-4zM172 236h4v4h-4z"/><path fill="#4A4058" d="M176 236h4v4h-4zM180 236h4v4h-4z"/><path fill="#024139" d="M184 236h4v4h-4zM188 236h4v4h-4zM192 236h4v4h-4zM196 236h4v4h-4zM200 236h4v4h-4z"/><path fill="#45763D" d="M204 236h4v4h-4z"/><path fill="#024139" d="M208 236h4v4h-4zM212 236h4v4h-4zM216 236h4v4h-4zM220 236h4v4h-4z"/><path fill="#46763D" d="M224 236h4v4h-4zM228 236h4v4h-4zM232 236h4v4h-4zM236 236h4v4h-4z"/><path fill="#45763D" d="M240 236h4v4h-4z"/><path fill="#024139" d="M244 236h4v4h-4zM96 240h4v4h-4zM100 240h4v4h-4z"/><path fill="#46763D" d="M104 240h4v4h-4z"/><path fill="#47773E" d="M108 240h4v4h-4z"/><path fill="#024139" d="M112 240h4v4h-4zM116 240h4v4h-4z"/><path fill="#45763D" d="M120 240h4v4h-4z"/><path fill="#46763D" d="M124 240h4v4h-4z"/><path fill="#49783D" d="M128 240h4v4h-4z"/><path fill="#024139" d="M132 240h4v4h-4zM136 240h4v4h-4z"/><path fill="#493F57" d="M140 240h4v4h-4z"/><path fill="#343E44" d="M144 240h4v4h-4z"/><path fill="#323F44" d="M148 240h4v4h-4z"/><path fill="#024139" d="M152 240h4v4h-4z"/><path fill="#4A4058" d="M156 240h4v4h-4z"/><path fill="#024139" d="M160 240h4v4h-4z"/><path fill="#45763D" d="M164 240h4v4h-4z"/><path fill="#024139" d="M168 240h4v4h-4zM172 240h4v4h-4zM176 240h4v4h-4z"/><path fill="#4A4058" d="M180 240h4v4h-4z"/><path fill="#024139" d="M184 240h4v4h-4zM188 240h4v4h-4zM192 240h4v4h-4zM196 240h4v4h-4z"/><path fill="#45763D" d="M200 240h4v4h-4z"/><path fill="#024139" d="M204 240h4v4h-4z"/><path fill="#45763D" d="M208 240h4v4h-4z"/><path fill="#85943B" d="M212 240h4v4h-4zM216 240h4v4h-4z"/><path fill="#024139" d="M220 240h4v4h-4zM224 240h4v4h-4zM228 240h4v4h-4zM240 240h4v4h-4zM244 240h4v4h-4zM88 244h4v4h-4zM92 244h4v4h-4zM96 244h4v4h-4zM100 244h4v4h-4zM104 244h4v4h-4zM108 244h4v4h-4zM112 244h4v4h-4zM116 244h4v4h-4zM120 244h4v4h-4zM124 244h4v4h-4z"/><path fill="#45763D" d="M128 244h4v4h-4z"/><path fill="#83923A" d="M132 244h4v4h-4z"/><path fill="#024139" d="M136 244h4v4h-4z"/><path fill="#493F57" d="M140 244h4v4h-4z"/><path fill="#323F44" d="M144 244h4v4h-4zM148 244h4v4h-4z"/><path fill="#354044" d="M152 244h4v4h-4z"/><path fill="#024139" d="M156 244h4v4h-4zM160 244h4v4h-4zM164 244h4v4h-4zM168 244h4v4h-4zM172 244h4v4h-4zM176 244h4v4h-4zM180 244h4v4h-4zM184 244h4v4h-4zM188 244h4v4h-4zM192 244h4v4h-4zM196 244h4v4h-4zM200 244h4v4h-4z"/><path fill="#00B4AF" d="M204 244h4v4h-4z"/><path fill="#024139" d="M208 244h4v4h-4z"/><path fill="#45763D" d="M212 244h4v4h-4zM216 244h4v4h-4zM220 244h4v4h-4z"/><path fill="#024139" d="M244 244h4v4h-4zM88 248h4v4h-4zM92 248h4v4h-4zM96 248h4v4h-4zM100 248h4v4h-4zM104 248h4v4h-4zM108 248h4v4h-4zM112 248h4v4h-4z"/><path fill="#46773E" d="M116 248h4v4h-4z"/><path fill="#024139" d="M120 248h4v4h-4zM124 248h4v4h-4z"/><path fill="#45763D" d="M128 248h4v4h-4z"/><path fill="#85943B" d="M132 248h4v4h-4z"/><path fill="#024139" d="M136 248h4v4h-4zM140 248h4v4h-4zM144 248h4v4h-4zM148 248h4v4h-4z"/><path fill="#353C42" d="M152 248h4v4h-4z"/><path fill="#024139" d="M156 248h4v4h-4zM160 248h4v4h-4zM164 248h4v4h-4zM168 248h4v4h-4zM172 248h4v4h-4zM176 248h4v4h-4zM180 248h4v4h-4zM184 248h4v4h-4z"/><path fill="#45763D" d="M188 248h4v4h-4z"/><path fill="#85943B" d="M192 248h4v4h-4z"/><path fill="#024139" d="M196 248h4v4h-4zM200 248h4v4h-4z"/><path fill="#00B4AF" d="M204 248h4v4h-4z"/><path fill="#75DCA8" d="M208 248h4v4h-4z"/><path fill="#024139" d="M212 248h4v4h-4zM216 248h4v4h-4zM220 248h4v4h-4zM252 248h4v4h-4zM84 252h4v4h-4zM88 252h4v4h-4zM92 252h4v4h-4zM96 252h4v4h-4zM100 252h4v4h-4zM104 252h4v4h-4zM108 252h4v4h-4z"/><path fill="#46763D" d="M112 252h4v4h-4z"/><path fill="#47773E" d="M116 252h4v4h-4z"/><path fill="#024139" d="M120 252h4v4h-4zM124 252h4v4h-4zM128 252h4v4h-4z"/><path fill="#45763D" d="M132 252h4v4h-4z"/><path fill="#024139" d="M136 252h4v4h-4zM140 252h4v4h-4zM144 252h4v4h-4zM148 252h4v4h-4z"/><path fill="#353C42" d="M152 252h4v4h-4z"/><path fill="#024139" d="M156 252h4v4h-4zM160 252h4v4h-4z"/><path fill="#45763D" d="M164 252h4v4h-4z"/><path fill="#024139" d="M168 252h4v4h-4zM172 252h4v4h-4zM176 252h4v4h-4zM180 252h4v4h-4zM184 252h4v4h-4zM188 252h4v4h-4z"/><path fill="#45763D" d="M192 252h4v4h-4z"/><path fill="#024139" d="M196 252h4v4h-4zM200 252h4v4h-4zM204 252h4v4h-4zM208 252h4v4h-4zM252 252h4v4h-4zM80 256h4v4h-4zM84 256h4v4h-4zM88 256h4v4h-4zM92 256h4v4h-4zM96 256h4v4h-4zM100 256h4v4h-4zM104 256h4v4h-4zM108 256h4v4h-4z"/><path fill="#49783D" d="M112 256h4v4h-4zM116 256h4v4h-4z"/><path fill="#024139" d="M120 256h4v4h-4zM124 256h4v4h-4zM128 256h4v4h-4zM132 256h4v4h-4z"/><path fill="#45763D" d="M136 256h4v4h-4z"/><path fill="#85943B" d="M140 256h4v4h-4z"/><path fill="#024139" d="M144 256h4v4h-4zM148 256h4v4h-4z"/><path fill="#45763D" d="M152 256h4v4h-4z"/><path fill="#85943B" d="M156 256h4v4h-4z"/><path fill="#024139" d="M160 256h4v4h-4z"/><path fill="#45763D" d="M164 256h4v4h-4z"/><path fill="#85943B" d="M168 256h4v4h-4z"/><path fill="#024139" d="M172 256h4v4h-4zM176 256h4v4h-4zM180 256h4v4h-4zM184 256h4v4h-4zM192 256h4v4h-4zM88 260h4v4h-4zM92 260h4v4h-4zM96 260h4v4h-4zM100 260h4v4h-4zM104 260h4v4h-4zM108 260h4v4h-4zM112 260h4v4h-4zM116 260h4v4h-4zM120 260h4v4h-4zM124 260h4v4h-4zM128 260h4v4h-4zM132 260h4v4h-4z"/><path fill="#45763D" d="M136 260h4v4h-4z"/><path fill="#85943B" d="M140 260h4v4h-4zM144 260h4v4h-4z"/><path fill="#024139" d="M148 260h4v4h-4z"/><path fill="#45763D" d="M152 260h4v4h-4z"/><path fill="#85943B" d="M156 260h4v4h-4z"/><path fill="#024139" d="M160 260h4v4h-4z"/><path fill="#45763D" d="M164 260h4v4h-4zM168 260h4v4h-4z"/><path fill="#024139" d="M100 264h4v4h-4zM104 264h4v4h-4zM108 264h4v4h-4zM112 264h4v4h-4zM116 264h4v4h-4zM120 264h4v4h-4z"/><path fill="#45763D" d="M124 264h4v4h-4z"/><path fill="#00B4AF" d="M128 264h4v4h-4z"/><path fill="#024139" d="M132 264h4v4h-4zM136 264h4v4h-4z"/><path fill="#45763D" d="M140 264h4v4h-4zM144 264h4v4h-4z"/><path fill="#024139" d="M148 264h4v4h-4zM152 264h4v4h-4z"/><path fill="#45763D" d="M156 264h4v4h-4z"/><path fill="#024139" d="M164 264h4v4h-4zM168 264h4v4h-4zM96 268h4v4h-4zM100 268h4v4h-4zM104 268h4v4h-4z"/><path fill="#47773E" opacity=".98" d="M108 268h4v4h-4z"/><path fill="#024139" d="M112 268h4v4h-4zM116 268h4v4h-4zM124 268h4v4h-4zM128 268h4v4h-4zM132 268h4v4h-4zM136 268h4v4h-4z"/><path fill="#45763D" d="M140 268h4v4h-4z"/><path fill="#024139" d="M144 268h4v4h-4zM156 268h4v4h-4zM108 272h4v4h-4zM112 272h4v4h-4z"/><path fill="#47773E" opacity=".98" d="M116 272h4v4h-4zM120 272h4v4h-4zM124 272h4v4h-4z"/><path fill="#024139" d="M140 272h4v4h-4zM108 276h4v4h-4zM112 276h4v4h-4zM116 276h4v4h-4zM120 276h4v4h-4zM124 276h4v4h-4zM104 280h4v4h-4zM108 280h4v4h-4zM112 280h4v4h-4zM116 280h4v4h-4zM104 284h4v4h-4z"/></svg>