<svg width="384" height="384" xmlns="http://www.w3.org/2000/svg" shape-rendering="crispEdges"><path fill="#845353" d="M132 64h4v4h-4zM136 64h4v4h-4zM140 64h4v4h-4zM144 64h4v4h-4zM148 64h4v4h-4zM152 64h4v4h-4zM156 64h4v4h-4zM160 64h4v4h-4zM164 64h4v4h-4zM168 64h4v4h-4zM172 64h4v4h-4zM176 64h4v4h-4zM120 68h4v4h-4zM124 68h4v4h-4zM128 68h4v4h-4z"/><path fill="#9D7456" d="M132 68h4v4h-4zM136 68h4v4h-4zM140 68h4v4h-4zM144 68h4v4h-4zM148 68h4v4h-4zM152 68h4v4h-4zM156 68h4v4h-4zM160 68h4v4h-4zM164 68h4v4h-4zM168 68h4v4h-4zM172 68h4v4h-4zM176 68h4v4h-4z"/><path fill="#845353" d="M180 68h4v4h-4zM184 68h4v4h-4zM188 68h4v4h-4zM108 72h4v4h-4zM112 72h4v4h-4zM116 72h4v4h-4z"/><path fill="#C78A63" d="M120 72h4v4h-4zM124 72h4v4h-4z"/><path fill="#DA9C74" d="M128 72h4v4h-4zM132 72h4v4h-4zM136 72h4v4h-4zM140 72h4v4h-4z"/><path fill="#9D7456" d="M144 72h4v4h-4zM148 72h4v4h-4zM152 72h4v4h-4zM156 72h4v4h-4z"/><path fill="#DA9C74" d="M160 72h4v4h-4zM164 72h4v4h-4zM168 72h4v4h-4z"/><path fill="#C78A63" d="M172 72h4v4h-4z"/><path fill="#9D7456" d="M176 72h4v4h-4zM180 72h4v4h-4zM184 72h4v4h-4zM188 72h4v4h-4z"/><path fill="#845353" d="M192 72h4v4h-4zM196 72h4v4h-4zM200 72h4v4h-4zM100 76h4v4h-4zM104 76h4v4h-4z"/><path fill="#C78A63" d="M108 76h4v4h-4zM112 76h4v4h-4zM116 76h4v4h-4z"/><path fill="#DA9C74" d="M120 76h4v4h-4zM124 76h4v4h-4zM128 76h4v4h-4zM132 76h4v4h-4zM136 76h4v4h-4z"/><path fill="#9D7456" d="M140 76h4v4h-4zM144 76h4v4h-4zM148 76h4v4h-4z"/><path fill="#C78A63" d="M152 76h4v4h-4z"/><path fill="#DA9C74" d="M156 76h4v4h-4zM160 76h4v4h-4zM164 76h4v4h-4z"/><path fill="#C78A63" d="M168 76h4v4h-4zM172 76h4v4h-4zM176 76h4v4h-4zM180 76h4v4h-4zM184 76h4v4h-4z"/><path fill="#9D7456" d="M188 76h4v4h-4zM192 76h4v4h-4zM196 76h4v4h-4zM200 76h4v4h-4z"/><path fill="#845353" d="M204 76h4v4h-4zM208 76h4v4h-4zM96 80h4v4h-4z"/><path fill="#C78A63" d="M100 80h4v4h-4zM104 80h4v4h-4zM108 80h4v4h-4zM112 80h4v4h-4zM116 80h4v4h-4zM120 80h4v4h-4z"/><path fill="#DA9C74" d="M124 80h4v4h-4zM128 80h4v4h-4zM132 80h4v4h-4z"/><path fill="#9D7456" d="M136 80h4v4h-4zM140 80h4v4h-4zM144 80h4v4h-4z"/><path fill="#C78A63" d="M148 80h4v4h-4zM152 80h4v4h-4zM156 80h4v4h-4z"/><path fill="#DA9C74" d="M160 80h4v4h-4z"/><path fill="#C78A63" d="M164 80h4v4h-4zM168 80h4v4h-4zM172 80h4v4h-4zM176 80h4v4h-4zM180 80h4v4h-4zM184 80h4v4h-4z"/><path fill="#DA9C74" d="M188 80h4v4h-4z"/><path fill="#C78A63" d="M192 80h4v4h-4zM196 80h4v4h-4zM200 80h4v4h-4z"/><path fill="#9D7456" d="M204 80h4v4h-4zM208 80h4v4h-4z"/><path fill="#845353" d="M212 80h4v4h-4zM88 84h4v4h-4zM92 84h4v4h-4z"/><path fill="#C78A63" d="M96 84h4v4h-4zM100 84h4v4h-4z"/><path fill="#9D7456" d="M104 84h4v4h-4z"/><path fill="#C78A63" d="M108 84h4v4h-4zM112 84h4v4h-4zM116 84h4v4h-4zM120 84h4v4h-4zM124 84h4v4h-4zM128 84h4v4h-4zM132 84h4v4h-4z"/><path fill="#9D7456" d="M136 84h4v4h-4zM140 84h4v4h-4z"/><path fill="#845353" d="M144 84h4v4h-4z"/><path fill="#C78A63" d="M148 84h4v4h-4zM152 84h4v4h-4zM156 84h4v4h-4zM160 84h4v4h-4zM164 84h4v4h-4zM168 84h4v4h-4z"/><path fill="#9D7456" d="M172 84h4v4h-4z"/><path fill="#C78A63" d="M176 84h4v4h-4z"/><path fill="#DA9C74" d="M180 84h4v4h-4zM184 84h4v4h-4zM188 84h4v4h-4zM192 84h4v4h-4zM196 84h4v4h-4zM200 84h4v4h-4z"/><path fill="#C78A63" d="M204 84h4v4h-4zM208 84h4v4h-4z"/><path fill="#9D7456" d="M212 84h4v4h-4z"/><path fill="#845353" d="M216 84h4v4h-4zM220 84h4v4h-4zM80 88h4v4h-4zM84 88h4v4h-4z"/><path fill="#C78A63" d="M88 88h4v4h-4zM92 88h4v4h-4zM96 88h4v4h-4z"/><path fill="#9D7456" d="M100 88h4v4h-4z"/><path fill="#C78A63" d="M104 88h4v4h-4zM108 88h4v4h-4zM112 88h4v4h-4zM116 88h4v4h-4zM120 88h4v4h-4zM124 88h4v4h-4zM128 88h4v4h-4zM132 88h4v4h-4z"/><path fill="#9D7456" d="M136 88h4v4h-4z"/><path fill="#6B3F3F" d="M140 88h4v4h-4z"/><path fill="#C78A63" d="M144 88h4v4h-4zM148 88h4v4h-4zM152 88h4v4h-4zM156 88h4v4h-4zM160 88h4v4h-4zM164 88h4v4h-4z"/><path fill="#9D7456" d="M168 88h4v4h-4z"/><path fill="#C78A63" d="M172 88h4v4h-4z"/><path fill="#DA9C74" d="M176 88h4v4h-4zM180 88h4v4h-4zM184 88h4v4h-4zM188 88h4v4h-4zM192 88h4v4h-4zM196 88h4v4h-4zM200 88h4v4h-4zM204 88h4v4h-4z"/><path fill="#C78A63" d="M208 88h4v4h-4zM212 88h4v4h-4z"/><path fill="#9D7456" d="M216 88h4v4h-4zM220 88h4v4h-4z"/><path fill="#845353" d="M224 88h4v4h-4zM72 92h4v4h-4zM76 92h4v4h-4z"/><path fill="#C78A63" d="M80 92h4v4h-4zM84 92h4v4h-4zM88 92h4v4h-4zM92 92h4v4h-4zM96 92h4v4h-4z"/><path fill="#9D7456" d="M100 92h4v4h-4z"/><path fill="#C78A63" d="M104 92h4v4h-4zM108 92h4v4h-4zM112 92h4v4h-4z"/><path fill="#9D7456" d="M116 92h4v4h-4zM120 92h4v4h-4zM124 92h4v4h-4zM128 92h4v4h-4zM132 92h4v4h-4z"/><path fill="#6B3F3F" d="M136 92h4v4h-4z"/><path fill="#C78A63" d="M140 92h4v4h-4zM144 92h4v4h-4zM148 92h4v4h-4zM152 92h4v4h-4zM156 92h4v4h-4zM160 92h4v4h-4z"/><path fill="#9D7456" d="M164 92h4v4h-4z"/><path fill="#C78A63" d="M168 92h4v4h-4z"/><path fill="#DA9C74" d="M172 92h4v4h-4zM176 92h4v4h-4zM180 92h4v4h-4zM184 92h4v4h-4zM188 92h4v4h-4zM192 92h4v4h-4zM196 92h4v4h-4zM200 92h4v4h-4zM204 92h4v4h-4zM208 92h4v4h-4zM212 92h4v4h-4z"/><path fill="#C78A63" d="M216 92h4v4h-4zM220 92h4v4h-4z"/><path fill="#9D7456" d="M224 92h4v4h-4z"/><path fill="#845353" d="M228 92h4v4h-4zM68 96h4v4h-4z"/><path fill="#9D7456" d="M72 96h4v4h-4z"/><path fill="#C78A63" d="M76 96h4v4h-4zM80 96h4v4h-4zM84 96h4v4h-4zM88 96h4v4h-4z"/><path fill="#9D7456" d="M92 96h4v4h-4zM96 96h4v4h-4zM100 96h4v4h-4zM104 96h4v4h-4zM108 96h4v4h-4zM112 96h4v4h-4zM116 96h4v4h-4zM120 96h4v4h-4zM124 96h4v4h-4zM128 96h4v4h-4zM132 96h4v4h-4zM136 96h4v4h-4zM140 96h4v4h-4z"/><path fill="#C78A63" d="M144 96h4v4h-4zM148 96h4v4h-4z"/><path fill="#9D7456" d="M152 96h4v4h-4zM156 96h4v4h-4zM160 96h4v4h-4z"/><path fill="#C78A63" d="M164 96h4v4h-4zM168 96h4v4h-4zM172 96h4v4h-4z"/><path fill="#DA9C74" d="M176 96h4v4h-4zM180 96h4v4h-4zM184 96h4v4h-4zM188 96h4v4h-4zM192 96h4v4h-4zM196 96h4v4h-4zM200 96h4v4h-4zM204 96h4v4h-4zM208 96h4v4h-4zM212 96h4v4h-4zM216 96h4v4h-4z"/><path fill="#C78A63" d="M220 96h4v4h-4zM224 96h4v4h-4z"/><path fill="#9D7456" d="M228 96h4v4h-4z"/><path fill="#845353" d="M232 96h4v4h-4zM64 100h4v4h-4z"/><path fill="#9D7456" d="M68 100h4v4h-4z"/><path fill="#C78A63" d="M72 100h4v4h-4zM76 100h4v4h-4zM80 100h4v4h-4z"/><path fill="#9D7456" d="M84 100h4v4h-4zM88 100h4v4h-4z"/><path fill="#845353" d="M92 100h4v4h-4zM96 100h4v4h-4z"/><path fill="#6B3F3F" d="M100 100h4v4h-4zM104 100h4v4h-4zM108 100h4v4h-4zM112 100h4v4h-4zM116 100h4v4h-4z"/><path fill="#845353" d="M120 100h4v4h-4z"/><path fill="#9D7456" d="M124 100h4v4h-4zM128 100h4v4h-4zM132 100h4v4h-4zM136 100h4v4h-4zM140 100h4v4h-4zM144 100h4v4h-4zM148 100h4v4h-4zM152 100h4v4h-4zM156 100h4v4h-4z"/><path fill="#C78A63" d="M160 100h4v4h-4zM164 100h4v4h-4zM168 100h4v4h-4zM172 100h4v4h-4z"/><path fill="#DA9C74" d="M176 100h4v4h-4zM180 100h4v4h-4zM184 100h4v4h-4zM188 100h4v4h-4zM192 100h4v4h-4zM196 100h4v4h-4zM200 100h4v4h-4zM204 100h4v4h-4zM208 100h4v4h-4zM212 100h4v4h-4zM216 100h4v4h-4zM220 100h4v4h-4z"/><path fill="#C78A63" d="M224 100h4v4h-4zM228 100h4v4h-4z"/><path fill="#9D7456" d="M232 100h4v4h-4z"/><path fill="#845353" d="M236 100h4v4h-4z"/><path fill="#C78A63" d="M64 104h4v4h-4z"/><path fill="#9D7456" d="M68 104h4v4h-4z"/><path fill="#C78A63" d="M72 104h4v4h-4zM76 104h4v4h-4z"/><path fill="#9D7456" d="M80 104h4v4h-4z"/><path fill="#845353" d="M84 104h4v4h-4zM88 104h4v4h-4zM92 104h4v4h-4zM96 104h4v4h-4zM100 104h4v4h-4zM104 104h4v4h-4z"/><path fill="#6B3F3F" d="M108 104h4v4h-4zM112 104h4v4h-4zM116 104h4v4h-4zM120 104h4v4h-4zM124 104h4v4h-4zM128 104h4v4h-4z"/><path fill="#845353" d="M132 104h4v4h-4z"/><path fill="#9D7456" d="M136 104h4v4h-4zM140 104h4v4h-4zM144 104h4v4h-4zM148 104h4v4h-4z"/><path fill="#C78A63" d="M152 104h4v4h-4z"/><path fill="#9D7456" d="M156 104h4v4h-4z"/><path fill="#C78A63" d="M160 104h4v4h-4zM164 104h4v4h-4zM168 104h4v4h-4zM172 104h4v4h-4zM176 104h4v4h-4z"/><path fill="#DA9C74" d="M180 104h4v4h-4zM184 104h4v4h-4zM188 104h4v4h-4zM192 104h4v4h-4zM196 104h4v4h-4zM200 104h4v4h-4zM204 104h4v4h-4zM208 104h4v4h-4zM212 104h4v4h-4zM216 104h4v4h-4zM220 104h4v4h-4zM224 104h4v4h-4z"/><path fill="#C78A63" d="M228 104h4v4h-4zM232 104h4v4h-4zM236 104h4v4h-4z"/><path fill="#845353" d="M240 104h4v4h-4z"/><path fill="#C78A63" d="M64 108h4v4h-4z"/><path fill="#845353" d="M68 108h4v4h-4z"/><path fill="#9D7456" d="M72 108h4v4h-4zM76 108h4v4h-4z"/><path fill="#845353" d="M80 108h4v4h-4zM84 108h4v4h-4z"/><path fill="#C78A63" d="M88 108h4v4h-4zM92 108h4v4h-4zM96 108h4v4h-4zM100 108h4v4h-4zM104 108h4v4h-4z"/><path fill="#9D7456" d="M108 108h4v4h-4zM112 108h4v4h-4z"/><path fill="#845353" d="M116 108h4v4h-4zM120 108h4v4h-4z"/><path fill="#6B3F3F" d="M124 108h4v4h-4zM128 108h4v4h-4zM132 108h4v4h-4z"/><path fill="#9D7456" d="M136 108h4v4h-4zM140 108h4v4h-4zM144 108h4v4h-4zM148 108h4v4h-4z"/><path fill="#C78A63" d="M152 108h4v4h-4z"/><path fill="#9D7456" d="M156 108h4v4h-4z"/><path fill="#C78A63" d="M160 108h4v4h-4zM164 108h4v4h-4zM168 108h4v4h-4zM172 108h4v4h-4zM176 108h4v4h-4z"/><path fill="#DA9C74" d="M180 108h4v4h-4zM184 108h4v4h-4zM188 108h4v4h-4zM192 108h4v4h-4zM196 108h4v4h-4zM200 108h4v4h-4zM204 108h4v4h-4zM208 108h4v4h-4zM212 108h4v4h-4zM216 108h4v4h-4zM220 108h4v4h-4zM224 108h4v4h-4zM228 108h4v4h-4z"/><path fill="#C78A63" d="M232 108h4v4h-4zM236 108h4v4h-4z"/><path fill="#9D7456" d="M240 108h4v4h-4z"/><path fill="#845353" d="M244 108h4v4h-4zM60 112h4v4h-4z"/><path fill="#C78A63" d="M64 112h4v4h-4z"/><path fill="#845353" d="M68 112h4v4h-4zM72 112h4v4h-4zM76 112h4v4h-4z"/><path fill="#C78A63" d="M80 112h4v4h-4zM84 112h4v4h-4z"/><path fill="#DA9C74" d="M88 112h4v4h-4zM92 112h4v4h-4zM96 112h4v4h-4zM100 112h4v4h-4z"/><path fill="#9D7456" d="M104 112h4v4h-4zM108 112h4v4h-4z"/><path fill="#C78A63" d="M112 112h4v4h-4z"/><path fill="#9D7456" d="M116 112h4v4h-4zM120 112h4v4h-4z"/><path fill="#845353" d="M124 112h4v4h-4zM128 112h4v4h-4z"/><path fill="#6B3F3F" d="M132 112h4v4h-4zM136 112h4v4h-4z"/><path fill="#9D7456" d="M140 112h4v4h-4zM144 112h4v4h-4zM148 112h4v4h-4z"/><path fill="#C78A63" d="M152 112h4v4h-4zM156 112h4v4h-4zM160 112h4v4h-4zM164 112h4v4h-4zM168 112h4v4h-4zM172 112h4v4h-4zM176 112h4v4h-4zM180 112h4v4h-4z"/><path fill="#DA9C74" d="M184 112h4v4h-4zM188 112h4v4h-4zM192 112h4v4h-4z"/><path fill="#C78A63" d="M196 112h4v4h-4zM200 112h4v4h-4z"/><path fill="#DA9C74" d="M204 112h4v4h-4zM208 112h4v4h-4z"/><path fill="#C78A63" d="M212 112h4v4h-4zM216 112h4v4h-4zM220 112h4v4h-4zM224 112h4v4h-4zM228 112h4v4h-4zM232 112h4v4h-4zM236 112h4v4h-4zM240 112h4v4h-4z"/><path fill="#9D7456" d="M244 112h4v4h-4z"/><path fill="#845353" d="M248 112h4v4h-4zM56 116h4v4h-4z"/><path fill="#C78A63" d="M60 116h4v4h-4z"/><path fill="#9D7456" d="M64 116h4v4h-4z"/><path fill="#845353" d="M68 116h4v4h-4z"/><path fill="#C78A63" d="M72 116h4v4h-4zM76 116h4v4h-4z"/><path fill="#DA9C74" d="M80 116h4v4h-4zM84 116h4v4h-4zM88 116h4v4h-4zM92 116h4v4h-4zM96 116h4v4h-4z"/><path fill="#9D7456" d="M100 116h4v4h-4z"/><path fill="#DA9C74" d="M104 116h4v4h-4zM108 116h4v4h-4zM112 116h4v4h-4z"/><path fill="#C78A63" d="M116 116h4v4h-4zM120 116h4v4h-4z"/><path fill="#9D7456" d="M124 116h4v4h-4zM128 116h4v4h-4zM132 116h4v4h-4z"/><path fill="#6B3F3F" d="M136 116h4v4h-4zM140 116h4v4h-4z"/><path fill="#9D7456" d="M144 116h4v4h-4zM148 116h4v4h-4zM152 116h4v4h-4z"/><path fill="#C78A63" d="M156 116h4v4h-4z"/><path fill="#9D7456" d="M160 116h4v4h-4z"/><path fill="#C78A63" d="M164 116h4v4h-4zM168 116h4v4h-4zM172 116h4v4h-4zM176 116h4v4h-4zM180 116h4v4h-4zM184 116h4v4h-4zM188 116h4v4h-4zM192 116h4v4h-4zM196 116h4v4h-4zM200 116h4v4h-4zM204 116h4v4h-4zM208 116h4v4h-4zM212 116h4v4h-4zM216 116h4v4h-4zM220 116h4v4h-4zM224 116h4v4h-4zM228 116h4v4h-4zM232 116h4v4h-4z"/><path fill="#9D7456" d="M236 116h4v4h-4zM240 116h4v4h-4zM244 116h4v4h-4z"/><path fill="#845353" d="M248 116h4v4h-4zM56 120h4v4h-4z"/><path fill="#C78A63" d="M60 120h4v4h-4z"/><path fill="#845353" d="M64 120h4v4h-4z"/><path fill="#C78A63" d="M68 120h4v4h-4z"/><path fill="#DA9C74" d="M72 120h4v4h-4zM76 120h4v4h-4zM80 120h4v4h-4zM84 120h4v4h-4zM88 120h4v4h-4zM92 120h4v4h-4zM96 120h4v4h-4z"/><path fill="#9D7456" d="M100 120h4v4h-4z"/><path fill="#C78A63" d="M104 120h4v4h-4z"/><path fill="#DA9C74" d="M108 120h4v4h-4zM112 120h4v4h-4zM116 120h4v4h-4z"/><path fill="#C78A63" d="M120 120h4v4h-4zM124 120h4v4h-4zM128 120h4v4h-4z"/><path fill="#9D7456" d="M132 120h4v4h-4z"/><path fill="#845353" d="M136 120h4v4h-4z"/><path fill="#6B3F3F" d="M140 120h4v4h-4zM144 120h4v4h-4z"/><path fill="#9D7456" d="M148 120h4v4h-4zM152 120h4v4h-4zM156 120h4v4h-4zM160 120h4v4h-4z"/><path fill="#C78A63" d="M164 120h4v4h-4zM168 120h4v4h-4zM172 120h4v4h-4zM176 120h4v4h-4zM180 120h4v4h-4zM184 120h4v4h-4zM188 120h4v4h-4z"/><path fill="#9D7456" d="M192 120h4v4h-4zM196 120h4v4h-4zM200 120h4v4h-4z"/><path fill="#C78A63" d="M204 120h4v4h-4zM208 120h4v4h-4zM212 120h4v4h-4z"/><path fill="#DA9C74" d="M216 120h4v4h-4zM220 120h4v4h-4zM224 120h4v4h-4zM228 120h4v4h-4zM232 120h4v4h-4z"/><path fill="#C78A63" d="M236 120h4v4h-4zM240 120h4v4h-4z"/><path fill="#9D7456" d="M244 120h4v4h-4zM248 120h4v4h-4z"/><path fill="#845353" d="M252 120h4v4h-4zM52 124h4v4h-4z"/><path fill="#C78A63" d="M56 124h4v4h-4zM60 124h4v4h-4z"/><path fill="#9D7456" d="M64 124h4v4h-4z"/><path fill="#DA9C74" d="M68 124h4v4h-4zM72 124h4v4h-4zM76 124h4v4h-4zM80 124h4v4h-4zM84 124h4v4h-4z"/><path fill="#C78A63" d="M88 124h4v4h-4zM92 124h4v4h-4zM96 124h4v4h-4zM100 124h4v4h-4zM104 124h4v4h-4z"/><path fill="#DA9C74" d="M108 124h4v4h-4zM112 124h4v4h-4zM116 124h4v4h-4zM120 124h4v4h-4z"/><path fill="#C78A63" d="M124 124h4v4h-4zM128 124h4v4h-4zM132 124h4v4h-4z"/><path fill="#9D7456" d="M136 124h4v4h-4z"/><path fill="#845353" d="M140 124h4v4h-4z"/><path fill="#6B3F3F" d="M144 124h4v4h-4zM148 124h4v4h-4z"/><path fill="#9D7456" d="M152 124h4v4h-4zM156 124h4v4h-4zM160 124h4v4h-4z"/><path fill="#C78A63" d="M164 124h4v4h-4zM168 124h4v4h-4zM172 124h4v4h-4zM176 124h4v4h-4z"/><path fill="#9D7456" d="M180 124h4v4h-4zM184 124h4v4h-4zM188 124h4v4h-4z"/><path fill="#C78A63" d="M192 124h4v4h-4z"/><path fill="#DA9C74" d="M196 124h4v4h-4z"/><path fill="#C78A63" d="M200 124h4v4h-4zM204 124h4v4h-4z"/><path fill="#DA9C74" d="M208 124h4v4h-4zM212 124h4v4h-4zM216 124h4v4h-4zM220 124h4v4h-4zM224 124h4v4h-4zM228 124h4v4h-4zM232 124h4v4h-4zM236 124h4v4h-4z"/><path fill="#C78A63" d="M240 124h4v4h-4zM244 124h4v4h-4z"/><path fill="#9D7456" d="M248 124h4v4h-4zM252 124h4v4h-4z"/><path fill="#845353" d="M256 124h4v4h-4zM48 128h4v4h-4z"/><path fill="#C78A63" d="M52 128h4v4h-4zM56 128h4v4h-4z"/><path fill="#9D7456" d="M60 128h4v4h-4zM64 128h4v4h-4z"/><path fill="#C78A63" d="M68 128h4v4h-4z"/><path fill="#DA9C74" d="M72 128h4v4h-4zM76 128h4v4h-4z"/><path fill="#C78A63" d="M80 128h4v4h-4zM84 128h4v4h-4zM88 128h4v4h-4zM92 128h4v4h-4zM96 128h4v4h-4zM100 128h4v4h-4zM104 128h4v4h-4zM108 128h4v4h-4zM112 128h4v4h-4z"/><path fill="#DA9C74" d="M116 128h4v4h-4zM120 128h4v4h-4zM124 128h4v4h-4z"/><path fill="#C78A63" d="M128 128h4v4h-4zM132 128h4v4h-4z"/><path fill="#9D7456" d="M136 128h4v4h-4zM140 128h4v4h-4z"/><path fill="#6B3F3F" d="M144 128h4v4h-4zM148 128h4v4h-4zM152 128h4v4h-4z"/><path fill="#9D7456" d="M156 128h4v4h-4zM160 128h4v4h-4z"/><path fill="#C78A63" d="M164 128h4v4h-4zM168 128h4v4h-4zM172 128h4v4h-4z"/><path fill="#9D7456" d="M176 128h4v4h-4z"/><path fill="#C78A63" d="M180 128h4v4h-4zM184 128h4v4h-4zM188 128h4v4h-4z"/><path fill="#DA9C74" d="M192 128h4v4h-4zM196 128h4v4h-4zM200 128h4v4h-4zM204 128h4v4h-4zM208 128h4v4h-4zM212 128h4v4h-4zM216 128h4v4h-4zM220 128h4v4h-4zM224 128h4v4h-4zM228 128h4v4h-4zM232 128h4v4h-4zM236 128h4v4h-4z"/><path fill="#C78A63" d="M240 128h4v4h-4zM244 128h4v4h-4zM248 128h4v4h-4z"/><path fill="#9D7456" d="M252 128h4v4h-4zM256 128h4v4h-4z"/><path fill="#845353" d="M260 128h4v4h-4zM48 132h4v4h-4z"/><path fill="#C78A63" d="M52 132h4v4h-4zM56 132h4v4h-4z"/><path fill="#9D7456" d="M60 132h4v4h-4zM64 132h4v4h-4z"/><path fill="#C78A63" d="M68 132h4v4h-4zM72 132h4v4h-4zM76 132h4v4h-4zM80 132h4v4h-4zM84 132h4v4h-4zM88 132h4v4h-4zM92 132h4v4h-4zM96 132h4v4h-4zM100 132h4v4h-4zM104 132h4v4h-4zM108 132h4v4h-4zM112 132h4v4h-4z"/><path fill="#9D7456" d="M116 132h4v4h-4z"/><path fill="#DA9C74" d="M120 132h4v4h-4zM124 132h4v4h-4z"/><path fill="#C78A63" d="M128 132h4v4h-4zM132 132h4v4h-4zM136 132h4v4h-4z"/><path fill="#9D7456" d="M140 132h4v4h-4z"/><path fill="#845353" d="M144 132h4v4h-4z"/><path fill="#6B3F3F" d="M148 132h4v4h-4zM152 132h4v4h-4z"/><path fill="#9D7456" d="M156 132h4v4h-4zM160 132h4v4h-4z"/><path fill="#C78A63" d="M164 132h4v4h-4zM168 132h4v4h-4z"/><path fill="#9D7456" d="M172 132h4v4h-4z"/><path fill="#C78A63" d="M176 132h4v4h-4zM180 132h4v4h-4zM184 132h4v4h-4zM188 132h4v4h-4z"/><path fill="#DA9C74" d="M192 132h4v4h-4zM196 132h4v4h-4zM200 132h4v4h-4zM204 132h4v4h-4zM208 132h4v4h-4zM212 132h4v4h-4zM216 132h4v4h-4zM220 132h4v4h-4zM224 132h4v4h-4zM228 132h4v4h-4zM232 132h4v4h-4zM236 132h4v4h-4z"/><path fill="#C78A63" d="M240 132h4v4h-4zM244 132h4v4h-4zM248 132h4v4h-4zM252 132h4v4h-4zM256 132h4v4h-4z"/><path fill="#845353" d="M260 132h4v4h-4zM44 136h4v4h-4z"/><path fill="#C78A63" d="M48 136h4v4h-4zM52 136h4v4h-4z"/><path fill="#9D7456" d="M56 136h4v4h-4z"/><path fill="#845353" d="M60 136h4v4h-4z"/><path fill="#9D7456" d="M64 136h4v4h-4z"/><path fill="#C78A63" d="M68 136h4v4h-4zM72 136h4v4h-4zM76 136h4v4h-4zM80 136h4v4h-4zM84 136h4v4h-4zM88 136h4v4h-4z"/><path fill="#9D7456" d="M92 136h4v4h-4zM96 136h4v4h-4zM100 136h4v4h-4z"/><path fill="#C78A63" d="M104 136h4v4h-4zM108 136h4v4h-4zM112 136h4v4h-4z"/><path fill="#9D7456" d="M116 136h4v4h-4z"/><path fill="#DA9C74" d="M120 136h4v4h-4zM124 136h4v4h-4zM128 136h4v4h-4z"/><path fill="#C78A63" d="M132 136h4v4h-4zM136 136h4v4h-4z"/><path fill="#9D7456" d="M140 136h4v4h-4zM144 136h4v4h-4z"/><path fill="#6B3F3F" d="M148 136h4v4h-4zM152 136h4v4h-4zM156 136h4v4h-4z"/><path fill="#9D7456" d="M160 136h4v4h-4zM164 136h4v4h-4zM168 136h4v4h-4z"/><path fill="#C78A63" d="M172 136h4v4h-4zM176 136h4v4h-4zM180 136h4v4h-4zM184 136h4v4h-4zM188 136h4v4h-4z"/><path fill="#DA9C74" d="M192 136h4v4h-4zM196 136h4v4h-4z"/><path fill="#C78A63" d="M200 136h4v4h-4zM204 136h4v4h-4zM208 136h4v4h-4zM212 136h4v4h-4zM216 136h4v4h-4zM220 136h4v4h-4zM224 136h4v4h-4zM228 136h4v4h-4zM232 136h4v4h-4zM236 136h4v4h-4z"/><path fill="#9D7456" d="M240 136h4v4h-4z"/><path fill="#C78A63" d="M244 136h4v4h-4zM248 136h4v4h-4zM252 136h4v4h-4zM256 136h4v4h-4z"/><path fill="#9D7456" d="M260 136h4v4h-4z"/><path fill="#845353" d="M264 136h4v4h-4zM44 140h4v4h-4z"/><path fill="#C78A63" d="M48 140h4v4h-4z"/><path fill="#9D7456" d="M52 140h4v4h-4z"/><path fill="#845353" d="M56 140h4v4h-4z"/><path fill="#C78A63" d="M60 140h4v4h-4zM64 140h4v4h-4z"/><path fill="#9D7456" d="M68 140h4v4h-4z"/><path fill="#C78A63" d="M72 140h4v4h-4zM76 140h4v4h-4z"/><path fill="#9D7456" d="M80 140h4v4h-4zM84 140h4v4h-4zM88 140h4v4h-4zM92 140h4v4h-4zM96 140h4v4h-4zM100 140h4v4h-4zM104 140h4v4h-4z"/><path fill="#C78A63" d="M108 140h4v4h-4z"/><path fill="#9D7456" d="M112 140h4v4h-4z"/><path fill="#C78A63" d="M116 140h4v4h-4zM120 140h4v4h-4z"/><path fill="#DA9C74" d="M124 140h4v4h-4zM128 140h4v4h-4zM132 140h4v4h-4z"/><path fill="#C78A63" d="M136 140h4v4h-4zM140 140h4v4h-4z"/><path fill="#9D7456" d="M144 140h4v4h-4z"/><path fill="#845353" d="M148 140h4v4h-4z"/><path fill="#6B3F3F" d="M152 140h4v4h-4zM156 140h4v4h-4z"/><path fill="#9D7456" d="M160 140h4v4h-4zM164 140h4v4h-4zM168 140h4v4h-4z"/><path fill="#C78A63" d="M172 140h4v4h-4zM176 140h4v4h-4zM180 140h4v4h-4zM184 140h4v4h-4zM188 140h4v4h-4zM192 140h4v4h-4z"/><path fill="#9D7456" d="M196 140h4v4h-4zM200 140h4v4h-4zM204 140h4v4h-4zM208 140h4v4h-4zM212 140h4v4h-4zM216 140h4v4h-4zM220 140h4v4h-4zM224 140h4v4h-4zM228 140h4v4h-4z"/><path fill="#C78A63" d="M232 140h4v4h-4zM236 140h4v4h-4z"/><path fill="#9D7456" d="M240 140h4v4h-4zM244 140h4v4h-4z"/><path fill="#C78A63" d="M248 140h4v4h-4zM252 140h4v4h-4zM256 140h4v4h-4z"/><path fill="#9D7456" d="M260 140h4v4h-4z"/><path fill="#845353" d="M264 140h4v4h-4zM40 144h4v4h-4z"/><path fill="#C78A63" d="M44 144h4v4h-4zM48 144h4v4h-4z"/><path fill="#9D7456" d="M52 144h4v4h-4z"/><path fill="#845353" d="M56 144h4v4h-4z"/><path fill="#C78A63" d="M60 144h4v4h-4zM64 144h4v4h-4zM68 144h4v4h-4z"/><path fill="#845353" d="M72 144h4v4h-4z"/><path fill="#9D7456" d="M76 144h4v4h-4zM80 144h4v4h-4zM84 144h4v4h-4zM88 144h4v4h-4zM92 144h4v4h-4zM96 144h4v4h-4zM100 144h4v4h-4zM104 144h4v4h-4zM108 144h4v4h-4zM112 144h4v4h-4z"/><path fill="#C78A63" d="M116 144h4v4h-4zM120 144h4v4h-4z"/><path fill="#DA9C74" d="M124 144h4v4h-4zM128 144h4v4h-4zM132 144h4v4h-4zM136 144h4v4h-4z"/><path fill="#C78A63" d="M140 144h4v4h-4z"/><path fill="#9D7456" d="M144 144h4v4h-4zM148 144h4v4h-4z"/><path fill="#6B3F3F" d="M152 144h4v4h-4zM156 144h4v4h-4zM160 144h4v4h-4z"/><path fill="#9D7456" d="M164 144h4v4h-4z"/><path fill="#C78A63" d="M168 144h4v4h-4zM172 144h4v4h-4zM176 144h4v4h-4zM180 144h4v4h-4z"/><path fill="#9D7456" d="M184 144h4v4h-4zM188 144h4v4h-4zM192 144h4v4h-4zM196 144h4v4h-4zM200 144h4v4h-4zM204 144h4v4h-4zM208 144h4v4h-4zM212 144h4v4h-4zM216 144h4v4h-4zM220 144h4v4h-4zM224 144h4v4h-4zM228 144h4v4h-4zM232 144h4v4h-4zM236 144h4v4h-4zM240 144h4v4h-4zM244 144h4v4h-4zM248 144h4v4h-4zM252 144h4v4h-4zM256 144h4v4h-4zM260 144h4v4h-4z"/><path fill="#845353" d="M264 144h4v4h-4zM40 148h4v4h-4z"/><path fill="#C78A63" d="M44 148h4v4h-4z"/><path fill="#9D7456" d="M48 148h4v4h-4z"/><path fill="#845353" d="M52 148h4v4h-4z"/><path fill="#C78A63" d="M56 148h4v4h-4zM60 148h4v4h-4zM64 148h4v4h-4z"/><path fill="#9D7456" d="M68 148h4v4h-4zM72 148h4v4h-4z"/><path fill="#845353" d="M76 148h4v4h-4z"/><path fill="#9D7456" d="M80 148h4v4h-4zM84 148h4v4h-4zM88 148h4v4h-4zM92 148h4v4h-4zM96 148h4v4h-4zM100 148h4v4h-4zM104 148h4v4h-4zM108 148h4v4h-4zM112 148h4v4h-4zM116 148h4v4h-4z"/><path fill="#C78A63" d="M120 148h4v4h-4zM124 148h4v4h-4z"/><path fill="#DA9C74" d="M128 148h4v4h-4zM132 148h4v4h-4zM136 148h4v4h-4z"/><path fill="#C78A63" d="M140 148h4v4h-4zM144 148h4v4h-4z"/><path fill="#9D7456" d="M148 148h4v4h-4z"/><path fill="#845353" d="M152 148h4v4h-4z"/><path fill="#6B3F3F" d="M156 148h4v4h-4zM160 148h4v4h-4z"/><path fill="#9D7456" d="M164 148h4v4h-4zM168 148h4v4h-4z"/><path fill="#C78A63" d="M172 148h4v4h-4zM176 148h4v4h-4z"/><path fill="#9D7456" d="M180 148h4v4h-4zM184 148h4v4h-4zM188 148h4v4h-4zM192 148h4v4h-4zM196 148h4v4h-4zM200 148h4v4h-4zM204 148h4v4h-4zM208 148h4v4h-4zM212 148h4v4h-4zM216 148h4v4h-4zM220 148h4v4h-4zM224 148h4v4h-4zM228 148h4v4h-4zM232 148h4v4h-4zM236 148h4v4h-4zM240 148h4v4h-4zM244 148h4v4h-4zM248 148h4v4h-4zM252 148h4v4h-4zM256 148h4v4h-4zM260 148h4v4h-4z"/><path fill="#845353" d="M264 148h4v4h-4zM40 152h4v4h-4z"/><path fill="#C78A63" d="M44 152h4v4h-4z"/><path fill="#9D7456" d="M48 152h4v4h-4z"/><path fill="#845353" d="M52 152h4v4h-4z"/><path fill="#C78A63" d="M56 152h4v4h-4zM60 152h4v4h-4zM64 152h4v4h-4z"/><path fill="#9D7456" d="M68 152h4v4h-4zM72 152h4v4h-4z"/><path fill="#845353" d="M76 152h4v4h-4zM80 152h4v4h-4zM84 152h4v4h-4zM88 152h4v4h-4z"/><path fill="#6B3F3F" d="M92 152h4v4h-4zM96 152h4v4h-4z"/><path fill="#9D7456" d="M100 152h4v4h-4zM104 152h4v4h-4zM108 152h4v4h-4zM112 152h4v4h-4zM116 152h4v4h-4z"/><path fill="#C78A63" d="M120 152h4v4h-4zM124 152h4v4h-4z"/><path fill="#DA9C74" d="M128 152h4v4h-4zM132 152h4v4h-4zM136 152h4v4h-4z"/><path fill="#C78A63" d="M140 152h4v4h-4zM144 152h4v4h-4z"/><path fill="#9D7456" d="M148 152h4v4h-4z"/><path fill="#845353" d="M152 152h4v4h-4z"/><path fill="#6B3F3F" d="M156 152h4v4h-4zM160 152h4v4h-4z"/><path fill="#9D7456" d="M164 152h4v4h-4zM168 152h4v4h-4z"/><path fill="#C78A63" d="M172 152h4v4h-4zM176 152h4v4h-4z"/><path fill="#9D7456" d="M180 152h4v4h-4zM184 152h4v4h-4zM188 152h4v4h-4zM192 152h4v4h-4zM196 152h4v4h-4zM200 152h4v4h-4zM204 152h4v4h-4zM208 152h4v4h-4zM212 152h4v4h-4z"/><path fill="#C78A63" d="M216 152h4v4h-4zM220 152h4v4h-4z"/><path fill="#9D7456" d="M224 152h4v4h-4zM228 152h4v4h-4zM232 152h4v4h-4zM236 152h4v4h-4zM240 152h4v4h-4zM244 152h4v4h-4zM248 152h4v4h-4zM252 152h4v4h-4z"/><path fill="#845353" d="M256 152h4v4h-4z"/><path fill="#9D7456" d="M260 152h4v4h-4z"/><path fill="#845353" d="M264 152h4v4h-4zM40 156h4v4h-4z"/><path fill="#9D7456" d="M44 156h4v4h-4zM48 156h4v4h-4z"/><path fill="#845353" d="M52 156h4v4h-4z"/><path fill="#C78A63" d="M56 156h4v4h-4zM60 156h4v4h-4z"/><path fill="#9D7456" d="M64 156h4v4h-4zM68 156h4v4h-4z"/><path fill="#845353" d="M72 156h4v4h-4zM76 156h4v4h-4z"/><path fill="#9D7456" d="M80 156h4v4h-4zM84 156h4v4h-4zM88 156h4v4h-4zM92 156h4v4h-4zM96 156h4v4h-4z"/><path fill="#6B3F3F" d="M100 156h4v4h-4z"/><path fill="#9D7456" d="M104 156h4v4h-4zM108 156h4v4h-4zM112 156h4v4h-4zM116 156h4v4h-4z"/><path fill="#C78A63" d="M120 156h4v4h-4zM124 156h4v4h-4z"/><path fill="#DA9C74" d="M128 156h4v4h-4zM132 156h4v4h-4z"/><path fill="#9D7456" d="M136 156h4v4h-4zM140 156h4v4h-4zM144 156h4v4h-4z"/><path fill="#845353" d="M148 156h4v4h-4zM152 156h4v4h-4zM156 156h4v4h-4z"/><path fill="#6B3F3F" d="M160 156h4v4h-4z"/><path fill="#9D7456" d="M164 156h4v4h-4zM168 156h4v4h-4z"/><path fill="#C78A63" d="M172 156h4v4h-4z"/><path fill="#9D7456" d="M176 156h4v4h-4zM180 156h4v4h-4zM184 156h4v4h-4z"/><path fill="#845353" d="M188 156h4v4h-4zM192 156h4v4h-4z"/><path fill="#C78A63" d="M196 156h4v4h-4zM200 156h4v4h-4zM204 156h4v4h-4zM208 156h4v4h-4zM212 156h4v4h-4zM216 156h4v4h-4zM220 156h4v4h-4zM224 156h4v4h-4zM228 156h4v4h-4zM232 156h4v4h-4zM236 156h4v4h-4zM240 156h4v4h-4zM244 156h4v4h-4zM248 156h4v4h-4z"/><path fill="#9D7456" d="M252 156h4v4h-4zM256 156h4v4h-4z"/><path fill="#845353" d="M260 156h4v4h-4zM264 156h4v4h-4zM40 160h4v4h-4z"/><path fill="#C78A63" d="M44 160h4v4h-4z"/><path fill="#845353" d="M48 160h4v4h-4z"/><path fill="#9D7456" d="M52 160h4v4h-4z"/><path fill="#C78A63" d="M56 160h4v4h-4zM60 160h4v4h-4z"/><path fill="#9D7456" d="M64 160h4v4h-4z"/><path fill="#845353" d="M68 160h4v4h-4z"/><path fill="#C78A63" d="M72 160h4v4h-4z"/><path fill="#9D7456" d="M76 160h4v4h-4z"/><path fill="#C78A63" d="M80 160h4v4h-4zM84 160h4v4h-4zM88 160h4v4h-4zM92 160h4v4h-4z"/><path fill="#9D7456" d="M96 160h4v4h-4zM100 160h4v4h-4z"/><path fill="#845353" d="M104 160h4v4h-4z"/><path fill="#6B3F3F" d="M108 160h4v4h-4z"/><path fill="#9D7456" d="M112 160h4v4h-4zM116 160h4v4h-4zM120 160h4v4h-4z"/><path fill="#C78A63" d="M124 160h4v4h-4z"/><path fill="#DA9C74" d="M128 160h4v4h-4z"/><path fill="#9D7456" d="M132 160h4v4h-4zM136 160h4v4h-4zM140 160h4v4h-4zM144 160h4v4h-4z"/><path fill="#845353" d="M148 160h4v4h-4zM152 160h4v4h-4zM156 160h4v4h-4zM160 160h4v4h-4z"/><path fill="#6B3F3F" d="M164 160h4v4h-4z"/><path fill="#9D7456" d="M168 160h4v4h-4zM172 160h4v4h-4zM176 160h4v4h-4z"/><path fill="#845353" d="M180 160h4v4h-4zM184 160h4v4h-4z"/><path fill="#C78A63" d="M188 160h4v4h-4zM192 160h4v4h-4zM196 160h4v4h-4z"/><path fill="#DA9C74" d="M200 160h4v4h-4zM204 160h4v4h-4zM208 160h4v4h-4zM212 160h4v4h-4zM216 160h4v4h-4zM220 160h4v4h-4zM224 160h4v4h-4zM228 160h4v4h-4zM232 160h4v4h-4zM236 160h4v4h-4z"/><path fill="#C78A63" d="M240 160h4v4h-4zM244 160h4v4h-4zM248 160h4v4h-4zM252 160h4v4h-4z"/><path fill="#9D7456" d="M256 160h4v4h-4z"/><path fill="#845353" d="M260 160h4v4h-4zM264 160h4v4h-4zM36 164h4v4h-4z"/><path fill="#C78A63" d="M40 164h4v4h-4z"/><path fill="#9D7456" d="M44 164h4v4h-4z"/><path fill="#845353" d="M48 164h4v4h-4z"/><path fill="#C78A63" d="M52 164h4v4h-4z"/><path fill="#9D7456" d="M56 164h4v4h-4z"/><path fill="#C78A63" d="M60 164h4v4h-4z"/><path fill="#845353" d="M64 164h4v4h-4z"/><path fill="#C78A63" d="M68 164h4v4h-4zM72 164h4v4h-4z"/><path fill="#9D7456" d="M76 164h4v4h-4z"/><path fill="#DA9C74" d="M80 164h4v4h-4zM84 164h4v4h-4zM88 164h4v4h-4z"/><path fill="#C78A63" d="M92 164h4v4h-4zM96 164h4v4h-4z"/><path fill="#9D7456" d="M100 164h4v4h-4zM104 164h4v4h-4z"/><path fill="#845353" d="M108 164h4v4h-4z"/><path fill="#6B3F3F" d="M112 164h4v4h-4z"/><path fill="#9D7456" d="M116 164h4v4h-4zM120 164h4v4h-4z"/><path fill="#C78A63" d="M124 164h4v4h-4z"/><path fill="#9D7456" d="M128 164h4v4h-4zM132 164h4v4h-4z"/><path fill="#C78A63" d="M136 164h4v4h-4zM140 164h4v4h-4zM144 164h4v4h-4z"/><path fill="#9D7456" d="M148 164h4v4h-4zM152 164h4v4h-4z"/><path fill="#845353" d="M156 164h4v4h-4zM160 164h4v4h-4z"/><path fill="#6B3F3F" d="M164 164h4v4h-4z"/><path fill="#9D7456" d="M168 164h4v4h-4zM172 164h4v4h-4z"/><path fill="#845353" d="M176 164h4v4h-4z"/><path fill="#C78A63" d="M180 164h4v4h-4zM184 164h4v4h-4zM188 164h4v4h-4zM192 164h4v4h-4zM196 164h4v4h-4z"/><path fill="#DA9C74" d="M200 164h4v4h-4zM204 164h4v4h-4zM208 164h4v4h-4zM212 164h4v4h-4zM216 164h4v4h-4zM220 164h4v4h-4zM224 164h4v4h-4zM228 164h4v4h-4zM232 164h4v4h-4zM236 164h4v4h-4zM240 164h4v4h-4zM244 164h4v4h-4z"/><path fill="#C78A63" d="M248 164h4v4h-4zM252 164h4v4h-4z"/><path fill="#9D7456" d="M256 164h4v4h-4z"/><path fill="#845353" d="M260 164h4v4h-4zM264 164h4v4h-4zM36 168h4v4h-4z"/><path fill="#C78A63" d="M40 168h4v4h-4z"/><path fill="#9D7456" d="M44 168h4v4h-4z"/><path fill="#845353" d="M48 168h4v4h-4z"/><path fill="#C78A63" d="M52 168h4v4h-4zM56 168h4v4h-4z"/><path fill="#9D7456" d="M60 168h4v4h-4z"/><path fill="#C78A63" d="M64 168h4v4h-4zM68 168h4v4h-4zM72 168h4v4h-4z"/><path fill="#DA9C74" d="M76 168h4v4h-4z"/><path fill="#9D7456" d="M80 168h4v4h-4z"/><path fill="#DA9C74" d="M84 168h4v4h-4zM88 168h4v4h-4zM92 168h4v4h-4z"/><path fill="#C78A63" d="M96 168h4v4h-4zM100 168h4v4h-4z"/><path fill="#845353" d="M104 168h4v4h-4zM108 168h4v4h-4z"/><path fill="#6B3F3F" d="M112 168h4v4h-4zM116 168h4v4h-4z"/><path fill="#9D7456" d="M120 168h4v4h-4zM124 168h4v4h-4zM128 168h4v4h-4z"/><path fill="#C78A63" d="M132 168h4v4h-4z"/><path fill="#DA9C74" d="M136 168h4v4h-4zM140 168h4v4h-4z"/><path fill="#C78A63" d="M144 168h4v4h-4z"/><path fill="#9D7456" d="M148 168h4v4h-4zM152 168h4v4h-4z"/><path fill="#845353" d="M156 168h4v4h-4zM160 168h4v4h-4z"/><path fill="#6B3F3F" d="M164 168h4v4h-4z"/><path fill="#9D7456" d="M168 168h4v4h-4z"/><path fill="#845353" d="M172 168h4v4h-4z"/><path fill="#C78A63" d="M176 168h4v4h-4zM180 168h4v4h-4zM184 168h4v4h-4zM188 168h4v4h-4zM192 168h4v4h-4zM196 168h4v4h-4z"/><path fill="#DA9C74" d="M200 168h4v4h-4zM204 168h4v4h-4zM208 168h4v4h-4zM212 168h4v4h-4zM216 168h4v4h-4zM220 168h4v4h-4zM224 168h4v4h-4zM228 168h4v4h-4zM232 168h4v4h-4zM236 168h4v4h-4zM240 168h4v4h-4zM244 168h4v4h-4z"/><path fill="#C78A63" d="M248 168h4v4h-4zM252 168h4v4h-4zM256 168h4v4h-4z"/><path fill="#9D7456" d="M260 168h4v4h-4z"/><path fill="#845353" d="M264 168h4v4h-4zM36 172h4v4h-4z"/><path fill="#C78A63" d="M40 172h4v4h-4z"/><path fill="#9D7456" d="M44 172h4v4h-4z"/><path fill="#845353" d="M48 172h4v4h-4z"/><path fill="#C78A63" d="M52 172h4v4h-4zM56 172h4v4h-4zM60 172h4v4h-4zM64 172h4v4h-4zM68 172h4v4h-4zM72 172h4v4h-4z"/><path fill="#9D7456" d="M76 172h4v4h-4zM80 172h4v4h-4zM84 172h4v4h-4zM88 172h4v4h-4z"/><path fill="#DA9C74" d="M92 172h4v4h-4zM96 172h4v4h-4z"/><path fill="#9D7456" d="M100 172h4v4h-4zM104 172h4v4h-4zM108 172h4v4h-4z"/><path fill="#845353" d="M112 172h4v4h-4z"/><path fill="#6B3F3F" d="M116 172h4v4h-4z"/><path fill="#9D7456" d="M120 172h4v4h-4z"/><path fill="#6B3F3F" d="M124 172h4v4h-4z"/><path fill="#C78A63" d="M128 172h4v4h-4z"/><path fill="#DA9C74" d="M132 172h4v4h-4zM136 172h4v4h-4zM140 172h4v4h-4z"/><path fill="#C78A63" d="M144 172h4v4h-4z"/><path fill="#9D7456" d="M148 172h4v4h-4zM152 172h4v4h-4zM156 172h4v4h-4z"/><path fill="#845353" d="M160 172h4v4h-4zM164 172h4v4h-4zM168 172h4v4h-4zM172 172h4v4h-4z"/><path fill="#C78A63" d="M176 172h4v4h-4zM180 172h4v4h-4zM184 172h4v4h-4zM188 172h4v4h-4zM192 172h4v4h-4zM196 172h4v4h-4z"/><path fill="#DA9C74" d="M200 172h4v4h-4zM204 172h4v4h-4zM208 172h4v4h-4zM212 172h4v4h-4zM216 172h4v4h-4zM220 172h4v4h-4zM224 172h4v4h-4zM228 172h4v4h-4zM232 172h4v4h-4zM236 172h4v4h-4zM240 172h4v4h-4zM244 172h4v4h-4z"/><path fill="#C78A63" d="M248 172h4v4h-4zM252 172h4v4h-4z"/><path fill="#9D7456" d="M256 172h4v4h-4zM260 172h4v4h-4z"/><path fill="#845353" d="M264 172h4v4h-4zM268 172h4v4h-4zM36 176h4v4h-4z"/><path fill="#C78A63" d="M40 176h4v4h-4z"/><path fill="#845353" d="M44 176h4v4h-4z"/><path fill="#C78A63" d="M48 176h4v4h-4zM52 176h4v4h-4zM56 176h4v4h-4z"/><path fill="#9D7456" d="M60 176h4v4h-4z"/><path fill="#C78A63" d="M64 176h4v4h-4zM68 176h4v4h-4z"/><path fill="#9D7456" d="M72 176h4v4h-4zM76 176h4v4h-4zM80 176h4v4h-4zM84 176h4v4h-4zM88 176h4v4h-4zM92 176h4v4h-4z"/><path fill="#DA9C74" d="M96 176h4v4h-4zM100 176h4v4h-4z"/><path fill="#C78A63" d="M104 176h4v4h-4z"/><path fill="#9D7456" d="M108 176h4v4h-4z"/><path fill="#845353" d="M112 176h4v4h-4z"/><path fill="#6B3F3F" d="M116 176h4v4h-4zM120 176h4v4h-4z"/><path fill="#9D7456" d="M124 176h4v4h-4z"/><path fill="#C78A63" d="M128 176h4v4h-4z"/><path fill="#DA9C74" d="M132 176h4v4h-4zM136 176h4v4h-4zM140 176h4v4h-4z"/><path fill="#C78A63" d="M144 176h4v4h-4z"/><path fill="#9D7456" d="M148 176h4v4h-4zM152 176h4v4h-4zM156 176h4v4h-4z"/><path fill="#845353" d="M160 176h4v4h-4zM164 176h4v4h-4zM168 176h4v4h-4zM172 176h4v4h-4z"/><path fill="#C78A63" d="M176 176h4v4h-4zM180 176h4v4h-4zM184 176h4v4h-4zM188 176h4v4h-4zM192 176h4v4h-4zM196 176h4v4h-4z"/><path fill="#DA9C74" d="M200 176h4v4h-4zM204 176h4v4h-4zM208 176h4v4h-4zM212 176h4v4h-4zM216 176h4v4h-4zM220 176h4v4h-4zM224 176h4v4h-4zM228 176h4v4h-4zM232 176h4v4h-4zM236 176h4v4h-4zM240 176h4v4h-4zM244 176h4v4h-4z"/><path fill="#C78A63" d="M248 176h4v4h-4zM252 176h4v4h-4z"/><path fill="#9D7456" d="M256 176h4v4h-4zM260 176h4v4h-4z"/><path fill="#845353" d="M264 176h4v4h-4zM268 176h4v4h-4zM36 180h4v4h-4z"/><path fill="#C78A63" d="M40 180h4v4h-4z"/><path fill="#845353" d="M44 180h4v4h-4z"/><path fill="#C78A63" d="M48 180h4v4h-4zM52 180h4v4h-4zM56 180h4v4h-4z"/><path fill="#9D7456" d="M60 180h4v4h-4z"/><path fill="#C78A63" d="M64 180h4v4h-4z"/><path fill="#9D7456" d="M68 180h4v4h-4zM72 180h4v4h-4zM76 180h4v4h-4z"/><path fill="#6B3F3F" d="M80 180h4v4h-4zM84 180h4v4h-4z"/><path fill="#9D7456" d="M88 180h4v4h-4zM92 180h4v4h-4zM96 180h4v4h-4z"/><path fill="#DA9C74" d="M100 180h4v4h-4zM104 180h4v4h-4z"/><path fill="#9D7456" d="M108 180h4v4h-4zM112 180h4v4h-4z"/><path fill="#845353" d="M116 180h4v4h-4z"/><path fill="#6B3F3F" d="M120 180h4v4h-4z"/><path fill="#9D7456" d="M124 180h4v4h-4z"/><path fill="#C78A63" d="M128 180h4v4h-4z"/><path fill="#DA9C74" d="M132 180h4v4h-4zM136 180h4v4h-4zM140 180h4v4h-4z"/><path fill="#C78A63" d="M144 180h4v4h-4z"/><path fill="#9D7456" d="M148 180h4v4h-4zM152 180h4v4h-4zM156 180h4v4h-4z"/><path fill="#845353" d="M160 180h4v4h-4zM164 180h4v4h-4zM168 180h4v4h-4zM172 180h4v4h-4z"/><path fill="#C78A63" d="M176 180h4v4h-4zM180 180h4v4h-4zM184 180h4v4h-4zM188 180h4v4h-4zM192 180h4v4h-4zM196 180h4v4h-4zM200 180h4v4h-4zM204 180h4v4h-4z"/><path fill="#DA9C74" d="M208 180h4v4h-4zM212 180h4v4h-4z"/><path fill="#C78A63" d="M216 180h4v4h-4z"/><path fill="#DA9C74" d="M220 180h4v4h-4zM224 180h4v4h-4zM228 180h4v4h-4zM232 180h4v4h-4zM236 180h4v4h-4zM240 180h4v4h-4zM244 180h4v4h-4zM248 180h4v4h-4z"/><path fill="#C78A63" d="M252 180h4v4h-4zM256 180h4v4h-4z"/><path fill="#9D7456" d="M260 180h4v4h-4z"/><path fill="#845353" d="M264 180h4v4h-4zM268 180h4v4h-4zM36 184h4v4h-4z"/><path fill="#C78A63" d="M40 184h4v4h-4z"/><path fill="#845353" d="M44 184h4v4h-4z"/><path fill="#C78A63" d="M48 184h4v4h-4zM52 184h4v4h-4zM56 184h4v4h-4z"/><path fill="#9D7456" d="M60 184h4v4h-4z"/><path fill="#C78A63" d="M64 184h4v4h-4z"/><path fill="#9D7456" d="M68 184h4v4h-4zM72 184h4v4h-4z"/><path fill="#845353" d="M76 184h4v4h-4zM80 184h4v4h-4z"/><path fill="#6B3F3F" d="M84 184h4v4h-4zM88 184h4v4h-4z"/><path fill="#9D7456" d="M92 184h4v4h-4zM96 184h4v4h-4z"/><path fill="#DA9C74" d="M100 184h4v4h-4z"/><path fill="#C78A63" d="M104 184h4v4h-4z"/><path fill="#9D7456" d="M108 184h4v4h-4zM112 184h4v4h-4z"/><path fill="#845353" d="M116 184h4v4h-4z"/><path fill="#6B3F3F" d="M120 184h4v4h-4z"/><path fill="#9D7456" d="M124 184h4v4h-4z"/><path fill="#C78A63" d="M128 184h4v4h-4z"/><path fill="#DA9C74" d="M132 184h4v4h-4zM136 184h4v4h-4zM140 184h4v4h-4z"/><path fill="#C78A63" d="M144 184h4v4h-4z"/><path fill="#9D7456" d="M148 184h4v4h-4zM152 184h4v4h-4zM156 184h4v4h-4z"/><path fill="#845353" d="M160 184h4v4h-4zM164 184h4v4h-4zM168 184h4v4h-4z"/><path fill="#9D7456" d="M172 184h4v4h-4zM176 184h4v4h-4z"/><path fill="#C78A63" d="M180 184h4v4h-4zM184 184h4v4h-4zM188 184h4v4h-4z"/><path fill="#9D7456" d="M192 184h4v4h-4zM196 184h4v4h-4zM200 184h4v4h-4zM204 184h4v4h-4zM208 184h4v4h-4zM212 184h4v4h-4zM216 184h4v4h-4zM220 184h4v4h-4zM224 184h4v4h-4zM228 184h4v4h-4z"/><path fill="#DA9C74" d="M232 184h4v4h-4zM236 184h4v4h-4zM240 184h4v4h-4z"/><path fill="#9D7456" d="M244 184h4v4h-4z"/><path fill="#DA9C74" d="M248 184h4v4h-4z"/><path fill="#C78A63" d="M252 184h4v4h-4zM256 184h4v4h-4zM260 184h4v4h-4z"/><path fill="#845353" d="M264 184h4v4h-4zM268 184h4v4h-4zM36 188h4v4h-4z"/><path fill="#C78A63" d="M40 188h4v4h-4z"/><path fill="#845353" d="M44 188h4v4h-4z"/><path fill="#C78A63" d="M48 188h4v4h-4zM52 188h4v4h-4zM56 188h4v4h-4z"/><path fill="#9D7456" d="M60 188h4v4h-4z"/><path fill="#C78A63" d="M64 188h4v4h-4z"/><path fill="#9D7456" d="M68 188h4v4h-4z"/><path fill="#6B3F3F" d="M72 188h4v4h-4z"/><path fill="#9D7456" d="M76 188h4v4h-4zM80 188h4v4h-4z"/><path fill="#845353" d="M84 188h4v4h-4z"/><path fill="#6B3F3F" d="M88 188h4v4h-4zM92 188h4v4h-4z"/><path fill="#9D7456" d="M96 188h4v4h-4z"/><path fill="#C78A63" d="M100 188h4v4h-4zM104 188h4v4h-4z"/><path fill="#9D7456" d="M108 188h4v4h-4zM112 188h4v4h-4z"/><path fill="#845353" d="M116 188h4v4h-4z"/><path fill="#6B3F3F" d="M120 188h4v4h-4z"/><path fill="#9D7456" d="M124 188h4v4h-4z"/><path fill="#C78A63" d="M128 188h4v4h-4z"/><path fill="#DA9C74" d="M132 188h4v4h-4zM136 188h4v4h-4zM140 188h4v4h-4z"/><path fill="#9D7456" d="M144 188h4v4h-4zM148 188h4v4h-4zM152 188h4v4h-4zM156 188h4v4h-4zM160 188h4v4h-4z"/><path fill="#845353" d="M164 188h4v4h-4z"/><path fill="#9D7456" d="M168 188h4v4h-4zM172 188h4v4h-4zM176 188h4v4h-4zM180 188h4v4h-4zM184 188h4v4h-4zM188 188h4v4h-4zM192 188h4v4h-4zM196 188h4v4h-4zM200 188h4v4h-4zM204 188h4v4h-4zM208 188h4v4h-4zM212 188h4v4h-4zM216 188h4v4h-4zM220 188h4v4h-4zM224 188h4v4h-4zM228 188h4v4h-4zM232 188h4v4h-4zM236 188h4v4h-4zM240 188h4v4h-4z"/><path fill="#DA9C74" d="M244 188h4v4h-4zM248 188h4v4h-4z"/><path fill="#C78A63" d="M252 188h4v4h-4zM256 188h4v4h-4zM260 188h4v4h-4z"/><path fill="#9D7456" d="M264 188h4v4h-4z"/><path fill="#845353" d="M268 188h4v4h-4zM36 192h4v4h-4z"/><path fill="#C78A63" d="M40 192h4v4h-4z"/><path fill="#845353" d="M44 192h4v4h-4z"/><path fill="#9D7456" d="M48 192h4v4h-4zM52 192h4v4h-4zM56 192h4v4h-4z"/><path fill="#845353" d="M60 192h4v4h-4z"/><path fill="#9D7456" d="M64 192h4v4h-4z"/><path fill="#C78A63" d="M68 192h4v4h-4z"/><path fill="#9D7456" d="M72 192h4v4h-4zM76 192h4v4h-4zM80 192h4v4h-4zM84 192h4v4h-4z"/><path fill="#845353" d="M88 192h4v4h-4z"/><path fill="#6B3F3F" d="M92 192h4v4h-4z"/><path fill="#9D7456" d="M96 192h4v4h-4z"/><path fill="#C78A63" d="M100 192h4v4h-4zM104 192h4v4h-4z"/><path fill="#9D7456" d="M108 192h4v4h-4zM112 192h4v4h-4z"/><path fill="#845353" d="M116 192h4v4h-4z"/><path fill="#6B3F3F" d="M120 192h4v4h-4z"/><path fill="#C78A63" d="M124 192h4v4h-4zM128 192h4v4h-4z"/><path fill="#DA9C74" d="M132 192h4v4h-4zM136 192h4v4h-4zM140 192h4v4h-4z"/><path fill="#9D7456" d="M144 192h4v4h-4zM148 192h4v4h-4zM152 192h4v4h-4zM156 192h4v4h-4zM160 192h4v4h-4z"/><path fill="#845353" d="M164 192h4v4h-4z"/><path fill="#9D7456" d="M168 192h4v4h-4zM172 192h4v4h-4zM176 192h4v4h-4zM180 192h4v4h-4zM184 192h4v4h-4zM188 192h4v4h-4zM192 192h4v4h-4zM196 192h4v4h-4zM200 192h4v4h-4zM204 192h4v4h-4zM208 192h4v4h-4zM212 192h4v4h-4zM216 192h4v4h-4zM220 192h4v4h-4zM224 192h4v4h-4zM228 192h4v4h-4zM232 192h4v4h-4zM236 192h4v4h-4zM240 192h4v4h-4z"/><path fill="#DA9C74" d="M244 192h4v4h-4zM248 192h4v4h-4z"/><path fill="#C78A63" d="M252 192h4v4h-4zM256 192h4v4h-4zM260 192h4v4h-4z"/><path fill="#9D7456" d="M264 192h4v4h-4z"/><path fill="#845353" d="M268 192h4v4h-4zM36 196h4v4h-4z"/><path fill="#C78A63" d="M40 196h4v4h-4z"/><path fill="#845353" d="M44 196h4v4h-4z"/><path fill="#9D7456" d="M48 196h4v4h-4z"/><path fill="#C78A63" d="M52 196h4v4h-4zM56 196h4v4h-4z"/><path fill="#9D7456" d="M60 196h4v4h-4zM64 196h4v4h-4zM68 196h4v4h-4zM72 196h4v4h-4zM76 196h4v4h-4zM80 196h4v4h-4zM84 196h4v4h-4z"/><path fill="#845353" d="M88 196h4v4h-4z"/><path fill="#6B3F3F" d="M92 196h4v4h-4z"/><path fill="#9D7456" d="M96 196h4v4h-4z"/><path fill="#C78A63" d="M100 196h4v4h-4zM104 196h4v4h-4z"/><path fill="#9D7456" d="M108 196h4v4h-4zM112 196h4v4h-4z"/><path fill="#845353" d="M116 196h4v4h-4z"/><path fill="#6B3F3F" d="M120 196h4v4h-4z"/><path fill="#C78A63" d="M124 196h4v4h-4zM128 196h4v4h-4z"/><path fill="#DA9C74" d="M132 196h4v4h-4zM136 196h4v4h-4zM140 196h4v4h-4z"/><path fill="#9D7456" d="M144 196h4v4h-4zM148 196h4v4h-4zM152 196h4v4h-4zM156 196h4v4h-4zM160 196h4v4h-4z"/><path fill="#845353" d="M164 196h4v4h-4z"/><path fill="#9D7456" d="M168 196h4v4h-4zM172 196h4v4h-4zM176 196h4v4h-4z"/><path fill="#845353" d="M180 196h4v4h-4zM184 196h4v4h-4zM188 196h4v4h-4zM192 196h4v4h-4zM196 196h4v4h-4zM200 196h4v4h-4zM204 196h4v4h-4zM208 196h4v4h-4z"/><path fill="#9D7456" d="M212 196h4v4h-4z"/><path fill="#845353" d="M216 196h4v4h-4zM220 196h4v4h-4z"/><path fill="#9D7456" d="M224 196h4v4h-4zM228 196h4v4h-4zM232 196h4v4h-4zM236 196h4v4h-4zM240 196h4v4h-4zM244 196h4v4h-4z"/><path fill="#DA9C74" d="M248 196h4v4h-4z"/><path fill="#C78A63" d="M252 196h4v4h-4zM256 196h4v4h-4zM260 196h4v4h-4z"/><path fill="#9D7456" d="M264 196h4v4h-4z"/><path fill="#845353" d="M268 196h4v4h-4zM36 200h4v4h-4z"/><path fill="#C78A63" d="M40 200h4v4h-4z"/><path fill="#845353" d="M44 200h4v4h-4z"/><path fill="#9D7456" d="M48 200h4v4h-4z"/><path fill="#C78A63" d="M52 200h4v4h-4zM56 200h4v4h-4z"/><path fill="#9D7456" d="M60 200h4v4h-4zM64 200h4v4h-4zM68 200h4v4h-4zM72 200h4v4h-4zM76 200h4v4h-4zM80 200h4v4h-4zM84 200h4v4h-4z"/><path fill="#6B3F3F" d="M88 200h4v4h-4zM92 200h4v4h-4z"/><path fill="#9D7456" d="M96 200h4v4h-4z"/><path fill="#C78A63" d="M100 200h4v4h-4zM104 200h4v4h-4z"/><path fill="#9D7456" d="M108 200h4v4h-4zM112 200h4v4h-4z"/><path fill="#845353" d="M116 200h4v4h-4z"/><path fill="#9D7456" d="M120 200h4v4h-4z"/><path fill="#C78A63" d="M124 200h4v4h-4zM128 200h4v4h-4z"/><path fill="#DA9C74" d="M132 200h4v4h-4zM136 200h4v4h-4zM140 200h4v4h-4z"/><path fill="#9D7456" d="M144 200h4v4h-4zM148 200h4v4h-4zM152 200h4v4h-4zM156 200h4v4h-4zM160 200h4v4h-4zM164 200h4v4h-4zM168 200h4v4h-4zM172 200h4v4h-4z"/><path fill="#845353" d="M176 200h4v4h-4zM180 200h4v4h-4zM184 200h4v4h-4zM188 200h4v4h-4z"/><path fill="#9D7456" d="M192 200h4v4h-4zM196 200h4v4h-4zM200 200h4v4h-4zM204 200h4v4h-4zM208 200h4v4h-4z"/><path fill="#845353" d="M212 200h4v4h-4z"/><path fill="#9D7456" d="M216 200h4v4h-4zM220 200h4v4h-4z"/><path fill="#845353" d="M224 200h4v4h-4zM228 200h4v4h-4zM232 200h4v4h-4zM236 200h4v4h-4z"/><path fill="#9D7456" d="M240 200h4v4h-4zM244 200h4v4h-4zM248 200h4v4h-4z"/><path fill="#C78A63" d="M252 200h4v4h-4zM256 200h4v4h-4zM260 200h4v4h-4z"/><path fill="#9D7456" d="M264 200h4v4h-4z"/><path fill="#845353" d="M268 200h4v4h-4zM36 204h4v4h-4z"/><path fill="#C78A63" d="M40 204h4v4h-4z"/><path fill="#845353" d="M44 204h4v4h-4z"/><path fill="#9D7456" d="M48 204h4v4h-4z"/><path fill="#C78A63" d="M52 204h4v4h-4zM56 204h4v4h-4z"/><path fill="#DA9C74" d="M60 204h4v4h-4z"/><path fill="#845353" d="M64 204h4v4h-4z"/><path fill="#6B3F3F" d="M68 204h4v4h-4z"/><path fill="#9D7456" d="M72 204h4v4h-4zM76 204h4v4h-4zM80 204h4v4h-4z"/><path fill="#6B3F3F" d="M84 204h4v4h-4zM88 204h4v4h-4zM92 204h4v4h-4z"/><path fill="#9D7456" d="M96 204h4v4h-4z"/><path fill="#C78A63" d="M100 204h4v4h-4zM104 204h4v4h-4z"/><path fill="#9D7456" d="M108 204h4v4h-4zM112 204h4v4h-4z"/><path fill="#845353" d="M116 204h4v4h-4z"/><path fill="#9D7456" d="M120 204h4v4h-4z"/><path fill="#C78A63" d="M124 204h4v4h-4zM128 204h4v4h-4z"/><path fill="#DA9C74" d="M132 204h4v4h-4zM136 204h4v4h-4zM140 204h4v4h-4z"/><path fill="#9D7456" d="M144 204h4v4h-4zM148 204h4v4h-4zM152 204h4v4h-4zM156 204h4v4h-4zM160 204h4v4h-4zM164 204h4v4h-4zM168 204h4v4h-4z"/><path fill="#845353" d="M172 204h4v4h-4zM176 204h4v4h-4z"/><path fill="#9D7456" d="M180 204h4v4h-4zM184 204h4v4h-4zM188 204h4v4h-4z"/><path fill="#C78A63" d="M192 204h4v4h-4zM196 204h4v4h-4zM200 204h4v4h-4zM204 204h4v4h-4zM208 204h4v4h-4zM212 204h4v4h-4zM216 204h4v4h-4zM220 204h4v4h-4z"/><path fill="#9D7456" d="M224 204h4v4h-4zM228 204h4v4h-4zM232 204h4v4h-4zM236 204h4v4h-4zM240 204h4v4h-4zM244 204h4v4h-4zM248 204h4v4h-4zM252 204h4v4h-4zM256 204h4v4h-4zM260 204h4v4h-4zM264 204h4v4h-4z"/><path fill="#845353" d="M268 204h4v4h-4zM36 208h4v4h-4z"/><path fill="#9D7456" d="M40 208h4v4h-4z"/><path fill="#845353" d="M44 208h4v4h-4z"/><path fill="#9D7456" d="M48 208h4v4h-4z"/><path fill="#C78A63" d="M52 208h4v4h-4zM56 208h4v4h-4z"/><path fill="#DA9C74" d="M60 208h4v4h-4z"/><path fill="#845353" d="M64 208h4v4h-4zM68 208h4v4h-4zM72 208h4v4h-4zM76 208h4v4h-4zM80 208h4v4h-4zM84 208h4v4h-4z"/><path fill="#6B3F3F" d="M88 208h4v4h-4z"/><path fill="#9D7456" d="M92 208h4v4h-4z"/><path fill="#DA9C74" d="M96 208h4v4h-4z"/><path fill="#9D7456" d="M100 208h4v4h-4zM104 208h4v4h-4z"/><path fill="#6B3F3F" d="M108 208h4v4h-4z"/><path fill="#9D7456" d="M112 208h4v4h-4z"/><path fill="#845353" d="M116 208h4v4h-4z"/><path fill="#9D7456" d="M120 208h4v4h-4zM124 208h4v4h-4z"/><path fill="#C78A63" d="M128 208h4v4h-4zM132 208h4v4h-4z"/><path fill="#DA9C74" d="M136 208h4v4h-4z"/><path fill="#9D7456" d="M140 208h4v4h-4zM144 208h4v4h-4zM148 208h4v4h-4zM152 208h4v4h-4zM156 208h4v4h-4zM160 208h4v4h-4zM164 208h4v4h-4z"/><path fill="#845353" d="M168 208h4v4h-4zM172 208h4v4h-4z"/><path fill="#9D7456" d="M176 208h4v4h-4z"/><path fill="#C78A63" d="M180 208h4v4h-4zM184 208h4v4h-4zM188 208h4v4h-4zM192 208h4v4h-4zM196 208h4v4h-4zM200 208h4v4h-4zM204 208h4v4h-4zM208 208h4v4h-4zM212 208h4v4h-4zM216 208h4v4h-4zM220 208h4v4h-4zM224 208h4v4h-4zM228 208h4v4h-4zM232 208h4v4h-4z"/><path fill="#DA9C74" d="M236 208h4v4h-4z"/><path fill="#845353" d="M240 208h4v4h-4zM244 208h4v4h-4z"/><path fill="#9D7456" d="M248 208h4v4h-4zM252 208h4v4h-4zM256 208h4v4h-4zM260 208h4v4h-4zM264 208h4v4h-4z"/><path fill="#845353" d="M268 208h4v4h-4zM36 212h4v4h-4z"/><path fill="#C78A63" d="M40 212h4v4h-4z"/><path fill="#9D7456" d="M44 212h4v4h-4z"/><path fill="#845353" d="M48 212h4v4h-4z"/><path fill="#9D7456" d="M52 212h4v4h-4z"/><path fill="#C78A63" d="M56 212h4v4h-4z"/><path fill="#9D7456" d="M60 212h4v4h-4zM64 212h4v4h-4z"/><path fill="#845353" d="M68 212h4v4h-4zM72 212h4v4h-4zM76 212h4v4h-4zM80 212h4v4h-4zM84 212h4v4h-4z"/><path fill="#9D7456" d="M88 212h4v4h-4z"/><path fill="#DA9C74" d="M92 212h4v4h-4zM96 212h4v4h-4zM100 212h4v4h-4z"/><path fill="#9D7456" d="M104 212h4v4h-4zM108 212h4v4h-4z"/><path fill="#845353" d="M112 212h4v4h-4zM116 212h4v4h-4z"/><path fill="#C78A63" d="M120 212h4v4h-4z"/><path fill="#9D7456" d="M124 212h4v4h-4zM128 212h4v4h-4zM132 212h4v4h-4z"/><path fill="#C78A63" d="M136 212h4v4h-4z"/><path fill="#9D7456" d="M140 212h4v4h-4zM144 212h4v4h-4zM148 212h4v4h-4zM152 212h4v4h-4zM156 212h4v4h-4z"/><path fill="#845353" d="M160 212h4v4h-4z"/><path fill="#9D7456" d="M164 212h4v4h-4z"/><path fill="#845353" d="M168 212h4v4h-4z"/><path fill="#9D7456" d="M172 212h4v4h-4z"/><path fill="#C78A63" d="M176 212h4v4h-4zM180 212h4v4h-4zM184 212h4v4h-4zM188 212h4v4h-4zM192 212h4v4h-4zM196 212h4v4h-4zM200 212h4v4h-4zM204 212h4v4h-4zM208 212h4v4h-4z"/><path fill="#9D7456" d="M212 212h4v4h-4z"/><path fill="#C78A63" d="M216 212h4v4h-4zM220 212h4v4h-4zM224 212h4v4h-4zM228 212h4v4h-4zM232 212h4v4h-4zM236 212h4v4h-4z"/><path fill="#9D7456" d="M240 212h4v4h-4zM244 212h4v4h-4z"/><path fill="#845353" d="M248 212h4v4h-4z"/><path fill="#9D7456" d="M252 212h4v4h-4zM256 212h4v4h-4zM260 212h4v4h-4zM264 212h4v4h-4z"/><path fill="#845353" d="M268 212h4v4h-4zM36 216h4v4h-4z"/><path fill="#C78A63" d="M40 216h4v4h-4z"/><path fill="#9D7456" d="M44 216h4v4h-4z"/><path fill="#845353" d="M48 216h4v4h-4z"/><path fill="#9D7456" d="M52 216h4v4h-4z"/><path fill="#C78A63" d="M56 216h4v4h-4z"/><path fill="#9D7456" d="M60 216h4v4h-4z"/><path fill="#DA9C74" d="M64 216h4v4h-4zM68 216h4v4h-4z"/><path fill="#9D7456" d="M72 216h4v4h-4z"/><path fill="#C78A63" d="M76 216h4v4h-4zM80 216h4v4h-4zM84 216h4v4h-4zM88 216h4v4h-4z"/><path fill="#DA9C74" d="M92 216h4v4h-4zM96 216h4v4h-4z"/><path fill="#9D7456" d="M100 216h4v4h-4zM104 216h4v4h-4zM108 216h4v4h-4z"/><path fill="#845353" d="M112 216h4v4h-4zM116 216h4v4h-4z"/><path fill="#C78A63" d="M120 216h4v4h-4z"/><path fill="#DA9C74" d="M124 216h4v4h-4z"/><path fill="#C78A63" d="M128 216h4v4h-4z"/><path fill="#9D7456" d="M132 216h4v4h-4zM136 216h4v4h-4z"/><path fill="#6B3F3F" d="M140 216h4v4h-4z"/><path fill="#9D7456" d="M144 216h4v4h-4zM148 216h4v4h-4zM152 216h4v4h-4z"/><path fill="#845353" d="M156 216h4v4h-4zM160 216h4v4h-4zM164 216h4v4h-4z"/><path fill="#9D7456" d="M168 216h4v4h-4z"/><path fill="#C78A63" d="M172 216h4v4h-4zM176 216h4v4h-4zM180 216h4v4h-4z"/><path fill="#9D7456" d="M184 216h4v4h-4zM188 216h4v4h-4zM192 216h4v4h-4zM196 216h4v4h-4zM200 216h4v4h-4zM204 216h4v4h-4zM208 216h4v4h-4z"/><path fill="#6B3F3F" d="M212 216h4v4h-4z"/><path fill="#9D7456" d="M216 216h4v4h-4zM220 216h4v4h-4zM224 216h4v4h-4z"/><path fill="#C78A63" d="M228 216h4v4h-4zM232 216h4v4h-4zM236 216h4v4h-4zM240 216h4v4h-4z"/><path fill="#9D7456" d="M244 216h4v4h-4zM248 216h4v4h-4z"/><path fill="#845353" d="M252 216h4v4h-4zM256 216h4v4h-4z"/><path fill="#9D7456" d="M260 216h4v4h-4zM264 216h4v4h-4z"/><path fill="#845353" d="M268 216h4v4h-4zM36 220h4v4h-4z"/><path fill="#C78A63" d="M40 220h4v4h-4zM44 220h4v4h-4z"/><path fill="#9D7456" d="M48 220h4v4h-4z"/><path fill="#845353" d="M52 220h4v4h-4z"/><path fill="#9D7456" d="M56 220h4v4h-4zM60 220h4v4h-4z"/><path fill="#DA9C74" d="M64 220h4v4h-4z"/><path fill="#9D7456" d="M68 220h4v4h-4z"/><path fill="#DA9C74" d="M72 220h4v4h-4zM76 220h4v4h-4z"/><path fill="#C78A63" d="M80 220h4v4h-4zM84 220h4v4h-4zM88 220h4v4h-4zM92 220h4v4h-4z"/><path fill="#DA9C74" d="M96 220h4v4h-4z"/><path fill="#9D7456" d="M100 220h4v4h-4zM104 220h4v4h-4z"/><path fill="#845353" d="M108 220h4v4h-4zM112 220h4v4h-4z"/><path fill="#9D7456" d="M116 220h4v4h-4z"/><path fill="#DA9C74" d="M120 220h4v4h-4zM124 220h4v4h-4zM128 220h4v4h-4z"/><path fill="#C78A63" d="M132 220h4v4h-4z"/><path fill="#6B3F3F" d="M136 220h4v4h-4zM140 220h4v4h-4zM144 220h4v4h-4zM148 220h4v4h-4zM152 220h4v4h-4z"/><path fill="#845353" d="M156 220h4v4h-4zM160 220h4v4h-4z"/><path fill="#9D7456" d="M164 220h4v4h-4z"/><path fill="#C78A63" d="M168 220h4v4h-4zM172 220h4v4h-4z"/><path fill="#9D7456" d="M176 220h4v4h-4zM180 220h4v4h-4z"/><path fill="#6B3F3F" d="M184 220h4v4h-4zM188 220h4v4h-4zM192 220h4v4h-4zM196 220h4v4h-4zM200 220h4v4h-4zM204 220h4v4h-4zM208 220h4v4h-4zM212 220h4v4h-4zM216 220h4v4h-4zM220 220h4v4h-4zM224 220h4v4h-4z"/><path fill="#9D7456" d="M228 220h4v4h-4zM232 220h4v4h-4zM236 220h4v4h-4z"/><path fill="#C78A63" d="M240 220h4v4h-4z"/><path fill="#9D7456" d="M244 220h4v4h-4zM248 220h4v4h-4zM252 220h4v4h-4zM256 220h4v4h-4z"/><path fill="#845353" d="M260 220h4v4h-4z"/><path fill="#9D7456" d="M264 220h4v4h-4z"/><path fill="#845353" d="M268 220h4v4h-4zM36 224h4v4h-4z"/><path fill="#C78A63" d="M40 224h4v4h-4zM44 224h4v4h-4z"/><path fill="#9D7456" d="M48 224h4v4h-4z"/><path fill="#845353" d="M52 224h4v4h-4z"/><path fill="#9D7456" d="M56 224h4v4h-4zM60 224h4v4h-4z"/><path fill="#C78A63" d="M64 224h4v4h-4z"/><path fill="#9D7456" d="M68 224h4v4h-4z"/><path fill="#DA9C74" d="M72 224h4v4h-4z"/><path fill="#C78A63" d="M76 224h4v4h-4zM80 224h4v4h-4zM84 224h4v4h-4zM88 224h4v4h-4zM92 224h4v4h-4z"/><path fill="#9D7456" d="M96 224h4v4h-4zM100 224h4v4h-4z"/><path fill="#845353" d="M104 224h4v4h-4zM108 224h4v4h-4zM112 224h4v4h-4z"/><path fill="#C78A63" d="M116 224h4v4h-4zM120 224h4v4h-4z"/><path fill="#DA9C74" d="M124 224h4v4h-4zM128 224h4v4h-4zM132 224h4v4h-4z"/><path fill="#6B3F3F" d="M136 224h4v4h-4zM140 224h4v4h-4zM144 224h4v4h-4zM148 224h4v4h-4z"/><path fill="#845353" d="M152 224h4v4h-4zM156 224h4v4h-4z"/><path fill="#9D7456" d="M160 224h4v4h-4z"/><path fill="#C78A63" d="M164 224h4v4h-4zM168 224h4v4h-4zM172 224h4v4h-4z"/><path fill="#6B3F3F" d="M176 224h4v4h-4zM180 224h4v4h-4zM184 224h4v4h-4zM188 224h4v4h-4zM192 224h4v4h-4zM196 224h4v4h-4zM200 224h4v4h-4zM204 224h4v4h-4zM208 224h4v4h-4zM212 224h4v4h-4zM216 224h4v4h-4zM220 224h4v4h-4zM224 224h4v4h-4zM228 224h4v4h-4zM232 224h4v4h-4zM236 224h4v4h-4z"/><path fill="#9D7456" d="M240 224h4v4h-4zM244 224h4v4h-4zM248 224h4v4h-4z"/><path fill="#C78A63" d="M252 224h4v4h-4zM256 224h4v4h-4z"/><path fill="#9D7456" d="M260 224h4v4h-4zM264 224h4v4h-4z"/><path fill="#845353" d="M268 224h4v4h-4zM40 228h4v4h-4z"/><path fill="#C78A63" d="M44 228h4v4h-4z"/><path fill="#9D7456" d="M48 228h4v4h-4zM52 228h4v4h-4z"/><path fill="#6B3F3F" d="M56 228h4v4h-4z"/><path fill="#9D7456" d="M60 228h4v4h-4z"/><path fill="#C78A63" d="M64 228h4v4h-4z"/><path fill="#9D7456" d="M68 228h4v4h-4z"/><path fill="#C78A63" d="M72 228h4v4h-4zM76 228h4v4h-4zM80 228h4v4h-4zM84 228h4v4h-4z"/><path fill="#9D7456" d="M88 228h4v4h-4zM92 228h4v4h-4zM96 228h4v4h-4z"/><path fill="#845353" d="M100 228h4v4h-4zM104 228h4v4h-4zM108 228h4v4h-4z"/><path fill="#C78A63" d="M112 228h4v4h-4zM116 228h4v4h-4zM120 228h4v4h-4zM124 228h4v4h-4z"/><path fill="#DA9C74" d="M128 228h4v4h-4z"/><path fill="#C78A63" d="M132 228h4v4h-4z"/><path fill="#9D7456" d="M136 228h4v4h-4z"/><path fill="#6B3F3F" d="M140 228h4v4h-4zM144 228h4v4h-4z"/><path fill="#845353" d="M148 228h4v4h-4zM152 228h4v4h-4z"/><path fill="#9D7456" d="M156 228h4v4h-4z"/><path fill="#C78A63" d="M160 228h4v4h-4zM164 228h4v4h-4z"/><path fill="#9D7456" d="M168 228h4v4h-4zM172 228h4v4h-4z"/><path fill="#6B3F3F" d="M176 228h4v4h-4zM180 228h4v4h-4zM184 228h4v4h-4zM188 228h4v4h-4zM192 228h4v4h-4zM196 228h4v4h-4zM200 228h4v4h-4zM204 228h4v4h-4zM208 228h4v4h-4zM212 228h4v4h-4zM216 228h4v4h-4zM220 228h4v4h-4zM224 228h4v4h-4zM228 228h4v4h-4zM232 228h4v4h-4zM236 228h4v4h-4z"/><path fill="#9D7456" d="M240 228h4v4h-4zM244 228h4v4h-4z"/><path fill="#C78A63" d="M248 228h4v4h-4zM252 228h4v4h-4zM256 228h4v4h-4zM260 228h4v4h-4z"/><path fill="#9D7456" d="M264 228h4v4h-4z"/><path fill="#845353" d="M268 228h4v4h-4zM40 232h4v4h-4z"/><path fill="#9D7456" d="M44 232h4v4h-4z"/><path fill="#C78A63" d="M48 232h4v4h-4z"/><path fill="#9D7456" d="M52 232h4v4h-4z"/><path fill="#6B3F3F" d="M56 232h4v4h-4z"/><path fill="#845353" d="M60 232h4v4h-4z"/><path fill="#9D7456" d="M64 232h4v4h-4z"/><path fill="#845353" d="M68 232h4v4h-4z"/><path fill="#9D7456" d="M72 232h4v4h-4zM76 232h4v4h-4zM80 232h4v4h-4zM84 232h4v4h-4zM88 232h4v4h-4zM92 232h4v4h-4z"/><path fill="#845353" d="M96 232h4v4h-4zM100 232h4v4h-4zM104 232h4v4h-4z"/><path fill="#C78A63" d="M108 232h4v4h-4zM112 232h4v4h-4zM116 232h4v4h-4zM120 232h4v4h-4zM124 232h4v4h-4zM128 232h4v4h-4zM132 232h4v4h-4z"/><path fill="#9D7456" d="M136 232h4v4h-4zM140 232h4v4h-4z"/><path fill="#845353" d="M144 232h4v4h-4zM148 232h4v4h-4zM152 232h4v4h-4z"/><path fill="#9D7456" d="M156 232h4v4h-4z"/><path fill="#C78A63" d="M160 232h4v4h-4z"/><path fill="#9D7456" d="M164 232h4v4h-4zM168 232h4v4h-4z"/><path fill="#6B3F3F" d="M172 232h4v4h-4zM176 232h4v4h-4zM180 232h4v4h-4zM184 232h4v4h-4zM188 232h4v4h-4zM192 232h4v4h-4zM196 232h4v4h-4zM200 232h4v4h-4zM204 232h4v4h-4zM208 232h4v4h-4zM212 232h4v4h-4zM216 232h4v4h-4zM220 232h4v4h-4zM224 232h4v4h-4zM228 232h4v4h-4zM232 232h4v4h-4zM236 232h4v4h-4zM240 232h4v4h-4z"/><path fill="#9D7456" d="M244 232h4v4h-4zM248 232h4v4h-4z"/><path fill="#C78A63" d="M252 232h4v4h-4zM256 232h4v4h-4zM260 232h4v4h-4z"/><path fill="#845353" d="M264 232h4v4h-4zM40 236h4v4h-4z"/><path fill="#9D7456" d="M44 236h4v4h-4z"/><path fill="#C78A63" d="M48 236h4v4h-4z"/><path fill="#DA9C74" d="M52 236h4v4h-4z"/><path fill="#9D7456" d="M56 236h4v4h-4z"/><path fill="#6B3F3F" d="M60 236h4v4h-4z"/><path fill="#9D7456" d="M64 236h4v4h-4zM68 236h4v4h-4z"/><path fill="#845353" d="M72 236h4v4h-4z"/><path fill="#9D7456" d="M76 236h4v4h-4zM80 236h4v4h-4zM84 236h4v4h-4z"/><path fill="#845353" d="M88 236h4v4h-4zM92 236h4v4h-4zM96 236h4v4h-4zM100 236h4v4h-4z"/><path fill="#C78A63" d="M104 236h4v4h-4zM108 236h4v4h-4zM112 236h4v4h-4zM116 236h4v4h-4zM120 236h4v4h-4zM124 236h4v4h-4zM128 236h4v4h-4z"/><path fill="#9D7456" d="M132 236h4v4h-4zM136 236h4v4h-4zM140 236h4v4h-4z"/><path fill="#845353" d="M144 236h4v4h-4zM148 236h4v4h-4z"/><path fill="#9D7456" d="M152 236h4v4h-4z"/><path fill="#C78A63" d="M156 236h4v4h-4z"/><path fill="#9D7456" d="M160 236h4v4h-4zM164 236h4v4h-4z"/><path fill="#6B3F3F" d="M168 236h4v4h-4zM172 236h4v4h-4zM176 236h4v4h-4zM180 236h4v4h-4zM184 236h4v4h-4zM188 236h4v4h-4zM192 236h4v4h-4zM196 236h4v4h-4zM200 236h4v4h-4zM204 236h4v4h-4zM208 236h4v4h-4zM212 236h4v4h-4zM216 236h4v4h-4zM220 236h4v4h-4zM224 236h4v4h-4zM228 236h4v4h-4zM232 236h4v4h-4zM236 236h4v4h-4zM240 236h4v4h-4zM244 236h4v4h-4z"/><path fill="#9D7456" d="M248 236h4v4h-4zM252 236h4v4h-4zM256 236h4v4h-4zM260 236h4v4h-4z"/><path fill="#845353" d="M264 236h4v4h-4zM40 240h4v4h-4z"/><path fill="#9D7456" d="M44 240h4v4h-4z"/><path fill="#DA9C74" d="M48 240h4v4h-4zM52 240h4v4h-4zM56 240h4v4h-4z"/><path fill="#9D7456" d="M60 240h4v4h-4z"/><path fill="#6B3F3F" d="M64 240h4v4h-4zM68 240h4v4h-4zM72 240h4v4h-4zM76 240h4v4h-4zM80 240h4v4h-4zM84 240h4v4h-4z"/><path fill="#845353" d="M88 240h4v4h-4zM92 240h4v4h-4zM96 240h4v4h-4z"/><path fill="#C78A63" d="M100 240h4v4h-4zM104 240h4v4h-4zM108 240h4v4h-4zM112 240h4v4h-4zM116 240h4v4h-4zM120 240h4v4h-4zM124 240h4v4h-4z"/><path fill="#9D7456" d="M128 240h4v4h-4zM132 240h4v4h-4zM136 240h4v4h-4zM140 240h4v4h-4z"/><path fill="#845353" d="M144 240h4v4h-4z"/><path fill="#9D7456" d="M148 240h4v4h-4zM152 240h4v4h-4zM156 240h4v4h-4zM160 240h4v4h-4z"/><path fill="#6B3F3F" d="M164 240h4v4h-4zM168 240h4v4h-4zM172 240h4v4h-4zM176 240h4v4h-4zM180 240h4v4h-4zM184 240h4v4h-4zM188 240h4v4h-4zM192 240h4v4h-4zM196 240h4v4h-4zM200 240h4v4h-4zM204 240h4v4h-4zM208 240h4v4h-4zM212 240h4v4h-4zM216 240h4v4h-4zM220 240h4v4h-4zM224 240h4v4h-4zM228 240h4v4h-4zM232 240h4v4h-4zM236 240h4v4h-4zM240 240h4v4h-4zM244 240h4v4h-4z"/><path fill="#9D7456" d="M248 240h4v4h-4zM252 240h4v4h-4zM256 240h4v4h-4zM260 240h4v4h-4z"/><path fill="#845353" d="M264 240h4v4h-4z"/><path fill="#6B3F3F" d="M44 244h4v4h-4z"/><path fill="#C78A63" d="M48 244h4v4h-4z"/><path fill="#DA9C74" d="M52 244h4v4h-4zM56 244h4v4h-4zM60 244h4v4h-4z"/><path fill="#845353" d="M64 244h4v4h-4z"/><path fill="#6B3F3F" d="M68 244h4v4h-4zM72 244h4v4h-4zM76 244h4v4h-4zM80 244h4v4h-4z"/><path fill="#845353" d="M84 244h4v4h-4zM88 244h4v4h-4z"/><path fill="#9D7456" d="M92 244h4v4h-4z"/><path fill="#C78A63" d="M96 244h4v4h-4zM100 244h4v4h-4zM104 244h4v4h-4zM108 244h4v4h-4zM112 244h4v4h-4zM116 244h4v4h-4zM120 244h4v4h-4z"/><path fill="#9D7456" d="M124 244h4v4h-4zM128 244h4v4h-4zM132 244h4v4h-4zM136 244h4v4h-4z"/><path fill="#845353" d="M140 244h4v4h-4zM144 244h4v4h-4z"/><path fill="#9D7456" d="M148 244h4v4h-4z"/><path fill="#C78A63" d="M152 244h4v4h-4z"/><path fill="#9D7456" d="M156 244h4v4h-4zM160 244h4v4h-4z"/><path fill="#6B3F3F" d="M164 244h4v4h-4zM168 244h4v4h-4zM172 244h4v4h-4zM176 244h4v4h-4zM180 244h4v4h-4zM184 244h4v4h-4zM188 244h4v4h-4zM192 244h4v4h-4zM196 244h4v4h-4zM200 244h4v4h-4zM204 244h4v4h-4zM208 244h4v4h-4zM212 244h4v4h-4zM216 244h4v4h-4zM220 244h4v4h-4zM224 244h4v4h-4zM228 244h4v4h-4zM232 244h4v4h-4zM236 244h4v4h-4zM240 244h4v4h-4zM244 244h4v4h-4z"/><path fill="#9D7456" d="M248 244h4v4h-4zM252 244h4v4h-4zM256 244h4v4h-4zM260 244h4v4h-4z"/><path fill="#845353" d="M264 244h4v4h-4z"/><path fill="#6B3F3F" d="M44 248h4v4h-4z"/><path fill="#C78A63" d="M48 248h4v4h-4zM52 248h4v4h-4z"/><path fill="#DA9C74" d="M56 248h4v4h-4zM60 248h4v4h-4z"/><path fill="#845353" d="M64 248h4v4h-4zM68 248h4v4h-4zM72 248h4v4h-4zM76 248h4v4h-4zM80 248h4v4h-4zM84 248h4v4h-4zM88 248h4v4h-4z"/><path fill="#9D7456" d="M92 248h4v4h-4z"/><path fill="#C78A63" d="M96 248h4v4h-4zM100 248h4v4h-4zM104 248h4v4h-4zM108 248h4v4h-4zM112 248h4v4h-4zM116 248h4v4h-4zM120 248h4v4h-4z"/><path fill="#9D7456" d="M124 248h4v4h-4zM128 248h4v4h-4zM132 248h4v4h-4zM136 248h4v4h-4z"/><path fill="#845353" d="M140 248h4v4h-4zM144 248h4v4h-4z"/><path fill="#9D7456" d="M148 248h4v4h-4z"/><path fill="#C78A63" d="M152 248h4v4h-4z"/><path fill="#9D7456" d="M156 248h4v4h-4zM160 248h4v4h-4z"/><path fill="#6B3F3F" d="M164 248h4v4h-4zM168 248h4v4h-4zM172 248h4v4h-4zM176 248h4v4h-4zM180 248h4v4h-4zM184 248h4v4h-4zM188 248h4v4h-4zM192 248h4v4h-4zM196 248h4v4h-4zM200 248h4v4h-4zM204 248h4v4h-4zM208 248h4v4h-4zM212 248h4v4h-4zM216 248h4v4h-4zM220 248h4v4h-4zM224 248h4v4h-4zM228 248h4v4h-4zM232 248h4v4h-4zM236 248h4v4h-4zM240 248h4v4h-4zM244 248h4v4h-4z"/><path fill="#9D7456" d="M248 248h4v4h-4zM252 248h4v4h-4zM256 248h4v4h-4zM260 248h4v4h-4z"/><path fill="#845353" d="M264 248h4v4h-4z"/><path fill="#6B3F3F" d="M44 252h4v4h-4z"/><path fill="#9D7456" d="M48 252h4v4h-4z"/><path fill="#C78A63" d="M52 252h4v4h-4zM56 252h4v4h-4z"/><path fill="#DA9C74" d="M60 252h4v4h-4z"/><path fill="#9D7456" d="M64 252h4v4h-4z"/><path fill="#DA9C74" d="M68 252h4v4h-4zM72 252h4v4h-4zM76 252h4v4h-4zM80 252h4v4h-4zM84 252h4v4h-4zM88 252h4v4h-4zM92 252h4v4h-4z"/><path fill="#C78A63" d="M96 252h4v4h-4zM100 252h4v4h-4zM104 252h4v4h-4zM108 252h4v4h-4zM112 252h4v4h-4zM116 252h4v4h-4z"/><path fill="#9D7456" d="M120 252h4v4h-4zM124 252h4v4h-4zM128 252h4v4h-4zM132 252h4v4h-4z"/><path fill="#845353" d="M136 252h4v4h-4zM140 252h4v4h-4z"/><path fill="#9D7456" d="M144 252h4v4h-4z"/><path fill="#C78A63" d="M148 252h4v4h-4zM152 252h4v4h-4z"/><path fill="#9D7456" d="M156 252h4v4h-4z"/><path fill="#6B3F3F" d="M160 252h4v4h-4zM164 252h4v4h-4zM168 252h4v4h-4zM172 252h4v4h-4zM176 252h4v4h-4zM180 252h4v4h-4zM184 252h4v4h-4zM188 252h4v4h-4zM192 252h4v4h-4zM196 252h4v4h-4zM200 252h4v4h-4zM204 252h4v4h-4zM208 252h4v4h-4zM212 252h4v4h-4zM216 252h4v4h-4zM220 252h4v4h-4zM224 252h4v4h-4zM228 252h4v4h-4zM232 252h4v4h-4zM236 252h4v4h-4zM240 252h4v4h-4zM244 252h4v4h-4z"/><path fill="#9D7456" d="M248 252h4v4h-4zM252 252h4v4h-4zM256 252h4v4h-4zM260 252h4v4h-4z"/><path fill="#845353" d="M264 252h4v4h-4z"/><path fill="#6B3F3F" d="M48 256h4v4h-4z"/><path fill="#9D7456" d="M52 256h4v4h-4z"/><path fill="#C78A63" d="M56 256h4v4h-4zM60 256h4v4h-4z"/><path fill="#DA9C74" d="M64 256h4v4h-4zM68 256h4v4h-4zM72 256h4v4h-4zM76 256h4v4h-4zM80 256h4v4h-4zM84 256h4v4h-4zM88 256h4v4h-4zM92 256h4v4h-4zM96 256h4v4h-4z"/><path fill="#9D7456" d="M100 256h4v4h-4z"/><path fill="#C78A63" d="M104 256h4v4h-4zM108 256h4v4h-4zM112 256h4v4h-4zM116 256h4v4h-4z"/><path fill="#9D7456" d="M120 256h4v4h-4zM124 256h4v4h-4zM128 256h4v4h-4zM132 256h4v4h-4z"/><path fill="#845353" d="M136 256h4v4h-4zM140 256h4v4h-4z"/><path fill="#9D7456" d="M144 256h4v4h-4z"/><path fill="#C78A63" d="M148 256h4v4h-4z"/><path fill="#9D7456" d="M152 256h4v4h-4zM156 256h4v4h-4z"/><path fill="#6B3F3F" d="M160 256h4v4h-4zM164 256h4v4h-4zM168 256h4v4h-4zM172 256h4v4h-4zM176 256h4v4h-4zM180 256h4v4h-4zM184 256h4v4h-4zM188 256h4v4h-4zM192 256h4v4h-4zM196 256h4v4h-4zM200 256h4v4h-4zM204 256h4v4h-4zM208 256h4v4h-4zM212 256h4v4h-4zM216 256h4v4h-4zM220 256h4v4h-4zM224 256h4v4h-4zM228 256h4v4h-4zM232 256h4v4h-4zM236 256h4v4h-4zM240 256h4v4h-4zM244 256h4v4h-4z"/><path fill="#9D7456" d="M248 256h4v4h-4zM252 256h4v4h-4zM256 256h4v4h-4zM260 256h4v4h-4z"/><path fill="#6B3F3F" d="M48 260h4v4h-4z"/><path fill="#9D7456" d="M52 260h4v4h-4zM56 260h4v4h-4z"/><path fill="#C78A63" d="M60 260h4v4h-4zM64 260h4v4h-4z"/><path fill="#DA9C74" d="M68 260h4v4h-4zM72 260h4v4h-4zM76 260h4v4h-4zM80 260h4v4h-4zM84 260h4v4h-4zM88 260h4v4h-4zM92 260h4v4h-4zM96 260h4v4h-4z"/><path fill="#9D7456" d="M100 260h4v4h-4zM104 260h4v4h-4z"/><path fill="#C78A63" d="M108 260h4v4h-4z"/><path fill="#9D7456" d="M112 260h4v4h-4zM116 260h4v4h-4zM120 260h4v4h-4zM124 260h4v4h-4zM128 260h4v4h-4z"/><path fill="#845353" d="M132 260h4v4h-4zM136 260h4v4h-4z"/><path fill="#9D7456" d="M140 260h4v4h-4z"/><path fill="#C78A63" d="M144 260h4v4h-4z"/><path fill="#9D7456" d="M148 260h4v4h-4zM152 260h4v4h-4z"/><path fill="#6B3F3F" d="M156 260h4v4h-4zM160 260h4v4h-4zM164 260h4v4h-4zM168 260h4v4h-4zM172 260h4v4h-4zM176 260h4v4h-4zM180 260h4v4h-4zM184 260h4v4h-4zM188 260h4v4h-4zM192 260h4v4h-4zM196 260h4v4h-4zM200 260h4v4h-4zM204 260h4v4h-4zM208 260h4v4h-4zM212 260h4v4h-4zM216 260h4v4h-4zM220 260h4v4h-4zM224 260h4v4h-4zM228 260h4v4h-4zM232 260h4v4h-4zM236 260h4v4h-4zM240 260h4v4h-4zM244 260h4v4h-4z"/><path fill="#9D7456" d="M248 260h4v4h-4zM252 260h4v4h-4zM256 260h4v4h-4zM260 260h4v4h-4z"/><path fill="#6B3F3F" d="M52 264h4v4h-4z"/><path fill="#9D7456" d="M56 264h4v4h-4zM60 264h4v4h-4z"/><path fill="#C78A63" d="M64 264h4v4h-4zM68 264h4v4h-4zM72 264h4v4h-4zM76 264h4v4h-4z"/><path fill="#DA9C74" d="M80 264h4v4h-4z"/><path fill="#C78A63" d="M84 264h4v4h-4zM88 264h4v4h-4z"/><path fill="#DA9C74" d="M92 264h4v4h-4z"/><path fill="#C78A63" d="M96 264h4v4h-4z"/><path fill="#845353" d="M100 264h4v4h-4zM104 264h4v4h-4z"/><path fill="#9D7456" d="M108 264h4v4h-4zM112 264h4v4h-4zM116 264h4v4h-4zM120 264h4v4h-4zM124 264h4v4h-4z"/><path fill="#845353" d="M128 264h4v4h-4zM132 264h4v4h-4z"/><path fill="#9D7456" d="M136 264h4v4h-4zM140 264h4v4h-4zM144 264h4v4h-4zM148 264h4v4h-4z"/><path fill="#6B3F3F" d="M152 264h4v4h-4zM156 264h4v4h-4zM160 264h4v4h-4zM164 264h4v4h-4zM168 264h4v4h-4zM172 264h4v4h-4zM176 264h4v4h-4zM180 264h4v4h-4zM184 264h4v4h-4zM188 264h4v4h-4zM192 264h4v4h-4zM196 264h4v4h-4zM200 264h4v4h-4zM204 264h4v4h-4zM208 264h4v4h-4zM212 264h4v4h-4zM216 264h4v4h-4zM220 264h4v4h-4zM224 264h4v4h-4zM228 264h4v4h-4zM232 264h4v4h-4zM236 264h4v4h-4zM240 264h4v4h-4z"/><path fill="#9D7456" d="M244 264h4v4h-4zM248 264h4v4h-4zM252 264h4v4h-4zM256 264h4v4h-4zM260 264h4v4h-4z"/><path fill="#6B3F3F" d="M56 268h4v4h-4z"/><path fill="#9D7456" d="M60 268h4v4h-4zM64 268h4v4h-4z"/><path fill="#C78A63" d="M68 268h4v4h-4zM72 268h4v4h-4zM76 268h4v4h-4zM80 268h4v4h-4zM84 268h4v4h-4zM88 268h4v4h-4zM92 268h4v4h-4zM96 268h4v4h-4z"/><path fill="#9D7456" d="M100 268h4v4h-4z"/><path fill="#6B3F3F" d="M104 268h4v4h-4zM108 268h4v4h-4z"/><path fill="#9D7456" d="M112 268h4v4h-4zM116 268h4v4h-4z"/><path fill="#6B3F3F" d="M120 268h4v4h-4z"/><path fill="#845353" d="M124 268h4v4h-4zM128 268h4v4h-4zM132 268h4v4h-4z"/><path fill="#9D7456" d="M136 268h4v4h-4zM140 268h4v4h-4zM144 268h4v4h-4z"/><path fill="#6B3F3F" d="M148 268h4v4h-4zM152 268h4v4h-4zM156 268h4v4h-4zM160 268h4v4h-4zM164 268h4v4h-4zM168 268h4v4h-4zM172 268h4v4h-4zM176 268h4v4h-4zM180 268h4v4h-4zM184 268h4v4h-4zM188 268h4v4h-4zM192 268h4v4h-4zM196 268h4v4h-4zM200 268h4v4h-4zM204 268h4v4h-4zM208 268h4v4h-4zM212 268h4v4h-4zM216 268h4v4h-4zM220 268h4v4h-4zM224 268h4v4h-4zM228 268h4v4h-4zM232 268h4v4h-4zM236 268h4v4h-4zM240 268h4v4h-4z"/><path fill="#9D7456" d="M244 268h4v4h-4zM248 268h4v4h-4zM252 268h4v4h-4zM256 268h4v4h-4z"/><path fill="#845353" d="M260 268h4v4h-4z"/><path fill="#6B3F3F" d="M60 272h4v4h-4z"/><path fill="#9D7456" d="M64 272h4v4h-4zM68 272h4v4h-4zM72 272h4v4h-4zM76 272h4v4h-4zM80 272h4v4h-4zM84 272h4v4h-4zM88 272h4v4h-4zM92 272h4v4h-4zM96 272h4v4h-4zM100 272h4v4h-4zM104 272h4v4h-4z"/><path fill="#6B3F3F" d="M108 272h4v4h-4zM112 272h4v4h-4z"/><path fill="#845353" d="M116 272h4v4h-4zM120 272h4v4h-4zM124 272h4v4h-4z"/><path fill="#9D7456" d="M128 272h4v4h-4zM132 272h4v4h-4zM136 272h4v4h-4zM140 272h4v4h-4z"/><path fill="#6B3F3F" d="M144 272h4v4h-4zM148 272h4v4h-4zM152 272h4v4h-4zM156 272h4v4h-4zM160 272h4v4h-4zM164 272h4v4h-4zM168 272h4v4h-4zM172 272h4v4h-4zM176 272h4v4h-4zM180 272h4v4h-4zM184 272h4v4h-4zM188 272h4v4h-4zM192 272h4v4h-4zM196 272h4v4h-4zM200 272h4v4h-4zM204 272h4v4h-4zM208 272h4v4h-4zM212 272h4v4h-4zM216 272h4v4h-4zM220 272h4v4h-4zM224 272h4v4h-4zM228 272h4v4h-4zM232 272h4v4h-4zM236 272h4v4h-4z"/><path fill="#9D7456" d="M240 272h4v4h-4zM244 272h4v4h-4zM248 272h4v4h-4zM252 272h4v4h-4zM256 272h4v4h-4z"/><path fill="#845353" d="M260 272h4v4h-4z"/><path fill="#6B3F3F" d="M64 276h4v4h-4z"/><path fill="#9D7456" d="M68 276h4v4h-4zM72 276h4v4h-4zM76 276h4v4h-4zM80 276h4v4h-4zM84 276h4v4h-4zM88 276h4v4h-4zM92 276h4v4h-4zM96 276h4v4h-4zM100 276h4v4h-4z"/><path fill="#6B3F3F" d="M104 276h4v4h-4zM108 276h4v4h-4z"/><path fill="#845353" d="M112 276h4v4h-4zM116 276h4v4h-4zM120 276h4v4h-4z"/><path fill="#9D7456" d="M124 276h4v4h-4zM128 276h4v4h-4zM132 276h4v4h-4z"/><path fill="#6B3F3F" d="M136 276h4v4h-4zM140 276h4v4h-4zM144 276h4v4h-4zM148 276h4v4h-4zM152 276h4v4h-4zM156 276h4v4h-4zM160 276h4v4h-4zM164 276h4v4h-4zM168 276h4v4h-4zM172 276h4v4h-4zM176 276h4v4h-4zM180 276h4v4h-4zM184 276h4v4h-4zM188 276h4v4h-4zM192 276h4v4h-4zM196 276h4v4h-4zM200 276h4v4h-4zM204 276h4v4h-4zM208 276h4v4h-4zM212 276h4v4h-4zM216 276h4v4h-4zM220 276h4v4h-4zM224 276h4v4h-4zM228 276h4v4h-4zM232 276h4v4h-4zM236 276h4v4h-4z"/><path fill="#9D7456" d="M240 276h4v4h-4zM244 276h4v4h-4zM248 276h4v4h-4z"/><path fill="#845353" d="M252 276h4v4h-4zM256 276h4v4h-4z"/><path fill="#6B3F3F" d="M64 280h4v4h-4zM68 280h4v4h-4zM72 280h4v4h-4zM76 280h4v4h-4zM80 280h4v4h-4zM84 280h4v4h-4zM88 280h4v4h-4zM92 280h4v4h-4zM96 280h4v4h-4zM100 280h4v4h-4zM104 280h4v4h-4z"/><path fill="#845353" d="M108 280h4v4h-4zM112 280h4v4h-4zM116 280h4v4h-4z"/><path fill="#9D7456" d="M120 280h4v4h-4zM124 280h4v4h-4zM128 280h4v4h-4zM132 280h4v4h-4z"/><path fill="#6B3F3F" d="M136 280h4v4h-4zM140 280h4v4h-4zM144 280h4v4h-4zM148 280h4v4h-4zM152 280h4v4h-4zM156 280h4v4h-4zM160 280h4v4h-4zM164 280h4v4h-4zM168 280h4v4h-4zM172 280h4v4h-4zM176 280h4v4h-4zM180 280h4v4h-4zM184 280h4v4h-4zM188 280h4v4h-4zM192 280h4v4h-4zM196 280h4v4h-4zM200 280h4v4h-4zM204 280h4v4h-4zM208 280h4v4h-4zM212 280h4v4h-4zM216 280h4v4h-4zM220 280h4v4h-4zM224 280h4v4h-4zM228 280h4v4h-4z"/><path fill="#9D7456" d="M232 280h4v4h-4zM236 280h4v4h-4zM240 280h4v4h-4zM244 280h4v4h-4z"/><path fill="#845353" d="M248 280h4v4h-4z"/><path fill="#9D7456" d="M64 284h4v4h-4z"/><path fill="#6B3F3F" d="M68 284h4v4h-4zM72 284h4v4h-4zM76 284h4v4h-4zM80 284h4v4h-4zM84 284h4v4h-4zM88 284h4v4h-4zM92 284h4v4h-4zM96 284h4v4h-4z"/><path fill="#845353" d="M100 284h4v4h-4zM104 284h4v4h-4zM108 284h4v4h-4z"/><path fill="#9D7456" d="M112 284h4v4h-4zM116 284h4v4h-4zM120 284h4v4h-4zM124 284h4v4h-4z"/><path fill="#6B3F3F" d="M128 284h4v4h-4zM132 284h4v4h-4zM136 284h4v4h-4zM140 284h4v4h-4zM144 284h4v4h-4zM148 284h4v4h-4zM152 284h4v4h-4zM156 284h4v4h-4zM160 284h4v4h-4zM164 284h4v4h-4zM168 284h4v4h-4zM172 284h4v4h-4zM176 284h4v4h-4zM180 284h4v4h-4zM184 284h4v4h-4zM188 284h4v4h-4zM192 284h4v4h-4zM196 284h4v4h-4zM200 284h4v4h-4zM204 284h4v4h-4zM208 284h4v4h-4zM212 284h4v4h-4zM216 284h4v4h-4zM220 284h4v4h-4z"/><path fill="#9D7456" d="M224 284h4v4h-4zM228 284h4v4h-4zM232 284h4v4h-4zM236 284h4v4h-4zM240 284h4v4h-4z"/><path fill="#845353" d="M244 284h4v4h-4zM64 288h4v4h-4z"/><path fill="#9D7456" d="M68 288h4v4h-4zM72 288h4v4h-4z"/><path fill="#845353" d="M76 288h4v4h-4zM80 288h4v4h-4zM84 288h4v4h-4zM88 288h4v4h-4zM92 288h4v4h-4zM96 288h4v4h-4z"/><path fill="#9D7456" d="M100 288h4v4h-4zM104 288h4v4h-4zM108 288h4v4h-4zM112 288h4v4h-4zM116 288h4v4h-4z"/><path fill="#6B3F3F" d="M120 288h4v4h-4zM124 288h4v4h-4zM128 288h4v4h-4zM132 288h4v4h-4zM136 288h4v4h-4zM140 288h4v4h-4zM144 288h4v4h-4zM148 288h4v4h-4zM152 288h4v4h-4zM156 288h4v4h-4zM160 288h4v4h-4zM164 288h4v4h-4zM168 288h4v4h-4zM172 288h4v4h-4zM176 288h4v4h-4zM180 288h4v4h-4zM184 288h4v4h-4zM188 288h4v4h-4zM192 288h4v4h-4zM196 288h4v4h-4zM200 288h4v4h-4zM204 288h4v4h-4zM208 288h4v4h-4zM212 288h4v4h-4z"/><path fill="#9D7456" d="M216 288h4v4h-4zM220 288h4v4h-4zM224 288h4v4h-4zM228 288h4v4h-4zM232 288h4v4h-4zM236 288h4v4h-4z"/><path fill="#845353" d="M240 288h4v4h-4zM68 292h4v4h-4zM72 292h4v4h-4z"/><path fill="#9D7456" d="M76 292h4v4h-4zM80 292h4v4h-4zM84 292h4v4h-4zM88 292h4v4h-4zM92 292h4v4h-4zM96 292h4v4h-4zM100 292h4v4h-4zM104 292h4v4h-4zM108 292h4v4h-4zM112 292h4v4h-4z"/><path fill="#6B3F3F" d="M116 292h4v4h-4zM120 292h4v4h-4zM124 292h4v4h-4zM128 292h4v4h-4zM132 292h4v4h-4zM136 292h4v4h-4zM140 292h4v4h-4zM144 292h4v4h-4zM148 292h4v4h-4zM152 292h4v4h-4zM156 292h4v4h-4zM160 292h4v4h-4zM164 292h4v4h-4zM168 292h4v4h-4zM172 292h4v4h-4zM176 292h4v4h-4zM180 292h4v4h-4zM184 292h4v4h-4zM188 292h4v4h-4zM192 292h4v4h-4zM196 292h4v4h-4zM200 292h4v4h-4z"/><path fill="#9D7456" d="M204 292h4v4h-4zM208 292h4v4h-4zM212 292h4v4h-4zM216 292h4v4h-4zM220 292h4v4h-4zM224 292h4v4h-4zM228 292h4v4h-4z"/><path fill="#845353" d="M232 292h4v4h-4zM236 292h4v4h-4z"/><path fill="#6B3F3F" d="M76 296h4v4h-4zM80 296h4v4h-4zM84 296h4v4h-4zM88 296h4v4h-4zM92 296h4v4h-4zM96 296h4v4h-4zM100 296h4v4h-4zM104 296h4v4h-4zM108 296h4v4h-4zM112 296h4v4h-4zM116 296h4v4h-4zM120 296h4v4h-4zM124 296h4v4h-4zM128 296h4v4h-4zM132 296h4v4h-4zM136 296h4v4h-4zM140 296h4v4h-4zM144 296h4v4h-4zM148 296h4v4h-4zM152 296h4v4h-4zM156 296h4v4h-4zM160 296h4v4h-4zM164 296h4v4h-4zM168 296h4v4h-4zM172 296h4v4h-4zM176 296h4v4h-4zM180 296h4v4h-4zM184 296h4v4h-4zM188 296h4v4h-4zM192 296h4v4h-4zM196 296h4v4h-4zM200 296h4v4h-4z"/><path fill="#9D7456" d="M204 296h4v4h-4zM208 296h4v4h-4zM212 296h4v4h-4z"/><path fill="#845353" d="M216 296h4v4h-4zM220 296h4v4h-4zM224 296h4v4h-4zM228 296h4v4h-4z"/></svg>