<svg width="384" height="384" xmlns="http://www.w3.org/2000/svg" shape-rendering="crispEdges"><path fill="#224F54" d="M168 44h4v4h-4zM172 44h4v4h-4zM176 44h4v4h-4zM180 44h4v4h-4zM184 44h4v4h-4zM132 48h4v4h-4zM136 48h4v4h-4zM140 48h4v4h-4zM144 48h4v4h-4zM148 48h4v4h-4zM152 48h4v4h-4zM156 48h4v4h-4zM160 48h4v4h-4zM164 48h4v4h-4z"/><path fill="#316B86" d="M168 48h4v4h-4zM172 48h4v4h-4zM176 48h4v4h-4zM180 48h4v4h-4zM184 48h4v4h-4z"/><path fill="#224F54" d="M188 48h4v4h-4zM96 52h4v4h-4zM100 52h4v4h-4zM104 52h4v4h-4zM108 52h4v4h-4zM112 52h4v4h-4zM116 52h4v4h-4zM120 52h4v4h-4zM124 52h4v4h-4zM128 52h4v4h-4z"/><path fill="#316B86" d="M132 52h4v4h-4zM136 52h4v4h-4zM140 52h4v4h-4z"/><path fill="#3FF8FA" d="M144 52h4v4h-4zM148 52h4v4h-4zM152 52h4v4h-4z"/><path fill="#316B86" d="M156 52h4v4h-4zM160 52h4v4h-4zM164 52h4v4h-4zM168 52h4v4h-4zM172 52h4v4h-4zM176 52h4v4h-4zM180 52h4v4h-4zM184 52h4v4h-4zM188 52h4v4h-4z"/><path fill="#224F54" d="M192 52h4v4h-4zM208 52h4v4h-4zM212 52h4v4h-4zM216 52h4v4h-4zM220 52h4v4h-4zM224 52h4v4h-4zM60 56h4v4h-4zM64 56h4v4h-4zM68 56h4v4h-4zM72 56h4v4h-4zM76 56h4v4h-4zM80 56h4v4h-4zM84 56h4v4h-4zM88 56h4v4h-4zM92 56h4v4h-4z"/><path fill="#316B86" d="M96 56h4v4h-4zM100 56h4v4h-4zM104 56h4v4h-4zM108 56h4v4h-4zM112 56h4v4h-4zM116 56h4v4h-4zM120 56h4v4h-4zM124 56h4v4h-4zM128 56h4v4h-4zM132 56h4v4h-4zM136 56h4v4h-4zM140 56h4v4h-4zM144 56h4v4h-4zM148 56h4v4h-4z"/><path fill="#3FF8FA" d="M152 56h4v4h-4zM156 56h4v4h-4z"/><path fill="#316B86" d="M160 56h4v4h-4zM164 56h4v4h-4zM168 56h4v4h-4zM172 56h4v4h-4zM176 56h4v4h-4zM180 56h4v4h-4zM184 56h4v4h-4zM188 56h4v4h-4zM192 56h4v4h-4z"/><path fill="#224F54" d="M196 56h4v4h-4zM200 56h4v4h-4zM204 56h4v4h-4z"/><path fill="#316B86" d="M208 56h4v4h-4zM212 56h4v4h-4zM216 56h4v4h-4zM220 56h4v4h-4zM224 56h4v4h-4z"/><path fill="#224F54" d="M228 56h4v4h-4zM56 60h4v4h-4z"/><path fill="#316B86" d="M60 60h4v4h-4zM64 60h4v4h-4zM68 60h4v4h-4zM72 60h4v4h-4zM76 60h4v4h-4zM80 60h4v4h-4zM84 60h4v4h-4z"/><path fill="#3FF8FA" d="M88 60h4v4h-4zM92 60h4v4h-4z"/><path fill="#316B86" d="M96 60h4v4h-4zM100 60h4v4h-4zM104 60h4v4h-4zM108 60h4v4h-4zM112 60h4v4h-4zM116 60h4v4h-4zM120 60h4v4h-4zM124 60h4v4h-4zM128 60h4v4h-4zM132 60h4v4h-4zM136 60h4v4h-4zM140 60h4v4h-4zM144 60h4v4h-4zM148 60h4v4h-4zM152 60h4v4h-4z"/><path fill="#3FF8FA" d="M156 60h4v4h-4zM160 60h4v4h-4z"/><path fill="#316B86" d="M164 60h4v4h-4zM168 60h4v4h-4zM172 60h4v4h-4zM176 60h4v4h-4zM180 60h4v4h-4zM184 60h4v4h-4zM188 60h4v4h-4zM192 60h4v4h-4zM196 60h4v4h-4zM200 60h4v4h-4zM204 60h4v4h-4zM208 60h4v4h-4zM212 60h4v4h-4zM216 60h4v4h-4zM220 60h4v4h-4zM224 60h4v4h-4zM228 60h4v4h-4z"/><path fill="#224F54" d="M232 60h4v4h-4zM56 64h4v4h-4z"/><path fill="#316B86" d="M60 64h4v4h-4zM64 64h4v4h-4zM68 64h4v4h-4zM72 64h4v4h-4zM76 64h4v4h-4zM80 64h4v4h-4zM84 64h4v4h-4zM88 64h4v4h-4z"/><path fill="#3FF8FA" d="M92 64h4v4h-4zM96 64h4v4h-4z"/><path fill="#316B86" d="M100 64h4v4h-4zM104 64h4v4h-4zM108 64h4v4h-4zM112 64h4v4h-4zM116 64h4v4h-4zM120 64h4v4h-4zM124 64h4v4h-4zM128 64h4v4h-4zM132 64h4v4h-4zM136 64h4v4h-4zM140 64h4v4h-4zM144 64h4v4h-4zM148 64h4v4h-4zM152 64h4v4h-4zM156 64h4v4h-4zM160 64h4v4h-4zM164 64h4v4h-4zM168 64h4v4h-4zM172 64h4v4h-4zM176 64h4v4h-4zM180 64h4v4h-4zM184 64h4v4h-4zM188 64h4v4h-4z"/><path fill="#3FF8FA" d="M192 64h4v4h-4zM196 64h4v4h-4z"/><path fill="#316B86" d="M200 64h4v4h-4zM204 64h4v4h-4zM208 64h4v4h-4zM212 64h4v4h-4zM216 64h4v4h-4zM220 64h4v4h-4zM224 64h4v4h-4zM228 64h4v4h-4zM232 64h4v4h-4z"/><path fill="#224F54" d="M236 64h4v4h-4zM56 68h4v4h-4z"/><path fill="#316B86" d="M60 68h4v4h-4zM64 68h4v4h-4zM68 68h4v4h-4zM72 68h4v4h-4zM76 68h4v4h-4zM80 68h4v4h-4zM84 68h4v4h-4zM88 68h4v4h-4zM92 68h4v4h-4z"/><path fill="#3FF8FA" d="M96 68h4v4h-4z"/><path fill="#316B86" d="M100 68h4v4h-4zM104 68h4v4h-4zM108 68h4v4h-4zM112 68h4v4h-4zM116 68h4v4h-4zM120 68h4v4h-4zM124 68h4v4h-4z"/><path fill="#3FF8FA" d="M128 68h4v4h-4zM132 68h4v4h-4z"/><path fill="#316B86" d="M136 68h4v4h-4zM140 68h4v4h-4zM144 68h4v4h-4zM148 68h4v4h-4zM152 68h4v4h-4zM156 68h4v4h-4zM160 68h4v4h-4zM164 68h4v4h-4zM168 68h4v4h-4zM172 68h4v4h-4zM176 68h4v4h-4zM180 68h4v4h-4zM184 68h4v4h-4zM188 68h4v4h-4zM192 68h4v4h-4z"/><path fill="#3FF8FA" d="M196 68h4v4h-4zM200 68h4v4h-4z"/><path fill="#316B86" d="M204 68h4v4h-4zM208 68h4v4h-4zM212 68h4v4h-4zM216 68h4v4h-4zM220 68h4v4h-4zM224 68h4v4h-4zM228 68h4v4h-4zM232 68h4v4h-4zM236 68h4v4h-4z"/><path fill="#224F54" d="M240 68h4v4h-4zM56 72h4v4h-4z"/><path fill="#316B86" d="M60 72h4v4h-4zM64 72h4v4h-4zM68 72h4v4h-4zM72 72h4v4h-4z"/><path fill="#2C3E46" d="M76 72h4v4h-4z"/><path fill="#316B86" d="M80 72h4v4h-4zM84 72h4v4h-4zM88 72h4v4h-4zM92 72h4v4h-4zM96 72h4v4h-4zM100 72h4v4h-4zM104 72h4v4h-4zM108 72h4v4h-4zM112 72h4v4h-4zM116 72h4v4h-4zM120 72h4v4h-4zM124 72h4v4h-4zM128 72h4v4h-4z"/><path fill="#3FF8FA" d="M132 72h4v4h-4zM136 72h4v4h-4z"/><path fill="#316B86" d="M140 72h4v4h-4zM144 72h4v4h-4zM148 72h4v4h-4zM152 72h4v4h-4zM156 72h4v4h-4zM160 72h4v4h-4zM164 72h4v4h-4zM168 72h4v4h-4zM172 72h4v4h-4zM176 72h4v4h-4zM180 72h4v4h-4zM184 72h4v4h-4zM188 72h4v4h-4zM192 72h4v4h-4zM196 72h4v4h-4z"/><path fill="#3FF8FA" d="M200 72h4v4h-4zM204 72h4v4h-4z"/><path fill="#316B86" d="M208 72h4v4h-4zM212 72h4v4h-4zM216 72h4v4h-4zM220 72h4v4h-4zM224 72h4v4h-4zM228 72h4v4h-4zM232 72h4v4h-4zM236 72h4v4h-4zM240 72h4v4h-4z"/><path fill="#224F54" d="M244 72h4v4h-4zM248 72h4v4h-4zM56 76h4v4h-4z"/><path fill="#316B86" d="M60 76h4v4h-4zM64 76h4v4h-4zM68 76h4v4h-4zM72 76h4v4h-4z"/><path fill="#2C3E46" d="M76 76h4v4h-4zM80 76h4v4h-4z"/><path fill="#316B86" d="M84 76h4v4h-4zM88 76h4v4h-4zM92 76h4v4h-4zM96 76h4v4h-4zM100 76h4v4h-4zM104 76h4v4h-4zM108 76h4v4h-4zM112 76h4v4h-4zM116 76h4v4h-4zM120 76h4v4h-4zM124 76h4v4h-4zM128 76h4v4h-4zM132 76h4v4h-4z"/><path fill="#3FF8FA" d="M136 76h4v4h-4zM140 76h4v4h-4z"/><path fill="#316B86" d="M144 76h4v4h-4zM148 76h4v4h-4zM152 76h4v4h-4zM156 76h4v4h-4zM160 76h4v4h-4zM164 76h4v4h-4zM168 76h4v4h-4zM172 76h4v4h-4zM176 76h4v4h-4zM180 76h4v4h-4zM184 76h4v4h-4zM188 76h4v4h-4zM192 76h4v4h-4zM196 76h4v4h-4zM200 76h4v4h-4z"/><path fill="#3FF8FA" d="M204 76h4v4h-4zM208 76h4v4h-4z"/><path fill="#316B86" d="M212 76h4v4h-4zM216 76h4v4h-4zM220 76h4v4h-4zM224 76h4v4h-4zM228 76h4v4h-4zM232 76h4v4h-4zM236 76h4v4h-4zM240 76h4v4h-4z"/><path fill="#2F596D" d="M244 76h4v4h-4zM248 76h4v4h-4z"/><path fill="#224F54" d="M252 76h4v4h-4zM56 80h4v4h-4z"/><path fill="#316B86" d="M60 80h4v4h-4zM64 80h4v4h-4zM68 80h4v4h-4zM72 80h4v4h-4z"/><path fill="#2C3E46" d="M76 80h4v4h-4zM80 80h4v4h-4zM84 80h4v4h-4z"/><path fill="#316B86" d="M88 80h4v4h-4zM92 80h4v4h-4zM96 80h4v4h-4zM100 80h4v4h-4zM104 80h4v4h-4zM108 80h4v4h-4zM112 80h4v4h-4zM116 80h4v4h-4zM120 80h4v4h-4zM124 80h4v4h-4zM128 80h4v4h-4zM132 80h4v4h-4zM136 80h4v4h-4z"/><path fill="#3FF8FA" d="M140 80h4v4h-4zM144 80h4v4h-4z"/><path fill="#316B86" d="M148 80h4v4h-4zM152 80h4v4h-4zM156 80h4v4h-4zM160 80h4v4h-4zM164 80h4v4h-4zM168 80h4v4h-4zM172 80h4v4h-4zM176 80h4v4h-4zM180 80h4v4h-4zM184 80h4v4h-4zM188 80h4v4h-4zM192 80h4v4h-4zM196 80h4v4h-4zM200 80h4v4h-4zM204 80h4v4h-4z"/><path fill="#3FF8FA" d="M208 80h4v4h-4zM212 80h4v4h-4z"/><path fill="#316B86" d="M216 80h4v4h-4zM220 80h4v4h-4zM224 80h4v4h-4z"/><path fill="#2F596D" d="M228 80h4v4h-4zM232 80h4v4h-4zM236 80h4v4h-4zM240 80h4v4h-4z"/><path fill="#316B86" d="M244 80h4v4h-4zM248 80h4v4h-4zM252 80h4v4h-4z"/><path fill="#224F54" d="M256 80h4v4h-4zM56 84h4v4h-4z"/><path fill="#2C3E46" d="M60 84h4v4h-4z"/><path fill="#316B86" d="M64 84h4v4h-4zM68 84h4v4h-4zM72 84h4v4h-4z"/><path fill="#2C3E46" d="M76 84h4v4h-4zM80 84h4v4h-4zM84 84h4v4h-4zM88 84h4v4h-4z"/><path fill="#316B86" d="M92 84h4v4h-4zM96 84h4v4h-4zM100 84h4v4h-4zM104 84h4v4h-4zM108 84h4v4h-4zM112 84h4v4h-4zM116 84h4v4h-4zM120 84h4v4h-4zM124 84h4v4h-4zM128 84h4v4h-4zM132 84h4v4h-4zM136 84h4v4h-4zM140 84h4v4h-4z"/><path fill="#3FF8FA" d="M144 84h4v4h-4zM148 84h4v4h-4z"/><path fill="#316B86" d="M152 84h4v4h-4zM156 84h4v4h-4zM160 84h4v4h-4zM164 84h4v4h-4zM168 84h4v4h-4zM172 84h4v4h-4zM176 84h4v4h-4zM180 84h4v4h-4zM184 84h4v4h-4zM188 84h4v4h-4zM192 84h4v4h-4zM196 84h4v4h-4zM200 84h4v4h-4zM204 84h4v4h-4zM208 84h4v4h-4z"/><path fill="#3FF8FA" d="M212 84h4v4h-4zM216 84h4v4h-4z"/><path fill="#2F596D" d="M220 84h4v4h-4zM224 84h4v4h-4z"/><path fill="#316B86" d="M228 84h4v4h-4zM232 84h4v4h-4zM236 84h4v4h-4zM240 84h4v4h-4zM244 84h4v4h-4zM248 84h4v4h-4zM252 84h4v4h-4zM256 84h4v4h-4z"/><path fill="#224F54" d="M260 84h4v4h-4zM56 88h4v4h-4z"/><path fill="#2C3E46" d="M60 88h4v4h-4zM64 88h4v4h-4z"/><path fill="#316B86" d="M68 88h4v4h-4zM72 88h4v4h-4z"/><path fill="#2C3E46" d="M76 88h4v4h-4zM80 88h4v4h-4zM84 88h4v4h-4zM88 88h4v4h-4zM92 88h4v4h-4z"/><path fill="#316B86" d="M96 88h4v4h-4zM100 88h4v4h-4zM104 88h4v4h-4zM108 88h4v4h-4zM112 88h4v4h-4zM116 88h4v4h-4zM120 88h4v4h-4zM124 88h4v4h-4zM128 88h4v4h-4zM132 88h4v4h-4zM136 88h4v4h-4zM140 88h4v4h-4zM144 88h4v4h-4z"/><path fill="#3FF8FA" d="M148 88h4v4h-4zM152 88h4v4h-4z"/><path fill="#316B86" d="M156 88h4v4h-4zM160 88h4v4h-4zM164 88h4v4h-4zM168 88h4v4h-4zM172 88h4v4h-4zM176 88h4v4h-4zM180 88h4v4h-4zM184 88h4v4h-4zM188 88h4v4h-4zM192 88h4v4h-4zM196 88h4v4h-4zM200 88h4v4h-4zM204 88h4v4h-4zM208 88h4v4h-4zM212 88h4v4h-4zM216 88h4v4h-4zM220 88h4v4h-4zM224 88h4v4h-4zM228 88h4v4h-4zM232 88h4v4h-4zM236 88h4v4h-4zM240 88h4v4h-4zM244 88h4v4h-4zM248 88h4v4h-4zM252 88h4v4h-4zM256 88h4v4h-4zM260 88h4v4h-4z"/><path fill="#224F54" d="M264 88h4v4h-4zM56 92h4v4h-4z"/><path fill="#2C3E46" d="M60 92h4v4h-4zM64 92h4v4h-4zM68 92h4v4h-4z"/><path fill="#316B86" d="M72 92h4v4h-4z"/><path fill="#2C3E46" d="M76 92h4v4h-4zM80 92h4v4h-4z"/><path fill="#B5367B" d="M84 92h4v4h-4z"/><path fill="#2C3E46" d="M88 92h4v4h-4zM92 92h4v4h-4zM96 92h4v4h-4zM100 92h4v4h-4z"/><path fill="#2F596D" d="M104 92h4v4h-4zM108 92h4v4h-4zM112 92h4v4h-4zM116 92h4v4h-4zM120 92h4v4h-4zM124 92h4v4h-4zM128 92h4v4h-4zM132 92h4v4h-4zM136 92h4v4h-4zM140 92h4v4h-4zM144 92h4v4h-4zM148 92h4v4h-4z"/><path fill="#3FF8FA" d="M152 92h4v4h-4zM156 92h4v4h-4z"/><path fill="#316B86" d="M160 92h4v4h-4zM164 92h4v4h-4zM168 92h4v4h-4zM172 92h4v4h-4zM176 92h4v4h-4zM180 92h4v4h-4zM184 92h4v4h-4zM188 92h4v4h-4zM192 92h4v4h-4zM196 92h4v4h-4zM200 92h4v4h-4zM204 92h4v4h-4zM208 92h4v4h-4zM212 92h4v4h-4zM216 92h4v4h-4z"/><path fill="#3FF8FA" d="M220 92h4v4h-4zM224 92h4v4h-4z"/><path fill="#316B86" d="M228 92h4v4h-4zM232 92h4v4h-4zM236 92h4v4h-4zM240 92h4v4h-4zM244 92h4v4h-4zM248 92h4v4h-4zM252 92h4v4h-4zM256 92h4v4h-4zM260 92h4v4h-4zM264 92h4v4h-4z"/><path fill="#224F54" d="M268 92h4v4h-4zM56 96h4v4h-4z"/><path fill="#2C3E46" d="M60 96h4v4h-4zM64 96h4v4h-4zM68 96h4v4h-4zM72 96h4v4h-4zM76 96h4v4h-4zM80 96h4v4h-4z"/><path fill="#B5367B" d="M84 96h4v4h-4zM88 96h4v4h-4z"/><path fill="#2C3E46" d="M92 96h4v4h-4zM96 96h4v4h-4zM100 96h4v4h-4zM104 96h4v4h-4z"/><path fill="#316B86" d="M108 96h4v4h-4zM112 96h4v4h-4zM116 96h4v4h-4zM120 96h4v4h-4zM124 96h4v4h-4zM128 96h4v4h-4zM132 96h4v4h-4zM136 96h4v4h-4zM140 96h4v4h-4zM144 96h4v4h-4zM148 96h4v4h-4zM152 96h4v4h-4zM156 96h4v4h-4zM160 96h4v4h-4zM164 96h4v4h-4zM168 96h4v4h-4zM172 96h4v4h-4zM176 96h4v4h-4zM180 96h4v4h-4zM184 96h4v4h-4zM188 96h4v4h-4zM192 96h4v4h-4zM196 96h4v4h-4zM200 96h4v4h-4zM204 96h4v4h-4zM208 96h4v4h-4zM212 96h4v4h-4zM216 96h4v4h-4zM220 96h4v4h-4z"/><path fill="#3FF8FA" d="M224 96h4v4h-4zM228 96h4v4h-4z"/><path fill="#316B86" d="M232 96h4v4h-4zM236 96h4v4h-4zM240 96h4v4h-4zM244 96h4v4h-4zM248 96h4v4h-4z"/><path fill="#394A52" d="M252 96h4v4h-4zM256 96h4v4h-4zM260 96h4v4h-4zM264 96h4v4h-4z"/><path fill="#316B86" d="M268 96h4v4h-4z"/><path fill="#224F54" d="M272 96h4v4h-4zM56 100h4v4h-4z"/><path fill="#2C3E46" d="M60 100h4v4h-4zM64 100h4v4h-4zM68 100h4v4h-4zM72 100h4v4h-4zM76 100h4v4h-4zM80 100h4v4h-4zM84 100h4v4h-4z"/><path fill="#B5367B" d="M88 100h4v4h-4z"/><path fill="#2C3E46" d="M92 100h4v4h-4zM96 100h4v4h-4zM100 100h4v4h-4zM104 100h4v4h-4zM108 100h4v4h-4z"/><path fill="#316B86" d="M112 100h4v4h-4zM116 100h4v4h-4zM120 100h4v4h-4zM124 100h4v4h-4zM128 100h4v4h-4zM132 100h4v4h-4zM136 100h4v4h-4zM140 100h4v4h-4zM144 100h4v4h-4zM148 100h4v4h-4zM152 100h4v4h-4zM156 100h4v4h-4z"/><path fill="#3FF8FA" d="M160 100h4v4h-4zM164 100h4v4h-4z"/><path fill="#316B86" d="M168 100h4v4h-4zM172 100h4v4h-4zM176 100h4v4h-4zM180 100h4v4h-4zM184 100h4v4h-4zM188 100h4v4h-4zM192 100h4v4h-4zM196 100h4v4h-4zM200 100h4v4h-4zM204 100h4v4h-4zM208 100h4v4h-4zM212 100h4v4h-4z"/><path fill="#394A52" d="M216 100h4v4h-4zM220 100h4v4h-4z"/><path fill="#2C3E46" d="M224 100h4v4h-4zM228 100h4v4h-4zM232 100h4v4h-4zM236 100h4v4h-4z"/><path fill="#394A52" d="M240 100h4v4h-4zM244 100h4v4h-4zM248 100h4v4h-4zM252 100h4v4h-4zM256 100h4v4h-4zM260 100h4v4h-4zM264 100h4v4h-4zM268 100h4v4h-4z"/><path fill="#224F54" d="M272 100h4v4h-4zM56 104h4v4h-4z"/><path fill="#2C3E46" d="M60 104h4v4h-4zM64 104h4v4h-4zM68 104h4v4h-4zM72 104h4v4h-4zM76 104h4v4h-4zM80 104h4v4h-4zM84 104h4v4h-4zM88 104h4v4h-4zM92 104h4v4h-4z"/><path fill="#B5367B" d="M96 104h4v4h-4z"/><path fill="#2C3E46" d="M100 104h4v4h-4zM104 104h4v4h-4zM108 104h4v4h-4zM112 104h4v4h-4z"/><path fill="#316B86" d="M116 104h4v4h-4zM120 104h4v4h-4zM124 104h4v4h-4zM128 104h4v4h-4zM132 104h4v4h-4zM136 104h4v4h-4zM140 104h4v4h-4zM144 104h4v4h-4zM148 104h4v4h-4zM152 104h4v4h-4zM156 104h4v4h-4zM160 104h4v4h-4z"/><path fill="#3FF8FA" d="M164 104h4v4h-4zM168 104h4v4h-4z"/><path fill="#316B86" d="M172 104h4v4h-4zM176 104h4v4h-4zM180 104h4v4h-4z"/><path fill="#394A52" d="M184 104h4v4h-4zM188 104h4v4h-4zM192 104h4v4h-4zM196 104h4v4h-4zM200 104h4v4h-4zM204 104h4v4h-4zM208 104h4v4h-4zM212 104h4v4h-4zM216 104h4v4h-4zM220 104h4v4h-4z"/><path fill="#2C3E46" d="M224 104h4v4h-4zM228 104h4v4h-4zM232 104h4v4h-4zM236 104h4v4h-4z"/><path fill="#394A52" d="M240 104h4v4h-4zM244 104h4v4h-4zM248 104h4v4h-4zM252 104h4v4h-4zM256 104h4v4h-4zM260 104h4v4h-4zM264 104h4v4h-4zM268 104h4v4h-4z"/><path fill="#224F54" d="M272 104h4v4h-4zM56 108h4v4h-4z"/><path fill="#2C3E46" d="M60 108h4v4h-4zM64 108h4v4h-4zM68 108h4v4h-4zM72 108h4v4h-4zM76 108h4v4h-4zM80 108h4v4h-4zM84 108h4v4h-4zM88 108h4v4h-4zM92 108h4v4h-4z"/><path fill="#B5367B" d="M96 108h4v4h-4z"/><path fill="#2C3E46" d="M100 108h4v4h-4zM104 108h4v4h-4zM108 108h4v4h-4zM112 108h4v4h-4zM116 108h4v4h-4z"/><path fill="#316B86" d="M120 108h4v4h-4zM124 108h4v4h-4zM128 108h4v4h-4zM132 108h4v4h-4zM136 108h4v4h-4zM140 108h4v4h-4zM144 108h4v4h-4z"/><path fill="#394A52" d="M148 108h4v4h-4zM152 108h4v4h-4z"/><path fill="#2C3E46" d="M156 108h4v4h-4zM160 108h4v4h-4zM164 108h4v4h-4zM168 108h4v4h-4z"/><path fill="#394A52" d="M172 108h4v4h-4zM176 108h4v4h-4zM180 108h4v4h-4zM184 108h4v4h-4zM188 108h4v4h-4zM192 108h4v4h-4zM196 108h4v4h-4zM200 108h4v4h-4zM204 108h4v4h-4zM208 108h4v4h-4zM212 108h4v4h-4zM216 108h4v4h-4zM220 108h4v4h-4z"/><path fill="#2C3E46" d="M224 108h4v4h-4zM228 108h4v4h-4zM232 108h4v4h-4zM236 108h4v4h-4z"/><path fill="#394A52" d="M240 108h4v4h-4zM244 108h4v4h-4zM248 108h4v4h-4zM252 108h4v4h-4zM256 108h4v4h-4zM260 108h4v4h-4zM264 108h4v4h-4zM268 108h4v4h-4z"/><path fill="#224F54" d="M272 108h4v4h-4zM56 112h4v4h-4z"/><path fill="#2C3E46" d="M60 112h4v4h-4zM64 112h4v4h-4zM68 112h4v4h-4zM72 112h4v4h-4zM76 112h4v4h-4zM80 112h4v4h-4zM84 112h4v4h-4zM88 112h4v4h-4zM92 112h4v4h-4zM96 112h4v4h-4zM100 112h4v4h-4zM104 112h4v4h-4zM108 112h4v4h-4zM112 112h4v4h-4zM116 112h4v4h-4zM120 112h4v4h-4z"/><path fill="#316B86" d="M124 112h4v4h-4z"/><path fill="#394A52" d="M128 112h4v4h-4zM132 112h4v4h-4zM136 112h4v4h-4zM140 112h4v4h-4zM144 112h4v4h-4zM148 112h4v4h-4zM152 112h4v4h-4zM156 112h4v4h-4z"/><path fill="#2C3E46" d="M160 112h4v4h-4zM164 112h4v4h-4zM168 112h4v4h-4zM172 112h4v4h-4z"/><path fill="#394A52" d="M176 112h4v4h-4zM180 112h4v4h-4zM184 112h4v4h-4zM188 112h4v4h-4zM192 112h4v4h-4zM196 112h4v4h-4zM200 112h4v4h-4zM204 112h4v4h-4zM208 112h4v4h-4zM212 112h4v4h-4zM216 112h4v4h-4zM220 112h4v4h-4z"/><path fill="#2C3E46" d="M224 112h4v4h-4zM228 112h4v4h-4zM232 112h4v4h-4zM236 112h4v4h-4z"/><path fill="#394A52" d="M240 112h4v4h-4zM244 112h4v4h-4zM248 112h4v4h-4zM252 112h4v4h-4zM256 112h4v4h-4zM260 112h4v4h-4zM264 112h4v4h-4zM268 112h4v4h-4z"/><path fill="#224F54" d="M272 112h4v4h-4zM56 116h4v4h-4z"/><path fill="#2C3E46" d="M60 116h4v4h-4zM64 116h4v4h-4zM68 116h4v4h-4zM72 116h4v4h-4zM76 116h4v4h-4zM80 116h4v4h-4zM84 116h4v4h-4zM88 116h4v4h-4zM92 116h4v4h-4zM96 116h4v4h-4zM100 116h4v4h-4zM104 116h4v4h-4zM108 116h4v4h-4zM112 116h4v4h-4zM116 116h4v4h-4zM120 116h4v4h-4z"/><path fill="#394A52" d="M124 116h4v4h-4zM128 116h4v4h-4zM132 116h4v4h-4zM136 116h4v4h-4zM140 116h4v4h-4zM144 116h4v4h-4zM148 116h4v4h-4zM152 116h4v4h-4zM156 116h4v4h-4z"/><path fill="#2C3E46" d="M160 116h4v4h-4zM164 116h4v4h-4zM168 116h4v4h-4zM172 116h4v4h-4z"/><path fill="#394A52" d="M176 116h4v4h-4zM180 116h4v4h-4zM184 116h4v4h-4zM188 116h4v4h-4zM192 116h4v4h-4z"/><path fill="#425F6C" d="M196 116h4v4h-4zM200 116h4v4h-4zM204 116h4v4h-4zM208 116h4v4h-4z"/><path fill="#394A52" d="M212 116h4v4h-4zM216 116h4v4h-4zM220 116h4v4h-4z"/><path fill="#2C3E46" d="M224 116h4v4h-4zM228 116h4v4h-4zM232 116h4v4h-4zM236 116h4v4h-4z"/><path fill="#394A52" d="M240 116h4v4h-4zM244 116h4v4h-4zM248 116h4v4h-4zM252 116h4v4h-4zM256 116h4v4h-4zM260 116h4v4h-4zM264 116h4v4h-4zM268 116h4v4h-4z"/><path fill="#224F54" d="M272 116h4v4h-4zM56 120h4v4h-4z"/><path fill="#2C3E46" d="M60 120h4v4h-4zM64 120h4v4h-4zM68 120h4v4h-4zM72 120h4v4h-4zM76 120h4v4h-4zM80 120h4v4h-4zM84 120h4v4h-4zM88 120h4v4h-4zM92 120h4v4h-4zM96 120h4v4h-4zM100 120h4v4h-4zM104 120h4v4h-4zM108 120h4v4h-4zM112 120h4v4h-4zM116 120h4v4h-4zM120 120h4v4h-4z"/><path fill="#394A52" d="M124 120h4v4h-4zM128 120h4v4h-4zM132 120h4v4h-4zM136 120h4v4h-4zM140 120h4v4h-4zM144 120h4v4h-4zM148 120h4v4h-4zM152 120h4v4h-4zM156 120h4v4h-4z"/><path fill="#2C3E46" d="M160 120h4v4h-4zM164 120h4v4h-4zM168 120h4v4h-4zM172 120h4v4h-4z"/><path fill="#394A52" d="M176 120h4v4h-4zM180 120h4v4h-4zM184 120h4v4h-4zM188 120h4v4h-4z"/><path fill="#425F6C" d="M192 120h4v4h-4zM196 120h4v4h-4zM200 120h4v4h-4zM204 120h4v4h-4zM208 120h4v4h-4zM212 120h4v4h-4z"/><path fill="#394A52" d="M216 120h4v4h-4zM220 120h4v4h-4z"/><path fill="#2C3E46" d="M224 120h4v4h-4zM228 120h4v4h-4zM232 120h4v4h-4zM236 120h4v4h-4z"/><path fill="#394A52" d="M240 120h4v4h-4zM244 120h4v4h-4zM248 120h4v4h-4zM252 120h4v4h-4zM256 120h4v4h-4zM260 120h4v4h-4zM264 120h4v4h-4zM268 120h4v4h-4z"/><path fill="#224F54" d="M272 120h4v4h-4zM56 124h4v4h-4z"/><path fill="#2C3E46" d="M60 124h4v4h-4zM64 124h4v4h-4zM68 124h4v4h-4zM72 124h4v4h-4zM76 124h4v4h-4zM80 124h4v4h-4zM84 124h4v4h-4zM88 124h4v4h-4zM92 124h4v4h-4zM96 124h4v4h-4zM100 124h4v4h-4zM104 124h4v4h-4zM108 124h4v4h-4zM112 124h4v4h-4zM116 124h4v4h-4zM120 124h4v4h-4z"/><path fill="#394A52" d="M124 124h4v4h-4zM128 124h4v4h-4zM132 124h4v4h-4zM136 124h4v4h-4zM140 124h4v4h-4zM144 124h4v4h-4zM148 124h4v4h-4zM152 124h4v4h-4zM156 124h4v4h-4z"/><path fill="#2C3E46" d="M160 124h4v4h-4zM164 124h4v4h-4zM168 124h4v4h-4zM172 124h4v4h-4z"/><path fill="#394A52" d="M176 124h4v4h-4zM180 124h4v4h-4zM184 124h4v4h-4z"/><path fill="#425F6C" d="M188 124h4v4h-4zM192 124h4v4h-4zM196 124h4v4h-4zM200 124h4v4h-4z"/><path fill="#3FF8FA" d="M204 124h4v4h-4zM208 124h4v4h-4z"/><path fill="#425F6C" d="M212 124h4v4h-4zM216 124h4v4h-4z"/><path fill="#394A52" d="M220 124h4v4h-4z"/><path fill="#2C3E46" d="M224 124h4v4h-4zM228 124h4v4h-4zM232 124h4v4h-4zM236 124h4v4h-4zM240 124h4v4h-4z"/><path fill="#394A52" d="M244 124h4v4h-4zM248 124h4v4h-4zM252 124h4v4h-4zM256 124h4v4h-4zM260 124h4v4h-4zM264 124h4v4h-4zM268 124h4v4h-4z"/><path fill="#224F54" d="M272 124h4v4h-4zM56 128h4v4h-4z"/><path fill="#2C3E46" d="M60 128h4v4h-4zM64 128h4v4h-4zM68 128h4v4h-4zM72 128h4v4h-4zM76 128h4v4h-4zM80 128h4v4h-4zM84 128h4v4h-4zM88 128h4v4h-4zM92 128h4v4h-4zM96 128h4v4h-4zM100 128h4v4h-4zM104 128h4v4h-4zM108 128h4v4h-4zM112 128h4v4h-4zM116 128h4v4h-4zM120 128h4v4h-4z"/><path fill="#394A52" d="M124 128h4v4h-4zM128 128h4v4h-4zM132 128h4v4h-4zM136 128h4v4h-4zM140 128h4v4h-4zM144 128h4v4h-4zM148 128h4v4h-4zM152 128h4v4h-4z"/><path fill="#2C3E46" d="M156 128h4v4h-4zM160 128h4v4h-4zM164 128h4v4h-4zM168 128h4v4h-4zM172 128h4v4h-4z"/><path fill="#394A52" d="M176 128h4v4h-4zM180 128h4v4h-4zM184 128h4v4h-4z"/><path fill="#425F6C" d="M188 128h4v4h-4zM192 128h4v4h-4zM196 128h4v4h-4z"/><path fill="#3FF8FA" d="M200 128h4v4h-4zM204 128h4v4h-4zM208 128h4v4h-4zM212 128h4v4h-4z"/><path fill="#425F6C" d="M216 128h4v4h-4z"/><path fill="#394A52" d="M220 128h4v4h-4z"/><path fill="#2C3E46" d="M224 128h4v4h-4zM228 128h4v4h-4zM232 128h4v4h-4zM236 128h4v4h-4z"/><path fill="#394A52" d="M240 128h4v4h-4zM244 128h4v4h-4zM248 128h4v4h-4zM252 128h4v4h-4zM256 128h4v4h-4z"/><path fill="#2C3E46" d="M260 128h4v4h-4zM264 128h4v4h-4zM268 128h4v4h-4z"/><path fill="#224F54" d="M272 128h4v4h-4zM56 132h4v4h-4z"/><path fill="#2C3E46" d="M60 132h4v4h-4zM64 132h4v4h-4zM68 132h4v4h-4zM72 132h4v4h-4zM76 132h4v4h-4zM80 132h4v4h-4zM84 132h4v4h-4zM88 132h4v4h-4zM92 132h4v4h-4zM96 132h4v4h-4zM100 132h4v4h-4zM104 132h4v4h-4zM108 132h4v4h-4zM112 132h4v4h-4zM116 132h4v4h-4zM120 132h4v4h-4z"/><path fill="#394A52" d="M124 132h4v4h-4zM128 132h4v4h-4zM132 132h4v4h-4zM136 132h4v4h-4zM140 132h4v4h-4zM144 132h4v4h-4zM148 132h4v4h-4zM152 132h4v4h-4zM156 132h4v4h-4z"/><path fill="#2C3E46" d="M160 132h4v4h-4zM164 132h4v4h-4zM168 132h4v4h-4zM172 132h4v4h-4z"/><path fill="#394A52" d="M176 132h4v4h-4zM180 132h4v4h-4zM184 132h4v4h-4z"/><path fill="#425F6C" d="M188 132h4v4h-4zM192 132h4v4h-4z"/><path fill="#3FF8FA" d="M196 132h4v4h-4zM200 132h4v4h-4zM204 132h4v4h-4zM208 132h4v4h-4zM212 132h4v4h-4zM216 132h4v4h-4z"/><path fill="#394A52" d="M220 132h4v4h-4z"/><path fill="#2C3E46" d="M224 132h4v4h-4zM228 132h4v4h-4zM232 132h4v4h-4zM236 132h4v4h-4zM240 132h4v4h-4zM244 132h4v4h-4zM248 132h4v4h-4zM252 132h4v4h-4zM256 132h4v4h-4zM260 132h4v4h-4z"/><path fill="#425F6C" d="M264 132h4v4h-4zM268 132h4v4h-4z"/><path fill="#224F54" d="M272 132h4v4h-4zM56 136h4v4h-4z"/><path fill="#2C3E46" d="M60 136h4v4h-4zM64 136h4v4h-4zM68 136h4v4h-4zM72 136h4v4h-4zM76 136h4v4h-4zM80 136h4v4h-4zM84 136h4v4h-4zM88 136h4v4h-4zM92 136h4v4h-4zM96 136h4v4h-4zM100 136h4v4h-4zM104 136h4v4h-4zM108 136h4v4h-4zM112 136h4v4h-4zM116 136h4v4h-4zM120 136h4v4h-4z"/><path fill="#394A52" d="M124 136h4v4h-4zM128 136h4v4h-4zM132 136h4v4h-4zM136 136h4v4h-4zM140 136h4v4h-4zM144 136h4v4h-4zM148 136h4v4h-4z"/><path fill="#2C3E46" d="M152 136h4v4h-4zM156 136h4v4h-4zM160 136h4v4h-4zM164 136h4v4h-4zM168 136h4v4h-4zM172 136h4v4h-4z"/><path fill="#394A52" d="M176 136h4v4h-4zM180 136h4v4h-4zM184 136h4v4h-4z"/><path fill="#425F6C" d="M188 136h4v4h-4zM192 136h4v4h-4z"/><path fill="#3FF8FA" d="M196 136h4v4h-4zM200 136h4v4h-4zM204 136h4v4h-4zM208 136h4v4h-4zM212 136h4v4h-4zM216 136h4v4h-4z"/><path fill="#394A52" d="M220 136h4v4h-4z"/><path fill="#2C3E46" d="M224 136h4v4h-4zM228 136h4v4h-4zM232 136h4v4h-4zM236 136h4v4h-4z"/><path fill="#425F6C" d="M240 136h4v4h-4zM244 136h4v4h-4zM248 136h4v4h-4zM252 136h4v4h-4zM256 136h4v4h-4zM260 136h4v4h-4z"/><path fill="#394A52" d="M264 136h4v4h-4zM268 136h4v4h-4z"/><path fill="#224F54" d="M272 136h4v4h-4zM56 140h4v4h-4z"/><path fill="#2C3E46" d="M60 140h4v4h-4zM64 140h4v4h-4zM68 140h4v4h-4zM72 140h4v4h-4zM76 140h4v4h-4zM80 140h4v4h-4zM84 140h4v4h-4zM88 140h4v4h-4zM92 140h4v4h-4zM96 140h4v4h-4zM100 140h4v4h-4z"/><path fill="#2FC2C3" d="M104 140h4v4h-4z"/><path fill="#2C3E46" d="M108 140h4v4h-4zM112 140h4v4h-4zM116 140h4v4h-4zM120 140h4v4h-4zM124 140h4v4h-4zM128 140h4v4h-4zM132 140h4v4h-4zM136 140h4v4h-4zM140 140h4v4h-4zM144 140h4v4h-4zM148 140h4v4h-4zM152 140h4v4h-4z"/><path fill="#425F6C" d="M156 140h4v4h-4z"/><path fill="#2C3E46" d="M160 140h4v4h-4zM164 140h4v4h-4zM168 140h4v4h-4zM172 140h4v4h-4z"/><path fill="#394A52" d="M176 140h4v4h-4zM180 140h4v4h-4zM184 140h4v4h-4zM188 140h4v4h-4z"/><path fill="#425F6C" d="M192 140h4v4h-4zM196 140h4v4h-4z"/><path fill="#3FF8FA" d="M200 140h4v4h-4zM204 140h4v4h-4zM208 140h4v4h-4zM212 140h4v4h-4z"/><path fill="#425F6C" d="M216 140h4v4h-4z"/><path fill="#394A52" d="M220 140h4v4h-4z"/><path fill="#2C3E46" d="M224 140h4v4h-4zM228 140h4v4h-4zM232 140h4v4h-4zM236 140h4v4h-4z"/><path fill="#394A52" d="M240 140h4v4h-4zM244 140h4v4h-4zM248 140h4v4h-4zM252 140h4v4h-4zM256 140h4v4h-4zM260 140h4v4h-4zM264 140h4v4h-4zM268 140h4v4h-4z"/><path fill="#224F54" d="M272 140h4v4h-4zM56 144h4v4h-4z"/><path fill="#2C3E46" d="M60 144h4v4h-4zM64 144h4v4h-4zM68 144h4v4h-4zM72 144h4v4h-4zM76 144h4v4h-4zM80 144h4v4h-4zM84 144h4v4h-4zM88 144h4v4h-4zM92 144h4v4h-4zM96 144h4v4h-4z"/><path fill="#2FC2C3" d="M100 144h4v4h-4zM104 144h4v4h-4z"/><path fill="#2C3E46" d="M108 144h4v4h-4zM112 144h4v4h-4zM116 144h4v4h-4zM120 144h4v4h-4z"/><path fill="#425F6C" d="M124 144h4v4h-4zM128 144h4v4h-4zM132 144h4v4h-4zM136 144h4v4h-4zM140 144h4v4h-4zM144 144h4v4h-4zM148 144h4v4h-4zM152 144h4v4h-4z"/><path fill="#394A52" d="M156 144h4v4h-4z"/><path fill="#2C3E46" d="M160 144h4v4h-4zM164 144h4v4h-4zM168 144h4v4h-4zM172 144h4v4h-4z"/><path fill="#394A52" d="M176 144h4v4h-4zM180 144h4v4h-4zM184 144h4v4h-4zM188 144h4v4h-4zM192 144h4v4h-4z"/><path fill="#425F6C" d="M196 144h4v4h-4zM200 144h4v4h-4z"/><path fill="#3FF8FA" d="M204 144h4v4h-4zM208 144h4v4h-4z"/><path fill="#425F6C" d="M212 144h4v4h-4z"/><path fill="#394A52" d="M216 144h4v4h-4zM220 144h4v4h-4z"/><path fill="#2C3E46" d="M224 144h4v4h-4zM228 144h4v4h-4zM232 144h4v4h-4zM236 144h4v4h-4z"/><path fill="#394A52" d="M240 144h4v4h-4zM244 144h4v4h-4zM248 144h4v4h-4zM252 144h4v4h-4zM256 144h4v4h-4zM260 144h4v4h-4zM264 144h4v4h-4zM268 144h4v4h-4z"/><path fill="#224F54" d="M272 144h4v4h-4zM56 148h4v4h-4z"/><path fill="#2C3E46" d="M60 148h4v4h-4zM64 148h4v4h-4zM68 148h4v4h-4zM72 148h4v4h-4zM76 148h4v4h-4zM80 148h4v4h-4zM84 148h4v4h-4zM88 148h4v4h-4zM92 148h4v4h-4z"/><path fill="#2FC2C3" d="M96 148h4v4h-4zM100 148h4v4h-4zM104 148h4v4h-4z"/><path fill="#2C3E46" d="M108 148h4v4h-4zM112 148h4v4h-4zM116 148h4v4h-4zM120 148h4v4h-4z"/><path fill="#394A52" d="M124 148h4v4h-4zM128 148h4v4h-4zM132 148h4v4h-4zM136 148h4v4h-4zM140 148h4v4h-4zM144 148h4v4h-4zM148 148h4v4h-4zM152 148h4v4h-4zM156 148h4v4h-4z"/><path fill="#2C3E46" d="M160 148h4v4h-4zM164 148h4v4h-4zM168 148h4v4h-4zM172 148h4v4h-4z"/><path fill="#394A52" d="M176 148h4v4h-4zM180 148h4v4h-4zM184 148h4v4h-4zM188 148h4v4h-4zM192 148h4v4h-4zM196 148h4v4h-4zM200 148h4v4h-4zM204 148h4v4h-4zM208 148h4v4h-4zM212 148h4v4h-4zM216 148h4v4h-4zM220 148h4v4h-4z"/><path fill="#2C3E46" d="M224 148h4v4h-4zM228 148h4v4h-4zM232 148h4v4h-4zM236 148h4v4h-4z"/><path fill="#394A52" d="M240 148h4v4h-4zM244 148h4v4h-4zM248 148h4v4h-4zM252 148h4v4h-4zM256 148h4v4h-4zM260 148h4v4h-4zM264 148h4v4h-4zM268 148h4v4h-4z"/><path fill="#224F54" d="M272 148h4v4h-4zM56 152h4v4h-4z"/><path fill="#2C3E46" d="M60 152h4v4h-4zM64 152h4v4h-4zM68 152h4v4h-4zM72 152h4v4h-4zM76 152h4v4h-4zM80 152h4v4h-4zM84 152h4v4h-4zM88 152h4v4h-4z"/><path fill="#425F6C" d="M92 152h4v4h-4z"/><path fill="#2FC2C3" d="M96 152h4v4h-4zM100 152h4v4h-4zM104 152h4v4h-4z"/><path fill="#2C3E46" d="M108 152h4v4h-4zM112 152h4v4h-4zM116 152h4v4h-4zM120 152h4v4h-4z"/><path fill="#394A52" d="M124 152h4v4h-4zM128 152h4v4h-4zM132 152h4v4h-4zM136 152h4v4h-4zM140 152h4v4h-4zM144 152h4v4h-4zM148 152h4v4h-4zM152 152h4v4h-4zM156 152h4v4h-4z"/><path fill="#2C3E46" d="M160 152h4v4h-4zM164 152h4v4h-4zM168 152h4v4h-4zM172 152h4v4h-4z"/><path fill="#394A52" d="M176 152h4v4h-4zM180 152h4v4h-4zM184 152h4v4h-4zM188 152h4v4h-4zM192 152h4v4h-4zM196 152h4v4h-4zM200 152h4v4h-4zM204 152h4v4h-4zM208 152h4v4h-4zM212 152h4v4h-4zM216 152h4v4h-4zM220 152h4v4h-4z"/><path fill="#2C3E46" d="M224 152h4v4h-4zM228 152h4v4h-4zM232 152h4v4h-4zM236 152h4v4h-4z"/><path fill="#394A52" d="M240 152h4v4h-4zM244 152h4v4h-4zM248 152h4v4h-4zM252 152h4v4h-4zM256 152h4v4h-4zM260 152h4v4h-4zM264 152h4v4h-4zM268 152h4v4h-4z"/><path fill="#224F54" d="M272 152h4v4h-4zM56 156h4v4h-4z"/><path fill="#2C3E46" d="M60 156h4v4h-4zM64 156h4v4h-4zM68 156h4v4h-4zM72 156h4v4h-4zM76 156h4v4h-4zM80 156h4v4h-4zM84 156h4v4h-4zM88 156h4v4h-4z"/><path fill="#425F6C" d="M92 156h4v4h-4z"/><path fill="#2FC2C3" d="M96 156h4v4h-4zM100 156h4v4h-4zM104 156h4v4h-4z"/><path fill="#2C3E46" d="M108 156h4v4h-4zM112 156h4v4h-4zM116 156h4v4h-4zM120 156h4v4h-4z"/><path fill="#394A52" d="M124 156h4v4h-4zM128 156h4v4h-4zM132 156h4v4h-4zM136 156h4v4h-4zM140 156h4v4h-4zM144 156h4v4h-4zM148 156h4v4h-4zM152 156h4v4h-4zM156 156h4v4h-4z"/><path fill="#2C3E46" d="M160 156h4v4h-4zM164 156h4v4h-4zM168 156h4v4h-4zM172 156h4v4h-4z"/><path fill="#394A52" d="M176 156h4v4h-4zM180 156h4v4h-4zM184 156h4v4h-4zM188 156h4v4h-4zM192 156h4v4h-4zM196 156h4v4h-4zM200 156h4v4h-4zM204 156h4v4h-4zM208 156h4v4h-4zM212 156h4v4h-4zM216 156h4v4h-4z"/><path fill="#2C3E46" d="M220 156h4v4h-4zM224 156h4v4h-4zM228 156h4v4h-4zM232 156h4v4h-4zM236 156h4v4h-4z"/><path fill="#394A52" d="M240 156h4v4h-4zM244 156h4v4h-4zM248 156h4v4h-4zM252 156h4v4h-4zM256 156h4v4h-4zM260 156h4v4h-4zM264 156h4v4h-4zM268 156h4v4h-4z"/><path fill="#224F54" d="M272 156h4v4h-4zM56 160h4v4h-4z"/><path fill="#2C3E46" d="M60 160h4v4h-4zM64 160h4v4h-4zM68 160h4v4h-4zM72 160h4v4h-4zM76 160h4v4h-4zM80 160h4v4h-4zM84 160h4v4h-4zM88 160h4v4h-4z"/><path fill="#425F6C" d="M92 160h4v4h-4z"/><path fill="#2FC2C3" d="M96 160h4v4h-4zM100 160h4v4h-4zM104 160h4v4h-4z"/><path fill="#2C3E46" d="M108 160h4v4h-4zM112 160h4v4h-4zM116 160h4v4h-4zM120 160h4v4h-4z"/><path fill="#394A52" d="M124 160h4v4h-4zM128 160h4v4h-4zM132 160h4v4h-4zM136 160h4v4h-4zM140 160h4v4h-4zM144 160h4v4h-4zM148 160h4v4h-4zM152 160h4v4h-4zM156 160h4v4h-4z"/><path fill="#2C3E46" d="M160 160h4v4h-4zM164 160h4v4h-4zM168 160h4v4h-4zM172 160h4v4h-4zM176 160h4v4h-4z"/><path fill="#394A52" d="M180 160h4v4h-4zM184 160h4v4h-4zM188 160h4v4h-4zM192 160h4v4h-4zM196 160h4v4h-4zM200 160h4v4h-4zM204 160h4v4h-4zM208 160h4v4h-4z"/><path fill="#2C3E46" d="M212 160h4v4h-4zM216 160h4v4h-4zM220 160h4v4h-4zM224 160h4v4h-4zM228 160h4v4h-4zM232 160h4v4h-4zM236 160h4v4h-4z"/><path fill="#394A52" d="M240 160h4v4h-4zM244 160h4v4h-4zM248 160h4v4h-4zM252 160h4v4h-4zM256 160h4v4h-4zM260 160h4v4h-4zM264 160h4v4h-4zM268 160h4v4h-4z"/><path fill="#224F54" d="M272 160h4v4h-4zM56 164h4v4h-4z"/><path fill="#2C3E46" d="M60 164h4v4h-4zM64 164h4v4h-4zM68 164h4v4h-4zM72 164h4v4h-4zM76 164h4v4h-4zM80 164h4v4h-4zM84 164h4v4h-4zM88 164h4v4h-4z"/><path fill="#425F6C" d="M92 164h4v4h-4z"/><path fill="#2FC2C3" d="M96 164h4v4h-4zM100 164h4v4h-4zM104 164h4v4h-4z"/><path fill="#2C3E46" d="M108 164h4v4h-4zM112 164h4v4h-4zM116 164h4v4h-4zM120 164h4v4h-4z"/><path fill="#394A52" d="M124 164h4v4h-4zM128 164h4v4h-4zM132 164h4v4h-4zM136 164h4v4h-4zM140 164h4v4h-4zM144 164h4v4h-4zM148 164h4v4h-4zM152 164h4v4h-4zM156 164h4v4h-4z"/><path fill="#2C3E46" d="M160 164h4v4h-4zM164 164h4v4h-4zM168 164h4v4h-4zM172 164h4v4h-4zM176 164h4v4h-4zM180 164h4v4h-4zM184 164h4v4h-4zM188 164h4v4h-4zM192 164h4v4h-4zM196 164h4v4h-4zM200 164h4v4h-4zM204 164h4v4h-4zM208 164h4v4h-4z"/><path fill="#425F6C" d="M212 164h4v4h-4zM216 164h4v4h-4z"/><path fill="#394A52" d="M220 164h4v4h-4z"/><path fill="#2C3E46" d="M224 164h4v4h-4zM228 164h4v4h-4zM232 164h4v4h-4zM236 164h4v4h-4z"/><path fill="#394A52" d="M240 164h4v4h-4zM244 164h4v4h-4zM248 164h4v4h-4zM252 164h4v4h-4zM256 164h4v4h-4zM260 164h4v4h-4zM264 164h4v4h-4zM268 164h4v4h-4z"/><path fill="#224F54" d="M272 164h4v4h-4zM56 168h4v4h-4z"/><path fill="#2C3E46" d="M60 168h4v4h-4z"/><path fill="#3FF8FA" d="M64 168h4v4h-4z"/><path fill="#2C3E46" d="M68 168h4v4h-4zM72 168h4v4h-4zM76 168h4v4h-4zM80 168h4v4h-4zM84 168h4v4h-4zM88 168h4v4h-4z"/><path fill="#425F6C" d="M92 168h4v4h-4z"/><path fill="#2FC2C3" d="M96 168h4v4h-4zM100 168h4v4h-4zM104 168h4v4h-4z"/><path fill="#2C3E46" d="M108 168h4v4h-4zM112 168h4v4h-4zM116 168h4v4h-4zM120 168h4v4h-4z"/><path fill="#394A52" d="M124 168h4v4h-4zM128 168h4v4h-4zM132 168h4v4h-4zM136 168h4v4h-4zM140 168h4v4h-4zM144 168h4v4h-4zM148 168h4v4h-4zM152 168h4v4h-4zM156 168h4v4h-4z"/><path fill="#2C3E46" d="M160 168h4v4h-4zM164 168h4v4h-4zM168 168h4v4h-4zM172 168h4v4h-4z"/><path fill="#425F6C" d="M176 168h4v4h-4zM180 168h4v4h-4zM184 168h4v4h-4zM188 168h4v4h-4zM192 168h4v4h-4zM196 168h4v4h-4zM200 168h4v4h-4zM204 168h4v4h-4zM208 168h4v4h-4z"/><path fill="#394A52" d="M212 168h4v4h-4zM216 168h4v4h-4zM220 168h4v4h-4z"/><path fill="#2C3E46" d="M224 168h4v4h-4zM228 168h4v4h-4zM232 168h4v4h-4zM236 168h4v4h-4z"/><path fill="#394A52" d="M240 168h4v4h-4zM244 168h4v4h-4zM248 168h4v4h-4zM252 168h4v4h-4zM256 168h4v4h-4zM260 168h4v4h-4zM264 168h4v4h-4zM268 168h4v4h-4z"/><path fill="#224F54" d="M272 168h4v4h-4zM56 172h4v4h-4z"/><path fill="#2C3E46" d="M60 172h4v4h-4zM64 172h4v4h-4zM68 172h4v4h-4zM72 172h4v4h-4zM76 172h4v4h-4zM80 172h4v4h-4zM84 172h4v4h-4zM88 172h4v4h-4z"/><path fill="#425F6C" d="M92 172h4v4h-4z"/><path fill="#2FC2C3" d="M96 172h4v4h-4zM100 172h4v4h-4zM104 172h4v4h-4z"/><path fill="#2C3E46" d="M108 172h4v4h-4zM112 172h4v4h-4zM116 172h4v4h-4zM120 172h4v4h-4z"/><path fill="#394A52" d="M124 172h4v4h-4zM128 172h4v4h-4zM132 172h4v4h-4zM136 172h4v4h-4zM140 172h4v4h-4zM144 172h4v4h-4zM148 172h4v4h-4zM152 172h4v4h-4zM156 172h4v4h-4z"/><path fill="#2C3E46" d="M160 172h4v4h-4zM164 172h4v4h-4zM168 172h4v4h-4zM172 172h4v4h-4z"/><path fill="#394A52" d="M176 172h4v4h-4zM180 172h4v4h-4zM184 172h4v4h-4zM188 172h4v4h-4zM192 172h4v4h-4zM196 172h4v4h-4zM200 172h4v4h-4zM204 172h4v4h-4zM208 172h4v4h-4zM212 172h4v4h-4zM216 172h4v4h-4zM220 172h4v4h-4z"/><path fill="#2C3E46" d="M224 172h4v4h-4zM228 172h4v4h-4zM232 172h4v4h-4zM236 172h4v4h-4z"/><path fill="#394A52" d="M240 172h4v4h-4z"/><path fill="#2C3E46" d="M244 172h4v4h-4z"/><path fill="#394A52" d="M248 172h4v4h-4zM252 172h4v4h-4zM256 172h4v4h-4zM260 172h4v4h-4zM264 172h4v4h-4z"/><path fill="#2C3E46" d="M268 172h4v4h-4z"/><path fill="#224F54" d="M272 172h4v4h-4zM56 176h4v4h-4z"/><path fill="#2C3E46" d="M60 176h4v4h-4zM64 176h4v4h-4zM68 176h4v4h-4zM72 176h4v4h-4zM76 176h4v4h-4zM80 176h4v4h-4zM84 176h4v4h-4zM88 176h4v4h-4z"/><path fill="#425F6C" d="M92 176h4v4h-4z"/><path fill="#2FC2C3" d="M96 176h4v4h-4zM100 176h4v4h-4zM104 176h4v4h-4z"/><path fill="#2C3E46" d="M108 176h4v4h-4zM112 176h4v4h-4zM116 176h4v4h-4zM120 176h4v4h-4z"/><path fill="#394A52" d="M124 176h4v4h-4zM128 176h4v4h-4zM132 176h4v4h-4zM136 176h4v4h-4zM140 176h4v4h-4zM144 176h4v4h-4zM148 176h4v4h-4zM152 176h4v4h-4zM156 176h4v4h-4z"/><path fill="#2C3E46" d="M160 176h4v4h-4zM164 176h4v4h-4zM168 176h4v4h-4zM172 176h4v4h-4z"/><path fill="#394A52" d="M176 176h4v4h-4zM180 176h4v4h-4zM184 176h4v4h-4zM188 176h4v4h-4zM192 176h4v4h-4zM196 176h4v4h-4zM200 176h4v4h-4zM204 176h4v4h-4zM208 176h4v4h-4zM212 176h4v4h-4zM216 176h4v4h-4zM220 176h4v4h-4z"/><path fill="#2C3E46" d="M224 176h4v4h-4zM228 176h4v4h-4zM232 176h4v4h-4zM236 176h4v4h-4z"/><path fill="#394A52" d="M240 176h4v4h-4zM244 176h4v4h-4zM248 176h4v4h-4zM252 176h4v4h-4zM256 176h4v4h-4zM260 176h4v4h-4z"/><path fill="#2C3E46" d="M264 176h4v4h-4zM268 176h4v4h-4z"/><path fill="#224F54" d="M272 176h4v4h-4zM60 180h4v4h-4z"/><path fill="#2C3E46" d="M64 180h4v4h-4zM68 180h4v4h-4zM72 180h4v4h-4zM76 180h4v4h-4zM80 180h4v4h-4zM84 180h4v4h-4zM88 180h4v4h-4z"/><path fill="#425F6C" d="M92 180h4v4h-4z"/><path fill="#2FC2C3" d="M96 180h4v4h-4zM100 180h4v4h-4zM104 180h4v4h-4z"/><path fill="#2C3E46" d="M108 180h4v4h-4zM112 180h4v4h-4zM116 180h4v4h-4zM120 180h4v4h-4z"/><path fill="#394A52" d="M124 180h4v4h-4zM128 180h4v4h-4zM132 180h4v4h-4zM136 180h4v4h-4zM140 180h4v4h-4zM144 180h4v4h-4zM148 180h4v4h-4zM152 180h4v4h-4zM156 180h4v4h-4z"/><path fill="#2C3E46" d="M160 180h4v4h-4zM164 180h4v4h-4zM168 180h4v4h-4zM172 180h4v4h-4z"/><path fill="#394A52" d="M176 180h4v4h-4zM180 180h4v4h-4zM184 180h4v4h-4zM188 180h4v4h-4zM192 180h4v4h-4zM196 180h4v4h-4zM200 180h4v4h-4zM204 180h4v4h-4zM208 180h4v4h-4zM212 180h4v4h-4zM216 180h4v4h-4zM220 180h4v4h-4z"/><path fill="#2C3E46" d="M224 180h4v4h-4zM228 180h4v4h-4zM232 180h4v4h-4zM236 180h4v4h-4zM240 180h4v4h-4zM244 180h4v4h-4zM248 180h4v4h-4zM252 180h4v4h-4zM256 180h4v4h-4zM260 180h4v4h-4zM264 180h4v4h-4z"/><path fill="#425F6C" d="M268 180h4v4h-4z"/><path fill="#224F54" d="M272 180h4v4h-4zM64 184h4v4h-4z"/><path fill="#2C3E46" d="M68 184h4v4h-4zM72 184h4v4h-4zM76 184h4v4h-4zM80 184h4v4h-4zM84 184h4v4h-4zM88 184h4v4h-4z"/><path fill="#425F6C" d="M92 184h4v4h-4z"/><path fill="#2FC2C3" d="M96 184h4v4h-4zM100 184h4v4h-4zM104 184h4v4h-4z"/><path fill="#2C3E46" d="M108 184h4v4h-4zM112 184h4v4h-4zM116 184h4v4h-4zM120 184h4v4h-4z"/><path fill="#394A52" d="M124 184h4v4h-4zM128 184h4v4h-4zM132 184h4v4h-4zM136 184h4v4h-4zM140 184h4v4h-4zM144 184h4v4h-4zM148 184h4v4h-4zM152 184h4v4h-4z"/><path fill="#2C3E46" d="M156 184h4v4h-4zM160 184h4v4h-4zM164 184h4v4h-4zM168 184h4v4h-4zM172 184h4v4h-4z"/><path fill="#394A52" d="M176 184h4v4h-4zM180 184h4v4h-4zM184 184h4v4h-4zM188 184h4v4h-4zM192 184h4v4h-4zM196 184h4v4h-4zM200 184h4v4h-4zM204 184h4v4h-4zM208 184h4v4h-4zM212 184h4v4h-4zM216 184h4v4h-4zM220 184h4v4h-4z"/><path fill="#2C3E46" d="M224 184h4v4h-4zM228 184h4v4h-4zM232 184h4v4h-4zM236 184h4v4h-4z"/><path fill="#425F6C" d="M240 184h4v4h-4zM244 184h4v4h-4zM248 184h4v4h-4zM252 184h4v4h-4zM256 184h4v4h-4zM260 184h4v4h-4zM264 184h4v4h-4z"/><path fill="#394A52" d="M268 184h4v4h-4z"/><path fill="#224F54" d="M272 184h4v4h-4zM68 188h4v4h-4z"/><path fill="#2C3E46" d="M72 188h4v4h-4zM76 188h4v4h-4zM80 188h4v4h-4zM84 188h4v4h-4zM88 188h4v4h-4z"/><path fill="#425F6C" d="M92 188h4v4h-4z"/><path fill="#2FC2C3" d="M96 188h4v4h-4zM100 188h4v4h-4zM104 188h4v4h-4z"/><path fill="#2C3E46" d="M108 188h4v4h-4zM112 188h4v4h-4zM116 188h4v4h-4zM120 188h4v4h-4z"/><path fill="#394A52" d="M124 188h4v4h-4zM128 188h4v4h-4zM132 188h4v4h-4zM136 188h4v4h-4zM140 188h4v4h-4zM144 188h4v4h-4zM148 188h4v4h-4zM152 188h4v4h-4zM156 188h4v4h-4z"/><path fill="#2C3E46" d="M160 188h4v4h-4zM164 188h4v4h-4zM168 188h4v4h-4zM172 188h4v4h-4z"/><path fill="#394A52" d="M176 188h4v4h-4zM180 188h4v4h-4zM184 188h4v4h-4zM188 188h4v4h-4zM192 188h4v4h-4zM196 188h4v4h-4zM200 188h4v4h-4zM204 188h4v4h-4zM208 188h4v4h-4zM212 188h4v4h-4zM216 188h4v4h-4zM220 188h4v4h-4z"/><path fill="#2C3E46" d="M224 188h4v4h-4zM228 188h4v4h-4zM232 188h4v4h-4zM236 188h4v4h-4z"/><path fill="#394A52" d="M240 188h4v4h-4zM244 188h4v4h-4zM248 188h4v4h-4zM252 188h4v4h-4zM256 188h4v4h-4zM260 188h4v4h-4zM264 188h4v4h-4zM268 188h4v4h-4z"/><path fill="#224F54" d="M272 188h4v4h-4zM72 192h4v4h-4z"/><path fill="#2C3E46" d="M76 192h4v4h-4zM80 192h4v4h-4zM84 192h4v4h-4zM88 192h4v4h-4z"/><path fill="#425F6C" d="M92 192h4v4h-4z"/><path fill="#2FC2C3" d="M96 192h4v4h-4zM100 192h4v4h-4z"/><path fill="#2C3E46" d="M104 192h4v4h-4zM108 192h4v4h-4zM112 192h4v4h-4zM116 192h4v4h-4zM120 192h4v4h-4z"/><path fill="#394A52" d="M124 192h4v4h-4zM128 192h4v4h-4zM132 192h4v4h-4zM136 192h4v4h-4zM140 192h4v4h-4zM144 192h4v4h-4zM148 192h4v4h-4z"/><path fill="#2C3E46" d="M152 192h4v4h-4zM156 192h4v4h-4zM160 192h4v4h-4zM164 192h4v4h-4zM168 192h4v4h-4zM172 192h4v4h-4z"/><path fill="#394A52" d="M176 192h4v4h-4zM180 192h4v4h-4zM184 192h4v4h-4zM188 192h4v4h-4zM192 192h4v4h-4zM196 192h4v4h-4zM200 192h4v4h-4zM204 192h4v4h-4zM208 192h4v4h-4zM212 192h4v4h-4zM216 192h4v4h-4zM220 192h4v4h-4z"/><path fill="#2C3E46" d="M224 192h4v4h-4zM228 192h4v4h-4zM232 192h4v4h-4zM236 192h4v4h-4z"/><path fill="#394A52" d="M240 192h4v4h-4zM244 192h4v4h-4zM248 192h4v4h-4zM252 192h4v4h-4zM256 192h4v4h-4zM260 192h4v4h-4zM264 192h4v4h-4zM268 192h4v4h-4z"/><path fill="#224F54" d="M272 192h4v4h-4zM72 196h4v4h-4z"/><path fill="#2C3E46" d="M76 196h4v4h-4zM80 196h4v4h-4zM84 196h4v4h-4zM88 196h4v4h-4z"/><path fill="#425F6C" d="M92 196h4v4h-4z"/><path fill="#2FC2C3" d="M96 196h4v4h-4z"/><path fill="#2C3E46" d="M100 196h4v4h-4zM104 196h4v4h-4zM108 196h4v4h-4zM112 196h4v4h-4zM116 196h4v4h-4zM120 196h4v4h-4zM124 196h4v4h-4zM128 196h4v4h-4zM132 196h4v4h-4zM136 196h4v4h-4zM140 196h4v4h-4zM144 196h4v4h-4zM148 196h4v4h-4z"/><path fill="#425F6C" d="M152 196h4v4h-4zM156 196h4v4h-4z"/><path fill="#2C3E46" d="M160 196h4v4h-4zM164 196h4v4h-4zM168 196h4v4h-4zM172 196h4v4h-4z"/><path fill="#394A52" d="M176 196h4v4h-4zM180 196h4v4h-4zM184 196h4v4h-4zM188 196h4v4h-4zM192 196h4v4h-4zM196 196h4v4h-4zM200 196h4v4h-4zM204 196h4v4h-4zM208 196h4v4h-4zM212 196h4v4h-4zM216 196h4v4h-4zM220 196h4v4h-4z"/><path fill="#2C3E46" d="M224 196h4v4h-4zM228 196h4v4h-4zM232 196h4v4h-4zM236 196h4v4h-4z"/><path fill="#394A52" d="M240 196h4v4h-4zM244 196h4v4h-4zM248 196h4v4h-4zM252 196h4v4h-4zM256 196h4v4h-4zM260 196h4v4h-4zM264 196h4v4h-4zM268 196h4v4h-4z"/><path fill="#224F54" d="M272 196h4v4h-4zM72 200h4v4h-4z"/><path fill="#2C3E46" d="M76 200h4v4h-4zM80 200h4v4h-4zM84 200h4v4h-4zM88 200h4v4h-4z"/><path fill="#394A52" d="M92 200h4v4h-4z"/><path fill="#2C3E46" d="M96 200h4v4h-4zM100 200h4v4h-4zM104 200h4v4h-4zM108 200h4v4h-4zM112 200h4v4h-4zM116 200h4v4h-4zM120 200h4v4h-4z"/><path fill="#425F6C" d="M124 200h4v4h-4zM128 200h4v4h-4zM132 200h4v4h-4zM136 200h4v4h-4zM140 200h4v4h-4zM144 200h4v4h-4zM148 200h4v4h-4z"/><path fill="#394A52" d="M152 200h4v4h-4zM156 200h4v4h-4z"/><path fill="#2C3E46" d="M160 200h4v4h-4zM164 200h4v4h-4zM168 200h4v4h-4zM172 200h4v4h-4z"/><path fill="#394A52" d="M176 200h4v4h-4zM180 200h4v4h-4zM184 200h4v4h-4zM188 200h4v4h-4zM192 200h4v4h-4zM196 200h4v4h-4zM200 200h4v4h-4zM204 200h4v4h-4zM208 200h4v4h-4zM212 200h4v4h-4zM216 200h4v4h-4zM220 200h4v4h-4z"/><path fill="#2C3E46" d="M224 200h4v4h-4zM228 200h4v4h-4zM232 200h4v4h-4zM236 200h4v4h-4z"/><path fill="#394A52" d="M240 200h4v4h-4zM244 200h4v4h-4zM248 200h4v4h-4zM252 200h4v4h-4zM256 200h4v4h-4zM260 200h4v4h-4zM264 200h4v4h-4zM268 200h4v4h-4z"/><path fill="#224F54" d="M272 200h4v4h-4zM72 204h4v4h-4z"/><path fill="#2C3E46" d="M76 204h4v4h-4zM80 204h4v4h-4zM84 204h4v4h-4zM88 204h4v4h-4zM92 204h4v4h-4zM96 204h4v4h-4zM100 204h4v4h-4zM104 204h4v4h-4zM108 204h4v4h-4zM112 204h4v4h-4zM116 204h4v4h-4zM120 204h4v4h-4z"/><path fill="#394A52" d="M124 204h4v4h-4zM128 204h4v4h-4zM132 204h4v4h-4zM136 204h4v4h-4zM140 204h4v4h-4zM144 204h4v4h-4zM148 204h4v4h-4zM152 204h4v4h-4zM156 204h4v4h-4z"/><path fill="#2C3E46" d="M160 204h4v4h-4zM164 204h4v4h-4zM168 204h4v4h-4zM172 204h4v4h-4z"/><path fill="#394A52" d="M176 204h4v4h-4zM180 204h4v4h-4zM184 204h4v4h-4zM188 204h4v4h-4zM192 204h4v4h-4zM196 204h4v4h-4zM200 204h4v4h-4zM204 204h4v4h-4zM208 204h4v4h-4zM212 204h4v4h-4zM216 204h4v4h-4zM220 204h4v4h-4z"/><path fill="#2C3E46" d="M224 204h4v4h-4zM228 204h4v4h-4zM232 204h4v4h-4zM236 204h4v4h-4z"/><path fill="#394A52" d="M240 204h4v4h-4zM244 204h4v4h-4zM248 204h4v4h-4zM252 204h4v4h-4zM256 204h4v4h-4zM260 204h4v4h-4zM264 204h4v4h-4zM268 204h4v4h-4z"/><path fill="#224F54" d="M272 204h4v4h-4zM72 208h4v4h-4z"/><path fill="#2C3E46" d="M76 208h4v4h-4zM80 208h4v4h-4zM84 208h4v4h-4zM88 208h4v4h-4zM92 208h4v4h-4zM96 208h4v4h-4zM100 208h4v4h-4zM104 208h4v4h-4zM108 208h4v4h-4zM112 208h4v4h-4zM116 208h4v4h-4zM120 208h4v4h-4z"/><path fill="#394A52" d="M124 208h4v4h-4zM128 208h4v4h-4zM132 208h4v4h-4zM136 208h4v4h-4zM140 208h4v4h-4zM144 208h4v4h-4zM148 208h4v4h-4zM152 208h4v4h-4zM156 208h4v4h-4z"/><path fill="#2C3E46" d="M160 208h4v4h-4zM164 208h4v4h-4zM168 208h4v4h-4zM172 208h4v4h-4z"/><path fill="#394A52" d="M176 208h4v4h-4zM180 208h4v4h-4zM184 208h4v4h-4zM188 208h4v4h-4zM192 208h4v4h-4zM196 208h4v4h-4zM200 208h4v4h-4zM204 208h4v4h-4zM208 208h4v4h-4zM212 208h4v4h-4zM216 208h4v4h-4zM220 208h4v4h-4z"/><path fill="#2C3E46" d="M224 208h4v4h-4zM228 208h4v4h-4zM232 208h4v4h-4z"/><path fill="#394A52" d="M236 208h4v4h-4zM240 208h4v4h-4zM244 208h4v4h-4zM248 208h4v4h-4zM252 208h4v4h-4zM256 208h4v4h-4zM260 208h4v4h-4zM264 208h4v4h-4zM268 208h4v4h-4z"/><path fill="#224F54" d="M272 208h4v4h-4zM72 212h4v4h-4z"/><path fill="#2C3E46" d="M76 212h4v4h-4zM80 212h4v4h-4zM84 212h4v4h-4zM88 212h4v4h-4zM92 212h4v4h-4zM96 212h4v4h-4zM100 212h4v4h-4zM104 212h4v4h-4zM108 212h4v4h-4zM112 212h4v4h-4zM116 212h4v4h-4zM120 212h4v4h-4z"/><path fill="#394A52" d="M124 212h4v4h-4zM128 212h4v4h-4zM132 212h4v4h-4zM136 212h4v4h-4zM140 212h4v4h-4zM144 212h4v4h-4zM148 212h4v4h-4zM152 212h4v4h-4zM156 212h4v4h-4z"/><path fill="#2C3E46" d="M160 212h4v4h-4zM164 212h4v4h-4zM168 212h4v4h-4zM172 212h4v4h-4z"/><path fill="#394A52" d="M176 212h4v4h-4zM180 212h4v4h-4zM184 212h4v4h-4zM188 212h4v4h-4zM192 212h4v4h-4zM196 212h4v4h-4zM200 212h4v4h-4zM204 212h4v4h-4zM208 212h4v4h-4zM212 212h4v4h-4zM216 212h4v4h-4zM220 212h4v4h-4z"/><path fill="#2C3E46" d="M224 212h4v4h-4zM228 212h4v4h-4zM232 212h4v4h-4z"/><path fill="#394A52" d="M236 212h4v4h-4zM240 212h4v4h-4zM244 212h4v4h-4zM248 212h4v4h-4zM252 212h4v4h-4zM256 212h4v4h-4zM260 212h4v4h-4zM264 212h4v4h-4zM268 212h4v4h-4z"/><path fill="#224F54" d="M272 212h4v4h-4zM72 216h4v4h-4z"/><path fill="#2C3E46" d="M76 216h4v4h-4zM80 216h4v4h-4zM84 216h4v4h-4zM88 216h4v4h-4zM92 216h4v4h-4zM96 216h4v4h-4zM100 216h4v4h-4zM104 216h4v4h-4zM108 216h4v4h-4zM112 216h4v4h-4zM116 216h4v4h-4zM120 216h4v4h-4z"/><path fill="#394A52" d="M124 216h4v4h-4zM128 216h4v4h-4zM132 216h4v4h-4zM136 216h4v4h-4zM140 216h4v4h-4zM144 216h4v4h-4zM148 216h4v4h-4zM152 216h4v4h-4zM156 216h4v4h-4z"/><path fill="#2C3E46" d="M160 216h4v4h-4zM164 216h4v4h-4zM168 216h4v4h-4zM172 216h4v4h-4z"/><path fill="#394A52" d="M176 216h4v4h-4zM180 216h4v4h-4zM184 216h4v4h-4zM188 216h4v4h-4zM192 216h4v4h-4zM196 216h4v4h-4zM200 216h4v4h-4zM204 216h4v4h-4zM208 216h4v4h-4zM212 216h4v4h-4zM216 216h4v4h-4zM220 216h4v4h-4z"/><path fill="#2C3E46" d="M224 216h4v4h-4zM228 216h4v4h-4zM232 216h4v4h-4z"/><path fill="#394A52" d="M236 216h4v4h-4zM240 216h4v4h-4zM244 216h4v4h-4zM248 216h4v4h-4zM252 216h4v4h-4zM256 216h4v4h-4zM260 216h4v4h-4zM264 216h4v4h-4zM268 216h4v4h-4z"/><path fill="#224F54" d="M272 216h4v4h-4zM72 220h4v4h-4z"/><path fill="#2C3E46" d="M76 220h4v4h-4zM80 220h4v4h-4zM84 220h4v4h-4zM88 220h4v4h-4zM92 220h4v4h-4zM96 220h4v4h-4zM100 220h4v4h-4zM104 220h4v4h-4zM108 220h4v4h-4zM112 220h4v4h-4zM116 220h4v4h-4zM120 220h4v4h-4z"/><path fill="#394A52" d="M124 220h4v4h-4zM128 220h4v4h-4zM132 220h4v4h-4zM136 220h4v4h-4zM140 220h4v4h-4zM144 220h4v4h-4zM148 220h4v4h-4zM152 220h4v4h-4zM156 220h4v4h-4z"/><path fill="#2C3E46" d="M160 220h4v4h-4zM164 220h4v4h-4zM168 220h4v4h-4zM172 220h4v4h-4z"/><path fill="#394A52" d="M176 220h4v4h-4zM180 220h4v4h-4zM184 220h4v4h-4zM188 220h4v4h-4zM192 220h4v4h-4zM196 220h4v4h-4zM200 220h4v4h-4zM204 220h4v4h-4zM208 220h4v4h-4zM212 220h4v4h-4zM216 220h4v4h-4zM220 220h4v4h-4z"/><path fill="#2C3E46" d="M224 220h4v4h-4zM228 220h4v4h-4zM232 220h4v4h-4z"/><path fill="#394A52" d="M236 220h4v4h-4zM240 220h4v4h-4zM244 220h4v4h-4zM248 220h4v4h-4zM252 220h4v4h-4zM256 220h4v4h-4zM260 220h4v4h-4zM264 220h4v4h-4zM268 220h4v4h-4z"/><path fill="#224F54" d="M272 220h4v4h-4zM72 224h4v4h-4z"/><path fill="#2C3E46" d="M76 224h4v4h-4zM80 224h4v4h-4zM84 224h4v4h-4zM88 224h4v4h-4zM92 224h4v4h-4zM96 224h4v4h-4zM100 224h4v4h-4zM104 224h4v4h-4zM108 224h4v4h-4zM112 224h4v4h-4zM116 224h4v4h-4zM120 224h4v4h-4z"/><path fill="#394A52" d="M124 224h4v4h-4zM128 224h4v4h-4zM132 224h4v4h-4zM136 224h4v4h-4zM140 224h4v4h-4zM144 224h4v4h-4zM148 224h4v4h-4zM152 224h4v4h-4zM156 224h4v4h-4z"/><path fill="#2C3E46" d="M160 224h4v4h-4zM164 224h4v4h-4zM168 224h4v4h-4zM172 224h4v4h-4z"/><path fill="#394A52" d="M176 224h4v4h-4zM180 224h4v4h-4zM184 224h4v4h-4zM188 224h4v4h-4zM192 224h4v4h-4zM196 224h4v4h-4zM200 224h4v4h-4zM204 224h4v4h-4zM208 224h4v4h-4zM212 224h4v4h-4zM216 224h4v4h-4zM220 224h4v4h-4z"/><path fill="#2C3E46" d="M224 224h4v4h-4zM228 224h4v4h-4zM232 224h4v4h-4z"/><path fill="#394A52" d="M236 224h4v4h-4zM240 224h4v4h-4zM244 224h4v4h-4zM248 224h4v4h-4zM252 224h4v4h-4zM256 224h4v4h-4zM260 224h4v4h-4zM264 224h4v4h-4zM268 224h4v4h-4z"/><path fill="#224F54" d="M272 224h4v4h-4zM72 228h4v4h-4z"/><path fill="#2C3E46" d="M76 228h4v4h-4zM80 228h4v4h-4zM84 228h4v4h-4zM88 228h4v4h-4zM92 228h4v4h-4zM96 228h4v4h-4zM100 228h4v4h-4zM104 228h4v4h-4zM108 228h4v4h-4zM112 228h4v4h-4zM116 228h4v4h-4zM120 228h4v4h-4z"/><path fill="#394A52" d="M124 228h4v4h-4zM128 228h4v4h-4zM132 228h4v4h-4zM136 228h4v4h-4zM140 228h4v4h-4zM144 228h4v4h-4zM148 228h4v4h-4zM152 228h4v4h-4zM156 228h4v4h-4z"/><path fill="#2C3E46" d="M160 228h4v4h-4zM164 228h4v4h-4zM168 228h4v4h-4zM172 228h4v4h-4z"/><path fill="#394A52" d="M176 228h4v4h-4zM180 228h4v4h-4zM184 228h4v4h-4zM188 228h4v4h-4zM192 228h4v4h-4zM196 228h4v4h-4zM200 228h4v4h-4zM204 228h4v4h-4zM208 228h4v4h-4zM212 228h4v4h-4zM216 228h4v4h-4zM220 228h4v4h-4z"/><path fill="#2C3E46" d="M224 228h4v4h-4zM228 228h4v4h-4zM232 228h4v4h-4z"/><path fill="#394A52" d="M236 228h4v4h-4zM240 228h4v4h-4zM244 228h4v4h-4zM248 228h4v4h-4zM252 228h4v4h-4zM256 228h4v4h-4zM260 228h4v4h-4zM264 228h4v4h-4zM268 228h4v4h-4z"/><path fill="#224F54" d="M272 228h4v4h-4zM76 232h4v4h-4z"/><path fill="#2C3E46" d="M80 232h4v4h-4zM84 232h4v4h-4zM88 232h4v4h-4zM92 232h4v4h-4zM96 232h4v4h-4zM100 232h4v4h-4zM104 232h4v4h-4zM108 232h4v4h-4zM112 232h4v4h-4zM116 232h4v4h-4zM120 232h4v4h-4z"/><path fill="#394A52" d="M124 232h4v4h-4zM128 232h4v4h-4zM132 232h4v4h-4zM136 232h4v4h-4zM140 232h4v4h-4zM144 232h4v4h-4zM148 232h4v4h-4zM152 232h4v4h-4zM156 232h4v4h-4z"/><path fill="#2C3E46" d="M160 232h4v4h-4zM164 232h4v4h-4zM168 232h4v4h-4zM172 232h4v4h-4z"/><path fill="#394A52" d="M176 232h4v4h-4zM180 232h4v4h-4zM184 232h4v4h-4zM188 232h4v4h-4zM192 232h4v4h-4zM196 232h4v4h-4zM200 232h4v4h-4zM204 232h4v4h-4zM208 232h4v4h-4zM212 232h4v4h-4zM216 232h4v4h-4zM220 232h4v4h-4zM224 232h4v4h-4z"/><path fill="#2C3E46" d="M228 232h4v4h-4z"/><path fill="#394A52" d="M232 232h4v4h-4zM236 232h4v4h-4zM240 232h4v4h-4zM244 232h4v4h-4zM248 232h4v4h-4zM252 232h4v4h-4zM256 232h4v4h-4zM260 232h4v4h-4zM264 232h4v4h-4zM268 232h4v4h-4z"/><path fill="#224F54" d="M272 232h4v4h-4zM80 236h4v4h-4z"/><path fill="#2C3E46" d="M84 236h4v4h-4zM88 236h4v4h-4zM92 236h4v4h-4zM96 236h4v4h-4zM100 236h4v4h-4zM104 236h4v4h-4zM108 236h4v4h-4zM112 236h4v4h-4zM116 236h4v4h-4zM120 236h4v4h-4z"/><path fill="#394A52" d="M124 236h4v4h-4zM128 236h4v4h-4zM132 236h4v4h-4zM136 236h4v4h-4zM140 236h4v4h-4zM144 236h4v4h-4zM148 236h4v4h-4zM152 236h4v4h-4zM156 236h4v4h-4zM160 236h4v4h-4z"/><path fill="#2C3E46" d="M164 236h4v4h-4zM168 236h4v4h-4zM172 236h4v4h-4z"/><path fill="#394A52" d="M176 236h4v4h-4zM180 236h4v4h-4zM184 236h4v4h-4zM188 236h4v4h-4zM192 236h4v4h-4zM196 236h4v4h-4zM200 236h4v4h-4zM204 236h4v4h-4zM208 236h4v4h-4zM212 236h4v4h-4zM216 236h4v4h-4zM220 236h4v4h-4zM224 236h4v4h-4z"/><path fill="#2C3E46" d="M228 236h4v4h-4z"/><path fill="#394A52" d="M232 236h4v4h-4zM236 236h4v4h-4zM240 236h4v4h-4zM244 236h4v4h-4zM248 236h4v4h-4zM252 236h4v4h-4zM256 236h4v4h-4zM260 236h4v4h-4zM264 236h4v4h-4zM268 236h4v4h-4z"/><path fill="#224F54" d="M272 236h4v4h-4zM84 240h4v4h-4z"/><path fill="#2C3E46" d="M88 240h4v4h-4zM92 240h4v4h-4zM96 240h4v4h-4zM100 240h4v4h-4zM104 240h4v4h-4zM108 240h4v4h-4zM112 240h4v4h-4zM116 240h4v4h-4zM120 240h4v4h-4z"/><path fill="#394A52" d="M124 240h4v4h-4zM128 240h4v4h-4zM132 240h4v4h-4zM136 240h4v4h-4zM140 240h4v4h-4zM144 240h4v4h-4zM148 240h4v4h-4zM152 240h4v4h-4zM156 240h4v4h-4zM160 240h4v4h-4z"/><path fill="#2C3E46" d="M164 240h4v4h-4zM168 240h4v4h-4zM172 240h4v4h-4z"/><path fill="#394A52" d="M176 240h4v4h-4zM180 240h4v4h-4zM184 240h4v4h-4zM188 240h4v4h-4zM192 240h4v4h-4zM196 240h4v4h-4zM200 240h4v4h-4zM204 240h4v4h-4zM208 240h4v4h-4zM212 240h4v4h-4zM216 240h4v4h-4zM220 240h4v4h-4zM224 240h4v4h-4z"/><path fill="#2C3E46" d="M228 240h4v4h-4z"/><path fill="#394A52" d="M232 240h4v4h-4zM236 240h4v4h-4zM240 240h4v4h-4zM244 240h4v4h-4zM248 240h4v4h-4zM252 240h4v4h-4zM256 240h4v4h-4zM260 240h4v4h-4zM264 240h4v4h-4zM268 240h4v4h-4z"/><path fill="#224F54" d="M272 240h4v4h-4zM88 244h4v4h-4z"/><path fill="#2C3E46" d="M92 244h4v4h-4zM96 244h4v4h-4zM100 244h4v4h-4zM104 244h4v4h-4zM108 244h4v4h-4zM112 244h4v4h-4zM116 244h4v4h-4zM120 244h4v4h-4z"/><path fill="#394A52" d="M124 244h4v4h-4zM128 244h4v4h-4zM132 244h4v4h-4zM136 244h4v4h-4zM140 244h4v4h-4zM144 244h4v4h-4zM148 244h4v4h-4zM152 244h4v4h-4zM156 244h4v4h-4zM160 244h4v4h-4z"/><path fill="#2C3E46" d="M164 244h4v4h-4zM168 244h4v4h-4zM172 244h4v4h-4z"/><path fill="#394A52" d="M176 244h4v4h-4zM180 244h4v4h-4zM184 244h4v4h-4zM188 244h4v4h-4zM192 244h4v4h-4zM196 244h4v4h-4zM200 244h4v4h-4zM204 244h4v4h-4zM208 244h4v4h-4zM212 244h4v4h-4zM216 244h4v4h-4zM220 244h4v4h-4zM224 244h4v4h-4z"/><path fill="#2C3E46" d="M228 244h4v4h-4z"/><path fill="#394A52" d="M232 244h4v4h-4zM236 244h4v4h-4zM240 244h4v4h-4zM244 244h4v4h-4zM248 244h4v4h-4zM252 244h4v4h-4zM256 244h4v4h-4zM260 244h4v4h-4zM264 244h4v4h-4zM268 244h4v4h-4z"/><path fill="#224F54" d="M272 244h4v4h-4zM92 248h4v4h-4z"/><path fill="#2C3E46" d="M96 248h4v4h-4zM100 248h4v4h-4zM104 248h4v4h-4zM108 248h4v4h-4zM112 248h4v4h-4zM116 248h4v4h-4zM120 248h4v4h-4z"/><path fill="#394A52" d="M124 248h4v4h-4zM128 248h4v4h-4zM132 248h4v4h-4zM136 248h4v4h-4zM140 248h4v4h-4zM144 248h4v4h-4zM148 248h4v4h-4zM152 248h4v4h-4zM156 248h4v4h-4zM160 248h4v4h-4z"/><path fill="#2C3E46" d="M164 248h4v4h-4zM168 248h4v4h-4zM172 248h4v4h-4z"/><path fill="#394A52" d="M176 248h4v4h-4zM180 248h4v4h-4zM184 248h4v4h-4zM188 248h4v4h-4zM192 248h4v4h-4zM196 248h4v4h-4zM200 248h4v4h-4zM204 248h4v4h-4zM208 248h4v4h-4zM212 248h4v4h-4zM216 248h4v4h-4zM220 248h4v4h-4zM224 248h4v4h-4z"/><path fill="#2C3E46" d="M228 248h4v4h-4z"/><path fill="#394A52" d="M232 248h4v4h-4zM236 248h4v4h-4zM240 248h4v4h-4zM244 248h4v4h-4zM248 248h4v4h-4zM252 248h4v4h-4zM256 248h4v4h-4zM260 248h4v4h-4zM264 248h4v4h-4z"/><path fill="#224F54" d="M268 248h4v4h-4zM96 252h4v4h-4z"/><path fill="#2C3E46" d="M100 252h4v4h-4zM104 252h4v4h-4zM108 252h4v4h-4zM112 252h4v4h-4zM116 252h4v4h-4zM120 252h4v4h-4z"/><path fill="#394A52" d="M124 252h4v4h-4zM128 252h4v4h-4zM132 252h4v4h-4zM136 252h4v4h-4zM140 252h4v4h-4zM144 252h4v4h-4zM148 252h4v4h-4zM152 252h4v4h-4zM156 252h4v4h-4zM160 252h4v4h-4z"/><path fill="#2C3E46" d="M164 252h4v4h-4z"/><path fill="#3FF8FA" d="M168 252h4v4h-4z"/><path fill="#2C3E46" d="M172 252h4v4h-4z"/><path fill="#394A52" d="M176 252h4v4h-4zM180 252h4v4h-4zM184 252h4v4h-4zM188 252h4v4h-4zM192 252h4v4h-4zM196 252h4v4h-4zM200 252h4v4h-4zM204 252h4v4h-4zM208 252h4v4h-4zM212 252h4v4h-4zM216 252h4v4h-4zM220 252h4v4h-4zM224 252h4v4h-4z"/><path fill="#2C3E46" d="M228 252h4v4h-4z"/><path fill="#394A52" d="M232 252h4v4h-4zM236 252h4v4h-4zM240 252h4v4h-4zM244 252h4v4h-4zM248 252h4v4h-4zM252 252h4v4h-4zM256 252h4v4h-4zM260 252h4v4h-4z"/><path fill="#224F54" d="M264 252h4v4h-4z"/><path fill="#FF96AC" d="M92 256h4v4h-4zM96 256h4v4h-4z"/><path fill="#FFEAEF" d="M100 256h4v4h-4z"/><path fill="#2C3E46" d="M104 256h4v4h-4zM108 256h4v4h-4zM112 256h4v4h-4zM116 256h4v4h-4zM120 256h4v4h-4z"/><path fill="#394A52" d="M124 256h4v4h-4zM128 256h4v4h-4zM132 256h4v4h-4zM136 256h4v4h-4zM140 256h4v4h-4zM144 256h4v4h-4zM148 256h4v4h-4zM152 256h4v4h-4zM156 256h4v4h-4zM160 256h4v4h-4z"/><path fill="#2C3E46" d="M164 256h4v4h-4z"/><path fill="#3FF8FA" d="M168 256h4v4h-4z"/><path fill="#2C3E46" d="M172 256h4v4h-4z"/><path fill="#394A52" d="M176 256h4v4h-4zM180 256h4v4h-4zM184 256h4v4h-4zM188 256h4v4h-4zM192 256h4v4h-4zM196 256h4v4h-4zM200 256h4v4h-4zM204 256h4v4h-4zM208 256h4v4h-4zM212 256h4v4h-4zM216 256h4v4h-4zM220 256h4v4h-4zM224 256h4v4h-4z"/><path fill="#2C3E46" d="M228 256h4v4h-4z"/><path fill="#394A52" d="M232 256h4v4h-4z"/><path fill="#224F54" d="M236 256h4v4h-4z"/><path fill="#FF96AC" d="M240 256h4v4h-4z"/><path fill="#FFEAEF" d="M244 256h4v4h-4zM248 256h4v4h-4z"/><path fill="#FF96AC" d="M252 256h4v4h-4z"/><path fill="#224F54" d="M256 256h4v4h-4zM260 256h4v4h-4z"/><path fill="#FF96AC" d="M88 260h4v4h-4z"/><path fill="#FFEAEF" d="M92 260h4v4h-4zM96 260h4v4h-4zM100 260h4v4h-4z"/><path fill="#FFF" d="M104 260h4v4h-4z"/><path fill="#2C3E46" d="M108 260h4v4h-4zM112 260h4v4h-4zM116 260h4v4h-4zM120 260h4v4h-4z"/><path fill="#394A52" d="M124 260h4v4h-4zM128 260h4v4h-4zM132 260h4v4h-4zM136 260h4v4h-4zM140 260h4v4h-4zM144 260h4v4h-4zM148 260h4v4h-4zM152 260h4v4h-4zM156 260h4v4h-4zM160 260h4v4h-4z"/><path fill="#2C3E46" d="M164 260h4v4h-4z"/><path fill="#3FF8FA" d="M168 260h4v4h-4z"/><path fill="#2C3E46" d="M172 260h4v4h-4z"/><path fill="#394A52" d="M176 260h4v4h-4zM180 260h4v4h-4zM184 260h4v4h-4zM188 260h4v4h-4zM192 260h4v4h-4zM196 260h4v4h-4zM200 260h4v4h-4zM204 260h4v4h-4z"/><path fill="#224F54" d="M208 260h4v4h-4zM212 260h4v4h-4zM216 260h4v4h-4zM220 260h4v4h-4zM224 260h4v4h-4zM228 260h4v4h-4zM232 260h4v4h-4z"/><path fill="#FF96AC" d="M236 260h4v4h-4z"/><path fill="#224F54" d="M240 260h4v4h-4z"/><path fill="#FF96AC" d="M244 260h4v4h-4z"/><path fill="#FFEAEF" d="M248 260h4v4h-4z"/><path fill="#FF96AC" d="M252 260h4v4h-4z"/><path fill="#224F54" d="M256 260h4v4h-4z"/><path fill="#FF96AC" d="M88 264h4v4h-4z"/><path fill="#FFEAEF" d="M92 264h4v4h-4zM96 264h4v4h-4zM100 264h4v4h-4z"/><path fill="#FFF" d="M104 264h4v4h-4zM108 264h4v4h-4z"/><path fill="#2C3E46" d="M112 264h4v4h-4zM116 264h4v4h-4zM120 264h4v4h-4z"/><path fill="#394A52" d="M124 264h4v4h-4z"/><path fill="#2C3E46" d="M128 264h4v4h-4z"/><path fill="#394A52" d="M132 264h4v4h-4zM136 264h4v4h-4zM140 264h4v4h-4zM144 264h4v4h-4zM148 264h4v4h-4zM152 264h4v4h-4zM156 264h4v4h-4zM160 264h4v4h-4z"/><path fill="#2C3E46" d="M164 264h4v4h-4z"/><path fill="#3FF8FA" d="M168 264h4v4h-4z"/><path fill="#2C3E46" d="M172 264h4v4h-4z"/><path fill="#394A52" d="M176 264h4v4h-4z"/><path fill="#224F54" d="M180 264h4v4h-4zM184 264h4v4h-4zM188 264h4v4h-4zM192 264h4v4h-4zM196 264h4v4h-4zM200 264h4v4h-4zM204 264h4v4h-4zM228 264h4v4h-4z"/><path fill="#FF96AC" d="M232 264h4v4h-4z"/><path fill="#FFEAEF" d="M236 264h4v4h-4z"/><path fill="#FF96AC" d="M240 264h4v4h-4zM244 264h4v4h-4z"/><path fill="#FFEAEF" d="M248 264h4v4h-4z"/><path fill="#224F54" d="M252 264h4v4h-4z"/><path fill="#FF96AC" d="M84 268h4v4h-4z"/><path fill="#FFEAEF" d="M88 268h4v4h-4zM92 268h4v4h-4zM96 268h4v4h-4zM100 268h4v4h-4z"/><path fill="#FFF" d="M104 268h4v4h-4zM108 268h4v4h-4zM112 268h4v4h-4zM116 268h4v4h-4z"/><path fill="#2C3E46" d="M120 268h4v4h-4z"/><path fill="#FFEAEF" d="M124 268h4v4h-4z"/><path fill="#2C3E46" d="M128 268h4v4h-4z"/><path fill="#FFEAEF" d="M132 268h4v4h-4zM136 268h4v4h-4z"/><path fill="#FF96AC" d="M140 268h4v4h-4z"/><path fill="#224F54" d="M144 268h4v4h-4zM148 268h4v4h-4zM152 268h4v4h-4zM156 268h4v4h-4zM160 268h4v4h-4zM164 268h4v4h-4zM168 268h4v4h-4zM172 268h4v4h-4zM176 268h4v4h-4zM228 268h4v4h-4z"/><path fill="#FF96AC" d="M232 268h4v4h-4z"/><path fill="#FFEAEF" d="M236 268h4v4h-4zM240 268h4v4h-4z"/><path fill="#FF96AC" d="M244 268h4v4h-4z"/><path fill="#224F54" d="M248 268h4v4h-4z"/><path fill="#FF96AC" d="M88 272h4v4h-4zM92 272h4v4h-4z"/><path fill="#FFEAEF" d="M96 272h4v4h-4zM100 272h4v4h-4z"/><path fill="#FFF" d="M104 272h4v4h-4zM108 272h4v4h-4z"/><path fill="#FFEAEF" d="M112 272h4v4h-4zM116 272h4v4h-4zM120 272h4v4h-4zM124 272h4v4h-4z"/><path fill="#2C3E46" d="M128 272h4v4h-4zM132 272h4v4h-4zM136 272h4v4h-4z"/><path fill="#FF96AC" d="M140 272h4v4h-4z"/><path fill="#224F54" d="M144 272h4v4h-4zM228 272h4v4h-4z"/><path fill="#FF96AC" d="M232 272h4v4h-4zM236 272h4v4h-4z"/><path fill="#FFEAEF" d="M240 272h4v4h-4z"/><path fill="#224F54" d="M244 272h4v4h-4z"/><path fill="#FF96AC" d="M92 276h4v4h-4z"/><path fill="#FFEAEF" d="M96 276h4v4h-4zM100 276h4v4h-4z"/><path fill="#FFF" d="M104 276h4v4h-4zM108 276h4v4h-4z"/><path fill="#FFEAEF" d="M112 276h4v4h-4zM116 276h4v4h-4zM120 276h4v4h-4zM124 276h4v4h-4z"/><path fill="#2C3E46" d="M128 276h4v4h-4zM132 276h4v4h-4zM136 276h4v4h-4zM140 276h4v4h-4zM144 276h4v4h-4z"/><path fill="#224F54" d="M148 276h4v4h-4zM224 276h4v4h-4z"/><path fill="#FF96AC" d="M228 276h4v4h-4z"/><path fill="#FFEAEF" d="M232 276h4v4h-4zM236 276h4v4h-4z"/><path fill="#224F54" d="M240 276h4v4h-4z"/><path fill="#FF96AC" d="M92 280h4v4h-4z"/><path fill="#FFEAEF" d="M96 280h4v4h-4zM100 280h4v4h-4z"/><path fill="#FFF" d="M104 280h4v4h-4z"/><path fill="#FFEAEF" d="M108 280h4v4h-4zM112 280h4v4h-4zM116 280h4v4h-4zM120 280h4v4h-4zM124 280h4v4h-4zM128 280h4v4h-4z"/><path fill="#2C3E46" d="M132 280h4v4h-4zM136 280h4v4h-4zM140 280h4v4h-4zM144 280h4v4h-4zM148 280h4v4h-4z"/><path fill="#224F54" d="M152 280h4v4h-4zM228 280h4v4h-4zM232 280h4v4h-4zM236 280h4v4h-4z"/><path fill="#FF96AC" d="M92 284h4v4h-4z"/><path fill="#FFEAEF" d="M96 284h4v4h-4zM100 284h4v4h-4z"/><path fill="#FFF" d="M104 284h4v4h-4z"/><path fill="#FFEAEF" d="M108 284h4v4h-4zM112 284h4v4h-4zM116 284h4v4h-4zM120 284h4v4h-4zM124 284h4v4h-4zM128 284h4v4h-4zM132 284h4v4h-4z"/><path fill="#2C3E46" d="M136 284h4v4h-4zM140 284h4v4h-4zM144 284h4v4h-4zM148 284h4v4h-4z"/><path fill="#224F54" d="M152 284h4v4h-4zM156 284h4v4h-4zM164 284h4v4h-4z"/><path fill="#FF96AC" d="M92 288h4v4h-4z"/><path fill="#FFEAEF" d="M96 288h4v4h-4zM100 288h4v4h-4zM104 288h4v4h-4zM108 288h4v4h-4zM112 288h4v4h-4zM116 288h4v4h-4zM120 288h4v4h-4zM124 288h4v4h-4zM128 288h4v4h-4z"/><path fill="#FF96AC" d="M132 288h4v4h-4z"/><path fill="#FFEAEF" d="M136 288h4v4h-4z"/><path fill="#2C3E46" d="M140 288h4v4h-4zM144 288h4v4h-4zM148 288h4v4h-4z"/><path fill="#FF96AC" d="M152 288h4v4h-4zM156 288h4v4h-4z"/><path fill="#224F54" d="M160 288h4v4h-4z"/><path fill="#FF96AC" d="M92 292h4v4h-4z"/><path fill="#FFEAEF" d="M96 292h4v4h-4zM100 292h4v4h-4zM104 292h4v4h-4zM108 292h4v4h-4z"/><path fill="#FF96AC" d="M112 292h4v4h-4z"/><path fill="#FFEAEF" d="M116 292h4v4h-4zM120 292h4v4h-4z"/><path fill="#FF96AC" d="M124 292h4v4h-4zM128 292h4v4h-4zM132 292h4v4h-4z"/><path fill="#FFEAEF" d="M136 292h4v4h-4zM140 292h4v4h-4z"/><path fill="#2C3E46" d="M144 292h4v4h-4zM148 292h4v4h-4zM152 292h4v4h-4z"/><path fill="#FFEAEF" d="M156 292h4v4h-4z"/><path fill="#FF96AC" d="M92 296h4v4h-4z"/><path fill="#FFEAEF" d="M96 296h4v4h-4zM100 296h4v4h-4zM104 296h4v4h-4z"/><path fill="#FF96AC" d="M108 296h4v4h-4zM116 296h4v4h-4zM120 296h4v4h-4zM136 296h4v4h-4z"/><path fill="#FFEAEF" d="M140 296h4v4h-4zM144 296h4v4h-4zM148 296h4v4h-4z"/><path fill="#2C3E46" d="M152 296h4v4h-4zM156 296h4v4h-4z"/><path fill="#FFF" d="M80 300h4v4h-4z"/><path fill="#FF96AC" d="M92 300h4v4h-4z"/><path fill="#FFEAEF" d="M96 300h4v4h-4zM100 300h4v4h-4z"/><path fill="#FF96AC" d="M104 300h4v4h-4zM140 300h4v4h-4z"/><path fill="#FFEAEF" d="M144 300h4v4h-4zM148 300h4v4h-4zM152 300h4v4h-4zM156 300h4v4h-4z"/><path fill="#FFF" d="M76 304h4v4h-4zM80 304h4v4h-4z"/><path fill="#FF96AC" d="M92 304h4v4h-4z"/><path fill="#FFEAEF" d="M96 304h4v4h-4z"/><path fill="#FF96AC" d="M100 304h4v4h-4zM144 304h4v4h-4zM148 304h4v4h-4zM152 304h4v4h-4zM156 304h4v4h-4z"/><path fill="#FFF" d="M76 308h4v4h-4zM80 308h4v4h-4z"/><path fill="#FF96AC" d="M92 308h4v4h-4zM96 308h4v4h-4zM92 312h4v4h-4z"/></svg>