<svg width="384" height="384" xmlns="http://www.w3.org/2000/svg" shape-rendering="crispEdges"><path fill="#351A45" d="M140 20h4v4h-4zM144 20h4v4h-4zM148 20h4v4h-4zM152 20h4v4h-4zM156 20h4v4h-4zM160 20h4v4h-4zM164 20h4v4h-4zM168 20h4v4h-4zM124 24h4v4h-4zM128 24h4v4h-4zM132 24h4v4h-4zM136 24h4v4h-4z"/><path fill="#5564BF" d="M140 24h4v4h-4zM144 24h4v4h-4zM148 24h4v4h-4zM152 24h4v4h-4zM156 24h4v4h-4zM160 24h4v4h-4z"/><path fill="#592B73" d="M164 24h4v4h-4zM168 24h4v4h-4z"/><path fill="#351A45" d="M172 24h4v4h-4zM176 24h4v4h-4zM120 28h4v4h-4z"/><path fill="#592B73" d="M124 28h4v4h-4z"/><path fill="#5564BF" d="M128 28h4v4h-4zM132 28h4v4h-4z"/><path fill="#6096BF" d="M136 28h4v4h-4zM140 28h4v4h-4zM144 28h4v4h-4zM148 28h4v4h-4zM152 28h4v4h-4zM156 28h4v4h-4zM160 28h4v4h-4zM164 28h4v4h-4zM168 28h4v4h-4z"/><path fill="#592B73" d="M172 28h4v4h-4zM176 28h4v4h-4z"/><path fill="#351A45" d="M180 28h4v4h-4zM112 32h4v4h-4zM116 32h4v4h-4z"/><path fill="#5564BF" d="M120 32h4v4h-4zM124 32h4v4h-4z"/><path fill="#6096BF" d="M128 32h4v4h-4zM132 32h4v4h-4zM136 32h4v4h-4zM140 32h4v4h-4zM144 32h4v4h-4z"/><path fill="#9F90D7" d="M148 32h4v4h-4z"/><path fill="#6096BF" d="M152 32h4v4h-4z"/><path fill="#9F90D7" d="M156 32h4v4h-4zM160 32h4v4h-4zM164 32h4v4h-4z"/><path fill="#6096BF" d="M168 32h4v4h-4zM172 32h4v4h-4z"/><path fill="#5564BF" d="M176 32h4v4h-4z"/><path fill="#592B73" d="M180 32h4v4h-4z"/><path fill="#351A45" d="M184 32h4v4h-4zM108 36h4v4h-4z"/><path fill="#592B73" d="M112 36h4v4h-4z"/><path fill="#5564BF" d="M116 36h4v4h-4z"/><path fill="#6096BF" d="M120 36h4v4h-4zM124 36h4v4h-4zM128 36h4v4h-4zM132 36h4v4h-4zM136 36h4v4h-4zM140 36h4v4h-4zM144 36h4v4h-4z"/><path fill="#9F90D7" d="M148 36h4v4h-4z"/><path fill="#6096BF" d="M152 36h4v4h-4z"/><path fill="#9F90D7" d="M156 36h4v4h-4zM160 36h4v4h-4zM164 36h4v4h-4zM168 36h4v4h-4z"/><path fill="#6096BF" d="M172 36h4v4h-4z"/><path fill="#9F90D7" d="M176 36h4v4h-4z"/><path fill="#6096BF" d="M180 36h4v4h-4z"/><path fill="#5564BF" d="M184 36h4v4h-4z"/><path fill="#351A45" d="M188 36h4v4h-4zM108 40h4v4h-4z"/><path fill="#5564BF" d="M112 40h4v4h-4z"/><path fill="#6096BF" d="M116 40h4v4h-4zM120 40h4v4h-4zM124 40h4v4h-4z"/><path fill="#9F90D7" d="M128 40h4v4h-4zM132 40h4v4h-4z"/><path fill="#6096BF" d="M136 40h4v4h-4zM140 40h4v4h-4zM144 40h4v4h-4zM148 40h4v4h-4zM152 40h4v4h-4zM156 40h4v4h-4zM160 40h4v4h-4zM164 40h4v4h-4zM168 40h4v4h-4zM172 40h4v4h-4zM176 40h4v4h-4z"/><path fill="#9F90D7" d="M180 40h4v4h-4zM184 40h4v4h-4z"/><path fill="#592B73" d="M188 40h4v4h-4z"/><path fill="#351A45" d="M192 40h4v4h-4zM100 44h4v4h-4zM104 44h4v4h-4z"/><path fill="#5564BF" d="M108 44h4v4h-4z"/><path fill="#6096BF" d="M112 44h4v4h-4zM116 44h4v4h-4z"/><path fill="#9F90D7" d="M120 44h4v4h-4zM124 44h4v4h-4z"/><path fill="#6096BF" d="M128 44h4v4h-4zM132 44h4v4h-4zM136 44h4v4h-4zM140 44h4v4h-4zM144 44h4v4h-4zM148 44h4v4h-4zM152 44h4v4h-4zM156 44h4v4h-4zM160 44h4v4h-4zM164 44h4v4h-4zM168 44h4v4h-4zM172 44h4v4h-4zM176 44h4v4h-4z"/><path fill="#9F90D7" d="M180 44h4v4h-4z"/><path fill="#6E69BF" d="M184 44h4v4h-4z"/><path fill="#9F90D7" d="M188 44h4v4h-4z"/><path fill="#592B73" d="M192 44h4v4h-4z"/><path fill="#351A45" d="M196 44h4v4h-4zM100 48h4v4h-4z"/><path fill="#6096BF" d="M104 48h4v4h-4zM108 48h4v4h-4zM112 48h4v4h-4zM116 48h4v4h-4z"/><path fill="#9F90D7" d="M120 48h4v4h-4zM124 48h4v4h-4z"/><path fill="#6096BF" d="M128 48h4v4h-4zM132 48h4v4h-4zM136 48h4v4h-4z"/><path fill="#5564BF" d="M140 48h4v4h-4zM144 48h4v4h-4zM148 48h4v4h-4z"/><path fill="#592B73" d="M152 48h4v4h-4zM156 48h4v4h-4zM160 48h4v4h-4zM164 48h4v4h-4z"/><path fill="#5564BF" d="M168 48h4v4h-4z"/><path fill="#6096BF" d="M172 48h4v4h-4zM176 48h4v4h-4z"/><path fill="#9F90D7" d="M180 48h4v4h-4zM184 48h4v4h-4zM188 48h4v4h-4z"/><path fill="#5564BF" d="M192 48h4v4h-4z"/><path fill="#351A45" d="M196 48h4v4h-4zM96 52h4v4h-4z"/><path fill="#5564BF" d="M100 52h4v4h-4z"/><path fill="#6096BF" d="M104 52h4v4h-4zM108 52h4v4h-4z"/><path fill="#9F90D7" d="M112 52h4v4h-4z"/><path fill="#6096BF" d="M116 52h4v4h-4zM120 52h4v4h-4zM124 52h4v4h-4zM128 52h4v4h-4z"/><path fill="#5564BF" d="M132 52h4v4h-4z"/><path fill="#592B73" d="M136 52h4v4h-4zM140 52h4v4h-4zM144 52h4v4h-4zM148 52h4v4h-4zM152 52h4v4h-4zM156 52h4v4h-4zM160 52h4v4h-4zM164 52h4v4h-4zM168 52h4v4h-4zM172 52h4v4h-4zM176 52h4v4h-4z"/><path fill="#5564BF" d="M180 52h4v4h-4z"/><path fill="#6096BF" d="M184 52h4v4h-4zM188 52h4v4h-4zM192 52h4v4h-4z"/><path fill="#592B73" d="M196 52h4v4h-4z"/><path fill="#351A45" d="M200 52h4v4h-4zM96 56h4v4h-4z"/><path fill="#6096BF" d="M100 56h4v4h-4zM104 56h4v4h-4z"/><path fill="#9F90D7" d="M108 56h4v4h-4zM112 56h4v4h-4zM116 56h4v4h-4z"/><path fill="#6096BF" d="M120 56h4v4h-4zM124 56h4v4h-4z"/><path fill="#5564BF" d="M128 56h4v4h-4z"/><path fill="#592B73" d="M132 56h4v4h-4zM136 56h4v4h-4zM140 56h4v4h-4zM144 56h4v4h-4zM148 56h4v4h-4z"/><path fill="#351A45" d="M152 56h4v4h-4z"/><path fill="#592B73" d="M156 56h4v4h-4zM160 56h4v4h-4zM164 56h4v4h-4z"/><path fill="#351A45" d="M168 56h4v4h-4z"/><path fill="#592B73" d="M172 56h4v4h-4zM176 56h4v4h-4zM180 56h4v4h-4zM184 56h4v4h-4z"/><path fill="#6096BF" d="M188 56h4v4h-4zM192 56h4v4h-4z"/><path fill="#5564BF" d="M196 56h4v4h-4z"/><path fill="#351A45" d="M200 56h4v4h-4zM92 60h4v4h-4z"/><path fill="#5564BF" d="M96 60h4v4h-4z"/><path fill="#6096BF" d="M100 60h4v4h-4zM104 60h4v4h-4z"/><path fill="#9F90D7" d="M108 60h4v4h-4zM112 60h4v4h-4z"/><path fill="#6096BF" d="M116 60h4v4h-4zM120 60h4v4h-4zM124 60h4v4h-4z"/><path fill="#5564BF" d="M128 60h4v4h-4z"/><path fill="#592B73" d="M132 60h4v4h-4zM136 60h4v4h-4zM140 60h4v4h-4z"/><path fill="#351A45" d="M144 60h4v4h-4zM172 60h4v4h-4zM176 60h4v4h-4z"/><path fill="#592B73" d="M180 60h4v4h-4zM184 60h4v4h-4z"/><path fill="#5564BF" d="M188 60h4v4h-4z"/><path fill="#9F90D7" d="M192 60h4v4h-4zM196 60h4v4h-4z"/><path fill="#351A45" d="M200 60h4v4h-4zM92 64h4v4h-4z"/><path fill="#6096BF" d="M96 64h4v4h-4zM100 64h4v4h-4zM104 64h4v4h-4zM108 64h4v4h-4zM112 64h4v4h-4zM116 64h4v4h-4z"/><path fill="#9F90D7" d="M120 64h4v4h-4z"/><path fill="#5564BF" d="M124 64h4v4h-4z"/><path fill="#592B73" d="M128 64h4v4h-4zM132 64h4v4h-4zM136 64h4v4h-4z"/><path fill="#351A45" d="M140 64h4v4h-4zM144 64h4v4h-4zM180 64h4v4h-4z"/><path fill="#592B73" d="M184 64h4v4h-4zM188 64h4v4h-4z"/><path fill="#9F90D7" d="M192 64h4v4h-4zM196 64h4v4h-4z"/><path fill="#351A45" d="M200 64h4v4h-4zM92 68h4v4h-4z"/><path fill="#6096BF" d="M96 68h4v4h-4zM100 68h4v4h-4z"/><path fill="#9F90D7" d="M104 68h4v4h-4zM108 68h4v4h-4z"/><path fill="#6096BF" d="M112 68h4v4h-4zM116 68h4v4h-4zM120 68h4v4h-4z"/><path fill="#5564BF" d="M124 68h4v4h-4z"/><path fill="#592B73" d="M128 68h4v4h-4zM132 68h4v4h-4z"/><path fill="#351A45" d="M136 68h4v4h-4zM184 68h4v4h-4z"/><path fill="#592B73" d="M188 68h4v4h-4zM192 68h4v4h-4z"/><path fill="#6096BF" d="M196 68h4v4h-4z"/><path fill="#351A45" d="M200 68h4v4h-4zM88 72h4v4h-4z"/><path fill="#592B73" d="M92 72h4v4h-4z"/><path fill="#6096BF" d="M96 72h4v4h-4zM100 72h4v4h-4z"/><path fill="#6E69BF" d="M104 72h4v4h-4z"/><path fill="#9F90D7" d="M108 72h4v4h-4z"/><path fill="#6096BF" d="M112 72h4v4h-4zM116 72h4v4h-4zM120 72h4v4h-4z"/><path fill="#5564BF" d="M124 72h4v4h-4z"/><path fill="#592B73" d="M128 72h4v4h-4zM132 72h4v4h-4z"/><path fill="#351A45" d="M136 72h4v4h-4zM184 72h4v4h-4z"/><path fill="#592B73" d="M188 72h4v4h-4zM192 72h4v4h-4z"/><path fill="#6096BF" d="M196 72h4v4h-4zM200 72h4v4h-4z"/><path fill="#351A45" d="M204 72h4v4h-4zM88 76h4v4h-4z"/><path fill="#592B73" d="M92 76h4v4h-4z"/><path fill="#6096BF" d="M96 76h4v4h-4zM100 76h4v4h-4z"/><path fill="#9F90D7" d="M104 76h4v4h-4z"/><path fill="#6096BF" d="M108 76h4v4h-4zM112 76h4v4h-4zM116 76h4v4h-4zM120 76h4v4h-4z"/><path fill="#592B73" d="M124 76h4v4h-4zM128 76h4v4h-4zM132 76h4v4h-4z"/><path fill="#351A45" d="M136 76h4v4h-4zM188 76h4v4h-4z"/><path fill="#592B73" d="M192 76h4v4h-4z"/><path fill="#9F90D7" d="M196 76h4v4h-4z"/><path fill="#6096BF" d="M200 76h4v4h-4z"/><path fill="#5564BF" d="M204 76h4v4h-4z"/><path fill="#351A45" d="M208 76h4v4h-4zM88 80h4v4h-4z"/><path fill="#592B73" d="M92 80h4v4h-4z"/><path fill="#6096BF" d="M96 80h4v4h-4zM100 80h4v4h-4zM104 80h4v4h-4zM108 80h4v4h-4zM112 80h4v4h-4zM116 80h4v4h-4zM120 80h4v4h-4z"/><path fill="#592B73" d="M124 80h4v4h-4zM128 80h4v4h-4zM132 80h4v4h-4z"/><path fill="#351A45" d="M188 80h4v4h-4z"/><path fill="#592B73" d="M192 80h4v4h-4zM196 80h4v4h-4z"/><path fill="#9F90D7" d="M200 80h4v4h-4z"/><path fill="#6096BF" d="M204 80h4v4h-4z"/><path fill="#351A45" d="M208 80h4v4h-4zM88 84h4v4h-4z"/><path fill="#592B73" d="M92 84h4v4h-4z"/><path fill="#6096BF" d="M96 84h4v4h-4zM100 84h4v4h-4z"/><path fill="#9F90D7" d="M104 84h4v4h-4z"/><path fill="#6096BF" d="M108 84h4v4h-4zM112 84h4v4h-4zM116 84h4v4h-4zM120 84h4v4h-4z"/><path fill="#592B73" d="M124 84h4v4h-4zM128 84h4v4h-4z"/><path fill="#351A45" d="M132 84h4v4h-4zM188 84h4v4h-4z"/><path fill="#592B73" d="M192 84h4v4h-4zM196 84h4v4h-4z"/><path fill="#5564BF" d="M200 84h4v4h-4z"/><path fill="#6096BF" d="M204 84h4v4h-4z"/><path fill="#5564BF" d="M208 84h4v4h-4z"/><path fill="#351A45" d="M212 84h4v4h-4zM92 88h4v4h-4z"/><path fill="#6096BF" d="M96 88h4v4h-4z"/><path fill="#9F90D7" d="M100 88h4v4h-4z"/><path fill="#6E69BF" d="M104 88h4v4h-4z"/><path fill="#9F90D7" d="M108 88h4v4h-4z"/><path fill="#6096BF" d="M112 88h4v4h-4zM116 88h4v4h-4zM120 88h4v4h-4z"/><path fill="#5564BF" d="M124 88h4v4h-4z"/><path fill="#592B73" d="M128 88h4v4h-4z"/><path fill="#351A45" d="M132 88h4v4h-4zM192 88h4v4h-4z"/><path fill="#592B73" d="M196 88h4v4h-4zM200 88h4v4h-4z"/><path fill="#5564BF" d="M204 88h4v4h-4z"/><path fill="#6096BF" d="M208 88h4v4h-4zM212 88h4v4h-4z"/><path fill="#351A45" d="M216 88h4v4h-4zM220 88h4v4h-4zM224 88h4v4h-4zM228 88h4v4h-4zM232 88h4v4h-4zM92 92h4v4h-4z"/><path fill="#6096BF" d="M96 92h4v4h-4z"/><path fill="#9F90D7" d="M100 92h4v4h-4z"/><path fill="#6E69BF" d="M104 92h4v4h-4z"/><path fill="#9F90D7" d="M108 92h4v4h-4z"/><path fill="#6096BF" d="M112 92h4v4h-4zM116 92h4v4h-4zM120 92h4v4h-4zM124 92h4v4h-4z"/><path fill="#5564BF" d="M128 92h4v4h-4z"/><path fill="#592B73" d="M132 92h4v4h-4z"/><path fill="#351A45" d="M196 92h4v4h-4z"/><path fill="#592B73" d="M200 92h4v4h-4zM204 92h4v4h-4z"/><path fill="#5564BF" d="M208 92h4v4h-4z"/><path fill="#9F90D7" d="M212 92h4v4h-4z"/><path fill="#6096BF" d="M216 92h4v4h-4zM220 92h4v4h-4z"/><path fill="#5564BF" d="M224 92h4v4h-4zM228 92h4v4h-4z"/><path fill="#592B73" d="M232 92h4v4h-4z"/><path fill="#351A45" d="M236 92h4v4h-4zM92 96h4v4h-4z"/><path fill="#6096BF" d="M96 96h4v4h-4zM100 96h4v4h-4z"/><path fill="#9F90D7" d="M104 96h4v4h-4zM108 96h4v4h-4z"/><path fill="#6096BF" d="M112 96h4v4h-4zM116 96h4v4h-4zM120 96h4v4h-4zM124 96h4v4h-4z"/><path fill="#5564BF" d="M128 96h4v4h-4z"/><path fill="#592B73" d="M132 96h4v4h-4z"/><path fill="#351A45" d="M136 96h4v4h-4zM200 96h4v4h-4zM204 96h4v4h-4z"/><path fill="#592B73" d="M208 96h4v4h-4z"/><path fill="#9F90D7" d="M212 96h4v4h-4zM216 96h4v4h-4z"/><path fill="#6096BF" d="M220 96h4v4h-4zM224 96h4v4h-4z"/><path fill="#5564BF" d="M228 96h4v4h-4z"/><path fill="#592B73" d="M232 96h4v4h-4z"/><path fill="#351A45" d="M236 96h4v4h-4zM92 100h4v4h-4z"/><path fill="#6096BF" d="M96 100h4v4h-4zM100 100h4v4h-4zM104 100h4v4h-4zM108 100h4v4h-4zM112 100h4v4h-4zM116 100h4v4h-4zM120 100h4v4h-4zM124 100h4v4h-4zM128 100h4v4h-4z"/><path fill="#5564BF" d="M132 100h4v4h-4zM136 100h4v4h-4z"/><path fill="#351A45" d="M140 100h4v4h-4zM208 100h4v4h-4zM212 100h4v4h-4zM216 100h4v4h-4zM220 100h4v4h-4zM224 100h4v4h-4zM228 100h4v4h-4zM232 100h4v4h-4zM96 104h4v4h-4z"/><path fill="#6096BF" d="M100 104h4v4h-4zM104 104h4v4h-4zM108 104h4v4h-4z"/><path fill="#9F90D7" d="M112 104h4v4h-4z"/><path fill="#6096BF" d="M116 104h4v4h-4zM120 104h4v4h-4zM124 104h4v4h-4zM128 104h4v4h-4zM132 104h4v4h-4z"/><path fill="#5564BF" d="M136 104h4v4h-4z"/><path fill="#351A45" d="M140 104h4v4h-4zM96 108h4v4h-4z"/><path fill="#6096BF" d="M100 108h4v4h-4zM104 108h4v4h-4z"/><path fill="#9F90D7" d="M108 108h4v4h-4z"/><path fill="#6E69BF" d="M112 108h4v4h-4z"/><path fill="#9F90D7" d="M116 108h4v4h-4z"/><path fill="#6096BF" d="M120 108h4v4h-4zM124 108h4v4h-4zM128 108h4v4h-4zM132 108h4v4h-4zM136 108h4v4h-4z"/><path fill="#5564BF" d="M140 108h4v4h-4z"/><path fill="#351A45" d="M144 108h4v4h-4zM160 108h4v4h-4zM164 108h4v4h-4zM168 108h4v4h-4zM172 108h4v4h-4zM176 108h4v4h-4zM96 112h4v4h-4z"/><path fill="#592B73" d="M100 112h4v4h-4z"/><path fill="#6096BF" d="M104 112h4v4h-4z"/><path fill="#9F90D7" d="M108 112h4v4h-4z"/><path fill="#6E69BF" d="M112 112h4v4h-4z"/><path fill="#9F90D7" d="M116 112h4v4h-4z"/><path fill="#6096BF" d="M120 112h4v4h-4z"/><path fill="#9F90D7" d="M124 112h4v4h-4z"/><path fill="#6096BF" d="M128 112h4v4h-4zM132 112h4v4h-4z"/><path fill="#9F90D7" d="M136 112h4v4h-4z"/><path fill="#6096BF" d="M140 112h4v4h-4z"/><path fill="#351A45" d="M144 112h4v4h-4zM152 112h4v4h-4zM156 112h4v4h-4zM160 112h4v4h-4zM164 112h4v4h-4zM168 112h4v4h-4zM172 112h4v4h-4zM176 112h4v4h-4zM180 112h4v4h-4zM184 112h4v4h-4zM100 116h4v4h-4z"/><path fill="#5564BF" d="M104 116h4v4h-4z"/><path fill="#6096BF" d="M108 116h4v4h-4z"/><path fill="#9F90D7" d="M112 116h4v4h-4z"/><path fill="#6096BF" d="M116 116h4v4h-4z"/><path fill="#9F90D7" d="M120 116h4v4h-4z"/><path fill="#6E69BF" d="M124 116h4v4h-4z"/><path fill="#9F90D7" d="M128 116h4v4h-4z"/><path fill="#6096BF" d="M132 116h4v4h-4zM136 116h4v4h-4z"/><path fill="#9F90D7" d="M140 116h4v4h-4z"/><path fill="#5564BF" d="M144 116h4v4h-4z"/><path fill="#351A45" d="M148 116h4v4h-4zM152 116h4v4h-4zM156 116h4v4h-4zM160 116h4v4h-4zM164 116h4v4h-4zM168 116h4v4h-4zM172 116h4v4h-4zM176 116h4v4h-4zM180 116h4v4h-4zM184 116h4v4h-4zM188 116h4v4h-4zM104 120h4v4h-4z"/><path fill="#6096BF" d="M108 120h4v4h-4zM112 120h4v4h-4zM116 120h4v4h-4z"/><path fill="#9F90D7" d="M120 120h4v4h-4z"/><path fill="#6E69BF" d="M124 120h4v4h-4z"/><path fill="#9F90D7" d="M128 120h4v4h-4z"/><path fill="#6096BF" d="M132 120h4v4h-4zM136 120h4v4h-4z"/><path fill="#9F90D7" d="M140 120h4v4h-4z"/><path fill="#6096BF" d="M144 120h4v4h-4z"/><path fill="#351A45" d="M148 120h4v4h-4zM152 120h4v4h-4zM156 120h4v4h-4zM160 120h4v4h-4zM164 120h4v4h-4zM168 120h4v4h-4zM172 120h4v4h-4zM176 120h4v4h-4z"/><path fill="#592B73" d="M180 120h4v4h-4z"/><path fill="#351A45" d="M184 120h4v4h-4zM188 120h4v4h-4zM104 124h4v4h-4z"/><path fill="#5564BF" d="M108 124h4v4h-4z"/><path fill="#6096BF" d="M112 124h4v4h-4zM116 124h4v4h-4zM120 124h4v4h-4z"/><path fill="#9F90D7" d="M124 124h4v4h-4z"/><path fill="#6096BF" d="M128 124h4v4h-4zM132 124h4v4h-4z"/><path fill="#9F90D7" d="M136 124h4v4h-4zM140 124h4v4h-4z"/><path fill="#6096BF" d="M144 124h4v4h-4zM148 124h4v4h-4z"/><path fill="#351A45" d="M152 124h4v4h-4zM156 124h4v4h-4zM160 124h4v4h-4zM164 124h4v4h-4zM176 124h4v4h-4zM180 124h4v4h-4zM184 124h4v4h-4zM188 124h4v4h-4zM192 124h4v4h-4zM232 124h4v4h-4zM236 124h4v4h-4zM240 124h4v4h-4zM244 124h4v4h-4zM248 124h4v4h-4zM104 128h4v4h-4z"/><path fill="#592B73" d="M108 128h4v4h-4z"/><path fill="#5564BF" d="M112 128h4v4h-4z"/><path fill="#6096BF" d="M116 128h4v4h-4zM120 128h4v4h-4zM124 128h4v4h-4zM128 128h4v4h-4zM132 128h4v4h-4z"/><path fill="#9F90D7" d="M136 128h4v4h-4zM140 128h4v4h-4z"/><path fill="#6E69BF" d="M144 128h4v4h-4z"/><path fill="#9F90D7" d="M148 128h4v4h-4z"/><path fill="#6096BF" d="M152 128h4v4h-4z"/><path fill="#351A45" d="M156 128h4v4h-4zM180 128h4v4h-4zM184 128h4v4h-4zM188 128h4v4h-4zM192 128h4v4h-4zM224 128h4v4h-4zM228 128h4v4h-4z"/><path fill="#592B73" d="M232 128h4v4h-4zM236 128h4v4h-4zM240 128h4v4h-4zM244 128h4v4h-4zM248 128h4v4h-4z"/><path fill="#351A45" d="M252 128h4v4h-4zM108 132h4v4h-4z"/><path fill="#592B73" d="M112 132h4v4h-4z"/><path fill="#6096BF" d="M116 132h4v4h-4zM120 132h4v4h-4zM124 132h4v4h-4zM128 132h4v4h-4zM132 132h4v4h-4z"/><path fill="#9F90D7" d="M136 132h4v4h-4zM140 132h4v4h-4z"/><path fill="#6E69BF" d="M144 132h4v4h-4z"/><path fill="#9F90D7" d="M148 132h4v4h-4z"/><path fill="#6096BF" d="M152 132h4v4h-4zM156 132h4v4h-4z"/><path fill="#351A45" d="M160 132h4v4h-4zM184 132h4v4h-4zM188 132h4v4h-4zM192 132h4v4h-4zM216 132h4v4h-4zM220 132h4v4h-4z"/><path fill="#592B73" d="M224 132h4v4h-4zM228 132h4v4h-4zM232 132h4v4h-4z"/><path fill="#6096BF" d="M236 132h4v4h-4z"/><path fill="#9F90D7" d="M240 132h4v4h-4z"/><path fill="#6096BF" d="M244 132h4v4h-4z"/><path fill="#592B73" d="M248 132h4v4h-4zM252 132h4v4h-4z"/><path fill="#351A45" d="M256 132h4v4h-4zM260 132h4v4h-4zM112 136h4v4h-4z"/><path fill="#592B73" d="M116 136h4v4h-4z"/><path fill="#6096BF" d="M120 136h4v4h-4zM124 136h4v4h-4z"/><path fill="#9F90D7" d="M128 136h4v4h-4zM132 136h4v4h-4z"/><path fill="#6096BF" d="M136 136h4v4h-4z"/><path fill="#9F90D7" d="M140 136h4v4h-4zM144 136h4v4h-4zM148 136h4v4h-4z"/><path fill="#6096BF" d="M152 136h4v4h-4zM156 136h4v4h-4zM160 136h4v4h-4z"/><path fill="#351A45" d="M164 136h4v4h-4z"/><path fill="#592B73" d="M180 136h4v4h-4z"/><path fill="#351A45" d="M184 136h4v4h-4zM188 136h4v4h-4zM212 136h4v4h-4z"/><path fill="#592B73" d="M216 136h4v4h-4zM220 136h4v4h-4z"/><path fill="#5764BF" d="M224 136h4v4h-4zM228 136h4v4h-4z"/><path fill="#6096BF" d="M232 136h4v4h-4z"/><path fill="#9F90D7" d="M236 136h4v4h-4zM240 136h4v4h-4zM244 136h4v4h-4z"/><path fill="#6096BF" d="M248 136h4v4h-4zM252 136h4v4h-4z"/><path fill="#592B73" d="M256 136h4v4h-4zM260 136h4v4h-4z"/><path fill="#351A45" d="M264 136h4v4h-4zM116 140h4v4h-4z"/><path fill="#592B73" d="M120 140h4v4h-4z"/><path fill="#6096BF" d="M124 140h4v4h-4z"/><path fill="#9F90D7" d="M128 140h4v4h-4zM132 140h4v4h-4z"/><path fill="#6096BF" d="M136 140h4v4h-4z"/><path fill="#9F90D7" d="M140 140h4v4h-4zM144 140h4v4h-4zM148 140h4v4h-4zM152 140h4v4h-4z"/><path fill="#6096BF" d="M156 140h4v4h-4zM160 140h4v4h-4z"/><path fill="#5564BF" d="M164 140h4v4h-4z"/><path fill="#351A45" d="M168 140h4v4h-4zM180 140h4v4h-4zM184 140h4v4h-4zM212 140h4v4h-4z"/><path fill="#592B73" d="M216 140h4v4h-4z"/><path fill="#5764BF" d="M220 140h4v4h-4z"/><path fill="#6096BF" d="M224 140h4v4h-4zM228 140h4v4h-4zM232 140h4v4h-4zM236 140h4v4h-4z"/><path fill="#9F90D7" d="M240 140h4v4h-4z"/><path fill="#6096BF" d="M244 140h4v4h-4zM248 140h4v4h-4zM252 140h4v4h-4zM256 140h4v4h-4z"/><path fill="#592B73" d="M260 140h4v4h-4z"/><path fill="#351A45" d="M264 140h4v4h-4zM268 140h4v4h-4zM120 144h4v4h-4z"/><path fill="#592B73" d="M124 144h4v4h-4z"/><path fill="#6096BF" d="M128 144h4v4h-4zM132 144h4v4h-4z"/><path fill="#9F90D7" d="M136 144h4v4h-4z"/><path fill="#6E69BF" d="M140 144h4v4h-4zM144 144h4v4h-4z"/><path fill="#9F90D7" d="M148 144h4v4h-4z"/><path fill="#6096BF" d="M152 144h4v4h-4zM156 144h4v4h-4zM160 144h4v4h-4zM164 144h4v4h-4z"/><path fill="#5564BF" d="M168 144h4v4h-4z"/><path fill="#351A45" d="M172 144h4v4h-4zM208 144h4v4h-4z"/><path fill="#592B73" d="M212 144h4v4h-4z"/><path fill="#6096BF" d="M216 144h4v4h-4z"/><path fill="#9F90D7" d="M220 144h4v4h-4z"/><path fill="#592B73" d="M224 144h4v4h-4z"/><path fill="#351A45" d="M228 144h4v4h-4zM232 144h4v4h-4zM236 144h4v4h-4zM240 144h4v4h-4zM244 144h4v4h-4z"/><path fill="#592B73" d="M248 144h4v4h-4z"/><path fill="#6096BF" d="M252 144h4v4h-4z"/><path fill="#9F90D7" d="M256 144h4v4h-4z"/><path fill="#5764BF" d="M260 144h4v4h-4z"/><path fill="#592B73" d="M264 144h4v4h-4z"/><path fill="#351A45" d="M268 144h4v4h-4zM272 144h4v4h-4zM124 148h4v4h-4z"/><path fill="#592B73" d="M128 148h4v4h-4z"/><path fill="#6096BF" d="M132 148h4v4h-4z"/><path fill="#9F90D7" d="M136 148h4v4h-4z"/><path fill="#6E69BF" d="M140 148h4v4h-4zM144 148h4v4h-4z"/><path fill="#9F90D7" d="M148 148h4v4h-4zM152 148h4v4h-4zM156 148h4v4h-4zM160 148h4v4h-4zM164 148h4v4h-4z"/><path fill="#6096BF" d="M168 148h4v4h-4z"/><path fill="#5564BF" d="M172 148h4v4h-4z"/><path fill="#351A45" d="M176 148h4v4h-4zM208 148h4v4h-4z"/><path fill="#592B73" d="M212 148h4v4h-4z"/><path fill="#5764BF" d="M216 148h4v4h-4zM220 148h4v4h-4z"/><path fill="#351A45" d="M224 148h4v4h-4zM232 148h4v4h-4z"/><path fill="#592B73" d="M236 148h4v4h-4z"/><path fill="#351A45" d="M240 148h4v4h-4zM248 148h4v4h-4z"/><path fill="#9F90D7" d="M252 148h4v4h-4zM256 148h4v4h-4zM260 148h4v4h-4z"/><path fill="#592B73" d="M264 148h4v4h-4zM268 148h4v4h-4z"/><path fill="#351A45" d="M272 148h4v4h-4zM124 152h4v4h-4z"/><path fill="#592B73" d="M128 152h4v4h-4zM132 152h4v4h-4z"/><path fill="#6096BF" d="M136 152h4v4h-4zM140 152h4v4h-4z"/><path fill="#9F90D7" d="M144 152h4v4h-4zM148 152h4v4h-4zM152 152h4v4h-4zM156 152h4v4h-4zM160 152h4v4h-4z"/><path fill="#6E69BF" d="M164 152h4v4h-4z"/><path fill="#9F90D7" d="M168 152h4v4h-4z"/><path fill="#6096BF" d="M172 152h4v4h-4z"/><path fill="#5564BF" d="M176 152h4v4h-4z"/><path fill="#351A45" d="M180 152h4v4h-4zM208 152h4v4h-4z"/><path fill="#592B73" d="M212 152h4v4h-4zM216 152h4v4h-4zM220 152h4v4h-4z"/><path fill="#351A45" d="M224 152h4v4h-4zM228 152h4v4h-4z"/><path fill="#592B73" d="M232 152h4v4h-4z"/><path fill="#6096BF" d="M236 152h4v4h-4z"/><path fill="#351A45" d="M240 152h4v4h-4zM248 152h4v4h-4z"/><path fill="#6096BF" d="M252 152h4v4h-4z"/><path fill="#9F90D7" d="M256 152h4v4h-4z"/><path fill="#6096BF" d="M260 152h4v4h-4z"/><path fill="#592B73" d="M264 152h4v4h-4zM268 152h4v4h-4z"/><path fill="#351A45" d="M272 152h4v4h-4zM128 156h4v4h-4z"/><path fill="#592B73" d="M132 156h4v4h-4z"/><path fill="#5564BF" d="M136 156h4v4h-4z"/><path fill="#6096BF" d="M140 156h4v4h-4zM144 156h4v4h-4z"/><path fill="#9F90D7" d="M148 156h4v4h-4zM152 156h4v4h-4z"/><path fill="#6096BF" d="M156 156h4v4h-4z"/><path fill="#9F90D7" d="M160 156h4v4h-4zM164 156h4v4h-4zM168 156h4v4h-4z"/><path fill="#6096BF" d="M172 156h4v4h-4zM176 156h4v4h-4z"/><path fill="#351A45" d="M180 156h4v4h-4zM212 156h4v4h-4z"/><path fill="#592B73" d="M216 156h4v4h-4zM220 156h4v4h-4zM224 156h4v4h-4zM228 156h4v4h-4zM232 156h4v4h-4zM236 156h4v4h-4z"/><path fill="#351A45" d="M240 156h4v4h-4z"/><path fill="#592B73" d="M248 156h4v4h-4z"/><path fill="#351A45" d="M252 156h4v4h-4z"/><path fill="#6096BF" d="M256 156h4v4h-4zM260 156h4v4h-4z"/><path fill="#592B73" d="M264 156h4v4h-4z"/><path fill="#351A45" d="M268 156h4v4h-4zM272 156h4v4h-4zM276 156h4v4h-4zM132 160h4v4h-4z"/><path fill="#592B73" d="M136 160h4v4h-4z"/><path fill="#5564BF" d="M140 160h4v4h-4z"/><path fill="#6096BF" d="M144 160h4v4h-4zM148 160h4v4h-4z"/><path fill="#9F90D7" d="M152 160h4v4h-4zM156 160h4v4h-4z"/><path fill="#6E69BF" d="M160 160h4v4h-4zM164 160h4v4h-4z"/><path fill="#9F90D7" d="M168 160h4v4h-4z"/><path fill="#6096BF" d="M172 160h4v4h-4zM176 160h4v4h-4z"/><path fill="#5564BF" d="M180 160h4v4h-4z"/><path fill="#351A45" d="M184 160h4v4h-4zM212 160h4v4h-4z"/><path fill="#592B73" d="M216 160h4v4h-4zM220 160h4v4h-4zM224 160h4v4h-4zM228 160h4v4h-4z"/><path fill="#351A45" d="M232 160h4v4h-4zM236 160h4v4h-4z"/><path fill="#592B73" d="M248 160h4v4h-4z"/><path fill="#5764BF" d="M252 160h4v4h-4z"/><path fill="#9F90D7" d="M256 160h4v4h-4z"/><path fill="#6096BF" d="M260 160h4v4h-4z"/><path fill="#592B73" d="M264 160h4v4h-4z"/><path fill="#351A45" d="M268 160h4v4h-4zM272 160h4v4h-4zM276 160h4v4h-4zM132 164h4v4h-4z"/><path fill="#592B73" d="M136 164h4v4h-4zM140 164h4v4h-4z"/><path fill="#5564BF" d="M144 164h4v4h-4z"/><path fill="#6096BF" d="M148 164h4v4h-4zM152 164h4v4h-4z"/><path fill="#9F90D7" d="M156 164h4v4h-4z"/><path fill="#6E69BF" d="M160 164h4v4h-4zM164 164h4v4h-4z"/><path fill="#9F90D7" d="M168 164h4v4h-4z"/><path fill="#6096BF" d="M172 164h4v4h-4z"/><path fill="#9F90D7" d="M176 164h4v4h-4z"/><path fill="#6096BF" d="M180 164h4v4h-4z"/><path fill="#5564BF" d="M184 164h4v4h-4z"/><path fill="#351A45" d="M188 164h4v4h-4zM216 164h4v4h-4zM220 164h4v4h-4zM224 164h4v4h-4zM228 164h4v4h-4zM248 164h4v4h-4z"/><path fill="#5764BF" d="M252 164h4v4h-4z"/><path fill="#9F90D7" d="M256 164h4v4h-4zM260 164h4v4h-4z"/><path fill="#592B73" d="M264 164h4v4h-4zM268 164h4v4h-4z"/><path fill="#351A45" d="M272 164h4v4h-4zM276 164h4v4h-4zM136 168h4v4h-4z"/><path fill="#592B73" d="M140 168h4v4h-4zM144 168h4v4h-4z"/><path fill="#5564BF" d="M148 168h4v4h-4z"/><path fill="#6096BF" d="M152 168h4v4h-4z"/><path fill="#9F90D7" d="M156 168h4v4h-4zM160 168h4v4h-4zM164 168h4v4h-4zM168 168h4v4h-4zM172 168h4v4h-4zM176 168h4v4h-4z"/><path fill="#6096BF" d="M180 168h4v4h-4zM184 168h4v4h-4z"/><path fill="#5564BF" d="M188 168h4v4h-4z"/><path fill="#351A45" d="M192 168h4v4h-4z"/><path fill="#592B73" d="M248 168h4v4h-4z"/><path fill="#6096BF" d="M252 168h4v4h-4z"/><path fill="#9F90D7" d="M256 168h4v4h-4zM260 168h4v4h-4z"/><path fill="#592B73" d="M264 168h4v4h-4zM268 168h4v4h-4z"/><path fill="#351A45" d="M272 168h4v4h-4zM136 172h4v4h-4zM140 172h4v4h-4z"/><path fill="#592B73" d="M144 172h4v4h-4zM148 172h4v4h-4z"/><path fill="#5564BF" d="M152 172h4v4h-4z"/><path fill="#6096BF" d="M156 172h4v4h-4zM160 172h4v4h-4zM164 172h4v4h-4zM168 172h4v4h-4z"/><path fill="#9F90D7" d="M172 172h4v4h-4zM176 172h4v4h-4z"/><path fill="#6096BF" d="M180 172h4v4h-4z"/><path fill="#9F90D7" d="M184 172h4v4h-4z"/><path fill="#6096BF" d="M188 172h4v4h-4z"/><path fill="#351A45" d="M192 172h4v4h-4zM244 172h4v4h-4z"/><path fill="#6096BF" d="M248 172h4v4h-4zM252 172h4v4h-4zM256 172h4v4h-4zM260 172h4v4h-4z"/><path fill="#592B73" d="M264 172h4v4h-4z"/><path fill="#351A45" d="M268 172h4v4h-4zM272 172h4v4h-4zM136 176h4v4h-4zM140 176h4v4h-4zM144 176h4v4h-4z"/><path fill="#592B73" d="M148 176h4v4h-4zM152 176h4v4h-4z"/><path fill="#6096BF" d="M156 176h4v4h-4zM160 176h4v4h-4zM164 176h4v4h-4zM168 176h4v4h-4z"/><path fill="#9F90D7" d="M172 176h4v4h-4zM176 176h4v4h-4zM180 176h4v4h-4zM184 176h4v4h-4z"/><path fill="#6096BF" d="M188 176h4v4h-4zM192 176h4v4h-4z"/><path fill="#351A45" d="M196 176h4v4h-4zM240 176h4v4h-4z"/><path fill="#592B73" d="M244 176h4v4h-4z"/><path fill="#9F90D7" d="M248 176h4v4h-4zM252 176h4v4h-4z"/><path fill="#6096BF" d="M256 176h4v4h-4zM260 176h4v4h-4z"/><path fill="#592B73" d="M264 176h4v4h-4z"/><path fill="#351A45" d="M268 176h4v4h-4zM272 176h4v4h-4zM136 180h4v4h-4zM140 180h4v4h-4zM144 180h4v4h-4z"/><path fill="#592B73" d="M148 180h4v4h-4zM152 180h4v4h-4zM156 180h4v4h-4z"/><path fill="#6096BF" d="M160 180h4v4h-4zM164 180h4v4h-4z"/><path fill="#9F90D7" d="M168 180h4v4h-4zM172 180h4v4h-4zM176 180h4v4h-4z"/><path fill="#6096BF" d="M180 180h4v4h-4zM184 180h4v4h-4zM188 180h4v4h-4zM192 180h4v4h-4z"/><path fill="#351A45" d="M196 180h4v4h-4zM236 180h4v4h-4z"/><path fill="#5764BF" d="M240 180h4v4h-4zM244 180h4v4h-4z"/><path fill="#9F90D7" d="M248 180h4v4h-4zM252 180h4v4h-4z"/><path fill="#6096BF" d="M256 180h4v4h-4z"/><path fill="#5764BF" d="M260 180h4v4h-4z"/><path fill="#592B73" d="M264 180h4v4h-4z"/><path fill="#351A45" d="M268 180h4v4h-4zM272 180h4v4h-4zM132 184h4v4h-4zM136 184h4v4h-4zM140 184h4v4h-4zM144 184h4v4h-4zM148 184h4v4h-4z"/><path fill="#592B73" d="M152 184h4v4h-4zM156 184h4v4h-4z"/><path fill="#5564BF" d="M160 184h4v4h-4z"/><path fill="#9F90D7" d="M164 184h4v4h-4z"/><path fill="#6E69BF" d="M168 184h4v4h-4zM172 184h4v4h-4z"/><path fill="#9F90D7" d="M176 184h4v4h-4z"/><path fill="#6096BF" d="M180 184h4v4h-4z"/><path fill="#9F90D7" d="M184 184h4v4h-4zM188 184h4v4h-4z"/><path fill="#6096BF" d="M192 184h4v4h-4zM196 184h4v4h-4z"/><path fill="#351A45" d="M200 184h4v4h-4zM228 184h4v4h-4zM232 184h4v4h-4z"/><path fill="#592B73" d="M236 184h4v4h-4z"/><path fill="#6096BF" d="M240 184h4v4h-4z"/><path fill="#9F90D7" d="M244 184h4v4h-4z"/><path fill="#6096BF" d="M248 184h4v4h-4zM252 184h4v4h-4z"/><path fill="#5764BF" d="M256 184h4v4h-4z"/><path fill="#592B73" d="M260 184h4v4h-4z"/><path fill="#351A45" d="M264 184h4v4h-4zM268 184h4v4h-4zM132 188h4v4h-4zM136 188h4v4h-4zM140 188h4v4h-4zM144 188h4v4h-4zM148 188h4v4h-4z"/><path fill="#592B73" d="M152 188h4v4h-4zM156 188h4v4h-4zM160 188h4v4h-4z"/><path fill="#9F90D7" d="M164 188h4v4h-4z"/><path fill="#6E69BF" d="M168 188h4v4h-4zM172 188h4v4h-4z"/><path fill="#9F90D7" d="M176 188h4v4h-4z"/><path fill="#6096BF" d="M180 188h4v4h-4z"/><path fill="#9F90D7" d="M184 188h4v4h-4z"/><path fill="#5564BF" d="M188 188h4v4h-4z"/><path fill="#9F90D7" d="M192 188h4v4h-4z"/><path fill="#6096BF" d="M196 188h4v4h-4z"/><path fill="#351A45" d="M200 188h4v4h-4zM216 188h4v4h-4zM220 188h4v4h-4zM224 188h4v4h-4z"/><path fill="#5764BF" d="M228 188h4v4h-4z"/><path fill="#6096BF" d="M232 188h4v4h-4zM236 188h4v4h-4zM240 188h4v4h-4zM244 188h4v4h-4z"/><path fill="#5764BF" d="M248 188h4v4h-4zM252 188h4v4h-4z"/><path fill="#592B73" d="M256 188h4v4h-4z"/><path fill="#351A45" d="M260 188h4v4h-4zM264 188h4v4h-4zM128 192h4v4h-4zM132 192h4v4h-4zM136 192h4v4h-4zM140 192h4v4h-4zM144 192h4v4h-4zM148 192h4v4h-4z"/><path fill="#592B73" d="M152 192h4v4h-4zM156 192h4v4h-4zM160 192h4v4h-4z"/><path fill="#5564BF" d="M164 192h4v4h-4z"/><path fill="#9F90D7" d="M168 192h4v4h-4zM172 192h4v4h-4z"/><path fill="#6096BF" d="M176 192h4v4h-4z"/><path fill="#9F90D7" d="M180 192h4v4h-4zM184 192h4v4h-4zM188 192h4v4h-4zM192 192h4v4h-4z"/><path fill="#6096BF" d="M196 192h4v4h-4zM200 192h4v4h-4z"/><path fill="#351A45" d="M204 192h4v4h-4zM212 192h4v4h-4z"/><path fill="#592B73" d="M216 192h4v4h-4z"/><path fill="#5764BF" d="M220 192h4v4h-4zM224 192h4v4h-4z"/><path fill="#6096BF" d="M228 192h4v4h-4z"/><path fill="#9F90D7" d="M232 192h4v4h-4z"/><path fill="#6096BF" d="M236 192h4v4h-4zM240 192h4v4h-4z"/><path fill="#5764BF" d="M244 192h4v4h-4z"/><path fill="#592B73" d="M248 192h4v4h-4zM252 192h4v4h-4z"/><path fill="#351A45" d="M256 192h4v4h-4zM260 192h4v4h-4zM128 196h4v4h-4zM132 196h4v4h-4zM136 196h4v4h-4zM140 196h4v4h-4zM144 196h4v4h-4zM148 196h4v4h-4zM152 196h4v4h-4z"/><path fill="#592B73" d="M156 196h4v4h-4zM160 196h4v4h-4z"/><path fill="#5564BF" d="M164 196h4v4h-4z"/><path fill="#6096BF" d="M168 196h4v4h-4zM172 196h4v4h-4zM176 196h4v4h-4z"/><path fill="#9F90D7" d="M180 196h4v4h-4zM184 196h4v4h-4zM188 196h4v4h-4zM192 196h4v4h-4z"/><path fill="#5564BF" d="M196 196h4v4h-4z"/><path fill="#6096BF" d="M200 196h4v4h-4z"/><path fill="#5564BF" d="M204 196h4v4h-4z"/><path fill="#351A45" d="M208 196h4v4h-4z"/><path fill="#592B73" d="M212 196h4v4h-4z"/><path fill="#5764BF" d="M216 196h4v4h-4z"/><path fill="#6096BF" d="M220 196h4v4h-4zM224 196h4v4h-4zM228 196h4v4h-4zM232 196h4v4h-4zM236 196h4v4h-4z"/><path fill="#592B73" d="M240 196h4v4h-4zM244 196h4v4h-4zM248 196h4v4h-4z"/><path fill="#351A45" d="M252 196h4v4h-4zM256 196h4v4h-4zM260 196h4v4h-4zM124 200h4v4h-4zM128 200h4v4h-4zM132 200h4v4h-4zM136 200h4v4h-4zM140 200h4v4h-4zM144 200h4v4h-4zM148 200h4v4h-4zM152 200h4v4h-4z"/><path fill="#592B73" d="M156 200h4v4h-4zM160 200h4v4h-4zM164 200h4v4h-4z"/><path fill="#5564BF" d="M168 200h4v4h-4z"/><path fill="#6096BF" d="M172 200h4v4h-4zM176 200h4v4h-4z"/><path fill="#9F90D7" d="M180 200h4v4h-4zM184 200h4v4h-4z"/><path fill="#5564BF" d="M188 200h4v4h-4z"/><path fill="#9F90D7" d="M192 200h4v4h-4z"/><path fill="#5564BF" d="M196 200h4v4h-4z"/><path fill="#6096BF" d="M200 200h4v4h-4z"/><path fill="#5564BF" d="M204 200h4v4h-4z"/><path fill="#351A45" d="M208 200h4v4h-4z"/><path fill="#5764BF" d="M212 200h4v4h-4z"/><path fill="#6096BF" d="M216 200h4v4h-4zM220 200h4v4h-4zM224 200h4v4h-4zM228 200h4v4h-4zM232 200h4v4h-4z"/><path fill="#5764BF" d="M236 200h4v4h-4z"/><path fill="#592B73" d="M240 200h4v4h-4zM244 200h4v4h-4zM248 200h4v4h-4z"/><path fill="#351A45" d="M252 200h4v4h-4zM256 200h4v4h-4zM124 204h4v4h-4zM128 204h4v4h-4zM132 204h4v4h-4zM136 204h4v4h-4zM140 204h4v4h-4zM144 204h4v4h-4zM148 204h4v4h-4zM156 204h4v4h-4z"/><path fill="#592B73" d="M160 204h4v4h-4zM164 204h4v4h-4z"/><path fill="#5564BF" d="M168 204h4v4h-4z"/><path fill="#6096BF" d="M172 204h4v4h-4zM176 204h4v4h-4z"/><path fill="#9F90D7" d="M180 204h4v4h-4zM184 204h4v4h-4z"/><path fill="#5564BF" d="M188 204h4v4h-4z"/><path fill="#9F90D7" d="M192 204h4v4h-4zM196 204h4v4h-4z"/><path fill="#6096BF" d="M200 204h4v4h-4z"/><path fill="#5564BF" d="M204 204h4v4h-4z"/><path fill="#351A45" d="M208 204h4v4h-4z"/><path fill="#6096BF" d="M212 204h4v4h-4zM216 204h4v4h-4zM220 204h4v4h-4zM224 204h4v4h-4zM228 204h4v4h-4z"/><path fill="#5764BF" d="M232 204h4v4h-4z"/><path fill="#592B73" d="M236 204h4v4h-4zM240 204h4v4h-4zM244 204h4v4h-4z"/><path fill="#351A45" d="M248 204h4v4h-4zM252 204h4v4h-4zM124 208h4v4h-4zM128 208h4v4h-4zM132 208h4v4h-4zM136 208h4v4h-4zM140 208h4v4h-4zM144 208h4v4h-4zM148 208h4v4h-4zM156 208h4v4h-4z"/><path fill="#592B73" d="M160 208h4v4h-4zM164 208h4v4h-4z"/><path fill="#5564BF" d="M168 208h4v4h-4z"/><path fill="#6096BF" d="M172 208h4v4h-4zM176 208h4v4h-4z"/><path fill="#9F90D7" d="M180 208h4v4h-4zM184 208h4v4h-4zM188 208h4v4h-4zM192 208h4v4h-4zM196 208h4v4h-4z"/><path fill="#6096BF" d="M200 208h4v4h-4z"/><path fill="#5564BF" d="M204 208h4v4h-4z"/><path fill="#351A45" d="M208 208h4v4h-4z"/><path fill="#9F90D7" d="M212 208h4v4h-4z"/><path fill="#6096BF" d="M216 208h4v4h-4zM220 208h4v4h-4z"/><path fill="#5764BF" d="M224 208h4v4h-4zM228 208h4v4h-4z"/><path fill="#592B73" d="M232 208h4v4h-4zM236 208h4v4h-4zM240 208h4v4h-4z"/><path fill="#351A45" d="M244 208h4v4h-4zM248 208h4v4h-4zM124 212h4v4h-4zM128 212h4v4h-4zM132 212h4v4h-4zM136 212h4v4h-4zM140 212h4v4h-4zM144 212h4v4h-4zM148 212h4v4h-4zM156 212h4v4h-4z"/><path fill="#592B73" d="M160 212h4v4h-4zM164 212h4v4h-4z"/><path fill="#5564BF" d="M168 212h4v4h-4zM172 212h4v4h-4z"/><path fill="#6096BF" d="M176 212h4v4h-4zM180 212h4v4h-4z"/><path fill="#9F90D7" d="M184 212h4v4h-4zM188 212h4v4h-4zM192 212h4v4h-4zM196 212h4v4h-4z"/><path fill="#6096BF" d="M200 212h4v4h-4zM204 212h4v4h-4z"/><path fill="#5564BF" d="M208 212h4v4h-4z"/><path fill="#351A45" d="M212 212h4v4h-4z"/><path fill="#6096BF" d="M216 212h4v4h-4zM220 212h4v4h-4z"/><path fill="#592B73" d="M224 212h4v4h-4zM228 212h4v4h-4zM232 212h4v4h-4zM236 212h4v4h-4z"/><path fill="#351A45" d="M240 212h4v4h-4zM124 216h4v4h-4zM128 216h4v4h-4zM132 216h4v4h-4zM136 216h4v4h-4zM140 216h4v4h-4zM144 216h4v4h-4zM148 216h4v4h-4zM152 216h4v4h-4zM156 216h4v4h-4z"/><path fill="#592B73" d="M160 216h4v4h-4zM164 216h4v4h-4z"/><path fill="#5564BF" d="M168 216h4v4h-4zM172 216h4v4h-4z"/><path fill="#9F90D7" d="M176 216h4v4h-4zM180 216h4v4h-4z"/><path fill="#6096BF" d="M184 216h4v4h-4zM188 216h4v4h-4zM192 216h4v4h-4zM196 216h4v4h-4zM200 216h4v4h-4zM204 216h4v4h-4z"/><path fill="#5564BF" d="M208 216h4v4h-4z"/><path fill="#351A45" d="M212 216h4v4h-4z"/><path fill="#6096BF" d="M216 216h4v4h-4z"/><path fill="#5764BF" d="M220 216h4v4h-4z"/><path fill="#592B73" d="M224 216h4v4h-4zM228 216h4v4h-4zM232 216h4v4h-4z"/><path fill="#351A45" d="M236 216h4v4h-4zM240 216h4v4h-4zM124 220h4v4h-4zM128 220h4v4h-4zM132 220h4v4h-4zM136 220h4v4h-4zM140 220h4v4h-4zM144 220h4v4h-4zM148 220h4v4h-4zM152 220h4v4h-4zM156 220h4v4h-4z"/><path fill="#592B73" d="M160 220h4v4h-4zM164 220h4v4h-4z"/><path fill="#5564BF" d="M168 220h4v4h-4z"/><path fill="#9F90D7" d="M172 220h4v4h-4z"/><path fill="#5564BF" d="M176 220h4v4h-4zM180 220h4v4h-4z"/><path fill="#9F90D7" d="M184 220h4v4h-4z"/><path fill="#6096BF" d="M188 220h4v4h-4zM192 220h4v4h-4zM196 220h4v4h-4zM200 220h4v4h-4zM204 220h4v4h-4z"/><path fill="#5564BF" d="M208 220h4v4h-4z"/><path fill="#351A45" d="M212 220h4v4h-4z"/><path fill="#6096BF" d="M216 220h4v4h-4z"/><path fill="#592B73" d="M220 220h4v4h-4zM224 220h4v4h-4zM228 220h4v4h-4zM232 220h4v4h-4z"/><path fill="#351A45" d="M236 220h4v4h-4zM124 224h4v4h-4zM128 224h4v4h-4zM132 224h4v4h-4zM136 224h4v4h-4zM140 224h4v4h-4zM144 224h4v4h-4zM148 224h4v4h-4zM152 224h4v4h-4zM156 224h4v4h-4z"/><path fill="#592B73" d="M160 224h4v4h-4z"/><path fill="#5564BF" d="M164 224h4v4h-4zM168 224h4v4h-4z"/><path fill="#9F90D7" d="M172 224h4v4h-4z"/><path fill="#5564BF" d="M176 224h4v4h-4zM180 224h4v4h-4z"/><path fill="#9F90D7" d="M184 224h4v4h-4z"/><path fill="#6096BF" d="M188 224h4v4h-4zM192 224h4v4h-4zM196 224h4v4h-4zM200 224h4v4h-4zM204 224h4v4h-4z"/><path fill="#5564BF" d="M208 224h4v4h-4z"/><path fill="#351A45" d="M212 224h4v4h-4z"/><path fill="#592B73" d="M216 224h4v4h-4zM220 224h4v4h-4zM224 224h4v4h-4zM228 224h4v4h-4z"/><path fill="#351A45" d="M232 224h4v4h-4zM128 228h4v4h-4zM132 228h4v4h-4zM136 228h4v4h-4zM140 228h4v4h-4zM144 228h4v4h-4zM148 228h4v4h-4zM152 228h4v4h-4z"/><path fill="#592B73" d="M156 228h4v4h-4zM160 228h4v4h-4z"/><path fill="#5564BF" d="M164 228h4v4h-4zM168 228h4v4h-4z"/><path fill="#9F90D7" d="M172 228h4v4h-4zM176 228h4v4h-4zM180 228h4v4h-4zM184 228h4v4h-4zM188 228h4v4h-4z"/><path fill="#6096BF" d="M192 228h4v4h-4zM196 228h4v4h-4zM200 228h4v4h-4zM204 228h4v4h-4z"/><path fill="#592B73" d="M208 228h4v4h-4z"/><path fill="#351A45" d="M212 228h4v4h-4z"/><path fill="#592B73" d="M216 228h4v4h-4zM220 228h4v4h-4zM224 228h4v4h-4z"/><path fill="#351A45" d="M228 228h4v4h-4zM232 228h4v4h-4zM128 232h4v4h-4zM132 232h4v4h-4zM136 232h4v4h-4zM140 232h4v4h-4zM144 232h4v4h-4zM148 232h4v4h-4zM152 232h4v4h-4z"/><path fill="#592B73" d="M156 232h4v4h-4zM160 232h4v4h-4z"/><path fill="#5564BF" d="M164 232h4v4h-4zM168 232h4v4h-4z"/><path fill="#9F90D7" d="M172 232h4v4h-4zM176 232h4v4h-4zM180 232h4v4h-4zM184 232h4v4h-4zM188 232h4v4h-4zM192 232h4v4h-4z"/><path fill="#6096BF" d="M196 232h4v4h-4zM200 232h4v4h-4z"/><path fill="#5564BF" d="M204 232h4v4h-4z"/><path fill="#592B73" d="M208 232h4v4h-4z"/><path fill="#351A45" d="M212 232h4v4h-4z"/><path fill="#592B73" d="M216 232h4v4h-4zM220 232h4v4h-4z"/><path fill="#351A45" d="M224 232h4v4h-4zM228 232h4v4h-4zM128 236h4v4h-4zM132 236h4v4h-4zM136 236h4v4h-4zM140 236h4v4h-4zM144 236h4v4h-4zM148 236h4v4h-4zM152 236h4v4h-4z"/><path fill="#592B73" d="M156 236h4v4h-4zM160 236h4v4h-4z"/><path fill="#5564BF" d="M164 236h4v4h-4zM168 236h4v4h-4z"/><path fill="#6096BF" d="M172 236h4v4h-4z"/><path fill="#9F90D7" d="M176 236h4v4h-4zM180 236h4v4h-4zM184 236h4v4h-4zM188 236h4v4h-4zM192 236h4v4h-4z"/><path fill="#6096BF" d="M196 236h4v4h-4zM200 236h4v4h-4z"/><path fill="#5564BF" d="M204 236h4v4h-4z"/><path fill="#592B73" d="M208 236h4v4h-4z"/><path fill="#351A45" d="M212 236h4v4h-4z"/><path fill="#592B73" d="M216 236h4v4h-4zM220 236h4v4h-4z"/><path fill="#351A45" d="M224 236h4v4h-4zM132 240h4v4h-4zM136 240h4v4h-4zM140 240h4v4h-4zM144 240h4v4h-4zM148 240h4v4h-4zM152 240h4v4h-4z"/><path fill="#592B73" d="M156 240h4v4h-4zM160 240h4v4h-4z"/><path fill="#5564BF" d="M164 240h4v4h-4z"/><path fill="#9F90D7" d="M168 240h4v4h-4zM172 240h4v4h-4zM176 240h4v4h-4zM180 240h4v4h-4zM184 240h4v4h-4z"/><path fill="#6096BF" d="M188 240h4v4h-4z"/><path fill="#9F90D7" d="M192 240h4v4h-4z"/><path fill="#6096BF" d="M196 240h4v4h-4zM200 240h4v4h-4z"/><path fill="#5564BF" d="M204 240h4v4h-4z"/><path fill="#592B73" d="M208 240h4v4h-4z"/><path fill="#351A45" d="M212 240h4v4h-4z"/><path fill="#592B73" d="M216 240h4v4h-4zM220 240h4v4h-4z"/><path fill="#351A45" d="M224 240h4v4h-4zM136 244h4v4h-4zM140 244h4v4h-4zM144 244h4v4h-4zM148 244h4v4h-4zM152 244h4v4h-4z"/><path fill="#592B73" d="M156 244h4v4h-4zM160 244h4v4h-4z"/><path fill="#5564BF" d="M164 244h4v4h-4z"/><path fill="#5951A4" d="M168 244h4v4h-4zM172 244h4v4h-4z"/><path fill="#9F90D7" d="M176 244h4v4h-4zM180 244h4v4h-4z"/><path fill="#6096BF" d="M184 244h4v4h-4z"/><path fill="#5564BF" d="M188 244h4v4h-4z"/><path fill="#9F90D7" d="M192 244h4v4h-4z"/><path fill="#351A45" d="M196 244h4v4h-4z"/><path fill="#5564BF" d="M200 244h4v4h-4zM204 244h4v4h-4z"/><path fill="#592B73" d="M208 244h4v4h-4z"/><path fill="#351A45" d="M212 244h4v4h-4z"/><path fill="#592B73" d="M216 244h4v4h-4z"/><path fill="#351A45" d="M220 244h4v4h-4zM224 244h4v4h-4zM140 248h4v4h-4zM144 248h4v4h-4zM148 248h4v4h-4z"/><path fill="#592B73" d="M152 248h4v4h-4zM156 248h4v4h-4z"/><path fill="#5564BF" d="M160 248h4v4h-4zM164 248h4v4h-4z"/><path fill="#5951A4" d="M168 248h4v4h-4z"/><path fill="#6096BF" d="M172 248h4v4h-4z"/><path fill="#9F90D7" d="M176 248h4v4h-4zM180 248h4v4h-4z"/><path fill="#4A68A4" d="M184 248h4v4h-4z"/><path fill="#5564BF" d="M188 248h4v4h-4zM192 248h4v4h-4z"/><path fill="#351A45" d="M196 248h4v4h-4z"/><path fill="#5564BF" d="M200 248h4v4h-4z"/><path fill="#592B73" d="M204 248h4v4h-4zM208 248h4v4h-4z"/><path fill="#351A45" d="M212 248h4v4h-4z"/><path fill="#592B73" d="M216 248h4v4h-4z"/><path fill="#351A45" d="M220 248h4v4h-4zM140 252h4v4h-4zM144 252h4v4h-4z"/><path fill="#592B73" d="M148 252h4v4h-4zM152 252h4v4h-4zM156 252h4v4h-4z"/><path fill="#5951A4" d="M160 252h4v4h-4z"/><path fill="#5564BF" d="M164 252h4v4h-4z"/><path fill="#6096BF" d="M168 252h4v4h-4zM172 252h4v4h-4z"/><path fill="#9F90D7" d="M176 252h4v4h-4zM180 252h4v4h-4zM184 252h4v4h-4z"/><path fill="#6096BF" d="M188 252h4v4h-4z"/><path fill="#5564BF" d="M192 252h4v4h-4z"/><path fill="#351A45" d="M196 252h4v4h-4z"/><path fill="#5564BF" d="M200 252h4v4h-4z"/><path fill="#351A45" d="M204 252h4v4h-4z"/><path fill="#592B73" d="M208 252h4v4h-4z"/><path fill="#351A45" d="M212 252h4v4h-4z"/><path fill="#592B73" d="M216 252h4v4h-4z"/><path fill="#351A45" d="M220 252h4v4h-4zM136 256h4v4h-4zM140 256h4v4h-4z"/><path fill="#592B73" d="M144 256h4v4h-4zM148 256h4v4h-4zM152 256h4v4h-4zM156 256h4v4h-4z"/><path fill="#5564BF" d="M160 256h4v4h-4zM164 256h4v4h-4z"/><path fill="#6096BF" d="M168 256h4v4h-4z"/><path fill="#9F90D7" d="M172 256h4v4h-4z"/><path fill="#5564BF" d="M176 256h4v4h-4z"/><path fill="#9F90D7" d="M180 256h4v4h-4z"/><path fill="#6096BF" d="M184 256h4v4h-4zM188 256h4v4h-4z"/><path fill="#9F90D7" d="M192 256h4v4h-4z"/><path fill="#5564BF" d="M196 256h4v4h-4zM200 256h4v4h-4z"/><path fill="#592B73" d="M204 256h4v4h-4z"/><path fill="#351A45" d="M208 256h4v4h-4z"/><path fill="#592B73" d="M212 256h4v4h-4zM216 256h4v4h-4z"/><path fill="#351A45" d="M220 256h4v4h-4zM132 260h4v4h-4zM136 260h4v4h-4zM140 260h4v4h-4z"/><path fill="#592B73" d="M144 260h4v4h-4zM148 260h4v4h-4zM152 260h4v4h-4z"/><path fill="#5951A4" d="M156 260h4v4h-4z"/><path fill="#5564BF" d="M160 260h4v4h-4z"/><path fill="#6096BF" d="M164 260h4v4h-4z"/><path fill="#9F90D7" d="M168 260h4v4h-4zM172 260h4v4h-4z"/><path fill="#5564BF" d="M176 260h4v4h-4z"/><path fill="#9F90D7" d="M180 260h4v4h-4z"/><path fill="#6096BF" d="M184 260h4v4h-4zM188 260h4v4h-4z"/><path fill="#9F90D7" d="M192 260h4v4h-4zM196 260h4v4h-4z"/><path fill="#351A45" d="M200 260h4v4h-4z"/><path fill="#592B73" d="M204 260h4v4h-4z"/><path fill="#351A45" d="M208 260h4v4h-4z"/><path fill="#592B73" d="M212 260h4v4h-4zM216 260h4v4h-4z"/><path fill="#351A45" d="M220 260h4v4h-4zM224 260h4v4h-4zM128 264h4v4h-4z"/><path fill="#592B73" d="M132 264h4v4h-4z"/><path fill="#351A45" d="M136 264h4v4h-4zM140 264h4v4h-4z"/><path fill="#592B73" d="M144 264h4v4h-4zM148 264h4v4h-4zM152 264h4v4h-4z"/><path fill="#5951A4" d="M156 264h4v4h-4z"/><path fill="#5564BF" d="M160 264h4v4h-4z"/><path fill="#6096BF" d="M164 264h4v4h-4z"/><path fill="#9F90D7" d="M168 264h4v4h-4zM172 264h4v4h-4zM176 264h4v4h-4zM180 264h4v4h-4z"/><path fill="#6096BF" d="M184 264h4v4h-4z"/><path fill="#5564BF" d="M188 264h4v4h-4zM192 264h4v4h-4z"/><path fill="#592B73" d="M196 264h4v4h-4z"/><path fill="#351A45" d="M200 264h4v4h-4zM204 264h4v4h-4z"/><path fill="#592B73" d="M208 264h4v4h-4zM212 264h4v4h-4zM216 264h4v4h-4z"/><path fill="#351A45" d="M220 264h4v4h-4zM224 264h4v4h-4zM124 268h4v4h-4zM128 268h4v4h-4z"/><path fill="#592B73" d="M132 268h4v4h-4zM136 268h4v4h-4z"/><path fill="#351A45" d="M140 268h4v4h-4zM144 268h4v4h-4z"/><path fill="#592B73" d="M148 268h4v4h-4zM152 268h4v4h-4z"/><path fill="#5951A4" d="M156 268h4v4h-4z"/><path fill="#5564BF" d="M160 268h4v4h-4z"/><path fill="#6096BF" d="M164 268h4v4h-4z"/><path fill="#9F90D7" d="M168 268h4v4h-4zM172 268h4v4h-4zM176 268h4v4h-4z"/><path fill="#6096BF" d="M180 268h4v4h-4zM184 268h4v4h-4z"/><path fill="#5564BF" d="M188 268h4v4h-4zM192 268h4v4h-4z"/><path fill="#351A45" d="M196 268h4v4h-4zM200 268h4v4h-4zM204 268h4v4h-4z"/><path fill="#592B73" d="M208 268h4v4h-4zM212 268h4v4h-4zM216 268h4v4h-4zM220 268h4v4h-4z"/><path fill="#351A45" d="M224 268h4v4h-4zM120 272h4v4h-4zM124 272h4v4h-4zM128 272h4v4h-4z"/><path fill="#592B73" d="M132 272h4v4h-4zM136 272h4v4h-4z"/><path fill="#351A45" d="M140 272h4v4h-4zM144 272h4v4h-4zM148 272h4v4h-4z"/><path fill="#592B73" d="M152 272h4v4h-4z"/><path fill="#5951A4" d="M156 272h4v4h-4z"/><path fill="#5564BF" d="M160 272h4v4h-4z"/><path fill="#6096BF" d="M164 272h4v4h-4zM168 272h4v4h-4z"/><path fill="#9F90D7" d="M172 272h4v4h-4zM176 272h4v4h-4z"/><path fill="#6096BF" d="M180 272h4v4h-4zM184 272h4v4h-4z"/><path fill="#5564BF" d="M188 272h4v4h-4zM192 272h4v4h-4z"/><path fill="#351A45" d="M196 272h4v4h-4z"/><path fill="#592B73" d="M200 272h4v4h-4z"/><path fill="#351A45" d="M204 272h4v4h-4z"/><path fill="#592B73" d="M208 272h4v4h-4zM212 272h4v4h-4zM216 272h4v4h-4zM220 272h4v4h-4z"/><path fill="#351A45" d="M224 272h4v4h-4zM228 272h4v4h-4zM120 276h4v4h-4zM124 276h4v4h-4zM128 276h4v4h-4z"/><path fill="#592B73" d="M132 276h4v4h-4zM136 276h4v4h-4zM140 276h4v4h-4z"/><path fill="#351A45" d="M144 276h4v4h-4zM148 276h4v4h-4zM152 276h4v4h-4zM156 276h4v4h-4z"/><path fill="#6096BF" d="M160 276h4v4h-4zM164 276h4v4h-4zM168 276h4v4h-4zM172 276h4v4h-4zM176 276h4v4h-4zM180 276h4v4h-4zM184 276h4v4h-4z"/><path fill="#9F90D7" d="M188 276h4v4h-4z"/><path fill="#5564BF" d="M192 276h4v4h-4z"/><path fill="#351A45" d="M196 276h4v4h-4z"/><path fill="#592B73" d="M200 276h4v4h-4z"/><path fill="#351A45" d="M204 276h4v4h-4z"/><path fill="#592B73" d="M208 276h4v4h-4zM212 276h4v4h-4zM216 276h4v4h-4zM220 276h4v4h-4z"/><path fill="#351A45" d="M224 276h4v4h-4zM228 276h4v4h-4zM120 280h4v4h-4zM124 280h4v4h-4zM128 280h4v4h-4zM132 280h4v4h-4zM136 280h4v4h-4zM140 280h4v4h-4zM144 280h4v4h-4zM148 280h4v4h-4zM152 280h4v4h-4zM156 280h4v4h-4zM160 280h4v4h-4z"/><path fill="#6096BF" d="M164 280h4v4h-4zM168 280h4v4h-4zM172 280h4v4h-4zM176 280h4v4h-4zM180 280h4v4h-4z"/><path fill="#9F90D7" d="M184 280h4v4h-4zM188 280h4v4h-4z"/><path fill="#592B73" d="M192 280h4v4h-4z"/><path fill="#351A45" d="M196 280h4v4h-4zM200 280h4v4h-4z"/><path fill="#592B73" d="M204 280h4v4h-4zM208 280h4v4h-4zM212 280h4v4h-4zM216 280h4v4h-4zM220 280h4v4h-4z"/><path fill="#351A45" d="M224 280h4v4h-4zM228 280h4v4h-4zM116 284h4v4h-4zM120 284h4v4h-4zM124 284h4v4h-4zM128 284h4v4h-4zM132 284h4v4h-4zM136 284h4v4h-4zM140 284h4v4h-4zM144 284h4v4h-4zM148 284h4v4h-4zM152 284h4v4h-4zM156 284h4v4h-4zM160 284h4v4h-4zM164 284h4v4h-4zM168 284h4v4h-4zM172 284h4v4h-4zM176 284h4v4h-4zM180 284h4v4h-4zM184 284h4v4h-4zM188 284h4v4h-4zM192 284h4v4h-4zM196 284h4v4h-4zM200 284h4v4h-4z"/><path fill="#592B73" d="M204 284h4v4h-4zM208 284h4v4h-4zM212 284h4v4h-4zM216 284h4v4h-4zM220 284h4v4h-4z"/><path fill="#351A45" d="M224 284h4v4h-4zM228 284h4v4h-4zM116 288h4v4h-4zM120 288h4v4h-4zM124 288h4v4h-4zM128 288h4v4h-4zM132 288h4v4h-4zM136 288h4v4h-4zM140 288h4v4h-4zM144 288h4v4h-4zM148 288h4v4h-4zM152 288h4v4h-4zM156 288h4v4h-4zM160 288h4v4h-4zM164 288h4v4h-4zM168 288h4v4h-4zM172 288h4v4h-4zM176 288h4v4h-4zM180 288h4v4h-4zM184 288h4v4h-4zM188 288h4v4h-4zM192 288h4v4h-4zM196 288h4v4h-4zM200 288h4v4h-4zM204 288h4v4h-4z"/><path fill="#592B73" d="M208 288h4v4h-4zM212 288h4v4h-4zM216 288h4v4h-4z"/><path fill="#351A45" d="M220 288h4v4h-4zM224 288h4v4h-4zM228 288h4v4h-4zM236 288h4v4h-4zM124 292h4v4h-4zM128 292h4v4h-4zM132 292h4v4h-4zM136 292h4v4h-4zM140 292h4v4h-4zM144 292h4v4h-4zM148 292h4v4h-4zM152 292h4v4h-4zM156 292h4v4h-4zM160 292h4v4h-4zM164 292h4v4h-4zM168 292h4v4h-4zM172 292h4v4h-4zM176 292h4v4h-4zM180 292h4v4h-4zM184 292h4v4h-4zM188 292h4v4h-4zM192 292h4v4h-4zM196 292h4v4h-4zM200 292h4v4h-4zM204 292h4v4h-4zM208 292h4v4h-4z"/><path fill="#592B73" d="M212 292h4v4h-4z"/><path fill="#351A45" d="M216 292h4v4h-4zM220 292h4v4h-4zM224 292h4v4h-4zM228 292h4v4h-4zM232 292h4v4h-4zM236 292h4v4h-4zM240 292h4v4h-4zM128 296h4v4h-4zM132 296h4v4h-4zM136 296h4v4h-4zM140 296h4v4h-4zM144 296h4v4h-4zM148 296h4v4h-4zM152 296h4v4h-4zM156 296h4v4h-4zM160 296h4v4h-4zM164 296h4v4h-4zM168 296h4v4h-4zM172 296h4v4h-4zM176 296h4v4h-4zM180 296h4v4h-4zM184 296h4v4h-4zM188 296h4v4h-4zM192 296h4v4h-4zM196 296h4v4h-4zM200 296h4v4h-4zM204 296h4v4h-4zM208 296h4v4h-4zM212 296h4v4h-4zM216 296h4v4h-4zM220 296h4v4h-4zM224 296h4v4h-4zM228 296h4v4h-4zM232 296h4v4h-4zM236 296h4v4h-4zM240 296h4v4h-4zM132 300h4v4h-4zM136 300h4v4h-4zM140 300h4v4h-4zM144 300h4v4h-4zM148 300h4v4h-4zM152 300h4v4h-4zM156 300h4v4h-4zM160 300h4v4h-4zM164 300h4v4h-4zM168 300h4v4h-4zM172 300h4v4h-4zM176 300h4v4h-4zM180 300h4v4h-4zM184 300h4v4h-4zM188 300h4v4h-4zM192 300h4v4h-4zM196 300h4v4h-4zM200 300h4v4h-4zM204 300h4v4h-4zM208 300h4v4h-4zM212 300h4v4h-4zM216 300h4v4h-4zM220 300h4v4h-4zM224 300h4v4h-4zM228 300h4v4h-4zM232 300h4v4h-4zM236 300h4v4h-4zM240 300h4v4h-4zM136 304h4v4h-4zM140 304h4v4h-4zM144 304h4v4h-4zM148 304h4v4h-4zM152 304h4v4h-4zM156 304h4v4h-4zM160 304h4v4h-4zM164 304h4v4h-4zM168 304h4v4h-4zM172 304h4v4h-4zM176 304h4v4h-4zM180 304h4v4h-4zM184 304h4v4h-4zM188 304h4v4h-4zM192 304h4v4h-4zM196 304h4v4h-4zM200 304h4v4h-4zM204 304h4v4h-4zM208 304h4v4h-4zM212 304h4v4h-4zM216 304h4v4h-4zM220 304h4v4h-4zM224 304h4v4h-4zM228 304h4v4h-4zM232 304h4v4h-4zM236 304h4v4h-4zM240 304h4v4h-4zM140 308h4v4h-4zM144 308h4v4h-4zM148 308h4v4h-4zM152 308h4v4h-4zM156 308h4v4h-4zM160 308h4v4h-4zM164 308h4v4h-4zM168 308h4v4h-4zM172 308h4v4h-4zM176 308h4v4h-4zM180 308h4v4h-4zM184 308h4v4h-4zM188 308h4v4h-4zM192 308h4v4h-4zM196 308h4v4h-4zM200 308h4v4h-4zM204 308h4v4h-4zM208 308h4v4h-4zM212 308h4v4h-4zM216 308h4v4h-4zM220 308h4v4h-4zM224 308h4v4h-4zM228 308h4v4h-4zM232 308h4v4h-4zM236 308h4v4h-4zM144 312h4v4h-4zM148 312h4v4h-4zM152 312h4v4h-4zM156 312h4v4h-4zM160 312h4v4h-4zM164 312h4v4h-4zM168 312h4v4h-4zM172 312h4v4h-4zM176 312h4v4h-4zM180 312h4v4h-4zM184 312h4v4h-4zM188 312h4v4h-4zM192 312h4v4h-4zM196 312h4v4h-4zM200 312h4v4h-4zM204 312h4v4h-4zM208 312h4v4h-4zM212 312h4v4h-4zM216 312h4v4h-4zM220 312h4v4h-4zM224 312h4v4h-4zM228 312h4v4h-4zM152 316h4v4h-4zM156 316h4v4h-4zM160 316h4v4h-4zM164 316h4v4h-4zM168 316h4v4h-4zM172 316h4v4h-4zM176 316h4v4h-4zM180 316h4v4h-4zM184 316h4v4h-4zM188 316h4v4h-4zM192 316h4v4h-4zM196 316h4v4h-4zM200 316h4v4h-4zM204 316h4v4h-4zM208 316h4v4h-4zM212 316h4v4h-4zM216 316h4v4h-4zM220 316h4v4h-4zM168 320h4v4h-4zM172 320h4v4h-4zM176 320h4v4h-4zM180 320h4v4h-4zM184 320h4v4h-4zM188 320h4v4h-4zM192 320h4v4h-4zM196 320h4v4h-4zM200 320h4v4h-4zM204 320h4v4h-4z"/></svg>