<svg width="384" height="384" xmlns="http://www.w3.org/2000/svg" shape-rendering="crispEdges"><path fill="#00101E" d="M136 68h4v4h-4zM140 68h4v4h-4zM144 68h4v4h-4zM148 68h4v4h-4zM152 68h4v4h-4zM156 68h4v4h-4zM160 68h4v4h-4zM124 72h4v4h-4zM128 72h4v4h-4zM132 72h4v4h-4zM136 72h4v4h-4zM140 72h4v4h-4zM144 72h4v4h-4zM148 72h4v4h-4zM152 72h4v4h-4zM156 72h4v4h-4zM160 72h4v4h-4zM164 72h4v4h-4zM168 72h4v4h-4zM172 72h4v4h-4zM116 76h4v4h-4zM120 76h4v4h-4zM124 76h4v4h-4zM128 76h4v4h-4zM132 76h4v4h-4zM136 76h4v4h-4zM140 76h4v4h-4zM144 76h4v4h-4zM148 76h4v4h-4zM152 76h4v4h-4zM156 76h4v4h-4zM160 76h4v4h-4zM164 76h4v4h-4zM168 76h4v4h-4zM172 76h4v4h-4zM176 76h4v4h-4zM180 76h4v4h-4zM112 80h4v4h-4zM116 80h4v4h-4zM120 80h4v4h-4zM124 80h4v4h-4zM128 80h4v4h-4zM132 80h4v4h-4zM136 80h4v4h-4zM140 80h4v4h-4zM144 80h4v4h-4zM148 80h4v4h-4zM152 80h4v4h-4zM156 80h4v4h-4zM160 80h4v4h-4zM164 80h4v4h-4zM168 80h4v4h-4zM172 80h4v4h-4zM176 80h4v4h-4zM180 80h4v4h-4zM184 80h4v4h-4zM108 84h4v4h-4zM112 84h4v4h-4zM116 84h4v4h-4zM120 84h4v4h-4zM124 84h4v4h-4zM128 84h4v4h-4zM132 84h4v4h-4zM136 84h4v4h-4zM140 84h4v4h-4zM144 84h4v4h-4zM148 84h4v4h-4zM152 84h4v4h-4zM156 84h4v4h-4zM160 84h4v4h-4zM164 84h4v4h-4zM168 84h4v4h-4zM172 84h4v4h-4zM176 84h4v4h-4zM180 84h4v4h-4zM184 84h4v4h-4zM188 84h4v4h-4zM104 88h4v4h-4zM108 88h4v4h-4zM112 88h4v4h-4zM116 88h4v4h-4zM120 88h4v4h-4zM124 88h4v4h-4zM128 88h4v4h-4zM132 88h4v4h-4zM136 88h4v4h-4zM140 88h4v4h-4zM144 88h4v4h-4zM148 88h4v4h-4zM152 88h4v4h-4zM156 88h4v4h-4zM160 88h4v4h-4zM164 88h4v4h-4zM168 88h4v4h-4zM172 88h4v4h-4zM176 88h4v4h-4zM180 88h4v4h-4zM184 88h4v4h-4zM188 88h4v4h-4zM192 88h4v4h-4zM100 92h4v4h-4zM104 92h4v4h-4zM108 92h4v4h-4zM112 92h4v4h-4zM116 92h4v4h-4zM120 92h4v4h-4zM124 92h4v4h-4zM128 92h4v4h-4zM132 92h4v4h-4zM136 92h4v4h-4zM140 92h4v4h-4zM144 92h4v4h-4zM148 92h4v4h-4zM152 92h4v4h-4zM156 92h4v4h-4zM160 92h4v4h-4zM164 92h4v4h-4zM168 92h4v4h-4zM172 92h4v4h-4zM176 92h4v4h-4zM180 92h4v4h-4zM184 92h4v4h-4zM188 92h4v4h-4zM192 92h4v4h-4zM196 92h4v4h-4zM96 96h4v4h-4zM100 96h4v4h-4zM104 96h4v4h-4zM108 96h4v4h-4zM112 96h4v4h-4zM116 96h4v4h-4zM120 96h4v4h-4zM124 96h4v4h-4zM128 96h4v4h-4zM132 96h4v4h-4zM136 96h4v4h-4zM140 96h4v4h-4zM144 96h4v4h-4zM148 96h4v4h-4zM152 96h4v4h-4zM156 96h4v4h-4zM160 96h4v4h-4zM164 96h4v4h-4zM168 96h4v4h-4zM172 96h4v4h-4zM176 96h4v4h-4zM180 96h4v4h-4zM184 96h4v4h-4zM188 96h4v4h-4zM192 96h4v4h-4zM196 96h4v4h-4zM200 96h4v4h-4zM96 100h4v4h-4zM100 100h4v4h-4zM104 100h4v4h-4zM108 100h4v4h-4zM112 100h4v4h-4zM116 100h4v4h-4zM120 100h4v4h-4zM124 100h4v4h-4zM128 100h4v4h-4zM132 100h4v4h-4zM136 100h4v4h-4zM140 100h4v4h-4zM144 100h4v4h-4zM148 100h4v4h-4zM152 100h4v4h-4zM156 100h4v4h-4zM160 100h4v4h-4zM164 100h4v4h-4zM168 100h4v4h-4zM172 100h4v4h-4zM176 100h4v4h-4zM180 100h4v4h-4zM184 100h4v4h-4zM188 100h4v4h-4zM192 100h4v4h-4zM196 100h4v4h-4zM200 100h4v4h-4zM92 104h4v4h-4zM96 104h4v4h-4zM100 104h4v4h-4zM104 104h4v4h-4zM108 104h4v4h-4zM112 104h4v4h-4zM116 104h4v4h-4zM120 104h4v4h-4zM124 104h4v4h-4zM128 104h4v4h-4zM132 104h4v4h-4zM136 104h4v4h-4zM140 104h4v4h-4zM144 104h4v4h-4zM148 104h4v4h-4zM152 104h4v4h-4zM156 104h4v4h-4zM160 104h4v4h-4zM164 104h4v4h-4zM168 104h4v4h-4zM172 104h4v4h-4zM176 104h4v4h-4zM180 104h4v4h-4zM184 104h4v4h-4zM188 104h4v4h-4zM192 104h4v4h-4zM196 104h4v4h-4zM200 104h4v4h-4zM204 104h4v4h-4zM92 108h4v4h-4zM96 108h4v4h-4zM100 108h4v4h-4zM104 108h4v4h-4zM108 108h4v4h-4zM112 108h4v4h-4zM116 108h4v4h-4zM120 108h4v4h-4zM124 108h4v4h-4zM128 108h4v4h-4zM132 108h4v4h-4zM136 108h4v4h-4zM140 108h4v4h-4zM144 108h4v4h-4zM148 108h4v4h-4zM152 108h4v4h-4zM156 108h4v4h-4zM160 108h4v4h-4zM164 108h4v4h-4zM168 108h4v4h-4zM172 108h4v4h-4zM176 108h4v4h-4zM180 108h4v4h-4zM184 108h4v4h-4zM188 108h4v4h-4zM192 108h4v4h-4zM196 108h4v4h-4zM200 108h4v4h-4zM204 108h4v4h-4zM92 112h4v4h-4zM96 112h4v4h-4zM100 112h4v4h-4zM104 112h4v4h-4zM108 112h4v4h-4zM112 112h4v4h-4zM116 112h4v4h-4zM120 112h4v4h-4zM124 112h4v4h-4zM128 112h4v4h-4zM132 112h4v4h-4zM136 112h4v4h-4zM140 112h4v4h-4zM144 112h4v4h-4zM148 112h4v4h-4zM152 112h4v4h-4zM156 112h4v4h-4zM160 112h4v4h-4zM164 112h4v4h-4zM168 112h4v4h-4zM172 112h4v4h-4zM176 112h4v4h-4zM180 112h4v4h-4zM184 112h4v4h-4zM188 112h4v4h-4zM192 112h4v4h-4zM196 112h4v4h-4zM200 112h4v4h-4zM204 112h4v4h-4zM88 116h4v4h-4zM92 116h4v4h-4zM96 116h4v4h-4zM100 116h4v4h-4zM104 116h4v4h-4zM108 116h4v4h-4zM112 116h4v4h-4zM116 116h4v4h-4zM120 116h4v4h-4zM124 116h4v4h-4zM128 116h4v4h-4zM132 116h4v4h-4zM136 116h4v4h-4zM140 116h4v4h-4zM144 116h4v4h-4zM148 116h4v4h-4zM152 116h4v4h-4zM156 116h4v4h-4zM160 116h4v4h-4zM164 116h4v4h-4zM168 116h4v4h-4zM172 116h4v4h-4zM176 116h4v4h-4zM180 116h4v4h-4zM184 116h4v4h-4zM188 116h4v4h-4zM192 116h4v4h-4zM196 116h4v4h-4zM200 116h4v4h-4zM204 116h4v4h-4zM208 116h4v4h-4zM88 120h4v4h-4zM92 120h4v4h-4zM96 120h4v4h-4zM100 120h4v4h-4zM104 120h4v4h-4zM108 120h4v4h-4zM112 120h4v4h-4zM116 120h4v4h-4zM120 120h4v4h-4zM124 120h4v4h-4zM128 120h4v4h-4zM132 120h4v4h-4zM136 120h4v4h-4zM140 120h4v4h-4zM144 120h4v4h-4zM148 120h4v4h-4zM152 120h4v4h-4zM156 120h4v4h-4zM160 120h4v4h-4zM164 120h4v4h-4zM168 120h4v4h-4zM172 120h4v4h-4zM176 120h4v4h-4zM180 120h4v4h-4zM184 120h4v4h-4zM188 120h4v4h-4zM192 120h4v4h-4zM196 120h4v4h-4zM200 120h4v4h-4zM204 120h4v4h-4zM208 120h4v4h-4zM88 124h4v4h-4zM92 124h4v4h-4zM96 124h4v4h-4zM100 124h4v4h-4zM104 124h4v4h-4zM108 124h4v4h-4zM112 124h4v4h-4zM116 124h4v4h-4zM120 124h4v4h-4zM124 124h4v4h-4zM128 124h4v4h-4zM132 124h4v4h-4zM136 124h4v4h-4zM140 124h4v4h-4zM144 124h4v4h-4zM148 124h4v4h-4zM152 124h4v4h-4zM156 124h4v4h-4zM160 124h4v4h-4zM164 124h4v4h-4zM168 124h4v4h-4zM172 124h4v4h-4zM176 124h4v4h-4zM180 124h4v4h-4zM184 124h4v4h-4zM188 124h4v4h-4zM192 124h4v4h-4zM196 124h4v4h-4zM200 124h4v4h-4zM204 124h4v4h-4zM208 124h4v4h-4zM88 128h4v4h-4zM92 128h4v4h-4zM96 128h4v4h-4zM100 128h4v4h-4zM104 128h4v4h-4zM108 128h4v4h-4zM112 128h4v4h-4zM116 128h4v4h-4zM120 128h4v4h-4zM124 128h4v4h-4zM128 128h4v4h-4zM132 128h4v4h-4zM136 128h4v4h-4zM140 128h4v4h-4zM144 128h4v4h-4zM148 128h4v4h-4zM152 128h4v4h-4zM156 128h4v4h-4zM160 128h4v4h-4zM164 128h4v4h-4zM168 128h4v4h-4zM172 128h4v4h-4zM176 128h4v4h-4zM180 128h4v4h-4zM184 128h4v4h-4zM188 128h4v4h-4zM192 128h4v4h-4zM196 128h4v4h-4zM200 128h4v4h-4zM204 128h4v4h-4zM208 128h4v4h-4zM88 132h4v4h-4zM92 132h4v4h-4zM96 132h4v4h-4zM100 132h4v4h-4zM104 132h4v4h-4zM108 132h4v4h-4zM112 132h4v4h-4zM116 132h4v4h-4zM120 132h4v4h-4zM124 132h4v4h-4zM128 132h4v4h-4zM132 132h4v4h-4zM136 132h4v4h-4zM140 132h4v4h-4zM144 132h4v4h-4zM148 132h4v4h-4zM152 132h4v4h-4zM156 132h4v4h-4zM160 132h4v4h-4zM164 132h4v4h-4zM168 132h4v4h-4zM172 132h4v4h-4zM176 132h4v4h-4zM180 132h4v4h-4zM184 132h4v4h-4zM188 132h4v4h-4zM192 132h4v4h-4zM196 132h4v4h-4zM200 132h4v4h-4zM204 132h4v4h-4zM208 132h4v4h-4zM88 136h4v4h-4zM92 136h4v4h-4zM96 136h4v4h-4zM100 136h4v4h-4zM104 136h4v4h-4zM108 136h4v4h-4zM112 136h4v4h-4zM116 136h4v4h-4zM120 136h4v4h-4zM124 136h4v4h-4zM128 136h4v4h-4zM132 136h4v4h-4zM136 136h4v4h-4zM140 136h4v4h-4zM144 136h4v4h-4zM148 136h4v4h-4zM152 136h4v4h-4zM156 136h4v4h-4zM160 136h4v4h-4zM164 136h4v4h-4zM168 136h4v4h-4zM172 136h4v4h-4zM176 136h4v4h-4zM180 136h4v4h-4zM184 136h4v4h-4zM188 136h4v4h-4zM192 136h4v4h-4zM196 136h4v4h-4zM200 136h4v4h-4zM204 136h4v4h-4zM208 136h4v4h-4zM88 140h4v4h-4zM92 140h4v4h-4zM96 140h4v4h-4zM100 140h4v4h-4zM104 140h4v4h-4zM108 140h4v4h-4zM112 140h4v4h-4zM116 140h4v4h-4zM120 140h4v4h-4zM124 140h4v4h-4zM128 140h4v4h-4zM132 140h4v4h-4zM136 140h4v4h-4zM140 140h4v4h-4zM144 140h4v4h-4zM148 140h4v4h-4zM152 140h4v4h-4zM156 140h4v4h-4zM160 140h4v4h-4zM164 140h4v4h-4zM168 140h4v4h-4zM172 140h4v4h-4zM176 140h4v4h-4zM180 140h4v4h-4zM184 140h4v4h-4zM188 140h4v4h-4zM192 140h4v4h-4zM196 140h4v4h-4zM200 140h4v4h-4zM204 140h4v4h-4zM208 140h4v4h-4zM92 144h4v4h-4zM96 144h4v4h-4zM100 144h4v4h-4zM104 144h4v4h-4zM108 144h4v4h-4zM112 144h4v4h-4zM116 144h4v4h-4zM120 144h4v4h-4zM124 144h4v4h-4zM128 144h4v4h-4zM132 144h4v4h-4zM136 144h4v4h-4zM140 144h4v4h-4zM144 144h4v4h-4zM148 144h4v4h-4zM152 144h4v4h-4zM156 144h4v4h-4zM160 144h4v4h-4zM164 144h4v4h-4zM168 144h4v4h-4zM172 144h4v4h-4zM176 144h4v4h-4zM180 144h4v4h-4zM184 144h4v4h-4zM188 144h4v4h-4zM192 144h4v4h-4zM196 144h4v4h-4zM200 144h4v4h-4zM204 144h4v4h-4zM92 148h4v4h-4zM96 148h4v4h-4zM100 148h4v4h-4zM104 148h4v4h-4zM108 148h4v4h-4zM112 148h4v4h-4zM116 148h4v4h-4zM120 148h4v4h-4zM124 148h4v4h-4zM128 148h4v4h-4zM132 148h4v4h-4zM136 148h4v4h-4zM140 148h4v4h-4zM144 148h4v4h-4zM148 148h4v4h-4zM152 148h4v4h-4zM156 148h4v4h-4zM160 148h4v4h-4zM164 148h4v4h-4zM168 148h4v4h-4zM172 148h4v4h-4zM176 148h4v4h-4zM180 148h4v4h-4zM184 148h4v4h-4zM188 148h4v4h-4zM192 148h4v4h-4zM196 148h4v4h-4zM200 148h4v4h-4zM204 148h4v4h-4zM92 152h4v4h-4zM96 152h4v4h-4zM100 152h4v4h-4zM104 152h4v4h-4zM108 152h4v4h-4zM112 152h4v4h-4zM116 152h4v4h-4zM120 152h4v4h-4zM124 152h4v4h-4zM128 152h4v4h-4zM132 152h4v4h-4zM136 152h4v4h-4zM140 152h4v4h-4zM144 152h4v4h-4zM148 152h4v4h-4zM152 152h4v4h-4zM156 152h4v4h-4zM160 152h4v4h-4zM164 152h4v4h-4zM168 152h4v4h-4zM172 152h4v4h-4zM176 152h4v4h-4zM180 152h4v4h-4zM184 152h4v4h-4zM188 152h4v4h-4zM192 152h4v4h-4zM196 152h4v4h-4zM200 152h4v4h-4zM204 152h4v4h-4zM96 156h4v4h-4zM100 156h4v4h-4zM104 156h4v4h-4zM108 156h4v4h-4zM112 156h4v4h-4zM116 156h4v4h-4zM120 156h4v4h-4zM124 156h4v4h-4zM128 156h4v4h-4zM132 156h4v4h-4zM136 156h4v4h-4zM140 156h4v4h-4zM144 156h4v4h-4zM148 156h4v4h-4zM152 156h4v4h-4zM156 156h4v4h-4zM160 156h4v4h-4zM164 156h4v4h-4zM168 156h4v4h-4zM172 156h4v4h-4zM176 156h4v4h-4zM180 156h4v4h-4zM184 156h4v4h-4zM188 156h4v4h-4zM192 156h4v4h-4zM196 156h4v4h-4zM200 156h4v4h-4zM96 160h4v4h-4zM100 160h4v4h-4zM104 160h4v4h-4zM108 160h4v4h-4zM112 160h4v4h-4zM116 160h4v4h-4zM120 160h4v4h-4zM124 160h4v4h-4zM128 160h4v4h-4zM132 160h4v4h-4zM136 160h4v4h-4zM140 160h4v4h-4zM144 160h4v4h-4zM148 160h4v4h-4zM152 160h4v4h-4zM156 160h4v4h-4zM160 160h4v4h-4zM164 160h4v4h-4zM168 160h4v4h-4zM172 160h4v4h-4zM176 160h4v4h-4zM180 160h4v4h-4zM184 160h4v4h-4zM188 160h4v4h-4zM192 160h4v4h-4zM196 160h4v4h-4z"/><path fill="#2F5E85" d="M200 160h4v4h-4z"/><path fill="#00101E" d="M100 164h4v4h-4zM104 164h4v4h-4zM108 164h4v4h-4zM112 164h4v4h-4zM116 164h4v4h-4zM120 164h4v4h-4zM124 164h4v4h-4zM128 164h4v4h-4zM132 164h4v4h-4zM136 164h4v4h-4zM140 164h4v4h-4zM144 164h4v4h-4zM148 164h4v4h-4zM152 164h4v4h-4zM156 164h4v4h-4zM160 164h4v4h-4zM164 164h4v4h-4zM168 164h4v4h-4zM172 164h4v4h-4zM176 164h4v4h-4zM180 164h4v4h-4zM184 164h4v4h-4zM188 164h4v4h-4zM192 164h4v4h-4z"/><path fill="#2F5E85" d="M196 164h4v4h-4z"/><path fill="#00101E" d="M104 168h4v4h-4zM108 168h4v4h-4zM112 168h4v4h-4zM116 168h4v4h-4zM120 168h4v4h-4zM124 168h4v4h-4zM128 168h4v4h-4zM132 168h4v4h-4zM136 168h4v4h-4zM140 168h4v4h-4zM144 168h4v4h-4zM148 168h4v4h-4zM152 168h4v4h-4zM156 168h4v4h-4zM160 168h4v4h-4zM164 168h4v4h-4zM168 168h4v4h-4zM172 168h4v4h-4zM176 168h4v4h-4zM180 168h4v4h-4zM184 168h4v4h-4zM188 168h4v4h-4z"/><path fill="#2F5E85" d="M192 168h4v4h-4zM196 168h4v4h-4z"/><path fill="#00101E" d="M108 172h4v4h-4zM112 172h4v4h-4zM116 172h4v4h-4zM120 172h4v4h-4zM124 172h4v4h-4zM128 172h4v4h-4zM132 172h4v4h-4zM136 172h4v4h-4zM140 172h4v4h-4zM144 172h4v4h-4zM148 172h4v4h-4zM152 172h4v4h-4zM156 172h4v4h-4zM160 172h4v4h-4zM164 172h4v4h-4zM168 172h4v4h-4zM172 172h4v4h-4zM176 172h4v4h-4zM180 172h4v4h-4zM184 172h4v4h-4z"/><path fill="#2F5E85" d="M188 172h4v4h-4zM192 172h4v4h-4z"/><path fill="#21415C" d="M196 172h4v4h-4z"/><path fill="#00101E" d="M112 176h4v4h-4zM116 176h4v4h-4zM120 176h4v4h-4zM124 176h4v4h-4zM128 176h4v4h-4zM132 176h4v4h-4zM136 176h4v4h-4zM140 176h4v4h-4zM144 176h4v4h-4zM148 176h4v4h-4zM152 176h4v4h-4zM156 176h4v4h-4zM160 176h4v4h-4zM164 176h4v4h-4zM168 176h4v4h-4zM172 176h4v4h-4zM176 176h4v4h-4z"/><path fill="#2F5E85" d="M180 176h4v4h-4zM184 176h4v4h-4zM188 176h4v4h-4z"/><path fill="#21415C" d="M192 176h4v4h-4zM196 176h4v4h-4z"/><path fill="#2F5E85" d="M116 180h4v4h-4zM120 180h4v4h-4z"/><path fill="#00101E" d="M124 180h4v4h-4zM128 180h4v4h-4zM132 180h4v4h-4zM136 180h4v4h-4zM140 180h4v4h-4zM144 180h4v4h-4zM148 180h4v4h-4zM152 180h4v4h-4zM156 180h4v4h-4zM160 180h4v4h-4zM164 180h4v4h-4zM168 180h4v4h-4z"/><path fill="#2F5E85" d="M172 180h4v4h-4zM176 180h4v4h-4zM180 180h4v4h-4z"/><path fill="#21415C" d="M184 180h4v4h-4zM188 180h4v4h-4zM192 180h4v4h-4zM196 180h4v4h-4z"/><path fill="#2F5E85" d="M124 184h4v4h-4zM128 184h4v4h-4zM132 184h4v4h-4zM136 184h4v4h-4zM140 184h4v4h-4zM144 184h4v4h-4zM148 184h4v4h-4zM152 184h4v4h-4zM156 184h4v4h-4zM160 184h4v4h-4zM164 184h4v4h-4zM168 184h4v4h-4z"/><path fill="#21415C" d="M172 184h4v4h-4zM176 184h4v4h-4zM180 184h4v4h-4zM184 184h4v4h-4zM188 184h4v4h-4zM192 184h4v4h-4z"/><path fill="#00101E" d="M196 184h4v4h-4zM200 184h4v4h-4z"/><path fill="#21415C" d="M128 188h4v4h-4zM132 188h4v4h-4zM136 188h4v4h-4zM140 188h4v4h-4zM144 188h4v4h-4zM148 188h4v4h-4zM152 188h4v4h-4zM156 188h4v4h-4zM160 188h4v4h-4zM164 188h4v4h-4zM168 188h4v4h-4zM172 188h4v4h-4zM176 188h4v4h-4zM180 188h4v4h-4zM184 188h4v4h-4zM188 188h4v4h-4z"/><path fill="#00101E" d="M192 188h4v4h-4zM196 188h4v4h-4z"/><path fill="#2F5E85" d="M200 188h4v4h-4z"/><path fill="#21415C" d="M128 192h4v4h-4zM132 192h4v4h-4zM136 192h4v4h-4zM140 192h4v4h-4zM144 192h4v4h-4zM148 192h4v4h-4zM152 192h4v4h-4zM156 192h4v4h-4zM160 192h4v4h-4zM164 192h4v4h-4zM168 192h4v4h-4zM172 192h4v4h-4zM176 192h4v4h-4zM180 192h4v4h-4z"/><path fill="#00101E" d="M184 192h4v4h-4zM188 192h4v4h-4z"/><path fill="#2F5E85" d="M192 192h4v4h-4zM196 192h4v4h-4zM200 192h4v4h-4z"/><path fill="#21415C" d="M132 196h4v4h-4zM136 196h4v4h-4zM140 196h4v4h-4zM144 196h4v4h-4zM148 196h4v4h-4zM152 196h4v4h-4zM156 196h4v4h-4zM160 196h4v4h-4zM164 196h4v4h-4zM168 196h4v4h-4zM172 196h4v4h-4z"/><path fill="#00101E" d="M176 196h4v4h-4zM180 196h4v4h-4z"/><path fill="#2F5E85" d="M184 196h4v4h-4zM188 196h4v4h-4zM192 196h4v4h-4zM196 196h4v4h-4z"/><path fill="#21415C" d="M200 196h4v4h-4zM204 196h4v4h-4z"/><path fill="#00101E" d="M132 200h4v4h-4zM136 200h4v4h-4zM140 200h4v4h-4zM144 200h4v4h-4zM148 200h4v4h-4zM152 200h4v4h-4zM156 200h4v4h-4zM160 200h4v4h-4zM164 200h4v4h-4zM168 200h4v4h-4zM172 200h4v4h-4z"/><path fill="#2F5E85" d="M176 200h4v4h-4zM180 200h4v4h-4zM184 200h4v4h-4zM188 200h4v4h-4z"/><path fill="#21415C" d="M192 200h4v4h-4zM196 200h4v4h-4zM200 200h4v4h-4zM204 200h4v4h-4z"/><path fill="#2F5E85" d="M132 204h4v4h-4zM136 204h4v4h-4zM140 204h4v4h-4z"/><path fill="#00101E" d="M144 204h4v4h-4zM148 204h4v4h-4zM152 204h4v4h-4zM156 204h4v4h-4z"/><path fill="#2F5E85" d="M160 204h4v4h-4zM164 204h4v4h-4zM168 204h4v4h-4zM172 204h4v4h-4zM176 204h4v4h-4zM180 204h4v4h-4z"/><path fill="#21415C" d="M184 204h4v4h-4zM188 204h4v4h-4zM192 204h4v4h-4zM196 204h4v4h-4zM200 204h4v4h-4z"/><path fill="#00101E" d="M204 204h4v4h-4z"/><path fill="#21415C" d="M136 208h4v4h-4zM140 208h4v4h-4z"/><path fill="#2F5E85" d="M144 208h4v4h-4zM148 208h4v4h-4zM152 208h4v4h-4zM156 208h4v4h-4zM160 208h4v4h-4zM164 208h4v4h-4z"/><path fill="#21415C" d="M168 208h4v4h-4zM172 208h4v4h-4zM176 208h4v4h-4zM180 208h4v4h-4zM184 208h4v4h-4zM188 208h4v4h-4zM192 208h4v4h-4z"/><path fill="#00101E" d="M196 208h4v4h-4zM200 208h4v4h-4zM204 208h4v4h-4z"/><path fill="#21415C" d="M136 212h4v4h-4zM140 212h4v4h-4zM144 212h4v4h-4zM148 212h4v4h-4zM152 212h4v4h-4zM156 212h4v4h-4zM160 212h4v4h-4zM164 212h4v4h-4zM168 212h4v4h-4zM172 212h4v4h-4zM176 212h4v4h-4zM180 212h4v4h-4zM184 212h4v4h-4z"/><path fill="#00101E" d="M188 212h4v4h-4zM192 212h4v4h-4zM196 212h4v4h-4zM200 212h4v4h-4z"/><path fill="#21415C" d="M204 212h4v4h-4z"/><path fill="#2F5E85" d="M208 212h4v4h-4z"/><path fill="#21415C" d="M136 216h4v4h-4zM140 216h4v4h-4zM144 216h4v4h-4zM148 216h4v4h-4zM152 216h4v4h-4zM156 216h4v4h-4zM160 216h4v4h-4zM164 216h4v4h-4zM168 216h4v4h-4zM172 216h4v4h-4zM176 216h4v4h-4z"/><path fill="#00101E" d="M180 216h4v4h-4zM184 216h4v4h-4zM188 216h4v4h-4zM192 216h4v4h-4z"/><path fill="#21415C" d="M196 216h4v4h-4z"/><path fill="#2F5E85" d="M200 216h4v4h-4zM204 216h4v4h-4zM208 216h4v4h-4z"/><path fill="#00101E" d="M136 220h4v4h-4z"/><path fill="#21415C" d="M140 220h4v4h-4zM144 220h4v4h-4zM148 220h4v4h-4zM152 220h4v4h-4zM156 220h4v4h-4zM160 220h4v4h-4z"/><path fill="#00101E" d="M164 220h4v4h-4zM168 220h4v4h-4zM172 220h4v4h-4zM176 220h4v4h-4zM180 220h4v4h-4zM184 220h4v4h-4z"/><path fill="#21415C" d="M188 220h4v4h-4z"/><path fill="#2F5E85" d="M192 220h4v4h-4zM196 220h4v4h-4zM200 220h4v4h-4zM204 220h4v4h-4z"/><path fill="#21415C" d="M208 220h4v4h-4z"/><path fill="#00101E" d="M140 224h4v4h-4zM144 224h4v4h-4zM148 224h4v4h-4zM152 224h4v4h-4zM156 224h4v4h-4zM160 224h4v4h-4zM164 224h4v4h-4zM168 224h4v4h-4zM172 224h4v4h-4z"/><path fill="#2F5E85" d="M176 224h4v4h-4zM180 224h4v4h-4zM184 224h4v4h-4zM188 224h4v4h-4zM192 224h4v4h-4zM196 224h4v4h-4z"/><path fill="#21415C" d="M200 224h4v4h-4zM204 224h4v4h-4zM208 224h4v4h-4z"/><path fill="#2F5E85" d="M140 228h4v4h-4zM144 228h4v4h-4zM148 228h4v4h-4zM152 228h4v4h-4zM156 228h4v4h-4zM160 228h4v4h-4zM164 228h4v4h-4zM168 228h4v4h-4zM172 228h4v4h-4zM176 228h4v4h-4zM180 228h4v4h-4zM184 228h4v4h-4z"/><path fill="#21415C" d="M188 228h4v4h-4zM192 228h4v4h-4zM196 228h4v4h-4zM200 228h4v4h-4zM204 228h4v4h-4z"/><path fill="#00101E" d="M208 228h4v4h-4zM212 228h4v4h-4z"/><path fill="#21415C" d="M140 232h4v4h-4zM144 232h4v4h-4zM148 232h4v4h-4zM152 232h4v4h-4zM156 232h4v4h-4z"/><path fill="#2F5E85" d="M160 232h4v4h-4zM164 232h4v4h-4zM168 232h4v4h-4z"/><path fill="#21415C" d="M172 232h4v4h-4zM176 232h4v4h-4zM180 232h4v4h-4zM184 232h4v4h-4zM188 232h4v4h-4zM192 232h4v4h-4zM196 232h4v4h-4z"/><path fill="#00101E" d="M200 232h4v4h-4zM204 232h4v4h-4zM208 232h4v4h-4zM212 232h4v4h-4z"/><path fill="#21415C" d="M140 236h4v4h-4zM144 236h4v4h-4zM148 236h4v4h-4zM152 236h4v4h-4zM156 236h4v4h-4zM160 236h4v4h-4zM164 236h4v4h-4zM168 236h4v4h-4zM172 236h4v4h-4zM176 236h4v4h-4zM180 236h4v4h-4zM184 236h4v4h-4zM188 236h4v4h-4z"/><path fill="#00101E" d="M192 236h4v4h-4zM196 236h4v4h-4zM200 236h4v4h-4zM204 236h4v4h-4z"/><path fill="#21415C" d="M208 236h4v4h-4zM212 236h4v4h-4zM144 240h4v4h-4zM148 240h4v4h-4zM152 240h4v4h-4zM156 240h4v4h-4zM160 240h4v4h-4zM164 240h4v4h-4zM168 240h4v4h-4zM172 240h4v4h-4zM176 240h4v4h-4z"/><path fill="#00101E" d="M180 240h4v4h-4zM184 240h4v4h-4zM188 240h4v4h-4zM192 240h4v4h-4zM196 240h4v4h-4z"/><path fill="#21415C" d="M200 240h4v4h-4zM204 240h4v4h-4zM208 240h4v4h-4zM212 240h4v4h-4z"/><path fill="#00101E" d="M144 244h4v4h-4zM148 244h4v4h-4zM152 244h4v4h-4zM156 244h4v4h-4zM160 244h4v4h-4zM164 244h4v4h-4zM168 244h4v4h-4zM172 244h4v4h-4zM176 244h4v4h-4zM180 244h4v4h-4zM184 244h4v4h-4zM188 244h4v4h-4z"/><path fill="#21415C" d="M192 244h4v4h-4zM196 244h4v4h-4zM200 244h4v4h-4zM204 244h4v4h-4zM208 244h4v4h-4zM212 244h4v4h-4zM216 244h4v4h-4z"/><path fill="#2F5E85" d="M144 248h4v4h-4zM148 248h4v4h-4zM152 248h4v4h-4zM156 248h4v4h-4zM160 248h4v4h-4z"/><path fill="#00101E" d="M164 248h4v4h-4zM168 248h4v4h-4zM172 248h4v4h-4z"/><path fill="#21415C" d="M176 248h4v4h-4zM180 248h4v4h-4zM184 248h4v4h-4zM188 248h4v4h-4zM192 248h4v4h-4zM196 248h4v4h-4zM200 248h4v4h-4zM204 248h4v4h-4zM208 248h4v4h-4zM212 248h4v4h-4zM216 248h4v4h-4zM144 252h4v4h-4zM148 252h4v4h-4zM152 252h4v4h-4zM156 252h4v4h-4zM160 252h4v4h-4zM164 252h4v4h-4zM168 252h4v4h-4zM172 252h4v4h-4zM176 252h4v4h-4zM180 252h4v4h-4zM184 252h4v4h-4zM188 252h4v4h-4zM192 252h4v4h-4zM196 252h4v4h-4zM200 252h4v4h-4zM204 252h4v4h-4zM208 252h4v4h-4z"/><path fill="#00101E" d="M212 252h4v4h-4zM216 252h4v4h-4z"/><path fill="#21415C" d="M148 256h4v4h-4zM152 256h4v4h-4zM156 256h4v4h-4zM160 256h4v4h-4zM164 256h4v4h-4zM168 256h4v4h-4zM172 256h4v4h-4zM176 256h4v4h-4zM180 256h4v4h-4zM184 256h4v4h-4zM188 256h4v4h-4zM192 256h4v4h-4zM196 256h4v4h-4zM200 256h4v4h-4z"/><path fill="#00101E" d="M204 256h4v4h-4zM208 256h4v4h-4zM212 256h4v4h-4zM216 256h4v4h-4z"/><path fill="#21415C" d="M148 260h4v4h-4zM152 260h4v4h-4zM156 260h4v4h-4zM160 260h4v4h-4zM164 260h4v4h-4zM168 260h4v4h-4zM172 260h4v4h-4zM176 260h4v4h-4zM180 260h4v4h-4zM184 260h4v4h-4zM188 260h4v4h-4zM192 260h4v4h-4z"/><path fill="#00101E" d="M196 260h4v4h-4zM200 260h4v4h-4zM204 260h4v4h-4zM208 260h4v4h-4zM212 260h4v4h-4zM216 260h4v4h-4zM152 264h4v4h-4zM156 264h4v4h-4z"/><path fill="#21415C" d="M160 264h4v4h-4zM164 264h4v4h-4zM168 264h4v4h-4zM172 264h4v4h-4zM176 264h4v4h-4z"/><path fill="#00101E" d="M180 264h4v4h-4zM184 264h4v4h-4zM188 264h4v4h-4zM192 264h4v4h-4zM196 264h4v4h-4zM200 264h4v4h-4zM204 264h4v4h-4zM208 264h4v4h-4zM212 264h4v4h-4zM152 268h4v4h-4zM156 268h4v4h-4zM160 268h4v4h-4zM164 268h4v4h-4zM168 268h4v4h-4zM172 268h4v4h-4zM176 268h4v4h-4zM180 268h4v4h-4zM184 268h4v4h-4zM188 268h4v4h-4zM192 268h4v4h-4zM196 268h4v4h-4zM200 268h4v4h-4zM204 268h4v4h-4zM208 268h4v4h-4zM212 268h4v4h-4zM156 272h4v4h-4zM160 272h4v4h-4zM164 272h4v4h-4zM168 272h4v4h-4zM172 272h4v4h-4zM176 272h4v4h-4zM180 272h4v4h-4zM184 272h4v4h-4zM188 272h4v4h-4zM192 272h4v4h-4zM196 272h4v4h-4zM200 272h4v4h-4zM204 272h4v4h-4zM208 272h4v4h-4zM156 276h4v4h-4zM160 276h4v4h-4zM164 276h4v4h-4zM168 276h4v4h-4zM172 276h4v4h-4zM176 276h4v4h-4zM180 276h4v4h-4zM184 276h4v4h-4zM188 276h4v4h-4zM192 276h4v4h-4zM196 276h4v4h-4zM200 276h4v4h-4zM204 276h4v4h-4zM208 276h4v4h-4zM160 280h4v4h-4zM164 280h4v4h-4zM168 280h4v4h-4zM172 280h4v4h-4zM176 280h4v4h-4zM180 280h4v4h-4zM184 280h4v4h-4zM188 280h4v4h-4zM192 280h4v4h-4zM196 280h4v4h-4zM200 280h4v4h-4zM204 280h4v4h-4zM168 284h4v4h-4zM172 284h4v4h-4zM176 284h4v4h-4zM180 284h4v4h-4zM184 284h4v4h-4zM188 284h4v4h-4zM192 284h4v4h-4zM196 284h4v4h-4zM176 288h4v4h-4zM180 288h4v4h-4zM184 288h4v4h-4zM188 288h4v4h-4z"/></svg>