<svg width="384" height="384" xmlns="http://www.w3.org/2000/svg" shape-rendering="crispEdges"><path fill="#503A47" d="M116 24h4v4h-4zM120 24h4v4h-4zM124 24h4v4h-4zM128 24h4v4h-4zM132 24h4v4h-4zM112 28h4v4h-4zM116 28h4v4h-4zM120 28h4v4h-4zM124 28h4v4h-4zM128 28h4v4h-4zM132 28h4v4h-4zM136 28h4v4h-4zM140 28h4v4h-4zM108 32h4v4h-4zM112 32h4v4h-4zM116 32h4v4h-4zM120 32h4v4h-4zM124 32h4v4h-4zM128 32h4v4h-4zM132 32h4v4h-4zM136 32h4v4h-4zM140 32h4v4h-4zM144 32h4v4h-4zM108 36h4v4h-4zM112 36h4v4h-4zM116 36h4v4h-4zM120 36h4v4h-4zM124 36h4v4h-4zM128 36h4v4h-4zM132 36h4v4h-4zM136 36h4v4h-4zM140 36h4v4h-4zM144 36h4v4h-4zM108 40h4v4h-4zM112 40h4v4h-4zM116 40h4v4h-4zM120 40h4v4h-4zM124 40h4v4h-4zM128 40h4v4h-4zM132 40h4v4h-4zM136 40h4v4h-4zM140 40h4v4h-4zM144 40h4v4h-4zM92 44h4v4h-4zM96 44h4v4h-4zM100 44h4v4h-4zM108 44h4v4h-4zM112 44h4v4h-4zM116 44h4v4h-4zM120 44h4v4h-4zM124 44h4v4h-4zM128 44h4v4h-4zM132 44h4v4h-4zM144 44h4v4h-4zM156 44h4v4h-4zM160 44h4v4h-4zM164 44h4v4h-4zM84 48h4v4h-4zM88 48h4v4h-4zM92 48h4v4h-4zM96 48h4v4h-4zM100 48h4v4h-4zM108 48h4v4h-4zM112 48h4v4h-4zM116 48h4v4h-4zM156 48h4v4h-4zM160 48h4v4h-4zM164 48h4v4h-4zM168 48h4v4h-4zM80 52h4v4h-4zM84 52h4v4h-4zM88 52h4v4h-4zM92 52h4v4h-4zM96 52h4v4h-4zM100 52h4v4h-4zM104 52h4v4h-4zM112 52h4v4h-4zM156 52h4v4h-4zM160 52h4v4h-4zM164 52h4v4h-4zM168 52h4v4h-4zM80 56h4v4h-4zM84 56h4v4h-4zM88 56h4v4h-4zM92 56h4v4h-4zM96 56h4v4h-4zM100 56h4v4h-4zM104 56h4v4h-4zM152 56h4v4h-4zM156 56h4v4h-4zM160 56h4v4h-4zM164 56h4v4h-4zM168 56h4v4h-4zM80 60h4v4h-4zM84 60h4v4h-4zM88 60h4v4h-4zM92 60h4v4h-4zM96 60h4v4h-4zM100 60h4v4h-4zM104 60h4v4h-4zM152 60h4v4h-4zM156 60h4v4h-4zM160 60h4v4h-4zM164 60h4v4h-4zM168 60h4v4h-4zM80 64h4v4h-4zM84 64h4v4h-4zM88 64h4v4h-4zM92 64h4v4h-4zM156 64h4v4h-4zM160 64h4v4h-4zM164 64h4v4h-4zM84 68h4v4h-4zM88 68h4v4h-4zM156 68h4v4h-4zM160 68h4v4h-4zM88 72h4v4h-4z"/><path fill="#413C2E" d="M148 112h4v4h-4zM152 112h4v4h-4zM156 112h4v4h-4zM160 112h4v4h-4zM164 112h4v4h-4zM168 112h4v4h-4zM172 112h4v4h-4zM176 112h4v4h-4zM180 112h4v4h-4zM140 116h4v4h-4zM144 116h4v4h-4zM148 116h4v4h-4zM152 116h4v4h-4zM156 116h4v4h-4zM160 116h4v4h-4zM164 116h4v4h-4zM168 116h4v4h-4zM172 116h4v4h-4zM176 116h4v4h-4zM180 116h4v4h-4z"/><path fill="#342E1F" d="M184 116h4v4h-4z"/><path fill="#413C2E" d="M132 120h4v4h-4zM136 120h4v4h-4zM140 120h4v4h-4zM144 120h4v4h-4z"/><path fill="#B24414" d="M148 120h4v4h-4zM152 120h4v4h-4zM156 120h4v4h-4zM160 120h4v4h-4zM164 120h4v4h-4zM168 120h4v4h-4zM172 120h4v4h-4z"/><path fill="#413C2E" d="M176 120h4v4h-4zM180 120h4v4h-4z"/><path fill="#342E1F" d="M184 120h4v4h-4zM188 120h4v4h-4z"/><path fill="#413C2E" d="M124 124h4v4h-4zM128 124h4v4h-4zM132 124h4v4h-4zM136 124h4v4h-4z"/><path fill="#B24414" d="M140 124h4v4h-4zM144 124h4v4h-4zM148 124h4v4h-4zM152 124h4v4h-4zM156 124h4v4h-4zM160 124h4v4h-4zM164 124h4v4h-4zM168 124h4v4h-4zM172 124h4v4h-4zM176 124h4v4h-4z"/><path fill="#413C2E" d="M180 124h4v4h-4z"/><path fill="#342E1F" d="M184 124h4v4h-4zM188 124h4v4h-4z"/><path fill="#413C2E" d="M120 128h4v4h-4zM124 128h4v4h-4zM128 128h4v4h-4z"/><path fill="#B24414" d="M132 128h4v4h-4zM136 128h4v4h-4zM140 128h4v4h-4zM144 128h4v4h-4zM148 128h4v4h-4zM152 128h4v4h-4z"/><path fill="#FC611D" d="M156 128h4v4h-4zM160 128h4v4h-4zM164 128h4v4h-4zM168 128h4v4h-4zM172 128h4v4h-4zM176 128h4v4h-4z"/><path fill="#413C2E" d="M180 128h4v4h-4zM184 128h4v4h-4z"/><path fill="#342E1F" d="M188 128h4v4h-4zM192 128h4v4h-4z"/><path fill="#413C2E" d="M116 132h4v4h-4zM120 132h4v4h-4zM124 132h4v4h-4z"/><path fill="#B24414" d="M128 132h4v4h-4zM132 132h4v4h-4zM136 132h4v4h-4zM140 132h4v4h-4z"/><path fill="#FC611D" d="M144 132h4v4h-4zM148 132h4v4h-4zM152 132h4v4h-4z"/><path fill="#FF9E00" d="M156 132h4v4h-4zM160 132h4v4h-4zM164 132h4v4h-4zM168 132h4v4h-4zM172 132h4v4h-4zM176 132h4v4h-4z"/><path fill="#413C2E" d="M180 132h4v4h-4zM184 132h4v4h-4zM188 132h4v4h-4z"/><path fill="#342E1F" d="M192 132h4v4h-4zM196 132h4v4h-4z"/><path fill="#413C2E" d="M112 136h4v4h-4zM116 136h4v4h-4zM120 136h4v4h-4z"/><path fill="#B24414" d="M124 136h4v4h-4zM128 136h4v4h-4zM132 136h4v4h-4z"/><path fill="#FC611D" d="M136 136h4v4h-4zM140 136h4v4h-4z"/><path fill="#FF9E00" d="M144 136h4v4h-4zM148 136h4v4h-4zM152 136h4v4h-4zM156 136h4v4h-4zM160 136h4v4h-4zM164 136h4v4h-4zM168 136h4v4h-4zM172 136h4v4h-4zM176 136h4v4h-4z"/><path fill="#413C2E" d="M180 136h4v4h-4zM184 136h4v4h-4zM188 136h4v4h-4zM192 136h4v4h-4z"/><path fill="#342E1F" d="M196 136h4v4h-4zM200 136h4v4h-4z"/><path fill="#413C2E" d="M112 140h4v4h-4zM116 140h4v4h-4z"/><path fill="#B24414" d="M120 140h4v4h-4zM124 140h4v4h-4z"/><path fill="#FC611D" d="M128 140h4v4h-4zM132 140h4v4h-4z"/><path fill="#FF9E00" d="M136 140h4v4h-4zM140 140h4v4h-4zM144 140h4v4h-4zM148 140h4v4h-4zM152 140h4v4h-4zM156 140h4v4h-4zM160 140h4v4h-4zM164 140h4v4h-4zM168 140h4v4h-4zM172 140h4v4h-4z"/><path fill="#413C2E" d="M176 140h4v4h-4zM180 140h4v4h-4zM184 140h4v4h-4zM188 140h4v4h-4zM192 140h4v4h-4zM196 140h4v4h-4z"/><path fill="#342E1F" d="M200 140h4v4h-4zM204 140h4v4h-4zM108 144h4v4h-4z"/><path fill="#413C2E" d="M112 144h4v4h-4zM116 144h4v4h-4z"/><path fill="#B24414" d="M120 144h4v4h-4z"/><path fill="#FC611D" d="M124 144h4v4h-4z"/><path fill="#FF9E00" d="M128 144h4v4h-4zM132 144h4v4h-4zM136 144h4v4h-4zM140 144h4v4h-4zM144 144h4v4h-4zM148 144h4v4h-4z"/><path fill="#FFFA79" d="M152 144h4v4h-4zM156 144h4v4h-4zM160 144h4v4h-4zM164 144h4v4h-4zM168 144h4v4h-4z"/><path fill="#342E1F" d="M172 144h4v4h-4z"/><path fill="#413C2E" d="M176 144h4v4h-4zM180 144h4v4h-4zM184 144h4v4h-4zM188 144h4v4h-4zM192 144h4v4h-4zM196 144h4v4h-4zM200 144h4v4h-4z"/><path fill="#342E1F" d="M204 144h4v4h-4zM208 144h4v4h-4zM108 148h4v4h-4zM112 148h4v4h-4z"/><path fill="#413C2E" d="M116 148h4v4h-4zM120 148h4v4h-4z"/><path fill="#FF9E00" d="M124 148h4v4h-4zM128 148h4v4h-4zM132 148h4v4h-4zM136 148h4v4h-4z"/><path fill="#FFFA79" d="M140 148h4v4h-4zM144 148h4v4h-4zM148 148h4v4h-4zM152 148h4v4h-4zM156 148h4v4h-4zM160 148h4v4h-4z"/><path fill="#FC611D" d="M164 148h4v4h-4z"/><path fill="#342E1F" d="M168 148h4v4h-4zM172 148h4v4h-4z"/><path fill="#413C2E" d="M176 148h4v4h-4zM180 148h4v4h-4zM184 148h4v4h-4zM188 148h4v4h-4zM192 148h4v4h-4zM196 148h4v4h-4zM200 148h4v4h-4zM204 148h4v4h-4z"/><path fill="#342E1F" d="M208 148h4v4h-4zM212 148h4v4h-4zM108 152h4v4h-4zM112 152h4v4h-4zM116 152h4v4h-4z"/><path fill="#413C2E" d="M120 152h4v4h-4z"/><path fill="#FF9E00" d="M124 152h4v4h-4z"/><path fill="#FFFA79" d="M128 152h4v4h-4zM132 152h4v4h-4zM136 152h4v4h-4zM140 152h4v4h-4z"/><path fill="#342E1F" d="M144 152h4v4h-4zM148 152h4v4h-4z"/><path fill="#FFFA79" d="M152 152h4v4h-4zM156 152h4v4h-4z"/><path fill="#FC611D" d="M160 152h4v4h-4zM164 152h4v4h-4z"/><path fill="#342E1F" d="M168 152h4v4h-4zM172 152h4v4h-4z"/><path fill="#413C2E" d="M176 152h4v4h-4zM180 152h4v4h-4zM184 152h4v4h-4zM188 152h4v4h-4zM192 152h4v4h-4z"/><path fill="#FC611D" d="M196 152h4v4h-4zM200 152h4v4h-4z"/><path fill="#413C2E" d="M204 152h4v4h-4zM208 152h4v4h-4z"/><path fill="#342E1F" d="M212 152h4v4h-4zM216 152h4v4h-4zM112 156h4v4h-4zM116 156h4v4h-4zM120 156h4v4h-4z"/><path fill="#FF9E00" d="M124 156h4v4h-4z"/><path fill="#B24414" d="M128 156h4v4h-4z"/><path fill="#FFFA79" d="M132 156h4v4h-4zM136 156h4v4h-4z"/><path fill="#342E1F" d="M140 156h4v4h-4zM144 156h4v4h-4zM148 156h4v4h-4zM152 156h4v4h-4z"/><path fill="#FC611D" d="M156 156h4v4h-4z"/><path fill="#B24414" d="M160 156h4v4h-4z"/><path fill="#FC611D" d="M164 156h4v4h-4z"/><path fill="#342E1F" d="M168 156h4v4h-4zM172 156h4v4h-4z"/><path fill="#413C2E" d="M176 156h4v4h-4zM180 156h4v4h-4zM184 156h4v4h-4z"/><path fill="#342E1F" d="M188 156h4v4h-4z"/><path fill="#B24414" d="M192 156h4v4h-4zM196 156h4v4h-4z"/><path fill="#413C2E" d="M200 156h4v4h-4zM204 156h4v4h-4zM208 156h4v4h-4zM212 156h4v4h-4z"/><path fill="#342E1F" d="M216 156h4v4h-4zM220 156h4v4h-4zM112 160h4v4h-4zM116 160h4v4h-4z"/><path fill="#B24414" d="M120 160h4v4h-4z"/><path fill="#FC611D" d="M124 160h4v4h-4z"/><path fill="#B24414" d="M128 160h4v4h-4z"/><path fill="#FC611D" d="M132 160h4v4h-4zM136 160h4v4h-4z"/><path fill="#B24414" d="M140 160h4v4h-4z"/><path fill="#342E1F" d="M144 160h4v4h-4zM148 160h4v4h-4zM152 160h4v4h-4z"/><path fill="#B24414" d="M156 160h4v4h-4z"/><path fill="#413C2E" d="M160 160h4v4h-4z"/><path fill="#FC611D" d="M164 160h4v4h-4z"/><path fill="#342E1F" d="M168 160h4v4h-4zM172 160h4v4h-4z"/><path fill="#413C2E" d="M176 160h4v4h-4zM180 160h4v4h-4z"/><path fill="#342E1F" d="M184 160h4v4h-4zM188 160h4v4h-4zM192 160h4v4h-4zM196 160h4v4h-4z"/><path fill="#413C2E" d="M200 160h4v4h-4zM204 160h4v4h-4zM208 160h4v4h-4zM212 160h4v4h-4zM216 160h4v4h-4z"/><path fill="#342E1F" d="M220 160h4v4h-4zM224 160h4v4h-4zM228 160h4v4h-4zM112 164h4v4h-4zM116 164h4v4h-4z"/><path fill="#B24414" d="M120 164h4v4h-4z"/><path fill="#FC611D" d="M124 164h4v4h-4z"/><path fill="#B24414" d="M128 164h4v4h-4z"/><path fill="#FC611D" d="M132 164h4v4h-4zM136 164h4v4h-4z"/><path fill="#B24414" d="M140 164h4v4h-4z"/><path fill="#413C2E" d="M144 164h4v4h-4z"/><path fill="#342E1F" d="M148 164h4v4h-4zM152 164h4v4h-4zM156 164h4v4h-4z"/><path fill="#413C2E" d="M160 164h4v4h-4z"/><path fill="#FC611D" d="M164 164h4v4h-4zM168 164h4v4h-4z"/><path fill="#342E1F" d="M172 164h4v4h-4z"/><path fill="#413C2E" d="M176 164h4v4h-4zM180 164h4v4h-4z"/><path fill="#342E1F" d="M184 164h4v4h-4zM188 164h4v4h-4zM192 164h4v4h-4zM196 164h4v4h-4z"/><path fill="#413C2E" d="M200 164h4v4h-4zM204 164h4v4h-4zM208 164h4v4h-4zM212 164h4v4h-4zM216 164h4v4h-4zM220 164h4v4h-4zM224 164h4v4h-4zM228 164h4v4h-4z"/><path fill="#342E1F" d="M232 164h4v4h-4zM112 168h4v4h-4zM116 168h4v4h-4z"/><path fill="#FC611D" d="M120 168h4v4h-4z"/><path fill="#B24414" d="M124 168h4v4h-4zM128 168h4v4h-4z"/><path fill="#FC611D" d="M132 168h4v4h-4zM136 168h4v4h-4z"/><path fill="#B24414" d="M140 168h4v4h-4z"/><path fill="#413C2E" d="M144 168h4v4h-4zM148 168h4v4h-4z"/><path fill="#342E1F" d="M152 168h4v4h-4zM156 168h4v4h-4zM160 168h4v4h-4zM164 168h4v4h-4z"/><path fill="#B24414" d="M168 168h4v4h-4z"/><path fill="#342E1F" d="M172 168h4v4h-4z"/><path fill="#413C2E" d="M176 168h4v4h-4zM180 168h4v4h-4zM184 168h4v4h-4z"/><path fill="#342E1F" d="M188 168h4v4h-4zM192 168h4v4h-4z"/><path fill="#413C2E" d="M196 168h4v4h-4zM200 168h4v4h-4zM204 168h4v4h-4zM208 168h4v4h-4zM212 168h4v4h-4zM216 168h4v4h-4zM220 168h4v4h-4zM224 168h4v4h-4zM228 168h4v4h-4zM232 168h4v4h-4z"/><path fill="#342E1F" d="M236 168h4v4h-4zM240 168h4v4h-4zM112 172h4v4h-4zM116 172h4v4h-4z"/><path fill="#FC611D" d="M120 172h4v4h-4z"/><path fill="#B24414" d="M124 172h4v4h-4zM128 172h4v4h-4z"/><path fill="#FC611D" d="M132 172h4v4h-4zM136 172h4v4h-4z"/><path fill="#B24414" d="M140 172h4v4h-4z"/><path fill="#413C2E" d="M144 172h4v4h-4zM148 172h4v4h-4zM152 172h4v4h-4z"/><path fill="#342E1F" d="M156 172h4v4h-4z"/><path fill="#413C2E" d="M160 172h4v4h-4zM164 172h4v4h-4z"/><path fill="#B24414" d="M168 172h4v4h-4z"/><path fill="#413C2E" d="M172 172h4v4h-4zM176 172h4v4h-4zM180 172h4v4h-4zM184 172h4v4h-4zM188 172h4v4h-4zM192 172h4v4h-4zM196 172h4v4h-4zM200 172h4v4h-4zM204 172h4v4h-4zM208 172h4v4h-4zM212 172h4v4h-4zM216 172h4v4h-4zM220 172h4v4h-4zM224 172h4v4h-4zM228 172h4v4h-4zM232 172h4v4h-4zM236 172h4v4h-4z"/><path fill="#342E1F" d="M240 172h4v4h-4zM244 172h4v4h-4zM248 172h4v4h-4zM112 176h4v4h-4zM116 176h4v4h-4z"/><path fill="#FC611D" d="M120 176h4v4h-4z"/><path fill="#B24414" d="M124 176h4v4h-4zM128 176h4v4h-4z"/><path fill="#FC611D" d="M132 176h4v4h-4zM136 176h4v4h-4z"/><path fill="#B24414" d="M140 176h4v4h-4z"/><path fill="#413C2E" d="M144 176h4v4h-4zM148 176h4v4h-4zM152 176h4v4h-4zM156 176h4v4h-4zM160 176h4v4h-4zM164 176h4v4h-4zM168 176h4v4h-4zM172 176h4v4h-4zM176 176h4v4h-4zM180 176h4v4h-4zM184 176h4v4h-4zM188 176h4v4h-4zM192 176h4v4h-4zM196 176h4v4h-4zM200 176h4v4h-4zM204 176h4v4h-4zM208 176h4v4h-4zM212 176h4v4h-4zM216 176h4v4h-4zM220 176h4v4h-4zM224 176h4v4h-4zM228 176h4v4h-4zM232 176h4v4h-4zM236 176h4v4h-4zM240 176h4v4h-4zM244 176h4v4h-4z"/><path fill="#342E1F" d="M248 176h4v4h-4zM252 176h4v4h-4zM112 180h4v4h-4zM116 180h4v4h-4z"/><path fill="#FC611D" d="M120 180h4v4h-4z"/><path fill="#B24414" d="M124 180h4v4h-4zM128 180h4v4h-4z"/><path fill="#FC611D" d="M132 180h4v4h-4zM136 180h4v4h-4z"/><path fill="#B24414" d="M140 180h4v4h-4z"/><path fill="#342E1F" d="M144 180h4v4h-4zM148 180h4v4h-4z"/><path fill="#413C2E" d="M152 180h4v4h-4zM156 180h4v4h-4zM160 180h4v4h-4zM164 180h4v4h-4zM168 180h4v4h-4zM172 180h4v4h-4zM176 180h4v4h-4zM180 180h4v4h-4zM184 180h4v4h-4zM188 180h4v4h-4zM192 180h4v4h-4zM196 180h4v4h-4zM200 180h4v4h-4zM204 180h4v4h-4zM208 180h4v4h-4zM212 180h4v4h-4zM216 180h4v4h-4zM220 180h4v4h-4zM224 180h4v4h-4zM228 180h4v4h-4zM232 180h4v4h-4zM236 180h4v4h-4zM240 180h4v4h-4zM244 180h4v4h-4zM248 180h4v4h-4z"/><path fill="#342E1F" d="M252 180h4v4h-4zM256 180h4v4h-4zM112 184h4v4h-4zM116 184h4v4h-4z"/><path fill="#FC611D" d="M120 184h4v4h-4z"/><path fill="#342E1F" d="M124 184h4v4h-4z"/><path fill="#B24414" d="M128 184h4v4h-4z"/><path fill="#FC611D" d="M132 184h4v4h-4zM136 184h4v4h-4z"/><path fill="#B24414" d="M140 184h4v4h-4z"/><path fill="#342E1F" d="M144 184h4v4h-4z"/><path fill="#413C2E" d="M148 184h4v4h-4zM152 184h4v4h-4zM156 184h4v4h-4zM160 184h4v4h-4zM164 184h4v4h-4zM168 184h4v4h-4zM172 184h4v4h-4zM176 184h4v4h-4zM180 184h4v4h-4zM184 184h4v4h-4zM188 184h4v4h-4zM192 184h4v4h-4zM196 184h4v4h-4zM200 184h4v4h-4zM204 184h4v4h-4zM208 184h4v4h-4zM212 184h4v4h-4zM216 184h4v4h-4zM220 184h4v4h-4zM224 184h4v4h-4zM228 184h4v4h-4zM232 184h4v4h-4zM236 184h4v4h-4zM240 184h4v4h-4zM244 184h4v4h-4zM248 184h4v4h-4z"/><path fill="#342E1F" d="M252 184h4v4h-4zM256 184h4v4h-4zM260 184h4v4h-4zM112 188h4v4h-4zM116 188h4v4h-4z"/><path fill="#FC611D" d="M120 188h4v4h-4z"/><path fill="#342E1F" d="M124 188h4v4h-4z"/><path fill="#B24414" d="M128 188h4v4h-4z"/><path fill="#FC611D" d="M132 188h4v4h-4zM136 188h4v4h-4z"/><path fill="#B24414" d="M140 188h4v4h-4z"/><path fill="#342E1F" d="M144 188h4v4h-4zM148 188h4v4h-4z"/><path fill="#413C2E" d="M152 188h4v4h-4zM156 188h4v4h-4zM160 188h4v4h-4zM164 188h4v4h-4zM168 188h4v4h-4zM172 188h4v4h-4zM176 188h4v4h-4zM180 188h4v4h-4zM184 188h4v4h-4zM188 188h4v4h-4zM192 188h4v4h-4zM196 188h4v4h-4zM200 188h4v4h-4zM204 188h4v4h-4zM208 188h4v4h-4zM212 188h4v4h-4zM216 188h4v4h-4zM220 188h4v4h-4zM224 188h4v4h-4zM228 188h4v4h-4zM232 188h4v4h-4zM236 188h4v4h-4zM240 188h4v4h-4zM244 188h4v4h-4zM248 188h4v4h-4zM252 188h4v4h-4z"/><path fill="#342E1F" d="M256 188h4v4h-4zM260 188h4v4h-4zM264 188h4v4h-4zM112 192h4v4h-4zM116 192h4v4h-4z"/><path fill="#B24414" d="M120 192h4v4h-4z"/><path fill="#342E1F" d="M124 192h4v4h-4z"/><path fill="#B24414" d="M128 192h4v4h-4z"/><path fill="#FC611D" d="M132 192h4v4h-4zM136 192h4v4h-4z"/><path fill="#B24414" d="M140 192h4v4h-4z"/><path fill="#342E1F" d="M144 192h4v4h-4zM148 192h4v4h-4zM152 192h4v4h-4zM156 192h4v4h-4z"/><path fill="#413C2E" d="M160 192h4v4h-4zM164 192h4v4h-4zM168 192h4v4h-4zM172 192h4v4h-4zM176 192h4v4h-4zM180 192h4v4h-4zM184 192h4v4h-4z"/><path fill="#342E1F" d="M188 192h4v4h-4z"/><path fill="#413C2E" d="M192 192h4v4h-4zM196 192h4v4h-4zM200 192h4v4h-4zM204 192h4v4h-4zM208 192h4v4h-4zM212 192h4v4h-4zM216 192h4v4h-4zM220 192h4v4h-4zM224 192h4v4h-4zM228 192h4v4h-4zM232 192h4v4h-4zM236 192h4v4h-4zM240 192h4v4h-4zM244 192h4v4h-4zM248 192h4v4h-4zM252 192h4v4h-4zM256 192h4v4h-4z"/><path fill="#342E1F" d="M260 192h4v4h-4zM264 192h4v4h-4zM108 196h4v4h-4zM112 196h4v4h-4z"/><path fill="#FF9E00" d="M116 196h4v4h-4z"/><path fill="#B24414" d="M120 196h4v4h-4z"/><path fill="#413C2E" d="M124 196h4v4h-4z"/><path fill="#B24414" d="M128 196h4v4h-4z"/><path fill="#FC611D" d="M132 196h4v4h-4z"/><path fill="#B24414" d="M136 196h4v4h-4z"/><path fill="#342E1F" d="M140 196h4v4h-4zM144 196h4v4h-4z"/><path fill="#B24414" d="M148 196h4v4h-4zM152 196h4v4h-4z"/><path fill="#413C2E" d="M156 196h4v4h-4zM160 196h4v4h-4zM164 196h4v4h-4zM168 196h4v4h-4zM172 196h4v4h-4zM176 196h4v4h-4zM180 196h4v4h-4z"/><path fill="#342E1F" d="M184 196h4v4h-4zM188 196h4v4h-4zM192 196h4v4h-4z"/><path fill="#413C2E" d="M196 196h4v4h-4zM200 196h4v4h-4zM204 196h4v4h-4zM208 196h4v4h-4zM212 196h4v4h-4zM216 196h4v4h-4zM220 196h4v4h-4zM224 196h4v4h-4zM228 196h4v4h-4zM232 196h4v4h-4zM236 196h4v4h-4zM240 196h4v4h-4zM244 196h4v4h-4zM248 196h4v4h-4zM252 196h4v4h-4zM256 196h4v4h-4z"/><path fill="#342E1F" d="M260 196h4v4h-4zM264 196h4v4h-4zM268 196h4v4h-4zM108 200h4v4h-4z"/><path fill="#FF9E00" d="M112 200h4v4h-4z"/><path fill="#B24414" d="M116 200h4v4h-4z"/><path fill="#342E1F" d="M120 200h4v4h-4z"/><path fill="#413C2E" d="M124 200h4v4h-4z"/><path fill="#B24414" d="M128 200h4v4h-4z"/><path fill="#FC611D" d="M132 200h4v4h-4z"/><path fill="#B24414" d="M136 200h4v4h-4z"/><path fill="#342E1F" d="M140 200h4v4h-4zM144 200h4v4h-4zM148 200h4v4h-4z"/><path fill="#B24414" d="M152 200h4v4h-4zM156 200h4v4h-4z"/><path fill="#413C2E" d="M160 200h4v4h-4zM164 200h4v4h-4zM168 200h4v4h-4zM172 200h4v4h-4zM176 200h4v4h-4zM180 200h4v4h-4z"/><path fill="#342E1F" d="M184 200h4v4h-4zM188 200h4v4h-4zM192 200h4v4h-4z"/><path fill="#413C2E" d="M196 200h4v4h-4zM200 200h4v4h-4zM204 200h4v4h-4zM208 200h4v4h-4zM212 200h4v4h-4zM216 200h4v4h-4zM220 200h4v4h-4zM224 200h4v4h-4zM228 200h4v4h-4zM232 200h4v4h-4zM236 200h4v4h-4zM240 200h4v4h-4zM244 200h4v4h-4zM248 200h4v4h-4zM252 200h4v4h-4zM256 200h4v4h-4zM260 200h4v4h-4z"/><path fill="#342E1F" d="M264 200h4v4h-4zM268 200h4v4h-4zM104 204h4v4h-4zM108 204h4v4h-4z"/><path fill="#FF9E00" d="M112 204h4v4h-4z"/><path fill="#342E1F" d="M116 204h4v4h-4zM120 204h4v4h-4z"/><path fill="#413C2E" d="M124 204h4v4h-4z"/><path fill="#B24414" d="M128 204h4v4h-4z"/><path fill="#FC611D" d="M132 204h4v4h-4z"/><path fill="#B24414" d="M136 204h4v4h-4z"/><path fill="#342E1F" d="M140 204h4v4h-4zM144 204h4v4h-4zM148 204h4v4h-4zM152 204h4v4h-4z"/><path fill="#413C2E" d="M156 204h4v4h-4zM160 204h4v4h-4zM164 204h4v4h-4zM168 204h4v4h-4zM172 204h4v4h-4z"/><path fill="#342E1F" d="M176 204h4v4h-4z"/><path fill="#413C2E" d="M180 204h4v4h-4zM184 204h4v4h-4z"/><path fill="#342E1F" d="M188 204h4v4h-4z"/><path fill="#413C2E" d="M192 204h4v4h-4zM196 204h4v4h-4zM200 204h4v4h-4zM204 204h4v4h-4zM208 204h4v4h-4zM212 204h4v4h-4zM216 204h4v4h-4zM220 204h4v4h-4zM224 204h4v4h-4zM228 204h4v4h-4zM232 204h4v4h-4zM236 204h4v4h-4zM240 204h4v4h-4zM244 204h4v4h-4zM248 204h4v4h-4zM252 204h4v4h-4zM256 204h4v4h-4zM260 204h4v4h-4z"/><path fill="#342E1F" d="M264 204h4v4h-4zM268 204h4v4h-4zM272 204h4v4h-4z"/><path fill="#FC611D" d="M104 208h4v4h-4zM108 208h4v4h-4z"/><path fill="#B24414" d="M112 208h4v4h-4z"/><path fill="#342E1F" d="M116 208h4v4h-4zM120 208h4v4h-4z"/><path fill="#B24414" d="M124 208h4v4h-4z"/><path fill="#FC611D" d="M128 208h4v4h-4zM132 208h4v4h-4z"/><path fill="#342E1F" d="M136 208h4v4h-4zM140 208h4v4h-4zM144 208h4v4h-4zM148 208h4v4h-4z"/><path fill="#413C2E" d="M152 208h4v4h-4zM156 208h4v4h-4zM160 208h4v4h-4zM164 208h4v4h-4zM168 208h4v4h-4z"/><path fill="#342E1F" d="M172 208h4v4h-4zM176 208h4v4h-4zM180 208h4v4h-4z"/><path fill="#413C2E" d="M184 208h4v4h-4zM188 208h4v4h-4zM192 208h4v4h-4zM196 208h4v4h-4zM200 208h4v4h-4zM204 208h4v4h-4zM208 208h4v4h-4zM212 208h4v4h-4zM216 208h4v4h-4zM220 208h4v4h-4zM224 208h4v4h-4zM228 208h4v4h-4zM232 208h4v4h-4zM236 208h4v4h-4zM240 208h4v4h-4zM244 208h4v4h-4zM248 208h4v4h-4zM252 208h4v4h-4zM256 208h4v4h-4zM260 208h4v4h-4zM264 208h4v4h-4z"/><path fill="#342E1F" d="M268 208h4v4h-4zM272 208h4v4h-4zM276 208h4v4h-4z"/><path fill="#FC611D" d="M100 212h4v4h-4z"/><path fill="#B24414" d="M104 212h4v4h-4z"/><path fill="#342E1F" d="M108 212h4v4h-4zM112 212h4v4h-4zM116 212h4v4h-4z"/><path fill="#B24414" d="M120 212h4v4h-4z"/><path fill="#FFBD00" d="M124 212h4v4h-4zM128 212h4v4h-4z"/><path fill="#342E1F" d="M132 212h4v4h-4zM136 212h4v4h-4zM140 212h4v4h-4zM144 212h4v4h-4z"/><path fill="#413C2E" d="M148 212h4v4h-4zM152 212h4v4h-4zM156 212h4v4h-4zM160 212h4v4h-4zM164 212h4v4h-4zM168 212h4v4h-4z"/><path fill="#342E1F" d="M172 212h4v4h-4zM176 212h4v4h-4zM180 212h4v4h-4z"/><path fill="#413C2E" d="M184 212h4v4h-4zM188 212h4v4h-4zM192 212h4v4h-4zM196 212h4v4h-4zM200 212h4v4h-4zM204 212h4v4h-4zM208 212h4v4h-4zM212 212h4v4h-4zM216 212h4v4h-4zM220 212h4v4h-4zM224 212h4v4h-4zM228 212h4v4h-4zM232 212h4v4h-4zM236 212h4v4h-4zM240 212h4v4h-4zM244 212h4v4h-4z"/><path fill="#342E1F" d="M248 212h4v4h-4z"/><path fill="#413C2E" d="M252 212h4v4h-4zM256 212h4v4h-4zM260 212h4v4h-4zM264 212h4v4h-4z"/><path fill="#342E1F" d="M268 212h4v4h-4zM272 212h4v4h-4zM276 212h4v4h-4z"/><path fill="#B24414" d="M100 216h4v4h-4z"/><path fill="#342E1F" d="M104 216h4v4h-4zM108 216h4v4h-4zM112 216h4v4h-4z"/><path fill="#B24414" d="M116 216h4v4h-4z"/><path fill="#FFBD00" d="M120 216h4v4h-4zM124 216h4v4h-4z"/><path fill="#342E1F" d="M128 216h4v4h-4zM132 216h4v4h-4zM136 216h4v4h-4zM140 216h4v4h-4zM144 216h4v4h-4zM148 216h4v4h-4z"/><path fill="#413C2E" d="M152 216h4v4h-4zM156 216h4v4h-4zM160 216h4v4h-4zM164 216h4v4h-4zM168 216h4v4h-4zM172 216h4v4h-4z"/><path fill="#342E1F" d="M176 216h4v4h-4z"/><path fill="#413C2E" d="M180 216h4v4h-4zM184 216h4v4h-4zM188 216h4v4h-4zM192 216h4v4h-4zM196 216h4v4h-4zM200 216h4v4h-4zM204 216h4v4h-4zM208 216h4v4h-4zM212 216h4v4h-4zM216 216h4v4h-4zM220 216h4v4h-4zM224 216h4v4h-4zM228 216h4v4h-4zM232 216h4v4h-4zM236 216h4v4h-4zM240 216h4v4h-4z"/><path fill="#342E1F" d="M244 216h4v4h-4zM248 216h4v4h-4zM252 216h4v4h-4z"/><path fill="#413C2E" d="M256 216h4v4h-4zM260 216h4v4h-4zM264 216h4v4h-4z"/><path fill="#342E1F" d="M268 216h4v4h-4zM272 216h4v4h-4zM276 216h4v4h-4z"/><path fill="#B24414" d="M100 220h4v4h-4z"/><path fill="#342E1F" d="M104 220h4v4h-4zM108 220h4v4h-4zM112 220h4v4h-4z"/><path fill="#B24414" d="M116 220h4v4h-4z"/><path fill="#FFBD00" d="M120 220h4v4h-4zM124 220h4v4h-4z"/><path fill="#B24414" d="M128 220h4v4h-4z"/><path fill="#342E1F" d="M132 220h4v4h-4zM136 220h4v4h-4zM140 220h4v4h-4zM144 220h4v4h-4zM148 220h4v4h-4z"/><path fill="#413C2E" d="M152 220h4v4h-4zM156 220h4v4h-4zM160 220h4v4h-4zM164 220h4v4h-4zM168 220h4v4h-4zM172 220h4v4h-4zM176 220h4v4h-4zM180 220h4v4h-4zM184 220h4v4h-4zM188 220h4v4h-4zM192 220h4v4h-4zM196 220h4v4h-4zM200 220h4v4h-4zM204 220h4v4h-4zM208 220h4v4h-4zM212 220h4v4h-4zM216 220h4v4h-4zM220 220h4v4h-4zM224 220h4v4h-4zM228 220h4v4h-4zM232 220h4v4h-4zM236 220h4v4h-4zM240 220h4v4h-4zM244 220h4v4h-4z"/><path fill="#342E1F" d="M248 220h4v4h-4zM252 220h4v4h-4zM256 220h4v4h-4z"/><path fill="#413C2E" d="M260 220h4v4h-4zM264 220h4v4h-4z"/><path fill="#342E1F" d="M268 220h4v4h-4zM272 220h4v4h-4zM276 220h4v4h-4zM280 220h4v4h-4zM96 224h4v4h-4zM100 224h4v4h-4zM104 224h4v4h-4zM108 224h4v4h-4z"/><path fill="#B24414" d="M112 224h4v4h-4z"/><path fill="#FFBD00" d="M116 224h4v4h-4z"/><path fill="#FFFA79" d="M120 224h4v4h-4zM124 224h4v4h-4z"/><path fill="#FFBD00" d="M128 224h4v4h-4z"/><path fill="#342E1F" d="M132 224h4v4h-4zM136 224h4v4h-4zM140 224h4v4h-4zM144 224h4v4h-4zM148 224h4v4h-4zM152 224h4v4h-4zM156 224h4v4h-4z"/><path fill="#413C2E" d="M160 224h4v4h-4z"/><path fill="#342E1F" d="M164 224h4v4h-4z"/><path fill="#413C2E" d="M168 224h4v4h-4z"/><path fill="#342E1F" d="M172 224h4v4h-4z"/><path fill="#413C2E" d="M176 224h4v4h-4zM180 224h4v4h-4zM184 224h4v4h-4zM188 224h4v4h-4zM192 224h4v4h-4zM196 224h4v4h-4zM200 224h4v4h-4zM204 224h4v4h-4z"/><path fill="#342E1F" d="M208 224h4v4h-4z"/><path fill="#413C2E" d="M212 224h4v4h-4zM216 224h4v4h-4zM220 224h4v4h-4zM224 224h4v4h-4zM228 224h4v4h-4zM232 224h4v4h-4zM236 224h4v4h-4zM240 224h4v4h-4zM244 224h4v4h-4z"/><path fill="#342E1F" d="M248 224h4v4h-4zM252 224h4v4h-4z"/><path fill="#413C2E" d="M256 224h4v4h-4zM260 224h4v4h-4z"/><path fill="#342E1F" d="M264 224h4v4h-4zM268 224h4v4h-4zM272 224h4v4h-4zM276 224h4v4h-4zM280 224h4v4h-4zM96 228h4v4h-4zM100 228h4v4h-4zM104 228h4v4h-4z"/><path fill="#FFBD00" d="M108 228h4v4h-4zM112 228h4v4h-4z"/><path fill="#FFFA79" d="M116 228h4v4h-4zM120 228h4v4h-4zM124 228h4v4h-4z"/><path fill="#B24414" d="M128 228h4v4h-4z"/><path fill="#342E1F" d="M132 228h4v4h-4zM136 228h4v4h-4zM140 228h4v4h-4zM144 228h4v4h-4zM148 228h4v4h-4zM152 228h4v4h-4zM156 228h4v4h-4zM160 228h4v4h-4zM164 228h4v4h-4zM168 228h4v4h-4zM172 228h4v4h-4zM176 228h4v4h-4z"/><path fill="#413C2E" d="M180 228h4v4h-4zM184 228h4v4h-4zM188 228h4v4h-4zM192 228h4v4h-4z"/><path fill="#342E1F" d="M196 228h4v4h-4z"/><path fill="#413C2E" d="M200 228h4v4h-4z"/><path fill="#342E1F" d="M204 228h4v4h-4zM208 228h4v4h-4zM212 228h4v4h-4z"/><path fill="#413C2E" d="M216 228h4v4h-4zM220 228h4v4h-4zM224 228h4v4h-4z"/><path fill="#342E1F" d="M228 228h4v4h-4z"/><path fill="#413C2E" d="M232 228h4v4h-4zM236 228h4v4h-4zM240 228h4v4h-4zM244 228h4v4h-4z"/><path fill="#342E1F" d="M248 228h4v4h-4z"/><path fill="#413C2E" d="M252 228h4v4h-4zM256 228h4v4h-4zM260 228h4v4h-4z"/><path fill="#342E1F" d="M264 228h4v4h-4zM268 228h4v4h-4zM272 228h4v4h-4zM276 228h4v4h-4zM280 228h4v4h-4zM96 232h4v4h-4zM100 232h4v4h-4zM104 232h4v4h-4z"/><path fill="#FFBD00" d="M108 232h4v4h-4z"/><path fill="#B24414" d="M112 232h4v4h-4zM116 232h4v4h-4z"/><path fill="#413C2E" d="M120 232h4v4h-4zM124 232h4v4h-4z"/><path fill="#342E1F" d="M128 232h4v4h-4zM132 232h4v4h-4z"/><path fill="#B24414" d="M136 232h4v4h-4z"/><path fill="#342E1F" d="M140 232h4v4h-4zM144 232h4v4h-4zM148 232h4v4h-4zM152 232h4v4h-4zM156 232h4v4h-4zM160 232h4v4h-4zM164 232h4v4h-4zM168 232h4v4h-4zM172 232h4v4h-4zM176 232h4v4h-4zM180 232h4v4h-4z"/><path fill="#413C2E" d="M184 232h4v4h-4zM188 232h4v4h-4z"/><path fill="#342E1F" d="M192 232h4v4h-4zM196 232h4v4h-4zM200 232h4v4h-4zM204 232h4v4h-4zM208 232h4v4h-4zM212 232h4v4h-4zM216 232h4v4h-4z"/><path fill="#413C2E" d="M220 232h4v4h-4z"/><path fill="#342E1F" d="M224 232h4v4h-4zM228 232h4v4h-4zM232 232h4v4h-4z"/><path fill="#413C2E" d="M236 232h4v4h-4zM240 232h4v4h-4z"/><path fill="#342E1F" d="M244 232h4v4h-4zM248 232h4v4h-4zM252 232h4v4h-4z"/><path fill="#413C2E" d="M256 232h4v4h-4z"/><path fill="#342E1F" d="M260 232h4v4h-4zM264 232h4v4h-4zM268 232h4v4h-4zM272 232h4v4h-4zM276 232h4v4h-4zM280 232h4v4h-4zM96 236h4v4h-4zM100 236h4v4h-4z"/><path fill="#313451" d="M104 236h4v4h-4z"/><path fill="#FFBD00" d="M108 236h4v4h-4z"/><path fill="#342E1F" d="M112 236h4v4h-4z"/><path fill="#413C2E" d="M116 236h4v4h-4zM120 236h4v4h-4zM124 236h4v4h-4z"/><path fill="#342E1F" d="M128 236h4v4h-4z"/><path fill="#B24414" d="M132 236h4v4h-4z"/><path fill="#342E1F" d="M136 236h4v4h-4zM140 236h4v4h-4zM144 236h4v4h-4zM148 236h4v4h-4zM152 236h4v4h-4zM156 236h4v4h-4zM160 236h4v4h-4zM164 236h4v4h-4zM168 236h4v4h-4zM172 236h4v4h-4zM176 236h4v4h-4zM180 236h4v4h-4zM184 236h4v4h-4zM188 236h4v4h-4zM192 236h4v4h-4zM196 236h4v4h-4zM200 236h4v4h-4zM204 236h4v4h-4zM208 236h4v4h-4zM212 236h4v4h-4zM216 236h4v4h-4z"/><path fill="#413C2E" d="M220 236h4v4h-4z"/><path fill="#342E1F" d="M224 236h4v4h-4zM228 236h4v4h-4zM232 236h4v4h-4zM236 236h4v4h-4z"/><path fill="#413C2E" d="M240 236h4v4h-4z"/><path fill="#342E1F" d="M244 236h4v4h-4zM248 236h4v4h-4zM252 236h4v4h-4zM256 236h4v4h-4zM260 236h4v4h-4zM264 236h4v4h-4zM268 236h4v4h-4zM272 236h4v4h-4zM276 236h4v4h-4zM280 236h4v4h-4zM96 240h4v4h-4zM100 240h4v4h-4z"/><path fill="#FFBD00" d="M104 240h4v4h-4z"/><path fill="#342E1F" d="M108 240h4v4h-4zM112 240h4v4h-4z"/><path fill="#413C2E" d="M116 240h4v4h-4zM120 240h4v4h-4zM124 240h4v4h-4zM128 240h4v4h-4z"/><path fill="#342E1F" d="M132 240h4v4h-4zM136 240h4v4h-4zM140 240h4v4h-4zM144 240h4v4h-4zM148 240h4v4h-4zM152 240h4v4h-4zM156 240h4v4h-4zM160 240h4v4h-4zM164 240h4v4h-4zM168 240h4v4h-4zM172 240h4v4h-4zM176 240h4v4h-4zM180 240h4v4h-4zM184 240h4v4h-4zM188 240h4v4h-4zM192 240h4v4h-4zM196 240h4v4h-4zM200 240h4v4h-4zM204 240h4v4h-4zM208 240h4v4h-4zM212 240h4v4h-4zM216 240h4v4h-4zM220 240h4v4h-4zM224 240h4v4h-4zM228 240h4v4h-4zM232 240h4v4h-4zM236 240h4v4h-4zM240 240h4v4h-4zM244 240h4v4h-4zM248 240h4v4h-4zM252 240h4v4h-4zM256 240h4v4h-4z"/><path fill="#413C2E" d="M260 240h4v4h-4z"/><path fill="#342E1F" d="M264 240h4v4h-4zM268 240h4v4h-4zM272 240h4v4h-4zM276 240h4v4h-4zM280 240h4v4h-4zM96 244h4v4h-4zM100 244h4v4h-4z"/><path fill="#FC611D" d="M104 244h4v4h-4z"/><path fill="#342E1F" d="M108 244h4v4h-4zM112 244h4v4h-4z"/><path fill="#413C2E" d="M116 244h4v4h-4zM120 244h4v4h-4zM124 244h4v4h-4z"/><path fill="#342E1F" d="M128 244h4v4h-4z"/><path fill="#413C2E" d="M132 244h4v4h-4z"/><path fill="#342E1F" d="M136 244h4v4h-4zM140 244h4v4h-4zM144 244h4v4h-4zM148 244h4v4h-4zM152 244h4v4h-4zM156 244h4v4h-4zM160 244h4v4h-4zM164 244h4v4h-4zM168 244h4v4h-4zM172 244h4v4h-4zM176 244h4v4h-4zM180 244h4v4h-4zM184 244h4v4h-4zM188 244h4v4h-4zM192 244h4v4h-4zM196 244h4v4h-4zM200 244h4v4h-4zM204 244h4v4h-4zM208 244h4v4h-4zM212 244h4v4h-4zM216 244h4v4h-4zM220 244h4v4h-4zM224 244h4v4h-4zM228 244h4v4h-4zM232 244h4v4h-4zM236 244h4v4h-4zM240 244h4v4h-4zM244 244h4v4h-4zM248 244h4v4h-4zM252 244h4v4h-4z"/><path fill="#413C2E" d="M256 244h4v4h-4zM260 244h4v4h-4zM264 244h4v4h-4z"/><path fill="#342E1F" d="M268 244h4v4h-4zM272 244h4v4h-4zM276 244h4v4h-4zM280 244h4v4h-4zM96 248h4v4h-4zM100 248h4v4h-4z"/><path fill="#FC611D" d="M104 248h4v4h-4z"/><path fill="#342E1F" d="M108 248h4v4h-4zM112 248h4v4h-4zM116 248h4v4h-4z"/><path fill="#413C2E" d="M120 248h4v4h-4z"/><path fill="#342E1F" d="M124 248h4v4h-4zM128 248h4v4h-4z"/><path fill="#413C2E" d="M132 248h4v4h-4z"/><path fill="#342E1F" d="M136 248h4v4h-4zM140 248h4v4h-4zM144 248h4v4h-4zM148 248h4v4h-4zM152 248h4v4h-4zM156 248h4v4h-4zM160 248h4v4h-4zM164 248h4v4h-4zM168 248h4v4h-4zM172 248h4v4h-4zM176 248h4v4h-4zM180 248h4v4h-4zM184 248h4v4h-4zM188 248h4v4h-4zM192 248h4v4h-4zM196 248h4v4h-4zM200 248h4v4h-4zM204 248h4v4h-4zM208 248h4v4h-4zM212 248h4v4h-4zM216 248h4v4h-4zM220 248h4v4h-4zM224 248h4v4h-4zM228 248h4v4h-4zM232 248h4v4h-4zM236 248h4v4h-4zM240 248h4v4h-4zM244 248h4v4h-4zM248 248h4v4h-4z"/><path fill="#413C2E" d="M252 248h4v4h-4zM256 248h4v4h-4zM260 248h4v4h-4z"/><path fill="#342E1F" d="M264 248h4v4h-4zM268 248h4v4h-4zM272 248h4v4h-4zM276 248h4v4h-4zM96 252h4v4h-4z"/><path fill="#313451" d="M100 252h4v4h-4z"/><path fill="#B24414" d="M104 252h4v4h-4z"/><path fill="#342E1F" d="M108 252h4v4h-4zM112 252h4v4h-4zM116 252h4v4h-4zM120 252h4v4h-4zM124 252h4v4h-4zM128 252h4v4h-4z"/><path fill="#413C2E" d="M132 252h4v4h-4zM136 252h4v4h-4z"/><path fill="#342E1F" d="M140 252h4v4h-4zM144 252h4v4h-4zM148 252h4v4h-4zM152 252h4v4h-4zM156 252h4v4h-4zM160 252h4v4h-4zM164 252h4v4h-4zM168 252h4v4h-4zM172 252h4v4h-4zM176 252h4v4h-4zM180 252h4v4h-4zM184 252h4v4h-4zM188 252h4v4h-4zM192 252h4v4h-4zM196 252h4v4h-4zM200 252h4v4h-4zM204 252h4v4h-4zM208 252h4v4h-4zM212 252h4v4h-4zM216 252h4v4h-4zM220 252h4v4h-4zM224 252h4v4h-4zM228 252h4v4h-4zM232 252h4v4h-4zM236 252h4v4h-4zM240 252h4v4h-4zM244 252h4v4h-4zM248 252h4v4h-4zM252 252h4v4h-4z"/><path fill="#413C2E" d="M256 252h4v4h-4z"/><path fill="#342E1F" d="M260 252h4v4h-4zM264 252h4v4h-4zM268 252h4v4h-4zM272 252h4v4h-4zM96 256h4v4h-4zM100 256h4v4h-4z"/><path fill="#B24414" d="M104 256h4v4h-4z"/><path fill="#342E1F" d="M108 256h4v4h-4zM112 256h4v4h-4zM116 256h4v4h-4zM120 256h4v4h-4zM124 256h4v4h-4zM128 256h4v4h-4zM132 256h4v4h-4z"/><path fill="#413C2E" d="M136 256h4v4h-4zM140 256h4v4h-4z"/><path fill="#342E1F" d="M144 256h4v4h-4zM148 256h4v4h-4zM152 256h4v4h-4zM156 256h4v4h-4zM160 256h4v4h-4zM164 256h4v4h-4zM168 256h4v4h-4zM172 256h4v4h-4zM176 256h4v4h-4zM180 256h4v4h-4zM184 256h4v4h-4zM188 256h4v4h-4zM192 256h4v4h-4zM196 256h4v4h-4zM200 256h4v4h-4zM204 256h4v4h-4zM208 256h4v4h-4zM212 256h4v4h-4zM216 256h4v4h-4zM220 256h4v4h-4zM224 256h4v4h-4zM228 256h4v4h-4zM232 256h4v4h-4zM236 256h4v4h-4zM240 256h4v4h-4zM244 256h4v4h-4zM248 256h4v4h-4zM252 256h4v4h-4zM256 256h4v4h-4zM260 256h4v4h-4zM264 256h4v4h-4zM268 256h4v4h-4zM272 256h4v4h-4zM96 260h4v4h-4z"/><path fill="#313451" d="M100 260h4v4h-4z"/><path fill="#B24414" d="M104 260h4v4h-4z"/><path fill="#342E1F" d="M108 260h4v4h-4zM112 260h4v4h-4zM116 260h4v4h-4zM120 260h4v4h-4zM124 260h4v4h-4zM128 260h4v4h-4zM132 260h4v4h-4z"/><path fill="#413C2E" d="M136 260h4v4h-4zM140 260h4v4h-4zM144 260h4v4h-4z"/><path fill="#342E1F" d="M148 260h4v4h-4zM152 260h4v4h-4zM156 260h4v4h-4zM160 260h4v4h-4zM164 260h4v4h-4zM168 260h4v4h-4zM172 260h4v4h-4zM176 260h4v4h-4zM180 260h4v4h-4zM184 260h4v4h-4zM188 260h4v4h-4zM192 260h4v4h-4zM196 260h4v4h-4zM200 260h4v4h-4zM204 260h4v4h-4zM208 260h4v4h-4zM212 260h4v4h-4zM216 260h4v4h-4zM220 260h4v4h-4zM224 260h4v4h-4zM228 260h4v4h-4zM232 260h4v4h-4zM236 260h4v4h-4zM240 260h4v4h-4zM244 260h4v4h-4zM248 260h4v4h-4zM252 260h4v4h-4zM256 260h4v4h-4zM260 260h4v4h-4zM264 260h4v4h-4zM268 260h4v4h-4z"/><path fill="#B24414" d="M104 264h4v4h-4z"/><path fill="#342E1F" d="M108 264h4v4h-4zM112 264h4v4h-4zM116 264h4v4h-4zM120 264h4v4h-4zM124 264h4v4h-4zM128 264h4v4h-4zM132 264h4v4h-4zM136 264h4v4h-4zM140 264h4v4h-4z"/><path fill="#413C2E" d="M144 264h4v4h-4zM148 264h4v4h-4zM152 264h4v4h-4z"/><path fill="#342E1F" d="M156 264h4v4h-4zM160 264h4v4h-4zM164 264h4v4h-4z"/><path fill="#413C2E" d="M168 264h4v4h-4z"/><path fill="#342E1F" d="M172 264h4v4h-4zM176 264h4v4h-4zM180 264h4v4h-4zM184 264h4v4h-4zM188 264h4v4h-4zM192 264h4v4h-4zM196 264h4v4h-4zM200 264h4v4h-4zM204 264h4v4h-4zM208 264h4v4h-4zM212 264h4v4h-4zM216 264h4v4h-4zM220 264h4v4h-4zM224 264h4v4h-4zM228 264h4v4h-4zM232 264h4v4h-4zM236 264h4v4h-4zM240 264h4v4h-4zM244 264h4v4h-4zM248 264h4v4h-4zM252 264h4v4h-4zM256 264h4v4h-4zM260 264h4v4h-4zM264 264h4v4h-4zM104 268h4v4h-4zM108 268h4v4h-4zM112 268h4v4h-4zM116 268h4v4h-4zM120 268h4v4h-4zM124 268h4v4h-4zM128 268h4v4h-4zM132 268h4v4h-4zM136 268h4v4h-4zM140 268h4v4h-4zM144 268h4v4h-4zM148 268h4v4h-4zM152 268h4v4h-4zM156 268h4v4h-4zM160 268h4v4h-4zM164 268h4v4h-4zM168 268h4v4h-4zM172 268h4v4h-4zM176 268h4v4h-4zM180 268h4v4h-4zM184 268h4v4h-4zM188 268h4v4h-4zM192 268h4v4h-4zM196 268h4v4h-4zM200 268h4v4h-4zM204 268h4v4h-4zM208 268h4v4h-4zM212 268h4v4h-4zM216 268h4v4h-4zM220 268h4v4h-4zM224 268h4v4h-4zM228 268h4v4h-4zM232 268h4v4h-4zM236 268h4v4h-4zM240 268h4v4h-4zM244 268h4v4h-4zM248 268h4v4h-4zM252 268h4v4h-4zM256 268h4v4h-4zM260 268h4v4h-4zM264 268h4v4h-4zM108 272h4v4h-4zM112 272h4v4h-4zM116 272h4v4h-4zM120 272h4v4h-4zM124 272h4v4h-4zM128 272h4v4h-4zM132 272h4v4h-4zM136 272h4v4h-4zM140 272h4v4h-4zM144 272h4v4h-4zM148 272h4v4h-4zM152 272h4v4h-4zM156 272h4v4h-4zM160 272h4v4h-4zM164 272h4v4h-4zM168 272h4v4h-4zM172 272h4v4h-4zM176 272h4v4h-4zM180 272h4v4h-4zM184 272h4v4h-4zM188 272h4v4h-4zM192 272h4v4h-4zM196 272h4v4h-4zM200 272h4v4h-4zM204 272h4v4h-4zM208 272h4v4h-4zM212 272h4v4h-4zM216 272h4v4h-4zM220 272h4v4h-4zM224 272h4v4h-4zM228 272h4v4h-4zM232 272h4v4h-4zM236 272h4v4h-4zM240 272h4v4h-4zM244 272h4v4h-4zM248 272h4v4h-4zM252 272h4v4h-4zM256 272h4v4h-4zM260 272h4v4h-4zM264 272h4v4h-4zM112 276h4v4h-4zM116 276h4v4h-4zM120 276h4v4h-4zM124 276h4v4h-4zM128 276h4v4h-4zM132 276h4v4h-4zM136 276h4v4h-4zM140 276h4v4h-4zM144 276h4v4h-4zM148 276h4v4h-4zM152 276h4v4h-4zM156 276h4v4h-4zM160 276h4v4h-4zM164 276h4v4h-4zM168 276h4v4h-4zM172 276h4v4h-4zM176 276h4v4h-4zM180 276h4v4h-4zM184 276h4v4h-4zM188 276h4v4h-4zM192 276h4v4h-4zM196 276h4v4h-4zM200 276h4v4h-4zM204 276h4v4h-4zM208 276h4v4h-4zM212 276h4v4h-4zM216 276h4v4h-4zM220 276h4v4h-4zM224 276h4v4h-4zM228 276h4v4h-4zM232 276h4v4h-4zM236 276h4v4h-4zM240 276h4v4h-4zM244 276h4v4h-4zM248 276h4v4h-4zM252 276h4v4h-4zM256 276h4v4h-4zM260 276h4v4h-4zM116 280h4v4h-4zM120 280h4v4h-4zM124 280h4v4h-4zM128 280h4v4h-4zM132 280h4v4h-4zM136 280h4v4h-4zM140 280h4v4h-4zM144 280h4v4h-4zM148 280h4v4h-4zM152 280h4v4h-4zM156 280h4v4h-4zM160 280h4v4h-4zM164 280h4v4h-4zM168 280h4v4h-4zM172 280h4v4h-4zM176 280h4v4h-4zM180 280h4v4h-4zM184 280h4v4h-4zM188 280h4v4h-4zM192 280h4v4h-4zM196 280h4v4h-4zM200 280h4v4h-4zM204 280h4v4h-4zM208 280h4v4h-4zM212 280h4v4h-4zM216 280h4v4h-4zM220 280h4v4h-4zM224 280h4v4h-4zM228 280h4v4h-4zM232 280h4v4h-4zM236 280h4v4h-4zM240 280h4v4h-4zM244 280h4v4h-4zM248 280h4v4h-4zM252 280h4v4h-4zM256 280h4v4h-4zM120 284h4v4h-4zM124 284h4v4h-4zM128 284h4v4h-4zM132 284h4v4h-4zM136 284h4v4h-4zM140 284h4v4h-4zM144 284h4v4h-4zM148 284h4v4h-4zM152 284h4v4h-4zM156 284h4v4h-4zM160 284h4v4h-4zM164 284h4v4h-4zM168 284h4v4h-4zM172 284h4v4h-4zM176 284h4v4h-4zM180 284h4v4h-4zM184 284h4v4h-4zM188 284h4v4h-4zM192 284h4v4h-4zM196 284h4v4h-4zM200 284h4v4h-4zM204 284h4v4h-4zM208 284h4v4h-4zM212 284h4v4h-4zM216 284h4v4h-4zM220 284h4v4h-4zM224 284h4v4h-4zM228 284h4v4h-4zM232 284h4v4h-4zM236 284h4v4h-4zM240 284h4v4h-4zM244 284h4v4h-4zM248 284h4v4h-4zM128 288h4v4h-4zM132 288h4v4h-4zM136 288h4v4h-4zM140 288h4v4h-4zM144 288h4v4h-4zM148 288h4v4h-4zM152 288h4v4h-4zM156 288h4v4h-4zM160 288h4v4h-4zM164 288h4v4h-4zM168 288h4v4h-4zM172 288h4v4h-4zM176 288h4v4h-4zM180 288h4v4h-4zM184 288h4v4h-4zM188 288h4v4h-4zM192 288h4v4h-4zM196 288h4v4h-4zM200 288h4v4h-4zM204 288h4v4h-4zM208 288h4v4h-4zM212 288h4v4h-4zM216 288h4v4h-4zM220 288h4v4h-4zM224 288h4v4h-4zM228 288h4v4h-4zM148 292h4v4h-4zM152 292h4v4h-4zM156 292h4v4h-4zM160 292h4v4h-4zM164 292h4v4h-4zM168 292h4v4h-4zM172 292h4v4h-4zM176 292h4v4h-4zM180 292h4v4h-4zM184 292h4v4h-4zM188 292h4v4h-4zM192 292h4v4h-4zM196 292h4v4h-4zM200 292h4v4h-4zM204 292h4v4h-4zM208 292h4v4h-4zM156 296h4v4h-4zM160 296h4v4h-4zM164 296h4v4h-4zM168 296h4v4h-4zM172 296h4v4h-4zM176 296h4v4h-4zM180 296h4v4h-4zM184 296h4v4h-4zM188 296h4v4h-4z"/></svg>