<svg width="384" height="384" xmlns="http://www.w3.org/2000/svg" shape-rendering="crispEdges"><path fill="#2C2526" d="M224 24h4v4h-4zM228 24h4v4h-4zM232 24h4v4h-4zM236 24h4v4h-4zM244 24h4v4h-4zM248 24h4v4h-4zM252 24h4v4h-4zM256 24h4v4h-4zM216 28h4v4h-4zM220 28h4v4h-4z"/><path fill="#80D6B8" d="M224 28h4v4h-4zM228 28h4v4h-4z"/><path fill="#6FBAA0" d="M232 28h4v4h-4zM236 28h4v4h-4z"/><path fill="#2C2526" d="M240 28h4v4h-4z"/><path fill="#6FBAA0" d="M244 28h4v4h-4zM248 28h4v4h-4zM252 28h4v4h-4zM256 28h4v4h-4z"/><path fill="#2C2526" d="M260 28h4v4h-4zM264 28h4v4h-4z"/><path fill="#4C7F6E" d="M200 32h4v4h-4zM204 32h4v4h-4zM208 32h4v4h-4zM212 32h4v4h-4z"/><path fill="#80D6B8" d="M216 32h4v4h-4z"/><path fill="#6FBAA0" d="M220 32h4v4h-4z"/><path fill="#80D6B8" d="M224 32h4v4h-4z"/><path fill="#6FBAA0" d="M228 32h4v4h-4z"/><path fill="#28443A" d="M232 32h4v4h-4z"/><path fill="#284339" d="M236 32h4v4h-4z"/><path fill="#315345" d="M240 32h4v4h-4z"/><path fill="#3F6A59" d="M244 32h4v4h-4z"/><path fill="#91F2D0" d="M248 32h4v4h-4zM252 32h4v4h-4zM256 32h4v4h-4zM260 32h4v4h-4z"/><path fill="#4C7F6E" d="M264 32h4v4h-4z"/><path fill="#2C2526" d="M268 32h4v4h-4z"/><path fill="#4C7F6E" d="M196 36h4v4h-4z"/><path fill="#91F2D0" d="M200 36h4v4h-4zM204 36h4v4h-4zM208 36h4v4h-4zM212 36h4v4h-4z"/><path fill="#6FBAA0" d="M216 36h4v4h-4zM220 36h4v4h-4z"/><path fill="#4C7F6E" d="M224 36h4v4h-4z"/><path fill="#3E6858" d="M228 36h4v4h-4z"/><path fill="#3C6355" d="M232 36h4v4h-4z"/><path fill="#35584A" d="M236 36h4v4h-4z"/><path fill="#375D4F" d="M240 36h4v4h-4z"/><path fill="#4C7F6E" d="M244 36h4v4h-4z"/><path fill="#91F2D0" d="M248 36h4v4h-4zM252 36h4v4h-4zM256 36h4v4h-4z"/><path fill="#80D6B8" d="M260 36h4v4h-4z"/><path fill="#4C7F6E" d="M264 36h4v4h-4z"/><path fill="#2C2526" d="M268 36h4v4h-4z"/><path fill="#4C7F6E" d="M188 40h4v4h-4zM192 40h4v4h-4z"/><path fill="#80D6B8" d="M196 40h4v4h-4z"/><path fill="#91F2D0" d="M200 40h4v4h-4zM204 40h4v4h-4z"/><path fill="#80D6B8" d="M208 40h4v4h-4zM212 40h4v4h-4z"/><path fill="#6FBAA0" d="M216 40h4v4h-4z"/><path fill="#4C7F6E" d="M220 40h4v4h-4z"/><path fill="#6FBAA0" d="M224 40h4v4h-4z"/><path fill="#4C7F6E" d="M228 40h4v4h-4zM232 40h4v4h-4z"/><path fill="#386053" d="M236 40h4v4h-4z"/><path fill="#375C4E" d="M240 40h4v4h-4z"/><path fill="#6FBAA0" d="M244 40h4v4h-4z"/><path fill="#91F2D0" d="M248 40h4v4h-4zM252 40h4v4h-4zM256 40h4v4h-4z"/><path fill="#80D6B8" d="M260 40h4v4h-4z"/><path fill="#4C7F6E" d="M264 40h4v4h-4z"/><path fill="#2C2526" d="M268 40h4v4h-4z"/><path fill="#4C7F6E" d="M180 44h4v4h-4zM184 44h4v4h-4z"/><path fill="#80D6B8" d="M188 44h4v4h-4zM192 44h4v4h-4zM196 44h4v4h-4z"/><path fill="#91F2D0" d="M200 44h4v4h-4z"/><path fill="#80D6B8" d="M204 44h4v4h-4zM208 44h4v4h-4zM212 44h4v4h-4z"/><path fill="#6FBAA0" d="M216 44h4v4h-4z"/><path fill="#2A453B" d="M220 44h4v4h-4z"/><path fill="#6FBAA0" d="M224 44h4v4h-4zM228 44h4v4h-4z"/><path fill="#56917C" d="M232 44h4v4h-4z"/><path fill="#3C6355" d="M236 44h4v4h-4zM240 44h4v4h-4z"/><path fill="#6FBAA0" d="M244 44h4v4h-4z"/><path fill="#91F2D0" d="M248 44h4v4h-4zM252 44h4v4h-4z"/><path fill="#80D6B8" d="M256 44h4v4h-4z"/><path fill="#4C7F6E" d="M260 44h4v4h-4zM264 44h4v4h-4z"/><path fill="#2C2526" d="M268 44h4v4h-4zM284 44h4v4h-4z"/><path fill="#4C7F6E" d="M168 48h4v4h-4zM172 48h4v4h-4zM176 48h4v4h-4z"/><path fill="#6FBAA0" d="M180 48h4v4h-4z"/><path fill="#80D6B8" d="M184 48h4v4h-4zM188 48h4v4h-4z"/><path fill="#91F2D0" d="M192 48h4v4h-4z"/><path fill="#80D6B8" d="M196 48h4v4h-4zM200 48h4v4h-4zM204 48h4v4h-4zM208 48h4v4h-4zM212 48h4v4h-4z"/><path fill="#6FBAA0" d="M216 48h4v4h-4z"/><path fill="#4C7F6E" d="M220 48h4v4h-4z"/><path fill="#6FBAA0" d="M224 48h4v4h-4zM228 48h4v4h-4zM232 48h4v4h-4z"/><path fill="#4C7F6E" d="M236 48h4v4h-4z"/><path fill="#3E6858" d="M240 48h4v4h-4z"/><path fill="#6FBAA0" d="M244 48h4v4h-4z"/><path fill="#91F2D0" d="M248 48h4v4h-4zM252 48h4v4h-4z"/><path fill="#80D6B8" d="M256 48h4v4h-4z"/><path fill="#4C7F6E" d="M260 48h4v4h-4z"/><path fill="#2C2526" d="M264 48h4v4h-4zM280 48h4v4h-4z"/><path fill="#4C7F6E" d="M284 48h4v4h-4z"/><path fill="#2C2526" d="M288 48h4v4h-4z"/><path fill="#4C7F6E" d="M156 52h4v4h-4zM160 52h4v4h-4zM164 52h4v4h-4z"/><path fill="#80D6B8" d="M168 52h4v4h-4zM172 52h4v4h-4zM176 52h4v4h-4zM180 52h4v4h-4z"/><path fill="#91F2D0" d="M184 52h4v4h-4zM188 52h4v4h-4zM192 52h4v4h-4z"/><path fill="#80D6B8" d="M196 52h4v4h-4zM200 52h4v4h-4zM204 52h4v4h-4zM208 52h4v4h-4zM212 52h4v4h-4zM216 52h4v4h-4z"/><path fill="#244035" d="M220 52h4v4h-4z"/><path fill="#6FBAA0" d="M224 52h4v4h-4zM228 52h4v4h-4zM232 52h4v4h-4zM236 52h4v4h-4z"/><path fill="#4C7F6E" d="M240 52h4v4h-4z"/><path fill="#6FBAA0" d="M244 52h4v4h-4z"/><path fill="#91F2D0" d="M248 52h4v4h-4z"/><path fill="#80D6B8" d="M252 52h4v4h-4zM256 52h4v4h-4z"/><path fill="#4C7F6E" d="M260 52h4v4h-4z"/><path fill="#2C2526" d="M264 52h4v4h-4zM276 52h4v4h-4z"/><path fill="#4C7F6E" d="M280 52h4v4h-4zM284 52h4v4h-4z"/><path fill="#2C2526" d="M288 52h4v4h-4z"/><path fill="#4C7F6E" d="M144 56h4v4h-4zM148 56h4v4h-4zM152 56h4v4h-4z"/><path fill="#80D6B8" d="M156 56h4v4h-4zM160 56h4v4h-4zM164 56h4v4h-4zM168 56h4v4h-4zM172 56h4v4h-4z"/><path fill="#91F2D0" d="M176 56h4v4h-4zM180 56h4v4h-4zM184 56h4v4h-4zM188 56h4v4h-4zM192 56h4v4h-4zM196 56h4v4h-4z"/><path fill="#80D6B8" d="M200 56h4v4h-4zM204 56h4v4h-4zM208 56h4v4h-4zM212 56h4v4h-4zM216 56h4v4h-4z"/><path fill="#6FBAA0" d="M220 56h4v4h-4zM224 56h4v4h-4zM228 56h4v4h-4zM232 56h4v4h-4zM236 56h4v4h-4z"/><path fill="#4C7F6E" d="M240 56h4v4h-4zM244 56h4v4h-4z"/><path fill="#91F2D0" d="M248 56h4v4h-4z"/><path fill="#80D6B8" d="M252 56h4v4h-4z"/><path fill="#4C7F6E" d="M256 56h4v4h-4zM260 56h4v4h-4z"/><path fill="#2C2526" d="M264 56h4v4h-4zM272 56h4v4h-4z"/><path fill="#4C7F6E" d="M276 56h4v4h-4zM280 56h4v4h-4zM284 56h4v4h-4z"/><path fill="#2C2526" d="M288 56h4v4h-4z"/><path fill="#4C7F6E" d="M136 60h4v4h-4zM140 60h4v4h-4z"/><path fill="#80D6B8" d="M144 60h4v4h-4zM148 60h4v4h-4zM152 60h4v4h-4zM156 60h4v4h-4zM160 60h4v4h-4zM164 60h4v4h-4z"/><path fill="#91F2D0" d="M168 60h4v4h-4zM172 60h4v4h-4zM176 60h4v4h-4zM180 60h4v4h-4zM184 60h4v4h-4zM188 60h4v4h-4zM192 60h4v4h-4zM196 60h4v4h-4z"/><path fill="#80D6B8" d="M200 60h4v4h-4zM204 60h4v4h-4zM208 60h4v4h-4zM212 60h4v4h-4zM216 60h4v4h-4zM220 60h4v4h-4z"/><path fill="#6FBAA0" d="M224 60h4v4h-4zM228 60h4v4h-4zM232 60h4v4h-4zM236 60h4v4h-4z"/><path fill="#4C7F6E" d="M240 60h4v4h-4z"/><path fill="#6FBAA0" d="M244 60h4v4h-4z"/><path fill="#80D6B8" d="M248 60h4v4h-4z"/><path fill="#6FBAA0" d="M252 60h4v4h-4z"/><path fill="#4C7F6E" d="M256 60h4v4h-4zM260 60h4v4h-4z"/><path fill="#2C2526" d="M264 60h4v4h-4zM268 60h4v4h-4z"/><path fill="#4C7F6E" d="M272 60h4v4h-4zM276 60h4v4h-4zM280 60h4v4h-4zM284 60h4v4h-4z"/><path fill="#2C2526" d="M288 60h4v4h-4z"/><path fill="#4C7F6E" d="M128 64h4v4h-4zM132 64h4v4h-4z"/><path fill="#80D6B8" d="M136 64h4v4h-4zM140 64h4v4h-4zM144 64h4v4h-4zM148 64h4v4h-4zM152 64h4v4h-4zM156 64h4v4h-4z"/><path fill="#91F2D0" d="M160 64h4v4h-4zM164 64h4v4h-4zM168 64h4v4h-4zM172 64h4v4h-4zM176 64h4v4h-4zM180 64h4v4h-4zM184 64h4v4h-4zM188 64h4v4h-4zM192 64h4v4h-4zM196 64h4v4h-4zM200 64h4v4h-4z"/><path fill="#80D6B8" d="M204 64h4v4h-4zM208 64h4v4h-4zM212 64h4v4h-4zM216 64h4v4h-4zM220 64h4v4h-4zM224 64h4v4h-4zM228 64h4v4h-4z"/><path fill="#6FBAA0" d="M232 64h4v4h-4zM236 64h4v4h-4zM240 64h4v4h-4z"/><path fill="#91F2D0" d="M244 64h4v4h-4zM248 64h4v4h-4z"/><path fill="#80D6B8" d="M252 64h4v4h-4z"/><path fill="#6FBAA0" d="M256 64h4v4h-4z"/><path fill="#4C7F6E" d="M260 64h4v4h-4z"/><path fill="#2C2526" d="M264 64h4v4h-4z"/><path fill="#4C7F6E" d="M268 64h4v4h-4zM272 64h4v4h-4zM276 64h4v4h-4zM280 64h4v4h-4zM284 64h4v4h-4z"/><path fill="#2C2526" d="M288 64h4v4h-4z"/><path fill="#4C7F6E" d="M120 68h4v4h-4zM124 68h4v4h-4z"/><path fill="#80D6B8" d="M128 68h4v4h-4zM132 68h4v4h-4zM136 68h4v4h-4zM140 68h4v4h-4zM144 68h4v4h-4zM148 68h4v4h-4z"/><path fill="#91F2D0" d="M152 68h4v4h-4zM156 68h4v4h-4zM160 68h4v4h-4zM164 68h4v4h-4zM168 68h4v4h-4zM172 68h4v4h-4zM176 68h4v4h-4zM180 68h4v4h-4zM184 68h4v4h-4zM188 68h4v4h-4zM192 68h4v4h-4zM196 68h4v4h-4zM200 68h4v4h-4z"/><path fill="#80D6B8" d="M204 68h4v4h-4zM208 68h4v4h-4zM212 68h4v4h-4zM216 68h4v4h-4zM220 68h4v4h-4zM224 68h4v4h-4zM228 68h4v4h-4z"/><path fill="#6FBAA0" d="M232 68h4v4h-4zM236 68h4v4h-4z"/><path fill="#91F2D0" d="M240 68h4v4h-4zM244 68h4v4h-4z"/><path fill="#B1FFE3" d="M248 68h4v4h-4z"/><path fill="#91F2D0" d="M252 68h4v4h-4z"/><path fill="#6FBAA0" d="M256 68h4v4h-4z"/><path fill="#254136" d="M260 68h4v4h-4z"/><path fill="#4C7F6E" d="M264 68h4v4h-4z"/><path fill="#91F2D0" d="M268 68h4v4h-4z"/><path fill="#365B4D" d="M272 68h4v4h-4z"/><path fill="#4C7F6E" d="M276 68h4v4h-4zM280 68h4v4h-4zM284 68h4v4h-4z"/><path fill="#2C2526" d="M288 68h4v4h-4z"/><path fill="#4C7F6E" d="M112 72h4v4h-4zM116 72h4v4h-4z"/><path fill="#B1FFE3" d="M120 72h4v4h-4zM124 72h4v4h-4zM128 72h4v4h-4zM132 72h4v4h-4z"/><path fill="#80D6B8" d="M136 72h4v4h-4z"/><path fill="#8FFFFF" d="M140 72h4v4h-4zM144 72h4v4h-4zM148 72h4v4h-4zM152 72h4v4h-4zM156 72h4v4h-4zM160 72h4v4h-4zM164 72h4v4h-4zM168 72h4v4h-4zM172 72h4v4h-4zM176 72h4v4h-4zM180 72h4v4h-4zM184 72h4v4h-4zM188 72h4v4h-4zM192 72h4v4h-4zM196 72h4v4h-4zM200 72h4v4h-4zM204 72h4v4h-4z"/><path fill="#80D6B8" d="M208 72h4v4h-4zM212 72h4v4h-4zM216 72h4v4h-4zM220 72h4v4h-4zM224 72h4v4h-4zM228 72h4v4h-4z"/><path fill="#6FBAA0" d="M232 72h4v4h-4zM236 72h4v4h-4z"/><path fill="#80D6B8" d="M240 72h4v4h-4z"/><path fill="#91F2D0" d="M244 72h4v4h-4zM248 72h4v4h-4z"/><path fill="#80D6B8" d="M252 72h4v4h-4z"/><path fill="#2D4A40" d="M256 72h4v4h-4z"/><path fill="#325648" d="M260 72h4v4h-4z"/><path fill="#91F2D0" d="M264 72h4v4h-4zM268 72h4v4h-4z"/><path fill="#396154" d="M272 72h4v4h-4z"/><path fill="#4C7F6E" d="M276 72h4v4h-4zM280 72h4v4h-4z"/><path fill="#6FBAA0" d="M284 72h4v4h-4z"/><path fill="#2C2526" d="M288 72h4v4h-4z"/><path fill="#4C7F6E" d="M108 76h4v4h-4z"/><path fill="#B1FFE3" d="M112 76h4v4h-4zM116 76h4v4h-4zM120 76h4v4h-4zM124 76h4v4h-4zM128 76h4v4h-4z"/><path fill="#80D6B8" d="M132 76h4v4h-4z"/><path fill="#8FFFFF" d="M136 76h4v4h-4z"/><path fill="#E9FFFF" d="M140 76h4v4h-4zM144 76h4v4h-4zM148 76h4v4h-4zM152 76h4v4h-4zM156 76h4v4h-4zM160 76h4v4h-4zM164 76h4v4h-4zM168 76h4v4h-4zM172 76h4v4h-4zM176 76h4v4h-4zM180 76h4v4h-4zM184 76h4v4h-4zM188 76h4v4h-4zM192 76h4v4h-4zM196 76h4v4h-4zM200 76h4v4h-4zM204 76h4v4h-4zM208 76h4v4h-4zM212 76h4v4h-4z"/><path fill="#8FFFFF" d="M216 76h4v4h-4z"/><path fill="#91F2D0" d="M220 76h4v4h-4zM224 76h4v4h-4z"/><path fill="#80D6B8" d="M228 76h4v4h-4zM232 76h4v4h-4z"/><path fill="#6FBAA0" d="M236 76h4v4h-4zM240 76h4v4h-4z"/><path fill="#80D6B8" d="M244 76h4v4h-4zM248 76h4v4h-4z"/><path fill="#6FBAA0" d="M252 76h4v4h-4z"/><path fill="#28443A" d="M256 76h4v4h-4z"/><path fill="#4C7F6E" d="M260 76h4v4h-4z"/><path fill="#6FBAA0" d="M264 76h4v4h-4zM268 76h4v4h-4z"/><path fill="#4C7F6E" d="M272 76h4v4h-4z"/><path fill="#6FBAA0" d="M276 76h4v4h-4z"/><path fill="#80D6B8" d="M280 76h4v4h-4z"/><path fill="#305143" d="M284 76h4v4h-4z"/><path fill="#2C2526" d="M288 76h4v4h-4z"/><path fill="#4C7F6E" d="M104 80h4v4h-4z"/><path fill="#B1FFE3" d="M108 80h4v4h-4zM112 80h4v4h-4zM116 80h4v4h-4zM120 80h4v4h-4z"/><path fill="#91F2D0" d="M124 80h4v4h-4zM128 80h4v4h-4z"/><path fill="#80D6B8" d="M132 80h4v4h-4z"/><path fill="#8FFFFF" d="M136 80h4v4h-4z"/><path fill="#E9FFFF" d="M140 80h4v4h-4z"/><path fill="#8FFFFF" d="M144 80h4v4h-4zM148 80h4v4h-4z"/><path fill="#E9FFFF" d="M152 80h4v4h-4z"/><path fill="#8FFFFF" d="M156 80h4v4h-4zM160 80h4v4h-4zM164 80h4v4h-4zM168 80h4v4h-4zM172 80h4v4h-4zM176 80h4v4h-4z"/><path fill="#E9FFFF" d="M180 80h4v4h-4z"/><path fill="#8FFFFF" d="M184 80h4v4h-4zM188 80h4v4h-4zM192 80h4v4h-4zM196 80h4v4h-4zM200 80h4v4h-4z"/><path fill="#E9FFFF" d="M204 80h4v4h-4zM208 80h4v4h-4z"/><path fill="#8FFFFF" d="M212 80h4v4h-4z"/><path fill="#91F2D0" d="M216 80h4v4h-4zM220 80h4v4h-4z"/><path fill="#80D6B8" d="M224 80h4v4h-4zM228 80h4v4h-4zM232 80h4v4h-4z"/><path fill="#6FBAA0" d="M236 80h4v4h-4zM240 80h4v4h-4zM244 80h4v4h-4z"/><path fill="#80D6B8" d="M248 80h4v4h-4z"/><path fill="#6FBAA0" d="M252 80h4v4h-4z"/><path fill="#2C493F" d="M256 80h4v4h-4z"/><path fill="#4C7F6E" d="M260 80h4v4h-4z"/><path fill="#6FBAA0" d="M264 80h4v4h-4zM268 80h4v4h-4zM272 80h4v4h-4z"/><path fill="#4C7F6E" d="M276 80h4v4h-4zM280 80h4v4h-4z"/><path fill="#3D675A" d="M284 80h4v4h-4z"/><path fill="#2C2526" d="M288 80h4v4h-4z"/><path fill="#4C7F6E" d="M104 84h4v4h-4z"/><path fill="#B1FFE3" d="M108 84h4v4h-4zM112 84h4v4h-4zM116 84h4v4h-4z"/><path fill="#91F2D0" d="M120 84h4v4h-4zM124 84h4v4h-4z"/><path fill="#6FBAA0" d="M128 84h4v4h-4z"/><path fill="#8FFFFF" d="M132 84h4v4h-4z"/><path fill="#E9FFFF" d="M136 84h4v4h-4z"/><path fill="#8FFFFF" d="M140 84h4v4h-4zM144 84h4v4h-4z"/><path fill="#E9FFFF" d="M148 84h4v4h-4z"/><path fill="#8FFFFF" d="M152 84h4v4h-4z"/><path fill="#91F2D0" d="M156 84h4v4h-4zM160 84h4v4h-4zM164 84h4v4h-4zM168 84h4v4h-4z"/><path fill="#8FFFFF" d="M172 84h4v4h-4z"/><path fill="#E9FFFF" d="M176 84h4v4h-4z"/><path fill="#8FFFFF" d="M180 84h4v4h-4z"/><path fill="#91F2D0" d="M184 84h4v4h-4zM188 84h4v4h-4z"/><path fill="#8FFFFF" d="M192 84h4v4h-4zM196 84h4v4h-4z"/><path fill="#E9FFFF" d="M200 84h4v4h-4z"/><path fill="#8FFFFF" d="M204 84h4v4h-4zM208 84h4v4h-4z"/><path fill="#91F2D0" d="M212 84h4v4h-4zM216 84h4v4h-4zM220 84h4v4h-4zM224 84h4v4h-4zM228 84h4v4h-4zM232 84h4v4h-4zM236 84h4v4h-4z"/><path fill="#80D6B8" d="M240 84h4v4h-4z"/><path fill="#6FBAA0" d="M244 84h4v4h-4zM248 84h4v4h-4zM252 84h4v4h-4z"/><path fill="#3E6858" d="M256 84h4v4h-4z"/><path fill="#80D6B8" d="M260 84h4v4h-4zM264 84h4v4h-4z"/><path fill="#6FBAA0" d="M268 84h4v4h-4zM272 84h4v4h-4zM276 84h4v4h-4zM280 84h4v4h-4z"/><path fill="#2C2526" d="M284 84h4v4h-4z"/><path fill="#3560EB" d="M100 88h4v4h-4z"/><path fill="#4C7F6E" d="M104 88h4v4h-4z"/><path fill="#B1FFE3" d="M108 88h4v4h-4zM112 88h4v4h-4z"/><path fill="#91F2D0" d="M116 88h4v4h-4zM120 88h4v4h-4zM124 88h4v4h-4z"/><path fill="#6FBAA0" d="M128 88h4v4h-4z"/><path fill="#8FFFFF" d="M132 88h4v4h-4z"/><path fill="#E9FFFF" d="M136 88h4v4h-4z"/><path fill="#8FFFFF" d="M140 88h4v4h-4zM144 88h4v4h-4z"/><path fill="#E9FFFF" d="M148 88h4v4h-4z"/><path fill="#8FFFFF" d="M152 88h4v4h-4z"/><path fill="#91F2D0" d="M156 88h4v4h-4zM160 88h4v4h-4zM164 88h4v4h-4z"/><path fill="#8FFFFF" d="M168 88h4v4h-4z"/><path fill="#E9FFFF" d="M172 88h4v4h-4z"/><path fill="#8FFFFF" d="M176 88h4v4h-4z"/><path fill="#91F2D0" d="M180 88h4v4h-4zM184 88h4v4h-4z"/><path fill="#8FFFFF" d="M188 88h4v4h-4z"/><path fill="#E9FFFF" d="M192 88h4v4h-4zM196 88h4v4h-4z"/><path fill="#8FFFFF" d="M200 88h4v4h-4z"/><path fill="#91F2D0" d="M204 88h4v4h-4zM208 88h4v4h-4zM212 88h4v4h-4zM216 88h4v4h-4zM220 88h4v4h-4zM224 88h4v4h-4zM228 88h4v4h-4zM232 88h4v4h-4z"/><path fill="#6FBAA0" d="M236 88h4v4h-4z"/><path fill="#274238" d="M240 88h4v4h-4z"/><path fill="#2C2526" d="M244 88h4v4h-4z"/><path fill="#6FBAA0" d="M248 88h4v4h-4zM252 88h4v4h-4zM256 88h4v4h-4zM260 88h4v4h-4z"/><path fill="#80D6B8" d="M264 88h4v4h-4zM268 88h4v4h-4z"/><path fill="#6FBAA0" d="M272 88h4v4h-4zM276 88h4v4h-4zM280 88h4v4h-4z"/><path fill="#4C7F6E" d="M284 88h4v4h-4z"/><path fill="#2C2526" d="M288 88h4v4h-4z"/><path fill="#3560EB" d="M96 92h4v4h-4z"/><path fill="#3581FF" d="M100 92h4v4h-4z"/><path fill="#4C7F6E" d="M104 92h4v4h-4z"/><path fill="#B1FFE3" d="M108 92h4v4h-4z"/><path fill="#91F2D0" d="M112 92h4v4h-4zM116 92h4v4h-4zM120 92h4v4h-4z"/><path fill="#6FBAA0" d="M124 92h4v4h-4zM128 92h4v4h-4z"/><path fill="#8FFFFF" d="M132 92h4v4h-4z"/><path fill="#E9FFFF" d="M136 92h4v4h-4z"/><path fill="#8FFFFF" d="M140 92h4v4h-4z"/><path fill="#E9FFFF" d="M144 92h4v4h-4z"/><path fill="#8FFFFF" d="M148 92h4v4h-4z"/><path fill="#91F2D0" d="M152 92h4v4h-4zM156 92h4v4h-4zM160 92h4v4h-4z"/><path fill="#8FFFFF" d="M164 92h4v4h-4z"/><path fill="#E9FFFF" d="M168 92h4v4h-4z"/><path fill="#8FFFFF" d="M172 92h4v4h-4z"/><path fill="#91F2D0" d="M176 92h4v4h-4z"/><path fill="#8FFFFF" d="M180 92h4v4h-4zM184 92h4v4h-4z"/><path fill="#E9FFFF" d="M188 92h4v4h-4z"/><path fill="#8FFFFF" d="M192 92h4v4h-4zM196 92h4v4h-4z"/><path fill="#91F2D0" d="M200 92h4v4h-4zM204 92h4v4h-4zM208 92h4v4h-4zM212 92h4v4h-4zM216 92h4v4h-4zM220 92h4v4h-4zM224 92h4v4h-4zM228 92h4v4h-4z"/><path fill="#2C2526" d="M232 92h4v4h-4z"/><path fill="#6185FF" d="M236 92h4v4h-4zM240 92h4v4h-4zM244 92h4v4h-4z"/><path fill="#2C2526" d="M248 92h4v4h-4z"/><path fill="#4C7F6E" d="M252 92h4v4h-4z"/><path fill="#3E6858" d="M256 92h4v4h-4z"/><path fill="#6FBAA0" d="M260 92h4v4h-4z"/><path fill="#80D6B8" d="M264 92h4v4h-4zM268 92h4v4h-4zM272 92h4v4h-4z"/><path fill="#6FBAA0" d="M276 92h4v4h-4zM280 92h4v4h-4zM284 92h4v4h-4z"/><path fill="#2C2526" d="M288 92h4v4h-4z"/><path fill="#3560EB" d="M92 96h4v4h-4z"/><path fill="#DEE5FA" d="M96 96h4v4h-4z"/><path fill="#6687F1" d="M100 96h4v4h-4z"/><path fill="#4C7F6E" d="M104 96h4v4h-4z"/><path fill="#91F2D0" d="M108 96h4v4h-4zM112 96h4v4h-4zM116 96h4v4h-4zM120 96h4v4h-4z"/><path fill="#6FBAA0" d="M124 96h4v4h-4zM128 96h4v4h-4z"/><path fill="#8FFFFF" d="M132 96h4v4h-4z"/><path fill="#E9FFFF" d="M136 96h4v4h-4z"/><path fill="#8FFFFF" d="M140 96h4v4h-4z"/><path fill="#E9FFFF" d="M144 96h4v4h-4z"/><path fill="#8FFFFF" d="M148 96h4v4h-4z"/><path fill="#91F2D0" d="M152 96h4v4h-4zM156 96h4v4h-4z"/><path fill="#8FFFFF" d="M160 96h4v4h-4z"/><path fill="#E9FFFF" d="M164 96h4v4h-4z"/><path fill="#8FFFFF" d="M168 96h4v4h-4z"/><path fill="#91F2D0" d="M172 96h4v4h-4z"/><path fill="#8FFFFF" d="M176 96h4v4h-4z"/><path fill="#E9FFFF" d="M180 96h4v4h-4zM184 96h4v4h-4z"/><path fill="#8FFFFF" d="M188 96h4v4h-4z"/><path fill="#91F2D0" d="M192 96h4v4h-4zM196 96h4v4h-4zM200 96h4v4h-4zM204 96h4v4h-4zM208 96h4v4h-4zM212 96h4v4h-4zM216 96h4v4h-4zM220 96h4v4h-4zM224 96h4v4h-4z"/><path fill="#B1FFE3" d="M228 96h4v4h-4z"/><path fill="#6185FF" d="M232 96h4v4h-4zM236 96h4v4h-4zM240 96h4v4h-4zM244 96h4v4h-4zM248 96h4v4h-4z"/><path fill="#2C2526" d="M252 96h4v4h-4z"/><path fill="#56927D" d="M256 96h4v4h-4z"/><path fill="#6FBAA0" d="M260 96h4v4h-4z"/><path fill="#80D6B8" d="M264 96h4v4h-4zM268 96h4v4h-4zM272 96h4v4h-4zM276 96h4v4h-4z"/><path fill="#56917C" d="M280 96h4v4h-4z"/><path fill="#2C493F" d="M284 96h4v4h-4z"/><path fill="#2C2526" d="M288 96h4v4h-4z"/><path fill="#3583FF" d="M92 100h4v4h-4z"/><path fill="#DEE5FA" d="M96 100h4v4h-4z"/><path fill="#4C7F6E" d="M100 100h4v4h-4z"/><path fill="#91F2D0" d="M104 100h4v4h-4zM108 100h4v4h-4zM112 100h4v4h-4zM116 100h4v4h-4z"/><path fill="#6FBAA0" d="M120 100h4v4h-4zM124 100h4v4h-4z"/><path fill="#8FFFFF" d="M128 100h4v4h-4z"/><path fill="#E9FFFF" d="M132 100h4v4h-4z"/><path fill="#8FFFFF" d="M136 100h4v4h-4z"/><path fill="#E9FFFF" d="M140 100h4v4h-4z"/><path fill="#8FFFFF" d="M144 100h4v4h-4z"/><path fill="#91F2D0" d="M148 100h4v4h-4zM152 100h4v4h-4z"/><path fill="#8FFFFF" d="M156 100h4v4h-4z"/><path fill="#E9FFFF" d="M160 100h4v4h-4z"/><path fill="#8FFFFF" d="M164 100h4v4h-4z"/><path fill="#91F2D0" d="M168 100h4v4h-4z"/><path fill="#8FFFFF" d="M172 100h4v4h-4z"/><path fill="#E9FFFF" d="M176 100h4v4h-4z"/><path fill="#8FFFFF" d="M180 100h4v4h-4zM184 100h4v4h-4z"/><path fill="#91F2D0" d="M188 100h4v4h-4z"/><path fill="#6FBAA0" d="M192 100h4v4h-4zM196 100h4v4h-4zM200 100h4v4h-4zM204 100h4v4h-4zM208 100h4v4h-4z"/><path fill="#91F2D0" d="M212 100h4v4h-4zM216 100h4v4h-4zM220 100h4v4h-4z"/><path fill="#6FBAA0" d="M224 100h4v4h-4z"/><path fill="#6185FF" d="M228 100h4v4h-4z"/><path fill="#FFF" d="M232 100h4v4h-4z"/><path fill="#92ACFF" d="M236 100h4v4h-4zM240 100h4v4h-4zM244 100h4v4h-4zM248 100h4v4h-4z"/><path fill="#D9E5FF" d="M252 100h4v4h-4z"/><path fill="#4C7F6E" d="M256 100h4v4h-4z"/><path fill="#80D6B8" d="M260 100h4v4h-4z"/><path fill="#6FBAA0" d="M264 100h4v4h-4zM268 100h4v4h-4zM272 100h4v4h-4z"/><path fill="#4C7F6E" d="M276 100h4v4h-4z"/><path fill="#386053" d="M280 100h4v4h-4z"/><path fill="#6FBAA0" d="M284 100h4v4h-4zM288 100h4v4h-4z"/><path fill="#2C2526" d="M292 100h4v4h-4z"/><path fill="#3581FF" d="M92 104h4v4h-4z"/><path fill="#66B3FF" d="M96 104h4v4h-4z"/><path fill="#4C7F6E" d="M100 104h4v4h-4z"/><path fill="#91F2D0" d="M104 104h4v4h-4zM108 104h4v4h-4zM112 104h4v4h-4zM116 104h4v4h-4z"/><path fill="#6FBAA0" d="M120 104h4v4h-4zM124 104h4v4h-4z"/><path fill="#8FFFFF" d="M128 104h4v4h-4z"/><path fill="#E9FFFF" d="M132 104h4v4h-4z"/><path fill="#8FFFFF" d="M136 104h4v4h-4z"/><path fill="#E9FFFF" d="M140 104h4v4h-4z"/><path fill="#8FFFFF" d="M144 104h4v4h-4z"/><path fill="#91F2D0" d="M148 104h4v4h-4z"/><path fill="#8FFFFF" d="M152 104h4v4h-4z"/><path fill="#E9FFFF" d="M156 104h4v4h-4z"/><path fill="#8FFFFF" d="M160 104h4v4h-4zM164 104h4v4h-4zM168 104h4v4h-4z"/><path fill="#E9FFFF" d="M172 104h4v4h-4z"/><path fill="#8FFFFF" d="M176 104h4v4h-4z"/><path fill="#91F2D0" d="M180 104h4v4h-4zM184 104h4v4h-4zM188 104h4v4h-4z"/><path fill="#6FBAA0" d="M192 104h4v4h-4zM196 104h4v4h-4zM200 104h4v4h-4zM204 104h4v4h-4z"/><path fill="#91F2D0" d="M208 104h4v4h-4z"/><path fill="#6FBAA0" d="M212 104h4v4h-4zM216 104h4v4h-4zM220 104h4v4h-4z"/><path fill="#2C2526" d="M224 104h4v4h-4z"/><path fill="#6185FF" d="M228 104h4v4h-4z"/><path fill="#FFF" d="M232 104h4v4h-4z"/><path fill="#97DAFF" d="M236 104h4v4h-4zM240 104h4v4h-4zM244 104h4v4h-4zM248 104h4v4h-4z"/><path fill="#D9E5FF" d="M252 104h4v4h-4z"/><path fill="#2C2526" d="M256 104h4v4h-4z"/><path fill="#80D6B8" d="M260 104h4v4h-4zM264 104h4v4h-4z"/><path fill="#6FBAA0" d="M268 104h4v4h-4zM272 104h4v4h-4z"/><path fill="#2D4C41" d="M276 104h4v4h-4z"/><path fill="#2C2526" d="M280 104h4v4h-4z"/><path fill="#4C7F6E" d="M284 104h4v4h-4z"/><path fill="#6FBAA0" d="M288 104h4v4h-4z"/><path fill="#2C2526" d="M292 104h4v4h-4z"/><path fill="#3581FF" d="M92 108h4v4h-4z"/><path fill="#66B3FF" d="M96 108h4v4h-4z"/><path fill="#4C7F6E" d="M100 108h4v4h-4z"/><path fill="#91F2D0" d="M104 108h4v4h-4zM108 108h4v4h-4zM112 108h4v4h-4z"/><path fill="#6FBAA0" d="M116 108h4v4h-4zM120 108h4v4h-4zM124 108h4v4h-4z"/><path fill="#8FFFFF" d="M128 108h4v4h-4z"/><path fill="#E9FFFF" d="M132 108h4v4h-4z"/><path fill="#8FFFFF" d="M136 108h4v4h-4z"/><path fill="#E9FFFF" d="M140 108h4v4h-4z"/><path fill="#8FFFFF" d="M144 108h4v4h-4z"/><path fill="#91F2D0" d="M148 108h4v4h-4z"/><path fill="#8FFFFF" d="M152 108h4v4h-4z"/><path fill="#E9FFFF" d="M156 108h4v4h-4z"/><path fill="#8FFFFF" d="M160 108h4v4h-4z"/><path fill="#E9FFFF" d="M164 108h4v4h-4zM168 108h4v4h-4z"/><path fill="#8FFFFF" d="M172 108h4v4h-4z"/><path fill="#91F2D0" d="M176 108h4v4h-4zM180 108h4v4h-4zM184 108h4v4h-4zM188 108h4v4h-4z"/><path fill="#6FBAA0" d="M192 108h4v4h-4zM196 108h4v4h-4zM200 108h4v4h-4z"/><path fill="#91F2D0" d="M204 108h4v4h-4zM208 108h4v4h-4z"/><path fill="#6FBAA0" d="M212 108h4v4h-4zM216 108h4v4h-4zM220 108h4v4h-4z"/><path fill="#2C2526" d="M224 108h4v4h-4z"/><path fill="#66B3FF" d="M228 108h4v4h-4zM232 108h4v4h-4z"/><path fill="#97DAFF" d="M236 108h4v4h-4zM240 108h4v4h-4zM244 108h4v4h-4zM248 108h4v4h-4z"/><path fill="#DEFFFF" d="M252 108h4v4h-4z"/><path fill="#2C2526" d="M256 108h4v4h-4z"/><path fill="#6FBAA0" d="M260 108h4v4h-4z"/><path fill="#4C7F6E" d="M264 108h4v4h-4zM268 108h4v4h-4zM272 108h4v4h-4z"/><path fill="#2C2526" d="M276 108h4v4h-4z"/><path fill="#263F35" d="M280 108h4v4h-4z"/><path fill="#345548" d="M284 108h4v4h-4z"/><path fill="#2C2526" d="M288 108h4v4h-4z"/><path fill="#3560EB" d="M92 112h4v4h-4z"/><path fill="#66B3FF" d="M96 112h4v4h-4z"/><path fill="#4C7F6E" d="M100 112h4v4h-4z"/><path fill="#91F2D0" d="M104 112h4v4h-4zM108 112h4v4h-4zM112 112h4v4h-4z"/><path fill="#6FBAA0" d="M116 112h4v4h-4zM120 112h4v4h-4zM124 112h4v4h-4z"/><path fill="#8FFFFF" d="M128 112h4v4h-4z"/><path fill="#E9FFFF" d="M132 112h4v4h-4zM136 112h4v4h-4z"/><path fill="#8FFFFF" d="M140 112h4v4h-4z"/><path fill="#91F2D0" d="M144 112h4v4h-4z"/><path fill="#8FFFFF" d="M148 112h4v4h-4z"/><path fill="#E9FFFF" d="M152 112h4v4h-4z"/><path fill="#8FFFFF" d="M156 112h4v4h-4z"/><path fill="#E9FFFF" d="M160 112h4v4h-4z"/><path fill="#8FFFFF" d="M164 112h4v4h-4zM168 112h4v4h-4z"/><path fill="#91F2D0" d="M172 112h4v4h-4zM176 112h4v4h-4zM180 112h4v4h-4zM184 112h4v4h-4zM188 112h4v4h-4z"/><path fill="#6FBAA0" d="M192 112h4v4h-4zM196 112h4v4h-4z"/><path fill="#91F2D0" d="M200 112h4v4h-4zM204 112h4v4h-4zM208 112h4v4h-4z"/><path fill="#6FBAA0" d="M212 112h4v4h-4zM216 112h4v4h-4z"/><path fill="#56927D" d="M220 112h4v4h-4z"/><path fill="#315345" d="M224 112h4v4h-4z"/><path fill="#66B3FF" d="M228 112h4v4h-4zM232 112h4v4h-4z"/><path fill="#97DAFF" d="M236 112h4v4h-4zM240 112h4v4h-4zM244 112h4v4h-4zM248 112h4v4h-4z"/><path fill="#DEFFFF" d="M252 112h4v4h-4z"/><path fill="#315345" d="M256 112h4v4h-4z"/><path fill="#2C2526" d="M260 112h4v4h-4z"/><path fill="#4C7F6E" d="M264 112h4v4h-4z"/><path fill="#375C4E" d="M268 112h4v4h-4z"/><path fill="#305143" d="M272 112h4v4h-4z"/><path fill="#2C2526" d="M276 112h4v4h-4z"/><path fill="#325648" d="M280 112h4v4h-4z"/><path fill="#3E6858" d="M284 112h4v4h-4z"/><path fill="#2C2526" d="M288 112h4v4h-4z"/><path fill="#3560EB" d="M96 116h4v4h-4z"/><path fill="#4C7F6E" d="M100 116h4v4h-4z"/><path fill="#91F2D0" d="M104 116h4v4h-4zM108 116h4v4h-4z"/><path fill="#6FBAA0" d="M112 116h4v4h-4zM116 116h4v4h-4zM120 116h4v4h-4z"/><path fill="#8FFFFF" d="M124 116h4v4h-4z"/><path fill="#E9FFFF" d="M128 116h4v4h-4z"/><path fill="#8FFFFF" d="M132 116h4v4h-4z"/><path fill="#E9FFFF" d="M136 116h4v4h-4z"/><path fill="#8FFFFF" d="M140 116h4v4h-4zM144 116h4v4h-4z"/><path fill="#E9FFFF" d="M148 116h4v4h-4zM152 116h4v4h-4zM156 116h4v4h-4z"/><path fill="#8FFFFF" d="M160 116h4v4h-4z"/><path fill="#80D6B8" d="M164 116h4v4h-4z"/><path fill="#91F2D0" d="M168 116h4v4h-4zM172 116h4v4h-4zM176 116h4v4h-4zM180 116h4v4h-4zM184 116h4v4h-4zM188 116h4v4h-4z"/><path fill="#6FBAA0" d="M192 116h4v4h-4z"/><path fill="#91F2D0" d="M196 116h4v4h-4zM200 116h4v4h-4zM204 116h4v4h-4zM208 116h4v4h-4z"/><path fill="#6FBAA0" d="M212 116h4v4h-4zM216 116h4v4h-4zM220 116h4v4h-4z"/><path fill="#91F2D0" d="M224 116h4v4h-4z"/><path fill="#66B3FF" d="M228 116h4v4h-4zM232 116h4v4h-4z"/><path fill="#97DAFF" d="M236 116h4v4h-4zM240 116h4v4h-4zM244 116h4v4h-4zM248 116h4v4h-4z"/><path fill="#DEFFFF" d="M252 116h4v4h-4z"/><path fill="#6FBAA0" d="M256 116h4v4h-4z"/><path fill="#274238" d="M260 116h4v4h-4z"/><path fill="#3E6858" d="M264 116h4v4h-4z"/><path fill="#274238" d="M268 116h4v4h-4z"/><path fill="#2C2526" d="M272 116h4v4h-4z"/><path fill="#2B4B40" d="M276 116h4v4h-4z"/><path fill="#4C7F6E" d="M280 116h4v4h-4zM284 116h4v4h-4z"/><path fill="#2C2526" d="M288 116h4v4h-4z"/><path fill="#4C7F6E" d="M100 120h4v4h-4z"/><path fill="#91F2D0" d="M104 120h4v4h-4zM108 120h4v4h-4z"/><path fill="#6FBAA0" d="M112 120h4v4h-4zM116 120h4v4h-4zM120 120h4v4h-4z"/><path fill="#8FFFFF" d="M124 120h4v4h-4z"/><path fill="#E9FFFF" d="M128 120h4v4h-4zM132 120h4v4h-4z"/><path fill="#8FFFFF" d="M136 120h4v4h-4zM140 120h4v4h-4z"/><path fill="#E9FFFF" d="M144 120h4v4h-4zM148 120h4v4h-4z"/><path fill="#8FFFFF" d="M152 120h4v4h-4zM156 120h4v4h-4z"/><path fill="#80D6B8" d="M160 120h4v4h-4z"/><path fill="#91F2D0" d="M164 120h4v4h-4zM168 120h4v4h-4zM172 120h4v4h-4zM176 120h4v4h-4zM180 120h4v4h-4zM184 120h4v4h-4z"/><path fill="#80D6B8" d="M188 120h4v4h-4z"/><path fill="#4C7F6E" d="M192 120h4v4h-4z"/><path fill="#6FBAA0" d="M196 120h4v4h-4zM200 120h4v4h-4zM204 120h4v4h-4zM208 120h4v4h-4z"/><path fill="#91F2D0" d="M212 120h4v4h-4z"/><path fill="#6FBAA0" d="M216 120h4v4h-4z"/><path fill="#80D6B8" d="M220 120h4v4h-4z"/><path fill="#B1FFE3" d="M224 120h4v4h-4zM228 120h4v4h-4z"/><path fill="#66B3FF" d="M232 120h4v4h-4zM236 120h4v4h-4zM240 120h4v4h-4zM244 120h4v4h-4z"/><path fill="#DEFFFF" d="M248 120h4v4h-4z"/><path fill="#88E4C3" d="M252 120h4v4h-4z"/><path fill="#4C7F6E" d="M256 120h4v4h-4z"/><path fill="#3D675A" d="M260 120h4v4h-4z"/><path fill="#28443A" d="M264 120h4v4h-4z"/><path fill="#2B4B40" d="M268 120h4v4h-4zM272 120h4v4h-4zM276 120h4v4h-4z"/><path fill="#4C7F6E" d="M280 120h4v4h-4zM284 120h4v4h-4z"/><path fill="#2C2526" d="M288 120h4v4h-4z"/><path fill="#4C7F6E" d="M100 124h4v4h-4z"/><path fill="#91F2D0" d="M104 124h4v4h-4z"/><path fill="#6FBAA0" d="M108 124h4v4h-4zM112 124h4v4h-4zM116 124h4v4h-4z"/><path fill="#80D6B8" d="M120 124h4v4h-4z"/><path fill="#8FFFFF" d="M124 124h4v4h-4z"/><path fill="#E9FFFF" d="M128 124h4v4h-4zM132 124h4v4h-4z"/><path fill="#8FFFFF" d="M136 124h4v4h-4z"/><path fill="#E9FFFF" d="M140 124h4v4h-4zM144 124h4v4h-4z"/><path fill="#8FFFFF" d="M148 124h4v4h-4z"/><path fill="#80D6B8" d="M152 124h4v4h-4zM156 124h4v4h-4z"/><path fill="#6FBAA0" d="M160 124h4v4h-4z"/><path fill="#91F2D0" d="M164 124h4v4h-4zM168 124h4v4h-4zM172 124h4v4h-4zM176 124h4v4h-4zM180 124h4v4h-4z"/><path fill="#80D6B8" d="M184 124h4v4h-4z"/><path fill="#4C7F6E" d="M188 124h4v4h-4zM192 124h4v4h-4zM196 124h4v4h-4z"/><path fill="#6FBAA0" d="M200 124h4v4h-4zM204 124h4v4h-4zM208 124h4v4h-4z"/><path fill="#91F2D0" d="M212 124h4v4h-4zM216 124h4v4h-4z"/><path fill="#6FBAA0" d="M220 124h4v4h-4zM224 124h4v4h-4z"/><path fill="#91F2D0" d="M228 124h4v4h-4z"/><path fill="#80D6B8" d="M232 124h4v4h-4z"/><path fill="#DEFFFF" d="M236 124h4v4h-4zM240 124h4v4h-4zM244 124h4v4h-4z"/><path fill="#80D6B8" d="M248 124h4v4h-4z"/><path fill="#6FBAA0" d="M252 124h4v4h-4z"/><path fill="#4C7F6E" d="M256 124h4v4h-4z"/><path fill="#365B4D" d="M260 124h4v4h-4z"/><path fill="#2B4B40" d="M264 124h4v4h-4zM268 124h4v4h-4zM272 124h4v4h-4zM276 124h4v4h-4z"/><path fill="#4C7F6E" d="M280 124h4v4h-4zM284 124h4v4h-4zM288 124h4v4h-4z"/><path fill="#2C2526" d="M292 124h4v4h-4z"/><path fill="#4C7F6E" d="M100 128h4v4h-4z"/><path fill="#91F2D0" d="M104 128h4v4h-4z"/><path fill="#6FBAA0" d="M108 128h4v4h-4zM112 128h4v4h-4z"/><path fill="#80D6B8" d="M116 128h4v4h-4zM120 128h4v4h-4z"/><path fill="#8FFFFF" d="M124 128h4v4h-4z"/><path fill="#E9FFFF" d="M128 128h4v4h-4z"/><path fill="#8FFFFF" d="M132 128h4v4h-4z"/><path fill="#E9FFFF" d="M136 128h4v4h-4z"/><path fill="#8FFFFF" d="M140 128h4v4h-4zM144 128h4v4h-4z"/><path fill="#80D6B8" d="M148 128h4v4h-4zM152 128h4v4h-4z"/><path fill="#6FBAA0" d="M156 128h4v4h-4zM160 128h4v4h-4z"/><path fill="#91F2D0" d="M164 128h4v4h-4zM168 128h4v4h-4zM172 128h4v4h-4zM176 128h4v4h-4z"/><path fill="#80D6B8" d="M180 128h4v4h-4z"/><path fill="#4C7F6E" d="M184 128h4v4h-4zM188 128h4v4h-4zM192 128h4v4h-4zM196 128h4v4h-4zM200 128h4v4h-4z"/><path fill="#6FBAA0" d="M204 128h4v4h-4zM208 128h4v4h-4z"/><path fill="#91F2D0" d="M212 128h4v4h-4zM216 128h4v4h-4zM220 128h4v4h-4z"/><path fill="#6FBAA0" d="M224 128h4v4h-4zM228 128h4v4h-4zM232 128h4v4h-4z"/><path fill="#B1FFE3" d="M236 128h4v4h-4z"/><path fill="#91F2D0" d="M240 128h4v4h-4z"/><path fill="#80D6B8" d="M244 128h4v4h-4z"/><path fill="#6FBAA0" d="M248 128h4v4h-4zM252 128h4v4h-4zM256 128h4v4h-4z"/><path fill="#2B4B40" d="M260 128h4v4h-4zM264 128h4v4h-4zM268 128h4v4h-4zM272 128h4v4h-4zM276 128h4v4h-4z"/><path fill="#4C7F6E" d="M280 128h4v4h-4zM284 128h4v4h-4zM288 128h4v4h-4z"/><path fill="#2C2526" d="M292 128h4v4h-4z"/><path fill="#4C7F6E" d="M100 132h4v4h-4z"/><path fill="#6FBAA0" d="M104 132h4v4h-4zM108 132h4v4h-4z"/><path fill="#80D6B8" d="M112 132h4v4h-4zM116 132h4v4h-4z"/><path fill="#8FFFFF" d="M120 132h4v4h-4z"/><path fill="#E9FFFF" d="M124 132h4v4h-4zM128 132h4v4h-4zM132 132h4v4h-4z"/><path fill="#8FFFFF" d="M136 132h4v4h-4z"/><path fill="#80D6B8" d="M140 132h4v4h-4zM144 132h4v4h-4zM148 132h4v4h-4z"/><path fill="#6FBAA0" d="M152 132h4v4h-4zM156 132h4v4h-4zM160 132h4v4h-4z"/><path fill="#91F2D0" d="M164 132h4v4h-4zM168 132h4v4h-4zM172 132h4v4h-4z"/><path fill="#80D6B8" d="M176 132h4v4h-4z"/><path fill="#4C7F6E" d="M180 132h4v4h-4zM184 132h4v4h-4zM188 132h4v4h-4zM192 132h4v4h-4zM196 132h4v4h-4zM200 132h4v4h-4zM204 132h4v4h-4z"/><path fill="#6FBAA0" d="M208 132h4v4h-4z"/><path fill="#91F2D0" d="M212 132h4v4h-4zM216 132h4v4h-4zM220 132h4v4h-4zM224 132h4v4h-4z"/><path fill="#6FBAA0" d="M228 132h4v4h-4z"/><path fill="#4C7F6E" d="M232 132h4v4h-4zM236 132h4v4h-4zM240 132h4v4h-4z"/><path fill="#6FBAA0" d="M244 132h4v4h-4zM248 132h4v4h-4zM252 132h4v4h-4zM256 132h4v4h-4z"/><path fill="#2B4B40" d="M260 132h4v4h-4zM264 132h4v4h-4zM268 132h4v4h-4zM272 132h4v4h-4zM276 132h4v4h-4z"/><path fill="#4C7F6E" d="M280 132h4v4h-4zM284 132h4v4h-4zM288 132h4v4h-4zM292 132h4v4h-4z"/><path fill="#2C2526" d="M296 132h4v4h-4z"/><path fill="#4C7F6E" d="M100 136h4v4h-4z"/><path fill="#6FBAA0" d="M104 136h4v4h-4z"/><path fill="#80D6B8" d="M108 136h4v4h-4zM112 136h4v4h-4zM116 136h4v4h-4z"/><path fill="#8FFFFF" d="M120 136h4v4h-4z"/><path fill="#E9FFFF" d="M124 136h4v4h-4zM128 136h4v4h-4z"/><path fill="#8FFFFF" d="M132 136h4v4h-4z"/><path fill="#91F2D0" d="M136 136h4v4h-4z"/><path fill="#80D6B8" d="M140 136h4v4h-4zM144 136h4v4h-4z"/><path fill="#6FBAA0" d="M148 136h4v4h-4zM152 136h4v4h-4zM156 136h4v4h-4zM160 136h4v4h-4z"/><path fill="#91F2D0" d="M164 136h4v4h-4zM168 136h4v4h-4z"/><path fill="#80D6B8" d="M172 136h4v4h-4z"/><path fill="#4C7F6E" d="M176 136h4v4h-4zM180 136h4v4h-4zM184 136h4v4h-4zM188 136h4v4h-4zM192 136h4v4h-4zM196 136h4v4h-4zM200 136h4v4h-4zM204 136h4v4h-4zM208 136h4v4h-4z"/><path fill="#91F2D0" d="M212 136h4v4h-4zM216 136h4v4h-4zM220 136h4v4h-4zM224 136h4v4h-4zM228 136h4v4h-4z"/><path fill="#4C7F6E" d="M232 136h4v4h-4zM236 136h4v4h-4z"/><path fill="#6FBAA0" d="M240 136h4v4h-4zM244 136h4v4h-4zM248 136h4v4h-4zM252 136h4v4h-4zM256 136h4v4h-4z"/><path fill="#2B4B40" d="M260 136h4v4h-4zM264 136h4v4h-4zM268 136h4v4h-4zM272 136h4v4h-4z"/><path fill="#3E6858" d="M276 136h4v4h-4z"/><path fill="#4C7F6E" d="M280 136h4v4h-4zM284 136h4v4h-4zM288 136h4v4h-4zM292 136h4v4h-4zM296 136h4v4h-4zM100 140h4v4h-4z"/><path fill="#91F2D0" d="M104 140h4v4h-4zM108 140h4v4h-4z"/><path fill="#80D6B8" d="M112 140h4v4h-4zM116 140h4v4h-4z"/><path fill="#8FFFFF" d="M120 140h4v4h-4z"/><path fill="#E9FFFF" d="M124 140h4v4h-4z"/><path fill="#8FFFFF" d="M128 140h4v4h-4z"/><path fill="#80D6B8" d="M132 140h4v4h-4zM136 140h4v4h-4zM140 140h4v4h-4z"/><path fill="#6FBAA0" d="M144 140h4v4h-4zM148 140h4v4h-4zM152 140h4v4h-4zM156 140h4v4h-4zM160 140h4v4h-4z"/><path fill="#91F2D0" d="M164 140h4v4h-4z"/><path fill="#80D6B8" d="M168 140h4v4h-4zM172 140h4v4h-4z"/><path fill="#6FBAA0" d="M176 140h4v4h-4z"/><path fill="#80D6B8" d="M180 140h4v4h-4zM184 140h4v4h-4zM188 140h4v4h-4zM192 140h4v4h-4zM196 140h4v4h-4zM200 140h4v4h-4zM204 140h4v4h-4zM208 140h4v4h-4zM212 140h4v4h-4zM216 140h4v4h-4zM220 140h4v4h-4zM224 140h4v4h-4z"/><path fill="#6FBAA0" d="M228 140h4v4h-4z"/><path fill="#4C7F6E" d="M232 140h4v4h-4z"/><path fill="#6FBAA0" d="M236 140h4v4h-4zM240 140h4v4h-4zM244 140h4v4h-4zM248 140h4v4h-4zM252 140h4v4h-4zM256 140h4v4h-4z"/><path fill="#2B4B40" d="M260 140h4v4h-4zM264 140h4v4h-4zM268 140h4v4h-4z"/><path fill="#3E6858" d="M272 140h4v4h-4zM276 140h4v4h-4z"/><path fill="#4C7F6E" d="M280 140h4v4h-4zM284 140h4v4h-4zM288 140h4v4h-4zM292 140h4v4h-4zM296 140h4v4h-4zM300 140h4v4h-4zM96 144h4v4h-4z"/><path fill="#91F2D0" d="M100 144h4v4h-4zM104 144h4v4h-4zM108 144h4v4h-4zM112 144h4v4h-4z"/><path fill="#80D6B8" d="M116 144h4v4h-4zM120 144h4v4h-4z"/><path fill="#8FFFFF" d="M124 144h4v4h-4z"/><path fill="#80D6B8" d="M128 144h4v4h-4zM132 144h4v4h-4zM136 144h4v4h-4z"/><path fill="#6FBAA0" d="M140 144h4v4h-4zM144 144h4v4h-4zM148 144h4v4h-4zM152 144h4v4h-4zM156 144h4v4h-4zM160 144h4v4h-4z"/><path fill="#80D6B8" d="M164 144h4v4h-4zM168 144h4v4h-4zM172 144h4v4h-4z"/><path fill="#6FBAA0" d="M176 144h4v4h-4zM180 144h4v4h-4z"/><path fill="#80D6B8" d="M184 144h4v4h-4zM188 144h4v4h-4zM192 144h4v4h-4zM196 144h4v4h-4zM200 144h4v4h-4zM204 144h4v4h-4zM208 144h4v4h-4zM212 144h4v4h-4zM216 144h4v4h-4zM220 144h4v4h-4z"/><path fill="#6FBAA0" d="M224 144h4v4h-4zM228 144h4v4h-4zM232 144h4v4h-4zM236 144h4v4h-4zM240 144h4v4h-4zM244 144h4v4h-4zM248 144h4v4h-4zM252 144h4v4h-4zM256 144h4v4h-4z"/><path fill="#2B4B40" d="M260 144h4v4h-4zM264 144h4v4h-4z"/><path fill="#3E6858" d="M268 144h4v4h-4zM272 144h4v4h-4zM276 144h4v4h-4z"/><path fill="#4C7F6E" d="M280 144h4v4h-4zM284 144h4v4h-4zM288 144h4v4h-4zM292 144h4v4h-4zM296 144h4v4h-4zM92 148h4v4h-4z"/><path fill="#B1FFE3" d="M96 148h4v4h-4z"/><path fill="#91F2D0" d="M100 148h4v4h-4zM104 148h4v4h-4zM108 148h4v4h-4zM112 148h4v4h-4zM116 148h4v4h-4z"/><path fill="#80D6B8" d="M120 148h4v4h-4zM124 148h4v4h-4zM128 148h4v4h-4zM132 148h4v4h-4z"/><path fill="#6FBAA0" d="M136 148h4v4h-4zM140 148h4v4h-4zM144 148h4v4h-4zM148 148h4v4h-4z"/><path fill="#80D6B8" d="M152 148h4v4h-4zM156 148h4v4h-4zM160 148h4v4h-4zM164 148h4v4h-4zM168 148h4v4h-4zM172 148h4v4h-4z"/><path fill="#6FBAA0" d="M176 148h4v4h-4zM180 148h4v4h-4zM184 148h4v4h-4z"/><path fill="#80D6B8" d="M188 148h4v4h-4zM192 148h4v4h-4zM196 148h4v4h-4zM200 148h4v4h-4zM204 148h4v4h-4zM208 148h4v4h-4zM212 148h4v4h-4zM216 148h4v4h-4z"/><path fill="#91F2D0" d="M220 148h4v4h-4z"/><path fill="#6FBAA0" d="M224 148h4v4h-4zM228 148h4v4h-4zM232 148h4v4h-4zM236 148h4v4h-4z"/><path fill="#80D6B8" d="M240 148h4v4h-4z"/><path fill="#6FBAA0" d="M244 148h4v4h-4zM248 148h4v4h-4zM252 148h4v4h-4zM256 148h4v4h-4z"/><path fill="#2B4B40" d="M260 148h4v4h-4z"/><path fill="#3F6B5B" d="M264 148h4v4h-4z"/><path fill="#3E6858" d="M268 148h4v4h-4zM272 148h4v4h-4z"/><path fill="#375C4E" d="M276 148h4v4h-4z"/><path fill="#4C7F6E" d="M280 148h4v4h-4zM284 148h4v4h-4zM288 148h4v4h-4zM292 148h4v4h-4z"/><path fill="#2C2526" d="M296 148h4v4h-4z"/><path fill="#4C7F6E" d="M88 152h4v4h-4z"/><path fill="#B1FFE3" d="M92 152h4v4h-4zM96 152h4v4h-4z"/><path fill="#91F2D0" d="M100 152h4v4h-4zM104 152h4v4h-4zM108 152h4v4h-4zM112 152h4v4h-4zM116 152h4v4h-4zM120 152h4v4h-4z"/><path fill="#80D6B8" d="M124 152h4v4h-4zM128 152h4v4h-4z"/><path fill="#6FBAA0" d="M132 152h4v4h-4zM136 152h4v4h-4zM140 152h4v4h-4zM144 152h4v4h-4zM148 152h4v4h-4z"/><path fill="#80D6B8" d="M152 152h4v4h-4zM156 152h4v4h-4zM160 152h4v4h-4zM164 152h4v4h-4zM168 152h4v4h-4zM172 152h4v4h-4z"/><path fill="#6FBAA0" d="M176 152h4v4h-4zM180 152h4v4h-4zM184 152h4v4h-4zM188 152h4v4h-4z"/><path fill="#80D6B8" d="M192 152h4v4h-4zM196 152h4v4h-4zM200 152h4v4h-4zM204 152h4v4h-4zM208 152h4v4h-4zM212 152h4v4h-4z"/><path fill="#91F2D0" d="M216 152h4v4h-4zM220 152h4v4h-4z"/><path fill="#6FBAA0" d="M224 152h4v4h-4zM228 152h4v4h-4zM232 152h4v4h-4z"/><path fill="#80D6B8" d="M236 152h4v4h-4zM240 152h4v4h-4z"/><path fill="#6FBAA0" d="M244 152h4v4h-4zM248 152h4v4h-4zM252 152h4v4h-4z"/><path fill="#3E6858" d="M256 152h4v4h-4zM260 152h4v4h-4zM264 152h4v4h-4zM268 152h4v4h-4zM272 152h4v4h-4z"/><path fill="#375C4E" d="M276 152h4v4h-4zM280 152h4v4h-4z"/><path fill="#4C7F6E" d="M284 152h4v4h-4zM288 152h4v4h-4z"/><path fill="#2F5042" d="M292 152h4v4h-4z"/><path fill="#2C2526" d="M296 152h4v4h-4z"/><path fill="#4C7F6E" d="M84 156h4v4h-4z"/><path fill="#B1FFE3" d="M88 156h4v4h-4zM92 156h4v4h-4zM96 156h4v4h-4z"/><path fill="#91F2D0" d="M100 156h4v4h-4zM104 156h4v4h-4zM108 156h4v4h-4zM112 156h4v4h-4zM116 156h4v4h-4zM120 156h4v4h-4zM124 156h4v4h-4z"/><path fill="#6FBAA0" d="M128 156h4v4h-4zM132 156h4v4h-4zM136 156h4v4h-4zM140 156h4v4h-4zM144 156h4v4h-4zM148 156h4v4h-4zM152 156h4v4h-4z"/><path fill="#80D6B8" d="M156 156h4v4h-4zM160 156h4v4h-4zM164 156h4v4h-4zM168 156h4v4h-4zM172 156h4v4h-4z"/><path fill="#6FBAA0" d="M176 156h4v4h-4zM180 156h4v4h-4zM184 156h4v4h-4zM188 156h4v4h-4zM192 156h4v4h-4z"/><path fill="#80D6B8" d="M196 156h4v4h-4zM200 156h4v4h-4zM204 156h4v4h-4zM208 156h4v4h-4z"/><path fill="#91F2D0" d="M212 156h4v4h-4zM216 156h4v4h-4zM220 156h4v4h-4z"/><path fill="#6FBAA0" d="M224 156h4v4h-4zM228 156h4v4h-4z"/><path fill="#80D6B8" d="M232 156h4v4h-4zM236 156h4v4h-4zM240 156h4v4h-4z"/><path fill="#6FBAA0" d="M244 156h4v4h-4zM248 156h4v4h-4z"/><path fill="#3E6858" d="M252 156h4v4h-4zM256 156h4v4h-4zM260 156h4v4h-4zM264 156h4v4h-4zM268 156h4v4h-4z"/><path fill="#375C4E" d="M272 156h4v4h-4zM276 156h4v4h-4zM280 156h4v4h-4z"/><path fill="#4C7F6E" d="M284 156h4v4h-4zM288 156h4v4h-4z"/><path fill="#2F5042" d="M292 156h4v4h-4z"/><path fill="#2C2526" d="M296 156h4v4h-4z"/><path fill="#4C7F6E" d="M80 160h4v4h-4z"/><path fill="#B1FFE3" d="M84 160h4v4h-4zM88 160h4v4h-4zM92 160h4v4h-4zM96 160h4v4h-4z"/><path fill="#91F2D0" d="M100 160h4v4h-4zM104 160h4v4h-4zM108 160h4v4h-4zM112 160h4v4h-4zM116 160h4v4h-4zM120 160h4v4h-4z"/><path fill="#6FBAA0" d="M124 160h4v4h-4zM128 160h4v4h-4zM132 160h4v4h-4zM136 160h4v4h-4zM140 160h4v4h-4zM144 160h4v4h-4zM148 160h4v4h-4zM152 160h4v4h-4z"/><path fill="#80D6B8" d="M156 160h4v4h-4zM160 160h4v4h-4zM164 160h4v4h-4zM168 160h4v4h-4zM172 160h4v4h-4z"/><path fill="#6FBAA0" d="M176 160h4v4h-4zM180 160h4v4h-4zM184 160h4v4h-4zM188 160h4v4h-4zM192 160h4v4h-4zM196 160h4v4h-4z"/><path fill="#80D6B8" d="M200 160h4v4h-4zM204 160h4v4h-4z"/><path fill="#91F2D0" d="M208 160h4v4h-4zM212 160h4v4h-4zM216 160h4v4h-4zM220 160h4v4h-4z"/><path fill="#6FBAA0" d="M224 160h4v4h-4z"/><path fill="#80D6B8" d="M228 160h4v4h-4zM232 160h4v4h-4zM236 160h4v4h-4zM240 160h4v4h-4z"/><path fill="#6FBAA0" d="M244 160h4v4h-4z"/><path fill="#3E6858" d="M248 160h4v4h-4zM252 160h4v4h-4zM256 160h4v4h-4zM260 160h4v4h-4zM264 160h4v4h-4zM268 160h4v4h-4z"/><path fill="#375C4E" d="M272 160h4v4h-4zM276 160h4v4h-4zM280 160h4v4h-4zM284 160h4v4h-4z"/><path fill="#2F5042" d="M288 160h4v4h-4zM292 160h4v4h-4z"/><path fill="#4C7F6E" d="M296 160h4v4h-4z"/><path fill="#2C2526" d="M300 160h4v4h-4z"/><path fill="#4C7F6E" d="M76 164h4v4h-4z"/><path fill="#80D6B8" d="M80 164h4v4h-4z"/><path fill="#B1FFE3" d="M84 164h4v4h-4zM88 164h4v4h-4zM92 164h4v4h-4zM96 164h4v4h-4z"/><path fill="#91F2D0" d="M100 164h4v4h-4zM104 164h4v4h-4zM108 164h4v4h-4zM112 164h4v4h-4zM116 164h4v4h-4z"/><path fill="#6FBAA0" d="M120 164h4v4h-4zM124 164h4v4h-4zM128 164h4v4h-4zM132 164h4v4h-4zM136 164h4v4h-4zM140 164h4v4h-4zM144 164h4v4h-4zM148 164h4v4h-4zM152 164h4v4h-4zM156 164h4v4h-4z"/><path fill="#80D6B8" d="M160 164h4v4h-4zM164 164h4v4h-4zM168 164h4v4h-4zM172 164h4v4h-4z"/><path fill="#6FBAA0" d="M176 164h4v4h-4zM180 164h4v4h-4zM184 164h4v4h-4zM188 164h4v4h-4zM192 164h4v4h-4zM196 164h4v4h-4zM200 164h4v4h-4z"/><path fill="#91F2D0" d="M204 164h4v4h-4zM208 164h4v4h-4zM212 164h4v4h-4zM216 164h4v4h-4zM220 164h4v4h-4z"/><path fill="#80D6B8" d="M224 164h4v4h-4zM228 164h4v4h-4zM232 164h4v4h-4zM236 164h4v4h-4zM240 164h4v4h-4z"/><path fill="#3E6858" d="M244 164h4v4h-4zM248 164h4v4h-4zM252 164h4v4h-4zM256 164h4v4h-4zM260 164h4v4h-4zM264 164h4v4h-4z"/><path fill="#375C4E" d="M268 164h4v4h-4zM272 164h4v4h-4zM276 164h4v4h-4zM280 164h4v4h-4zM284 164h4v4h-4z"/><path fill="#2F5042" d="M288 164h4v4h-4zM292 164h4v4h-4z"/><path fill="#4C7F6E" d="M296 164h4v4h-4z"/><path fill="#2C2526" d="M300 164h4v4h-4z"/><path fill="#4C7F6E" d="M72 168h4v4h-4z"/><path fill="#B1FFE3" d="M76 168h4v4h-4zM80 168h4v4h-4zM84 168h4v4h-4zM88 168h4v4h-4zM92 168h4v4h-4zM96 168h4v4h-4z"/><path fill="#315345" d="M100 168h4v4h-4z"/><path fill="#6FBAA0" d="M104 168h4v4h-4zM108 168h4v4h-4zM112 168h4v4h-4z"/><path fill="#4C7F6E" d="M116 168h4v4h-4z"/><path fill="#2C2526" d="M120 168h4v4h-4zM124 168h4v4h-4z"/><path fill="#91F2D0" d="M128 168h4v4h-4z"/><path fill="#6FBAA0" d="M132 168h4v4h-4zM136 168h4v4h-4zM140 168h4v4h-4z"/><path fill="#4C7F6E" d="M144 168h4v4h-4z"/><path fill="#6FBAA0" d="M148 168h4v4h-4zM152 168h4v4h-4zM156 168h4v4h-4z"/><path fill="#80D6B8" d="M160 168h4v4h-4zM164 168h4v4h-4zM168 168h4v4h-4zM172 168h4v4h-4z"/><path fill="#6FBAA0" d="M176 168h4v4h-4zM180 168h4v4h-4zM184 168h4v4h-4zM188 168h4v4h-4zM192 168h4v4h-4zM196 168h4v4h-4z"/><path fill="#91F2D0" d="M200 168h4v4h-4zM204 168h4v4h-4zM208 168h4v4h-4zM212 168h4v4h-4zM216 168h4v4h-4zM220 168h4v4h-4z"/><path fill="#80D6B8" d="M224 168h4v4h-4zM228 168h4v4h-4zM232 168h4v4h-4zM236 168h4v4h-4z"/><path fill="#3E6858" d="M240 168h4v4h-4zM244 168h4v4h-4zM248 168h4v4h-4zM252 168h4v4h-4zM256 168h4v4h-4zM260 168h4v4h-4zM264 168h4v4h-4z"/><path fill="#375C4E" d="M268 168h4v4h-4zM272 168h4v4h-4zM276 168h4v4h-4zM280 168h4v4h-4z"/><path fill="#2F5042" d="M284 168h4v4h-4zM288 168h4v4h-4zM292 168h4v4h-4z"/><path fill="#4C7F6E" d="M296 168h4v4h-4z"/><path fill="#2C2526" d="M300 168h4v4h-4z"/><path fill="#91F2D0" d="M72 172h4v4h-4zM76 172h4v4h-4zM80 172h4v4h-4zM84 172h4v4h-4zM88 172h4v4h-4zM92 172h4v4h-4z"/><path fill="#315345" d="M96 172h4v4h-4zM100 172h4v4h-4zM104 172h4v4h-4z"/><path fill="#4C7F6E" d="M108 172h4v4h-4zM112 172h4v4h-4z"/><path fill="#2C2526" d="M116 172h4v4h-4zM120 172h4v4h-4zM124 172h4v4h-4z"/><path fill="#91F2D0" d="M128 172h4v4h-4z"/><path fill="#6FBAA0" d="M132 172h4v4h-4zM136 172h4v4h-4zM140 172h4v4h-4z"/><path fill="#4C7F6E" d="M144 172h4v4h-4z"/><path fill="#6FBAA0" d="M148 172h4v4h-4zM152 172h4v4h-4zM156 172h4v4h-4zM160 172h4v4h-4z"/><path fill="#80D6B8" d="M164 172h4v4h-4zM168 172h4v4h-4zM172 172h4v4h-4z"/><path fill="#6FBAA0" d="M176 172h4v4h-4zM180 172h4v4h-4zM184 172h4v4h-4zM188 172h4v4h-4zM192 172h4v4h-4z"/><path fill="#91F2D0" d="M196 172h4v4h-4zM200 172h4v4h-4zM204 172h4v4h-4zM208 172h4v4h-4zM212 172h4v4h-4zM216 172h4v4h-4zM220 172h4v4h-4z"/><path fill="#6FBAA0" d="M224 172h4v4h-4z"/><path fill="#4C7F6E" d="M228 172h4v4h-4zM232 172h4v4h-4z"/><path fill="#6FBAA0" d="M236 172h4v4h-4zM240 172h4v4h-4z"/><path fill="#386053" d="M244 172h4v4h-4z"/><path fill="#3E6858" d="M248 172h4v4h-4zM252 172h4v4h-4zM256 172h4v4h-4zM260 172h4v4h-4zM264 172h4v4h-4z"/><path fill="#375C4E" d="M268 172h4v4h-4zM272 172h4v4h-4zM276 172h4v4h-4zM280 172h4v4h-4z"/><path fill="#2F5042" d="M284 172h4v4h-4zM288 172h4v4h-4zM292 172h4v4h-4z"/><path fill="#4C7F6E" d="M296 172h4v4h-4z"/><path fill="#2C2526" d="M300 172h4v4h-4z"/><path fill="#4C7F6E" d="M68 176h4v4h-4z"/><path fill="#91F2D0" d="M72 176h4v4h-4zM76 176h4v4h-4zM80 176h4v4h-4zM84 176h4v4h-4zM88 176h4v4h-4z"/><path fill="#315345" d="M92 176h4v4h-4zM96 176h4v4h-4zM100 176h4v4h-4z"/><path fill="#91F2D0" d="M104 176h4v4h-4zM108 176h4v4h-4zM112 176h4v4h-4z"/><path fill="#2C2526" d="M116 176h4v4h-4zM120 176h4v4h-4zM124 176h4v4h-4z"/><path fill="#91F2D0" d="M128 176h4v4h-4z"/><path fill="#6FBAA0" d="M132 176h4v4h-4zM136 176h4v4h-4z"/><path fill="#4C7F6E" d="M140 176h4v4h-4zM144 176h4v4h-4z"/><path fill="#6FBAA0" d="M148 176h4v4h-4zM152 176h4v4h-4zM156 176h4v4h-4zM160 176h4v4h-4z"/><path fill="#80D6B8" d="M164 176h4v4h-4zM168 176h4v4h-4zM172 176h4v4h-4z"/><path fill="#6FBAA0" d="M176 176h4v4h-4zM180 176h4v4h-4zM184 176h4v4h-4zM188 176h4v4h-4z"/><path fill="#91F2D0" d="M192 176h4v4h-4zM196 176h4v4h-4zM200 176h4v4h-4zM204 176h4v4h-4zM208 176h4v4h-4zM212 176h4v4h-4zM216 176h4v4h-4z"/><path fill="#4C7F6E" d="M220 176h4v4h-4z"/><path fill="#2C2526" d="M224 176h4v4h-4zM228 176h4v4h-4z"/><path fill="#4C7F6E" d="M232 176h4v4h-4z"/><path fill="#6FBAA0" d="M236 176h4v4h-4zM240 176h4v4h-4zM244 176h4v4h-4z"/><path fill="#386053" d="M248 176h4v4h-4z"/><path fill="#3E6858" d="M252 176h4v4h-4z"/><path fill="#3F6B5B" d="M256 176h4v4h-4z"/><path fill="#3E6858" d="M260 176h4v4h-4z"/><path fill="#375C4E" d="M264 176h4v4h-4zM268 176h4v4h-4zM272 176h4v4h-4zM276 176h4v4h-4z"/><path fill="#2F5042" d="M280 176h4v4h-4zM284 176h4v4h-4zM288 176h4v4h-4zM292 176h4v4h-4z"/><path fill="#4C7F6E" d="M296 176h4v4h-4z"/><path fill="#2C2526" d="M300 176h4v4h-4z"/><path fill="#244035" d="M64 180h4v4h-4z"/><path fill="#B1FFE3" d="M68 180h4v4h-4z"/><path fill="#91F2D0" d="M72 180h4v4h-4zM76 180h4v4h-4zM80 180h4v4h-4zM84 180h4v4h-4z"/><path fill="#315345" d="M88 180h4v4h-4zM92 180h4v4h-4zM96 180h4v4h-4zM100 180h4v4h-4z"/><path fill="#91F2D0" d="M104 180h4v4h-4zM108 180h4v4h-4zM112 180h4v4h-4z"/><path fill="#2C2526" d="M116 180h4v4h-4zM120 180h4v4h-4z"/><path fill="#244035" d="M124 180h4v4h-4z"/><path fill="#91F2D0" d="M128 180h4v4h-4z"/><path fill="#6FBAA0" d="M132 180h4v4h-4zM136 180h4v4h-4z"/><path fill="#4C7F6E" d="M140 180h4v4h-4zM144 180h4v4h-4z"/><path fill="#6FBAA0" d="M148 180h4v4h-4zM152 180h4v4h-4zM156 180h4v4h-4zM160 180h4v4h-4zM164 180h4v4h-4z"/><path fill="#80D6B8" d="M168 180h4v4h-4zM172 180h4v4h-4z"/><path fill="#6FBAA0" d="M176 180h4v4h-4zM180 180h4v4h-4zM184 180h4v4h-4z"/><path fill="#91F2D0" d="M188 180h4v4h-4zM192 180h4v4h-4zM196 180h4v4h-4zM200 180h4v4h-4zM204 180h4v4h-4zM208 180h4v4h-4zM212 180h4v4h-4z"/><path fill="#4C7F6E" d="M216 180h4v4h-4z"/><path fill="#2C2526" d="M220 180h4v4h-4zM224 180h4v4h-4z"/><path fill="#28443A" d="M228 180h4v4h-4z"/><path fill="#4C7F6E" d="M232 180h4v4h-4z"/><path fill="#6FBAA0" d="M236 180h4v4h-4zM240 180h4v4h-4zM244 180h4v4h-4zM248 180h4v4h-4z"/><path fill="#3E6858" d="M252 180h4v4h-4zM256 180h4v4h-4zM260 180h4v4h-4z"/><path fill="#375C4E" d="M264 180h4v4h-4zM268 180h4v4h-4zM272 180h4v4h-4zM276 180h4v4h-4z"/><path fill="#2F5042" d="M280 180h4v4h-4zM284 180h4v4h-4zM288 180h4v4h-4zM292 180h4v4h-4z"/><path fill="#2C2526" d="M296 180h4v4h-4z"/><path fill="#244035" d="M64 184h4v4h-4z"/><path fill="#B1FFE3" d="M68 184h4v4h-4z"/><path fill="#91F2D0" d="M72 184h4v4h-4zM76 184h4v4h-4zM80 184h4v4h-4z"/><path fill="#244035" d="M84 184h4v4h-4zM88 184h4v4h-4zM92 184h4v4h-4z"/><path fill="#29473C" d="M96 184h4v4h-4z"/><path fill="#244035" d="M100 184h4v4h-4z"/><path fill="#91F2D0" d="M104 184h4v4h-4zM108 184h4v4h-4z"/><path fill="#6FBAA0" d="M112 184h4v4h-4z"/><path fill="#2C2526" d="M116 184h4v4h-4z"/><path fill="#244035" d="M120 184h4v4h-4z"/><path fill="#91F2D0" d="M124 184h4v4h-4z"/><path fill="#6FBAA0" d="M128 184h4v4h-4zM132 184h4v4h-4z"/><path fill="#4C7F6E" d="M136 184h4v4h-4zM140 184h4v4h-4zM144 184h4v4h-4z"/><path fill="#6FBAA0" d="M148 184h4v4h-4zM152 184h4v4h-4zM156 184h4v4h-4zM160 184h4v4h-4zM164 184h4v4h-4z"/><path fill="#80D6B8" d="M168 184h4v4h-4zM172 184h4v4h-4z"/><path fill="#6FBAA0" d="M176 184h4v4h-4zM180 184h4v4h-4z"/><path fill="#91F2D0" d="M184 184h4v4h-4zM188 184h4v4h-4zM192 184h4v4h-4zM196 184h4v4h-4zM200 184h4v4h-4zM204 184h4v4h-4zM208 184h4v4h-4z"/><path fill="#4C7F6E" d="M212 184h4v4h-4z"/><path fill="#2C2526" d="M216 184h4v4h-4zM220 184h4v4h-4z"/><path fill="#28443A" d="M224 184h4v4h-4z"/><path fill="#2E4D42" d="M228 184h4v4h-4z"/><path fill="#4C7F6E" d="M232 184h4v4h-4z"/><path fill="#6FBAA0" d="M236 184h4v4h-4zM240 184h4v4h-4zM244 184h4v4h-4zM248 184h4v4h-4zM252 184h4v4h-4z"/><path fill="#3E6858" d="M256 184h4v4h-4z"/><path fill="#4C7F6E" d="M260 184h4v4h-4z"/><path fill="#375C4E" d="M264 184h4v4h-4zM268 184h4v4h-4zM272 184h4v4h-4z"/><path fill="#2F5042" d="M276 184h4v4h-4zM280 184h4v4h-4zM284 184h4v4h-4zM288 184h4v4h-4z"/><path fill="#4C7F6E" d="M292 184h4v4h-4z"/><path fill="#2C2526" d="M296 184h4v4h-4z"/><path fill="#244035" d="M64 188h4v4h-4z"/><path fill="#4C7F6E" d="M68 188h4v4h-4z"/><path fill="#91F2D0" d="M72 188h4v4h-4zM76 188h4v4h-4z"/><path fill="#244035" d="M80 188h4v4h-4zM84 188h4v4h-4zM88 188h4v4h-4zM92 188h4v4h-4zM96 188h4v4h-4zM100 188h4v4h-4z"/><path fill="#91F2D0" d="M104 188h4v4h-4zM108 188h4v4h-4z"/><path fill="#56917C" d="M112 188h4v4h-4z"/><path fill="#244035" d="M116 188h4v4h-4zM120 188h4v4h-4z"/><path fill="#91F2D0" d="M124 188h4v4h-4z"/><path fill="#6FBAA0" d="M128 188h4v4h-4zM132 188h4v4h-4z"/><path fill="#4C7F6E" d="M136 188h4v4h-4zM140 188h4v4h-4zM144 188h4v4h-4z"/><path fill="#6FBAA0" d="M148 188h4v4h-4zM152 188h4v4h-4zM156 188h4v4h-4zM160 188h4v4h-4zM164 188h4v4h-4zM168 188h4v4h-4z"/><path fill="#80D6B8" d="M172 188h4v4h-4z"/><path fill="#6FBAA0" d="M176 188h4v4h-4z"/><path fill="#91F2D0" d="M180 188h4v4h-4zM184 188h4v4h-4zM188 188h4v4h-4zM192 188h4v4h-4zM196 188h4v4h-4zM200 188h4v4h-4zM204 188h4v4h-4z"/><path fill="#4C7F6E" d="M208 188h4v4h-4z"/><path fill="#2C2526" d="M212 188h4v4h-4zM216 188h4v4h-4z"/><path fill="#254136" d="M220 188h4v4h-4zM224 188h4v4h-4z"/><path fill="#35584A" d="M228 188h4v4h-4z"/><path fill="#4C7F6E" d="M232 188h4v4h-4z"/><path fill="#6FBAA0" d="M236 188h4v4h-4zM240 188h4v4h-4zM244 188h4v4h-4zM248 188h4v4h-4z"/><path fill="#3D6659" d="M252 188h4v4h-4z"/><path fill="#3E6858" d="M256 188h4v4h-4z"/><path fill="#4C7F6E" d="M260 188h4v4h-4z"/><path fill="#375C4E" d="M264 188h4v4h-4zM268 188h4v4h-4zM272 188h4v4h-4z"/><path fill="#2F5042" d="M276 188h4v4h-4zM280 188h4v4h-4zM284 188h4v4h-4z"/><path fill="#4C7F6E" d="M288 188h4v4h-4zM292 188h4v4h-4z"/><path fill="#2C2526" d="M296 188h4v4h-4zM60 192h4v4h-4z"/><path fill="#244035" d="M64 192h4v4h-4z"/><path fill="#4C7F6E" d="M68 192h4v4h-4z"/><path fill="#91F2D0" d="M72 192h4v4h-4z"/><path fill="#244035" d="M76 192h4v4h-4zM80 192h4v4h-4zM84 192h4v4h-4zM88 192h4v4h-4zM92 192h4v4h-4zM96 192h4v4h-4z"/><path fill="#91F2D0" d="M100 192h4v4h-4zM104 192h4v4h-4zM108 192h4v4h-4z"/><path fill="#315345" d="M112 192h4v4h-4zM116 192h4v4h-4z"/><path fill="#80D6B8" d="M120 192h4v4h-4z"/><path fill="#6FBAA0" d="M124 192h4v4h-4zM128 192h4v4h-4z"/><path fill="#4C7F6E" d="M132 192h4v4h-4zM136 192h4v4h-4zM140 192h4v4h-4zM144 192h4v4h-4z"/><path fill="#6FBAA0" d="M148 192h4v4h-4zM152 192h4v4h-4zM156 192h4v4h-4zM160 192h4v4h-4zM164 192h4v4h-4zM168 192h4v4h-4z"/><path fill="#80D6B8" d="M172 192h4v4h-4z"/><path fill="#91F2D0" d="M176 192h4v4h-4zM180 192h4v4h-4zM184 192h4v4h-4zM188 192h4v4h-4zM192 192h4v4h-4zM196 192h4v4h-4zM200 192h4v4h-4z"/><path fill="#4C7F6E" d="M204 192h4v4h-4z"/><path fill="#2C2526" d="M208 192h4v4h-4z"/><path fill="#254136" d="M212 192h4v4h-4zM216 192h4v4h-4zM220 192h4v4h-4z"/><path fill="#35584A" d="M224 192h4v4h-4zM228 192h4v4h-4z"/><path fill="#4C7F6E" d="M232 192h4v4h-4z"/><path fill="#6FBAA0" d="M236 192h4v4h-4zM240 192h4v4h-4zM244 192h4v4h-4zM248 192h4v4h-4z"/><path fill="#3D6659" d="M252 192h4v4h-4z"/><path fill="#3E6858" d="M256 192h4v4h-4z"/><path fill="#4C7F6E" d="M260 192h4v4h-4z"/><path fill="#375C4E" d="M264 192h4v4h-4zM268 192h4v4h-4z"/><path fill="#2F5042" d="M272 192h4v4h-4zM276 192h4v4h-4zM280 192h4v4h-4z"/><path fill="#4C7F6E" d="M284 192h4v4h-4zM288 192h4v4h-4zM292 192h4v4h-4z"/><path fill="#2C2526" d="M296 192h4v4h-4zM56 196h4v4h-4z"/><path fill="#91F2D0" d="M60 196h4v4h-4z"/><path fill="#244035" d="M64 196h4v4h-4z"/><path fill="#4C7F6E" d="M68 196h4v4h-4z"/><path fill="#244035" d="M72 196h4v4h-4zM76 196h4v4h-4zM80 196h4v4h-4zM84 196h4v4h-4zM88 196h4v4h-4zM92 196h4v4h-4zM96 196h4v4h-4z"/><path fill="#91F2D0" d="M100 196h4v4h-4zM104 196h4v4h-4z"/><path fill="#315345" d="M108 196h4v4h-4zM112 196h4v4h-4z"/><path fill="#91F2D0" d="M116 196h4v4h-4z"/><path fill="#6FBAA0" d="M120 196h4v4h-4z"/><path fill="#2E4E43" d="M124 196h4v4h-4z"/><path fill="#6FBAA0" d="M128 196h4v4h-4z"/><path fill="#4C7F6E" d="M132 196h4v4h-4zM136 196h4v4h-4zM140 196h4v4h-4zM144 196h4v4h-4z"/><path fill="#6FBAA0" d="M148 196h4v4h-4zM152 196h4v4h-4zM156 196h4v4h-4zM160 196h4v4h-4zM164 196h4v4h-4zM168 196h4v4h-4zM172 196h4v4h-4z"/><path fill="#4C7F6E" d="M176 196h4v4h-4zM180 196h4v4h-4zM184 196h4v4h-4zM188 196h4v4h-4zM192 196h4v4h-4zM196 196h4v4h-4zM200 196h4v4h-4z"/><path fill="#2C2526" d="M204 196h4v4h-4z"/><path fill="#254136" d="M208 196h4v4h-4zM212 196h4v4h-4zM216 196h4v4h-4z"/><path fill="#35584A" d="M220 196h4v4h-4zM224 196h4v4h-4zM228 196h4v4h-4z"/><path fill="#4C7F6E" d="M232 196h4v4h-4z"/><path fill="#6FBAA0" d="M236 196h4v4h-4zM240 196h4v4h-4zM244 196h4v4h-4z"/><path fill="#3D6659" d="M248 196h4v4h-4z"/><path fill="#3E6858" d="M252 196h4v4h-4z"/><path fill="#4C7F6E" d="M256 196h4v4h-4zM260 196h4v4h-4z"/><path fill="#375C4E" d="M264 196h4v4h-4zM268 196h4v4h-4z"/><path fill="#2F5042" d="M272 196h4v4h-4zM276 196h4v4h-4z"/><path fill="#4C7F6E" d="M280 196h4v4h-4zM284 196h4v4h-4zM288 196h4v4h-4zM292 196h4v4h-4z"/><path fill="#2C2526" d="M296 196h4v4h-4zM52 200h4v4h-4z"/><path fill="#80D6B8" d="M56 200h4v4h-4z"/><path fill="#91F2D0" d="M60 200h4v4h-4z"/><path fill="#4C7F6E" d="M64 200h4v4h-4zM68 200h4v4h-4zM72 200h4v4h-4zM76 200h4v4h-4zM80 200h4v4h-4z"/><path fill="#6FBAA0" d="M84 200h4v4h-4zM88 200h4v4h-4z"/><path fill="#91F2D0" d="M92 200h4v4h-4zM96 200h4v4h-4zM100 200h4v4h-4z"/><path fill="#315345" d="M104 200h4v4h-4zM108 200h4v4h-4z"/><path fill="#345749" d="M112 200h4v4h-4z"/><path fill="#91F2D0" d="M116 200h4v4h-4z"/><path fill="#4C7F6E" d="M120 200h4v4h-4z"/><path fill="#2E4E43" d="M124 200h4v4h-4z"/><path fill="#4C7F6E" d="M128 200h4v4h-4zM132 200h4v4h-4zM136 200h4v4h-4zM140 200h4v4h-4zM144 200h4v4h-4z"/><path fill="#6FBAA0" d="M148 200h4v4h-4zM152 200h4v4h-4zM156 200h4v4h-4zM160 200h4v4h-4zM164 200h4v4h-4zM168 200h4v4h-4z"/><path fill="#345548" d="M172 200h4v4h-4z"/><path fill="#254136" d="M176 200h4v4h-4z"/><path fill="#2C2526" d="M180 200h4v4h-4z"/><path fill="#4C7F6E" d="M184 200h4v4h-4zM188 200h4v4h-4zM192 200h4v4h-4z"/><path fill="#2C2526" d="M196 200h4v4h-4zM200 200h4v4h-4z"/><path fill="#254136" d="M204 200h4v4h-4zM208 200h4v4h-4zM212 200h4v4h-4z"/><path fill="#35584A" d="M216 200h4v4h-4zM220 200h4v4h-4zM224 200h4v4h-4zM228 200h4v4h-4z"/><path fill="#4C7F6E" d="M232 200h4v4h-4z"/><path fill="#6FBAA0" d="M236 200h4v4h-4zM240 200h4v4h-4zM244 200h4v4h-4z"/><path fill="#3D6659" d="M248 200h4v4h-4z"/><path fill="#3E6858" d="M252 200h4v4h-4z"/><path fill="#4C7F6E" d="M256 200h4v4h-4zM260 200h4v4h-4z"/><path fill="#375C4E" d="M264 200h4v4h-4z"/><path fill="#2F5042" d="M268 200h4v4h-4zM272 200h4v4h-4z"/><path fill="#386053" d="M276 200h4v4h-4z"/><path fill="#4C7F6E" d="M280 200h4v4h-4zM284 200h4v4h-4zM288 200h4v4h-4zM292 200h4v4h-4z"/><path fill="#2C2526" d="M296 200h4v4h-4zM52 204h4v4h-4z"/><path fill="#91F2D0" d="M56 204h4v4h-4z"/><path fill="#6FBAA0" d="M60 204h4v4h-4z"/><path fill="#4C7F6E" d="M64 204h4v4h-4zM68 204h4v4h-4zM72 204h4v4h-4zM76 204h4v4h-4z"/><path fill="#6FBAA0" d="M80 204h4v4h-4zM84 204h4v4h-4zM88 204h4v4h-4z"/><path fill="#91F2D0" d="M92 204h4v4h-4zM96 204h4v4h-4z"/><path fill="#315345" d="M100 204h4v4h-4zM104 204h4v4h-4zM108 204h4v4h-4z"/><path fill="#91F2D0" d="M112 204h4v4h-4z"/><path fill="#6FBAA0" d="M116 204h4v4h-4z"/><path fill="#2E4E43" d="M120 204h4v4h-4zM124 204h4v4h-4zM128 204h4v4h-4z"/><path fill="#4C7F6E" d="M132 204h4v4h-4zM136 204h4v4h-4zM140 204h4v4h-4zM144 204h4v4h-4z"/><path fill="#6FBAA0" d="M148 204h4v4h-4zM152 204h4v4h-4zM156 204h4v4h-4zM160 204h4v4h-4zM164 204h4v4h-4z"/><path fill="#345548" d="M168 204h4v4h-4z"/><path fill="#254136" d="M172 204h4v4h-4z"/><path fill="#2C2526" d="M176 204h4v4h-4zM180 204h4v4h-4zM184 204h4v4h-4z"/><path fill="#4C7F6E" d="M188 204h4v4h-4z"/><path fill="#2C2526" d="M192 204h4v4h-4zM196 204h4v4h-4z"/><path fill="#254136" d="M200 204h4v4h-4zM204 204h4v4h-4zM208 204h4v4h-4z"/><path fill="#386053" d="M212 204h4v4h-4z"/><path fill="#6FBAA0" d="M216 204h4v4h-4zM220 204h4v4h-4zM224 204h4v4h-4zM228 204h4v4h-4z"/><path fill="#4C7F6E" d="M232 204h4v4h-4z"/><path fill="#6FBAA0" d="M236 204h4v4h-4zM240 204h4v4h-4z"/><path fill="#3D6659" d="M244 204h4v4h-4zM248 204h4v4h-4z"/><path fill="#3E6858" d="M252 204h4v4h-4z"/><path fill="#4C7F6E" d="M256 204h4v4h-4zM260 204h4v4h-4z"/><path fill="#375C4E" d="M264 204h4v4h-4z"/><path fill="#2F5042" d="M268 204h4v4h-4z"/><path fill="#3E6858" d="M272 204h4v4h-4zM276 204h4v4h-4z"/><path fill="#4C7F6E" d="M280 204h4v4h-4zM284 204h4v4h-4zM288 204h4v4h-4zM292 204h4v4h-4z"/><path fill="#2C2526" d="M296 204h4v4h-4zM52 208h4v4h-4z"/><path fill="#91F2D0" d="M56 208h4v4h-4z"/><path fill="#6FBAA0" d="M60 208h4v4h-4z"/><path fill="#4C7F6E" d="M64 208h4v4h-4zM68 208h4v4h-4zM72 208h4v4h-4z"/><path fill="#6FBAA0" d="M76 208h4v4h-4zM80 208h4v4h-4z"/><path fill="#80D6B8" d="M84 208h4v4h-4z"/><path fill="#91F2D0" d="M88 208h4v4h-4zM92 208h4v4h-4z"/><path fill="#315345" d="M96 208h4v4h-4zM100 208h4v4h-4zM104 208h4v4h-4z"/><path fill="#91F2D0" d="M108 208h4v4h-4z"/><path fill="#6FBAA0" d="M112 208h4v4h-4z"/><path fill="#4C7F6E" d="M116 208h4v4h-4z"/><path fill="#2E4E43" d="M120 208h4v4h-4zM124 208h4v4h-4zM128 208h4v4h-4z"/><path fill="#4C7F6E" d="M132 208h4v4h-4zM136 208h4v4h-4zM140 208h4v4h-4zM144 208h4v4h-4z"/><path fill="#6FBAA0" d="M148 208h4v4h-4zM152 208h4v4h-4zM156 208h4v4h-4zM160 208h4v4h-4z"/><path fill="#2F4F44" d="M164 208h4v4h-4z"/><path fill="#254136" d="M168 208h4v4h-4z"/><path fill="#2C2526" d="M172 208h4v4h-4zM176 208h4v4h-4zM180 208h4v4h-4zM184 208h4v4h-4zM188 208h4v4h-4zM192 208h4v4h-4z"/><path fill="#254136" d="M196 208h4v4h-4zM200 208h4v4h-4zM204 208h4v4h-4z"/><path fill="#386053" d="M208 208h4v4h-4zM212 208h4v4h-4z"/><path fill="#6FBAA0" d="M216 208h4v4h-4zM220 208h4v4h-4zM224 208h4v4h-4z"/><path fill="#4C7F6E" d="M228 208h4v4h-4zM232 208h4v4h-4z"/><path fill="#6FBAA0" d="M236 208h4v4h-4zM240 208h4v4h-4z"/><path fill="#3D6659" d="M244 208h4v4h-4z"/><path fill="#3E6858" d="M248 208h4v4h-4z"/><path fill="#4C7F6E" d="M252 208h4v4h-4zM256 208h4v4h-4zM260 208h4v4h-4z"/><path fill="#2F5042" d="M264 208h4v4h-4z"/><path fill="#3E6858" d="M268 208h4v4h-4zM272 208h4v4h-4zM276 208h4v4h-4z"/><path fill="#4C7F6E" d="M280 208h4v4h-4zM284 208h4v4h-4zM288 208h4v4h-4zM292 208h4v4h-4z"/><path fill="#2C2526" d="M296 208h4v4h-4zM48 212h4v4h-4z"/><path fill="#80D6B8" d="M52 212h4v4h-4zM56 212h4v4h-4z"/><path fill="#6FBAA0" d="M60 212h4v4h-4z"/><path fill="#4C7F6E" d="M64 212h4v4h-4zM68 212h4v4h-4z"/><path fill="#6FBAA0" d="M72 212h4v4h-4zM76 212h4v4h-4z"/><path fill="#80D6B8" d="M80 212h4v4h-4z"/><path fill="#91F2D0" d="M84 212h4v4h-4zM88 212h4v4h-4z"/><path fill="#315345" d="M92 212h4v4h-4zM96 212h4v4h-4zM100 212h4v4h-4zM104 212h4v4h-4z"/><path fill="#4C7F6E" d="M108 212h4v4h-4zM112 212h4v4h-4z"/><path fill="#2E4E43" d="M116 212h4v4h-4zM120 212h4v4h-4zM124 212h4v4h-4zM128 212h4v4h-4zM132 212h4v4h-4z"/><path fill="#4C7F6E" d="M136 212h4v4h-4zM140 212h4v4h-4zM144 212h4v4h-4z"/><path fill="#6FBAA0" d="M148 212h4v4h-4zM152 212h4v4h-4zM156 212h4v4h-4z"/><path fill="#254136" d="M160 212h4v4h-4zM164 212h4v4h-4z"/><path fill="#2C2526" d="M168 212h4v4h-4zM172 212h4v4h-4zM176 212h4v4h-4zM180 212h4v4h-4zM184 212h4v4h-4zM188 212h4v4h-4z"/><path fill="#254136" d="M192 212h4v4h-4zM196 212h4v4h-4zM200 212h4v4h-4z"/><path fill="#386053" d="M204 212h4v4h-4zM208 212h4v4h-4zM212 212h4v4h-4z"/><path fill="#6FBAA0" d="M216 212h4v4h-4zM220 212h4v4h-4z"/><path fill="#4C7F6E" d="M224 212h4v4h-4zM228 212h4v4h-4zM232 212h4v4h-4z"/><path fill="#6FBAA0" d="M236 212h4v4h-4z"/><path fill="#3D6659" d="M240 212h4v4h-4zM244 212h4v4h-4z"/><path fill="#3E6858" d="M248 212h4v4h-4z"/><path fill="#4C7F6E" d="M252 212h4v4h-4zM256 212h4v4h-4zM260 212h4v4h-4z"/><path fill="#3E6858" d="M264 212h4v4h-4zM268 212h4v4h-4zM272 212h4v4h-4zM276 212h4v4h-4zM280 212h4v4h-4z"/><path fill="#4C7F6E" d="M284 212h4v4h-4zM288 212h4v4h-4z"/><path fill="#2C2526" d="M292 212h4v4h-4zM48 216h4v4h-4z"/><path fill="#80D6B8" d="M52 216h4v4h-4zM56 216h4v4h-4z"/><path fill="#6FBAA0" d="M60 216h4v4h-4z"/><path fill="#4C7F6E" d="M64 216h4v4h-4z"/><path fill="#6FBAA0" d="M68 216h4v4h-4zM72 216h4v4h-4zM76 216h4v4h-4z"/><path fill="#80D6B8" d="M80 216h4v4h-4zM84 216h4v4h-4z"/><path fill="#6FBAA0" d="M88 216h4v4h-4zM92 216h4v4h-4zM96 216h4v4h-4z"/><path fill="#4C7F6E" d="M100 216h4v4h-4zM104 216h4v4h-4zM108 216h4v4h-4zM112 216h4v4h-4z"/><path fill="#2E4E43" d="M116 216h4v4h-4zM120 216h4v4h-4zM124 216h4v4h-4zM128 216h4v4h-4zM132 216h4v4h-4z"/><path fill="#4C7F6E" d="M136 216h4v4h-4zM140 216h4v4h-4zM144 216h4v4h-4z"/><path fill="#6FBAA0" d="M148 216h4v4h-4zM152 216h4v4h-4z"/><path fill="#35584A" d="M156 216h4v4h-4z"/><path fill="#254136" d="M160 216h4v4h-4z"/><path fill="#2C2526" d="M164 216h4v4h-4zM168 216h4v4h-4zM172 216h4v4h-4zM176 216h4v4h-4zM180 216h4v4h-4zM184 216h4v4h-4z"/><path fill="#254136" d="M188 216h4v4h-4zM192 216h4v4h-4zM196 216h4v4h-4z"/><path fill="#386053" d="M200 216h4v4h-4zM204 216h4v4h-4zM208 216h4v4h-4zM212 216h4v4h-4z"/><path fill="#6FBAA0" d="M216 216h4v4h-4z"/><path fill="#4C7F6E" d="M220 216h4v4h-4zM224 216h4v4h-4z"/><path fill="#6FBAA0" d="M228 216h4v4h-4z"/><path fill="#4C7F6E" d="M232 216h4v4h-4z"/><path fill="#6FBAA0" d="M236 216h4v4h-4z"/><path fill="#3D6659" d="M240 216h4v4h-4z"/><path fill="#3E6858" d="M244 216h4v4h-4z"/><path fill="#4C7F6E" d="M248 216h4v4h-4zM252 216h4v4h-4zM256 216h4v4h-4zM260 216h4v4h-4z"/><path fill="#3E6858" d="M264 216h4v4h-4zM268 216h4v4h-4zM272 216h4v4h-4zM276 216h4v4h-4zM280 216h4v4h-4z"/><path fill="#4C7F6E" d="M284 216h4v4h-4zM288 216h4v4h-4z"/><path fill="#2C2526" d="M292 216h4v4h-4zM44 220h4v4h-4z"/><path fill="#91F2D0" d="M48 220h4v4h-4z"/><path fill="#80D6B8" d="M52 220h4v4h-4z"/><path fill="#91F2D0" d="M56 220h4v4h-4z"/><path fill="#80D6B8" d="M60 220h4v4h-4z"/><path fill="#6FBAA0" d="M64 220h4v4h-4zM68 220h4v4h-4zM72 220h4v4h-4zM76 220h4v4h-4z"/><path fill="#80D6B8" d="M80 220h4v4h-4z"/><path fill="#6FBAA0" d="M84 220h4v4h-4zM88 220h4v4h-4zM92 220h4v4h-4zM96 220h4v4h-4z"/><path fill="#4C7F6E" d="M100 220h4v4h-4zM104 220h4v4h-4zM108 220h4v4h-4zM112 220h4v4h-4z"/><path fill="#2E4E43" d="M116 220h4v4h-4zM120 220h4v4h-4zM124 220h4v4h-4zM128 220h4v4h-4zM132 220h4v4h-4zM136 220h4v4h-4z"/><path fill="#4C7F6E" d="M140 220h4v4h-4zM144 220h4v4h-4z"/><path fill="#6FBAA0" d="M148 220h4v4h-4z"/><path fill="#29473C" d="M152 220h4v4h-4z"/><path fill="#254136" d="M156 220h4v4h-4z"/><path fill="#2C2526" d="M160 220h4v4h-4zM164 220h4v4h-4zM168 220h4v4h-4zM172 220h4v4h-4zM176 220h4v4h-4zM180 220h4v4h-4z"/><path fill="#254136" d="M184 220h4v4h-4zM188 220h4v4h-4z"/><path fill="#80D6B8" d="M192 220h4v4h-4zM196 220h4v4h-4zM200 220h4v4h-4z"/><path fill="#4C7F6E" d="M204 220h4v4h-4zM208 220h4v4h-4zM212 220h4v4h-4zM216 220h4v4h-4zM220 220h4v4h-4zM224 220h4v4h-4zM228 220h4v4h-4z"/><path fill="#3E6858" d="M232 220h4v4h-4z"/><path fill="#3D6659" d="M236 220h4v4h-4zM240 220h4v4h-4z"/><path fill="#3E6858" d="M244 220h4v4h-4z"/><path fill="#4C7F6E" d="M248 220h4v4h-4zM252 220h4v4h-4zM256 220h4v4h-4zM260 220h4v4h-4z"/><path fill="#3E6858" d="M264 220h4v4h-4zM268 220h4v4h-4zM272 220h4v4h-4zM276 220h4v4h-4zM280 220h4v4h-4z"/><path fill="#4C7F6E" d="M284 220h4v4h-4z"/><path fill="#2C2526" d="M288 220h4v4h-4z"/><path fill="#4C7F6E" d="M44 224h4v4h-4z"/><path fill="#6FBAA0" d="M48 224h4v4h-4z"/><path fill="#80D6B8" d="M52 224h4v4h-4z"/><path fill="#91F2D0" d="M56 224h4v4h-4z"/><path fill="#6FBAA0" d="M60 224h4v4h-4zM64 224h4v4h-4zM68 224h4v4h-4zM72 224h4v4h-4zM76 224h4v4h-4z"/><path fill="#80D6B8" d="M80 224h4v4h-4z"/><path fill="#6FBAA0" d="M84 224h4v4h-4zM88 224h4v4h-4zM92 224h4v4h-4zM96 224h4v4h-4z"/><path fill="#4C7F6E" d="M100 224h4v4h-4zM104 224h4v4h-4zM108 224h4v4h-4zM112 224h4v4h-4z"/><path fill="#2E4E43" d="M116 224h4v4h-4zM120 224h4v4h-4zM124 224h4v4h-4zM128 224h4v4h-4zM132 224h4v4h-4zM136 224h4v4h-4z"/><path fill="#4C7F6E" d="M140 224h4v4h-4zM144 224h4v4h-4z"/><path fill="#274238" d="M148 224h4v4h-4z"/><path fill="#254136" d="M152 224h4v4h-4zM156 224h4v4h-4z"/><path fill="#2B463C" d="M160 224h4v4h-4z"/><path fill="#4C7F6E" d="M164 224h4v4h-4z"/><path fill="#3D6659" d="M168 224h4v4h-4zM172 224h4v4h-4z"/><path fill="#6FBAA0" d="M176 224h4v4h-4z"/><path fill="#4C7F6E" d="M180 224h4v4h-4z"/><path fill="#386053" d="M184 224h4v4h-4zM188 224h4v4h-4z"/><path fill="#80D6B8" d="M192 224h4v4h-4zM196 224h4v4h-4z"/><path fill="#4C7F6E" d="M200 224h4v4h-4zM204 224h4v4h-4zM208 224h4v4h-4zM212 224h4v4h-4zM216 224h4v4h-4zM220 224h4v4h-4zM224 224h4v4h-4zM228 224h4v4h-4zM232 224h4v4h-4z"/><path fill="#3D6659" d="M236 224h4v4h-4zM240 224h4v4h-4z"/><path fill="#3E6858" d="M244 224h4v4h-4z"/><path fill="#4C7F6E" d="M248 224h4v4h-4zM252 224h4v4h-4zM256 224h4v4h-4zM260 224h4v4h-4z"/><path fill="#3E6858" d="M264 224h4v4h-4zM268 224h4v4h-4zM272 224h4v4h-4zM276 224h4v4h-4zM280 224h4v4h-4z"/><path fill="#4C7F6E" d="M284 224h4v4h-4z"/><path fill="#2C2526" d="M288 224h4v4h-4z"/><path fill="#4C7F6E" d="M40 228h4v4h-4z"/><path fill="#6FBAA0" d="M44 228h4v4h-4zM48 228h4v4h-4z"/><path fill="#91F2D0" d="M52 228h4v4h-4zM56 228h4v4h-4zM60 228h4v4h-4zM64 228h4v4h-4zM68 228h4v4h-4zM72 228h4v4h-4zM76 228h4v4h-4z"/><path fill="#80D6B8" d="M80 228h4v4h-4zM84 228h4v4h-4z"/><path fill="#6FBAA0" d="M88 228h4v4h-4zM92 228h4v4h-4zM96 228h4v4h-4z"/><path fill="#4C7F6E" d="M100 228h4v4h-4zM104 228h4v4h-4zM108 228h4v4h-4z"/><path fill="#2E4E43" d="M112 228h4v4h-4zM116 228h4v4h-4zM120 228h4v4h-4zM124 228h4v4h-4zM128 228h4v4h-4zM132 228h4v4h-4zM136 228h4v4h-4zM140 228h4v4h-4z"/><path fill="#4C7F6E" d="M144 228h4v4h-4z"/><path fill="#254136" d="M148 228h4v4h-4zM152 228h4v4h-4z"/><path fill="#2C2526" d="M156 228h4v4h-4z"/><path fill="#4C7F6E" d="M160 228h4v4h-4zM164 228h4v4h-4z"/><path fill="#386053" d="M168 228h4v4h-4z"/><path fill="#2F4F44" d="M172 228h4v4h-4z"/><path fill="#2D4C41" d="M176 228h4v4h-4z"/><path fill="#345749" d="M180 228h4v4h-4z"/><path fill="#2A453B" d="M184 228h4v4h-4z"/><path fill="#4C7F6E" d="M188 228h4v4h-4z"/><path fill="#80D6B8" d="M192 228h4v4h-4z"/><path fill="#4C7F6E" d="M196 228h4v4h-4zM200 228h4v4h-4zM204 228h4v4h-4zM208 228h4v4h-4zM212 228h4v4h-4zM216 228h4v4h-4zM220 228h4v4h-4zM224 228h4v4h-4zM228 228h4v4h-4zM232 228h4v4h-4z"/><path fill="#386053" d="M236 228h4v4h-4z"/><path fill="#3E6858" d="M240 228h4v4h-4z"/><path fill="#4C7F6E" d="M244 228h4v4h-4zM248 228h4v4h-4zM252 228h4v4h-4zM256 228h4v4h-4zM260 228h4v4h-4z"/><path fill="#3E6858" d="M264 228h4v4h-4zM268 228h4v4h-4zM272 228h4v4h-4zM276 228h4v4h-4zM280 228h4v4h-4z"/><path fill="#4C7F6E" d="M284 228h4v4h-4z"/><path fill="#2C2526" d="M288 228h4v4h-4z"/><path fill="#4C7F6E" d="M40 232h4v4h-4z"/><path fill="#6FBAA0" d="M44 232h4v4h-4z"/><path fill="#91F2D0" d="M48 232h4v4h-4z"/><path fill="#B1FFE3" d="M52 232h4v4h-4z"/><path fill="#91F2D0" d="M56 232h4v4h-4zM60 232h4v4h-4zM64 232h4v4h-4zM68 232h4v4h-4zM72 232h4v4h-4zM76 232h4v4h-4z"/><path fill="#80D6B8" d="M80 232h4v4h-4zM84 232h4v4h-4z"/><path fill="#6FBAA0" d="M88 232h4v4h-4zM92 232h4v4h-4zM96 232h4v4h-4z"/><path fill="#4C7F6E" d="M100 232h4v4h-4zM104 232h4v4h-4zM108 232h4v4h-4z"/><path fill="#2E4E43" d="M112 232h4v4h-4zM116 232h4v4h-4zM120 232h4v4h-4z"/><path fill="#2C2526" d="M124 232h4v4h-4zM128 232h4v4h-4zM132 232h4v4h-4zM136 232h4v4h-4z"/><path fill="#284339" d="M140 232h4v4h-4z"/><path fill="#2F5042" d="M144 232h4v4h-4z"/><path fill="#386053" d="M148 232h4v4h-4zM152 232h4v4h-4zM156 232h4v4h-4z"/><path fill="#4C7F6E" d="M160 232h4v4h-4zM164 232h4v4h-4zM168 232h4v4h-4z"/><path fill="#2A483D" d="M172 232h4v4h-4z"/><path fill="#2C2526" d="M176 232h4v4h-4z"/><path fill="#4C7F6E" d="M180 232h4v4h-4z"/><path fill="#386053" d="M184 232h4v4h-4zM188 232h4v4h-4zM192 232h4v4h-4zM196 232h4v4h-4zM200 232h4v4h-4zM204 232h4v4h-4zM208 232h4v4h-4zM212 232h4v4h-4zM216 232h4v4h-4zM220 232h4v4h-4zM224 232h4v4h-4zM228 232h4v4h-4zM232 232h4v4h-4zM236 232h4v4h-4z"/><path fill="#3E6858" d="M240 232h4v4h-4z"/><path fill="#4C7F6E" d="M244 232h4v4h-4z"/><path fill="#6FBAA0" d="M248 232h4v4h-4z"/><path fill="#4C7F6E" d="M252 232h4v4h-4zM256 232h4v4h-4zM260 232h4v4h-4z"/><path fill="#3E6858" d="M264 232h4v4h-4zM268 232h4v4h-4zM272 232h4v4h-4zM276 232h4v4h-4zM280 232h4v4h-4z"/><path fill="#2C2526" d="M284 232h4v4h-4z"/><path fill="#4C7F6E" d="M40 236h4v4h-4z"/><path fill="#6FBAA0" d="M44 236h4v4h-4z"/><path fill="#91F2D0" d="M48 236h4v4h-4z"/><path fill="#B1FFE3" d="M52 236h4v4h-4zM56 236h4v4h-4z"/><path fill="#91F2D0" d="M60 236h4v4h-4zM64 236h4v4h-4zM68 236h4v4h-4zM72 236h4v4h-4zM76 236h4v4h-4z"/><path fill="#80D6B8" d="M80 236h4v4h-4zM84 236h4v4h-4zM88 236h4v4h-4z"/><path fill="#6FBAA0" d="M92 236h4v4h-4zM96 236h4v4h-4z"/><path fill="#4C7F6E" d="M100 236h4v4h-4zM104 236h4v4h-4zM108 236h4v4h-4z"/><path fill="#2E4E43" d="M112 236h4v4h-4zM116 236h4v4h-4z"/><path fill="#2C2526" d="M120 236h4v4h-4zM124 236h4v4h-4zM128 236h4v4h-4zM132 236h4v4h-4zM136 236h4v4h-4z"/><path fill="#325648" d="M140 236h4v4h-4z"/><path fill="#2F5042" d="M144 236h4v4h-4zM148 236h4v4h-4z"/><path fill="#386053" d="M152 236h4v4h-4zM156 236h4v4h-4z"/><path fill="#2C2526" d="M160 236h4v4h-4zM164 236h4v4h-4zM168 236h4v4h-4z"/><path fill="#386053" d="M172 236h4v4h-4zM176 236h4v4h-4zM180 236h4v4h-4zM184 236h4v4h-4zM188 236h4v4h-4zM192 236h4v4h-4zM196 236h4v4h-4zM200 236h4v4h-4zM204 236h4v4h-4zM208 236h4v4h-4zM212 236h4v4h-4zM216 236h4v4h-4zM220 236h4v4h-4zM224 236h4v4h-4z"/><path fill="#4C7F6E" d="M228 236h4v4h-4zM232 236h4v4h-4z"/><path fill="#3E6858" d="M236 236h4v4h-4zM240 236h4v4h-4z"/><path fill="#4C7F6E" d="M244 236h4v4h-4z"/><path fill="#6FBAA0" d="M248 236h4v4h-4zM252 236h4v4h-4z"/><path fill="#4C7F6E" d="M256 236h4v4h-4zM260 236h4v4h-4z"/><path fill="#3E6858" d="M264 236h4v4h-4zM268 236h4v4h-4zM272 236h4v4h-4z"/><path fill="#4C7F6E" d="M276 236h4v4h-4zM280 236h4v4h-4z"/><path fill="#2C2526" d="M284 236h4v4h-4z"/><path fill="#4C7F6E" d="M36 240h4v4h-4z"/><path fill="#6FBAA0" d="M40 240h4v4h-4zM44 240h4v4h-4z"/><path fill="#91F2D0" d="M48 240h4v4h-4z"/><path fill="#B1FFE3" d="M52 240h4v4h-4zM56 240h4v4h-4zM60 240h4v4h-4z"/><path fill="#91F2D0" d="M64 240h4v4h-4zM68 240h4v4h-4zM72 240h4v4h-4zM76 240h4v4h-4z"/><path fill="#80D6B8" d="M80 240h4v4h-4zM84 240h4v4h-4zM88 240h4v4h-4z"/><path fill="#6FBAA0" d="M92 240h4v4h-4zM96 240h4v4h-4z"/><path fill="#4C7F6E" d="M100 240h4v4h-4zM104 240h4v4h-4z"/><path fill="#2E4E43" d="M108 240h4v4h-4zM112 240h4v4h-4z"/><path fill="#2C2526" d="M116 240h4v4h-4zM120 240h4v4h-4zM124 240h4v4h-4zM128 240h4v4h-4z"/><path fill="#244035" d="M132 240h4v4h-4z"/><path fill="#386053" d="M136 240h4v4h-4z"/><path fill="#2C2526" d="M140 240h4v4h-4z"/><path fill="#2F5042" d="M144 240h4v4h-4zM148 240h4v4h-4zM152 240h4v4h-4z"/><path fill="#386053" d="M156 240h4v4h-4zM160 240h4v4h-4z"/><path fill="#4C7F6E" d="M164 240h4v4h-4z"/><path fill="#386053" d="M168 240h4v4h-4zM172 240h4v4h-4zM176 240h4v4h-4zM180 240h4v4h-4zM184 240h4v4h-4z"/><path fill="#396154" d="M188 240h4v4h-4z"/><path fill="#386053" d="M192 240h4v4h-4zM196 240h4v4h-4zM200 240h4v4h-4zM204 240h4v4h-4zM208 240h4v4h-4zM212 240h4v4h-4z"/><path fill="#4C7F6E" d="M216 240h4v4h-4zM220 240h4v4h-4zM224 240h4v4h-4zM228 240h4v4h-4z"/><path fill="#3E6858" d="M232 240h4v4h-4zM236 240h4v4h-4z"/><path fill="#4C7F6E" d="M240 240h4v4h-4zM244 240h4v4h-4z"/><path fill="#6FBAA0" d="M248 240h4v4h-4zM252 240h4v4h-4zM256 240h4v4h-4z"/><path fill="#4C7F6E" d="M260 240h4v4h-4zM264 240h4v4h-4z"/><path fill="#3F6A59" d="M268 240h4v4h-4z"/><path fill="#4C7F6E" d="M272 240h4v4h-4zM276 240h4v4h-4zM280 240h4v4h-4z"/><path fill="#2C2526" d="M284 240h4v4h-4z"/><path fill="#4C7F6E" d="M32 244h4v4h-4z"/><path fill="#80D6B8" d="M36 244h4v4h-4zM40 244h4v4h-4z"/><path fill="#91F2D0" d="M44 244h4v4h-4zM48 244h4v4h-4z"/><path fill="#B1FFE3" d="M52 244h4v4h-4zM56 244h4v4h-4zM60 244h4v4h-4zM64 244h4v4h-4z"/><path fill="#91F2D0" d="M68 244h4v4h-4zM72 244h4v4h-4zM76 244h4v4h-4z"/><path fill="#80D6B8" d="M80 244h4v4h-4zM84 244h4v4h-4zM88 244h4v4h-4z"/><path fill="#6FBAA0" d="M92 244h4v4h-4zM96 244h4v4h-4z"/><path fill="#4C7F6E" d="M100 244h4v4h-4zM104 244h4v4h-4z"/><path fill="#2E4E43" d="M108 244h4v4h-4z"/><path fill="#2C2526" d="M112 244h4v4h-4zM116 244h4v4h-4zM120 244h4v4h-4zM124 244h4v4h-4z"/><path fill="#B1FFE3" d="M128 244h4v4h-4zM132 244h4v4h-4zM136 244h4v4h-4zM140 244h4v4h-4zM144 244h4v4h-4z"/><path fill="#91F2D0" d="M148 244h4v4h-4z"/><path fill="#4C7F6E" d="M152 244h4v4h-4z"/><path fill="#2B4B40" d="M156 244h4v4h-4zM160 244h4v4h-4zM164 244h4v4h-4z"/><path fill="#386053" d="M168 244h4v4h-4zM172 244h4v4h-4zM176 244h4v4h-4zM180 244h4v4h-4zM184 244h4v4h-4zM188 244h4v4h-4zM192 244h4v4h-4zM196 244h4v4h-4zM200 244h4v4h-4zM204 244h4v4h-4z"/><path fill="#4C7F6E" d="M208 244h4v4h-4zM212 244h4v4h-4zM216 244h4v4h-4zM220 244h4v4h-4zM224 244h4v4h-4z"/><path fill="#386053" d="M228 244h4v4h-4z"/><path fill="#3E6858" d="M232 244h4v4h-4zM236 244h4v4h-4z"/><path fill="#4C7F6E" d="M240 244h4v4h-4zM244 244h4v4h-4z"/><path fill="#6FBAA0" d="M248 244h4v4h-4zM252 244h4v4h-4zM256 244h4v4h-4zM260 244h4v4h-4z"/><path fill="#4C7F6E" d="M264 244h4v4h-4zM268 244h4v4h-4zM272 244h4v4h-4zM276 244h4v4h-4zM280 244h4v4h-4z"/><path fill="#2C2526" d="M284 244h4v4h-4z"/><path fill="#4C7F6E" d="M32 248h4v4h-4z"/><path fill="#80D6B8" d="M36 248h4v4h-4zM40 248h4v4h-4z"/><path fill="#91F2D0" d="M44 248h4v4h-4zM48 248h4v4h-4z"/><path fill="#B1FFE3" d="M52 248h4v4h-4zM56 248h4v4h-4zM60 248h4v4h-4zM64 248h4v4h-4zM68 248h4v4h-4z"/><path fill="#91F2D0" d="M72 248h4v4h-4zM76 248h4v4h-4z"/><path fill="#80D6B8" d="M80 248h4v4h-4zM84 248h4v4h-4zM88 248h4v4h-4zM92 248h4v4h-4z"/><path fill="#6FBAA0" d="M96 248h4v4h-4z"/><path fill="#4C7F6E" d="M100 248h4v4h-4zM104 248h4v4h-4z"/><path fill="#2E4E43" d="M108 248h4v4h-4z"/><path fill="#2C2526" d="M112 248h4v4h-4zM116 248h4v4h-4zM120 248h4v4h-4zM124 248h4v4h-4z"/><path fill="#B1FFE3" d="M128 248h4v4h-4zM132 248h4v4h-4zM136 248h4v4h-4zM140 248h4v4h-4z"/><path fill="#91F2D0" d="M144 248h4v4h-4z"/><path fill="#386053" d="M148 248h4v4h-4z"/><path fill="#2B4B40" d="M152 248h4v4h-4z"/><path fill="#2C493F" d="M156 248h4v4h-4z"/><path fill="#2B4B40" d="M160 248h4v4h-4z"/><path fill="#3B6254" d="M164 248h4v4h-4z"/><path fill="#386053" d="M168 248h4v4h-4zM172 248h4v4h-4zM176 248h4v4h-4zM180 248h4v4h-4zM184 248h4v4h-4zM188 248h4v4h-4zM192 248h4v4h-4z"/><path fill="#4C7F6E" d="M196 248h4v4h-4zM200 248h4v4h-4zM204 248h4v4h-4zM208 248h4v4h-4zM212 248h4v4h-4zM216 248h4v4h-4zM220 248h4v4h-4z"/><path fill="#386053" d="M224 248h4v4h-4zM228 248h4v4h-4z"/><path fill="#3E6858" d="M232 248h4v4h-4z"/><path fill="#4C7F6E" d="M236 248h4v4h-4zM240 248h4v4h-4zM244 248h4v4h-4z"/><path fill="#6FBAA0" d="M248 248h4v4h-4zM252 248h4v4h-4zM256 248h4v4h-4zM260 248h4v4h-4zM264 248h4v4h-4z"/><path fill="#4C7F6E" d="M268 248h4v4h-4zM272 248h4v4h-4zM276 248h4v4h-4zM280 248h4v4h-4z"/><path fill="#2C2526" d="M284 248h4v4h-4z"/><path fill="#4C7F6E" d="M32 252h4v4h-4z"/><path fill="#80D6B8" d="M36 252h4v4h-4zM40 252h4v4h-4z"/><path fill="#91F2D0" d="M44 252h4v4h-4zM48 252h4v4h-4z"/><path fill="#B1FFE3" d="M52 252h4v4h-4zM56 252h4v4h-4zM60 252h4v4h-4zM64 252h4v4h-4zM68 252h4v4h-4zM72 252h4v4h-4z"/><path fill="#91F2D0" d="M76 252h4v4h-4z"/><path fill="#80D6B8" d="M80 252h4v4h-4zM84 252h4v4h-4zM88 252h4v4h-4zM92 252h4v4h-4z"/><path fill="#4C7F6E" d="M96 252h4v4h-4zM100 252h4v4h-4z"/><path fill="#2E4E43" d="M104 252h4v4h-4z"/><path fill="#2C2526" d="M108 252h4v4h-4zM112 252h4v4h-4zM116 252h4v4h-4zM120 252h4v4h-4z"/><path fill="#80D6B8" d="M124 252h4v4h-4z"/><path fill="#B1FFE3" d="M128 252h4v4h-4zM132 252h4v4h-4zM136 252h4v4h-4z"/><path fill="#91F2D0" d="M140 252h4v4h-4z"/><path fill="#386053" d="M144 252h4v4h-4zM148 252h4v4h-4z"/><path fill="#2B4B40" d="M152 252h4v4h-4zM156 252h4v4h-4z"/><path fill="#386053" d="M160 252h4v4h-4zM164 252h4v4h-4zM168 252h4v4h-4zM172 252h4v4h-4zM176 252h4v4h-4zM180 252h4v4h-4z"/><path fill="#4C7F6E" d="M184 252h4v4h-4zM188 252h4v4h-4zM192 252h4v4h-4zM196 252h4v4h-4zM200 252h4v4h-4zM204 252h4v4h-4zM208 252h4v4h-4zM212 252h4v4h-4zM216 252h4v4h-4z"/><path fill="#386053" d="M220 252h4v4h-4zM224 252h4v4h-4zM228 252h4v4h-4z"/><path fill="#3E6858" d="M232 252h4v4h-4z"/><path fill="#4C7F6E" d="M236 252h4v4h-4zM240 252h4v4h-4zM244 252h4v4h-4z"/><path fill="#6FBAA0" d="M248 252h4v4h-4zM252 252h4v4h-4zM256 252h4v4h-4zM260 252h4v4h-4zM264 252h4v4h-4zM268 252h4v4h-4z"/><path fill="#4C7F6E" d="M272 252h4v4h-4zM276 252h4v4h-4z"/><path fill="#2C2526" d="M280 252h4v4h-4z"/><path fill="#4C7F6E" d="M28 256h4v4h-4z"/><path fill="#6FBAA0" d="M32 256h4v4h-4z"/><path fill="#80D6B8" d="M36 256h4v4h-4zM40 256h4v4h-4z"/><path fill="#91F2D0" d="M44 256h4v4h-4zM48 256h4v4h-4z"/><path fill="#B1FFE3" d="M52 256h4v4h-4zM56 256h4v4h-4zM60 256h4v4h-4zM64 256h4v4h-4zM68 256h4v4h-4zM72 256h4v4h-4zM76 256h4v4h-4z"/><path fill="#80D6B8" d="M80 256h4v4h-4zM84 256h4v4h-4zM88 256h4v4h-4zM92 256h4v4h-4z"/><path fill="#4C7F6E" d="M96 256h4v4h-4zM100 256h4v4h-4z"/><path fill="#2E4E43" d="M104 256h4v4h-4z"/><path fill="#2C2526" d="M108 256h4v4h-4zM112 256h4v4h-4zM116 256h4v4h-4z"/><path fill="#91F2D0" d="M120 256h4v4h-4zM124 256h4v4h-4z"/><path fill="#B1FFE3" d="M128 256h4v4h-4zM132 256h4v4h-4z"/><path fill="#80D6B8" d="M136 256h4v4h-4z"/><path fill="#386053" d="M140 256h4v4h-4zM144 256h4v4h-4zM148 256h4v4h-4z"/><path fill="#2B4B40" d="M152 256h4v4h-4z"/><path fill="#386053" d="M156 256h4v4h-4zM160 256h4v4h-4zM164 256h4v4h-4zM168 256h4v4h-4zM172 256h4v4h-4z"/><path fill="#4C7F6E" d="M176 256h4v4h-4zM180 256h4v4h-4zM184 256h4v4h-4zM188 256h4v4h-4zM192 256h4v4h-4zM196 256h4v4h-4zM200 256h4v4h-4zM204 256h4v4h-4zM208 256h4v4h-4zM212 256h4v4h-4z"/><path fill="#386053" d="M216 256h4v4h-4zM220 256h4v4h-4zM224 256h4v4h-4zM228 256h4v4h-4z"/><path fill="#3E6858" d="M232 256h4v4h-4z"/><path fill="#4C7F6E" d="M236 256h4v4h-4zM240 256h4v4h-4zM244 256h4v4h-4z"/><path fill="#6FBAA0" d="M248 256h4v4h-4zM252 256h4v4h-4zM256 256h4v4h-4zM260 256h4v4h-4zM264 256h4v4h-4zM268 256h4v4h-4zM272 256h4v4h-4z"/><path fill="#4C7F6E" d="M276 256h4v4h-4z"/><path fill="#2C2526" d="M280 256h4v4h-4z"/><path fill="#4C7F6E" d="M24 260h4v4h-4zM28 260h4v4h-4z"/><path fill="#6FBAA0" d="M32 260h4v4h-4z"/><path fill="#80D6B8" d="M36 260h4v4h-4z"/><path fill="#6FBAA0" d="M40 260h4v4h-4z"/><path fill="#91F2D0" d="M44 260h4v4h-4zM48 260h4v4h-4zM52 260h4v4h-4zM56 260h4v4h-4zM60 260h4v4h-4zM64 260h4v4h-4zM68 260h4v4h-4zM72 260h4v4h-4zM76 260h4v4h-4z"/><path fill="#80D6B8" d="M80 260h4v4h-4zM84 260h4v4h-4zM88 260h4v4h-4z"/><path fill="#6FBAA0" d="M92 260h4v4h-4z"/><path fill="#3E6858" d="M96 260h4v4h-4z"/><path fill="#2C2526" d="M100 260h4v4h-4zM104 260h4v4h-4z"/><path fill="#80D6B8" d="M108 260h4v4h-4zM112 260h4v4h-4zM116 260h4v4h-4zM120 260h4v4h-4z"/><path fill="#4C7F6E" d="M124 260h4v4h-4zM128 260h4v4h-4zM132 260h4v4h-4zM136 260h4v4h-4zM140 260h4v4h-4z"/><path fill="#386053" d="M144 260h4v4h-4z"/><path fill="#345749" d="M148 260h4v4h-4zM152 260h4v4h-4z"/><path fill="#2B4B40" d="M156 260h4v4h-4z"/><path fill="#3D675A" d="M160 260h4v4h-4zM164 260h4v4h-4zM168 260h4v4h-4zM172 260h4v4h-4zM176 260h4v4h-4zM180 260h4v4h-4z"/><path fill="#4C7F6E" d="M184 260h4v4h-4zM188 260h4v4h-4zM192 260h4v4h-4zM196 260h4v4h-4zM200 260h4v4h-4zM204 260h4v4h-4zM208 260h4v4h-4z"/><path fill="#386053" d="M212 260h4v4h-4zM216 260h4v4h-4zM220 260h4v4h-4zM224 260h4v4h-4zM228 260h4v4h-4z"/><path fill="#4C7F6E" d="M232 260h4v4h-4zM236 260h4v4h-4z"/><path fill="#6FBAA0" d="M240 260h4v4h-4z"/><path fill="#4C7F6E" d="M244 260h4v4h-4z"/><path fill="#6FBAA0" d="M248 260h4v4h-4zM252 260h4v4h-4zM256 260h4v4h-4zM260 260h4v4h-4zM264 260h4v4h-4zM268 260h4v4h-4z"/><path fill="#3E6858" d="M272 260h4v4h-4z"/><path fill="#2C2526" d="M276 260h4v4h-4z"/><path fill="#4C7F6E" d="M28 264h4v4h-4z"/><path fill="#6FBAA0" d="M32 264h4v4h-4z"/><path fill="#80D6B8" d="M36 264h4v4h-4z"/><path fill="#6FBAA0" d="M40 264h4v4h-4z"/><path fill="#91F2D0" d="M44 264h4v4h-4z"/><path fill="#80D6B8" d="M48 264h4v4h-4z"/><path fill="#91F2D0" d="M52 264h4v4h-4zM56 264h4v4h-4zM60 264h4v4h-4zM64 264h4v4h-4zM68 264h4v4h-4zM72 264h4v4h-4zM76 264h4v4h-4z"/><path fill="#80D6B8" d="M80 264h4v4h-4zM84 264h4v4h-4z"/><path fill="#6FBAA0" d="M88 264h4v4h-4zM92 264h4v4h-4z"/><path fill="#4C7F6E" d="M96 264h4v4h-4z"/><path fill="#2C2526" d="M100 264h4v4h-4zM104 264h4v4h-4z"/><path fill="#80D6B8" d="M108 264h4v4h-4zM112 264h4v4h-4zM116 264h4v4h-4zM120 264h4v4h-4z"/><path fill="#4C7F6E" d="M124 264h4v4h-4zM128 264h4v4h-4zM132 264h4v4h-4zM136 264h4v4h-4z"/><path fill="#345749" d="M140 264h4v4h-4zM144 264h4v4h-4zM148 264h4v4h-4z"/><path fill="#2B4B40" d="M152 264h4v4h-4zM156 264h4v4h-4zM160 264h4v4h-4z"/><path fill="#3D675A" d="M164 264h4v4h-4zM168 264h4v4h-4zM172 264h4v4h-4zM176 264h4v4h-4zM180 264h4v4h-4zM184 264h4v4h-4zM188 264h4v4h-4z"/><path fill="#4C7F6E" d="M192 264h4v4h-4zM196 264h4v4h-4zM200 264h4v4h-4zM204 264h4v4h-4z"/><path fill="#386053" d="M208 264h4v4h-4zM212 264h4v4h-4zM216 264h4v4h-4zM220 264h4v4h-4zM224 264h4v4h-4z"/><path fill="#4C7F6E" d="M228 264h4v4h-4z"/><path fill="#6FBAA0" d="M232 264h4v4h-4zM236 264h4v4h-4zM240 264h4v4h-4z"/><path fill="#4C7F6E" d="M244 264h4v4h-4z"/><path fill="#6FBAA0" d="M248 264h4v4h-4zM252 264h4v4h-4zM256 264h4v4h-4zM260 264h4v4h-4zM264 264h4v4h-4zM268 264h4v4h-4z"/><path fill="#29473C" d="M272 264h4v4h-4z"/><path fill="#2C2526" d="M276 264h4v4h-4zM28 268h4v4h-4z"/><path fill="#2D4A40" d="M32 268h4v4h-4z"/><path fill="#80D6B8" d="M36 268h4v4h-4z"/><path fill="#6FBAA0" d="M40 268h4v4h-4z"/><path fill="#91F2D0" d="M44 268h4v4h-4z"/><path fill="#80D6B8" d="M48 268h4v4h-4z"/><path fill="#91F2D0" d="M52 268h4v4h-4zM56 268h4v4h-4zM60 268h4v4h-4zM64 268h4v4h-4zM68 268h4v4h-4zM72 268h4v4h-4zM76 268h4v4h-4z"/><path fill="#80D6B8" d="M80 268h4v4h-4z"/><path fill="#6FBAA0" d="M84 268h4v4h-4zM88 268h4v4h-4z"/><path fill="#4C7F6E" d="M92 268h4v4h-4zM96 268h4v4h-4z"/><path fill="#6FBAA0" d="M100 268h4v4h-4zM104 268h4v4h-4z"/><path fill="#80D6B8" d="M108 268h4v4h-4zM112 268h4v4h-4zM116 268h4v4h-4z"/><path fill="#6FBAA0" d="M120 268h4v4h-4z"/><path fill="#4C7F6E" d="M124 268h4v4h-4zM128 268h4v4h-4zM132 268h4v4h-4z"/><path fill="#345749" d="M136 268h4v4h-4zM140 268h4v4h-4zM144 268h4v4h-4zM148 268h4v4h-4z"/><path fill="#2B4B40" d="M152 268h4v4h-4z"/><path fill="#2A483D" d="M156 268h4v4h-4z"/><path fill="#2B4B40" d="M160 268h4v4h-4zM164 268h4v4h-4z"/><path fill="#3D675A" d="M168 268h4v4h-4zM172 268h4v4h-4zM176 268h4v4h-4zM180 268h4v4h-4zM184 268h4v4h-4zM188 268h4v4h-4z"/><path fill="#325648" d="M192 268h4v4h-4z"/><path fill="#305143" d="M196 268h4v4h-4z"/><path fill="#2D4C41" d="M200 268h4v4h-4z"/><path fill="#386053" d="M204 268h4v4h-4z"/><path fill="#254136" d="M208 268h4v4h-4z"/><path fill="#386053" d="M212 268h4v4h-4zM216 268h4v4h-4zM220 268h4v4h-4z"/><path fill="#4C7F6E" d="M224 268h4v4h-4z"/><path fill="#6FBAA0" d="M228 268h4v4h-4zM232 268h4v4h-4zM236 268h4v4h-4zM240 268h4v4h-4z"/><path fill="#4C7F6E" d="M244 268h4v4h-4z"/><path fill="#6FBAA0" d="M248 268h4v4h-4zM252 268h4v4h-4zM256 268h4v4h-4zM260 268h4v4h-4z"/><path fill="#4C7F6E" d="M264 268h4v4h-4zM268 268h4v4h-4z"/><path fill="#2C2526" d="M272 268h4v4h-4zM28 272h4v4h-4z"/><path fill="#6FBAA0" d="M32 272h4v4h-4z"/><path fill="#80D6B8" d="M36 272h4v4h-4z"/><path fill="#6FBAA0" d="M40 272h4v4h-4z"/><path fill="#91F2D0" d="M44 272h4v4h-4z"/><path fill="#6FBAA0" d="M48 272h4v4h-4z"/><path fill="#91F2D0" d="M52 272h4v4h-4zM56 272h4v4h-4z"/><path fill="#6FBAA0" d="M60 272h4v4h-4zM64 272h4v4h-4z"/><path fill="#80D6B8" d="M68 272h4v4h-4z"/><path fill="#91F2D0" d="M72 272h4v4h-4z"/><path fill="#80D6B8" d="M76 272h4v4h-4z"/><path fill="#6FBAA0" d="M80 272h4v4h-4zM84 272h4v4h-4zM88 272h4v4h-4zM92 272h4v4h-4z"/><path fill="#4C7F6E" d="M96 272h4v4h-4z"/><path fill="#2D4A40" d="M100 272h4v4h-4z"/><path fill="#396154" d="M104 272h4v4h-4z"/><path fill="#80D6B8" d="M108 272h4v4h-4zM112 272h4v4h-4z"/><path fill="#4C7F6E" d="M116 272h4v4h-4zM120 272h4v4h-4zM124 272h4v4h-4zM128 272h4v4h-4z"/><path fill="#345749" d="M132 272h4v4h-4zM136 272h4v4h-4zM140 272h4v4h-4zM144 272h4v4h-4z"/><path fill="#28443A" d="M148 272h4v4h-4zM152 272h4v4h-4z"/><path fill="#2A483D" d="M156 272h4v4h-4z"/><path fill="#2D4A40" d="M160 272h4v4h-4z"/><path fill="#2B4B40" d="M164 272h4v4h-4zM168 272h4v4h-4z"/><path fill="#3D675A" d="M172 272h4v4h-4zM176 272h4v4h-4zM180 272h4v4h-4zM184 272h4v4h-4z"/><path fill="#254136" d="M188 272h4v4h-4z"/><path fill="#2D4A40" d="M192 272h4v4h-4z"/><path fill="#4C7F6E" d="M196 272h4v4h-4z"/><path fill="#2C2526" d="M200 272h4v4h-4zM204 272h4v4h-4zM208 272h4v4h-4zM212 272h4v4h-4z"/><path fill="#386053" d="M216 272h4v4h-4z"/><path fill="#4C7F6E" d="M220 272h4v4h-4zM224 272h4v4h-4zM228 272h4v4h-4z"/><path fill="#6FBAA0" d="M232 272h4v4h-4zM236 272h4v4h-4zM240 272h4v4h-4z"/><path fill="#4C7F6E" d="M244 272h4v4h-4z"/><path fill="#6FBAA0" d="M248 272h4v4h-4zM252 272h4v4h-4zM256 272h4v4h-4zM260 272h4v4h-4z"/><path fill="#4C7F6E" d="M264 272h4v4h-4z"/><path fill="#2C2526" d="M268 272h4v4h-4zM28 276h4v4h-4z"/><path fill="#80D6B8" d="M32 276h4v4h-4z"/><path fill="#6FBAA0" d="M36 276h4v4h-4zM40 276h4v4h-4z"/><path fill="#91F2D0" d="M44 276h4v4h-4z"/><path fill="#6FBAA0" d="M48 276h4v4h-4z"/><path fill="#91F2D0" d="M52 276h4v4h-4zM56 276h4v4h-4z"/><path fill="#6FBAA0" d="M60 276h4v4h-4zM64 276h4v4h-4zM68 276h4v4h-4z"/><path fill="#80D6B8" d="M72 276h4v4h-4zM76 276h4v4h-4z"/><path fill="#6FBAA0" d="M80 276h4v4h-4zM84 276h4v4h-4zM88 276h4v4h-4zM92 276h4v4h-4z"/><path fill="#4C7F6E" d="M96 276h4v4h-4z"/><path fill="#2C2526" d="M100 276h4v4h-4z"/><path fill="#35594B" d="M104 276h4v4h-4z"/><path fill="#80D6B8" d="M108 276h4v4h-4z"/><path fill="#4C7F6E" d="M112 276h4v4h-4zM116 276h4v4h-4z"/><path fill="#35584A" d="M120 276h4v4h-4z"/><path fill="#4C7F6E" d="M124 276h4v4h-4z"/><path fill="#345749" d="M128 276h4v4h-4zM132 276h4v4h-4zM136 276h4v4h-4z"/><path fill="#2E4E43" d="M140 276h4v4h-4z"/><path fill="#2C493F" d="M144 276h4v4h-4z"/><path fill="#28443A" d="M148 276h4v4h-4z"/><path fill="#2B463C" d="M152 276h4v4h-4z"/><path fill="#284339" d="M156 276h4v4h-4z"/><path fill="#274238" d="M160 276h4v4h-4zM164 276h4v4h-4z"/><path fill="#254136" d="M168 276h4v4h-4z"/><path fill="#2B4B40" d="M172 276h4v4h-4z"/><path fill="#3D675A" d="M176 276h4v4h-4zM180 276h4v4h-4z"/><path fill="#2A453B" d="M184 276h4v4h-4z"/><path fill="#2C2526" d="M188 276h4v4h-4zM192 276h4v4h-4zM196 276h4v4h-4zM220 276h4v4h-4zM224 276h4v4h-4z"/><path fill="#2E4E43" d="M228 276h4v4h-4z"/><path fill="#396154" d="M232 276h4v4h-4z"/><path fill="#6FBAA0" d="M236 276h4v4h-4zM240 276h4v4h-4z"/><path fill="#4C7F6E" d="M244 276h4v4h-4z"/><path fill="#6FBAA0" d="M248 276h4v4h-4zM252 276h4v4h-4z"/><path fill="#4C7F6E" d="M256 276h4v4h-4zM260 276h4v4h-4z"/><path fill="#2C2526" d="M264 276h4v4h-4zM28 280h4v4h-4z"/><path fill="#4C7F6E" d="M32 280h4v4h-4zM36 280h4v4h-4z"/><path fill="#6FBAA0" d="M40 280h4v4h-4zM44 280h4v4h-4z"/><path fill="#56927D" d="M48 280h4v4h-4z"/><path fill="#6FBAA0" d="M52 280h4v4h-4zM56 280h4v4h-4zM60 280h4v4h-4zM64 280h4v4h-4z"/><path fill="#56927D" d="M68 280h4v4h-4z"/><path fill="#6FBAA0" d="M72 280h4v4h-4zM76 280h4v4h-4z"/><path fill="#375C4E" d="M80 280h4v4h-4z"/><path fill="#6FBAA0" d="M84 280h4v4h-4zM88 280h4v4h-4z"/><path fill="#4C7F6E" d="M92 280h4v4h-4zM96 280h4v4h-4z"/><path fill="#2C2526" d="M100 280h4v4h-4zM104 280h4v4h-4z"/><path fill="#2B4B40" d="M108 280h4v4h-4z"/><path fill="#2C493F" d="M112 280h4v4h-4z"/><path fill="#274238" d="M116 280h4v4h-4z"/><path fill="#2C2526" d="M120 280h4v4h-4z"/><path fill="#253E34" d="M124 280h4v4h-4z"/><path fill="#284339" d="M128 280h4v4h-4z"/><path fill="#274238" d="M132 280h4v4h-4zM136 280h4v4h-4z"/><path fill="#254136" d="M140 280h4v4h-4z"/><path fill="#244035" d="M144 280h4v4h-4zM148 280h4v4h-4zM152 280h4v4h-4z"/><path fill="#254136" d="M156 280h4v4h-4z"/><path fill="#253E34" d="M160 280h4v4h-4z"/><path fill="#2C2526" d="M164 280h4v4h-4z"/><path fill="#244035" d="M168 280h4v4h-4z"/><path fill="#2C2526" d="M172 280h4v4h-4zM176 280h4v4h-4zM180 280h4v4h-4zM184 280h4v4h-4zM228 280h4v4h-4zM232 280h4v4h-4zM236 280h4v4h-4z"/><path fill="#6FBAA0" d="M240 280h4v4h-4z"/><path fill="#2C2526" d="M244 280h4v4h-4zM248 280h4v4h-4zM252 280h4v4h-4zM256 280h4v4h-4zM260 280h4v4h-4zM32 284h4v4h-4z"/><path fill="#4C7F6E" d="M36 284h4v4h-4z"/><path fill="#6FBAA0" d="M40 284h4v4h-4zM44 284h4v4h-4z"/><path fill="#4C7F6E" d="M48 284h4v4h-4z"/><path fill="#6FBAA0" d="M52 284h4v4h-4zM56 284h4v4h-4zM60 284h4v4h-4zM64 284h4v4h-4z"/><path fill="#56927D" d="M68 284h4v4h-4z"/><path fill="#6FBAA0" d="M72 284h4v4h-4z"/><path fill="#80D6B8" d="M76 284h4v4h-4z"/><path fill="#325648" d="M80 284h4v4h-4z"/><path fill="#4C7F6E" d="M84 284h4v4h-4zM88 284h4v4h-4zM92 284h4v4h-4zM96 284h4v4h-4z"/><path fill="#2C2526" d="M100 284h4v4h-4zM104 284h4v4h-4z"/><path fill="#263F35" d="M108 284h4v4h-4z"/><path fill="#2C2526" d="M112 284h4v4h-4zM116 284h4v4h-4zM120 284h4v4h-4zM124 284h4v4h-4z"/><path fill="#254136" d="M128 284h4v4h-4zM132 284h4v4h-4zM136 284h4v4h-4z"/><path fill="#253E34" d="M140 284h4v4h-4z"/><path fill="#2C2526" d="M144 284h4v4h-4z"/><path fill="#263F35" d="M148 284h4v4h-4z"/><path fill="#244035" d="M152 284h4v4h-4zM156 284h4v4h-4z"/><path fill="#2C2526" d="M160 284h4v4h-4zM164 284h4v4h-4zM168 284h4v4h-4zM240 284h4v4h-4zM36 288h4v4h-4zM40 288h4v4h-4zM44 288h4v4h-4zM48 288h4v4h-4z"/><path fill="#254136" d="M52 288h4v4h-4z"/><path fill="#345749" d="M56 288h4v4h-4z"/><path fill="#2C493F" d="M60 288h4v4h-4z"/><path fill="#2C2526" d="M64 288h4v4h-4z"/><path fill="#244035" d="M68 288h4v4h-4zM72 288h4v4h-4z"/><path fill="#284339" d="M76 288h4v4h-4z"/><path fill="#2C2526" d="M80 288h4v4h-4zM84 288h4v4h-4zM88 288h4v4h-4zM92 288h4v4h-4zM96 288h4v4h-4zM100 288h4v4h-4zM104 288h4v4h-4zM108 288h4v4h-4zM112 288h4v4h-4zM116 288h4v4h-4zM120 288h4v4h-4zM124 288h4v4h-4zM128 288h4v4h-4z"/><path fill="#2D4A40" d="M132 288h4v4h-4z"/><path fill="#2F5042" d="M136 288h4v4h-4z"/><path fill="#2C2526" d="M140 288h4v4h-4zM144 288h4v4h-4zM148 288h4v4h-4zM152 288h4v4h-4zM156 288h4v4h-4zM44 292h4v4h-4zM48 292h4v4h-4zM52 292h4v4h-4zM56 292h4v4h-4zM60 292h4v4h-4zM64 292h4v4h-4zM68 292h4v4h-4zM72 292h4v4h-4zM76 292h4v4h-4zM80 292h4v4h-4zM84 292h4v4h-4zM88 292h4v4h-4zM92 292h4v4h-4zM96 292h4v4h-4zM100 292h4v4h-4zM104 292h4v4h-4zM108 292h4v4h-4zM112 292h4v4h-4z"/><path fill="#396154" d="M116 292h4v4h-4z"/><path fill="#2C2526" d="M120 292h4v4h-4zM124 292h4v4h-4zM128 292h4v4h-4zM132 292h4v4h-4zM136 292h4v4h-4zM52 296h4v4h-4zM56 296h4v4h-4zM60 296h4v4h-4zM64 296h4v4h-4zM68 296h4v4h-4zM72 296h4v4h-4zM76 296h4v4h-4zM80 296h4v4h-4zM84 296h4v4h-4zM88 296h4v4h-4zM92 296h4v4h-4zM96 296h4v4h-4zM100 296h4v4h-4zM104 296h4v4h-4zM108 296h4v4h-4zM112 296h4v4h-4zM116 296h4v4h-4z"/></svg>