<svg width="384" height="384" xmlns="http://www.w3.org/2000/svg" shape-rendering="crispEdges"><path fill="#526000" d="M164 216h4v4h-4zM168 216h4v4h-4zM280 216h4v4h-4zM164 220h4v4h-4z"/><path fill="#809115" opacity=".98" d="M168 220h4v4h-4z"/><path fill="#526000" d="M172 220h4v4h-4zM276 220h4v4h-4z"/><path fill="#809115" opacity=".98" d="M280 220h4v4h-4z"/><path fill="#526000" d="M284 220h4v4h-4zM164 224h4v4h-4z"/><path fill="#9DB707" d="M168 224h4v4h-4z"/><path fill="#526000" d="M172 224h4v4h-4zM276 224h4v4h-4z"/><path fill="#879514" d="M280 224h4v4h-4z"/><path fill="#526000" d="M284 224h4v4h-4zM164 228h4v4h-4z"/><path fill="#9DB707" d="M168 228h4v4h-4zM172 228h4v4h-4z"/><path fill="#526000" d="M176 228h4v4h-4zM180 228h4v4h-4zM268 228h4v4h-4zM272 228h4v4h-4z"/><path fill="#879514" d="M276 228h4v4h-4zM280 228h4v4h-4z"/><path fill="#526000" d="M284 228h4v4h-4zM296 228h4v4h-4zM144 232h4v4h-4zM164 232h4v4h-4z"/><path fill="#9DB707" d="M168 232h4v4h-4zM172 232h4v4h-4z"/><path fill="#526000" d="M176 232h4v4h-4zM180 232h4v4h-4zM268 232h4v4h-4zM272 232h4v4h-4z"/><path fill="#879514" d="M276 232h4v4h-4zM280 232h4v4h-4z"/><path fill="#526000" d="M284 232h4v4h-4zM288 232h4v4h-4zM292 232h4v4h-4z"/><path fill="#879514" d="M296 232h4v4h-4z"/><path fill="#526000" d="M300 232h4v4h-4zM136 236h4v4h-4zM140 236h4v4h-4z"/><path fill="#9DB707" d="M144 236h4v4h-4z"/><path fill="#526000" d="M148 236h4v4h-4zM152 236h4v4h-4zM164 236h4v4h-4z"/><path fill="#7E8F14" d="M168 236h4v4h-4z"/><path fill="#9DB707" d="M172 236h4v4h-4zM176 236h4v4h-4zM180 236h4v4h-4z"/><path fill="#526000" d="M184 236h4v4h-4zM268 236h4v4h-4zM272 236h4v4h-4z"/><path fill="#879514" d="M276 236h4v4h-4z"/><path fill="#7E8F14" d="M280 236h4v4h-4z"/><path fill="#809115" opacity=".98" d="M284 236h4v4h-4z"/><path fill="#526000" d="M288 236h4v4h-4zM292 236h4v4h-4z"/><path fill="#879514" d="M296 236h4v4h-4z"/><path fill="#526000" d="M300 236h4v4h-4zM136 240h4v4h-4zM140 240h4v4h-4z"/><path fill="#9DB707" d="M144 240h4v4h-4zM148 240h4v4h-4zM152 240h4v4h-4z"/><path fill="#526000" d="M156 240h4v4h-4zM160 240h4v4h-4zM164 240h4v4h-4z"/><path fill="#7E8F14" d="M168 240h4v4h-4z"/><path fill="#9DB707" d="M172 240h4v4h-4zM176 240h4v4h-4zM180 240h4v4h-4z"/><path fill="#A3B805" d="M184 240h4v4h-4z"/><path fill="#526000" d="M188 240h4v4h-4zM264 240h4v4h-4z"/><path fill="#879514" d="M268 240h4v4h-4zM272 240h4v4h-4z"/><path fill="#9DB707" d="M276 240h4v4h-4zM280 240h4v4h-4z"/><path fill="#7E8F14" d="M284 240h4v4h-4z"/><path fill="#879514" d="M288 240h4v4h-4zM292 240h4v4h-4z"/><path fill="#809115" d="M296 240h4v4h-4z"/><path fill="#526000" d="M300 240h4v4h-4zM144 244h4v4h-4zM148 244h4v4h-4z"/><path fill="#9DB707" d="M152 244h4v4h-4zM156 244h4v4h-4zM160 244h4v4h-4z"/><path fill="#9EB707" d="M164 244h4v4h-4z"/><path fill="#9DB707" d="M168 244h4v4h-4z"/><path fill="#9EB707" d="M172 244h4v4h-4z"/><path fill="#9DB707" d="M176 244h4v4h-4zM180 244h4v4h-4z"/><path fill="#A3B805" d="M184 244h4v4h-4zM188 244h4v4h-4z"/><path fill="#526000" d="M192 244h4v4h-4zM260 244h4v4h-4z"/><path fill="#889514" d="M264 244h4v4h-4z"/><path fill="#A0B805" d="M268 244h4v4h-4zM272 244h4v4h-4z"/><path fill="#9DB707" d="M276 244h4v4h-4z"/><path fill="#9EB707" d="M280 244h4v4h-4z"/><path fill="#9DB707" d="M284 244h4v4h-4zM288 244h4v4h-4zM292 244h4v4h-4z"/><path fill="#526000" d="M296 244h4v4h-4zM148 248h4v4h-4z"/><path fill="#7E8F14" d="M152 248h4v4h-4z"/><path fill="#8A9710" d="M156 248h4v4h-4zM160 248h4v4h-4z"/><path fill="#9DB707" d="M164 248h4v4h-4z"/><path fill="#A3B805" d="M168 248h4v4h-4zM172 248h4v4h-4z"/><path fill="#859415" d="M176 248h4v4h-4zM180 248h4v4h-4zM184 248h4v4h-4z"/><path fill="#A3B805" d="M188 248h4v4h-4zM192 248h4v4h-4z"/><path fill="#526000" d="M196 248h4v4h-4zM200 248h4v4h-4zM260 248h4v4h-4z"/><path fill="#889514" d="M264 248h4v4h-4z"/><path fill="#A3B805" d="M268 248h4v4h-4zM272 248h4v4h-4zM276 248h4v4h-4z"/><path fill="#859415" d="M280 248h4v4h-4z"/><path fill="#9DB707" d="M284 248h4v4h-4z"/><path fill="#7E8F14" d="M288 248h4v4h-4zM292 248h4v4h-4z"/><path fill="#526000" d="M296 248h4v4h-4zM148 252h4v4h-4zM152 252h4v4h-4z"/><path fill="#9DB707" d="M156 252h4v4h-4zM160 252h4v4h-4z"/><path fill="#A0B805" d="M164 252h4v4h-4z"/><path fill="#A3B805" d="M168 252h4v4h-4zM172 252h4v4h-4z"/><path fill="#859415" d="M176 252h4v4h-4zM180 252h4v4h-4z"/><path fill="#A3B805" d="M184 252h4v4h-4z"/><path fill="#859415" d="M188 252h4v4h-4z"/><path fill="#A3B805" d="M192 252h4v4h-4zM196 252h4v4h-4zM200 252h4v4h-4z"/><path fill="#526000" d="M204 252h4v4h-4zM256 252h4v4h-4z"/><path fill="#889514" d="M260 252h4v4h-4z"/><path fill="#A3B805" d="M264 252h4v4h-4zM268 252h4v4h-4zM272 252h4v4h-4z"/><path fill="#859415" d="M276 252h4v4h-4zM280 252h4v4h-4z"/><path fill="#A3B805" d="M284 252h4v4h-4z"/><path fill="#526000" d="M288 252h4v4h-4zM292 252h4v4h-4zM296 252h4v4h-4zM300 252h4v4h-4zM136 256h4v4h-4zM140 256h4v4h-4zM144 256h4v4h-4z"/><path fill="#9DB707" d="M148 256h4v4h-4zM152 256h4v4h-4z"/><path fill="#A0B805" d="M156 256h4v4h-4zM160 256h4v4h-4z"/><path fill="#A3B805" d="M164 256h4v4h-4z"/><path fill="#A0B805" d="M168 256h4v4h-4z"/><path fill="#A3B805" d="M172 256h4v4h-4z"/><path fill="#859415" d="M176 256h4v4h-4zM180 256h4v4h-4z"/><path fill="#A3B805" d="M184 256h4v4h-4zM188 256h4v4h-4zM192 256h4v4h-4zM196 256h4v4h-4zM200 256h4v4h-4z"/><path fill="#526000" d="M204 256h4v4h-4zM256 256h4v4h-4z"/><path fill="#889514" d="M260 256h4v4h-4z"/><path fill="#A3B805" d="M264 256h4v4h-4z"/><path fill="#859415" d="M268 256h4v4h-4zM272 256h4v4h-4z"/><path fill="#A3B805" d="M276 256h4v4h-4z"/><path fill="#859415" d="M280 256h4v4h-4z"/><path fill="#A0B805" d="M284 256h4v4h-4z"/><path fill="#9DB707" d="M288 256h4v4h-4zM292 256h4v4h-4zM296 256h4v4h-4z"/><path fill="#809115" opacity=".98" d="M300 256h4v4h-4z"/><path fill="#595D2D" d="M312 256h4v4h-4z"/><path fill="#526000" d="M132 260h4v4h-4z"/><path fill="#809115" opacity=".98" d="M136 260h4v4h-4zM140 260h4v4h-4z"/><path fill="#8A9710" d="M144 260h4v4h-4zM148 260h4v4h-4z"/><path fill="#849415" d="M152 260h4v4h-4z"/><path fill="#8B9610" d="M156 260h4v4h-4zM160 260h4v4h-4z"/><path fill="#8B9710" d="M164 260h4v4h-4z"/><path fill="#A3B805" d="M168 260h4v4h-4zM172 260h4v4h-4zM176 260h4v4h-4zM180 260h4v4h-4zM184 260h4v4h-4zM188 260h4v4h-4z"/><path fill="#9EB707" d="M192 260h4v4h-4z"/><path fill="#889514" d="M196 260h4v4h-4zM200 260h4v4h-4z"/><path fill="#526000" d="M204 260h4v4h-4zM256 260h4v4h-4z"/><path fill="#889514" d="M260 260h4v4h-4z"/><path fill="#A3B805" d="M264 260h4v4h-4zM268 260h4v4h-4zM272 260h4v4h-4zM276 260h4v4h-4zM280 260h4v4h-4zM284 260h4v4h-4z"/><path fill="#849415" d="M288 260h4v4h-4zM292 260h4v4h-4z"/><path fill="#9DB707" d="M296 260h4v4h-4z"/><path fill="#526000" d="M300 260h4v4h-4z"/><path fill="#595D2D" d="M304 260h4v4h-4zM308 260h4v4h-4zM312 260h4v4h-4zM124 264h4v4h-4z"/><path fill="#526000" d="M136 264h4v4h-4zM140 264h4v4h-4zM144 264h4v4h-4z"/><path fill="#8A9710" d="M148 264h4v4h-4z"/><path fill="#859415" d="M152 264h4v4h-4z"/><path fill="#8B9610" d="M156 264h4v4h-4zM160 264h4v4h-4z"/><path fill="#889514" d="M164 264h4v4h-4zM168 264h4v4h-4z"/><path fill="#A3B805" d="M172 264h4v4h-4z"/><path fill="#C5D836" d="M176 264h4v4h-4zM180 264h4v4h-4z"/><path fill="#A3B805" d="M184 264h4v4h-4zM188 264h4v4h-4z"/><path fill="#859415" d="M192 264h4v4h-4zM196 264h4v4h-4zM200 264h4v4h-4z"/><path fill="#526000" d="M204 264h4v4h-4zM256 264h4v4h-4z"/><path fill="#859415" d="M260 264h4v4h-4z"/><path fill="#839216" d="M264 264h4v4h-4z"/><path fill="#A3B805" d="M268 264h4v4h-4zM272 264h4v4h-4zM276 264h4v4h-4z"/><path fill="#C5D836" d="M280 264h4v4h-4zM284 264h4v4h-4z"/><path fill="#859415" d="M288 264h4v4h-4zM292 264h4v4h-4z"/><path fill="#526000" d="M296 264h4v4h-4z"/><path fill="#595D2D" d="M300 264h4v4h-4zM304 264h4v4h-4zM308 264h4v4h-4zM312 264h4v4h-4zM124 268h4v4h-4zM128 268h4v4h-4z"/><path fill="#526000" d="M148 268h4v4h-4zM152 268h4v4h-4z"/><path fill="#889514" d="M156 268h4v4h-4zM160 268h4v4h-4z"/><path fill="#C5D836" d="M164 268h4v4h-4zM168 268h4v4h-4z"/><path fill="#889514" d="M172 268h4v4h-4zM176 268h4v4h-4zM180 268h4v4h-4zM184 268h4v4h-4zM188 268h4v4h-4z"/><path fill="#859415" d="M192 268h4v4h-4zM196 268h4v4h-4zM200 268h4v4h-4z"/><path fill="#526000" d="M204 268h4v4h-4zM260 268h4v4h-4z"/><path fill="#809114" d="M264 268h4v4h-4z"/><path fill="#839216" d="M268 268h4v4h-4zM272 268h4v4h-4z"/><path fill="#A3B805" d="M276 268h4v4h-4z"/><path fill="#889514" d="M280 268h4v4h-4zM284 268h4v4h-4zM288 268h4v4h-4zM292 268h4v4h-4zM296 268h4v4h-4zM300 268h4v4h-4z"/><path fill="#595D2D" d="M304 268h4v4h-4z"/><path fill="#526000" d="M308 268h4v4h-4zM312 268h4v4h-4z"/><path fill="#595D2D" d="M124 272h4v4h-4zM128 272h4v4h-4zM132 272h4v4h-4zM136 272h4v4h-4zM140 272h4v4h-4zM144 272h4v4h-4z"/><path fill="#A3B805" d="M152 272h4v4h-4zM156 272h4v4h-4zM160 272h4v4h-4zM164 272h4v4h-4zM168 272h4v4h-4zM172 272h4v4h-4zM176 272h4v4h-4zM180 272h4v4h-4zM184 272h4v4h-4z"/><path fill="#859415" d="M188 272h4v4h-4z"/><path fill="#839216" d="M192 272h4v4h-4z"/><path fill="#526000" d="M196 272h4v4h-4zM200 272h4v4h-4zM264 272h4v4h-4z"/><path fill="#839216" d="M268 272h4v4h-4zM272 272h4v4h-4z"/><path fill="#889514" d="M276 272h4v4h-4zM280 272h4v4h-4z"/><path fill="#C5D836" d="M284 272h4v4h-4zM288 272h4v4h-4zM292 272h4v4h-4z"/><path fill="#A3B805" d="M296 272h4v4h-4zM300 272h4v4h-4z"/><path fill="#526000" d="M304 272h4v4h-4z"/><path fill="#879415" d="M308 272h4v4h-4zM312 272h4v4h-4z"/><path fill="#595D2D" d="M128 276h4v4h-4zM132 276h4v4h-4zM136 276h4v4h-4z"/><path fill="#8B9610" d="M140 276h4v4h-4zM144 276h4v4h-4z"/><path fill="#A3B805" d="M148 276h4v4h-4zM152 276h4v4h-4zM156 276h4v4h-4z"/><path fill="#C5D836" d="M160 276h4v4h-4zM164 276h4v4h-4zM168 276h4v4h-4z"/><path fill="#A3B805" d="M172 276h4v4h-4zM176 276h4v4h-4zM180 276h4v4h-4zM184 276h4v4h-4z"/><path fill="#9EB707" d="M188 276h4v4h-4z"/><path fill="#839216" d="M192 276h4v4h-4z"/><path fill="#526000" d="M196 276h4v4h-4zM200 276h4v4h-4zM268 276h4v4h-4zM272 276h4v4h-4z"/><path fill="#859415" d="M276 276h4v4h-4z"/><path fill="#A3B805" d="M280 276h4v4h-4zM284 276h4v4h-4z"/><path fill="#9EB707" d="M288 276h4v4h-4zM292 276h4v4h-4z"/><path fill="#8B9610" d="M296 276h4v4h-4zM300 276h4v4h-4zM304 276h4v4h-4z"/><path fill="#595D2D" d="M308 276h4v4h-4zM312 276h4v4h-4zM320 276h4v4h-4zM132 280h4v4h-4z"/><path fill="#8B9610" d="M136 280h4v4h-4zM140 280h4v4h-4z"/><path fill="#A3B805" d="M144 280h4v4h-4zM148 280h4v4h-4zM152 280h4v4h-4zM156 280h4v4h-4zM160 280h4v4h-4z"/><path fill="#C5D836" d="M164 280h4v4h-4zM168 280h4v4h-4zM172 280h4v4h-4z"/><path fill="#A3B805" d="M176 280h4v4h-4zM180 280h4v4h-4zM184 280h4v4h-4z"/><path fill="#9EB707" d="M188 280h4v4h-4z"/><path fill="#526000" d="M192 280h4v4h-4zM268 280h4v4h-4z"/><path fill="#595D2D" d="M272 280h4v4h-4z"/><path fill="#8B9610" d="M276 280h4v4h-4zM280 280h4v4h-4z"/><path fill="#A3B805" d="M284 280h4v4h-4z"/><path fill="#C5D836" d="M288 280h4v4h-4z"/><path fill="#A3B805" d="M292 280h4v4h-4zM296 280h4v4h-4zM300 280h4v4h-4z"/><path fill="#8B9610" d="M304 280h4v4h-4zM308 280h4v4h-4z"/><path fill="#595D2D" d="M312 280h4v4h-4zM316 280h4v4h-4zM320 280h4v4h-4zM120 284h4v4h-4zM132 284h4v4h-4z"/><path fill="#8B9610" d="M136 284h4v4h-4z"/><path fill="#A3B805" d="M140 284h4v4h-4zM144 284h4v4h-4zM148 284h4v4h-4zM152 284h4v4h-4zM156 284h4v4h-4zM160 284h4v4h-4zM164 284h4v4h-4zM168 284h4v4h-4zM172 284h4v4h-4zM176 284h4v4h-4zM180 284h4v4h-4zM184 284h4v4h-4z"/><path fill="#8B9610" d="M188 284h4v4h-4zM192 284h4v4h-4z"/><path fill="#595D2D" d="M196 284h4v4h-4zM268 284h4v4h-4z"/><path fill="#8B9610" d="M272 284h4v4h-4z"/><path fill="#A3B805" d="M276 284h4v4h-4zM280 284h4v4h-4zM284 284h4v4h-4zM288 284h4v4h-4zM292 284h4v4h-4zM296 284h4v4h-4zM300 284h4v4h-4zM304 284h4v4h-4z"/><path fill="#8B9610" d="M308 284h4v4h-4z"/><path fill="#595D2D" d="M312 284h4v4h-4zM316 284h4v4h-4zM320 284h4v4h-4zM120 288h4v4h-4zM124 288h4v4h-4zM128 288h4v4h-4z"/><path fill="#8B9610" d="M132 288h4v4h-4z"/><path fill="#A3B805" d="M136 288h4v4h-4zM140 288h4v4h-4z"/><path fill="#C5D836" d="M144 288h4v4h-4zM148 288h4v4h-4z"/><path fill="#A3B805" d="M152 288h4v4h-4zM156 288h4v4h-4zM160 288h4v4h-4zM164 288h4v4h-4zM168 288h4v4h-4zM172 288h4v4h-4zM176 288h4v4h-4zM180 288h4v4h-4zM184 288h4v4h-4zM188 288h4v4h-4zM192 288h4v4h-4zM196 288h4v4h-4z"/><path fill="#595D2D" d="M200 288h4v4h-4zM264 288h4v4h-4z"/><path fill="#8B9610" d="M268 288h4v4h-4z"/><path fill="#A3B805" d="M272 288h4v4h-4zM276 288h4v4h-4zM280 288h4v4h-4zM284 288h4v4h-4zM288 288h4v4h-4z"/><path fill="#595D2D" d="M292 288h4v4h-4z"/><path fill="#A3B805" d="M296 288h4v4h-4zM300 288h4v4h-4zM304 288h4v4h-4zM308 288h4v4h-4z"/><path fill="#8B9610" d="M312 288h4v4h-4z"/><path fill="#595D2D" d="M316 288h4v4h-4zM120 292h4v4h-4zM124 292h4v4h-4zM128 292h4v4h-4z"/><path fill="#8B9610" d="M132 292h4v4h-4z"/><path fill="#A3B805" d="M136 292h4v4h-4zM140 292h4v4h-4zM144 292h4v4h-4zM148 292h4v4h-4zM152 292h4v4h-4zM156 292h4v4h-4z"/><path fill="#595D2D" d="M160 292h4v4h-4z"/><path fill="#C5D836" d="M164 292h4v4h-4zM168 292h4v4h-4zM172 292h4v4h-4z"/><path fill="#A3B805" d="M176 292h4v4h-4zM180 292h4v4h-4zM184 292h4v4h-4z"/><path fill="#C5D836" d="M188 292h4v4h-4zM192 292h4v4h-4z"/><path fill="#A3B805" d="M196 292h4v4h-4zM200 292h4v4h-4z"/><path fill="#595D2D" d="M204 292h4v4h-4zM260 292h4v4h-4z"/><path fill="#8B9610" d="M264 292h4v4h-4zM268 292h4v4h-4z"/><path fill="#A3B805" d="M272 292h4v4h-4zM276 292h4v4h-4zM280 292h4v4h-4z"/><path fill="#C5D836" d="M284 292h4v4h-4zM288 292h4v4h-4z"/><path fill="#595D2D" d="M292 292h4v4h-4zM296 292h4v4h-4z"/><path fill="#A3B805" d="M300 292h4v4h-4zM304 292h4v4h-4zM308 292h4v4h-4zM312 292h4v4h-4z"/><path fill="#8B9610" d="M316 292h4v4h-4z"/><path fill="#595D2D" d="M320 292h4v4h-4zM124 296h4v4h-4zM128 296h4v4h-4z"/><path fill="#8B9610" d="M132 296h4v4h-4z"/><path fill="#A3B805" d="M136 296h4v4h-4zM140 296h4v4h-4zM144 296h4v4h-4zM148 296h4v4h-4zM152 296h4v4h-4zM156 296h4v4h-4z"/><path fill="#595D2D" d="M160 296h4v4h-4zM164 296h4v4h-4zM168 296h4v4h-4zM172 296h4v4h-4z"/><path fill="#C5D836" d="M176 296h4v4h-4z"/><path fill="#A3B805" d="M180 296h4v4h-4zM184 296h4v4h-4zM188 296h4v4h-4zM192 296h4v4h-4zM196 296h4v4h-4zM200 296h4v4h-4z"/><path fill="#595D2D" d="M204 296h4v4h-4zM260 296h4v4h-4z"/><path fill="#8B9610" d="M264 296h4v4h-4z"/><path fill="#A3B805" d="M268 296h4v4h-4zM272 296h4v4h-4zM276 296h4v4h-4z"/><path fill="#595D2D" d="M280 296h4v4h-4zM284 296h4v4h-4zM288 296h4v4h-4z"/><path fill="#C5D836" d="M292 296h4v4h-4zM296 296h4v4h-4zM300 296h4v4h-4z"/><path fill="#A3B805" d="M304 296h4v4h-4zM308 296h4v4h-4zM312 296h4v4h-4z"/><path fill="#8B9610" d="M316 296h4v4h-4z"/><path fill="#595D2D" d="M320 296h4v4h-4zM124 300h4v4h-4z"/><path fill="#8B9610" d="M128 300h4v4h-4zM132 300h4v4h-4z"/><path fill="#A3B805" d="M136 300h4v4h-4zM140 300h4v4h-4zM144 300h4v4h-4zM148 300h4v4h-4zM152 300h4v4h-4zM156 300h4v4h-4z"/><path fill="#595D2D" d="M160 300h4v4h-4zM164 300h4v4h-4z"/><path fill="#8B9610" d="M168 300h4v4h-4z"/><path fill="#C5D836" d="M172 300h4v4h-4z"/><path fill="#A3B805" d="M176 300h4v4h-4zM180 300h4v4h-4zM184 300h4v4h-4zM188 300h4v4h-4zM192 300h4v4h-4zM196 300h4v4h-4zM200 300h4v4h-4z"/><path fill="#8B9610" d="M204 300h4v4h-4z"/><path fill="#595D2D" d="M208 300h4v4h-4zM260 300h4v4h-4z"/><path fill="#8B9610" d="M264 300h4v4h-4z"/><path fill="#A3B805" d="M268 300h4v4h-4zM272 300h4v4h-4z"/><path fill="#595D2D" d="M276 300h4v4h-4zM280 300h4v4h-4z"/><path fill="#8B9610" d="M284 300h4v4h-4zM288 300h4v4h-4zM292 300h4v4h-4z"/><path fill="#A3B805" d="M296 300h4v4h-4zM300 300h4v4h-4zM304 300h4v4h-4zM308 300h4v4h-4zM312 300h4v4h-4z"/><path fill="#8B9610" d="M316 300h4v4h-4z"/><path fill="#595D2D" d="M320 300h4v4h-4zM124 304h4v4h-4z"/><path fill="#8B9610" d="M128 304h4v4h-4zM132 304h4v4h-4z"/><path fill="#A3B805" d="M136 304h4v4h-4z"/><path fill="#8B9610" d="M140 304h4v4h-4z"/><path fill="#A3B805" d="M144 304h4v4h-4zM148 304h4v4h-4zM152 304h4v4h-4z"/><path fill="#595D2D" d="M156 304h4v4h-4z"/><path fill="#8B9610" d="M160 304h4v4h-4zM164 304h4v4h-4zM168 304h4v4h-4z"/><path fill="#A3B805" d="M172 304h4v4h-4zM176 304h4v4h-4zM180 304h4v4h-4zM184 304h4v4h-4zM188 304h4v4h-4zM192 304h4v4h-4zM196 304h4v4h-4zM200 304h4v4h-4z"/><path fill="#8B9610" d="M204 304h4v4h-4z"/><path fill="#595D2D" d="M208 304h4v4h-4zM260 304h4v4h-4z"/><path fill="#8B9610" d="M264 304h4v4h-4zM268 304h4v4h-4z"/><path fill="#A3B805" d="M272 304h4v4h-4zM276 304h4v4h-4zM280 304h4v4h-4z"/><path fill="#595D2D" d="M284 304h4v4h-4zM288 304h4v4h-4z"/><path fill="#8B9610" d="M292 304h4v4h-4zM296 304h4v4h-4z"/><path fill="#A3B805" d="M300 304h4v4h-4zM304 304h4v4h-4zM308 304h4v4h-4zM312 304h4v4h-4z"/><path fill="#8B9610" d="M316 304h4v4h-4z"/><path fill="#595D2D" d="M320 304h4v4h-4zM124 308h4v4h-4z"/><path fill="#8B9610" d="M128 308h4v4h-4zM132 308h4v4h-4zM136 308h4v4h-4z"/><path fill="#A3B805" d="M140 308h4v4h-4zM144 308h4v4h-4zM148 308h4v4h-4zM152 308h4v4h-4zM156 308h4v4h-4z"/><path fill="#595D2D" d="M160 308h4v4h-4z"/><path fill="#8B9610" d="M164 308h4v4h-4zM168 308h4v4h-4z"/><path fill="#A3B805" d="M172 308h4v4h-4z"/><path fill="#C5D836" d="M176 308h4v4h-4zM180 308h4v4h-4zM184 308h4v4h-4z"/><path fill="#A3B805" d="M188 308h4v4h-4zM192 308h4v4h-4z"/><path fill="#8B9610" d="M196 308h4v4h-4zM200 308h4v4h-4zM204 308h4v4h-4z"/><path fill="#595D2D" d="M208 308h4v4h-4zM260 308h4v4h-4z"/><path fill="#8B9610" d="M264 308h4v4h-4z"/><path fill="#A3B805" d="M268 308h4v4h-4zM272 308h4v4h-4zM276 308h4v4h-4zM280 308h4v4h-4zM284 308h4v4h-4zM288 308h4v4h-4z"/><path fill="#595D2D" d="M292 308h4v4h-4zM296 308h4v4h-4z"/><path fill="#C5D836" d="M300 308h4v4h-4z"/><path fill="#A3B805" d="M304 308h4v4h-4zM308 308h4v4h-4zM312 308h4v4h-4z"/><path fill="#8B9610" d="M316 308h4v4h-4z"/><path fill="#595D2D" d="M320 308h4v4h-4zM124 312h4v4h-4z"/><path fill="#8B9610" d="M128 312h4v4h-4zM132 312h4v4h-4zM136 312h4v4h-4z"/><path fill="#A3B805" d="M140 312h4v4h-4zM144 312h4v4h-4zM148 312h4v4h-4zM152 312h4v4h-4zM156 312h4v4h-4z"/><path fill="#C5D836" d="M160 312h4v4h-4z"/><path fill="#595D2D" d="M164 312h4v4h-4zM168 312h4v4h-4zM172 312h4v4h-4zM176 312h4v4h-4zM180 312h4v4h-4zM184 312h4v4h-4z"/><path fill="#A3B805" d="M188 312h4v4h-4zM192 312h4v4h-4zM196 312h4v4h-4z"/><path fill="#8B9610" d="M200 312h4v4h-4zM204 312h4v4h-4z"/><path fill="#595D2D" d="M208 312h4v4h-4zM264 312h4v4h-4z"/><path fill="#A3B805" d="M268 312h4v4h-4zM272 312h4v4h-4zM276 312h4v4h-4z"/><path fill="#C5D836" d="M280 312h4v4h-4zM284 312h4v4h-4zM288 312h4v4h-4z"/><path fill="#8B9610" d="M292 312h4v4h-4zM296 312h4v4h-4z"/><path fill="#595D2D" d="M300 312h4v4h-4z"/><path fill="#C5D836" d="M304 312h4v4h-4z"/><path fill="#A3B805" d="M308 312h4v4h-4zM312 312h4v4h-4z"/><path fill="#8B9610" d="M316 312h4v4h-4z"/><path fill="#595D2D" d="M320 312h4v4h-4zM128 316h4v4h-4z"/><path fill="#8B9610" d="M132 316h4v4h-4zM136 316h4v4h-4z"/><path fill="#A3B805" d="M140 316h4v4h-4zM144 316h4v4h-4zM148 316h4v4h-4z"/><path fill="#8B9610" d="M152 316h4v4h-4z"/><path fill="#A3B805" d="M156 316h4v4h-4zM160 316h4v4h-4z"/><path fill="#C5D836" d="M164 316h4v4h-4zM168 316h4v4h-4z"/><path fill="#8B9610" d="M172 316h4v4h-4zM176 316h4v4h-4zM180 316h4v4h-4z"/><path fill="#595D2D" d="M184 316h4v4h-4zM188 316h4v4h-4z"/><path fill="#A3B805" d="M192 316h4v4h-4zM196 316h4v4h-4zM200 316h4v4h-4z"/><path fill="#8B9610" d="M204 316h4v4h-4z"/><path fill="#595D2D" d="M208 316h4v4h-4zM264 316h4v4h-4z"/><path fill="#8B9610" d="M268 316h4v4h-4z"/><path fill="#A3B805" d="M272 316h4v4h-4z"/><path fill="#8B9610" d="M276 316h4v4h-4zM280 316h4v4h-4zM284 316h4v4h-4z"/><path fill="#595D2D" d="M288 316h4v4h-4zM292 316h4v4h-4zM296 316h4v4h-4z"/><path fill="#A3B805" d="M300 316h4v4h-4zM304 316h4v4h-4zM308 316h4v4h-4zM312 316h4v4h-4z"/><path fill="#595D2D" d="M316 316h4v4h-4zM132 320h4v4h-4z"/><path fill="#8B9610" d="M136 320h4v4h-4zM140 320h4v4h-4z"/><path fill="#A3B805" d="M144 320h4v4h-4z"/><path fill="#8B9610" d="M148 320h4v4h-4z"/><path fill="#A3B805" d="M152 320h4v4h-4zM156 320h4v4h-4zM160 320h4v4h-4zM164 320h4v4h-4zM168 320h4v4h-4zM172 320h4v4h-4z"/><path fill="#8B9610" d="M176 320h4v4h-4z"/><path fill="#595D2D" d="M180 320h4v4h-4z"/><path fill="#A3B805" d="M184 320h4v4h-4zM188 320h4v4h-4zM192 320h4v4h-4zM196 320h4v4h-4zM200 320h4v4h-4z"/><path fill="#8B9610" d="M204 320h4v4h-4z"/><path fill="#595D2D" d="M208 320h4v4h-4zM264 320h4v4h-4z"/><path fill="#8B9610" d="M268 320h4v4h-4zM272 320h4v4h-4z"/><path fill="#595D2D" d="M276 320h4v4h-4zM280 320h4v4h-4zM284 320h4v4h-4z"/><path fill="#C5D836" d="M288 320h4v4h-4zM292 320h4v4h-4zM296 320h4v4h-4z"/><path fill="#A3B805" d="M300 320h4v4h-4zM304 320h4v4h-4z"/><path fill="#8B9610" d="M308 320h4v4h-4zM312 320h4v4h-4z"/><path fill="#595D2D" d="M316 320h4v4h-4zM136 324h4v4h-4z"/><path fill="#8B9610" d="M140 324h4v4h-4zM144 324h4v4h-4zM148 324h4v4h-4z"/><path fill="#A3B805" d="M152 324h4v4h-4zM156 324h4v4h-4zM160 324h4v4h-4zM164 324h4v4h-4zM168 324h4v4h-4zM172 324h4v4h-4z"/><path fill="#595D2D" d="M176 324h4v4h-4z"/><path fill="#8B9610" d="M180 324h4v4h-4z"/><path fill="#C5D836" d="M184 324h4v4h-4z"/><path fill="#A3B805" d="M188 324h4v4h-4zM192 324h4v4h-4zM196 324h4v4h-4z"/><path fill="#8B9610" d="M200 324h4v4h-4z"/><path fill="#595D2D" d="M204 324h4v4h-4zM268 324h4v4h-4z"/><path fill="#8B9610" d="M272 324h4v4h-4zM276 324h4v4h-4z"/><path fill="#595D2D" d="M280 324h4v4h-4z"/><path fill="#8B9610" d="M284 324h4v4h-4zM288 324h4v4h-4zM292 324h4v4h-4zM296 324h4v4h-4zM300 324h4v4h-4zM304 324h4v4h-4zM308 324h4v4h-4z"/><path fill="#595D2D" d="M312 324h4v4h-4zM140 328h4v4h-4z"/><path fill="#8B9610" d="M144 328h4v4h-4zM148 328h4v4h-4zM152 328h4v4h-4z"/><path fill="#A3B805" d="M156 328h4v4h-4zM160 328h4v4h-4zM164 328h4v4h-4zM168 328h4v4h-4z"/><path fill="#595D2D" d="M172 328h4v4h-4zM176 328h4v4h-4zM180 328h4v4h-4zM184 328h4v4h-4z"/><path fill="#A3B805" d="M188 328h4v4h-4zM192 328h4v4h-4zM196 328h4v4h-4z"/><path fill="#8B9610" d="M200 328h4v4h-4z"/><path fill="#595D2D" d="M204 328h4v4h-4zM268 328h4v4h-4z"/><path fill="#8B9610" d="M272 328h4v4h-4zM276 328h4v4h-4zM280 328h4v4h-4z"/><path fill="#595D2D" d="M284 328h4v4h-4z"/><path fill="#8B9610" d="M288 328h4v4h-4zM292 328h4v4h-4zM296 328h4v4h-4zM300 328h4v4h-4zM304 328h4v4h-4z"/><path fill="#595D2D" d="M308 328h4v4h-4zM144 332h4v4h-4z"/><path fill="#8B9610" d="M148 332h4v4h-4zM152 332h4v4h-4zM156 332h4v4h-4zM160 332h4v4h-4zM164 332h4v4h-4zM168 332h4v4h-4z"/><path fill="#A3B805" d="M172 332h4v4h-4z"/><path fill="#8B9610" d="M176 332h4v4h-4zM180 332h4v4h-4zM184 332h4v4h-4z"/><path fill="#595D2D" d="M188 332h4v4h-4z"/><path fill="#A3B805" d="M192 332h4v4h-4zM196 332h4v4h-4z"/><path fill="#8B9610" d="M200 332h4v4h-4z"/><path fill="#595D2D" d="M204 332h4v4h-4zM268 332h4v4h-4z"/><path fill="#8B9610" d="M272 332h4v4h-4zM276 332h4v4h-4zM280 332h4v4h-4z"/><path fill="#595D2D" d="M284 332h4v4h-4zM288 332h4v4h-4z"/><path fill="#8B9610" d="M292 332h4v4h-4zM296 332h4v4h-4zM300 332h4v4h-4z"/><path fill="#595D2D" d="M304 332h4v4h-4zM148 336h4v4h-4z"/><path fill="#8B9610" d="M152 336h4v4h-4zM156 336h4v4h-4zM160 336h4v4h-4zM164 336h4v4h-4zM168 336h4v4h-4zM172 336h4v4h-4zM176 336h4v4h-4zM180 336h4v4h-4z"/><path fill="#595D2D" d="M184 336h4v4h-4z"/><path fill="#8B9610" d="M188 336h4v4h-4zM192 336h4v4h-4zM196 336h4v4h-4zM200 336h4v4h-4z"/><path fill="#595D2D" d="M204 336h4v4h-4zM272 336h4v4h-4z"/><path fill="#8B9610" d="M276 336h4v4h-4z"/><path fill="#595D2D" d="M280 336h4v4h-4z"/><path fill="#8B9610" d="M284 336h4v4h-4zM288 336h4v4h-4zM292 336h4v4h-4z"/><path fill="#595D2D" d="M296 336h4v4h-4zM300 336h4v4h-4zM152 340h4v4h-4zM156 340h4v4h-4z"/><path fill="#8B9610" d="M160 340h4v4h-4zM164 340h4v4h-4zM168 340h4v4h-4zM172 340h4v4h-4zM176 340h4v4h-4zM180 340h4v4h-4z"/><path fill="#595D2D" d="M184 340h4v4h-4z"/><path fill="#8B9610" d="M188 340h4v4h-4zM192 340h4v4h-4zM196 340h4v4h-4zM200 340h4v4h-4z"/><path fill="#595D2D" d="M204 340h4v4h-4zM276 340h4v4h-4zM284 340h4v4h-4zM288 340h4v4h-4zM292 340h4v4h-4zM160 344h4v4h-4zM164 344h4v4h-4z"/><path fill="#8B9610" d="M168 344h4v4h-4zM172 344h4v4h-4zM176 344h4v4h-4zM180 344h4v4h-4z"/><path fill="#595D2D" d="M184 344h4v4h-4zM188 344h4v4h-4z"/><path fill="#8B9610" d="M192 344h4v4h-4zM196 344h4v4h-4z"/><path fill="#595D2D" d="M200 344h4v4h-4zM168 348h4v4h-4zM172 348h4v4h-4zM176 348h4v4h-4zM180 348h4v4h-4zM192 348h4v4h-4zM196 348h4v4h-4z"/></svg>