<?xml version="1.0" encoding="UTF-8" ?>
<svg version="1.1" width="384" height="384" xmlns="http://www.w3.org/2000/svg" shape-rendering="crispEdges">
<rect x="160" y="256" width="4" height="4" fill="#B01249" />
<rect x="164" y="256" width="4" height="4" fill="#B01249" />
<rect x="168" y="256" width="4" height="4" fill="#B01249" />
<rect x="172" y="256" width="4" height="4" fill="#B01249" />
<rect x="176" y="256" width="4" height="4" fill="#B01249" />
<rect x="156" y="260" width="4" height="4" fill="#B01249" />
<rect x="160" y="260" width="4" height="4" fill="#FA4452" />
<rect x="164" y="260" width="4" height="4" fill="#FA4452" />
<rect x="168" y="260" width="4" height="4" fill="#FA4452" />
<rect x="172" y="260" width="4" height="4" fill="#FA4452" />
<rect x="176" y="260" width="4" height="4" fill="#FA4452" />
<rect x="180" y="260" width="4" height="4" fill="#B01249" />
<rect x="184" y="260" width="4" height="4" fill="#B01249" />
<rect x="272" y="260" width="4" height="4" fill="#B01249" />
<rect x="276" y="260" width="4" height="4" fill="#B01249" />
<rect x="152" y="264" width="4" height="4" fill="#B01249" />
<rect x="156" y="264" width="4" height="4" fill="#FA4452" />
<rect x="160" y="264" width="4" height="4" fill="#FA4452" />
<rect x="164" y="264" width="4" height="4" fill="#FA4452" />
<rect x="168" y="264" width="4" height="4" fill="#FA4452" />
<rect x="172" y="264" width="4" height="4" fill="#FA4452" />
<rect x="176" y="264" width="4" height="4" fill="#FA4452" />
<rect x="180" y="264" width="4" height="4" fill="#FA4452" />
<rect x="184" y="264" width="4" height="4" fill="#FA4452" />
<rect x="188" y="264" width="4" height="4" fill="#B01249" />
<rect x="268" y="264" width="4" height="4" fill="#B01249" />
<rect x="272" y="264" width="4" height="4" fill="#FA4452" />
<rect x="276" y="264" width="4" height="4" fill="#FA4452" />
<rect x="280" y="264" width="4" height="4" fill="#B01249" />
<rect x="148" y="268" width="4" height="4" fill="#B01249" />
<rect x="152" y="268" width="4" height="4" fill="#FA4452" />
<rect x="156" y="268" width="4" height="4" fill="#FA4452" />
<rect x="160" y="268" width="4" height="4" fill="#FA4452" />
<rect x="164" y="268" width="4" height="4" fill="#FA4452" />
<rect x="168" y="268" width="4" height="4" fill="#FA4452" />
<rect x="172" y="268" width="4" height="4" fill="#FA4452" />
<rect x="176" y="268" width="4" height="4" fill="#FA4452" />
<rect x="180" y="268" width="4" height="4" fill="#FA4452" />
<rect x="184" y="268" width="4" height="4" fill="#FA4452" />
<rect x="188" y="268" width="4" height="4" fill="#FA4452" />
<rect x="192" y="268" width="4" height="4" fill="#B01249" />
<rect x="264" y="268" width="4" height="4" fill="#B01249" />
<rect x="268" y="268" width="4" height="4" fill="#FA4452" />
<rect x="272" y="268" width="4" height="4" fill="#FA4452" />
<rect x="276" y="268" width="4" height="4" fill="#FA4452" />
<rect x="280" y="268" width="4" height="4" fill="#FA4452" />
<rect x="284" y="268" width="4" height="4" fill="#B01249" />
<rect x="148" y="272" width="4" height="4" fill="#B01249" />
<rect x="152" y="272" width="4" height="4" fill="#FA6744" />
<rect x="156" y="272" width="4" height="4" fill="#FA4452" />
<rect x="160" y="272" width="4" height="4" fill="#FA4452" />
<rect x="164" y="272" width="4" height="4" fill="#FA4452" />
<rect x="168" y="272" width="4" height="4" fill="#FA6744" />
<rect x="172" y="272" width="4" height="4" fill="#FA6744" />
<rect x="176" y="272" width="4" height="4" fill="#FA4452" />
<rect x="180" y="272" width="4" height="4" fill="#FA4452" />
<rect x="184" y="272" width="4" height="4" fill="#FA4452" />
<rect x="188" y="272" width="4" height="4" fill="#FA4452" />
<rect x="192" y="272" width="4" height="4" fill="#FA4452" />
<rect x="196" y="272" width="4" height="4" fill="#B01249" />
<rect x="260" y="272" width="4" height="4" fill="#B01249" />
<rect x="264" y="272" width="4" height="4" fill="#FA4452" />
<rect x="268" y="272" width="4" height="4" fill="#FA4452" />
<rect x="272" y="272" width="4" height="4" fill="#FA4452" />
<rect x="276" y="272" width="4" height="4" fill="#FA4452" />
<rect x="280" y="272" width="4" height="4" fill="#FA4452" />
<rect x="284" y="272" width="4" height="4" fill="#FA4452" />
<rect x="288" y="272" width="4" height="4" fill="#B01249" />
<rect x="148" y="276" width="4" height="4" fill="#B01249" />
<rect x="152" y="276" width="4" height="4" fill="#FA4452" />
<rect x="156" y="276" width="4" height="4" fill="#FA4452" />
<rect x="160" y="276" width="4" height="4" fill="#FA4452" />
<rect x="164" y="276" width="4" height="4" fill="#FA4452" />
<rect x="168" y="276" width="4" height="4" fill="#FA6744" />
<rect x="172" y="276" width="4" height="4" fill="#FA6744" />
<rect x="176" y="276" width="4" height="4" fill="#FA4452" />
<rect x="180" y="276" width="4" height="4" fill="#FA4452" />
<rect x="184" y="276" width="4" height="4" fill="#FA4452" />
<rect x="188" y="276" width="4" height="4" fill="#FA4452" />
<rect x="192" y="276" width="4" height="4" fill="#FA4452" />
<rect x="196" y="276" width="4" height="4" fill="#FA4452" />
<rect x="200" y="276" width="4" height="4" fill="#B01249" />
<rect x="256" y="276" width="4" height="4" fill="#B01249" />
<rect x="260" y="276" width="4" height="4" fill="#FA4452" />
<rect x="264" y="276" width="4" height="4" fill="#FA4452" />
<rect x="268" y="276" width="4" height="4" fill="#FA6744" />
<rect x="272" y="276" width="4" height="4" fill="#FA4452" />
<rect x="276" y="276" width="4" height="4" fill="#FA4452" />
<rect x="280" y="276" width="4" height="4" fill="#FA4452" />
<rect x="284" y="276" width="4" height="4" fill="#FA4452" />
<rect x="288" y="276" width="4" height="4" fill="#B01249" />
<rect x="148" y="280" width="4" height="4" fill="#B01249" />
<rect x="152" y="280" width="4" height="4" fill="#FA4452" />
<rect x="156" y="280" width="4" height="4" fill="#FA4452" />
<rect x="160" y="280" width="4" height="4" fill="#FA4452" />
<rect x="164" y="280" width="4" height="4" fill="#FA4452" />
<rect x="168" y="280" width="4" height="4" fill="#FA4452" />
<rect x="172" y="280" width="4" height="4" fill="#FA4452" />
<rect x="176" y="280" width="4" height="4" fill="#FA4452" />
<rect x="180" y="280" width="4" height="4" fill="#FA4452" />
<rect x="184" y="280" width="4" height="4" fill="#FA4452" />
<rect x="188" y="280" width="4" height="4" fill="#FA4452" />
<rect x="192" y="280" width="4" height="4" fill="#FA4452" />
<rect x="196" y="280" width="4" height="4" fill="#FA4452" />
<rect x="200" y="280" width="4" height="4" fill="#FA4452" />
<rect x="204" y="280" width="4" height="4" fill="#B01249" />
<rect x="252" y="280" width="4" height="4" fill="#B01249" />
<rect x="256" y="280" width="4" height="4" fill="#D71929" />
<rect x="260" y="280" width="4" height="4" fill="#FA4452" />
<rect x="264" y="280" width="4" height="4" fill="#FA4452" />
<rect x="268" y="280" width="4" height="4" fill="#FA4452" />
<rect x="272" y="280" width="4" height="4" fill="#FA4452" />
<rect x="276" y="280" width="4" height="4" fill="#FA4452" />
<rect x="280" y="280" width="4" height="4" fill="#FA4452" />
<rect x="284" y="280" width="4" height="4" fill="#FA4452" />
<rect x="288" y="280" width="4" height="4" fill="#FA4452" />
<rect x="292" y="280" width="4" height="4" fill="#B01249" />
<rect x="148" y="284" width="4" height="4" fill="#B01249" />
<rect x="152" y="284" width="4" height="4" fill="#D71929" />
<rect x="156" y="284" width="4" height="4" fill="#FA4452" />
<rect x="160" y="284" width="4" height="4" fill="#FA4452" />
<rect x="164" y="284" width="4" height="4" fill="#FA4452" />
<rect x="168" y="284" width="4" height="4" fill="#FA4452" />
<rect x="172" y="284" width="4" height="4" fill="#FA4452" />
<rect x="176" y="284" width="4" height="4" fill="#FA4452" />
<rect x="180" y="284" width="4" height="4" fill="#FA4452" />
<rect x="184" y="284" width="4" height="4" fill="#FA4452" />
<rect x="188" y="284" width="4" height="4" fill="#FA4452" />
<rect x="192" y="284" width="4" height="4" fill="#FA4452" />
<rect x="196" y="284" width="4" height="4" fill="#FA6744" />
<rect x="200" y="284" width="4" height="4" fill="#FA4452" />
<rect x="204" y="284" width="4" height="4" fill="#B01249" />
<rect x="252" y="284" width="4" height="4" fill="#B01249" />
<rect x="256" y="284" width="4" height="4" fill="#D71929" />
<rect x="260" y="284" width="4" height="4" fill="#FA4452" />
<rect x="264" y="284" width="4" height="4" fill="#FA4452" />
<rect x="268" y="284" width="4" height="4" fill="#FA4452" />
<rect x="272" y="284" width="4" height="4" fill="#FA6744" />
<rect x="276" y="284" width="4" height="4" fill="#FA6744" />
<rect x="280" y="284" width="4" height="4" fill="#FA4452" />
<rect x="284" y="284" width="4" height="4" fill="#FA4452" />
<rect x="288" y="284" width="4" height="4" fill="#FA4452" />
<rect x="292" y="284" width="4" height="4" fill="#B01249" />
<rect x="148" y="288" width="4" height="4" fill="#B01249" />
<rect x="152" y="288" width="4" height="4" fill="#D71929" />
<rect x="156" y="288" width="4" height="4" fill="#FA4452" />
<rect x="160" y="288" width="4" height="4" fill="#FA6744" />
<rect x="164" y="288" width="4" height="4" fill="#FA6744" />
<rect x="168" y="288" width="4" height="4" fill="#FA4452" />
<rect x="172" y="288" width="4" height="4" fill="#FA4452" />
<rect x="176" y="288" width="4" height="4" fill="#FA4452" />
<rect x="180" y="288" width="4" height="4" fill="#FA4452" />
<rect x="184" y="288" width="4" height="4" fill="#FA4452" />
<rect x="188" y="288" width="4" height="4" fill="#FA4452" />
<rect x="192" y="288" width="4" height="4" fill="#FA4452" />
<rect x="196" y="288" width="4" height="4" fill="#FA6744" />
<rect x="200" y="288" width="4" height="4" fill="#FA4452" />
<rect x="204" y="288" width="4" height="4" fill="#FA4452" />
<rect x="208" y="288" width="4" height="4" fill="#B01249" />
<rect x="252" y="288" width="4" height="4" fill="#B01249" />
<rect x="256" y="288" width="4" height="4" fill="#D71929" />
<rect x="260" y="288" width="4" height="4" fill="#FA4452" />
<rect x="264" y="288" width="4" height="4" fill="#FA4452" />
<rect x="268" y="288" width="4" height="4" fill="#FA4452" />
<rect x="272" y="288" width="4" height="4" fill="#FA6744" />
<rect x="276" y="288" width="4" height="4" fill="#FA6744" />
<rect x="280" y="288" width="4" height="4" fill="#FA4452" />
<rect x="284" y="288" width="4" height="4" fill="#FA4452" />
<rect x="288" y="288" width="4" height="4" fill="#FA4452" />
<rect x="292" y="288" width="4" height="4" fill="#FA4452" />
<rect x="296" y="288" width="4" height="4" fill="#B01249" />
<rect x="148" y="292" width="4" height="4" fill="#B01249" />
<rect x="152" y="292" width="4" height="4" fill="#D71929" />
<rect x="156" y="292" width="4" height="4" fill="#FA4452" />
<rect x="160" y="292" width="4" height="4" fill="#FA6744" />
<rect x="164" y="292" width="4" height="4" fill="#FA6744" />
<rect x="168" y="292" width="4" height="4" fill="#FA4452" />
<rect x="172" y="292" width="4" height="4" fill="#FA4452" />
<rect x="176" y="292" width="4" height="4" fill="#FA4452" />
<rect x="180" y="292" width="4" height="4" fill="#FA4452" />
<rect x="184" y="292" width="4" height="4" fill="#FA4452" />
<rect x="188" y="292" width="4" height="4" fill="#FA4452" />
<rect x="192" y="292" width="4" height="4" fill="#FA4452" />
<rect x="196" y="292" width="4" height="4" fill="#FA4452" />
<rect x="200" y="292" width="4" height="4" fill="#FA4452" />
<rect x="204" y="292" width="4" height="4" fill="#FA4452" />
<rect x="208" y="292" width="4" height="4" fill="#B01249" />
<rect x="252" y="292" width="4" height="4" fill="#B01249" />
<rect x="256" y="292" width="4" height="4" fill="#D71929" />
<rect x="260" y="292" width="4" height="4" fill="#FA4452" />
<rect x="264" y="292" width="4" height="4" fill="#FA4452" />
<rect x="268" y="292" width="4" height="4" fill="#FA4452" />
<rect x="272" y="292" width="4" height="4" fill="#FA4452" />
<rect x="276" y="292" width="4" height="4" fill="#FA4452" />
<rect x="280" y="292" width="4" height="4" fill="#FA4452" />
<rect x="284" y="292" width="4" height="4" fill="#FA4452" />
<rect x="288" y="292" width="4" height="4" fill="#FA4452" />
<rect x="292" y="292" width="4" height="4" fill="#FA4452" />
<rect x="296" y="292" width="4" height="4" fill="#B01249" />
<rect x="148" y="296" width="4" height="4" fill="#B01249" />
<rect x="152" y="296" width="4" height="4" fill="#D71929" />
<rect x="156" y="296" width="4" height="4" fill="#FA4452" />
<rect x="160" y="296" width="4" height="4" fill="#FA4452" />
<rect x="164" y="296" width="4" height="4" fill="#FA4452" />
<rect x="168" y="296" width="4" height="4" fill="#FA4452" />
<rect x="172" y="296" width="4" height="4" fill="#FA4452" />
<rect x="176" y="296" width="4" height="4" fill="#FA4452" />
<rect x="180" y="296" width="4" height="4" fill="#FA4452" />
<rect x="184" y="296" width="4" height="4" fill="#B01249" />
<rect x="188" y="296" width="4" height="4" fill="#B01249" />
<rect x="192" y="296" width="4" height="4" fill="#FA4452" />
<rect x="196" y="296" width="4" height="4" fill="#FA4452" />
<rect x="200" y="296" width="4" height="4" fill="#FA4452" />
<rect x="204" y="296" width="4" height="4" fill="#FA4452" />
<rect x="208" y="296" width="4" height="4" fill="#FA4452" />
<rect x="212" y="296" width="4" height="4" fill="#B01249" />
<rect x="252" y="296" width="4" height="4" fill="#B01249" />
<rect x="256" y="296" width="4" height="4" fill="#D71929" />
<rect x="260" y="296" width="4" height="4" fill="#FA4452" />
<rect x="264" y="296" width="4" height="4" fill="#FA4452" />
<rect x="268" y="296" width="4" height="4" fill="#FA4452" />
<rect x="272" y="296" width="4" height="4" fill="#FA4452" />
<rect x="276" y="296" width="4" height="4" fill="#FA4452" />
<rect x="280" y="296" width="4" height="4" fill="#FA4452" />
<rect x="284" y="296" width="4" height="4" fill="#FA4452" />
<rect x="288" y="296" width="4" height="4" fill="#FA4452" />
<rect x="292" y="296" width="4" height="4" fill="#FA4452" />
<rect x="296" y="296" width="4" height="4" fill="#B01249" />
<rect x="152" y="300" width="4" height="4" fill="#B01249" />
<rect x="156" y="300" width="4" height="4" fill="#D71929" />
<rect x="160" y="300" width="4" height="4" fill="#FA4452" />
<rect x="164" y="300" width="4" height="4" fill="#FA4452" />
<rect x="168" y="300" width="4" height="4" fill="#FA4452" />
<rect x="172" y="300" width="4" height="4" fill="#FA4452" />
<rect x="176" y="300" width="4" height="4" fill="#FA4452" />
<rect x="180" y="300" width="4" height="4" fill="#FA4452" />
<rect x="184" y="300" width="4" height="4" fill="#B01249" />
<rect x="188" y="300" width="4" height="4" fill="#B01249" />
<rect x="192" y="300" width="4" height="4" fill="#B01249" />
<rect x="196" y="300" width="4" height="4" fill="#FA4452" />
<rect x="200" y="300" width="4" height="4" fill="#FA4452" />
<rect x="204" y="300" width="4" height="4" fill="#FA4452" />
<rect x="208" y="300" width="4" height="4" fill="#FA4452" />
<rect x="212" y="300" width="4" height="4" fill="#FA4452" />
<rect x="216" y="300" width="4" height="4" fill="#B01249" />
<rect x="256" y="300" width="4" height="4" fill="#B01249" />
<rect x="260" y="300" width="4" height="4" fill="#D71929" />
<rect x="264" y="300" width="4" height="4" fill="#FA4452" />
<rect x="268" y="300" width="4" height="4" fill="#FA4452" />
<rect x="272" y="300" width="4" height="4" fill="#FA4452" />
<rect x="276" y="300" width="4" height="4" fill="#FA4452" />
<rect x="280" y="300" width="4" height="4" fill="#FA4452" />
<rect x="284" y="300" width="4" height="4" fill="#B01249" />
<rect x="288" y="300" width="4" height="4" fill="#FA4452" />
<rect x="292" y="300" width="4" height="4" fill="#FA4452" />
<rect x="296" y="300" width="4" height="4" fill="#FA4452" />
<rect x="300" y="300" width="4" height="4" fill="#B01249" />
<rect x="152" y="304" width="4" height="4" fill="#B01249" />
<rect x="156" y="304" width="4" height="4" fill="#D71929" />
<rect x="160" y="304" width="4" height="4" fill="#D71929" />
<rect x="164" y="304" width="4" height="4" fill="#FA4452" />
<rect x="168" y="304" width="4" height="4" fill="#FA4452" />
<rect x="172" y="304" width="4" height="4" fill="#FA4452" />
<rect x="176" y="304" width="4" height="4" fill="#FA4452" />
<rect x="180" y="304" width="4" height="4" fill="#FA4452" />
<rect x="184" y="304" width="4" height="4" fill="#B01249" />
<rect x="188" y="304" width="4" height="4" fill="#B01249" />
<rect x="192" y="304" width="4" height="4" fill="#B01249" />
<rect x="196" y="304" width="4" height="4" fill="#B01249" />
<rect x="200" y="304" width="4" height="4" fill="#B01249" />
<rect x="204" y="304" width="4" height="4" fill="#FA4452" />
<rect x="208" y="304" width="4" height="4" fill="#FA4452" />
<rect x="212" y="304" width="4" height="4" fill="#FA4452" />
<rect x="216" y="304" width="4" height="4" fill="#FA4452" />
<rect x="220" y="304" width="4" height="4" fill="#B01249" />
<rect x="256" y="304" width="4" height="4" fill="#B01249" />
<rect x="260" y="304" width="4" height="4" fill="#D71929" />
<rect x="264" y="304" width="4" height="4" fill="#FA4452" />
<rect x="268" y="304" width="4" height="4" fill="#FA4452" />
<rect x="272" y="304" width="4" height="4" fill="#FA4452" />
<rect x="276" y="304" width="4" height="4" fill="#FA4452" />
<rect x="280" y="304" width="4" height="4" fill="#B01249" />
<rect x="284" y="304" width="4" height="4" fill="#B01249" />
<rect x="288" y="304" width="4" height="4" fill="#B01249" />
<rect x="292" y="304" width="4" height="4" fill="#FA4452" />
<rect x="296" y="304" width="4" height="4" fill="#FA4452" />
<rect x="300" y="304" width="4" height="4" fill="#B01249" />
<rect x="156" y="308" width="4" height="4" fill="#B01249" />
<rect x="160" y="308" width="4" height="4" fill="#D71929" />
<rect x="164" y="308" width="4" height="4" fill="#FA4452" />
<rect x="168" y="308" width="4" height="4" fill="#FA4452" />
<rect x="172" y="308" width="4" height="4" fill="#FA4452" />
<rect x="176" y="308" width="4" height="4" fill="#FA4452" />
<rect x="180" y="308" width="4" height="4" fill="#FA4452" />
<rect x="184" y="308" width="4" height="4" fill="#B01249" />
<rect x="196" y="308" width="4" height="4" fill="#B01249" />
<rect x="200" y="308" width="4" height="4" fill="#B01249" />
<rect x="204" y="308" width="4" height="4" fill="#B01249" />
<rect x="208" y="308" width="4" height="4" fill="#B01249" />
<rect x="212" y="308" width="4" height="4" fill="#FA4452" />
<rect x="216" y="308" width="4" height="4" fill="#FA4452" />
<rect x="220" y="308" width="4" height="4" fill="#B01249" />
<rect x="256" y="308" width="4" height="4" fill="#B01249" />
<rect x="260" y="308" width="4" height="4" fill="#D71929" />
<rect x="264" y="308" width="4" height="4" fill="#FA4452" />
<rect x="268" y="308" width="4" height="4" fill="#FA6744" />
<rect x="272" y="308" width="4" height="4" fill="#FA4452" />
<rect x="276" y="308" width="4" height="4" fill="#FA4452" />
<rect x="280" y="308" width="4" height="4" fill="#B01249" />
<rect x="284" y="308" width="4" height="4" fill="#B01249" />
<rect x="288" y="308" width="4" height="4" fill="#B01249" />
<rect x="292" y="308" width="4" height="4" fill="#FA4452" />
<rect x="296" y="308" width="4" height="4" fill="#FA4452" />
<rect x="300" y="308" width="4" height="4" fill="#B01249" />
<rect x="160" y="312" width="4" height="4" fill="#B01249" />
<rect x="164" y="312" width="4" height="4" fill="#D71929" />
<rect x="168" y="312" width="4" height="4" fill="#FA4452" />
<rect x="172" y="312" width="4" height="4" fill="#FA4452" />
<rect x="176" y="312" width="4" height="4" fill="#FA4452" />
<rect x="180" y="312" width="4" height="4" fill="#FA4452" />
<rect x="184" y="312" width="4" height="4" fill="#FA4452" />
<rect x="188" y="312" width="4" height="4" fill="#B01249" />
<rect x="208" y="312" width="4" height="4" fill="#B01249" />
<rect x="212" y="312" width="4" height="4" fill="#B01249" />
<rect x="216" y="312" width="4" height="4" fill="#FA4452" />
<rect x="220" y="312" width="4" height="4" fill="#FA4452" />
<rect x="224" y="312" width="4" height="4" fill="#B01249" />
<rect x="256" y="312" width="4" height="4" fill="#B01249" />
<rect x="260" y="312" width="4" height="4" fill="#D71929" />
<rect x="264" y="312" width="4" height="4" fill="#FA4452" />
<rect x="268" y="312" width="4" height="4" fill="#FA4452" />
<rect x="272" y="312" width="4" height="4" fill="#FA4452" />
<rect x="276" y="312" width="4" height="4" fill="#B01249" />
<rect x="284" y="312" width="4" height="4" fill="#B01249" />
<rect x="288" y="312" width="4" height="4" fill="#B01249" />
<rect x="292" y="312" width="4" height="4" fill="#FA4452" />
<rect x="296" y="312" width="4" height="4" fill="#FA4452" />
<rect x="300" y="312" width="4" height="4" fill="#B01249" />
<rect x="164" y="316" width="4" height="4" fill="#B01249" />
<rect x="168" y="316" width="4" height="4" fill="#D71929" />
<rect x="172" y="316" width="4" height="4" fill="#FA4452" />
<rect x="176" y="316" width="4" height="4" fill="#FA4452" />
<rect x="180" y="316" width="4" height="4" fill="#FA4452" />
<rect x="184" y="316" width="4" height="4" fill="#FA4452" />
<rect x="188" y="316" width="4" height="4" fill="#B01249" />
<rect x="212" y="316" width="4" height="4" fill="#B01249" />
<rect x="216" y="316" width="4" height="4" fill="#B01249" />
<rect x="220" y="316" width="4" height="4" fill="#FA4452" />
<rect x="224" y="316" width="4" height="4" fill="#B01249" />
<rect x="256" y="316" width="4" height="4" fill="#B01249" />
<rect x="260" y="316" width="4" height="4" fill="#D71929" />
<rect x="264" y="316" width="4" height="4" fill="#FA4452" />
<rect x="268" y="316" width="4" height="4" fill="#FA4452" />
<rect x="272" y="316" width="4" height="4" fill="#FA4452" />
<rect x="276" y="316" width="4" height="4" fill="#B01249" />
<rect x="284" y="316" width="4" height="4" fill="#B01249" />
<rect x="288" y="316" width="4" height="4" fill="#B01249" />
<rect x="292" y="316" width="4" height="4" fill="#FA4452" />
<rect x="296" y="316" width="4" height="4" fill="#FA4452" />
<rect x="300" y="316" width="4" height="4" fill="#B01249" />
<rect x="168" y="320" width="4" height="4" fill="#B01249" />
<rect x="172" y="320" width="4" height="4" fill="#D71929" />
<rect x="176" y="320" width="4" height="4" fill="#D71929" />
<rect x="180" y="320" width="4" height="4" fill="#FA4452" />
<rect x="184" y="320" width="4" height="4" fill="#FA4452" />
<rect x="188" y="320" width="4" height="4" fill="#FA4452" />
<rect x="192" y="320" width="4" height="4" fill="#B01249" />
<rect x="220" y="320" width="4" height="4" fill="#B01249" />
<rect x="224" y="320" width="4" height="4" fill="#B01249" />
<rect x="260" y="320" width="4" height="4" fill="#B01249" />
<rect x="264" y="320" width="4" height="4" fill="#D71929" />
<rect x="268" y="320" width="4" height="4" fill="#FA4452" />
<rect x="272" y="320" width="4" height="4" fill="#FA4452" />
<rect x="276" y="320" width="4" height="4" fill="#B01249" />
<rect x="288" y="320" width="4" height="4" fill="#B01249" />
<rect x="292" y="320" width="4" height="4" fill="#FA4452" />
<rect x="296" y="320" width="4" height="4" fill="#B01249" />
<rect x="172" y="324" width="4" height="4" fill="#B01249" />
<rect x="176" y="324" width="4" height="4" fill="#D71929" />
<rect x="180" y="324" width="4" height="4" fill="#D71929" />
<rect x="184" y="324" width="4" height="4" fill="#FA4452" />
<rect x="188" y="324" width="4" height="4" fill="#FA4452" />
<rect x="192" y="324" width="4" height="4" fill="#FA4452" />
<rect x="196" y="324" width="4" height="4" fill="#B01249" />
<rect x="224" y="324" width="4" height="4" fill="#B01249" />
<rect x="264" y="324" width="4" height="4" fill="#B01249" />
<rect x="268" y="324" width="4" height="4" fill="#D71929" />
<rect x="272" y="324" width="4" height="4" fill="#FA4452" />
<rect x="276" y="324" width="4" height="4" fill="#B01249" />
<rect x="288" y="324" width="4" height="4" fill="#B01249" />
<rect x="292" y="324" width="4" height="4" fill="#FA4452" />
<rect x="296" y="324" width="4" height="4" fill="#B01249" />
<rect x="176" y="328" width="4" height="4" fill="#B01249" />
<rect x="180" y="328" width="4" height="4" fill="#D71929" />
<rect x="184" y="328" width="4" height="4" fill="#D71929" />
<rect x="188" y="328" width="4" height="4" fill="#FA4452" />
<rect x="192" y="328" width="4" height="4" fill="#FA4452" />
<rect x="196" y="328" width="4" height="4" fill="#B01249" />
<rect x="200" y="328" width="4" height="4" fill="#B01249" />
<rect x="264" y="328" width="4" height="4" fill="#B01249" />
<rect x="268" y="328" width="4" height="4" fill="#D71929" />
<rect x="272" y="328" width="4" height="4" fill="#B01249" />
<rect x="288" y="328" width="4" height="4" fill="#FA4452" />
<rect x="292" y="328" width="4" height="4" fill="#B01249" />
<rect x="180" y="332" width="4" height="4" fill="#B01249" />
<rect x="184" y="332" width="4" height="4" fill="#B01249" />
<rect x="188" y="332" width="4" height="4" fill="#B01249" />
<rect x="192" y="332" width="4" height="4" fill="#D71929" />
<rect x="196" y="332" width="4" height="4" fill="#FA4452" />
<rect x="200" y="332" width="4" height="4" fill="#B01249" />
<rect x="268" y="332" width="4" height="4" fill="#B01249" />
<rect x="272" y="332" width="4" height="4" fill="#B01249" />
<rect x="288" y="332" width="4" height="4" fill="#B01249" />
<rect x="192" y="336" width="4" height="4" fill="#B01249" />
<rect x="196" y="336" width="4" height="4" fill="#B01249" />
<rect x="200" y="336" width="4" height="4" fill="#FA4452" />
<rect x="204" y="336" width="4" height="4" fill="#B01249" />
<rect x="200" y="340" width="4" height="4" fill="#B01249" />
<rect x="204" y="340" width="4" height="4" fill="#B01249" />
<rect x="208" y="340" width="4" height="4" fill="#B01249" />
</svg>