<svg width="384" height="384" xmlns="http://www.w3.org/2000/svg" shape-rendering="crispEdges"><path fill="#B01249" d="M172 252h4v4h-4zM176 252h4v4h-4zM180 252h4v4h-4zM164 256h4v4h-4zM168 256h4v4h-4z"/><path fill="#FA4452" d="M172 256h4v4h-4zM176 256h4v4h-4zM180 256h4v4h-4z"/><path fill="#B01249" d="M184 256h4v4h-4zM188 256h4v4h-4zM264 256h4v4h-4zM268 256h4v4h-4zM160 260h4v4h-4z"/><path fill="#FA4452" d="M164 260h4v4h-4zM168 260h4v4h-4zM172 260h4v4h-4zM176 260h4v4h-4zM180 260h4v4h-4zM184 260h4v4h-4zM188 260h4v4h-4z"/><path fill="#B01249" d="M192 260h4v4h-4zM260 260h4v4h-4z"/><path fill="#FA4452" d="M264 260h4v4h-4zM268 260h4v4h-4z"/><path fill="#B01249" d="M272 260h4v4h-4zM156 264h4v4h-4z"/><path fill="#FA4452" d="M160 264h4v4h-4zM164 264h4v4h-4zM168 264h4v4h-4zM172 264h4v4h-4zM176 264h4v4h-4zM180 264h4v4h-4zM184 264h4v4h-4zM188 264h4v4h-4zM192 264h4v4h-4z"/><path fill="#B01249" d="M196 264h4v4h-4zM256 264h4v4h-4z"/><path fill="#FA4452" d="M260 264h4v4h-4zM264 264h4v4h-4zM268 264h4v4h-4zM272 264h4v4h-4z"/><path fill="#B01249" d="M276 264h4v4h-4zM152 268h4v4h-4z"/><path fill="#FA4452" d="M156 268h4v4h-4zM160 268h4v4h-4zM164 268h4v4h-4zM168 268h4v4h-4zM172 268h4v4h-4zM176 268h4v4h-4zM180 268h4v4h-4zM184 268h4v4h-4zM188 268h4v4h-4zM192 268h4v4h-4zM196 268h4v4h-4z"/><path fill="#B01249" d="M200 268h4v4h-4zM252 268h4v4h-4z"/><path fill="#FA4452" d="M256 268h4v4h-4zM260 268h4v4h-4zM264 268h4v4h-4zM268 268h4v4h-4zM272 268h4v4h-4zM276 268h4v4h-4z"/><path fill="#B01249" d="M280 268h4v4h-4zM148 272h4v4h-4z"/><path fill="#D71929" d="M152 272h4v4h-4z"/><path fill="#FA4452" d="M156 272h4v4h-4z"/><path fill="#FA6744" d="M160 272h4v4h-4z"/><path fill="#FA4452" d="M164 272h4v4h-4zM168 272h4v4h-4zM172 272h4v4h-4z"/><path fill="#FA6744" d="M176 272h4v4h-4zM180 272h4v4h-4z"/><path fill="#FA4452" d="M184 272h4v4h-4zM188 272h4v4h-4zM192 272h4v4h-4zM196 272h4v4h-4zM200 272h4v4h-4z"/><path fill="#B01249" d="M204 272h4v4h-4zM248 272h4v4h-4z"/><path fill="#FA4452" d="M252 272h4v4h-4zM256 272h4v4h-4z"/><path fill="#FA6744" d="M260 272h4v4h-4z"/><path fill="#FA4452" d="M264 272h4v4h-4zM268 272h4v4h-4zM272 272h4v4h-4zM276 272h4v4h-4zM280 272h4v4h-4z"/><path fill="#B01249" d="M284 272h4v4h-4zM148 276h4v4h-4z"/><path fill="#D71929" d="M152 276h4v4h-4z"/><path fill="#FA4452" d="M156 276h4v4h-4zM160 276h4v4h-4zM164 276h4v4h-4zM168 276h4v4h-4zM172 276h4v4h-4z"/><path fill="#FA6744" d="M176 276h4v4h-4zM180 276h4v4h-4z"/><path fill="#FA4452" d="M184 276h4v4h-4zM188 276h4v4h-4zM192 276h4v4h-4zM196 276h4v4h-4zM200 276h4v4h-4z"/><path fill="#B01249" d="M204 276h4v4h-4zM244 276h4v4h-4z"/><path fill="#D71929" d="M248 276h4v4h-4z"/><path fill="#FA4452" d="M252 276h4v4h-4zM256 276h4v4h-4zM260 276h4v4h-4zM264 276h4v4h-4zM268 276h4v4h-4zM272 276h4v4h-4zM276 276h4v4h-4zM280 276h4v4h-4zM284 276h4v4h-4z"/><path fill="#B01249" d="M288 276h4v4h-4zM148 280h4v4h-4z"/><path fill="#D71929" d="M152 280h4v4h-4z"/><path fill="#FA4452" d="M156 280h4v4h-4zM160 280h4v4h-4zM164 280h4v4h-4zM168 280h4v4h-4zM172 280h4v4h-4zM176 280h4v4h-4zM180 280h4v4h-4zM184 280h4v4h-4zM188 280h4v4h-4zM192 280h4v4h-4zM196 280h4v4h-4zM200 280h4v4h-4z"/><path fill="#B01249" d="M204 280h4v4h-4zM244 280h4v4h-4z"/><path fill="#D71929" d="M248 280h4v4h-4z"/><path fill="#FA4452" d="M252 280h4v4h-4zM256 280h4v4h-4zM260 280h4v4h-4zM264 280h4v4h-4z"/><path fill="#FA6744" d="M268 280h4v4h-4zM272 280h4v4h-4z"/><path fill="#FA4452" d="M276 280h4v4h-4zM280 280h4v4h-4zM284 280h4v4h-4z"/><path fill="#B01249" d="M288 280h4v4h-4zM148 284h4v4h-4z"/><path fill="#D71929" d="M152 284h4v4h-4z"/><path fill="#FA4452" d="M156 284h4v4h-4zM160 284h4v4h-4zM164 284h4v4h-4zM168 284h4v4h-4zM172 284h4v4h-4zM176 284h4v4h-4zM180 284h4v4h-4zM184 284h4v4h-4zM188 284h4v4h-4zM192 284h4v4h-4zM196 284h4v4h-4zM200 284h4v4h-4z"/><path fill="#B01249" d="M204 284h4v4h-4zM244 284h4v4h-4z"/><path fill="#D71929" d="M248 284h4v4h-4z"/><path fill="#FA6744" d="M252 284h4v4h-4z"/><path fill="#FA4452" d="M256 284h4v4h-4zM260 284h4v4h-4zM264 284h4v4h-4z"/><path fill="#FA6744" d="M268 284h4v4h-4zM272 284h4v4h-4z"/><path fill="#FA4452" d="M276 284h4v4h-4zM280 284h4v4h-4zM284 284h4v4h-4zM288 284h4v4h-4z"/><path fill="#B01249" d="M292 284h4v4h-4zM148 288h4v4h-4z"/><path fill="#D71929" d="M152 288h4v4h-4z"/><path fill="#FA4452" d="M156 288h4v4h-4z"/><path fill="#FA6744" d="M160 288h4v4h-4zM164 288h4v4h-4z"/><path fill="#FA4452" d="M168 288h4v4h-4zM172 288h4v4h-4zM176 288h4v4h-4zM180 288h4v4h-4zM184 288h4v4h-4zM188 288h4v4h-4zM192 288h4v4h-4zM196 288h4v4h-4zM200 288h4v4h-4zM204 288h4v4h-4z"/><path fill="#B01249" d="M208 288h4v4h-4zM244 288h4v4h-4z"/><path fill="#D71929" d="M248 288h4v4h-4z"/><path fill="#FA4452" d="M252 288h4v4h-4zM256 288h4v4h-4zM260 288h4v4h-4zM264 288h4v4h-4zM268 288h4v4h-4zM272 288h4v4h-4zM276 288h4v4h-4zM280 288h4v4h-4zM284 288h4v4h-4zM288 288h4v4h-4z"/><path fill="#B01249" d="M292 288h4v4h-4zM148 292h4v4h-4z"/><path fill="#D71929" d="M152 292h4v4h-4z"/><path fill="#FA4452" d="M156 292h4v4h-4z"/><path fill="#FA6744" d="M160 292h4v4h-4zM164 292h4v4h-4z"/><path fill="#FA4452" d="M168 292h4v4h-4zM172 292h4v4h-4zM176 292h4v4h-4zM180 292h4v4h-4zM184 292h4v4h-4zM188 292h4v4h-4zM192 292h4v4h-4z"/><path fill="#FA6744" d="M196 292h4v4h-4z"/><path fill="#FA4452" d="M200 292h4v4h-4zM204 292h4v4h-4z"/><path fill="#B01249" d="M208 292h4v4h-4zM248 292h4v4h-4z"/><path fill="#D71929" d="M252 292h4v4h-4z"/><path fill="#FA4452" d="M256 292h4v4h-4zM260 292h4v4h-4zM264 292h4v4h-4zM268 292h4v4h-4zM272 292h4v4h-4zM276 292h4v4h-4zM280 292h4v4h-4zM284 292h4v4h-4zM288 292h4v4h-4z"/><path fill="#B01249" d="M292 292h4v4h-4zM148 296h4v4h-4z"/><path fill="#D71929" d="M152 296h4v4h-4zM156 296h4v4h-4z"/><path fill="#FA4452" d="M160 296h4v4h-4zM164 296h4v4h-4zM168 296h4v4h-4zM172 296h4v4h-4zM176 296h4v4h-4zM180 296h4v4h-4zM184 296h4v4h-4zM188 296h4v4h-4zM192 296h4v4h-4z"/><path fill="#FA6744" d="M196 296h4v4h-4z"/><path fill="#FA4452" d="M200 296h4v4h-4zM204 296h4v4h-4z"/><path fill="#B01249" d="M208 296h4v4h-4zM248 296h4v4h-4z"/><path fill="#D71929" d="M252 296h4v4h-4z"/><path fill="#FA4452" d="M256 296h4v4h-4zM260 296h4v4h-4zM264 296h4v4h-4zM268 296h4v4h-4zM272 296h4v4h-4zM276 296h4v4h-4zM280 296h4v4h-4zM284 296h4v4h-4zM288 296h4v4h-4zM292 296h4v4h-4z"/><path fill="#B01249" d="M296 296h4v4h-4zM152 300h4v4h-4z"/><path fill="#D71929" d="M156 300h4v4h-4zM160 300h4v4h-4z"/><path fill="#FA4452" d="M164 300h4v4h-4zM168 300h4v4h-4zM172 300h4v4h-4zM176 300h4v4h-4zM180 300h4v4h-4zM184 300h4v4h-4zM188 300h4v4h-4zM192 300h4v4h-4zM196 300h4v4h-4zM200 300h4v4h-4zM204 300h4v4h-4z"/><path fill="#B01249" d="M208 300h4v4h-4zM252 300h4v4h-4z"/><path fill="#D71929" d="M256 300h4v4h-4z"/><path fill="#FA4452" d="M260 300h4v4h-4zM264 300h4v4h-4zM268 300h4v4h-4zM272 300h4v4h-4zM276 300h4v4h-4zM280 300h4v4h-4z"/><path fill="#B01249" d="M284 300h4v4h-4z"/><path fill="#FA4452" d="M288 300h4v4h-4zM292 300h4v4h-4z"/><path fill="#B01249" d="M296 300h4v4h-4zM152 304h4v4h-4z"/><path fill="#D71929" d="M156 304h4v4h-4zM160 304h4v4h-4z"/><path fill="#FA4452" d="M164 304h4v4h-4zM168 304h4v4h-4zM172 304h4v4h-4zM176 304h4v4h-4zM180 304h4v4h-4zM184 304h4v4h-4z"/><path fill="#B01249" d="M188 304h4v4h-4z"/><path fill="#FA4452" d="M192 304h4v4h-4zM196 304h4v4h-4zM200 304h4v4h-4zM204 304h4v4h-4z"/><path fill="#B01249" d="M208 304h4v4h-4zM252 304h4v4h-4z"/><path fill="#D71929" d="M256 304h4v4h-4z"/><path fill="#FA4452" d="M260 304h4v4h-4zM264 304h4v4h-4z"/><path fill="#FA6744" d="M268 304h4v4h-4z"/><path fill="#FA4452" d="M272 304h4v4h-4zM276 304h4v4h-4z"/><path fill="#B01249" d="M280 304h4v4h-4zM284 304h4v4h-4z"/><path fill="#FA4452" d="M288 304h4v4h-4zM292 304h4v4h-4z"/><path fill="#B01249" d="M296 304h4v4h-4zM156 308h4v4h-4z"/><path fill="#D71929" d="M160 308h4v4h-4zM164 308h4v4h-4z"/><path fill="#FA4452" d="M168 308h4v4h-4zM172 308h4v4h-4zM176 308h4v4h-4zM180 308h4v4h-4zM184 308h4v4h-4z"/><path fill="#B01249" d="M188 308h4v4h-4z"/><path fill="#FA4452" d="M192 308h4v4h-4zM196 308h4v4h-4zM200 308h4v4h-4zM204 308h4v4h-4z"/><path fill="#B01249" d="M208 308h4v4h-4zM256 308h4v4h-4z"/><path fill="#D71929" d="M260 308h4v4h-4z"/><path fill="#FA4452" d="M264 308h4v4h-4zM268 308h4v4h-4zM272 308h4v4h-4zM276 308h4v4h-4z"/><path fill="#B01249" d="M280 308h4v4h-4zM284 308h4v4h-4z"/><path fill="#FA4452" d="M288 308h4v4h-4zM292 308h4v4h-4z"/><path fill="#B01249" d="M296 308h4v4h-4zM160 312h4v4h-4z"/><path fill="#D71929" d="M164 312h4v4h-4zM168 312h4v4h-4z"/><path fill="#FA4452" d="M172 312h4v4h-4zM176 312h4v4h-4zM180 312h4v4h-4zM184 312h4v4h-4zM188 312h4v4h-4z"/><path fill="#B01249" d="M192 312h4v4h-4z"/><path fill="#FA4452" d="M196 312h4v4h-4zM200 312h4v4h-4zM204 312h4v4h-4zM208 312h4v4h-4z"/><path fill="#B01249" d="M212 312h4v4h-4zM256 312h4v4h-4z"/><path fill="#D71929" d="M260 312h4v4h-4z"/><path fill="#FA4452" d="M264 312h4v4h-4zM268 312h4v4h-4zM272 312h4v4h-4zM276 312h4v4h-4z"/><path fill="#B01249" d="M280 312h4v4h-4zM284 312h4v4h-4z"/><path fill="#FA4452" d="M288 312h4v4h-4zM292 312h4v4h-4z"/><path fill="#B01249" d="M296 312h4v4h-4zM164 316h4v4h-4z"/><path fill="#D71929" d="M168 316h4v4h-4zM172 316h4v4h-4z"/><path fill="#FA4452" d="M176 316h4v4h-4zM180 316h4v4h-4zM184 316h4v4h-4zM188 316h4v4h-4z"/><path fill="#B01249" d="M192 316h4v4h-4zM196 316h4v4h-4z"/><path fill="#FA4452" d="M200 316h4v4h-4zM204 316h4v4h-4zM208 316h4v4h-4z"/><path fill="#B01249" d="M212 316h4v4h-4zM260 316h4v4h-4z"/><path fill="#D71929" d="M264 316h4v4h-4z"/><path fill="#FA4452" d="M268 316h4v4h-4zM272 316h4v4h-4zM276 316h4v4h-4z"/><path fill="#B01249" d="M280 316h4v4h-4zM284 316h4v4h-4z"/><path fill="#FA4452" d="M288 316h4v4h-4z"/><path fill="#B01249" d="M292 316h4v4h-4zM168 320h4v4h-4z"/><path fill="#D71929" d="M172 320h4v4h-4zM176 320h4v4h-4z"/><path fill="#FA4452" d="M180 320h4v4h-4zM184 320h4v4h-4zM188 320h4v4h-4z"/><path fill="#B01249" d="M192 320h4v4h-4zM196 320h4v4h-4zM200 320h4v4h-4z"/><path fill="#FA4452" d="M204 320h4v4h-4zM208 320h4v4h-4z"/><path fill="#B01249" d="M212 320h4v4h-4zM264 320h4v4h-4z"/><path fill="#D71929" d="M268 320h4v4h-4z"/><path fill="#FA4452" d="M272 320h4v4h-4zM276 320h4v4h-4z"/><path fill="#B01249" d="M280 320h4v4h-4zM284 320h4v4h-4z"/><path fill="#FA4452" d="M288 320h4v4h-4z"/><path fill="#B01249" d="M292 320h4v4h-4zM172 324h4v4h-4z"/><path fill="#D71929" d="M176 324h4v4h-4zM180 324h4v4h-4z"/><path fill="#FA4452" d="M184 324h4v4h-4zM188 324h4v4h-4zM192 324h4v4h-4z"/><path fill="#B01249" d="M196 324h4v4h-4zM200 324h4v4h-4z"/><path fill="#FA4452" d="M204 324h4v4h-4zM208 324h4v4h-4z"/><path fill="#B01249" d="M212 324h4v4h-4zM268 324h4v4h-4z"/><path fill="#D71929" d="M272 324h4v4h-4z"/><path fill="#FA4452" d="M276 324h4v4h-4z"/><path fill="#B01249" d="M280 324h4v4h-4z"/><path fill="#FA4452" d="M284 324h4v4h-4z"/><path fill="#B01249" d="M288 324h4v4h-4zM176 328h4v4h-4z"/><path fill="#D71929" d="M180 328h4v4h-4zM184 328h4v4h-4zM188 328h4v4h-4z"/><path fill="#FA4452" d="M192 328h4v4h-4z"/><path fill="#B01249" d="M196 328h4v4h-4zM200 328h4v4h-4zM204 328h4v4h-4z"/><path fill="#FA4452" d="M208 328h4v4h-4z"/><path fill="#B01249" d="M212 328h4v4h-4zM272 328h4v4h-4z"/><path fill="#D71929" d="M276 328h4v4h-4z"/><path fill="#B01249" d="M280 328h4v4h-4zM284 328h4v4h-4zM180 332h4v4h-4zM184 332h4v4h-4zM188 332h4v4h-4z"/><path fill="#FA4452" d="M192 332h4v4h-4zM196 332h4v4h-4z"/><path fill="#B01249" d="M200 332h4v4h-4zM204 332h4v4h-4z"/><path fill="#FA4452" d="M208 332h4v4h-4z"/><path fill="#B01249" d="M212 332h4v4h-4zM276 332h4v4h-4zM280 332h4v4h-4zM192 336h4v4h-4zM196 336h4v4h-4z"/><path fill="#FA4452" d="M200 336h4v4h-4z"/><path fill="#B01249" d="M204 336h4v4h-4zM208 336h4v4h-4zM212 336h4v4h-4zM200 340h4v4h-4zM204 340h4v4h-4zM208 340h4v4h-4z"/></svg>