<?xml version="1.0" encoding="UTF-8" ?>
<svg version="1.1" width="384" height="384" xmlns="http://www.w3.org/2000/svg" shape-rendering="crispEdges">
<rect x="144" y="236" width="4" height="4" fill="#33ADF7" />
<rect x="148" y="236" width="4" height="4" fill="#33ADF7" />
<rect x="152" y="236" width="4" height="4" fill="#33ADF7" />
<rect x="156" y="236" width="4" height="4" fill="#33ADF7" />
<rect x="160" y="236" width="4" height="4" fill="#33ADF7" />
<rect x="164" y="236" width="4" height="4" fill="#A7DEFF" />
<rect x="168" y="236" width="4" height="4" fill="#A7DEFF" />
<rect x="172" y="236" width="4" height="4" fill="#A7DEFF" />
<rect x="136" y="240" width="4" height="4" fill="#33ADF7" />
<rect x="140" y="240" width="4" height="4" fill="#33ADF7" />
<rect x="144" y="240" width="4" height="4" fill="#2996D6" />
<rect x="148" y="240" width="4" height="4" fill="#2996D6" />
<rect x="152" y="240" width="4" height="4" fill="#2996D6" />
<rect x="156" y="240" width="4" height="4" fill="#2996D6" />
<rect x="160" y="240" width="4" height="4" fill="#5ECDFC" />
<rect x="164" y="240" width="4" height="4" fill="#5ECDFC" />
<rect x="168" y="240" width="4" height="4" fill="#00ACFC" />
<rect x="172" y="240" width="4" height="4" fill="#00ACFC" />
<rect x="176" y="240" width="4" height="4" fill="#E8FFF9" />
<rect x="180" y="240" width="4" height="4" fill="#E8FFF9" />
<rect x="184" y="240" width="4" height="4" fill="#A7DEFF" />
<rect x="284" y="240" width="4" height="4" fill="#33ADF7" />
<rect x="288" y="240" width="4" height="4" fill="#33ADF7" />
<rect x="292" y="240" width="4" height="4" fill="#33ADF7" />
<rect x="296" y="240" width="4" height="4" fill="#33ADF7" />
<rect x="300" y="240" width="4" height="4" fill="#33ADF7" />
<rect x="304" y="240" width="4" height="4" fill="#33ADF7" />
<rect x="308" y="240" width="4" height="4" fill="#33ADF7" />
<rect x="312" y="240" width="4" height="4" fill="#A7DEFF" />
<rect x="316" y="240" width="4" height="4" fill="#A7DEFF" />
<rect x="320" y="240" width="4" height="4" fill="#A7DEFF" />
<rect x="124" y="244" width="4" height="4" fill="#33ADF7" />
<rect x="128" y="244" width="4" height="4" fill="#33ADF7" />
<rect x="132" y="244" width="4" height="4" fill="#33ADF7" />
<rect x="136" y="244" width="4" height="4" fill="#2795D5" />
<rect x="140" y="244" width="4" height="4" fill="#2795D5" />
<rect x="144" y="244" width="4" height="4" fill="#2795D5" />
<rect x="148" y="244" width="4" height="4" fill="#2795D5" />
<rect x="152" y="244" width="4" height="4" fill="#2795D5" />
<rect x="156" y="244" width="4" height="4" fill="#2795D5" />
<rect x="160" y="244" width="4" height="4" fill="#5ACCFC" />
<rect x="164" y="244" width="4" height="4" fill="#5ACCFC" />
<rect x="168" y="244" width="4" height="4" fill="#5ACCFC" />
<rect x="172" y="244" width="4" height="4" fill="#5ACCFC" />
<rect x="176" y="244" width="4" height="4" fill="#5ACCFC" />
<rect x="180" y="244" width="4" height="4" fill="#5ACCFC" />
<rect x="184" y="244" width="4" height="4" fill="#007BC5" />
<rect x="188" y="244" width="4" height="4" fill="#A7DEFF" />
<rect x="272" y="244" width="4" height="4" fill="#33ADF7" />
<rect x="276" y="244" width="4" height="4" fill="#33ADF7" />
<rect x="280" y="244" width="4" height="4" fill="#33ADF7" />
<rect x="284" y="244" width="4" height="4" fill="#2996D6" />
<rect x="288" y="244" width="4" height="4" fill="#5ACCFC" />
<rect x="292" y="244" width="4" height="4" fill="#2996D6" />
<rect x="296" y="244" width="4" height="4" fill="#2996D6" />
<rect x="300" y="244" width="4" height="4" fill="#2694D4" />
<rect x="304" y="244" width="4" height="4" fill="#007BC5" />
<rect x="308" y="244" width="4" height="4" fill="#007BC5" />
<rect x="312" y="244" width="4" height="4" fill="#007BC5" />
<rect x="316" y="244" width="4" height="4" fill="#2795D5" />
<rect x="320" y="244" width="4" height="4" fill="#2795D5" />
<rect x="324" y="244" width="4" height="4" fill="#A7DEFF" />
<rect x="328" y="244" width="4" height="4" fill="#E8FFF9" />
<rect x="120" y="248" width="4" height="4" fill="#33ADF7" />
<rect x="124" y="248" width="4" height="4" fill="#2795D5" />
<rect x="128" y="248" width="4" height="4" fill="#2795D5" />
<rect x="132" y="248" width="4" height="4" fill="#007BC5" />
<rect x="136" y="248" width="4" height="4" fill="#2795D5" />
<rect x="140" y="248" width="4" height="4" fill="#2795D5" />
<rect x="144" y="248" width="4" height="4" fill="#2795D5" />
<rect x="148" y="248" width="4" height="4" fill="#2795D5" />
<rect x="152" y="248" width="4" height="4" fill="#2795D5" />
<rect x="156" y="248" width="4" height="4" fill="#007BC5" />
<rect x="160" y="248" width="4" height="4" fill="#007BC5" />
<rect x="164" y="248" width="4" height="4" fill="#2795D5" />
<rect x="168" y="248" width="4" height="4" fill="#2795D5" />
<rect x="172" y="248" width="4" height="4" fill="#5ACCFC" />
<rect x="176" y="248" width="4" height="4" fill="#E8FFF9" />
<rect x="180" y="248" width="4" height="4" fill="#E8FFF9" />
<rect x="184" y="248" width="4" height="4" fill="#00ACFC" />
<rect x="188" y="248" width="4" height="4" fill="#33ADF7" />
<rect x="264" y="248" width="4" height="4" fill="#33ADF7" />
<rect x="268" y="248" width="4" height="4" fill="#2694D4" />
<rect x="272" y="248" width="4" height="4" fill="#2694D4" />
<rect x="276" y="248" width="4" height="4" fill="#2694D4" />
<rect x="280" y="248" width="4" height="4" fill="#2694D4" />
<rect x="284" y="248" width="4" height="4" fill="#5ACCFC" />
<rect x="288" y="248" width="4" height="4" fill="#5ACCFC" />
<rect x="292" y="248" width="4" height="4" fill="#2795D5" />
<rect x="296" y="248" width="4" height="4" fill="#2795D5" />
<rect x="300" y="248" width="4" height="4" fill="#2694D4" />
<rect x="304" y="248" width="4" height="4" fill="#2694D4" />
<rect x="308" y="248" width="4" height="4" fill="#2694D4" />
<rect x="312" y="248" width="4" height="4" fill="#2996D6" />
<rect x="316" y="248" width="4" height="4" fill="#2996D6" />
<rect x="320" y="248" width="4" height="4" fill="#2996D6" />
<rect x="324" y="248" width="4" height="4" fill="#E8FFF9" />
<rect x="328" y="248" width="4" height="4" fill="#5ECDFC" />
<rect x="332" y="248" width="4" height="4" fill="#33ADF7" />
<rect x="116" y="252" width="4" height="4" fill="#33ADF7" />
<rect x="120" y="252" width="4" height="4" fill="#2996D6" />
<rect x="124" y="252" width="4" height="4" fill="#007BC5" />
<rect x="128" y="252" width="4" height="4" fill="#007BC5" />
<rect x="132" y="252" width="4" height="4" fill="#007BC5" />
<rect x="136" y="252" width="4" height="4" fill="#5ACCFC" />
<rect x="140" y="252" width="4" height="4" fill="#5ACCFC" />
<rect x="144" y="252" width="4" height="4" fill="#2795D5" />
<rect x="148" y="252" width="4" height="4" fill="#2795D5" />
<rect x="152" y="252" width="4" height="4" fill="#2795D5" />
<rect x="156" y="252" width="4" height="4" fill="#007BC5" />
<rect x="160" y="252" width="4" height="4" fill="#007BC5" />
<rect x="164" y="252" width="4" height="4" fill="#2795D5" />
<rect x="168" y="252" width="4" height="4" fill="#2795D5" />
<rect x="172" y="252" width="4" height="4" fill="#E8FFF9" />
<rect x="176" y="252" width="4" height="4" fill="#E8FFF9" />
<rect x="180" y="252" width="4" height="4" fill="#E8FFF9" />
<rect x="184" y="252" width="4" height="4" fill="#00ACFC" />
<rect x="188" y="252" width="4" height="4" fill="#33ADF7" />
<rect x="264" y="252" width="4" height="4" fill="#33ADF7" />
<rect x="268" y="252" width="4" height="4" fill="#2694D4" />
<rect x="272" y="252" width="4" height="4" fill="#007BC5" />
<rect x="276" y="252" width="4" height="4" fill="#007BC5" />
<rect x="280" y="252" width="4" height="4" fill="#007BC5" />
<rect x="284" y="252" width="4" height="4" fill="#A7DEFF" />
<rect x="288" y="252" width="4" height="4" fill="#5ACCFC" />
<rect x="292" y="252" width="4" height="4" fill="#007BC5" />
<rect x="296" y="252" width="4" height="4" fill="#007BC5" />
<rect x="300" y="252" width="4" height="4" fill="#2694D4" />
<rect x="304" y="252" width="4" height="4" fill="#2694D4" />
<rect x="308" y="252" width="4" height="4" fill="#2694D4" />
<rect x="312" y="252" width="4" height="4" fill="#2694D4" />
<rect x="316" y="252" width="4" height="4" fill="#E8FFF9" />
<rect x="320" y="252" width="4" height="4" fill="#E8FFF9" />
<rect x="324" y="252" width="4" height="4" fill="#E8FFF9" />
<rect x="328" y="252" width="4" height="4" fill="#5ECDFC" />
<rect x="332" y="252" width="4" height="4" fill="#33ADF7" />
<rect x="116" y="256" width="4" height="4" fill="#33ADF7" />
<rect x="120" y="256" width="4" height="4" fill="#2996D6" />
<rect x="124" y="256" width="4" height="4" fill="#007BC5" />
<rect x="128" y="256" width="4" height="4" fill="#007BC5" />
<rect x="132" y="256" width="4" height="4" fill="#007BC5" />
<rect x="136" y="256" width="4" height="4" fill="#00ACFC" />
<rect x="140" y="256" width="4" height="4" fill="#5ACCFC" />
<rect x="144" y="256" width="4" height="4" fill="#2795D5" />
<rect x="148" y="256" width="4" height="4" fill="#2795D5" />
<rect x="152" y="256" width="4" height="4" fill="#2795D5" />
<rect x="156" y="256" width="4" height="4" fill="#007BC5" />
<rect x="160" y="256" width="4" height="4" fill="#007BC5" />
<rect x="164" y="256" width="4" height="4" fill="#007BC5" />
<rect x="168" y="256" width="4" height="4" fill="#2795D5" />
<rect x="172" y="256" width="4" height="4" fill="#E8FFF9" />
<rect x="176" y="256" width="4" height="4" fill="#E8FFF9" />
<rect x="180" y="256" width="4" height="4" fill="#E8FFF9" />
<rect x="184" y="256" width="4" height="4" fill="#00ACFC" />
<rect x="188" y="256" width="4" height="4" fill="#2996D6" />
<rect x="192" y="256" width="4" height="4" fill="#007BC5" />
<rect x="264" y="256" width="4" height="4" fill="#33ADF7" />
<rect x="268" y="256" width="4" height="4" fill="#007BC5" />
<rect x="272" y="256" width="4" height="4" fill="#007BC5" />
<rect x="276" y="256" width="4" height="4" fill="#007BC5" />
<rect x="280" y="256" width="4" height="4" fill="#007BC5" />
<rect x="284" y="256" width="4" height="4" fill="#A7DEFF" />
<rect x="288" y="256" width="4" height="4" fill="#5ACCFC" />
<rect x="292" y="256" width="4" height="4" fill="#007BC5" />
<rect x="296" y="256" width="4" height="4" fill="#007BC5" />
<rect x="300" y="256" width="4" height="4" fill="#2694D4" />
<rect x="304" y="256" width="4" height="4" fill="#2694D4" />
<rect x="308" y="256" width="4" height="4" fill="#2694D4" />
<rect x="312" y="256" width="4" height="4" fill="#33ADF7" />
<rect x="316" y="256" width="4" height="4" fill="#E8FFF9" />
<rect x="320" y="256" width="4" height="4" fill="#E8FFF9" />
<rect x="324" y="256" width="4" height="4" fill="#E8FFF9" />
<rect x="328" y="256" width="4" height="4" fill="#5ECDFC" />
<rect x="332" y="256" width="4" height="4" fill="#33ADF7" />
<rect x="116" y="260" width="4" height="4" fill="#33ADF7" />
<rect x="120" y="260" width="4" height="4" fill="#2996D6" />
<rect x="124" y="260" width="4" height="4" fill="#2795D5" />
<rect x="128" y="260" width="4" height="4" fill="#2795D5" />
<rect x="132" y="260" width="4" height="4" fill="#007BC5" />
<rect x="136" y="260" width="4" height="4" fill="#00ACFC" />
<rect x="140" y="260" width="4" height="4" fill="#5ACCFC" />
<rect x="144" y="260" width="4" height="4" fill="#2795D5" />
<rect x="148" y="260" width="4" height="4" fill="#2795D5" />
<rect x="152" y="260" width="4" height="4" fill="#2795D5" />
<rect x="156" y="260" width="4" height="4" fill="#007BC5" />
<rect x="160" y="260" width="4" height="4" fill="#007BC5" />
<rect x="164" y="260" width="4" height="4" fill="#007BC5" />
<rect x="168" y="260" width="4" height="4" fill="#2795D5" />
<rect x="172" y="260" width="4" height="4" fill="#E8FFF9" />
<rect x="176" y="260" width="4" height="4" fill="#E8FFF9" />
<rect x="180" y="260" width="4" height="4" fill="#E8FFF9" />
<rect x="184" y="260" width="4" height="4" fill="#00ACFC" />
<rect x="188" y="260" width="4" height="4" fill="#2996D6" />
<rect x="192" y="260" width="4" height="4" fill="#007BC5" />
<rect x="252" y="260" width="4" height="4" fill="#0F679A" />
<rect x="256" y="260" width="4" height="4" fill="#007BC5" />
<rect x="264" y="260" width="4" height="4" fill="#33ADF7" />
<rect x="268" y="260" width="4" height="4" fill="#33ADF7" />
<rect x="272" y="260" width="4" height="4" fill="#007BC5" />
<rect x="276" y="260" width="4" height="4" fill="#007BC5" />
<rect x="280" y="260" width="4" height="4" fill="#007BC5" />
<rect x="284" y="260" width="4" height="4" fill="#2996D6" />
<rect x="288" y="260" width="4" height="4" fill="#007BC5" />
<rect x="292" y="260" width="4" height="4" fill="#007BC5" />
<rect x="296" y="260" width="4" height="4" fill="#007BC5" />
<rect x="300" y="260" width="4" height="4" fill="#007BC5" />
<rect x="304" y="260" width="4" height="4" fill="#2694D4" />
<rect x="308" y="260" width="4" height="4" fill="#2694D4" />
<rect x="312" y="260" width="4" height="4" fill="#33ADF7" />
<rect x="316" y="260" width="4" height="4" fill="#E8FFF9" />
<rect x="320" y="260" width="4" height="4" fill="#E8FFF9" />
<rect x="324" y="260" width="4" height="4" fill="#E8FFF9" />
<rect x="328" y="260" width="4" height="4" fill="#5ECDFC" />
<rect x="332" y="260" width="4" height="4" fill="#33ADF7" />
<rect x="116" y="264" width="4" height="4" fill="#A7DEFF" />
<rect x="120" y="264" width="4" height="4" fill="#33ADF7" />
<rect x="124" y="264" width="4" height="4" fill="#2795D5" />
<rect x="128" y="264" width="4" height="4" fill="#2795D5" />
<rect x="132" y="264" width="4" height="4" fill="#33ADF7" />
<rect x="136" y="264" width="4" height="4" fill="#007BC5" />
<rect x="140" y="264" width="4" height="4" fill="#2795D5" />
<rect x="144" y="264" width="4" height="4" fill="#2795D5" />
<rect x="148" y="264" width="4" height="4" fill="#2795D5" />
<rect x="152" y="264" width="4" height="4" fill="#2795D5" />
<rect x="156" y="264" width="4" height="4" fill="#007BC5" />
<rect x="160" y="264" width="4" height="4" fill="#5ACCFC" />
<rect x="164" y="264" width="4" height="4" fill="#007BC5" />
<rect x="168" y="264" width="4" height="4" fill="#2795D5" />
<rect x="172" y="264" width="4" height="4" fill="#E8FFF9" />
<rect x="176" y="264" width="4" height="4" fill="#00ACFC" />
<rect x="180" y="264" width="4" height="4" fill="#00ACFC" />
<rect x="184" y="264" width="4" height="4" fill="#00ACFC" />
<rect x="188" y="264" width="4" height="4" fill="#2996D6" />
<rect x="192" y="264" width="4" height="4" fill="#007BC5" />
<rect x="252" y="264" width="4" height="4" fill="#0F679A" />
<rect x="256" y="264" width="4" height="4" fill="#007BC5" />
<rect x="260" y="264" width="4" height="4" fill="#007BC5" />
<rect x="264" y="264" width="4" height="4" fill="#33ADF7" />
<rect x="268" y="264" width="4" height="4" fill="#33ADF7" />
<rect x="272" y="264" width="4" height="4" fill="#007BC5" />
<rect x="276" y="264" width="4" height="4" fill="#007BC5" />
<rect x="280" y="264" width="4" height="4" fill="#2694D4" />
<rect x="284" y="264" width="4" height="4" fill="#2694D4" />
<rect x="288" y="264" width="4" height="4" fill="#007BC5" />
<rect x="292" y="264" width="4" height="4" fill="#007BC5" />
<rect x="296" y="264" width="4" height="4" fill="#007BC5" />
<rect x="300" y="264" width="4" height="4" fill="#007BC5" />
<rect x="304" y="264" width="4" height="4" fill="#2694D4" />
<rect x="308" y="264" width="4" height="4" fill="#2694D4" />
<rect x="312" y="264" width="4" height="4" fill="#33ADF7" />
<rect x="316" y="264" width="4" height="4" fill="#E8FFF9" />
<rect x="320" y="264" width="4" height="4" fill="#E8FFF9" />
<rect x="324" y="264" width="4" height="4" fill="#5ECDFC" />
<rect x="328" y="264" width="4" height="4" fill="#5ECDFC" />
<rect x="332" y="264" width="4" height="4" fill="#33ADF7" />
<rect x="120" y="268" width="4" height="4" fill="#A7DEFF" />
<rect x="124" y="268" width="4" height="4" fill="#2996D6" />
<rect x="128" y="268" width="4" height="4" fill="#2996D6" />
<rect x="132" y="268" width="4" height="4" fill="#2996D6" />
<rect x="136" y="268" width="4" height="4" fill="#33ADF7" />
<rect x="140" y="268" width="4" height="4" fill="#007BC5" />
<rect x="144" y="268" width="4" height="4" fill="#2795D5" />
<rect x="148" y="268" width="4" height="4" fill="#2795D5" />
<rect x="152" y="268" width="4" height="4" fill="#2795D5" />
<rect x="156" y="268" width="4" height="4" fill="#2795D5" />
<rect x="160" y="268" width="4" height="4" fill="#5ACCFC" />
<rect x="164" y="268" width="4" height="4" fill="#007BC5" />
<rect x="168" y="268" width="4" height="4" fill="#2996D6" />
<rect x="172" y="268" width="4" height="4" fill="#5ACCFC" />
<rect x="176" y="268" width="4" height="4" fill="#00ACFC" />
<rect x="180" y="268" width="4" height="4" fill="#00ACFC" />
<rect x="184" y="268" width="4" height="4" fill="#00ACFC" />
<rect x="188" y="268" width="4" height="4" fill="#2996D6" />
<rect x="192" y="268" width="4" height="4" fill="#007BC5" />
<rect x="252" y="268" width="4" height="4" fill="#0F679A" />
<rect x="256" y="268" width="4" height="4" fill="#0F679A" />
<rect x="260" y="268" width="4" height="4" fill="#007BC5" />
<rect x="264" y="268" width="4" height="4" fill="#33ADF7" />
<rect x="268" y="268" width="4" height="4" fill="#2996D6" />
<rect x="272" y="268" width="4" height="4" fill="#33ADF7" />
<rect x="276" y="268" width="4" height="4" fill="#33ADF7" />
<rect x="280" y="268" width="4" height="4" fill="#2694D4" />
<rect x="284" y="268" width="4" height="4" fill="#2694D4" />
<rect x="288" y="268" width="4" height="4" fill="#007BC5" />
<rect x="292" y="268" width="4" height="4" fill="#007BC5" />
<rect x="296" y="268" width="4" height="4" fill="#007BC5" />
<rect x="300" y="268" width="4" height="4" fill="#007BC5" />
<rect x="304" y="268" width="4" height="4" fill="#2694D4" />
<rect x="308" y="268" width="4" height="4" fill="#2694D4" />
<rect x="312" y="268" width="4" height="4" fill="#33ADF7" />
<rect x="316" y="268" width="4" height="4" fill="#00ACFC" />
<rect x="320" y="268" width="4" height="4" fill="#00ACFC" />
<rect x="324" y="268" width="4" height="4" fill="#5ECDFC" />
<rect x="328" y="268" width="4" height="4" fill="#5ECDFC" />
<rect x="124" y="272" width="4" height="4" fill="#A7DEFF" />
<rect x="128" y="272" width="4" height="4" fill="#A7DEFF" />
<rect x="132" y="272" width="4" height="4" fill="#2996D6" />
<rect x="136" y="272" width="4" height="4" fill="#33ADF7" />
<rect x="140" y="272" width="4" height="4" fill="#007BC5" />
<rect x="144" y="272" width="4" height="4" fill="#2795D5" />
<rect x="148" y="272" width="4" height="4" fill="#2795D5" />
<rect x="152" y="272" width="4" height="4" fill="#2795D5" />
<rect x="156" y="272" width="4" height="4" fill="#2795D5" />
<rect x="160" y="272" width="4" height="4" fill="#007BC5" />
<rect x="164" y="272" width="4" height="4" fill="#007BC5" />
<rect x="168" y="272" width="4" height="4" fill="#2795D5" />
<rect x="172" y="272" width="4" height="4" fill="#5ACCFC" />
<rect x="176" y="272" width="4" height="4" fill="#00ACFC" />
<rect x="180" y="272" width="4" height="4" fill="#00ACFC" />
<rect x="184" y="272" width="4" height="4" fill="#5ECDFC" />
<rect x="188" y="272" width="4" height="4" fill="#0F679A" />
<rect x="192" y="272" width="4" height="4" fill="#007BC5" />
<rect x="196" y="272" width="4" height="4" fill="#0F679A" />
<rect x="252" y="272" width="4" height="4" fill="#0F679A" />
<rect x="256" y="272" width="4" height="4" fill="#0F679A" />
<rect x="260" y="272" width="4" height="4" fill="#007BC5" />
<rect x="264" y="272" width="4" height="4" fill="#33ADF7" />
<rect x="268" y="272" width="4" height="4" fill="#2996D6" />
<rect x="272" y="272" width="4" height="4" fill="#33ADF7" />
<rect x="276" y="272" width="4" height="4" fill="#33ADF7" />
<rect x="280" y="272" width="4" height="4" fill="#A7DEFF" />
<rect x="284" y="272" width="4" height="4" fill="#2694D4" />
<rect x="288" y="272" width="4" height="4" fill="#007BC5" />
<rect x="292" y="272" width="4" height="4" fill="#007BC5" />
<rect x="296" y="272" width="4" height="4" fill="#007BC5" />
<rect x="300" y="272" width="4" height="4" fill="#007BC5" />
<rect x="304" y="272" width="4" height="4" fill="#2694D4" />
<rect x="308" y="272" width="4" height="4" fill="#33ADF7" />
<rect x="312" y="272" width="4" height="4" fill="#00ACFC" />
<rect x="316" y="272" width="4" height="4" fill="#5ECDFC" />
<rect x="320" y="272" width="4" height="4" fill="#5ECDFC" />
<rect x="324" y="272" width="4" height="4" fill="#5ECDFC" />
<rect x="328" y="272" width="4" height="4" fill="#33ADF7" />
<rect x="124" y="276" width="4" height="4" fill="#E8FFF9" />
<rect x="128" y="276" width="4" height="4" fill="#E8FFF9" />
<rect x="132" y="276" width="4" height="4" fill="#2996D6" />
<rect x="136" y="276" width="4" height="4" fill="#2996D6" />
<rect x="140" y="276" width="4" height="4" fill="#33ADF7" />
<rect x="144" y="276" width="4" height="4" fill="#5ACCFC" />
<rect x="148" y="276" width="4" height="4" fill="#2795D5" />
<rect x="152" y="276" width="4" height="4" fill="#2795D5" />
<rect x="156" y="276" width="4" height="4" fill="#2795D5" />
<rect x="160" y="276" width="4" height="4" fill="#007BC5" />
<rect x="164" y="276" width="4" height="4" fill="#007BC5" />
<rect x="168" y="276" width="4" height="4" fill="#007BC5" />
<rect x="172" y="276" width="4" height="4" fill="#33ADF7" />
<rect x="176" y="276" width="4" height="4" fill="#00ACFC" />
<rect x="180" y="276" width="4" height="4" fill="#00ACFC" />
<rect x="184" y="276" width="4" height="4" fill="#5ECDFC" />
<rect x="188" y="276" width="4" height="4" fill="#0F679A" />
<rect x="192" y="276" width="4" height="4" fill="#0F679A" />
<rect x="196" y="276" width="4" height="4" fill="#0F679A" />
<rect x="252" y="276" width="4" height="4" fill="#0F679A" />
<rect x="256" y="276" width="4" height="4" fill="#0F679A" />
<rect x="260" y="276" width="4" height="4" fill="#0F679A" />
<rect x="264" y="276" width="4" height="4" fill="#0F679A" />
<rect x="268" y="276" width="4" height="4" fill="#33ADF7" />
<rect x="272" y="276" width="4" height="4" fill="#33ADF7" />
<rect x="276" y="276" width="4" height="4" fill="#33ADF7" />
<rect x="280" y="276" width="4" height="4" fill="#A7DEFF" />
<rect x="284" y="276" width="4" height="4" fill="#2694D4" />
<rect x="288" y="276" width="4" height="4" fill="#007BC5" />
<rect x="292" y="276" width="4" height="4" fill="#007BC5" />
<rect x="296" y="276" width="4" height="4" fill="#007BC5" />
<rect x="300" y="276" width="4" height="4" fill="#007BC5" />
<rect x="304" y="276" width="4" height="4" fill="#2694D4" />
<rect x="308" y="276" width="4" height="4" fill="#33ADF7" />
<rect x="312" y="276" width="4" height="4" fill="#00ACFC" />
<rect x="316" y="276" width="4" height="4" fill="#5ECDFC" />
<rect x="320" y="276" width="4" height="4" fill="#5ECDFC" />
<rect x="324" y="276" width="4" height="4" fill="#5ECDFC" />
<rect x="132" y="280" width="4" height="4" fill="#E8FFF9" />
<rect x="136" y="280" width="4" height="4" fill="#2996D6" />
<rect x="140" y="280" width="4" height="4" fill="#33ADF7" />
<rect x="144" y="280" width="4" height="4" fill="#5ACCFC" />
<rect x="148" y="280" width="4" height="4" fill="#2795D5" />
<rect x="152" y="280" width="4" height="4" fill="#2795D5" />
<rect x="156" y="280" width="4" height="4" fill="#2795D5" />
<rect x="160" y="280" width="4" height="4" fill="#007BC5" />
<rect x="164" y="280" width="4" height="4" fill="#007BC5" />
<rect x="168" y="280" width="4" height="4" fill="#007BC5" />
<rect x="172" y="280" width="4" height="4" fill="#33ADF7" />
<rect x="176" y="280" width="4" height="4" fill="#00ACFC" />
<rect x="180" y="280" width="4" height="4" fill="#00ACFC" />
<rect x="184" y="280" width="4" height="4" fill="#5ECDFC" />
<rect x="188" y="280" width="4" height="4" fill="#0F679A" />
<rect x="192" y="280" width="4" height="4" fill="#0F679A" />
<rect x="260" y="280" width="4" height="4" fill="#0F679A" />
<rect x="264" y="280" width="4" height="4" fill="#0F679A" />
<rect x="268" y="280" width="4" height="4" fill="#33ADF7" />
<rect x="272" y="280" width="4" height="4" fill="#33ADF7" />
<rect x="276" y="280" width="4" height="4" fill="#33ADF7" />
<rect x="280" y="280" width="4" height="4" fill="#A7DEFF" />
<rect x="284" y="280" width="4" height="4" fill="#2694D4" />
<rect x="288" y="280" width="4" height="4" fill="#33ADF7" />
<rect x="292" y="280" width="4" height="4" fill="#007BC5" />
<rect x="296" y="280" width="4" height="4" fill="#007BC5" />
<rect x="300" y="280" width="4" height="4" fill="#007BC5" />
<rect x="304" y="280" width="4" height="4" fill="#2694D4" />
<rect x="308" y="280" width="4" height="4" fill="#33ADF7" />
<rect x="312" y="280" width="4" height="4" fill="#00ACFC" />
<rect x="316" y="280" width="4" height="4" fill="#5ECDFC" />
<rect x="320" y="280" width="4" height="4" fill="#5ECDFC" />
<rect x="324" y="280" width="4" height="4" fill="#5ECDFC" />
<rect x="132" y="284" width="4" height="4" fill="#E8FFF9" />
<rect x="136" y="284" width="4" height="4" fill="#2996D6" />
<rect x="140" y="284" width="4" height="4" fill="#2996D6" />
<rect x="144" y="284" width="4" height="4" fill="#5ACCFC" />
<rect x="148" y="284" width="4" height="4" fill="#2795D5" />
<rect x="152" y="284" width="4" height="4" fill="#2795D5" />
<rect x="156" y="284" width="4" height="4" fill="#2795D5" />
<rect x="160" y="284" width="4" height="4" fill="#2795D5" />
<rect x="164" y="284" width="4" height="4" fill="#007BC5" />
<rect x="168" y="284" width="4" height="4" fill="#007BC5" />
<rect x="172" y="284" width="4" height="4" fill="#33ADF7" />
<rect x="176" y="284" width="4" height="4" fill="#00ACFC" />
<rect x="180" y="284" width="4" height="4" fill="#00ACFC" />
<rect x="184" y="284" width="4" height="4" fill="#5ECDFC" />
<rect x="188" y="284" width="4" height="4" fill="#0F679A" />
<rect x="192" y="284" width="4" height="4" fill="#0F679A" />
<rect x="264" y="284" width="4" height="4" fill="#0F679A" />
<rect x="268" y="284" width="4" height="4" fill="#33ADF7" />
<rect x="272" y="284" width="4" height="4" fill="#2996D6" />
<rect x="276" y="284" width="4" height="4" fill="#2996D6" />
<rect x="280" y="284" width="4" height="4" fill="#33ADF7" />
<rect x="284" y="284" width="4" height="4" fill="#2694D4" />
<rect x="288" y="284" width="4" height="4" fill="#33ADF7" />
<rect x="292" y="284" width="4" height="4" fill="#007BC5" />
<rect x="296" y="284" width="4" height="4" fill="#007BC5" />
<rect x="300" y="284" width="4" height="4" fill="#007BC5" />
<rect x="304" y="284" width="4" height="4" fill="#2694D4" />
<rect x="308" y="284" width="4" height="4" fill="#33ADF7" />
<rect x="312" y="284" width="4" height="4" fill="#00ACFC" />
<rect x="316" y="284" width="4" height="4" fill="#5ECDFC" />
<rect x="320" y="284" width="4" height="4" fill="#5ECDFC" />
<rect x="324" y="284" width="4" height="4" fill="#33ADF7" />
<rect x="136" y="288" width="4" height="4" fill="#A7DEFF" />
<rect x="140" y="288" width="4" height="4" fill="#2996D6" />
<rect x="144" y="288" width="4" height="4" fill="#33ADF7" />
<rect x="148" y="288" width="4" height="4" fill="#33ADF7" />
<rect x="152" y="288" width="4" height="4" fill="#33ADF7" />
<rect x="156" y="288" width="4" height="4" fill="#2795D5" />
<rect x="160" y="288" width="4" height="4" fill="#2795D5" />
<rect x="164" y="288" width="4" height="4" fill="#007BC5" />
<rect x="168" y="288" width="4" height="4" fill="#007BC5" />
<rect x="172" y="288" width="4" height="4" fill="#33ADF7" />
<rect x="176" y="288" width="4" height="4" fill="#00ACFC" />
<rect x="180" y="288" width="4" height="4" fill="#00ACFC" />
<rect x="184" y="288" width="4" height="4" fill="#5ECDFC" />
<rect x="188" y="288" width="4" height="4" fill="#0F679A" />
<rect x="264" y="288" width="4" height="4" fill="#0F679A" />
<rect x="268" y="288" width="4" height="4" fill="#33ADF7" />
<rect x="272" y="288" width="4" height="4" fill="#2996D6" />
<rect x="276" y="288" width="4" height="4" fill="#2996D6" />
<rect x="280" y="288" width="4" height="4" fill="#33ADF7" />
<rect x="284" y="288" width="4" height="4" fill="#2694D4" />
<rect x="288" y="288" width="4" height="4" fill="#33ADF7" />
<rect x="292" y="288" width="4" height="4" fill="#007BC5" />
<rect x="296" y="288" width="4" height="4" fill="#007BC5" />
<rect x="300" y="288" width="4" height="4" fill="#007BC5" />
<rect x="304" y="288" width="4" height="4" fill="#33ADF7" />
<rect x="308" y="288" width="4" height="4" fill="#00ACFC" />
<rect x="312" y="288" width="4" height="4" fill="#A7DEFF" />
<rect x="316" y="288" width="4" height="4" fill="#5ECDFC" />
<rect x="320" y="288" width="4" height="4" fill="#5ECDFC" />
<rect x="136" y="292" width="4" height="4" fill="#A7DEFF" />
<rect x="140" y="292" width="4" height="4" fill="#2996D6" />
<rect x="144" y="292" width="4" height="4" fill="#2996D6" />
<rect x="148" y="292" width="4" height="4" fill="#33ADF7" />
<rect x="152" y="292" width="4" height="4" fill="#33ADF7" />
<rect x="156" y="292" width="4" height="4" fill="#2795D5" />
<rect x="160" y="292" width="4" height="4" fill="#2795D5" />
<rect x="164" y="292" width="4" height="4" fill="#007BC5" />
<rect x="168" y="292" width="4" height="4" fill="#007BC5" />
<rect x="172" y="292" width="4" height="4" fill="#00ACFC" />
<rect x="176" y="292" width="4" height="4" fill="#00ACFC" />
<rect x="180" y="292" width="4" height="4" fill="#00ACFC" />
<rect x="184" y="292" width="4" height="4" fill="#5ECDFC" />
<rect x="188" y="292" width="4" height="4" fill="#0F679A" />
<rect x="264" y="292" width="4" height="4" fill="#0F679A" />
<rect x="272" y="292" width="4" height="4" fill="#33ADF7" />
<rect x="276" y="292" width="4" height="4" fill="#33ADF7" />
<rect x="280" y="292" width="4" height="4" fill="#33ADF7" />
<rect x="284" y="292" width="4" height="4" fill="#2694D4" />
<rect x="288" y="292" width="4" height="4" fill="#33ADF7" />
<rect x="292" y="292" width="4" height="4" fill="#007BC5" />
<rect x="296" y="292" width="4" height="4" fill="#007BC5" />
<rect x="300" y="292" width="4" height="4" fill="#007BC5" />
<rect x="304" y="292" width="4" height="4" fill="#33ADF7" />
<rect x="308" y="292" width="4" height="4" fill="#00ACFC" />
<rect x="312" y="292" width="4" height="4" fill="#A7DEFF" />
<rect x="316" y="292" width="4" height="4" fill="#5ECDFC" />
<rect x="320" y="292" width="4" height="4" fill="#5ECDFC" />
<rect x="140" y="296" width="4" height="4" fill="#A7DEFF" />
<rect x="144" y="296" width="4" height="4" fill="#5ECDFC" />
<rect x="148" y="296" width="4" height="4" fill="#33ADF7" />
<rect x="152" y="296" width="4" height="4" fill="#33ADF7" />
<rect x="156" y="296" width="4" height="4" fill="#33ADF7" />
<rect x="160" y="296" width="4" height="4" fill="#2795D5" />
<rect x="164" y="296" width="4" height="4" fill="#007BC5" />
<rect x="168" y="296" width="4" height="4" fill="#007BC5" />
<rect x="172" y="296" width="4" height="4" fill="#00ACFC" />
<rect x="176" y="296" width="4" height="4" fill="#00ACFC" />
<rect x="180" y="296" width="4" height="4" fill="#00ACFC" />
<rect x="184" y="296" width="4" height="4" fill="#5ECDFC" />
<rect x="272" y="296" width="4" height="4" fill="#33ADF7" />
<rect x="276" y="296" width="4" height="4" fill="#33ADF7" />
<rect x="280" y="296" width="4" height="4" fill="#5ECDFC" />
<rect x="284" y="296" width="4" height="4" fill="#5ECDFC" />
<rect x="288" y="296" width="4" height="4" fill="#33ADF7" />
<rect x="292" y="296" width="4" height="4" fill="#007BC5" />
<rect x="296" y="296" width="4" height="4" fill="#007BC5" />
<rect x="300" y="296" width="4" height="4" fill="#2694D4" />
<rect x="304" y="296" width="4" height="4" fill="#00ACFC" />
<rect x="308" y="296" width="4" height="4" fill="#A7DEFF" />
<rect x="312" y="296" width="4" height="4" fill="#5ECDFC" />
<rect x="140" y="300" width="4" height="4" fill="#A7DEFF" />
<rect x="144" y="300" width="4" height="4" fill="#5ECDFC" />
<rect x="148" y="300" width="4" height="4" fill="#5ECDFC" />
<rect x="152" y="300" width="4" height="4" fill="#5ECDFC" />
<rect x="156" y="300" width="4" height="4" fill="#33ADF7" />
<rect x="160" y="300" width="4" height="4" fill="#2795D5" />
<rect x="164" y="300" width="4" height="4" fill="#2795D5" />
<rect x="168" y="300" width="4" height="4" fill="#007BC5" />
<rect x="172" y="300" width="4" height="4" fill="#00ACFC" />
<rect x="176" y="300" width="4" height="4" fill="#00ACFC" />
<rect x="180" y="300" width="4" height="4" fill="#00ACFC" />
<rect x="184" y="300" width="4" height="4" fill="#5ECDFC" />
<rect x="272" y="300" width="4" height="4" fill="#33ADF7" />
<rect x="276" y="300" width="4" height="4" fill="#33ADF7" />
<rect x="280" y="300" width="4" height="4" fill="#5ECDFC" />
<rect x="284" y="300" width="4" height="4" fill="#5ECDFC" />
<rect x="288" y="300" width="4" height="4" fill="#33ADF7" />
<rect x="292" y="300" width="4" height="4" fill="#007BC5" />
<rect x="296" y="300" width="4" height="4" fill="#007BC5" />
<rect x="300" y="300" width="4" height="4" fill="#2694D4" />
<rect x="304" y="300" width="4" height="4" fill="#00ACFC" />
<rect x="308" y="300" width="4" height="4" fill="#A7DEFF" />
<rect x="312" y="300" width="4" height="4" fill="#33ADF7" />
<rect x="144" y="304" width="4" height="4" fill="#A7DEFF" />
<rect x="148" y="304" width="4" height="4" fill="#5ECDFC" />
<rect x="152" y="304" width="4" height="4" fill="#5ECDFC" />
<rect x="156" y="304" width="4" height="4" fill="#33ADF7" />
<rect x="160" y="304" width="4" height="4" fill="#2795D5" />
<rect x="164" y="304" width="4" height="4" fill="#2795D5" />
<rect x="168" y="304" width="4" height="4" fill="#007BC5" />
<rect x="172" y="304" width="4" height="4" fill="#00ACFC" />
<rect x="176" y="304" width="4" height="4" fill="#00ACFC" />
<rect x="180" y="304" width="4" height="4" fill="#00ACFC" />
<rect x="184" y="304" width="4" height="4" fill="#2996D6" />
<rect x="280" y="304" width="4" height="4" fill="#33ADF7" />
<rect x="284" y="304" width="4" height="4" fill="#5ECDFC" />
<rect x="288" y="304" width="4" height="4" fill="#33ADF7" />
<rect x="292" y="304" width="4" height="4" fill="#007BC5" />
<rect x="296" y="304" width="4" height="4" fill="#007BC5" />
<rect x="300" y="304" width="4" height="4" fill="#33ADF7" />
<rect x="304" y="304" width="4" height="4" fill="#00ACFC" />
<rect x="308" y="304" width="4" height="4" fill="#A7DEFF" />
<rect x="144" y="308" width="4" height="4" fill="#A7DEFF" />
<rect x="148" y="308" width="4" height="4" fill="#5ECDFC" />
<rect x="152" y="308" width="4" height="4" fill="#5ECDFC" />
<rect x="156" y="308" width="4" height="4" fill="#5ECDFC" />
<rect x="160" y="308" width="4" height="4" fill="#33ADF7" />
<rect x="164" y="308" width="4" height="4" fill="#2795D5" />
<rect x="168" y="308" width="4" height="4" fill="#007BC5" />
<rect x="172" y="308" width="4" height="4" fill="#00ACFC" />
<rect x="176" y="308" width="4" height="4" fill="#00ACFC" />
<rect x="180" y="308" width="4" height="4" fill="#00ACFC" />
<rect x="184" y="308" width="4" height="4" fill="#2996D6" />
<rect x="280" y="308" width="4" height="4" fill="#33ADF7" />
<rect x="284" y="308" width="4" height="4" fill="#5ECDFC" />
<rect x="288" y="308" width="4" height="4" fill="#33ADF7" />
<rect x="292" y="308" width="4" height="4" fill="#007BC5" />
<rect x="296" y="308" width="4" height="4" fill="#007BC5" />
<rect x="300" y="308" width="4" height="4" fill="#33ADF7" />
<rect x="304" y="308" width="4" height="4" fill="#A7DEFF" />
<rect x="308" y="308" width="4" height="4" fill="#5ECDFC" />
<rect x="148" y="312" width="4" height="4" fill="#A7DEFF" />
<rect x="152" y="312" width="4" height="4" fill="#A7DEFF" />
<rect x="156" y="312" width="4" height="4" fill="#5ECDFC" />
<rect x="160" y="312" width="4" height="4" fill="#5ECDFC" />
<rect x="164" y="312" width="4" height="4" fill="#33ADF7" />
<rect x="168" y="312" width="4" height="4" fill="#33ADF7" />
<rect x="172" y="312" width="4" height="4" fill="#00ACFC" />
<rect x="176" y="312" width="4" height="4" fill="#00ACFC" />
<rect x="180" y="312" width="4" height="4" fill="#00ACFC" />
<rect x="184" y="312" width="4" height="4" fill="#2996D6" />
<rect x="280" y="312" width="4" height="4" fill="#33ADF7" />
<rect x="284" y="312" width="4" height="4" fill="#5ECDFC" />
<rect x="288" y="312" width="4" height="4" fill="#33ADF7" />
<rect x="292" y="312" width="4" height="4" fill="#007BC5" />
<rect x="296" y="312" width="4" height="4" fill="#007BC5" />
<rect x="300" y="312" width="4" height="4" fill="#33ADF7" />
<rect x="304" y="312" width="4" height="4" fill="#A7DEFF" />
<rect x="308" y="312" width="4" height="4" fill="#33ADF7" />
<rect x="156" y="316" width="4" height="4" fill="#E8FFF9" />
<rect x="160" y="316" width="4" height="4" fill="#5ECDFC" />
<rect x="164" y="316" width="4" height="4" fill="#33ADF7" />
<rect x="168" y="316" width="4" height="4" fill="#33ADF7" />
<rect x="172" y="316" width="4" height="4" fill="#00ACFC" />
<rect x="176" y="316" width="4" height="4" fill="#00ACFC" />
<rect x="180" y="316" width="4" height="4" fill="#00ACFC" />
<rect x="184" y="316" width="4" height="4" fill="#2996D6" />
<rect x="280" y="316" width="4" height="4" fill="#33ADF7" />
<rect x="284" y="316" width="4" height="4" fill="#5ECDFC" />
<rect x="288" y="316" width="4" height="4" fill="#33ADF7" />
<rect x="292" y="316" width="4" height="4" fill="#00ACFC" />
<rect x="296" y="316" width="4" height="4" fill="#00ACFC" />
<rect x="300" y="316" width="4" height="4" fill="#33ADF7" />
<rect x="304" y="316" width="4" height="4" fill="#A7DEFF" />
<rect x="156" y="320" width="4" height="4" fill="#E8FFF9" />
<rect x="160" y="320" width="4" height="4" fill="#5ECDFC" />
<rect x="164" y="320" width="4" height="4" fill="#33ADF7" />
<rect x="168" y="320" width="4" height="4" fill="#33ADF7" />
<rect x="172" y="320" width="4" height="4" fill="#5ECDFC" />
<rect x="176" y="320" width="4" height="4" fill="#00ACFC" />
<rect x="180" y="320" width="4" height="4" fill="#00ACFC" />
<rect x="184" y="320" width="4" height="4" fill="#2996D6" />
<rect x="280" y="320" width="4" height="4" fill="#33ADF7" />
<rect x="284" y="320" width="4" height="4" fill="#5ECDFC" />
<rect x="288" y="320" width="4" height="4" fill="#33ADF7" />
<rect x="292" y="320" width="4" height="4" fill="#33ADF7" />
<rect x="296" y="320" width="4" height="4" fill="#33ADF7" />
<rect x="300" y="320" width="4" height="4" fill="#A7DEFF" />
<rect x="304" y="320" width="4" height="4" fill="#33ADF7" />
<rect x="160" y="324" width="4" height="4" fill="#E8FFF9" />
<rect x="164" y="324" width="4" height="4" fill="#5ECDFC" />
<rect x="168" y="324" width="4" height="4" fill="#33ADF7" />
<rect x="172" y="324" width="4" height="4" fill="#5ECDFC" />
<rect x="176" y="324" width="4" height="4" fill="#00ACFC" />
<rect x="180" y="324" width="4" height="4" fill="#00ACFC" />
<rect x="184" y="324" width="4" height="4" fill="#2996D6" />
<rect x="284" y="324" width="4" height="4" fill="#33ADF7" />
<rect x="288" y="324" width="4" height="4" fill="#33ADF7" />
<rect x="292" y="324" width="4" height="4" fill="#33ADF7" />
<rect x="296" y="324" width="4" height="4" fill="#33ADF7" />
<rect x="300" y="324" width="4" height="4" fill="#A7DEFF" />
<rect x="160" y="328" width="4" height="4" fill="#E8FFF9" />
<rect x="164" y="328" width="4" height="4" fill="#5ECDFC" />
<rect x="168" y="328" width="4" height="4" fill="#33ADF7" />
<rect x="172" y="328" width="4" height="4" fill="#5ECDFC" />
<rect x="176" y="328" width="4" height="4" fill="#5ECDFC" />
<rect x="180" y="328" width="4" height="4" fill="#5ECDFC" />
<rect x="184" y="328" width="4" height="4" fill="#2996D6" />
<rect x="284" y="328" width="4" height="4" fill="#33ADF7" />
<rect x="288" y="328" width="4" height="4" fill="#2694D4" />
<rect x="292" y="328" width="4" height="4" fill="#33ADF7" />
<rect x="296" y="328" width="4" height="4" fill="#33ADF7" />
<rect x="300" y="328" width="4" height="4" fill="#5ECDFC" />
<rect x="164" y="332" width="4" height="4" fill="#E8FFF9" />
<rect x="168" y="332" width="4" height="4" fill="#5ECDFC" />
<rect x="172" y="332" width="4" height="4" fill="#33ADF7" />
<rect x="176" y="332" width="4" height="4" fill="#5ECDFC" />
<rect x="180" y="332" width="4" height="4" fill="#5ECDFC" />
<rect x="184" y="332" width="4" height="4" fill="#2996D6" />
<rect x="284" y="332" width="4" height="4" fill="#33ADF7" />
<rect x="288" y="332" width="4" height="4" fill="#58CBFC" />
<rect x="292" y="332" width="4" height="4" fill="#33ADF7" />
<rect x="296" y="332" width="4" height="4" fill="#33ADF7" />
<rect x="300" y="332" width="4" height="4" fill="#5ECDFC" />
<rect x="164" y="336" width="4" height="4" fill="#E8FFF9" />
<rect x="168" y="336" width="4" height="4" fill="#5ECDFC" />
<rect x="172" y="336" width="4" height="4" fill="#33ADF7" />
<rect x="176" y="336" width="4" height="4" fill="#5ECDFC" />
<rect x="180" y="336" width="4" height="4" fill="#5ECDFC" />
<rect x="184" y="336" width="4" height="4" fill="#2996D6" />
<rect x="284" y="336" width="4" height="4" fill="#33ADF7" />
<rect x="288" y="336" width="4" height="4" fill="#5ECDFC" />
<rect x="292" y="336" width="4" height="4" fill="#5ECDFC" />
<rect x="296" y="336" width="4" height="4" fill="#5ECDFC" />
<rect x="168" y="340" width="4" height="4" fill="#A7DEFF" />
<rect x="172" y="340" width="4" height="4" fill="#5ECDFC" />
<rect x="176" y="340" width="4" height="4" fill="#5ECDFC" />
<rect x="180" y="340" width="4" height="4" fill="#5ECDFC" />
<rect x="184" y="340" width="4" height="4" fill="#2996D6" />
<rect x="288" y="340" width="4" height="4" fill="#33ADF7" />
<rect x="292" y="340" width="4" height="4" fill="#33ADF7" />
<rect x="296" y="340" width="4" height="4" fill="#33ADF7" />
<rect x="168" y="344" width="4" height="4" fill="#A7DEFF" />
<rect x="172" y="344" width="4" height="4" fill="#5ECDFC" />
<rect x="176" y="344" width="4" height="4" fill="#5ACCFC" />
<rect x="180" y="344" width="4" height="4" fill="#5ACCFC" />
<rect x="184" y="344" width="4" height="4" fill="#2996D6" />
<rect x="172" y="348" width="4" height="4" fill="#A7DEFF" />
<rect x="176" y="348" width="4" height="4" fill="#5ACCFC" />
<rect x="180" y="348" width="4" height="4" fill="#5ACCFC" />
<rect x="184" y="348" width="4" height="4" fill="#2996D6" />
<rect x="172" y="352" width="4" height="4" fill="#A7DEFF" />
<rect x="176" y="352" width="4" height="4" fill="#5ACCFC" />
<rect x="180" y="352" width="4" height="4" fill="#5ACCFC" />
<rect x="184" y="352" width="4" height="4" fill="#2996D6" />
<rect x="176" y="356" width="4" height="4" fill="#A7DEFF" />
<rect x="180" y="356" width="4" height="4" fill="#A7DEFF" />
</svg>