<?xml version="1.0" encoding="UTF-8" ?>
<svg version="1.1" width="384" height="384" xmlns="http://www.w3.org/2000/svg" shape-rendering="crispEdges">
<rect x="308" y="236" width="4" height="4" fill="#2C3E49" />
<rect x="312" y="236" width="4" height="4" fill="#2C3E49" />
<rect x="316" y="236" width="4" height="4" fill="#2C3E49" />
<rect x="320" y="236" width="4" height="4" fill="#2C3E49" />
<rect x="168" y="240" width="4" height="4" fill="#2C3E49" />
<rect x="172" y="240" width="4" height="4" fill="#2C3E49" />
<rect x="176" y="240" width="4" height="4" fill="#2C3E49" />
<rect x="180" y="240" width="4" height="4" fill="#2C3E49" />
<rect x="184" y="240" width="4" height="4" fill="#2C3E49" />
<rect x="188" y="240" width="4" height="4" fill="#2C3E49" />
<rect x="284" y="240" width="4" height="4" fill="#2C3E49" />
<rect x="288" y="240" width="4" height="4" fill="#2C3E49" />
<rect x="292" y="240" width="4" height="4" fill="#2C3E49" />
<rect x="296" y="240" width="4" height="4" fill="#2C3E49" />
<rect x="300" y="240" width="4" height="4" fill="#2C3E49" />
<rect x="304" y="240" width="4" height="4" fill="#2C3E49" />
<rect x="308" y="240" width="4" height="4" fill="#418EAA" />
<rect x="312" y="240" width="4" height="4" fill="#FF2E88" />
<rect x="316" y="240" width="4" height="4" fill="#FF2E88" />
<rect x="320" y="240" width="4" height="4" fill="#418EAA" />
<rect x="324" y="240" width="4" height="4" fill="#2C3E49" />
<rect x="164" y="244" width="4" height="4" fill="#2C3E49" />
<rect x="168" y="244" width="4" height="4" fill="#2C3E49" />
<rect x="172" y="244" width="4" height="4" fill="#2C3E49" />
<rect x="176" y="244" width="4" height="4" fill="#2C3E49" />
<rect x="180" y="244" width="4" height="4" fill="#2C3E49" />
<rect x="184" y="244" width="4" height="4" fill="#2C3E49" />
<rect x="188" y="244" width="4" height="4" fill="#2C3E49" />
<rect x="192" y="244" width="4" height="4" fill="#2C3E49" />
<rect x="196" y="244" width="4" height="4" fill="#2C3E49" />
<rect x="200" y="244" width="4" height="4" fill="#2C3E49" />
<rect x="204" y="244" width="4" height="4" fill="#2C3E49" />
<rect x="208" y="244" width="4" height="4" fill="#2C3E49" />
<rect x="268" y="244" width="4" height="4" fill="#2C3E49" />
<rect x="272" y="244" width="4" height="4" fill="#2C3E49" />
<rect x="276" y="244" width="4" height="4" fill="#2C3E49" />
<rect x="280" y="244" width="4" height="4" fill="#2C3E49" />
<rect x="284" y="244" width="4" height="4" fill="#418EAA" />
<rect x="288" y="244" width="4" height="4" fill="#418EAA" />
<rect x="292" y="244" width="4" height="4" fill="#418EAA" />
<rect x="296" y="244" width="4" height="4" fill="#418EAA" />
<rect x="300" y="244" width="4" height="4" fill="#418EAA" />
<rect x="304" y="244" width="4" height="4" fill="#418EAA" />
<rect x="308" y="244" width="4" height="4" fill="#418EAA" />
<rect x="312" y="244" width="4" height="4" fill="#FF2E88" />
<rect x="316" y="244" width="4" height="4" fill="#FF2E88" />
<rect x="320" y="244" width="4" height="4" fill="#FF2E88" />
<rect x="324" y="244" width="4" height="4" fill="#427384" />
<rect x="328" y="244" width="4" height="4" fill="#2C3E49" />
<rect x="164" y="248" width="4" height="4" fill="#2C3E49" />
<rect x="168" y="248" width="4" height="4" fill="#2C3E49" />
<rect x="172" y="248" width="4" height="4" fill="#2C3E49" />
<rect x="176" y="248" width="4" height="4" fill="#2C3E49" />
<rect x="180" y="248" width="4" height="4" fill="#2C3E49" />
<rect x="184" y="248" width="4" height="4" fill="#2C3E49" />
<rect x="188" y="248" width="4" height="4" fill="#2C3E49" />
<rect x="192" y="248" width="4" height="4" fill="#2C3E49" />
<rect x="196" y="248" width="4" height="4" fill="#2C3E49" />
<rect x="200" y="248" width="4" height="4" fill="#2C3E49" />
<rect x="204" y="248" width="4" height="4" fill="#2C3E49" />
<rect x="208" y="248" width="4" height="4" fill="#2C3E49" />
<rect x="264" y="248" width="4" height="4" fill="#2C3E49" />
<rect x="268" y="248" width="4" height="4" fill="#418EAA" />
<rect x="272" y="248" width="4" height="4" fill="#418EAA" />
<rect x="276" y="248" width="4" height="4" fill="#418EAA" />
<rect x="280" y="248" width="4" height="4" fill="#418EAA" />
<rect x="284" y="248" width="4" height="4" fill="#427384" />
<rect x="288" y="248" width="4" height="4" fill="#427384" />
<rect x="292" y="248" width="4" height="4" fill="#427384" />
<rect x="296" y="248" width="4" height="4" fill="#427384" />
<rect x="300" y="248" width="4" height="4" fill="#427384" />
<rect x="304" y="248" width="4" height="4" fill="#427384" />
<rect x="308" y="248" width="4" height="4" fill="#418EAA" />
<rect x="312" y="248" width="4" height="4" fill="#427384" />
<rect x="316" y="248" width="4" height="4" fill="#FF2E88" />
<rect x="320" y="248" width="4" height="4" fill="#FF2E88" />
<rect x="324" y="248" width="4" height="4" fill="#427384" />
<rect x="328" y="248" width="4" height="4" fill="#2C3E49" />
<rect x="160" y="252" width="4" height="4" fill="#2C3E49" />
<rect x="164" y="252" width="4" height="4" fill="#2C3E49" />
<rect x="168" y="252" width="4" height="4" fill="#2C3E49" />
<rect x="180" y="252" width="4" height="4" fill="#2C3E49" />
<rect x="184" y="252" width="4" height="4" fill="#2C3E49" />
<rect x="188" y="252" width="4" height="4" fill="#2C3E49" />
<rect x="192" y="252" width="4" height="4" fill="#427384" />
<rect x="196" y="252" width="4" height="4" fill="#427384" />
<rect x="200" y="252" width="4" height="4" fill="#427384" />
<rect x="204" y="252" width="4" height="4" fill="#427384" />
<rect x="208" y="252" width="4" height="4" fill="#427384" />
<rect x="212" y="252" width="4" height="4" fill="#2C3E49" />
<rect x="216" y="252" width="4" height="4" fill="#2C3E49" />
<rect x="260" y="252" width="4" height="4" fill="#2C3E49" />
<rect x="264" y="252" width="4" height="4" fill="#418EAA" />
<rect x="268" y="252" width="4" height="4" fill="#427384" />
<rect x="272" y="252" width="4" height="4" fill="#427384" />
<rect x="276" y="252" width="4" height="4" fill="#427384" />
<rect x="280" y="252" width="4" height="4" fill="#427384" />
<rect x="284" y="252" width="4" height="4" fill="#427384" />
<rect x="288" y="252" width="4" height="4" fill="#427384" />
<rect x="292" y="252" width="4" height="4" fill="#427384" />
<rect x="296" y="252" width="4" height="4" fill="#427384" />
<rect x="300" y="252" width="4" height="4" fill="#427384" />
<rect x="304" y="252" width="4" height="4" fill="#427384" />
<rect x="308" y="252" width="4" height="4" fill="#418EAA" />
<rect x="312" y="252" width="4" height="4" fill="#427384" />
<rect x="316" y="252" width="4" height="4" fill="#FF2E88" />
<rect x="320" y="252" width="4" height="4" fill="#FF2E88" />
<rect x="324" y="252" width="4" height="4" fill="#FF2E88" />
<rect x="328" y="252" width="4" height="4" fill="#427384" />
<rect x="332" y="252" width="4" height="4" fill="#2C3E49" />
<rect x="156" y="256" width="4" height="4" fill="#2C3E49" />
<rect x="160" y="256" width="4" height="4" fill="#2C3E49" />
<rect x="164" y="256" width="4" height="4" fill="#2C3E49" />
<rect x="172" y="256" width="4" height="4" fill="#2C3E49" />
<rect x="176" y="256" width="4" height="4" fill="#2C3E49" />
<rect x="180" y="256" width="4" height="4" fill="#427384" />
<rect x="184" y="256" width="4" height="4" fill="#427384" />
<rect x="188" y="256" width="4" height="4" fill="#427384" />
<rect x="192" y="256" width="4" height="4" fill="#427384" />
<rect x="196" y="256" width="4" height="4" fill="#427384" />
<rect x="200" y="256" width="4" height="4" fill="#427384" />
<rect x="204" y="256" width="4" height="4" fill="#427384" />
<rect x="208" y="256" width="4" height="4" fill="#418EAA" />
<rect x="212" y="256" width="4" height="4" fill="#427384" />
<rect x="216" y="256" width="4" height="4" fill="#FF2E88" />
<rect x="220" y="256" width="4" height="4" fill="#2C3E49" />
<rect x="256" y="256" width="4" height="4" fill="#2C3E49" />
<rect x="260" y="256" width="4" height="4" fill="#418EAA" />
<rect x="264" y="256" width="4" height="4" fill="#427384" />
<rect x="268" y="256" width="4" height="4" fill="#427384" />
<rect x="272" y="256" width="4" height="4" fill="#427384" />
<rect x="276" y="256" width="4" height="4" fill="#427384" />
<rect x="280" y="256" width="4" height="4" fill="#427384" />
<rect x="284" y="256" width="4" height="4" fill="#427384" />
<rect x="288" y="256" width="4" height="4" fill="#427384" />
<rect x="292" y="256" width="4" height="4" fill="#427384" />
<rect x="296" y="256" width="4" height="4" fill="#427384" />
<rect x="300" y="256" width="4" height="4" fill="#427384" />
<rect x="304" y="256" width="4" height="4" fill="#427384" />
<rect x="308" y="256" width="4" height="4" fill="#427384" />
<rect x="312" y="256" width="4" height="4" fill="#418EAA" />
<rect x="316" y="256" width="4" height="4" fill="#427384" />
<rect x="320" y="256" width="4" height="4" fill="#FF2E88" />
<rect x="324" y="256" width="4" height="4" fill="#FF2E88" />
<rect x="328" y="256" width="4" height="4" fill="#FF2E88" />
<rect x="332" y="256" width="4" height="4" fill="#2C3E49" />
<rect x="148" y="260" width="4" height="4" fill="#2C3E49" />
<rect x="152" y="260" width="4" height="4" fill="#2C3E49" />
<rect x="156" y="260" width="4" height="4" fill="#2C3E49" />
<rect x="160" y="260" width="4" height="4" fill="#2C3E49" />
<rect x="168" y="260" width="4" height="4" fill="#2C3E49" />
<rect x="172" y="260" width="4" height="4" fill="#FF2E88" />
<rect x="176" y="260" width="4" height="4" fill="#427384" />
<rect x="180" y="260" width="4" height="4" fill="#FF2E88" />
<rect x="184" y="260" width="4" height="4" fill="#427384" />
<rect x="188" y="260" width="4" height="4" fill="#FF2E88" />
<rect x="192" y="260" width="4" height="4" fill="#427384" />
<rect x="196" y="260" width="4" height="4" fill="#427384" />
<rect x="200" y="260" width="4" height="4" fill="#427384" />
<rect x="204" y="260" width="4" height="4" fill="#418EAA" />
<rect x="208" y="260" width="4" height="4" fill="#427384" />
<rect x="212" y="260" width="4" height="4" fill="#FF2E88" />
<rect x="216" y="260" width="4" height="4" fill="#FF2E88" />
<rect x="220" y="260" width="4" height="4" fill="#427384" />
<rect x="224" y="260" width="4" height="4" fill="#2C3E49" />
<rect x="248" y="260" width="4" height="4" fill="#2C3E49" />
<rect x="252" y="260" width="4" height="4" fill="#2C3E49" />
<rect x="256" y="260" width="4" height="4" fill="#427384" />
<rect x="260" y="260" width="4" height="4" fill="#427384" />
<rect x="264" y="260" width="4" height="4" fill="#427384" />
<rect x="268" y="260" width="4" height="4" fill="#3F90AC" />
<rect x="272" y="260" width="4" height="4" fill="#3F90AC" />
<rect x="276" y="260" width="4" height="4" fill="#3F90AC" />
<rect x="280" y="260" width="4" height="4" fill="#427384" />
<rect x="284" y="260" width="4" height="4" fill="#427384" />
<rect x="288" y="260" width="4" height="4" fill="#427384" />
<rect x="292" y="260" width="4" height="4" fill="#427384" />
<rect x="296" y="260" width="4" height="4" fill="#427384" />
<rect x="300" y="260" width="4" height="4" fill="#427384" />
<rect x="304" y="260" width="4" height="4" fill="#427384" />
<rect x="308" y="260" width="4" height="4" fill="#427384" />
<rect x="312" y="260" width="4" height="4" fill="#427384" />
<rect x="316" y="260" width="4" height="4" fill="#418EAA" />
<rect x="320" y="260" width="4" height="4" fill="#427384" />
<rect x="324" y="260" width="4" height="4" fill="#FF2E88" />
<rect x="328" y="260" width="4" height="4" fill="#FF2E88" />
<rect x="332" y="260" width="4" height="4" fill="#2C3E49" />
<rect x="140" y="264" width="4" height="4" fill="#2C3E49" />
<rect x="144" y="264" width="4" height="4" fill="#2C3E49" />
<rect x="148" y="264" width="4" height="4" fill="#2C3E49" />
<rect x="152" y="264" width="4" height="4" fill="#2C3E49" />
<rect x="156" y="264" width="4" height="4" fill="#2C3E49" />
<rect x="160" y="264" width="4" height="4" fill="#2C3E49" />
<rect x="164" y="264" width="4" height="4" fill="#FF2E88" />
<rect x="168" y="264" width="4" height="4" fill="#427384" />
<rect x="172" y="264" width="4" height="4" fill="#FF2E88" />
<rect x="176" y="264" width="4" height="4" fill="#427384" />
<rect x="180" y="264" width="4" height="4" fill="#FF2E88" />
<rect x="184" y="264" width="4" height="4" fill="#427384" />
<rect x="188" y="264" width="4" height="4" fill="#FF2E88" />
<rect x="192" y="264" width="4" height="4" fill="#427384" />
<rect x="196" y="264" width="4" height="4" fill="#427384" />
<rect x="200" y="264" width="4" height="4" fill="#427384" />
<rect x="204" y="264" width="4" height="4" fill="#418EAA" />
<rect x="208" y="264" width="4" height="4" fill="#427384" />
<rect x="212" y="264" width="4" height="4" fill="#FF2E88" />
<rect x="216" y="264" width="4" height="4" fill="#FF2E88" />
<rect x="220" y="264" width="4" height="4" fill="#427384" />
<rect x="224" y="264" width="4" height="4" fill="#2C3E49" />
<rect x="248" y="264" width="4" height="4" fill="#2C3E49" />
<rect x="252" y="264" width="4" height="4" fill="#2C3E49" />
<rect x="256" y="264" width="4" height="4" fill="#427384" />
<rect x="260" y="264" width="4" height="4" fill="#427384" />
<rect x="264" y="264" width="4" height="4" fill="#3F90AC" />
<rect x="268" y="264" width="4" height="4" fill="#3F90AC" />
<rect x="272" y="264" width="4" height="4" fill="#3F90AC" />
<rect x="276" y="264" width="4" height="4" fill="#427384" />
<rect x="280" y="264" width="4" height="4" fill="#427384" />
<rect x="284" y="264" width="4" height="4" fill="#427384" />
<rect x="288" y="264" width="4" height="4" fill="#427384" />
<rect x="292" y="264" width="4" height="4" fill="#427384" />
<rect x="296" y="264" width="4" height="4" fill="#427384" />
<rect x="300" y="264" width="4" height="4" fill="#427384" />
<rect x="304" y="264" width="4" height="4" fill="#427384" />
<rect x="308" y="264" width="4" height="4" fill="#427384" />
<rect x="312" y="264" width="4" height="4" fill="#427384" />
<rect x="316" y="264" width="4" height="4" fill="#427384" />
<rect x="320" y="264" width="4" height="4" fill="#418EAA" />
<rect x="324" y="264" width="4" height="4" fill="#294A65" />
<rect x="328" y="264" width="4" height="4" fill="#2C3E49" />
<rect x="332" y="264" width="4" height="4" fill="#2C3E49" />
<rect x="140" y="268" width="4" height="4" fill="#2C3E49" />
<rect x="144" y="268" width="4" height="4" fill="#2C3E49" />
<rect x="148" y="268" width="4" height="4" fill="#2C3E49" />
<rect x="152" y="268" width="4" height="4" fill="#2C3E49" />
<rect x="156" y="268" width="4" height="4" fill="#2C3E49" />
<rect x="160" y="268" width="4" height="4" fill="#2C3E49" />
<rect x="164" y="268" width="4" height="4" fill="#FF2E88" />
<rect x="168" y="268" width="4" height="4" fill="#427384" />
<rect x="172" y="268" width="4" height="4" fill="#FF2E88" />
<rect x="176" y="268" width="4" height="4" fill="#427384" />
<rect x="180" y="268" width="4" height="4" fill="#FF2E88" />
<rect x="184" y="268" width="4" height="4" fill="#427384" />
<rect x="188" y="268" width="4" height="4" fill="#FF2E88" />
<rect x="192" y="268" width="4" height="4" fill="#427384" />
<rect x="196" y="268" width="4" height="4" fill="#427384" />
<rect x="200" y="268" width="4" height="4" fill="#427384" />
<rect x="204" y="268" width="4" height="4" fill="#418EAA" />
<rect x="208" y="268" width="4" height="4" fill="#427384" />
<rect x="212" y="268" width="4" height="4" fill="#FF2E88" />
<rect x="216" y="268" width="4" height="4" fill="#FF2E88" />
<rect x="220" y="268" width="4" height="4" fill="#427384" />
<rect x="224" y="268" width="4" height="4" fill="#2C3E49" />
<rect x="248" y="268" width="4" height="4" fill="#2C3E49" />
<rect x="252" y="268" width="4" height="4" fill="#427384" />
<rect x="256" y="268" width="4" height="4" fill="#427384" />
<rect x="260" y="268" width="4" height="4" fill="#3F90AC" />
<rect x="264" y="268" width="4" height="4" fill="#3F90AC" />
<rect x="268" y="268" width="4" height="4" fill="#427384" />
<rect x="272" y="268" width="4" height="4" fill="#427384" />
<rect x="276" y="268" width="4" height="4" fill="#427384" />
<rect x="280" y="268" width="4" height="4" fill="#427384" />
<rect x="284" y="268" width="4" height="4" fill="#427384" />
<rect x="288" y="268" width="4" height="4" fill="#427384" />
<rect x="292" y="268" width="4" height="4" fill="#FF2E88" />
<rect x="296" y="268" width="4" height="4" fill="#427384" />
<rect x="300" y="268" width="4" height="4" fill="#427384" />
<rect x="304" y="268" width="4" height="4" fill="#427384" />
<rect x="308" y="268" width="4" height="4" fill="#427384" />
<rect x="312" y="268" width="4" height="4" fill="#427384" />
<rect x="316" y="268" width="4" height="4" fill="#427384" />
<rect x="320" y="268" width="4" height="4" fill="#294A65" />
<rect x="324" y="268" width="4" height="4" fill="#294A65" />
<rect x="328" y="268" width="4" height="4" fill="#2C3E49" />
<rect x="136" y="272" width="4" height="4" fill="#2C3E49" />
<rect x="140" y="272" width="4" height="4" fill="#2C3E49" />
<rect x="144" y="272" width="4" height="4" fill="#2C3E49" />
<rect x="148" y="272" width="4" height="4" fill="#2C3E49" />
<rect x="152" y="272" width="4" height="4" fill="#2C3E49" />
<rect x="156" y="272" width="4" height="4" fill="#2C3E49" />
<rect x="160" y="272" width="4" height="4" fill="#2C3E49" />
<rect x="164" y="272" width="4" height="4" fill="#427384" />
<rect x="168" y="272" width="4" height="4" fill="#427384" />
<rect x="172" y="272" width="4" height="4" fill="#427384" />
<rect x="176" y="272" width="4" height="4" fill="#427384" />
<rect x="180" y="272" width="4" height="4" fill="#427384" />
<rect x="184" y="272" width="4" height="4" fill="#427384" />
<rect x="188" y="272" width="4" height="4" fill="#427384" />
<rect x="192" y="272" width="4" height="4" fill="#427384" />
<rect x="196" y="272" width="4" height="4" fill="#427384" />
<rect x="200" y="272" width="4" height="4" fill="#427384" />
<rect x="204" y="272" width="4" height="4" fill="#418EAA" />
<rect x="208" y="272" width="4" height="4" fill="#427384" />
<rect x="212" y="272" width="4" height="4" fill="#FF2E88" />
<rect x="216" y="272" width="4" height="4" fill="#FF2E88" />
<rect x="220" y="272" width="4" height="4" fill="#427384" />
<rect x="224" y="272" width="4" height="4" fill="#2C3E49" />
<rect x="248" y="272" width="4" height="4" fill="#2C3E49" />
<rect x="252" y="272" width="4" height="4" fill="#427384" />
<rect x="256" y="272" width="4" height="4" fill="#427384" />
<rect x="260" y="272" width="4" height="4" fill="#427384" />
<rect x="264" y="272" width="4" height="4" fill="#427384" />
<rect x="268" y="272" width="4" height="4" fill="#427384" />
<rect x="272" y="272" width="4" height="4" fill="#427384" />
<rect x="276" y="272" width="4" height="4" fill="#427384" />
<rect x="280" y="272" width="4" height="4" fill="#427384" />
<rect x="284" y="272" width="4" height="4" fill="#FF2E88" />
<rect x="288" y="272" width="4" height="4" fill="#427384" />
<rect x="292" y="272" width="4" height="4" fill="#FF2E88" />
<rect x="296" y="272" width="4" height="4" fill="#427384" />
<rect x="300" y="272" width="4" height="4" fill="#427384" />
<rect x="304" y="272" width="4" height="4" fill="#427384" />
<rect x="308" y="272" width="4" height="4" fill="#427384" />
<rect x="312" y="272" width="4" height="4" fill="#427384" />
<rect x="316" y="272" width="4" height="4" fill="#294A65" />
<rect x="320" y="272" width="4" height="4" fill="#294A65" />
<rect x="324" y="272" width="4" height="4" fill="#2C3E49" />
<rect x="132" y="276" width="4" height="4" fill="#2C3E49" />
<rect x="136" y="276" width="4" height="4" fill="#2C3E49" />
<rect x="140" y="276" width="4" height="4" fill="#2C3E49" />
<rect x="156" y="276" width="4" height="4" fill="#2C3E49" />
<rect x="160" y="276" width="4" height="4" fill="#427384" />
<rect x="164" y="276" width="4" height="4" fill="#427384" />
<rect x="168" y="276" width="4" height="4" fill="#427384" />
<rect x="172" y="276" width="4" height="4" fill="#427384" />
<rect x="176" y="276" width="4" height="4" fill="#427384" />
<rect x="180" y="276" width="4" height="4" fill="#427384" />
<rect x="184" y="276" width="4" height="4" fill="#427384" />
<rect x="188" y="276" width="4" height="4" fill="#427384" />
<rect x="192" y="276" width="4" height="4" fill="#427384" />
<rect x="196" y="276" width="4" height="4" fill="#427384" />
<rect x="200" y="276" width="4" height="4" fill="#427384" />
<rect x="204" y="276" width="4" height="4" fill="#427384" />
<rect x="208" y="276" width="4" height="4" fill="#418EAA" />
<rect x="212" y="276" width="4" height="4" fill="#427384" />
<rect x="216" y="276" width="4" height="4" fill="#FF2E88" />
<rect x="220" y="276" width="4" height="4" fill="#427384" />
<rect x="224" y="276" width="4" height="4" fill="#2C3E49" />
<rect x="248" y="276" width="4" height="4" fill="#2C3E49" />
<rect x="252" y="276" width="4" height="4" fill="#427384" />
<rect x="256" y="276" width="4" height="4" fill="#427384" />
<rect x="260" y="276" width="4" height="4" fill="#427384" />
<rect x="264" y="276" width="4" height="4" fill="#427384" />
<rect x="268" y="276" width="4" height="4" fill="#427384" />
<rect x="272" y="276" width="4" height="4" fill="#427384" />
<rect x="276" y="276" width="4" height="4" fill="#FF2E88" />
<rect x="280" y="276" width="4" height="4" fill="#427384" />
<rect x="284" y="276" width="4" height="4" fill="#FF2E88" />
<rect x="288" y="276" width="4" height="4" fill="#427384" />
<rect x="292" y="276" width="4" height="4" fill="#427384" />
<rect x="296" y="276" width="4" height="4" fill="#427384" />
<rect x="300" y="276" width="4" height="4" fill="#427384" />
<rect x="304" y="276" width="4" height="4" fill="#427384" />
<rect x="308" y="276" width="4" height="4" fill="#427384" />
<rect x="312" y="276" width="4" height="4" fill="#294A65" />
<rect x="316" y="276" width="4" height="4" fill="#294A65" />
<rect x="320" y="276" width="4" height="4" fill="#2C3E49" />
<rect x="132" y="280" width="4" height="4" fill="#2C3E49" />
<rect x="136" y="280" width="4" height="4" fill="#2C3E49" />
<rect x="152" y="280" width="4" height="4" fill="#2C3E49" />
<rect x="156" y="280" width="4" height="4" fill="#427384" />
<rect x="160" y="280" width="4" height="4" fill="#427384" />
<rect x="164" y="280" width="4" height="4" fill="#3F90AC" />
<rect x="168" y="280" width="4" height="4" fill="#3F90AC" />
<rect x="172" y="280" width="4" height="4" fill="#3F90AC" />
<rect x="176" y="280" width="4" height="4" fill="#427384" />
<rect x="180" y="280" width="4" height="4" fill="#427384" />
<rect x="184" y="280" width="4" height="4" fill="#427384" />
<rect x="188" y="280" width="4" height="4" fill="#427384" />
<rect x="192" y="280" width="4" height="4" fill="#427384" />
<rect x="196" y="280" width="4" height="4" fill="#427384" />
<rect x="200" y="280" width="4" height="4" fill="#427384" />
<rect x="204" y="280" width="4" height="4" fill="#427384" />
<rect x="208" y="280" width="4" height="4" fill="#427384" />
<rect x="212" y="280" width="4" height="4" fill="#418EAA" />
<rect x="216" y="280" width="4" height="4" fill="#294A65" />
<rect x="220" y="280" width="4" height="4" fill="#2C3E49" />
<rect x="252" y="280" width="4" height="4" fill="#2C3E49" />
<rect x="256" y="280" width="4" height="4" fill="#427384" />
<rect x="260" y="280" width="4" height="4" fill="#427384" />
<rect x="264" y="280" width="4" height="4" fill="#427384" />
<rect x="268" y="280" width="4" height="4" fill="#FF2E88" />
<rect x="272" y="280" width="4" height="4" fill="#427384" />
<rect x="276" y="280" width="4" height="4" fill="#FF2E88" />
<rect x="280" y="280" width="4" height="4" fill="#427384" />
<rect x="284" y="280" width="4" height="4" fill="#427384" />
<rect x="288" y="280" width="4" height="4" fill="#427384" />
<rect x="292" y="280" width="4" height="4" fill="#427384" />
<rect x="296" y="280" width="4" height="4" fill="#427384" />
<rect x="300" y="280" width="4" height="4" fill="#427384" />
<rect x="304" y="280" width="4" height="4" fill="#427384" />
<rect x="308" y="280" width="4" height="4" fill="#294A65" />
<rect x="312" y="280" width="4" height="4" fill="#294A65" />
<rect x="316" y="280" width="4" height="4" fill="#2C3E49" />
<rect x="132" y="284" width="4" height="4" fill="#2C3E49" />
<rect x="136" y="284" width="4" height="4" fill="#2C3E49" />
<rect x="140" y="284" width="4" height="4" fill="#2C3E49" />
<rect x="152" y="284" width="4" height="4" fill="#2C3E49" />
<rect x="156" y="284" width="4" height="4" fill="#427384" />
<rect x="160" y="284" width="4" height="4" fill="#427384" />
<rect x="164" y="284" width="4" height="4" fill="#427384" />
<rect x="168" y="284" width="4" height="4" fill="#3F90AC" />
<rect x="172" y="284" width="4" height="4" fill="#3F90AC" />
<rect x="176" y="284" width="4" height="4" fill="#3F90AC" />
<rect x="180" y="284" width="4" height="4" fill="#3F90AC" />
<rect x="184" y="284" width="4" height="4" fill="#427384" />
<rect x="188" y="284" width="4" height="4" fill="#427384" />
<rect x="192" y="284" width="4" height="4" fill="#427384" />
<rect x="196" y="284" width="4" height="4" fill="#427384" />
<rect x="200" y="284" width="4" height="4" fill="#427384" />
<rect x="204" y="284" width="4" height="4" fill="#427384" />
<rect x="208" y="284" width="4" height="4" fill="#294A65" />
<rect x="212" y="284" width="4" height="4" fill="#294A65" />
<rect x="216" y="284" width="4" height="4" fill="#2C3E49" />
<rect x="252" y="284" width="4" height="4" fill="#2C3E49" />
<rect x="256" y="284" width="4" height="4" fill="#427384" />
<rect x="260" y="284" width="4" height="4" fill="#427384" />
<rect x="264" y="284" width="4" height="4" fill="#427384" />
<rect x="268" y="284" width="4" height="4" fill="#FF2E88" />
<rect x="272" y="284" width="4" height="4" fill="#427384" />
<rect x="276" y="284" width="4" height="4" fill="#427384" />
<rect x="280" y="284" width="4" height="4" fill="#427384" />
<rect x="284" y="284" width="4" height="4" fill="#427384" />
<rect x="288" y="284" width="4" height="4" fill="#427384" />
<rect x="292" y="284" width="4" height="4" fill="#427384" />
<rect x="296" y="284" width="4" height="4" fill="#427384" />
<rect x="300" y="284" width="4" height="4" fill="#427384" />
<rect x="304" y="284" width="4" height="4" fill="#294A65" />
<rect x="308" y="284" width="4" height="4" fill="#294A65" />
<rect x="312" y="284" width="4" height="4" fill="#2C3E49" />
<rect x="132" y="288" width="4" height="4" fill="#2C3E49" />
<rect x="136" y="288" width="4" height="4" fill="#2C3E49" />
<rect x="140" y="288" width="4" height="4" fill="#2C3E49" />
<rect x="152" y="288" width="4" height="4" fill="#2C3E49" />
<rect x="156" y="288" width="4" height="4" fill="#427384" />
<rect x="160" y="288" width="4" height="4" fill="#427384" />
<rect x="164" y="288" width="4" height="4" fill="#427384" />
<rect x="168" y="288" width="4" height="4" fill="#3F90AC" />
<rect x="172" y="288" width="4" height="4" fill="#3F90AC" />
<rect x="176" y="288" width="4" height="4" fill="#3F90AC" />
<rect x="180" y="288" width="4" height="4" fill="#3F90AC" />
<rect x="184" y="288" width="4" height="4" fill="#427384" />
<rect x="188" y="288" width="4" height="4" fill="#427384" />
<rect x="192" y="288" width="4" height="4" fill="#427384" />
<rect x="196" y="288" width="4" height="4" fill="#427384" />
<rect x="200" y="288" width="4" height="4" fill="#427384" />
<rect x="204" y="288" width="4" height="4" fill="#427384" />
<rect x="208" y="288" width="4" height="4" fill="#294A65" />
<rect x="212" y="288" width="4" height="4" fill="#294A65" />
<rect x="216" y="288" width="4" height="4" fill="#2C3E49" />
<rect x="256" y="288" width="4" height="4" fill="#2C3E49" />
<rect x="260" y="288" width="4" height="4" fill="#2C3E49" />
<rect x="264" y="288" width="4" height="4" fill="#427384" />
<rect x="268" y="288" width="4" height="4" fill="#427384" />
<rect x="272" y="288" width="4" height="4" fill="#427384" />
<rect x="276" y="288" width="4" height="4" fill="#427384" />
<rect x="280" y="288" width="4" height="4" fill="#427384" />
<rect x="284" y="288" width="4" height="4" fill="#427384" />
<rect x="288" y="288" width="4" height="4" fill="#427384" />
<rect x="292" y="288" width="4" height="4" fill="#427384" />
<rect x="296" y="288" width="4" height="4" fill="#427384" />
<rect x="300" y="288" width="4" height="4" fill="#294A65" />
<rect x="304" y="288" width="4" height="4" fill="#294A65" />
<rect x="308" y="288" width="4" height="4" fill="#2C3E49" />
<rect x="136" y="292" width="4" height="4" fill="#2C3E49" />
<rect x="140" y="292" width="4" height="4" fill="#2C3E49" />
<rect x="144" y="292" width="4" height="4" fill="#2C3E49" />
<rect x="148" y="292" width="4" height="4" fill="#2C3E49" />
<rect x="152" y="292" width="4" height="4" fill="#2C3E49" />
<rect x="156" y="292" width="4" height="4" fill="#2C3E49" />
<rect x="160" y="292" width="4" height="4" fill="#427384" />
<rect x="164" y="292" width="4" height="4" fill="#427384" />
<rect x="168" y="292" width="4" height="4" fill="#427384" />
<rect x="172" y="292" width="4" height="4" fill="#427384" />
<rect x="176" y="292" width="4" height="4" fill="#427384" />
<rect x="180" y="292" width="4" height="4" fill="#427384" />
<rect x="184" y="292" width="4" height="4" fill="#427384" />
<rect x="188" y="292" width="4" height="4" fill="#427384" />
<rect x="192" y="292" width="4" height="4" fill="#427384" />
<rect x="196" y="292" width="4" height="4" fill="#427384" />
<rect x="200" y="292" width="4" height="4" fill="#294A65" />
<rect x="204" y="292" width="4" height="4" fill="#294A65" />
<rect x="208" y="292" width="4" height="4" fill="#294A65" />
<rect x="212" y="292" width="4" height="4" fill="#2C3E49" />
<rect x="252" y="292" width="4" height="4" fill="#2C3E49" />
<rect x="256" y="292" width="4" height="4" fill="#2C3E49" />
<rect x="260" y="292" width="4" height="4" fill="#2C3E49" />
<rect x="264" y="292" width="4" height="4" fill="#427384" />
<rect x="268" y="292" width="4" height="4" fill="#427384" />
<rect x="272" y="292" width="4" height="4" fill="#427384" />
<rect x="276" y="292" width="4" height="4" fill="#427384" />
<rect x="280" y="292" width="4" height="4" fill="#427384" />
<rect x="284" y="292" width="4" height="4" fill="#427384" />
<rect x="288" y="292" width="4" height="4" fill="#427384" />
<rect x="292" y="292" width="4" height="4" fill="#427384" />
<rect x="296" y="292" width="4" height="4" fill="#294A65" />
<rect x="300" y="292" width="4" height="4" fill="#294A65" />
<rect x="304" y="292" width="4" height="4" fill="#2C3E49" />
<rect x="140" y="296" width="4" height="4" fill="#2C3E49" />
<rect x="144" y="296" width="4" height="4" fill="#2C3E49" />
<rect x="148" y="296" width="4" height="4" fill="#2C3E49" />
<rect x="152" y="296" width="4" height="4" fill="#2C3E49" />
<rect x="156" y="296" width="4" height="4" fill="#2C3E49" />
<rect x="160" y="296" width="4" height="4" fill="#2C3E49" />
<rect x="164" y="296" width="4" height="4" fill="#427384" />
<rect x="168" y="296" width="4" height="4" fill="#427384" />
<rect x="172" y="296" width="4" height="4" fill="#427384" />
<rect x="176" y="296" width="4" height="4" fill="#427384" />
<rect x="180" y="296" width="4" height="4" fill="#427384" />
<rect x="184" y="296" width="4" height="4" fill="#427384" />
<rect x="188" y="296" width="4" height="4" fill="#294A65" />
<rect x="192" y="296" width="4" height="4" fill="#294A65" />
<rect x="196" y="296" width="4" height="4" fill="#294A65" />
<rect x="200" y="296" width="4" height="4" fill="#294A65" />
<rect x="204" y="296" width="4" height="4" fill="#2C3E49" />
<rect x="208" y="296" width="4" height="4" fill="#2C3E49" />
<rect x="252" y="296" width="4" height="4" fill="#2C3E49" />
<rect x="256" y="296" width="4" height="4" fill="#2C3E49" />
<rect x="264" y="296" width="4" height="4" fill="#2C3E49" />
<rect x="268" y="296" width="4" height="4" fill="#427384" />
<rect x="272" y="296" width="4" height="4" fill="#427384" />
<rect x="276" y="296" width="4" height="4" fill="#427384" />
<rect x="280" y="296" width="4" height="4" fill="#427384" />
<rect x="284" y="296" width="4" height="4" fill="#427384" />
<rect x="288" y="296" width="4" height="4" fill="#427384" />
<rect x="292" y="296" width="4" height="4" fill="#294A65" />
<rect x="296" y="296" width="4" height="4" fill="#2C3E49" />
<rect x="300" y="296" width="4" height="4" fill="#2C3E49" />
<rect x="164" y="300" width="4" height="4" fill="#2C3E49" />
<rect x="168" y="300" width="4" height="4" fill="#427384" />
<rect x="172" y="300" width="4" height="4" fill="#427384" />
<rect x="176" y="300" width="4" height="4" fill="#427384" />
<rect x="180" y="300" width="4" height="4" fill="#294A65" />
<rect x="184" y="300" width="4" height="4" fill="#294A65" />
<rect x="188" y="300" width="4" height="4" fill="#294A65" />
<rect x="192" y="300" width="4" height="4" fill="#294A65" />
<rect x="196" y="300" width="4" height="4" fill="#2C3E49" />
<rect x="200" y="300" width="4" height="4" fill="#2C3E49" />
<rect x="252" y="300" width="4" height="4" fill="#2C3E49" />
<rect x="256" y="300" width="4" height="4" fill="#2C3E49" />
<rect x="268" y="300" width="4" height="4" fill="#2C3E49" />
<rect x="272" y="300" width="4" height="4" fill="#2C3E49" />
<rect x="276" y="300" width="4" height="4" fill="#2C3E49" />
<rect x="280" y="300" width="4" height="4" fill="#2C3E49" />
<rect x="284" y="300" width="4" height="4" fill="#2C3E49" />
<rect x="288" y="300" width="4" height="4" fill="#2C3E49" />
<rect x="292" y="300" width="4" height="4" fill="#2C3E49" />
<rect x="168" y="304" width="4" height="4" fill="#2C3E49" />
<rect x="172" y="304" width="4" height="4" fill="#294A65" />
<rect x="176" y="304" width="4" height="4" fill="#294A65" />
<rect x="180" y="304" width="4" height="4" fill="#294A65" />
<rect x="184" y="304" width="4" height="4" fill="#294A65" />
<rect x="188" y="304" width="4" height="4" fill="#2C3E49" />
<rect x="192" y="304" width="4" height="4" fill="#2C3E49" />
<rect x="252" y="304" width="4" height="4" fill="#2C3E49" />
<rect x="256" y="304" width="4" height="4" fill="#2C3E49" />
<rect x="260" y="304" width="4" height="4" fill="#2C3E49" />
<rect x="264" y="304" width="4" height="4" fill="#2C3E49" />
<rect x="268" y="304" width="4" height="4" fill="#2C3E49" />
<rect x="272" y="304" width="4" height="4" fill="#2C3E49" />
<rect x="284" y="304" width="4" height="4" fill="#2C3E49" />
<rect x="288" y="304" width="4" height="4" fill="#2C3E49" />
<rect x="168" y="308" width="4" height="4" fill="#2C3E49" />
<rect x="172" y="308" width="4" height="4" fill="#294A65" />
<rect x="176" y="308" width="4" height="4" fill="#294A65" />
<rect x="180" y="308" width="4" height="4" fill="#294A65" />
<rect x="184" y="308" width="4" height="4" fill="#294A65" />
<rect x="188" y="308" width="4" height="4" fill="#2C3E49" />
<rect x="192" y="308" width="4" height="4" fill="#2C3E49" />
<rect x="256" y="308" width="4" height="4" fill="#2C3E49" />
<rect x="260" y="308" width="4" height="4" fill="#2C3E49" />
<rect x="264" y="308" width="4" height="4" fill="#2C3E49" />
<rect x="268" y="308" width="4" height="4" fill="#2C3E49" />
<rect x="284" y="308" width="4" height="4" fill="#2C3E49" />
<rect x="288" y="308" width="4" height="4" fill="#2C3E49" />
<rect x="172" y="312" width="4" height="4" fill="#2C3E49" />
<rect x="176" y="312" width="4" height="4" fill="#2C3E49" />
<rect x="180" y="312" width="4" height="4" fill="#2C3E49" />
<rect x="184" y="312" width="4" height="4" fill="#2C3E49" />
<rect x="260" y="312" width="4" height="4" fill="#2C3E49" />
<rect x="264" y="312" width="4" height="4" fill="#2C3E49" />
<rect x="268" y="312" width="4" height="4" fill="#2C3E49" />
<rect x="272" y="312" width="4" height="4" fill="#2C3E49" />
<rect x="276" y="312" width="4" height="4" fill="#2C3E49" />
<rect x="280" y="312" width="4" height="4" fill="#2C3E49" />
<rect x="284" y="312" width="4" height="4" fill="#2C3E49" />
<rect x="288" y="312" width="4" height="4" fill="#2C3E49" />
<rect x="264" y="316" width="4" height="4" fill="#2C3E49" />
<rect x="268" y="316" width="4" height="4" fill="#2C3E49" />
<rect x="272" y="316" width="4" height="4" fill="#2C3E49" />
<rect x="276" y="316" width="4" height="4" fill="#2C3E49" />
<rect x="280" y="316" width="4" height="4" fill="#2C3E49" />
<rect x="284" y="316" width="4" height="4" fill="#2C3E49" />
</svg>