<svg width="384" height="384" xmlns="http://www.w3.org/2000/svg" shape-rendering="crispEdges"><path fill="#B50000" d="M172 244h4v4h-4zM176 244h4v4h-4zM180 244h4v4h-4zM164 248h4v4h-4zM168 248h4v4h-4z"/><path fill="#FF652C" d="M172 248h4v4h-4zM176 248h4v4h-4zM180 248h4v4h-4z"/><path fill="#B50000" d="M184 248h4v4h-4zM188 248h4v4h-4zM264 248h4v4h-4zM268 248h4v4h-4zM160 252h4v4h-4z"/><path fill="#FF652C" d="M164 252h4v4h-4zM168 252h4v4h-4zM172 252h4v4h-4zM176 252h4v4h-4zM180 252h4v4h-4zM184 252h4v4h-4zM188 252h4v4h-4z"/><path fill="#B50000" d="M192 252h4v4h-4zM260 252h4v4h-4z"/><path fill="#FF652C" d="M264 252h4v4h-4zM268 252h4v4h-4z"/><path fill="#B50000" d="M272 252h4v4h-4zM156 256h4v4h-4z"/><path fill="#FF652C" d="M160 256h4v4h-4zM164 256h4v4h-4zM168 256h4v4h-4zM172 256h4v4h-4zM176 256h4v4h-4zM180 256h4v4h-4zM184 256h4v4h-4zM188 256h4v4h-4zM192 256h4v4h-4z"/><path fill="#B50000" d="M196 256h4v4h-4zM256 256h4v4h-4z"/><path fill="#FF652C" d="M260 256h4v4h-4zM264 256h4v4h-4zM268 256h4v4h-4zM272 256h4v4h-4z"/><path fill="#B50000" d="M276 256h4v4h-4zM152 260h4v4h-4z"/><path fill="#FF652C" d="M156 260h4v4h-4zM160 260h4v4h-4zM164 260h4v4h-4zM168 260h4v4h-4zM172 260h4v4h-4zM176 260h4v4h-4zM180 260h4v4h-4zM184 260h4v4h-4zM188 260h4v4h-4zM192 260h4v4h-4zM196 260h4v4h-4z"/><path fill="#B50000" d="M200 260h4v4h-4zM252 260h4v4h-4z"/><path fill="#FF652C" d="M256 260h4v4h-4zM260 260h4v4h-4zM264 260h4v4h-4zM268 260h4v4h-4zM272 260h4v4h-4zM276 260h4v4h-4z"/><path fill="#B50000" d="M280 260h4v4h-4zM148 264h4v4h-4z"/><path fill="#DC4B15" d="M152 264h4v4h-4z"/><path fill="#FF652C" d="M156 264h4v4h-4z"/><path fill="#FF9E2C" d="M160 264h4v4h-4z"/><path fill="#FF652C" d="M164 264h4v4h-4zM168 264h4v4h-4zM172 264h4v4h-4z"/><path fill="#FF9E2C" d="M176 264h4v4h-4zM180 264h4v4h-4z"/><path fill="#FF652C" d="M184 264h4v4h-4zM188 264h4v4h-4zM192 264h4v4h-4zM196 264h4v4h-4zM200 264h4v4h-4z"/><path fill="#B50000" d="M204 264h4v4h-4zM248 264h4v4h-4z"/><path fill="#FF652C" d="M252 264h4v4h-4zM256 264h4v4h-4z"/><path fill="#FF9E2C" d="M260 264h4v4h-4z"/><path fill="#FF652C" d="M264 264h4v4h-4zM268 264h4v4h-4zM272 264h4v4h-4zM276 264h4v4h-4zM280 264h4v4h-4z"/><path fill="#B50000" d="M284 264h4v4h-4zM148 268h4v4h-4z"/><path fill="#DC4B15" d="M152 268h4v4h-4z"/><path fill="#FF652C" d="M156 268h4v4h-4zM160 268h4v4h-4zM164 268h4v4h-4zM168 268h4v4h-4zM172 268h4v4h-4z"/><path fill="#FF9E2C" d="M176 268h4v4h-4zM180 268h4v4h-4z"/><path fill="#FF652C" d="M184 268h4v4h-4zM188 268h4v4h-4zM192 268h4v4h-4zM196 268h4v4h-4zM200 268h4v4h-4z"/><path fill="#B50000" d="M204 268h4v4h-4zM244 268h4v4h-4z"/><path fill="#DC4B15" d="M248 268h4v4h-4z"/><path fill="#FF652C" d="M252 268h4v4h-4zM256 268h4v4h-4zM260 268h4v4h-4zM264 268h4v4h-4zM268 268h4v4h-4zM272 268h4v4h-4zM276 268h4v4h-4zM280 268h4v4h-4zM284 268h4v4h-4z"/><path fill="#B50000" d="M288 268h4v4h-4zM148 272h4v4h-4z"/><path fill="#DC4B15" d="M152 272h4v4h-4z"/><path fill="#FF652C" d="M156 272h4v4h-4zM160 272h4v4h-4zM164 272h4v4h-4zM168 272h4v4h-4zM172 272h4v4h-4zM176 272h4v4h-4zM180 272h4v4h-4zM184 272h4v4h-4zM188 272h4v4h-4zM192 272h4v4h-4zM196 272h4v4h-4zM200 272h4v4h-4z"/><path fill="#B50000" d="M204 272h4v4h-4zM244 272h4v4h-4z"/><path fill="#DC4B15" d="M248 272h4v4h-4z"/><path fill="#FF652C" d="M252 272h4v4h-4zM256 272h4v4h-4zM260 272h4v4h-4zM264 272h4v4h-4z"/><path fill="#FF9E2C" d="M268 272h4v4h-4zM272 272h4v4h-4z"/><path fill="#FF652C" d="M276 272h4v4h-4zM280 272h4v4h-4zM284 272h4v4h-4z"/><path fill="#B50000" d="M288 272h4v4h-4zM148 276h4v4h-4z"/><path fill="#DC4B15" d="M152 276h4v4h-4z"/><path fill="#FF652C" d="M156 276h4v4h-4zM160 276h4v4h-4zM164 276h4v4h-4zM168 276h4v4h-4zM172 276h4v4h-4zM176 276h4v4h-4zM180 276h4v4h-4zM184 276h4v4h-4zM188 276h4v4h-4zM192 276h4v4h-4zM196 276h4v4h-4zM200 276h4v4h-4z"/><path fill="#B50000" d="M204 276h4v4h-4zM244 276h4v4h-4z"/><path fill="#DC4B15" d="M248 276h4v4h-4z"/><path fill="#FF9E2C" d="M252 276h4v4h-4z"/><path fill="#FF652C" d="M256 276h4v4h-4zM260 276h4v4h-4zM264 276h4v4h-4z"/><path fill="#FF9E2C" d="M268 276h4v4h-4zM272 276h4v4h-4z"/><path fill="#FF652C" d="M276 276h4v4h-4zM280 276h4v4h-4zM284 276h4v4h-4zM288 276h4v4h-4z"/><path fill="#B50000" d="M292 276h4v4h-4zM148 280h4v4h-4z"/><path fill="#DC4B15" d="M152 280h4v4h-4z"/><path fill="#FF652C" d="M156 280h4v4h-4z"/><path fill="#FF9E2C" d="M160 280h4v4h-4zM164 280h4v4h-4z"/><path fill="#FF652C" d="M168 280h4v4h-4zM172 280h4v4h-4zM176 280h4v4h-4zM180 280h4v4h-4zM184 280h4v4h-4zM188 280h4v4h-4zM192 280h4v4h-4zM196 280h4v4h-4zM200 280h4v4h-4zM204 280h4v4h-4z"/><path fill="#B50000" d="M208 280h4v4h-4zM244 280h4v4h-4z"/><path fill="#DC4B15" d="M248 280h4v4h-4z"/><path fill="#FF652C" d="M252 280h4v4h-4zM256 280h4v4h-4zM260 280h4v4h-4zM264 280h4v4h-4zM268 280h4v4h-4zM272 280h4v4h-4zM276 280h4v4h-4zM280 280h4v4h-4zM284 280h4v4h-4zM288 280h4v4h-4z"/><path fill="#B50000" d="M292 280h4v4h-4zM148 284h4v4h-4z"/><path fill="#DC4B15" d="M152 284h4v4h-4z"/><path fill="#FF652C" d="M156 284h4v4h-4z"/><path fill="#FF9E2C" d="M160 284h4v4h-4zM164 284h4v4h-4z"/><path fill="#FF652C" d="M168 284h4v4h-4zM172 284h4v4h-4zM176 284h4v4h-4zM180 284h4v4h-4zM184 284h4v4h-4zM188 284h4v4h-4zM192 284h4v4h-4z"/><path fill="#FF9E2C" d="M196 284h4v4h-4z"/><path fill="#FF652C" d="M200 284h4v4h-4zM204 284h4v4h-4z"/><path fill="#B50000" d="M208 284h4v4h-4zM248 284h4v4h-4z"/><path fill="#DC4B15" d="M252 284h4v4h-4z"/><path fill="#FF652C" d="M256 284h4v4h-4zM260 284h4v4h-4zM264 284h4v4h-4zM268 284h4v4h-4zM272 284h4v4h-4zM276 284h4v4h-4zM280 284h4v4h-4zM284 284h4v4h-4zM288 284h4v4h-4z"/><path fill="#B50000" d="M292 284h4v4h-4zM148 288h4v4h-4z"/><path fill="#DC4B15" d="M152 288h4v4h-4zM156 288h4v4h-4z"/><path fill="#FF652C" d="M160 288h4v4h-4zM164 288h4v4h-4zM168 288h4v4h-4zM172 288h4v4h-4zM176 288h4v4h-4zM180 288h4v4h-4zM184 288h4v4h-4zM188 288h4v4h-4zM192 288h4v4h-4z"/><path fill="#FF9E2C" d="M196 288h4v4h-4z"/><path fill="#FF652C" d="M200 288h4v4h-4zM204 288h4v4h-4z"/><path fill="#B50000" d="M208 288h4v4h-4zM248 288h4v4h-4z"/><path fill="#DC4B15" d="M252 288h4v4h-4z"/><path fill="#FF652C" d="M256 288h4v4h-4zM260 288h4v4h-4zM264 288h4v4h-4zM268 288h4v4h-4zM272 288h4v4h-4zM276 288h4v4h-4zM280 288h4v4h-4zM284 288h4v4h-4zM288 288h4v4h-4zM292 288h4v4h-4z"/><path fill="#B50000" d="M296 288h4v4h-4zM152 292h4v4h-4z"/><path fill="#DC4B15" d="M156 292h4v4h-4zM160 292h4v4h-4z"/><path fill="#FF652C" d="M164 292h4v4h-4zM168 292h4v4h-4zM172 292h4v4h-4zM176 292h4v4h-4zM180 292h4v4h-4zM184 292h4v4h-4zM188 292h4v4h-4zM192 292h4v4h-4zM196 292h4v4h-4zM200 292h4v4h-4zM204 292h4v4h-4z"/><path fill="#B50000" d="M208 292h4v4h-4zM252 292h4v4h-4z"/><path fill="#DC4B15" d="M256 292h4v4h-4z"/><path fill="#FF652C" d="M260 292h4v4h-4zM264 292h4v4h-4zM268 292h4v4h-4zM272 292h4v4h-4zM276 292h4v4h-4zM280 292h4v4h-4z"/><path fill="#B50000" d="M284 292h4v4h-4z"/><path fill="#FF652C" d="M288 292h4v4h-4zM292 292h4v4h-4z"/><path fill="#B50000" d="M296 292h4v4h-4zM152 296h4v4h-4z"/><path fill="#DC4B15" d="M156 296h4v4h-4zM160 296h4v4h-4z"/><path fill="#FF652C" d="M164 296h4v4h-4zM168 296h4v4h-4zM172 296h4v4h-4zM176 296h4v4h-4zM180 296h4v4h-4zM184 296h4v4h-4z"/><path fill="#B50000" d="M188 296h4v4h-4z"/><path fill="#FF652C" d="M192 296h4v4h-4zM196 296h4v4h-4zM200 296h4v4h-4zM204 296h4v4h-4z"/><path fill="#B50000" d="M208 296h4v4h-4zM252 296h4v4h-4z"/><path fill="#DC4B15" d="M256 296h4v4h-4z"/><path fill="#FF652C" d="M260 296h4v4h-4zM264 296h4v4h-4z"/><path fill="#FF9E2C" d="M268 296h4v4h-4z"/><path fill="#FF652C" d="M272 296h4v4h-4zM276 296h4v4h-4z"/><path fill="#B50000" d="M280 296h4v4h-4zM284 296h4v4h-4z"/><path fill="#FF652C" d="M288 296h4v4h-4zM292 296h4v4h-4z"/><path fill="#B50000" d="M296 296h4v4h-4zM156 300h4v4h-4z"/><path fill="#DC4B15" d="M160 300h4v4h-4zM164 300h4v4h-4z"/><path fill="#FF652C" d="M168 300h4v4h-4zM172 300h4v4h-4zM176 300h4v4h-4zM180 300h4v4h-4zM184 300h4v4h-4z"/><path fill="#B50000" d="M188 300h4v4h-4z"/><path fill="#FF652C" d="M192 300h4v4h-4zM196 300h4v4h-4zM200 300h4v4h-4zM204 300h4v4h-4z"/><path fill="#B50000" d="M208 300h4v4h-4zM256 300h4v4h-4z"/><path fill="#DC4B15" d="M260 300h4v4h-4z"/><path fill="#FF652C" d="M264 300h4v4h-4zM268 300h4v4h-4zM272 300h4v4h-4zM276 300h4v4h-4z"/><path fill="#B50000" d="M280 300h4v4h-4zM284 300h4v4h-4z"/><path fill="#FF652C" d="M288 300h4v4h-4zM292 300h4v4h-4z"/><path fill="#B50000" d="M296 300h4v4h-4zM160 304h4v4h-4z"/><path fill="#DC4B15" d="M164 304h4v4h-4zM168 304h4v4h-4z"/><path fill="#FF652C" d="M172 304h4v4h-4zM176 304h4v4h-4zM180 304h4v4h-4zM184 304h4v4h-4zM188 304h4v4h-4z"/><path fill="#B50000" d="M192 304h4v4h-4z"/><path fill="#FF652C" d="M196 304h4v4h-4zM200 304h4v4h-4zM204 304h4v4h-4zM208 304h4v4h-4z"/><path fill="#B50000" d="M212 304h4v4h-4zM256 304h4v4h-4z"/><path fill="#DC4B15" d="M260 304h4v4h-4z"/><path fill="#FF652C" d="M264 304h4v4h-4zM268 304h4v4h-4zM272 304h4v4h-4zM276 304h4v4h-4z"/><path fill="#B50000" d="M280 304h4v4h-4zM284 304h4v4h-4z"/><path fill="#FF652C" d="M288 304h4v4h-4zM292 304h4v4h-4z"/><path fill="#B50000" d="M296 304h4v4h-4zM164 308h4v4h-4z"/><path fill="#DC4B15" d="M168 308h4v4h-4zM172 308h4v4h-4z"/><path fill="#FF652C" d="M176 308h4v4h-4zM180 308h4v4h-4zM184 308h4v4h-4zM188 308h4v4h-4z"/><path fill="#B50000" d="M192 308h4v4h-4zM196 308h4v4h-4z"/><path fill="#FF652C" d="M200 308h4v4h-4zM204 308h4v4h-4zM208 308h4v4h-4z"/><path fill="#B50000" d="M212 308h4v4h-4zM260 308h4v4h-4z"/><path fill="#DC4B15" d="M264 308h4v4h-4z"/><path fill="#FF652C" d="M268 308h4v4h-4zM272 308h4v4h-4zM276 308h4v4h-4z"/><path fill="#B50000" d="M280 308h4v4h-4zM284 308h4v4h-4z"/><path fill="#FF652C" d="M288 308h4v4h-4z"/><path fill="#B50000" d="M292 308h4v4h-4zM168 312h4v4h-4z"/><path fill="#DC4B15" d="M172 312h4v4h-4zM176 312h4v4h-4z"/><path fill="#FF652C" d="M180 312h4v4h-4zM184 312h4v4h-4zM188 312h4v4h-4z"/><path fill="#B50000" d="M192 312h4v4h-4zM196 312h4v4h-4zM200 312h4v4h-4z"/><path fill="#FF652C" d="M204 312h4v4h-4zM208 312h4v4h-4z"/><path fill="#B50000" d="M212 312h4v4h-4zM264 312h4v4h-4z"/><path fill="#DC4B15" d="M268 312h4v4h-4z"/><path fill="#FF652C" d="M272 312h4v4h-4zM276 312h4v4h-4z"/><path fill="#B50000" d="M280 312h4v4h-4zM284 312h4v4h-4z"/><path fill="#FF652C" d="M288 312h4v4h-4z"/><path fill="#B50000" d="M292 312h4v4h-4zM172 316h4v4h-4z"/><path fill="#DC4B15" d="M176 316h4v4h-4zM180 316h4v4h-4z"/><path fill="#FF652C" d="M184 316h4v4h-4zM188 316h4v4h-4zM192 316h4v4h-4z"/><path fill="#B50000" d="M196 316h4v4h-4zM200 316h4v4h-4z"/><path fill="#FF652C" d="M204 316h4v4h-4zM208 316h4v4h-4z"/><path fill="#B50000" d="M212 316h4v4h-4zM268 316h4v4h-4z"/><path fill="#DC4B15" d="M272 316h4v4h-4z"/><path fill="#FF652C" d="M276 316h4v4h-4z"/><path fill="#B50000" d="M280 316h4v4h-4z"/><path fill="#FF652C" d="M284 316h4v4h-4z"/><path fill="#B50000" d="M288 316h4v4h-4zM176 320h4v4h-4z"/><path fill="#DC4B15" d="M180 320h4v4h-4zM184 320h4v4h-4zM188 320h4v4h-4z"/><path fill="#FF652C" d="M192 320h4v4h-4z"/><path fill="#B50000" d="M196 320h4v4h-4zM200 320h4v4h-4zM204 320h4v4h-4z"/><path fill="#FF652C" d="M208 320h4v4h-4z"/><path fill="#B50000" d="M212 320h4v4h-4zM272 320h4v4h-4z"/><path fill="#DC4B15" d="M276 320h4v4h-4z"/><path fill="#B50000" d="M280 320h4v4h-4zM284 320h4v4h-4zM180 324h4v4h-4zM184 324h4v4h-4zM188 324h4v4h-4z"/><path fill="#FF652C" d="M192 324h4v4h-4zM196 324h4v4h-4z"/><path fill="#B50000" d="M200 324h4v4h-4zM204 324h4v4h-4z"/><path fill="#FF652C" d="M208 324h4v4h-4z"/><path fill="#B50000" d="M212 324h4v4h-4zM276 324h4v4h-4zM280 324h4v4h-4zM192 328h4v4h-4zM196 328h4v4h-4z"/><path fill="#FF652C" d="M200 328h4v4h-4z"/><path fill="#B50000" d="M204 328h4v4h-4zM208 328h4v4h-4zM212 328h4v4h-4zM200 332h4v4h-4zM204 332h4v4h-4zM208 332h4v4h-4z"/></svg>