<svg width="384" height="384" xmlns="http://www.w3.org/2000/svg" shape-rendering="crispEdges"><path fill="#8B4523" d="M156 228h4v4h-4zM152 232h4v4h-4z"/><path fill="#A76831" d="M156 232h4v4h-4z"/><path fill="#8B4523" d="M160 232h4v4h-4zM152 236h4v4h-4z"/><path fill="#A76831" d="M156 236h4v4h-4z"/><path fill="#8B4523" d="M160 236h4v4h-4zM268 236h4v4h-4zM152 240h4v4h-4z"/><path fill="#A76831" d="M156 240h4v4h-4zM160 240h4v4h-4z"/><path fill="#8B4523" d="M164 240h4v4h-4zM264 240h4v4h-4z"/><path fill="#B96C2E" d="M268 240h4v4h-4z"/><path fill="#8B4523" d="M272 240h4v4h-4zM140 244h4v4h-4zM144 244h4v4h-4zM152 244h4v4h-4z"/><path fill="#A76831" d="M156 244h4v4h-4z"/><path fill="#B96C2E" d="M160 244h4v4h-4z"/><path fill="#A76831" d="M164 244h4v4h-4z"/><path fill="#8B4523" d="M168 244h4v4h-4zM172 244h4v4h-4zM176 244h4v4h-4zM180 244h4v4h-4zM264 244h4v4h-4z"/><path fill="#B96C2E" d="M268 244h4v4h-4z"/><path fill="#8B4523" d="M272 244h4v4h-4zM140 248h4v4h-4z"/><path fill="#A76831" d="M144 248h4v4h-4z"/><path fill="#8B4523" d="M148 248h4v4h-4z"/><path fill="#A76831" d="M152 248h4v4h-4zM156 248h4v4h-4zM160 248h4v4h-4z"/><path fill="#B96C2E" d="M164 248h4v4h-4z"/><path fill="#A76831" d="M168 248h4v4h-4zM172 248h4v4h-4zM176 248h4v4h-4zM180 248h4v4h-4z"/><path fill="#8B4523" d="M184 248h4v4h-4zM188 248h4v4h-4zM264 248h4v4h-4z"/><path fill="#B96C2E" d="M268 248h4v4h-4zM272 248h4v4h-4z"/><path fill="#8B4523" d="M276 248h4v4h-4zM140 252h4v4h-4z"/><path fill="#A76831" d="M144 252h4v4h-4zM148 252h4v4h-4zM152 252h4v4h-4zM156 252h4v4h-4zM160 252h4v4h-4z"/><path fill="#B96C2E" d="M164 252h4v4h-4zM168 252h4v4h-4zM172 252h4v4h-4z"/><path fill="#A76831" d="M176 252h4v4h-4zM180 252h4v4h-4zM184 252h4v4h-4zM188 252h4v4h-4z"/><path fill="#8B4523" d="M192 252h4v4h-4zM260 252h4v4h-4z"/><path fill="#A76831" d="M264 252h4v4h-4z"/><path fill="#B96C2E" d="M268 252h4v4h-4zM272 252h4v4h-4z"/><path fill="#8B4523" d="M276 252h4v4h-4zM284 252h4v4h-4zM144 256h4v4h-4zM148 256h4v4h-4z"/><path fill="#A76831" d="M152 256h4v4h-4zM156 256h4v4h-4zM160 256h4v4h-4zM164 256h4v4h-4z"/><path fill="#B96C2E" d="M168 256h4v4h-4z"/><path fill="#A76831" d="M172 256h4v4h-4z"/><path fill="#B96C2E" d="M176 256h4v4h-4z"/><path fill="#A76831" d="M180 256h4v4h-4zM184 256h4v4h-4zM188 256h4v4h-4zM192 256h4v4h-4z"/><path fill="#8B4523" d="M196 256h4v4h-4zM256 256h4v4h-4z"/><path fill="#A76831" d="M260 256h4v4h-4zM264 256h4v4h-4z"/><path fill="#B96C2E" d="M268 256h4v4h-4z"/><path fill="#A76831" d="M272 256h4v4h-4z"/><path fill="#8B4523" d="M276 256h4v4h-4zM280 256h4v4h-4z"/><path fill="#A76831" d="M284 256h4v4h-4z"/><path fill="#8B4523" d="M288 256h4v4h-4zM144 260h4v4h-4z"/><path fill="#A76831" d="M148 260h4v4h-4zM152 260h4v4h-4z"/><path fill="#B96C2E" d="M156 260h4v4h-4z"/><path fill="#A76831" d="M160 260h4v4h-4zM164 260h4v4h-4zM168 260h4v4h-4z"/><path fill="#B96C2E" d="M172 260h4v4h-4z"/><path fill="#A76831" d="M176 260h4v4h-4z"/><path fill="#B96C2E" d="M180 260h4v4h-4zM184 260h4v4h-4z"/><path fill="#A76831" d="M188 260h4v4h-4zM192 260h4v4h-4zM196 260h4v4h-4z"/><path fill="#8B4523" d="M200 260h4v4h-4zM252 260h4v4h-4z"/><path fill="#A76831" d="M256 260h4v4h-4zM260 260h4v4h-4zM264 260h4v4h-4z"/><path fill="#B96C2E" d="M268 260h4v4h-4z"/><path fill="#A76831" d="M272 260h4v4h-4zM276 260h4v4h-4z"/><path fill="#8B4523" d="M280 260h4v4h-4z"/><path fill="#A76831" d="M284 260h4v4h-4z"/><path fill="#8B4523" d="M288 260h4v4h-4z"/><path fill="#858F24" d="M296 260h4v4h-4z"/><path fill="#8B4523" d="M148 264h4v4h-4z"/><path fill="#935325" d="M152 264h4v4h-4z"/><path fill="#B96C2E" d="M156 264h4v4h-4z"/><path fill="#A76831" d="M160 264h4v4h-4zM164 264h4v4h-4zM168 264h4v4h-4z"/><path fill="#B96C2E" d="M172 264h4v4h-4z"/><path fill="#A76831" d="M176 264h4v4h-4z"/><path fill="#B96C2E" d="M180 264h4v4h-4zM184 264h4v4h-4z"/><path fill="#A76831" d="M188 264h4v4h-4zM192 264h4v4h-4zM196 264h4v4h-4zM200 264h4v4h-4z"/><path fill="#8B4523" d="M204 264h4v4h-4zM248 264h4v4h-4z"/><path fill="#A76831" d="M252 264h4v4h-4zM256 264h4v4h-4zM260 264h4v4h-4zM264 264h4v4h-4z"/><path fill="#B96C2E" d="M268 264h4v4h-4z"/><path fill="#A76831" d="M272 264h4v4h-4zM276 264h4v4h-4z"/><path fill="#B96C2E" d="M280 264h4v4h-4z"/><path fill="#A76831" d="M284 264h4v4h-4z"/><path fill="#8B4523" d="M288 264h4v4h-4z"/><path fill="#858F24" d="M292 264h4v4h-4zM296 264h4v4h-4z"/><path fill="#8B4523" d="M148 268h4v4h-4z"/><path fill="#935325" d="M152 268h4v4h-4z"/><path fill="#B96C2E" d="M156 268h4v4h-4z"/><path fill="#A76831" d="M160 268h4v4h-4zM164 268h4v4h-4zM168 268h4v4h-4zM172 268h4v4h-4z"/><path fill="#B96C2E" d="M176 268h4v4h-4z"/><path fill="#A76831" d="M180 268h4v4h-4z"/><path fill="#B96C2E" d="M184 268h4v4h-4zM188 268h4v4h-4z"/><path fill="#A76831" d="M192 268h4v4h-4zM196 268h4v4h-4zM200 268h4v4h-4z"/><path fill="#8B4523" d="M204 268h4v4h-4zM244 268h4v4h-4z"/><path fill="#935325" d="M248 268h4v4h-4z"/><path fill="#A76831" d="M252 268h4v4h-4zM256 268h4v4h-4zM260 268h4v4h-4z"/><path fill="#B96C2E" d="M264 268h4v4h-4zM268 268h4v4h-4z"/><path fill="#A76831" d="M272 268h4v4h-4zM276 268h4v4h-4z"/><path fill="#B96C2E" d="M280 268h4v4h-4z"/><path fill="#A76831" d="M284 268h4v4h-4z"/><path fill="#8B4523" d="M288 268h4v4h-4z"/><path fill="#858F24" d="M292 268h4v4h-4zM296 268h4v4h-4z"/><path fill="#8B4523" d="M148 272h4v4h-4z"/><path fill="#935325" d="M152 272h4v4h-4z"/><path fill="#B96C2E" d="M156 272h4v4h-4z"/><path fill="#A76831" d="M160 272h4v4h-4zM164 272h4v4h-4zM168 272h4v4h-4zM172 272h4v4h-4z"/><path fill="#B96C2E" d="M176 272h4v4h-4z"/><path fill="#A76831" d="M180 272h4v4h-4z"/><path fill="#B96C2E" d="M184 272h4v4h-4zM188 272h4v4h-4zM192 272h4v4h-4z"/><path fill="#A76831" d="M196 272h4v4h-4zM200 272h4v4h-4z"/><path fill="#8B4523" d="M204 272h4v4h-4zM244 272h4v4h-4z"/><path fill="#935325" d="M248 272h4v4h-4z"/><path fill="#A76831" d="M252 272h4v4h-4zM256 272h4v4h-4zM260 272h4v4h-4z"/><path fill="#B96C2E" d="M264 272h4v4h-4zM268 272h4v4h-4z"/><path fill="#A76831" d="M272 272h4v4h-4zM276 272h4v4h-4z"/><path fill="#B96C2E" d="M280 272h4v4h-4z"/><path fill="#A76831" d="M284 272h4v4h-4z"/><path fill="#8B4523" d="M288 272h4v4h-4z"/><path fill="#858F24" d="M292 272h4v4h-4zM296 272h4v4h-4z"/><path fill="#8B4523" d="M148 276h4v4h-4z"/><path fill="#935325" d="M152 276h4v4h-4z"/><path fill="#B96C2E" d="M156 276h4v4h-4z"/><path fill="#A76831" d="M160 276h4v4h-4zM164 276h4v4h-4zM168 276h4v4h-4zM172 276h4v4h-4zM176 276h4v4h-4z"/><path fill="#B96C2E" d="M180 276h4v4h-4z"/><path fill="#A76831" d="M184 276h4v4h-4z"/><path fill="#B96C2E" d="M188 276h4v4h-4zM192 276h4v4h-4z"/><path fill="#A76831" d="M196 276h4v4h-4zM200 276h4v4h-4z"/><path fill="#8B4523" d="M204 276h4v4h-4zM244 276h4v4h-4z"/><path fill="#935325" d="M248 276h4v4h-4z"/><path fill="#A76831" d="M252 276h4v4h-4zM256 276h4v4h-4zM260 276h4v4h-4z"/><path fill="#B96C2E" d="M264 276h4v4h-4zM268 276h4v4h-4z"/><path fill="#A76831" d="M272 276h4v4h-4zM276 276h4v4h-4z"/><path fill="#B96C2E" d="M280 276h4v4h-4z"/><path fill="#A76831" d="M284 276h4v4h-4zM288 276h4v4h-4z"/><path fill="#8B4523" d="M292 276h4v4h-4z"/><path fill="#858F24" d="M296 276h4v4h-4z"/><path fill="#8B4523" d="M148 280h4v4h-4z"/><path fill="#935325" d="M152 280h4v4h-4z"/><path fill="#B96C2E" d="M156 280h4v4h-4z"/><path fill="#A76831" d="M160 280h4v4h-4zM164 280h4v4h-4zM168 280h4v4h-4zM172 280h4v4h-4zM176 280h4v4h-4z"/><path fill="#8B4523" d="M180 280h4v4h-4z"/><path fill="#A76831" d="M184 280h4v4h-4z"/><path fill="#B96C2E" d="M188 280h4v4h-4zM192 280h4v4h-4zM196 280h4v4h-4z"/><path fill="#A76831" d="M200 280h4v4h-4zM204 280h4v4h-4z"/><path fill="#8B4523" d="M208 280h4v4h-4zM244 280h4v4h-4z"/><path fill="#935325" d="M248 280h4v4h-4z"/><path fill="#A76831" d="M252 280h4v4h-4zM256 280h4v4h-4zM260 280h4v4h-4z"/><path fill="#B96C2E" d="M264 280h4v4h-4zM268 280h4v4h-4z"/><path fill="#A76831" d="M272 280h4v4h-4zM276 280h4v4h-4z"/><path fill="#B96C2E" d="M280 280h4v4h-4z"/><path fill="#A76831" d="M284 280h4v4h-4zM288 280h4v4h-4z"/><path fill="#8B4523" d="M292 280h4v4h-4zM148 284h4v4h-4z"/><path fill="#935325" d="M152 284h4v4h-4z"/><path fill="#A76831" d="M156 284h4v4h-4z"/><path fill="#B96C2E" d="M160 284h4v4h-4z"/><path fill="#A76831" d="M164 284h4v4h-4zM168 284h4v4h-4zM172 284h4v4h-4zM176 284h4v4h-4z"/><path fill="#8B4523" d="M180 284h4v4h-4z"/><path fill="#B96C2E" d="M184 284h4v4h-4z"/><path fill="#A76831" d="M188 284h4v4h-4z"/><path fill="#B96C2E" d="M192 284h4v4h-4zM196 284h4v4h-4z"/><path fill="#A76831" d="M200 284h4v4h-4zM204 284h4v4h-4z"/><path fill="#8B4523" d="M208 284h4v4h-4zM248 284h4v4h-4z"/><path fill="#935325" d="M252 284h4v4h-4z"/><path fill="#A76831" d="M256 284h4v4h-4zM260 284h4v4h-4z"/><path fill="#B96C2E" d="M264 284h4v4h-4zM268 284h4v4h-4zM272 284h4v4h-4z"/><path fill="#A76831" d="M276 284h4v4h-4z"/><path fill="#B96C2E" d="M280 284h4v4h-4z"/><path fill="#8B4523" d="M284 284h4v4h-4z"/><path fill="#A76831" d="M288 284h4v4h-4z"/><path fill="#8B4523" d="M292 284h4v4h-4zM148 288h4v4h-4z"/><path fill="#935325" d="M152 288h4v4h-4zM156 288h4v4h-4z"/><path fill="#B96C2E" d="M160 288h4v4h-4z"/><path fill="#A76831" d="M164 288h4v4h-4zM168 288h4v4h-4zM172 288h4v4h-4zM176 288h4v4h-4zM180 288h4v4h-4z"/><path fill="#8B4523" d="M184 288h4v4h-4z"/><path fill="#A76831" d="M188 288h4v4h-4z"/><path fill="#B96C2E" d="M192 288h4v4h-4zM196 288h4v4h-4zM200 288h4v4h-4z"/><path fill="#A76831" d="M204 288h4v4h-4z"/><path fill="#8B4523" d="M208 288h4v4h-4zM248 288h4v4h-4z"/><path fill="#935325" d="M252 288h4v4h-4z"/><path fill="#A76831" d="M256 288h4v4h-4zM260 288h4v4h-4z"/><path fill="#B96C2E" d="M264 288h4v4h-4zM268 288h4v4h-4zM272 288h4v4h-4z"/><path fill="#A76831" d="M276 288h4v4h-4z"/><path fill="#B96C2E" d="M280 288h4v4h-4z"/><path fill="#8B4523" d="M284 288h4v4h-4z"/><path fill="#A76831" d="M288 288h4v4h-4zM292 288h4v4h-4z"/><path fill="#8B4523" d="M296 288h4v4h-4zM152 292h4v4h-4z"/><path fill="#935325" d="M156 292h4v4h-4zM160 292h4v4h-4z"/><path fill="#A76831" d="M164 292h4v4h-4zM168 292h4v4h-4zM172 292h4v4h-4zM176 292h4v4h-4zM180 292h4v4h-4z"/><path fill="#8B4523" d="M184 292h4v4h-4zM188 292h4v4h-4zM192 292h4v4h-4z"/><path fill="#B96C2E" d="M196 292h4v4h-4zM200 292h4v4h-4z"/><path fill="#A76831" d="M204 292h4v4h-4z"/><path fill="#8B4523" d="M208 292h4v4h-4zM252 292h4v4h-4z"/><path fill="#935325" d="M256 292h4v4h-4z"/><path fill="#A76831" d="M260 292h4v4h-4z"/><path fill="#B96C2E" d="M264 292h4v4h-4zM268 292h4v4h-4zM272 292h4v4h-4z"/><path fill="#A76831" d="M276 292h4v4h-4z"/><path fill="#8B4523" d="M280 292h4v4h-4zM284 292h4v4h-4z"/><path fill="#A76831" d="M288 292h4v4h-4zM292 292h4v4h-4z"/><path fill="#8B4523" d="M296 292h4v4h-4zM152 296h4v4h-4z"/><path fill="#935325" d="M156 296h4v4h-4zM160 296h4v4h-4z"/><path fill="#A76831" d="M164 296h4v4h-4zM168 296h4v4h-4zM172 296h4v4h-4zM176 296h4v4h-4z"/><path fill="#8B4523" d="M180 296h4v4h-4zM184 296h4v4h-4zM188 296h4v4h-4z"/><path fill="#B96C2E" d="M192 296h4v4h-4zM196 296h4v4h-4zM200 296h4v4h-4z"/><path fill="#A76831" d="M204 296h4v4h-4z"/><path fill="#8B4523" d="M208 296h4v4h-4zM252 296h4v4h-4z"/><path fill="#935325" d="M256 296h4v4h-4z"/><path fill="#A76831" d="M260 296h4v4h-4zM264 296h4v4h-4z"/><path fill="#B96C2E" d="M268 296h4v4h-4z"/><path fill="#8B4523" d="M272 296h4v4h-4zM276 296h4v4h-4zM280 296h4v4h-4zM284 296h4v4h-4z"/><path fill="#A76831" d="M288 296h4v4h-4zM292 296h4v4h-4z"/><path fill="#8B4523" d="M296 296h4v4h-4zM156 300h4v4h-4z"/><path fill="#935325" d="M160 300h4v4h-4zM164 300h4v4h-4z"/><path fill="#A76831" d="M168 300h4v4h-4zM172 300h4v4h-4zM176 300h4v4h-4zM180 300h4v4h-4zM184 300h4v4h-4z"/><path fill="#8B4523" d="M188 300h4v4h-4z"/><path fill="#A76831" d="M192 300h4v4h-4z"/><path fill="#B96C2E" d="M196 300h4v4h-4z"/><path fill="#A76831" d="M200 300h4v4h-4zM204 300h4v4h-4z"/><path fill="#8B4523" d="M208 300h4v4h-4zM256 300h4v4h-4z"/><path fill="#935325" d="M260 300h4v4h-4z"/><path fill="#A76831" d="M264 300h4v4h-4z"/><path fill="#B96C2E" d="M268 300h4v4h-4zM272 300h4v4h-4zM276 300h4v4h-4z"/><path fill="#8B4523" d="M280 300h4v4h-4zM284 300h4v4h-4zM288 300h4v4h-4z"/><path fill="#A76831" d="M292 300h4v4h-4z"/><path fill="#8B4523" d="M296 300h4v4h-4zM160 304h4v4h-4z"/><path fill="#935325" d="M164 304h4v4h-4zM168 304h4v4h-4z"/><path fill="#A76831" d="M172 304h4v4h-4zM176 304h4v4h-4zM180 304h4v4h-4zM184 304h4v4h-4z"/><path fill="#8B4523" d="M188 304h4v4h-4zM192 304h4v4h-4zM196 304h4v4h-4zM200 304h4v4h-4z"/><path fill="#A76831" d="M204 304h4v4h-4zM208 304h4v4h-4z"/><path fill="#8B4523" d="M212 304h4v4h-4zM256 304h4v4h-4z"/><path fill="#935325" d="M260 304h4v4h-4z"/><path fill="#A76831" d="M264 304h4v4h-4z"/><path fill="#B96C2E" d="M268 304h4v4h-4zM272 304h4v4h-4zM276 304h4v4h-4z"/><path fill="#8B4523" d="M280 304h4v4h-4zM284 304h4v4h-4z"/><path fill="#A76831" d="M288 304h4v4h-4zM292 304h4v4h-4z"/><path fill="#8B4523" d="M296 304h4v4h-4zM164 308h4v4h-4z"/><path fill="#935325" d="M168 308h4v4h-4zM172 308h4v4h-4z"/><path fill="#A76831" d="M176 308h4v4h-4zM180 308h4v4h-4zM184 308h4v4h-4zM188 308h4v4h-4z"/><path fill="#8B4523" d="M192 308h4v4h-4zM196 308h4v4h-4z"/><path fill="#A76831" d="M200 308h4v4h-4zM204 308h4v4h-4zM208 308h4v4h-4z"/><path fill="#8B4523" d="M212 308h4v4h-4zM260 308h4v4h-4z"/><path fill="#935325" d="M264 308h4v4h-4z"/><path fill="#B96C2E" d="M268 308h4v4h-4zM272 308h4v4h-4z"/><path fill="#8B4523" d="M276 308h4v4h-4zM280 308h4v4h-4zM284 308h4v4h-4z"/><path fill="#A76831" d="M288 308h4v4h-4z"/><path fill="#8B4523" d="M292 308h4v4h-4zM168 312h4v4h-4z"/><path fill="#935325" d="M172 312h4v4h-4zM176 312h4v4h-4z"/><path fill="#A76831" d="M180 312h4v4h-4z"/><path fill="#8B4523" d="M184 312h4v4h-4zM188 312h4v4h-4zM192 312h4v4h-4zM196 312h4v4h-4zM200 312h4v4h-4z"/><path fill="#A76831" d="M204 312h4v4h-4zM208 312h4v4h-4z"/><path fill="#8B4523" d="M212 312h4v4h-4zM264 312h4v4h-4z"/><path fill="#935325" d="M268 312h4v4h-4z"/><path fill="#B96C2E" d="M272 312h4v4h-4zM276 312h4v4h-4z"/><path fill="#8B4523" d="M280 312h4v4h-4zM284 312h4v4h-4z"/><path fill="#A76831" d="M288 312h4v4h-4z"/><path fill="#8B4523" d="M292 312h4v4h-4zM172 316h4v4h-4z"/><path fill="#935325" d="M176 316h4v4h-4zM180 316h4v4h-4z"/><path fill="#A76831" d="M184 316h4v4h-4zM188 316h4v4h-4zM192 316h4v4h-4z"/><path fill="#8B4523" d="M196 316h4v4h-4z"/><path fill="#A76831" d="M200 316h4v4h-4zM204 316h4v4h-4zM208 316h4v4h-4z"/><path fill="#8B4523" d="M212 316h4v4h-4zM268 316h4v4h-4z"/><path fill="#935325" d="M272 316h4v4h-4z"/><path fill="#B96C2E" d="M276 316h4v4h-4z"/><path fill="#8B4523" d="M280 316h4v4h-4z"/><path fill="#A76831" d="M284 316h4v4h-4z"/><path fill="#8B4523" d="M288 316h4v4h-4zM176 320h4v4h-4z"/><path fill="#935325" d="M180 320h4v4h-4zM184 320h4v4h-4zM188 320h4v4h-4z"/><path fill="#A76831" d="M192 320h4v4h-4z"/><path fill="#8B4523" d="M196 320h4v4h-4zM200 320h4v4h-4zM204 320h4v4h-4z"/><path fill="#A76831" d="M208 320h4v4h-4z"/><path fill="#8B4523" d="M212 320h4v4h-4zM272 320h4v4h-4z"/><path fill="#935325" d="M276 320h4v4h-4z"/><path fill="#8B4523" d="M280 320h4v4h-4zM284 320h4v4h-4zM180 324h4v4h-4zM184 324h4v4h-4zM188 324h4v4h-4z"/><path fill="#935325" d="M192 324h4v4h-4z"/><path fill="#A76831" d="M196 324h4v4h-4z"/><path fill="#8B4523" d="M200 324h4v4h-4zM204 324h4v4h-4z"/><path fill="#A76831" d="M208 324h4v4h-4z"/><path fill="#8B4523" d="M212 324h4v4h-4zM276 324h4v4h-4zM280 324h4v4h-4zM192 328h4v4h-4zM196 328h4v4h-4z"/><path fill="#A76831" d="M200 328h4v4h-4z"/><path fill="#8B4523" d="M204 328h4v4h-4zM208 328h4v4h-4zM212 328h4v4h-4zM200 332h4v4h-4zM204 332h4v4h-4zM208 332h4v4h-4z"/></svg>