<svg width="384" height="384" xmlns="http://www.w3.org/2000/svg" shape-rendering="crispEdges"><path fill="#FFF" d="M152 204h4v4h-4zM156 204h4v4h-4zM160 204h4v4h-4zM164 204h4v4h-4zM168 204h4v4h-4zM172 204h4v4h-4zM176 204h4v4h-4zM180 204h4v4h-4zM292 204h4v4h-4zM296 204h4v4h-4zM300 204h4v4h-4zM304 204h4v4h-4zM308 204h4v4h-4zM312 204h4v4h-4zM140 208h4v4h-4zM144 208h4v4h-4zM148 208h4v4h-4z"/><path fill="#A0DFEC" d="M152 208h4v4h-4zM156 208h4v4h-4zM160 208h4v4h-4zM164 208h4v4h-4zM168 208h4v4h-4zM172 208h4v4h-4zM176 208h4v4h-4zM180 208h4v4h-4z"/><path fill="#FFF" d="M184 208h4v4h-4zM288 208h4v4h-4z"/><path fill="#A0DFEC" d="M292 208h4v4h-4zM296 208h4v4h-4zM300 208h4v4h-4zM304 208h4v4h-4zM308 208h4v4h-4zM312 208h4v4h-4z"/><path fill="#FFF" d="M316 208h4v4h-4zM320 208h4v4h-4zM136 212h4v4h-4z"/><path fill="#A0DFEC" d="M140 212h4v4h-4zM144 212h4v4h-4zM148 212h4v4h-4zM152 212h4v4h-4zM156 212h4v4h-4zM160 212h4v4h-4zM164 212h4v4h-4zM168 212h4v4h-4zM172 212h4v4h-4z"/><path fill="#FFF" d="M176 212h4v4h-4zM180 212h4v4h-4zM184 212h4v4h-4zM188 212h4v4h-4zM284 212h4v4h-4zM288 212h4v4h-4z"/><path fill="#A0DFEC" d="M292 212h4v4h-4zM296 212h4v4h-4zM300 212h4v4h-4zM304 212h4v4h-4zM308 212h4v4h-4zM312 212h4v4h-4zM316 212h4v4h-4zM320 212h4v4h-4z"/><path fill="#FFF" d="M324 212h4v4h-4zM132 216h4v4h-4zM136 216h4v4h-4zM140 216h4v4h-4z"/><path fill="#A0DFEC" d="M144 216h4v4h-4zM148 216h4v4h-4zM152 216h4v4h-4zM156 216h4v4h-4z"/><path fill="#FFF" d="M160 216h4v4h-4zM164 216h4v4h-4zM168 216h4v4h-4zM172 216h4v4h-4z"/><path fill="#BBF3FF" d="M176 216h4v4h-4zM180 216h4v4h-4zM184 216h4v4h-4z"/><path fill="#FFF" d="M188 216h4v4h-4zM284 216h4v4h-4z"/><path fill="#88C3D0" d="M288 216h4v4h-4z"/><path fill="#FFF" d="M292 216h4v4h-4zM296 216h4v4h-4z"/><path fill="#A0DFEC" d="M300 216h4v4h-4zM304 216h4v4h-4zM308 216h4v4h-4zM312 216h4v4h-4zM316 216h4v4h-4zM320 216h4v4h-4zM324 216h4v4h-4z"/><path fill="#FFF" d="M328 216h4v4h-4zM132 220h4v4h-4z"/><path fill="#88C3D0" d="M136 220h4v4h-4zM140 220h4v4h-4z"/><path fill="#FFF" d="M144 220h4v4h-4zM148 220h4v4h-4zM152 220h4v4h-4zM156 220h4v4h-4z"/><path fill="#BBF3FF" d="M160 220h4v4h-4zM164 220h4v4h-4zM168 220h4v4h-4zM172 220h4v4h-4zM176 220h4v4h-4zM180 220h4v4h-4zM184 220h4v4h-4z"/><path fill="#FFF" d="M188 220h4v4h-4zM284 220h4v4h-4z"/><path fill="#88C3D0" d="M288 220h4v4h-4zM292 220h4v4h-4zM296 220h4v4h-4z"/><path fill="#FFF" d="M300 220h4v4h-4zM304 220h4v4h-4z"/><path fill="#A0DFEC" d="M308 220h4v4h-4zM312 220h4v4h-4z"/><path fill="#FFF" d="M316 220h4v4h-4zM320 220h4v4h-4zM324 220h4v4h-4zM328 220h4v4h-4zM132 224h4v4h-4z"/><path fill="#88C3D0" d="M136 224h4v4h-4zM140 224h4v4h-4zM144 224h4v4h-4z"/><path fill="#FFF" d="M148 224h4v4h-4z"/><path fill="#BBF3FF" d="M152 224h4v4h-4zM156 224h4v4h-4zM160 224h4v4h-4zM164 224h4v4h-4zM168 224h4v4h-4zM172 224h4v4h-4zM176 224h4v4h-4zM180 224h4v4h-4zM184 224h4v4h-4zM188 224h4v4h-4z"/><path fill="#FFF" d="M192 224h4v4h-4zM284 224h4v4h-4z"/><path fill="#88C3D0" d="M288 224h4v4h-4zM292 224h4v4h-4zM296 224h4v4h-4zM300 224h4v4h-4zM304 224h4v4h-4z"/><path fill="#FFF" d="M308 224h4v4h-4zM312 224h4v4h-4z"/><path fill="#BBF3FF" d="M316 224h4v4h-4zM320 224h4v4h-4zM324 224h4v4h-4z"/><path fill="#FFF" d="M328 224h4v4h-4zM132 228h4v4h-4z"/><path fill="#88C3D0" d="M136 228h4v4h-4zM140 228h4v4h-4zM144 228h4v4h-4zM148 228h4v4h-4z"/><path fill="#FFF" d="M152 228h4v4h-4z"/><path fill="#BBF3FF" d="M156 228h4v4h-4zM160 228h4v4h-4zM164 228h4v4h-4zM168 228h4v4h-4zM172 228h4v4h-4zM176 228h4v4h-4zM180 228h4v4h-4zM184 228h4v4h-4zM188 228h4v4h-4z"/><path fill="#FFF" d="M192 228h4v4h-4zM280 228h4v4h-4z"/><path fill="#88C3D0" d="M284 228h4v4h-4zM288 228h4v4h-4zM292 228h4v4h-4zM296 228h4v4h-4zM300 228h4v4h-4zM304 228h4v4h-4z"/><path fill="#FFF" d="M308 228h4v4h-4z"/><path fill="#BBF3FF" d="M312 228h4v4h-4zM316 228h4v4h-4zM320 228h4v4h-4zM324 228h4v4h-4z"/><path fill="#FFF" d="M328 228h4v4h-4zM132 232h4v4h-4z"/><path fill="#88C3D0" d="M136 232h4v4h-4zM140 232h4v4h-4zM144 232h4v4h-4zM148 232h4v4h-4z"/><path fill="#FFF" d="M152 232h4v4h-4z"/><path fill="#BBF3FF" d="M156 232h4v4h-4zM160 232h4v4h-4zM164 232h4v4h-4zM168 232h4v4h-4zM172 232h4v4h-4zM176 232h4v4h-4zM180 232h4v4h-4zM184 232h4v4h-4zM188 232h4v4h-4z"/><path fill="#FFF" d="M192 232h4v4h-4zM280 232h4v4h-4z"/><path fill="#88C3D0" d="M284 232h4v4h-4zM288 232h4v4h-4zM292 232h4v4h-4zM296 232h4v4h-4zM300 232h4v4h-4zM304 232h4v4h-4z"/><path fill="#FFF" d="M308 232h4v4h-4z"/><path fill="#BBF3FF" d="M312 232h4v4h-4zM316 232h4v4h-4zM320 232h4v4h-4z"/><path fill="#FFF" d="M324 232h4v4h-4zM136 236h4v4h-4z"/><path fill="#88C3D0" d="M140 236h4v4h-4zM144 236h4v4h-4zM148 236h4v4h-4z"/><path fill="#FFF" d="M152 236h4v4h-4z"/><path fill="#BBF3FF" d="M156 236h4v4h-4zM160 236h4v4h-4zM164 236h4v4h-4zM168 236h4v4h-4zM172 236h4v4h-4zM176 236h4v4h-4zM180 236h4v4h-4zM184 236h4v4h-4zM188 236h4v4h-4z"/><path fill="#FFF" d="M192 236h4v4h-4zM280 236h4v4h-4z"/><path fill="#88C3D0" d="M284 236h4v4h-4zM288 236h4v4h-4zM292 236h4v4h-4zM296 236h4v4h-4zM300 236h4v4h-4z"/><path fill="#FFF" d="M304 236h4v4h-4z"/><path fill="#BBF3FF" d="M308 236h4v4h-4zM312 236h4v4h-4zM316 236h4v4h-4zM320 236h4v4h-4z"/><path fill="#FFF" d="M324 236h4v4h-4zM136 240h4v4h-4z"/><path fill="#88C3D0" d="M140 240h4v4h-4zM144 240h4v4h-4zM148 240h4v4h-4z"/><path fill="#FFF" d="M152 240h4v4h-4z"/><path fill="#BBF3FF" d="M156 240h4v4h-4zM160 240h4v4h-4zM164 240h4v4h-4zM168 240h4v4h-4zM172 240h4v4h-4zM176 240h4v4h-4zM180 240h4v4h-4zM184 240h4v4h-4zM188 240h4v4h-4z"/><path fill="#FFF" d="M192 240h4v4h-4zM280 240h4v4h-4z"/><path fill="#88C3D0" d="M284 240h4v4h-4zM288 240h4v4h-4zM292 240h4v4h-4zM296 240h4v4h-4zM300 240h4v4h-4z"/><path fill="#FFF" d="M304 240h4v4h-4z"/><path fill="#BBF3FF" d="M308 240h4v4h-4zM312 240h4v4h-4zM316 240h4v4h-4zM320 240h4v4h-4z"/><path fill="#FFF" d="M324 240h4v4h-4zM136 244h4v4h-4z"/><path fill="#88C3D0" d="M140 244h4v4h-4zM144 244h4v4h-4zM148 244h4v4h-4zM152 244h4v4h-4z"/><path fill="#FFF" d="M156 244h4v4h-4z"/><path fill="#BBF3FF" d="M160 244h4v4h-4zM164 244h4v4h-4zM168 244h4v4h-4zM172 244h4v4h-4zM176 244h4v4h-4zM180 244h4v4h-4zM184 244h4v4h-4zM188 244h4v4h-4z"/><path fill="#FFF" d="M192 244h4v4h-4zM280 244h4v4h-4z"/><path fill="#88C3D0" d="M284 244h4v4h-4zM288 244h4v4h-4zM292 244h4v4h-4zM296 244h4v4h-4zM300 244h4v4h-4z"/><path fill="#FFF" d="M304 244h4v4h-4z"/><path fill="#BBF3FF" d="M308 244h4v4h-4zM312 244h4v4h-4zM316 244h4v4h-4zM320 244h4v4h-4z"/><path fill="#FFF" d="M324 244h4v4h-4zM136 248h4v4h-4z"/><path fill="#88C3D0" d="M140 248h4v4h-4zM144 248h4v4h-4zM148 248h4v4h-4zM152 248h4v4h-4z"/><path fill="#FFF" d="M156 248h4v4h-4z"/><path fill="#BBF3FF" d="M160 248h4v4h-4zM164 248h4v4h-4zM168 248h4v4h-4zM172 248h4v4h-4zM176 248h4v4h-4zM180 248h4v4h-4zM184 248h4v4h-4zM188 248h4v4h-4zM192 248h4v4h-4z"/><path fill="#FFF" d="M196 248h4v4h-4zM276 248h4v4h-4z"/><path fill="#88C3D0" d="M280 248h4v4h-4zM284 248h4v4h-4zM288 248h4v4h-4zM292 248h4v4h-4zM296 248h4v4h-4zM300 248h4v4h-4z"/><path fill="#FFF" d="M304 248h4v4h-4z"/><path fill="#BBF3FF" d="M308 248h4v4h-4zM312 248h4v4h-4zM316 248h4v4h-4z"/><path fill="#FFF" d="M320 248h4v4h-4zM140 252h4v4h-4z"/><path fill="#88C3D0" d="M144 252h4v4h-4zM148 252h4v4h-4zM152 252h4v4h-4z"/><path fill="#FFF" d="M156 252h4v4h-4z"/><path fill="#BBF3FF" d="M160 252h4v4h-4zM164 252h4v4h-4zM168 252h4v4h-4zM172 252h4v4h-4zM176 252h4v4h-4zM180 252h4v4h-4zM184 252h4v4h-4zM188 252h4v4h-4zM192 252h4v4h-4z"/><path fill="#FFF" d="M196 252h4v4h-4zM276 252h4v4h-4z"/><path fill="#88C3D0" d="M280 252h4v4h-4zM284 252h4v4h-4zM288 252h4v4h-4zM292 252h4v4h-4zM296 252h4v4h-4zM300 252h4v4h-4z"/><path fill="#FFF" d="M304 252h4v4h-4z"/><path fill="#BBF3FF" d="M308 252h4v4h-4zM312 252h4v4h-4zM316 252h4v4h-4z"/><path fill="#FFF" d="M320 252h4v4h-4zM140 256h4v4h-4z"/><path fill="#88C3D0" d="M144 256h4v4h-4zM148 256h4v4h-4zM152 256h4v4h-4z"/><path fill="#FFF" d="M156 256h4v4h-4z"/><path fill="#BBF3FF" d="M160 256h4v4h-4zM164 256h4v4h-4zM168 256h4v4h-4zM172 256h4v4h-4zM176 256h4v4h-4zM180 256h4v4h-4zM184 256h4v4h-4zM188 256h4v4h-4zM192 256h4v4h-4z"/><path fill="#FFF" d="M196 256h4v4h-4zM276 256h4v4h-4z"/><path fill="#88C3D0" d="M280 256h4v4h-4zM284 256h4v4h-4zM288 256h4v4h-4zM292 256h4v4h-4zM296 256h4v4h-4zM300 256h4v4h-4z"/><path fill="#FFF" d="M304 256h4v4h-4z"/><path fill="#BBF3FF" d="M308 256h4v4h-4zM312 256h4v4h-4zM316 256h4v4h-4z"/><path fill="#FFF" d="M320 256h4v4h-4zM140 260h4v4h-4z"/><path fill="#88C3D0" d="M144 260h4v4h-4zM148 260h4v4h-4zM152 260h4v4h-4zM156 260h4v4h-4z"/><path fill="#FFF" d="M160 260h4v4h-4z"/><path fill="#BBF3FF" d="M164 260h4v4h-4zM168 260h4v4h-4zM172 260h4v4h-4zM176 260h4v4h-4zM180 260h4v4h-4zM184 260h4v4h-4zM188 260h4v4h-4zM192 260h4v4h-4z"/><path fill="#FFF" d="M196 260h4v4h-4zM276 260h4v4h-4z"/><path fill="#88C3D0" d="M280 260h4v4h-4zM284 260h4v4h-4zM288 260h4v4h-4zM292 260h4v4h-4zM296 260h4v4h-4z"/><path fill="#FFF" d="M300 260h4v4h-4z"/><path fill="#BBF3FF" d="M304 260h4v4h-4zM308 260h4v4h-4zM312 260h4v4h-4zM316 260h4v4h-4z"/><path fill="#FFF" d="M320 260h4v4h-4zM140 264h4v4h-4z"/><path fill="#88C3D0" d="M144 264h4v4h-4zM148 264h4v4h-4zM152 264h4v4h-4zM156 264h4v4h-4z"/><path fill="#FFF" d="M160 264h4v4h-4z"/><path fill="#BBF3FF" d="M164 264h4v4h-4zM168 264h4v4h-4zM172 264h4v4h-4zM176 264h4v4h-4zM180 264h4v4h-4zM184 264h4v4h-4zM188 264h4v4h-4zM192 264h4v4h-4z"/><path fill="#FFF" d="M196 264h4v4h-4z"/><path fill="#B55800" d="M256 264h4v4h-4zM260 264h4v4h-4zM264 264h4v4h-4z"/><path fill="#FFF" d="M272 264h4v4h-4z"/><path fill="#88C3D0" d="M276 264h4v4h-4zM280 264h4v4h-4zM284 264h4v4h-4zM288 264h4v4h-4zM292 264h4v4h-4zM296 264h4v4h-4z"/><path fill="#FFF" d="M300 264h4v4h-4z"/><path fill="#BBF3FF" d="M304 264h4v4h-4zM308 264h4v4h-4zM312 264h4v4h-4z"/><path fill="#FFF" d="M316 264h4v4h-4zM144 268h4v4h-4z"/><path fill="#88C3D0" d="M148 268h4v4h-4zM152 268h4v4h-4zM156 268h4v4h-4z"/><path fill="#FFF" d="M160 268h4v4h-4z"/><path fill="#BBF3FF" d="M164 268h4v4h-4zM168 268h4v4h-4zM172 268h4v4h-4zM176 268h4v4h-4zM180 268h4v4h-4zM184 268h4v4h-4zM188 268h4v4h-4zM192 268h4v4h-4zM196 268h4v4h-4z"/><path fill="#FFF" d="M200 268h4v4h-4z"/><path fill="#B55800" d="M252 268h4v4h-4zM256 268h4v4h-4zM260 268h4v4h-4zM264 268h4v4h-4zM268 268h4v4h-4z"/><path fill="#FFF" d="M272 268h4v4h-4z"/><path fill="#88C3D0" d="M276 268h4v4h-4zM280 268h4v4h-4zM284 268h4v4h-4zM288 268h4v4h-4zM292 268h4v4h-4zM296 268h4v4h-4z"/><path fill="#FFF" d="M300 268h4v4h-4z"/><path fill="#BBF3FF" d="M304 268h4v4h-4zM308 268h4v4h-4zM312 268h4v4h-4z"/><path fill="#FFF" d="M316 268h4v4h-4zM144 272h4v4h-4z"/><path fill="#88C3D0" d="M148 272h4v4h-4zM152 272h4v4h-4zM156 272h4v4h-4z"/><path fill="#FFF" d="M160 272h4v4h-4z"/><path fill="#BBF3FF" d="M164 272h4v4h-4zM168 272h4v4h-4zM172 272h4v4h-4zM176 272h4v4h-4zM180 272h4v4h-4zM184 272h4v4h-4zM188 272h4v4h-4zM192 272h4v4h-4zM196 272h4v4h-4z"/><path fill="#FFF" d="M200 272h4v4h-4z"/><path fill="#B55800" d="M252 272h4v4h-4zM256 272h4v4h-4zM260 272h4v4h-4zM264 272h4v4h-4zM268 272h4v4h-4z"/><path fill="#FFF" d="M272 272h4v4h-4z"/><path fill="#88C3D0" d="M276 272h4v4h-4zM280 272h4v4h-4zM284 272h4v4h-4zM288 272h4v4h-4zM292 272h4v4h-4zM296 272h4v4h-4z"/><path fill="#FFF" d="M300 272h4v4h-4z"/><path fill="#BBF3FF" d="M304 272h4v4h-4zM308 272h4v4h-4zM312 272h4v4h-4z"/><path fill="#FFF" d="M316 272h4v4h-4zM144 276h4v4h-4z"/><path fill="#88C3D0" d="M148 276h4v4h-4zM152 276h4v4h-4zM156 276h4v4h-4zM160 276h4v4h-4z"/><path fill="#FFF" d="M164 276h4v4h-4z"/><path fill="#BBF3FF" d="M168 276h4v4h-4zM172 276h4v4h-4zM176 276h4v4h-4zM180 276h4v4h-4zM184 276h4v4h-4zM188 276h4v4h-4zM192 276h4v4h-4zM196 276h4v4h-4z"/><path fill="#FFF" d="M200 276h4v4h-4z"/><path fill="#B55800" d="M252 276h4v4h-4zM256 276h4v4h-4zM260 276h4v4h-4zM264 276h4v4h-4zM268 276h4v4h-4z"/><path fill="#FFF" d="M272 276h4v4h-4z"/><path fill="#88C3D0" d="M276 276h4v4h-4zM280 276h4v4h-4zM284 276h4v4h-4zM288 276h4v4h-4zM292 276h4v4h-4zM296 276h4v4h-4z"/><path fill="#FFF" d="M300 276h4v4h-4z"/><path fill="#BBF3FF" d="M304 276h4v4h-4zM308 276h4v4h-4zM312 276h4v4h-4z"/><path fill="#FFF" d="M316 276h4v4h-4zM144 280h4v4h-4z"/><path fill="#88C3D0" d="M148 280h4v4h-4zM152 280h4v4h-4zM156 280h4v4h-4zM160 280h4v4h-4z"/><path fill="#FFF" d="M164 280h4v4h-4z"/><path fill="#BBF3FF" d="M168 280h4v4h-4zM172 280h4v4h-4zM176 280h4v4h-4zM180 280h4v4h-4zM184 280h4v4h-4zM188 280h4v4h-4zM192 280h4v4h-4zM196 280h4v4h-4z"/><path fill="#FFF" d="M200 280h4v4h-4z"/><path fill="#B55800" d="M256 280h4v4h-4zM260 280h4v4h-4zM264 280h4v4h-4zM268 280h4v4h-4z"/><path fill="#FFF" d="M272 280h4v4h-4z"/><path fill="#88C3D0" d="M276 280h4v4h-4zM280 280h4v4h-4zM284 280h4v4h-4zM288 280h4v4h-4zM292 280h4v4h-4z"/><path fill="#FFF" d="M296 280h4v4h-4z"/><path fill="#BBF3FF" d="M300 280h4v4h-4zM304 280h4v4h-4zM308 280h4v4h-4z"/><path fill="#FFF" d="M312 280h4v4h-4zM148 284h4v4h-4z"/><path fill="#88C3D0" d="M152 284h4v4h-4zM156 284h4v4h-4zM160 284h4v4h-4z"/><path fill="#FFF" d="M164 284h4v4h-4z"/><path fill="#BBF3FF" d="M168 284h4v4h-4zM172 284h4v4h-4zM176 284h4v4h-4zM180 284h4v4h-4zM184 284h4v4h-4zM188 284h4v4h-4zM192 284h4v4h-4zM196 284h4v4h-4z"/><path fill="#FFF" d="M200 284h4v4h-4z"/><path fill="#B55800" d="M260 284h4v4h-4zM264 284h4v4h-4z"/><path fill="#FFF" d="M268 284h4v4h-4z"/><path fill="#88C3D0" d="M272 284h4v4h-4zM276 284h4v4h-4zM280 284h4v4h-4zM284 284h4v4h-4zM288 284h4v4h-4zM292 284h4v4h-4z"/><path fill="#FFF" d="M296 284h4v4h-4z"/><path fill="#BBF3FF" d="M300 284h4v4h-4zM304 284h4v4h-4zM308 284h4v4h-4z"/><path fill="#FFF" d="M312 284h4v4h-4zM148 288h4v4h-4z"/><path fill="#88C3D0" d="M152 288h4v4h-4zM156 288h4v4h-4zM160 288h4v4h-4zM164 288h4v4h-4z"/><path fill="#FFF" d="M168 288h4v4h-4z"/><path fill="#BBF3FF" d="M172 288h4v4h-4zM176 288h4v4h-4zM180 288h4v4h-4zM184 288h4v4h-4zM188 288h4v4h-4zM192 288h4v4h-4zM196 288h4v4h-4z"/><path fill="#FFF" d="M200 288h4v4h-4z"/><path fill="#B55800" d="M264 288h4v4h-4z"/><path fill="#FFF" d="M268 288h4v4h-4z"/><path fill="#88C3D0" d="M272 288h4v4h-4zM276 288h4v4h-4zM280 288h4v4h-4zM284 288h4v4h-4zM288 288h4v4h-4zM292 288h4v4h-4z"/><path fill="#FFF" d="M296 288h4v4h-4z"/><path fill="#BBF3FF" d="M300 288h4v4h-4zM304 288h4v4h-4zM308 288h4v4h-4z"/><path fill="#FFF" d="M312 288h4v4h-4zM148 292h4v4h-4z"/><path fill="#88C3D0" d="M152 292h4v4h-4zM156 292h4v4h-4zM160 292h4v4h-4zM164 292h4v4h-4z"/><path fill="#FFF" d="M168 292h4v4h-4z"/><path fill="#BBF3FF" d="M172 292h4v4h-4zM176 292h4v4h-4zM180 292h4v4h-4zM184 292h4v4h-4zM188 292h4v4h-4zM192 292h4v4h-4zM196 292h4v4h-4zM200 292h4v4h-4z"/><path fill="#FFF" d="M204 292h4v4h-4zM268 292h4v4h-4z"/><path fill="#88C3D0" d="M272 292h4v4h-4zM276 292h4v4h-4zM280 292h4v4h-4zM284 292h4v4h-4zM288 292h4v4h-4zM292 292h4v4h-4z"/><path fill="#FFF" d="M296 292h4v4h-4z"/><path fill="#BBF3FF" d="M300 292h4v4h-4zM304 292h4v4h-4z"/><path fill="#FFF" d="M308 292h4v4h-4zM148 296h4v4h-4z"/><path fill="#88C3D0" d="M152 296h4v4h-4zM156 296h4v4h-4zM160 296h4v4h-4zM164 296h4v4h-4z"/><path fill="#FFF" d="M168 296h4v4h-4z"/><path fill="#BBF3FF" d="M172 296h4v4h-4zM176 296h4v4h-4zM180 296h4v4h-4zM184 296h4v4h-4zM188 296h4v4h-4zM192 296h4v4h-4zM196 296h4v4h-4zM200 296h4v4h-4z"/><path fill="#FFF" d="M204 296h4v4h-4zM268 296h4v4h-4z"/><path fill="#88C3D0" d="M272 296h4v4h-4zM276 296h4v4h-4zM280 296h4v4h-4zM284 296h4v4h-4zM288 296h4v4h-4zM292 296h4v4h-4z"/><path fill="#FFF" d="M296 296h4v4h-4z"/><path fill="#BBF3FF" d="M300 296h4v4h-4zM304 296h4v4h-4z"/><path fill="#FFF" d="M308 296h4v4h-4zM152 300h4v4h-4z"/><path fill="#88C3D0" d="M156 300h4v4h-4zM160 300h4v4h-4zM164 300h4v4h-4z"/><path fill="#FFF" d="M168 300h4v4h-4z"/><path fill="#BBF3FF" d="M172 300h4v4h-4zM176 300h4v4h-4zM180 300h4v4h-4zM184 300h4v4h-4zM188 300h4v4h-4zM192 300h4v4h-4zM196 300h4v4h-4zM200 300h4v4h-4z"/><path fill="#FFF" d="M204 300h4v4h-4zM268 300h4v4h-4z"/><path fill="#88C3D0" d="M272 300h4v4h-4zM276 300h4v4h-4zM280 300h4v4h-4zM284 300h4v4h-4zM288 300h4v4h-4z"/><path fill="#FFF" d="M292 300h4v4h-4z"/><path fill="#BBF3FF" d="M296 300h4v4h-4zM300 300h4v4h-4zM304 300h4v4h-4z"/><path fill="#FFF" d="M308 300h4v4h-4zM152 304h4v4h-4z"/><path fill="#88C3D0" d="M156 304h4v4h-4zM160 304h4v4h-4zM164 304h4v4h-4zM168 304h4v4h-4z"/><path fill="#FFF" d="M172 304h4v4h-4z"/><path fill="#BBF3FF" d="M176 304h4v4h-4zM180 304h4v4h-4zM184 304h4v4h-4zM188 304h4v4h-4zM192 304h4v4h-4zM196 304h4v4h-4zM200 304h4v4h-4z"/><path fill="#FFF" d="M204 304h4v4h-4zM264 304h4v4h-4z"/><path fill="#88C3D0" d="M268 304h4v4h-4zM272 304h4v4h-4zM276 304h4v4h-4zM280 304h4v4h-4zM284 304h4v4h-4zM288 304h4v4h-4z"/><path fill="#FFF" d="M292 304h4v4h-4z"/><path fill="#BBF3FF" d="M296 304h4v4h-4zM300 304h4v4h-4zM304 304h4v4h-4z"/><path fill="#FFF" d="M308 304h4v4h-4zM152 308h4v4h-4z"/><path fill="#88C3D0" d="M156 308h4v4h-4zM160 308h4v4h-4zM164 308h4v4h-4zM168 308h4v4h-4z"/><path fill="#FFF" d="M172 308h4v4h-4z"/><path fill="#BBF3FF" d="M176 308h4v4h-4zM180 308h4v4h-4zM184 308h4v4h-4zM188 308h4v4h-4zM192 308h4v4h-4zM196 308h4v4h-4zM200 308h4v4h-4z"/><path fill="#FFF" d="M204 308h4v4h-4zM264 308h4v4h-4z"/><path fill="#88C3D0" d="M268 308h4v4h-4zM272 308h4v4h-4zM276 308h4v4h-4zM280 308h4v4h-4zM284 308h4v4h-4zM288 308h4v4h-4z"/><path fill="#FFF" d="M292 308h4v4h-4z"/><path fill="#BBF3FF" d="M296 308h4v4h-4zM300 308h4v4h-4z"/><path fill="#FFF" d="M304 308h4v4h-4zM152 312h4v4h-4z"/><path fill="#88C3D0" d="M156 312h4v4h-4zM160 312h4v4h-4zM164 312h4v4h-4zM168 312h4v4h-4z"/><path fill="#FFF" d="M172 312h4v4h-4z"/><path fill="#BBF3FF" d="M176 312h4v4h-4zM180 312h4v4h-4zM184 312h4v4h-4zM188 312h4v4h-4zM192 312h4v4h-4zM196 312h4v4h-4zM200 312h4v4h-4zM204 312h4v4h-4z"/><path fill="#FFF" d="M208 312h4v4h-4zM264 312h4v4h-4z"/><path fill="#88C3D0" d="M268 312h4v4h-4zM272 312h4v4h-4zM276 312h4v4h-4zM280 312h4v4h-4zM284 312h4v4h-4zM288 312h4v4h-4z"/><path fill="#FFF" d="M292 312h4v4h-4z"/><path fill="#BBF3FF" d="M296 312h4v4h-4zM300 312h4v4h-4z"/><path fill="#FFF" d="M304 312h4v4h-4zM156 316h4v4h-4z"/><path fill="#88C3D0" d="M160 316h4v4h-4zM164 316h4v4h-4zM168 316h4v4h-4z"/><path fill="#FFF" d="M172 316h4v4h-4z"/><path fill="#BBF3FF" d="M176 316h4v4h-4zM180 316h4v4h-4zM184 316h4v4h-4zM188 316h4v4h-4zM192 316h4v4h-4zM196 316h4v4h-4zM200 316h4v4h-4zM204 316h4v4h-4z"/><path fill="#FFF" d="M208 316h4v4h-4zM264 316h4v4h-4z"/><path fill="#88C3D0" d="M268 316h4v4h-4zM272 316h4v4h-4zM276 316h4v4h-4zM280 316h4v4h-4zM284 316h4v4h-4zM288 316h4v4h-4z"/><path fill="#FFF" d="M292 316h4v4h-4z"/><path fill="#BBF3FF" d="M296 316h4v4h-4zM300 316h4v4h-4z"/><path fill="#FFF" d="M304 316h4v4h-4zM156 320h4v4h-4z"/><path fill="#88C3D0" d="M160 320h4v4h-4zM164 320h4v4h-4zM168 320h4v4h-4zM172 320h4v4h-4z"/><path fill="#FFF" d="M176 320h4v4h-4z"/><path fill="#BBF3FF" d="M180 320h4v4h-4zM184 320h4v4h-4zM188 320h4v4h-4zM192 320h4v4h-4zM196 320h4v4h-4zM200 320h4v4h-4zM204 320h4v4h-4z"/><path fill="#FFF" d="M208 320h4v4h-4zM264 320h4v4h-4z"/><path fill="#88C3D0" d="M268 320h4v4h-4zM272 320h4v4h-4zM276 320h4v4h-4zM280 320h4v4h-4zM284 320h4v4h-4zM288 320h4v4h-4z"/><path fill="#FFF" d="M292 320h4v4h-4z"/><path fill="#BBF3FF" d="M296 320h4v4h-4zM300 320h4v4h-4z"/><path fill="#FFF" d="M304 320h4v4h-4zM156 324h4v4h-4z"/><path fill="#88C3D0" d="M160 324h4v4h-4zM164 324h4v4h-4zM168 324h4v4h-4zM172 324h4v4h-4z"/><path fill="#FFF" d="M176 324h4v4h-4z"/><path fill="#BBF3FF" d="M180 324h4v4h-4zM184 324h4v4h-4zM188 324h4v4h-4zM192 324h4v4h-4zM196 324h4v4h-4zM200 324h4v4h-4zM204 324h4v4h-4z"/><path fill="#FFF" d="M208 324h4v4h-4zM268 324h4v4h-4z"/><path fill="#88C3D0" d="M272 324h4v4h-4zM276 324h4v4h-4zM280 324h4v4h-4zM284 324h4v4h-4z"/><path fill="#FFF" d="M288 324h4v4h-4z"/><path fill="#BBF3FF" d="M292 324h4v4h-4zM296 324h4v4h-4z"/><path fill="#FFF" d="M300 324h4v4h-4zM156 328h4v4h-4z"/><path fill="#88C3D0" d="M160 328h4v4h-4zM164 328h4v4h-4zM168 328h4v4h-4zM172 328h4v4h-4z"/><path fill="#FFF" d="M176 328h4v4h-4z"/><path fill="#BBF3FF" d="M180 328h4v4h-4zM184 328h4v4h-4zM188 328h4v4h-4zM192 328h4v4h-4zM196 328h4v4h-4zM200 328h4v4h-4zM204 328h4v4h-4z"/><path fill="#FFF" d="M208 328h4v4h-4zM272 328h4v4h-4z"/><path fill="#88C3D0" d="M276 328h4v4h-4zM280 328h4v4h-4zM284 328h4v4h-4z"/><path fill="#FFF" d="M288 328h4v4h-4z"/><path fill="#BBF3FF" d="M292 328h4v4h-4zM296 328h4v4h-4z"/><path fill="#FFF" d="M300 328h4v4h-4zM160 332h4v4h-4z"/><path fill="#88C3D0" d="M164 332h4v4h-4zM168 332h4v4h-4zM172 332h4v4h-4z"/><path fill="#FFF" d="M176 332h4v4h-4z"/><path fill="#BBF3FF" d="M180 332h4v4h-4zM184 332h4v4h-4zM188 332h4v4h-4zM192 332h4v4h-4zM196 332h4v4h-4zM200 332h4v4h-4zM204 332h4v4h-4z"/><path fill="#FFF" d="M208 332h4v4h-4zM276 332h4v4h-4zM280 332h4v4h-4z"/><path fill="#88C3D0" d="M284 332h4v4h-4z"/><path fill="#FFF" d="M288 332h4v4h-4z"/><path fill="#BBF3FF" d="M292 332h4v4h-4z"/><path fill="#FFF" d="M296 332h4v4h-4zM160 336h4v4h-4z"/><path fill="#88C3D0" d="M164 336h4v4h-4zM168 336h4v4h-4zM172 336h4v4h-4zM176 336h4v4h-4z"/><path fill="#FFF" d="M180 336h4v4h-4z"/><path fill="#BBF3FF" d="M184 336h4v4h-4zM188 336h4v4h-4zM192 336h4v4h-4zM196 336h4v4h-4zM200 336h4v4h-4zM204 336h4v4h-4zM208 336h4v4h-4z"/><path fill="#FFF" d="M212 336h4v4h-4zM284 336h4v4h-4zM288 336h4v4h-4zM292 336h4v4h-4zM164 340h4v4h-4z"/><path fill="#88C3D0" d="M168 340h4v4h-4zM172 340h4v4h-4zM176 340h4v4h-4z"/><path fill="#FFF" d="M180 340h4v4h-4z"/><path fill="#BBF3FF" d="M184 340h4v4h-4zM188 340h4v4h-4zM192 340h4v4h-4zM196 340h4v4h-4zM200 340h4v4h-4zM204 340h4v4h-4zM208 340h4v4h-4z"/><path fill="#FFF" d="M212 340h4v4h-4zM164 344h4v4h-4z"/><path fill="#88C3D0" d="M168 344h4v4h-4zM172 344h4v4h-4zM176 344h4v4h-4z"/><path fill="#FFF" d="M180 344h4v4h-4z"/><path fill="#BBF3FF" d="M184 344h4v4h-4zM188 344h4v4h-4zM192 344h4v4h-4zM196 344h4v4h-4zM200 344h4v4h-4zM204 344h4v4h-4z"/><path fill="#FFF" d="M208 344h4v4h-4zM168 348h4v4h-4z"/><path fill="#88C3D0" d="M172 348h4v4h-4zM176 348h4v4h-4z"/><path fill="#FFF" d="M180 348h4v4h-4z"/><path fill="#BBF3FF" d="M184 348h4v4h-4zM188 348h4v4h-4zM192 348h4v4h-4zM196 348h4v4h-4z"/><path fill="#FFF" d="M200 348h4v4h-4zM204 348h4v4h-4zM168 352h4v4h-4z"/><path fill="#88C3D0" d="M172 352h4v4h-4zM176 352h4v4h-4zM180 352h4v4h-4z"/><path fill="#FFF" d="M184 352h4v4h-4z"/><path fill="#BBF3FF" d="M188 352h4v4h-4z"/><path fill="#FFF" d="M192 352h4v4h-4zM196 352h4v4h-4zM172 356h4v4h-4z"/><path fill="#88C3D0" d="M176 356h4v4h-4zM180 356h4v4h-4z"/><path fill="#FFF" d="M184 356h4v4h-4zM188 356h4v4h-4zM176 360h4v4h-4zM180 360h4v4h-4z"/></svg>