<?xml version="1.0" encoding="UTF-8" ?>
<svg version="1.1" width="384" height="384" xmlns="http://www.w3.org/2000/svg" shape-rendering="crispEdges">
<rect x="160" y="252" width="4" height="4" fill="#496277" />
<rect x="164" y="252" width="4" height="4" fill="#496277" />
<rect x="168" y="252" width="4" height="4" fill="#496277" />
<rect x="268" y="252" width="4" height="4" fill="#496277" />
<rect x="272" y="252" width="4" height="4" fill="#496277" />
<rect x="276" y="252" width="4" height="4" fill="#496277" />
<rect x="156" y="256" width="4" height="4" fill="#496277" />
<rect x="160" y="256" width="4" height="4" fill="#7CA4C5" />
<rect x="164" y="256" width="4" height="4" fill="#496277" />
<rect x="168" y="256" width="4" height="4" fill="#7CA4C5" />
<rect x="172" y="256" width="4" height="4" fill="#496277" />
<rect x="180" y="256" width="4" height="4" fill="#496277" />
<rect x="184" y="256" width="4" height="4" fill="#496277" />
<rect x="264" y="256" width="4" height="4" fill="#496277" />
<rect x="268" y="256" width="4" height="4" fill="#7CA4C5" />
<rect x="272" y="256" width="4" height="4" fill="#496277" />
<rect x="276" y="256" width="4" height="4" fill="#7CA4C5" />
<rect x="280" y="256" width="4" height="4" fill="#496277" />
<rect x="156" y="260" width="4" height="4" fill="#496277" />
<rect x="160" y="260" width="4" height="4" fill="#7CA4C5" />
<rect x="164" y="260" width="4" height="4" fill="#496277" />
<rect x="168" y="260" width="4" height="4" fill="#7CA4C5" />
<rect x="172" y="260" width="4" height="4" fill="#496277" />
<rect x="176" y="260" width="4" height="4" fill="#496277" />
<rect x="180" y="260" width="4" height="4" fill="#7CA4C5" />
<rect x="184" y="260" width="4" height="4" fill="#D6F5FF" />
<rect x="188" y="260" width="4" height="4" fill="#496277" />
<rect x="192" y="260" width="4" height="4" fill="#496277" />
<rect x="196" y="260" width="4" height="4" fill="#496277" />
<rect x="264" y="260" width="4" height="4" fill="#496277" />
<rect x="268" y="260" width="4" height="4" fill="#7CA4C5" />
<rect x="272" y="260" width="4" height="4" fill="#496277" />
<rect x="276" y="260" width="4" height="4" fill="#7CA4C5" />
<rect x="280" y="260" width="4" height="4" fill="#496277" />
<rect x="284" y="260" width="4" height="4" fill="#496277" />
<rect x="152" y="264" width="4" height="4" fill="#496277" />
<rect x="156" y="264" width="4" height="4" fill="#496277" />
<rect x="160" y="264" width="4" height="4" fill="#7CA4C5" />
<rect x="164" y="264" width="4" height="4" fill="#496277" />
<rect x="168" y="264" width="4" height="4" fill="#7CA4C5" />
<rect x="172" y="264" width="4" height="4" fill="#496277" />
<rect x="176" y="264" width="4" height="4" fill="#7CA4C5" />
<rect x="180" y="264" width="4" height="4" fill="#7CA4C5" />
<rect x="184" y="264" width="4" height="4" fill="#D6F5FF" />
<rect x="188" y="264" width="4" height="4" fill="#D6F5FF" />
<rect x="192" y="264" width="4" height="4" fill="#7CA4C5" />
<rect x="196" y="264" width="4" height="4" fill="#7CA4C5" />
<rect x="200" y="264" width="4" height="4" fill="#496277" />
<rect x="256" y="264" width="4" height="4" fill="#496277" />
<rect x="260" y="264" width="4" height="4" fill="#496277" />
<rect x="264" y="264" width="4" height="4" fill="#496277" />
<rect x="268" y="264" width="4" height="4" fill="#7CA4C5" />
<rect x="272" y="264" width="4" height="4" fill="#496277" />
<rect x="276" y="264" width="4" height="4" fill="#7CA4C5" />
<rect x="280" y="264" width="4" height="4" fill="#496277" />
<rect x="284" y="264" width="4" height="4" fill="#D6F5FF" />
<rect x="288" y="264" width="4" height="4" fill="#496277" />
<rect x="292" y="264" width="4" height="4" fill="#496277" />
<rect x="148" y="268" width="4" height="4" fill="#496277" />
<rect x="152" y="268" width="4" height="4" fill="#7CA4C5" />
<rect x="156" y="268" width="4" height="4" fill="#7CA4C5" />
<rect x="160" y="268" width="4" height="4" fill="#496277" />
<rect x="164" y="268" width="4" height="4" fill="#496277" />
<rect x="168" y="268" width="4" height="4" fill="#496277" />
<rect x="172" y="268" width="4" height="4" fill="#496277" />
<rect x="176" y="268" width="4" height="4" fill="#7CA4C5" />
<rect x="180" y="268" width="4" height="4" fill="#7CA4C5" />
<rect x="184" y="268" width="4" height="4" fill="#D6F5FF" />
<rect x="188" y="268" width="4" height="4" fill="#D6F5FF" />
<rect x="192" y="268" width="4" height="4" fill="#D6F5FF" />
<rect x="196" y="268" width="4" height="4" fill="#7CA4C5" />
<rect x="200" y="268" width="4" height="4" fill="#496277" />
<rect x="252" y="268" width="4" height="4" fill="#496277" />
<rect x="256" y="268" width="4" height="4" fill="#7CA4C5" />
<rect x="260" y="268" width="4" height="4" fill="#D6F5FF" />
<rect x="264" y="268" width="4" height="4" fill="#7CA4C5" />
<rect x="268" y="268" width="4" height="4" fill="#496277" />
<rect x="272" y="268" width="4" height="4" fill="#496277" />
<rect x="276" y="268" width="4" height="4" fill="#496277" />
<rect x="280" y="268" width="4" height="4" fill="#7CA4C5" />
<rect x="284" y="268" width="4" height="4" fill="#D6F5FF" />
<rect x="288" y="268" width="4" height="4" fill="#D6F5FF" />
<rect x="292" y="268" width="4" height="4" fill="#7CA4C5" />
<rect x="296" y="268" width="4" height="4" fill="#496277" />
<rect x="148" y="272" width="4" height="4" fill="#496277" />
<rect x="152" y="272" width="4" height="4" fill="#7CA4C5" />
<rect x="156" y="272" width="4" height="4" fill="#7CA4C5" />
<rect x="160" y="272" width="4" height="4" fill="#D6F5FF" />
<rect x="164" y="272" width="4" height="4" fill="#D6F5FF" />
<rect x="168" y="272" width="4" height="4" fill="#496277" />
<rect x="172" y="272" width="4" height="4" fill="#496277" />
<rect x="176" y="272" width="4" height="4" fill="#7CA4C5" />
<rect x="180" y="272" width="4" height="4" fill="#7CA4C5" />
<rect x="184" y="272" width="4" height="4" fill="#D6F5FF" />
<rect x="188" y="272" width="4" height="4" fill="#D6F5FF" />
<rect x="192" y="272" width="4" height="4" fill="#D6F5FF" />
<rect x="196" y="272" width="4" height="4" fill="#7CA4C5" />
<rect x="200" y="272" width="4" height="4" fill="#D6F5FF" />
<rect x="204" y="272" width="4" height="4" fill="#496277" />
<rect x="248" y="272" width="4" height="4" fill="#496277" />
<rect x="252" y="272" width="4" height="4" fill="#7CA4C5" />
<rect x="256" y="272" width="4" height="4" fill="#7CA4C5" />
<rect x="260" y="272" width="4" height="4" fill="#D6F5FF" />
<rect x="264" y="272" width="4" height="4" fill="#7CA4C5" />
<rect x="268" y="272" width="4" height="4" fill="#7CA4C5" />
<rect x="272" y="272" width="4" height="4" fill="#496277" />
<rect x="276" y="272" width="4" height="4" fill="#496277" />
<rect x="280" y="272" width="4" height="4" fill="#7CA4C5" />
<rect x="284" y="272" width="4" height="4" fill="#D6F5FF" />
<rect x="288" y="272" width="4" height="4" fill="#D6F5FF" />
<rect x="292" y="272" width="4" height="4" fill="#7CA4C5" />
<rect x="296" y="272" width="4" height="4" fill="#D6F5FF" />
<rect x="300" y="272" width="4" height="4" fill="#496277" />
<rect x="144" y="276" width="4" height="4" fill="#496277" />
<rect x="148" y="276" width="4" height="4" fill="#496277" />
<rect x="152" y="276" width="4" height="4" fill="#7CA4C5" />
<rect x="156" y="276" width="4" height="4" fill="#7CA4C5" />
<rect x="160" y="276" width="4" height="4" fill="#D6F5FF" />
<rect x="164" y="276" width="4" height="4" fill="#D6F5FF" />
<rect x="168" y="276" width="4" height="4" fill="#496277" />
<rect x="176" y="276" width="4" height="4" fill="#496277" />
<rect x="180" y="276" width="4" height="4" fill="#7CA4C5" />
<rect x="184" y="276" width="4" height="4" fill="#D6F5FF" />
<rect x="188" y="276" width="4" height="4" fill="#D6F5FF" />
<rect x="192" y="276" width="4" height="4" fill="#D6F5FF" />
<rect x="196" y="276" width="4" height="4" fill="#7CA4C5" />
<rect x="200" y="276" width="4" height="4" fill="#D6F5FF" />
<rect x="204" y="276" width="4" height="4" fill="#496277" />
<rect x="244" y="276" width="4" height="4" fill="#496277" />
<rect x="248" y="276" width="4" height="4" fill="#7CA4C5" />
<rect x="252" y="276" width="4" height="4" fill="#7CA4C5" />
<rect x="256" y="276" width="4" height="4" fill="#D6F5FF" />
<rect x="260" y="276" width="4" height="4" fill="#D6F5FF" />
<rect x="264" y="276" width="4" height="4" fill="#7CA4C5" />
<rect x="268" y="276" width="4" height="4" fill="#7CA4C5" />
<rect x="272" y="276" width="4" height="4" fill="#496277" />
<rect x="276" y="276" width="4" height="4" fill="#496277" />
<rect x="280" y="276" width="4" height="4" fill="#7CA4C5" />
<rect x="284" y="276" width="4" height="4" fill="#D6F5FF" />
<rect x="288" y="276" width="4" height="4" fill="#D6F5FF" />
<rect x="292" y="276" width="4" height="4" fill="#7CA4C5" />
<rect x="296" y="276" width="4" height="4" fill="#D6F5FF" />
<rect x="300" y="276" width="4" height="4" fill="#496277" />
<rect x="144" y="280" width="4" height="4" fill="#496277" />
<rect x="148" y="280" width="4" height="4" fill="#7CA4C5" />
<rect x="152" y="280" width="4" height="4" fill="#7CA4C5" />
<rect x="156" y="280" width="4" height="4" fill="#7CA4C5" />
<rect x="160" y="280" width="4" height="4" fill="#D6F5FF" />
<rect x="164" y="280" width="4" height="4" fill="#D6F5FF" />
<rect x="168" y="280" width="4" height="4" fill="#496277" />
<rect x="180" y="280" width="4" height="4" fill="#496277" />
<rect x="184" y="280" width="4" height="4" fill="#D6F5FF" />
<rect x="188" y="280" width="4" height="4" fill="#D6F5FF" />
<rect x="192" y="280" width="4" height="4" fill="#D6F5FF" />
<rect x="196" y="280" width="4" height="4" fill="#7CA4C5" />
<rect x="200" y="280" width="4" height="4" fill="#D6F5FF" />
<rect x="204" y="280" width="4" height="4" fill="#D6F5FF" />
<rect x="208" y="280" width="4" height="4" fill="#496277" />
<rect x="244" y="280" width="4" height="4" fill="#496277" />
<rect x="248" y="280" width="4" height="4" fill="#7CA4C5" />
<rect x="252" y="280" width="4" height="4" fill="#7CA4C5" />
<rect x="256" y="280" width="4" height="4" fill="#D6F5FF" />
<rect x="260" y="280" width="4" height="4" fill="#D6F5FF" />
<rect x="264" y="280" width="4" height="4" fill="#7CA4C5" />
<rect x="268" y="280" width="4" height="4" fill="#496277" />
<rect x="280" y="280" width="4" height="4" fill="#496277" />
<rect x="284" y="280" width="4" height="4" fill="#D6F5FF" />
<rect x="288" y="280" width="4" height="4" fill="#D6F5FF" />
<rect x="292" y="280" width="4" height="4" fill="#7CA4C5" />
<rect x="296" y="280" width="4" height="4" fill="#D6F5FF" />
<rect x="300" y="280" width="4" height="4" fill="#7CA4C5" />
<rect x="144" y="284" width="4" height="4" fill="#496277" />
<rect x="148" y="284" width="4" height="4" fill="#7CA4C5" />
<rect x="152" y="284" width="4" height="4" fill="#7CA4C5" />
<rect x="156" y="284" width="4" height="4" fill="#7CA4C5" />
<rect x="160" y="284" width="4" height="4" fill="#D6F5FF" />
<rect x="164" y="284" width="4" height="4" fill="#D6F5FF" />
<rect x="168" y="284" width="4" height="4" fill="#496277" />
<rect x="184" y="284" width="4" height="4" fill="#496277" />
<rect x="188" y="284" width="4" height="4" fill="#D6F5FF" />
<rect x="192" y="284" width="4" height="4" fill="#D6F5FF" />
<rect x="196" y="284" width="4" height="4" fill="#7CA4C5" />
<rect x="200" y="284" width="4" height="4" fill="#D6F5FF" />
<rect x="204" y="284" width="4" height="4" fill="#D6F5FF" />
<rect x="208" y="284" width="4" height="4" fill="#7CA4C5" />
<rect x="212" y="284" width="4" height="4" fill="#496277" />
<rect x="244" y="284" width="4" height="4" fill="#496277" />
<rect x="248" y="284" width="4" height="4" fill="#7CA4C5" />
<rect x="252" y="284" width="4" height="4" fill="#7CA4C5" />
<rect x="256" y="284" width="4" height="4" fill="#D6F5FF" />
<rect x="260" y="284" width="4" height="4" fill="#D6F5FF" />
<rect x="264" y="284" width="4" height="4" fill="#7CA4C5" />
<rect x="268" y="284" width="4" height="4" fill="#496277" />
<rect x="280" y="284" width="4" height="4" fill="#496277" />
<rect x="284" y="284" width="4" height="4" fill="#D6F5FF" />
<rect x="288" y="284" width="4" height="4" fill="#D6F5FF" />
<rect x="292" y="284" width="4" height="4" fill="#7CA4C5" />
<rect x="296" y="284" width="4" height="4" fill="#D6F5FF" />
<rect x="300" y="284" width="4" height="4" fill="#7CA4C5" />
<rect x="304" y="284" width="4" height="4" fill="#496277" />
<rect x="144" y="288" width="4" height="4" fill="#496277" />
<rect x="148" y="288" width="4" height="4" fill="#7CA4C5" />
<rect x="152" y="288" width="4" height="4" fill="#7CA4C5" />
<rect x="156" y="288" width="4" height="4" fill="#7CA4C5" />
<rect x="160" y="288" width="4" height="4" fill="#D6F5FF" />
<rect x="164" y="288" width="4" height="4" fill="#D6F5FF" />
<rect x="168" y="288" width="4" height="4" fill="#7CA4C5" />
<rect x="172" y="288" width="4" height="4" fill="#496277" />
<rect x="188" y="288" width="4" height="4" fill="#496277" />
<rect x="192" y="288" width="4" height="4" fill="#D6F5FF" />
<rect x="196" y="288" width="4" height="4" fill="#7CA4C5" />
<rect x="200" y="288" width="4" height="4" fill="#D6F5FF" />
<rect x="204" y="288" width="4" height="4" fill="#D6F5FF" />
<rect x="208" y="288" width="4" height="4" fill="#7CA4C5" />
<rect x="212" y="288" width="4" height="4" fill="#496277" />
<rect x="240" y="288" width="4" height="4" fill="#496277" />
<rect x="244" y="288" width="4" height="4" fill="#7CA4C5" />
<rect x="248" y="288" width="4" height="4" fill="#7CA4C5" />
<rect x="252" y="288" width="4" height="4" fill="#7CA4C5" />
<rect x="256" y="288" width="4" height="4" fill="#D6F5FF" />
<rect x="260" y="288" width="4" height="4" fill="#D6F5FF" />
<rect x="264" y="288" width="4" height="4" fill="#7CA4C5" />
<rect x="268" y="288" width="4" height="4" fill="#496277" />
<rect x="280" y="288" width="4" height="4" fill="#496277" />
<rect x="284" y="288" width="4" height="4" fill="#496277" />
<rect x="288" y="288" width="4" height="4" fill="#D6F5FF" />
<rect x="292" y="288" width="4" height="4" fill="#7CA4C5" />
<rect x="296" y="288" width="4" height="4" fill="#D6F5FF" />
<rect x="300" y="288" width="4" height="4" fill="#7CA4C5" />
<rect x="304" y="288" width="4" height="4" fill="#496277" />
<rect x="144" y="292" width="4" height="4" fill="#496277" />
<rect x="148" y="292" width="4" height="4" fill="#7CA4C5" />
<rect x="152" y="292" width="4" height="4" fill="#7CA4C5" />
<rect x="156" y="292" width="4" height="4" fill="#7CA4C5" />
<rect x="160" y="292" width="4" height="4" fill="#D6F5FF" />
<rect x="164" y="292" width="4" height="4" fill="#D6F5FF" />
<rect x="168" y="292" width="4" height="4" fill="#7CA4C5" />
<rect x="172" y="292" width="4" height="4" fill="#496277" />
<rect x="192" y="292" width="4" height="4" fill="#496277" />
<rect x="196" y="292" width="4" height="4" fill="#7CA4C5" />
<rect x="200" y="292" width="4" height="4" fill="#D6F5FF" />
<rect x="204" y="292" width="4" height="4" fill="#D6F5FF" />
<rect x="208" y="292" width="4" height="4" fill="#7CA4C5" />
<rect x="212" y="292" width="4" height="4" fill="#7CA4C5" />
<rect x="216" y="292" width="4" height="4" fill="#496277" />
<rect x="240" y="292" width="4" height="4" fill="#496277" />
<rect x="244" y="292" width="4" height="4" fill="#7CA4C5" />
<rect x="248" y="292" width="4" height="4" fill="#7CA4C5" />
<rect x="252" y="292" width="4" height="4" fill="#7CA4C5" />
<rect x="256" y="292" width="4" height="4" fill="#D6F5FF" />
<rect x="260" y="292" width="4" height="4" fill="#D6F5FF" />
<rect x="264" y="292" width="4" height="4" fill="#496277" />
<rect x="284" y="292" width="4" height="4" fill="#496277" />
<rect x="288" y="292" width="4" height="4" fill="#D6F5FF" />
<rect x="292" y="292" width="4" height="4" fill="#7CA4C5" />
<rect x="296" y="292" width="4" height="4" fill="#D6F5FF" />
<rect x="300" y="292" width="4" height="4" fill="#7CA4C5" />
<rect x="304" y="292" width="4" height="4" fill="#7CA4C5" />
<rect x="308" y="292" width="4" height="4" fill="#496277" />
<rect x="144" y="296" width="4" height="4" fill="#496277" />
<rect x="148" y="296" width="4" height="4" fill="#7CA4C5" />
<rect x="152" y="296" width="4" height="4" fill="#7CA4C5" />
<rect x="156" y="296" width="4" height="4" fill="#7CA4C5" />
<rect x="160" y="296" width="4" height="4" fill="#D6F5FF" />
<rect x="164" y="296" width="4" height="4" fill="#D6F5FF" />
<rect x="168" y="296" width="4" height="4" fill="#7CA4C5" />
<rect x="172" y="296" width="4" height="4" fill="#496277" />
<rect x="196" y="296" width="4" height="4" fill="#496277" />
<rect x="200" y="296" width="4" height="4" fill="#D6F5FF" />
<rect x="204" y="296" width="4" height="4" fill="#D6F5FF" />
<rect x="208" y="296" width="4" height="4" fill="#7CA4C5" />
<rect x="212" y="296" width="4" height="4" fill="#7CA4C5" />
<rect x="216" y="296" width="4" height="4" fill="#496277" />
<rect x="240" y="296" width="4" height="4" fill="#496277" />
<rect x="244" y="296" width="4" height="4" fill="#7CA4C5" />
<rect x="248" y="296" width="4" height="4" fill="#7CA4C5" />
<rect x="252" y="296" width="4" height="4" fill="#7CA4C5" />
<rect x="256" y="296" width="4" height="4" fill="#D6F5FF" />
<rect x="260" y="296" width="4" height="4" fill="#D6F5FF" />
<rect x="264" y="296" width="4" height="4" fill="#496277" />
<rect x="284" y="296" width="4" height="4" fill="#496277" />
<rect x="288" y="296" width="4" height="4" fill="#D6F5FF" />
<rect x="292" y="296" width="4" height="4" fill="#7CA4C5" />
<rect x="296" y="296" width="4" height="4" fill="#D6F5FF" />
<rect x="300" y="296" width="4" height="4" fill="#7CA4C5" />
<rect x="304" y="296" width="4" height="4" fill="#7CA4C5" />
<rect x="308" y="296" width="4" height="4" fill="#496277" />
<rect x="144" y="300" width="4" height="4" fill="#496277" />
<rect x="148" y="300" width="4" height="4" fill="#7CA4C5" />
<rect x="152" y="300" width="4" height="4" fill="#7CA4C5" />
<rect x="156" y="300" width="4" height="4" fill="#7CA4C5" />
<rect x="160" y="300" width="4" height="4" fill="#D6F5FF" />
<rect x="164" y="300" width="4" height="4" fill="#D6F5FF" />
<rect x="168" y="300" width="4" height="4" fill="#7CA4C5" />
<rect x="172" y="300" width="4" height="4" fill="#496277" />
<rect x="200" y="300" width="4" height="4" fill="#496277" />
<rect x="204" y="300" width="4" height="4" fill="#D6F5FF" />
<rect x="208" y="300" width="4" height="4" fill="#7CA4C5" />
<rect x="212" y="300" width="4" height="4" fill="#7CA4C5" />
<rect x="216" y="300" width="4" height="4" fill="#7CA4C5" />
<rect x="220" y="300" width="4" height="4" fill="#496277" />
<rect x="240" y="300" width="4" height="4" fill="#496277" />
<rect x="244" y="300" width="4" height="4" fill="#7CA4C5" />
<rect x="248" y="300" width="4" height="4" fill="#7CA4C5" />
<rect x="252" y="300" width="4" height="4" fill="#7CA4C5" />
<rect x="256" y="300" width="4" height="4" fill="#D6F5FF" />
<rect x="260" y="300" width="4" height="4" fill="#D6F5FF" />
<rect x="264" y="300" width="4" height="4" fill="#496277" />
<rect x="288" y="300" width="4" height="4" fill="#496277" />
<rect x="292" y="300" width="4" height="4" fill="#7CA4C5" />
<rect x="296" y="300" width="4" height="4" fill="#D6F5FF" />
<rect x="300" y="300" width="4" height="4" fill="#7CA4C5" />
<rect x="304" y="300" width="4" height="4" fill="#7CA4C5" />
<rect x="308" y="300" width="4" height="4" fill="#496277" />
<rect x="144" y="304" width="4" height="4" fill="#496277" />
<rect x="148" y="304" width="4" height="4" fill="#7CA4C5" />
<rect x="152" y="304" width="4" height="4" fill="#7CA4C5" />
<rect x="156" y="304" width="4" height="4" fill="#7CA4C5" />
<rect x="160" y="304" width="4" height="4" fill="#D6F5FF" />
<rect x="164" y="304" width="4" height="4" fill="#D6F5FF" />
<rect x="168" y="304" width="4" height="4" fill="#7CA4C5" />
<rect x="172" y="304" width="4" height="4" fill="#496277" />
<rect x="204" y="304" width="4" height="4" fill="#496277" />
<rect x="208" y="304" width="4" height="4" fill="#7CA4C5" />
<rect x="212" y="304" width="4" height="4" fill="#7CA4C5" />
<rect x="216" y="304" width="4" height="4" fill="#7CA4C5" />
<rect x="220" y="304" width="4" height="4" fill="#496277" />
<rect x="240" y="304" width="4" height="4" fill="#496277" />
<rect x="244" y="304" width="4" height="4" fill="#7CA4C5" />
<rect x="248" y="304" width="4" height="4" fill="#7CA4C5" />
<rect x="252" y="304" width="4" height="4" fill="#7CA4C5" />
<rect x="256" y="304" width="4" height="4" fill="#D6F5FF" />
<rect x="260" y="304" width="4" height="4" fill="#496277" />
<rect x="288" y="304" width="4" height="4" fill="#496277" />
<rect x="292" y="304" width="4" height="4" fill="#7CA4C5" />
<rect x="296" y="304" width="4" height="4" fill="#D6F5FF" />
<rect x="300" y="304" width="4" height="4" fill="#7CA4C5" />
<rect x="304" y="304" width="4" height="4" fill="#7CA4C5" />
<rect x="308" y="304" width="4" height="4" fill="#496277" />
<rect x="148" y="308" width="4" height="4" fill="#496277" />
<rect x="152" y="308" width="4" height="4" fill="#7CA4C5" />
<rect x="156" y="308" width="4" height="4" fill="#7CA4C5" />
<rect x="160" y="308" width="4" height="4" fill="#D6F5FF" />
<rect x="164" y="308" width="4" height="4" fill="#D6F5FF" />
<rect x="168" y="308" width="4" height="4" fill="#7CA4C5" />
<rect x="172" y="308" width="4" height="4" fill="#496277" />
<rect x="208" y="308" width="4" height="4" fill="#496277" />
<rect x="212" y="308" width="4" height="4" fill="#7CA4C5" />
<rect x="216" y="308" width="4" height="4" fill="#7CA4C5" />
<rect x="220" y="308" width="4" height="4" fill="#496277" />
<rect x="244" y="308" width="4" height="4" fill="#496277" />
<rect x="248" y="308" width="4" height="4" fill="#7CA4C5" />
<rect x="252" y="308" width="4" height="4" fill="#7CA4C5" />
<rect x="256" y="308" width="4" height="4" fill="#D6F5FF" />
<rect x="260" y="308" width="4" height="4" fill="#496277" />
<rect x="288" y="308" width="4" height="4" fill="#496277" />
<rect x="292" y="308" width="4" height="4" fill="#7CA4C5" />
<rect x="296" y="308" width="4" height="4" fill="#D6F5FF" />
<rect x="300" y="308" width="4" height="4" fill="#7CA4C5" />
<rect x="304" y="308" width="4" height="4" fill="#7CA4C5" />
<rect x="308" y="308" width="4" height="4" fill="#496277" />
<rect x="148" y="312" width="4" height="4" fill="#496277" />
<rect x="152" y="312" width="4" height="4" fill="#7CA4C5" />
<rect x="156" y="312" width="4" height="4" fill="#7CA4C5" />
<rect x="160" y="312" width="4" height="4" fill="#D6F5FF" />
<rect x="164" y="312" width="4" height="4" fill="#D6F5FF" />
<rect x="168" y="312" width="4" height="4" fill="#7CA4C5" />
<rect x="172" y="312" width="4" height="4" fill="#D6F5FF" />
<rect x="176" y="312" width="4" height="4" fill="#496277" />
<rect x="212" y="312" width="4" height="4" fill="#496277" />
<rect x="216" y="312" width="4" height="4" fill="#7CA4C5" />
<rect x="220" y="312" width="4" height="4" fill="#496277" />
<rect x="244" y="312" width="4" height="4" fill="#496277" />
<rect x="248" y="312" width="4" height="4" fill="#7CA4C5" />
<rect x="252" y="312" width="4" height="4" fill="#7CA4C5" />
<rect x="256" y="312" width="4" height="4" fill="#496277" />
<rect x="292" y="312" width="4" height="4" fill="#496277" />
<rect x="296" y="312" width="4" height="4" fill="#D6F5FF" />
<rect x="300" y="312" width="4" height="4" fill="#7CA4C5" />
<rect x="304" y="312" width="4" height="4" fill="#7CA4C5" />
<rect x="308" y="312" width="4" height="4" fill="#496277" />
<rect x="152" y="316" width="4" height="4" fill="#496277" />
<rect x="156" y="316" width="4" height="4" fill="#7CA4C5" />
<rect x="160" y="316" width="4" height="4" fill="#D6F5FF" />
<rect x="164" y="316" width="4" height="4" fill="#D6F5FF" />
<rect x="168" y="316" width="4" height="4" fill="#7CA4C5" />
<rect x="172" y="316" width="4" height="4" fill="#D6F5FF" />
<rect x="176" y="316" width="4" height="4" fill="#496277" />
<rect x="216" y="316" width="4" height="4" fill="#496277" />
<rect x="220" y="316" width="4" height="4" fill="#496277" />
<rect x="244" y="316" width="4" height="4" fill="#496277" />
<rect x="248" y="316" width="4" height="4" fill="#7CA4C5" />
<rect x="252" y="316" width="4" height="4" fill="#7CA4C5" />
<rect x="256" y="316" width="4" height="4" fill="#496277" />
<rect x="292" y="316" width="4" height="4" fill="#496277" />
<rect x="296" y="316" width="4" height="4" fill="#D6F5FF" />
<rect x="300" y="316" width="4" height="4" fill="#7CA4C5" />
<rect x="304" y="316" width="4" height="4" fill="#7CA4C5" />
<rect x="308" y="316" width="4" height="4" fill="#496277" />
<rect x="152" y="320" width="4" height="4" fill="#496277" />
<rect x="156" y="320" width="4" height="4" fill="#7CA4C5" />
<rect x="160" y="320" width="4" height="4" fill="#D6F5FF" />
<rect x="164" y="320" width="4" height="4" fill="#D6F5FF" />
<rect x="168" y="320" width="4" height="4" fill="#7CA4C5" />
<rect x="172" y="320" width="4" height="4" fill="#D6F5FF" />
<rect x="176" y="320" width="4" height="4" fill="#496277" />
<rect x="220" y="320" width="4" height="4" fill="#496277" />
<rect x="248" y="320" width="4" height="4" fill="#496277" />
<rect x="252" y="320" width="4" height="4" fill="#7CA4C5" />
<rect x="256" y="320" width="4" height="4" fill="#496277" />
<rect x="296" y="320" width="4" height="4" fill="#496277" />
<rect x="300" y="320" width="4" height="4" fill="#7CA4C5" />
<rect x="304" y="320" width="4" height="4" fill="#7CA4C5" />
<rect x="308" y="320" width="4" height="4" fill="#496277" />
<rect x="156" y="324" width="4" height="4" fill="#496277" />
<rect x="160" y="324" width="4" height="4" fill="#D6F5FF" />
<rect x="164" y="324" width="4" height="4" fill="#D6F5FF" />
<rect x="168" y="324" width="4" height="4" fill="#7CA4C5" />
<rect x="172" y="324" width="4" height="4" fill="#D6F5FF" />
<rect x="176" y="324" width="4" height="4" fill="#496277" />
<rect x="248" y="324" width="4" height="4" fill="#496277" />
<rect x="252" y="324" width="4" height="4" fill="#496277" />
<rect x="296" y="324" width="4" height="4" fill="#496277" />
<rect x="300" y="324" width="4" height="4" fill="#7CA4C5" />
<rect x="304" y="324" width="4" height="4" fill="#7CA4C5" />
<rect x="308" y="324" width="4" height="4" fill="#496277" />
<rect x="160" y="328" width="4" height="4" fill="#496277" />
<rect x="164" y="328" width="4" height="4" fill="#D6F5FF" />
<rect x="168" y="328" width="4" height="4" fill="#7CA4C5" />
<rect x="172" y="328" width="4" height="4" fill="#D6F5FF" />
<rect x="176" y="328" width="4" height="4" fill="#496277" />
<rect x="252" y="328" width="4" height="4" fill="#496277" />
<rect x="296" y="328" width="4" height="4" fill="#496277" />
<rect x="300" y="328" width="4" height="4" fill="#7CA4C5" />
<rect x="304" y="328" width="4" height="4" fill="#496277" />
<rect x="164" y="332" width="4" height="4" fill="#496277" />
<rect x="168" y="332" width="4" height="4" fill="#7CA4C5" />
<rect x="172" y="332" width="4" height="4" fill="#D6F5FF" />
<rect x="176" y="332" width="4" height="4" fill="#496277" />
<rect x="300" y="332" width="4" height="4" fill="#496277" />
<rect x="168" y="336" width="4" height="4" fill="#496277" />
<rect x="172" y="336" width="4" height="4" fill="#D6F5FF" />
<rect x="176" y="336" width="4" height="4" fill="#7CA4C5" />
<rect x="180" y="336" width="4" height="4" fill="#496277" />
<rect x="172" y="340" width="4" height="4" fill="#496277" />
<rect x="176" y="340" width="4" height="4" fill="#7CA4C5" />
<rect x="180" y="340" width="4" height="4" fill="#496277" />
<rect x="176" y="344" width="4" height="4" fill="#496277" />
<rect x="180" y="344" width="4" height="4" fill="#496277" />
<rect x="180" y="348" width="4" height="4" fill="#496277" />
</svg>