<svg width="384" height="384" xmlns="http://www.w3.org/2000/svg" shape-rendering="crispEdges"><path fill="#496277" d="M160 252h4v4h-4zM164 252h4v4h-4zM168 252h4v4h-4zM268 252h4v4h-4zM272 252h4v4h-4zM276 252h4v4h-4zM156 256h4v4h-4z"/><path fill="#7CA4C5" d="M160 256h4v4h-4z"/><path fill="#496277" d="M164 256h4v4h-4z"/><path fill="#7CA4C5" d="M168 256h4v4h-4z"/><path fill="#496277" d="M172 256h4v4h-4zM176 256h4v4h-4zM180 256h4v4h-4zM184 256h4v4h-4zM264 256h4v4h-4z"/><path fill="#7CA4C5" d="M268 256h4v4h-4z"/><path fill="#496277" d="M272 256h4v4h-4z"/><path fill="#7CA4C5" d="M276 256h4v4h-4z"/><path fill="#496277" d="M280 256h4v4h-4zM156 260h4v4h-4z"/><path fill="#7CA4C5" d="M160 260h4v4h-4z"/><path fill="#496277" d="M164 260h4v4h-4z"/><path fill="#7CA4C5" d="M168 260h4v4h-4z"/><path fill="#496277" d="M172 260h4v4h-4z"/><path fill="#7CA4C5" d="M176 260h4v4h-4zM180 260h4v4h-4z"/><path fill="#D6F5FF" d="M184 260h4v4h-4z"/><path fill="#496277" d="M188 260h4v4h-4zM260 260h4v4h-4zM264 260h4v4h-4z"/><path fill="#7CA4C5" d="M268 260h4v4h-4z"/><path fill="#496277" d="M272 260h4v4h-4z"/><path fill="#7CA4C5" d="M276 260h4v4h-4z"/><path fill="#496277" d="M280 260h4v4h-4zM284 260h4v4h-4zM152 264h4v4h-4zM156 264h4v4h-4z"/><path fill="#7CA4C5" d="M160 264h4v4h-4z"/><path fill="#496277" d="M164 264h4v4h-4z"/><path fill="#7CA4C5" d="M168 264h4v4h-4z"/><path fill="#496277" d="M172 264h4v4h-4z"/><path fill="#7CA4C5" d="M176 264h4v4h-4zM180 264h4v4h-4z"/><path fill="#D6F5FF" d="M184 264h4v4h-4zM188 264h4v4h-4z"/><path fill="#496277" d="M192 264h4v4h-4zM256 264h4v4h-4z"/><path fill="#7CA4C5" d="M260 264h4v4h-4z"/><path fill="#496277" d="M264 264h4v4h-4z"/><path fill="#7CA4C5" d="M268 264h4v4h-4z"/><path fill="#496277" d="M272 264h4v4h-4z"/><path fill="#7CA4C5" d="M276 264h4v4h-4z"/><path fill="#496277" d="M280 264h4v4h-4z"/><path fill="#7CA4C5" d="M284 264h4v4h-4z"/><path fill="#496277" d="M288 264h4v4h-4zM148 268h4v4h-4z"/><path fill="#7CA4C5" d="M152 268h4v4h-4zM156 268h4v4h-4z"/><path fill="#496277" d="M160 268h4v4h-4zM164 268h4v4h-4zM168 268h4v4h-4z"/><path fill="#7CA4C5" d="M172 268h4v4h-4zM176 268h4v4h-4z"/><path fill="#D6F5FF" d="M180 268h4v4h-4zM184 268h4v4h-4zM188 268h4v4h-4z"/><path fill="#7CA4C5" d="M192 268h4v4h-4z"/><path fill="#496277" d="M196 268h4v4h-4zM252 268h4v4h-4z"/><path fill="#7CA4C5" d="M256 268h4v4h-4zM260 268h4v4h-4zM264 268h4v4h-4z"/><path fill="#496277" d="M268 268h4v4h-4zM272 268h4v4h-4zM276 268h4v4h-4z"/><path fill="#7CA4C5" d="M280 268h4v4h-4zM284 268h4v4h-4z"/><path fill="#D6F5FF" d="M288 268h4v4h-4z"/><path fill="#496277" d="M292 268h4v4h-4zM148 272h4v4h-4z"/><path fill="#7CA4C5" d="M152 272h4v4h-4zM156 272h4v4h-4zM160 272h4v4h-4zM164 272h4v4h-4z"/><path fill="#496277" d="M168 272h4v4h-4z"/><path fill="#7CA4C5" d="M172 272h4v4h-4zM176 272h4v4h-4z"/><path fill="#D6F5FF" d="M180 272h4v4h-4zM184 272h4v4h-4zM188 272h4v4h-4z"/><path fill="#7CA4C5" d="M192 272h4v4h-4zM196 272h4v4h-4z"/><path fill="#496277" d="M200 272h4v4h-4zM248 272h4v4h-4z"/><path fill="#7CA4C5" d="M252 272h4v4h-4zM256 272h4v4h-4zM260 272h4v4h-4zM264 272h4v4h-4zM268 272h4v4h-4z"/><path fill="#496277" d="M272 272h4v4h-4z"/><path fill="#7CA4C5" d="M276 272h4v4h-4zM280 272h4v4h-4zM284 272h4v4h-4z"/><path fill="#D6F5FF" d="M288 272h4v4h-4z"/><path fill="#7CA4C5" d="M292 272h4v4h-4z"/><path fill="#496277" d="M296 272h4v4h-4zM148 276h4v4h-4z"/><path fill="#7CA4C5" d="M152 276h4v4h-4zM156 276h4v4h-4zM160 276h4v4h-4zM164 276h4v4h-4zM168 276h4v4h-4z"/><path fill="#496277" d="M172 276h4v4h-4z"/><path fill="#7CA4C5" d="M176 276h4v4h-4z"/><path fill="#D6F5FF" d="M180 276h4v4h-4zM184 276h4v4h-4zM188 276h4v4h-4z"/><path fill="#7CA4C5" d="M192 276h4v4h-4zM196 276h4v4h-4z"/><path fill="#496277" d="M200 276h4v4h-4zM248 276h4v4h-4z"/><path fill="#7CA4C5" d="M252 276h4v4h-4zM256 276h4v4h-4zM260 276h4v4h-4zM264 276h4v4h-4zM268 276h4v4h-4z"/><path fill="#496277" d="M272 276h4v4h-4z"/><path fill="#7CA4C5" d="M276 276h4v4h-4zM280 276h4v4h-4z"/><path fill="#D6F5FF" d="M284 276h4v4h-4z"/><path fill="#7CA4C5" d="M288 276h4v4h-4zM292 276h4v4h-4z"/><path fill="#496277" d="M296 276h4v4h-4zM148 280h4v4h-4z"/><path fill="#7CA4C5" d="M152 280h4v4h-4zM156 280h4v4h-4zM160 280h4v4h-4zM164 280h4v4h-4zM168 280h4v4h-4z"/><path fill="#496277" d="M172 280h4v4h-4z"/><path fill="#7CA4C5" d="M176 280h4v4h-4z"/><path fill="#D6F5FF" d="M180 280h4v4h-4zM184 280h4v4h-4z"/><path fill="#7CA4C5" d="M188 280h4v4h-4zM192 280h4v4h-4zM196 280h4v4h-4z"/><path fill="#496277" d="M200 280h4v4h-4zM248 280h4v4h-4z"/><path fill="#7CA4C5" d="M252 280h4v4h-4zM256 280h4v4h-4zM260 280h4v4h-4zM264 280h4v4h-4z"/><path fill="#D6F5FF" d="M268 280h4v4h-4z"/><path fill="#496277" d="M272 280h4v4h-4z"/><path fill="#7CA4C5" d="M276 280h4v4h-4zM280 280h4v4h-4z"/><path fill="#D6F5FF" d="M284 280h4v4h-4z"/><path fill="#7CA4C5" d="M288 280h4v4h-4zM292 280h4v4h-4z"/><path fill="#496277" d="M296 280h4v4h-4zM148 284h4v4h-4z"/><path fill="#7CA4C5" d="M152 284h4v4h-4zM156 284h4v4h-4zM160 284h4v4h-4zM164 284h4v4h-4zM168 284h4v4h-4zM172 284h4v4h-4z"/><path fill="#496277" d="M176 284h4v4h-4z"/><path fill="#D6F5FF" d="M180 284h4v4h-4zM184 284h4v4h-4z"/><path fill="#7CA4C5" d="M188 284h4v4h-4zM192 284h4v4h-4z"/><path fill="#D6F5FF" d="M196 284h4v4h-4z"/><path fill="#496277" d="M200 284h4v4h-4zM248 284h4v4h-4z"/><path fill="#7CA4C5" d="M252 284h4v4h-4zM256 284h4v4h-4zM260 284h4v4h-4zM264 284h4v4h-4z"/><path fill="#D6F5FF" d="M268 284h4v4h-4z"/><path fill="#496277" d="M272 284h4v4h-4z"/><path fill="#7CA4C5" d="M276 284h4v4h-4zM280 284h4v4h-4z"/><path fill="#D6F5FF" d="M284 284h4v4h-4z"/><path fill="#7CA4C5" d="M288 284h4v4h-4zM292 284h4v4h-4z"/><path fill="#496277" d="M296 284h4v4h-4zM148 288h4v4h-4z"/><path fill="#7CA4C5" d="M152 288h4v4h-4zM156 288h4v4h-4zM160 288h4v4h-4zM164 288h4v4h-4zM168 288h4v4h-4zM172 288h4v4h-4z"/><path fill="#496277" d="M176 288h4v4h-4z"/><path fill="#D6F5FF" d="M180 288h4v4h-4zM184 288h4v4h-4z"/><path fill="#7CA4C5" d="M188 288h4v4h-4zM192 288h4v4h-4z"/><path fill="#D6F5FF" d="M196 288h4v4h-4z"/><path fill="#7CA4C5" d="M200 288h4v4h-4z"/><path fill="#496277" d="M204 288h4v4h-4zM248 288h4v4h-4z"/><path fill="#7CA4C5" d="M252 288h4v4h-4zM256 288h4v4h-4zM260 288h4v4h-4zM264 288h4v4h-4z"/><path fill="#D6F5FF" d="M268 288h4v4h-4z"/><path fill="#496277" d="M272 288h4v4h-4z"/><path fill="#7CA4C5" d="M276 288h4v4h-4zM280 288h4v4h-4z"/><path fill="#D6F5FF" d="M284 288h4v4h-4z"/><path fill="#7CA4C5" d="M288 288h4v4h-4zM292 288h4v4h-4z"/><path fill="#496277" d="M296 288h4v4h-4zM148 292h4v4h-4z"/><path fill="#7CA4C5" d="M152 292h4v4h-4zM156 292h4v4h-4zM160 292h4v4h-4zM164 292h4v4h-4zM168 292h4v4h-4zM172 292h4v4h-4z"/><path fill="#D6F5FF" d="M176 292h4v4h-4z"/><path fill="#496277" d="M180 292h4v4h-4z"/><path fill="#D6F5FF" d="M184 292h4v4h-4z"/><path fill="#7CA4C5" d="M188 292h4v4h-4zM192 292h4v4h-4z"/><path fill="#D6F5FF" d="M196 292h4v4h-4z"/><path fill="#7CA4C5" d="M200 292h4v4h-4z"/><path fill="#496277" d="M204 292h4v4h-4zM248 292h4v4h-4z"/><path fill="#7CA4C5" d="M252 292h4v4h-4zM256 292h4v4h-4zM260 292h4v4h-4zM264 292h4v4h-4z"/><path fill="#D6F5FF" d="M268 292h4v4h-4z"/><path fill="#496277" d="M272 292h4v4h-4z"/><path fill="#7CA4C5" d="M276 292h4v4h-4z"/><path fill="#D6F5FF" d="M280 292h4v4h-4z"/><path fill="#7CA4C5" d="M284 292h4v4h-4zM288 292h4v4h-4zM292 292h4v4h-4z"/><path fill="#496277" d="M296 292h4v4h-4zM148 296h4v4h-4z"/><path fill="#7CA4C5" d="M152 296h4v4h-4zM156 296h4v4h-4zM160 296h4v4h-4zM164 296h4v4h-4zM168 296h4v4h-4zM172 296h4v4h-4z"/><path fill="#D6F5FF" d="M176 296h4v4h-4z"/><path fill="#496277" d="M180 296h4v4h-4z"/><path fill="#7CA4C5" d="M184 296h4v4h-4zM188 296h4v4h-4zM192 296h4v4h-4z"/><path fill="#D6F5FF" d="M196 296h4v4h-4z"/><path fill="#7CA4C5" d="M200 296h4v4h-4z"/><path fill="#496277" d="M204 296h4v4h-4zM248 296h4v4h-4z"/><path fill="#7CA4C5" d="M252 296h4v4h-4zM256 296h4v4h-4zM260 296h4v4h-4z"/><path fill="#D6F5FF" d="M264 296h4v4h-4zM268 296h4v4h-4z"/><path fill="#496277" d="M272 296h4v4h-4z"/><path fill="#7CA4C5" d="M276 296h4v4h-4z"/><path fill="#D6F5FF" d="M280 296h4v4h-4z"/><path fill="#7CA4C5" d="M284 296h4v4h-4zM288 296h4v4h-4zM292 296h4v4h-4z"/><path fill="#496277" d="M296 296h4v4h-4zM152 300h4v4h-4z"/><path fill="#7CA4C5" d="M156 300h4v4h-4zM160 300h4v4h-4zM164 300h4v4h-4zM168 300h4v4h-4zM172 300h4v4h-4z"/><path fill="#D6F5FF" d="M176 300h4v4h-4zM180 300h4v4h-4z"/><path fill="#496277" d="M184 300h4v4h-4z"/><path fill="#7CA4C5" d="M188 300h4v4h-4z"/><path fill="#D6F5FF" d="M192 300h4v4h-4z"/><path fill="#7CA4C5" d="M196 300h4v4h-4zM200 300h4v4h-4z"/><path fill="#496277" d="M204 300h4v4h-4zM248 300h4v4h-4z"/><path fill="#7CA4C5" d="M252 300h4v4h-4zM256 300h4v4h-4zM260 300h4v4h-4z"/><path fill="#D6F5FF" d="M264 300h4v4h-4zM268 300h4v4h-4z"/><path fill="#496277" d="M272 300h4v4h-4z"/><path fill="#7CA4C5" d="M276 300h4v4h-4z"/><path fill="#D6F5FF" d="M280 300h4v4h-4z"/><path fill="#7CA4C5" d="M284 300h4v4h-4zM288 300h4v4h-4zM292 300h4v4h-4z"/><path fill="#496277" d="M296 300h4v4h-4zM152 304h4v4h-4z"/><path fill="#7CA4C5" d="M156 304h4v4h-4zM160 304h4v4h-4zM164 304h4v4h-4zM168 304h4v4h-4zM172 304h4v4h-4z"/><path fill="#D6F5FF" d="M176 304h4v4h-4zM180 304h4v4h-4z"/><path fill="#496277" d="M184 304h4v4h-4z"/><path fill="#7CA4C5" d="M188 304h4v4h-4z"/><path fill="#D6F5FF" d="M192 304h4v4h-4z"/><path fill="#7CA4C5" d="M196 304h4v4h-4zM200 304h4v4h-4z"/><path fill="#496277" d="M204 304h4v4h-4zM252 304h4v4h-4z"/><path fill="#7CA4C5" d="M256 304h4v4h-4zM260 304h4v4h-4z"/><path fill="#D6F5FF" d="M264 304h4v4h-4zM268 304h4v4h-4z"/><path fill="#496277" d="M272 304h4v4h-4z"/><path fill="#D6F5FF" d="M276 304h4v4h-4z"/><path fill="#7CA4C5" d="M280 304h4v4h-4zM284 304h4v4h-4zM288 304h4v4h-4zM292 304h4v4h-4z"/><path fill="#496277" d="M296 304h4v4h-4zM156 308h4v4h-4z"/><path fill="#7CA4C5" d="M160 308h4v4h-4zM164 308h4v4h-4zM168 308h4v4h-4zM172 308h4v4h-4z"/><path fill="#D6F5FF" d="M176 308h4v4h-4zM180 308h4v4h-4z"/><path fill="#7CA4C5" d="M184 308h4v4h-4z"/><path fill="#496277" d="M188 308h4v4h-4z"/><path fill="#D6F5FF" d="M192 308h4v4h-4z"/><path fill="#7CA4C5" d="M196 308h4v4h-4zM200 308h4v4h-4z"/><path fill="#496277" d="M204 308h4v4h-4zM252 308h4v4h-4z"/><path fill="#7CA4C5" d="M256 308h4v4h-4z"/><path fill="#D6F5FF" d="M260 308h4v4h-4zM264 308h4v4h-4z"/><path fill="#7CA4C5" d="M268 308h4v4h-4z"/><path fill="#496277" d="M272 308h4v4h-4z"/><path fill="#D6F5FF" d="M276 308h4v4h-4z"/><path fill="#7CA4C5" d="M280 308h4v4h-4zM284 308h4v4h-4zM288 308h4v4h-4zM292 308h4v4h-4z"/><path fill="#496277" d="M296 308h4v4h-4zM160 312h4v4h-4z"/><path fill="#7CA4C5" d="M164 312h4v4h-4zM168 312h4v4h-4z"/><path fill="#D6F5FF" d="M172 312h4v4h-4zM176 312h4v4h-4z"/><path fill="#7CA4C5" d="M180 312h4v4h-4zM184 312h4v4h-4z"/><path fill="#496277" d="M188 312h4v4h-4z"/><path fill="#D6F5FF" d="M192 312h4v4h-4z"/><path fill="#7CA4C5" d="M196 312h4v4h-4zM200 312h4v4h-4z"/><path fill="#496277" d="M204 312h4v4h-4zM256 312h4v4h-4z"/><path fill="#D6F5FF" d="M260 312h4v4h-4zM264 312h4v4h-4z"/><path fill="#7CA4C5" d="M268 312h4v4h-4z"/><path fill="#496277" d="M272 312h4v4h-4z"/><path fill="#7CA4C5" d="M276 312h4v4h-4zM280 312h4v4h-4zM284 312h4v4h-4zM288 312h4v4h-4z"/><path fill="#496277" d="M292 312h4v4h-4zM164 316h4v4h-4z"/><path fill="#7CA4C5" d="M168 316h4v4h-4z"/><path fill="#D6F5FF" d="M172 316h4v4h-4zM176 316h4v4h-4z"/><path fill="#7CA4C5" d="M180 316h4v4h-4zM184 316h4v4h-4zM188 316h4v4h-4z"/><path fill="#496277" d="M192 316h4v4h-4z"/><path fill="#7CA4C5" d="M196 316h4v4h-4zM200 316h4v4h-4z"/><path fill="#496277" d="M204 316h4v4h-4zM256 316h4v4h-4z"/><path fill="#D6F5FF" d="M260 316h4v4h-4zM264 316h4v4h-4z"/><path fill="#7CA4C5" d="M268 316h4v4h-4z"/><path fill="#496277" d="M272 316h4v4h-4z"/><path fill="#7CA4C5" d="M276 316h4v4h-4zM280 316h4v4h-4zM284 316h4v4h-4zM288 316h4v4h-4z"/><path fill="#496277" d="M292 316h4v4h-4zM168 320h4v4h-4z"/><path fill="#D6F5FF" d="M172 320h4v4h-4zM176 320h4v4h-4z"/><path fill="#7CA4C5" d="M180 320h4v4h-4zM184 320h4v4h-4z"/><path fill="#D6F5FF" d="M188 320h4v4h-4z"/><path fill="#496277" d="M192 320h4v4h-4z"/><path fill="#7CA4C5" d="M196 320h4v4h-4zM200 320h4v4h-4z"/><path fill="#496277" d="M204 320h4v4h-4zM260 320h4v4h-4z"/><path fill="#D6F5FF" d="M264 320h4v4h-4z"/><path fill="#7CA4C5" d="M268 320h4v4h-4z"/><path fill="#496277" d="M272 320h4v4h-4z"/><path fill="#7CA4C5" d="M276 320h4v4h-4zM280 320h4v4h-4zM284 320h4v4h-4z"/><path fill="#496277" d="M288 320h4v4h-4zM172 324h4v4h-4z"/><path fill="#D6F5FF" d="M176 324h4v4h-4z"/><path fill="#7CA4C5" d="M180 324h4v4h-4zM184 324h4v4h-4z"/><path fill="#D6F5FF" d="M188 324h4v4h-4z"/><path fill="#7CA4C5" d="M192 324h4v4h-4z"/><path fill="#496277" d="M196 324h4v4h-4z"/><path fill="#7CA4C5" d="M200 324h4v4h-4z"/><path fill="#496277" d="M204 324h4v4h-4zM264 324h4v4h-4z"/><path fill="#7CA4C5" d="M268 324h4v4h-4z"/><path fill="#496277" d="M272 324h4v4h-4z"/><path fill="#7CA4C5" d="M276 324h4v4h-4zM280 324h4v4h-4zM284 324h4v4h-4z"/><path fill="#496277" d="M288 324h4v4h-4zM176 328h4v4h-4z"/><path fill="#7CA4C5" d="M180 328h4v4h-4zM184 328h4v4h-4z"/><path fill="#D6F5FF" d="M188 328h4v4h-4z"/><path fill="#7CA4C5" d="M192 328h4v4h-4z"/><path fill="#496277" d="M196 328h4v4h-4z"/><path fill="#7CA4C5" d="M200 328h4v4h-4z"/><path fill="#496277" d="M204 328h4v4h-4zM268 328h4v4h-4zM272 328h4v4h-4z"/><path fill="#7CA4C5" d="M276 328h4v4h-4zM280 328h4v4h-4z"/><path fill="#496277" d="M284 328h4v4h-4zM180 332h4v4h-4zM184 332h4v4h-4z"/><path fill="#D6F5FF" d="M188 332h4v4h-4z"/><path fill="#7CA4C5" d="M192 332h4v4h-4zM196 332h4v4h-4z"/><path fill="#496277" d="M200 332h4v4h-4zM272 332h4v4h-4z"/><path fill="#7CA4C5" d="M276 332h4v4h-4z"/><path fill="#496277" d="M280 332h4v4h-4zM188 336h4v4h-4zM192 336h4v4h-4z"/><path fill="#7CA4C5" d="M196 336h4v4h-4z"/><path fill="#496277" d="M200 336h4v4h-4zM272 336h4v4h-4zM276 336h4v4h-4zM196 340h4v4h-4zM200 340h4v4h-4z"/></svg>