<svg width="384" height="384" xmlns="http://www.w3.org/2000/svg" shape-rendering="crispEdges"><path fill="#2B1382" d="M204 172h4v4h-4zM208 172h4v4h-4zM196 176h4v4h-4zM200 176h4v4h-4z"/><path fill="#5B6BE5" d="M204 176h4v4h-4zM208 176h4v4h-4z"/><path fill="#2B1382" d="M212 176h4v4h-4zM216 176h4v4h-4zM192 180h4v4h-4z"/><path fill="#5B6BE5" d="M196 180h4v4h-4zM200 180h4v4h-4zM204 180h4v4h-4zM208 180h4v4h-4zM212 180h4v4h-4zM216 180h4v4h-4z"/><path fill="#2B1382" d="M220 180h4v4h-4zM224 180h4v4h-4zM192 184h4v4h-4z"/><path fill="#5B6BE5" d="M196 184h4v4h-4zM200 184h4v4h-4zM204 184h4v4h-4zM208 184h4v4h-4zM212 184h4v4h-4zM216 184h4v4h-4zM220 184h4v4h-4zM224 184h4v4h-4z"/><path fill="#2B1382" d="M228 184h4v4h-4zM192 188h4v4h-4z"/><path fill="#5B6BE5" d="M196 188h4v4h-4zM200 188h4v4h-4zM204 188h4v4h-4zM208 188h4v4h-4zM212 188h4v4h-4zM216 188h4v4h-4zM220 188h4v4h-4zM224 188h4v4h-4zM228 188h4v4h-4z"/><path fill="#2B1382" d="M232 188h4v4h-4zM192 192h4v4h-4z"/><path fill="#5B6BE5" d="M196 192h4v4h-4zM200 192h4v4h-4zM204 192h4v4h-4zM208 192h4v4h-4z"/><path fill="#89AAF2" d="M212 192h4v4h-4z"/><path fill="#5B6BE5" d="M216 192h4v4h-4zM220 192h4v4h-4zM224 192h4v4h-4zM228 192h4v4h-4zM232 192h4v4h-4z"/><path fill="#2B1382" d="M236 192h4v4h-4zM192 196h4v4h-4z"/><path fill="#5B6BE5" d="M196 196h4v4h-4zM200 196h4v4h-4zM204 196h4v4h-4zM208 196h4v4h-4z"/><path fill="#89AAF2" d="M212 196h4v4h-4zM216 196h4v4h-4z"/><path fill="#5B6BE5" d="M220 196h4v4h-4zM224 196h4v4h-4zM228 196h4v4h-4zM232 196h4v4h-4zM236 196h4v4h-4z"/><path fill="#2B1382" d="M240 196h4v4h-4zM192 200h4v4h-4z"/><path fill="#5B6BE5" d="M196 200h4v4h-4zM200 200h4v4h-4zM204 200h4v4h-4zM208 200h4v4h-4z"/><path fill="#89AAF2" d="M212 200h4v4h-4zM216 200h4v4h-4z"/><path fill="#5B6BE5" d="M220 200h4v4h-4zM224 200h4v4h-4zM228 200h4v4h-4zM232 200h4v4h-4zM236 200h4v4h-4zM240 200h4v4h-4z"/><path fill="#2B1382" d="M244 200h4v4h-4zM196 204h4v4h-4z"/><path fill="#5B6BE5" d="M200 204h4v4h-4zM204 204h4v4h-4zM208 204h4v4h-4zM212 204h4v4h-4z"/><path fill="#89AAF2" d="M216 204h4v4h-4z"/><path fill="#5B6BE5" d="M220 204h4v4h-4zM224 204h4v4h-4zM228 204h4v4h-4zM232 204h4v4h-4zM236 204h4v4h-4zM240 204h4v4h-4z"/><path fill="#2B1382" d="M244 204h4v4h-4zM196 208h4v4h-4zM200 208h4v4h-4z"/><path fill="#5B6BE5" d="M204 208h4v4h-4zM208 208h4v4h-4zM212 208h4v4h-4zM216 208h4v4h-4zM220 208h4v4h-4zM224 208h4v4h-4z"/><path fill="#454AD6" d="M228 208h4v4h-4zM232 208h4v4h-4z"/><path fill="#5B6BE5" d="M236 208h4v4h-4zM240 208h4v4h-4zM244 208h4v4h-4z"/><path fill="#2B1382" d="M248 208h4v4h-4zM196 212h4v4h-4z"/><path fill="#5B6BE5" d="M200 212h4v4h-4zM204 212h4v4h-4zM208 212h4v4h-4zM212 212h4v4h-4zM216 212h4v4h-4zM220 212h4v4h-4z"/><path fill="#454AD6" d="M224 212h4v4h-4z"/><path fill="#FFF" d="M228 212h4v4h-4zM232 212h4v4h-4z"/><path fill="#454AD6" d="M236 212h4v4h-4z"/><path fill="#5B6BE5" d="M240 212h4v4h-4zM244 212h4v4h-4z"/><path fill="#2B1382" d="M248 212h4v4h-4zM196 216h4v4h-4z"/><path fill="#5B6BE5" d="M200 216h4v4h-4zM204 216h4v4h-4zM208 216h4v4h-4zM212 216h4v4h-4zM216 216h4v4h-4z"/><path fill="#454AD6" d="M220 216h4v4h-4z"/><path fill="#FFF" d="M224 216h4v4h-4zM228 216h4v4h-4zM232 216h4v4h-4zM236 216h4v4h-4z"/><path fill="#454AD6" d="M240 216h4v4h-4z"/><path fill="#5B6BE5" d="M244 216h4v4h-4z"/><path fill="#2B1382" d="M248 216h4v4h-4zM196 220h4v4h-4z"/><path fill="#5B6BE5" d="M200 220h4v4h-4zM204 220h4v4h-4zM208 220h4v4h-4zM212 220h4v4h-4z"/><path fill="#454AD6" d="M216 220h4v4h-4z"/><path fill="#FFF" d="M220 220h4v4h-4zM224 220h4v4h-4zM228 220h4v4h-4zM232 220h4v4h-4zM236 220h4v4h-4zM240 220h4v4h-4z"/><path fill="#454AD6" d="M244 220h4v4h-4z"/><path fill="#2B1382" d="M248 220h4v4h-4zM200 224h4v4h-4z"/><path fill="#5B6BE5" d="M204 224h4v4h-4zM208 224h4v4h-4zM212 224h4v4h-4z"/><path fill="#454AD6" d="M216 224h4v4h-4z"/><path fill="#FFF" d="M220 224h4v4h-4zM224 224h4v4h-4zM228 224h4v4h-4zM232 224h4v4h-4zM236 224h4v4h-4zM240 224h4v4h-4z"/><path fill="#454AD6" d="M244 224h4v4h-4z"/><path fill="#2B1382" d="M248 224h4v4h-4zM200 228h4v4h-4z"/><path fill="#5B6BE5" d="M204 228h4v4h-4zM208 228h4v4h-4zM212 228h4v4h-4z"/><path fill="#454AD6" d="M216 228h4v4h-4z"/><path fill="#FFF" d="M220 228h4v4h-4zM224 228h4v4h-4zM228 228h4v4h-4zM232 228h4v4h-4zM236 228h4v4h-4zM240 228h4v4h-4z"/><path fill="#454AD6" d="M244 228h4v4h-4z"/><path fill="#2B1382" d="M248 228h4v4h-4zM200 232h4v4h-4z"/><path fill="#5B6BE5" d="M204 232h4v4h-4zM208 232h4v4h-4zM212 232h4v4h-4z"/><path fill="#454AD6" d="M216 232h4v4h-4zM220 232h4v4h-4z"/><path fill="#FFF" d="M224 232h4v4h-4zM228 232h4v4h-4zM232 232h4v4h-4zM236 232h4v4h-4z"/><path fill="#454AD6" d="M240 232h4v4h-4zM244 232h4v4h-4z"/><path fill="#2B1382" d="M248 232h4v4h-4zM200 236h4v4h-4z"/><path fill="#5B6BE5" d="M204 236h4v4h-4zM208 236h4v4h-4zM212 236h4v4h-4zM216 236h4v4h-4z"/><path fill="#454AD6" d="M220 236h4v4h-4zM224 236h4v4h-4z"/><path fill="#FFF" d="M228 236h4v4h-4zM232 236h4v4h-4z"/><path fill="#454AD6" d="M236 236h4v4h-4zM240 236h4v4h-4z"/><path fill="#5B6BE5" d="M244 236h4v4h-4z"/><path fill="#2B1382" d="M248 236h4v4h-4zM196 240h4v4h-4z"/><path fill="#454AD6" d="M200 240h4v4h-4z"/><path fill="#5B6BE5" d="M204 240h4v4h-4zM208 240h4v4h-4zM212 240h4v4h-4zM216 240h4v4h-4zM220 240h4v4h-4z"/><path fill="#454AD6" d="M224 240h4v4h-4zM228 240h4v4h-4zM232 240h4v4h-4zM236 240h4v4h-4z"/><path fill="#5B6BE5" d="M240 240h4v4h-4zM244 240h4v4h-4z"/><path fill="#2B1382" d="M248 240h4v4h-4zM196 244h4v4h-4zM200 244h4v4h-4z"/><path fill="#5B6BE5" d="M204 244h4v4h-4zM208 244h4v4h-4zM212 244h4v4h-4zM216 244h4v4h-4zM220 244h4v4h-4zM224 244h4v4h-4z"/><path fill="#454AD6" d="M228 244h4v4h-4zM232 244h4v4h-4z"/><path fill="#5B6BE5" d="M236 244h4v4h-4zM240 244h4v4h-4zM244 244h4v4h-4z"/><path fill="#454AD6" d="M248 244h4v4h-4z"/><path fill="#2B1382" d="M252 244h4v4h-4zM192 248h4v4h-4z"/><path fill="#454AD6" d="M196 248h4v4h-4zM200 248h4v4h-4z"/><path fill="#2B1382" d="M204 248h4v4h-4z"/><path fill="#5B6BE5" d="M208 248h4v4h-4zM212 248h4v4h-4zM216 248h4v4h-4zM220 248h4v4h-4zM224 248h4v4h-4zM228 248h4v4h-4zM232 248h4v4h-4zM236 248h4v4h-4zM240 248h4v4h-4zM244 248h4v4h-4z"/><path fill="#2B1382" d="M248 248h4v4h-4zM252 248h4v4h-4zM192 252h4v4h-4z"/><path fill="#5B6BE5" d="M196 252h4v4h-4zM200 252h4v4h-4z"/><path fill="#454AD6" d="M204 252h4v4h-4z"/><path fill="#2B1382" d="M208 252h4v4h-4zM212 252h4v4h-4z"/><path fill="#5B6BE5" d="M216 252h4v4h-4zM220 252h4v4h-4zM224 252h4v4h-4zM228 252h4v4h-4zM232 252h4v4h-4zM236 252h4v4h-4z"/><path fill="#2B1382" d="M240 252h4v4h-4zM244 252h4v4h-4z"/><path fill="#454AD6" d="M248 252h4v4h-4z"/><path fill="#2B1382" d="M252 252h4v4h-4zM192 256h4v4h-4z"/><path fill="#5B6BE5" d="M196 256h4v4h-4zM200 256h4v4h-4zM204 256h4v4h-4z"/><path fill="#454AD6" d="M208 256h4v4h-4zM212 256h4v4h-4z"/><path fill="#5B6BE5" d="M216 256h4v4h-4zM220 256h4v4h-4zM224 256h4v4h-4zM228 256h4v4h-4zM232 256h4v4h-4zM236 256h4v4h-4z"/><path fill="#454AD6" d="M240 256h4v4h-4zM244 256h4v4h-4z"/><path fill="#5B6BE5" d="M248 256h4v4h-4z"/><path fill="#2B1382" d="M252 256h4v4h-4zM192 260h4v4h-4z"/><path fill="#5B6BE5" d="M196 260h4v4h-4zM200 260h4v4h-4zM204 260h4v4h-4zM208 260h4v4h-4zM212 260h4v4h-4zM216 260h4v4h-4zM220 260h4v4h-4zM224 260h4v4h-4zM228 260h4v4h-4zM232 260h4v4h-4zM236 260h4v4h-4zM240 260h4v4h-4zM244 260h4v4h-4zM248 260h4v4h-4z"/><path fill="#2B1382" d="M252 260h4v4h-4zM192 264h4v4h-4z"/><path fill="#454AD6" d="M196 264h4v4h-4z"/><path fill="#5B6BE5" d="M200 264h4v4h-4zM204 264h4v4h-4zM208 264h4v4h-4zM212 264h4v4h-4zM216 264h4v4h-4zM220 264h4v4h-4zM224 264h4v4h-4zM228 264h4v4h-4zM232 264h4v4h-4zM236 264h4v4h-4zM240 264h4v4h-4zM244 264h4v4h-4zM248 264h4v4h-4z"/><path fill="#2B1382" d="M252 264h4v4h-4zM192 268h4v4h-4z"/><path fill="#454AD6" d="M196 268h4v4h-4z"/><path fill="#5B6BE5" d="M200 268h4v4h-4zM204 268h4v4h-4zM208 268h4v4h-4zM212 268h4v4h-4zM216 268h4v4h-4zM220 268h4v4h-4zM224 268h4v4h-4zM228 268h4v4h-4zM232 268h4v4h-4zM236 268h4v4h-4zM240 268h4v4h-4zM244 268h4v4h-4zM248 268h4v4h-4z"/><path fill="#2B1382" d="M252 268h4v4h-4zM196 272h4v4h-4z"/><path fill="#454AD6" d="M200 272h4v4h-4z"/><path fill="#5B6BE5" d="M204 272h4v4h-4zM208 272h4v4h-4zM212 272h4v4h-4zM216 272h4v4h-4zM220 272h4v4h-4zM224 272h4v4h-4zM228 272h4v4h-4zM232 272h4v4h-4zM236 272h4v4h-4zM240 272h4v4h-4z"/><path fill="#454AD6" d="M244 272h4v4h-4z"/><path fill="#2B1382" d="M248 272h4v4h-4zM196 276h4v4h-4z"/><path fill="#454AD6" d="M200 276h4v4h-4z"/><path fill="#5B6BE5" d="M204 276h4v4h-4zM208 276h4v4h-4zM212 276h4v4h-4zM216 276h4v4h-4zM220 276h4v4h-4zM224 276h4v4h-4zM228 276h4v4h-4zM232 276h4v4h-4zM236 276h4v4h-4zM240 276h4v4h-4z"/><path fill="#454AD6" d="M244 276h4v4h-4z"/><path fill="#2B1382" d="M248 276h4v4h-4zM200 280h4v4h-4z"/><path fill="#454AD6" d="M204 280h4v4h-4z"/><path fill="#5B6BE5" d="M208 280h4v4h-4zM212 280h4v4h-4zM216 280h4v4h-4zM220 280h4v4h-4zM224 280h4v4h-4zM228 280h4v4h-4zM232 280h4v4h-4zM236 280h4v4h-4z"/><path fill="#454AD6" d="M240 280h4v4h-4z"/><path fill="#2B1382" d="M244 280h4v4h-4zM204 284h4v4h-4z"/><path fill="#454AD6" d="M208 284h4v4h-4z"/><path fill="#5B6BE5" d="M212 284h4v4h-4zM216 284h4v4h-4zM220 284h4v4h-4zM224 284h4v4h-4zM228 284h4v4h-4zM232 284h4v4h-4zM236 284h4v4h-4z"/><path fill="#454AD6" d="M240 284h4v4h-4z"/><path fill="#2B1382" d="M244 284h4v4h-4zM208 288h4v4h-4z"/><path fill="#454AD6" d="M212 288h4v4h-4zM216 288h4v4h-4zM220 288h4v4h-4zM224 288h4v4h-4zM228 288h4v4h-4zM232 288h4v4h-4zM236 288h4v4h-4z"/><path fill="#2B1382" d="M240 288h4v4h-4zM212 292h4v4h-4z"/><path fill="#454AD6" d="M216 292h4v4h-4zM220 292h4v4h-4zM224 292h4v4h-4zM228 292h4v4h-4zM232 292h4v4h-4z"/><path fill="#2B1382" d="M236 292h4v4h-4zM216 296h4v4h-4zM220 296h4v4h-4zM224 296h4v4h-4zM228 296h4v4h-4zM232 296h4v4h-4z"/></svg>