<svg width="384" height="384" xmlns="http://www.w3.org/2000/svg" shape-rendering="crispEdges"><path fill="#00709A" d="M244 188h4v4h-4zM248 188h4v4h-4zM252 188h4v4h-4zM208 192h4v4h-4zM212 192h4v4h-4zM216 192h4v4h-4zM240 192h4v4h-4z"/><path fill="#A0C9EC" d="M244 192h4v4h-4zM248 192h4v4h-4zM252 192h4v4h-4z"/><path fill="#00709A" d="M256 192h4v4h-4zM204 196h4v4h-4z"/><path fill="#A0C9EC" d="M208 196h4v4h-4zM212 196h4v4h-4zM216 196h4v4h-4z"/><path fill="#00709A" d="M220 196h4v4h-4zM236 196h4v4h-4z"/><path fill="#A0C9EC" d="M240 196h4v4h-4zM244 196h4v4h-4z"/><path fill="#FFF" d="M248 196h4v4h-4zM252 196h4v4h-4z"/><path fill="#A0C9EC" d="M256 196h4v4h-4z"/><path fill="#00709A" d="M260 196h4v4h-4zM200 200h4v4h-4z"/><path fill="#A0C9EC" d="M204 200h4v4h-4z"/><path fill="#FFF" d="M208 200h4v4h-4zM212 200h4v4h-4zM216 200h4v4h-4z"/><path fill="#A0C9EC" d="M220 200h4v4h-4z"/><path fill="#00709A" d="M224 200h4v4h-4zM232 200h4v4h-4z"/><path fill="#A0C9EC" d="M236 200h4v4h-4zM240 200h4v4h-4z"/><path fill="#FFF" d="M244 200h4v4h-4zM248 200h4v4h-4zM252 200h4v4h-4zM256 200h4v4h-4z"/><path fill="#00709A" d="M260 200h4v4h-4zM196 204h4v4h-4z"/><path fill="#A0C9EC" d="M200 204h4v4h-4z"/><path fill="#FFF" d="M204 204h4v4h-4zM208 204h4v4h-4zM212 204h4v4h-4zM216 204h4v4h-4zM220 204h4v4h-4z"/><path fill="#00709A" d="M224 204h4v4h-4zM232 204h4v4h-4z"/><path fill="#A0C9EC" d="M236 204h4v4h-4zM240 204h4v4h-4z"/><path fill="#FFF" d="M244 204h4v4h-4zM248 204h4v4h-4zM252 204h4v4h-4zM256 204h4v4h-4z"/><path fill="#00709A" d="M260 204h4v4h-4zM196 208h4v4h-4z"/><path fill="#A0C9EC" d="M200 208h4v4h-4z"/><path fill="#FFF" d="M204 208h4v4h-4zM208 208h4v4h-4zM212 208h4v4h-4zM216 208h4v4h-4zM220 208h4v4h-4z"/><path fill="#00709A" d="M224 208h4v4h-4zM236 208h4v4h-4z"/><path fill="#A0C9EC" d="M240 208h4v4h-4zM244 208h4v4h-4z"/><path fill="#FFF" d="M248 208h4v4h-4zM252 208h4v4h-4z"/><path fill="#A0C9EC" d="M256 208h4v4h-4z"/><path fill="#00709A" d="M260 208h4v4h-4zM196 212h4v4h-4z"/><path fill="#A0C9EC" d="M200 212h4v4h-4zM204 212h4v4h-4z"/><path fill="#FFF" d="M208 212h4v4h-4zM212 212h4v4h-4zM216 212h4v4h-4z"/><path fill="#A0C9EC" d="M220 212h4v4h-4z"/><path fill="#00709A" d="M224 212h4v4h-4zM240 212h4v4h-4z"/><path fill="#A0C9EC" d="M244 212h4v4h-4zM248 212h4v4h-4zM252 212h4v4h-4z"/><path fill="#00709A" d="M256 212h4v4h-4zM200 216h4v4h-4z"/><path fill="#A0C9EC" d="M204 216h4v4h-4zM208 216h4v4h-4zM212 216h4v4h-4zM216 216h4v4h-4z"/><path fill="#00709A" d="M220 216h4v4h-4zM228 216h4v4h-4zM232 216h4v4h-4zM236 216h4v4h-4zM240 216h4v4h-4z"/><path fill="#A0C9EC" d="M244 216h4v4h-4z"/><path fill="#00709A" d="M248 216h4v4h-4zM252 216h4v4h-4zM200 220h4v4h-4zM204 220h4v4h-4z"/><path fill="#A0C9EC" d="M208 220h4v4h-4z"/><path fill="#00709A" d="M212 220h4v4h-4zM216 220h4v4h-4zM224 220h4v4h-4z"/><path fill="#A0C9EC" d="M228 220h4v4h-4zM232 220h4v4h-4zM236 220h4v4h-4z"/><path fill="#00709A" d="M240 220h4v4h-4zM244 220h4v4h-4zM200 224h4v4h-4zM204 224h4v4h-4z"/><path fill="#A0C9EC" d="M208 224h4v4h-4z"/><path fill="#00709A" d="M212 224h4v4h-4zM216 224h4v4h-4zM220 224h4v4h-4z"/><path fill="#A0C9EC" d="M224 224h4v4h-4z"/><path fill="#FFF" d="M228 224h4v4h-4zM232 224h4v4h-4zM236 224h4v4h-4z"/><path fill="#A0C9EC" d="M240 224h4v4h-4z"/><path fill="#00709A" d="M244 224h4v4h-4zM200 228h4v4h-4z"/><path fill="#A0C9EC" d="M204 228h4v4h-4zM208 228h4v4h-4zM212 228h4v4h-4z"/><path fill="#00709A" d="M216 228h4v4h-4z"/><path fill="#A0C9EC" d="M220 228h4v4h-4z"/><path fill="#FFF" d="M224 228h4v4h-4zM228 228h4v4h-4zM232 228h4v4h-4zM236 228h4v4h-4zM240 228h4v4h-4z"/><path fill="#00709A" d="M244 228h4v4h-4zM196 232h4v4h-4z"/><path fill="#A0C9EC" d="M200 232h4v4h-4zM204 232h4v4h-4zM208 232h4v4h-4zM212 232h4v4h-4z"/><path fill="#00709A" d="M216 232h4v4h-4z"/><path fill="#A0C9EC" d="M220 232h4v4h-4z"/><path fill="#FFF" d="M224 232h4v4h-4zM228 232h4v4h-4zM232 232h4v4h-4zM236 232h4v4h-4zM240 232h4v4h-4z"/><path fill="#00709A" d="M244 232h4v4h-4zM196 236h4v4h-4zM200 236h4v4h-4zM204 236h4v4h-4z"/><path fill="#A0C9EC" d="M208 236h4v4h-4zM212 236h4v4h-4z"/><path fill="#00709A" d="M216 236h4v4h-4z"/><path fill="#A0C9EC" d="M220 236h4v4h-4zM224 236h4v4h-4z"/><path fill="#FFF" d="M228 236h4v4h-4zM232 236h4v4h-4zM236 236h4v4h-4z"/><path fill="#A0C9EC" d="M240 236h4v4h-4z"/><path fill="#00709A" d="M244 236h4v4h-4z"/><path fill="#3B6BAF" d="M248 236h4v4h-4z"/><path fill="#00709A" d="M192 240h4v4h-4z"/><path fill="#2F98ED" d="M196 240h4v4h-4zM200 240h4v4h-4zM204 240h4v4h-4z"/><path fill="#00709A" d="M208 240h4v4h-4z"/><path fill="#A0C9EC" d="M212 240h4v4h-4zM216 240h4v4h-4z"/><path fill="#00709A" d="M220 240h4v4h-4z"/><path fill="#A0C9EC" d="M224 240h4v4h-4zM228 240h4v4h-4zM232 240h4v4h-4zM236 240h4v4h-4z"/><path fill="#00709A" d="M240 240h4v4h-4z"/><path fill="#A0C9EC" d="M244 240h4v4h-4z"/><path fill="#00709A" d="M248 240h4v4h-4zM192 244h4v4h-4z"/><path fill="#2F98ED" d="M196 244h4v4h-4zM200 244h4v4h-4zM204 244h4v4h-4z"/><path fill="#00709A" d="M208 244h4v4h-4z"/><path fill="#A0C9EC" d="M212 244h4v4h-4zM216 244h4v4h-4zM220 244h4v4h-4z"/><path fill="#00709A" d="M224 244h4v4h-4zM228 244h4v4h-4zM232 244h4v4h-4zM236 244h4v4h-4z"/><path fill="#A0C9EC" d="M240 244h4v4h-4zM244 244h4v4h-4z"/><path fill="#00709A" d="M248 244h4v4h-4zM252 244h4v4h-4zM192 248h4v4h-4z"/><path fill="#2F98ED" d="M196 248h4v4h-4zM200 248h4v4h-4zM204 248h4v4h-4zM208 248h4v4h-4z"/><path fill="#00709A" d="M212 248h4v4h-4z"/><path fill="#A0C9EC" d="M216 248h4v4h-4zM220 248h4v4h-4zM224 248h4v4h-4zM228 248h4v4h-4zM232 248h4v4h-4zM236 248h4v4h-4zM240 248h4v4h-4zM244 248h4v4h-4z"/><path fill="#00709A" d="M248 248h4v4h-4zM252 248h4v4h-4zM192 252h4v4h-4z"/><path fill="#2F98ED" d="M196 252h4v4h-4zM200 252h4v4h-4zM204 252h4v4h-4zM208 252h4v4h-4z"/><path fill="#00709A" d="M212 252h4v4h-4z"/><path fill="#A0C9EC" d="M216 252h4v4h-4zM220 252h4v4h-4zM224 252h4v4h-4zM228 252h4v4h-4zM232 252h4v4h-4zM236 252h4v4h-4zM240 252h4v4h-4zM244 252h4v4h-4z"/><path fill="#00709A" d="M248 252h4v4h-4zM252 252h4v4h-4zM192 256h4v4h-4z"/><path fill="#2F98ED" d="M196 256h4v4h-4zM200 256h4v4h-4zM204 256h4v4h-4zM208 256h4v4h-4zM212 256h4v4h-4z"/><path fill="#00709A" d="M216 256h4v4h-4z"/><path fill="#A0C9EC" d="M220 256h4v4h-4z"/><path fill="#00709A" d="M224 256h4v4h-4zM228 256h4v4h-4zM232 256h4v4h-4zM236 256h4v4h-4z"/><path fill="#A0C9EC" d="M240 256h4v4h-4z"/><path fill="#00709A" d="M244 256h4v4h-4z"/><path fill="#A0C9EC" d="M248 256h4v4h-4z"/><path fill="#00709A" d="M252 256h4v4h-4zM192 260h4v4h-4z"/><path fill="#2F98ED" d="M196 260h4v4h-4zM200 260h4v4h-4zM204 260h4v4h-4zM208 260h4v4h-4zM212 260h4v4h-4z"/><path fill="#00709A" d="M216 260h4v4h-4z"/><path fill="#A0C9EC" d="M220 260h4v4h-4zM224 260h4v4h-4zM228 260h4v4h-4zM232 260h4v4h-4zM236 260h4v4h-4zM240 260h4v4h-4z"/><path fill="#00709A" d="M244 260h4v4h-4z"/><path fill="#A0C9EC" d="M248 260h4v4h-4z"/><path fill="#00709A" d="M252 260h4v4h-4zM196 264h4v4h-4z"/><path fill="#2F98ED" d="M200 264h4v4h-4zM204 264h4v4h-4zM208 264h4v4h-4zM212 264h4v4h-4z"/><path fill="#00709A" d="M216 264h4v4h-4z"/><path fill="#A0C9EC" d="M220 264h4v4h-4z"/><path fill="#FFF" d="M224 264h4v4h-4z"/><path fill="#A0C9EC" d="M228 264h4v4h-4z"/><path fill="#FFF" d="M232 264h4v4h-4zM236 264h4v4h-4z"/><path fill="#A0C9EC" d="M240 264h4v4h-4zM244 264h4v4h-4z"/><path fill="#00709A" d="M248 264h4v4h-4zM196 268h4v4h-4z"/><path fill="#2F98ED" d="M200 268h4v4h-4zM204 268h4v4h-4zM208 268h4v4h-4zM212 268h4v4h-4z"/><path fill="#00709A" d="M216 268h4v4h-4z"/><path fill="#A0C9EC" d="M220 268h4v4h-4zM224 268h4v4h-4zM228 268h4v4h-4zM232 268h4v4h-4zM236 268h4v4h-4zM240 268h4v4h-4zM244 268h4v4h-4z"/><path fill="#00709A" d="M248 268h4v4h-4zM200 272h4v4h-4z"/><path fill="#2F98ED" d="M204 272h4v4h-4zM208 272h4v4h-4zM212 272h4v4h-4z"/><path fill="#00709A" d="M216 272h4v4h-4z"/><path fill="#A0C9EC" d="M220 272h4v4h-4z"/><path fill="#FFF" d="M224 272h4v4h-4z"/><path fill="#A0C9EC" d="M228 272h4v4h-4z"/><path fill="#FFF" d="M232 272h4v4h-4zM236 272h4v4h-4z"/><path fill="#2F98ED" d="M240 272h4v4h-4z"/><path fill="#00709A" d="M244 272h4v4h-4zM204 276h4v4h-4z"/><path fill="#2F98ED" d="M208 276h4v4h-4zM212 276h4v4h-4z"/><path fill="#00709A" d="M216 276h4v4h-4z"/><path fill="#A0C9EC" d="M220 276h4v4h-4zM224 276h4v4h-4zM228 276h4v4h-4zM232 276h4v4h-4zM236 276h4v4h-4z"/><path fill="#2F98ED" d="M240 276h4v4h-4z"/><path fill="#00709A" d="M244 276h4v4h-4zM208 280h4v4h-4z"/><path fill="#2F98ED" d="M212 280h4v4h-4z"/><path fill="#00709A" d="M216 280h4v4h-4z"/><path fill="#2F98ED" d="M220 280h4v4h-4zM224 280h4v4h-4zM228 280h4v4h-4zM232 280h4v4h-4zM236 280h4v4h-4z"/><path fill="#00709A" d="M240 280h4v4h-4zM212 284h4v4h-4zM216 284h4v4h-4z"/><path fill="#2F98ED" d="M220 284h4v4h-4zM224 284h4v4h-4zM228 284h4v4h-4zM232 284h4v4h-4z"/><path fill="#00709A" d="M236 284h4v4h-4zM216 288h4v4h-4zM220 288h4v4h-4zM224 288h4v4h-4zM228 288h4v4h-4zM232 288h4v4h-4z"/></svg>