<svg width="384" height="384" xmlns="http://www.w3.org/2000/svg" shape-rendering="crispEdges"><path fill="#382908" d="M184 156h4v4h-4zM188 156h4v4h-4zM252 156h4v4h-4zM256 156h4v4h-4zM260 156h4v4h-4zM180 160h4v4h-4zM184 160h4v4h-4zM256 160h4v4h-4zM260 160h4v4h-4zM180 164h4v4h-4zM184 164h4v4h-4zM256 164h4v4h-4zM260 164h4v4h-4zM264 164h4v4h-4zM176 168h4v4h-4zM180 168h4v4h-4zM184 168h4v4h-4zM256 168h4v4h-4zM260 168h4v4h-4zM264 168h4v4h-4zM176 172h4v4h-4zM180 172h4v4h-4zM184 172h4v4h-4zM188 172h4v4h-4zM196 172h4v4h-4zM248 172h4v4h-4zM256 172h4v4h-4zM260 172h4v4h-4zM264 172h4v4h-4zM268 172h4v4h-4zM172 176h4v4h-4zM176 176h4v4h-4zM180 176h4v4h-4zM184 176h4v4h-4zM188 176h4v4h-4zM192 176h4v4h-4zM196 176h4v4h-4zM200 176h4v4h-4zM244 176h4v4h-4zM248 176h4v4h-4zM252 176h4v4h-4zM256 176h4v4h-4zM260 176h4v4h-4zM264 176h4v4h-4zM268 176h4v4h-4zM172 180h4v4h-4zM176 180h4v4h-4zM180 180h4v4h-4zM184 180h4v4h-4zM188 180h4v4h-4zM192 180h4v4h-4zM196 180h4v4h-4zM200 180h4v4h-4zM204 180h4v4h-4zM224 180h4v4h-4zM244 180h4v4h-4zM248 180h4v4h-4zM252 180h4v4h-4zM256 180h4v4h-4zM260 180h4v4h-4zM264 180h4v4h-4zM268 180h4v4h-4zM176 184h4v4h-4zM180 184h4v4h-4zM184 184h4v4h-4zM188 184h4v4h-4zM192 184h4v4h-4zM196 184h4v4h-4zM200 184h4v4h-4zM204 184h4v4h-4zM212 184h4v4h-4zM224 184h4v4h-4zM228 184h4v4h-4zM240 184h4v4h-4zM244 184h4v4h-4zM248 184h4v4h-4zM252 184h4v4h-4zM256 184h4v4h-4zM260 184h4v4h-4zM264 184h4v4h-4zM268 184h4v4h-4zM180 188h4v4h-4zM184 188h4v4h-4zM188 188h4v4h-4zM192 188h4v4h-4zM196 188h4v4h-4zM200 188h4v4h-4zM204 188h4v4h-4zM208 188h4v4h-4zM212 188h4v4h-4zM216 188h4v4h-4zM224 188h4v4h-4zM228 188h4v4h-4zM236 188h4v4h-4z"/><path fill="#493506" d="M240 188h4v4h-4zM244 188h4v4h-4z"/><path fill="#382908" d="M248 188h4v4h-4zM252 188h4v4h-4zM256 188h4v4h-4zM260 188h4v4h-4zM264 188h4v4h-4z"/><path fill="#5F360A" d="M180 192h4v4h-4z"/><path fill="#382908" d="M184 192h4v4h-4zM188 192h4v4h-4zM192 192h4v4h-4zM196 192h4v4h-4zM200 192h4v4h-4z"/><path fill="#493506" d="M204 192h4v4h-4zM208 192h4v4h-4z"/><path fill="#382908" d="M212 192h4v4h-4zM216 192h4v4h-4zM220 192h4v4h-4zM224 192h4v4h-4zM228 192h4v4h-4zM232 192h4v4h-4z"/><path fill="#493506" d="M236 192h4v4h-4zM240 192h4v4h-4zM244 192h4v4h-4zM248 192h4v4h-4z"/><path fill="#382908" d="M252 192h4v4h-4zM256 192h4v4h-4zM260 192h4v4h-4z"/><path fill="#5F360A" d="M180 196h4v4h-4zM184 196h4v4h-4z"/><path fill="#382908" d="M188 196h4v4h-4zM192 196h4v4h-4zM196 196h4v4h-4zM200 196h4v4h-4zM204 196h4v4h-4z"/><path fill="#493506" d="M208 196h4v4h-4zM212 196h4v4h-4z"/><path fill="#382908" d="M216 196h4v4h-4zM220 196h4v4h-4zM224 196h4v4h-4zM228 196h4v4h-4zM232 196h4v4h-4z"/><path fill="#493506" d="M236 196h4v4h-4zM240 196h4v4h-4z"/><path fill="#382908" d="M244 196h4v4h-4zM248 196h4v4h-4z"/><path fill="#5F360A" d="M252 196h4v4h-4z"/><path fill="#382908" d="M256 196h4v4h-4z"/><path fill="#5F360A" d="M260 196h4v4h-4zM180 200h4v4h-4zM184 200h4v4h-4zM188 200h4v4h-4z"/><path fill="#382908" d="M192 200h4v4h-4zM196 200h4v4h-4z"/><path fill="#5F360A" d="M200 200h4v4h-4z"/><path fill="#7C5022" d="M204 200h4v4h-4z"/><path fill="#382908" d="M208 200h4v4h-4z"/><path fill="#493506" d="M212 200h4v4h-4z"/><path fill="#382908" d="M216 200h4v4h-4zM220 200h4v4h-4zM224 200h4v4h-4zM228 200h4v4h-4zM232 200h4v4h-4z"/><path fill="#493506" d="M236 200h4v4h-4z"/><path fill="#382908" d="M240 200h4v4h-4zM244 200h4v4h-4z"/><path fill="#7C5022" d="M248 200h4v4h-4z"/><path fill="#AEFF00" d="M252 200h4v4h-4z"/><path fill="#5F360A" d="M256 200h4v4h-4zM260 200h4v4h-4zM184 204h4v4h-4zM188 204h4v4h-4z"/><path fill="#382908" d="M192 204h4v4h-4z"/><path fill="#5F360A" d="M196 204h4v4h-4z"/><path fill="#AEFF00" d="M200 204h4v4h-4z"/><path fill="#7C5022" d="M204 204h4v4h-4zM208 204h4v4h-4z"/><path fill="#382908" d="M212 204h4v4h-4zM216 204h4v4h-4zM220 204h4v4h-4zM224 204h4v4h-4zM228 204h4v4h-4zM232 204h4v4h-4zM236 204h4v4h-4z"/><path fill="#7D5424" d="M240 204h4v4h-4z"/><path fill="#7F5424" d="M244 204h4v4h-4z"/><path fill="#AEFF00" d="M248 204h4v4h-4zM252 204h4v4h-4z"/><path fill="#5F360A" d="M256 204h4v4h-4zM260 204h4v4h-4zM184 208h4v4h-4zM188 208h4v4h-4zM192 208h4v4h-4z"/><path fill="#9F2D0E" d="M196 208h4v4h-4z"/><path fill="#AEFF00" d="M200 208h4v4h-4zM204 208h4v4h-4z"/><path fill="#7F5424" d="M208 208h4v4h-4z"/><path fill="#795421" d="M212 208h4v4h-4z"/><path fill="#382908" d="M216 208h4v4h-4zM220 208h4v4h-4zM224 208h4v4h-4zM228 208h4v4h-4zM232 208h4v4h-4z"/><path fill="#7D5424" d="M236 208h4v4h-4z"/><path fill="#AEFF00" d="M240 208h4v4h-4zM244 208h4v4h-4zM248 208h4v4h-4zM252 208h4v4h-4z"/><path fill="#5F360A" d="M256 208h4v4h-4zM184 212h4v4h-4zM188 212h4v4h-4zM192 212h4v4h-4z"/><path fill="#9F2D0E" d="M196 212h4v4h-4z"/><path fill="#AEFF00" d="M200 212h4v4h-4zM204 212h4v4h-4zM208 212h4v4h-4zM212 212h4v4h-4zM216 212h4v4h-4z"/><path fill="#5F360A" d="M220 212h4v4h-4z"/><path fill="#382908" d="M224 212h4v4h-4zM228 212h4v4h-4z"/><path fill="#5F360A" d="M232 212h4v4h-4z"/><path fill="#714D27" d="M236 212h4v4h-4z"/><path fill="#AEFF00" d="M240 212h4v4h-4zM244 212h4v4h-4zM248 212h4v4h-4z"/><path fill="#A22D0E" d="M252 212h4v4h-4z"/><path fill="#5F360A" d="M256 212h4v4h-4zM176 216h4v4h-4zM188 216h4v4h-4zM192 216h4v4h-4z"/><path fill="#9F2D0E" d="M196 216h4v4h-4zM200 216h4v4h-4z"/><path fill="#AEFF00" d="M204 216h4v4h-4zM208 216h4v4h-4zM212 216h4v4h-4z"/><path fill="#714D27" d="M216 216h4v4h-4z"/><path fill="#5F360A" d="M220 216h4v4h-4z"/><path fill="#382908" d="M224 216h4v4h-4zM228 216h4v4h-4z"/><path fill="#5F360A" d="M232 216h4v4h-4z"/><path fill="#A02E0D" d="M236 216h4v4h-4z"/><path fill="#A22D0E" d="M240 216h4v4h-4zM244 216h4v4h-4zM248 216h4v4h-4z"/><path fill="#5F360A" d="M252 216h4v4h-4zM172 220h4v4h-4zM176 220h4v4h-4zM188 220h4v4h-4zM192 220h4v4h-4z"/><path fill="#714D27" d="M196 220h4v4h-4z"/><path fill="#9F2D0E" d="M200 220h4v4h-4zM204 220h4v4h-4zM208 220h4v4h-4zM212 220h4v4h-4z"/><path fill="#5F360A" d="M216 220h4v4h-4z"/><path fill="#382908" d="M220 220h4v4h-4zM224 220h4v4h-4z"/><path fill="#5F360A" d="M228 220h4v4h-4zM232 220h4v4h-4z"/><path fill="#A02E0D" d="M236 220h4v4h-4z"/><path fill="#9E2E0F" d="M240 220h4v4h-4z"/><path fill="#5F360A" d="M244 220h4v4h-4zM248 220h4v4h-4zM260 220h4v4h-4zM168 224h4v4h-4zM172 224h4v4h-4zM176 224h4v4h-4zM180 224h4v4h-4zM188 224h4v4h-4zM192 224h4v4h-4z"/><path fill="#714D27" d="M196 224h4v4h-4z"/><path fill="#9E2E0F" d="M200 224h4v4h-4zM204 224h4v4h-4z"/><path fill="#A02E0D" d="M208 224h4v4h-4z"/><path fill="#9F2D0E" d="M212 224h4v4h-4zM216 224h4v4h-4z"/><path fill="#5F360A" d="M220 224h4v4h-4zM224 224h4v4h-4zM228 224h4v4h-4z"/><path fill="#9F2D0E" d="M232 224h4v4h-4zM236 224h4v4h-4z"/><path fill="#5F360A" d="M240 224h4v4h-4zM244 224h4v4h-4zM248 224h4v4h-4zM260 224h4v4h-4zM264 224h4v4h-4zM168 228h4v4h-4zM172 228h4v4h-4zM176 228h4v4h-4zM180 228h4v4h-4zM184 228h4v4h-4zM188 228h4v4h-4zM192 228h4v4h-4z"/><path fill="#714D27" d="M196 228h4v4h-4z"/><path fill="#7E5225" d="M200 228h4v4h-4zM204 228h4v4h-4z"/><path fill="#9F2D0E" d="M208 228h4v4h-4zM212 228h4v4h-4zM216 228h4v4h-4z"/><path fill="#7D5123" d="M220 228h4v4h-4zM224 228h4v4h-4z"/><path fill="#9F2D0E" d="M228 228h4v4h-4zM232 228h4v4h-4zM236 228h4v4h-4z"/><path fill="#5F360A" d="M240 228h4v4h-4zM244 228h4v4h-4zM248 228h4v4h-4zM252 228h4v4h-4zM256 228h4v4h-4zM260 228h4v4h-4zM264 228h4v4h-4zM164 232h4v4h-4zM168 232h4v4h-4zM172 232h4v4h-4zM176 232h4v4h-4zM180 232h4v4h-4zM184 232h4v4h-4z"/><path fill="#727A27" d="M188 232h4v4h-4zM192 232h4v4h-4z"/><path fill="#714D27" d="M196 232h4v4h-4z"/><path fill="#F1D1AB" d="M200 232h4v4h-4z"/><path fill="#7E5225" d="M204 232h4v4h-4z"/><path fill="#9F2D0E" d="M208 232h4v4h-4zM212 232h4v4h-4zM216 232h4v4h-4z"/><path fill="#724E26" d="M220 232h4v4h-4z"/><path fill="#7E5225" d="M224 232h4v4h-4z"/><path fill="#9F2D0E" d="M228 232h4v4h-4zM232 232h4v4h-4zM236 232h4v4h-4z"/><path fill="#5F360A" d="M240 232h4v4h-4zM244 232h4v4h-4zM248 232h4v4h-4z"/><path fill="#F1D1AB" d="M252 232h4v4h-4z"/><path fill="#5F360A" d="M256 232h4v4h-4zM260 232h4v4h-4zM264 232h4v4h-4zM268 232h4v4h-4zM164 236h4v4h-4zM168 236h4v4h-4zM172 236h4v4h-4zM176 236h4v4h-4zM180 236h4v4h-4z"/><path fill="#727A27" d="M184 236h4v4h-4zM188 236h4v4h-4zM192 236h4v4h-4z"/><path fill="#714D27" d="M196 236h4v4h-4z"/><path fill="#F1D1AB" d="M200 236h4v4h-4z"/><path fill="#7E5225" d="M204 236h4v4h-4z"/><path fill="#9F2D0E" d="M208 236h4v4h-4zM212 236h4v4h-4zM216 236h4v4h-4z"/><path fill="#734F26" d="M220 236h4v4h-4z"/><path fill="#724E26" d="M224 236h4v4h-4z"/><path fill="#9F2D0E" d="M228 236h4v4h-4zM232 236h4v4h-4zM236 236h4v4h-4z"/><path fill="#7D5126" d="M240 236h4v4h-4z"/><path fill="#5F360A" d="M244 236h4v4h-4zM248 236h4v4h-4z"/><path fill="#F1D1AB" d="M252 236h4v4h-4z"/><path fill="#5F360A" d="M256 236h4v4h-4zM260 236h4v4h-4zM264 236h4v4h-4zM268 236h4v4h-4zM164 240h4v4h-4zM168 240h4v4h-4zM172 240h4v4h-4zM176 240h4v4h-4zM180 240h4v4h-4z"/><path fill="#727A27" d="M184 240h4v4h-4zM188 240h4v4h-4zM192 240h4v4h-4zM196 240h4v4h-4z"/><path fill="#F1D1AB" d="M200 240h4v4h-4zM204 240h4v4h-4z"/><path fill="#61380C" d="M208 240h4v4h-4zM212 240h4v4h-4z"/><path fill="#7D5123" d="M216 240h4v4h-4z"/><path fill="#745025" d="M220 240h4v4h-4z"/><path fill="#734F26" d="M224 240h4v4h-4z"/><path fill="#7D5126" d="M228 240h4v4h-4z"/><path fill="#745025" d="M232 240h4v4h-4z"/><path fill="#7D5123" d="M236 240h4v4h-4zM240 240h4v4h-4z"/><path fill="#61380C" d="M244 240h4v4h-4z"/><path fill="#F1D1AB" d="M248 240h4v4h-4zM252 240h4v4h-4z"/><path fill="#727A27" d="M256 240h4v4h-4z"/><path fill="#5F360A" d="M260 240h4v4h-4zM264 240h4v4h-4zM268 240h4v4h-4zM164 244h4v4h-4zM168 244h4v4h-4zM172 244h4v4h-4zM176 244h4v4h-4z"/><path fill="#727A27" d="M180 244h4v4h-4zM184 244h4v4h-4z"/><path fill="#A5B226" d="M188 244h4v4h-4z"/><path fill="#714D27" d="M192 244h4v4h-4zM196 244h4v4h-4z"/><path fill="#F1D1AB" d="M200 244h4v4h-4zM204 244h4v4h-4zM208 244h4v4h-4z"/><path fill="#61380C" d="M212 244h4v4h-4zM216 244h4v4h-4zM220 244h4v4h-4zM224 244h4v4h-4zM228 244h4v4h-4zM232 244h4v4h-4zM236 244h4v4h-4zM240 244h4v4h-4z"/><path fill="#F0D0A9" d="M244 244h4v4h-4z"/><path fill="#F1D1AB" d="M248 244h4v4h-4zM252 244h4v4h-4z"/><path fill="#727A27" d="M256 244h4v4h-4z"/><path fill="#A5B226" d="M260 244h4v4h-4z"/><path fill="#5F360A" d="M264 244h4v4h-4zM268 244h4v4h-4zM164 248h4v4h-4zM172 248h4v4h-4z"/><path fill="#727A27" d="M176 248h4v4h-4zM180 248h4v4h-4z"/><path fill="#A5B226" d="M184 248h4v4h-4zM188 248h4v4h-4z"/><path fill="#714D27" d="M192 248h4v4h-4zM196 248h4v4h-4z"/><path fill="#F1D1AB" d="M200 248h4v4h-4zM204 248h4v4h-4zM208 248h4v4h-4z"/><path fill="#F3D3AD" d="M212 248h4v4h-4z"/><path fill="#B67D66" d="M216 248h4v4h-4z"/><path fill="#F1D1AB" d="M220 248h4v4h-4zM224 248h4v4h-4z"/><path fill="#B57C65" d="M228 248h4v4h-4z"/><path fill="#F1D1AB" d="M232 248h4v4h-4z"/><path fill="#B67D66" d="M236 248h4v4h-4z"/><path fill="#F3D3AD" d="M240 248h4v4h-4z"/><path fill="#F0D0A9" d="M244 248h4v4h-4z"/><path fill="#F1D1AB" d="M248 248h4v4h-4zM252 248h4v4h-4z"/><path fill="#727A27" d="M256 248h4v4h-4z"/><path fill="#A5B226" d="M260 248h4v4h-4z"/><path fill="#5F360A" d="M264 248h4v4h-4zM268 248h4v4h-4zM172 252h4v4h-4z"/><path fill="#595D2D" d="M176 252h4v4h-4z"/><path fill="#A5B226" d="M180 252h4v4h-4zM184 252h4v4h-4zM188 252h4v4h-4z"/><path fill="#714D27" d="M192 252h4v4h-4zM196 252h4v4h-4z"/><path fill="#9C2F10" d="M200 252h4v4h-4z"/><path fill="#F1D1AB" d="M204 252h4v4h-4z"/><path fill="#F5D5AF" d="M208 252h4v4h-4z"/><path fill="#E78090" d="M212 252h4v4h-4zM216 252h4v4h-4z"/><path fill="#8D7064" d="M220 252h4v4h-4z"/><path fill="#B57C66" d="M224 252h4v4h-4zM228 252h4v4h-4zM232 252h4v4h-4z"/><path fill="#E78090" d="M236 252h4v4h-4zM240 252h4v4h-4z"/><path fill="#F5D5AF" d="M244 252h4v4h-4z"/><path fill="#F1D1AB" d="M248 252h4v4h-4z"/><path fill="#9C2F10" d="M252 252h4v4h-4z"/><path fill="#727A27" d="M256 252h4v4h-4z"/><path fill="#A5B226" d="M260 252h4v4h-4z"/><path fill="#727A27" d="M264 252h4v4h-4z"/><path fill="#5F360A" d="M268 252h4v4h-4z"/><path fill="#595D2D" d="M176 256h4v4h-4zM180 256h4v4h-4z"/><path fill="#A5B226" d="M184 256h4v4h-4zM188 256h4v4h-4z"/><path fill="#714D27" d="M192 256h4v4h-4zM196 256h4v4h-4z"/><path fill="#9C2F10" d="M200 256h4v4h-4z"/><path fill="#61380C" d="M204 256h4v4h-4z"/><path fill="#B67D67" d="M208 256h4v4h-4z"/><path fill="#9C2F10" d="M212 256h4v4h-4zM216 256h4v4h-4zM220 256h4v4h-4zM224 256h4v4h-4zM228 256h4v4h-4zM232 256h4v4h-4zM236 256h4v4h-4zM240 256h4v4h-4zM244 256h4v4h-4zM248 256h4v4h-4zM252 256h4v4h-4zM256 256h4v4h-4z"/><path fill="#A5B226" d="M260 256h4v4h-4z"/><path fill="#727A27" d="M264 256h4v4h-4z"/><path fill="#5F360A" d="M268 256h4v4h-4z"/><path fill="#595D2D" d="M176 260h4v4h-4zM180 260h4v4h-4zM184 260h4v4h-4zM188 260h4v4h-4z"/><path fill="#727A27" d="M192 260h4v4h-4z"/><path fill="#714D27" d="M196 260h4v4h-4zM200 260h4v4h-4z"/><path fill="#9C2F10" d="M204 260h4v4h-4zM208 260h4v4h-4zM212 260h4v4h-4zM216 260h4v4h-4zM220 260h4v4h-4zM224 260h4v4h-4zM228 260h4v4h-4zM232 260h4v4h-4zM236 260h4v4h-4zM240 260h4v4h-4zM244 260h4v4h-4zM248 260h4v4h-4zM252 260h4v4h-4zM256 260h4v4h-4z"/><path fill="#727A27" d="M260 260h4v4h-4z"/><path fill="#595D2D" d="M264 260h4v4h-4zM268 260h4v4h-4zM172 264h4v4h-4zM176 264h4v4h-4zM180 264h4v4h-4zM184 264h4v4h-4zM188 264h4v4h-4z"/><path fill="#727A27" d="M192 264h4v4h-4zM196 264h4v4h-4zM200 264h4v4h-4z"/><path fill="#9C2F10" d="M204 264h4v4h-4zM208 264h4v4h-4zM212 264h4v4h-4zM216 264h4v4h-4zM220 264h4v4h-4zM224 264h4v4h-4z"/><path fill="#61380C" d="M228 264h4v4h-4zM232 264h4v4h-4zM236 264h4v4h-4zM240 264h4v4h-4z"/><path fill="#9C2F10" d="M244 264h4v4h-4zM248 264h4v4h-4zM252 264h4v4h-4z"/><path fill="#595D2D" d="M256 264h4v4h-4zM260 264h4v4h-4zM264 264h4v4h-4zM176 268h4v4h-4zM184 268h4v4h-4zM188 268h4v4h-4zM192 268h4v4h-4zM196 268h4v4h-4z"/><path fill="#727A27" d="M200 268h4v4h-4zM204 268h4v4h-4zM208 268h4v4h-4z"/><path fill="#61380C" d="M212 268h4v4h-4zM216 268h4v4h-4zM220 268h4v4h-4zM224 268h4v4h-4z"/><path fill="#727A27" d="M228 268h4v4h-4z"/><path fill="#A5B226" d="M232 268h4v4h-4z"/><path fill="#61380C" d="M236 268h4v4h-4z"/><path fill="#64401A" d="M240 268h4v4h-4z"/><path fill="#727A27" d="M244 268h4v4h-4zM248 268h4v4h-4z"/><path fill="#595D2D" d="M252 268h4v4h-4zM256 268h4v4h-4zM260 268h4v4h-4zM264 268h4v4h-4z"/><path fill="#889514" d="M184 272h4v4h-4z"/><path fill="#595D2D" d="M188 272h4v4h-4zM192 272h4v4h-4zM196 272h4v4h-4zM200 272h4v4h-4z"/><path fill="#727A27" d="M204 272h4v4h-4zM208 272h4v4h-4z"/><path fill="#7C5022" d="M212 272h4v4h-4z"/><path fill="#714D27" d="M216 272h4v4h-4zM220 272h4v4h-4z"/><path fill="#7C5022" d="M224 272h4v4h-4z"/><path fill="#727A27" d="M228 272h4v4h-4z"/><path fill="#A5B226" d="M232 272h4v4h-4z"/><path fill="#727A27" d="M236 272h4v4h-4z"/><path fill="#64401A" d="M240 272h4v4h-4z"/><path fill="#727A27" d="M244 272h4v4h-4zM248 272h4v4h-4z"/><path fill="#595D2D" d="M252 272h4v4h-4zM256 272h4v4h-4zM260 272h4v4h-4zM264 272h4v4h-4z"/><path fill="#889514" d="M180 276h4v4h-4zM184 276h4v4h-4zM188 276h4v4h-4z"/><path fill="#595D2D" d="M192 276h4v4h-4zM196 276h4v4h-4zM200 276h4v4h-4z"/><path fill="#727A27" d="M204 276h4v4h-4zM208 276h4v4h-4z"/><path fill="#7C5022" d="M212 276h4v4h-4z"/><path fill="#714D27" d="M216 276h4v4h-4zM220 276h4v4h-4z"/><path fill="#727A27" d="M224 276h4v4h-4zM228 276h4v4h-4z"/><path fill="#A5B226" d="M232 276h4v4h-4z"/><path fill="#727A27" d="M236 276h4v4h-4zM240 276h4v4h-4z"/><path fill="#A5B226" d="M244 276h4v4h-4z"/><path fill="#727A27" d="M248 276h4v4h-4z"/><path fill="#595D2D" d="M252 276h4v4h-4zM256 276h4v4h-4zM260 276h4v4h-4z"/><path fill="#889514" d="M184 280h4v4h-4z"/><path fill="#595D2D" d="M188 280h4v4h-4zM192 280h4v4h-4zM196 280h4v4h-4zM200 280h4v4h-4z"/><path fill="#727A27" d="M204 280h4v4h-4zM208 280h4v4h-4zM212 280h4v4h-4zM216 280h4v4h-4zM220 280h4v4h-4zM224 280h4v4h-4z"/><path fill="#A5B226" d="M228 280h4v4h-4zM232 280h4v4h-4zM236 280h4v4h-4zM240 280h4v4h-4zM244 280h4v4h-4z"/><path fill="#727A27" d="M248 280h4v4h-4z"/><path fill="#595D2D" d="M252 280h4v4h-4zM256 280h4v4h-4zM260 280h4v4h-4zM188 284h4v4h-4zM192 284h4v4h-4zM196 284h4v4h-4zM200 284h4v4h-4z"/><path fill="#727A27" d="M204 284h4v4h-4zM208 284h4v4h-4z"/><path fill="#A5B226" d="M212 284h4v4h-4z"/><path fill="#727A27" d="M216 284h4v4h-4z"/><path fill="#A5B226" d="M220 284h4v4h-4zM224 284h4v4h-4zM228 284h4v4h-4zM232 284h4v4h-4zM236 284h4v4h-4zM240 284h4v4h-4z"/><path fill="#727A27" d="M244 284h4v4h-4zM248 284h4v4h-4z"/><path fill="#595D2D" d="M252 284h4v4h-4zM256 284h4v4h-4zM260 284h4v4h-4zM192 288h4v4h-4zM196 288h4v4h-4zM200 288h4v4h-4zM204 288h4v4h-4z"/><path fill="#727A27" d="M208 288h4v4h-4z"/><path fill="#A5B226" d="M212 288h4v4h-4z"/><path fill="#727A27" d="M216 288h4v4h-4z"/><path fill="#A5B226" d="M220 288h4v4h-4zM224 288h4v4h-4zM228 288h4v4h-4zM232 288h4v4h-4z"/><path fill="#727A27" d="M236 288h4v4h-4z"/><path fill="#A5B226" d="M240 288h4v4h-4z"/><path fill="#727A27" d="M244 288h4v4h-4z"/><path fill="#595D2D" d="M248 288h4v4h-4zM252 288h4v4h-4zM256 288h4v4h-4zM196 292h4v4h-4zM200 292h4v4h-4zM204 292h4v4h-4z"/><path fill="#727A27" d="M208 292h4v4h-4z"/><path fill="#595D2D" d="M212 292h4v4h-4z"/><path fill="#727A27" d="M216 292h4v4h-4z"/><path fill="#A5B226" d="M220 292h4v4h-4zM224 292h4v4h-4zM228 292h4v4h-4zM232 292h4v4h-4z"/><path fill="#727A27" d="M236 292h4v4h-4z"/><path fill="#A5B226" d="M240 292h4v4h-4zM244 292h4v4h-4z"/><path fill="#595D2D" d="M248 292h4v4h-4zM252 292h4v4h-4zM256 292h4v4h-4zM208 296h4v4h-4zM212 296h4v4h-4z"/><path fill="#727A27" d="M216 296h4v4h-4zM220 296h4v4h-4z"/><path fill="#A5B226" d="M224 296h4v4h-4z"/><path fill="#727A27" d="M228 296h4v4h-4z"/><path fill="#A5B226" d="M232 296h4v4h-4zM236 296h4v4h-4z"/><path fill="#727A27" d="M240 296h4v4h-4z"/><path fill="#A5B226" d="M244 296h4v4h-4z"/><path fill="#595D2D" d="M248 296h4v4h-4zM252 296h4v4h-4zM212 300h4v4h-4zM216 300h4v4h-4z"/><path fill="#727A27" d="M220 300h4v4h-4zM224 300h4v4h-4zM228 300h4v4h-4z"/><path fill="#A5B226" d="M232 300h4v4h-4zM236 300h4v4h-4zM240 300h4v4h-4z"/><path fill="#595D2D" d="M244 300h4v4h-4zM252 300h4v4h-4zM212 304h4v4h-4zM220 304h4v4h-4z"/><path fill="#727A27" d="M224 304h4v4h-4zM228 304h4v4h-4z"/><path fill="#A5B226" d="M232 304h4v4h-4zM236 304h4v4h-4zM240 304h4v4h-4z"/><path fill="#595D2D" d="M244 304h4v4h-4zM224 308h4v4h-4z"/><path fill="#727A27" d="M228 308h4v4h-4zM232 308h4v4h-4z"/><path fill="#A5B226" d="M236 308h4v4h-4zM240 308h4v4h-4z"/><path fill="#595D2D" d="M232 312h4v4h-4z"/><path fill="#A5B226" d="M236 312h4v4h-4zM240 312h4v4h-4zM236 316h4v4h-4z"/></svg>