<svg width="384" height="384" xmlns="http://www.w3.org/2000/svg" shape-rendering="crispEdges"><path fill="#580600" d="M260 188h4v4h-4zM196 192h4v4h-4zM240 192h4v4h-4zM244 192h4v4h-4zM248 192h4v4h-4zM252 192h4v4h-4zM256 192h4v4h-4zM260 192h4v4h-4zM196 196h4v4h-4zM200 196h4v4h-4zM204 196h4v4h-4zM208 196h4v4h-4zM212 196h4v4h-4zM216 196h4v4h-4zM220 196h4v4h-4zM236 196h4v4h-4zM240 196h4v4h-4zM244 196h4v4h-4zM248 196h4v4h-4zM252 196h4v4h-4zM256 196h4v4h-4zM260 196h4v4h-4zM196 200h4v4h-4zM200 200h4v4h-4zM204 200h4v4h-4zM208 200h4v4h-4zM212 200h4v4h-4zM216 200h4v4h-4zM220 200h4v4h-4zM224 200h4v4h-4zM236 200h4v4h-4zM240 200h4v4h-4zM244 200h4v4h-4zM248 200h4v4h-4zM252 200h4v4h-4z"/><path fill="#750400" d="M256 200h4v4h-4z"/><path fill="#580600" d="M204 204h4v4h-4zM208 204h4v4h-4zM212 204h4v4h-4zM216 204h4v4h-4zM220 204h4v4h-4zM224 204h4v4h-4z"/><path fill="#750400" d="M236 204h4v4h-4z"/><path fill="#A72D0D" d="M240 204h4v4h-4zM244 204h4v4h-4zM248 204h4v4h-4zM252 204h4v4h-4zM256 204h4v4h-4z"/><path fill="#750400" d="M260 204h4v4h-4zM200 208h4v4h-4z"/><path fill="#A72D0D" d="M204 208h4v4h-4zM208 208h4v4h-4zM212 208h4v4h-4zM216 208h4v4h-4zM220 208h4v4h-4z"/><path fill="#750400" d="M224 208h4v4h-4zM232 208h4v4h-4z"/><path fill="#943115" d="M236 208h4v4h-4z"/><path fill="#47FF00" d="M240 208h4v4h-4zM244 208h4v4h-4z"/><path fill="#FFFF75" d="M248 208h4v4h-4z"/><path fill="#A72D0D" d="M252 208h4v4h-4zM256 208h4v4h-4z"/><path fill="#750400" d="M260 208h4v4h-4zM196 212h4v4h-4z"/><path fill="#943115" d="M200 212h4v4h-4z"/><path fill="#A72D0D" d="M204 212h4v4h-4zM208 212h4v4h-4z"/><path fill="#FFFF75" d="M212 212h4v4h-4z"/><path fill="#47FF00" d="M216 212h4v4h-4zM220 212h4v4h-4z"/><path fill="#750400" d="M224 212h4v4h-4zM232 212h4v4h-4z"/><path fill="#943115" d="M236 212h4v4h-4z"/><path fill="#47FF00" d="M240 212h4v4h-4zM244 212h4v4h-4z"/><path fill="#FFFF75" d="M248 212h4v4h-4zM252 212h4v4h-4zM256 212h4v4h-4z"/><path fill="#750400" d="M260 212h4v4h-4zM196 216h4v4h-4z"/><path fill="#943115" d="M200 216h4v4h-4z"/><path fill="#FFFF75" d="M204 216h4v4h-4zM208 216h4v4h-4zM212 216h4v4h-4z"/><path fill="#47FF00" d="M216 216h4v4h-4zM220 216h4v4h-4z"/><path fill="#750400" d="M224 216h4v4h-4zM236 216h4v4h-4z"/><path fill="#943115" d="M240 216h4v4h-4z"/><path fill="#FFFF75" d="M244 216h4v4h-4zM248 216h4v4h-4zM252 216h4v4h-4z"/><path fill="#943115" d="M256 216h4v4h-4z"/><path fill="#750400" d="M260 216h4v4h-4zM196 220h4v4h-4z"/><path fill="#943115" d="M200 220h4v4h-4zM204 220h4v4h-4z"/><path fill="#FFFF75" d="M208 220h4v4h-4zM212 220h4v4h-4zM216 220h4v4h-4z"/><path fill="#943115" d="M220 220h4v4h-4z"/><path fill="#750400" d="M224 220h4v4h-4zM240 220h4v4h-4z"/><path fill="#943115" d="M244 220h4v4h-4zM248 220h4v4h-4zM252 220h4v4h-4z"/><path fill="#750400" d="M256 220h4v4h-4zM200 224h4v4h-4z"/><path fill="#943115" d="M204 224h4v4h-4zM208 224h4v4h-4zM212 224h4v4h-4zM216 224h4v4h-4z"/><path fill="#750400" d="M220 224h4v4h-4zM240 224h4v4h-4z"/><path fill="#943115" d="M244 224h4v4h-4z"/><path fill="#750400" d="M248 224h4v4h-4zM252 224h4v4h-4zM200 228h4v4h-4z"/><path fill="#943115" d="M204 228h4v4h-4zM208 228h4v4h-4z"/><path fill="#750400" d="M212 228h4v4h-4zM216 228h4v4h-4zM236 228h4v4h-4z"/><path fill="#943115" d="M240 228h4v4h-4z"/><path fill="#750400" d="M244 228h4v4h-4zM200 232h4v4h-4z"/><path fill="#943115" d="M204 232h4v4h-4zM208 232h4v4h-4z"/><path fill="#750400" d="M212 232h4v4h-4zM216 232h4v4h-4zM220 232h4v4h-4zM224 232h4v4h-4zM228 232h4v4h-4zM232 232h4v4h-4z"/><path fill="#943115" d="M236 232h4v4h-4zM240 232h4v4h-4z"/><path fill="#750400" d="M244 232h4v4h-4zM200 236h4v4h-4z"/><path fill="#A72D0D" d="M204 236h4v4h-4z"/><path fill="#943115" d="M208 236h4v4h-4zM212 236h4v4h-4z"/><path fill="#A72D0D" d="M216 236h4v4h-4zM220 236h4v4h-4zM224 236h4v4h-4zM228 236h4v4h-4zM232 236h4v4h-4zM236 236h4v4h-4z"/><path fill="#943115" d="M240 236h4v4h-4z"/><path fill="#750400" d="M244 236h4v4h-4zM196 240h4v4h-4z"/><path fill="#A72D0D" d="M200 240h4v4h-4zM204 240h4v4h-4z"/><path fill="#943115" d="M208 240h4v4h-4zM212 240h4v4h-4z"/><path fill="#580600" d="M216 240h4v4h-4zM220 240h4v4h-4zM224 240h4v4h-4z"/><path fill="#A72D0D" d="M228 240h4v4h-4zM232 240h4v4h-4zM236 240h4v4h-4z"/><path fill="#580600" d="M240 240h4v4h-4zM244 240h4v4h-4z"/><path fill="#750400" d="M248 240h4v4h-4zM196 244h4v4h-4z"/><path fill="#943115" d="M200 244h4v4h-4z"/><path fill="#A72D0D" d="M204 244h4v4h-4z"/><path fill="#943115" d="M208 244h4v4h-4z"/><path fill="#580600" d="M212 244h4v4h-4z"/><path fill="#943115" d="M216 244h4v4h-4zM220 244h4v4h-4z"/><path fill="#A72D0D" d="M224 244h4v4h-4zM228 244h4v4h-4zM232 244h4v4h-4zM236 244h4v4h-4zM240 244h4v4h-4zM244 244h4v4h-4z"/><path fill="#580600" d="M248 244h4v4h-4z"/><path fill="#750400" d="M192 248h4v4h-4z"/><path fill="#943115" d="M196 248h4v4h-4zM200 248h4v4h-4z"/><path fill="#A72D0D" d="M204 248h4v4h-4zM208 248h4v4h-4z"/><path fill="#580600" d="M212 248h4v4h-4z"/><path fill="#750400" d="M216 248h4v4h-4zM220 248h4v4h-4zM224 248h4v4h-4zM228 248h4v4h-4zM232 248h4v4h-4zM236 248h4v4h-4zM240 248h4v4h-4zM244 248h4v4h-4z"/><path fill="#580600" d="M248 248h4v4h-4z"/><path fill="#750400" d="M252 248h4v4h-4zM192 252h4v4h-4z"/><path fill="#943115" d="M196 252h4v4h-4zM200 252h4v4h-4zM204 252h4v4h-4z"/><path fill="#A72D0D" d="M208 252h4v4h-4z"/><path fill="#580600" d="M212 252h4v4h-4z"/><path fill="#943115" d="M216 252h4v4h-4z"/><path fill="#FA8750" d="M220 252h4v4h-4z"/><path fill="#943115" d="M224 252h4v4h-4zM228 252h4v4h-4zM232 252h4v4h-4zM236 252h4v4h-4z"/><path fill="#FA8750" d="M240 252h4v4h-4z"/><path fill="#750400" d="M244 252h4v4h-4z"/><path fill="#580600" d="M248 252h4v4h-4z"/><path fill="#750400" d="M252 252h4v4h-4zM192 256h4v4h-4z"/><path fill="#943115" d="M196 256h4v4h-4zM200 256h4v4h-4zM204 256h4v4h-4z"/><path fill="#A72D0D" d="M208 256h4v4h-4z"/><path fill="#580600" d="M212 256h4v4h-4z"/><path fill="#943115" d="M216 256h4v4h-4z"/><path fill="#FA8750" d="M220 256h4v4h-4z"/><path fill="#943115" d="M224 256h4v4h-4z"/><path fill="#A72D0D" d="M228 256h4v4h-4z"/><path fill="#943115" d="M232 256h4v4h-4z"/><path fill="#A72D0D" d="M236 256h4v4h-4z"/><path fill="#FA8750" d="M240 256h4v4h-4z"/><path fill="#750400" d="M244 256h4v4h-4z"/><path fill="#580600" d="M248 256h4v4h-4z"/><path fill="#750400" d="M252 256h4v4h-4zM192 260h4v4h-4z"/><path fill="#943115" d="M196 260h4v4h-4zM200 260h4v4h-4zM204 260h4v4h-4z"/><path fill="#A72D0D" d="M208 260h4v4h-4z"/><path fill="#580600" d="M212 260h4v4h-4z"/><path fill="#943115" d="M216 260h4v4h-4zM220 260h4v4h-4zM224 260h4v4h-4z"/><path fill="#A72D0D" d="M228 260h4v4h-4z"/><path fill="#943115" d="M232 260h4v4h-4z"/><path fill="#A72D0D" d="M236 260h4v4h-4z"/><path fill="#943115" d="M240 260h4v4h-4z"/><path fill="#750400" d="M244 260h4v4h-4z"/><path fill="#580600" d="M248 260h4v4h-4z"/><path fill="#750400" d="M252 260h4v4h-4zM192 264h4v4h-4z"/><path fill="#943115" d="M196 264h4v4h-4zM200 264h4v4h-4zM204 264h4v4h-4zM208 264h4v4h-4z"/><path fill="#580600" d="M212 264h4v4h-4z"/><path fill="#943115" d="M216 264h4v4h-4zM220 264h4v4h-4zM224 264h4v4h-4z"/><path fill="#A72D0D" d="M228 264h4v4h-4z"/><path fill="#943115" d="M232 264h4v4h-4z"/><path fill="#A72D0D" d="M236 264h4v4h-4z"/><path fill="#943115" d="M240 264h4v4h-4z"/><path fill="#750400" d="M244 264h4v4h-4z"/><path fill="#580600" d="M248 264h4v4h-4z"/><path fill="#750400" d="M252 264h4v4h-4zM192 268h4v4h-4z"/><path fill="#7E1900" d="M196 268h4v4h-4z"/><path fill="#943115" d="M200 268h4v4h-4zM204 268h4v4h-4zM208 268h4v4h-4z"/><path fill="#580600" d="M212 268h4v4h-4z"/><path fill="#943115" d="M216 268h4v4h-4zM220 268h4v4h-4zM224 268h4v4h-4z"/><path fill="#A72D0D" d="M228 268h4v4h-4z"/><path fill="#943115" d="M232 268h4v4h-4z"/><path fill="#A72D0D" d="M236 268h4v4h-4z"/><path fill="#943115" d="M240 268h4v4h-4z"/><path fill="#750400" d="M244 268h4v4h-4z"/><path fill="#580600" d="M248 268h4v4h-4z"/><path fill="#750400" d="M252 268h4v4h-4zM196 272h4v4h-4z"/><path fill="#7E1900" d="M200 272h4v4h-4z"/><path fill="#943115" d="M204 272h4v4h-4zM208 272h4v4h-4z"/><path fill="#580600" d="M212 272h4v4h-4z"/><path fill="#943115" d="M216 272h4v4h-4zM220 272h4v4h-4zM224 272h4v4h-4z"/><path fill="#A72D0D" d="M228 272h4v4h-4z"/><path fill="#943115" d="M232 272h4v4h-4z"/><path fill="#A72D0D" d="M236 272h4v4h-4z"/><path fill="#943115" d="M240 272h4v4h-4z"/><path fill="#7E1900" d="M244 272h4v4h-4z"/><path fill="#580600" d="M248 272h4v4h-4z"/><path fill="#750400" d="M196 276h4v4h-4z"/><path fill="#7E1900" d="M200 276h4v4h-4zM204 276h4v4h-4z"/><path fill="#943115" d="M208 276h4v4h-4z"/><path fill="#580600" d="M212 276h4v4h-4z"/><path fill="#A72D0D" d="M216 276h4v4h-4z"/><path fill="#943115" d="M220 276h4v4h-4zM224 276h4v4h-4z"/><path fill="#A72D0D" d="M228 276h4v4h-4z"/><path fill="#943115" d="M232 276h4v4h-4z"/><path fill="#A72D0D" d="M236 276h4v4h-4z"/><path fill="#943115" d="M240 276h4v4h-4z"/><path fill="#7E1900" d="M244 276h4v4h-4z"/><path fill="#580600" d="M248 276h4v4h-4z"/><path fill="#750400" d="M200 280h4v4h-4z"/><path fill="#7E1900" d="M204 280h4v4h-4zM208 280h4v4h-4z"/><path fill="#580600" d="M212 280h4v4h-4z"/><path fill="#A72D0D" d="M216 280h4v4h-4z"/><path fill="#943115" d="M220 280h4v4h-4zM224 280h4v4h-4z"/><path fill="#A72D0D" d="M228 280h4v4h-4z"/><path fill="#943115" d="M232 280h4v4h-4z"/><path fill="#A72D0D" d="M236 280h4v4h-4z"/><path fill="#7E1900" d="M240 280h4v4h-4z"/><path fill="#750400" d="M244 280h4v4h-4z"/><path fill="#580600" d="M248 280h4v4h-4z"/><path fill="#750400" d="M204 284h4v4h-4z"/><path fill="#7E1900" d="M208 284h4v4h-4z"/><path fill="#580600" d="M212 284h4v4h-4z"/><path fill="#7E1900" d="M216 284h4v4h-4zM220 284h4v4h-4zM224 284h4v4h-4zM228 284h4v4h-4zM232 284h4v4h-4zM236 284h4v4h-4zM240 284h4v4h-4z"/><path fill="#750400" d="M244 284h4v4h-4z"/><path fill="#580600" d="M248 284h4v4h-4z"/><path fill="#750400" d="M208 288h4v4h-4z"/><path fill="#580600" d="M212 288h4v4h-4z"/><path fill="#7E1900" d="M216 288h4v4h-4zM220 288h4v4h-4zM224 288h4v4h-4zM228 288h4v4h-4zM232 288h4v4h-4zM236 288h4v4h-4z"/><path fill="#750400" d="M240 288h4v4h-4z"/><path fill="#580600" d="M248 288h4v4h-4zM212 292h4v4h-4z"/><path fill="#7E1900" d="M216 292h4v4h-4zM220 292h4v4h-4zM224 292h4v4h-4zM228 292h4v4h-4zM232 292h4v4h-4z"/><path fill="#750400" d="M236 292h4v4h-4z"/><path fill="#580600" d="M248 292h4v4h-4zM212 296h4v4h-4z"/><path fill="#750400" d="M216 296h4v4h-4zM220 296h4v4h-4zM224 296h4v4h-4zM228 296h4v4h-4zM232 296h4v4h-4z"/><path fill="#580600" d="M248 296h4v4h-4zM212 300h4v4h-4zM248 300h4v4h-4zM216 304h4v4h-4zM248 304h4v4h-4zM216 308h4v4h-4zM248 308h4v4h-4zM216 312h4v4h-4zM248 312h4v4h-4zM216 316h4v4h-4zM248 316h4v4h-4zM248 320h4v4h-4z"/></svg>