<svg width="384" height="384" xmlns="http://www.w3.org/2000/svg" shape-rendering="crispEdges"><path fill="#F74E75" d="M216 124h4v4h-4zM220 124h4v4h-4zM224 124h4v4h-4zM212 128h4v4h-4zM216 128h4v4h-4zM220 128h4v4h-4zM212 132h4v4h-4zM232 164h4v4h-4zM236 164h4v4h-4zM240 164h4v4h-4zM200 168h4v4h-4zM228 168h4v4h-4z"/><path fill="#FF7B56" d="M232 168h4v4h-4zM236 168h4v4h-4zM240 168h4v4h-4z"/><path fill="#F74E75" d="M244 168h4v4h-4zM200 172h4v4h-4zM204 172h4v4h-4zM224 172h4v4h-4z"/><path fill="#FF7B56" d="M228 172h4v4h-4zM232 172h4v4h-4zM236 172h4v4h-4zM240 172h4v4h-4zM244 172h4v4h-4z"/><path fill="#F74E75" d="M248 172h4v4h-4zM196 176h4v4h-4z"/><path fill="#FF7B56" d="M200 176h4v4h-4zM204 176h4v4h-4z"/><path fill="#F74E75" d="M208 176h4v4h-4zM212 176h4v4h-4zM216 176h4v4h-4zM224 176h4v4h-4z"/><path fill="#FF7B56" d="M228 176h4v4h-4zM232 176h4v4h-4zM236 176h4v4h-4zM240 176h4v4h-4zM244 176h4v4h-4z"/><path fill="#F74E75" d="M248 176h4v4h-4zM196 180h4v4h-4z"/><path fill="#FF7B56" d="M200 180h4v4h-4zM204 180h4v4h-4zM208 180h4v4h-4zM212 180h4v4h-4zM216 180h4v4h-4z"/><path fill="#FFFD0B" d="M220 180h4v4h-4zM224 180h4v4h-4z"/><path fill="#FF7B56" d="M228 180h4v4h-4zM232 180h4v4h-4zM236 180h4v4h-4zM240 180h4v4h-4zM244 180h4v4h-4zM248 180h4v4h-4z"/><path fill="#F74E75" d="M252 180h4v4h-4zM260 180h4v4h-4zM196 184h4v4h-4z"/><path fill="#FF7B56" d="M200 184h4v4h-4zM204 184h4v4h-4zM208 184h4v4h-4zM212 184h4v4h-4zM216 184h4v4h-4zM220 184h4v4h-4zM224 184h4v4h-4z"/><path fill="#FFFD0B" d="M228 184h4v4h-4z"/><path fill="#FF7B56" d="M232 184h4v4h-4zM236 184h4v4h-4zM240 184h4v4h-4zM244 184h4v4h-4zM248 184h4v4h-4zM252 184h4v4h-4z"/><path fill="#F74E75" d="M256 184h4v4h-4zM260 184h4v4h-4zM192 188h4v4h-4z"/><path fill="#FF7B56" d="M196 188h4v4h-4zM200 188h4v4h-4zM204 188h4v4h-4zM208 188h4v4h-4zM212 188h4v4h-4zM216 188h4v4h-4zM220 188h4v4h-4zM224 188h4v4h-4zM228 188h4v4h-4zM232 188h4v4h-4zM236 188h4v4h-4zM240 188h4v4h-4zM244 188h4v4h-4zM248 188h4v4h-4zM252 188h4v4h-4zM256 188h4v4h-4z"/><path fill="#F74E75" d="M260 188h4v4h-4zM192 192h4v4h-4z"/><path fill="#FF7B56" d="M196 192h4v4h-4zM200 192h4v4h-4zM204 192h4v4h-4zM208 192h4v4h-4zM212 192h4v4h-4zM216 192h4v4h-4zM220 192h4v4h-4zM224 192h4v4h-4zM228 192h4v4h-4zM232 192h4v4h-4zM236 192h4v4h-4zM240 192h4v4h-4zM244 192h4v4h-4zM248 192h4v4h-4zM252 192h4v4h-4zM256 192h4v4h-4zM260 192h4v4h-4z"/><path fill="#F74E75" d="M264 192h4v4h-4zM192 196h4v4h-4z"/><path fill="#FF7B56" d="M196 196h4v4h-4zM200 196h4v4h-4zM204 196h4v4h-4zM208 196h4v4h-4zM212 196h4v4h-4zM216 196h4v4h-4zM220 196h4v4h-4zM224 196h4v4h-4zM228 196h4v4h-4zM232 196h4v4h-4zM236 196h4v4h-4zM240 196h4v4h-4zM244 196h4v4h-4zM248 196h4v4h-4zM252 196h4v4h-4zM256 196h4v4h-4zM260 196h4v4h-4z"/><path fill="#F74E75" d="M264 196h4v4h-4zM192 200h4v4h-4z"/><path fill="#FF7B56" d="M196 200h4v4h-4zM200 200h4v4h-4zM204 200h4v4h-4zM208 200h4v4h-4zM212 200h4v4h-4zM216 200h4v4h-4zM220 200h4v4h-4zM224 200h4v4h-4zM228 200h4v4h-4zM232 200h4v4h-4zM236 200h4v4h-4zM240 200h4v4h-4zM244 200h4v4h-4zM248 200h4v4h-4zM252 200h4v4h-4z"/><path fill="#FFFD0B" d="M256 200h4v4h-4z"/><path fill="#FF7B56" d="M260 200h4v4h-4z"/><path fill="#F74E75" d="M264 200h4v4h-4zM192 204h4v4h-4z"/><path fill="#FF7B56" d="M196 204h4v4h-4zM200 204h4v4h-4zM204 204h4v4h-4zM208 204h4v4h-4zM212 204h4v4h-4zM216 204h4v4h-4zM220 204h4v4h-4zM224 204h4v4h-4zM228 204h4v4h-4zM232 204h4v4h-4z"/><path fill="#FFFD0B" d="M236 204h4v4h-4zM240 204h4v4h-4z"/><path fill="#FF7B56" d="M244 204h4v4h-4zM248 204h4v4h-4zM252 204h4v4h-4zM256 204h4v4h-4zM260 204h4v4h-4z"/><path fill="#F74E75" d="M264 204h4v4h-4zM192 208h4v4h-4z"/><path fill="#FF7B56" d="M196 208h4v4h-4zM200 208h4v4h-4zM204 208h4v4h-4zM208 208h4v4h-4zM212 208h4v4h-4zM216 208h4v4h-4zM220 208h4v4h-4zM224 208h4v4h-4zM228 208h4v4h-4z"/><path fill="#FFFD0B" d="M232 208h4v4h-4z"/><path fill="#F5FF9D" d="M236 208h4v4h-4zM240 208h4v4h-4z"/><path fill="#FFFD0B" d="M244 208h4v4h-4z"/><path fill="#FF7B56" d="M248 208h4v4h-4zM252 208h4v4h-4zM256 208h4v4h-4zM260 208h4v4h-4z"/><path fill="#F74E75" d="M264 208h4v4h-4zM192 212h4v4h-4z"/><path fill="#FF7B56" d="M196 212h4v4h-4zM200 212h4v4h-4zM204 212h4v4h-4zM208 212h4v4h-4zM212 212h4v4h-4zM216 212h4v4h-4zM220 212h4v4h-4zM224 212h4v4h-4z"/><path fill="#FFFD0B" d="M228 212h4v4h-4z"/><path fill="#F5FF9D" d="M232 212h4v4h-4zM236 212h4v4h-4zM240 212h4v4h-4zM244 212h4v4h-4z"/><path fill="#FFFD0B" d="M248 212h4v4h-4z"/><path fill="#FF7B56" d="M252 212h4v4h-4zM256 212h4v4h-4zM260 212h4v4h-4z"/><path fill="#F74E75" d="M264 212h4v4h-4zM192 216h4v4h-4z"/><path fill="#FF7B56" d="M196 216h4v4h-4zM200 216h4v4h-4zM204 216h4v4h-4zM208 216h4v4h-4zM212 216h4v4h-4zM216 216h4v4h-4z"/><path fill="#FFFD0B" d="M220 216h4v4h-4zM224 216h4v4h-4z"/><path fill="#F5FF9D" d="M228 216h4v4h-4zM232 216h4v4h-4zM236 216h4v4h-4zM240 216h4v4h-4zM244 216h4v4h-4zM248 216h4v4h-4z"/><path fill="#FFFD0B" d="M252 216h4v4h-4z"/><path fill="#FF7B56" d="M256 216h4v4h-4zM260 216h4v4h-4z"/><path fill="#F74E75" d="M264 216h4v4h-4zM192 220h4v4h-4z"/><path fill="#FF7B56" d="M196 220h4v4h-4zM200 220h4v4h-4zM204 220h4v4h-4zM208 220h4v4h-4z"/><path fill="#FFFD0B" d="M212 220h4v4h-4zM216 220h4v4h-4z"/><path fill="#F5FF9D" d="M220 220h4v4h-4zM224 220h4v4h-4zM228 220h4v4h-4zM232 220h4v4h-4zM236 220h4v4h-4zM240 220h4v4h-4zM244 220h4v4h-4zM248 220h4v4h-4z"/><path fill="#FFFD0B" d="M252 220h4v4h-4z"/><path fill="#FF7B56" d="M256 220h4v4h-4zM260 220h4v4h-4z"/><path fill="#F74E75" d="M264 220h4v4h-4zM192 224h4v4h-4z"/><path fill="#FF7B56" d="M196 224h4v4h-4zM200 224h4v4h-4zM204 224h4v4h-4zM208 224h4v4h-4z"/><path fill="#FFFD0B" d="M212 224h4v4h-4z"/><path fill="#F5FF9D" d="M216 224h4v4h-4zM220 224h4v4h-4zM224 224h4v4h-4zM228 224h4v4h-4zM232 224h4v4h-4zM236 224h4v4h-4zM240 224h4v4h-4zM244 224h4v4h-4zM248 224h4v4h-4z"/><path fill="#FFFD0B" d="M252 224h4v4h-4z"/><path fill="#FF7B56" d="M256 224h4v4h-4zM260 224h4v4h-4z"/><path fill="#F74E75" d="M264 224h4v4h-4zM196 228h4v4h-4z"/><path fill="#FF7B56" d="M200 228h4v4h-4zM204 228h4v4h-4zM208 228h4v4h-4z"/><path fill="#FFFD0B" d="M212 228h4v4h-4z"/><path fill="#F5FF9D" d="M216 228h4v4h-4zM220 228h4v4h-4zM224 228h4v4h-4zM228 228h4v4h-4zM232 228h4v4h-4zM236 228h4v4h-4zM240 228h4v4h-4zM244 228h4v4h-4zM248 228h4v4h-4z"/><path fill="#FFFD0B" d="M252 228h4v4h-4z"/><path fill="#FF7B56" d="M256 228h4v4h-4z"/><path fill="#F74E75" d="M260 228h4v4h-4zM196 232h4v4h-4z"/><path fill="#FF7B56" d="M200 232h4v4h-4zM204 232h4v4h-4zM208 232h4v4h-4z"/><path fill="#FFFD0B" d="M212 232h4v4h-4z"/><path fill="#F5FF9D" d="M216 232h4v4h-4zM220 232h4v4h-4zM224 232h4v4h-4zM228 232h4v4h-4zM232 232h4v4h-4zM236 232h4v4h-4zM240 232h4v4h-4zM244 232h4v4h-4zM248 232h4v4h-4z"/><path fill="#FFFD0B" d="M252 232h4v4h-4z"/><path fill="#FF7B56" d="M256 232h4v4h-4z"/><path fill="#F74E75" d="M260 232h4v4h-4z"/><path fill="#00151D" d="M196 236h4v4h-4z"/><path fill="#F74E75" d="M200 236h4v4h-4z"/><path fill="#FF7B56" d="M204 236h4v4h-4zM208 236h4v4h-4zM212 236h4v4h-4z"/><path fill="#FFFD0B" d="M216 236h4v4h-4z"/><path fill="#F5FF9D" d="M220 236h4v4h-4zM224 236h4v4h-4zM228 236h4v4h-4zM232 236h4v4h-4zM236 236h4v4h-4zM240 236h4v4h-4zM244 236h4v4h-4z"/><path fill="#FFFD0B" d="M248 236h4v4h-4z"/><path fill="#FF7B56" d="M252 236h4v4h-4z"/><path fill="#F74E75" d="M256 236h4v4h-4z"/><path fill="#00151D" d="M196 240h4v4h-4z"/><path fill="#F74E75" d="M200 240h4v4h-4z"/><path fill="#FF7B56" d="M204 240h4v4h-4zM208 240h4v4h-4zM212 240h4v4h-4z"/><path fill="#FFFD0B" d="M216 240h4v4h-4z"/><path fill="#F5FF9D" d="M220 240h4v4h-4zM224 240h4v4h-4zM228 240h4v4h-4zM232 240h4v4h-4zM236 240h4v4h-4zM240 240h4v4h-4z"/><path fill="#FFFD0B" d="M244 240h4v4h-4z"/><path fill="#FF7B56" d="M248 240h4v4h-4zM252 240h4v4h-4z"/><path fill="#F74E75" d="M256 240h4v4h-4z"/><path fill="#00151D" d="M192 244h4v4h-4z"/><path fill="#427384" d="M196 244h4v4h-4zM200 244h4v4h-4z"/><path fill="#F74E75" d="M204 244h4v4h-4zM208 244h4v4h-4z"/><path fill="#FF7B56" d="M212 244h4v4h-4zM216 244h4v4h-4z"/><path fill="#FFFD0B" d="M220 244h4v4h-4zM224 244h4v4h-4zM228 244h4v4h-4zM232 244h4v4h-4zM236 244h4v4h-4zM240 244h4v4h-4z"/><path fill="#FF7B56" d="M244 244h4v4h-4z"/><path fill="#F74E75" d="M248 244h4v4h-4zM252 244h4v4h-4z"/><path fill="#00151D" d="M192 248h4v4h-4z"/><path fill="#427384" d="M196 248h4v4h-4zM200 248h4v4h-4zM204 248h4v4h-4zM208 248h4v4h-4z"/><path fill="#F74E75" d="M212 248h4v4h-4zM216 248h4v4h-4z"/><path fill="#FF7B56" d="M220 248h4v4h-4zM224 248h4v4h-4zM228 248h4v4h-4zM232 248h4v4h-4zM236 248h4v4h-4z"/><path fill="#F74E75" d="M240 248h4v4h-4zM244 248h4v4h-4z"/><path fill="#427384" d="M248 248h4v4h-4z"/><path fill="#00151D" d="M252 248h4v4h-4zM192 252h4v4h-4z"/><path fill="#427384" d="M196 252h4v4h-4zM200 252h4v4h-4zM204 252h4v4h-4zM208 252h4v4h-4zM212 252h4v4h-4zM216 252h4v4h-4z"/><path fill="#F74E75" d="M220 252h4v4h-4zM224 252h4v4h-4zM228 252h4v4h-4zM232 252h4v4h-4zM236 252h4v4h-4z"/><path fill="#427384" d="M240 252h4v4h-4zM244 252h4v4h-4zM248 252h4v4h-4z"/><path fill="#00151D" d="M252 252h4v4h-4zM192 256h4v4h-4z"/><path fill="#427384" d="M196 256h4v4h-4zM200 256h4v4h-4zM204 256h4v4h-4zM208 256h4v4h-4zM212 256h4v4h-4zM216 256h4v4h-4zM220 256h4v4h-4zM224 256h4v4h-4zM228 256h4v4h-4zM232 256h4v4h-4zM236 256h4v4h-4zM240 256h4v4h-4zM244 256h4v4h-4zM248 256h4v4h-4z"/><path fill="#00151D" d="M252 256h4v4h-4zM192 260h4v4h-4z"/><path fill="#427384" d="M196 260h4v4h-4zM200 260h4v4h-4zM204 260h4v4h-4zM208 260h4v4h-4zM212 260h4v4h-4z"/><path fill="#2A5766" d="M216 260h4v4h-4zM220 260h4v4h-4zM224 260h4v4h-4zM228 260h4v4h-4zM232 260h4v4h-4zM236 260h4v4h-4zM240 260h4v4h-4z"/><path fill="#427384" d="M244 260h4v4h-4zM248 260h4v4h-4z"/><path fill="#00151D" d="M252 260h4v4h-4zM192 264h4v4h-4z"/><path fill="#427384" d="M196 264h4v4h-4zM200 264h4v4h-4zM204 264h4v4h-4zM208 264h4v4h-4z"/><path fill="#2A5766" d="M212 264h4v4h-4z"/><path fill="#427384" d="M216 264h4v4h-4zM220 264h4v4h-4z"/><path fill="#2A5766" d="M224 264h4v4h-4zM228 264h4v4h-4zM232 264h4v4h-4zM236 264h4v4h-4z"/><path fill="#417283" d="M240 264h4v4h-4z"/><path fill="#2A5766" d="M244 264h4v4h-4z"/><path fill="#427384" d="M248 264h4v4h-4z"/><path fill="#00151D" d="M252 264h4v4h-4zM196 268h4v4h-4z"/><path fill="#427384" d="M200 268h4v4h-4zM204 268h4v4h-4zM208 268h4v4h-4z"/><path fill="#2A5766" d="M212 268h4v4h-4z"/><path fill="#427384" d="M216 268h4v4h-4zM220 268h4v4h-4zM224 268h4v4h-4zM228 268h4v4h-4zM232 268h4v4h-4zM236 268h4v4h-4z"/><path fill="#417283" d="M240 268h4v4h-4z"/><path fill="#2A5766" d="M244 268h4v4h-4z"/><path fill="#00151D" d="M248 268h4v4h-4zM196 272h4v4h-4z"/><path fill="#427384" d="M200 272h4v4h-4zM204 272h4v4h-4zM208 272h4v4h-4z"/><path fill="#2A5766" d="M212 272h4v4h-4z"/><path fill="#427384" d="M216 272h4v4h-4z"/><path fill="#F34F76" d="M220 272h4v4h-4z"/><path fill="#427384" d="M224 272h4v4h-4z"/><path fill="#F34F76" d="M228 272h4v4h-4zM232 272h4v4h-4z"/><path fill="#427384" d="M236 272h4v4h-4z"/><path fill="#F34F76" d="M240 272h4v4h-4z"/><path fill="#2A5766" d="M244 272h4v4h-4z"/><path fill="#00151D" d="M248 272h4v4h-4zM200 276h4v4h-4z"/><path fill="#427384" d="M204 276h4v4h-4zM208 276h4v4h-4z"/><path fill="#2A5766" d="M212 276h4v4h-4z"/><path fill="#427384" d="M216 276h4v4h-4z"/><path fill="#F34F76" d="M220 276h4v4h-4z"/><path fill="#427384" d="M224 276h4v4h-4z"/><path fill="#F34F76" d="M228 276h4v4h-4zM232 276h4v4h-4z"/><path fill="#427384" d="M236 276h4v4h-4z"/><path fill="#F34F76" d="M240 276h4v4h-4z"/><path fill="#00151D" d="M244 276h4v4h-4zM204 280h4v4h-4z"/><path fill="#295665" d="M208 280h4v4h-4zM212 280h4v4h-4z"/><path fill="#427384" d="M216 280h4v4h-4zM220 280h4v4h-4zM224 280h4v4h-4zM228 280h4v4h-4zM232 280h4v4h-4zM236 280h4v4h-4z"/><path fill="#295665" d="M240 280h4v4h-4z"/><path fill="#00151D" d="M244 280h4v4h-4zM208 284h4v4h-4z"/><path fill="#295665" d="M212 284h4v4h-4zM216 284h4v4h-4zM220 284h4v4h-4zM224 284h4v4h-4zM228 284h4v4h-4zM232 284h4v4h-4zM236 284h4v4h-4z"/><path fill="#00151D" d="M240 284h4v4h-4zM212 288h4v4h-4z"/><path fill="#295665" d="M216 288h4v4h-4zM220 288h4v4h-4zM224 288h4v4h-4zM228 288h4v4h-4zM232 288h4v4h-4z"/><path fill="#00151D" d="M236 288h4v4h-4zM216 292h4v4h-4zM220 292h4v4h-4zM224 292h4v4h-4zM228 292h4v4h-4zM232 292h4v4h-4z"/></svg>