<svg width="384" height="384" xmlns="http://www.w3.org/2000/svg" shape-rendering="crispEdges"><path fill="#000825" d="M200 192h4v4h-4zM204 192h4v4h-4zM208 192h4v4h-4zM212 192h4v4h-4zM216 192h4v4h-4zM220 192h4v4h-4zM224 192h4v4h-4zM228 192h4v4h-4zM232 192h4v4h-4zM236 192h4v4h-4zM240 192h4v4h-4zM244 192h4v4h-4zM248 192h4v4h-4zM196 196h4v4h-4z"/><path fill="#46578C" d="M200 196h4v4h-4z"/><path fill="#313451" d="M204 196h4v4h-4z"/><path fill="#46578C" d="M208 196h4v4h-4zM212 196h4v4h-4zM216 196h4v4h-4zM220 196h4v4h-4zM224 196h4v4h-4zM228 196h4v4h-4zM232 196h4v4h-4zM236 196h4v4h-4zM240 196h4v4h-4zM244 196h4v4h-4zM248 196h4v4h-4z"/><path fill="#000825" d="M252 196h4v4h-4zM196 200h4v4h-4z"/><path fill="#46578C" d="M200 200h4v4h-4zM204 200h4v4h-4zM208 200h4v4h-4z"/><path fill="#313451" d="M212 200h4v4h-4z"/><path fill="#46578C" d="M216 200h4v4h-4zM220 200h4v4h-4zM224 200h4v4h-4zM228 200h4v4h-4zM232 200h4v4h-4zM236 200h4v4h-4zM240 200h4v4h-4z"/><path fill="#313451" d="M244 200h4v4h-4z"/><path fill="#46578C" d="M248 200h4v4h-4z"/><path fill="#000825" d="M252 200h4v4h-4zM196 204h4v4h-4z"/><path fill="#46578C" d="M200 204h4v4h-4zM204 204h4v4h-4zM208 204h4v4h-4z"/><path fill="#313451" d="M212 204h4v4h-4zM216 204h4v4h-4zM220 204h4v4h-4zM224 204h4v4h-4zM228 204h4v4h-4zM232 204h4v4h-4zM236 204h4v4h-4zM240 204h4v4h-4zM244 204h4v4h-4z"/><path fill="#46578C" d="M248 204h4v4h-4z"/><path fill="#000825" d="M252 204h4v4h-4zM196 208h4v4h-4z"/><path fill="#46578C" d="M200 208h4v4h-4z"/><path fill="#313451" d="M204 208h4v4h-4z"/><path fill="#46578C" d="M208 208h4v4h-4z"/><path fill="#313451" d="M212 208h4v4h-4zM216 208h4v4h-4zM220 208h4v4h-4zM224 208h4v4h-4zM228 208h4v4h-4zM232 208h4v4h-4zM236 208h4v4h-4zM240 208h4v4h-4zM244 208h4v4h-4z"/><path fill="#46578C" d="M248 208h4v4h-4z"/><path fill="#000825" d="M252 208h4v4h-4zM196 212h4v4h-4z"/><path fill="#46578C" d="M200 212h4v4h-4zM204 212h4v4h-4zM208 212h4v4h-4zM212 212h4v4h-4zM216 212h4v4h-4z"/><path fill="#313451" d="M220 212h4v4h-4z"/><path fill="#FC611D" d="M224 212h4v4h-4z"/><path fill="#EFFFB9" d="M228 212h4v4h-4zM232 212h4v4h-4z"/><path fill="#FC611D" d="M236 212h4v4h-4z"/><path fill="#313451" d="M240 212h4v4h-4z"/><path fill="#46578C" d="M244 212h4v4h-4zM248 212h4v4h-4z"/><path fill="#000825" d="M252 212h4v4h-4zM196 216h4v4h-4z"/><path fill="#46578C" d="M200 216h4v4h-4zM204 216h4v4h-4zM208 216h4v4h-4zM212 216h4v4h-4zM216 216h4v4h-4z"/><path fill="#FC611D" d="M220 216h4v4h-4zM224 216h4v4h-4z"/><path fill="#EFFFB9" d="M228 216h4v4h-4zM232 216h4v4h-4z"/><path fill="#FC611D" d="M236 216h4v4h-4zM240 216h4v4h-4z"/><path fill="#46578C" d="M244 216h4v4h-4zM248 216h4v4h-4z"/><path fill="#000825" d="M252 216h4v4h-4zM196 220h4v4h-4z"/><path fill="#46578C" d="M200 220h4v4h-4z"/><path fill="#313451" d="M204 220h4v4h-4z"/><path fill="#46578C" d="M208 220h4v4h-4zM212 220h4v4h-4zM216 220h4v4h-4zM220 220h4v4h-4z"/><path fill="#FC611D" d="M224 220h4v4h-4z"/><path fill="#EFFFB9" d="M228 220h4v4h-4zM232 220h4v4h-4z"/><path fill="#FC611D" d="M236 220h4v4h-4z"/><path fill="#46578C" d="M240 220h4v4h-4zM244 220h4v4h-4zM248 220h4v4h-4z"/><path fill="#000825" d="M252 220h4v4h-4zM196 224h4v4h-4z"/><path fill="#46578C" d="M200 224h4v4h-4zM204 224h4v4h-4zM208 224h4v4h-4zM212 224h4v4h-4zM216 224h4v4h-4zM220 224h4v4h-4zM224 224h4v4h-4zM228 224h4v4h-4zM232 224h4v4h-4zM236 224h4v4h-4zM240 224h4v4h-4zM244 224h4v4h-4zM248 224h4v4h-4z"/><path fill="#000825" d="M252 224h4v4h-4zM196 228h4v4h-4z"/><path fill="#46578C" d="M200 228h4v4h-4zM204 228h4v4h-4zM208 228h4v4h-4zM212 228h4v4h-4zM216 228h4v4h-4zM220 228h4v4h-4zM224 228h4v4h-4zM228 228h4v4h-4zM232 228h4v4h-4zM236 228h4v4h-4zM240 228h4v4h-4zM244 228h4v4h-4zM248 228h4v4h-4z"/><path fill="#000825" d="M252 228h4v4h-4zM196 232h4v4h-4z"/><path fill="#313451" d="M200 232h4v4h-4zM204 232h4v4h-4z"/><path fill="#46578C" d="M208 232h4v4h-4zM212 232h4v4h-4zM216 232h4v4h-4zM220 232h4v4h-4zM224 232h4v4h-4zM228 232h4v4h-4zM232 232h4v4h-4zM236 232h4v4h-4zM240 232h4v4h-4zM244 232h4v4h-4z"/><path fill="#000825" d="M248 232h4v4h-4zM196 236h4v4h-4z"/><path fill="#46578C" d="M200 236h4v4h-4z"/><path fill="#313451" d="M204 236h4v4h-4z"/><path fill="#46578C" d="M208 236h4v4h-4zM212 236h4v4h-4zM216 236h4v4h-4z"/><path fill="#FC611D" d="M220 236h4v4h-4z"/><path fill="#46578C" d="M224 236h4v4h-4z"/><path fill="#FC611D" d="M228 236h4v4h-4z"/><path fill="#46578C" d="M232 236h4v4h-4z"/><path fill="#FC611D" d="M236 236h4v4h-4z"/><path fill="#46578C" d="M240 236h4v4h-4zM244 236h4v4h-4z"/><path fill="#000825" d="M248 236h4v4h-4zM196 240h4v4h-4z"/><path fill="#46578C" d="M200 240h4v4h-4z"/><path fill="#313451" d="M204 240h4v4h-4z"/><path fill="#46578C" d="M208 240h4v4h-4zM212 240h4v4h-4zM216 240h4v4h-4z"/><path fill="#FC611D" d="M220 240h4v4h-4zM224 240h4v4h-4zM228 240h4v4h-4zM232 240h4v4h-4zM236 240h4v4h-4z"/><path fill="#46578C" d="M240 240h4v4h-4zM244 240h4v4h-4z"/><path fill="#000825" d="M248 240h4v4h-4zM196 244h4v4h-4z"/><path fill="#46578C" d="M200 244h4v4h-4z"/><path fill="#313451" d="M204 244h4v4h-4z"/><path fill="#46578C" d="M208 244h4v4h-4zM212 244h4v4h-4z"/><path fill="#FC611D" d="M216 244h4v4h-4zM220 244h4v4h-4zM224 244h4v4h-4zM228 244h4v4h-4zM232 244h4v4h-4z"/><path fill="#46578C" d="M236 244h4v4h-4zM240 244h4v4h-4zM244 244h4v4h-4z"/><path fill="#000825" d="M248 244h4v4h-4zM192 248h4v4h-4z"/><path fill="#46578C" d="M196 248h4v4h-4zM200 248h4v4h-4z"/><path fill="#313451" d="M204 248h4v4h-4z"/><path fill="#46578C" d="M208 248h4v4h-4zM212 248h4v4h-4z"/><path fill="#FC611D" d="M216 248h4v4h-4zM220 248h4v4h-4zM224 248h4v4h-4zM228 248h4v4h-4zM232 248h4v4h-4z"/><path fill="#46578C" d="M236 248h4v4h-4zM240 248h4v4h-4zM244 248h4v4h-4z"/><path fill="#000825" d="M248 248h4v4h-4zM192 252h4v4h-4z"/><path fill="#46578C" d="M196 252h4v4h-4zM200 252h4v4h-4z"/><path fill="#313451" d="M204 252h4v4h-4zM208 252h4v4h-4zM212 252h4v4h-4z"/><path fill="#FC611D" d="M216 252h4v4h-4zM220 252h4v4h-4zM224 252h4v4h-4zM228 252h4v4h-4zM232 252h4v4h-4z"/><path fill="#313451" d="M236 252h4v4h-4zM240 252h4v4h-4zM244 252h4v4h-4zM248 252h4v4h-4z"/><path fill="#000825" d="M252 252h4v4h-4zM192 256h4v4h-4z"/><path fill="#46578C" d="M196 256h4v4h-4zM200 256h4v4h-4zM204 256h4v4h-4zM208 256h4v4h-4zM212 256h4v4h-4z"/><path fill="#FC611D" d="M216 256h4v4h-4zM220 256h4v4h-4zM224 256h4v4h-4zM228 256h4v4h-4zM232 256h4v4h-4z"/><path fill="#46578C" d="M236 256h4v4h-4zM240 256h4v4h-4zM244 256h4v4h-4zM248 256h4v4h-4z"/><path fill="#000825" d="M252 256h4v4h-4zM192 260h4v4h-4z"/><path fill="#46578C" d="M196 260h4v4h-4zM200 260h4v4h-4zM204 260h4v4h-4zM208 260h4v4h-4zM212 260h4v4h-4z"/><path fill="#FC611D" d="M216 260h4v4h-4zM220 260h4v4h-4zM224 260h4v4h-4zM228 260h4v4h-4zM232 260h4v4h-4z"/><path fill="#46578C" d="M236 260h4v4h-4zM240 260h4v4h-4zM244 260h4v4h-4zM248 260h4v4h-4z"/><path fill="#000825" d="M252 260h4v4h-4zM192 264h4v4h-4z"/><path fill="#46578C" d="M196 264h4v4h-4zM200 264h4v4h-4zM204 264h4v4h-4zM208 264h4v4h-4zM212 264h4v4h-4z"/><path fill="#FC611D" d="M216 264h4v4h-4zM220 264h4v4h-4zM224 264h4v4h-4zM228 264h4v4h-4zM232 264h4v4h-4z"/><path fill="#46578C" d="M236 264h4v4h-4zM240 264h4v4h-4zM244 264h4v4h-4zM248 264h4v4h-4z"/><path fill="#000825" d="M252 264h4v4h-4zM192 268h4v4h-4z"/><path fill="#46578C" d="M196 268h4v4h-4zM200 268h4v4h-4zM204 268h4v4h-4zM208 268h4v4h-4zM212 268h4v4h-4zM216 268h4v4h-4z"/><path fill="#FC611D" d="M220 268h4v4h-4z"/><path fill="#46578C" d="M224 268h4v4h-4z"/><path fill="#FC611D" d="M228 268h4v4h-4z"/><path fill="#46578C" d="M232 268h4v4h-4z"/><path fill="#FC611D" d="M236 268h4v4h-4z"/><path fill="#46578C" d="M240 268h4v4h-4zM244 268h4v4h-4zM248 268h4v4h-4z"/><path fill="#000825" d="M252 268h4v4h-4zM196 272h4v4h-4z"/><path fill="#46578C" d="M200 272h4v4h-4zM204 272h4v4h-4zM208 272h4v4h-4zM212 272h4v4h-4zM216 272h4v4h-4zM220 272h4v4h-4zM224 272h4v4h-4zM228 272h4v4h-4zM232 272h4v4h-4zM236 272h4v4h-4zM240 272h4v4h-4zM244 272h4v4h-4z"/><path fill="#000825" d="M248 272h4v4h-4zM196 276h4v4h-4z"/><path fill="#46578C" d="M200 276h4v4h-4zM204 276h4v4h-4zM208 276h4v4h-4zM212 276h4v4h-4zM216 276h4v4h-4zM220 276h4v4h-4zM224 276h4v4h-4zM228 276h4v4h-4zM232 276h4v4h-4zM236 276h4v4h-4zM240 276h4v4h-4zM244 276h4v4h-4z"/><path fill="#000825" d="M248 276h4v4h-4zM200 280h4v4h-4z"/><path fill="#46578C" d="M204 280h4v4h-4zM208 280h4v4h-4zM212 280h4v4h-4zM216 280h4v4h-4zM220 280h4v4h-4zM224 280h4v4h-4zM228 280h4v4h-4zM232 280h4v4h-4zM236 280h4v4h-4z"/><path fill="#2C3C6D" d="M240 280h4v4h-4z"/><path fill="#000825" d="M244 280h4v4h-4zM204 284h4v4h-4z"/><path fill="#2C3C6D" d="M208 284h4v4h-4zM212 284h4v4h-4z"/><path fill="#46578C" d="M216 284h4v4h-4zM220 284h4v4h-4zM224 284h4v4h-4zM228 284h4v4h-4zM232 284h4v4h-4zM236 284h4v4h-4z"/><path fill="#2C3C6D" d="M240 284h4v4h-4z"/><path fill="#000825" d="M244 284h4v4h-4zM208 288h4v4h-4z"/><path fill="#2C3C6D" d="M212 288h4v4h-4zM216 288h4v4h-4zM220 288h4v4h-4zM224 288h4v4h-4zM228 288h4v4h-4zM232 288h4v4h-4zM236 288h4v4h-4z"/><path fill="#000825" d="M240 288h4v4h-4zM212 292h4v4h-4z"/><path fill="#2C3C6D" d="M216 292h4v4h-4zM220 292h4v4h-4zM224 292h4v4h-4zM228 292h4v4h-4zM232 292h4v4h-4z"/><path fill="#000825" d="M236 292h4v4h-4zM216 296h4v4h-4zM220 296h4v4h-4zM224 296h4v4h-4zM228 296h4v4h-4zM232 296h4v4h-4z"/></svg>