<svg width="384" height="384" xmlns="http://www.w3.org/2000/svg" shape-rendering="crispEdges"><path fill="#503603" d="M244 176h4v4h-4zM248 176h4v4h-4zM252 176h4v4h-4zM204 180h4v4h-4zM208 180h4v4h-4zM212 180h4v4h-4zM240 180h4v4h-4z"/><path fill="#6C5019" d="M244 180h4v4h-4zM248 180h4v4h-4zM252 180h4v4h-4z"/><path fill="#503603" d="M256 180h4v4h-4zM200 184h4v4h-4z"/><path fill="#6C5019" d="M204 184h4v4h-4zM208 184h4v4h-4zM212 184h4v4h-4z"/><path fill="#503603" d="M216 184h4v4h-4zM236 184h4v4h-4z"/><path fill="#6C5019" d="M240 184h4v4h-4zM244 184h4v4h-4zM248 184h4v4h-4zM252 184h4v4h-4zM256 184h4v4h-4z"/><path fill="#503603" d="M260 184h4v4h-4zM196 188h4v4h-4z"/><path fill="#6C5019" d="M200 188h4v4h-4zM204 188h4v4h-4zM208 188h4v4h-4zM212 188h4v4h-4zM216 188h4v4h-4z"/><path fill="#503603" d="M220 188h4v4h-4zM232 188h4v4h-4z"/><path fill="#644D1F" d="M236 188h4v4h-4z"/><path fill="#FFF15F" d="M240 188h4v4h-4zM244 188h4v4h-4z"/><path fill="#00FFAF" d="M248 188h4v4h-4zM252 188h4v4h-4z"/><path fill="#FFF15F" d="M256 188h4v4h-4z"/><path fill="#503603" d="M260 188h4v4h-4zM192 192h4v4h-4z"/><path fill="#644D1F" d="M196 192h4v4h-4z"/><path fill="#FFF15F" d="M200 192h4v4h-4z"/><path fill="#00FFAF" d="M204 192h4v4h-4zM208 192h4v4h-4zM212 192h4v4h-4z"/><path fill="#FFF15F" d="M216 192h4v4h-4z"/><path fill="#503603" d="M220 192h4v4h-4zM232 192h4v4h-4z"/><path fill="#644D1F" d="M236 192h4v4h-4z"/><path fill="#FFF15F" d="M240 192h4v4h-4zM244 192h4v4h-4z"/><path fill="#00FFAF" d="M248 192h4v4h-4zM252 192h4v4h-4z"/><path fill="#FFF15F" d="M256 192h4v4h-4z"/><path fill="#503603" d="M260 192h4v4h-4zM192 196h4v4h-4z"/><path fill="#644D1F" d="M196 196h4v4h-4z"/><path fill="#FFF15F" d="M200 196h4v4h-4z"/><path fill="#00FFAF" d="M204 196h4v4h-4zM208 196h4v4h-4zM212 196h4v4h-4z"/><path fill="#FFF15F" d="M216 196h4v4h-4z"/><path fill="#503603" d="M220 196h4v4h-4zM236 196h4v4h-4z"/><path fill="#644D1F" d="M240 196h4v4h-4z"/><path fill="#FFF15F" d="M244 196h4v4h-4zM248 196h4v4h-4zM252 196h4v4h-4z"/><path fill="#644D1F" d="M256 196h4v4h-4z"/><path fill="#503603" d="M260 196h4v4h-4zM192 200h4v4h-4z"/><path fill="#644D1F" d="M196 200h4v4h-4zM200 200h4v4h-4z"/><path fill="#FFF15F" d="M204 200h4v4h-4zM208 200h4v4h-4zM212 200h4v4h-4z"/><path fill="#644D1F" d="M216 200h4v4h-4z"/><path fill="#503603" d="M240 200h4v4h-4z"/><path fill="#644D1F" d="M244 200h4v4h-4zM248 200h4v4h-4zM252 200h4v4h-4z"/><path fill="#503603" d="M256 200h4v4h-4zM196 204h4v4h-4z"/><path fill="#644D1F" d="M200 204h4v4h-4zM204 204h4v4h-4zM208 204h4v4h-4zM212 204h4v4h-4z"/><path fill="#503603" d="M216 204h4v4h-4zM240 204h4v4h-4z"/><path fill="#644D1F" d="M244 204h4v4h-4z"/><path fill="#503603" d="M248 204h4v4h-4zM252 204h4v4h-4zM200 208h4v4h-4z"/><path fill="#644D1F" d="M204 208h4v4h-4zM208 208h4v4h-4z"/><path fill="#503603" d="M212 208h4v4h-4zM216 208h4v4h-4zM224 208h4v4h-4zM228 208h4v4h-4zM232 208h4v4h-4zM236 208h4v4h-4z"/><path fill="#644D1F" d="M240 208h4v4h-4z"/><path fill="#503603" d="M244 208h4v4h-4zM200 212h4v4h-4z"/><path fill="#644D1F" d="M204 212h4v4h-4zM208 212h4v4h-4z"/><path fill="#503603" d="M212 212h4v4h-4zM220 212h4v4h-4z"/><path fill="#6C5019" d="M224 212h4v4h-4zM228 212h4v4h-4zM232 212h4v4h-4z"/><path fill="#503603" d="M236 212h4v4h-4z"/><path fill="#644D1F" d="M240 212h4v4h-4z"/><path fill="#503603" d="M244 212h4v4h-4zM200 216h4v4h-4z"/><path fill="#947870" d="M204 216h4v4h-4zM208 216h4v4h-4z"/><path fill="#503603" d="M212 216h4v4h-4zM216 216h4v4h-4z"/><path fill="#6C5019" d="M220 216h4v4h-4zM224 216h4v4h-4zM228 216h4v4h-4zM232 216h4v4h-4zM236 216h4v4h-4z"/><path fill="#503603" d="M240 216h4v4h-4zM244 216h4v4h-4zM200 220h4v4h-4z"/><path fill="#947870" d="M204 220h4v4h-4zM208 220h4v4h-4z"/><path fill="#503603" d="M212 220h4v4h-4z"/><path fill="#644D1F" d="M216 220h4v4h-4z"/><path fill="#FFF15F" d="M220 220h4v4h-4zM224 220h4v4h-4z"/><path fill="#00FFAF" d="M228 220h4v4h-4zM232 220h4v4h-4z"/><path fill="#FFF15F" d="M236 220h4v4h-4z"/><path fill="#503603" d="M240 220h4v4h-4zM244 220h4v4h-4zM200 224h4v4h-4z"/><path fill="#6C5019" d="M204 224h4v4h-4z"/><path fill="#644D1F" d="M208 224h4v4h-4z"/><path fill="#503603" d="M212 224h4v4h-4z"/><path fill="#644D1F" d="M216 224h4v4h-4z"/><path fill="#FFF15F" d="M220 224h4v4h-4zM224 224h4v4h-4z"/><path fill="#00FFAF" d="M228 224h4v4h-4zM232 224h4v4h-4z"/><path fill="#FFF15F" d="M236 224h4v4h-4z"/><path fill="#503603" d="M240 224h4v4h-4zM244 224h4v4h-4zM200 228h4v4h-4z"/><path fill="#6C5019" d="M204 228h4v4h-4z"/><path fill="#644D1F" d="M208 228h4v4h-4z"/><path fill="#503603" d="M212 228h4v4h-4z"/><path fill="#644D1F" d="M216 228h4v4h-4zM220 228h4v4h-4z"/><path fill="#FFF15F" d="M224 228h4v4h-4zM228 228h4v4h-4zM232 228h4v4h-4z"/><path fill="#644D1F" d="M236 228h4v4h-4z"/><path fill="#503603" d="M240 228h4v4h-4zM244 228h4v4h-4zM200 232h4v4h-4z"/><path fill="#6C5019" d="M204 232h4v4h-4z"/><path fill="#644D1F" d="M208 232h4v4h-4zM212 232h4v4h-4z"/><path fill="#503603" d="M216 232h4v4h-4z"/><path fill="#644D1F" d="M220 232h4v4h-4zM224 232h4v4h-4zM228 232h4v4h-4zM232 232h4v4h-4z"/><path fill="#503603" d="M236 232h4v4h-4z"/><path fill="#644D1F" d="M240 232h4v4h-4z"/><path fill="#503603" d="M244 232h4v4h-4zM200 236h4v4h-4z"/><path fill="#947870" d="M204 236h4v4h-4zM208 236h4v4h-4z"/><path fill="#644D1F" d="M212 236h4v4h-4z"/><path fill="#6C5019" d="M216 236h4v4h-4z"/><path fill="#503603" d="M220 236h4v4h-4zM224 236h4v4h-4zM228 236h4v4h-4zM232 236h4v4h-4z"/><path fill="#644D1F" d="M236 236h4v4h-4z"/><path fill="#947870" d="M240 236h4v4h-4z"/><path fill="#503603" d="M244 236h4v4h-4zM196 240h4v4h-4z"/><path fill="#947870" d="M200 240h4v4h-4zM204 240h4v4h-4z"/><path fill="#644D1F" d="M208 240h4v4h-4zM212 240h4v4h-4zM216 240h4v4h-4zM220 240h4v4h-4z"/><path fill="#6C5019" d="M224 240h4v4h-4zM228 240h4v4h-4zM232 240h4v4h-4z"/><path fill="#644D1F" d="M236 240h4v4h-4zM240 240h4v4h-4z"/><path fill="#947870" d="M244 240h4v4h-4z"/><path fill="#503603" d="M248 240h4v4h-4zM196 244h4v4h-4z"/><path fill="#644D1F" d="M200 244h4v4h-4z"/><path fill="#6C5019" d="M204 244h4v4h-4z"/><path fill="#503603" d="M208 244h4v4h-4z"/><path fill="#644D1F" d="M212 244h4v4h-4zM216 244h4v4h-4zM220 244h4v4h-4zM224 244h4v4h-4z"/><path fill="#6C5019" d="M228 244h4v4h-4z"/><path fill="#644D1F" d="M232 244h4v4h-4z"/><path fill="#6C5019" d="M236 244h4v4h-4z"/><path fill="#644D1F" d="M240 244h4v4h-4zM244 244h4v4h-4z"/><path fill="#503603" d="M248 244h4v4h-4zM192 248h4v4h-4z"/><path fill="#644D1F" d="M196 248h4v4h-4zM200 248h4v4h-4z"/><path fill="#6C5019" d="M204 248h4v4h-4zM208 248h4v4h-4z"/><path fill="#503603" d="M212 248h4v4h-4zM216 248h4v4h-4zM220 248h4v4h-4zM224 248h4v4h-4zM228 248h4v4h-4zM232 248h4v4h-4zM236 248h4v4h-4zM240 248h4v4h-4zM244 248h4v4h-4zM248 248h4v4h-4zM252 248h4v4h-4zM192 252h4v4h-4z"/><path fill="#644D1F" d="M196 252h4v4h-4zM200 252h4v4h-4zM204 252h4v4h-4z"/><path fill="#6C5019" d="M208 252h4v4h-4zM212 252h4v4h-4zM216 252h4v4h-4zM220 252h4v4h-4zM224 252h4v4h-4zM228 252h4v4h-4zM232 252h4v4h-4zM236 252h4v4h-4zM240 252h4v4h-4zM244 252h4v4h-4zM248 252h4v4h-4z"/><path fill="#503603" d="M252 252h4v4h-4zM192 256h4v4h-4z"/><path fill="#644D1F" d="M196 256h4v4h-4zM200 256h4v4h-4zM204 256h4v4h-4z"/><path fill="#6C5019" d="M208 256h4v4h-4zM212 256h4v4h-4z"/><path fill="#644D1F" d="M216 256h4v4h-4z"/><path fill="#947870" d="M220 256h4v4h-4z"/><path fill="#644D1F" d="M224 256h4v4h-4z"/><path fill="#947870" d="M228 256h4v4h-4z"/><path fill="#644D1F" d="M232 256h4v4h-4z"/><path fill="#947870" d="M236 256h4v4h-4z"/><path fill="#644D1F" d="M240 256h4v4h-4z"/><path fill="#947870" d="M244 256h4v4h-4z"/><path fill="#644D1F" d="M248 256h4v4h-4z"/><path fill="#503603" d="M252 256h4v4h-4zM192 260h4v4h-4z"/><path fill="#644D1F" d="M196 260h4v4h-4zM200 260h4v4h-4zM204 260h4v4h-4z"/><path fill="#6C5019" d="M208 260h4v4h-4zM212 260h4v4h-4z"/><path fill="#644D1F" d="M216 260h4v4h-4z"/><path fill="#947870" d="M220 260h4v4h-4z"/><path fill="#644D1F" d="M224 260h4v4h-4z"/><path fill="#947870" d="M228 260h4v4h-4zM232 260h4v4h-4zM236 260h4v4h-4z"/><path fill="#644D1F" d="M240 260h4v4h-4z"/><path fill="#947870" d="M244 260h4v4h-4z"/><path fill="#644D1F" d="M248 260h4v4h-4z"/><path fill="#503603" d="M252 260h4v4h-4zM192 264h4v4h-4z"/><path fill="#644D1F" d="M196 264h4v4h-4zM200 264h4v4h-4zM204 264h4v4h-4zM208 264h4v4h-4z"/><path fill="#6C5019" d="M212 264h4v4h-4z"/><path fill="#644D1F" d="M216 264h4v4h-4z"/><path fill="#947870" d="M220 264h4v4h-4z"/><path fill="#644D1F" d="M224 264h4v4h-4z"/><path fill="#947870" d="M228 264h4v4h-4zM232 264h4v4h-4zM236 264h4v4h-4z"/><path fill="#644D1F" d="M240 264h4v4h-4z"/><path fill="#947870" d="M244 264h4v4h-4z"/><path fill="#644D1F" d="M248 264h4v4h-4z"/><path fill="#503603" d="M252 264h4v4h-4zM192 268h4v4h-4z"/><path fill="#574013" d="M196 268h4v4h-4z"/><path fill="#644D1F" d="M200 268h4v4h-4zM204 268h4v4h-4zM208 268h4v4h-4z"/><path fill="#6C5019" d="M212 268h4v4h-4z"/><path fill="#644D1F" d="M216 268h4v4h-4zM220 268h4v4h-4zM224 268h4v4h-4z"/><path fill="#7C3522" d="M228 268h4v4h-4zM232 268h4v4h-4zM236 268h4v4h-4z"/><path fill="#644D1F" d="M240 268h4v4h-4zM244 268h4v4h-4zM248 268h4v4h-4z"/><path fill="#503603" d="M252 268h4v4h-4zM196 272h4v4h-4z"/><path fill="#574013" d="M200 272h4v4h-4z"/><path fill="#644D1F" d="M204 272h4v4h-4zM208 272h4v4h-4z"/><path fill="#6C5019" d="M212 272h4v4h-4z"/><path fill="#644D1F" d="M216 272h4v4h-4zM220 272h4v4h-4z"/><path fill="#7C3522" d="M224 272h4v4h-4zM228 272h4v4h-4zM232 272h4v4h-4zM236 272h4v4h-4z"/><path fill="#644D1F" d="M240 272h4v4h-4z"/><path fill="#574013" d="M244 272h4v4h-4z"/><path fill="#503603" d="M248 272h4v4h-4zM196 276h4v4h-4z"/><path fill="#574013" d="M200 276h4v4h-4zM204 276h4v4h-4z"/><path fill="#644D1F" d="M208 276h4v4h-4z"/><path fill="#6C5019" d="M212 276h4v4h-4zM216 276h4v4h-4z"/><path fill="#644D1F" d="M220 276h4v4h-4z"/><path fill="#7C3522" d="M224 276h4v4h-4zM228 276h4v4h-4zM232 276h4v4h-4zM236 276h4v4h-4z"/><path fill="#644D1F" d="M240 276h4v4h-4z"/><path fill="#574013" d="M244 276h4v4h-4z"/><path fill="#503603" d="M248 276h4v4h-4zM200 280h4v4h-4z"/><path fill="#574013" d="M204 280h4v4h-4zM208 280h4v4h-4z"/><path fill="#6C5019" d="M212 280h4v4h-4zM216 280h4v4h-4z"/><path fill="#644D1F" d="M220 280h4v4h-4z"/><path fill="#7C3522" d="M224 280h4v4h-4zM228 280h4v4h-4zM232 280h4v4h-4zM236 280h4v4h-4z"/><path fill="#574013" d="M240 280h4v4h-4z"/><path fill="#503603" d="M244 280h4v4h-4zM204 284h4v4h-4z"/><path fill="#574013" d="M208 284h4v4h-4zM212 284h4v4h-4zM216 284h4v4h-4zM220 284h4v4h-4zM224 284h4v4h-4zM228 284h4v4h-4zM232 284h4v4h-4zM236 284h4v4h-4zM240 284h4v4h-4z"/><path fill="#503603" d="M244 284h4v4h-4zM208 288h4v4h-4z"/><path fill="#574013" d="M212 288h4v4h-4zM216 288h4v4h-4zM220 288h4v4h-4zM224 288h4v4h-4zM228 288h4v4h-4zM232 288h4v4h-4zM236 288h4v4h-4z"/><path fill="#503603" d="M240 288h4v4h-4zM212 292h4v4h-4z"/><path fill="#574013" d="M216 292h4v4h-4zM220 292h4v4h-4zM224 292h4v4h-4zM228 292h4v4h-4zM232 292h4v4h-4z"/><path fill="#503603" d="M236 292h4v4h-4zM216 296h4v4h-4zM220 296h4v4h-4zM224 296h4v4h-4zM228 296h4v4h-4zM232 296h4v4h-4z"/></svg>