<svg width="384" height="384" xmlns="http://www.w3.org/2000/svg" shape-rendering="crispEdges"><path fill="#00B697" d="M228 88h4v4h-4zM232 88h4v4h-4zM224 92h4v4h-4z"/><path fill="#00EDFF" d="M228 92h4v4h-4zM232 92h4v4h-4z"/><path fill="#00B697" d="M236 92h4v4h-4zM220 96h4v4h-4z"/><path fill="#00EDFF" d="M224 96h4v4h-4zM228 96h4v4h-4zM232 96h4v4h-4zM236 96h4v4h-4z"/><path fill="#00B697" d="M240 96h4v4h-4zM216 100h4v4h-4z"/><path fill="#00EDFF" d="M220 100h4v4h-4zM224 100h4v4h-4zM228 100h4v4h-4zM232 100h4v4h-4zM236 100h4v4h-4zM240 100h4v4h-4z"/><path fill="#00B697" d="M244 100h4v4h-4zM212 104h4v4h-4z"/><path fill="#00EDFF" d="M216 104h4v4h-4zM220 104h4v4h-4zM224 104h4v4h-4zM228 104h4v4h-4z"/><path fill="#93D7FF" d="M232 104h4v4h-4z"/><path fill="#00EDFF" d="M236 104h4v4h-4zM240 104h4v4h-4zM244 104h4v4h-4z"/><path fill="#00B697" d="M248 104h4v4h-4zM212 108h4v4h-4z"/><path fill="#00EDFF" d="M216 108h4v4h-4zM220 108h4v4h-4zM224 108h4v4h-4z"/><path fill="#93D7FF" d="M228 108h4v4h-4zM232 108h4v4h-4z"/><path fill="#00EDFF" d="M236 108h4v4h-4zM240 108h4v4h-4zM244 108h4v4h-4z"/><path fill="#00B697" d="M248 108h4v4h-4zM212 112h4v4h-4z"/><path fill="#00EDFF" d="M216 112h4v4h-4zM220 112h4v4h-4zM224 112h4v4h-4z"/><path fill="#93D7FF" d="M228 112h4v4h-4zM232 112h4v4h-4z"/><path fill="#00EDFF" d="M236 112h4v4h-4zM240 112h4v4h-4zM244 112h4v4h-4z"/><path fill="#00B697" d="M248 112h4v4h-4zM212 116h4v4h-4z"/><path fill="#00EDFF" d="M216 116h4v4h-4zM220 116h4v4h-4zM224 116h4v4h-4z"/><path fill="#93D7FF" d="M228 116h4v4h-4zM232 116h4v4h-4z"/><path fill="#00EDFF" d="M236 116h4v4h-4zM240 116h4v4h-4zM244 116h4v4h-4z"/><path fill="#00B697" d="M248 116h4v4h-4zM216 120h4v4h-4z"/><path fill="#00EDFF" d="M220 120h4v4h-4zM224 120h4v4h-4zM228 120h4v4h-4zM232 120h4v4h-4zM236 120h4v4h-4zM240 120h4v4h-4z"/><path fill="#00B697" d="M244 120h4v4h-4zM220 124h4v4h-4z"/><path fill="#00EDFF" d="M224 124h4v4h-4zM228 124h4v4h-4zM232 124h4v4h-4zM236 124h4v4h-4z"/><path fill="#00B697" d="M240 124h4v4h-4zM224 128h4v4h-4z"/><path fill="#00EDFF" d="M228 128h4v4h-4zM232 128h4v4h-4z"/><path fill="#00B697" d="M236 128h4v4h-4zM228 132h4v4h-4zM232 132h4v4h-4z"/></svg>