<svg width="384" height="384" xmlns="http://www.w3.org/2000/svg" shape-rendering="crispEdges"><path fill="#7BAFED" d="M228 48h4v4h-4zM224 52h4v4h-4z"/><path fill="#60C2FF" d="M228 52h4v4h-4z"/><path fill="#7BAFED" d="M232 52h4v4h-4zM220 56h4v4h-4z"/><path fill="#60C2FF" d="M224 56h4v4h-4zM228 56h4v4h-4zM232 56h4v4h-4z"/><path fill="#7BAFED" d="M236 56h4v4h-4zM216 60h4v4h-4z"/><path fill="#60C2FF" d="M220 60h4v4h-4zM224 60h4v4h-4z"/><path fill="#50EAE2" d="M228 60h4v4h-4z"/><path fill="#6D8AF7" d="M232 60h4v4h-4z"/><path fill="#60C2FF" d="M236 60h4v4h-4z"/><path fill="#7BAFED" d="M240 60h4v4h-4zM216 64h4v4h-4z"/><path fill="#50EAE2" d="M220 64h4v4h-4zM224 64h4v4h-4zM228 64h4v4h-4z"/><path fill="#6D8AF7" d="M232 64h4v4h-4zM236 64h4v4h-4z"/><path fill="#7BAFED" d="M240 64h4v4h-4zM216 68h4v4h-4z"/><path fill="#50EAE2" d="M220 68h4v4h-4zM224 68h4v4h-4zM228 68h4v4h-4z"/><path fill="#6D8AF7" d="M232 68h4v4h-4z"/><path fill="#C4E8E6" d="M236 68h4v4h-4z"/><path fill="#7BAFED" d="M240 68h4v4h-4zM216 72h4v4h-4z"/><path fill="#50EAE2" d="M220 72h4v4h-4zM224 72h4v4h-4zM228 72h4v4h-4z"/><path fill="#6D8AF7" d="M232 72h4v4h-4z"/><path fill="#C4E8E6" d="M236 72h4v4h-4z"/><path fill="#7BAFED" d="M240 72h4v4h-4zM216 76h4v4h-4z"/><path fill="#50EAE2" d="M220 76h4v4h-4zM224 76h4v4h-4zM228 76h4v4h-4z"/><path fill="#6D8AF7" d="M232 76h4v4h-4z"/><path fill="#C4E8E6" d="M236 76h4v4h-4z"/><path fill="#7BAFED" d="M240 76h4v4h-4zM216 80h4v4h-4z"/><path fill="#29FFF4" d="M220 80h4v4h-4z"/><path fill="#50EAE2" d="M224 80h4v4h-4zM228 80h4v4h-4z"/><path fill="#6D8AF7" d="M232 80h4v4h-4z"/><path fill="#C4E8E6" d="M236 80h4v4h-4z"/><path fill="#7BAFED" d="M240 80h4v4h-4zM216 84h4v4h-4z"/><path fill="#29FFF4" d="M220 84h4v4h-4zM224 84h4v4h-4z"/><path fill="#50EAE2" d="M228 84h4v4h-4z"/><path fill="#6D8AF7" d="M232 84h4v4h-4zM236 84h4v4h-4z"/><path fill="#7BAFED" d="M240 84h4v4h-4zM216 88h4v4h-4z"/><path fill="#29FFF4" d="M220 88h4v4h-4zM224 88h4v4h-4zM228 88h4v4h-4z"/><path fill="#6D8AF7" d="M232 88h4v4h-4zM236 88h4v4h-4z"/><path fill="#7BAFED" d="M240 88h4v4h-4zM216 92h4v4h-4z"/><path fill="#29FFF4" d="M220 92h4v4h-4zM224 92h4v4h-4zM228 92h4v4h-4z"/><path fill="#6D8AF7" d="M232 92h4v4h-4zM236 92h4v4h-4z"/><path fill="#7BAFED" d="M240 92h4v4h-4zM216 96h4v4h-4z"/><path fill="#7EFFF8" d="M220 96h4v4h-4z"/><path fill="#29FFF4" d="M224 96h4v4h-4zM228 96h4v4h-4z"/><path fill="#6D8AF7" d="M232 96h4v4h-4zM236 96h4v4h-4z"/><path fill="#7BAFED" d="M240 96h4v4h-4zM216 100h4v4h-4z"/><path fill="#7EFFF8" d="M220 100h4v4h-4zM224 100h4v4h-4z"/><path fill="#29FFF4" d="M228 100h4v4h-4z"/><path fill="#6D8AF7" d="M232 100h4v4h-4zM236 100h4v4h-4z"/><path fill="#7BAFED" d="M240 100h4v4h-4zM216 104h4v4h-4z"/><path fill="#7EFFF8" d="M220 104h4v4h-4zM224 104h4v4h-4z"/><path fill="#29FFF4" d="M228 104h4v4h-4z"/><path fill="#6D8AF7" d="M232 104h4v4h-4zM236 104h4v4h-4z"/><path fill="#7BAFED" d="M240 104h4v4h-4zM216 108h4v4h-4z"/><path fill="#7EFFF8" d="M220 108h4v4h-4zM224 108h4v4h-4zM228 108h4v4h-4z"/><path fill="#6D8AF7" d="M232 108h4v4h-4zM236 108h4v4h-4z"/><path fill="#7BAFED" d="M240 108h4v4h-4zM216 112h4v4h-4z"/><path fill="#29FFF4" d="M220 112h4v4h-4z"/><path fill="#7EFFF8" d="M224 112h4v4h-4zM228 112h4v4h-4z"/><path fill="#6D8AF7" d="M232 112h4v4h-4zM236 112h4v4h-4z"/><path fill="#7BAFED" d="M240 112h4v4h-4zM220 116h4v4h-4z"/><path fill="#29FFF4" d="M224 116h4v4h-4z"/><path fill="#7EFFF8" d="M228 116h4v4h-4z"/><path fill="#6D8AF7" d="M232 116h4v4h-4z"/><path fill="#7BAFED" d="M236 116h4v4h-4zM224 120h4v4h-4z"/><path fill="#29FFF4" d="M228 120h4v4h-4z"/><path fill="#7BAFED" d="M232 120h4v4h-4zM228 124h4v4h-4z"/></svg>