<svg width="384" height="384" xmlns="http://www.w3.org/2000/svg" shape-rendering="crispEdges"><path fill="#FF5375" d="M228 92h4v4h-4zM224 96h4v4h-4z"/><path fill="#FF741D" d="M228 96h4v4h-4z"/><path fill="#FF5375" d="M232 96h4v4h-4zM212 100h4v4h-4zM216 100h4v4h-4zM220 100h4v4h-4z"/><path fill="#FF741D" d="M224 100h4v4h-4z"/><path fill="#FFB641" d="M228 100h4v4h-4z"/><path fill="#FF741D" d="M232 100h4v4h-4z"/><path fill="#FF5375" d="M236 100h4v4h-4zM240 100h4v4h-4zM244 100h4v4h-4zM208 104h4v4h-4z"/><path fill="#FF741D" d="M212 104h4v4h-4zM216 104h4v4h-4z"/><path fill="#FFB641" d="M220 104h4v4h-4zM224 104h4v4h-4zM228 104h4v4h-4zM232 104h4v4h-4zM236 104h4v4h-4z"/><path fill="#FF741D" d="M240 104h4v4h-4zM244 104h4v4h-4z"/><path fill="#FF5375" d="M248 104h4v4h-4zM212 108h4v4h-4z"/><path fill="#FF741D" d="M216 108h4v4h-4zM220 108h4v4h-4z"/><path fill="#FFB641" d="M224 108h4v4h-4zM228 108h4v4h-4zM232 108h4v4h-4z"/><path fill="#FF741D" d="M236 108h4v4h-4zM240 108h4v4h-4z"/><path fill="#FF5375" d="M244 108h4v4h-4zM216 112h4v4h-4z"/><path fill="#FF741D" d="M220 112h4v4h-4z"/><path fill="#FFB641" d="M224 112h4v4h-4z"/><path fill="#FF741D" d="M228 112h4v4h-4z"/><path fill="#FFB641" d="M232 112h4v4h-4z"/><path fill="#FF741D" d="M236 112h4v4h-4z"/><path fill="#FF5375" d="M240 112h4v4h-4zM216 116h4v4h-4z"/><path fill="#FF741D" d="M220 116h4v4h-4zM224 116h4v4h-4z"/><path fill="#FF5375" d="M228 116h4v4h-4z"/><path fill="#FF741D" d="M232 116h4v4h-4zM236 116h4v4h-4z"/><path fill="#FF5375" d="M240 116h4v4h-4zM216 120h4v4h-4z"/><path fill="#FF741D" d="M220 120h4v4h-4z"/><path fill="#FF5375" d="M224 120h4v4h-4zM232 120h4v4h-4z"/><path fill="#FF741D" d="M236 120h4v4h-4z"/><path fill="#FF5375" d="M240 120h4v4h-4zM220 124h4v4h-4zM236 124h4v4h-4z"/></svg>